<?xml version="1.0" encoding="UTF-8" standalone="no"?><svg xmlns="http://www.w3.org/2000/svg" xmlns:xlink="http://www.w3.org/1999/xlink" contentScriptType="application/ecmascript" contentStyleType="text/css" height="377px" preserveAspectRatio="none" style="width:436px;height:377px;" version="1.1" viewBox="0 0 436 377" width="436px" zoomAndPan="magnify"><defs><filter height="300%" id="f1mzllk9lrr3lv" width="300%" x="-1" y="-1"><feGaussianBlur result="blurOut" stdDeviation="2.0"/><feColorMatrix in="blurOut" result="blurOut2" type="matrix" values="0 0 0 0 0 0 0 0 0 0 0 0 0 0 0 0 0 0 .4 0"/><feOffset dx="4.0" dy="4.0" in="blurOut2" result="blurOut3"/><feBlend in="SourceGraphic" in2="blurOut3" mode="normal"/></filter></defs><g><rect fill="#FFFFFF" filter="url(#f1mzllk9lrr3lv)" height="174.1094" style="stroke:#A80036;stroke-width:1.0;" width="10" x="77" y="99.6094"/><rect fill="#FFFFFF" filter="url(#f1mzllk9lrr3lv)" height="30.3516" style="stroke:#A80036;stroke-width:1.0;" width="10" x="387" y="121.9609"/><rect fill="#FFFFFF" filter="url(#f1mzllk9lrr3lv)" height="30.3516" style="stroke:#A80036;stroke-width:1.0;" width="10" x="387" y="182.6641"/><rect fill="#FFFFFF" filter="url(#f1mzllk9lrr3lv)" height="30.3516" style="stroke:#A80036;stroke-width:1.0;" width="10" x="387" y="243.3672"/><line style="stroke:#A80036;stroke-width:1.0;stroke-dasharray:5.0,5.0;" x1="82" x2="82" y1="89.6094" y2="291.7188"/><line style="stroke:#A80036;stroke-width:1.0;stroke-dasharray:5.0,5.0;" x1="392" x2="392" y1="89.6094" y2="291.7188"/><text fill="#000000" font-family="sans-serif" font-size="14" lengthAdjust="spacing" textLength="148" x="5" y="86.5332">Laboratory Coordinator</text><ellipse cx="82" cy="15" fill="#FEFECE" filter="url(#f1mzllk9lrr3lv)" rx="8" ry="8" style="stroke:#A80036;stroke-width:2.0;"/><path d="M82,23 L82,50 M69,31 L95,31 M82,50 L69,65 M82,50 L95,65 " fill="none" filter="url(#f1mzllk9lrr3lv)" style="stroke:#A80036;stroke-width:2.0;"/><text fill="#000000" font-family="sans-serif" font-size="14" lengthAdjust="spacing" textLength="148" x="5" y="305.252">Laboratory Coordinator</text><ellipse cx="82" cy="318.3281" fill="#FEFECE" filter="url(#f1mzllk9lrr3lv)" rx="8" ry="8" style="stroke:#A80036;stroke-width:2.0;"/><path d="M82,326.3281 L82,353.3281 M69,334.3281 L95,334.3281 M82,353.3281 L69,368.3281 M82,353.3281 L95,368.3281 " fill="none" filter="url(#f1mzllk9lrr3lv)" style="stroke:#A80036;stroke-width:2.0;"/><rect fill="#FEFECE" filter="url(#f1mzllk9lrr3lv)" height="31.6094" style="stroke:#A80036;stroke-width:1.5;" width="64" x="358" y="53"/><text fill="#000000" font-family="sans-serif" font-size="14" lengthAdjust="spacing" textLength="50" x="365" y="74.5332">:System</text><rect fill="#FEFECE" filter="url(#f1mzllk9lrr3lv)" height="31.6094" style="stroke:#A80036;stroke-width:1.5;" width="64" x="358" y="290.7188"/><text fill="#000000" font-family="sans-serif" font-size="14" lengthAdjust="spacing" textLength="50" x="365" y="312.252">:System</text><rect fill="#FFFFFF" filter="url(#f1mzllk9lrr3lv)" height="174.1094" style="stroke:#A80036;stroke-width:1.0;" width="10" x="77" y="99.6094"/><rect fill="#FFFFFF" filter="url(#f1mzllk9lrr3lv)" height="30.3516" style="stroke:#A80036;stroke-width:1.0;" width="10" x="387" y="121.9609"/><rect fill="#FFFFFF" filter="url(#f1mzllk9lrr3lv)" height="30.3516" style="stroke:#A80036;stroke-width:1.0;" width="10" x="387" y="182.6641"/><rect fill="#FFFFFF" filter="url(#f1mzllk9lrr3lv)" height="30.3516" style="stroke:#A80036;stroke-width:1.0;" width="10" x="387" y="243.3672"/><polygon fill="#A80036" points="375,117.9609,385,121.9609,375,125.9609,379,121.9609" style="stroke:#A80036;stroke-width:1.0;"/><line style="stroke:#A80036;stroke-width:1.0;" x1="87" x2="381" y1="121.9609" y2="121.9609"/><text fill="#000000" font-family="sans-serif" font-size="13" font-weight="bold" lengthAdjust="spacing" textLength="7" x="94" y="117.1045">1</text><text fill="#000000" font-family="sans-serif" font-size="13" lengthAdjust="spacing" textLength="270" x="105" y="117.1045">Initiates the process of Importing Clinical Tests</text><polygon fill="#A80036" points="98,148.3125,88,152.3125,98,156.3125,94,152.3125" style="stroke:#A80036;stroke-width:1.0;"/><line style="stroke:#A80036;stroke-width:1.0;stroke-dasharray:2.0,2.0;" x1="92" x2="391" y1="152.3125" y2="152.3125"/><text fill="#000000" font-family="sans-serif" font-size="13" font-weight="bold" lengthAdjust="spacing" textLength="7" x="104" y="147.4561">2</text><text fill="#000000" font-family="sans-serif" font-size="13" lengthAdjust="spacing" textLength="153" x="115" y="147.4561">Asks to choose the File(s)</text><polygon fill="#A80036" points="375,178.6641,385,182.6641,375,186.6641,379,182.6641" style="stroke:#A80036;stroke-width:1.0;"/><line style="stroke:#A80036;stroke-width:1.0;" x1="87" x2="381" y1="182.6641" y2="182.6641"/><text fill="#000000" font-family="sans-serif" font-size="13" font-weight="bold" lengthAdjust="spacing" textLength="7" x="94" y="177.8076">3</text><text fill="#000000" font-family="sans-serif" font-size="13" lengthAdjust="spacing" textLength="106" x="105" y="177.8076">Selects the File(s)</text><polygon fill="#A80036" points="98,209.0156,88,213.0156,98,217.0156,94,213.0156" style="stroke:#A80036;stroke-width:1.0;"/><line style="stroke:#A80036;stroke-width:1.0;stroke-dasharray:2.0,2.0;" x1="92" x2="391" y1="213.0156" y2="213.0156"/><text fill="#000000" font-family="sans-serif" font-size="13" font-weight="bold" lengthAdjust="spacing" textLength="7" x="104" y="208.1592">4</text><text fill="#000000" font-family="sans-serif" font-size="13" lengthAdjust="spacing" textLength="129" x="115" y="208.1592">Requests confirmation</text><polygon fill="#A80036" points="375,239.3672,385,243.3672,375,247.3672,379,243.3672" style="stroke:#A80036;stroke-width:1.0;"/><line style="stroke:#A80036;stroke-width:1.0;" x1="87" x2="381" y1="243.3672" y2="243.3672"/><text fill="#000000" font-family="sans-serif" font-size="13" font-weight="bold" lengthAdjust="spacing" textLength="7" x="94" y="238.5107">5</text><text fill="#000000" font-family="sans-serif" font-size="13" lengthAdjust="spacing" textLength="102" x="105" y="238.5107">Confirms the data</text><polygon fill="#A80036" points="93,269.7188,83,273.7188,93,277.7188,89,273.7188" style="stroke:#A80036;stroke-width:1.0;"/><line style="stroke:#A80036;stroke-width:1.0;stroke-dasharray:2.0,2.0;" x1="87" x2="391" y1="273.7188" y2="273.7188"/><text fill="#000000" font-family="sans-serif" font-size="13" font-weight="bold" lengthAdjust="spacing" textLength="7" x="99" y="268.8623">6</text><text fill="#000000" font-family="sans-serif" font-size="13" lengthAdjust="spacing" textLength="171" x="110" y="268.8623">Informs the operation sucess.</text><!--MD5=[56b48663907fee818156076fa44f5897]
@startuml
autonumber
actor "Laboratory Coordinator" as LabCod

activate LabCod
LabCod -> ":System" : Initiates the process of Importing Clinical Tests
activate ":System"

":System" - -> LabCod : Asks to choose the File(s)
deactivate ":System"

LabCod -> ":System" : Selects the File(s)
activate ":System"

":System" - -> LabCod : Requests confirmation
deactivate ":System"

LabCod -> ":System" : Confirms the data
activate ":System"
":System" - -> LabCod : Informs the operation sucess.
deactivate ":System"

deactivate LabCod

@enduml

PlantUML version 1.2021.5(Sun Apr 25 12:20:28 BST 2021)
(GPL source distribution)
Java Runtime: OpenJDK Runtime Environment
JVM: OpenJDK 64-Bit Server VM
Default Encoding: Cp1252
Language: pt
Country: PT
--></g></svg>