<?xml version="1.0" encoding="UTF-8" standalone="no"?><svg xmlns="http://www.w3.org/2000/svg" xmlns:xlink="http://www.w3.org/1999/xlink" contentScriptType="application/ecmascript" contentStyleType="text/css" height="219px" preserveAspectRatio="none" style="width:786px;height:219px;" version="1.1" viewBox="0 0 786 219" width="786px" zoomAndPan="magnify"><defs><filter height="300%" id="fjn7v4xip1gy" width="300%" x="-1" y="-1"><feGaussianBlur result="blurOut" stdDeviation="2.0"/><feColorMatrix in="blurOut" result="blurOut2" type="matrix" values="0 0 0 0 0 0 0 0 0 0 0 0 0 0 0 0 0 0 .4 0"/><feOffset dx="4.0" dy="4.0" in="blurOut2" result="blurOut3"/><feBlend in="SourceGraphic" in2="blurOut3" mode="normal"/></filter></defs><g><!--MD5=[02e4b9b7573f1156f41e60aa5b4e25a4]
class Company--><rect codeLine="5" fill="#FEFECE" filter="url(#fjn7v4xip1gy)" height="53.8359" id="Company" style="stroke:#A80036;stroke-width:1.5;" width="85" x="7" y="102.8564"/><ellipse cx="22" cy="118.8564" fill="#ADD1B2" rx="11" ry="11" style="stroke:#A80036;stroke-width:1.0;"/><path d="M24,115.3564 Q24.2031,114.8564 24.4375,114.6064 Q24.6719,114.3564 24.9375,114.3564 Q25.4063,114.3564 25.7031,114.6377 Q26,114.9189 26,115.5752 L26,117.1377 Q26,117.7939 25.7188,118.0752 Q25.4375,118.3564 25,118.3564 Q24.6094,118.3564 24.3594,118.1846 Q24.1094,118.0127 24,117.5596 Q23.9531,117.2471 23.7813,117.0752 Q23.4688,116.7471 22.9063,116.5596 Q22.3438,116.3564 21.7813,116.3564 Q21.0781,116.3564 20.4844,116.6377 Q19.9063,116.9189 19.4531,117.5439 Q19,118.1689 19,119.0283 L19,119.9502 Q19,120.9814 19.8438,121.6689 Q20.6875,122.3564 22.1875,122.3564 Q23.0781,122.3564 23.7031,122.1533 Q24.0625,122.0439 24.4688,121.6846 Q24.7344,121.4814 24.875,121.4189 Q25.0156,121.3564 25.1875,121.3564 Q25.5156,121.3564 25.75,121.6221 Q26,121.8721 26,122.2314 Q26,122.5752 25.6563,122.9814 Q25.1563,123.5752 24.3594,123.9033 Q23.3125,124.3564 22.0313,124.3564 Q20.5313,124.3564 19.3281,123.7627 Q18.3594,123.2939 17.6719,122.2783 Q17,121.2627 17,120.0596 L17,118.9658 Q17,117.7158 17.5938,116.6221 Q18.2031,115.5283 19.25,114.9502 Q20.3125,114.3564 21.5,114.3564 Q22.2188,114.3564 22.8438,114.6064 Q23.4688,114.8564 24,115.3564 Z " fill="#000000"/><text fill="#000000" font-family="sans-serif" font-size="12" lengthAdjust="spacing" textLength="53" x="36" y="123.7666">Company</text><line style="stroke:#A80036;stroke-width:1.5;" x1="8" x2="91" y1="134.8564" y2="134.8564"/><text fill="#000000" font-family="sans-serif" font-size="11" lengthAdjust="spacing" textLength="59" x="13" y="150.2754">-designation</text><!--MD5=[df38be88ccee13e832d6fafd6288a4ca]
class Test--><rect codeLine="9" fill="#FEFECE" filter="url(#fjn7v4xip1gy)" height="150.6875" id="Test" style="stroke:#A80036;stroke-width:1.5;" width="128" x="391.5" y="54.3564"/><ellipse cx="439.25" cy="70.3564" fill="#ADD1B2" rx="11" ry="11" style="stroke:#A80036;stroke-width:1.0;"/><path d="M441.25,66.8564 Q441.4531,66.3564 441.6875,66.1064 Q441.9219,65.8564 442.1875,65.8564 Q442.6563,65.8564 442.9531,66.1377 Q443.25,66.4189 443.25,67.0752 L443.25,68.6377 Q443.25,69.2939 442.9688,69.5752 Q442.6875,69.8564 442.25,69.8564 Q441.8594,69.8564 441.6094,69.6846 Q441.3594,69.5127 441.25,69.0596 Q441.2031,68.7471 441.0313,68.5752 Q440.7188,68.2471 440.1563,68.0596 Q439.5938,67.8564 439.0313,67.8564 Q438.3281,67.8564 437.7344,68.1377 Q437.1563,68.4189 436.7031,69.0439 Q436.25,69.6689 436.25,70.5283 L436.25,71.4502 Q436.25,72.4814 437.0938,73.1689 Q437.9375,73.8564 439.4375,73.8564 Q440.3281,73.8564 440.9531,73.6533 Q441.3125,73.5439 441.7188,73.1846 Q441.9844,72.9814 442.125,72.9189 Q442.2656,72.8564 442.4375,72.8564 Q442.7656,72.8564 443,73.1221 Q443.25,73.3721 443.25,73.7314 Q443.25,74.0752 442.9063,74.4814 Q442.4063,75.0752 441.6094,75.4033 Q440.5625,75.8564 439.2813,75.8564 Q437.7813,75.8564 436.5781,75.2627 Q435.6094,74.7939 434.9219,73.7783 Q434.25,72.7627 434.25,71.5596 L434.25,70.4658 Q434.25,69.2158 434.8438,68.1221 Q435.4531,67.0283 436.5,66.4502 Q437.5625,65.8564 438.75,65.8564 Q439.4688,65.8564 440.0938,66.1064 Q440.7188,66.3564 441.25,66.8564 Z " fill="#000000"/><text fill="#000000" font-family="sans-serif" font-size="12" lengthAdjust="spacing" textLength="24" x="459.75" y="75.2666">Test</text><line style="stroke:#A80036;stroke-width:1.5;" x1="392.5" x2="518.5" y1="86.3564" y2="86.3564"/><text fill="#000000" font-family="sans-serif" font-size="11" lengthAdjust="spacing" textLength="64" x="397.5" y="101.7754">-internalCode</text><text fill="#000000" font-family="sans-serif" font-size="11" lengthAdjust="spacing" textLength="47" x="397.5" y="115.6113">-nhsCode</text><text fill="#000000" font-family="sans-serif" font-size="11" lengthAdjust="spacing" textLength="57" x="397.5" y="129.4473">-description</text><text fill="#000000" font-family="sans-serif" font-size="11" lengthAdjust="spacing" textLength="116" x="397.5" y="143.2832">-dateOfSampleCollected</text><text fill="#000000" font-family="sans-serif" font-size="11" lengthAdjust="spacing" textLength="114" x="397.5" y="157.1191">-timeOfSampleCollected</text><text fill="#000000" font-family="sans-serif" font-size="11" lengthAdjust="spacing" textLength="114" x="397.5" y="170.9551">-dateOfSampleAnalysis</text><text fill="#000000" font-family="sans-serif" font-size="11" lengthAdjust="spacing" textLength="112" x="397.5" y="184.791">-timeOfSampleAnalysis</text><text fill="#000000" font-family="sans-serif" font-size="11" lengthAdjust="spacing" textLength="28" x="397.5" y="198.627">-state</text><!--MD5=[1934a092c0e7d4da7dc7075b6f4b6b03]
class ClinicalAnalysisLaboratory--><rect codeLine="20" fill="#FEFECE" filter="url(#fjn7v4xip1gy)" height="53.8359" id="ClinicalAnalysisLaboratory" style="stroke:#A80036;stroke-width:1.5;" width="177" x="179" y="102.8564"/><ellipse cx="194" cy="118.8564" fill="#ADD1B2" rx="11" ry="11" style="stroke:#A80036;stroke-width:1.0;"/><path d="M196,115.3564 Q196.2031,114.8564 196.4375,114.6064 Q196.6719,114.3564 196.9375,114.3564 Q197.4063,114.3564 197.7031,114.6377 Q198,114.9189 198,115.5752 L198,117.1377 Q198,117.7939 197.7188,118.0752 Q197.4375,118.3564 197,118.3564 Q196.6094,118.3564 196.3594,118.1846 Q196.1094,118.0127 196,117.5596 Q195.9531,117.2471 195.7813,117.0752 Q195.4688,116.7471 194.9063,116.5596 Q194.3438,116.3564 193.7813,116.3564 Q193.0781,116.3564 192.4844,116.6377 Q191.9063,116.9189 191.4531,117.5439 Q191,118.1689 191,119.0283 L191,119.9502 Q191,120.9814 191.8438,121.6689 Q192.6875,122.3564 194.1875,122.3564 Q195.0781,122.3564 195.7031,122.1533 Q196.0625,122.0439 196.4688,121.6846 Q196.7344,121.4814 196.875,121.4189 Q197.0156,121.3564 197.1875,121.3564 Q197.5156,121.3564 197.75,121.6221 Q198,121.8721 198,122.2314 Q198,122.5752 197.6563,122.9814 Q197.1563,123.5752 196.3594,123.9033 Q195.3125,124.3564 194.0313,124.3564 Q192.5313,124.3564 191.3281,123.7627 Q190.3594,123.2939 189.6719,122.2783 Q189,121.2627 189,120.0596 L189,118.9658 Q189,117.7158 189.5938,116.6221 Q190.2031,115.5283 191.25,114.9502 Q192.3125,114.3564 193.5,114.3564 Q194.2188,114.3564 194.8438,114.6064 Q195.4688,114.8564 196,115.3564 Z " fill="#000000"/><text fill="#000000" font-family="sans-serif" font-size="12" lengthAdjust="spacing" textLength="145" x="208" y="123.7666">ClinicalAnalysisLaboratory</text><line style="stroke:#A80036;stroke-width:1.5;" x1="180" x2="355" y1="134.8564" y2="134.8564"/><text fill="#000000" font-family="sans-serif" font-size="11" lengthAdjust="spacing" textLength="61" x="185" y="150.2754">-laboratoryId</text><!--MD5=[ed6624c6556d5e7b1bd23032162d20b7]
class Client--><rect codeLine="24" fill="#FEFECE" filter="url(#fjn7v4xip1gy)" height="150.6875" id="Client" style="stroke:#A80036;stroke-width:1.5;" width="107" x="665" y="54.3564"/><ellipse cx="699.35" cy="70.3564" fill="#ADD1B2" rx="11" ry="11" style="stroke:#A80036;stroke-width:1.0;"/><path d="M701.35,66.8564 Q701.5531,66.3564 701.7875,66.1064 Q702.0219,65.8564 702.2875,65.8564 Q702.7563,65.8564 703.0531,66.1377 Q703.35,66.4189 703.35,67.0752 L703.35,68.6377 Q703.35,69.2939 703.0688,69.5752 Q702.7875,69.8564 702.35,69.8564 Q701.9594,69.8564 701.7094,69.6846 Q701.4594,69.5127 701.35,69.0596 Q701.3031,68.7471 701.1313,68.5752 Q700.8188,68.2471 700.2563,68.0596 Q699.6938,67.8564 699.1313,67.8564 Q698.4281,67.8564 697.8344,68.1377 Q697.2563,68.4189 696.8031,69.0439 Q696.35,69.6689 696.35,70.5283 L696.35,71.4502 Q696.35,72.4814 697.1938,73.1689 Q698.0375,73.8564 699.5375,73.8564 Q700.4281,73.8564 701.0531,73.6533 Q701.4125,73.5439 701.8188,73.1846 Q702.0844,72.9814 702.225,72.9189 Q702.3656,72.8564 702.5375,72.8564 Q702.8656,72.8564 703.1,73.1221 Q703.35,73.3721 703.35,73.7314 Q703.35,74.0752 703.0063,74.4814 Q702.5063,75.0752 701.7094,75.4033 Q700.6625,75.8564 699.3813,75.8564 Q697.8813,75.8564 696.6781,75.2627 Q695.7094,74.7939 695.0219,73.7783 Q694.35,72.7627 694.35,71.5596 L694.35,70.4658 Q694.35,69.2158 694.9438,68.1221 Q695.5531,67.0283 696.6,66.4502 Q697.6625,65.8564 698.85,65.8564 Q699.5688,65.8564 700.1938,66.1064 Q700.8188,66.3564 701.35,66.8564 Z " fill="#000000"/><text fill="#000000" font-family="sans-serif" font-size="12" lengthAdjust="spacing" textLength="32" x="717.65" y="75.2666">Client</text><line style="stroke:#A80036;stroke-width:1.5;" x1="666" x2="771" y1="86.3564" y2="86.3564"/><text fill="#000000" font-family="sans-serif" font-size="11" lengthAdjust="spacing" textLength="30" x="671" y="101.7754">-name</text><text fill="#000000" font-family="sans-serif" font-size="11" lengthAdjust="spacing" textLength="28" x="671" y="115.6113">-email</text><text fill="#000000" font-family="sans-serif" font-size="11" lengthAdjust="spacing" textLength="71" x="671" y="129.4473">-phoneNumber</text><text fill="#000000" font-family="sans-serif" font-size="11" lengthAdjust="spacing" textLength="22" x="671" y="143.2832">-sex</text><text fill="#000000" font-family="sans-serif" font-size="11" lengthAdjust="spacing" textLength="15" x="671" y="157.1191">-tin</text><text fill="#000000" font-family="sans-serif" font-size="11" lengthAdjust="spacing" textLength="47" x="671" y="170.9551">-birthDate</text><text fill="#000000" font-family="sans-serif" font-size="11" lengthAdjust="spacing" textLength="59" x="671" y="184.791">-nhsNumber</text><text fill="#000000" font-family="sans-serif" font-size="11" lengthAdjust="spacing" textLength="95" x="671" y="198.627">-citizenCardNumber</text><!--MD5=[7e4bc624457760b649895ff2ead938fa]
link Company to Test--><path codeLine="35" d="M79.44,102.6464 C110.7,76.3764 162.49,38.6864 215.5,25.3564 C284.74,7.9364 311.04,19.7764 373.5,54.3564 C378.17,56.9364 382.78,59.8464 387.29,62.9664 " fill="none" id="Company-to-Test" style="stroke:#A80036;stroke-width:1.0;"/><polygon fill="#A80036" points="391.41,65.8864,386.4001,57.407,387.3375,62.9857,381.7588,63.9231,391.41,65.8864" style="stroke:#A80036;stroke-width:1.0;"/><text fill="#000000" font-family="sans-serif" font-size="13" lengthAdjust="spacing" textLength="50" x="216.5" y="20.8516">performs</text><text fill="#000000" font-family="sans-serif" font-size="13" lengthAdjust="spacing" textLength="7" x="78.5543" y="92.0589">1</text><text fill="#000000" font-family="sans-serif" font-size="13" lengthAdjust="spacing" textLength="20" x="363.3064" y="55.5462">1..*</text><!--MD5=[aafc5d8a5829a6a8d6dc892cb1ff5d24]
link Company to ClinicalAnalysisLaboratory--><path codeLine="36" d="M92.05,129.8564 C115.26,129.8564 144.98,129.8564 173.33,129.8564 " fill="none" id="Company-to-ClinicalAnalysisLaboratory" style="stroke:#A80036;stroke-width:1.0;"/><polygon fill="#A80036" points="178.61,129.8564,169.61,125.8564,173.61,129.8564,169.61,133.8564,178.61,129.8564" style="stroke:#A80036;stroke-width:1.0;"/><text fill="#000000" font-family="sans-serif" font-size="13" lengthAdjust="spacing" textLength="50" x="110.5" y="123.3516">performs</text><text fill="#000000" font-family="sans-serif" font-size="13" lengthAdjust="spacing" textLength="7" x="99.9648" y="126.0209">1</text><text fill="#000000" font-family="sans-serif" font-size="13" lengthAdjust="spacing" textLength="20" x="151.0387" y="143.9838">1..*</text><!--MD5=[3994f36c72829dbcddd1cf7021dddf61]
link Test to Client--><path codeLine="37" d="M519.5,129.8564 C562.31,129.8564 618.22,129.8564 659.87,129.8564 " fill="none" id="Test-to-Client" style="stroke:#A80036;stroke-width:1.0;"/><polygon fill="#A80036" points="664.87,129.8564,655.87,125.8564,659.87,129.8564,655.87,133.8564,664.87,129.8564" style="stroke:#A80036;stroke-width:1.0;"/><text fill="#000000" font-family="sans-serif" font-size="13" lengthAdjust="spacing" textLength="109" x="537.75" y="123.3516">associated a client</text><text fill="#000000" font-family="sans-serif" font-size="13" lengthAdjust="spacing" textLength="20" x="527.5938" y="144.2629">1..*</text><text fill="#000000" font-family="sans-serif" font-size="13" lengthAdjust="spacing" textLength="7" x="649.8361" y="126.2733">1</text><!--MD5=[96b566ba22d93fbe33f2f143ff852668]
@startuml
hide methods
skinparam classAttributeIconSize 0


class Company{
-designation
}

class Test{
-internalCode
-nhsCode
-description
-dateOfSampleCollected
-timeOfSampleCollected
-dateOfSampleAnalysis
-timeOfSampleAnalysis
-state
}

class ClinicalAnalysisLaboratory{
-laboratoryId
}

class Client{
 - name
 - email
 - phoneNumber
 - sex
 - tin
 - birthDate
 - nhsNumber
 - citizenCardNumber
}

Company "1" -> "1..*" Test : performs
Company "1" -> "1..*" ClinicalAnalysisLaboratory : performs
Test "1..*" -> "1" Client : associated a client


@enduml

PlantUML version 1.2021.5(Sun Apr 25 12:20:28 BST 2021)
(GPL source distribution)
Java Runtime: OpenJDK Runtime Environment
JVM: OpenJDK 64-Bit Server VM
Default Encoding: Cp1252
Language: pt
Country: PT
--></g></svg>