<?xml version="1.0" encoding="UTF-8" standalone="no"?><svg xmlns="http://www.w3.org/2000/svg" xmlns:xlink="http://www.w3.org/1999/xlink" contentScriptType="application/ecmascript" contentStyleType="text/css" height="593.4px" preserveAspectRatio="none" style="width:759px;height:593px;" version="1.1" viewBox="0 0 759 593" width="759.6px" zoomAndPan="magnify"><defs><filter height="300%" id="f17g8xzf2jve6y" width="300%" x="-1" y="-1"><feGaussianBlur result="blurOut" stdDeviation="1.2"/><feColorMatrix in="blurOut" result="blurOut2" type="matrix" values="0 0 0 0 0 0 0 0 0 0 0 0 0 0 0 0 0 0 .4 0"/><feOffset dx="2.4" dy="2.4" in="blurOut2" result="blurOut3"/><feBlend in="SourceGraphic" in2="blurOut3" mode="normal"/></filter></defs><g><!--MD5=[64e2e010ba86d7988e5cd73bd64f61f9]
cluster ui--><polygon fill="#FFFFFF" filter="url(#f17g8xzf2jve6y)" points="180.12,3.6,191.52,3.6,195.72,17.7656,259.32,17.7656,259.32,63.6,180.12,63.6,180.12,3.6" style="stroke:#000000;stroke-width:0.8999999999999999;"/><line style="stroke:#000000;stroke-width:0.8999999999999999;" x1="180.12" x2="195.72" y1="17.7656" y2="17.7656"/><text fill="#000000" font-family="sans-serif" font-size="8.4" font-weight="bold" lengthAdjust="spacing" textLength="7.8" x="182.52" y="13.5199">ui</text><!--MD5=[10ea673caf457862023e152271927b45]
cluster controller--><polygon fill="#FFFFFF" filter="url(#f17g8xzf2jve6y)" points="167.52,83.4,212.52,83.4,216.72,97.5656,271.92,97.5656,271.92,151.8,167.52,151.8,167.52,83.4" style="stroke:#000000;stroke-width:0.8999999999999999;"/><line style="stroke:#000000;stroke-width:0.8999999999999999;" x1="167.52" x2="216.72" y1="97.5656" y2="97.5656"/><text fill="#000000" font-family="sans-serif" font-size="8.4" font-weight="bold" lengthAdjust="spacing" textLength="41.4" x="169.92" y="93.3199">controller</text><!--MD5=[27f772719433d509ddbc20ff768eba08]
cluster domain--><polygon fill="#FFFFFF" filter="url(#f17g8xzf2jve6y)" points="26.52,171.6,60.72,171.6,64.92,185.7656,749.52,185.7656,749.52,589.2,26.52,589.2,26.52,171.6" style="stroke:#000000;stroke-width:0.8999999999999999;"/><line style="stroke:#000000;stroke-width:0.8999999999999999;" x1="26.52" x2="64.92" y1="185.7656" y2="185.7656"/><text fill="#000000" font-family="sans-serif" font-size="8.4" font-weight="bold" lengthAdjust="spacing" textLength="30.6" x="28.92" y="181.5199">domain</text><!--MD5=[c23849cc5f4a85746a20de4317c530fc]
cluster store--><polygon fill="#FFFFFF" filter="url(#f17g8xzf2jve6y)" points="40.92,465,66.72,465,70.92,479.1656,544.92,479.1656,544.92,574.8,40.92,574.8,40.92,465" style="stroke:#000000;stroke-width:0.8999999999999999;"/><line style="stroke:#000000;stroke-width:0.8999999999999999;" x1="40.92" x2="70.92" y1="479.1656" y2="479.1656"/><text fill="#000000" font-family="sans-serif" font-size="8.4" font-weight="bold" lengthAdjust="spacing" textLength="22.2" x="43.32" y="474.9199">store</text><!--MD5=[5d4cd377749310b66bf14896f5cd8d9b]
cluster model--><polygon fill="#FFFFFF" filter="url(#f17g8xzf2jve6y)" points="93.12,308.4,122.52,308.4,126.72,322.5656,735.12,322.5656,735.12,435,93.12,435,93.12,308.4" style="stroke:#000000;stroke-width:0.8999999999999999;"/><line style="stroke:#000000;stroke-width:0.8999999999999999;" x1="93.12" x2="126.72" y1="322.5656" y2="322.5656"/><text fill="#000000" font-family="sans-serif" font-size="8.4" font-weight="bold" lengthAdjust="spacing" textLength="25.8" x="95.52" y="318.3199">model</text><!--MD5=[de44700826a9dcf1e2e08b202517a80a]
class ImportFileUI--><rect codeLine="95" fill="#FEFECE" filter="url(#f17g8xzf2jve6y)" height="28.8" id="ImportFileUI" style="stroke:#A80036;stroke-width:0.8999999999999999;" width="59.4" x="190.02" y="25.2"/><ellipse cx="199.02" cy="34.8" fill="#ADD1B2" rx="6.6" ry="6.6" style="stroke:#A80036;stroke-width:0.6;"/><path d="M200.22,32.7 Q200.3419,32.4 200.4825,32.25 Q200.6231,32.1 200.7825,32.1 Q201.0638,32.1 201.2419,32.2688 Q201.42,32.4375 201.42,32.8313 L201.42,33.7688 Q201.42,34.1625 201.2513,34.3313 Q201.0825,34.5 200.82,34.5 Q200.5856,34.5 200.4356,34.3969 Q200.2856,34.2937 200.22,34.0219 Q200.1919,33.8344 200.0887,33.7312 Q199.9012,33.5344 199.5638,33.4219 Q199.2263,33.3 198.8888,33.3 Q198.4669,33.3 198.1106,33.4688 Q197.7638,33.6375 197.4919,34.0125 Q197.22,34.3875 197.22,34.9031 L197.22,35.4563 Q197.22,36.075 197.7263,36.4875 Q198.2325,36.9 199.1325,36.9 Q199.6669,36.9 200.0419,36.7781 Q200.2575,36.7125 200.5013,36.4969 Q200.6606,36.375 200.745,36.3375 Q200.8294,36.3 200.9325,36.3 Q201.1294,36.3 201.27,36.4594 Q201.42,36.6094 201.42,36.825 Q201.42,37.0313 201.2137,37.275 Q200.9138,37.6313 200.4356,37.8281 Q199.8075,38.1 199.0388,38.1 Q198.1388,38.1 197.4169,37.7438 Q196.8356,37.4625 196.4231,36.8531 Q196.02,36.2438 196.02,35.5219 L196.02,34.8656 Q196.02,34.1156 196.3763,33.4594 Q196.7419,32.8031 197.37,32.4563 Q198.0075,32.1 198.72,32.1 Q199.1512,32.1 199.5262,32.25 Q199.9012,32.4 200.22,32.7 Z " fill="#000000"/><text fill="#000000" font-family="sans-serif" font-size="7.2" lengthAdjust="spacing" textLength="40.2" x="207.42" y="37.7461">ImportFileUI</text><line style="stroke:#A80036;stroke-width:0.8999999999999999;" x1="190.62" x2="248.82" y1="44.4" y2="44.4"/><line style="stroke:#A80036;stroke-width:0.8999999999999999;" x1="190.62" x2="248.82" y1="49.2" y2="49.2"/><!--MD5=[64acad508103d2336b60b181cc8df787]
class ImportFileController--><rect codeLine="91" fill="#FEFECE" filter="url(#f17g8xzf2jve6y)" height="37.1016" id="ImportFileController" style="stroke:#A80036;stroke-width:0.8999999999999999;" width="84.6" x="177.42" y="105"/><ellipse cx="186.42" cy="114.6" fill="#ADD1B2" rx="6.6" ry="6.6" style="stroke:#A80036;stroke-width:0.6;"/><path d="M187.62,112.5 Q187.7419,112.2 187.8825,112.05 Q188.0231,111.9 188.1825,111.9 Q188.4637,111.9 188.6419,112.0688 Q188.82,112.2375 188.82,112.6313 L188.82,113.5688 Q188.82,113.9625 188.6512,114.1313 Q188.4825,114.3 188.22,114.3 Q187.9856,114.3 187.8356,114.1969 Q187.6856,114.0938 187.62,113.8219 Q187.5919,113.6344 187.4887,113.5313 Q187.3012,113.3344 186.9637,113.2219 Q186.6263,113.1 186.2888,113.1 Q185.8669,113.1 185.5106,113.2688 Q185.1638,113.4375 184.8919,113.8125 Q184.62,114.1875 184.62,114.7031 L184.62,115.2563 Q184.62,115.875 185.1263,116.2875 Q185.6325,116.7 186.5325,116.7 Q187.0669,116.7 187.4419,116.5781 Q187.6575,116.5125 187.9012,116.2969 Q188.0606,116.175 188.145,116.1375 Q188.2294,116.1 188.3325,116.1 Q188.5294,116.1 188.67,116.2594 Q188.82,116.4094 188.82,116.625 Q188.82,116.8313 188.6137,117.075 Q188.3138,117.4312 187.8356,117.6281 Q187.2075,117.9 186.4388,117.9 Q185.5388,117.9 184.8169,117.5437 Q184.2356,117.2625 183.8231,116.6531 Q183.42,116.0437 183.42,115.3219 L183.42,114.6656 Q183.42,113.9156 183.7762,113.2594 Q184.1419,112.6031 184.77,112.2563 Q185.4075,111.9 186.12,111.9 Q186.5512,111.9 186.9262,112.05 Q187.3012,112.2 187.62,112.5 Z " fill="#000000"/><text fill="#000000" font-family="sans-serif" font-size="7.2" lengthAdjust="spacing" textLength="65.4" x="194.82" y="117.5461">ImportFileController</text><line style="stroke:#A80036;stroke-width:0.8999999999999999;" x1="178.02" x2="261.42" y1="124.2" y2="124.2"/><line style="stroke:#A80036;stroke-width:0.8999999999999999;" x1="178.02" x2="261.42" y1="129" y2="129"/><ellipse cx="184.02" cy="135.6" fill="#84BE84" rx="1.8" ry="1.8" style="stroke:#038048;stroke-width:0.6;"/><text fill="#000000" font-family="sans-serif" font-size="6.6" lengthAdjust="spacing" textLength="47.4" x="189.42" y="138.2514">loadfile(filesList)</text><!--MD5=[d80f71a20ad5bc844207fdd4e8cd5494]
class FileReader--><rect codeLine="81" fill="#FEFECE" filter="url(#f17g8xzf2jve6y)" height="86.9109" id="FileReader" style="stroke:#A80036;stroke-width:0.8999999999999999;" width="367.2" x="36.12" y="193.2"/><ellipse cx="198.87" cy="202.8" fill="#ADD1B2" rx="6.6" ry="6.6" style="stroke:#A80036;stroke-width:0.6;"/><path d="M200.07,200.7 Q200.1919,200.4 200.3325,200.25 Q200.4731,200.1 200.6325,200.1 Q200.9138,200.1 201.0919,200.2687 Q201.27,200.4375 201.27,200.8312 L201.27,201.7687 Q201.27,202.1625 201.1013,202.3312 Q200.9325,202.5 200.67,202.5 Q200.4356,202.5 200.2856,202.3969 Q200.1356,202.2938 200.07,202.0219 Q200.0419,201.8344 199.9388,201.7313 Q199.7513,201.5344 199.4138,201.4219 Q199.0763,201.3 198.7387,201.3 Q198.3169,201.3 197.9606,201.4688 Q197.6137,201.6375 197.3419,202.0125 Q197.07,202.3875 197.07,202.9031 L197.07,203.4562 Q197.07,204.075 197.5763,204.4875 Q198.0825,204.9 198.9825,204.9 Q199.5169,204.9 199.8919,204.7781 Q200.1075,204.7125 200.3513,204.4969 Q200.5106,204.375 200.595,204.3375 Q200.6794,204.3 200.7825,204.3 Q200.9794,204.3 201.12,204.4594 Q201.27,204.6094 201.27,204.825 Q201.27,205.0313 201.0638,205.275 Q200.7638,205.6313 200.2856,205.8281 Q199.6575,206.1 198.8888,206.1 Q197.9887,206.1 197.2669,205.7438 Q196.6856,205.4625 196.2731,204.8531 Q195.87,204.2438 195.87,203.5219 L195.87,202.8656 Q195.87,202.1156 196.2263,201.4594 Q196.5919,200.8031 197.22,200.4562 Q197.8575,200.1 198.57,200.1 Q199.0013,200.1 199.3763,200.25 Q199.7513,200.4 200.07,200.7 Z " fill="#000000"/><text fill="#000000" font-family="sans-serif" font-size="7.2" lengthAdjust="spacing" textLength="36.6" x="211.17" y="205.7461">FileReader</text><line style="stroke:#A80036;stroke-width:0.8999999999999999;" x1="36.72" x2="402.72" y1="212.4" y2="212.4"/><line style="stroke:#A80036;stroke-width:0.8999999999999999;" x1="36.72" x2="402.72" y1="217.2" y2="217.2"/><ellipse cx="42.72" cy="223.8" fill="#84BE84" rx="1.8" ry="1.8" style="stroke:#038048;stroke-width:0.6;"/><text fill="#000000" font-family="sans-serif" font-size="6.6" lengthAdjust="spacing" textLength="26.4" x="48.12" y="226.4514">read(file)</text><rect fill="#F24D5C" height="3.6" style="stroke:#C82930;stroke-width:0.6;" width="3.6" x="40.92" y="230.3016"/><text fill="#000000" font-family="sans-serif" font-size="6.6" lengthAdjust="spacing" textLength="288.6" x="48.12" y="234.7529">createTest(client,nhscode,testType,lab,validParametersStringList, parametersNumbList, lineContent)</text><rect fill="#F24D5C" height="3.6" style="stroke:#C82930;stroke-width:0.6;" width="3.6" x="40.92" y="238.6031"/><text fill="#000000" font-family="sans-serif" font-size="6.6" lengthAdjust="spacing" textLength="221.4" x="48.12" y="243.0545">fillParametersString(lineContent,parametersNumbList,allParametersStringList)</text><rect fill="#F24D5C" height="3.6" style="stroke:#C82930;stroke-width:0.6;" width="3.6" x="40.92" y="246.9047"/><text fill="#000000" font-family="sans-serif" font-size="6.6" lengthAdjust="spacing" textLength="351.6" x="48.12" y="251.3561">fillValidParametersString(allParametersStringList,validParametersStringList,parametersNumbList,parameterNumbTestValid)</text><rect fill="#F24D5C" height="3.6" style="stroke:#C82930;stroke-width:0.6;" width="3.6" x="40.92" y="255.2062"/><text fill="#000000" font-family="sans-serif" font-size="6.6" lengthAdjust="spacing" textLength="177" x="48.12" y="259.6576">convertStringIntoParameter(validParametersStringList,pmList)</text><rect fill="#F24D5C" height="3.6" style="stroke:#C82930;stroke-width:0.6;" width="3.6" x="40.92" y="263.5078"/><text fill="#000000" font-family="sans-serif" font-size="6.6" lengthAdjust="spacing" textLength="144.6" x="48.12" y="267.9592">convertParameterIntoTestParameter(pmList,tpList)</text><rect fill="#F24D5C" height="3.6" style="stroke:#C82930;stroke-width:0.6;" width="3.6" x="40.92" y="271.8094"/><text fill="#000000" font-family="sans-serif" font-size="6.6" lengthAdjust="spacing" textLength="100.2" x="48.12" y="276.2607">generateDate(lineContent,dateList)</text><!--MD5=[55cb992be19579b505cea3c5691093cb]
class ClientStore--><rect codeLine="53" fill="#FEFECE" filter="url(#f17g8xzf2jve6y)" height="78.6094" id="ClientStore" style="stroke:#A80036;stroke-width:0.8999999999999999;" width="117" x="50.82" y="486.6"/><ellipse cx="88.47" cy="496.2" fill="#ADD1B2" rx="6.6" ry="6.6" style="stroke:#A80036;stroke-width:0.6;"/><path d="M89.67,494.1 Q89.7919,493.8 89.9325,493.65 Q90.0731,493.5 90.2325,493.5 Q90.5137,493.5 90.6919,493.6688 Q90.87,493.8375 90.87,494.2313 L90.87,495.1688 Q90.87,495.5625 90.7012,495.7313 Q90.5325,495.9 90.27,495.9 Q90.0356,495.9 89.8856,495.7969 Q89.7356,495.6937 89.67,495.4219 Q89.6419,495.2344 89.5388,495.1312 Q89.3513,494.9344 89.0137,494.8219 Q88.6763,494.7 88.3387,494.7 Q87.9169,494.7 87.5606,494.8688 Q87.2137,495.0375 86.9419,495.4125 Q86.67,495.7875 86.67,496.3031 L86.67,496.8563 Q86.67,497.475 87.1763,497.8875 Q87.6825,498.3 88.5825,498.3 Q89.1169,498.3 89.4919,498.1781 Q89.7075,498.1125 89.9512,497.8969 Q90.1106,497.775 90.195,497.7375 Q90.2794,497.7 90.3825,497.7 Q90.5794,497.7 90.72,497.8594 Q90.87,498.0094 90.87,498.225 Q90.87,498.4313 90.6638,498.675 Q90.3638,499.0313 89.8856,499.2281 Q89.2575,499.5 88.4888,499.5 Q87.5887,499.5 86.8669,499.1437 Q86.2856,498.8625 85.8731,498.2531 Q85.47,497.6437 85.47,496.9219 L85.47,496.2656 Q85.47,495.5156 85.8262,494.8594 Q86.1919,494.2031 86.82,493.8563 Q87.4575,493.5 88.17,493.5 Q88.6013,493.5 88.9763,493.65 Q89.3513,493.8 89.67,494.1 Z " fill="#000000"/><text fill="#000000" font-family="sans-serif" font-size="7.2" lengthAdjust="spacing" textLength="36.6" x="100.77" y="499.1461">ClientStore</text><line style="stroke:#A80036;stroke-width:0.8999999999999999;" x1="51.42" x2="167.22" y1="505.8" y2="505.8"/><line style="stroke:#A80036;stroke-width:0.8999999999999999;" x1="51.42" x2="167.22" y1="510.6" y2="510.6"/><ellipse cx="57.42" cy="517.2" fill="#84BE84" rx="1.8" ry="1.8" style="stroke:#038048;stroke-width:0.6;"/><text fill="#000000" font-family="sans-serif" font-size="6.6" lengthAdjust="spacing" textLength="49.8" x="62.82" y="519.8514">getClientbytin(tin)</text><ellipse cx="57.42" cy="525.5016" fill="#84BE84" rx="1.8" ry="1.8" style="stroke:#038048;stroke-width:0.6;"/><text fill="#000000" font-family="sans-serif" font-size="6.6" lengthAdjust="spacing" textLength="49.8" x="62.82" y="528.1529">saveClient(client)</text><ellipse cx="57.42" cy="533.8031" fill="#84BE84" rx="1.8" ry="1.8" style="stroke:#038048;stroke-width:0.6;"/><text fill="#000000" font-family="sans-serif" font-size="6.6" lengthAdjust="spacing" textLength="101.4" x="62.82" y="536.4545">addUserWithRole(name,email,pwd)</text><rect fill="#F24D5C" height="3.6" style="stroke:#C82930;stroke-width:0.6;" width="3.6" x="55.62" y="540.3047"/><text fill="#000000" font-family="sans-serif" font-size="6.6" lengthAdjust="spacing" textLength="57.6" x="62.82" y="544.7561">validateClient(client)</text><rect fill="#F24D5C" height="3.6" style="stroke:#C82930;stroke-width:0.6;" width="3.6" x="55.62" y="548.6062"/><text fill="#000000" font-family="sans-serif" font-size="6.6" lengthAdjust="spacing" textLength="46.2" x="62.82" y="553.0576">addClient(client)</text><rect fill="#F24D5C" height="3.6" style="stroke:#C82930;stroke-width:0.6;" width="3.6" x="55.62" y="556.9078"/><text fill="#000000" font-family="sans-serif" font-size="6.6" lengthAdjust="spacing" textLength="58.8" x="62.82" y="561.3592">generatelogin(client)</text><!--MD5=[438281daef332c5ccec4fb6cf3747e9a]
class ClinicalAnalysisLaboratoryStore--><rect codeLine="43" fill="#FEFECE" filter="url(#f17g8xzf2jve6y)" height="37.1016" id="ClinicalAnalysisLaboratoryStore" style="stroke:#A80036;stroke-width:0.8999999999999999;" width="123.6" x="189.12" y="507.3"/><ellipse cx="198.12" cy="516.9" fill="#ADD1B2" rx="6.6" ry="6.6" style="stroke:#A80036;stroke-width:0.6;"/><path d="M199.32,514.8 Q199.4419,514.5 199.5825,514.35 Q199.7231,514.2 199.8825,514.2 Q200.1638,514.2 200.3419,514.3688 Q200.52,514.5375 200.52,514.9313 L200.52,515.8688 Q200.52,516.2625 200.3513,516.4313 Q200.1825,516.6 199.92,516.6 Q199.6856,516.6 199.5356,516.4969 Q199.3856,516.3938 199.32,516.1219 Q199.2919,515.9344 199.1888,515.8313 Q199.0013,515.6344 198.6638,515.5219 Q198.3263,515.4 197.9887,515.4 Q197.5669,515.4 197.2106,515.5688 Q196.8637,515.7375 196.5919,516.1125 Q196.32,516.4875 196.32,517.0031 L196.32,517.5563 Q196.32,518.175 196.8263,518.5875 Q197.3325,519 198.2325,519 Q198.7669,519 199.1419,518.8781 Q199.3575,518.8125 199.6013,518.5969 Q199.7606,518.475 199.845,518.4375 Q199.9294,518.4 200.0325,518.4 Q200.2294,518.4 200.37,518.5594 Q200.52,518.7094 200.52,518.925 Q200.52,519.1313 200.3138,519.375 Q200.0138,519.7312 199.5356,519.9281 Q198.9075,520.2 198.1388,520.2 Q197.2387,520.2 196.5169,519.8438 Q195.9356,519.5625 195.5231,518.9531 Q195.12,518.3438 195.12,517.6219 L195.12,516.9656 Q195.12,516.2156 195.4763,515.5594 Q195.8419,514.9031 196.47,514.5563 Q197.1075,514.2 197.82,514.2 Q198.2513,514.2 198.6263,514.35 Q199.0013,514.5 199.32,514.8 Z " fill="#000000"/><text fill="#000000" font-family="sans-serif" font-size="7.2" lengthAdjust="spacing" textLength="104.4" x="206.52" y="519.8461">ClinicalAnalysisLaboratoryStore</text><line style="stroke:#A80036;stroke-width:0.8999999999999999;" x1="189.72" x2="312.12" y1="526.5" y2="526.5"/><line style="stroke:#A80036;stroke-width:0.8999999999999999;" x1="189.72" x2="312.12" y1="531.3" y2="531.3"/><ellipse cx="195.72" cy="537.9" fill="#84BE84" rx="1.8" ry="1.8" style="stroke:#038048;stroke-width:0.6;"/><text fill="#000000" font-family="sans-serif" font-size="6.6" lengthAdjust="spacing" textLength="103.8" x="201.12" y="540.5514">getClinicalAnalysisLaboratory(labId)</text><!--MD5=[0f6f7964b844a64b0496af0dda7914bd]
class TestStore--><rect codeLine="25" fill="#FEFECE" filter="url(#f17g8xzf2jve6y)" height="62.0062" id="TestStore" style="stroke:#A80036;stroke-width:0.8999999999999999;" width="201.6" x="333.72" y="495"/><ellipse cx="416.07" cy="504.6" fill="#ADD1B2" rx="6.6" ry="6.6" style="stroke:#A80036;stroke-width:0.6;"/><path d="M417.27,502.5 Q417.3919,502.2 417.5325,502.05 Q417.6731,501.9 417.8325,501.9 Q418.1138,501.9 418.2919,502.0687 Q418.47,502.2375 418.47,502.6312 L418.47,503.5687 Q418.47,503.9625 418.3013,504.1312 Q418.1325,504.3 417.87,504.3 Q417.6356,504.3 417.4856,504.1969 Q417.3356,504.0938 417.27,503.8219 Q417.2419,503.6344 417.1388,503.5313 Q416.9513,503.3344 416.6138,503.2219 Q416.2763,503.1 415.9388,503.1 Q415.5169,503.1 415.1606,503.2687 Q414.8138,503.4375 414.5419,503.8125 Q414.27,504.1875 414.27,504.7031 L414.27,505.2562 Q414.27,505.875 414.7763,506.2875 Q415.2825,506.7 416.1825,506.7 Q416.7169,506.7 417.0919,506.5781 Q417.3075,506.5125 417.5513,506.2969 Q417.7106,506.175 417.795,506.1375 Q417.8794,506.1 417.9825,506.1 Q418.1794,506.1 418.32,506.2594 Q418.47,506.4094 418.47,506.625 Q418.47,506.8312 418.2638,507.075 Q417.9638,507.4313 417.4856,507.6281 Q416.8575,507.9 416.0888,507.9 Q415.1888,507.9 414.4669,507.5438 Q413.8856,507.2625 413.4731,506.6531 Q413.07,506.0438 413.07,505.3219 L413.07,504.6656 Q413.07,503.9156 413.4263,503.2594 Q413.7919,502.6031 414.42,502.2562 Q415.0575,501.9 415.77,501.9 Q416.2013,501.9 416.5763,502.05 Q416.9513,502.2 417.27,502.5 Z " fill="#000000"/><text fill="#000000" font-family="sans-serif" font-size="7.2" lengthAdjust="spacing" textLength="31.8" x="428.37" y="507.5461">TestStore</text><line style="stroke:#A80036;stroke-width:0.8999999999999999;" x1="334.32" x2="534.72" y1="514.2" y2="514.2"/><line style="stroke:#A80036;stroke-width:0.8999999999999999;" x1="334.32" x2="534.72" y1="519" y2="519"/><ellipse cx="340.32" cy="525.6" fill="#84BE84" rx="1.8" ry="1.8" style="stroke:#038048;stroke-width:0.6;"/><text fill="#000000" font-family="sans-serif" font-size="6.6" lengthAdjust="spacing" textLength="186" x="345.72" y="528.2514">createTestByCsvFile(client,nhscode,testType,tpList,lab,dateList)</text><ellipse cx="340.32" cy="533.9016" fill="#84BE84" rx="1.8" ry="1.8" style="stroke:#038048;stroke-width:0.6;"/><text fill="#000000" font-family="sans-serif" font-size="6.6" lengthAdjust="spacing" textLength="42.6" x="345.72" y="536.5529">saveTest(test)</text><rect fill="#F24D5C" height="3.6" style="stroke:#C82930;stroke-width:0.6;" width="3.6" x="338.52" y="540.4031"/><text fill="#000000" font-family="sans-serif" font-size="6.6" lengthAdjust="spacing" textLength="50.4" x="345.72" y="544.8545">validateTest(test)</text><rect fill="#F24D5C" height="3.6" style="stroke:#C82930;stroke-width:0.6;" width="3.6" x="338.52" y="548.7047"/><text fill="#000000" font-family="sans-serif" font-size="6.6" lengthAdjust="spacing" textLength="39" x="345.72" y="553.1561">addTest(test)</text><!--MD5=[1934a092c0e7d4da7dc7075b6f4b6b03]
class ClinicalAnalysisLaboratory--><rect codeLine="47" fill="#FEFECE" filter="url(#f17g8xzf2jve6y)" height="53.7047" id="ClinicalAnalysisLaboratory" style="stroke:#A80036;stroke-width:0.8999999999999999;" width="142.8" x="336.12" y="350.7"/><ellipse cx="361.59" cy="360.3" fill="#ADD1B2" rx="6.6" ry="6.6" style="stroke:#A80036;stroke-width:0.6;"/><path d="M362.79,358.2 Q362.9119,357.9 363.0525,357.75 Q363.1931,357.6 363.3525,357.6 Q363.6338,357.6 363.8119,357.7688 Q363.99,357.9375 363.99,358.3313 L363.99,359.2688 Q363.99,359.6625 363.8213,359.8313 Q363.6525,360 363.39,360 Q363.1556,360 363.0056,359.8969 Q362.8556,359.7938 362.79,359.5219 Q362.7619,359.3344 362.6588,359.2313 Q362.4713,359.0344 362.1338,358.9219 Q361.7963,358.8 361.4588,358.8 Q361.0369,358.8 360.6806,358.9688 Q360.3338,359.1375 360.0619,359.5125 Q359.79,359.8875 359.79,360.4031 L359.79,360.9563 Q359.79,361.575 360.2963,361.9875 Q360.8025,362.4 361.7025,362.4 Q362.2369,362.4 362.6119,362.2781 Q362.8275,362.2125 363.0713,361.9969 Q363.2306,361.875 363.315,361.8375 Q363.3994,361.8 363.5025,361.8 Q363.6994,361.8 363.84,361.9594 Q363.99,362.1094 363.99,362.325 Q363.99,362.5313 363.7838,362.775 Q363.4838,363.1312 363.0056,363.3281 Q362.3775,363.6 361.6088,363.6 Q360.7088,363.6 359.9869,363.2438 Q359.4056,362.9625 358.9931,362.3531 Q358.59,361.7438 358.59,361.0219 L358.59,360.3656 Q358.59,359.6156 358.9463,358.9594 Q359.3119,358.3031 359.94,357.9563 Q360.5775,357.6 361.29,357.6 Q361.7213,357.6 362.0963,357.75 Q362.4713,357.9 362.79,358.2 Z " fill="#000000"/><text fill="#000000" font-family="sans-serif" font-size="7.2" lengthAdjust="spacing" textLength="87" x="373.65" y="363.2461">ClinicalAnalysisLaboratory</text><line style="stroke:#A80036;stroke-width:0.8999999999999999;" x1="336.72" x2="478.32" y1="369.9" y2="369.9"/><rect fill="none" height="3.6" style="stroke:#C82930;stroke-width:0.6;" width="3.6" x="340.92" y="374.7"/><text fill="#000000" font-family="sans-serif" font-size="6.6" lengthAdjust="spacing" textLength="34.2" x="348.12" y="379.1514">laboratoryId</text><rect fill="none" height="3.6" style="stroke:#C82930;stroke-width:0.6;" width="3.6" x="340.92" y="383.0016"/><text fill="#000000" font-family="sans-serif" font-size="6.6" lengthAdjust="spacing" textLength="45.6" x="348.12" y="387.4529">listOfTestTypes</text><line style="stroke:#A80036;stroke-width:0.8999999999999999;" x1="336.72" x2="478.32" y1="391.3031" y2="391.3031"/><ellipse cx="342.72" cy="397.9031" fill="#84BE84" rx="1.8" ry="1.8" style="stroke:#038048;stroke-width:0.6;"/><text fill="#000000" font-family="sans-serif" font-size="6.6" lengthAdjust="spacing" textLength="127.2" x="348.12" y="400.5545">getClinicalAnalysisLaboratoryByLabId(labId)</text><!--MD5=[ed6624c6556d5e7b1bd23032162d20b7]
class Client--><rect codeLine="63" fill="#FEFECE" filter="url(#f17g8xzf2jve6y)" height="95.2125" id="Client" style="stroke:#A80036;stroke-width:0.8999999999999999;" width="69" x="103.02" y="330"/><ellipse cx="125.79" cy="339.6" fill="#ADD1B2" rx="6.6" ry="6.6" style="stroke:#A80036;stroke-width:0.6;"/><path d="M126.99,337.5 Q127.1119,337.2 127.2525,337.05 Q127.3931,336.9 127.5525,336.9 Q127.8337,336.9 128.0119,337.0687 Q128.19,337.2375 128.19,337.6312 L128.19,338.5687 Q128.19,338.9625 128.0212,339.1312 Q127.8525,339.3 127.59,339.3 Q127.3556,339.3 127.2056,339.1969 Q127.0556,339.0938 126.99,338.8219 Q126.9619,338.6344 126.8587,338.5313 Q126.6712,338.3344 126.3337,338.2219 Q125.9962,338.1 125.6587,338.1 Q125.2369,338.1 124.8806,338.2688 Q124.5337,338.4375 124.2619,338.8125 Q123.99,339.1875 123.99,339.7031 L123.99,340.2562 Q123.99,340.875 124.4962,341.2875 Q125.0025,341.7 125.9025,341.7 Q126.4369,341.7 126.8119,341.5781 Q127.0275,341.5125 127.2712,341.2969 Q127.4306,341.175 127.515,341.1375 Q127.5994,341.1 127.7025,341.1 Q127.8994,341.1 128.04,341.2594 Q128.19,341.4094 128.19,341.625 Q128.19,341.8313 127.9837,342.075 Q127.6837,342.4313 127.2056,342.6281 Q126.5775,342.9 125.8087,342.9 Q124.9087,342.9 124.1869,342.5438 Q123.6056,342.2625 123.1931,341.6531 Q122.79,341.0438 122.79,340.3219 L122.79,339.6656 Q122.79,338.9156 123.1462,338.2594 Q123.5119,337.6031 124.14,337.2562 Q124.7775,336.9 125.49,336.9 Q125.9212,336.9 126.2962,337.05 Q126.6712,337.2 126.99,337.5 Z " fill="#000000"/><text fill="#000000" font-family="sans-serif" font-size="7.2" lengthAdjust="spacing" textLength="19.2" x="137.25" y="342.5461">Client</text><line style="stroke:#A80036;stroke-width:0.8999999999999999;" x1="103.62" x2="171.42" y1="349.2" y2="349.2"/><rect fill="none" height="3.6" style="stroke:#C82930;stroke-width:0.6;" width="3.6" x="107.82" y="354"/><text fill="#000000" font-family="sans-serif" font-size="6.6" lengthAdjust="spacing" textLength="53.4" x="115.02" y="358.4514">citizencardnumber</text><rect fill="none" height="3.6" style="stroke:#C82930;stroke-width:0.6;" width="3.6" x="107.82" y="362.3016"/><text fill="#000000" font-family="sans-serif" font-size="6.6" lengthAdjust="spacing" textLength="10.8" x="115.02" y="366.7529">nhs</text><rect fill="none" height="3.6" style="stroke:#C82930;stroke-width:0.6;" width="3.6" x="107.82" y="370.6031"/><text fill="#000000" font-family="sans-serif" font-size="6.6" lengthAdjust="spacing" textLength="12.6" x="115.02" y="375.0545">date</text><rect fill="none" height="3.6" style="stroke:#C82930;stroke-width:0.6;" width="3.6" x="107.82" y="378.9047"/><text fill="#000000" font-family="sans-serif" font-size="6.6" lengthAdjust="spacing" textLength="10.8" x="115.02" y="383.3561">sex</text><rect fill="none" height="3.6" style="stroke:#C82930;stroke-width:0.6;" width="3.6" x="107.82" y="387.2063"/><text fill="#000000" font-family="sans-serif" font-size="6.6" lengthAdjust="spacing" textLength="6.6" x="115.02" y="391.6576">tin</text><rect fill="none" height="3.6" style="stroke:#C82930;stroke-width:0.6;" width="3.6" x="107.82" y="395.5078"/><text fill="#000000" font-family="sans-serif" font-size="6.6" lengthAdjust="spacing" textLength="39.6" x="115.02" y="399.9592">phonenumber</text><rect fill="none" height="3.6" style="stroke:#C82930;stroke-width:0.6;" width="3.6" x="107.82" y="403.8094"/><text fill="#000000" font-family="sans-serif" font-size="6.6" lengthAdjust="spacing" textLength="14.4" x="115.02" y="408.2607">email</text><rect fill="none" height="3.6" style="stroke:#C82930;stroke-width:0.6;" width="3.6" x="107.82" y="412.1109"/><text fill="#000000" font-family="sans-serif" font-size="6.6" lengthAdjust="spacing" textLength="15.6" x="115.02" y="416.5623">name</text><line style="stroke:#A80036;stroke-width:0.8999999999999999;" x1="103.62" x2="171.42" y1="420.4125" y2="420.4125"/><!--MD5=[df38be88ccee13e832d6fafd6288a4ca]
class Test--><rect codeLine="32" fill="#FEFECE" filter="url(#f17g8xzf2jve6y)" height="95.2125" id="Test" style="stroke:#A80036;stroke-width:0.8999999999999999;" width="225" x="500.22" y="330"/><ellipse cx="602.97" cy="339.6" fill="#ADD1B2" rx="6.6" ry="6.6" style="stroke:#A80036;stroke-width:0.6;"/><path d="M604.17,337.5 Q604.2919,337.2 604.4325,337.05 Q604.5731,336.9 604.7325,336.9 Q605.0138,336.9 605.1919,337.0687 Q605.37,337.2375 605.37,337.6312 L605.37,338.5687 Q605.37,338.9625 605.2013,339.1312 Q605.0325,339.3 604.77,339.3 Q604.5356,339.3 604.3856,339.1969 Q604.2356,339.0938 604.17,338.8219 Q604.1419,338.6344 604.0388,338.5313 Q603.8513,338.3344 603.5138,338.2219 Q603.1763,338.1 602.8388,338.1 Q602.4169,338.1 602.0606,338.2688 Q601.7138,338.4375 601.4419,338.8125 Q601.17,339.1875 601.17,339.7031 L601.17,340.2562 Q601.17,340.875 601.6763,341.2875 Q602.1825,341.7 603.0825,341.7 Q603.6169,341.7 603.9919,341.5781 Q604.2075,341.5125 604.4513,341.2969 Q604.6106,341.175 604.695,341.1375 Q604.7794,341.1 604.8825,341.1 Q605.0794,341.1 605.22,341.2594 Q605.37,341.4094 605.37,341.625 Q605.37,341.8313 605.1638,342.075 Q604.8638,342.4313 604.3856,342.6281 Q603.7575,342.9 602.9888,342.9 Q602.0888,342.9 601.3669,342.5438 Q600.7856,342.2625 600.3731,341.6531 Q599.97,341.0438 599.97,340.3219 L599.97,339.6656 Q599.97,338.9156 600.3263,338.2594 Q600.6919,337.6031 601.32,337.2562 Q601.9575,336.9 602.67,336.9 Q603.1013,336.9 603.4763,337.05 Q603.8513,337.2 604.17,337.5 Z " fill="#000000"/><text fill="#000000" font-family="sans-serif" font-size="7.2" lengthAdjust="spacing" textLength="14.4" x="615.27" y="342.5461">Test</text><line style="stroke:#A80036;stroke-width:0.8999999999999999;" x1="500.82" x2="724.62" y1="349.2" y2="349.2"/><rect fill="none" height="3.6" style="stroke:#C82930;stroke-width:0.6;" width="3.6" x="505.02" y="354"/><text fill="#000000" font-family="sans-serif" font-size="6.6" lengthAdjust="spacing" textLength="15" x="512.22" y="358.4514">client</text><rect fill="none" height="3.6" style="stroke:#C82930;stroke-width:0.6;" width="3.6" x="505.02" y="362.3016"/><text fill="#000000" font-family="sans-serif" font-size="6.6" lengthAdjust="spacing" textLength="25.2" x="512.22" y="366.7529">nhscode</text><rect fill="none" height="3.6" style="stroke:#C82930;stroke-width:0.6;" width="3.6" x="505.02" y="370.6031"/><text fill="#000000" font-family="sans-serif" font-size="6.6" lengthAdjust="spacing" textLength="50.4" x="512.22" y="375.0545">testParameterList</text><rect fill="none" height="3.6" style="stroke:#C82930;stroke-width:0.6;" width="3.6" x="505.02" y="378.9047"/><text fill="#000000" font-family="sans-serif" font-size="6.6" lengthAdjust="spacing" textLength="34.2" x="512.22" y="383.3561">stateOfTest</text><rect fill="none" height="3.6" style="stroke:#C82930;stroke-width:0.6;" width="3.6" x="505.02" y="387.2063"/><text fill="#000000" font-family="sans-serif" font-size="6.6" lengthAdjust="spacing" textLength="36" x="512.22" y="391.6576">internalCode</text><line style="stroke:#A80036;stroke-width:0.8999999999999999;" x1="500.82" x2="724.62" y1="395.5078" y2="395.5078"/><ellipse cx="506.82" cy="402.1078" fill="#84BE84" rx="1.8" ry="1.8" style="stroke:#038048;stroke-width:0.6;"/><text fill="#000000" font-family="sans-serif" font-size="6.6" lengthAdjust="spacing" textLength="112.8" x="512.22" y="404.7592">setSamplesAddDate(samplesAddDate)</text><ellipse cx="506.82" cy="410.4094" fill="#84BE84" rx="1.8" ry="1.8" style="stroke:#038048;stroke-width:0.6;"/><text fill="#000000" font-family="sans-serif" font-size="6.6" lengthAdjust="spacing" textLength="82.8" x="512.22" y="413.0607">setStateOfTest(stateOfTest)</text><ellipse cx="506.82" cy="418.7109" fill="#84BE84" rx="1.8" ry="1.8" style="stroke:#038048;stroke-width:0.6;"/><text fill="#000000" font-family="sans-serif" font-size="6.6" lengthAdjust="spacing" textLength="209.4" x="512.22" y="421.3623">addTestResultWithDate(parameterID,result,metric,chemicalAnalysisDate)</text><!--MD5=[02e4b9b7573f1156f41e60aa5b4e25a4]
class Company--><rect codeLine="74" fill="#FEFECE" filter="url(#f17g8xzf2jve6y)" height="62.0062" id="Company" style="stroke:#A80036;stroke-width:0.8999999999999999;" width="121.8" x="193.02" y="346.8"/><ellipse cx="235.47" cy="356.4" fill="#ADD1B2" rx="6.6" ry="6.6" style="stroke:#A80036;stroke-width:0.6;"/><path d="M236.67,354.3 Q236.7919,354 236.9325,353.85 Q237.0731,353.7 237.2325,353.7 Q237.5138,353.7 237.6919,353.8688 Q237.87,354.0375 237.87,354.4313 L237.87,355.3688 Q237.87,355.7625 237.7013,355.9313 Q237.5325,356.1 237.27,356.1 Q237.0356,356.1 236.8856,355.9969 Q236.7356,355.8938 236.67,355.6219 Q236.6419,355.4344 236.5388,355.3313 Q236.3513,355.1344 236.0138,355.0219 Q235.6762,354.9 235.3387,354.9 Q234.9169,354.9 234.5606,355.0687 Q234.2137,355.2375 233.9419,355.6125 Q233.67,355.9875 233.67,356.5031 L233.67,357.0563 Q233.67,357.675 234.1762,358.0875 Q234.6825,358.5 235.5825,358.5 Q236.1169,358.5 236.4919,358.3781 Q236.7075,358.3125 236.9513,358.0969 Q237.1106,357.975 237.195,357.9375 Q237.2794,357.9 237.3825,357.9 Q237.5794,357.9 237.72,358.0594 Q237.87,358.2094 237.87,358.425 Q237.87,358.6312 237.6638,358.875 Q237.3637,359.2313 236.8856,359.4281 Q236.2575,359.7 235.4887,359.7 Q234.5887,359.7 233.8669,359.3438 Q233.2856,359.0625 232.8731,358.4531 Q232.47,357.8438 232.47,357.1219 L232.47,356.4656 Q232.47,355.7156 232.8263,355.0594 Q233.1919,354.4031 233.82,354.0563 Q234.4575,353.7 235.17,353.7 Q235.6013,353.7 235.9763,353.85 Q236.3513,354 236.67,354.3 Z " fill="#000000"/><text fill="#000000" font-family="sans-serif" font-size="7.2" lengthAdjust="spacing" textLength="31.8" x="247.77" y="359.3461">Company</text><line style="stroke:#A80036;stroke-width:0.8999999999999999;" x1="193.62" x2="314.22" y1="366" y2="366"/><rect fill="none" height="3.6" style="stroke:#C82930;stroke-width:0.6;" width="3.6" x="197.82" y="370.8"/><text fill="#000000" font-family="sans-serif" font-size="6.6" lengthAdjust="spacing" textLength="51.6" x="205.02" y="375.2514">String designation</text><line style="stroke:#A80036;stroke-width:0.8999999999999999;" x1="193.62" x2="314.22" y1="379.1016" y2="379.1016"/><ellipse cx="199.62" cy="385.7016" fill="#84BE84" rx="1.8" ry="1.8" style="stroke:#038048;stroke-width:0.6;"/><text fill="#000000" font-family="sans-serif" font-size="6.6" lengthAdjust="spacing" textLength="42" x="205.02" y="388.3529">getTestStore()</text><ellipse cx="199.62" cy="394.0031" fill="#84BE84" rx="1.8" ry="1.8" style="stroke:#038048;stroke-width:0.6;"/><text fill="#000000" font-family="sans-serif" font-size="6.6" lengthAdjust="spacing" textLength="45" x="205.02" y="396.6545">getClientStore()</text><ellipse cx="199.62" cy="402.3047" fill="#84BE84" rx="1.8" ry="1.8" style="stroke:#038048;stroke-width:0.6;"/><text fill="#000000" font-family="sans-serif" font-size="6.6" lengthAdjust="spacing" textLength="106.2" x="205.02" y="404.9561">getClinicalAnalysisLaboratoryStore()</text><!--MD5=[3f38d37b0b8cb49531698a7d81bd0cad]
link ImportFileUI to ImportFileController--><path codeLine="99" d="M219.72,54.06 C219.72,67.08 219.72,86.76 219.72,101.76 " fill="none" id="ImportFileUI-to-ImportFileController" style="stroke:#A80036;stroke-width:0.6;stroke-dasharray:7.0,7.0;"/><polygon fill="#A80036" points="219.72,104.886,222.12,99.486,219.72,101.886,217.32,99.486,219.72,104.886" style="stroke:#A80036;stroke-width:0.6;"/><!--MD5=[e026e2c5f321eef2342507462432934d]
link ImportFileController to FileReader--><path codeLine="100" d="M219.72,142.428 C219.72,155.31 219.72,173.19 219.72,189.882 " fill="none" id="ImportFileController-to-FileReader" style="stroke:#A80036;stroke-width:0.6;stroke-dasharray:7.0,7.0;"/><polygon fill="#A80036" points="219.72,192.984,222.12,187.584,219.72,189.984,217.32,187.584,219.72,192.984" style="stroke:#A80036;stroke-width:0.6;"/><!--MD5=[145913b1869503b7f4640c566009c65e]
link FileReader to Client--><path codeLine="101" d="M194.388,280.386 C185.688,295.176 175.884,311.85 166.896,327.138 " fill="none" id="FileReader-to-Client" style="stroke:#A80036;stroke-width:0.6;stroke-dasharray:7.0,7.0;"/><polygon fill="#A80036" points="165.348,329.778,170.1575,326.3446,166.8713,327.1935,166.0224,323.9073,165.348,329.778" style="stroke:#A80036;stroke-width:0.6;"/><!--MD5=[91a1c351ad6ef6f2d458a1a7b33866fa]
link FileReader to Test--><path codeLine="102" d="M403.446,274.578 C432.78,282.756 462.426,292.392 489.72,303.6 C506.304,310.41 523.302,319.218 539.166,328.35 " fill="none" id="FileReader-to-Test" style="stroke:#A80036;stroke-width:0.6;stroke-dasharray:7.0,7.0;"/><polygon fill="#A80036" points="541.908,329.934,538.444,325.1464,539.3139,328.4272,536.0331,329.297,541.908,329.934" style="stroke:#A80036;stroke-width:0.6;"/><!--MD5=[a35423acdabb4654e1d22dbf066071ed]
link FileReader to ClinicalAnalysisLaboratory--><path codeLine="103" d="M291.822,280.278 C303.252,287.742 314.766,295.662 325.32,303.6 C343.62,317.37 362.76,334.32 377.97,348.468 " fill="none" id="FileReader-to-ClinicalAnalysisLaboratory" style="stroke:#A80036;stroke-width:0.6;stroke-dasharray:7.0,7.0;"/><polygon fill="#A80036" points="380.184,350.538,377.8746,345.0986,377.9911,348.4907,374.599,348.6072,380.184,350.538" style="stroke:#A80036;stroke-width:0.6;"/><!--MD5=[df0440ff4b6af12aff668a525342d0dd]
link FileReader to Company--><path codeLine="104" d="M230.262,280.386 C235.254,300.792 241.128,324.798 245.772,343.788 " fill="none" id="FileReader-to-Company" style="stroke:#A80036;stroke-width:0.6;stroke-dasharray:7.0,7.0;"/><polygon fill="#A80036" points="246.504,346.788,247.5549,340.9729,245.7925,343.8736,242.8918,342.1112,246.504,346.788" style="stroke:#A80036;stroke-width:0.6;"/><!--MD5=[3552cffc3ecb9aa49a09da054ab1df97]
link FileReader to ClientStore--><path codeLine="105" d="M64.308,280.266 C55.86,286.956 48.312,294.678 42.12,303.6 C3.6,359.1 12.672,399.042 49.92,455.4 C56.358,465.138 63.972,475.026 71.574,484.188 " fill="none" id="FileReader-to-ClientStore" style="stroke:#A80036;stroke-width:0.6;stroke-dasharray:7.0,7.0;"/><polygon fill="#A80036" points="73.5,486.498,71.8784,480.8155,71.5761,484.1962,68.1954,483.8938,73.5,486.498" style="stroke:#A80036;stroke-width:0.6;"/><!--MD5=[d57f2c73c9c2a660b7887ab86b5aa03e]
link FileReader to TestStore--><path codeLine="106" d="M113.25,280.386 C105.378,287.094 98.448,294.792 93.12,303.6 C77.448,329.496 72,418.116 93.12,439.8 C100.17,447.036 264.96,442.908 274.92,444.6 C297.282,448.404 302.808,450.942 323.52,460.2 C344.418,469.542 366.366,481.836 385.182,493.224 " fill="none" id="FileReader-to-TestStore" style="stroke:#A80036;stroke-width:0.6;stroke-dasharray:7.0,7.0;"/><polygon fill="#A80036" points="387.93,494.892,384.5652,490.0342,385.3674,493.3322,382.0695,494.1344,387.93,494.892" style="stroke:#A80036;stroke-width:0.6;"/><!--MD5=[dad631b7aaf1f9faffad818f4c08a5f5]
link FileReader to ClinicalAnalysisLaboratoryStore--><path codeLine="107" d="M91.404,280.284 C85.458,285.582 80.142,291.528 75.72,298.2 C40.95,350.658 33.306,393.306 75.72,439.8 C83.568,448.404 116.496,442.332 127.92,444.6 C150.918,449.166 157.92,448.638 178.32,460.2 C199.152,472.008 219.126,490.638 232.83,504.948 " fill="none" id="FileReader-to-ClinicalAnalysisLaboratoryStore" style="stroke:#A80036;stroke-width:0.6;stroke-dasharray:7.0,7.0;"/><polygon fill="#A80036" points="234.972,507.204,232.9962,501.6348,232.9071,505.0277,229.5142,504.9386,234.972,507.204" style="stroke:#A80036;stroke-width:0.6;"/><!--MD5=[a11230341c8e65219708844feaa40162]
link Company to ClientStore--><path codeLine="108" d="M219.942,408.75 C207.906,419.82 194.412,432.57 182.52,444.6 C170.13,457.14 157.056,471.24 145.44,484.11 " fill="none" id="Company-to-ClientStore" style="stroke:#A80036;stroke-width:0.6;"/><polygon fill="#A80036" points="143.292,486.498,148.6883,484.0897,145.2989,484.2681,145.1205,480.8787,143.292,486.498" style="stroke:#A80036;stroke-width:0.6;"/><text fill="#000000" font-family="sans-serif" font-size="7.8" lengthAdjust="spacing" textLength="16.8" x="183.12" y="453.2971">uses</text><text fill="#000000" font-family="sans-serif" font-size="7.8" lengthAdjust="spacing" textLength="4.2" x="210.894" y="421.6647">1</text><text fill="#000000" font-family="sans-serif" font-size="7.8" lengthAdjust="spacing" textLength="4.2" x="142.578" y="480.1715">1</text><!--MD5=[f379172a0573607dd0ae1a4ea50b9294]
link Company to ClinicalAnalysisLaboratoryStore--><path codeLine="109" d="M226.602,408.684 C218.736,419.292 211.188,431.778 207.12,444.6 C200.178,466.47 214.884,489.252 229.092,505.014 " fill="none" id="Company-to-ClinicalAnalysisLaboratoryStore" style="stroke:#A80036;stroke-width:0.6;"/><polygon fill="#A80036" points="231.186,507.288,229.3004,501.6876,229.1565,505.0787,225.7654,504.9348,231.186,507.288" style="stroke:#A80036;stroke-width:0.6;"/><text fill="#000000" font-family="sans-serif" font-size="7.8" lengthAdjust="spacing" textLength="16.8" x="207.72" y="453.2971">uses</text><text fill="#000000" font-family="sans-serif" font-size="7.8" lengthAdjust="spacing" textLength="4.2" x="218.2651" y="421.8135">1</text><text fill="#000000" font-family="sans-serif" font-size="7.8" lengthAdjust="spacing" textLength="4.2" x="222.2098" y="500.6975">1</text><!--MD5=[7f6cf7f175eae0af66201860de5de971]
link Company to TestStore--><path codeLine="110" d="M281.46,408.6 C293.862,420.312 309.42,432.606 325.92,439.8 C342.9,447.204 351.03,435.786 367.32,444.6 C387.492,455.514 404.07,475.194 415.71,492.384 " fill="none" id="Company-to-TestStore" style="stroke:#A80036;stroke-width:0.6;"/><polygon fill="#A80036" points="417.39,494.904,416.3915,489.0796,415.7259,492.4078,412.3977,491.7422,417.39,494.904" style="stroke:#A80036;stroke-width:0.6;"/><text fill="#000000" font-family="sans-serif" font-size="7.8" lengthAdjust="spacing" textLength="16.8" x="381.72" y="453.2971">uses</text><text fill="#000000" font-family="sans-serif" font-size="7.8" lengthAdjust="spacing" textLength="4.2" x="280.8375" y="421.7177">1</text><text fill="#000000" font-family="sans-serif" font-size="7.8" lengthAdjust="spacing" textLength="4.2" x="410.606" y="488.5913">1</text><!--MD5=[1d934105a045dbf126514c6917bd5072]
link ClientStore to Client--><path codeLine="111" d="M65.256,486.402 C54.552,472.458 48.996,457.11 60.12,444.6 C66.186,437.778 93.264,444.768 100.92,439.8 C105.756,436.662 110.046,432.642 113.82,428.16 " fill="none" id="ClientStore-to-Client" style="stroke:#A80036;stroke-width:0.6;"/><polygon fill="#A80036" points="115.866,425.622,110.6101,428.323,113.9846,427.9587,114.3488,431.3332,115.866,425.622" style="stroke:#A80036;stroke-width:0.6;"/><text fill="#000000" font-family="sans-serif" font-size="7.8" lengthAdjust="spacing" textLength="22.2" x="60.72" y="453.2971">knows</text><text fill="#000000" font-family="sans-serif" font-size="7.8" lengthAdjust="spacing" textLength="4.2" x="56.0068" y="480.065">1</text><text fill="#000000" font-family="sans-serif" font-size="7.8" lengthAdjust="spacing" textLength="3" x="110.9486" y="438.1016">*</text><!--MD5=[2dad08ae384f93453eb1ba4eb26732f1]
link ClinicalAnalysisLaboratoryStore to ClinicalAnalysisLaboratory--><path codeLine="112" d="M270.228,507.174 C296.952,482.094 345.474,436.542 377.094,406.86 " fill="none" id="ClinicalAnalysisLaboratoryStore-to-ClinicalAnalysisLaboratory" style="stroke:#A80036;stroke-width:0.6;"/><polygon fill="#A80036" points="379.344,404.748,373.7668,406.7013,377.1594,406.8041,377.0566,410.1966,379.344,404.748" style="stroke:#A80036;stroke-width:0.6;"/><text fill="#000000" font-family="sans-serif" font-size="7.8" lengthAdjust="spacing" textLength="22.2" x="334.32" y="453.2971">knows</text><text fill="#000000" font-family="sans-serif" font-size="7.8" lengthAdjust="spacing" textLength="4.2" x="269.5772" y="500.8507">1</text><text fill="#000000" font-family="sans-serif" font-size="7.8" lengthAdjust="spacing" textLength="3" x="372.1708" y="417.3593">*</text><!--MD5=[b0f4f6db8206580012ef9cd998ed01c5]
link TestStore to Test--><path codeLine="113" d="M471.408,494.868 C494.994,475.41 526.128,449.73 553.164,427.428 " fill="none" id="TestStore-to-Test" style="stroke:#A80036;stroke-width:0.6;"/><polygon fill="#A80036" points="555.6,425.418,549.9081,427.0063,553.2869,427.3284,552.9648,430.7072,555.6,425.418" style="stroke:#A80036;stroke-width:0.6;"/><text fill="#000000" font-family="sans-serif" font-size="7.8" lengthAdjust="spacing" textLength="43.2" x="529.32" y="453.2971">registers the</text><text fill="#000000" font-family="sans-serif" font-size="7.8" lengthAdjust="spacing" textLength="4.2" x="471.8826" y="488.5505">1</text><text fill="#000000" font-family="sans-serif" font-size="7.8" lengthAdjust="spacing" textLength="3" x="547.5623" y="438.0455">*</text><!--MD5=[e9c4c4fb5e48263484af7d6d5eacd2e5]
@startuml

package ui{
class ImportFileUI
}

package controller{
class ImportFileController
}

package domain{
class FileReader
package store{
class ClientStore
class ClinicalAnalysisLaboratoryStore
class TestStore
}
package model{
class ClinicalAnalysisLaboratory
class Client
class Test
class Company
}
}

class TestStore{
+createTestByCsvFile(client,nhscode,testType,tpList,lab,dateList)
+saveTest(test)
-validateTest(test)
-addTest(test)
}

class Test{
-client
-nhscode
-testParameterList
-stateOfTest
-internalCode
+setSamplesAddDate(samplesAddDate)
+setStateOfTest(stateOfTest)
+addTestResultWithDate(parameterID,result,metric,chemicalAnalysisDate)
}

class ClinicalAnalysisLaboratoryStore{
+getClinicalAnalysisLaboratory(labId)
}

class ClinicalAnalysisLaboratory{
-laboratoryId
-listOfTestTypes
+getClinicalAnalysisLaboratoryByLabId(labId)
}

class ClientStore{
+getClientbytin(tin)
+saveClient(client)
+addUserWithRole(name,email,pwd)
-validateClient(client)
-addClient(client)
-generatelogin(client)

}

class Client{
-citizencardnumber
  -nhs
  -date
  -sex
  -tin
  -phonenumber
  -email
  -name
}

class Company{
-String designation
+getTestStore()
+getClientStore()
+getClinicalAnalysisLaboratoryStore()
}

class FileReader {
+read(file)
-createTest(client,nhscode,testType,lab,validParametersStringList, parametersNumbList, lineContent)
-fillParametersString(lineContent,parametersNumbList,allParametersStringList)
-fillValidParametersString(allParametersStringList,validParametersStringList,parametersNumbList,parameterNumbTestValid)
-convertStringIntoParameter(validParametersStringList,pmList)
-convertParameterIntoTestParameter(pmList,tpList)
-generateDate(lineContent,dateList)
}

class ImportFileController {
+loadfile(filesList)
}

class ImportFileUI {

}

ImportFileUI ..> ImportFileController
ImportFileController ..> FileReader
FileReader ..> Client
FileReader ..> Test
FileReader ..> ClinicalAnalysisLaboratory
FileReader ..> Company
FileReader ...> ClientStore
FileReader ...> TestStore
FileReader ...> ClinicalAnalysisLaboratoryStore
Company "1" - -> "1" ClientStore : uses
Company "1" - -> "1" ClinicalAnalysisLaboratoryStore : uses
Company "1" - -> "1" TestStore : uses
ClientStore "1" -> "*" Client : knows
ClinicalAnalysisLaboratoryStore "1" -> "*" ClinicalAnalysisLaboratory : knows
TestStore "1" -> "*" Test : registers the

@enduml

PlantUML version 1.2021.5(Sun Apr 25 12:20:28 BST 2021)
(GPL source distribution)
Java Runtime: OpenJDK Runtime Environment
JVM: OpenJDK 64-Bit Server VM
Default Encoding: Cp1252
Language: pt
Country: PT
--></g></svg>