<?xml version="1.0" encoding="UTF-8" standalone="no"?><svg xmlns="http://www.w3.org/2000/svg" xmlns:xlink="http://www.w3.org/1999/xlink" contentScriptType="application/ecmascript" contentStyleType="text/css" height="1017px" preserveAspectRatio="none" style="width:1794px;height:1017px;" version="1.1" viewBox="0 0 1794 1017" width="1794px" zoomAndPan="magnify"><defs><filter height="300%" id="fu8xq3dflqjz1" width="300%" x="-1" y="-1"><feGaussianBlur result="blurOut" stdDeviation="2.0"/><feColorMatrix in="blurOut" result="blurOut2" type="matrix" values="0 0 0 0 0 0 0 0 0 0 0 0 0 0 0 0 0 0 .4 0"/><feOffset dx="4.0" dy="4.0" in="blurOut2" result="blurOut3"/><feBlend in="SourceGraphic" in2="blurOut3" mode="normal"/></filter></defs><g><!--MD5=[64e2e010ba86d7988e5cd73bd64f61f9]
cluster ui--><polygon fill="#FFFFFF" filter="url(#fu8xq3dflqjz1)" points="738,6,757,6,764,29.6094,870,29.6094,870,126,738,126,738,6" style="stroke:#000000;stroke-width:1.5;"/><line style="stroke:#000000;stroke-width:1.5;" x1="738" x2="764" y1="29.6094" y2="29.6094"/><text fill="#000000" font-family="sans-serif" font-size="14" font-weight="bold" lengthAdjust="spacing" textLength="13" x="742" y="22.5332">ui</text><!--MD5=[10ea673caf457862023e152271927b45]
cluster controller--><polygon fill="#FFFFFF" filter="url(#fu8xq3dflqjz1)" points="717,159,792,159,799,182.6094,891,182.6094,891,293,717,293,717,159" style="stroke:#000000;stroke-width:1.5;"/><line style="stroke:#000000;stroke-width:1.5;" x1="717" x2="799" y1="182.6094" y2="182.6094"/><text fill="#000000" font-family="sans-serif" font-size="14" font-weight="bold" lengthAdjust="spacing" textLength="69" x="721" y="175.5332">controller</text><!--MD5=[27f772719433d509ddbc20ff768eba08]
cluster domain--><polygon fill="#FFFFFF" filter="url(#fu8xq3dflqjz1)" points="16,326,73,326,80,349.6094,1777,349.6094,1777,1010,16,1010,16,326" style="stroke:#000000;stroke-width:1.5;"/><line style="stroke:#000000;stroke-width:1.5;" x1="16" x2="80" y1="349.6094" y2="349.6094"/><text fill="#000000" font-family="sans-serif" font-size="14" font-weight="bold" lengthAdjust="spacing" textLength="51" x="20" y="342.5332">domain</text><!--MD5=[c23849cc5f4a85746a20de4317c530fc]
cluster store--><polygon fill="#FFFFFF" filter="url(#fu8xq3dflqjz1)" points="40,769,83,769,90,792.6094,880,792.6094,880,972,40,972,40,769" style="stroke:#000000;stroke-width:1.5;"/><line style="stroke:#000000;stroke-width:1.5;" x1="40" x2="90" y1="792.6094" y2="792.6094"/><text fill="#000000" font-family="sans-serif" font-size="14" font-weight="bold" lengthAdjust="spacing" textLength="37" x="44" y="785.5332">store</text><!--MD5=[5d4cd377749310b66bf14896f5cd8d9b]
cluster model--><polygon fill="#FFFFFF" filter="url(#fu8xq3dflqjz1)" points="921,755,970,755,977,778.6094,1753,778.6094,1753,986,921,986,921,755" style="stroke:#000000;stroke-width:1.5;"/><line style="stroke:#000000;stroke-width:1.5;" x1="921" x2="977" y1="778.6094" y2="778.6094"/><text fill="#000000" font-family="sans-serif" font-size="14" font-weight="bold" lengthAdjust="spacing" textLength="43" x="925" y="771.5332">model</text><!--MD5=[de44700826a9dcf1e2e08b202517a80a]
class ImportFileUI--><rect codeLine="96" fill="#FEFECE" filter="url(#fu8xq3dflqjz1)" height="48" id="ImportFileUI" style="stroke:#A80036;stroke-width:1.5;" width="99" x="754.5" y="62"/><ellipse cx="769.5" cy="78" fill="#ADD1B2" rx="11" ry="11" style="stroke:#A80036;stroke-width:1.0;"/><path d="M771.5,74.5 Q771.7031,74 771.9375,73.75 Q772.1719,73.5 772.4375,73.5 Q772.9063,73.5 773.2031,73.7813 Q773.5,74.0625 773.5,74.7188 L773.5,76.2813 Q773.5,76.9375 773.2188,77.2188 Q772.9375,77.5 772.5,77.5 Q772.1094,77.5 771.8594,77.3281 Q771.6094,77.1563 771.5,76.7031 Q771.4531,76.3906 771.2813,76.2188 Q770.9688,75.8906 770.4063,75.7031 Q769.8438,75.5 769.2813,75.5 Q768.5781,75.5 767.9844,75.7813 Q767.4063,76.0625 766.9531,76.6875 Q766.5,77.3125 766.5,78.1719 L766.5,79.0938 Q766.5,80.125 767.3438,80.8125 Q768.1875,81.5 769.6875,81.5 Q770.5781,81.5 771.2031,81.2969 Q771.5625,81.1875 771.9688,80.8281 Q772.2344,80.625 772.375,80.5625 Q772.5156,80.5 772.6875,80.5 Q773.0156,80.5 773.25,80.7656 Q773.5,81.0156 773.5,81.375 Q773.5,81.7188 773.1563,82.125 Q772.6563,82.7188 771.8594,83.0469 Q770.8125,83.5 769.5313,83.5 Q768.0313,83.5 766.8281,82.9063 Q765.8594,82.4375 765.1719,81.4219 Q764.5,80.4063 764.5,79.2031 L764.5,78.1094 Q764.5,76.8594 765.0938,75.7656 Q765.7031,74.6719 766.75,74.0938 Q767.8125,73.5 769,73.5 Q769.7188,73.5 770.3438,73.75 Q770.9688,74 771.5,74.5 Z " fill="#000000"/><text fill="#000000" font-family="sans-serif" font-size="12" lengthAdjust="spacing" textLength="67" x="783.5" y="82.9102">ImportFileUI</text><line style="stroke:#A80036;stroke-width:1.5;" x1="755.5" x2="852.5" y1="94" y2="94"/><line style="stroke:#A80036;stroke-width:1.5;" x1="755.5" x2="852.5" y1="102" y2="102"/><!--MD5=[64acad508103d2336b60b181cc8df787]
class ImportFileController--><rect codeLine="92" fill="#FEFECE" filter="url(#fu8xq3dflqjz1)" height="61.8359" id="ImportFileController" style="stroke:#A80036;stroke-width:1.5;" width="141" x="733.5" y="215"/><ellipse cx="748.5" cy="231" fill="#ADD1B2" rx="11" ry="11" style="stroke:#A80036;stroke-width:1.0;"/><path d="M750.5,227.5 Q750.7031,227 750.9375,226.75 Q751.1719,226.5 751.4375,226.5 Q751.9063,226.5 752.2031,226.7813 Q752.5,227.0625 752.5,227.7188 L752.5,229.2813 Q752.5,229.9375 752.2188,230.2188 Q751.9375,230.5 751.5,230.5 Q751.1094,230.5 750.8594,230.3281 Q750.6094,230.1563 750.5,229.7031 Q750.4531,229.3906 750.2813,229.2188 Q749.9688,228.8906 749.4063,228.7031 Q748.8438,228.5 748.2813,228.5 Q747.5781,228.5 746.9844,228.7813 Q746.4063,229.0625 745.9531,229.6875 Q745.5,230.3125 745.5,231.1719 L745.5,232.0938 Q745.5,233.125 746.3438,233.8125 Q747.1875,234.5 748.6875,234.5 Q749.5781,234.5 750.2031,234.2969 Q750.5625,234.1875 750.9688,233.8281 Q751.2344,233.625 751.375,233.5625 Q751.5156,233.5 751.6875,233.5 Q752.0156,233.5 752.25,233.7656 Q752.5,234.0156 752.5,234.375 Q752.5,234.7188 752.1563,235.125 Q751.6563,235.7188 750.8594,236.0469 Q749.8125,236.5 748.5313,236.5 Q747.0313,236.5 745.8281,235.9063 Q744.8594,235.4375 744.1719,234.4219 Q743.5,233.4063 743.5,232.2031 L743.5,231.1094 Q743.5,229.8594 744.0938,228.7656 Q744.7031,227.6719 745.75,227.0938 Q746.8125,226.5 748,226.5 Q748.7188,226.5 749.3438,226.75 Q749.9688,227 750.5,227.5 Z " fill="#000000"/><text fill="#000000" font-family="sans-serif" font-size="12" lengthAdjust="spacing" textLength="109" x="762.5" y="235.9102">ImportFileController</text><line style="stroke:#A80036;stroke-width:1.5;" x1="734.5" x2="873.5" y1="247" y2="247"/><line style="stroke:#A80036;stroke-width:1.5;" x1="734.5" x2="873.5" y1="255" y2="255"/><ellipse cx="744.5" cy="266" fill="#84BE84" rx="3" ry="3" style="stroke:#038048;stroke-width:1.0;"/><text fill="#000000" font-family="sans-serif" font-size="11" lengthAdjust="spacing" textLength="79" x="753.5" y="270.4189">loadfile(filesList)</text><!--MD5=[d80f71a20ad5bc844207fdd4e8cd5494]
class FileReader--><rect codeLine="82" fill="#FEFECE" filter="url(#fu8xq3dflqjz1)" height="144.8516" id="FileReader" style="stroke:#A80036;stroke-width:1.5;" width="612" x="498" y="382"/><ellipse cx="769.25" cy="398" fill="#ADD1B2" rx="11" ry="11" style="stroke:#A80036;stroke-width:1.0;"/><path d="M771.25,394.5 Q771.4531,394 771.6875,393.75 Q771.9219,393.5 772.1875,393.5 Q772.6563,393.5 772.9531,393.7813 Q773.25,394.0625 773.25,394.7188 L773.25,396.2813 Q773.25,396.9375 772.9688,397.2188 Q772.6875,397.5 772.25,397.5 Q771.8594,397.5 771.6094,397.3281 Q771.3594,397.1563 771.25,396.7031 Q771.2031,396.3906 771.0313,396.2188 Q770.7188,395.8906 770.1563,395.7031 Q769.5938,395.5 769.0313,395.5 Q768.3281,395.5 767.7344,395.7813 Q767.1563,396.0625 766.7031,396.6875 Q766.25,397.3125 766.25,398.1719 L766.25,399.0938 Q766.25,400.125 767.0938,400.8125 Q767.9375,401.5 769.4375,401.5 Q770.3281,401.5 770.9531,401.2969 Q771.3125,401.1875 771.7188,400.8281 Q771.9844,400.625 772.125,400.5625 Q772.2656,400.5 772.4375,400.5 Q772.7656,400.5 773,400.7656 Q773.25,401.0156 773.25,401.375 Q773.25,401.7188 772.9063,402.125 Q772.4063,402.7188 771.6094,403.0469 Q770.5625,403.5 769.2813,403.5 Q767.7813,403.5 766.5781,402.9063 Q765.6094,402.4375 764.9219,401.4219 Q764.25,400.4063 764.25,399.2031 L764.25,398.1094 Q764.25,396.8594 764.8438,395.7656 Q765.4531,394.6719 766.5,394.0938 Q767.5625,393.5 768.75,393.5 Q769.4688,393.5 770.0938,393.75 Q770.7188,394 771.25,394.5 Z " fill="#000000"/><text fill="#000000" font-family="sans-serif" font-size="12" lengthAdjust="spacing" textLength="61" x="789.75" y="402.9102">FileReader</text><line style="stroke:#A80036;stroke-width:1.5;" x1="499" x2="1109" y1="414" y2="414"/><line style="stroke:#A80036;stroke-width:1.5;" x1="499" x2="1109" y1="422" y2="422"/><ellipse cx="509" cy="433" fill="#84BE84" rx="3" ry="3" style="stroke:#038048;stroke-width:1.0;"/><text fill="#000000" font-family="sans-serif" font-size="11" lengthAdjust="spacing" textLength="44" x="518" y="437.4189">read(file)</text><rect fill="#F24D5C" height="6" style="stroke:#C82930;stroke-width:1.0;" width="6" x="506" y="443.8359"/><text fill="#000000" font-family="sans-serif" font-size="11" lengthAdjust="spacing" textLength="481" x="518" y="451.2549">createTest(client,nhscode,testType,lab,validParametersStringList, parametersNumbList, lineContent)</text><rect fill="#F24D5C" height="6" style="stroke:#C82930;stroke-width:1.0;" width="6" x="506" y="457.6719"/><text fill="#000000" font-family="sans-serif" font-size="11" lengthAdjust="spacing" textLength="369" x="518" y="465.0908">fillParametersString(lineContent,parametersNumbList,allParametersStringList)</text><rect fill="#F24D5C" height="6" style="stroke:#C82930;stroke-width:1.0;" width="6" x="506" y="471.5078"/><text fill="#000000" font-family="sans-serif" font-size="11" lengthAdjust="spacing" textLength="586" x="518" y="478.9268">fillValidParametersString(allParametersStringList,validParametersStringList,parametersNumbList,parameterNumbTestValid)</text><rect fill="#F24D5C" height="6" style="stroke:#C82930;stroke-width:1.0;" width="6" x="506" y="485.3438"/><text fill="#000000" font-family="sans-serif" font-size="11" lengthAdjust="spacing" textLength="295" x="518" y="492.7627">convertStringIntoParameter(validParametersStringList,pmList)</text><rect fill="#F24D5C" height="6" style="stroke:#C82930;stroke-width:1.0;" width="6" x="506" y="499.1797"/><text fill="#000000" font-family="sans-serif" font-size="11" lengthAdjust="spacing" textLength="241" x="518" y="506.5986">convertParameterIntoTestParameter(pmList,tpList)</text><rect fill="#F24D5C" height="6" style="stroke:#C82930;stroke-width:1.0;" width="6" x="506" y="513.0156"/><text fill="#000000" font-family="sans-serif" font-size="11" lengthAdjust="spacing" textLength="167" x="518" y="520.4346">generateDate(lineContent,dateList)</text><!--MD5=[02e4b9b7573f1156f41e60aa5b4e25a4]
class Company--><rect codeLine="75" fill="#FEFECE" filter="url(#fu8xq3dflqjz1)" height="103.3438" id="Company" style="stroke:#A80036;stroke-width:1.5;" width="203" x="363.5" y="588"/><ellipse cx="434.25" cy="604" fill="#ADD1B2" rx="11" ry="11" style="stroke:#A80036;stroke-width:1.0;"/><path d="M436.25,600.5 Q436.4531,600 436.6875,599.75 Q436.9219,599.5 437.1875,599.5 Q437.6563,599.5 437.9531,599.7813 Q438.25,600.0625 438.25,600.7188 L438.25,602.2813 Q438.25,602.9375 437.9688,603.2188 Q437.6875,603.5 437.25,603.5 Q436.8594,603.5 436.6094,603.3281 Q436.3594,603.1563 436.25,602.7031 Q436.2031,602.3906 436.0313,602.2188 Q435.7188,601.8906 435.1563,601.7031 Q434.5938,601.5 434.0313,601.5 Q433.3281,601.5 432.7344,601.7813 Q432.1563,602.0625 431.7031,602.6875 Q431.25,603.3125 431.25,604.1719 L431.25,605.0938 Q431.25,606.125 432.0938,606.8125 Q432.9375,607.5 434.4375,607.5 Q435.3281,607.5 435.9531,607.2969 Q436.3125,607.1875 436.7188,606.8281 Q436.9844,606.625 437.125,606.5625 Q437.2656,606.5 437.4375,606.5 Q437.7656,606.5 438,606.7656 Q438.25,607.0156 438.25,607.375 Q438.25,607.7188 437.9063,608.125 Q437.4063,608.7188 436.6094,609.0469 Q435.5625,609.5 434.2813,609.5 Q432.7813,609.5 431.5781,608.9063 Q430.6094,608.4375 429.9219,607.4219 Q429.25,606.4063 429.25,605.2031 L429.25,604.1094 Q429.25,602.8594 429.8438,601.7656 Q430.4531,600.6719 431.5,600.0938 Q432.5625,599.5 433.75,599.5 Q434.4688,599.5 435.0938,599.75 Q435.7188,600 436.25,600.5 Z " fill="#000000"/><text fill="#000000" font-family="sans-serif" font-size="12" lengthAdjust="spacing" textLength="53" x="454.75" y="608.9102">Company</text><line style="stroke:#A80036;stroke-width:1.5;" x1="364.5" x2="565.5" y1="620" y2="620"/><rect fill="none" height="6" style="stroke:#C82930;stroke-width:1.0;" width="6" x="371.5" y="628"/><text fill="#000000" font-family="sans-serif" font-size="11" lengthAdjust="spacing" textLength="86" x="383.5" y="635.4189">String designation</text><line style="stroke:#A80036;stroke-width:1.5;" x1="364.5" x2="565.5" y1="641.8359" y2="641.8359"/><ellipse cx="374.5" cy="652.8359" fill="#84BE84" rx="3" ry="3" style="stroke:#038048;stroke-width:1.0;"/><text fill="#000000" font-family="sans-serif" font-size="11" lengthAdjust="spacing" textLength="70" x="383.5" y="657.2549">getTestStore()</text><ellipse cx="374.5" cy="666.6719" fill="#84BE84" rx="3" ry="3" style="stroke:#038048;stroke-width:1.0;"/><text fill="#000000" font-family="sans-serif" font-size="11" lengthAdjust="spacing" textLength="75" x="383.5" y="671.0908">getClientStore()</text><ellipse cx="374.5" cy="680.5078" fill="#84BE84" rx="3" ry="3" style="stroke:#038048;stroke-width:1.0;"/><text fill="#000000" font-family="sans-serif" font-size="11" lengthAdjust="spacing" textLength="177" x="383.5" y="684.9268">getClinicalAnalysisLaboratoryStore()</text><!--MD5=[55cb992be19579b505cea3c5691093cb]
class ClientStore--><rect codeLine="54" fill="#FEFECE" filter="url(#fu8xq3dflqjz1)" height="131.0156" id="ClientStore" style="stroke:#A80036;stroke-width:1.5;" width="195" x="668.5" y="825"/><ellipse cx="731.25" cy="841" fill="#ADD1B2" rx="11" ry="11" style="stroke:#A80036;stroke-width:1.0;"/><path d="M733.25,837.5 Q733.4531,837 733.6875,836.75 Q733.9219,836.5 734.1875,836.5 Q734.6563,836.5 734.9531,836.7813 Q735.25,837.0625 735.25,837.7188 L735.25,839.2813 Q735.25,839.9375 734.9688,840.2188 Q734.6875,840.5 734.25,840.5 Q733.8594,840.5 733.6094,840.3281 Q733.3594,840.1563 733.25,839.7031 Q733.2031,839.3906 733.0313,839.2188 Q732.7188,838.8906 732.1563,838.7031 Q731.5938,838.5 731.0313,838.5 Q730.3281,838.5 729.7344,838.7813 Q729.1563,839.0625 728.7031,839.6875 Q728.25,840.3125 728.25,841.1719 L728.25,842.0938 Q728.25,843.125 729.0938,843.8125 Q729.9375,844.5 731.4375,844.5 Q732.3281,844.5 732.9531,844.2969 Q733.3125,844.1875 733.7188,843.8281 Q733.9844,843.625 734.125,843.5625 Q734.2656,843.5 734.4375,843.5 Q734.7656,843.5 735,843.7656 Q735.25,844.0156 735.25,844.375 Q735.25,844.7188 734.9063,845.125 Q734.4063,845.7188 733.6094,846.0469 Q732.5625,846.5 731.2813,846.5 Q729.7813,846.5 728.5781,845.9063 Q727.6094,845.4375 726.9219,844.4219 Q726.25,843.4063 726.25,842.2031 L726.25,841.1094 Q726.25,839.8594 726.8438,838.7656 Q727.4531,837.6719 728.5,837.0938 Q729.5625,836.5 730.75,836.5 Q731.4688,836.5 732.0938,836.75 Q732.7188,837 733.25,837.5 Z " fill="#000000"/><text fill="#000000" font-family="sans-serif" font-size="12" lengthAdjust="spacing" textLength="61" x="751.75" y="845.9102">ClientStore</text><line style="stroke:#A80036;stroke-width:1.5;" x1="669.5" x2="862.5" y1="857" y2="857"/><line style="stroke:#A80036;stroke-width:1.5;" x1="669.5" x2="862.5" y1="865" y2="865"/><ellipse cx="679.5" cy="876" fill="#84BE84" rx="3" ry="3" style="stroke:#038048;stroke-width:1.0;"/><text fill="#000000" font-family="sans-serif" font-size="11" lengthAdjust="spacing" textLength="83" x="688.5" y="880.4189">getClientbytin(tin)</text><ellipse cx="679.5" cy="889.8359" fill="#84BE84" rx="3" ry="3" style="stroke:#038048;stroke-width:1.0;"/><text fill="#000000" font-family="sans-serif" font-size="11" lengthAdjust="spacing" textLength="83" x="688.5" y="894.2549">saveClient(client)</text><ellipse cx="679.5" cy="903.6719" fill="#84BE84" rx="3" ry="3" style="stroke:#038048;stroke-width:1.0;"/><text fill="#000000" font-family="sans-serif" font-size="11" lengthAdjust="spacing" textLength="169" x="688.5" y="908.0908">addUserWithRole(name,email,pwd)</text><rect fill="#F24D5C" height="6" style="stroke:#C82930;stroke-width:1.0;" width="6" x="676.5" y="914.5078"/><text fill="#000000" font-family="sans-serif" font-size="11" lengthAdjust="spacing" textLength="96" x="688.5" y="921.9268">validateClient(client)</text><rect fill="#F24D5C" height="6" style="stroke:#C82930;stroke-width:1.0;" width="6" x="676.5" y="928.3438"/><text fill="#000000" font-family="sans-serif" font-size="11" lengthAdjust="spacing" textLength="77" x="688.5" y="935.7627">addClient(client)</text><rect fill="#F24D5C" height="6" style="stroke:#C82930;stroke-width:1.0;" width="6" x="676.5" y="942.1797"/><text fill="#000000" font-family="sans-serif" font-size="11" lengthAdjust="spacing" textLength="98" x="688.5" y="949.5986">generatelogin(client)</text><!--MD5=[438281daef332c5ccec4fb6cf3747e9a]
class ClinicalAnalysisLaboratoryStore--><rect codeLine="44" fill="#FEFECE" filter="url(#fu8xq3dflqjz1)" height="61.8359" id="ClinicalAnalysisLaboratoryStore" style="stroke:#A80036;stroke-width:1.5;" width="206" x="56" y="859.5"/><ellipse cx="71" cy="875.5" fill="#ADD1B2" rx="11" ry="11" style="stroke:#A80036;stroke-width:1.0;"/><path d="M73,872 Q73.2031,871.5 73.4375,871.25 Q73.6719,871 73.9375,871 Q74.4063,871 74.7031,871.2813 Q75,871.5625 75,872.2188 L75,873.7813 Q75,874.4375 74.7188,874.7188 Q74.4375,875 74,875 Q73.6094,875 73.3594,874.8281 Q73.1094,874.6563 73,874.2031 Q72.9531,873.8906 72.7813,873.7188 Q72.4688,873.3906 71.9063,873.2031 Q71.3438,873 70.7813,873 Q70.0781,873 69.4844,873.2813 Q68.9063,873.5625 68.4531,874.1875 Q68,874.8125 68,875.6719 L68,876.5938 Q68,877.625 68.8438,878.3125 Q69.6875,879 71.1875,879 Q72.0781,879 72.7031,878.7969 Q73.0625,878.6875 73.4688,878.3281 Q73.7344,878.125 73.875,878.0625 Q74.0156,878 74.1875,878 Q74.5156,878 74.75,878.2656 Q75,878.5156 75,878.875 Q75,879.2188 74.6563,879.625 Q74.1563,880.2188 73.3594,880.5469 Q72.3125,881 71.0313,881 Q69.5313,881 68.3281,880.4063 Q67.3594,879.9375 66.6719,878.9219 Q66,877.9063 66,876.7031 L66,875.6094 Q66,874.3594 66.5938,873.2656 Q67.2031,872.1719 68.25,871.5938 Q69.3125,871 70.5,871 Q71.2188,871 71.8438,871.25 Q72.4688,871.5 73,872 Z " fill="#000000"/><text fill="#000000" font-family="sans-serif" font-size="12" lengthAdjust="spacing" textLength="174" x="85" y="880.4102">ClinicalAnalysisLaboratoryStore</text><line style="stroke:#A80036;stroke-width:1.5;" x1="57" x2="261" y1="891.5" y2="891.5"/><line style="stroke:#A80036;stroke-width:1.5;" x1="57" x2="261" y1="899.5" y2="899.5"/><ellipse cx="67" cy="910.5" fill="#84BE84" rx="3" ry="3" style="stroke:#038048;stroke-width:1.0;"/><text fill="#000000" font-family="sans-serif" font-size="11" lengthAdjust="spacing" textLength="173" x="76" y="914.9189">getClinicalAnalysisLaboratory(labId)</text><!--MD5=[0f6f7964b844a64b0496af0dda7914bd]
class TestStore--><rect codeLine="26" fill="#FEFECE" filter="url(#fu8xq3dflqjz1)" height="103.3438" id="TestStore" style="stroke:#A80036;stroke-width:1.5;" width="336" x="297" y="839"/><ellipse cx="434.25" cy="855" fill="#ADD1B2" rx="11" ry="11" style="stroke:#A80036;stroke-width:1.0;"/><path d="M436.25,851.5 Q436.4531,851 436.6875,850.75 Q436.9219,850.5 437.1875,850.5 Q437.6563,850.5 437.9531,850.7813 Q438.25,851.0625 438.25,851.7188 L438.25,853.2813 Q438.25,853.9375 437.9688,854.2188 Q437.6875,854.5 437.25,854.5 Q436.8594,854.5 436.6094,854.3281 Q436.3594,854.1563 436.25,853.7031 Q436.2031,853.3906 436.0313,853.2188 Q435.7188,852.8906 435.1563,852.7031 Q434.5938,852.5 434.0313,852.5 Q433.3281,852.5 432.7344,852.7813 Q432.1563,853.0625 431.7031,853.6875 Q431.25,854.3125 431.25,855.1719 L431.25,856.0938 Q431.25,857.125 432.0938,857.8125 Q432.9375,858.5 434.4375,858.5 Q435.3281,858.5 435.9531,858.2969 Q436.3125,858.1875 436.7188,857.8281 Q436.9844,857.625 437.125,857.5625 Q437.2656,857.5 437.4375,857.5 Q437.7656,857.5 438,857.7656 Q438.25,858.0156 438.25,858.375 Q438.25,858.7188 437.9063,859.125 Q437.4063,859.7188 436.6094,860.0469 Q435.5625,860.5 434.2813,860.5 Q432.7813,860.5 431.5781,859.9063 Q430.6094,859.4375 429.9219,858.4219 Q429.25,857.4063 429.25,856.2031 L429.25,855.1094 Q429.25,853.8594 429.8438,852.7656 Q430.4531,851.6719 431.5,851.0938 Q432.5625,850.5 433.75,850.5 Q434.4688,850.5 435.0938,850.75 Q435.7188,851 436.25,851.5 Z " fill="#000000"/><text fill="#000000" font-family="sans-serif" font-size="12" lengthAdjust="spacing" textLength="53" x="454.75" y="859.9102">TestStore</text><line style="stroke:#A80036;stroke-width:1.5;" x1="298" x2="632" y1="871" y2="871"/><line style="stroke:#A80036;stroke-width:1.5;" x1="298" x2="632" y1="879" y2="879"/><ellipse cx="308" cy="890" fill="#84BE84" rx="3" ry="3" style="stroke:#038048;stroke-width:1.0;"/><text fill="#000000" font-family="sans-serif" font-size="11" lengthAdjust="spacing" textLength="310" x="317" y="894.4189">createTestByCsvFile(client,nhscode,testType,tpList,lab,dateList)</text><ellipse cx="308" cy="903.8359" fill="#84BE84" rx="3" ry="3" style="stroke:#038048;stroke-width:1.0;"/><text fill="#000000" font-family="sans-serif" font-size="11" lengthAdjust="spacing" textLength="71" x="317" y="908.2549">saveTest(test)</text><rect fill="#F24D5C" height="6" style="stroke:#C82930;stroke-width:1.0;" width="6" x="305" y="914.6719"/><text fill="#000000" font-family="sans-serif" font-size="11" lengthAdjust="spacing" textLength="84" x="317" y="922.0908">validateTest(test)</text><rect fill="#F24D5C" height="6" style="stroke:#C82930;stroke-width:1.0;" width="6" x="305" y="928.5078"/><text fill="#000000" font-family="sans-serif" font-size="11" lengthAdjust="spacing" textLength="65" x="317" y="935.9268">addTest(test)</text><!--MD5=[1934a092c0e7d4da7dc7075b6f4b6b03]
class ClinicalAnalysisLaboratory--><rect codeLine="48" fill="#FEFECE" filter="url(#fu8xq3dflqjz1)" height="89.5078" id="ClinicalAnalysisLaboratory" style="stroke:#A80036;stroke-width:1.5;" width="238" x="1088" y="845.5"/><ellipse cx="1130.45" cy="861.5" fill="#ADD1B2" rx="11" ry="11" style="stroke:#A80036;stroke-width:1.0;"/><path d="M1132.45,858 Q1132.6531,857.5 1132.8875,857.25 Q1133.1219,857 1133.3875,857 Q1133.8563,857 1134.1531,857.2813 Q1134.45,857.5625 1134.45,858.2188 L1134.45,859.7813 Q1134.45,860.4375 1134.1688,860.7188 Q1133.8875,861 1133.45,861 Q1133.0594,861 1132.8094,860.8281 Q1132.5594,860.6563 1132.45,860.2031 Q1132.4031,859.8906 1132.2313,859.7188 Q1131.9188,859.3906 1131.3563,859.2031 Q1130.7938,859 1130.2313,859 Q1129.5281,859 1128.9344,859.2813 Q1128.3563,859.5625 1127.9031,860.1875 Q1127.45,860.8125 1127.45,861.6719 L1127.45,862.5938 Q1127.45,863.625 1128.2938,864.3125 Q1129.1375,865 1130.6375,865 Q1131.5281,865 1132.1531,864.7969 Q1132.5125,864.6875 1132.9188,864.3281 Q1133.1844,864.125 1133.325,864.0625 Q1133.4656,864 1133.6375,864 Q1133.9656,864 1134.2,864.2656 Q1134.45,864.5156 1134.45,864.875 Q1134.45,865.2188 1134.1063,865.625 Q1133.6063,866.2188 1132.8094,866.5469 Q1131.7625,867 1130.4813,867 Q1128.9813,867 1127.7781,866.4063 Q1126.8094,865.9375 1126.1219,864.9219 Q1125.45,863.9063 1125.45,862.7031 L1125.45,861.6094 Q1125.45,860.3594 1126.0438,859.2656 Q1126.6531,858.1719 1127.7,857.5938 Q1128.7625,857 1129.95,857 Q1130.6688,857 1131.2938,857.25 Q1131.9188,857.5 1132.45,858 Z " fill="#000000"/><text fill="#000000" font-family="sans-serif" font-size="12" lengthAdjust="spacing" textLength="145" x="1150.55" y="866.4102">ClinicalAnalysisLaboratory</text><line style="stroke:#A80036;stroke-width:1.5;" x1="1089" x2="1325" y1="877.5" y2="877.5"/><rect fill="none" height="6" style="stroke:#C82930;stroke-width:1.0;" width="6" x="1096" y="885.5"/><text fill="#000000" font-family="sans-serif" font-size="11" lengthAdjust="spacing" textLength="57" x="1108" y="892.9189">laboratoryId</text><rect fill="none" height="6" style="stroke:#C82930;stroke-width:1.0;" width="6" x="1096" y="899.3359"/><text fill="#000000" font-family="sans-serif" font-size="11" lengthAdjust="spacing" textLength="76" x="1108" y="906.7549">listOfTestTypes</text><line style="stroke:#A80036;stroke-width:1.5;" x1="1089" x2="1325" y1="913.1719" y2="913.1719"/><ellipse cx="1099" cy="924.1719" fill="#84BE84" rx="3" ry="3" style="stroke:#038048;stroke-width:1.0;"/><text fill="#000000" font-family="sans-serif" font-size="11" lengthAdjust="spacing" textLength="212" x="1108" y="928.5908">getClinicalAnalysisLaboratoryByLabId(labId)</text><!--MD5=[ed6624c6556d5e7b1bd23032162d20b7]
class Client--><rect codeLine="64" fill="#FEFECE" filter="url(#fu8xq3dflqjz1)" height="158.6875" id="Client" style="stroke:#A80036;stroke-width:1.5;" width="115" x="937.5" y="811"/><ellipse cx="975.45" cy="827" fill="#ADD1B2" rx="11" ry="11" style="stroke:#A80036;stroke-width:1.0;"/><path d="M977.45,823.5 Q977.6531,823 977.8875,822.75 Q978.1219,822.5 978.3875,822.5 Q978.8563,822.5 979.1531,822.7813 Q979.45,823.0625 979.45,823.7188 L979.45,825.2813 Q979.45,825.9375 979.1688,826.2188 Q978.8875,826.5 978.45,826.5 Q978.0594,826.5 977.8094,826.3281 Q977.5594,826.1563 977.45,825.7031 Q977.4031,825.3906 977.2313,825.2188 Q976.9188,824.8906 976.3563,824.7031 Q975.7938,824.5 975.2313,824.5 Q974.5281,824.5 973.9344,824.7813 Q973.3563,825.0625 972.9031,825.6875 Q972.45,826.3125 972.45,827.1719 L972.45,828.0938 Q972.45,829.125 973.2938,829.8125 Q974.1375,830.5 975.6375,830.5 Q976.5281,830.5 977.1531,830.2969 Q977.5125,830.1875 977.9188,829.8281 Q978.1844,829.625 978.325,829.5625 Q978.4656,829.5 978.6375,829.5 Q978.9656,829.5 979.2,829.7656 Q979.45,830.0156 979.45,830.375 Q979.45,830.7188 979.1063,831.125 Q978.6063,831.7188 977.8094,832.0469 Q976.7625,832.5 975.4813,832.5 Q973.9813,832.5 972.7781,831.9063 Q971.8094,831.4375 971.1219,830.4219 Q970.45,829.4063 970.45,828.2031 L970.45,827.1094 Q970.45,825.8594 971.0438,824.7656 Q971.6531,823.6719 972.7,823.0938 Q973.7625,822.5 974.95,822.5 Q975.6688,822.5 976.2938,822.75 Q976.9188,823 977.45,823.5 Z " fill="#000000"/><text fill="#000000" font-family="sans-serif" font-size="12" lengthAdjust="spacing" textLength="32" x="994.55" y="831.9102">Client</text><line style="stroke:#A80036;stroke-width:1.5;" x1="938.5" x2="1051.5" y1="843" y2="843"/><rect fill="none" height="6" style="stroke:#C82930;stroke-width:1.0;" width="6" x="945.5" y="851"/><text fill="#000000" font-family="sans-serif" font-size="11" lengthAdjust="spacing" textLength="89" x="957.5" y="858.4189">citizencardnumber</text><rect fill="none" height="6" style="stroke:#C82930;stroke-width:1.0;" width="6" x="945.5" y="864.8359"/><text fill="#000000" font-family="sans-serif" font-size="11" lengthAdjust="spacing" textLength="18" x="957.5" y="872.2549">nhs</text><rect fill="none" height="6" style="stroke:#C82930;stroke-width:1.0;" width="6" x="945.5" y="878.6719"/><text fill="#000000" font-family="sans-serif" font-size="11" lengthAdjust="spacing" textLength="21" x="957.5" y="886.0908">date</text><rect fill="none" height="6" style="stroke:#C82930;stroke-width:1.0;" width="6" x="945.5" y="892.5078"/><text fill="#000000" font-family="sans-serif" font-size="11" lengthAdjust="spacing" textLength="18" x="957.5" y="899.9268">sex</text><rect fill="none" height="6" style="stroke:#C82930;stroke-width:1.0;" width="6" x="945.5" y="906.3438"/><text fill="#000000" font-family="sans-serif" font-size="11" lengthAdjust="spacing" textLength="11" x="957.5" y="913.7627">tin</text><rect fill="none" height="6" style="stroke:#C82930;stroke-width:1.0;" width="6" x="945.5" y="920.1797"/><text fill="#000000" font-family="sans-serif" font-size="11" lengthAdjust="spacing" textLength="66" x="957.5" y="927.5986">phonenumber</text><rect fill="none" height="6" style="stroke:#C82930;stroke-width:1.0;" width="6" x="945.5" y="934.0156"/><text fill="#000000" font-family="sans-serif" font-size="11" lengthAdjust="spacing" textLength="24" x="957.5" y="941.4346">email</text><rect fill="none" height="6" style="stroke:#C82930;stroke-width:1.0;" width="6" x="945.5" y="947.8516"/><text fill="#000000" font-family="sans-serif" font-size="11" lengthAdjust="spacing" textLength="26" x="957.5" y="955.2705">name</text><line style="stroke:#A80036;stroke-width:1.5;" x1="938.5" x2="1051.5" y1="961.6875" y2="961.6875"/><!--MD5=[df38be88ccee13e832d6fafd6288a4ca]
class Test--><rect codeLine="33" fill="#FEFECE" filter="url(#fu8xq3dflqjz1)" height="158.6875" id="Test" style="stroke:#A80036;stroke-width:1.5;" width="375" x="1361.5" y="811"/><ellipse cx="1532.75" cy="827" fill="#ADD1B2" rx="11" ry="11" style="stroke:#A80036;stroke-width:1.0;"/><path d="M1534.75,823.5 Q1534.9531,823 1535.1875,822.75 Q1535.4219,822.5 1535.6875,822.5 Q1536.1563,822.5 1536.4531,822.7813 Q1536.75,823.0625 1536.75,823.7188 L1536.75,825.2813 Q1536.75,825.9375 1536.4688,826.2188 Q1536.1875,826.5 1535.75,826.5 Q1535.3594,826.5 1535.1094,826.3281 Q1534.8594,826.1563 1534.75,825.7031 Q1534.7031,825.3906 1534.5313,825.2188 Q1534.2188,824.8906 1533.6563,824.7031 Q1533.0938,824.5 1532.5313,824.5 Q1531.8281,824.5 1531.2344,824.7813 Q1530.6563,825.0625 1530.2031,825.6875 Q1529.75,826.3125 1529.75,827.1719 L1529.75,828.0938 Q1529.75,829.125 1530.5938,829.8125 Q1531.4375,830.5 1532.9375,830.5 Q1533.8281,830.5 1534.4531,830.2969 Q1534.8125,830.1875 1535.2188,829.8281 Q1535.4844,829.625 1535.625,829.5625 Q1535.7656,829.5 1535.9375,829.5 Q1536.2656,829.5 1536.5,829.7656 Q1536.75,830.0156 1536.75,830.375 Q1536.75,830.7188 1536.4063,831.125 Q1535.9063,831.7188 1535.1094,832.0469 Q1534.0625,832.5 1532.7813,832.5 Q1531.2813,832.5 1530.0781,831.9063 Q1529.1094,831.4375 1528.4219,830.4219 Q1527.75,829.4063 1527.75,828.2031 L1527.75,827.1094 Q1527.75,825.8594 1528.3438,824.7656 Q1528.9531,823.6719 1530,823.0938 Q1531.0625,822.5 1532.25,822.5 Q1532.9688,822.5 1533.5938,822.75 Q1534.2188,823 1534.75,823.5 Z " fill="#000000"/><text fill="#000000" font-family="sans-serif" font-size="12" lengthAdjust="spacing" textLength="24" x="1553.25" y="831.9102">Test</text><line style="stroke:#A80036;stroke-width:1.5;" x1="1362.5" x2="1735.5" y1="843" y2="843"/><rect fill="none" height="6" style="stroke:#C82930;stroke-width:1.0;" width="6" x="1369.5" y="851"/><text fill="#000000" font-family="sans-serif" font-size="11" lengthAdjust="spacing" textLength="25" x="1381.5" y="858.4189">client</text><rect fill="none" height="6" style="stroke:#C82930;stroke-width:1.0;" width="6" x="1369.5" y="864.8359"/><text fill="#000000" font-family="sans-serif" font-size="11" lengthAdjust="spacing" textLength="42" x="1381.5" y="872.2549">nhscode</text><rect fill="none" height="6" style="stroke:#C82930;stroke-width:1.0;" width="6" x="1369.5" y="878.6719"/><text fill="#000000" font-family="sans-serif" font-size="11" lengthAdjust="spacing" textLength="84" x="1381.5" y="886.0908">testParameterList</text><rect fill="none" height="6" style="stroke:#C82930;stroke-width:1.0;" width="6" x="1369.5" y="892.5078"/><text fill="#000000" font-family="sans-serif" font-size="11" lengthAdjust="spacing" textLength="57" x="1381.5" y="899.9268">stateOfTest</text><rect fill="none" height="6" style="stroke:#C82930;stroke-width:1.0;" width="6" x="1369.5" y="906.3438"/><text fill="#000000" font-family="sans-serif" font-size="11" lengthAdjust="spacing" textLength="60" x="1381.5" y="913.7627">internalCode</text><line style="stroke:#A80036;stroke-width:1.5;" x1="1362.5" x2="1735.5" y1="920.1797" y2="920.1797"/><ellipse cx="1372.5" cy="931.1797" fill="#84BE84" rx="3" ry="3" style="stroke:#038048;stroke-width:1.0;"/><text fill="#000000" font-family="sans-serif" font-size="11" lengthAdjust="spacing" textLength="188" x="1381.5" y="935.5986">setSamplesAddDate(samplesAddDate)</text><ellipse cx="1372.5" cy="945.0156" fill="#84BE84" rx="3" ry="3" style="stroke:#038048;stroke-width:1.0;"/><text fill="#000000" font-family="sans-serif" font-size="11" lengthAdjust="spacing" textLength="138" x="1381.5" y="949.4346">setStateOfTest(stateOfTest)</text><ellipse cx="1372.5" cy="958.8516" fill="#84BE84" rx="3" ry="3" style="stroke:#038048;stroke-width:1.0;"/><text fill="#000000" font-family="sans-serif" font-size="11" lengthAdjust="spacing" textLength="349" x="1381.5" y="963.2705">addTestResultWithDate(parameterID,result,metric,chemicalAnalysisDate)</text><!--MD5=[3f38d37b0b8cb49531698a7d81bd0cad]
link ImportFileUI to ImportFileController--><path codeLine="100" d="M804,110.31 C804,136.52 804,179.37 804,209.69 " fill="none" id="ImportFileUI-to-ImportFileController" style="stroke:#A80036;stroke-width:1.0;stroke-dasharray:7.0,7.0;"/><polygon fill="#A80036" points="804,214.83,808.0257,205.8415,804.0143,209.83,800.0257,205.8186,804,214.83" style="stroke:#A80036;stroke-width:1.0;"/><!--MD5=[e026e2c5f321eef2342507462432934d]
link ImportFileController to FileReader--><path codeLine="101" d="M804,277.03 C804,303.15 804,342.15 804,376.85 " fill="none" id="ImportFileController-to-FileReader" style="stroke:#A80036;stroke-width:1.0;stroke-dasharray:7.0,7.0;"/><polygon fill="#A80036" points="804,381.94,808,372.94,804,376.94,800,372.94,804,381.94" style="stroke:#A80036;stroke-width:1.0;"/><!--MD5=[145913b1869503b7f4640c566009c65e]
link FileReader to Client--><path codeLine="102" d="M835.54,527.17 C869.25,603.77 922.64,725.08 958.23,805.96 " fill="none" id="FileReader-to-Client" style="stroke:#A80036;stroke-width:1.0;stroke-dasharray:7.0,7.0;"/><polygon fill="#A80036" points="960.34,810.74,960.3828,800.8912,958.3292,806.1622,953.0582,804.1086,960.34,810.74" style="stroke:#A80036;stroke-width:1.0;"/><!--MD5=[91a1c351ad6ef6f2d458a1a7b33866fa]
link FileReader to Test--><path codeLine="103" d="M946.88,527.05 C1057.18,583.61 1212.63,666.24 1344,747 C1374.53,765.77 1406.72,787.28 1436.32,807.8 " fill="none" id="FileReader-to-Test" style="stroke:#A80036;stroke-width:1.0;stroke-dasharray:7.0,7.0;"/><polygon fill="#A80036" points="1440.67,810.82,1435.5395,802.413,1436.5565,807.9777,1430.9918,808.9946,1440.67,810.82" style="stroke:#A80036;stroke-width:1.0;"/><!--MD5=[a35423acdabb4654e1d22dbf066071ed]
link FileReader to ClinicalAnalysisLaboratory--><path codeLine="104" d="M870.55,527.17 C953.02,615.98 1091.31,764.91 1162.17,841.22 " fill="none" id="FileReader-to-ClinicalAnalysisLaboratory" style="stroke:#A80036;stroke-width:1.0;stroke-dasharray:7.0,7.0;"/><polygon fill="#A80036" points="1165.91,845.25,1162.7102,835.9354,1162.505,841.5886,1156.8519,841.3834,1165.91,845.25" style="stroke:#A80036;stroke-width:1.0;"/><!--MD5=[df0440ff4b6af12aff668a525342d0dd]
link FileReader to Company--><path codeLine="105" d="M650.7,527.09 C631.44,536.82 612.14,546.93 594,557 C578.33,565.7 561.94,575.49 546.3,585.19 " fill="none" id="FileReader-to-Company" style="stroke:#A80036;stroke-width:1.0;stroke-dasharray:7.0,7.0;"/><polygon fill="#A80036" points="541.91,587.92,551.6661,586.5715,546.158,585.2828,547.4466,579.7747,541.91,587.92" style="stroke:#A80036;stroke-width:1.0;"/><!--MD5=[3552cffc3ecb9aa49a09da054ab1df97]
link FileReader to ClientStore--><path codeLine="106" d="M806.64,527.13 C807.82,584.6 807.41,667.25 799,739 C795.87,765.65 790.13,794.52 784.3,819.78 " fill="none" id="FileReader-to-ClientStore" style="stroke:#A80036;stroke-width:1.0;stroke-dasharray:7.0,7.0;"/><polygon fill="#A80036" points="783.14,824.79,789.0899,816.9415,784.282,819.9222,781.3014,815.1143,783.14,824.79" style="stroke:#A80036;stroke-width:1.0;"/><!--MD5=[d57f2c73c9c2a660b7887ab86b5aa03e]
link FileReader to TestStore--><path codeLine="107" d="M748.02,527.17 C680.59,613.5 568.79,756.63 507.84,834.65 " fill="none" id="FileReader-to-TestStore" style="stroke:#A80036;stroke-width:1.0;stroke-dasharray:7.0,7.0;"/><polygon fill="#A80036" points="504.62,838.78,513.3168,834.1577,507.7015,834.8425,507.0168,829.2272,504.62,838.78" style="stroke:#A80036;stroke-width:1.0;"/><!--MD5=[dad631b7aaf1f9faffad818f4c08a5f5]
link FileReader to ClinicalAnalysisLaboratoryStore--><path codeLine="108" d="M497.75,510.12 C443.8,528.9 390.69,554.12 346,588 C252.47,658.9 194.58,791.28 171.08,854.34 " fill="none" id="FileReader-to-ClinicalAnalysisLaboratoryStore" style="stroke:#A80036;stroke-width:1.0;stroke-dasharray:7.0,7.0;"/><polygon fill="#A80036" points="169.32,859.13,176.2066,852.0891,171.0631,854.4437,168.7085,849.3001,169.32,859.13" style="stroke:#A80036;stroke-width:1.0;"/><!--MD5=[a11230341c8e65219708844feaa40162]
link Company to ClientStore--><path codeLine="109" d="M566.79,672.86 C595.58,685.05 625.67,700.95 650,721 C682.92,748.12 710.49,786.89 730.47,820.4 " fill="none" id="Company-to-ClientStore" style="stroke:#A80036;stroke-width:1.0;"/><polygon fill="#A80036" points="733.12,824.88,731.9819,815.0971,730.5749,820.5762,725.0958,819.1693,733.12,824.88" style="stroke:#A80036;stroke-width:1.0;"/><text fill="#000000" font-family="sans-serif" font-size="13" lengthAdjust="spacing" textLength="28" x="667" y="735.4951">uses</text><text fill="#000000" font-family="sans-serif" font-size="13" lengthAdjust="spacing" textLength="7" x="574.5222" y="672.2178">1</text><text fill="#000000" font-family="sans-serif" font-size="13" lengthAdjust="spacing" textLength="7" x="722.1409" y="814.3413">1</text><!--MD5=[f379172a0573607dd0ae1a4ea50b9294]
link Company to ClinicalAnalysisLaboratoryStore--><path codeLine="110" d="M363.41,690.66 C335.09,706.8 305.2,726.01 280,747 C241.46,779.11 205.35,824.39 182.78,855.23 " fill="none" id="Company-to-ClinicalAnalysisLaboratoryStore" style="stroke:#A80036;stroke-width:1.0;"/><polygon fill="#A80036" points="179.83,859.3,188.3606,854.3776,182.7726,855.2576,181.8926,849.6696,179.83,859.3" style="stroke:#A80036;stroke-width:1.0;"/><text fill="#000000" font-family="sans-serif" font-size="13" lengthAdjust="spacing" textLength="28" x="313" y="735.4951">uses</text><text fill="#000000" font-family="sans-serif" font-size="13" lengthAdjust="spacing" textLength="7" x="348.364" y="691.4599">1</text><text fill="#000000" font-family="sans-serif" font-size="13" lengthAdjust="spacing" textLength="7" x="176.4043" y="848.7633">1</text><!--MD5=[7f6cf7f175eae0af66201860de5de971]
link Company to TestStore--><path codeLine="111" d="M465,691.19 C465,732.59 465,791.04 465,833.75 " fill="none" id="Company-to-TestStore" style="stroke:#A80036;stroke-width:1.0;"/><polygon fill="#A80036" points="465,838.88,469,829.88,465,833.88,461,829.88,465,838.88" style="stroke:#A80036;stroke-width:1.0;"/><text fill="#000000" font-family="sans-serif" font-size="13" lengthAdjust="spacing" textLength="28" x="466" y="735.4951">uses</text><text fill="#000000" font-family="sans-serif" font-size="13" lengthAdjust="spacing" textLength="7" x="457.5297" y="712.7065">1</text><text fill="#000000" font-family="sans-serif" font-size="13" lengthAdjust="spacing" textLength="7" x="457.5078" y="827.9916">1</text><!--MD5=[1d934105a045dbf126514c6917bd5072]
link ClientStore to Client--><path codeLine="112" d="M863.78,890.5 C886.96,890.5 911.08,890.5 932.22,890.5 " fill="none" id="ClientStore-to-Client" style="stroke:#A80036;stroke-width:1.0;"/><polygon fill="#A80036" points="937.25,890.5,928.25,886.5,932.25,890.5,928.25,894.5,937.25,890.5" style="stroke:#A80036;stroke-width:1.0;"/><text fill="#000000" font-family="sans-serif" font-size="13" lengthAdjust="spacing" textLength="37" x="882" y="883.9951">knows</text><text fill="#000000" font-family="sans-serif" font-size="13" lengthAdjust="spacing" textLength="7" x="871.5342" y="887.3955">1</text><text fill="#000000" font-family="sans-serif" font-size="13" lengthAdjust="spacing" textLength="5" x="924.5305" y="887.0127">*</text><!--MD5=[2dad08ae384f93453eb1ba4eb26732f1]
link ClinicalAnalysisLaboratoryStore to ClinicalAnalysisLaboratory--><path codeLine="113" d="M174.99,859.49 C194.53,825.37 231.13,772.41 280,750 C359.79,713.41 989.12,715.9 1070,750 C1113.71,768.43 1150.41,808.38 1174.78,840.99 " fill="none" id="ClinicalAnalysisLaboratoryStore-to-ClinicalAnalysisLaboratory" style="stroke:#A80036;stroke-width:1.0;"/><polygon fill="#A80036" points="1177.99,845.33,1175.8668,835.7127,1175.0221,841.3062,1169.4286,840.4614,1177.99,845.33" style="stroke:#A80036;stroke-width:1.0;"/><text fill="#000000" font-family="sans-serif" font-size="13" lengthAdjust="spacing" textLength="37" x="610.5" y="735.4951">knows</text><text fill="#000000" font-family="sans-serif" font-size="13" lengthAdjust="spacing" textLength="7" x="170.7222" y="848.5081">1</text><text fill="#000000" font-family="sans-serif" font-size="13" lengthAdjust="spacing" textLength="5" x="1168.165" y="834.7481">*</text><!--MD5=[b0f4f6db8206580012ef9cd998ed01c5]
link TestStore to Test--><path codeLine="114" d="M514.51,838.72 C549.22,806.34 598.62,767.56 651,750 C724.01,725.53 1270.45,727.21 1344,750 C1382.95,762.07 1421.08,784.37 1453.69,807.71 " fill="none" id="TestStore-to-Test" style="stroke:#A80036;stroke-width:1.0;"/><polygon fill="#A80036" points="1458.05,810.86,1453.0937,802.3491,1453.9959,807.9336,1448.4114,808.8358,1458.05,810.86" style="stroke:#A80036;stroke-width:1.0;"/><text fill="#000000" font-family="sans-serif" font-size="13" lengthAdjust="spacing" textLength="72" x="725" y="735.4951">registers the</text><text fill="#000000" font-family="sans-serif" font-size="13" lengthAdjust="spacing" textLength="7" x="513.6926" y="828.1827">1</text><text fill="#000000" font-family="sans-serif" font-size="13" lengthAdjust="spacing" textLength="5" x="1444.143" y="800.0336">*</text><!--MD5=[3f0af00c62c4472e5865f4068a9edf31]
@startuml

package ui{
class ImportFileUI
}

package controller{
class ImportFileController
}

package domain{
class FileReader
class Company
package store{
class ClientStore
class ClinicalAnalysisLaboratoryStore
class TestStore
}
package model{
class ClinicalAnalysisLaboratory
class Client
class Test

}
}

class TestStore{
+createTestByCsvFile(client,nhscode,testType,tpList,lab,dateList)
+saveTest(test)
-validateTest(test)
-addTest(test)
}

class Test{
-client
-nhscode
-testParameterList
-stateOfTest
-internalCode
+setSamplesAddDate(samplesAddDate)
+setStateOfTest(stateOfTest)
+addTestResultWithDate(parameterID,result,metric,chemicalAnalysisDate)
}

class ClinicalAnalysisLaboratoryStore{
+getClinicalAnalysisLaboratory(labId)
}

class ClinicalAnalysisLaboratory{
-laboratoryId
-listOfTestTypes
+getClinicalAnalysisLaboratoryByLabId(labId)
}

class ClientStore{
+getClientbytin(tin)
+saveClient(client)
+addUserWithRole(name,email,pwd)
-validateClient(client)
-addClient(client)
-generatelogin(client)

}

class Client{
-citizencardnumber
  -nhs
  -date
  -sex
  -tin
  -phonenumber
  -email
  -name
}

class Company{
-String designation
+getTestStore()
+getClientStore()
+getClinicalAnalysisLaboratoryStore()
}

class FileReader {
+read(file)
-createTest(client,nhscode,testType,lab,validParametersStringList, parametersNumbList, lineContent)
-fillParametersString(lineContent,parametersNumbList,allParametersStringList)
-fillValidParametersString(allParametersStringList,validParametersStringList,parametersNumbList,parameterNumbTestValid)
-convertStringIntoParameter(validParametersStringList,pmList)
-convertParameterIntoTestParameter(pmList,tpList)
-generateDate(lineContent,dateList)
}

class ImportFileController {
+loadfile(filesList)
}

class ImportFileUI {

}

ImportFileUI ..> ImportFileController
ImportFileController ..> FileReader
FileReader ..> Client
FileReader ..> Test
FileReader ..> ClinicalAnalysisLaboratory
FileReader ..> Company
FileReader ...> ClientStore
FileReader ...> TestStore
FileReader ...> ClinicalAnalysisLaboratoryStore
Company "1" - -> "1" ClientStore : uses
Company "1" -> "1" ClinicalAnalysisLaboratoryStore : uses
Company "1" -> "1" TestStore : uses
ClientStore "1" -> "*" Client : knows
ClinicalAnalysisLaboratoryStore "1" -> "*" ClinicalAnalysisLaboratory : knows
TestStore "1" -> "*" Test : registers the

@enduml

PlantUML version 1.2021.5(Sun Apr 25 12:20:28 BST 2021)
(GPL source distribution)
Java Runtime: OpenJDK Runtime Environment
JVM: OpenJDK 64-Bit Server VM
Default Encoding: Cp1252
Language: pt
Country: PT
--></g></svg>