<?xml version="1.0" encoding="UTF-8" standalone="no"?><svg xmlns="http://www.w3.org/2000/svg" xmlns:xlink="http://www.w3.org/1999/xlink" contentScriptType="application/ecmascript" contentStyleType="text/css" height="565.5px" preserveAspectRatio="none" style="width:654px;height:565px;" version="1.1" viewBox="0 0 654 565" width="654px" zoomAndPan="magnify"><defs><filter height="300%" id="f1q34ff9t0fqp" width="300%" x="-1" y="-1"><feGaussianBlur result="blurOut" stdDeviation="3.0"/><feColorMatrix in="blurOut" result="blurOut2" type="matrix" values="0 0 0 0 0 0 0 0 0 0 0 0 0 0 0 0 0 0 .4 0"/><feOffset dx="6.0" dy="6.0" in="blurOut2" result="blurOut3"/><feBlend in="SourceGraphic" in2="blurOut3" mode="normal"/></filter></defs><g><rect fill="#FFFFFF" filter="url(#f1q34ff9t0fqp)" height="261.1641" style="stroke:#A80036;stroke-width:1.5;" width="15" x="115.5" y="149.4141"/><rect fill="#FFFFFF" filter="url(#f1q34ff9t0fqp)" height="45.5273" style="stroke:#A80036;stroke-width:1.5;" width="15" x="580.5" y="182.9414"/><rect fill="#FFFFFF" filter="url(#f1q34ff9t0fqp)" height="45.5273" style="stroke:#A80036;stroke-width:1.5;" width="15" x="580.5" y="273.9961"/><rect fill="#FFFFFF" filter="url(#f1q34ff9t0fqp)" height="45.5273" style="stroke:#A80036;stroke-width:1.5;" width="15" x="580.5" y="365.0508"/><line style="stroke:#A80036;stroke-width:1.5;stroke-dasharray:5.0,5.0;" x1="123" x2="123" y1="134.4141" y2="437.5781"/><line style="stroke:#A80036;stroke-width:1.5;stroke-dasharray:5.0,5.0;" x1="588" x2="588" y1="134.4141" y2="437.5781"/><text fill="#000000" font-family="sans-serif" font-size="21" lengthAdjust="spacing" textLength="222" x="7.5" y="129.7998">Laboratory Coordinator</text><ellipse cx="123" cy="22.5" fill="#FEFECE" filter="url(#f1q34ff9t0fqp)" rx="12" ry="12" style="stroke:#A80036;stroke-width:3.0;"/><path d="M123,34.5 L123,75 M103.5,46.5 L142.5,46.5 M123,75 L103.5,97.5 M123,75 L142.5,97.5 " fill="none" filter="url(#f1q34ff9t0fqp)" style="stroke:#A80036;stroke-width:3.0;"/><text fill="#000000" font-family="sans-serif" font-size="21" lengthAdjust="spacing" textLength="222" x="7.5" y="457.8779">Laboratory Coordinator</text><ellipse cx="123" cy="477.4922" fill="#FEFECE" filter="url(#f1q34ff9t0fqp)" rx="12" ry="12" style="stroke:#A80036;stroke-width:3.0;"/><path d="M123,489.4922 L123,529.9922 M103.5,501.4922 L142.5,501.4922 M123,529.9922 L103.5,552.4922 M123,529.9922 L142.5,552.4922 " fill="none" filter="url(#f1q34ff9t0fqp)" style="stroke:#A80036;stroke-width:3.0;"/><rect fill="#FEFECE" filter="url(#f1q34ff9t0fqp)" height="47.4141" style="stroke:#A80036;stroke-width:2.25;" width="96" x="537" y="79.5"/><text fill="#000000" font-family="sans-serif" font-size="21" lengthAdjust="spacing" textLength="75" x="547.5" y="111.7998">:System</text><rect fill="#FEFECE" filter="url(#f1q34ff9t0fqp)" height="47.4141" style="stroke:#A80036;stroke-width:2.25;" width="96" x="537" y="436.0781"/><text fill="#000000" font-family="sans-serif" font-size="21" lengthAdjust="spacing" textLength="75" x="547.5" y="468.3779">:System</text><rect fill="#FFFFFF" filter="url(#f1q34ff9t0fqp)" height="261.1641" style="stroke:#A80036;stroke-width:1.5;" width="15" x="115.5" y="149.4141"/><rect fill="#FFFFFF" filter="url(#f1q34ff9t0fqp)" height="45.5273" style="stroke:#A80036;stroke-width:1.5;" width="15" x="580.5" y="182.9414"/><rect fill="#FFFFFF" filter="url(#f1q34ff9t0fqp)" height="45.5273" style="stroke:#A80036;stroke-width:1.5;" width="15" x="580.5" y="273.9961"/><rect fill="#FFFFFF" filter="url(#f1q34ff9t0fqp)" height="45.5273" style="stroke:#A80036;stroke-width:1.5;" width="15" x="580.5" y="365.0508"/><polygon fill="#A80036" points="562.5,176.9414,577.5,182.9414,562.5,188.9414,568.5,182.9414" style="stroke:#A80036;stroke-width:1.5;"/><line style="stroke:#A80036;stroke-width:1.5;" x1="130.5" x2="571.5" y1="182.9414" y2="182.9414"/><text fill="#000000" font-family="sans-serif" font-size="19.5" font-weight="bold" lengthAdjust="spacing" textLength="10.5" x="141" y="175.6567">1</text><text fill="#000000" font-family="sans-serif" font-size="19.5" lengthAdjust="spacing" textLength="405" x="157.5" y="175.6567">Initiates the process of Importing Clinical Tests</text><polygon fill="#A80036" points="147,222.4688,132,228.4688,147,234.4688,141,228.4688" style="stroke:#A80036;stroke-width:1.5;"/><line style="stroke:#A80036;stroke-width:1.5;stroke-dasharray:2.0,2.0;" x1="138" x2="586.5" y1="228.4688" y2="228.4688"/><text fill="#000000" font-family="sans-serif" font-size="19.5" font-weight="bold" lengthAdjust="spacing" textLength="10.5" x="156" y="221.1841">2</text><text fill="#000000" font-family="sans-serif" font-size="19.5" lengthAdjust="spacing" textLength="202.5" x="172.5" y="221.1841">Asks for the File's Path</text><polygon fill="#A80036" points="562.5,267.9961,577.5,273.9961,562.5,279.9961,568.5,273.9961" style="stroke:#A80036;stroke-width:1.5;"/><line style="stroke:#A80036;stroke-width:1.5;" x1="130.5" x2="571.5" y1="273.9961" y2="273.9961"/><text fill="#000000" font-family="sans-serif" font-size="19.5" font-weight="bold" lengthAdjust="spacing" textLength="10.5" x="141" y="266.7114">3</text><text fill="#000000" font-family="sans-serif" font-size="19.5" lengthAdjust="spacing" textLength="220.5" x="157.5" y="266.7114">Introduces the File's Path</text><polygon fill="#A80036" points="147,313.5234,132,319.5234,147,325.5234,141,319.5234" style="stroke:#A80036;stroke-width:1.5;"/><line style="stroke:#A80036;stroke-width:1.5;stroke-dasharray:2.0,2.0;" x1="138" x2="586.5" y1="319.5234" y2="319.5234"/><text fill="#000000" font-family="sans-serif" font-size="19.5" font-weight="bold" lengthAdjust="spacing" textLength="10.5" x="156" y="312.2388">4</text><text fill="#000000" font-family="sans-serif" font-size="19.5" lengthAdjust="spacing" textLength="193.5" x="172.5" y="312.2388">Requests confirmation</text><polygon fill="#A80036" points="562.5,359.0508,577.5,365.0508,562.5,371.0508,568.5,365.0508" style="stroke:#A80036;stroke-width:1.5;"/><line style="stroke:#A80036;stroke-width:1.5;" x1="130.5" x2="571.5" y1="365.0508" y2="365.0508"/><text fill="#000000" font-family="sans-serif" font-size="19.5" font-weight="bold" lengthAdjust="spacing" textLength="10.5" x="141" y="357.7661">5</text><text fill="#000000" font-family="sans-serif" font-size="19.5" lengthAdjust="spacing" textLength="153" x="157.5" y="357.7661">Confirms the data</text><polygon fill="#A80036" points="139.5,404.5781,124.5,410.5781,139.5,416.5781,133.5,410.5781" style="stroke:#A80036;stroke-width:1.5;"/><line style="stroke:#A80036;stroke-width:1.5;stroke-dasharray:2.0,2.0;" x1="130.5" x2="586.5" y1="410.5781" y2="410.5781"/><text fill="#000000" font-family="sans-serif" font-size="19.5" font-weight="bold" lengthAdjust="spacing" textLength="10.5" x="148.5" y="403.2935">6</text><text fill="#000000" font-family="sans-serif" font-size="19.5" lengthAdjust="spacing" textLength="256.5" x="165" y="403.2935">Informs the operation sucess.</text><!--MD5=[3860342bd5fef3bd5cb6d8ac2cb79377]
@startuml
autonumber
actor "Laboratory Coordinator" as LabCod

activate LabCod
LabCod -> ":System" : Initiates the process of Importing Clinical Tests
activate ":System"

":System" - -> LabCod : Asks for the File's Path
deactivate ":System"

LabCod -> ":System" : Introduces the File's Path
activate ":System"

":System" - -> LabCod : Requests confirmation
deactivate ":System"

LabCod -> ":System" : Confirms the data
activate ":System"
":System" - -> LabCod : Informs the operation sucess.
deactivate ":System"

deactivate LabCod

@enduml

PlantUML version 1.2021.5(Sun Apr 25 12:20:28 BST 2021)
(GPL source distribution)
Java Runtime: OpenJDK Runtime Environment
JVM: Dynamic Code Evolution 64-Bit Server VM
Default Encoding: Cp1252
Language: pt
Country: PT
--></g></svg>