<?xml version="1.0" encoding="UTF-8" standalone="no"?><svg xmlns="http://www.w3.org/2000/svg" xmlns:xlink="http://www.w3.org/1999/xlink" contentScriptType="application/ecmascript" contentStyleType="text/css" height="565.5px" preserveAspectRatio="none" style="width:564px;height:565px;" version="1.1" viewBox="0 0 564 565" width="564px" zoomAndPan="magnify"><defs><filter height="300%" id="fp2u0591yj6w9" width="300%" x="-1" y="-1"><feGaussianBlur result="blurOut" stdDeviation="3.0"/><feColorMatrix in="blurOut" result="blurOut2" type="matrix" values="0 0 0 0 0 0 0 0 0 0 0 0 0 0 0 0 0 0 .4 0"/><feOffset dx="6.0" dy="6.0" in="blurOut2" result="blurOut3"/><feBlend in="SourceGraphic" in2="blurOut3" mode="normal"/></filter></defs><g><rect fill="#FFFFFF" filter="url(#fp2u0591yj6w9)" height="261.1641" style="stroke:#A80036;stroke-width:1.5;" width="15" x="26.25" y="149.4141"/><rect fill="#FFFFFF" filter="url(#fp2u0591yj6w9)" height="45.5273" style="stroke:#A80036;stroke-width:1.5;" width="15" x="491.25" y="182.9414"/><rect fill="#FFFFFF" filter="url(#fp2u0591yj6w9)" height="45.5273" style="stroke:#A80036;stroke-width:1.5;" width="15" x="491.25" y="273.9961"/><rect fill="#FFFFFF" filter="url(#fp2u0591yj6w9)" height="45.5273" style="stroke:#A80036;stroke-width:1.5;" width="15" x="491.25" y="365.0508"/><line style="stroke:#A80036;stroke-width:1.5;stroke-dasharray:5.0,5.0;" x1="33" x2="33" y1="134.4141" y2="437.5781"/><line style="stroke:#A80036;stroke-width:1.5;stroke-dasharray:5.0,5.0;" x1="498.75" x2="498.75" y1="134.4141" y2="437.5781"/><text fill="#000000" font-family="sans-serif" font-size="21" lengthAdjust="spacing" textLength="43.5" x="7.5" y="129.7998">User</text><ellipse cx="33.75" cy="22.5" fill="#FEFECE" filter="url(#fp2u0591yj6w9)" rx="12" ry="12" style="stroke:#A80036;stroke-width:3.0;"/><path d="M33.75,34.5 L33.75,75 M14.25,46.5 L53.25,46.5 M33.75,75 L14.25,97.5 M33.75,75 L53.25,97.5 " fill="none" filter="url(#fp2u0591yj6w9)" style="stroke:#A80036;stroke-width:3.0;"/><text fill="#000000" font-family="sans-serif" font-size="21" lengthAdjust="spacing" textLength="43.5" x="7.5" y="457.8779">User</text><ellipse cx="33.75" cy="477.4922" fill="#FEFECE" filter="url(#fp2u0591yj6w9)" rx="12" ry="12" style="stroke:#A80036;stroke-width:3.0;"/><path d="M33.75,489.4922 L33.75,529.9922 M14.25,501.4922 L53.25,501.4922 M33.75,529.9922 L14.25,552.4922 M33.75,529.9922 L53.25,552.4922 " fill="none" filter="url(#fp2u0591yj6w9)" style="stroke:#A80036;stroke-width:3.0;"/><rect fill="#FEFECE" filter="url(#fp2u0591yj6w9)" height="47.4141" style="stroke:#A80036;stroke-width:2.25;" width="96" x="447.75" y="79.5"/><text fill="#000000" font-family="sans-serif" font-size="21" lengthAdjust="spacing" textLength="75" x="458.25" y="111.7998">:System</text><rect fill="#FEFECE" filter="url(#fp2u0591yj6w9)" height="47.4141" style="stroke:#A80036;stroke-width:2.25;" width="96" x="447.75" y="436.0781"/><text fill="#000000" font-family="sans-serif" font-size="21" lengthAdjust="spacing" textLength="75" x="458.25" y="468.3779">:System</text><rect fill="#FFFFFF" filter="url(#fp2u0591yj6w9)" height="261.1641" style="stroke:#A80036;stroke-width:1.5;" width="15" x="26.25" y="149.4141"/><rect fill="#FFFFFF" filter="url(#fp2u0591yj6w9)" height="45.5273" style="stroke:#A80036;stroke-width:1.5;" width="15" x="491.25" y="182.9414"/><rect fill="#FFFFFF" filter="url(#fp2u0591yj6w9)" height="45.5273" style="stroke:#A80036;stroke-width:1.5;" width="15" x="491.25" y="273.9961"/><rect fill="#FFFFFF" filter="url(#fp2u0591yj6w9)" height="45.5273" style="stroke:#A80036;stroke-width:1.5;" width="15" x="491.25" y="365.0508"/><polygon fill="#A80036" points="473.25,176.9414,488.25,182.9414,473.25,188.9414,479.25,182.9414" style="stroke:#A80036;stroke-width:1.5;"/><line style="stroke:#A80036;stroke-width:1.5;" x1="41.25" x2="482.25" y1="182.9414" y2="182.9414"/><text fill="#000000" font-family="sans-serif" font-size="19.5" font-weight="bold" lengthAdjust="spacing" textLength="10.5" x="51.75" y="175.6567">1</text><text fill="#000000" font-family="sans-serif" font-size="19.5" lengthAdjust="spacing" textLength="405" x="68.25" y="175.6567">Initiates the process of Importing Clinical Tests</text><polygon fill="#A80036" points="57.75,222.4688,42.75,228.4688,57.75,234.4688,51.75,228.4688" style="stroke:#A80036;stroke-width:1.5;"/><line style="stroke:#A80036;stroke-width:1.5;stroke-dasharray:2.0,2.0;" x1="48.75" x2="497.25" y1="228.4688" y2="228.4688"/><text fill="#000000" font-family="sans-serif" font-size="19.5" font-weight="bold" lengthAdjust="spacing" textLength="10.5" x="66.75" y="221.1841">2</text><text fill="#000000" font-family="sans-serif" font-size="19.5" lengthAdjust="spacing" textLength="202.5" x="83.25" y="221.1841">Asks for the File's Path</text><polygon fill="#A80036" points="473.25,267.9961,488.25,273.9961,473.25,279.9961,479.25,273.9961" style="stroke:#A80036;stroke-width:1.5;"/><line style="stroke:#A80036;stroke-width:1.5;" x1="41.25" x2="482.25" y1="273.9961" y2="273.9961"/><text fill="#000000" font-family="sans-serif" font-size="19.5" font-weight="bold" lengthAdjust="spacing" textLength="10.5" x="51.75" y="266.7114">3</text><text fill="#000000" font-family="sans-serif" font-size="19.5" lengthAdjust="spacing" textLength="220.5" x="68.25" y="266.7114">Introduces the File's Path</text><polygon fill="#A80036" points="57.75,313.5234,42.75,319.5234,57.75,325.5234,51.75,319.5234" style="stroke:#A80036;stroke-width:1.5;"/><line style="stroke:#A80036;stroke-width:1.5;stroke-dasharray:2.0,2.0;" x1="48.75" x2="497.25" y1="319.5234" y2="319.5234"/><text fill="#000000" font-family="sans-serif" font-size="19.5" font-weight="bold" lengthAdjust="spacing" textLength="10.5" x="66.75" y="312.2388">4</text><text fill="#000000" font-family="sans-serif" font-size="19.5" lengthAdjust="spacing" textLength="193.5" x="83.25" y="312.2388">Requests confirmation</text><polygon fill="#A80036" points="473.25,359.0508,488.25,365.0508,473.25,371.0508,479.25,365.0508" style="stroke:#A80036;stroke-width:1.5;"/><line style="stroke:#A80036;stroke-width:1.5;" x1="41.25" x2="482.25" y1="365.0508" y2="365.0508"/><text fill="#000000" font-family="sans-serif" font-size="19.5" font-weight="bold" lengthAdjust="spacing" textLength="10.5" x="51.75" y="357.7661">5</text><text fill="#000000" font-family="sans-serif" font-size="19.5" lengthAdjust="spacing" textLength="153" x="68.25" y="357.7661">Confirms the data</text><polygon fill="#A80036" points="50.25,404.5781,35.25,410.5781,50.25,416.5781,44.25,410.5781" style="stroke:#A80036;stroke-width:1.5;"/><line style="stroke:#A80036;stroke-width:1.5;stroke-dasharray:2.0,2.0;" x1="41.25" x2="497.25" y1="410.5781" y2="410.5781"/><text fill="#000000" font-family="sans-serif" font-size="19.5" font-weight="bold" lengthAdjust="spacing" textLength="10.5" x="59.25" y="403.2935">6</text><text fill="#000000" font-family="sans-serif" font-size="19.5" lengthAdjust="spacing" textLength="256.5" x="75.75" y="403.2935">Informs the operation sucess.</text><!--MD5=[15ccdcd58dba0b2741ca4dfacf5fad97]
@startuml
autonumber
actor "User" as User

activate User
User -> ":System" : Initiates the process of Importing Clinical Tests
activate ":System"

":System" - -> User : Asks for the File's Path
deactivate ":System"

User -> ":System" : Introduces the File's Path
activate ":System"

":System" - -> User : Requests confirmation
deactivate ":System"

User -> ":System" : Confirms the data
activate ":System"
":System" - -> User : Informs the operation sucess.
deactivate ":System"

deactivate User

@enduml

PlantUML version 1.2021.5(Sun Apr 25 12:20:28 BST 2021)
(GPL source distribution)
Java Runtime: OpenJDK Runtime Environment
JVM: Dynamic Code Evolution 64-Bit Server VM
Default Encoding: Cp1252
Language: pt
Country: PT
--></g></svg>