<?xml version="1.0" encoding="UTF-8" standalone="no"?><svg xmlns="http://www.w3.org/2000/svg" xmlns:xlink="http://www.w3.org/1999/xlink" contentScriptType="application/ecmascript" contentStyleType="text/css" height="1092px" preserveAspectRatio="none" style="width:1878px;height:1092px;" version="1.1" viewBox="0 0 1878 1092" width="1878.4px" zoomAndPan="magnify"><defs><filter height="300%" id="f16c65x3htzhgq" width="300%" x="-1" y="-1"><feGaussianBlur result="blurOut" stdDeviation="1.6"/><feColorMatrix in="blurOut" result="blurOut2" type="matrix" values="0 0 0 0 0 0 0 0 0 0 0 0 0 0 0 0 0 0 .4 0"/><feOffset dx="3.2" dy="3.2" in="blurOut2" result="blurOut3"/><feBlend in="SourceGraphic" in2="blurOut3" mode="normal"/></filter></defs><g><!--MD5=[a0bb257923b4feabbc8c8a837db65c88]
cluster adapter--><polygon fill="#FFFFFF" filter="url(#f16c65x3htzhgq)" points="1006.4,640.4,1054.4,640.4,1060,659.2875,1788.8,659.2875,1788.8,919.2,1006.4,919.2,1006.4,640.4" style="stroke:#000000;stroke-width:1.2000000000000002;"/><line style="stroke:#000000;stroke-width:1.2000000000000002;" x1="1006.4" x2="1060" y1="659.2875" y2="659.2875"/><text fill="#000000" font-family="sans-serif" font-size="11.2" font-weight="bold" lengthAdjust="spacing" textLength="43.2" x="1009.6" y="653.6266">adapter</text><!--MD5=[a59c1d05a8f6fb54290705d41e67acbe]
cluster interface--><polygon fill="#FFFFFF" filter="url(#f16c65x3htzhgq)" points="1170.4,808.8,1225.6,808.8,1231.2,827.6875,1364,827.6875,1364,900,1170.4,900,1170.4,808.8" style="stroke:#000000;stroke-width:1.2000000000000002;"/><line style="stroke:#000000;stroke-width:1.2000000000000002;" x1="1170.4" x2="1231.2" y1="827.6875" y2="827.6875"/><text fill="#000000" font-family="sans-serif" font-size="11.2" font-weight="bold" lengthAdjust="spacing" textLength="50.4" x="1173.6" y="822.0266">interface</text><!--MD5=[e484dff12bc7e3f9ae9e3c87a060152b]
cluster mappers--><polygon fill="#FFFFFF" filter="url(#f16c65x3htzhgq)" points="1279.2,240,1332.8,240,1338.4,258.8875,1455.2,258.8875,1455.2,455.2,1279.2,455.2,1279.2,240" style="stroke:#000000;stroke-width:1.2000000000000002;"/><line style="stroke:#000000;stroke-width:1.2000000000000002;" x1="1279.2" x2="1338.4" y1="258.8875" y2="258.8875"/><text fill="#000000" font-family="sans-serif" font-size="11.2" font-weight="bold" lengthAdjust="spacing" textLength="48.8" x="1282.4" y="253.2266">mappers</text><!--MD5=[e6eced616a98d47334dd1aaaa829ffd5]
cluster dto--><polygon fill="#FFFFFF" filter="url(#f16c65x3htzhgq)" points="1298.4,356,1321.6,356,1327.2,374.8875,1436,374.8875,1436,436,1298.4,436,1298.4,356" style="stroke:#000000;stroke-width:1.2000000000000002;"/><line style="stroke:#000000;stroke-width:1.2000000000000002;" x1="1298.4" x2="1327.2" y1="374.8875" y2="374.8875"/><text fill="#000000" font-family="sans-serif" font-size="11.2" font-weight="bold" lengthAdjust="spacing" textLength="18.4" x="1301.6" y="369.2266">dto</text><!--MD5=[27f772719433d509ddbc20ff768eba08]
cluster domain--><polygon fill="#FFFFFF" filter="url(#f16c65x3htzhgq)" points="12.8,531.2,58.4,531.2,64,550.0875,987.2,550.0875,987.2,1086.4,12.8,1086.4,12.8,531.2" style="stroke:#000000;stroke-width:1.2000000000000002;"/><line style="stroke:#000000;stroke-width:1.2000000000000002;" x1="12.8" x2="64" y1="550.0875" y2="550.0875"/><text fill="#000000" font-family="sans-serif" font-size="11.2" font-weight="bold" lengthAdjust="spacing" textLength="40.8" x="16" y="544.4266">domain</text><!--MD5=[5d4cd377749310b66bf14896f5cd8d9b]
cluster model--><polygon fill="#FFFFFF" filter="url(#f16c65x3htzhgq)" points="32,566.4,71.2,566.4,76.8,585.2875,830.4,585.2875,830.4,1067.2,32,1067.2,32,566.4" style="stroke:#000000;stroke-width:1.2000000000000002;"/><line style="stroke:#000000;stroke-width:1.2000000000000002;" x1="32" x2="76.8" y1="585.2875" y2="585.2875"/><text fill="#000000" font-family="sans-serif" font-size="11.2" font-weight="bold" lengthAdjust="spacing" textLength="34.4" x="35.2" y="579.6266">model</text><!--MD5=[9cb952c600f30fcf95dcf5211f69cce1]
cluster testRelated--><polygon fill="#FFFFFF" filter="url(#f16c65x3htzhgq)" points="51.2,601.6,120.8,601.6,126.4,620.4875,715.2,620.4875,715.2,1048,51.2,1048,51.2,601.6" style="stroke:#000000;stroke-width:1.2000000000000002;"/><line style="stroke:#000000;stroke-width:1.2000000000000002;" x1="51.2" x2="126.4" y1="620.4875" y2="620.4875"/><text fill="#000000" font-family="sans-serif" font-size="11.2" font-weight="bold" lengthAdjust="spacing" textLength="64.8" x="54.4" y="614.8266">testRelated</text><!--MD5=[c23849cc5f4a85746a20de4317c530fc]
cluster store--><polygon fill="#FFFFFF" filter="url(#f16c65x3htzhgq)" points="849.6,945.6,884,945.6,889.6,964.4875,968,964.4875,968,1036.8,849.6,1036.8,849.6,945.6" style="stroke:#000000;stroke-width:1.2000000000000002;"/><line style="stroke:#000000;stroke-width:1.2000000000000002;" x1="849.6" x2="889.6" y1="964.4875" y2="964.4875"/><text fill="#000000" font-family="sans-serif" font-size="11.2" font-weight="bold" lengthAdjust="spacing" textLength="29.6" x="852.8" y="958.8266">store</text><!--MD5=[10ea673caf457862023e152271927b45]
cluster controller--><polygon fill="#FFFFFF" filter="url(#f16c65x3htzhgq)" points="1249.6,111.2,1309.6,111.2,1315.2,130.0875,1465.6,130.0875,1465.6,213.6,1249.6,213.6,1249.6,111.2" style="stroke:#000000;stroke-width:1.2000000000000002;"/><line style="stroke:#000000;stroke-width:1.2000000000000002;" x1="1249.6" x2="1315.2" y1="130.0875" y2="130.0875"/><text fill="#000000" font-family="sans-serif" font-size="11.2" font-weight="bold" lengthAdjust="spacing" textLength="55.2" x="1252.8" y="124.4266">controller</text><!--MD5=[64e2e010ba86d7988e5cd73bd64f61f9]
cluster ui--><polygon fill="#FFFFFF" filter="url(#f16c65x3htzhgq)" points="1736,4.8,1751.2,4.8,1756.8,23.6875,1864,23.6875,1864,84.8,1736,84.8,1736,4.8" style="stroke:#000000;stroke-width:1.2000000000000002;"/><line style="stroke:#000000;stroke-width:1.2000000000000002;" x1="1736" x2="1756.8" y1="23.6875" y2="23.6875"/><text fill="#000000" font-family="sans-serif" font-size="11.2" font-weight="bold" lengthAdjust="spacing" textLength="10.4" x="1739.2" y="18.0266">ui</text><!--MD5=[9e79a15defc04663f36ad34442e5fa10]
class CovidReferenceValues1APIAdapter--><rect codeLine="121" fill="#FEFECE" filter="url(#f16c65x3htzhgq)" height="49.4688" id="CovidReferenceValues1APIAdapter" style="stroke:#A80036;stroke-width:1.2000000000000002;" width="233.6" x="1542.4" y="669.2"/><ellipse cx="1578.6" cy="682" fill="#ADD1B2" rx="8.8" ry="8.8" style="stroke:#A80036;stroke-width:0.8;"/><path d="M1580.2,679.2 Q1580.3625,678.8 1580.55,678.6 Q1580.7375,678.4 1580.95,678.4 Q1581.325,678.4 1581.5625,678.625 Q1581.8,678.85 1581.8,679.375 L1581.8,680.625 Q1581.8,681.15 1581.575,681.375 Q1581.35,681.6 1581,681.6 Q1580.6875,681.6 1580.4875,681.4625 Q1580.2875,681.325 1580.2,680.9625 Q1580.1625,680.7125 1580.025,680.575 Q1579.775,680.3125 1579.325,680.1625 Q1578.875,680 1578.425,680 Q1577.8625,680 1577.3875,680.225 Q1576.925,680.45 1576.5625,680.95 Q1576.2,681.45 1576.2,682.1375 L1576.2,682.875 Q1576.2,683.7 1576.875,684.25 Q1577.55,684.8 1578.75,684.8 Q1579.4625,684.8 1579.9625,684.6375 Q1580.25,684.55 1580.575,684.2625 Q1580.7875,684.1 1580.9,684.05 Q1581.0125,684 1581.15,684 Q1581.4125,684 1581.6,684.2125 Q1581.8,684.4125 1581.8,684.7 Q1581.8,684.975 1581.525,685.3 Q1581.125,685.775 1580.4875,686.0375 Q1579.65,686.4 1578.625,686.4 Q1577.425,686.4 1576.4625,685.925 Q1575.6875,685.55 1575.1375,684.7375 Q1574.6,683.925 1574.6,682.9625 L1574.6,682.0875 Q1574.6,681.0875 1575.075,680.2125 Q1575.5625,679.3375 1576.4,678.875 Q1577.25,678.4 1578.2,678.4 Q1578.775,678.4 1579.275,678.6 Q1579.775,678.8 1580.2,679.2 Z " fill="#000000"/><text fill="#000000" font-family="sans-serif" font-size="9.6" lengthAdjust="spacing" textLength="154.4" x="1595" y="685.9281">CovidReferenceValues1APIAdapter</text><line style="stroke:#A80036;stroke-width:1.2000000000000002;" x1="1543.2" x2="1775.2" y1="694.8" y2="694.8"/><line style="stroke:#A80036;stroke-width:1.2000000000000002;" x1="1543.2" x2="1775.2" y1="701.2" y2="701.2"/><ellipse cx="1551.2" cy="710" fill="#84BE84" rx="2.4" ry="2.4" style="stroke:#038048;stroke-width:0.8;"/><text fill="#000000" font-family="sans-serif" font-size="8.8" lengthAdjust="spacing" textLength="212.8" x="1558.4" y="713.5352">ReferenceValue getReferenceValue(Parameter param)</text><!--MD5=[bf202dd950ceaf4f26879676f3c29ba5]
class ExternalModule2APIAdapter--><rect codeLine="113" fill="#FEFECE" filter="url(#f16c65x3htzhgq)" height="49.4688" id="ExternalModule2APIAdapter" style="stroke:#A80036;stroke-width:1.2000000000000002;" width="233.6" x="1280.8" y="669.2"/><ellipse cx="1333.8" cy="682" fill="#ADD1B2" rx="8.8" ry="8.8" style="stroke:#A80036;stroke-width:0.8;"/><path d="M1335.4,679.2 Q1335.5625,678.8 1335.75,678.6 Q1335.9375,678.4 1336.15,678.4 Q1336.525,678.4 1336.7625,678.625 Q1337,678.85 1337,679.375 L1337,680.625 Q1337,681.15 1336.775,681.375 Q1336.55,681.6 1336.2,681.6 Q1335.8875,681.6 1335.6875,681.4625 Q1335.4875,681.325 1335.4,680.9625 Q1335.3625,680.7125 1335.225,680.575 Q1334.975,680.3125 1334.525,680.1625 Q1334.075,680 1333.625,680 Q1333.0625,680 1332.5875,680.225 Q1332.125,680.45 1331.7625,680.95 Q1331.4,681.45 1331.4,682.1375 L1331.4,682.875 Q1331.4,683.7 1332.075,684.25 Q1332.75,684.8 1333.95,684.8 Q1334.6625,684.8 1335.1625,684.6375 Q1335.45,684.55 1335.775,684.2625 Q1335.9875,684.1 1336.1,684.05 Q1336.2125,684 1336.35,684 Q1336.6125,684 1336.8,684.2125 Q1337,684.4125 1337,684.7 Q1337,684.975 1336.725,685.3 Q1336.325,685.775 1335.6875,686.0375 Q1334.85,686.4 1333.825,686.4 Q1332.625,686.4 1331.6625,685.925 Q1330.8875,685.55 1330.3375,684.7375 Q1329.8,683.925 1329.8,682.9625 L1329.8,682.0875 Q1329.8,681.0875 1330.275,680.2125 Q1330.7625,679.3375 1331.6,678.875 Q1332.45,678.4 1333.4,678.4 Q1333.975,678.4 1334.475,678.6 Q1334.975,678.8 1335.4,679.2 Z " fill="#000000"/><text fill="#000000" font-family="sans-serif" font-size="9.6" lengthAdjust="spacing" textLength="120.8" x="1350.2" y="685.9281">ExternalModule2APIAdapter</text><line style="stroke:#A80036;stroke-width:1.2000000000000002;" x1="1281.6" x2="1513.6" y1="694.8" y2="694.8"/><line style="stroke:#A80036;stroke-width:1.2000000000000002;" x1="1281.6" x2="1513.6" y1="701.2" y2="701.2"/><ellipse cx="1289.6" cy="710" fill="#84BE84" rx="2.4" ry="2.4" style="stroke:#038048;stroke-width:0.8;"/><text fill="#000000" font-family="sans-serif" font-size="8.8" lengthAdjust="spacing" textLength="212.8" x="1296.8" y="713.5352">ReferenceValue getReferenceValue(Parameter param)</text><!--MD5=[35c27d149b939a19a05414d761c02afa]
class ExternalModule3APIAdapter--><rect codeLine="117" fill="#FEFECE" filter="url(#f16c65x3htzhgq)" height="49.4688" id="ExternalModule3APIAdapter" style="stroke:#A80036;stroke-width:1.2000000000000002;" width="233.6" x="1019.2" y="669.2"/><ellipse cx="1072.2" cy="682" fill="#ADD1B2" rx="8.8" ry="8.8" style="stroke:#A80036;stroke-width:0.8;"/><path d="M1073.8,679.2 Q1073.9625,678.8 1074.15,678.6 Q1074.3375,678.4 1074.55,678.4 Q1074.925,678.4 1075.1625,678.625 Q1075.4,678.85 1075.4,679.375 L1075.4,680.625 Q1075.4,681.15 1075.175,681.375 Q1074.95,681.6 1074.6,681.6 Q1074.2875,681.6 1074.0875,681.4625 Q1073.8875,681.325 1073.8,680.9625 Q1073.7625,680.7125 1073.625,680.575 Q1073.375,680.3125 1072.925,680.1625 Q1072.475,680 1072.025,680 Q1071.4625,680 1070.9875,680.225 Q1070.525,680.45 1070.1625,680.95 Q1069.8,681.45 1069.8,682.1375 L1069.8,682.875 Q1069.8,683.7 1070.475,684.25 Q1071.15,684.8 1072.35,684.8 Q1073.0625,684.8 1073.5625,684.6375 Q1073.85,684.55 1074.175,684.2625 Q1074.3875,684.1 1074.5,684.05 Q1074.6125,684 1074.75,684 Q1075.0125,684 1075.2,684.2125 Q1075.4,684.4125 1075.4,684.7 Q1075.4,684.975 1075.125,685.3 Q1074.725,685.775 1074.0875,686.0375 Q1073.25,686.4 1072.225,686.4 Q1071.025,686.4 1070.0625,685.925 Q1069.2875,685.55 1068.7375,684.7375 Q1068.2,683.925 1068.2,682.9625 L1068.2,682.0875 Q1068.2,681.0875 1068.675,680.2125 Q1069.1625,679.3375 1070,678.875 Q1070.85,678.4 1071.8,678.4 Q1072.375,678.4 1072.875,678.6 Q1073.375,678.8 1073.8,679.2 Z " fill="#000000"/><text fill="#000000" font-family="sans-serif" font-size="9.6" lengthAdjust="spacing" textLength="120.8" x="1088.6" y="685.9281">ExternalModule3APIAdapter</text><line style="stroke:#A80036;stroke-width:1.2000000000000002;" x1="1020" x2="1252" y1="694.8" y2="694.8"/><line style="stroke:#A80036;stroke-width:1.2000000000000002;" x1="1020" x2="1252" y1="701.2" y2="701.2"/><ellipse cx="1028" cy="710" fill="#84BE84" rx="2.4" ry="2.4" style="stroke:#038048;stroke-width:0.8;"/><text fill="#000000" font-family="sans-serif" font-size="8.8" lengthAdjust="spacing" textLength="212.8" x="1035.2" y="713.5352">ReferenceValue getReferenceValue(Parameter param)</text><!--MD5=[8f188b89eff49accb0f38c057b38a9f2]
class ExternalModule--><rect codeLine="126" fill="#FEFECE" filter="url(#f16c65x3htzhgq)" height="49.4688" id="ExternalModule" style="stroke:#A80036;stroke-width:1.2000000000000002;" width="168" x="1183.2" y="837.6"/><ellipse cx="1229.8" cy="850.4" fill="#B4A7E5" rx="8.8" ry="8.8" style="stroke:#A80036;stroke-width:0.8;"/><path d="M1230.6,848 L1230.6,852.8 L1232.2,852.8 L1232.5875,852.8 L1233,853.3 L1233,853.6 L1233,853.9 L1232.5875,854.4 L1232.2,854.4 L1227.4,854.4 L1227.0125,854.4 L1226.6,853.9 L1226.6,853.6 L1226.6,853.3 L1227.0125,852.8 L1227.4,852.8 L1229,852.8 L1229,848 L1227.4,848 L1227.0125,848 L1226.6,847.5 L1226.6,847.2 L1226.6,846.9 L1227.0125,846.4 L1227.4,846.4 L1232.2,846.4 L1232.5875,846.4 L1233,846.9 L1233,847.2 L1233,847.5 L1232.5875,848 L1232.2,848 L1230.6,848 Z " fill="#000000"/><text fill="#000000" font-family="sans-serif" font-size="9.6" font-style="italic" lengthAdjust="spacing" textLength="68" x="1246.2" y="854.3281">ExternalModule</text><line style="stroke:#A80036;stroke-width:1.2000000000000002;" x1="1184" x2="1350.4" y1="863.2" y2="863.2"/><line style="stroke:#A80036;stroke-width:1.2000000000000002;" x1="1184" x2="1350.4" y1="869.6" y2="869.6"/><ellipse cx="1192" cy="878.4" fill="#84BE84" rx="2.4" ry="2.4" style="stroke:#038048;stroke-width:0.8;"/><text fill="#000000" font-family="sans-serif" font-size="8.8" lengthAdjust="spacing" textLength="147.2" x="1199.2" y="881.9352">getReferenceValue(Parameter param)</text><!--MD5=[a82d32c079496d6dca2681dc0633feb0]
class TestParameterMapper--><rect codeLine="60" fill="#FEFECE" filter="url(#f16c65x3htzhgq)" height="49.4688" id="TestParameterMapper" style="stroke:#A80036;stroke-width:1.2000000000000002;" width="124" x="1295.6" y="268.8"/><ellipse cx="1307.6" cy="281.6" fill="#ADD1B2" rx="8.8" ry="8.8" style="stroke:#A80036;stroke-width:0.8;"/><path d="M1309.2,278.8 Q1309.3625,278.4 1309.55,278.2 Q1309.7375,278 1309.95,278 Q1310.325,278 1310.5625,278.225 Q1310.8,278.45 1310.8,278.975 L1310.8,280.225 Q1310.8,280.75 1310.575,280.975 Q1310.35,281.2 1310,281.2 Q1309.6875,281.2 1309.4875,281.0625 Q1309.2875,280.925 1309.2,280.5625 Q1309.1625,280.3125 1309.025,280.175 Q1308.775,279.9125 1308.325,279.7625 Q1307.875,279.6 1307.425,279.6 Q1306.8625,279.6 1306.3875,279.825 Q1305.925,280.05 1305.5625,280.55 Q1305.2,281.05 1305.2,281.7375 L1305.2,282.475 Q1305.2,283.3 1305.875,283.85 Q1306.55,284.4 1307.75,284.4 Q1308.4625,284.4 1308.9625,284.2375 Q1309.25,284.15 1309.575,283.8625 Q1309.7875,283.7 1309.9,283.65 Q1310.0125,283.6 1310.15,283.6 Q1310.4125,283.6 1310.6,283.8125 Q1310.8,284.0125 1310.8,284.3 Q1310.8,284.575 1310.525,284.9 Q1310.125,285.375 1309.4875,285.6375 Q1308.65,286 1307.625,286 Q1306.425,286 1305.4625,285.525 Q1304.6875,285.15 1304.1375,284.3375 Q1303.6,283.525 1303.6,282.5625 L1303.6,281.6875 Q1303.6,280.6875 1304.075,279.8125 Q1304.5625,278.9375 1305.4,278.475 Q1306.25,278 1307.2,278 Q1307.775,278 1308.275,278.2 Q1308.775,278.4 1309.2,278.8 Z " fill="#000000"/><text fill="#000000" font-family="sans-serif" font-size="9.6" lengthAdjust="spacing" textLength="98.4" x="1318.8" y="285.5281">TestParameterMapper</text><line style="stroke:#A80036;stroke-width:1.2000000000000002;" x1="1296.4" x2="1418.8" y1="294.4" y2="294.4"/><line style="stroke:#A80036;stroke-width:1.2000000000000002;" x1="1296.4" x2="1418.8" y1="300.8" y2="300.8"/><ellipse cx="1304.4" cy="309.6" fill="#84BE84" rx="2.4" ry="2.4" style="stroke:#038048;stroke-width:0.8;"/><text fill="#000000" font-family="sans-serif" font-size="8.8" lengthAdjust="spacing" textLength="102.4" x="1311.6" y="313.1352">ToDTO(TestParameterList)</text><!--MD5=[16358064a951ae5dfdda1035a51b763d]
class TestParameterDTO--><rect codeLine="96" fill="#FEFECE" filter="url(#f16c65x3htzhgq)" height="38.4" id="TestParameterDTO" style="stroke:#A80036;stroke-width:1.2000000000000002;" width="111.2" x="1311.6" y="384.8"/><ellipse cx="1323.6" cy="397.6" fill="#ADD1B2" rx="8.8" ry="8.8" style="stroke:#A80036;stroke-width:0.8;"/><path d="M1325.2,394.8 Q1325.3625,394.4 1325.55,394.2 Q1325.7375,394 1325.95,394 Q1326.325,394 1326.5625,394.225 Q1326.8,394.45 1326.8,394.975 L1326.8,396.225 Q1326.8,396.75 1326.575,396.975 Q1326.35,397.2 1326,397.2 Q1325.6875,397.2 1325.4875,397.0625 Q1325.2875,396.925 1325.2,396.5625 Q1325.1625,396.3125 1325.025,396.175 Q1324.775,395.9125 1324.325,395.7625 Q1323.875,395.6 1323.425,395.6 Q1322.8625,395.6 1322.3875,395.825 Q1321.925,396.05 1321.5625,396.55 Q1321.2,397.05 1321.2,397.7375 L1321.2,398.475 Q1321.2,399.3 1321.875,399.85 Q1322.55,400.4 1323.75,400.4 Q1324.4625,400.4 1324.9625,400.2375 Q1325.25,400.15 1325.575,399.8625 Q1325.7875,399.7 1325.9,399.65 Q1326.0125,399.6 1326.15,399.6 Q1326.4125,399.6 1326.6,399.8125 Q1326.8,400.0125 1326.8,400.3 Q1326.8,400.575 1326.525,400.9 Q1326.125,401.375 1325.4875,401.6375 Q1324.65,402 1323.625,402 Q1322.425,402 1321.4625,401.525 Q1320.6875,401.15 1320.1375,400.3375 Q1319.6,399.525 1319.6,398.5625 L1319.6,397.6875 Q1319.6,396.6875 1320.075,395.8125 Q1320.5625,394.9375 1321.4,394.475 Q1322.25,394 1323.2,394 Q1323.775,394 1324.275,394.2 Q1324.775,394.4 1325.2,394.8 Z " fill="#000000"/><text fill="#000000" font-family="sans-serif" font-size="9.6" lengthAdjust="spacing" textLength="85.6" x="1334.8" y="401.5281">TestParameterDTO</text><line style="stroke:#A80036;stroke-width:1.2000000000000002;" x1="1312.4" x2="1422" y1="410.4" y2="410.4"/><line style="stroke:#A80036;stroke-width:1.2000000000000002;" x1="1312.4" x2="1422" y1="416.8" y2="416.8"/><!--MD5=[02e4b9b7573f1156f41e60aa5b4e25a4]
class Company--><rect codeLine="46" fill="#FEFECE" filter="url(#f16c65x3htzhgq)" height="60.5375" id="Company" style="stroke:#A80036;stroke-width:1.2000000000000002;" width="89.6" x="728" y="663.6"/><ellipse cx="749.72" cy="676.4" fill="#ADD1B2" rx="8.8" ry="8.8" style="stroke:#A80036;stroke-width:0.8;"/><path d="M751.32,673.6 Q751.4825,673.2 751.67,673 Q751.8575,672.8 752.07,672.8 Q752.445,672.8 752.6825,673.025 Q752.92,673.25 752.92,673.775 L752.92,675.025 Q752.92,675.55 752.695,675.775 Q752.47,676 752.12,676 Q751.8075,676 751.6075,675.8625 Q751.4075,675.725 751.32,675.3625 Q751.2825,675.1125 751.145,674.975 Q750.895,674.7125 750.445,674.5625 Q749.995,674.4 749.545,674.4 Q748.9825,674.4 748.5075,674.625 Q748.045,674.85 747.6825,675.35 Q747.32,675.85 747.32,676.5375 L747.32,677.275 Q747.32,678.1 747.995,678.65 Q748.67,679.2 749.87,679.2 Q750.5825,679.2 751.0825,679.0375 Q751.37,678.95 751.695,678.6625 Q751.9075,678.5 752.02,678.45 Q752.1325,678.4 752.27,678.4 Q752.5325,678.4 752.72,678.6125 Q752.92,678.8125 752.92,679.1 Q752.92,679.375 752.645,679.7 Q752.245,680.175 751.6075,680.4375 Q750.77,680.8 749.745,680.8 Q748.545,680.8 747.5825,680.325 Q746.8075,679.95 746.2575,679.1375 Q745.72,678.325 745.72,677.3625 L745.72,676.4875 Q745.72,675.4875 746.195,674.6125 Q746.6825,673.7375 747.52,673.275 Q748.37,672.8 749.32,672.8 Q749.895,672.8 750.395,673 Q750.895,673.2 751.32,673.6 Z " fill="#000000"/><text fill="#000000" font-family="sans-serif" font-size="9.6" lengthAdjust="spacing" textLength="42.4" x="763.08" y="680.3281">Company</text><line style="stroke:#A80036;stroke-width:1.2000000000000002;" x1="728.8" x2="816.8" y1="689.2" y2="689.2"/><rect fill="none" height="4.8" style="stroke:#C82930;stroke-width:0.8;" width="4.8" x="734.4" y="695.6"/><text fill="#000000" font-family="sans-serif" font-size="8.8" lengthAdjust="spacing" textLength="68.8" x="744" y="701.5352">String designation</text><line style="stroke:#A80036;stroke-width:1.2000000000000002;" x1="728.8" x2="816.8" y1="706.6688" y2="706.6688"/><ellipse cx="736.8" cy="715.4688" fill="#84BE84" rx="2.4" ry="2.4" style="stroke:#038048;stroke-width:0.8;"/><text fill="#000000" font-family="sans-serif" font-size="8.8" lengthAdjust="spacing" textLength="56" x="744" y="719.0039">getTestStore()</text><!--MD5=[aeb3272166074d8737a70b61b1e71682]
class TestType--><rect codeLine="103" fill="#FEFECE" filter="url(#f16c65x3htzhgq)" height="104.8125" id="TestType" style="stroke:#A80036;stroke-width:1.2000000000000002;" width="228" x="471.6" y="641.6"/><ellipse cx="562.2" cy="654.4" fill="#ADD1B2" rx="8.8" ry="8.8" style="stroke:#A80036;stroke-width:0.8;"/><path d="M563.8,651.6 Q563.9625,651.2 564.15,651 Q564.3375,650.8 564.55,650.8 Q564.925,650.8 565.1625,651.025 Q565.4,651.25 565.4,651.775 L565.4,653.025 Q565.4,653.55 565.175,653.775 Q564.95,654 564.6,654 Q564.2875,654 564.0875,653.8625 Q563.8875,653.725 563.8,653.3625 Q563.7625,653.1125 563.625,652.975 Q563.375,652.7125 562.925,652.5625 Q562.475,652.4 562.025,652.4 Q561.4625,652.4 560.9875,652.625 Q560.525,652.85 560.1625,653.35 Q559.8,653.85 559.8,654.5375 L559.8,655.275 Q559.8,656.1 560.475,656.65 Q561.15,657.2 562.35,657.2 Q563.0625,657.2 563.5625,657.0375 Q563.85,656.95 564.175,656.6625 Q564.3875,656.5 564.5,656.45 Q564.6125,656.4 564.75,656.4 Q565.0125,656.4 565.2,656.6125 Q565.4,656.8125 565.4,657.1 Q565.4,657.375 565.125,657.7 Q564.725,658.175 564.0875,658.4375 Q563.25,658.8 562.225,658.8 Q561.025,658.8 560.0625,658.325 Q559.2875,657.95 558.7375,657.1375 Q558.2,656.325 558.2,655.3625 L558.2,654.4875 Q558.2,653.4875 558.675,652.6125 Q559.1625,651.7375 560,651.275 Q560.85,650.8 561.8,650.8 Q562.375,650.8 562.875,651 Q563.375,651.2 563.8,651.6 Z " fill="#000000"/><text fill="#000000" font-family="sans-serif" font-size="9.6" lengthAdjust="spacing" textLength="40" x="578.6" y="658.3281">TestType</text><line style="stroke:#A80036;stroke-width:1.2000000000000002;" x1="472.4" x2="698.8" y1="667.2" y2="667.2"/><rect fill="none" height="4.8" style="stroke:#C82930;stroke-width:0.8;" width="4.8" x="478" y="673.6"/><text fill="#000000" font-family="sans-serif" font-size="8.8" lengthAdjust="spacing" textLength="44" x="487.6" y="679.5352">String code</text><rect fill="none" height="4.8" style="stroke:#C82930;stroke-width:0.8;" width="4.8" x="478" y="684.6688"/><text fill="#000000" font-family="sans-serif" font-size="8.8" lengthAdjust="spacing" textLength="67.2" x="487.6" y="690.6039">String description</text><rect fill="none" height="4.8" style="stroke:#C82930;stroke-width:0.8;" width="4.8" x="478" y="695.7375"/><text fill="#000000" font-family="sans-serif" font-size="8.8" lengthAdjust="spacing" textLength="88.8" x="487.6" y="701.6727">String collectingMethod</text><rect fill="none" height="4.8" style="stroke:#C82930;stroke-width:0.8;" width="4.8" x="478" y="706.8063"/><text fill="#000000" font-family="sans-serif" font-size="8.8" lengthAdjust="spacing" textLength="207.2" x="487.6" y="712.7414">List&lt;ParameterCategories&gt; listOfParameterCategories</text><rect fill="none" height="4.8" style="stroke:#C82930;stroke-width:0.8;" width="4.8" x="478" y="717.875"/><text fill="#000000" font-family="sans-serif" font-size="8.8" lengthAdjust="spacing" textLength="94.4" x="487.6" y="723.8102">String referenceAdapter</text><line style="stroke:#A80036;stroke-width:1.2000000000000002;" x1="472.4" x2="698.8" y1="728.9438" y2="728.9438"/><ellipse cx="480.4" cy="737.7438" fill="#84BE84" rx="2.4" ry="2.4" style="stroke:#038048;stroke-width:0.8;"/><text fill="#000000" font-family="sans-serif" font-size="8.8" lengthAdjust="spacing" textLength="76.8" x="487.6" y="741.2789">getExternalModule()</text><!--MD5=[0f07739f46effee96e095e9c408da841]
class TestParameter--><rect codeLine="79" fill="#FEFECE" filter="url(#f16c65x3htzhgq)" height="49.4688" id="TestParameter" style="stroke:#A80036;stroke-width:1.2000000000000002;" width="150.4" x="203.2" y="974.4"/><ellipse cx="242.2" cy="987.2" fill="#ADD1B2" rx="8.8" ry="8.8" style="stroke:#A80036;stroke-width:0.8;"/><path d="M243.8,984.4 Q243.9625,984 244.15,983.8 Q244.3375,983.6 244.55,983.6 Q244.925,983.6 245.1625,983.825 Q245.4,984.05 245.4,984.575 L245.4,985.825 Q245.4,986.35 245.175,986.575 Q244.95,986.8 244.6,986.8 Q244.2875,986.8 244.0875,986.6625 Q243.8875,986.525 243.8,986.1625 Q243.7625,985.9125 243.625,985.775 Q243.375,985.5125 242.925,985.3625 Q242.475,985.2 242.025,985.2 Q241.4625,985.2 240.9875,985.425 Q240.525,985.65 240.1625,986.15 Q239.8,986.65 239.8,987.3375 L239.8,988.075 Q239.8,988.9 240.475,989.45 Q241.15,990 242.35,990 Q243.0625,990 243.5625,989.8375 Q243.85,989.75 244.175,989.4625 Q244.3875,989.3 244.5,989.25 Q244.6125,989.2 244.75,989.2 Q245.0125,989.2 245.2,989.4125 Q245.4,989.6125 245.4,989.9 Q245.4,990.175 245.125,990.5 Q244.725,990.975 244.0875,991.2375 Q243.25,991.6 242.225,991.6 Q241.025,991.6 240.0625,991.125 Q239.2875,990.75 238.7375,989.9375 Q238.2,989.125 238.2,988.1625 L238.2,987.2875 Q238.2,986.2875 238.675,985.4125 Q239.1625,984.5375 240,984.075 Q240.85,983.6 241.8,983.6 Q242.375,983.6 242.875,983.8 Q243.375,984 243.8,984.4 Z " fill="#000000"/><text fill="#000000" font-family="sans-serif" font-size="9.6" lengthAdjust="spacing" textLength="65.6" x="258.6" y="991.1281">TestParameter</text><line style="stroke:#A80036;stroke-width:1.2000000000000002;" x1="204" x2="352.8" y1="1000" y2="1000"/><line style="stroke:#A80036;stroke-width:1.2000000000000002;" x1="204" x2="352.8" y1="1006.4" y2="1006.4"/><ellipse cx="212" cy="1015.2" fill="#84BE84" rx="2.4" ry="2.4" style="stroke:#038048;stroke-width:0.8;"/><text fill="#000000" font-family="sans-serif" font-size="8.8" lengthAdjust="spacing" textLength="129.6" x="219.2" y="1018.7352">AddResult(refValue,result,metric)</text><!--MD5=[4e608140b854dae633589343bce77383]
class TestParameterResult--><rect codeLine="84" fill="#FEFECE" filter="url(#f16c65x3htzhgq)" height="71.6063" id="TestParameterResult" style="stroke:#A80036;stroke-width:1.2000000000000002;" width="120" x="422.4" y="963.2"/><ellipse cx="434.4" cy="976" fill="#ADD1B2" rx="8.8" ry="8.8" style="stroke:#A80036;stroke-width:0.8;"/><path d="M436,973.2 Q436.1625,972.8 436.35,972.6 Q436.5375,972.4 436.75,972.4 Q437.125,972.4 437.3625,972.625 Q437.6,972.85 437.6,973.375 L437.6,974.625 Q437.6,975.15 437.375,975.375 Q437.15,975.6 436.8,975.6 Q436.4875,975.6 436.2875,975.4625 Q436.0875,975.325 436,974.9625 Q435.9625,974.7125 435.825,974.575 Q435.575,974.3125 435.125,974.1625 Q434.675,974 434.225,974 Q433.6625,974 433.1875,974.225 Q432.725,974.45 432.3625,974.95 Q432,975.45 432,976.1375 L432,976.875 Q432,977.7 432.675,978.25 Q433.35,978.8 434.55,978.8 Q435.2625,978.8 435.7625,978.6375 Q436.05,978.55 436.375,978.2625 Q436.5875,978.1 436.7,978.05 Q436.8125,978 436.95,978 Q437.2125,978 437.4,978.2125 Q437.6,978.4125 437.6,978.7 Q437.6,978.975 437.325,979.3 Q436.925,979.775 436.2875,980.0375 Q435.45,980.4 434.425,980.4 Q433.225,980.4 432.2625,979.925 Q431.4875,979.55 430.9375,978.7375 Q430.4,977.925 430.4,976.9625 L430.4,976.0875 Q430.4,975.0875 430.875,974.2125 Q431.3625,973.3375 432.2,972.875 Q433.05,972.4 434,972.4 Q434.575,972.4 435.075,972.6 Q435.575,972.8 436,973.2 Z " fill="#000000"/><text fill="#000000" font-family="sans-serif" font-size="9.6" lengthAdjust="spacing" textLength="94.4" x="445.6" y="979.9281">TestParameterResult</text><line style="stroke:#A80036;stroke-width:1.2000000000000002;" x1="423.2" x2="541.6" y1="988.8" y2="988.8"/><rect fill="none" height="4.8" style="stroke:#C82930;stroke-width:0.8;" width="4.8" x="428.8" y="995.2"/><text fill="#000000" font-family="sans-serif" font-size="8.8" lengthAdjust="spacing" textLength="38.4" x="438.4" y="1001.1352">createdAt</text><rect fill="none" height="4.8" style="stroke:#C82930;stroke-width:0.8;" width="4.8" x="428.8" y="1006.2688"/><text fill="#000000" font-family="sans-serif" font-size="8.8" lengthAdjust="spacing" textLength="20.8" x="438.4" y="1012.2039">value</text><rect fill="none" height="4.8" style="stroke:#C82930;stroke-width:0.8;" width="4.8" x="428.8" y="1017.3375"/><text fill="#000000" font-family="sans-serif" font-size="8.8" lengthAdjust="spacing" textLength="23.2" x="438.4" y="1023.2727">metric</text><line style="stroke:#A80036;stroke-width:1.2000000000000002;" x1="423.2" x2="541.6" y1="1028.4063" y2="1028.4063"/><!--MD5=[df38be88ccee13e832d6fafd6288a4ca]
class Test--><rect codeLine="64" fill="#FEFECE" filter="url(#f16c65x3htzhgq)" height="126.95" id="Test" style="stroke:#A80036;stroke-width:1.2000000000000002;" width="150.4" x="272.8" y="630.4"/><ellipse cx="335" cy="643.2" fill="#ADD1B2" rx="8.8" ry="8.8" style="stroke:#A80036;stroke-width:0.8;"/><path d="M336.6,640.4 Q336.7625,640 336.95,639.8 Q337.1375,639.6 337.35,639.6 Q337.725,639.6 337.9625,639.825 Q338.2,640.05 338.2,640.575 L338.2,641.825 Q338.2,642.35 337.975,642.575 Q337.75,642.8 337.4,642.8 Q337.0875,642.8 336.8875,642.6625 Q336.6875,642.525 336.6,642.1625 Q336.5625,641.9125 336.425,641.775 Q336.175,641.5125 335.725,641.3625 Q335.275,641.2 334.825,641.2 Q334.2625,641.2 333.7875,641.425 Q333.325,641.65 332.9625,642.15 Q332.6,642.65 332.6,643.3375 L332.6,644.075 Q332.6,644.9 333.275,645.45 Q333.95,646 335.15,646 Q335.8625,646 336.3625,645.8375 Q336.65,645.75 336.975,645.4625 Q337.1875,645.3 337.3,645.25 Q337.4125,645.2 337.55,645.2 Q337.8125,645.2 338,645.4125 Q338.2,645.6125 338.2,645.9 Q338.2,646.175 337.925,646.5 Q337.525,646.975 336.8875,647.2375 Q336.05,647.6 335.025,647.6 Q333.825,647.6 332.8625,647.125 Q332.0875,646.75 331.5375,645.9375 Q331,645.125 331,644.1625 L331,643.2875 Q331,642.2875 331.475,641.4125 Q331.9625,640.5375 332.8,640.075 Q333.65,639.6 334.6,639.6 Q335.175,639.6 335.675,639.8 Q336.175,640 336.6,640.4 Z " fill="#000000"/><text fill="#000000" font-family="sans-serif" font-size="9.6" lengthAdjust="spacing" textLength="19.2" x="351.4" y="647.1281">Test</text><line style="stroke:#A80036;stroke-width:1.2000000000000002;" x1="273.6" x2="422.4" y1="656" y2="656"/><rect fill="none" height="4.8" style="stroke:#C82930;stroke-width:0.8;" width="4.8" x="279.2" y="662.4"/><text fill="#000000" font-family="sans-serif" font-size="8.8" lengthAdjust="spacing" textLength="20" x="288.8" y="668.3352">client</text><rect fill="none" height="4.8" style="stroke:#C82930;stroke-width:0.8;" width="4.8" x="279.2" y="673.4688"/><text fill="#000000" font-family="sans-serif" font-size="8.8" lengthAdjust="spacing" textLength="33.6" x="288.8" y="679.4039">nhscode</text><rect fill="none" height="4.8" style="stroke:#C82930;stroke-width:0.8;" width="4.8" x="279.2" y="684.5375"/><text fill="#000000" font-family="sans-serif" font-size="8.8" lengthAdjust="spacing" textLength="67.2" x="288.8" y="690.4727">testParameterList</text><rect fill="none" height="4.8" style="stroke:#C82930;stroke-width:0.8;" width="4.8" x="279.2" y="695.6063"/><text fill="#000000" font-family="sans-serif" font-size="8.8" lengthAdjust="spacing" textLength="45.6" x="288.8" y="701.5414">stateOfTest</text><rect fill="none" height="4.8" style="stroke:#C82930;stroke-width:0.8;" width="4.8" x="279.2" y="706.675"/><text fill="#000000" font-family="sans-serif" font-size="8.8" lengthAdjust="spacing" textLength="48" x="288.8" y="712.6102">internalCode</text><rect fill="none" height="4.8" style="stroke:#C82930;stroke-width:0.8;" width="4.8" x="279.2" y="717.7438"/><text fill="#000000" font-family="sans-serif" font-size="8.8" lengthAdjust="spacing" textLength="38.4" x="288.8" y="723.6789">createdAt</text><line style="stroke:#A80036;stroke-width:1.2000000000000002;" x1="273.6" x2="422.4" y1="728.8125" y2="728.8125"/><ellipse cx="281.6" cy="737.6125" fill="#84BE84" rx="2.4" ry="2.4" style="stroke:#038048;stroke-width:0.8;"/><text fill="#000000" font-family="sans-serif" font-size="8.8" lengthAdjust="spacing" textLength="129.6" x="288.8" y="741.1477">AddResult(refValue,result,metric)</text><ellipse cx="281.6" cy="748.6813" fill="#84BE84" rx="2.4" ry="2.4" style="stroke:#038048;stroke-width:0.8;"/><text fill="#000000" font-family="sans-serif" font-size="8.8" lengthAdjust="spacing" textLength="71.2" x="288.8" y="752.2164">getParameterList()</text><!--MD5=[1f6362a5c8f21d8d6a0fce68f3a92a4e]
class Parameter--><rect codeLine="90" fill="#FEFECE" filter="url(#f16c65x3htzhgq)" height="71.6063" id="Parameter" style="stroke:#A80036;stroke-width:1.2000000000000002;" width="72" x="64" y="963.2"/><ellipse cx="76" cy="976" fill="#ADD1B2" rx="8.8" ry="8.8" style="stroke:#A80036;stroke-width:0.8;"/><path d="M77.6,973.2 Q77.7625,972.8 77.95,972.6 Q78.1375,972.4 78.35,972.4 Q78.725,972.4 78.9625,972.625 Q79.2,972.85 79.2,973.375 L79.2,974.625 Q79.2,975.15 78.975,975.375 Q78.75,975.6 78.4,975.6 Q78.0875,975.6 77.8875,975.4625 Q77.6875,975.325 77.6,974.9625 Q77.5625,974.7125 77.425,974.575 Q77.175,974.3125 76.725,974.1625 Q76.275,974 75.825,974 Q75.2625,974 74.7875,974.225 Q74.325,974.45 73.9625,974.95 Q73.6,975.45 73.6,976.1375 L73.6,976.875 Q73.6,977.7 74.275,978.25 Q74.95,978.8 76.15,978.8 Q76.8625,978.8 77.3625,978.6375 Q77.65,978.55 77.975,978.2625 Q78.1875,978.1 78.3,978.05 Q78.4125,978 78.55,978 Q78.8125,978 79,978.2125 Q79.2,978.4125 79.2,978.7 Q79.2,978.975 78.925,979.3 Q78.525,979.775 77.8875,980.0375 Q77.05,980.4 76.025,980.4 Q74.825,980.4 73.8625,979.925 Q73.0875,979.55 72.5375,978.7375 Q72,977.925 72,976.9625 L72,976.0875 Q72,975.0875 72.475,974.2125 Q72.9625,973.3375 73.8,972.875 Q74.65,972.4 75.6,972.4 Q76.175,972.4 76.675,972.6 Q77.175,972.8 77.6,973.2 Z " fill="#000000"/><text fill="#000000" font-family="sans-serif" font-size="9.6" lengthAdjust="spacing" textLength="46.4" x="87.2" y="979.9281">Parameter</text><line style="stroke:#A80036;stroke-width:1.2000000000000002;" x1="64.8" x2="135.2" y1="988.8" y2="988.8"/><rect fill="none" height="4.8" style="stroke:#C82930;stroke-width:0.8;" width="4.8" x="70.4" y="995.2"/><text fill="#000000" font-family="sans-serif" font-size="8.8" lengthAdjust="spacing" textLength="19.2" x="80" y="1001.1352">code</text><rect fill="none" height="4.8" style="stroke:#C82930;stroke-width:0.8;" width="4.8" x="70.4" y="1006.2688"/><text fill="#000000" font-family="sans-serif" font-size="8.8" lengthAdjust="spacing" textLength="41.6" x="80" y="1012.2039">shortName</text><rect fill="none" height="4.8" style="stroke:#C82930;stroke-width:0.8;" width="4.8" x="70.4" y="1017.3375"/><text fill="#000000" font-family="sans-serif" font-size="8.8" lengthAdjust="spacing" textLength="42.4" x="80" y="1023.2727">description</text><line style="stroke:#A80036;stroke-width:1.2000000000000002;" x1="64.8" x2="135.2" y1="1028.4063" y2="1028.4063"/><!--MD5=[1c357e7e7fdba398bcadd6e61afe49f5]
class ReferenceValue--><rect codeLine="99" fill="#FEFECE" filter="url(#f16c65x3htzhgq)" height="38.4" id="ReferenceValue" style="stroke:#A80036;stroke-width:1.2000000000000002;" width="96" x="606.4" y="980"/><ellipse cx="618.4" cy="992.8" fill="#ADD1B2" rx="8.8" ry="8.8" style="stroke:#A80036;stroke-width:0.8;"/><path d="M620,990 Q620.1625,989.6 620.35,989.4 Q620.5375,989.2 620.75,989.2 Q621.125,989.2 621.3625,989.425 Q621.6,989.65 621.6,990.175 L621.6,991.425 Q621.6,991.95 621.375,992.175 Q621.15,992.4 620.8,992.4 Q620.4875,992.4 620.2875,992.2625 Q620.0875,992.125 620,991.7625 Q619.9625,991.5125 619.825,991.375 Q619.575,991.1125 619.125,990.9625 Q618.675,990.8 618.225,990.8 Q617.6625,990.8 617.1875,991.025 Q616.725,991.25 616.3625,991.75 Q616,992.25 616,992.9375 L616,993.675 Q616,994.5 616.675,995.05 Q617.35,995.6 618.55,995.6 Q619.2625,995.6 619.7625,995.4375 Q620.05,995.35 620.375,995.0625 Q620.5875,994.9 620.7,994.85 Q620.8125,994.8 620.95,994.8 Q621.2125,994.8 621.4,995.0125 Q621.6,995.2125 621.6,995.5 Q621.6,995.775 621.325,996.1 Q620.925,996.575 620.2875,996.8375 Q619.45,997.2 618.425,997.2 Q617.225,997.2 616.2625,996.725 Q615.4875,996.35 614.9375,995.5375 Q614.4,994.725 614.4,993.7625 L614.4,992.8875 Q614.4,991.8875 614.875,991.0125 Q615.3625,990.1375 616.2,989.675 Q617.05,989.2 618,989.2 Q618.575,989.2 619.075,989.4 Q619.575,989.6 620,990 Z " fill="#000000"/><text fill="#000000" font-family="sans-serif" font-size="9.6" lengthAdjust="spacing" textLength="70.4" x="629.6" y="996.7281">ReferenceValue</text><line style="stroke:#A80036;stroke-width:1.2000000000000002;" x1="607.2" x2="701.6" y1="1005.6" y2="1005.6"/><line style="stroke:#A80036;stroke-width:1.2000000000000002;" x1="607.2" x2="701.6" y1="1012" y2="1012"/><!--MD5=[0f6f7964b844a64b0496af0dda7914bd]
class TestStore--><rect codeLine="75" fill="#FEFECE" filter="url(#f16c65x3htzhgq)" height="49.4688" id="TestStore" style="stroke:#A80036;stroke-width:1.2000000000000002;" width="92.8" x="862.4" y="974.4"/><ellipse cx="885.56" cy="987.2" fill="#ADD1B2" rx="8.8" ry="8.8" style="stroke:#A80036;stroke-width:0.8;"/><path d="M887.16,984.4 Q887.3225,984 887.51,983.8 Q887.6975,983.6 887.91,983.6 Q888.285,983.6 888.5225,983.825 Q888.76,984.05 888.76,984.575 L888.76,985.825 Q888.76,986.35 888.535,986.575 Q888.31,986.8 887.96,986.8 Q887.6475,986.8 887.4475,986.6625 Q887.2475,986.525 887.16,986.1625 Q887.1225,985.9125 886.985,985.775 Q886.735,985.5125 886.285,985.3625 Q885.835,985.2 885.385,985.2 Q884.8225,985.2 884.3475,985.425 Q883.885,985.65 883.5225,986.15 Q883.16,986.65 883.16,987.3375 L883.16,988.075 Q883.16,988.9 883.835,989.45 Q884.51,990 885.71,990 Q886.4225,990 886.9225,989.8375 Q887.21,989.75 887.535,989.4625 Q887.7475,989.3 887.86,989.25 Q887.9725,989.2 888.11,989.2 Q888.3725,989.2 888.56,989.4125 Q888.76,989.6125 888.76,989.9 Q888.76,990.175 888.485,990.5 Q888.085,990.975 887.4475,991.2375 Q886.61,991.6 885.585,991.6 Q884.385,991.6 883.4225,991.125 Q882.6475,990.75 882.0975,989.9375 Q881.56,989.125 881.56,988.1625 L881.56,987.2875 Q881.56,986.2875 882.035,985.4125 Q882.5225,984.5375 883.36,984.075 Q884.21,983.6 885.16,983.6 Q885.735,983.6 886.235,983.8 Q886.735,984 887.16,984.4 Z " fill="#000000"/><text fill="#000000" font-family="sans-serif" font-size="9.6" lengthAdjust="spacing" textLength="42.4" x="899.24" y="991.1281">TestStore</text><line style="stroke:#A80036;stroke-width:1.2000000000000002;" x1="863.2" x2="954.4" y1="1000" y2="1000"/><ellipse cx="871.2" cy="1008.8" fill="none" rx="2.4" ry="2.4" style="stroke:#038048;stroke-width:0.8;"/><text fill="#000000" font-family="sans-serif" font-size="8.8" lengthAdjust="spacing" textLength="72" x="878.4" y="1012.3352">getTestByBarcode</text><line style="stroke:#A80036;stroke-width:1.2000000000000002;" x1="863.2" x2="954.4" y1="1017.4688" y2="1017.4688"/><!--MD5=[ab6fcce6d49d940c28db8ba495cfa0ae]
class RecordResultsController--><rect codeLine="55" fill="#FEFECE" filter="url(#f16c65x3htzhgq)" height="60.5375" id="RecordResultsController" style="stroke:#A80036;stroke-width:1.2000000000000002;" width="189.6" x="1262.8" y="140"/><ellipse cx="1299.4" cy="152.8" fill="#ADD1B2" rx="8.8" ry="8.8" style="stroke:#A80036;stroke-width:0.8;"/><path d="M1301,150 Q1301.1625,149.6 1301.35,149.4 Q1301.5375,149.2 1301.75,149.2 Q1302.125,149.2 1302.3625,149.425 Q1302.6,149.65 1302.6,150.175 L1302.6,151.425 Q1302.6,151.95 1302.375,152.175 Q1302.15,152.4 1301.8,152.4 Q1301.4875,152.4 1301.2875,152.2625 Q1301.0875,152.125 1301,151.7625 Q1300.9625,151.5125 1300.825,151.375 Q1300.575,151.1125 1300.125,150.9625 Q1299.675,150.8 1299.225,150.8 Q1298.6625,150.8 1298.1875,151.025 Q1297.725,151.25 1297.3625,151.75 Q1297,152.25 1297,152.9375 L1297,153.675 Q1297,154.5 1297.675,155.05 Q1298.35,155.6 1299.55,155.6 Q1300.2625,155.6 1300.7625,155.4375 Q1301.05,155.35 1301.375,155.0625 Q1301.5875,154.9 1301.7,154.85 Q1301.8125,154.8 1301.95,154.8 Q1302.2125,154.8 1302.4,155.0125 Q1302.6,155.2125 1302.6,155.5 Q1302.6,155.775 1302.325,156.1 Q1301.925,156.575 1301.2875,156.8375 Q1300.45,157.2 1299.425,157.2 Q1298.225,157.2 1297.2625,156.725 Q1296.4875,156.35 1295.9375,155.5375 Q1295.4,154.725 1295.4,153.7625 L1295.4,152.8875 Q1295.4,151.8875 1295.875,151.0125 Q1296.3625,150.1375 1297.2,149.675 Q1298.05,149.2 1299,149.2 Q1299.575,149.2 1300.075,149.4 Q1300.575,149.6 1301,150 Z " fill="#000000"/><text fill="#000000" font-family="sans-serif" font-size="9.6" lengthAdjust="spacing" textLength="109.6" x="1315.8" y="156.7281">RecordResultsController</text><line style="stroke:#A80036;stroke-width:1.2000000000000002;" x1="1263.6" x2="1451.6" y1="165.6" y2="165.6"/><line style="stroke:#A80036;stroke-width:1.2000000000000002;" x1="1263.6" x2="1451.6" y1="172" y2="172"/><ellipse cx="1271.6" cy="180.8" fill="#84BE84" rx="2.4" ry="2.4" style="stroke:#038048;stroke-width:0.8;"/><text fill="#000000" font-family="sans-serif" font-size="8.8" lengthAdjust="spacing" textLength="88" x="1278.8" y="184.3352">getTestParameterList()</text><ellipse cx="1271.6" cy="191.8688" fill="#84BE84" rx="2.4" ry="2.4" style="stroke:#038048;stroke-width:0.8;"/><text fill="#000000" font-family="sans-serif" font-size="8.8" lengthAdjust="spacing" textLength="168.8" x="1278.8" y="195.4039">AddResult(parameterSelected,result,metric)</text><!--MD5=[050b4c4f5a6f983888d2a8b4ff566d24]
class RecordResultsUI--><rect codeLine="51" fill="#FEFECE" filter="url(#f16c65x3htzhgq)" height="38.4" id="RecordResultsUI" style="stroke:#A80036;stroke-width:1.2000000000000002;" width="101.6" x="1749.2" y="33.6"/><ellipse cx="1761.2" cy="46.4" fill="#ADD1B2" rx="8.8" ry="8.8" style="stroke:#A80036;stroke-width:0.8;"/><path d="M1762.8,43.6 Q1762.9625,43.2 1763.15,43 Q1763.3375,42.8 1763.55,42.8 Q1763.925,42.8 1764.1625,43.025 Q1764.4,43.25 1764.4,43.775 L1764.4,45.025 Q1764.4,45.55 1764.175,45.775 Q1763.95,46 1763.6,46 Q1763.2875,46 1763.0875,45.8625 Q1762.8875,45.725 1762.8,45.3625 Q1762.7625,45.1125 1762.625,44.975 Q1762.375,44.7125 1761.925,44.5625 Q1761.475,44.4 1761.025,44.4 Q1760.4625,44.4 1759.9875,44.625 Q1759.525,44.85 1759.1625,45.35 Q1758.8,45.85 1758.8,46.5375 L1758.8,47.275 Q1758.8,48.1 1759.475,48.65 Q1760.15,49.2 1761.35,49.2 Q1762.0625,49.2 1762.5625,49.0375 Q1762.85,48.95 1763.175,48.6625 Q1763.3875,48.5 1763.5,48.45 Q1763.6125,48.4 1763.75,48.4 Q1764.0125,48.4 1764.2,48.6125 Q1764.4,48.8125 1764.4,49.1 Q1764.4,49.375 1764.125,49.7 Q1763.725,50.175 1763.0875,50.4375 Q1762.25,50.8 1761.225,50.8 Q1760.025,50.8 1759.0625,50.325 Q1758.2875,49.95 1757.7375,49.1375 Q1757.2,48.325 1757.2,47.3625 L1757.2,46.4875 Q1757.2,45.4875 1757.675,44.6125 Q1758.1625,43.7375 1759,43.275 Q1759.85,42.8 1760.8,42.8 Q1761.375,42.8 1761.875,43 Q1762.375,43.2 1762.8,43.6 Z " fill="#000000"/><text fill="#000000" font-family="sans-serif" font-size="9.6" lengthAdjust="spacing" textLength="76" x="1772.4" y="50.3281">RecordResultsUI</text><line style="stroke:#A80036;stroke-width:1.2000000000000002;" x1="1750" x2="1850" y1="59.2" y2="59.2"/><line style="stroke:#A80036;stroke-width:1.2000000000000002;" x1="1750" x2="1850" y1="65.6" y2="65.6"/><!--MD5=[3658f24f54b6913ac92069b502cb15eb]
link RecordResultsUI to RecordResultsController--><path codeLine="132" d="M1749.032,66.96 C1677.84,85.632 1547.184,119.888 1456.504,143.664 " fill="none" id="RecordResultsUI-to-RecordResultsController" style="stroke:#A80036;stroke-width:0.8;stroke-dasharray:7.0,7.0;"/><polygon fill="#A80036" points="1452.488,144.72,1460.2655,145.9812,1456.3561,143.7015,1458.6358,139.7921,1452.488,144.72" style="stroke:#A80036;stroke-width:0.8;"/><!--MD5=[2d6b833a27debd45e4fa1ed68d23b74c]
link RecordResultsUI to TestParameterDTO--><path codeLine="133" d="M1812.808,72.12 C1834.472,105.952 1872.856,178.728 1839.2,227.2 C1744.736,363.24 1531.744,394.32 1427.272,401.288 " fill="none" id="RecordResultsUI-to-TestParameterDTO" style="stroke:#A80036;stroke-width:0.8;stroke-dasharray:7.0,7.0;"/><polygon fill="#A80036" points="1422.992,401.56,1430.3786,404.302,1426.9841,401.3091,1429.9771,397.9146,1422.992,401.56" style="stroke:#A80036;stroke-width:0.8;"/><!--MD5=[d684bc00c1ddfb53475dc496608bab12]
link RecordResultsController to Company--><path codeLine="134" d="M1262.656,173.592 C1109.472,180.064 824.8,204.032 824.8,292.8 C824.8,292.8 824.8,292.8 824.8,493.6 C824.8,553.496 802.6,620.328 787.216,659.464 " fill="none" id="RecordResultsController-to-Company" style="stroke:#A80036;stroke-width:0.8;stroke-dasharray:7.0,7.0;"/><polygon fill="#A80036" points="785.656,663.4,791.2807,657.8825,787.1278,659.6806,785.3297,655.5277,785.656,663.4" style="stroke:#A80036;stroke-width:0.8;"/><!--MD5=[9a4cf5053e8a49c90f5c97ee16a1f640]
link RecordResultsController to TestParameterMapper--><path codeLine="135" d="M1357.6,200.944 C1357.6,220.296 1357.6,245.376 1357.6,264.448 " fill="none" id="RecordResultsController-to-TestParameterMapper" style="stroke:#A80036;stroke-width:0.8;stroke-dasharray:7.0,7.0;"/><polygon fill="#A80036" points="1357.6,268.664,1360.8,261.464,1357.6,264.664,1354.4,261.464,1357.6,268.664" style="stroke:#A80036;stroke-width:0.8;"/><!--MD5=[618a5f472619b17b01cf55c6072cef5f]
link RecordResultsController to Test--><path codeLine="136" d="M1262.784,175.4 C1046.016,186.272 532.8,219.728 532.8,292.8 C532.8,292.8 532.8,292.8 532.8,493.6 C532.8,529.784 485.424,501.664 457.6,524.8 C424.536,552.288 397.904,592.344 379.176,626.496 " fill="none" id="RecordResultsController-to-Test" style="stroke:#A80036;stroke-width:0.8;stroke-dasharray:7.0,7.0;"/><polygon fill="#A80036" points="377.16,630.2,383.4235,625.42,379.0802,626.691,377.8092,622.3477,377.16,630.2" style="stroke:#A80036;stroke-width:0.8;"/><!--MD5=[dc41caf219a17b0a23cdf29d9b1d1469]
link RecordResultsController to TestStore--><path codeLine="137" d="M1452.52,177.072 C1587.416,188.056 1818.4,217.816 1818.4,292.8 C1818.4,292.8 1818.4,292.8 1818.4,863.2 C1818.4,950.712 1151.168,987.496 959.632,996.256 " fill="none" id="RecordResultsController-to-TestStore" style="stroke:#A80036;stroke-width:0.8;stroke-dasharray:7.0,7.0;"/><polygon fill="#A80036" points="955.472,996.44,962.811,999.3069,959.4678,996.2568,962.5179,992.9136,955.472,996.44" style="stroke:#A80036;stroke-width:0.8;"/><!--MD5=[7f6cf7f175eae0af66201860de5de971]
link Company to TestStore--><path codeLine="138" d="M774.232,724.544 C775.944,745.112 779.712,772.832 788,796 C812.152,863.512 859.832,933.416 887.52,970.824 " fill="none" id="Company-to-TestStore" style="stroke:#A80036;stroke-width:0.8;"/><polygon fill="#A80036" points="889.968,974.12,888.2387,966.433,887.5808,970.9104,883.1034,970.2525,889.968,974.12" style="stroke:#A80036;stroke-width:0.8;"/><text fill="#000000" font-family="sans-serif" font-size="10.4" lengthAdjust="spacing" textLength="22.4" x="856" y="866.7961">uses</text><!--MD5=[886f81fd36c1ffd754dcf922ff388f49]
link TestParameterMapper to TestParameter--><path codeLine="139" d="M1295.376,297.432 C1177.384,304.888 932.8,329.256 932.8,403.2 C932.8,403.2 932.8,403.2 932.8,863.2 C932.8,897.976 916.512,909.672 885.6,925.6 C838.488,949.88 460.432,927.256 408.8,939.2 C379.136,946.064 348.008,959.912 323.608,972.488 " fill="none" id="TestParameterMapper-to-TestParameter" style="stroke:#A80036;stroke-width:0.8;stroke-dasharray:7.0,7.0;"/><polygon fill="#A80036" points="320.056,974.328,327.9205,973.8493,323.6058,972.4844,324.9708,968.1697,320.056,974.328" style="stroke:#A80036;stroke-width:0.8;"/><!--MD5=[6f2bb5e90fbe30ae2ed765a858b518f3]
link TestParameterMapper to TestParameterDTO--><path codeLine="140" d="M1359.728,318.544 C1361.36,336.976 1363.584,362.2 1365.184,380.312 " fill="none" id="TestParameterMapper-to-TestParameterDTO" style="stroke:#A80036;stroke-width:0.8;stroke-dasharray:7.0,7.0;"/><polygon fill="#A80036" points="1365.552,384.52,1368.1005,377.0645,1365.1971,380.5358,1361.7258,377.6323,1365.552,384.52" style="stroke:#A80036;stroke-width:0.8;"/><!--MD5=[71e6920dcc27afae8f25537cd5357b5f]
link TestType to ExternalModule--><path codeLine="141" d="M675.832,746.504 C684.912,750.64 694.136,754.432 703.2,757.6 C865.704,814.432 1065.976,841.936 1178.864,853.8 " fill="none" id="TestType-to-ExternalModule" style="stroke:#A80036;stroke-width:0.8;"/><polygon fill="#A80036" points="1183.176,854.256,1176.3435,850.3321,1179.1972,853.8444,1175.6849,856.6981,1183.176,854.256" style="stroke:#A80036;stroke-width:0.8;"/><text fill="#000000" font-family="sans-serif" font-size="10.4" lengthAdjust="spacing" textLength="62.4" x="824" y="793.1961">makes use of</text><text fill="#000000" font-family="sans-serif" font-size="10.4" lengthAdjust="spacing" textLength="4" x="681.4824" y="763.7574">*</text><text fill="#000000" font-family="sans-serif" font-size="10.4" lengthAdjust="spacing" textLength="5.6" x="1171.1999" y="851.1992">1</text><!--MD5=[b0f4f6db8206580012ef9cd998ed01c5]
link TestStore to Test--><path codeLine="142" d="M862.232,980.152 C827.928,966.264 780.416,946.112 740,925.6 C628.448,868.984 504.872,794.072 426.848,745.176 " fill="none" id="TestStore-to-Test" style="stroke:#A80036;stroke-width:0.8;"/><polygon fill="#A80036" points="423.4,743.016,427.8037,749.5496,426.7901,745.1391,431.2006,744.1255,423.4,743.016" style="stroke:#A80036;stroke-width:0.8;"/><text fill="#000000" font-family="sans-serif" font-size="10.4" lengthAdjust="spacing" textLength="42.4" x="740.8" y="866.7961">conducts</text><text fill="#000000" font-family="sans-serif" font-size="10.4" lengthAdjust="spacing" textLength="5.6" x="850.3067" y="974.914">1</text><text fill="#000000" font-family="sans-serif" font-size="10.4" lengthAdjust="spacing" textLength="4" x="429.5678" y="744.4292">*</text><!--MD5=[e981d4f96c4342412d1e68160b30cf70]
link Test to TestType--><path codeLine="143" d="M423.504,694 C437.48,694 452.376,694 467.264,694 " fill="none" id="Test-to-TestType" style="stroke:#A80036;stroke-width:0.8;"/><polygon fill="#A80036" points="471.464,694,464.264,690.8,467.464,694,464.264,697.2,471.464,694" style="stroke:#A80036;stroke-width:0.8;"/><text fill="#000000" font-family="sans-serif" font-size="10.4" lengthAdjust="spacing" textLength="19.2" x="437.8" y="688.7961">is of</text><text fill="#000000" font-family="sans-serif" font-size="10.4" lengthAdjust="spacing" textLength="4" x="429.6801" y="691.5073">*</text><text fill="#000000" font-family="sans-serif" font-size="10.4" lengthAdjust="spacing" textLength="5.6" x="459.4691" y="691.6534">1</text><!--MD5=[f24c888dadeb846430474fe80a58922b]
link Test to TestParameter--><path codeLine="144" d="M333.576,757.704 C318.592,823.08 295.816,922.424 284.808,970.456 " fill="none" id="Test-to-TestParameter" style="stroke:#A80036;stroke-width:0.8;"/><polygon fill="#A80036" points="283.904,974.384,288.6289,968.0788,284.7959,970.4847,282.39,966.6517,283.904,974.384" style="stroke:#A80036;stroke-width:0.8;"/><text fill="#000000" font-family="sans-serif" font-size="10.4" lengthAdjust="spacing" textLength="92.8" x="324" y="866.7961">requests analysis of</text><text fill="#000000" font-family="sans-serif" font-size="10.4" lengthAdjust="spacing" textLength="5.6" x="326.4958" y="774.5475">1</text><text fill="#000000" font-family="sans-serif" font-size="10.4" lengthAdjust="spacing" textLength="16" x="267.358" y="965.5967">1..*</text><!--MD5=[ad334d1782af96659f761ffdd3e3c1a7]
reverse link Parameter to TestParameter--><path codeLine="145" d="M140.232,999.2 C158.776,999.2 181.4,999.2 202.936,999.2 " fill="none" id="Parameter-backto-TestParameter" style="stroke:#A80036;stroke-width:0.8;"/><polygon fill="#A80036" points="136.104,999.2,143.304,1002.4,140.104,999.2,143.304,996,136.104,999.2" style="stroke:#A80036;stroke-width:0.8;"/><text fill="#000000" font-family="sans-serif" font-size="10.4" lengthAdjust="spacing" textLength="37.6" x="150.8" y="993.9961">refers to</text><text fill="#000000" font-family="sans-serif" font-size="10.4" lengthAdjust="spacing" textLength="5.6" x="142.3043" y="996.2299">1</text><text fill="#000000" font-family="sans-serif" font-size="10.4" lengthAdjust="spacing" textLength="4" x="192.7631" y="996.7025">*</text><!--MD5=[0e00e25ac6b8c14659aaff2cf7e5df08]
link TestParameter to TestParameterResult--><path codeLine="146" d="M353.784,999.2 C374.96,999.2 397.776,999.2 418.232,999.2 " fill="none" id="TestParameter-to-TestParameterResult" style="stroke:#A80036;stroke-width:0.8;"/><polygon fill="#A80036" points="422.288,999.2,415.088,996,418.288,999.2,415.088,1002.4,422.288,999.2" style="stroke:#A80036;stroke-width:0.8;"/><text fill="#000000" font-family="sans-serif" font-size="10.4" lengthAdjust="spacing" textLength="39.2" x="368.4" y="993.9961">contains</text><text fill="#000000" font-family="sans-serif" font-size="10.4" lengthAdjust="spacing" textLength="5.6" x="360.0143" y="996.7025">1</text><text fill="#000000" font-family="sans-serif" font-size="10.4" lengthAdjust="spacing" textLength="17.6" x="398.3352" y="1010.6172">0..1</text><!--MD5=[52200cc2361fa0ac0481dd6ffcdb824b]
link TestParameterResult to ReferenceValue--><path codeLine="147" d="M542.56,999.2 C561.92,999.2 583.208,999.2 601.976,999.2 " fill="none" id="TestParameterResult-to-ReferenceValue" style="stroke:#A80036;stroke-width:0.8;"/><polygon fill="#A80036" points="606.184,999.2,598.984,996,602.184,999.2,598.984,1002.4,606.184,999.2" style="stroke:#A80036;stroke-width:0.8;"/><text fill="#000000" font-family="sans-serif" font-size="10.4" lengthAdjust="spacing" textLength="34.4" x="557.2" y="993.9961">records</text><text fill="#000000" font-family="sans-serif" font-size="10.4" lengthAdjust="spacing" textLength="5.6" x="548.7576" y="996.5993">1</text><text fill="#000000" font-family="sans-serif" font-size="10.4" lengthAdjust="spacing" textLength="5.6" x="594.3664" y="996.4332">1</text><!--MD5=[1969cf158af301a795793022589ae6a7]
link CovidReferenceValues1APIAdapter to ExternalModule--><path codeLine="148" d="M1611.272,718.88 C1586.792,730.928 1556.408,745.48 1528.8,757.6 C1468.344,784.136 1398.84,811.632 1346.68,831.68 " fill="none" id="CovidReferenceValues1APIAdapter-to-ExternalModule" style="stroke:#A80036;stroke-width:0.8;stroke-dasharray:7.0,7.0;"/><polygon fill="none" points="1348.368,837.024,1331.424,837.52,1344.36,826.568,1348.368,837.024" style="stroke:#A80036;stroke-width:0.8;"/><!--MD5=[9a6bef74363d2f0953277aeba5ec4cf6]
link ExternalModule2APIAdapter to ExternalModule--><path codeLine="149" d="M1378.64,719.056 C1356.896,746.864 1321.016,792.76 1295.864,824.936 " fill="none" id="ExternalModule2APIAdapter-to-ExternalModule" style="stroke:#A80036;stroke-width:0.8;stroke-dasharray:7.0,7.0;"/><polygon fill="none" points="1300.24,828.432,1285.976,837.584,1291.416,821.536,1300.24,828.432" style="stroke:#A80036;stroke-width:0.8;"/><!--MD5=[0264bf6bfbf3b8dca394df376ee13808]
link ExternalModule3APIAdapter to ExternalModule--><path codeLine="150" d="M1155.08,719.056 C1176.952,746.864 1213.048,792.76 1238.36,824.936 " fill="none" id="ExternalModule3APIAdapter-to-ExternalModule" style="stroke:#A80036;stroke-width:0.8;stroke-dasharray:7.0,7.0;"/><polygon fill="none" points="1242.824,821.552,1248.312,837.584,1234.016,828.472,1242.824,821.552" style="stroke:#A80036;stroke-width:0.8;"/><!--MD5=[f9b06ca2d286bd38a2dc2ba3024f1763]
@startuml


package adapter{
class CovidReferenceValues1APIAdapter
class ExternalModule2APIAdapter
class ExternalModule3APIAdapter
package interface{
class ExternalModule
}
}
package mappers{
class TestParameterMapper
package dto{
class TestParameterDTO
}
}

package domain{
package model{
class Company
package testRelated {
class TestType
class TestParameter
class TestParameterResult
class Test
class Parameter
class ReferenceValue
}
}
package store{
class TestStore
}
}


package controller{
class RecordResultsController
}
package ui{
class RecordResultsUI
}




class Company{
-String designation
+getTestStore()
}

class RecordResultsUI{

}

class RecordResultsController{
+getTestParameterList()
+AddResult(parameterSelected,result,metric)
}

class TestParameterMapper{
+ToDTO(TestParameterList)
}

class Test {
-client
-nhscode
-testParameterList
-stateOfTest
-internalCode
-createdAt
+AddResult(refValue,result,metric)
+getParameterList()
}

class TestStore{
+getTestByBarcode
}

class TestParameter{
+AddResult(refValue,result,metric)
}


class TestParameterResult{
-createdAt
-value
-metric
}

class Parameter{
-code
-shortName
-description
}

class TestParameterDTO{
}

class ReferenceValue{

}

class TestType{
  -String code
  -String description
  -String collectingMethod
  -List<ParameterCategories> listOfParameterCategories
  -String referenceAdapter
  +getExternalModule()

}

class ExternalModule2APIAdapter{
 +ReferenceValue getReferenceValue(Parameter param)
}

class ExternalModule3APIAdapter{
 +ReferenceValue getReferenceValue(Parameter param)
}

class CovidReferenceValues1APIAdapter{
 +ReferenceValue getReferenceValue(Parameter param)
}


interface ExternalModule{
+getReferenceValue(Parameter param)
}



RecordResultsUI ..> RecordResultsController
RecordResultsUI ..> TestParameterDTO
RecordResultsController ..> Company
RecordResultsController ..> TestParameterMapper
RecordResultsController ..> Test
RecordResultsController ..> TestStore
Company - - -> TestStore : uses
TestParameterMapper ......> TestParameter
TestParameterMapper ..> TestParameterDTO
TestType"*" - -> "1" ExternalModule : makes use of
TestStore "1" -> "*" Test : conducts
Test "*" -> "1" TestType : is of
Test "1" - - -> "1..*" TestParameter : requests analysis of
Parameter "1" <- "*" TestParameter : refers to
TestParameter "1" -> "0..1" TestParameterResult : contains
TestParameterResult "1" -> "1" ReferenceValue :records
CovidReferenceValues1APIAdapter ..|> ExternalModule
ExternalModule2APIAdapter ..|> ExternalModule
ExternalModule3APIAdapter ..|> ExternalModule



@enduml

PlantUML version 1.2021.00(Sun Jan 10 10:25:05 GMT 2021)
(GPL source distribution)
Java Runtime: OpenJDK Runtime Environment
JVM: OpenJDK 64-Bit Server VM
Default Encoding: Cp1252
Language: pt
Country: PT
--></g></svg>