<?xml version="1.0" encoding="UTF-8" standalone="no"?><svg xmlns="http://www.w3.org/2000/svg" xmlns:xlink="http://www.w3.org/1999/xlink" contentScriptType="application/ecmascript" contentStyleType="text/css" height="632px" preserveAspectRatio="none" style="width:389px;height:632px;" version="1.1" viewBox="0 0 389 632" width="389.6px" zoomAndPan="magnify"><defs><filter height="300%" id="f1hu5pcp224rg4" width="300%" x="-1" y="-1"><feGaussianBlur result="blurOut" stdDeviation="1.6"/><feColorMatrix in="blurOut" result="blurOut2" type="matrix" values="0 0 0 0 0 0 0 0 0 0 0 0 0 0 0 0 0 0 .4 0"/><feOffset dx="3.2" dy="3.2" in="blurOut2" result="blurOut3"/><feBlend in="SourceGraphic" in2="blurOut3" mode="normal"/></filter></defs><g><!--MD5=[02e4b9b7573f1156f41e60aa5b4e25a4]
class Company--><rect codeLine="5" fill="#FEFECE" filter="url(#f1hu5pcp224rg4)" height="43.0688" id="Company" style="stroke:#A80036;stroke-width:1.2000000000000002;" width="68" x="109.2" y="5.6"/><ellipse cx="121.2" cy="18.4" fill="#ADD1B2" rx="8.8" ry="8.8" style="stroke:#A80036;stroke-width:0.8;"/><path d="M122.8,15.6 Q122.9625,15.2 123.15,15 Q123.3375,14.8 123.55,14.8 Q123.925,14.8 124.1625,15.025 Q124.4,15.25 124.4,15.775 L124.4,17.025 Q124.4,17.55 124.175,17.775 Q123.95,18 123.6,18 Q123.2875,18 123.0875,17.8625 Q122.8875,17.725 122.8,17.3625 Q122.7625,17.1125 122.625,16.975 Q122.375,16.7125 121.925,16.5625 Q121.475,16.4 121.025,16.4 Q120.4625,16.4 119.9875,16.625 Q119.525,16.85 119.1625,17.35 Q118.8,17.85 118.8,18.5375 L118.8,19.275 Q118.8,20.1 119.475,20.65 Q120.15,21.2 121.35,21.2 Q122.0625,21.2 122.5625,21.0375 Q122.85,20.95 123.175,20.6625 Q123.3875,20.5 123.5,20.45 Q123.6125,20.4 123.75,20.4 Q124.0125,20.4 124.2,20.6125 Q124.4,20.8125 124.4,21.1 Q124.4,21.375 124.125,21.7 Q123.725,22.175 123.0875,22.4375 Q122.25,22.8 121.225,22.8 Q120.025,22.8 119.0625,22.325 Q118.2875,21.95 117.7375,21.1375 Q117.2,20.325 117.2,19.3625 L117.2,18.4875 Q117.2,17.4875 117.675,16.6125 Q118.1625,15.7375 119,15.275 Q119.85,14.8 120.8,14.8 Q121.375,14.8 121.875,15 Q122.375,15.2 122.8,15.6 Z " fill="#000000"/><text fill="#000000" font-family="sans-serif" font-size="9.6" lengthAdjust="spacing" textLength="42.4" x="132.4" y="22.3281">Company</text><line style="stroke:#A80036;stroke-width:1.2000000000000002;" x1="110" x2="176.4" y1="31.2" y2="31.2"/><text fill="#000000" font-family="sans-serif" font-size="8.8" lengthAdjust="spacing" textLength="47.2" x="114" y="43.5352">-designation</text><!--MD5=[df38be88ccee13e832d6fafd6288a4ca]
class Test--><rect codeLine="10" fill="#FEFECE" filter="url(#f1hu5pcp224rg4)" height="65.2063" id="Test" style="stroke:#A80036;stroke-width:1.2000000000000002;" width="60.8" x="5.6" y="111.2"/><ellipse cx="24.8" cy="124" fill="#ADD1B2" rx="8.8" ry="8.8" style="stroke:#A80036;stroke-width:0.8;"/><path d="M26.4,121.2 Q26.5625,120.8 26.75,120.6 Q26.9375,120.4 27.15,120.4 Q27.525,120.4 27.7625,120.625 Q28,120.85 28,121.375 L28,122.625 Q28,123.15 27.775,123.375 Q27.55,123.6 27.2,123.6 Q26.8875,123.6 26.6875,123.4625 Q26.4875,123.325 26.4,122.9625 Q26.3625,122.7125 26.225,122.575 Q25.975,122.3125 25.525,122.1625 Q25.075,122 24.625,122 Q24.0625,122 23.5875,122.225 Q23.125,122.45 22.7625,122.95 Q22.4,123.45 22.4,124.1375 L22.4,124.875 Q22.4,125.7 23.075,126.25 Q23.75,126.8 24.95,126.8 Q25.6625,126.8 26.1625,126.6375 Q26.45,126.55 26.775,126.2625 Q26.9875,126.1 27.1,126.05 Q27.2125,126 27.35,126 Q27.6125,126 27.8,126.2125 Q28,126.4125 28,126.7 Q28,126.975 27.725,127.3 Q27.325,127.775 26.6875,128.0375 Q25.85,128.4 24.825,128.4 Q23.625,128.4 22.6625,127.925 Q21.8875,127.55 21.3375,126.7375 Q20.8,125.925 20.8,124.9625 L20.8,124.0875 Q20.8,123.0875 21.275,122.2125 Q21.7625,121.3375 22.6,120.875 Q23.45,120.4 24.4,120.4 Q24.975,120.4 25.475,120.6 Q25.975,120.8 26.4,121.2 Z " fill="#000000"/><text fill="#000000" font-family="sans-serif" font-size="9.6" lengthAdjust="spacing" textLength="19.2" x="37.6" y="127.9281">Test</text><line style="stroke:#A80036;stroke-width:1.2000000000000002;" x1="6.4" x2="65.6" y1="136.8" y2="136.8"/><text fill="#000000" font-family="sans-serif" font-size="8.8" lengthAdjust="spacing" textLength="51.2" x="10.4" y="149.1352">-internalCode</text><text fill="#000000" font-family="sans-serif" font-size="8.8" lengthAdjust="spacing" textLength="37.6" x="10.4" y="160.2039">-nhsCode</text><text fill="#000000" font-family="sans-serif" font-size="8.8" lengthAdjust="spacing" textLength="45.6" x="10.4" y="171.2727">-description</text><!--MD5=[aeb3272166074d8737a70b61b1e71682]
class TestType--><rect codeLine="16" fill="#FEFECE" filter="url(#f1hu5pcp224rg4)" height="65.2063" id="TestType" style="stroke:#A80036;stroke-width:1.2000000000000002;" width="76.8" x="223.2" y="111.2"/><ellipse cx="240.24" cy="124" fill="#ADD1B2" rx="8.8" ry="8.8" style="stroke:#A80036;stroke-width:0.8;"/><path d="M241.84,121.2 Q242.0025,120.8 242.19,120.6 Q242.3775,120.4 242.59,120.4 Q242.965,120.4 243.2025,120.625 Q243.44,120.85 243.44,121.375 L243.44,122.625 Q243.44,123.15 243.215,123.375 Q242.99,123.6 242.64,123.6 Q242.3275,123.6 242.1275,123.4625 Q241.9275,123.325 241.84,122.9625 Q241.8025,122.7125 241.665,122.575 Q241.415,122.3125 240.965,122.1625 Q240.515,122 240.065,122 Q239.5025,122 239.0275,122.225 Q238.565,122.45 238.2025,122.95 Q237.84,123.45 237.84,124.1375 L237.84,124.875 Q237.84,125.7 238.515,126.25 Q239.19,126.8 240.39,126.8 Q241.1025,126.8 241.6025,126.6375 Q241.89,126.55 242.215,126.2625 Q242.4275,126.1 242.54,126.05 Q242.6525,126 242.79,126 Q243.0525,126 243.24,126.2125 Q243.44,126.4125 243.44,126.7 Q243.44,126.975 243.165,127.3 Q242.765,127.775 242.1275,128.0375 Q241.29,128.4 240.265,128.4 Q239.065,128.4 238.1025,127.925 Q237.3275,127.55 236.7775,126.7375 Q236.24,125.925 236.24,124.9625 L236.24,124.0875 Q236.24,123.0875 236.715,122.2125 Q237.2025,121.3375 238.04,120.875 Q238.89,120.4 239.84,120.4 Q240.415,120.4 240.915,120.6 Q241.415,120.8 241.84,121.2 Z " fill="#000000"/><text fill="#000000" font-family="sans-serif" font-size="9.6" lengthAdjust="spacing" textLength="40" x="252.56" y="127.9281">TestType</text><line style="stroke:#A80036;stroke-width:1.2000000000000002;" x1="224" x2="299.2" y1="136.8" y2="136.8"/><text fill="#000000" font-family="sans-serif" font-size="8.8" lengthAdjust="spacing" textLength="22.4" x="228" y="149.1352">-code</text><text fill="#000000" font-family="sans-serif" font-size="8.8" lengthAdjust="spacing" textLength="45.6" x="228" y="160.2039">-description</text><text fill="#000000" font-family="sans-serif" font-size="8.8" lengthAdjust="spacing" textLength="67.2" x="228" y="171.2727">-collectingMethod</text><!--MD5=[8f188b89eff49accb0f38c057b38a9f2]
class ExternalModule--><rect codeLine="22" fill="#FEFECE" filter="url(#f1hu5pcp224rg4)" height="32" id="ExternalModule" style="stroke:#A80036;stroke-width:1.2000000000000002;" width="92.8" x="277.6" y="277.6"/><ellipse cx="289.6" cy="290.4" fill="#ADD1B2" rx="8.8" ry="8.8" style="stroke:#A80036;stroke-width:0.8;"/><path d="M291.2,287.6 Q291.3625,287.2 291.55,287 Q291.7375,286.8 291.95,286.8 Q292.325,286.8 292.5625,287.025 Q292.8,287.25 292.8,287.775 L292.8,289.025 Q292.8,289.55 292.575,289.775 Q292.35,290 292,290 Q291.6875,290 291.4875,289.8625 Q291.2875,289.725 291.2,289.3625 Q291.1625,289.1125 291.025,288.975 Q290.775,288.7125 290.325,288.5625 Q289.875,288.4 289.425,288.4 Q288.8625,288.4 288.3875,288.625 Q287.925,288.85 287.5625,289.35 Q287.2,289.85 287.2,290.5375 L287.2,291.275 Q287.2,292.1 287.875,292.65 Q288.55,293.2 289.75,293.2 Q290.4625,293.2 290.9625,293.0375 Q291.25,292.95 291.575,292.6625 Q291.7875,292.5 291.9,292.45 Q292.0125,292.4 292.15,292.4 Q292.4125,292.4 292.6,292.6125 Q292.8,292.8125 292.8,293.1 Q292.8,293.375 292.525,293.7 Q292.125,294.175 291.4875,294.4375 Q290.65,294.8 289.625,294.8 Q288.425,294.8 287.4625,294.325 Q286.6875,293.95 286.1375,293.1375 Q285.6,292.325 285.6,291.3625 L285.6,290.4875 Q285.6,289.4875 286.075,288.6125 Q286.5625,287.7375 287.4,287.275 Q288.25,286.8 289.2,286.8 Q289.775,286.8 290.275,287 Q290.775,287.2 291.2,287.6 Z " fill="#000000"/><text fill="#000000" font-family="sans-serif" font-size="9.6" lengthAdjust="spacing" textLength="67.2" x="300.8" y="294.3281">ExternalModule</text><line style="stroke:#A80036;stroke-width:1.2000000000000002;" x1="278.4" x2="369.6" y1="303.2" y2="303.2"/><!--MD5=[994c02a919d6e46d631536f75464fa30]
class ReferenceValues--><rect codeLine="25" fill="#FEFECE" filter="url(#f1hu5pcp224rg4)" height="32" id="ReferenceValues" style="stroke:#A80036;stroke-width:1.2000000000000002;" width="101.6" x="220.4" y="572.8"/><ellipse cx="232.4" cy="585.6" fill="#ADD1B2" rx="8.8" ry="8.8" style="stroke:#A80036;stroke-width:0.8;"/><path d="M234,582.8 Q234.1625,582.4 234.35,582.2 Q234.5375,582 234.75,582 Q235.125,582 235.3625,582.225 Q235.6,582.45 235.6,582.975 L235.6,584.225 Q235.6,584.75 235.375,584.975 Q235.15,585.2 234.8,585.2 Q234.4875,585.2 234.2875,585.0625 Q234.0875,584.925 234,584.5625 Q233.9625,584.3125 233.825,584.175 Q233.575,583.9125 233.125,583.7625 Q232.675,583.6 232.225,583.6 Q231.6625,583.6 231.1875,583.825 Q230.725,584.05 230.3625,584.55 Q230,585.05 230,585.7375 L230,586.475 Q230,587.3 230.675,587.85 Q231.35,588.4 232.55,588.4 Q233.2625,588.4 233.7625,588.2375 Q234.05,588.15 234.375,587.8625 Q234.5875,587.7 234.7,587.65 Q234.8125,587.6 234.95,587.6 Q235.2125,587.6 235.4,587.8125 Q235.6,588.0125 235.6,588.3 Q235.6,588.575 235.325,588.9 Q234.925,589.375 234.2875,589.6375 Q233.45,590 232.425,590 Q231.225,590 230.2625,589.525 Q229.4875,589.15 228.9375,588.3375 Q228.4,587.525 228.4,586.5625 L228.4,585.6875 Q228.4,584.6875 228.875,583.8125 Q229.3625,582.9375 230.2,582.475 Q231.05,582 232,582 Q232.575,582 233.075,582.2 Q233.575,582.4 234,582.8 Z " fill="#000000"/><text fill="#000000" font-family="sans-serif" font-size="9.6" lengthAdjust="spacing" textLength="76" x="243.6" y="589.5281">ReferenceValues</text><line style="stroke:#A80036;stroke-width:1.2000000000000002;" x1="221.2" x2="321.2" y1="598.4" y2="598.4"/><!--MD5=[1f6362a5c8f21d8d6a0fce68f3a92a4e]
class Parameter--><rect codeLine="28" fill="#FEFECE" filter="url(#f1hu5pcp224rg4)" height="65.2063" id="Parameter" style="stroke:#A80036;stroke-width:1.2000000000000002;" width="72" x="98.4" y="556"/><ellipse cx="110.4" cy="568.8" fill="#ADD1B2" rx="8.8" ry="8.8" style="stroke:#A80036;stroke-width:0.8;"/><path d="M112,566 Q112.1625,565.6 112.35,565.4 Q112.5375,565.2 112.75,565.2 Q113.125,565.2 113.3625,565.425 Q113.6,565.65 113.6,566.175 L113.6,567.425 Q113.6,567.95 113.375,568.175 Q113.15,568.4 112.8,568.4 Q112.4875,568.4 112.2875,568.2625 Q112.0875,568.125 112,567.7625 Q111.9625,567.5125 111.825,567.375 Q111.575,567.1125 111.125,566.9625 Q110.675,566.8 110.225,566.8 Q109.6625,566.8 109.1875,567.025 Q108.725,567.25 108.3625,567.75 Q108,568.25 108,568.9375 L108,569.675 Q108,570.5 108.675,571.05 Q109.35,571.6 110.55,571.6 Q111.2625,571.6 111.7625,571.4375 Q112.05,571.35 112.375,571.0625 Q112.5875,570.9 112.7,570.85 Q112.8125,570.8 112.95,570.8 Q113.2125,570.8 113.4,571.0125 Q113.6,571.2125 113.6,571.5 Q113.6,571.775 113.325,572.1 Q112.925,572.575 112.2875,572.8375 Q111.45,573.2 110.425,573.2 Q109.225,573.2 108.2625,572.725 Q107.4875,572.35 106.9375,571.5375 Q106.4,570.725 106.4,569.7625 L106.4,568.8875 Q106.4,567.8875 106.875,567.0125 Q107.3625,566.1375 108.2,565.675 Q109.05,565.2 110,565.2 Q110.575,565.2 111.075,565.4 Q111.575,565.6 112,566 Z " fill="#000000"/><text fill="#000000" font-family="sans-serif" font-size="9.6" lengthAdjust="spacing" textLength="46.4" x="121.6" y="572.7281">Parameter</text><line style="stroke:#A80036;stroke-width:1.2000000000000002;" x1="99.2" x2="169.6" y1="581.6" y2="581.6"/><text fill="#000000" font-family="sans-serif" font-size="8.8" lengthAdjust="spacing" textLength="22.4" x="103.2" y="593.9352">-code</text><text fill="#000000" font-family="sans-serif" font-size="8.8" lengthAdjust="spacing" textLength="47.2" x="103.2" y="605.0039">-designation</text><text fill="#000000" font-family="sans-serif" font-size="8.8" lengthAdjust="spacing" textLength="45.6" x="103.2" y="616.0727">-description</text><!--MD5=[4e608140b854dae633589343bce77383]
class TestParameterResult--><rect codeLine="34" fill="#FEFECE" filter="url(#f1hu5pcp224rg4)" height="65.2063" id="TestParameterResult" style="stroke:#A80036;stroke-width:1.2000000000000002;" width="120" x="185.6" y="428"/><ellipse cx="197.6" cy="440.8" fill="#ADD1B2" rx="8.8" ry="8.8" style="stroke:#A80036;stroke-width:0.8;"/><path d="M199.2,438 Q199.3625,437.6 199.55,437.4 Q199.7375,437.2 199.95,437.2 Q200.325,437.2 200.5625,437.425 Q200.8,437.65 200.8,438.175 L200.8,439.425 Q200.8,439.95 200.575,440.175 Q200.35,440.4 200,440.4 Q199.6875,440.4 199.4875,440.2625 Q199.2875,440.125 199.2,439.7625 Q199.1625,439.5125 199.025,439.375 Q198.775,439.1125 198.325,438.9625 Q197.875,438.8 197.425,438.8 Q196.8625,438.8 196.3875,439.025 Q195.925,439.25 195.5625,439.75 Q195.2,440.25 195.2,440.9375 L195.2,441.675 Q195.2,442.5 195.875,443.05 Q196.55,443.6 197.75,443.6 Q198.4625,443.6 198.9625,443.4375 Q199.25,443.35 199.575,443.0625 Q199.7875,442.9 199.9,442.85 Q200.0125,442.8 200.15,442.8 Q200.4125,442.8 200.6,443.0125 Q200.8,443.2125 200.8,443.5 Q200.8,443.775 200.525,444.1 Q200.125,444.575 199.4875,444.8375 Q198.65,445.2 197.625,445.2 Q196.425,445.2 195.4625,444.725 Q194.6875,444.35 194.1375,443.5375 Q193.6,442.725 193.6,441.7625 L193.6,440.8875 Q193.6,439.8875 194.075,439.0125 Q194.5625,438.1375 195.4,437.675 Q196.25,437.2 197.2,437.2 Q197.775,437.2 198.275,437.4 Q198.775,437.6 199.2,438 Z " fill="#000000"/><text fill="#000000" font-family="sans-serif" font-size="9.6" lengthAdjust="spacing" textLength="94.4" x="208.8" y="444.7281">TestParameterResult</text><line style="stroke:#A80036;stroke-width:1.2000000000000002;" x1="186.4" x2="304.8" y1="453.6" y2="453.6"/><text fill="#000000" font-family="sans-serif" font-size="8.8" lengthAdjust="spacing" textLength="41.6" x="190.4" y="465.9352">-createdAt</text><text fill="#000000" font-family="sans-serif" font-size="8.8" lengthAdjust="spacing" textLength="64.8" x="190.4" y="477.0039">-parameterValue</text><text fill="#000000" font-family="sans-serif" font-size="8.8" lengthAdjust="spacing" textLength="26.4" x="190.4" y="488.0727">-metric</text><!--MD5=[0f07739f46effee96e095e9c408da841]
class TestParameter--><rect codeLine="40" fill="#FEFECE" filter="url(#f1hu5pcp224rg4)" height="32" id="TestParameter" style="stroke:#A80036;stroke-width:1.2000000000000002;" width="91.2" x="192.8" y="333.6"/><ellipse cx="204.8" cy="346.4" fill="#ADD1B2" rx="8.8" ry="8.8" style="stroke:#A80036;stroke-width:0.8;"/><path d="M206.4,343.6 Q206.5625,343.2 206.75,343 Q206.9375,342.8 207.15,342.8 Q207.525,342.8 207.7625,343.025 Q208,343.25 208,343.775 L208,345.025 Q208,345.55 207.775,345.775 Q207.55,346 207.2,346 Q206.8875,346 206.6875,345.8625 Q206.4875,345.725 206.4,345.3625 Q206.3625,345.1125 206.225,344.975 Q205.975,344.7125 205.525,344.5625 Q205.075,344.4 204.625,344.4 Q204.0625,344.4 203.5875,344.625 Q203.125,344.85 202.7625,345.35 Q202.4,345.85 202.4,346.5375 L202.4,347.275 Q202.4,348.1 203.075,348.65 Q203.75,349.2 204.95,349.2 Q205.6625,349.2 206.1625,349.0375 Q206.45,348.95 206.775,348.6625 Q206.9875,348.5 207.1,348.45 Q207.2125,348.4 207.35,348.4 Q207.6125,348.4 207.8,348.6125 Q208,348.8125 208,349.1 Q208,349.375 207.725,349.7 Q207.325,350.175 206.6875,350.4375 Q205.85,350.8 204.825,350.8 Q203.625,350.8 202.6625,350.325 Q201.8875,349.95 201.3375,349.1375 Q200.8,348.325 200.8,347.3625 L200.8,346.4875 Q200.8,345.4875 201.275,344.6125 Q201.7625,343.7375 202.6,343.275 Q203.45,342.8 204.4,342.8 Q204.975,342.8 205.475,343 Q205.975,343.2 206.4,343.6 Z " fill="#000000"/><text fill="#000000" font-family="sans-serif" font-size="9.6" lengthAdjust="spacing" textLength="65.6" x="216" y="350.3281">TestParameter</text><line style="stroke:#A80036;stroke-width:1.2000000000000002;" x1="193.6" x2="283.2" y1="359.2" y2="359.2"/><ellipse cx="86.4" cy="349.6" fill="#000000" rx="1.6" ry="1.6" style="stroke:none;stroke-width:0.8;"/><!--MD5=[7e4bc624457760b649895ff2ead938fa]
link Company to Test--><path codeLine="44" d="M109.136,43.704 C95.808,51.104 81.168,60.928 70.4,72.8 C60.44,83.784 52.72,98.176 47.144,111.08 " fill="none" id="Company-Test" style="stroke:#A80036;stroke-width:0.8;"/><polygon fill="#000000" points="71.6916,83.0842,78.3213,79.3511,74.8609,76.1673,71.6916,83.0842" style="stroke:#000000;stroke-width:0.8;"/><text fill="#000000" font-family="sans-serif" font-size="10.4" lengthAdjust="spacing" textLength="40" x="81.6" y="84.3961">performs</text><text fill="#000000" font-family="sans-serif" font-size="10.4" lengthAdjust="spacing" textLength="5.6" x="97.2" y="43.4722">1</text><text fill="#000000" font-family="sans-serif" font-size="10.4" lengthAdjust="spacing" textLength="4" x="44.6585" y="102.6196">*</text><!--MD5=[742a261f27a3dcd734c626287d811acd]
link Company to TestType--><path codeLine="45" d="M164.64,48.864 C182.504,66.24 208.232,91.272 228.696,111.184 " fill="none" id="Company-TestType" style="stroke:#A80036;stroke-width:0.8;"/><polygon fill="#000000" points="209.267,82.9299,205.7201,76.1988,202.441,79.5692,209.267,82.9299" style="stroke:#000000;stroke-width:0.8;"/><text fill="#000000" font-family="sans-serif" font-size="10.4" lengthAdjust="spacing" textLength="42.4" x="213.6" y="84.3961">conducts</text><text fill="#000000" font-family="sans-serif" font-size="10.4" lengthAdjust="spacing" textLength="5.6" x="163.1175" y="65.8442">1</text><text fill="#000000" font-family="sans-serif" font-size="10.4" lengthAdjust="spacing" textLength="4" x="218.6969" y="102.4979">*</text><!--MD5=[12d76240d3c3c66074d4ec2ea8bf469c]
link Company to Parameter--><path codeLine="46" d="M143.2,48.808 C143.2,71.88 143.2,110.2 143.2,143.2 C143.2,143.2 143.2,143.2 143.2,461.6 C143.2,493.72 140.336,530.312 137.88,555.832 " fill="none" id="Company-Parameter" style="stroke:#A80036;stroke-width:0.8;"/><polygon fill="#000000" points="147.158,297.7404,149.585,290.5294,144.8829,290.4801,147.158,297.7404" style="stroke:#000000;stroke-width:0.8;"/><text fill="#000000" font-family="sans-serif" font-size="10.4" lengthAdjust="spacing" textLength="94.4" x="154.4" y="297.9961">capable of analysing</text><text fill="#000000" font-family="sans-serif" font-size="10.4" lengthAdjust="spacing" textLength="5.6" x="136.9875" y="65.776">1</text><text fill="#000000" font-family="sans-serif" font-size="10.4" lengthAdjust="spacing" textLength="4" x="134.1251" y="547.3637">*</text><!--MD5=[71e6920dcc27afae8f25537cd5357b5f]
link TestType to ExternalModule--><path codeLine="48" d="M275.136,176.912 C288.256,208.032 307.592,253.88 317.544,277.496 " fill="none" id="TestType-ExternalModule" style="stroke:#A80036;stroke-width:0.8;"/><polygon fill="#000000" points="295.154,211.8264,294.5092,204.2453,290.1763,206.0722,295.154,211.8264" style="stroke:#000000;stroke-width:0.8;"/><text fill="#000000" font-family="sans-serif" font-size="10.4" lengthAdjust="spacing" textLength="38.4" x="300.8" y="212.3961">resort to</text><text fill="#000000" font-family="sans-serif" font-size="10.4" lengthAdjust="spacing" textLength="4" x="272.8304" y="193.5316">*</text><text fill="#000000" font-family="sans-serif" font-size="10.4" lengthAdjust="spacing" textLength="5.6" x="309.2251" y="268.9229">1</text><!--MD5=[1e014eb69070571625337ce9aa0fb0d5]
link ExternalModule to ReferenceValues--><path codeLine="49" d="M326.816,309.736 C333.248,348.864 345.944,454.768 311.2,532 C304.488,546.928 293.504,561.912 284.744,572.624 " fill="none" id="ExternalModule-ReferenceValues" style="stroke:#A80036;stroke-width:0.8;"/><polygon fill="#000000" points="337.7679,400.8904,341.233,394.1168,336.5898,393.3737,337.7679,400.8904" style="stroke:#000000;stroke-width:0.8;"/><text fill="#000000" font-family="sans-serif" font-size="10.4" lengthAdjust="spacing" textLength="37.6" x="345.6" y="401.1961">provides</text><text fill="#000000" font-family="sans-serif" font-size="10.4" lengthAdjust="spacing" textLength="5.6" x="321.2205" y="326.9099">1</text><text fill="#000000" font-family="sans-serif" font-size="10.4" lengthAdjust="spacing" textLength="4" x="284.1351" y="564.0297">*</text><!--MD5=[34595777c7e7630030d5d927dd8458a1]
link TestParameterResult to ReferenceValues--><path codeLine="50" d="M252.128,493.824 C257.248,519.128 264.16,553.24 268.104,572.704 " fill="none" id="TestParameterResult-ReferenceValues" style="stroke:#A80036;stroke-width:0.8;"/><polygon fill="#000000" points="263.194,528.861,264.062,521.3022,259.4533,522.2357,263.194,528.861" style="stroke:#000000;stroke-width:0.8;"/><text fill="#000000" font-family="sans-serif" font-size="10.4" lengthAdjust="spacing" textLength="34.4" x="269.6" y="529.1961">records</text><text fill="#000000" font-family="sans-serif" font-size="10.4" lengthAdjust="spacing" textLength="5.6" x="247.0756" y="510.4601">1</text><text fill="#000000" font-family="sans-serif" font-size="10.4" lengthAdjust="spacing" textLength="5.6" x="260.7721" y="564.1332">1</text><!--MD5=[b4828bf67d8abf6429ff9ea6443708c2]
link Test to apoint215--><path d="M25.52,176.824 C19.928,198.816 15.616,228.472 23.2,253.6 C36.72,298.424 79.024,341.512 85.552,347.968 " fill="none" id="Test-apoint215" style="stroke:#A80036;stroke-width:0.8;"/><polygon fill="#000000" points="28.524,250.3152,28.3475,242.7087,23.9103,244.2652,28.524,250.3152" style="stroke:#000000;stroke-width:0.8;"/><text fill="#000000" font-family="sans-serif" font-size="10.4" lengthAdjust="spacing" textLength="87.2" x="34.4" y="250.7961">request analysis of</text><text fill="#000000" font-family="sans-serif" font-size="10.4" lengthAdjust="spacing" textLength="4" x="19.609" y="193.6779">*</text><!--MD5=[429c5ab0cebb2a7f35e13e7638cb999a]
link apoint215 to Parameter--><path d="M86.624,351.552 C88.808,362.944 106.816,456.448 122.4,532 C123.984,539.696 125.736,547.968 127.4,555.744 " fill="none" id="apoint215-Parameter" style="stroke:#A80036;stroke-width:0.8;"/><text fill="#000000" font-family="sans-serif" font-size="10.4" lengthAdjust="spacing" textLength="16" x="108.9156" y="547.2611">1..*</text><!--MD5=[ad03a50e4e40f4e6ccf28df4cf5febb9]
link apoint215 to TestParameter--><path d="M88.184,349.6 C123,349.6 157.816,349.6 192.632,349.6 " fill="none" id="apoint215-TestParameter" style="stroke:#A80036;stroke-width:0.8;stroke-dasharray:7.0,7.0;"/><!--MD5=[0e00e25ac6b8c14659aaff2cf7e5df08]
link TestParameter to TestParameterResult--><path codeLine="52" d="M239.4,365.64 C240.456,381.64 242.136,407.272 243.48,427.784 " fill="none" id="TestParameter-TestParameterResult" style="stroke:#A80036;stroke-width:0.8;"/><polygon fill="#000000" points="245.8621,400.932,247.7341,393.5575,243.0419,393.8655,245.8621,400.932" style="stroke:#000000;stroke-width:0.8;"/><text fill="#000000" font-family="sans-serif" font-size="10.4" lengthAdjust="spacing" textLength="39.2" x="252.8" y="401.1961">contains</text><text fill="#000000" font-family="sans-serif" font-size="10.4" lengthAdjust="spacing" textLength="5.6" x="233.2938" y="382.7869">1</text><text fill="#000000" font-family="sans-serif" font-size="10.4" lengthAdjust="spacing" textLength="17.6" x="224.0714" y="419.3077">0..1</text><!--MD5=[1ab37891a46c38a1bea3715512a91f1d]
@startuml
hide methods
'left to right direction
skinparam classAttributeIconSize 0

class Company{
-designation
}


class Test{
-internalCode
-nhsCode
-description
}

class TestType{
-code
-description
-collectingMethod
}

class ExternalModule{
}

class ReferenceValues{
}

class Parameter{
-code
-designation
-description
}

class TestParameterResult{
-createdAt
-parameterValue
-metric
}

class TestParameter{

}

Company "1" - - "*" Test : performs >
Company "1" - - "*" TestType : conducts >
Company "1" - - - - "*" Parameter : capable of analysing >
Test "*" - - - "1..*" Parameter : request analysis of >
TestType "*" - - "1" ExternalModule : resort to >
ExternalModule "1" - - - "*" ReferenceValues : provides >
TestParameterResult "1" - - "1" ReferenceValues : records >
(Test,Parameter) . TestParameter
TestParameter "1" - - "0..1" TestParameterResult : contains >

@enduml

@startuml
hide methods
skinparam classAttributeIconSize 0

class Company{
-designation
}


class Test{
-internalCode
-nhsCode
-description
}

class TestType{
-code
-description
-collectingMethod
}

class ExternalModule{
}

class ReferenceValues{
}

class Parameter{
-code
-designation
-description
}

class TestParameterResult{
-createdAt
-parameterValue
-metric
}

class TestParameter{

}

Company "1" - - "*" Test : performs >
Company "1" - - "*" TestType : conducts >
Company "1" - - - - "*" Parameter : capable of analysing >
Test "*" - - - "1..*" Parameter : request analysis of >
TestType "*" - - "1" ExternalModule : resort to >
ExternalModule "1" - - - "*" ReferenceValues : provides >
TestParameterResult "1" - - "1" ReferenceValues : records >
(Test,Parameter) . TestParameter
TestParameter "1" - - "0..1" TestParameterResult : contains >

@enduml

PlantUML version 1.2021.00(Sun Jan 10 10:25:05 GMT 2021)
(GPL source distribution)
Java Runtime: OpenJDK Runtime Environment
JVM: OpenJDK 64-Bit Server VM
Default Encoding: Cp1252
Language: pt
Country: PT
--></g></svg>