<?xml version="1.0" encoding="UTF-8" standalone="no"?><svg xmlns="http://www.w3.org/2000/svg" xmlns:xlink="http://www.w3.org/1999/xlink" contentScriptType="application/ecmascript" contentStyleType="text/css" height="424.8px" preserveAspectRatio="none" style="width:358px;height:424px;" version="1.1" viewBox="0 0 358 424" width="358.4px" zoomAndPan="magnify"><defs><filter height="300%" id="f7jza1yqpcl0x" width="300%" x="-1" y="-1"><feGaussianBlur result="blurOut" stdDeviation="1.6"/><feColorMatrix in="blurOut" result="blurOut2" type="matrix" values="0 0 0 0 0 0 0 0 0 0 0 0 0 0 0 0 0 0 .4 0"/><feOffset dx="3.2" dy="3.2" in="blurOut2" result="blurOut3"/><feBlend in="SourceGraphic" in2="blurOut3" mode="normal"/></filter></defs><g><rect fill="#FFFFFF" filter="url(#f7jza1yqpcl0x)" height="268.6938" style="stroke:#A80036;stroke-width:0.8;" width="8" x="93.2" y="79.6875"/><rect fill="#FFFFFF" filter="url(#f7jza1yqpcl0x)" height="24.2813" style="stroke:#A80036;stroke-width:0.8;" width="8" x="308.4" y="97.5688"/><rect fill="#FFFFFF" filter="url(#f7jza1yqpcl0x)" height="44.5625" style="stroke:#A80036;stroke-width:0.8;" width="8" x="308.4" y="146.1313"/><rect fill="#FFFFFF" filter="url(#f7jza1yqpcl0x)" height="24.2813" style="stroke:#A80036;stroke-width:0.8;" width="8" x="308.4" y="214.975"/><rect fill="#FFFFFF" filter="url(#f7jza1yqpcl0x)" height="24.2813" style="stroke:#A80036;stroke-width:0.8;" width="8" x="308.4" y="263.5375"/><rect fill="#FFFFFF" filter="url(#f7jza1yqpcl0x)" height="24.2813" style="stroke:#A80036;stroke-width:0.8;" width="8" x="308.4" y="312.1"/><rect fill="#FFFFFF" filter="url(#f7jza1yqpcl0x)" height="184.65" style="stroke:#000000;stroke-width:1.6;" width="339.6" x="8" y="158.1313"/><line style="stroke:#A80036;stroke-width:0.8;stroke-dasharray:5.0,5.0;" x1="96.8" x2="96.8" y1="71.6875" y2="356.3813"/><line style="stroke:#A80036;stroke-width:0.8;stroke-dasharray:5.0,5.0;" x1="312.4" x2="312.4" y1="71.6875" y2="356.3813"/><text fill="#000000" font-family="sans-serif" font-size="11.2" lengthAdjust="spacing" textLength="157.6" x="16" y="69.2266">Clinical Chemistry Technologist</text><ellipse cx="97.2" cy="12" fill="#FEFECE" filter="url(#f7jza1yqpcl0x)" rx="6.4" ry="6.4" style="stroke:#A80036;stroke-width:1.6;"/><path d="M97.2,18.4 L97.2,40 M86.8,24.8 L107.6,24.8 M97.2,40 L86.8,52 M97.2,40 L107.6,52 " fill="none" filter="url(#f7jza1yqpcl0x)" style="stroke:#A80036;stroke-width:1.6;"/><text fill="#000000" font-family="sans-serif" font-size="11.2" lengthAdjust="spacing" textLength="157.6" x="16" y="367.2078">Clinical Chemistry Technologist</text><ellipse cx="97.2" cy="377.6688" fill="#FEFECE" filter="url(#f7jza1yqpcl0x)" rx="6.4" ry="6.4" style="stroke:#A80036;stroke-width:1.6;"/><path d="M97.2,384.0688 L97.2,405.6688 M86.8,390.4688 L107.6,390.4688 M97.2,405.6688 L86.8,417.6688 M97.2,405.6688 L107.6,417.6688 " fill="none" filter="url(#f7jza1yqpcl0x)" style="stroke:#A80036;stroke-width:1.6;"/><rect fill="#FEFECE" filter="url(#f7jza1yqpcl0x)" height="25.2875" style="stroke:#A80036;stroke-width:1.2000000000000002;" width="51.2" x="285.2" y="42.4"/><text fill="#000000" font-family="sans-serif" font-size="11.2" lengthAdjust="spacing" textLength="40" x="290.8" y="59.6266">:System</text><rect fill="#FEFECE" filter="url(#f7jza1yqpcl0x)" height="25.2875" style="stroke:#A80036;stroke-width:1.2000000000000002;" width="51.2" x="285.2" y="355.5813"/><text fill="#000000" font-family="sans-serif" font-size="11.2" lengthAdjust="spacing" textLength="40" x="290.8" y="372.8078">:System</text><rect fill="#FFFFFF" filter="url(#f7jza1yqpcl0x)" height="268.6938" style="stroke:#A80036;stroke-width:0.8;" width="8" x="93.2" y="79.6875"/><rect fill="#FFFFFF" filter="url(#f7jza1yqpcl0x)" height="24.2813" style="stroke:#A80036;stroke-width:0.8;" width="8" x="308.4" y="97.5688"/><rect fill="#FFFFFF" filter="url(#f7jza1yqpcl0x)" height="44.5625" style="stroke:#A80036;stroke-width:0.8;" width="8" x="308.4" y="146.1313"/><rect fill="#FFFFFF" filter="url(#f7jza1yqpcl0x)" height="24.2813" style="stroke:#A80036;stroke-width:0.8;" width="8" x="308.4" y="214.975"/><rect fill="#FFFFFF" filter="url(#f7jza1yqpcl0x)" height="24.2813" style="stroke:#A80036;stroke-width:0.8;" width="8" x="308.4" y="263.5375"/><rect fill="#FFFFFF" filter="url(#f7jza1yqpcl0x)" height="24.2813" style="stroke:#A80036;stroke-width:0.8;" width="8" x="308.4" y="312.1"/><polygon fill="#A80036" points="298.8,94.3688,306.8,97.5688,298.8,100.7688,302,97.5688" style="stroke:#A80036;stroke-width:0.8;"/><line style="stroke:#A80036;stroke-width:0.8;" x1="101.2" x2="303.6" y1="97.5688" y2="97.5688"/><text fill="#000000" font-family="sans-serif" font-size="10.4" font-weight="bold" lengthAdjust="spacing" textLength="5.6" x="106.8" y="93.6836">1</text><text fill="#000000" font-family="sans-serif" font-size="10.4" lengthAdjust="spacing" textLength="144.8" x="115.6" y="93.6836">asks to register the test results</text><polygon fill="#A80036" points="110,118.65,102,121.85,110,125.05,106.8,121.85" style="stroke:#A80036;stroke-width:0.8;"/><line style="stroke:#A80036;stroke-width:0.8;stroke-dasharray:2.0,2.0;" x1="105.2" x2="311.6" y1="121.85" y2="121.85"/><text fill="#000000" font-family="sans-serif" font-size="10.4" font-weight="bold" lengthAdjust="spacing" textLength="5.6" x="114.8" y="117.9648">2</text><text fill="#000000" font-family="sans-serif" font-size="10.4" lengthAdjust="spacing" textLength="129.6" x="123.6" y="117.9648">request the barcode number</text><polygon fill="#A80036" points="298.8,142.9313,306.8,146.1313,298.8,149.3313,302,146.1313" style="stroke:#A80036;stroke-width:0.8;"/><line style="stroke:#A80036;stroke-width:0.8;" x1="101.2" x2="303.6" y1="146.1313" y2="146.1313"/><text fill="#000000" font-family="sans-serif" font-size="10.4" font-weight="bold" lengthAdjust="spacing" textLength="5.6" x="106.8" y="142.2461">3</text><text fill="#000000" font-family="sans-serif" font-size="10.4" lengthAdjust="spacing" textLength="97.6" x="115.6" y="142.2461">types requested data</text><path d="M8,158.1313 L66.4,158.1313 L66.4,164.5313 L58.4,172.5313 L8,172.5313 L8,158.1313 " fill="#EEEEEE" style="stroke:#000000;stroke-width:0.8;"/><rect fill="none" height="184.65" style="stroke:#000000;stroke-width:1.6;" width="339.6" x="8" y="158.1313"/><text fill="#000000" font-family="sans-serif" font-size="10.4" font-weight="bold" lengthAdjust="spacing" textLength="22.4" x="20" y="169.7273">loop</text><text fill="#000000" font-family="sans-serif" font-size="8.8" font-weight="bold" lengthAdjust="spacing" textLength="183.2" x="78.4" y="168.8664">[*for each test parameter being analysed]</text><polygon fill="#A80036" points="110,187.4938,102,190.6938,110,193.8938,106.8,190.6938" style="stroke:#A80036;stroke-width:0.8;"/><line style="stroke:#A80036;stroke-width:0.8;" x1="105.2" x2="311.6" y1="190.6938" y2="190.6938"/><text fill="#000000" font-family="sans-serif" font-size="10.4" font-weight="bold" lengthAdjust="spacing" textLength="5.6" x="114.8" y="186.8086">4</text><text fill="#000000" font-family="sans-serif" font-size="10.4" lengthAdjust="spacing" textLength="129.6" x="123.6" y="186.8086">Show list of test parameters</text><polygon fill="#A80036" points="298.8,211.775,306.8,214.975,298.8,218.175,302,214.975" style="stroke:#A80036;stroke-width:0.8;"/><line style="stroke:#A80036;stroke-width:0.8;" x1="101.2" x2="303.6" y1="214.975" y2="214.975"/><text fill="#000000" font-family="sans-serif" font-size="10.4" font-weight="bold" lengthAdjust="spacing" textLength="5.6" x="106.8" y="211.0898">5</text><text fill="#000000" font-family="sans-serif" font-size="10.4" lengthAdjust="spacing" textLength="104" x="115.6" y="211.0898">selects test parameter</text><polygon fill="#A80036" points="110,236.0563,102,239.2563,110,242.4563,106.8,239.2563" style="stroke:#A80036;stroke-width:0.8;"/><line style="stroke:#A80036;stroke-width:0.8;" x1="105.2" x2="311.6" y1="239.2563" y2="239.2563"/><text fill="#000000" font-family="sans-serif" font-size="10.4" font-weight="bold" lengthAdjust="spacing" textLength="5.6" x="114.8" y="235.3711">6</text><text fill="#000000" font-family="sans-serif" font-size="10.4" lengthAdjust="spacing" textLength="132.8" x="123.6" y="235.3711">request the result and metric</text><polygon fill="#A80036" points="298.8,260.3375,306.8,263.5375,298.8,266.7375,302,263.5375" style="stroke:#A80036;stroke-width:0.8;"/><line style="stroke:#A80036;stroke-width:0.8;" x1="101.2" x2="303.6" y1="263.5375" y2="263.5375"/><text fill="#000000" font-family="sans-serif" font-size="10.4" font-weight="bold" lengthAdjust="spacing" textLength="5.6" x="106.8" y="259.6523">7</text><text fill="#000000" font-family="sans-serif" font-size="10.4" lengthAdjust="spacing" textLength="97.6" x="115.6" y="259.6523">types requested data</text><polygon fill="#A80036" points="110,284.6188,102,287.8188,110,291.0188,106.8,287.8188" style="stroke:#A80036;stroke-width:0.8;"/><line style="stroke:#A80036;stroke-width:0.8;" x1="105.2" x2="311.6" y1="287.8188" y2="287.8188"/><text fill="#000000" font-family="sans-serif" font-size="10.4" font-weight="bold" lengthAdjust="spacing" textLength="5.6" x="114.8" y="283.9336">8</text><text fill="#000000" font-family="sans-serif" font-size="10.4" lengthAdjust="spacing" textLength="179.2" x="123.6" y="283.9336">Show all data and request confirmation</text><polygon fill="#A80036" points="298.8,308.9,306.8,312.1,298.8,315.3,302,312.1" style="stroke:#A80036;stroke-width:0.8;"/><line style="stroke:#A80036;stroke-width:0.8;" x1="101.2" x2="303.6" y1="312.1" y2="312.1"/><text fill="#000000" font-family="sans-serif" font-size="10.4" font-weight="bold" lengthAdjust="spacing" textLength="5.6" x="106.8" y="308.2148">9</text><text fill="#000000" font-family="sans-serif" font-size="10.4" lengthAdjust="spacing" textLength="80" x="115.6" y="308.2148">confirms the data</text><polygon fill="#A80036" points="110,333.1813,102,336.3813,110,339.5813,106.8,336.3813" style="stroke:#A80036;stroke-width:0.8;"/><line style="stroke:#A80036;stroke-width:0.8;stroke-dasharray:2.0,2.0;" x1="105.2" x2="311.6" y1="336.3813" y2="336.3813"/><text fill="#000000" font-family="sans-serif" font-size="10.4" font-weight="bold" lengthAdjust="spacing" textLength="11.2" x="114.8" y="332.4961">10</text><text fill="#000000" font-family="sans-serif" font-size="10.4" lengthAdjust="spacing" textLength="139.2" x="129.2" y="332.4961">informs the operation success</text><!--MD5=[85795bfa2e92f7797592f6c572bb2b58]
@startuml
autonumber
actor "Clinical Chemistry Technologist" as CCT

activate CCT
CCT -> ":System" : asks to register the test results
activate ":System"
":System" - -> CCT : request the barcode number
deactivate ":System"
CCT -> ":System" : types requested data
activate ":System"
loop *for each test parameter being analysed
":System" -> CCT : Show list of test parameters
deactivate ":System"
CCT -> ":System" : selects test parameter
activate ":System"
":System" -> CCT : request the result and metric
deactivate ":System"
CCT -> ":System" : types requested data
activate ":System"
":System" -> CCT : Show all data and request confirmation
deactivate ":System"
CCT -> ":System" : confirms the data
activate ":System"
":System" - -> CCT : informs the operation success
deactivate ":System"
end


deactivate CCT

@enduml

PlantUML version 1.2021.00(Sun Jan 10 10:25:05 GMT 2021)
(GPL source distribution)
Java Runtime: OpenJDK Runtime Environment
JVM: OpenJDK 64-Bit Server VM
Default Encoding: Cp1252
Language: pt
Country: PT
--></g></svg>