<?xml version="1.0" encoding="UTF-8" standalone="no"?><svg xmlns="http://www.w3.org/2000/svg" xmlns:xlink="http://www.w3.org/1999/xlink" contentScriptType="application/ecmascript" contentStyleType="text/css" height="470px" preserveAspectRatio="none" style="width:400px;height:470px;" version="1.1" viewBox="0 0 400 470" width="400px" zoomAndPan="magnify"><defs><filter height="300%" id="f9da4q5nn13ma" width="300%" x="-1" y="-1"><feGaussianBlur result="blurOut" stdDeviation="2.0"/><feColorMatrix in="blurOut" result="blurOut2" type="matrix" values="0 0 0 0 0 0 0 0 0 0 0 0 0 0 0 0 0 0 .4 0"/><feOffset dx="4.0" dy="4.0" in="blurOut2" result="blurOut3"/><feBlend in="SourceGraphic" in2="blurOut3" mode="normal"/></filter></defs><g><rect fill="#FFFFFF" filter="url(#f9da4q5nn13ma)" height="274.8125" style="stroke:#A80036;stroke-width:1.0;" width="10" x="116.5" y="99.6094"/><rect fill="#FFFFFF" filter="url(#f9da4q5nn13ma)" height="30.3516" style="stroke:#A80036;stroke-width:1.0;" width="10" x="337.5" y="121.9609"/><rect fill="#FFFFFF" filter="url(#f9da4q5nn13ma)" height="55.7031" style="stroke:#A80036;stroke-width:1.0;" width="10" x="337.5" y="182.6641"/><rect fill="#FFFFFF" filter="url(#f9da4q5nn13ma)" height="30.3516" style="stroke:#A80036;stroke-width:1.0;" width="10" x="337.5" y="268.7188"/><rect fill="#FFFFFF" filter="url(#f9da4q5nn13ma)" height="30" style="stroke:#A80036;stroke-width:1.0;" width="10" x="337.5" y="329.4219"/><rect fill="#FFFFFF" filter="url(#f9da4q5nn13ma)" height="169.7578" style="stroke:#000000;stroke-width:2.0;" width="376.5" x="10" y="197.6641"/><line style="stroke:#A80036;stroke-width:1.0;stroke-dasharray:5.0,5.0;" x1="121" x2="121" y1="89.6094" y2="384.4219"/><line style="stroke:#A80036;stroke-width:1.0;stroke-dasharray:5.0,5.0;" x1="342.5" x2="342.5" y1="89.6094" y2="384.4219"/><text fill="#000000" font-family="sans-serif" font-size="14" lengthAdjust="spacing" textLength="197" x="20" y="86.5332">Clinical Chemistry Technologist</text><ellipse cx="121.5" cy="15" fill="#FEFECE" filter="url(#f9da4q5nn13ma)" rx="8" ry="8" style="stroke:#A80036;stroke-width:2.0;"/><path d="M121.5,23 L121.5,50 M108.5,31 L134.5,31 M121.5,50 L108.5,65 M121.5,50 L134.5,65 " fill="none" filter="url(#f9da4q5nn13ma)" style="stroke:#A80036;stroke-width:2.0;"/><text fill="#000000" font-family="sans-serif" font-size="14" lengthAdjust="spacing" textLength="197" x="20" y="397.9551">Clinical Chemistry Technologist</text><ellipse cx="121.5" cy="411.0313" fill="#FEFECE" filter="url(#f9da4q5nn13ma)" rx="8" ry="8" style="stroke:#A80036;stroke-width:2.0;"/><path d="M121.5,419.0313 L121.5,446.0313 M108.5,427.0313 L134.5,427.0313 M121.5,446.0313 L108.5,461.0313 M121.5,446.0313 L134.5,461.0313 " fill="none" filter="url(#f9da4q5nn13ma)" style="stroke:#A80036;stroke-width:2.0;"/><rect fill="#FEFECE" filter="url(#f9da4q5nn13ma)" height="31.6094" style="stroke:#A80036;stroke-width:1.5;" width="64" x="308.5" y="53"/><text fill="#000000" font-family="sans-serif" font-size="14" lengthAdjust="spacing" textLength="50" x="315.5" y="74.5332">:System</text><rect fill="#FEFECE" filter="url(#f9da4q5nn13ma)" height="31.6094" style="stroke:#A80036;stroke-width:1.5;" width="64" x="308.5" y="383.4219"/><text fill="#000000" font-family="sans-serif" font-size="14" lengthAdjust="spacing" textLength="50" x="315.5" y="404.9551">:System</text><rect fill="#FFFFFF" filter="url(#f9da4q5nn13ma)" height="274.8125" style="stroke:#A80036;stroke-width:1.0;" width="10" x="116.5" y="99.6094"/><rect fill="#FFFFFF" filter="url(#f9da4q5nn13ma)" height="30.3516" style="stroke:#A80036;stroke-width:1.0;" width="10" x="337.5" y="121.9609"/><rect fill="#FFFFFF" filter="url(#f9da4q5nn13ma)" height="55.7031" style="stroke:#A80036;stroke-width:1.0;" width="10" x="337.5" y="182.6641"/><rect fill="#FFFFFF" filter="url(#f9da4q5nn13ma)" height="30.3516" style="stroke:#A80036;stroke-width:1.0;" width="10" x="337.5" y="268.7188"/><rect fill="#FFFFFF" filter="url(#f9da4q5nn13ma)" height="30" style="stroke:#A80036;stroke-width:1.0;" width="10" x="337.5" y="329.4219"/><polygon fill="#A80036" points="325.5,117.9609,335.5,121.9609,325.5,125.9609,329.5,121.9609" style="stroke:#A80036;stroke-width:1.0;"/><line style="stroke:#A80036;stroke-width:1.0;" x1="126.5" x2="331.5" y1="121.9609" y2="121.9609"/><text fill="#000000" font-family="sans-serif" font-size="13" font-weight="bold" lengthAdjust="spacing" textLength="7" x="133.5" y="117.1045">1</text><text fill="#000000" font-family="sans-serif" font-size="13" lengthAdjust="spacing" textLength="181" x="144.5" y="117.1045">asks to register the test results</text><polygon fill="#A80036" points="137.5,148.3125,127.5,152.3125,137.5,156.3125,133.5,152.3125" style="stroke:#A80036;stroke-width:1.0;"/><line style="stroke:#A80036;stroke-width:1.0;stroke-dasharray:2.0,2.0;" x1="131.5" x2="341.5" y1="152.3125" y2="152.3125"/><text fill="#000000" font-family="sans-serif" font-size="13" font-weight="bold" lengthAdjust="spacing" textLength="7" x="143.5" y="147.4561">2</text><text fill="#000000" font-family="sans-serif" font-size="13" lengthAdjust="spacing" textLength="162" x="154.5" y="147.4561">request the barcode number</text><polygon fill="#A80036" points="325.5,178.6641,335.5,182.6641,325.5,186.6641,329.5,182.6641" style="stroke:#A80036;stroke-width:1.0;"/><line style="stroke:#A80036;stroke-width:1.0;" x1="126.5" x2="331.5" y1="182.6641" y2="182.6641"/><text fill="#000000" font-family="sans-serif" font-size="13" font-weight="bold" lengthAdjust="spacing" textLength="7" x="133.5" y="177.8076">3</text><text fill="#000000" font-family="sans-serif" font-size="13" lengthAdjust="spacing" textLength="122" x="144.5" y="177.8076">types requested data</text><path d="M10,197.6641 L83,197.6641 L83,205.6641 L73,215.6641 L10,215.6641 L10,197.6641 " fill="#EEEEEE" style="stroke:#000000;stroke-width:1.0;"/><rect fill="none" height="169.7578" style="stroke:#000000;stroke-width:2.0;" width="376.5" x="10" y="197.6641"/><text fill="#000000" font-family="sans-serif" font-size="13" font-weight="bold" lengthAdjust="spacing" textLength="28" x="25" y="212.1592">loop</text><text fill="#000000" font-family="sans-serif" font-size="11" font-weight="bold" lengthAdjust="spacing" textLength="229" x="98" y="211.083">[*for each test parameter being analysed]</text><polygon fill="#A80036" points="137.5,234.3672,127.5,238.3672,137.5,242.3672,133.5,238.3672" style="stroke:#A80036;stroke-width:1.0;"/><line style="stroke:#A80036;stroke-width:1.0;" x1="131.5" x2="341.5" y1="238.3672" y2="238.3672"/><text fill="#000000" font-family="sans-serif" font-size="13" font-weight="bold" lengthAdjust="spacing" textLength="7" x="143.5" y="233.5107">4</text><text fill="#000000" font-family="sans-serif" font-size="13" lengthAdjust="spacing" textLength="162" x="154.5" y="233.5107">Show list of test parameters</text><polygon fill="#A80036" points="325.5,264.7188,335.5,268.7188,325.5,272.7188,329.5,268.7188" style="stroke:#A80036;stroke-width:1.0;"/><line style="stroke:#A80036;stroke-width:1.0;" x1="126.5" x2="331.5" y1="268.7188" y2="268.7188"/><text fill="#000000" font-family="sans-serif" font-size="13" font-weight="bold" lengthAdjust="spacing" textLength="7" x="133.5" y="263.8623">5</text><text fill="#000000" font-family="sans-serif" font-size="13" lengthAdjust="spacing" textLength="130" x="144.5" y="263.8623">selects test parameter</text><polygon fill="#A80036" points="137.5,295.0703,127.5,299.0703,137.5,303.0703,133.5,299.0703" style="stroke:#A80036;stroke-width:1.0;"/><line style="stroke:#A80036;stroke-width:1.0;" x1="131.5" x2="341.5" y1="299.0703" y2="299.0703"/><text fill="#000000" font-family="sans-serif" font-size="13" font-weight="bold" lengthAdjust="spacing" textLength="7" x="143.5" y="294.2139">6</text><text fill="#000000" font-family="sans-serif" font-size="13" lengthAdjust="spacing" textLength="166" x="154.5" y="294.2139">request the result and metric</text><polygon fill="#A80036" points="325.5,325.4219,335.5,329.4219,325.5,333.4219,329.5,329.4219" style="stroke:#A80036;stroke-width:1.0;"/><line style="stroke:#A80036;stroke-width:1.0;" x1="126.5" x2="331.5" y1="329.4219" y2="329.4219"/><text fill="#000000" font-family="sans-serif" font-size="13" font-weight="bold" lengthAdjust="spacing" textLength="7" x="133.5" y="324.5654">7</text><text fill="#000000" font-family="sans-serif" font-size="13" lengthAdjust="spacing" textLength="122" x="144.5" y="324.5654">types requested data</text><!--MD5=[86537e7d6f53f21a2153a14ef391e3a2]
@startuml
autonumber
actor "Clinical Chemistry Technologist" as CCT

activate CCT
CCT -> ":System" : asks to register the test results
activate ":System"
":System" - -> CCT : request the barcode number
deactivate ":System"
CCT -> ":System" : types requested data
activate ":System"
loop *for each test parameter being analysed
":System" -> CCT : Show list of test parameters
deactivate ":System"
CCT -> ":System" : selects test parameter
activate ":System"
":System" -> CCT : request the result and metric
deactivate ":System"
CCT -> ":System" : types requested data
activate ":System"
deactivate ":System"
end


deactivate CCT

@enduml

PlantUML version 1.2021.00(Sun Jan 10 10:25:05 GMT 2021)
(GPL source distribution)
Java Runtime: OpenJDK Runtime Environment
JVM: OpenJDK 64-Bit Server VM
Default Encoding: Cp1252
Language: pt
Country: PT
--></g></svg>