<?xml version="1.0" encoding="UTF-8" standalone="no"?><svg xmlns="http://www.w3.org/2000/svg" xmlns:xlink="http://www.w3.org/1999/xlink" contentScriptType="application/ecmascript" contentStyleType="text/css" height="1094px" preserveAspectRatio="none" style="width:1115px;height:1094px;" version="1.1" viewBox="0 0 1115 1094" width="1115px" zoomAndPan="magnify"><defs><filter height="300%" id="f1wrawq4xc625a" width="300%" x="-1" y="-1"><feGaussianBlur result="blurOut" stdDeviation="2.0"/><feColorMatrix in="blurOut" result="blurOut2" type="matrix" values="0 0 0 0 0 0 0 0 0 0 0 0 0 0 0 0 0 0 .4 0"/><feOffset dx="4.0" dy="4.0" in="blurOut2" result="blurOut3"/><feBlend in="SourceGraphic" in2="blurOut3" mode="normal"/></filter></defs><g><!--MD5=[64e2e010ba86d7988e5cd73bd64f61f9]
cluster ui--><polygon fill="#FFFFFF" filter="url(#f1wrawq4xc625a)" points="287,6,306,6,313,29.6094,413,29.6094,413,106,287,106,287,6" style="stroke:#000000;stroke-width:1.5;"/><line style="stroke:#000000;stroke-width:1.5;" x1="287" x2="313" y1="29.6094" y2="29.6094"/><text fill="#000000" font-family="sans-serif" font-size="14" font-weight="bold" lengthAdjust="spacing" textLength="13" x="291" y="22.5332">ui</text><!--MD5=[1f2cfc53d9d308f53762fd0fcbaa4873]
cluster Controller--><polygon fill="#FFFFFF" filter="url(#f1wrawq4xc625a)" points="217,139,294,139,301,162.6094,483,162.6094,483,377,217,377,217,139" style="stroke:#000000;stroke-width:1.5;"/><line style="stroke:#000000;stroke-width:1.5;" x1="217" x2="301" y1="162.6094" y2="162.6094"/><text fill="#000000" font-family="sans-serif" font-size="14" font-weight="bold" lengthAdjust="spacing" textLength="71" x="221" y="155.5332">Controller</text><!--MD5=[a0bb257923b4feabbc8c8a837db65c88]
cluster adapter--><polygon fill="#FFFFFF" filter="url(#f1wrawq4xc625a)" points="759,712.5,819,712.5,826,736.1094,1098,736.1094,1098,812.5,759,812.5,759,712.5" style="stroke:#000000;stroke-width:1.5;"/><line style="stroke:#000000;stroke-width:1.5;" x1="759" x2="826" y1="736.1094" y2="736.1094"/><text fill="#000000" font-family="sans-serif" font-size="14" font-weight="bold" lengthAdjust="spacing" textLength="54" x="763" y="729.0332">adapter</text><!--MD5=[5d4cd377749310b66bf14896f5cd8d9b]
cluster model--><polygon fill="#FFFFFF" filter="url(#f1wrawq4xc625a)" points="16,602,65,602,72,625.6094,735,625.6094,735,923,16,923,16,602" style="stroke:#000000;stroke-width:1.5;"/><line style="stroke:#000000;stroke-width:1.5;" x1="16" x2="72" y1="625.6094" y2="625.6094"/><text fill="#000000" font-family="sans-serif" font-size="14" font-weight="bold" lengthAdjust="spacing" textLength="43" x="20" y="618.5332">model</text><!--MD5=[c23849cc5f4a85746a20de4317c530fc]
cluster store--><polygon fill="#FFFFFF" filter="url(#f1wrawq4xc625a)" points="387,410,430,410,437,433.6094,856,433.6094,856,552,387,552,387,410" style="stroke:#000000;stroke-width:1.5;"/><line style="stroke:#000000;stroke-width:1.5;" x1="387" x2="437" y1="433.6094" y2="433.6094"/><text fill="#000000" font-family="sans-serif" font-size="14" font-weight="bold" lengthAdjust="spacing" textLength="37" x="391" y="426.5332">store</text><!--MD5=[e25d2abf3c472b89b03b52c7e4262e29]
cluster interfaces--><polygon fill="#FFFFFF" filter="url(#f1wrawq4xc625a)" points="721,973,798,973,805,996.6094,967,996.6094,967,1087,721,1087,721,973" style="stroke:#000000;stroke-width:1.5;"/><line style="stroke:#000000;stroke-width:1.5;" x1="721" x2="805" y1="996.6094" y2="996.6094"/><text fill="#000000" font-family="sans-serif" font-size="14" font-weight="bold" lengthAdjust="spacing" textLength="71" x="725" y="989.5332">interfaces</text><!--MD5=[8bdfcc1bb83d41d65197b6c44356be8a]
class OverviewUI--><rect codeLine="4" fill="#FEFECE" filter="url(#f1wrawq4xc625a)" height="48" id="OverviewUI" style="stroke:#A80036;stroke-width:1.5;" width="93" x="303.5" y="42"/><ellipse cx="318.5" cy="58" fill="#ADD1B2" rx="11" ry="11" style="stroke:#A80036;stroke-width:1.0;"/><path d="M320.5,54.5 Q320.7031,54 320.9375,53.75 Q321.1719,53.5 321.4375,53.5 Q321.9063,53.5 322.2031,53.7813 Q322.5,54.0625 322.5,54.7188 L322.5,56.2813 Q322.5,56.9375 322.2188,57.2188 Q321.9375,57.5 321.5,57.5 Q321.1094,57.5 320.8594,57.3281 Q320.6094,57.1563 320.5,56.7031 Q320.4531,56.3906 320.2813,56.2188 Q319.9688,55.8906 319.4063,55.7031 Q318.8438,55.5 318.2813,55.5 Q317.5781,55.5 316.9844,55.7813 Q316.4063,56.0625 315.9531,56.6875 Q315.5,57.3125 315.5,58.1719 L315.5,59.0938 Q315.5,60.125 316.3438,60.8125 Q317.1875,61.5 318.6875,61.5 Q319.5781,61.5 320.2031,61.2969 Q320.5625,61.1875 320.9688,60.8281 Q321.2344,60.625 321.375,60.5625 Q321.5156,60.5 321.6875,60.5 Q322.0156,60.5 322.25,60.7656 Q322.5,61.0156 322.5,61.375 Q322.5,61.7188 322.1563,62.125 Q321.6563,62.7188 320.8594,63.0469 Q319.8125,63.5 318.5313,63.5 Q317.0313,63.5 315.8281,62.9063 Q314.8594,62.4375 314.1719,61.4219 Q313.5,60.4063 313.5,59.2031 L313.5,58.1094 Q313.5,56.8594 314.0938,55.7656 Q314.7031,54.6719 315.75,54.0938 Q316.8125,53.5 318,53.5 Q318.7188,53.5 319.3438,53.75 Q319.9688,54 320.5,54.5 Z " fill="#000000"/><text fill="#000000" font-family="sans-serif" font-size="12" lengthAdjust="spacing" textLength="61" x="332.5" y="62.9102">OverviewUI</text><line style="stroke:#A80036;stroke-width:1.5;" x1="304.5" x2="395.5" y1="74" y2="74"/><line style="stroke:#A80036;stroke-width:1.5;" x1="304.5" x2="395.5" y1="82" y2="82"/><!--MD5=[de4b9dae6d31a38c56afa7b52c7f3a39]
class OverviewController--><rect codeLine="8" fill="#FEFECE" filter="url(#f1wrawq4xc625a)" height="186.3594" id="OverviewController" style="stroke:#A80036;stroke-width:1.5;" width="233" x="233.5" y="175"/><ellipse cx="294.25" cy="191" fill="#ADD1B2" rx="11" ry="11" style="stroke:#A80036;stroke-width:1.0;"/><path d="M296.25,187.5 Q296.4531,187 296.6875,186.75 Q296.9219,186.5 297.1875,186.5 Q297.6563,186.5 297.9531,186.7813 Q298.25,187.0625 298.25,187.7188 L298.25,189.2813 Q298.25,189.9375 297.9688,190.2188 Q297.6875,190.5 297.25,190.5 Q296.8594,190.5 296.6094,190.3281 Q296.3594,190.1563 296.25,189.7031 Q296.2031,189.3906 296.0313,189.2188 Q295.7188,188.8906 295.1563,188.7031 Q294.5938,188.5 294.0313,188.5 Q293.3281,188.5 292.7344,188.7813 Q292.1563,189.0625 291.7031,189.6875 Q291.25,190.3125 291.25,191.1719 L291.25,192.0938 Q291.25,193.125 292.0938,193.8125 Q292.9375,194.5 294.4375,194.5 Q295.3281,194.5 295.9531,194.2969 Q296.3125,194.1875 296.7188,193.8281 Q296.9844,193.625 297.125,193.5625 Q297.2656,193.5 297.4375,193.5 Q297.7656,193.5 298,193.7656 Q298.25,194.0156 298.25,194.375 Q298.25,194.7188 297.9063,195.125 Q297.4063,195.7188 296.6094,196.0469 Q295.5625,196.5 294.2813,196.5 Q292.7813,196.5 291.5781,195.9063 Q290.6094,195.4375 289.9219,194.4219 Q289.25,193.4063 289.25,192.2031 L289.25,191.1094 Q289.25,189.8594 289.8438,188.7656 Q290.4531,187.6719 291.5,187.0938 Q292.5625,186.5 293.75,186.5 Q294.4688,186.5 295.0938,186.75 Q295.7188,187 296.25,187.5 Z " fill="#000000"/><text fill="#000000" font-family="sans-serif" font-size="12" lengthAdjust="spacing" textLength="103" x="314.75" y="195.9102">OverviewController</text><line style="stroke:#A80036;stroke-width:1.5;" x1="234.5" x2="465.5" y1="207" y2="207"/><line style="stroke:#A80036;stroke-width:1.5;" x1="234.5" x2="465.5" y1="215" y2="215"/><ellipse cx="244.5" cy="226" fill="#84BE84" rx="3" ry="3" style="stroke:#038048;stroke-width:1.0;"/><text fill="#000000" font-family="sans-serif" font-size="11" lengthAdjust="spacing" textLength="184" x="253.5" y="230.4189">getIntervalTestList(initialDate,endDate)</text><ellipse cx="244.5" cy="239.8359" fill="#84BE84" rx="3" ry="3" style="stroke:#038048;stroke-width:1.0;"/><text fill="#000000" font-family="sans-serif" font-size="11" lengthAdjust="spacing" textLength="104" x="253.5" y="244.2549">getNumberOfClients()</text><ellipse cx="244.5" cy="253.6719" fill="#84BE84" rx="3" ry="3" style="stroke:#038048;stroke-width:1.0;"/><text fill="#000000" font-family="sans-serif" font-size="11" lengthAdjust="spacing" textLength="123" x="253.5" y="258.0908">getNumberTestsSystem()</text><ellipse cx="244.5" cy="267.5078" fill="#84BE84" rx="3" ry="3" style="stroke:#038048;stroke-width:1.0;"/><text fill="#000000" font-family="sans-serif" font-size="11" lengthAdjust="spacing" textLength="128" x="253.5" y="271.9268">getNumberClientsSystem()</text><ellipse cx="244.5" cy="281.3438" fill="#84BE84" rx="3" ry="3" style="stroke:#038048;stroke-width:1.0;"/><text fill="#000000" font-family="sans-serif" font-size="11" lengthAdjust="spacing" textLength="186" x="253.5" y="285.7627">getNumberOfTestsWaitingForResults()</text><ellipse cx="244.5" cy="295.1797" fill="#84BE84" rx="3" ry="3" style="stroke:#038048;stroke-width:1.0;"/><text fill="#000000" font-family="sans-serif" font-size="11" lengthAdjust="spacing" textLength="197" x="253.5" y="299.5986">getNumberOfTestsWaitingForDiagnosis()</text><ellipse cx="244.5" cy="309.0156" fill="#84BE84" rx="3" ry="3" style="stroke:#038048;stroke-width:1.0;"/><text fill="#000000" font-family="sans-serif" font-size="11" lengthAdjust="spacing" textLength="174" x="253.5" y="313.4346">getTotalNumberOfTestsProcessed()</text><ellipse cx="244.5" cy="322.8516" fill="#84BE84" rx="3" ry="3" style="stroke:#038048;stroke-width:1.0;"/><text fill="#000000" font-family="sans-serif" font-size="11" lengthAdjust="spacing" textLength="118" x="253.5" y="327.2705">getAvailableAlgorithms()</text><ellipse cx="244.5" cy="336.6875" fill="#84BE84" rx="3" ry="3" style="stroke:#038048;stroke-width:1.0;"/><text fill="#000000" font-family="sans-serif" font-size="11" lengthAdjust="spacing" textLength="176" x="253.5" y="341.1064">getSubsequenceWithMaximumSum()</text><ellipse cx="244.5" cy="350.5234" fill="#84BE84" rx="3" ry="3" style="stroke:#038048;stroke-width:1.0;"/><text fill="#000000" font-family="sans-serif" font-size="11" lengthAdjust="spacing" textLength="207" x="253.5" y="354.9424">getPeriodSubSequenceWithMaximumSum()</text><!--MD5=[e3c1d1270012c6b2c5c7c678a4b80154]
class BenchmarkAdapter--><rect codeLine="23" fill="#FEFECE" filter="url(#f1wrawq4xc625a)" height="48" id="BenchmarkAdapter" style="stroke:#A80036;stroke-width:1.5;" width="137" x="775.5" y="748.5"/><ellipse cx="790.5" cy="764.5" fill="#ADD1B2" rx="11" ry="11" style="stroke:#A80036;stroke-width:1.0;"/><path d="M792.5,761 Q792.7031,760.5 792.9375,760.25 Q793.1719,760 793.4375,760 Q793.9063,760 794.2031,760.2813 Q794.5,760.5625 794.5,761.2188 L794.5,762.7813 Q794.5,763.4375 794.2188,763.7188 Q793.9375,764 793.5,764 Q793.1094,764 792.8594,763.8281 Q792.6094,763.6563 792.5,763.2031 Q792.4531,762.8906 792.2813,762.7188 Q791.9688,762.3906 791.4063,762.2031 Q790.8438,762 790.2813,762 Q789.5781,762 788.9844,762.2813 Q788.4063,762.5625 787.9531,763.1875 Q787.5,763.8125 787.5,764.6719 L787.5,765.5938 Q787.5,766.625 788.3438,767.3125 Q789.1875,768 790.6875,768 Q791.5781,768 792.2031,767.7969 Q792.5625,767.6875 792.9688,767.3281 Q793.2344,767.125 793.375,767.0625 Q793.5156,767 793.6875,767 Q794.0156,767 794.25,767.2656 Q794.5,767.5156 794.5,767.875 Q794.5,768.2188 794.1563,768.625 Q793.6563,769.2188 792.8594,769.5469 Q791.8125,770 790.5313,770 Q789.0313,770 787.8281,769.4063 Q786.8594,768.9375 786.1719,767.9219 Q785.5,766.9063 785.5,765.7031 L785.5,764.6094 Q785.5,763.3594 786.0938,762.2656 Q786.7031,761.1719 787.75,760.5938 Q788.8125,760 790,760 Q790.7188,760 791.3438,760.25 Q791.9688,760.5 792.5,761 Z " fill="#000000"/><text fill="#000000" font-family="sans-serif" font-size="12" lengthAdjust="spacing" textLength="105" x="804.5" y="769.4102">BenchmarkAdapter</text><line style="stroke:#A80036;stroke-width:1.5;" x1="776.5" x2="911.5" y1="780.5" y2="780.5"/><line style="stroke:#A80036;stroke-width:1.5;" x1="776.5" x2="911.5" y1="788.5" y2="788.5"/><!--MD5=[353627c8c411a6e119df40e03d4587a6]
class BruteForceAdapter--><rect codeLine="26" fill="#FEFECE" filter="url(#f1wrawq4xc625a)" height="48" id="BruteForceAdapter" style="stroke:#A80036;stroke-width:1.5;" width="134" x="948" y="748.5"/><ellipse cx="963" cy="764.5" fill="#ADD1B2" rx="11" ry="11" style="stroke:#A80036;stroke-width:1.0;"/><path d="M965,761 Q965.2031,760.5 965.4375,760.25 Q965.6719,760 965.9375,760 Q966.4063,760 966.7031,760.2813 Q967,760.5625 967,761.2188 L967,762.7813 Q967,763.4375 966.7188,763.7188 Q966.4375,764 966,764 Q965.6094,764 965.3594,763.8281 Q965.1094,763.6563 965,763.2031 Q964.9531,762.8906 964.7813,762.7188 Q964.4688,762.3906 963.9063,762.2031 Q963.3438,762 962.7813,762 Q962.0781,762 961.4844,762.2813 Q960.9063,762.5625 960.4531,763.1875 Q960,763.8125 960,764.6719 L960,765.5938 Q960,766.625 960.8438,767.3125 Q961.6875,768 963.1875,768 Q964.0781,768 964.7031,767.7969 Q965.0625,767.6875 965.4688,767.3281 Q965.7344,767.125 965.875,767.0625 Q966.0156,767 966.1875,767 Q966.5156,767 966.75,767.2656 Q967,767.5156 967,767.875 Q967,768.2188 966.6563,768.625 Q966.1563,769.2188 965.3594,769.5469 Q964.3125,770 963.0313,770 Q961.5313,770 960.3281,769.4063 Q959.3594,768.9375 958.6719,767.9219 Q958,766.9063 958,765.7031 L958,764.6094 Q958,763.3594 958.5938,762.2656 Q959.2031,761.1719 960.25,760.5938 Q961.3125,760 962.5,760 Q963.2188,760 963.8438,760.25 Q964.4688,760.5 965,761 Z " fill="#000000"/><text fill="#000000" font-family="sans-serif" font-size="12" lengthAdjust="spacing" textLength="102" x="977" y="769.4102">BruteForceAdapter</text><line style="stroke:#A80036;stroke-width:1.5;" x1="949" x2="1081" y1="780.5" y2="780.5"/><line style="stroke:#A80036;stroke-width:1.5;" x1="949" x2="1081" y1="788.5" y2="788.5"/><!--MD5=[02e4b9b7573f1156f41e60aa5b4e25a4]
class Company--><rect codeLine="31" fill="#FEFECE" filter="url(#f1wrawq4xc625a)" height="89.5078" id="Company" style="stroke:#A80036;stroke-width:1.5;" width="113" x="361.5" y="727.5"/><ellipse cx="389.1" cy="743.5" fill="#ADD1B2" rx="11" ry="11" style="stroke:#A80036;stroke-width:1.0;"/><path d="M391.1,740 Q391.3031,739.5 391.5375,739.25 Q391.7719,739 392.0375,739 Q392.5063,739 392.8031,739.2813 Q393.1,739.5625 393.1,740.2188 L393.1,741.7813 Q393.1,742.4375 392.8188,742.7188 Q392.5375,743 392.1,743 Q391.7094,743 391.4594,742.8281 Q391.2094,742.6563 391.1,742.2031 Q391.0531,741.8906 390.8813,741.7188 Q390.5688,741.3906 390.0063,741.2031 Q389.4438,741 388.8813,741 Q388.1781,741 387.5844,741.2813 Q387.0063,741.5625 386.5531,742.1875 Q386.1,742.8125 386.1,743.6719 L386.1,744.5938 Q386.1,745.625 386.9438,746.3125 Q387.7875,747 389.2875,747 Q390.1781,747 390.8031,746.7969 Q391.1625,746.6875 391.5688,746.3281 Q391.8344,746.125 391.975,746.0625 Q392.1156,746 392.2875,746 Q392.6156,746 392.85,746.2656 Q393.1,746.5156 393.1,746.875 Q393.1,747.2188 392.7563,747.625 Q392.2563,748.2188 391.4594,748.5469 Q390.4125,749 389.1313,749 Q387.6313,749 386.4281,748.4063 Q385.4594,747.9375 384.7719,746.9219 Q384.1,745.9063 384.1,744.7031 L384.1,743.6094 Q384.1,742.3594 384.6938,741.2656 Q385.3031,740.1719 386.35,739.5938 Q387.4125,739 388.6,739 Q389.3188,739 389.9438,739.25 Q390.5688,739.5 391.1,740 Z " fill="#000000"/><text fill="#000000" font-family="sans-serif" font-size="12" lengthAdjust="spacing" textLength="53" x="405.9" y="748.4102">Company</text><line style="stroke:#A80036;stroke-width:1.5;" x1="362.5" x2="473.5" y1="759.5" y2="759.5"/><line style="stroke:#A80036;stroke-width:1.5;" x1="362.5" x2="473.5" y1="767.5" y2="767.5"/><ellipse cx="372.5" cy="778.5" fill="#84BE84" rx="3" ry="3" style="stroke:#038048;stroke-width:1.0;"/><text fill="#000000" font-family="sans-serif" font-size="11" lengthAdjust="spacing" textLength="70" x="381.5" y="782.9189">getTestStore()</text><ellipse cx="372.5" cy="792.3359" fill="#84BE84" rx="3" ry="3" style="stroke:#038048;stroke-width:1.0;"/><text fill="#000000" font-family="sans-serif" font-size="11" lengthAdjust="spacing" textLength="75" x="381.5" y="796.7549">getClientStore()</text><ellipse cx="372.5" cy="806.1719" fill="#84BE84" rx="3" ry="3" style="stroke:#038048;stroke-width:1.0;"/><text fill="#000000" font-family="sans-serif" font-size="11" lengthAdjust="spacing" textLength="87" x="381.5" y="810.5908">createOverview()</text><!--MD5=[df38be88ccee13e832d6fafd6288a4ca]
class Test--><rect codeLine="37" fill="#FEFECE" filter="url(#f1wrawq4xc625a)" height="117.1797" id="Test" style="stroke:#A80036;stroke-width:1.5;" width="110" x="510" y="714"/><ellipse cx="549.3" cy="730" fill="#ADD1B2" rx="11" ry="11" style="stroke:#A80036;stroke-width:1.0;"/><path d="M551.3,726.5 Q551.5031,726 551.7375,725.75 Q551.9719,725.5 552.2375,725.5 Q552.7063,725.5 553.0031,725.7813 Q553.3,726.0625 553.3,726.7188 L553.3,728.2813 Q553.3,728.9375 553.0188,729.2188 Q552.7375,729.5 552.3,729.5 Q551.9094,729.5 551.6594,729.3281 Q551.4094,729.1563 551.3,728.7031 Q551.2531,728.3906 551.0813,728.2188 Q550.7688,727.8906 550.2063,727.7031 Q549.6438,727.5 549.0813,727.5 Q548.3781,727.5 547.7844,727.7813 Q547.2063,728.0625 546.7531,728.6875 Q546.3,729.3125 546.3,730.1719 L546.3,731.0938 Q546.3,732.125 547.1438,732.8125 Q547.9875,733.5 549.4875,733.5 Q550.3781,733.5 551.0031,733.2969 Q551.3625,733.1875 551.7688,732.8281 Q552.0344,732.625 552.175,732.5625 Q552.3156,732.5 552.4875,732.5 Q552.8156,732.5 553.05,732.7656 Q553.3,733.0156 553.3,733.375 Q553.3,733.7188 552.9563,734.125 Q552.4563,734.7188 551.6594,735.0469 Q550.6125,735.5 549.3313,735.5 Q547.8313,735.5 546.6281,734.9063 Q545.6594,734.4375 544.9719,733.4219 Q544.3,732.4063 544.3,731.2031 L544.3,730.1094 Q544.3,728.8594 544.8938,727.7656 Q545.5031,726.6719 546.55,726.0938 Q547.6125,725.5 548.8,725.5 Q549.5188,725.5 550.1438,725.75 Q550.7688,726 551.3,726.5 Z " fill="#000000"/><text fill="#000000" font-family="sans-serif" font-size="12" lengthAdjust="spacing" textLength="24" x="568.7" y="734.9102">Test</text><line style="stroke:#A80036;stroke-width:1.5;" x1="511" x2="619" y1="746" y2="746"/><rect fill="none" height="6" style="stroke:#C82930;stroke-width:1.0;" width="6" x="518" y="754"/><text fill="#000000" font-family="sans-serif" font-size="11" lengthAdjust="spacing" textLength="25" x="530" y="761.4189">client</text><rect fill="none" height="6" style="stroke:#C82930;stroke-width:1.0;" width="6" x="518" y="767.8359"/><text fill="#000000" font-family="sans-serif" font-size="11" lengthAdjust="spacing" textLength="42" x="530" y="775.2549">nhscode</text><rect fill="none" height="6" style="stroke:#C82930;stroke-width:1.0;" width="6" x="518" y="781.6719"/><text fill="#000000" font-family="sans-serif" font-size="11" lengthAdjust="spacing" textLength="84" x="530" y="789.0908">testParameterList</text><rect fill="none" height="6" style="stroke:#C82930;stroke-width:1.0;" width="6" x="518" y="795.5078"/><text fill="#000000" font-family="sans-serif" font-size="11" lengthAdjust="spacing" textLength="57" x="530" y="802.9268">stateOfTest</text><rect fill="none" height="6" style="stroke:#C82930;stroke-width:1.0;" width="6" x="518" y="809.3438"/><text fill="#000000" font-family="sans-serif" font-size="11" lengthAdjust="spacing" textLength="60" x="530" y="816.7627">internalCode</text><line style="stroke:#A80036;stroke-width:1.5;" x1="511" x2="619" y1="823.1797" y2="823.1797"/><!--MD5=[ed6624c6556d5e7b1bd23032162d20b7]
class Client--><rect codeLine="44" fill="#FEFECE" filter="url(#f1wrawq4xc625a)" height="48" id="Client" style="stroke:#A80036;stroke-width:1.5;" width="64" x="655" y="748.5"/><ellipse cx="670" cy="764.5" fill="#ADD1B2" rx="11" ry="11" style="stroke:#A80036;stroke-width:1.0;"/><path d="M672,761 Q672.2031,760.5 672.4375,760.25 Q672.6719,760 672.9375,760 Q673.4063,760 673.7031,760.2813 Q674,760.5625 674,761.2188 L674,762.7813 Q674,763.4375 673.7188,763.7188 Q673.4375,764 673,764 Q672.6094,764 672.3594,763.8281 Q672.1094,763.6563 672,763.2031 Q671.9531,762.8906 671.7813,762.7188 Q671.4688,762.3906 670.9063,762.2031 Q670.3438,762 669.7813,762 Q669.0781,762 668.4844,762.2813 Q667.9063,762.5625 667.4531,763.1875 Q667,763.8125 667,764.6719 L667,765.5938 Q667,766.625 667.8438,767.3125 Q668.6875,768 670.1875,768 Q671.0781,768 671.7031,767.7969 Q672.0625,767.6875 672.4688,767.3281 Q672.7344,767.125 672.875,767.0625 Q673.0156,767 673.1875,767 Q673.5156,767 673.75,767.2656 Q674,767.5156 674,767.875 Q674,768.2188 673.6563,768.625 Q673.1563,769.2188 672.3594,769.5469 Q671.3125,770 670.0313,770 Q668.5313,770 667.3281,769.4063 Q666.3594,768.9375 665.6719,767.9219 Q665,766.9063 665,765.7031 L665,764.6094 Q665,763.3594 665.5938,762.2656 Q666.2031,761.1719 667.25,760.5938 Q668.3125,760 669.5,760 Q670.2188,760 670.8438,760.25 Q671.4688,760.5 672,761 Z " fill="#000000"/><text fill="#000000" font-family="sans-serif" font-size="12" lengthAdjust="spacing" textLength="32" x="684" y="769.4102">Client</text><line style="stroke:#A80036;stroke-width:1.5;" x1="656" x2="718" y1="780.5" y2="780.5"/><line style="stroke:#A80036;stroke-width:1.5;" x1="656" x2="718" y1="788.5" y2="788.5"/><!--MD5=[6488d949f0b3201a1a4d4b30662da8d5]
class Overview--><rect codeLine="46" fill="#FEFECE" filter="url(#f1wrawq4xc625a)" height="269.375" id="Overview" style="stroke:#A80036;stroke-width:1.5;" width="294" x="32" y="638"/><ellipse cx="150.25" cy="654" fill="#ADD1B2" rx="11" ry="11" style="stroke:#A80036;stroke-width:1.0;"/><path d="M152.25,650.5 Q152.4531,650 152.6875,649.75 Q152.9219,649.5 153.1875,649.5 Q153.6563,649.5 153.9531,649.7813 Q154.25,650.0625 154.25,650.7188 L154.25,652.2813 Q154.25,652.9375 153.9688,653.2188 Q153.6875,653.5 153.25,653.5 Q152.8594,653.5 152.6094,653.3281 Q152.3594,653.1563 152.25,652.7031 Q152.2031,652.3906 152.0313,652.2188 Q151.7188,651.8906 151.1563,651.7031 Q150.5938,651.5 150.0313,651.5 Q149.3281,651.5 148.7344,651.7813 Q148.1563,652.0625 147.7031,652.6875 Q147.25,653.3125 147.25,654.1719 L147.25,655.0938 Q147.25,656.125 148.0938,656.8125 Q148.9375,657.5 150.4375,657.5 Q151.3281,657.5 151.9531,657.2969 Q152.3125,657.1875 152.7188,656.8281 Q152.9844,656.625 153.125,656.5625 Q153.2656,656.5 153.4375,656.5 Q153.7656,656.5 154,656.7656 Q154.25,657.0156 154.25,657.375 Q154.25,657.7188 153.9063,658.125 Q153.4063,658.7188 152.6094,659.0469 Q151.5625,659.5 150.2813,659.5 Q148.7813,659.5 147.5781,658.9063 Q146.6094,658.4375 145.9219,657.4219 Q145.25,656.4063 145.25,655.2031 L145.25,654.1094 Q145.25,652.8594 145.8438,651.7656 Q146.4531,650.6719 147.5,650.0938 Q148.5625,649.5 149.75,649.5 Q150.4688,649.5 151.0938,649.75 Q151.7188,650 152.25,650.5 Z " fill="#000000"/><text fill="#000000" font-family="sans-serif" font-size="12" lengthAdjust="spacing" textLength="49" x="170.75" y="658.9102">Overview</text><line style="stroke:#A80036;stroke-width:1.5;" x1="33" x2="325" y1="670" y2="670"/><line style="stroke:#A80036;stroke-width:1.5;" x1="33" x2="325" y1="678" y2="678"/><ellipse cx="43" cy="689" fill="#84BE84" rx="3" ry="3" style="stroke:#038048;stroke-width:1.0;"/><text fill="#000000" font-family="sans-serif" font-size="11" lengthAdjust="spacing" textLength="110" x="52" y="693.4189">getAssociatedClients()</text><ellipse cx="43" cy="702.8359" fill="#84BE84" rx="3" ry="3" style="stroke:#038048;stroke-width:1.0;"/><text fill="#000000" font-family="sans-serif" font-size="11" lengthAdjust="spacing" textLength="156" x="52" y="707.2549">getTestsWaitingForResultsDay()</text><ellipse cx="43" cy="716.6719" fill="#84BE84" rx="3" ry="3" style="stroke:#038048;stroke-width:1.0;"/><text fill="#000000" font-family="sans-serif" font-size="11" lengthAdjust="spacing" textLength="167" x="52" y="721.0908">getTestsWaitingForDiagnosisDay()</text><ellipse cx="43" cy="730.5078" fill="#84BE84" rx="3" ry="3" style="stroke:#038048;stroke-width:1.0;"/><text fill="#000000" font-family="sans-serif" font-size="11" lengthAdjust="spacing" textLength="164" x="52" y="734.9268">getNumberOfTestsPrcossedDay()</text><ellipse cx="43" cy="744.3438" fill="#84BE84" rx="3" ry="3" style="stroke:#038048;stroke-width:1.0;"/><text fill="#000000" font-family="sans-serif" font-size="11" lengthAdjust="spacing" textLength="86" x="52" y="748.7627">getIntervalDates()</text><ellipse cx="43" cy="758.1797" fill="#84BE84" rx="3" ry="3" style="stroke:#038048;stroke-width:1.0;"/><text fill="#000000" font-family="sans-serif" font-size="11" lengthAdjust="spacing" textLength="180" x="52" y="762.5986">getSequenceTestWaitingForResults()</text><ellipse cx="43" cy="772.0156" fill="#84BE84" rx="3" ry="3" style="stroke:#038048;stroke-width:1.0;"/><text fill="#000000" font-family="sans-serif" font-size="11" lengthAdjust="spacing" textLength="138" x="52" y="776.4346">getSequenceTestValidated()</text><ellipse cx="43" cy="785.8516" fill="#84BE84" rx="3" ry="3" style="stroke:#038048;stroke-width:1.0;"/><text fill="#000000" font-family="sans-serif" font-size="11" lengthAdjust="spacing" textLength="92" x="52" y="790.2705">getSequenceAux()</text><ellipse cx="43" cy="799.6875" fill="#84BE84" rx="3" ry="3" style="stroke:#038048;stroke-width:1.0;"/><text fill="#000000" font-family="sans-serif" font-size="11" lengthAdjust="spacing" textLength="104" x="52" y="804.1064">getNumberOfClients()</text><ellipse cx="43" cy="813.5234" fill="#84BE84" rx="3" ry="3" style="stroke:#038048;stroke-width:1.0;"/><text fill="#000000" font-family="sans-serif" font-size="11" lengthAdjust="spacing" textLength="186" x="52" y="817.9424">getNumberOfTestsWaitingForResults()</text><ellipse cx="43" cy="827.3594" fill="#84BE84" rx="3" ry="3" style="stroke:#038048;stroke-width:1.0;"/><text fill="#000000" font-family="sans-serif" font-size="11" lengthAdjust="spacing" textLength="197" x="52" y="831.7783">getNumberOfTestsWaitingForDiagnosis()</text><ellipse cx="43" cy="841.1953" fill="#84BE84" rx="3" ry="3" style="stroke:#038048;stroke-width:1.0;"/><text fill="#000000" font-family="sans-serif" font-size="11" lengthAdjust="spacing" textLength="174" x="52" y="845.6143">getTotalNumberOfTestsProcessed()</text><ellipse cx="43" cy="855.0313" fill="#84BE84" rx="3" ry="3" style="stroke:#038048;stroke-width:1.0;"/><text fill="#000000" font-family="sans-serif" font-size="11" lengthAdjust="spacing" textLength="118" x="52" y="859.4502">getAvailableAlgorithms()</text><ellipse cx="43" cy="868.8672" fill="#84BE84" rx="3" ry="3" style="stroke:#038048;stroke-width:1.0;"/><text fill="#000000" font-family="sans-serif" font-size="11" lengthAdjust="spacing" textLength="176" x="52" y="873.2861">getSubsequenceWithMaximumSum()</text><ellipse cx="43" cy="882.7031" fill="#84BE84" rx="3" ry="3" style="stroke:#038048;stroke-width:1.0;"/><text fill="#000000" font-family="sans-serif" font-size="11" lengthAdjust="spacing" textLength="207" x="52" y="887.1221">getPeriodSubSequenceWithMaximumSum()</text><ellipse cx="43" cy="896.5391" fill="#84BE84" rx="3" ry="3" style="stroke:#038048;stroke-width:1.0;"/><text fill="#000000" font-family="sans-serif" font-size="11" lengthAdjust="spacing" textLength="268" x="52" y="900.958">periodSubSequenceMaxSum(subSequence, sequence)</text><!--MD5=[0f6f7964b844a64b0496af0dda7914bd]
class TestStore--><rect codeLine="69" fill="#FEFECE" filter="url(#f1wrawq4xc625a)" height="89.5078" id="TestStore" style="stroke:#A80036;stroke-width:1.5;" width="210" x="403" y="446"/><ellipse cx="477.25" cy="462" fill="#ADD1B2" rx="11" ry="11" style="stroke:#A80036;stroke-width:1.0;"/><path d="M479.25,458.5 Q479.4531,458 479.6875,457.75 Q479.9219,457.5 480.1875,457.5 Q480.6563,457.5 480.9531,457.7813 Q481.25,458.0625 481.25,458.7188 L481.25,460.2813 Q481.25,460.9375 480.9688,461.2188 Q480.6875,461.5 480.25,461.5 Q479.8594,461.5 479.6094,461.3281 Q479.3594,461.1563 479.25,460.7031 Q479.2031,460.3906 479.0313,460.2188 Q478.7188,459.8906 478.1563,459.7031 Q477.5938,459.5 477.0313,459.5 Q476.3281,459.5 475.7344,459.7813 Q475.1563,460.0625 474.7031,460.6875 Q474.25,461.3125 474.25,462.1719 L474.25,463.0938 Q474.25,464.125 475.0938,464.8125 Q475.9375,465.5 477.4375,465.5 Q478.3281,465.5 478.9531,465.2969 Q479.3125,465.1875 479.7188,464.8281 Q479.9844,464.625 480.125,464.5625 Q480.2656,464.5 480.4375,464.5 Q480.7656,464.5 481,464.7656 Q481.25,465.0156 481.25,465.375 Q481.25,465.7188 480.9063,466.125 Q480.4063,466.7188 479.6094,467.0469 Q478.5625,467.5 477.2813,467.5 Q475.7813,467.5 474.5781,466.9063 Q473.6094,466.4375 472.9219,465.4219 Q472.25,464.4063 472.25,463.2031 L472.25,462.1094 Q472.25,460.8594 472.8438,459.7656 Q473.4531,458.6719 474.5,458.0938 Q475.5625,457.5 476.75,457.5 Q477.4688,457.5 478.0938,457.75 Q478.7188,458 479.25,458.5 Z " fill="#000000"/><text fill="#000000" font-family="sans-serif" font-size="12" lengthAdjust="spacing" textLength="53" x="497.75" y="466.9102">TestStore</text><line style="stroke:#A80036;stroke-width:1.5;" x1="404" x2="612" y1="478" y2="478"/><text fill="#000000" font-family="sans-serif" font-size="11" lengthAdjust="spacing" textLength="6" x="409" y="493.4189">+</text><line style="stroke:#A80036;stroke-width:1.5;" x1="404" x2="612" y1="499.8359" y2="499.8359"/><ellipse cx="414" cy="510.8359" fill="#84BE84" rx="3" ry="3" style="stroke:#038048;stroke-width:1.0;"/><text fill="#000000" font-family="sans-serif" font-size="11" lengthAdjust="spacing" textLength="184" x="423" y="515.2549">getIntervalTestList(initialDate,endDate)</text><ellipse cx="414" cy="524.6719" fill="#84BE84" rx="3" ry="3" style="stroke:#038048;stroke-width:1.0;"/><text fill="#000000" font-family="sans-serif" font-size="11" lengthAdjust="spacing" textLength="123" x="423" y="529.0908">getNumberTestsSystem()</text><!--MD5=[55cb992be19579b505cea3c5691093cb]
class ClientStore--><rect codeLine="74" fill="#FEFECE" filter="url(#f1wrawq4xc625a)" height="61.8359" id="ClientStore" style="stroke:#A80036;stroke-width:1.5;" width="192" x="648" y="460"/><ellipse cx="709.25" cy="476" fill="#ADD1B2" rx="11" ry="11" style="stroke:#A80036;stroke-width:1.0;"/><path d="M711.25,472.5 Q711.4531,472 711.6875,471.75 Q711.9219,471.5 712.1875,471.5 Q712.6563,471.5 712.9531,471.7813 Q713.25,472.0625 713.25,472.7188 L713.25,474.2813 Q713.25,474.9375 712.9688,475.2188 Q712.6875,475.5 712.25,475.5 Q711.8594,475.5 711.6094,475.3281 Q711.3594,475.1563 711.25,474.7031 Q711.2031,474.3906 711.0313,474.2188 Q710.7188,473.8906 710.1563,473.7031 Q709.5938,473.5 709.0313,473.5 Q708.3281,473.5 707.7344,473.7813 Q707.1563,474.0625 706.7031,474.6875 Q706.25,475.3125 706.25,476.1719 L706.25,477.0938 Q706.25,478.125 707.0938,478.8125 Q707.9375,479.5 709.4375,479.5 Q710.3281,479.5 710.9531,479.2969 Q711.3125,479.1875 711.7188,478.8281 Q711.9844,478.625 712.125,478.5625 Q712.2656,478.5 712.4375,478.5 Q712.7656,478.5 713,478.7656 Q713.25,479.0156 713.25,479.375 Q713.25,479.7188 712.9063,480.125 Q712.4063,480.7188 711.6094,481.0469 Q710.5625,481.5 709.2813,481.5 Q707.7813,481.5 706.5781,480.9063 Q705.6094,480.4375 704.9219,479.4219 Q704.25,478.4063 704.25,477.2031 L704.25,476.1094 Q704.25,474.8594 704.8438,473.7656 Q705.4531,472.6719 706.5,472.0938 Q707.5625,471.5 708.75,471.5 Q709.4688,471.5 710.0938,471.75 Q710.7188,472 711.25,472.5 Z " fill="#000000"/><text fill="#000000" font-family="sans-serif" font-size="12" lengthAdjust="spacing" textLength="61" x="729.75" y="480.9102">ClientStore</text><line style="stroke:#A80036;stroke-width:1.5;" x1="649" x2="839" y1="492" y2="492"/><line style="stroke:#A80036;stroke-width:1.5;" x1="649" x2="839" y1="500" y2="500"/><ellipse cx="659" cy="511" fill="#84BE84" rx="3" ry="3" style="stroke:#038048;stroke-width:1.0;"/><text fill="#000000" font-family="sans-serif" font-size="11" lengthAdjust="spacing" textLength="166" x="668" y="515.4189">getNumberOfClientsInTheSystem()</text><!--MD5=[2b56cfd589cfe749874a2b85e3eb71ae]
class SubsequenceWithMaximumSum--><rect codeLine="81" fill="#FEFECE" filter="url(#f1wrawq4xc625a)" height="61.8359" id="SubsequenceWithMaximumSum" style="stroke:#A80036;stroke-width:1.5;" width="213" x="737.5" y="1009"/><ellipse cx="752.5" cy="1025" fill="#B4A7E5" rx="11" ry="11" style="stroke:#A80036;stroke-width:1.0;"/><path d="M753.5,1022 L753.5,1028 L755.5,1028 L755.9844,1028 L756.5,1028.625 L756.5,1029 L756.5,1029.375 L755.9844,1030 L755.5,1030 L749.5,1030 L749.0156,1030 L748.5,1029.375 L748.5,1029 L748.5,1028.625 L749.0156,1028 L749.5,1028 L751.5,1028 L751.5,1022 L749.5,1022 L749.0156,1022 L748.5,1021.375 L748.5,1021 L748.5,1020.625 L749.0156,1020 L749.5,1020 L755.5,1020 L755.9844,1020 L756.5,1020.625 L756.5,1021 L756.5,1021.375 L755.9844,1022 L755.5,1022 L753.5,1022 Z " fill="#000000"/><text fill="#000000" font-family="sans-serif" font-size="12" font-style="italic" lengthAdjust="spacing" textLength="181" x="766.5" y="1029.9102">SubsequenceWithMaximumSum</text><line style="stroke:#A80036;stroke-width:1.5;" x1="738.5" x2="949.5" y1="1041" y2="1041"/><line style="stroke:#A80036;stroke-width:1.5;" x1="738.5" x2="949.5" y1="1049" y2="1049"/><ellipse cx="748.5" cy="1060" fill="#84BE84" rx="3" ry="3" style="stroke:#038048;stroke-width:1.0;"/><text fill="#000000" font-family="sans-serif" font-size="11" lengthAdjust="spacing" textLength="176" x="757.5" y="1064.4189">getSubsequenceWithMaximumSum()</text><!--MD5=[b5d43e6dde8b20d61eeaceec3ba46b57]
link OverviewUI to OverviewController--><path codeLine="87" d="M350,90.33 C350,110.21 350,140.17 350,169.81 " fill="none" id="OverviewUI-to-OverviewController" style="stroke:#A80036;stroke-width:1.0;stroke-dasharray:7.0,7.0;"/><polygon fill="#A80036" points="350,174.94,354,165.94,350,169.94,346,165.94,350,174.94" style="stroke:#A80036;stroke-width:1.0;"/><!--MD5=[afcffa63d31dbb8b6780357b49737f46]
link OverviewController to TestStore--><path codeLine="89" d="M415.86,361.12 C435.63,388.77 456.53,418.01 473.42,441.63 " fill="none" id="OverviewController-to-TestStore" style="stroke:#A80036;stroke-width:1.0;stroke-dasharray:7.0,7.0;"/><polygon fill="#A80036" points="476.52,445.97,474.5342,436.3234,473.6098,441.9042,468.029,440.9798,476.52,445.97" style="stroke:#A80036;stroke-width:1.0;"/><!--MD5=[0457e93c71bc111013c44081e8b80bd7]
link OverviewController to ClientStore--><path codeLine="90" d="M466.81,317.36 C518.5,340.5 579.18,370.1 631,402 C657.11,418.08 684.29,439.09 705.45,456.54 " fill="none" id="OverviewController-to-ClientStore" style="stroke:#A80036;stroke-width:1.0;stroke-dasharray:7.0,7.0;"/><polygon fill="#A80036" points="709.33,459.76,704.938,450.9446,705.4749,456.576,699.8436,457.1128,709.33,459.76" style="stroke:#A80036;stroke-width:1.0;"/><!--MD5=[57a7026b392c729204b0e62bf7ca30f7]
link OverviewController to Company--><path codeLine="91" d="M313.51,361.19 C293.08,429.04 279.65,520.5 324,586 C329.37,593.93 337.18,587.28 344,594 C379.27,628.77 398.51,682.84 408.46,722.17 " fill="none" id="OverviewController-to-Company" style="stroke:#A80036;stroke-width:1.0;stroke-dasharray:7.0,7.0;"/><polygon fill="#A80036" points="409.74,727.38,411.4646,717.6833,408.5408,722.5259,403.6981,719.6021,409.74,727.38" style="stroke:#A80036;stroke-width:1.0;"/><!--MD5=[5a202084d49e6a74b2adda1c4a7283a3]
link OverviewController to Test--><path codeLine="92" d="M337.83,361.3 C334.78,424.1 341.75,505.4 387,560 C390.91,564.72 487.5,589.83 492,594 C524.53,624.11 542.96,670.86 553.17,708.82 " fill="none" id="OverviewController-to-Test" style="stroke:#A80036;stroke-width:1.0;stroke-dasharray:7.0,7.0;"/><polygon fill="#A80036" points="554.49,713.88,556.0735,704.1593,553.2203,709.0439,548.3357,706.1907,554.49,713.88" style="stroke:#A80036;stroke-width:1.0;"/><!--MD5=[d4d19ca8196fb0860a5c43d404efb101]
link OverviewController to Overview--><path codeLine="93" d="M303.23,361.15 C297.07,374.69 291.12,388.6 286,402 C257.41,476.78 232.13,562.54 213.34,632.61 " fill="none" id="OverviewController-to-Overview" style="stroke:#A80036;stroke-width:1.0;stroke-dasharray:7.0,7.0;"/><polygon fill="#A80036" points="211.99,637.63,218.1922,629.9794,213.2899,632.8019,210.4673,627.8996,211.99,637.63" style="stroke:#A80036;stroke-width:1.0;"/><!--MD5=[7f6cf7f175eae0af66201860de5de971]
link Company to TestStore--><path codeLine="95" d="M432.19,727.42 C448.49,676.81 475.16,594 492.13,541.29 " fill="none" id="Company-to-TestStore" style="stroke:#A80036;stroke-width:1.0;"/><polygon fill="#A80036" points="493.74,536.29,487.1785,543.6349,492.2104,541.0503,494.795,546.0822,493.74,536.29" style="stroke:#A80036;stroke-width:1.0;"/><text fill="#000000" font-family="sans-serif" font-size="13" lengthAdjust="spacing" textLength="28" x="482" y="582.4951">uses</text><text fill="#000000" font-family="sans-serif" font-size="13" lengthAdjust="spacing" textLength="7" x="426.8937" y="716.5227">1</text><text fill="#000000" font-family="sans-serif" font-size="13" lengthAdjust="spacing" textLength="7" x="484.3535" y="557.0027">1</text><!--MD5=[b0f4f6db8206580012ef9cd998ed01c5]
link TestStore to Test--><path codeLine="96" d="M517.03,536.29 C526.52,582.81 541.52,656.38 552.22,708.84 " fill="none" id="TestStore-to-Test" style="stroke:#A80036;stroke-width:1.0;"/><polygon fill="#A80036" points="553.24,713.85,555.3596,704.2319,552.2402,708.951,547.5211,705.8316,553.24,713.85" style="stroke:#A80036;stroke-width:1.0;"/><text fill="#000000" font-family="sans-serif" font-size="13" lengthAdjust="spacing" textLength="37" x="527" y="582.4951">knows</text><text fill="#000000" font-family="sans-serif" font-size="13" lengthAdjust="spacing" textLength="7" x="510.7731" y="557.0027">1</text><text fill="#000000" font-family="sans-serif" font-size="13" lengthAdjust="spacing" textLength="5" x="546.5021" y="703.2326">*</text><!--MD5=[1d934105a045dbf126514c6917bd5072]
link ClientStore to Client--><path codeLine="97" d="M737.85,522.18 C726.75,576.6 703.53,690.45 692.74,743.35 " fill="none" id="ClientStore-to-Client" style="stroke:#A80036;stroke-width:1.0;"/><polygon fill="#A80036" points="691.74,748.28,697.4589,740.2616,692.7398,743.381,689.6204,738.6619,691.74,748.28" style="stroke:#A80036;stroke-width:1.0;"/><text fill="#000000" font-family="sans-serif" font-size="13" lengthAdjust="spacing" textLength="37" x="728" y="582.4951">knows</text><text fill="#000000" font-family="sans-serif" font-size="13" lengthAdjust="spacing" textLength="7" x="728.9502" y="543.4394">1</text><text fill="#000000" font-family="sans-serif" font-size="13" lengthAdjust="spacing" textLength="5" x="687.314" y="737.5638">*</text><!--MD5=[b93f17079b602d6561eaa7b2f9f4fd74]
link Overview to SubsequenceWithMaximumSum--><path codeLine="99" d="M306.23,907.01 C318.4,915.97 331.05,924.14 344,931 C467,996.2 626.85,1022.05 732.3,1032.29 " fill="none" id="Overview-to-SubsequenceWithMaximumSum" style="stroke:#A80036;stroke-width:1.0;"/><polygon fill="#A80036" points="737.28,1032.77,728.7116,1027.9138,732.3037,1032.2838,727.9337,1035.8759,737.28,1032.77" style="stroke:#A80036;stroke-width:1.0;"/><text fill="#000000" font-family="sans-serif" font-size="13" lengthAdjust="spacing" textLength="78" x="394" y="953.4951">makes use of</text><text fill="#000000" font-family="sans-serif" font-size="13" lengthAdjust="spacing" textLength="5" x="308.441" y="928.7433">*</text><text fill="#000000" font-family="sans-serif" font-size="13" lengthAdjust="spacing" textLength="7" x="722.5302" y="1029.2124">1</text><!--MD5=[8997d9d13c6ba1f9bb4ee6ff342a097d]
link BenchmarkAdapter to SubsequenceWithMaximumSum--><path codeLine="101" d="M844,796.6 C844,839.22 844,931.13 844,988.73 " fill="none" id="BenchmarkAdapter-to-SubsequenceWithMaximumSum" style="stroke:#A80036;stroke-width:1.0;stroke-dasharray:7.0,7.0;"/><polygon fill="none" points="851,988.95,844,1008.95,837,988.95,851,988.95" style="stroke:#A80036;stroke-width:1.0;"/><!--MD5=[a5b5fe6b30e64a5edc1781e50286c47a]
link BruteForceAdapter to SubsequenceWithMaximumSum--><path codeLine="102" d="M1004.12,796.66 C989.01,828.04 960.14,885.37 930,931 C915.9,952.35 898.61,974.67 883.24,993.44 " fill="none" id="BruteForceAdapter-to-SubsequenceWithMaximumSum" style="stroke:#A80036;stroke-width:1.0;stroke-dasharray:7.0,7.0;"/><polygon fill="none" points="888.53,998.02,870.35,1008.91,877.77,989.06,888.53,998.02" style="stroke:#A80036;stroke-width:1.0;"/><!--MD5=[7d439755bed94283d02e566e33c682ba]
@startuml


package ui {
class OverviewUI{}
}

package Controller{
class OverviewController{
+getIntervalTestList(initialDate,endDate)
+getNumberOfClients()
+getNumberTestsSystem()
+getNumberClientsSystem()
+getNumberOfTestsWaitingForResults()
+getNumberOfTestsWaitingForDiagnosis()
+getTotalNumberOfTestsProcessed()
+getAvailableAlgorithms()
+getSubsequenceWithMaximumSum()
+getPeriodSubSequenceWithMaximumSum()
}
}

package adapter{
class BenchmarkAdapter{
}

class BruteForceAdapter{
}
}

package model{
class Company{
+getTestStore()
+getClientStore()
+createOverview()

}
class Test{
-client
-nhscode
-testParameterList
-stateOfTest
-internalCode
}
class Client{
}
class Overview{
+getAssociatedClients()
+getTestsWaitingForResultsDay()
+getTestsWaitingForDiagnosisDay()
+getNumberOfTestsPrcossedDay()
+getIntervalDates()
+getSequenceTestWaitingForResults()
+getSequenceTestValidated()
+getSequenceAux()
+getNumberOfClients()
+getNumberOfTestsWaitingForResults()
+getNumberOfTestsWaitingForDiagnosis()
+getTotalNumberOfTestsProcessed()
+getAvailableAlgorithms()
+getSubsequenceWithMaximumSum()
+getPeriodSubSequenceWithMaximumSum()
+ periodSubSequenceMaxSum(subSequence, sequence)
}
}



package store{
class TestStore{
+getIntervalTestList(initialDate,endDate)
+getNumberTestsSystem()
+
}
class ClientStore{
+getNumberOfClientsInTheSystem()
}
}


package interfaces{
interface SubsequenceWithMaximumSum{
+getSubsequenceWithMaximumSum()
}
}


OverviewUI ..> OverviewController

OverviewController ..> TestStore
OverviewController ..> ClientStore
OverviewController ..> Company
OverviewController ..> Test
OverviewController ..> Overview

Company "1" - - - -> "1" TestStore : uses
TestStore "1" - -> "*" Test : knows
ClientStore "1" - -> "*" Client : knows

Overview "*" - ->"1"  SubsequenceWithMaximumSum : makes use of

BenchmarkAdapter..|>SubsequenceWithMaximumSum
BruteForceAdapter..|>SubsequenceWithMaximumSum

@enduml

PlantUML version 1.2021.5(Sun Apr 25 12:20:28 BST 2021)
(GPL source distribution)
Java Runtime: OpenJDK Runtime Environment
JVM: Dynamic Code Evolution 64-Bit Server VM
Default Encoding: Cp1252
Language: pt
Country: PT
--></g></svg>