<?xml version="1.0" encoding="UTF-8" standalone="no"?><svg xmlns="http://www.w3.org/2000/svg" xmlns:xlink="http://www.w3.org/1999/xlink" contentScriptType="application/ecmascript" contentStyleType="text/css" height="374px" preserveAspectRatio="none" style="width:557px;height:374px;" version="1.1" viewBox="0 0 557 374" width="557px" zoomAndPan="magnify"><defs><filter height="300%" id="fsbzf4hsmpj4" width="300%" x="-1" y="-1"><feGaussianBlur result="blurOut" stdDeviation="2.0"/><feColorMatrix in="blurOut" result="blurOut2" type="matrix" values="0 0 0 0 0 0 0 0 0 0 0 0 0 0 0 0 0 0 .4 0"/><feOffset dx="4.0" dy="4.0" in="blurOut2" result="blurOut3"/><feBlend in="SourceGraphic" in2="blurOut3" mode="normal"/></filter></defs><g><!--MD5=[02e4b9b7573f1156f41e60aa5b4e25a4]
class Company--><rect codeLine="6" fill="#FEFECE" filter="url(#fsbzf4hsmpj4)" height="53.8359" id="Company" style="stroke:#A80036;stroke-width:1.5;" width="85" x="28.5" y="7"/><ellipse cx="43.5" cy="23" fill="#ADD1B2" rx="11" ry="11" style="stroke:#A80036;stroke-width:1.0;"/><path d="M45.5,19.5 Q45.7031,19 45.9375,18.75 Q46.1719,18.5 46.4375,18.5 Q46.9063,18.5 47.2031,18.7813 Q47.5,19.0625 47.5,19.7188 L47.5,21.2813 Q47.5,21.9375 47.2188,22.2188 Q46.9375,22.5 46.5,22.5 Q46.1094,22.5 45.8594,22.3281 Q45.6094,22.1563 45.5,21.7031 Q45.4531,21.3906 45.2813,21.2188 Q44.9688,20.8906 44.4063,20.7031 Q43.8438,20.5 43.2813,20.5 Q42.5781,20.5 41.9844,20.7813 Q41.4063,21.0625 40.9531,21.6875 Q40.5,22.3125 40.5,23.1719 L40.5,24.0938 Q40.5,25.125 41.3438,25.8125 Q42.1875,26.5 43.6875,26.5 Q44.5781,26.5 45.2031,26.2969 Q45.5625,26.1875 45.9688,25.8281 Q46.2344,25.625 46.375,25.5625 Q46.5156,25.5 46.6875,25.5 Q47.0156,25.5 47.25,25.7656 Q47.5,26.0156 47.5,26.375 Q47.5,26.7188 47.1563,27.125 Q46.6563,27.7188 45.8594,28.0469 Q44.8125,28.5 43.5313,28.5 Q42.0313,28.5 40.8281,27.9063 Q39.8594,27.4375 39.1719,26.4219 Q38.5,25.4063 38.5,24.2031 L38.5,23.1094 Q38.5,21.8594 39.0938,20.7656 Q39.7031,19.6719 40.75,19.0938 Q41.8125,18.5 43,18.5 Q43.7188,18.5 44.3438,18.75 Q44.9688,19 45.5,19.5 Z " fill="#000000"/><text fill="#000000" font-family="sans-serif" font-size="12" lengthAdjust="spacing" textLength="53" x="57.5" y="27.9102">Company</text><line style="stroke:#A80036;stroke-width:1.5;" x1="29.5" x2="112.5" y1="39" y2="39"/><text fill="#000000" font-family="sans-serif" font-size="11" lengthAdjust="spacing" textLength="59" x="34.5" y="54.4189">-designation</text><!--MD5=[6488d949f0b3201a1a4d4b30662da8d5]
class Overview--><rect codeLine="10" fill="#FEFECE" filter="url(#fsbzf4hsmpj4)" height="40" id="Overview" style="stroke:#A80036;stroke-width:1.5;" width="81" x="200.5" y="104"/><ellipse cx="215.5" cy="120" fill="#ADD1B2" rx="11" ry="11" style="stroke:#A80036;stroke-width:1.0;"/><path d="M217.5,116.5 Q217.7031,116 217.9375,115.75 Q218.1719,115.5 218.4375,115.5 Q218.9063,115.5 219.2031,115.7813 Q219.5,116.0625 219.5,116.7188 L219.5,118.2813 Q219.5,118.9375 219.2188,119.2188 Q218.9375,119.5 218.5,119.5 Q218.1094,119.5 217.8594,119.3281 Q217.6094,119.1563 217.5,118.7031 Q217.4531,118.3906 217.2813,118.2188 Q216.9688,117.8906 216.4063,117.7031 Q215.8438,117.5 215.2813,117.5 Q214.5781,117.5 213.9844,117.7813 Q213.4063,118.0625 212.9531,118.6875 Q212.5,119.3125 212.5,120.1719 L212.5,121.0938 Q212.5,122.125 213.3438,122.8125 Q214.1875,123.5 215.6875,123.5 Q216.5781,123.5 217.2031,123.2969 Q217.5625,123.1875 217.9688,122.8281 Q218.2344,122.625 218.375,122.5625 Q218.5156,122.5 218.6875,122.5 Q219.0156,122.5 219.25,122.7656 Q219.5,123.0156 219.5,123.375 Q219.5,123.7188 219.1563,124.125 Q218.6563,124.7188 217.8594,125.0469 Q216.8125,125.5 215.5313,125.5 Q214.0313,125.5 212.8281,124.9063 Q211.8594,124.4375 211.1719,123.4219 Q210.5,122.4063 210.5,121.2031 L210.5,120.1094 Q210.5,118.8594 211.0938,117.7656 Q211.7031,116.6719 212.75,116.0938 Q213.8125,115.5 215,115.5 Q215.7188,115.5 216.3438,115.75 Q216.9688,116 217.5,116.5 Z " fill="#000000"/><text fill="#000000" font-family="sans-serif" font-size="12" lengthAdjust="spacing" textLength="49" x="229.5" y="124.9102">Overview</text><line style="stroke:#A80036;stroke-width:1.5;" x1="201.5" x2="280.5" y1="136" y2="136"/><!--MD5=[ed6624c6556d5e7b1bd23032162d20b7]
class Client--><rect codeLine="13" fill="#FEFECE" filter="url(#fsbzf4hsmpj4)" height="150.6875" id="Client" style="stroke:#A80036;stroke-width:1.5;" width="107" x="436" y="209.5"/><ellipse cx="470.35" cy="225.5" fill="#ADD1B2" rx="11" ry="11" style="stroke:#A80036;stroke-width:1.0;"/><path d="M472.35,222 Q472.5531,221.5 472.7875,221.25 Q473.0219,221 473.2875,221 Q473.7563,221 474.0531,221.2813 Q474.35,221.5625 474.35,222.2188 L474.35,223.7813 Q474.35,224.4375 474.0688,224.7188 Q473.7875,225 473.35,225 Q472.9594,225 472.7094,224.8281 Q472.4594,224.6563 472.35,224.2031 Q472.3031,223.8906 472.1313,223.7188 Q471.8188,223.3906 471.2563,223.2031 Q470.6938,223 470.1313,223 Q469.4281,223 468.8344,223.2813 Q468.2563,223.5625 467.8031,224.1875 Q467.35,224.8125 467.35,225.6719 L467.35,226.5938 Q467.35,227.625 468.1938,228.3125 Q469.0375,229 470.5375,229 Q471.4281,229 472.0531,228.7969 Q472.4125,228.6875 472.8188,228.3281 Q473.0844,228.125 473.225,228.0625 Q473.3656,228 473.5375,228 Q473.8656,228 474.1,228.2656 Q474.35,228.5156 474.35,228.875 Q474.35,229.2188 474.0063,229.625 Q473.5063,230.2188 472.7094,230.5469 Q471.6625,231 470.3813,231 Q468.8813,231 467.6781,230.4063 Q466.7094,229.9375 466.0219,228.9219 Q465.35,227.9063 465.35,226.7031 L465.35,225.6094 Q465.35,224.3594 465.9438,223.2656 Q466.5531,222.1719 467.6,221.5938 Q468.6625,221 469.85,221 Q470.5688,221 471.1938,221.25 Q471.8188,221.5 472.35,222 Z " fill="#000000"/><text fill="#000000" font-family="sans-serif" font-size="12" lengthAdjust="spacing" textLength="32" x="488.65" y="230.4102">Client</text><line style="stroke:#A80036;stroke-width:1.5;" x1="437" x2="542" y1="241.5" y2="241.5"/><text fill="#000000" font-family="sans-serif" font-size="11" lengthAdjust="spacing" textLength="30" x="442" y="256.9189">-name</text><text fill="#000000" font-family="sans-serif" font-size="11" lengthAdjust="spacing" textLength="28" x="442" y="270.7549">-email</text><text fill="#000000" font-family="sans-serif" font-size="11" lengthAdjust="spacing" textLength="71" x="442" y="284.5908">-phoneNumber</text><text fill="#000000" font-family="sans-serif" font-size="11" lengthAdjust="spacing" textLength="22" x="442" y="298.4268">-sex</text><text fill="#000000" font-family="sans-serif" font-size="11" lengthAdjust="spacing" textLength="15" x="442" y="312.2627">-tin</text><text fill="#000000" font-family="sans-serif" font-size="11" lengthAdjust="spacing" textLength="47" x="442" y="326.0986">-birthDate</text><text fill="#000000" font-family="sans-serif" font-size="11" lengthAdjust="spacing" textLength="59" x="442" y="339.9346">-nhsNumber</text><text fill="#000000" font-family="sans-serif" font-size="11" lengthAdjust="spacing" textLength="95" x="442" y="353.7705">-citizenCardNumber</text><!--MD5=[df38be88ccee13e832d6fafd6288a4ca]
class Test--><rect codeLine="24" fill="#FEFECE" filter="url(#fsbzf4hsmpj4)" height="150.6875" id="Test" style="stroke:#A80036;stroke-width:1.5;" width="128" x="7" y="165.5"/><ellipse cx="54.75" cy="181.5" fill="#ADD1B2" rx="11" ry="11" style="stroke:#A80036;stroke-width:1.0;"/><path d="M56.75,178 Q56.9531,177.5 57.1875,177.25 Q57.4219,177 57.6875,177 Q58.1563,177 58.4531,177.2813 Q58.75,177.5625 58.75,178.2188 L58.75,179.7813 Q58.75,180.4375 58.4688,180.7188 Q58.1875,181 57.75,181 Q57.3594,181 57.1094,180.8281 Q56.8594,180.6563 56.75,180.2031 Q56.7031,179.8906 56.5313,179.7188 Q56.2188,179.3906 55.6563,179.2031 Q55.0938,179 54.5313,179 Q53.8281,179 53.2344,179.2813 Q52.6563,179.5625 52.2031,180.1875 Q51.75,180.8125 51.75,181.6719 L51.75,182.5938 Q51.75,183.625 52.5938,184.3125 Q53.4375,185 54.9375,185 Q55.8281,185 56.4531,184.7969 Q56.8125,184.6875 57.2188,184.3281 Q57.4844,184.125 57.625,184.0625 Q57.7656,184 57.9375,184 Q58.2656,184 58.5,184.2656 Q58.75,184.5156 58.75,184.875 Q58.75,185.2188 58.4063,185.625 Q57.9063,186.2188 57.1094,186.5469 Q56.0625,187 54.7813,187 Q53.2813,187 52.0781,186.4063 Q51.1094,185.9375 50.4219,184.9219 Q49.75,183.9063 49.75,182.7031 L49.75,181.6094 Q49.75,180.3594 50.3438,179.2656 Q50.9531,178.1719 52,177.5938 Q53.0625,177 54.25,177 Q54.9688,177 55.5938,177.25 Q56.2188,177.5 56.75,178 Z " fill="#000000"/><text fill="#000000" font-family="sans-serif" font-size="12" lengthAdjust="spacing" textLength="24" x="75.25" y="186.4102">Test</text><line style="stroke:#A80036;stroke-width:1.5;" x1="8" x2="134" y1="197.5" y2="197.5"/><text fill="#000000" font-family="sans-serif" font-size="11" lengthAdjust="spacing" textLength="64" x="13" y="212.9189">-internalCode</text><text fill="#000000" font-family="sans-serif" font-size="11" lengthAdjust="spacing" textLength="47" x="13" y="226.7549">-nhsCode</text><text fill="#000000" font-family="sans-serif" font-size="11" lengthAdjust="spacing" textLength="57" x="13" y="240.5908">-description</text><text fill="#000000" font-family="sans-serif" font-size="11" lengthAdjust="spacing" textLength="116" x="13" y="254.4268">-dateOfSampleCollected</text><text fill="#000000" font-family="sans-serif" font-size="11" lengthAdjust="spacing" textLength="114" x="13" y="268.2627">-timeOfSampleCollected</text><text fill="#000000" font-family="sans-serif" font-size="11" lengthAdjust="spacing" textLength="114" x="13" y="282.0986">-dateOfSampleAnalysis</text><text fill="#000000" font-family="sans-serif" font-size="11" lengthAdjust="spacing" textLength="112" x="13" y="295.9346">-timeOfSampleAnalysis</text><text fill="#000000" font-family="sans-serif" font-size="11" lengthAdjust="spacing" textLength="28" x="13" y="309.7705">-state</text><!--MD5=[7421f545a0d8420c5bec41e74b387d9c]
class Employee--><rect fill="#FEFECE" filter="url(#fsbzf4hsmpj4)" height="40" id="Employee" style="stroke:#A80036;stroke-width:1.5;" width="87" x="446" y="104"/><ellipse cx="461" cy="120" fill="#ADD1B2" rx="11" ry="11" style="stroke:#A80036;stroke-width:1.0;"/><path d="M463,116.5 Q463.2031,116 463.4375,115.75 Q463.6719,115.5 463.9375,115.5 Q464.4063,115.5 464.7031,115.7813 Q465,116.0625 465,116.7188 L465,118.2813 Q465,118.9375 464.7188,119.2188 Q464.4375,119.5 464,119.5 Q463.6094,119.5 463.3594,119.3281 Q463.1094,119.1563 463,118.7031 Q462.9531,118.3906 462.7813,118.2188 Q462.4688,117.8906 461.9063,117.7031 Q461.3438,117.5 460.7813,117.5 Q460.0781,117.5 459.4844,117.7813 Q458.9063,118.0625 458.4531,118.6875 Q458,119.3125 458,120.1719 L458,121.0938 Q458,122.125 458.8438,122.8125 Q459.6875,123.5 461.1875,123.5 Q462.0781,123.5 462.7031,123.2969 Q463.0625,123.1875 463.4688,122.8281 Q463.7344,122.625 463.875,122.5625 Q464.0156,122.5 464.1875,122.5 Q464.5156,122.5 464.75,122.7656 Q465,123.0156 465,123.375 Q465,123.7188 464.6563,124.125 Q464.1563,124.7188 463.3594,125.0469 Q462.3125,125.5 461.0313,125.5 Q459.5313,125.5 458.3281,124.9063 Q457.3594,124.4375 456.6719,123.4219 Q456,122.4063 456,121.2031 L456,120.1094 Q456,118.8594 456.5938,117.7656 Q457.2031,116.6719 458.25,116.0938 Q459.3125,115.5 460.5,115.5 Q461.2188,115.5 461.8438,115.75 Q462.4688,116 463,116.5 Z " fill="#000000"/><text fill="#000000" font-family="sans-serif" font-size="12" lengthAdjust="spacing" textLength="55" x="475" y="124.9102">Employee</text><line style="stroke:#A80036;stroke-width:1.5;" x1="447" x2="532" y1="136" y2="136"/><!--MD5=[09366576ee87d48d594df10cacc83f45]
link Company to Employee--><path codeLine="37" d="M113.74,40.4 C177.3,50.5 301.96,71.73 406,98 C419.1,101.31 433.19,105.5 445.95,109.55 " fill="none" id="Company-Employee" style="stroke:#A80036;stroke-width:1.0;"/><polygon fill="#000000" points="222.3951,47.1947,214.1387,42.4742,212.9409,48.2287,222.3951,47.1947" style="stroke:#000000;stroke-width:1.0;"/><text fill="#000000" font-family="sans-serif" font-size="13" lengthAdjust="spacing" textLength="42" x="226.5" y="51.4951">employ</text><text fill="#000000" font-family="sans-serif" font-size="13" lengthAdjust="spacing" textLength="7" x="121.3985" y="56.3228">1</text><text fill="#000000" font-family="sans-serif" font-size="13" lengthAdjust="spacing" textLength="20" x="418.0848" y="103.7736">1..*</text><!--MD5=[3994f36c72829dbcddd1cf7021dddf61]
link Test to Client--><path codeLine="38" d="M135.01,250.19 C154.54,252.89 176.14,255.72 196,258 C279.72,267.6 377.24,276.06 435.85,280.85 " fill="none" id="Test-Client" style="stroke:#A80036;stroke-width:1.0;"/><polygon fill="#000000" points="206.4742,249.6827,197.7737,245.8419,197.1778,251.6894,206.4742,249.6827" style="stroke:#000000;stroke-width:1.0;"/><text fill="#000000" font-family="sans-serif" font-size="13" lengthAdjust="spacing" textLength="74" x="210.5" y="254.4951">associated a</text><text fill="#000000" font-family="sans-serif" font-size="13" lengthAdjust="spacing" textLength="20" x="143.1048" y="265.6016">1..*</text><text fill="#000000" font-family="sans-serif" font-size="13" lengthAdjust="spacing" textLength="7" x="421.1705" y="294.9071">1</text><!--MD5=[2fe054cd67471b8fea8c71114980d435]
link Test to Employee--><path codeLine="39" d="M135.26,223.23 C221.16,199.1 372.42,156.61 445.96,135.95 " fill="none" id="Test-Employee" style="stroke:#A80036;stroke-width:1.0;"/><polygon fill="#000000" points="205.8137,171.8236,196.3108,171.4403,197.9005,177.0992,205.8137,171.8236" style="stroke:#000000;stroke-width:1.0;"/><text fill="#000000" font-family="sans-serif" font-size="13" lengthAdjust="spacing" textLength="75" x="210" y="178.4951">registered by</text><text fill="#000000" font-family="sans-serif" font-size="13" lengthAdjust="spacing" textLength="5" x="142.9791" y="235.6339">*</text><text fill="#000000" font-family="sans-serif" font-size="13" lengthAdjust="spacing" textLength="7" x="430.875" y="152.9042">1</text><!--MD5=[052f3a477de9d2dc4c55402b2b3fa494]
link Overview to Employee--><path codeLine="40" d="M281.6,124 C326.52,124 399.48,124 445.68,124 " fill="none" id="Overview-Employee" style="stroke:#A80036;stroke-width:1.0;"/><polygon fill="#000000" points="326,115.1758,316.9549,112.2369,316.9549,118.1147,326,115.1758" style="stroke:#000000;stroke-width:1.0;"/><text fill="#000000" font-family="sans-serif" font-size="13" lengthAdjust="spacing" textLength="75" x="330" y="120.4951">requested by</text><text fill="#000000" font-family="sans-serif" font-size="13" lengthAdjust="spacing" textLength="5" x="289.5466" y="139.0025">*</text><text fill="#000000" font-family="sans-serif" font-size="13" lengthAdjust="spacing" textLength="7" x="431.1384" y="138.7981">1</text><!--MD5=[d754f8374be5b811bc19035f00085482]
@startuml
hide methods
left to right direction
skinparam classAttributeIconSize 0


class Company{
-designation
}

class Overview{
}

class Client{
 - name
 - email
 - phoneNumber
 - sex
 - tin
 - birthDate
 - nhsNumber
 - citizenCardNumber
}

class Test {
-internalCode
-nhsCode
-description
-dateOfSampleCollected
-timeOfSampleCollected
-dateOfSampleAnalysis
-timeOfSampleAnalysis
-state
}



Company "1"- - -"1..*" Employee : employ >
Test "1..*"- - -"1" Client : associated a >
Test "*"- - -"1" Employee : registered by >
Overview "*"- -"1" Employee : requested by >



@enduml

PlantUML version 1.2021.00(Sun Jan 10 10:25:05 GMT 2021)
(GPL source distribution)
Java Runtime: OpenJDK Runtime Environment
JVM: OpenJDK 64-Bit Server VM
Default Encoding: Cp1252
Language: pt
Country: PT
--></g></svg>