<?xml version="1.0" encoding="UTF-8" standalone="no"?><svg xmlns="http://www.w3.org/2000/svg" xmlns:xlink="http://www.w3.org/1999/xlink" contentScriptType="application/ecmascript" contentStyleType="text/css" height="391px" preserveAspectRatio="none" style="width:734px;height:391px;" version="1.1" viewBox="0 0 734 391" width="734px" zoomAndPan="magnify"><defs><filter height="300%" id="f1sap7dufq10ns" width="300%" x="-1" y="-1"><feGaussianBlur result="blurOut" stdDeviation="2.0"/><feColorMatrix in="blurOut" result="blurOut2" type="matrix" values="0 0 0 0 0 0 0 0 0 0 0 0 0 0 0 0 0 0 .4 0"/><feOffset dx="4.0" dy="4.0" in="blurOut2" result="blurOut3"/><feBlend in="SourceGraphic" in2="blurOut3" mode="normal"/></filter></defs><g><!--MD5=[02e4b9b7573f1156f41e60aa5b4e25a4]
class Company--><rect codeLine="6" fill="#FEFECE" filter="url(#f1sap7dufq10ns)" height="53.8359" id="Company" style="stroke:#A80036;stroke-width:1.5;" width="85" x="28.5" y="99"/><ellipse cx="43.5" cy="115" fill="#ADD1B2" rx="11" ry="11" style="stroke:#A80036;stroke-width:1.0;"/><path d="M45.5,111.5 Q45.7031,111 45.9375,110.75 Q46.1719,110.5 46.4375,110.5 Q46.9063,110.5 47.2031,110.7813 Q47.5,111.0625 47.5,111.7188 L47.5,113.2813 Q47.5,113.9375 47.2188,114.2188 Q46.9375,114.5 46.5,114.5 Q46.1094,114.5 45.8594,114.3281 Q45.6094,114.1563 45.5,113.7031 Q45.4531,113.3906 45.2813,113.2188 Q44.9688,112.8906 44.4063,112.7031 Q43.8438,112.5 43.2813,112.5 Q42.5781,112.5 41.9844,112.7813 Q41.4063,113.0625 40.9531,113.6875 Q40.5,114.3125 40.5,115.1719 L40.5,116.0938 Q40.5,117.125 41.3438,117.8125 Q42.1875,118.5 43.6875,118.5 Q44.5781,118.5 45.2031,118.2969 Q45.5625,118.1875 45.9688,117.8281 Q46.2344,117.625 46.375,117.5625 Q46.5156,117.5 46.6875,117.5 Q47.0156,117.5 47.25,117.7656 Q47.5,118.0156 47.5,118.375 Q47.5,118.7188 47.1563,119.125 Q46.6563,119.7188 45.8594,120.0469 Q44.8125,120.5 43.5313,120.5 Q42.0313,120.5 40.8281,119.9063 Q39.8594,119.4375 39.1719,118.4219 Q38.5,117.4063 38.5,116.2031 L38.5,115.1094 Q38.5,113.8594 39.0938,112.7656 Q39.7031,111.6719 40.75,111.0938 Q41.8125,110.5 43,110.5 Q43.7188,110.5 44.3438,110.75 Q44.9688,111 45.5,111.5 Z " fill="#000000"/><text fill="#000000" font-family="sans-serif" font-size="12" lengthAdjust="spacing" textLength="53" x="57.5" y="119.9102">Company</text><line style="stroke:#A80036;stroke-width:1.5;" x1="29.5" x2="112.5" y1="131" y2="131"/><text fill="#000000" font-family="sans-serif" font-size="11" lengthAdjust="spacing" textLength="59" x="34.5" y="146.4189">-designation</text><!--MD5=[8f188b89eff49accb0f38c057b38a9f2]
class ExternalModule--><rect codeLine="10" fill="#FEFECE" filter="url(#f1sap7dufq10ns)" height="40" id="ExternalModule" style="stroke:#A80036;stroke-width:1.5;" width="116" x="604" y="7"/><ellipse cx="619" cy="23" fill="#ADD1B2" rx="11" ry="11" style="stroke:#A80036;stroke-width:1.0;"/><path d="M621,19.5 Q621.2031,19 621.4375,18.75 Q621.6719,18.5 621.9375,18.5 Q622.4063,18.5 622.7031,18.7813 Q623,19.0625 623,19.7188 L623,21.2813 Q623,21.9375 622.7188,22.2188 Q622.4375,22.5 622,22.5 Q621.6094,22.5 621.3594,22.3281 Q621.1094,22.1563 621,21.7031 Q620.9531,21.3906 620.7813,21.2188 Q620.4688,20.8906 619.9063,20.7031 Q619.3438,20.5 618.7813,20.5 Q618.0781,20.5 617.4844,20.7813 Q616.9063,21.0625 616.4531,21.6875 Q616,22.3125 616,23.1719 L616,24.0938 Q616,25.125 616.8438,25.8125 Q617.6875,26.5 619.1875,26.5 Q620.0781,26.5 620.7031,26.2969 Q621.0625,26.1875 621.4688,25.8281 Q621.7344,25.625 621.875,25.5625 Q622.0156,25.5 622.1875,25.5 Q622.5156,25.5 622.75,25.7656 Q623,26.0156 623,26.375 Q623,26.7188 622.6563,27.125 Q622.1563,27.7188 621.3594,28.0469 Q620.3125,28.5 619.0313,28.5 Q617.5313,28.5 616.3281,27.9063 Q615.3594,27.4375 614.6719,26.4219 Q614,25.4063 614,24.2031 L614,23.1094 Q614,21.8594 614.5938,20.7656 Q615.2031,19.6719 616.25,19.0938 Q617.3125,18.5 618.5,18.5 Q619.2188,18.5 619.8438,18.75 Q620.4688,19 621,19.5 Z " fill="#000000"/><text fill="#000000" font-family="sans-serif" font-size="12" lengthAdjust="spacing" textLength="84" x="633" y="27.9102">ExternalModule</text><line style="stroke:#A80036;stroke-width:1.5;" x1="605" x2="719" y1="39" y2="39"/><!--MD5=[6488d949f0b3201a1a4d4b30662da8d5]
class Overview--><rect codeLine="14" fill="#FEFECE" filter="url(#f1sap7dufq10ns)" height="40" id="Overview" style="stroke:#A80036;stroke-width:1.5;" width="81" x="200.5" y="20"/><ellipse cx="215.5" cy="36" fill="#ADD1B2" rx="11" ry="11" style="stroke:#A80036;stroke-width:1.0;"/><path d="M217.5,32.5 Q217.7031,32 217.9375,31.75 Q218.1719,31.5 218.4375,31.5 Q218.9063,31.5 219.2031,31.7813 Q219.5,32.0625 219.5,32.7188 L219.5,34.2813 Q219.5,34.9375 219.2188,35.2188 Q218.9375,35.5 218.5,35.5 Q218.1094,35.5 217.8594,35.3281 Q217.6094,35.1563 217.5,34.7031 Q217.4531,34.3906 217.2813,34.2188 Q216.9688,33.8906 216.4063,33.7031 Q215.8438,33.5 215.2813,33.5 Q214.5781,33.5 213.9844,33.7813 Q213.4063,34.0625 212.9531,34.6875 Q212.5,35.3125 212.5,36.1719 L212.5,37.0938 Q212.5,38.125 213.3438,38.8125 Q214.1875,39.5 215.6875,39.5 Q216.5781,39.5 217.2031,39.2969 Q217.5625,39.1875 217.9688,38.8281 Q218.2344,38.625 218.375,38.5625 Q218.5156,38.5 218.6875,38.5 Q219.0156,38.5 219.25,38.7656 Q219.5,39.0156 219.5,39.375 Q219.5,39.7188 219.1563,40.125 Q218.6563,40.7188 217.8594,41.0469 Q216.8125,41.5 215.5313,41.5 Q214.0313,41.5 212.8281,40.9063 Q211.8594,40.4375 211.1719,39.4219 Q210.5,38.4063 210.5,37.2031 L210.5,36.1094 Q210.5,34.8594 211.0938,33.7656 Q211.7031,32.6719 212.75,32.0938 Q213.8125,31.5 215,31.5 Q215.7188,31.5 216.3438,31.75 Q216.9688,32 217.5,32.5 Z " fill="#000000"/><text fill="#000000" font-family="sans-serif" font-size="12" lengthAdjust="spacing" textLength="49" x="229.5" y="40.9102">Overview</text><line style="stroke:#A80036;stroke-width:1.5;" x1="201.5" x2="280.5" y1="52" y2="52"/><!--MD5=[ed6624c6556d5e7b1bd23032162d20b7]
class Client--><rect codeLine="17" fill="#FEFECE" filter="url(#f1sap7dufq10ns)" height="150.6875" id="Client" style="stroke:#A80036;stroke-width:1.5;" width="107" x="436" y="226.5"/><ellipse cx="470.35" cy="242.5" fill="#ADD1B2" rx="11" ry="11" style="stroke:#A80036;stroke-width:1.0;"/><path d="M472.35,239 Q472.5531,238.5 472.7875,238.25 Q473.0219,238 473.2875,238 Q473.7563,238 474.0531,238.2813 Q474.35,238.5625 474.35,239.2188 L474.35,240.7813 Q474.35,241.4375 474.0688,241.7188 Q473.7875,242 473.35,242 Q472.9594,242 472.7094,241.8281 Q472.4594,241.6563 472.35,241.2031 Q472.3031,240.8906 472.1313,240.7188 Q471.8188,240.3906 471.2563,240.2031 Q470.6938,240 470.1313,240 Q469.4281,240 468.8344,240.2813 Q468.2563,240.5625 467.8031,241.1875 Q467.35,241.8125 467.35,242.6719 L467.35,243.5938 Q467.35,244.625 468.1938,245.3125 Q469.0375,246 470.5375,246 Q471.4281,246 472.0531,245.7969 Q472.4125,245.6875 472.8188,245.3281 Q473.0844,245.125 473.225,245.0625 Q473.3656,245 473.5375,245 Q473.8656,245 474.1,245.2656 Q474.35,245.5156 474.35,245.875 Q474.35,246.2188 474.0063,246.625 Q473.5063,247.2188 472.7094,247.5469 Q471.6625,248 470.3813,248 Q468.8813,248 467.6781,247.4063 Q466.7094,246.9375 466.0219,245.9219 Q465.35,244.9063 465.35,243.7031 L465.35,242.6094 Q465.35,241.3594 465.9438,240.2656 Q466.5531,239.1719 467.6,238.5938 Q468.6625,238 469.85,238 Q470.5688,238 471.1938,238.25 Q471.8188,238.5 472.35,239 Z " fill="#000000"/><text fill="#000000" font-family="sans-serif" font-size="12" lengthAdjust="spacing" textLength="32" x="488.65" y="247.4102">Client</text><line style="stroke:#A80036;stroke-width:1.5;" x1="437" x2="542" y1="258.5" y2="258.5"/><text fill="#000000" font-family="sans-serif" font-size="11" lengthAdjust="spacing" textLength="30" x="442" y="273.9189">-name</text><text fill="#000000" font-family="sans-serif" font-size="11" lengthAdjust="spacing" textLength="28" x="442" y="287.7549">-email</text><text fill="#000000" font-family="sans-serif" font-size="11" lengthAdjust="spacing" textLength="71" x="442" y="301.5908">-phoneNumber</text><text fill="#000000" font-family="sans-serif" font-size="11" lengthAdjust="spacing" textLength="22" x="442" y="315.4268">-sex</text><text fill="#000000" font-family="sans-serif" font-size="11" lengthAdjust="spacing" textLength="15" x="442" y="329.2627">-tin</text><text fill="#000000" font-family="sans-serif" font-size="11" lengthAdjust="spacing" textLength="47" x="442" y="343.0986">-birthDate</text><text fill="#000000" font-family="sans-serif" font-size="11" lengthAdjust="spacing" textLength="59" x="442" y="356.9346">-nhsNumber</text><text fill="#000000" font-family="sans-serif" font-size="11" lengthAdjust="spacing" textLength="95" x="442" y="370.7705">-citizenCardNumber</text><!--MD5=[df38be88ccee13e832d6fafd6288a4ca]
class Test--><rect codeLine="28" fill="#FEFECE" filter="url(#f1sap7dufq10ns)" height="150.6875" id="Test" style="stroke:#A80036;stroke-width:1.5;" width="128" x="7" y="207.5"/><ellipse cx="54.75" cy="223.5" fill="#ADD1B2" rx="11" ry="11" style="stroke:#A80036;stroke-width:1.0;"/><path d="M56.75,220 Q56.9531,219.5 57.1875,219.25 Q57.4219,219 57.6875,219 Q58.1563,219 58.4531,219.2813 Q58.75,219.5625 58.75,220.2188 L58.75,221.7813 Q58.75,222.4375 58.4688,222.7188 Q58.1875,223 57.75,223 Q57.3594,223 57.1094,222.8281 Q56.8594,222.6563 56.75,222.2031 Q56.7031,221.8906 56.5313,221.7188 Q56.2188,221.3906 55.6563,221.2031 Q55.0938,221 54.5313,221 Q53.8281,221 53.2344,221.2813 Q52.6563,221.5625 52.2031,222.1875 Q51.75,222.8125 51.75,223.6719 L51.75,224.5938 Q51.75,225.625 52.5938,226.3125 Q53.4375,227 54.9375,227 Q55.8281,227 56.4531,226.7969 Q56.8125,226.6875 57.2188,226.3281 Q57.4844,226.125 57.625,226.0625 Q57.7656,226 57.9375,226 Q58.2656,226 58.5,226.2656 Q58.75,226.5156 58.75,226.875 Q58.75,227.2188 58.4063,227.625 Q57.9063,228.2188 57.1094,228.5469 Q56.0625,229 54.7813,229 Q53.2813,229 52.0781,228.4063 Q51.1094,227.9375 50.4219,226.9219 Q49.75,225.9063 49.75,224.7031 L49.75,223.6094 Q49.75,222.3594 50.3438,221.2656 Q50.9531,220.1719 52,219.5938 Q53.0625,219 54.25,219 Q54.9688,219 55.5938,219.25 Q56.2188,219.5 56.75,220 Z " fill="#000000"/><text fill="#000000" font-family="sans-serif" font-size="12" lengthAdjust="spacing" textLength="24" x="75.25" y="228.4102">Test</text><line style="stroke:#A80036;stroke-width:1.5;" x1="8" x2="134" y1="239.5" y2="239.5"/><text fill="#000000" font-family="sans-serif" font-size="11" lengthAdjust="spacing" textLength="64" x="13" y="254.9189">-internalCode</text><text fill="#000000" font-family="sans-serif" font-size="11" lengthAdjust="spacing" textLength="47" x="13" y="268.7549">-nhsCode</text><text fill="#000000" font-family="sans-serif" font-size="11" lengthAdjust="spacing" textLength="57" x="13" y="282.5908">-description</text><text fill="#000000" font-family="sans-serif" font-size="11" lengthAdjust="spacing" textLength="116" x="13" y="296.4268">-dateOfSampleCollected</text><text fill="#000000" font-family="sans-serif" font-size="11" lengthAdjust="spacing" textLength="114" x="13" y="310.2627">-timeOfSampleCollected</text><text fill="#000000" font-family="sans-serif" font-size="11" lengthAdjust="spacing" textLength="114" x="13" y="324.0986">-dateOfSampleAnalysis</text><text fill="#000000" font-family="sans-serif" font-size="11" lengthAdjust="spacing" textLength="112" x="13" y="337.9346">-timeOfSampleAnalysis</text><text fill="#000000" font-family="sans-serif" font-size="11" lengthAdjust="spacing" textLength="28" x="13" y="351.7705">-state</text><!--MD5=[7421f545a0d8420c5bec41e74b387d9c]
class Employee--><rect fill="#FEFECE" filter="url(#f1sap7dufq10ns)" height="40" id="Employee" style="stroke:#A80036;stroke-width:1.5;" width="87" x="446" y="106"/><ellipse cx="461" cy="122" fill="#ADD1B2" rx="11" ry="11" style="stroke:#A80036;stroke-width:1.0;"/><path d="M463,118.5 Q463.2031,118 463.4375,117.75 Q463.6719,117.5 463.9375,117.5 Q464.4063,117.5 464.7031,117.7813 Q465,118.0625 465,118.7188 L465,120.2813 Q465,120.9375 464.7188,121.2188 Q464.4375,121.5 464,121.5 Q463.6094,121.5 463.3594,121.3281 Q463.1094,121.1563 463,120.7031 Q462.9531,120.3906 462.7813,120.2188 Q462.4688,119.8906 461.9063,119.7031 Q461.3438,119.5 460.7813,119.5 Q460.0781,119.5 459.4844,119.7813 Q458.9063,120.0625 458.4531,120.6875 Q458,121.3125 458,122.1719 L458,123.0938 Q458,124.125 458.8438,124.8125 Q459.6875,125.5 461.1875,125.5 Q462.0781,125.5 462.7031,125.2969 Q463.0625,125.1875 463.4688,124.8281 Q463.7344,124.625 463.875,124.5625 Q464.0156,124.5 464.1875,124.5 Q464.5156,124.5 464.75,124.7656 Q465,125.0156 465,125.375 Q465,125.7188 464.6563,126.125 Q464.1563,126.7188 463.3594,127.0469 Q462.3125,127.5 461.0313,127.5 Q459.5313,127.5 458.3281,126.9063 Q457.3594,126.4375 456.6719,125.4219 Q456,124.4063 456,123.2031 L456,122.1094 Q456,120.8594 456.5938,119.7656 Q457.2031,118.6719 458.25,118.0938 Q459.3125,117.5 460.5,117.5 Q461.2188,117.5 461.8438,117.75 Q462.4688,118 463,118.5 Z " fill="#000000"/><text fill="#000000" font-family="sans-serif" font-size="12" lengthAdjust="spacing" textLength="55" x="475" y="126.9102">Employee</text><line style="stroke:#A80036;stroke-width:1.5;" x1="447" x2="532" y1="138" y2="138"/><!--MD5=[09366576ee87d48d594df10cacc83f45]
link Company to Employee--><path codeLine="41" d="M113.84,126 C193.37,126 365.53,126 445.75,126 " fill="none" id="Company-Employee" style="stroke:#A80036;stroke-width:1.0;"/><polygon fill="#000000" points="222.5,117.1758,213.4549,114.2369,213.4549,120.1147,222.5,117.1758" style="stroke:#000000;stroke-width:1.0;"/><text fill="#000000" font-family="sans-serif" font-size="13" lengthAdjust="spacing" textLength="42" x="226.5" y="122.4951">employ</text><text fill="#000000" font-family="sans-serif" font-size="13" lengthAdjust="spacing" textLength="7" x="121.5151" y="140.8628">1</text><text fill="#000000" font-family="sans-serif" font-size="13" lengthAdjust="spacing" textLength="20" x="417.8555" y="140.6959">1..*</text><!--MD5=[3994f36c72829dbcddd1cf7021dddf61]
link Test to Client--><path codeLine="42" d="M135.26,285.89 C217.41,289.63 359.32,296.11 435.89,299.6 " fill="none" id="Test-Client" style="stroke:#A80036;stroke-width:1.0;"/><polygon fill="#000000" points="206.4948,279.4036,197.593,276.0556,197.3252,281.9274,206.4948,279.4036" style="stroke:#000000;stroke-width:1.0;"/><text fill="#000000" font-family="sans-serif" font-size="13" lengthAdjust="spacing" textLength="74" x="210.5" y="284.4951">associated a</text><text fill="#000000" font-family="sans-serif" font-size="13" lengthAdjust="spacing" textLength="20" x="142.9181" y="300.5424">1..*</text><text fill="#000000" font-family="sans-serif" font-size="13" lengthAdjust="spacing" textLength="7" x="420.8589" y="313.9293">1</text><!--MD5=[2fe054cd67471b8fea8c71114980d435]
link Test to Employee--><path codeLine="43" d="M135.26,259.16 C221.16,226.77 372.42,169.76 445.96,142.03 " fill="none" id="Test-Employee" style="stroke:#A80036;stroke-width:1.0;"/><polygon fill="#000000" points="205.6786,192.412,196.1782,192.8527,198.2517,198.3527,205.6786,192.412" style="stroke:#000000;stroke-width:1.0;"/><text fill="#000000" font-family="sans-serif" font-size="13" lengthAdjust="spacing" textLength="75" x="210" y="199.4951">registered by</text><text fill="#000000" font-family="sans-serif" font-size="13" lengthAdjust="spacing" textLength="5" x="142.9791" y="270.862">*</text><text fill="#000000" font-family="sans-serif" font-size="13" lengthAdjust="spacing" textLength="7" x="430.875" y="159.6855">1</text><!--MD5=[052f3a477de9d2dc4c55402b2b3fa494]
link Overview to Employee--><path codeLine="44" d="M281.69,57.38 C292.72,62.01 304.76,66.86 316,71 C359.81,87.12 410.83,103.05 445.97,113.58 " fill="none" id="Overview-Employee" style="stroke:#A80036;stroke-width:1.0;"/><polygon fill="#000000" points="325.7308,63.7942,318.124,58.0857,316.2214,63.6472,325.7308,63.7942" style="stroke:#000000;stroke-width:1.0;"/><text fill="#000000" font-family="sans-serif" font-size="13" lengthAdjust="spacing" textLength="75" x="330" y="67.4951">requested by</text><text fill="#000000" font-family="sans-serif" font-size="13" lengthAdjust="spacing" textLength="5" x="289.3832" y="75.4272">*</text><text fill="#000000" font-family="sans-serif" font-size="13" lengthAdjust="spacing" textLength="7" x="430.8867" y="107.5956">1</text><!--MD5=[b00200799aca6e32135a698e1c4ad986]
link Overview to ExternalModule--><path codeLine="45" d="M281.8,38.77 C356.46,36.45 517.77,31.44 603.97,28.77 " fill="none" id="Overview-ExternalModule" style="stroke:#A80036;stroke-width:1.0;"/><polygon fill="#000000" points="467.9976,22.0207,458.8657,19.3638,459.048,25.2388,467.9976,22.0207" style="stroke:#000000;stroke-width:1.0;"/><text fill="#000000" font-family="sans-serif" font-size="13" lengthAdjust="spacing" textLength="48" x="472" y="27.4951">resort to</text><text fill="#000000" font-family="sans-serif" font-size="13" lengthAdjust="spacing" textLength="7" x="289.4141" y="53.4589">1</text><text fill="#000000" font-family="sans-serif" font-size="13" lengthAdjust="spacing" textLength="7" x="589.0865" y="43.5394">1</text><!--MD5=[775815f16eb3a1cd0ffce7d0059a4864]
@startuml
hide methods
left to right direction
skinparam classAttributeIconSize 0


class Company{
-designation
}

class ExternalModule{

}

class Overview{
}

class Client{
 - name
 - email
 - phoneNumber
 - sex
 - tin
 - birthDate
 - nhsNumber
 - citizenCardNumber
}

class Test {
-internalCode
-nhsCode
-description
-dateOfSampleCollected
-timeOfSampleCollected
-dateOfSampleAnalysis
-timeOfSampleAnalysis
-state
}



Company "1"- - -"1..*" Employee : employ >
Test "1..*"- - -"1" Client : associated a >
Test "*"- - -"1" Employee : registered by >
Overview "*"- -"1" Employee : requested by >
Overview "1"- - -"1" ExternalModule : resort to >


@enduml

PlantUML version 1.2021.5(Sun Apr 25 12:20:28 BST 2021)
(GPL source distribution)
Java Runtime: OpenJDK Runtime Environment
JVM: Dynamic Code Evolution 64-Bit Server VM
Default Encoding: Cp1252
Language: pt
Country: PT
--></g></svg>