<?xml version="1.0" encoding="UTF-8" standalone="no"?><svg xmlns="http://www.w3.org/2000/svg" xmlns:xlink="http://www.w3.org/1999/xlink" contentScriptType="application/ecmascript" contentStyleType="text/css" height="875.2px" preserveAspectRatio="none" style="width:892px;height:875px;" version="1.1" viewBox="0 0 892 875" width="892px" zoomAndPan="magnify"><defs><filter height="300%" id="f1wrawq4xc625a" width="300%" x="-1" y="-1"><feGaussianBlur result="blurOut" stdDeviation="1.6"/><feColorMatrix in="blurOut" result="blurOut2" type="matrix" values="0 0 0 0 0 0 0 0 0 0 0 0 0 0 0 0 0 0 .4 0"/><feOffset dx="3.2" dy="3.2" in="blurOut2" result="blurOut3"/><feBlend in="SourceGraphic" in2="blurOut3" mode="normal"/></filter></defs><g><!--MD5=[64e2e010ba86d7988e5cd73bd64f61f9]
cluster ui--><polygon fill="#FFFFFF" filter="url(#f1wrawq4xc625a)" points="229.6,4.8,244.8,4.8,250.4,23.6875,330.4,23.6875,330.4,84.8,229.6,84.8,229.6,4.8" style="stroke:#000000;stroke-width:1.2000000000000002;"/><line style="stroke:#000000;stroke-width:1.2000000000000002;" x1="229.6" x2="250.4" y1="23.6875" y2="23.6875"/><text fill="#000000" font-family="sans-serif" font-size="11.2" font-weight="bold" lengthAdjust="spacing" textLength="10.4" x="232.8" y="18.0266">ui</text><!--MD5=[1f2cfc53d9d308f53762fd0fcbaa4873]
cluster Controller--><polygon fill="#FFFFFF" filter="url(#f1wrawq4xc625a)" points="173.6,111.2,235.2,111.2,240.8,130.0875,386.4,130.0875,386.4,301.6,173.6,301.6,173.6,111.2" style="stroke:#000000;stroke-width:1.2000000000000002;"/><line style="stroke:#000000;stroke-width:1.2000000000000002;" x1="173.6" x2="240.8" y1="130.0875" y2="130.0875"/><text fill="#000000" font-family="sans-serif" font-size="11.2" font-weight="bold" lengthAdjust="spacing" textLength="56.8" x="176.8" y="124.4266">Controller</text><!--MD5=[a0bb257923b4feabbc8c8a837db65c88]
cluster adapter--><polygon fill="#FFFFFF" filter="url(#f1wrawq4xc625a)" points="607.2,570,655.2,570,660.8,588.8875,878.4,588.8875,878.4,650,607.2,650,607.2,570" style="stroke:#000000;stroke-width:1.2000000000000002;"/><line style="stroke:#000000;stroke-width:1.2000000000000002;" x1="607.2" x2="660.8" y1="588.8875" y2="588.8875"/><text fill="#000000" font-family="sans-serif" font-size="11.2" font-weight="bold" lengthAdjust="spacing" textLength="43.2" x="610.4" y="583.2266">adapter</text><!--MD5=[5d4cd377749310b66bf14896f5cd8d9b]
cluster model--><polygon fill="#FFFFFF" filter="url(#f1wrawq4xc625a)" points="12.8,481.6,52,481.6,57.6,500.4875,588,500.4875,588,738.4,12.8,738.4,12.8,481.6" style="stroke:#000000;stroke-width:1.2000000000000002;"/><line style="stroke:#000000;stroke-width:1.2000000000000002;" x1="12.8" x2="57.6" y1="500.4875" y2="500.4875"/><text fill="#000000" font-family="sans-serif" font-size="11.2" font-weight="bold" lengthAdjust="spacing" textLength="34.4" x="16" y="494.8266">model</text><!--MD5=[c23849cc5f4a85746a20de4317c530fc]
cluster store--><polygon fill="#FFFFFF" filter="url(#f1wrawq4xc625a)" points="309.6,328,344,328,349.6,346.8875,684.8,346.8875,684.8,441.6,309.6,441.6,309.6,328" style="stroke:#000000;stroke-width:1.2000000000000002;"/><line style="stroke:#000000;stroke-width:1.2000000000000002;" x1="309.6" x2="349.6" y1="346.8875" y2="346.8875"/><text fill="#000000" font-family="sans-serif" font-size="11.2" font-weight="bold" lengthAdjust="spacing" textLength="29.6" x="312.8" y="341.2266">store</text><!--MD5=[e25d2abf3c472b89b03b52c7e4262e29]
cluster interfaces--><polygon fill="#FFFFFF" filter="url(#f1wrawq4xc625a)" points="576.8,778.4,638.4,778.4,644,797.2875,773.6,797.2875,773.6,869.6,576.8,869.6,576.8,778.4" style="stroke:#000000;stroke-width:1.2000000000000002;"/><line style="stroke:#000000;stroke-width:1.2000000000000002;" x1="576.8" x2="644" y1="797.2875" y2="797.2875"/><text fill="#000000" font-family="sans-serif" font-size="11.2" font-weight="bold" lengthAdjust="spacing" textLength="56.8" x="580" y="791.6266">interfaces</text><!--MD5=[8bdfcc1bb83d41d65197b6c44356be8a]
class OverviewUI--><rect codeLine="4" fill="#FEFECE" filter="url(#f1wrawq4xc625a)" height="38.4" id="OverviewUI" style="stroke:#A80036;stroke-width:1.2000000000000002;" width="74.4" x="242.8" y="33.6"/><ellipse cx="254.8" cy="46.4" fill="#ADD1B2" rx="8.8" ry="8.8" style="stroke:#A80036;stroke-width:0.8;"/><path d="M256.4,43.6 Q256.5625,43.2 256.75,43 Q256.9375,42.8 257.15,42.8 Q257.525,42.8 257.7625,43.025 Q258,43.25 258,43.775 L258,45.025 Q258,45.55 257.775,45.775 Q257.55,46 257.2,46 Q256.8875,46 256.6875,45.8625 Q256.4875,45.725 256.4,45.3625 Q256.3625,45.1125 256.225,44.975 Q255.975,44.7125 255.525,44.5625 Q255.075,44.4 254.625,44.4 Q254.0625,44.4 253.5875,44.625 Q253.125,44.85 252.7625,45.35 Q252.4,45.85 252.4,46.5375 L252.4,47.275 Q252.4,48.1 253.075,48.65 Q253.75,49.2 254.95,49.2 Q255.6625,49.2 256.1625,49.0375 Q256.45,48.95 256.775,48.6625 Q256.9875,48.5 257.1,48.45 Q257.2125,48.4 257.35,48.4 Q257.6125,48.4 257.8,48.6125 Q258,48.8125 258,49.1 Q258,49.375 257.725,49.7 Q257.325,50.175 256.6875,50.4375 Q255.85,50.8 254.825,50.8 Q253.625,50.8 252.6625,50.325 Q251.8875,49.95 251.3375,49.1375 Q250.8,48.325 250.8,47.3625 L250.8,46.4875 Q250.8,45.4875 251.275,44.6125 Q251.7625,43.7375 252.6,43.275 Q253.45,42.8 254.4,42.8 Q254.975,42.8 255.475,43 Q255.975,43.2 256.4,43.6 Z " fill="#000000"/><text fill="#000000" font-family="sans-serif" font-size="9.6" lengthAdjust="spacing" textLength="48.8" x="266" y="50.3281">OverviewUI</text><line style="stroke:#A80036;stroke-width:1.2000000000000002;" x1="243.6" x2="316.4" y1="59.2" y2="59.2"/><line style="stroke:#A80036;stroke-width:1.2000000000000002;" x1="243.6" x2="316.4" y1="65.6" y2="65.6"/><!--MD5=[de4b9dae6d31a38c56afa7b52c7f3a39]
class OverviewController--><rect codeLine="8" fill="#FEFECE" filter="url(#f1wrawq4xc625a)" height="149.0875" id="OverviewController" style="stroke:#A80036;stroke-width:1.2000000000000002;" width="186.4" x="186.8" y="140"/><ellipse cx="235.4" cy="152.8" fill="#ADD1B2" rx="8.8" ry="8.8" style="stroke:#A80036;stroke-width:0.8;"/><path d="M237,150 Q237.1625,149.6 237.35,149.4 Q237.5375,149.2 237.75,149.2 Q238.125,149.2 238.3625,149.425 Q238.6,149.65 238.6,150.175 L238.6,151.425 Q238.6,151.95 238.375,152.175 Q238.15,152.4 237.8,152.4 Q237.4875,152.4 237.2875,152.2625 Q237.0875,152.125 237,151.7625 Q236.9625,151.5125 236.825,151.375 Q236.575,151.1125 236.125,150.9625 Q235.675,150.8 235.225,150.8 Q234.6625,150.8 234.1875,151.025 Q233.725,151.25 233.3625,151.75 Q233,152.25 233,152.9375 L233,153.675 Q233,154.5 233.675,155.05 Q234.35,155.6 235.55,155.6 Q236.2625,155.6 236.7625,155.4375 Q237.05,155.35 237.375,155.0625 Q237.5875,154.9 237.7,154.85 Q237.8125,154.8 237.95,154.8 Q238.2125,154.8 238.4,155.0125 Q238.6,155.2125 238.6,155.5 Q238.6,155.775 238.325,156.1 Q237.925,156.575 237.2875,156.8375 Q236.45,157.2 235.425,157.2 Q234.225,157.2 233.2625,156.725 Q232.4875,156.35 231.9375,155.5375 Q231.4,154.725 231.4,153.7625 L231.4,152.8875 Q231.4,151.8875 231.875,151.0125 Q232.3625,150.1375 233.2,149.675 Q234.05,149.2 235,149.2 Q235.575,149.2 236.075,149.4 Q236.575,149.6 237,150 Z " fill="#000000"/><text fill="#000000" font-family="sans-serif" font-size="9.6" lengthAdjust="spacing" textLength="82.4" x="251.8" y="156.7281">OverviewController</text><line style="stroke:#A80036;stroke-width:1.2000000000000002;" x1="187.6" x2="372.4" y1="165.6" y2="165.6"/><line style="stroke:#A80036;stroke-width:1.2000000000000002;" x1="187.6" x2="372.4" y1="172" y2="172"/><ellipse cx="195.6" cy="180.8" fill="#84BE84" rx="2.4" ry="2.4" style="stroke:#038048;stroke-width:0.8;"/><text fill="#000000" font-family="sans-serif" font-size="8.8" lengthAdjust="spacing" textLength="147.2" x="202.8" y="184.3352">getIntervalTestList(initialDate,endDate)</text><ellipse cx="195.6" cy="191.8688" fill="#84BE84" rx="2.4" ry="2.4" style="stroke:#038048;stroke-width:0.8;"/><text fill="#000000" font-family="sans-serif" font-size="8.8" lengthAdjust="spacing" textLength="83.2" x="202.8" y="195.4039">getNumberOfClients()</text><ellipse cx="195.6" cy="202.9375" fill="#84BE84" rx="2.4" ry="2.4" style="stroke:#038048;stroke-width:0.8;"/><text fill="#000000" font-family="sans-serif" font-size="8.8" lengthAdjust="spacing" textLength="98.4" x="202.8" y="206.4727">getNumberTestsSystem()</text><ellipse cx="195.6" cy="214.0063" fill="#84BE84" rx="2.4" ry="2.4" style="stroke:#038048;stroke-width:0.8;"/><text fill="#000000" font-family="sans-serif" font-size="8.8" lengthAdjust="spacing" textLength="102.4" x="202.8" y="217.5414">getNumberClientsSystem()</text><ellipse cx="195.6" cy="225.075" fill="#84BE84" rx="2.4" ry="2.4" style="stroke:#038048;stroke-width:0.8;"/><text fill="#000000" font-family="sans-serif" font-size="8.8" lengthAdjust="spacing" textLength="148.8" x="202.8" y="228.6102">getNumberOfTestsWaitingForResults()</text><ellipse cx="195.6" cy="236.1438" fill="#84BE84" rx="2.4" ry="2.4" style="stroke:#038048;stroke-width:0.8;"/><text fill="#000000" font-family="sans-serif" font-size="8.8" lengthAdjust="spacing" textLength="157.6" x="202.8" y="239.6789">getNumberOfTestsWaitingForDiagnosis()</text><ellipse cx="195.6" cy="247.2125" fill="#84BE84" rx="2.4" ry="2.4" style="stroke:#038048;stroke-width:0.8;"/><text fill="#000000" font-family="sans-serif" font-size="8.8" lengthAdjust="spacing" textLength="139.2" x="202.8" y="250.7477">getTotalNumberOfTestsProcessed()</text><ellipse cx="195.6" cy="258.2813" fill="#84BE84" rx="2.4" ry="2.4" style="stroke:#038048;stroke-width:0.8;"/><text fill="#000000" font-family="sans-serif" font-size="8.8" lengthAdjust="spacing" textLength="94.4" x="202.8" y="261.8164">getAvailableAlgorithms()</text><ellipse cx="195.6" cy="269.35" fill="#84BE84" rx="2.4" ry="2.4" style="stroke:#038048;stroke-width:0.8;"/><text fill="#000000" font-family="sans-serif" font-size="8.8" lengthAdjust="spacing" textLength="140.8" x="202.8" y="272.8852">getSubsequenceWithMaximumSum()</text><ellipse cx="195.6" cy="280.4188" fill="#84BE84" rx="2.4" ry="2.4" style="stroke:#038048;stroke-width:0.8;"/><text fill="#000000" font-family="sans-serif" font-size="8.8" lengthAdjust="spacing" textLength="165.6" x="202.8" y="283.9539">getPeriodSubSequenceWithMaximumSum()</text><!--MD5=[e3c1d1270012c6b2c5c7c678a4b80154]
class BenchmarkAdapter--><rect codeLine="23" fill="#FEFECE" filter="url(#f1wrawq4xc625a)" height="38.4" id="BenchmarkAdapter" style="stroke:#A80036;stroke-width:1.2000000000000002;" width="109.6" x="620.4" y="598.8"/><ellipse cx="632.4" cy="611.6" fill="#ADD1B2" rx="8.8" ry="8.8" style="stroke:#A80036;stroke-width:0.8;"/><path d="M634,608.8 Q634.1625,608.4 634.35,608.2 Q634.5375,608 634.75,608 Q635.125,608 635.3625,608.225 Q635.6,608.45 635.6,608.975 L635.6,610.225 Q635.6,610.75 635.375,610.975 Q635.15,611.2 634.8,611.2 Q634.4875,611.2 634.2875,611.0625 Q634.0875,610.925 634,610.5625 Q633.9625,610.3125 633.825,610.175 Q633.575,609.9125 633.125,609.7625 Q632.675,609.6 632.225,609.6 Q631.6625,609.6 631.1875,609.825 Q630.725,610.05 630.3625,610.55 Q630,611.05 630,611.7375 L630,612.475 Q630,613.3 630.675,613.85 Q631.35,614.4 632.55,614.4 Q633.2625,614.4 633.7625,614.2375 Q634.05,614.15 634.375,613.8625 Q634.5875,613.7 634.7,613.65 Q634.8125,613.6 634.95,613.6 Q635.2125,613.6 635.4,613.8125 Q635.6,614.0125 635.6,614.3 Q635.6,614.575 635.325,614.9 Q634.925,615.375 634.2875,615.6375 Q633.45,616 632.425,616 Q631.225,616 630.2625,615.525 Q629.4875,615.15 628.9375,614.3375 Q628.4,613.525 628.4,612.5625 L628.4,611.6875 Q628.4,610.6875 628.875,609.8125 Q629.3625,608.9375 630.2,608.475 Q631.05,608 632,608 Q632.575,608 633.075,608.2 Q633.575,608.4 634,608.8 Z " fill="#000000"/><text fill="#000000" font-family="sans-serif" font-size="9.6" lengthAdjust="spacing" textLength="84" x="643.6" y="615.5281">BenchmarkAdapter</text><line style="stroke:#A80036;stroke-width:1.2000000000000002;" x1="621.2" x2="729.2" y1="624.4" y2="624.4"/><line style="stroke:#A80036;stroke-width:1.2000000000000002;" x1="621.2" x2="729.2" y1="630.8" y2="630.8"/><!--MD5=[353627c8c411a6e119df40e03d4587a6]
class BruteForceAdapter--><rect codeLine="26" fill="#FEFECE" filter="url(#f1wrawq4xc625a)" height="38.4" id="BruteForceAdapter" style="stroke:#A80036;stroke-width:1.2000000000000002;" width="107.2" x="758.4" y="598.8"/><ellipse cx="770.4" cy="611.6" fill="#ADD1B2" rx="8.8" ry="8.8" style="stroke:#A80036;stroke-width:0.8;"/><path d="M772,608.8 Q772.1625,608.4 772.35,608.2 Q772.5375,608 772.75,608 Q773.125,608 773.3625,608.225 Q773.6,608.45 773.6,608.975 L773.6,610.225 Q773.6,610.75 773.375,610.975 Q773.15,611.2 772.8,611.2 Q772.4875,611.2 772.2875,611.0625 Q772.0875,610.925 772,610.5625 Q771.9625,610.3125 771.825,610.175 Q771.575,609.9125 771.125,609.7625 Q770.675,609.6 770.225,609.6 Q769.6625,609.6 769.1875,609.825 Q768.725,610.05 768.3625,610.55 Q768,611.05 768,611.7375 L768,612.475 Q768,613.3 768.675,613.85 Q769.35,614.4 770.55,614.4 Q771.2625,614.4 771.7625,614.2375 Q772.05,614.15 772.375,613.8625 Q772.5875,613.7 772.7,613.65 Q772.8125,613.6 772.95,613.6 Q773.2125,613.6 773.4,613.8125 Q773.6,614.0125 773.6,614.3 Q773.6,614.575 773.325,614.9 Q772.925,615.375 772.2875,615.6375 Q771.45,616 770.425,616 Q769.225,616 768.2625,615.525 Q767.4875,615.15 766.9375,614.3375 Q766.4,613.525 766.4,612.5625 L766.4,611.6875 Q766.4,610.6875 766.875,609.8125 Q767.3625,608.9375 768.2,608.475 Q769.05,608 770,608 Q770.575,608 771.075,608.2 Q771.575,608.4 772,608.8 Z " fill="#000000"/><text fill="#000000" font-family="sans-serif" font-size="9.6" lengthAdjust="spacing" textLength="81.6" x="781.6" y="615.5281">BruteForceAdapter</text><line style="stroke:#A80036;stroke-width:1.2000000000000002;" x1="759.2" x2="864.8" y1="624.4" y2="624.4"/><line style="stroke:#A80036;stroke-width:1.2000000000000002;" x1="759.2" x2="864.8" y1="630.8" y2="630.8"/><!--MD5=[02e4b9b7573f1156f41e60aa5b4e25a4]
class Company--><rect codeLine="31" fill="#FEFECE" filter="url(#f1wrawq4xc625a)" height="71.6063" id="Company" style="stroke:#A80036;stroke-width:1.2000000000000002;" width="90.4" x="289.2" y="582"/><ellipse cx="311.28" cy="594.8" fill="#ADD1B2" rx="8.8" ry="8.8" style="stroke:#A80036;stroke-width:0.8;"/><path d="M312.88,592 Q313.0425,591.6 313.23,591.4 Q313.4175,591.2 313.63,591.2 Q314.005,591.2 314.2425,591.425 Q314.48,591.65 314.48,592.175 L314.48,593.425 Q314.48,593.95 314.255,594.175 Q314.03,594.4 313.68,594.4 Q313.3675,594.4 313.1675,594.2625 Q312.9675,594.125 312.88,593.7625 Q312.8425,593.5125 312.705,593.375 Q312.455,593.1125 312.005,592.9625 Q311.555,592.8 311.105,592.8 Q310.5425,592.8 310.0675,593.025 Q309.605,593.25 309.2425,593.75 Q308.88,594.25 308.88,594.9375 L308.88,595.675 Q308.88,596.5 309.555,597.05 Q310.23,597.6 311.43,597.6 Q312.1425,597.6 312.6425,597.4375 Q312.93,597.35 313.255,597.0625 Q313.4675,596.9 313.58,596.85 Q313.6925,596.8 313.83,596.8 Q314.0925,596.8 314.28,597.0125 Q314.48,597.2125 314.48,597.5 Q314.48,597.775 314.205,598.1 Q313.805,598.575 313.1675,598.8375 Q312.33,599.2 311.305,599.2 Q310.105,599.2 309.1425,598.725 Q308.3675,598.35 307.8175,597.5375 Q307.28,596.725 307.28,595.7625 L307.28,594.8875 Q307.28,593.8875 307.755,593.0125 Q308.2425,592.1375 309.08,591.675 Q309.93,591.2 310.88,591.2 Q311.455,591.2 311.955,591.4 Q312.455,591.6 312.88,592 Z " fill="#000000"/><text fill="#000000" font-family="sans-serif" font-size="9.6" lengthAdjust="spacing" textLength="42.4" x="324.72" y="598.7281">Company</text><line style="stroke:#A80036;stroke-width:1.2000000000000002;" x1="290" x2="378.8" y1="607.6" y2="607.6"/><line style="stroke:#A80036;stroke-width:1.2000000000000002;" x1="290" x2="378.8" y1="614" y2="614"/><ellipse cx="298" cy="622.8" fill="#84BE84" rx="2.4" ry="2.4" style="stroke:#038048;stroke-width:0.8;"/><text fill="#000000" font-family="sans-serif" font-size="8.8" lengthAdjust="spacing" textLength="56" x="305.2" y="626.3352">getTestStore()</text><ellipse cx="298" cy="633.8688" fill="#84BE84" rx="2.4" ry="2.4" style="stroke:#038048;stroke-width:0.8;"/><text fill="#000000" font-family="sans-serif" font-size="8.8" lengthAdjust="spacing" textLength="60" x="305.2" y="637.4039">getClientStore()</text><ellipse cx="298" cy="644.9375" fill="#84BE84" rx="2.4" ry="2.4" style="stroke:#038048;stroke-width:0.8;"/><text fill="#000000" font-family="sans-serif" font-size="8.8" lengthAdjust="spacing" textLength="69.6" x="305.2" y="648.4727">createOverview()</text><!--MD5=[df38be88ccee13e832d6fafd6288a4ca]
class Test--><rect codeLine="37" fill="#FEFECE" filter="url(#f1wrawq4xc625a)" height="93.7438" id="Test" style="stroke:#A80036;stroke-width:1.2000000000000002;" width="88" x="408" y="571.2"/><ellipse cx="439.44" cy="584" fill="#ADD1B2" rx="8.8" ry="8.8" style="stroke:#A80036;stroke-width:0.8;"/><path d="M441.04,581.2 Q441.2025,580.8 441.39,580.6 Q441.5775,580.4 441.79,580.4 Q442.165,580.4 442.4025,580.625 Q442.64,580.85 442.64,581.375 L442.64,582.625 Q442.64,583.15 442.415,583.375 Q442.19,583.6 441.84,583.6 Q441.5275,583.6 441.3275,583.4625 Q441.1275,583.325 441.04,582.9625 Q441.0025,582.7125 440.865,582.575 Q440.615,582.3125 440.165,582.1625 Q439.715,582 439.265,582 Q438.7025,582 438.2275,582.225 Q437.765,582.45 437.4025,582.95 Q437.04,583.45 437.04,584.1375 L437.04,584.875 Q437.04,585.7 437.715,586.25 Q438.39,586.8 439.59,586.8 Q440.3025,586.8 440.8025,586.6375 Q441.09,586.55 441.415,586.2625 Q441.6275,586.1 441.74,586.05 Q441.8525,586 441.99,586 Q442.2525,586 442.44,586.2125 Q442.64,586.4125 442.64,586.7 Q442.64,586.975 442.365,587.3 Q441.965,587.775 441.3275,588.0375 Q440.49,588.4 439.465,588.4 Q438.265,588.4 437.3025,587.925 Q436.5275,587.55 435.9775,586.7375 Q435.44,585.925 435.44,584.9625 L435.44,584.0875 Q435.44,583.0875 435.915,582.2125 Q436.4025,581.3375 437.24,580.875 Q438.09,580.4 439.04,580.4 Q439.615,580.4 440.115,580.6 Q440.615,580.8 441.04,581.2 Z " fill="#000000"/><text fill="#000000" font-family="sans-serif" font-size="9.6" lengthAdjust="spacing" textLength="19.2" x="454.96" y="587.9281">Test</text><line style="stroke:#A80036;stroke-width:1.2000000000000002;" x1="408.8" x2="495.2" y1="596.8" y2="596.8"/><rect fill="none" height="4.8" style="stroke:#C82930;stroke-width:0.8;" width="4.8" x="414.4" y="603.2"/><text fill="#000000" font-family="sans-serif" font-size="8.8" lengthAdjust="spacing" textLength="20" x="424" y="609.1352">client</text><rect fill="none" height="4.8" style="stroke:#C82930;stroke-width:0.8;" width="4.8" x="414.4" y="614.2688"/><text fill="#000000" font-family="sans-serif" font-size="8.8" lengthAdjust="spacing" textLength="33.6" x="424" y="620.2039">nhscode</text><rect fill="none" height="4.8" style="stroke:#C82930;stroke-width:0.8;" width="4.8" x="414.4" y="625.3375"/><text fill="#000000" font-family="sans-serif" font-size="8.8" lengthAdjust="spacing" textLength="67.2" x="424" y="631.2727">testParameterList</text><rect fill="none" height="4.8" style="stroke:#C82930;stroke-width:0.8;" width="4.8" x="414.4" y="636.4063"/><text fill="#000000" font-family="sans-serif" font-size="8.8" lengthAdjust="spacing" textLength="45.6" x="424" y="642.3414">stateOfTest</text><rect fill="none" height="4.8" style="stroke:#C82930;stroke-width:0.8;" width="4.8" x="414.4" y="647.475"/><text fill="#000000" font-family="sans-serif" font-size="8.8" lengthAdjust="spacing" textLength="48" x="424" y="653.4102">internalCode</text><line style="stroke:#A80036;stroke-width:1.2000000000000002;" x1="408.8" x2="495.2" y1="658.5438" y2="658.5438"/><!--MD5=[ed6624c6556d5e7b1bd23032162d20b7]
class Client--><rect codeLine="44" fill="#FEFECE" filter="url(#f1wrawq4xc625a)" height="38.4" id="Client" style="stroke:#A80036;stroke-width:1.2000000000000002;" width="51.2" x="524" y="598.8"/><ellipse cx="536" cy="611.6" fill="#ADD1B2" rx="8.8" ry="8.8" style="stroke:#A80036;stroke-width:0.8;"/><path d="M537.6,608.8 Q537.7625,608.4 537.95,608.2 Q538.1375,608 538.35,608 Q538.725,608 538.9625,608.225 Q539.2,608.45 539.2,608.975 L539.2,610.225 Q539.2,610.75 538.975,610.975 Q538.75,611.2 538.4,611.2 Q538.0875,611.2 537.8875,611.0625 Q537.6875,610.925 537.6,610.5625 Q537.5625,610.3125 537.425,610.175 Q537.175,609.9125 536.725,609.7625 Q536.275,609.6 535.825,609.6 Q535.2625,609.6 534.7875,609.825 Q534.325,610.05 533.9625,610.55 Q533.6,611.05 533.6,611.7375 L533.6,612.475 Q533.6,613.3 534.275,613.85 Q534.95,614.4 536.15,614.4 Q536.8625,614.4 537.3625,614.2375 Q537.65,614.15 537.975,613.8625 Q538.1875,613.7 538.3,613.65 Q538.4125,613.6 538.55,613.6 Q538.8125,613.6 539,613.8125 Q539.2,614.0125 539.2,614.3 Q539.2,614.575 538.925,614.9 Q538.525,615.375 537.8875,615.6375 Q537.05,616 536.025,616 Q534.825,616 533.8625,615.525 Q533.0875,615.15 532.5375,614.3375 Q532,613.525 532,612.5625 L532,611.6875 Q532,610.6875 532.475,609.8125 Q532.9625,608.9375 533.8,608.475 Q534.65,608 535.6,608 Q536.175,608 536.675,608.2 Q537.175,608.4 537.6,608.8 Z " fill="#000000"/><text fill="#000000" font-family="sans-serif" font-size="9.6" lengthAdjust="spacing" textLength="25.6" x="547.2" y="615.5281">Client</text><line style="stroke:#A80036;stroke-width:1.2000000000000002;" x1="524.8" x2="574.4" y1="624.4" y2="624.4"/><line style="stroke:#A80036;stroke-width:1.2000000000000002;" x1="524.8" x2="574.4" y1="630.8" y2="630.8"/><!--MD5=[6488d949f0b3201a1a4d4b30662da8d5]
class Overview--><rect codeLine="46" fill="#FEFECE" filter="url(#f1wrawq4xc625a)" height="215.5" id="Overview" style="stroke:#A80036;stroke-width:1.2000000000000002;" width="235.2" x="25.6" y="510.4"/><ellipse cx="120.2" cy="523.2" fill="#ADD1B2" rx="8.8" ry="8.8" style="stroke:#A80036;stroke-width:0.8;"/><path d="M121.8,520.4 Q121.9625,520 122.15,519.8 Q122.3375,519.6 122.55,519.6 Q122.925,519.6 123.1625,519.825 Q123.4,520.05 123.4,520.575 L123.4,521.825 Q123.4,522.35 123.175,522.575 Q122.95,522.8 122.6,522.8 Q122.2875,522.8 122.0875,522.6625 Q121.8875,522.525 121.8,522.1625 Q121.7625,521.9125 121.625,521.775 Q121.375,521.5125 120.925,521.3625 Q120.475,521.2 120.025,521.2 Q119.4625,521.2 118.9875,521.425 Q118.525,521.65 118.1625,522.15 Q117.8,522.65 117.8,523.3375 L117.8,524.075 Q117.8,524.9 118.475,525.45 Q119.15,526 120.35,526 Q121.0625,526 121.5625,525.8375 Q121.85,525.75 122.175,525.4625 Q122.3875,525.3 122.5,525.25 Q122.6125,525.2 122.75,525.2 Q123.0125,525.2 123.2,525.4125 Q123.4,525.6125 123.4,525.9 Q123.4,526.175 123.125,526.5 Q122.725,526.975 122.0875,527.2375 Q121.25,527.6 120.225,527.6 Q119.025,527.6 118.0625,527.125 Q117.2875,526.75 116.7375,525.9375 Q116.2,525.125 116.2,524.1625 L116.2,523.2875 Q116.2,522.2875 116.675,521.4125 Q117.1625,520.5375 118,520.075 Q118.85,519.6 119.8,519.6 Q120.375,519.6 120.875,519.8 Q121.375,520 121.8,520.4 Z " fill="#000000"/><text fill="#000000" font-family="sans-serif" font-size="9.6" lengthAdjust="spacing" textLength="39.2" x="136.6" y="527.1281">Overview</text><line style="stroke:#A80036;stroke-width:1.2000000000000002;" x1="26.4" x2="260" y1="536" y2="536"/><line style="stroke:#A80036;stroke-width:1.2000000000000002;" x1="26.4" x2="260" y1="542.4" y2="542.4"/><ellipse cx="34.4" cy="551.2" fill="#84BE84" rx="2.4" ry="2.4" style="stroke:#038048;stroke-width:0.8;"/><text fill="#000000" font-family="sans-serif" font-size="8.8" lengthAdjust="spacing" textLength="88" x="41.6" y="554.7352">getAssociatedClients()</text><ellipse cx="34.4" cy="562.2688" fill="#84BE84" rx="2.4" ry="2.4" style="stroke:#038048;stroke-width:0.8;"/><text fill="#000000" font-family="sans-serif" font-size="8.8" lengthAdjust="spacing" textLength="124.8" x="41.6" y="565.8039">getTestsWaitingForResultsDay()</text><ellipse cx="34.4" cy="573.3375" fill="#84BE84" rx="2.4" ry="2.4" style="stroke:#038048;stroke-width:0.8;"/><text fill="#000000" font-family="sans-serif" font-size="8.8" lengthAdjust="spacing" textLength="133.6" x="41.6" y="576.8727">getTestsWaitingForDiagnosisDay()</text><ellipse cx="34.4" cy="584.4063" fill="#84BE84" rx="2.4" ry="2.4" style="stroke:#038048;stroke-width:0.8;"/><text fill="#000000" font-family="sans-serif" font-size="8.8" lengthAdjust="spacing" textLength="131.2" x="41.6" y="587.9414">getNumberOfTestsPrcossedDay()</text><ellipse cx="34.4" cy="595.475" fill="#84BE84" rx="2.4" ry="2.4" style="stroke:#038048;stroke-width:0.8;"/><text fill="#000000" font-family="sans-serif" font-size="8.8" lengthAdjust="spacing" textLength="68.8" x="41.6" y="599.0102">getIntervalDates()</text><ellipse cx="34.4" cy="606.5438" fill="#84BE84" rx="2.4" ry="2.4" style="stroke:#038048;stroke-width:0.8;"/><text fill="#000000" font-family="sans-serif" font-size="8.8" lengthAdjust="spacing" textLength="144" x="41.6" y="610.0789">getSequenceTestWaitingForResults()</text><ellipse cx="34.4" cy="617.6125" fill="#84BE84" rx="2.4" ry="2.4" style="stroke:#038048;stroke-width:0.8;"/><text fill="#000000" font-family="sans-serif" font-size="8.8" lengthAdjust="spacing" textLength="110.4" x="41.6" y="621.1477">getSequenceTestValidated()</text><ellipse cx="34.4" cy="628.6813" fill="#84BE84" rx="2.4" ry="2.4" style="stroke:#038048;stroke-width:0.8;"/><text fill="#000000" font-family="sans-serif" font-size="8.8" lengthAdjust="spacing" textLength="73.6" x="41.6" y="632.2164">getSequenceAux()</text><ellipse cx="34.4" cy="639.75" fill="#84BE84" rx="2.4" ry="2.4" style="stroke:#038048;stroke-width:0.8;"/><text fill="#000000" font-family="sans-serif" font-size="8.8" lengthAdjust="spacing" textLength="83.2" x="41.6" y="643.2852">getNumberOfClients()</text><ellipse cx="34.4" cy="650.8188" fill="#84BE84" rx="2.4" ry="2.4" style="stroke:#038048;stroke-width:0.8;"/><text fill="#000000" font-family="sans-serif" font-size="8.8" lengthAdjust="spacing" textLength="148.8" x="41.6" y="654.3539">getNumberOfTestsWaitingForResults()</text><ellipse cx="34.4" cy="661.8875" fill="#84BE84" rx="2.4" ry="2.4" style="stroke:#038048;stroke-width:0.8;"/><text fill="#000000" font-family="sans-serif" font-size="8.8" lengthAdjust="spacing" textLength="157.6" x="41.6" y="665.4227">getNumberOfTestsWaitingForDiagnosis()</text><ellipse cx="34.4" cy="672.9563" fill="#84BE84" rx="2.4" ry="2.4" style="stroke:#038048;stroke-width:0.8;"/><text fill="#000000" font-family="sans-serif" font-size="8.8" lengthAdjust="spacing" textLength="139.2" x="41.6" y="676.4914">getTotalNumberOfTestsProcessed()</text><ellipse cx="34.4" cy="684.025" fill="#84BE84" rx="2.4" ry="2.4" style="stroke:#038048;stroke-width:0.8;"/><text fill="#000000" font-family="sans-serif" font-size="8.8" lengthAdjust="spacing" textLength="94.4" x="41.6" y="687.5602">getAvailableAlgorithms()</text><ellipse cx="34.4" cy="695.0938" fill="#84BE84" rx="2.4" ry="2.4" style="stroke:#038048;stroke-width:0.8;"/><text fill="#000000" font-family="sans-serif" font-size="8.8" lengthAdjust="spacing" textLength="140.8" x="41.6" y="698.6289">getSubsequenceWithMaximumSum()</text><ellipse cx="34.4" cy="706.1625" fill="#84BE84" rx="2.4" ry="2.4" style="stroke:#038048;stroke-width:0.8;"/><text fill="#000000" font-family="sans-serif" font-size="8.8" lengthAdjust="spacing" textLength="165.6" x="41.6" y="709.6977">getPeriodSubSequenceWithMaximumSum()</text><ellipse cx="34.4" cy="717.2313" fill="#84BE84" rx="2.4" ry="2.4" style="stroke:#038048;stroke-width:0.8;"/><text fill="#000000" font-family="sans-serif" font-size="8.8" lengthAdjust="spacing" textLength="214.4" x="41.6" y="720.7664">periodSubSequenceMaxSum(subSequence, sequence)</text><!--MD5=[0f6f7964b844a64b0496af0dda7914bd]
class TestStore--><rect codeLine="69" fill="#FEFECE" filter="url(#f1wrawq4xc625a)" height="71.6063" id="TestStore" style="stroke:#A80036;stroke-width:1.2000000000000002;" width="168" x="322.4" y="356.8"/><ellipse cx="381.8" cy="369.6" fill="#ADD1B2" rx="8.8" ry="8.8" style="stroke:#A80036;stroke-width:0.8;"/><path d="M383.4,366.8 Q383.5625,366.4 383.75,366.2 Q383.9375,366 384.15,366 Q384.525,366 384.7625,366.225 Q385,366.45 385,366.975 L385,368.225 Q385,368.75 384.775,368.975 Q384.55,369.2 384.2,369.2 Q383.8875,369.2 383.6875,369.0625 Q383.4875,368.925 383.4,368.5625 Q383.3625,368.3125 383.225,368.175 Q382.975,367.9125 382.525,367.7625 Q382.075,367.6 381.625,367.6 Q381.0625,367.6 380.5875,367.825 Q380.125,368.05 379.7625,368.55 Q379.4,369.05 379.4,369.7375 L379.4,370.475 Q379.4,371.3 380.075,371.85 Q380.75,372.4 381.95,372.4 Q382.6625,372.4 383.1625,372.2375 Q383.45,372.15 383.775,371.8625 Q383.9875,371.7 384.1,371.65 Q384.2125,371.6 384.35,371.6 Q384.6125,371.6 384.8,371.8125 Q385,372.0125 385,372.3 Q385,372.575 384.725,372.9 Q384.325,373.375 383.6875,373.6375 Q382.85,374 381.825,374 Q380.625,374 379.6625,373.525 Q378.8875,373.15 378.3375,372.3375 Q377.8,371.525 377.8,370.5625 L377.8,369.6875 Q377.8,368.6875 378.275,367.8125 Q378.7625,366.9375 379.6,366.475 Q380.45,366 381.4,366 Q381.975,366 382.475,366.2 Q382.975,366.4 383.4,366.8 Z " fill="#000000"/><text fill="#000000" font-family="sans-serif" font-size="9.6" lengthAdjust="spacing" textLength="42.4" x="398.2" y="373.5281">TestStore</text><line style="stroke:#A80036;stroke-width:1.2000000000000002;" x1="323.2" x2="489.6" y1="382.4" y2="382.4"/><text fill="#000000" font-family="sans-serif" font-size="8.8" lengthAdjust="spacing" textLength="4.8" x="327.2" y="394.7352">+</text><line style="stroke:#A80036;stroke-width:1.2000000000000002;" x1="323.2" x2="489.6" y1="399.8688" y2="399.8688"/><ellipse cx="331.2" cy="408.6688" fill="#84BE84" rx="2.4" ry="2.4" style="stroke:#038048;stroke-width:0.8;"/><text fill="#000000" font-family="sans-serif" font-size="8.8" lengthAdjust="spacing" textLength="147.2" x="338.4" y="412.2039">getIntervalTestList(initialDate,endDate)</text><ellipse cx="331.2" cy="419.7375" fill="#84BE84" rx="2.4" ry="2.4" style="stroke:#038048;stroke-width:0.8;"/><text fill="#000000" font-family="sans-serif" font-size="8.8" lengthAdjust="spacing" textLength="98.4" x="338.4" y="423.2727">getNumberTestsSystem()</text><!--MD5=[55cb992be19579b505cea3c5691093cb]
class ClientStore--><rect codeLine="74" fill="#FEFECE" filter="url(#f1wrawq4xc625a)" height="49.4688" id="ClientStore" style="stroke:#A80036;stroke-width:1.2000000000000002;" width="153.6" x="518.4" y="368"/><ellipse cx="567.4" cy="380.8" fill="#ADD1B2" rx="8.8" ry="8.8" style="stroke:#A80036;stroke-width:0.8;"/><path d="M569,378 Q569.1625,377.6 569.35,377.4 Q569.5375,377.2 569.75,377.2 Q570.125,377.2 570.3625,377.425 Q570.6,377.65 570.6,378.175 L570.6,379.425 Q570.6,379.95 570.375,380.175 Q570.15,380.4 569.8,380.4 Q569.4875,380.4 569.2875,380.2625 Q569.0875,380.125 569,379.7625 Q568.9625,379.5125 568.825,379.375 Q568.575,379.1125 568.125,378.9625 Q567.675,378.8 567.225,378.8 Q566.6625,378.8 566.1875,379.025 Q565.725,379.25 565.3625,379.75 Q565,380.25 565,380.9375 L565,381.675 Q565,382.5 565.675,383.05 Q566.35,383.6 567.55,383.6 Q568.2625,383.6 568.7625,383.4375 Q569.05,383.35 569.375,383.0625 Q569.5875,382.9 569.7,382.85 Q569.8125,382.8 569.95,382.8 Q570.2125,382.8 570.4,383.0125 Q570.6,383.2125 570.6,383.5 Q570.6,383.775 570.325,384.1 Q569.925,384.575 569.2875,384.8375 Q568.45,385.2 567.425,385.2 Q566.225,385.2 565.2625,384.725 Q564.4875,384.35 563.9375,383.5375 Q563.4,382.725 563.4,381.7625 L563.4,380.8875 Q563.4,379.8875 563.875,379.0125 Q564.3625,378.1375 565.2,377.675 Q566.05,377.2 567,377.2 Q567.575,377.2 568.075,377.4 Q568.575,377.6 569,378 Z " fill="#000000"/><text fill="#000000" font-family="sans-serif" font-size="9.6" lengthAdjust="spacing" textLength="48.8" x="583.8" y="384.7281">ClientStore</text><line style="stroke:#A80036;stroke-width:1.2000000000000002;" x1="519.2" x2="671.2" y1="393.6" y2="393.6"/><line style="stroke:#A80036;stroke-width:1.2000000000000002;" x1="519.2" x2="671.2" y1="400" y2="400"/><ellipse cx="527.2" cy="408.8" fill="#84BE84" rx="2.4" ry="2.4" style="stroke:#038048;stroke-width:0.8;"/><text fill="#000000" font-family="sans-serif" font-size="8.8" lengthAdjust="spacing" textLength="132.8" x="534.4" y="412.3352">getNumberOfClientsInTheSystem()</text><!--MD5=[2b56cfd589cfe749874a2b85e3eb71ae]
class SubsequenceWithMaximumSum--><rect codeLine="81" fill="#FEFECE" filter="url(#f1wrawq4xc625a)" height="49.4688" id="SubsequenceWithMaximumSum" style="stroke:#A80036;stroke-width:1.2000000000000002;" width="170.4" x="590" y="807.2"/><ellipse cx="602" cy="820" fill="#B4A7E5" rx="8.8" ry="8.8" style="stroke:#A80036;stroke-width:0.8;"/><path d="M602.8,817.6 L602.8,822.4 L604.4,822.4 L604.7875,822.4 L605.2,822.9 L605.2,823.2 L605.2,823.5 L604.7875,824 L604.4,824 L599.6,824 L599.2125,824 L598.8,823.5 L598.8,823.2 L598.8,822.9 L599.2125,822.4 L599.6,822.4 L601.2,822.4 L601.2,817.6 L599.6,817.6 L599.2125,817.6 L598.8,817.1 L598.8,816.8 L598.8,816.5 L599.2125,816 L599.6,816 L604.4,816 L604.7875,816 L605.2,816.5 L605.2,816.8 L605.2,817.1 L604.7875,817.6 L604.4,817.6 L602.8,817.6 Z " fill="#000000"/><text fill="#000000" font-family="sans-serif" font-size="9.6" font-style="italic" lengthAdjust="spacing" textLength="144.8" x="613.2" y="823.9281">SubsequenceWithMaximumSum</text><line style="stroke:#A80036;stroke-width:1.2000000000000002;" x1="590.8" x2="759.6" y1="832.8" y2="832.8"/><line style="stroke:#A80036;stroke-width:1.2000000000000002;" x1="590.8" x2="759.6" y1="839.2" y2="839.2"/><ellipse cx="598.8" cy="848" fill="#84BE84" rx="2.4" ry="2.4" style="stroke:#038048;stroke-width:0.8;"/><text fill="#000000" font-family="sans-serif" font-size="8.8" lengthAdjust="spacing" textLength="140.8" x="606" y="851.5352">getSubsequenceWithMaximumSum()</text><!--MD5=[b5d43e6dde8b20d61eeaceec3ba46b57]
link OverviewUI to OverviewController--><path codeLine="87" d="M280,72.264 C280,88.168 280,112.136 280,135.848 " fill="none" id="OverviewUI-to-OverviewController" style="stroke:#A80036;stroke-width:0.8;stroke-dasharray:7.0,7.0;"/><polygon fill="#A80036" points="280,139.952,283.2,132.752,280,135.952,276.8,132.752,280,139.952" style="stroke:#A80036;stroke-width:0.8;"/><!--MD5=[afcffa63d31dbb8b6780357b49737f46]
link OverviewController to TestStore--><path codeLine="89" d="M332.688,288.896 C348.504,311.016 365.224,334.408 378.736,353.304 " fill="none" id="OverviewController-to-TestStore" style="stroke:#A80036;stroke-width:0.8;stroke-dasharray:7.0,7.0;"/><polygon fill="#A80036" points="381.216,356.776,379.6274,349.0587,378.8878,353.5234,374.4232,352.7838,381.216,356.776" style="stroke:#A80036;stroke-width:0.8;"/><!--MD5=[0457e93c71bc111013c44081e8b80bd7]
link OverviewController to ClientStore--><path codeLine="90" d="M373.448,253.888 C414.8,272.4 463.344,296.08 504.8,321.6 C525.688,334.464 547.432,351.272 564.36,365.232 " fill="none" id="OverviewController-to-ClientStore" style="stroke:#A80036;stroke-width:0.8;stroke-dasharray:7.0,7.0;"/><polygon fill="#A80036" points="567.464,367.808,563.9504,360.7557,564.3799,365.2608,559.8749,365.6903,567.464,367.808" style="stroke:#A80036;stroke-width:0.8;"/><!--MD5=[57a7026b392c729204b0e62bf7ca30f7]
link OverviewController to Company--><path codeLine="91" d="M250.808,288.952 C234.464,343.232 223.72,416.4 259.2,468.8 C263.496,475.144 269.744,469.824 275.2,475.2 C303.416,503.016 318.808,546.272 326.768,577.736 " fill="none" id="OverviewController-to-Company" style="stroke:#A80036;stroke-width:0.8;stroke-dasharray:7.0,7.0;"/><polygon fill="#A80036" points="327.792,581.904,329.1717,574.1467,326.8326,578.0208,322.9585,575.6817,327.792,581.904" style="stroke:#A80036;stroke-width:0.8;"/><!--MD5=[5a202084d49e6a74b2adda1c4a7283a3]
link OverviewController to Test--><path codeLine="92" d="M270.264,289.04 C267.824,339.28 273.4,404.32 309.6,448 C312.728,451.776 390,471.864 393.6,475.2 C419.624,499.288 434.368,536.688 442.536,567.056 " fill="none" id="OverviewController-to-Test" style="stroke:#A80036;stroke-width:0.8;stroke-dasharray:7.0,7.0;"/><polygon fill="#A80036" points="443.592,571.104,444.8588,563.3274,442.5763,567.2351,438.6686,564.9526,443.592,571.104" style="stroke:#A80036;stroke-width:0.8;"/><!--MD5=[d4d19ca8196fb0860a5c43d404efb101]
link OverviewController to Overview--><path codeLine="93" d="M242.584,288.92 C237.656,299.752 232.896,310.88 228.8,321.6 C205.928,381.424 185.704,450.032 170.672,506.088 " fill="none" id="OverviewController-to-Overview" style="stroke:#A80036;stroke-width:0.8;stroke-dasharray:7.0,7.0;"/><polygon fill="#A80036" points="169.592,510.104,174.5538,503.9835,170.6319,506.2415,168.3738,502.3197,169.592,510.104" style="stroke:#A80036;stroke-width:0.8;"/><!--MD5=[7f6cf7f175eae0af66201860de5de971]
link Company to TestStore--><path codeLine="95" d="M345.752,581.936 C358.792,541.448 380.128,475.2 393.704,433.032 " fill="none" id="Company-to-TestStore" style="stroke:#A80036;stroke-width:0.8;"/><polygon fill="#A80036" points="394.992,429.032,389.7428,434.9079,393.7683,432.8402,395.836,436.8658,394.992,429.032" style="stroke:#A80036;stroke-width:0.8;"/><text fill="#000000" font-family="sans-serif" font-size="10.4" lengthAdjust="spacing" textLength="22.4" x="385.6" y="465.9961">uses</text><text fill="#000000" font-family="sans-serif" font-size="10.4" lengthAdjust="spacing" textLength="5.6" x="341.515" y="573.2182">1</text><text fill="#000000" font-family="sans-serif" font-size="10.4" lengthAdjust="spacing" textLength="5.6" x="387.4828" y="445.6021">1</text><!--MD5=[b0f4f6db8206580012ef9cd998ed01c5]
link TestStore to Test--><path codeLine="96" d="M413.624,429.032 C421.216,466.248 433.216,525.104 441.776,567.072 " fill="none" id="TestStore-to-Test" style="stroke:#A80036;stroke-width:0.8;"/><polygon fill="#A80036" points="442.592,571.08,444.2877,563.3855,441.7922,567.1608,438.0169,564.6653,442.592,571.08" style="stroke:#A80036;stroke-width:0.8;"/><text fill="#000000" font-family="sans-serif" font-size="10.4" lengthAdjust="spacing" textLength="29.6" x="421.6" y="465.9961">knows</text><text fill="#000000" font-family="sans-serif" font-size="10.4" lengthAdjust="spacing" textLength="5.6" x="408.6185" y="445.6021">1</text><text fill="#000000" font-family="sans-serif" font-size="10.4" lengthAdjust="spacing" textLength="4" x="437.2017" y="562.5861">*</text><!--MD5=[1d934105a045dbf126514c6917bd5072]
link ClientStore to Client--><path codeLine="97" d="M590.28,417.744 C581.4,461.28 562.824,552.36 554.192,594.68 " fill="none" id="ClientStore-to-Client" style="stroke:#A80036;stroke-width:0.8;"/><polygon fill="#A80036" points="553.392,598.624,557.9671,592.2093,554.1918,594.7048,551.6963,590.9295,553.392,598.624" style="stroke:#A80036;stroke-width:0.8;"/><text fill="#000000" font-family="sans-serif" font-size="10.4" lengthAdjust="spacing" textLength="29.6" x="582.4" y="465.9961">knows</text><text fill="#000000" font-family="sans-serif" font-size="10.4" lengthAdjust="spacing" textLength="5.6" x="583.1601" y="434.7515">1</text><text fill="#000000" font-family="sans-serif" font-size="10.4" lengthAdjust="spacing" textLength="4" x="549.8512" y="590.051">*</text><!--MD5=[b93f17079b602d6561eaa7b2f9f4fd74]
link Overview to SubsequenceWithMaximumSum--><path codeLine="99" d="M244.984,725.608 C254.72,732.776 264.84,739.312 275.2,744.8 C373.6,796.96 501.48,817.64 585.84,825.832 " fill="none" id="Overview-to-SubsequenceWithMaximumSum" style="stroke:#A80036;stroke-width:0.8;"/><polygon fill="#A80036" points="589.824,826.216,582.9693,822.331,585.843,825.827,582.347,828.7007,589.824,826.216" style="stroke:#A80036;stroke-width:0.8;"/><text fill="#000000" font-family="sans-serif" font-size="10.4" lengthAdjust="spacing" textLength="62.4" x="315.2" y="762.7961">makes use of</text><text fill="#000000" font-family="sans-serif" font-size="10.4" lengthAdjust="spacing" textLength="4" x="246.7528" y="742.9946">*</text><text fill="#000000" font-family="sans-serif" font-size="10.4" lengthAdjust="spacing" textLength="5.6" x="578.0241" y="823.3699">1</text><!--MD5=[8997d9d13c6ba1f9bb4ee6ff342a097d]
link BenchmarkAdapter to SubsequenceWithMaximumSum--><path codeLine="101" d="M675.2,637.28 C675.2,671.376 675.2,744.904 675.2,790.984 " fill="none" id="BenchmarkAdapter-to-SubsequenceWithMaximumSum" style="stroke:#A80036;stroke-width:0.8;stroke-dasharray:7.0,7.0;"/><polygon fill="none" points="680.8,791.16,675.2,807.16,669.6,791.16,680.8,791.16" style="stroke:#A80036;stroke-width:0.8;"/><!--MD5=[a5b5fe6b30e64a5edc1781e50286c47a]
link BruteForceAdapter to SubsequenceWithMaximumSum--><path codeLine="102" d="M803.296,637.328 C791.208,662.432 768.112,708.296 744,744.8 C732.72,761.88 718.888,779.736 706.592,794.752 " fill="none" id="BruteForceAdapter-to-SubsequenceWithMaximumSum" style="stroke:#A80036;stroke-width:0.8;stroke-dasharray:7.0,7.0;"/><polygon fill="none" points="710.824,798.416,696.28,807.128,702.216,791.248,710.824,798.416" style="stroke:#A80036;stroke-width:0.8;"/><!--MD5=[33ac0dd67349b2dcf8459d865ee83533]
@startuml


package ui {
class OverviewUI{}
}

package Controller{
class OverviewController{
+getIntervalTestList(initialDate,endDate)
+getNumberOfClients()
+getNumberTestsSystem()
+getNumberClientsSystem()
+getNumberOfTestsWaitingForResults()
+getNumberOfTestsWaitingForDiagnosis()
+getTotalNumberOfTestsProcessed()
+getAvailableAlgorithms()
+getSubsequenceWithMaximumSum()
+getPeriodSubSequenceWithMaximumSum()
}
}

package adapter{
class BenchmarkAdapter{
}

class BruteForceAdapter{
}
}

package model{
class Company{
+getTestStore()
+getClientStore()
+createOverview()

}
class Test{
-client
-nhscode
-testParameterList
-stateOfTest
-internalCode
}
class Client{
}
class Overview{
+getAssociatedClients()
+getTestsWaitingForResultsDay()
+getTestsWaitingForDiagnosisDay()
+getNumberOfTestsPrcossedDay()
+getIntervalDates()
+getSequenceTestWaitingForResults()
+getSequenceTestValidated()
+getSequenceAux()
+getNumberOfClients()
+getNumberOfTestsWaitingForResults()
+getNumberOfTestsWaitingForDiagnosis()
+getTotalNumberOfTestsProcessed()
+getAvailableAlgorithms()
+getSubsequenceWithMaximumSum()
+getPeriodSubSequenceWithMaximumSum()
+ periodSubSequenceMaxSum(subSequence, sequence)
}
}



package store{
class TestStore{
+getIntervalTestList(initialDate,endDate)
+getNumberTestsSystem()
+
}
class ClientStore{
+getNumberOfClientsInTheSystem()
}
}


package interfaces{
interface SubsequenceWithMaximumSum{
+getSubsequenceWithMaximumSum()
}
}


OverviewUI ..> OverviewController

OverviewController ..> TestStore
OverviewController ..> ClientStore
OverviewController ..> Company
OverviewController ..> Test
OverviewController ..> Overview

Company "1" - - - -> "1" TestStore : uses
TestStore "1" - -> "*" Test : knows
ClientStore "1" - -> "*" Client : knows

Overview "*" - ->"1"  SubsequenceWithMaximumSum : makes use of

BenchmarkAdapter..|>SubsequenceWithMaximumSum
BruteForceAdapter..|>SubsequenceWithMaximumSum

@enduml

PlantUML version 1.2021.00(Sun Jan 10 10:25:05 GMT 2021)
(GPL source distribution)
Java Runtime: OpenJDK Runtime Environment
JVM: OpenJDK 64-Bit Server VM
Default Encoding: Cp1252
Language: pt
Country: PT
--></g></svg>