<?xml version="1.0" encoding="UTF-8" standalone="no"?><svg xmlns="http://www.w3.org/2000/svg" xmlns:xlink="http://www.w3.org/1999/xlink" contentScriptType="application/ecmascript" contentStyleType="text/css" height="470px" preserveAspectRatio="none" style="width:472px;height:470px;" version="1.1" viewBox="0 0 472 470" width="472px" zoomAndPan="magnify"><defs><filter height="300%" id="fz22yf710x7vc" width="300%" x="-1" y="-1"><feGaussianBlur result="blurOut" stdDeviation="2.0"/><feColorMatrix in="blurOut" result="blurOut2" type="matrix" values="0 0 0 0 0 0 0 0 0 0 0 0 0 0 0 0 0 0 .4 0"/><feOffset dx="4.0" dy="4.0" in="blurOut2" result="blurOut3"/><feBlend in="SourceGraphic" in2="blurOut3" mode="normal"/></filter></defs><g><rect fill="#FFFFFF" filter="url(#fz22yf710x7vc)" height="275.1641" style="stroke:#A80036;stroke-width:1.0;" width="10" x="32.5" y="99.6094"/><rect fill="#FFFFFF" filter="url(#fz22yf710x7vc)" height="30.3516" style="stroke:#A80036;stroke-width:1.0;" width="10" x="409.5" y="121.9609"/><rect fill="#FFFFFF" filter="url(#fz22yf710x7vc)" height="30.3516" style="stroke:#A80036;stroke-width:1.0;" width="10" x="409.5" y="182.6641"/><rect fill="#FFFFFF" filter="url(#fz22yf710x7vc)" height="30.3516" style="stroke:#A80036;stroke-width:1.0;" width="10" x="409.5" y="268.7188"/><rect fill="#FFFFFF" filter="url(#fz22yf710x7vc)" height="30.3516" style="stroke:#A80036;stroke-width:1.0;" width="10" x="409.5" y="329.4219"/><rect fill="#FFFFFF" filter="url(#fz22yf710x7vc)" height="139.7578" style="stroke:#000000;stroke-width:2.0;" width="448.5" x="10" y="228.0156"/><line style="stroke:#A80036;stroke-width:1.0;stroke-dasharray:5.0,5.0;" x1="37" x2="37" y1="89.6094" y2="384.7734"/><line style="stroke:#A80036;stroke-width:1.0;stroke-dasharray:5.0,5.0;" x1="414.5" x2="414.5" y1="89.6094" y2="384.7734"/><text fill="#000000" font-family="sans-serif" font-size="14" lengthAdjust="spacing" textLength="29" x="20" y="86.5332">User</text><ellipse cx="37.5" cy="15" fill="#FEFECE" filter="url(#fz22yf710x7vc)" rx="8" ry="8" style="stroke:#A80036;stroke-width:2.0;"/><path d="M37.5,23 L37.5,50 M24.5,31 L50.5,31 M37.5,50 L24.5,65 M37.5,50 L50.5,65 " fill="none" filter="url(#fz22yf710x7vc)" style="stroke:#A80036;stroke-width:2.0;"/><text fill="#000000" font-family="sans-serif" font-size="14" lengthAdjust="spacing" textLength="29" x="20" y="398.3066">User</text><ellipse cx="37.5" cy="411.3828" fill="#FEFECE" filter="url(#fz22yf710x7vc)" rx="8" ry="8" style="stroke:#A80036;stroke-width:2.0;"/><path d="M37.5,419.3828 L37.5,446.3828 M24.5,427.3828 L50.5,427.3828 M37.5,446.3828 L24.5,461.3828 M37.5,446.3828 L50.5,461.3828 " fill="none" filter="url(#fz22yf710x7vc)" style="stroke:#A80036;stroke-width:2.0;"/><rect fill="#FEFECE" filter="url(#fz22yf710x7vc)" height="31.6094" style="stroke:#A80036;stroke-width:1.5;" width="64" x="380.5" y="53"/><text fill="#000000" font-family="sans-serif" font-size="14" lengthAdjust="spacing" textLength="50" x="387.5" y="74.5332">:System</text><rect fill="#FEFECE" filter="url(#fz22yf710x7vc)" height="31.6094" style="stroke:#A80036;stroke-width:1.5;" width="64" x="380.5" y="383.7734"/><text fill="#000000" font-family="sans-serif" font-size="14" lengthAdjust="spacing" textLength="50" x="387.5" y="405.3066">:System</text><rect fill="#FFFFFF" filter="url(#fz22yf710x7vc)" height="275.1641" style="stroke:#A80036;stroke-width:1.0;" width="10" x="32.5" y="99.6094"/><rect fill="#FFFFFF" filter="url(#fz22yf710x7vc)" height="30.3516" style="stroke:#A80036;stroke-width:1.0;" width="10" x="409.5" y="121.9609"/><rect fill="#FFFFFF" filter="url(#fz22yf710x7vc)" height="30.3516" style="stroke:#A80036;stroke-width:1.0;" width="10" x="409.5" y="182.6641"/><rect fill="#FFFFFF" filter="url(#fz22yf710x7vc)" height="30.3516" style="stroke:#A80036;stroke-width:1.0;" width="10" x="409.5" y="268.7188"/><rect fill="#FFFFFF" filter="url(#fz22yf710x7vc)" height="30.3516" style="stroke:#A80036;stroke-width:1.0;" width="10" x="409.5" y="329.4219"/><polygon fill="#A80036" points="397.5,117.9609,407.5,121.9609,397.5,125.9609,401.5,121.9609" style="stroke:#A80036;stroke-width:1.0;"/><line style="stroke:#A80036;stroke-width:1.0;" x1="42.5" x2="403.5" y1="121.9609" y2="121.9609"/><text fill="#000000" font-family="sans-serif" font-size="13" font-weight="bold" lengthAdjust="spacing" textLength="7" x="49.5" y="117.1045">1</text><text fill="#000000" font-family="sans-serif" font-size="13" lengthAdjust="spacing" textLength="254" x="60.5" y="117.1045">Initiates the process of overviewing the tests</text><polygon fill="#A80036" points="53.5,148.3125,43.5,152.3125,53.5,156.3125,49.5,152.3125" style="stroke:#A80036;stroke-width:1.0;"/><line style="stroke:#A80036;stroke-width:1.0;stroke-dasharray:2.0,2.0;" x1="47.5" x2="413.5" y1="152.3125" y2="152.3125"/><text fill="#000000" font-family="sans-serif" font-size="13" font-weight="bold" lengthAdjust="spacing" textLength="7" x="59.5" y="147.4561">2</text><text fill="#000000" font-family="sans-serif" font-size="13" lengthAdjust="spacing" textLength="287" x="70.5" y="147.4561">Requests to delimit the period of dates to analyze</text><polygon fill="#A80036" points="397.5,178.6641,407.5,182.6641,397.5,186.6641,401.5,182.6641" style="stroke:#A80036;stroke-width:1.0;"/><line style="stroke:#A80036;stroke-width:1.0;" x1="42.5" x2="403.5" y1="182.6641" y2="182.6641"/><text fill="#000000" font-family="sans-serif" font-size="13" font-weight="bold" lengthAdjust="spacing" textLength="7" x="49.5" y="177.8076">3</text><text fill="#000000" font-family="sans-serif" font-size="13" lengthAdjust="spacing" textLength="310" x="60.5" y="177.8076">Selects the dates and asks to see relative information</text><polygon fill="#A80036" points="53.5,209.0156,43.5,213.0156,53.5,217.0156,49.5,213.0156" style="stroke:#A80036;stroke-width:1.0;"/><line style="stroke:#A80036;stroke-width:1.0;stroke-dasharray:2.0,2.0;" x1="47.5" x2="413.5" y1="213.0156" y2="213.0156"/><text fill="#000000" font-family="sans-serif" font-size="13" font-weight="bold" lengthAdjust="spacing" textLength="7" x="59.5" y="208.1592">4</text><text fill="#000000" font-family="sans-serif" font-size="13" lengthAdjust="spacing" textLength="248" x="70.5" y="208.1592">Shows successfully the relative information</text><path d="M10,228.0156 L71,228.0156 L71,236.0156 L61,246.0156 L10,246.0156 L10,228.0156 " fill="#EEEEEE" style="stroke:#000000;stroke-width:1.0;"/><rect fill="none" height="139.7578" style="stroke:#000000;stroke-width:2.0;" width="448.5" x="10" y="228.0156"/><text fill="#000000" font-family="sans-serif" font-size="13" font-weight="bold" lengthAdjust="spacing" textLength="16" x="25" y="242.5107">alt</text><text fill="#000000" font-family="sans-serif" font-size="11" font-weight="bold" lengthAdjust="spacing" textLength="218" x="86" y="241.4346">[select option to evaluate performance]</text><polygon fill="#A80036" points="397.5,264.7188,407.5,268.7188,397.5,272.7188,401.5,268.7188" style="stroke:#A80036;stroke-width:1.0;"/><line style="stroke:#A80036;stroke-width:1.0;" x1="42.5" x2="403.5" y1="268.7188" y2="268.7188"/><text fill="#000000" font-family="sans-serif" font-size="13" font-weight="bold" lengthAdjust="spacing" textLength="7" x="49.5" y="263.8623">5</text><text fill="#000000" font-family="sans-serif" font-size="13" lengthAdjust="spacing" textLength="171" x="60.5" y="263.8623">Asks to evaluate performance</text><polygon fill="#A80036" points="53.5,295.0703,43.5,299.0703,53.5,303.0703,49.5,299.0703" style="stroke:#A80036;stroke-width:1.0;"/><line style="stroke:#A80036;stroke-width:1.0;stroke-dasharray:2.0,2.0;" x1="47.5" x2="413.5" y1="299.0703" y2="299.0703"/><text fill="#000000" font-family="sans-serif" font-size="13" font-weight="bold" lengthAdjust="spacing" textLength="7" x="59.5" y="294.2139">6</text><text fill="#000000" font-family="sans-serif" font-size="13" lengthAdjust="spacing" textLength="156" x="70.5" y="294.2139">Shows available algorithms</text><polygon fill="#A80036" points="397.5,325.4219,407.5,329.4219,397.5,333.4219,401.5,329.4219" style="stroke:#A80036;stroke-width:1.0;"/><line style="stroke:#A80036;stroke-width:1.0;" x1="42.5" x2="403.5" y1="329.4219" y2="329.4219"/><text fill="#000000" font-family="sans-serif" font-size="13" font-weight="bold" lengthAdjust="spacing" textLength="7" x="49.5" y="324.5654">7</text><text fill="#000000" font-family="sans-serif" font-size="13" lengthAdjust="spacing" textLength="331" x="60.5" y="324.5654">Selects the algorithm and asks for the least effective time</text><polygon fill="#A80036" points="53.5,355.7734,43.5,359.7734,53.5,363.7734,49.5,359.7734" style="stroke:#A80036;stroke-width:1.0;"/><line style="stroke:#A80036;stroke-width:1.0;stroke-dasharray:2.0,2.0;" x1="47.5" x2="413.5" y1="359.7734" y2="359.7734"/><text fill="#000000" font-family="sans-serif" font-size="13" font-weight="bold" lengthAdjust="spacing" textLength="7" x="59.5" y="354.917">8</text><text fill="#000000" font-family="sans-serif" font-size="13" lengthAdjust="spacing" textLength="332" x="70.5" y="354.917">Shows successfully the least effective time and Statistics</text><!--MD5=[6cfeb9d759004ab3b72be5c9d353135b]
@startuml
autonumber
actor "User" as User

activate User
User -> ":System" : Initiates the process of overviewing the tests
activate ":System"

":System" - -> User : Requests to delimit the period of dates to analyze
deactivate ":System"

User -> ":System" : Selects the dates and asks to see relative information
activate ":System"

":System" - -> User : Shows successfully the relative information
deactivate ":System"
alt select option to evaluate performance
User -> ":System" : Asks to evaluate performance
activate ":System"
":System" - -> User : Shows available algorithms
deactivate ":System"

User -> ":System" : Selects the algorithm and asks for the least effective time
activate ":System"
":System" - -> User : Shows successfully the least effective time and Statistics
deactivate ":System"
end
deactivate User

@enduml

PlantUML version 1.2021.5(Sun Apr 25 12:20:28 BST 2021)
(GPL source distribution)
Java Runtime: OpenJDK Runtime Environment
JVM: Dynamic Code Evolution 64-Bit Server VM
Default Encoding: Cp1252
Language: pt
Country: PT
--></g></svg>