<?xml version="1.0" encoding="UTF-8" standalone="no"?><svg xmlns="http://www.w3.org/2000/svg" xmlns:xlink="http://www.w3.org/1999/xlink" contentScriptType="application/ecmascript" contentStyleType="text/css" height="299.2px" preserveAspectRatio="none" style="width:445px;height:299px;" version="1.1" viewBox="0 0 445 299" width="445.6px" zoomAndPan="magnify"><defs><filter height="300%" id="fsbzf4hsmpj4" width="300%" x="-1" y="-1"><feGaussianBlur result="blurOut" stdDeviation="1.6"/><feColorMatrix in="blurOut" result="blurOut2" type="matrix" values="0 0 0 0 0 0 0 0 0 0 0 0 0 0 0 0 0 0 .4 0"/><feOffset dx="3.2" dy="3.2" in="blurOut2" result="blurOut3"/><feBlend in="SourceGraphic" in2="blurOut3" mode="normal"/></filter></defs><g><!--MD5=[02e4b9b7573f1156f41e60aa5b4e25a4]
class Company--><rect codeLine="6" fill="#FEFECE" filter="url(#fsbzf4hsmpj4)" height="43.0688" id="Company" style="stroke:#A80036;stroke-width:1.2000000000000002;" width="68" x="22.8" y="5.6"/><ellipse cx="34.8" cy="18.4" fill="#ADD1B2" rx="8.8" ry="8.8" style="stroke:#A80036;stroke-width:0.8;"/><path d="M36.4,15.6 Q36.5625,15.2 36.75,15 Q36.9375,14.8 37.15,14.8 Q37.525,14.8 37.7625,15.025 Q38,15.25 38,15.775 L38,17.025 Q38,17.55 37.775,17.775 Q37.55,18 37.2,18 Q36.8875,18 36.6875,17.8625 Q36.4875,17.725 36.4,17.3625 Q36.3625,17.1125 36.225,16.975 Q35.975,16.7125 35.525,16.5625 Q35.075,16.4 34.625,16.4 Q34.0625,16.4 33.5875,16.625 Q33.125,16.85 32.7625,17.35 Q32.4,17.85 32.4,18.5375 L32.4,19.275 Q32.4,20.1 33.075,20.65 Q33.75,21.2 34.95,21.2 Q35.6625,21.2 36.1625,21.0375 Q36.45,20.95 36.775,20.6625 Q36.9875,20.5 37.1,20.45 Q37.2125,20.4 37.35,20.4 Q37.6125,20.4 37.8,20.6125 Q38,20.8125 38,21.1 Q38,21.375 37.725,21.7 Q37.325,22.175 36.6875,22.4375 Q35.85,22.8 34.825,22.8 Q33.625,22.8 32.6625,22.325 Q31.8875,21.95 31.3375,21.1375 Q30.8,20.325 30.8,19.3625 L30.8,18.4875 Q30.8,17.4875 31.275,16.6125 Q31.7625,15.7375 32.6,15.275 Q33.45,14.8 34.4,14.8 Q34.975,14.8 35.475,15 Q35.975,15.2 36.4,15.6 Z " fill="#000000"/><text fill="#000000" font-family="sans-serif" font-size="9.6" lengthAdjust="spacing" textLength="42.4" x="46" y="22.3281">Company</text><line style="stroke:#A80036;stroke-width:1.2000000000000002;" x1="23.6" x2="90" y1="31.2" y2="31.2"/><text fill="#000000" font-family="sans-serif" font-size="8.8" lengthAdjust="spacing" textLength="47.2" x="27.6" y="43.5352">-designation</text><!--MD5=[6488d949f0b3201a1a4d4b30662da8d5]
class Overview--><rect codeLine="10" fill="#FEFECE" filter="url(#fsbzf4hsmpj4)" height="32" id="Overview" style="stroke:#A80036;stroke-width:1.2000000000000002;" width="64.8" x="160.4" y="83.2"/><ellipse cx="172.4" cy="96" fill="#ADD1B2" rx="8.8" ry="8.8" style="stroke:#A80036;stroke-width:0.8;"/><path d="M174,93.2 Q174.1625,92.8 174.35,92.6 Q174.5375,92.4 174.75,92.4 Q175.125,92.4 175.3625,92.625 Q175.6,92.85 175.6,93.375 L175.6,94.625 Q175.6,95.15 175.375,95.375 Q175.15,95.6 174.8,95.6 Q174.4875,95.6 174.2875,95.4625 Q174.0875,95.325 174,94.9625 Q173.9625,94.7125 173.825,94.575 Q173.575,94.3125 173.125,94.1625 Q172.675,94 172.225,94 Q171.6625,94 171.1875,94.225 Q170.725,94.45 170.3625,94.95 Q170,95.45 170,96.1375 L170,96.875 Q170,97.7 170.675,98.25 Q171.35,98.8 172.55,98.8 Q173.2625,98.8 173.7625,98.6375 Q174.05,98.55 174.375,98.2625 Q174.5875,98.1 174.7,98.05 Q174.8125,98 174.95,98 Q175.2125,98 175.4,98.2125 Q175.6,98.4125 175.6,98.7 Q175.6,98.975 175.325,99.3 Q174.925,99.775 174.2875,100.0375 Q173.45,100.4 172.425,100.4 Q171.225,100.4 170.2625,99.925 Q169.4875,99.55 168.9375,98.7375 Q168.4,97.925 168.4,96.9625 L168.4,96.0875 Q168.4,95.0875 168.875,94.2125 Q169.3625,93.3375 170.2,92.875 Q171.05,92.4 172,92.4 Q172.575,92.4 173.075,92.6 Q173.575,92.8 174,93.2 Z " fill="#000000"/><text fill="#000000" font-family="sans-serif" font-size="9.6" lengthAdjust="spacing" textLength="39.2" x="183.6" y="99.9281">Overview</text><line style="stroke:#A80036;stroke-width:1.2000000000000002;" x1="161.2" x2="224.4" y1="108.8" y2="108.8"/><!--MD5=[ed6624c6556d5e7b1bd23032162d20b7]
class Client--><rect codeLine="13" fill="#FEFECE" filter="url(#fsbzf4hsmpj4)" height="120.55" id="Client" style="stroke:#A80036;stroke-width:1.2000000000000002;" width="85.6" x="348.8" y="167.6"/><ellipse cx="376.28" cy="180.4" fill="#ADD1B2" rx="8.8" ry="8.8" style="stroke:#A80036;stroke-width:0.8;"/><path d="M377.88,177.6 Q378.0425,177.2 378.23,177 Q378.4175,176.8 378.63,176.8 Q379.005,176.8 379.2425,177.025 Q379.48,177.25 379.48,177.775 L379.48,179.025 Q379.48,179.55 379.255,179.775 Q379.03,180 378.68,180 Q378.3675,180 378.1675,179.8625 Q377.9675,179.725 377.88,179.3625 Q377.8425,179.1125 377.705,178.975 Q377.455,178.7125 377.005,178.5625 Q376.555,178.4 376.105,178.4 Q375.5425,178.4 375.0675,178.625 Q374.605,178.85 374.2425,179.35 Q373.88,179.85 373.88,180.5375 L373.88,181.275 Q373.88,182.1 374.555,182.65 Q375.23,183.2 376.43,183.2 Q377.1425,183.2 377.6425,183.0375 Q377.93,182.95 378.255,182.6625 Q378.4675,182.5 378.58,182.45 Q378.6925,182.4 378.83,182.4 Q379.0925,182.4 379.28,182.6125 Q379.48,182.8125 379.48,183.1 Q379.48,183.375 379.205,183.7 Q378.805,184.175 378.1675,184.4375 Q377.33,184.8 376.305,184.8 Q375.105,184.8 374.1425,184.325 Q373.3675,183.95 372.8175,183.1375 Q372.28,182.325 372.28,181.3625 L372.28,180.4875 Q372.28,179.4875 372.755,178.6125 Q373.2425,177.7375 374.08,177.275 Q374.93,176.8 375.88,176.8 Q376.455,176.8 376.955,177 Q377.455,177.2 377.88,177.6 Z " fill="#000000"/><text fill="#000000" font-family="sans-serif" font-size="9.6" lengthAdjust="spacing" textLength="25.6" x="390.92" y="184.3281">Client</text><line style="stroke:#A80036;stroke-width:1.2000000000000002;" x1="349.6" x2="433.6" y1="193.2" y2="193.2"/><text fill="#000000" font-family="sans-serif" font-size="8.8" lengthAdjust="spacing" textLength="24" x="353.6" y="205.5352">-name</text><text fill="#000000" font-family="sans-serif" font-size="8.8" lengthAdjust="spacing" textLength="22.4" x="353.6" y="216.6039">-email</text><text fill="#000000" font-family="sans-serif" font-size="8.8" lengthAdjust="spacing" textLength="56.8" x="353.6" y="227.6727">-phoneNumber</text><text fill="#000000" font-family="sans-serif" font-size="8.8" lengthAdjust="spacing" textLength="17.6" x="353.6" y="238.7414">-sex</text><text fill="#000000" font-family="sans-serif" font-size="8.8" lengthAdjust="spacing" textLength="12" x="353.6" y="249.8102">-tin</text><text fill="#000000" font-family="sans-serif" font-size="8.8" lengthAdjust="spacing" textLength="37.6" x="353.6" y="260.8789">-birthDate</text><text fill="#000000" font-family="sans-serif" font-size="8.8" lengthAdjust="spacing" textLength="47.2" x="353.6" y="271.9477">-nhsNumber</text><text fill="#000000" font-family="sans-serif" font-size="8.8" lengthAdjust="spacing" textLength="76" x="353.6" y="283.0164">-citizenCardNumber</text><!--MD5=[df38be88ccee13e832d6fafd6288a4ca]
class Test--><rect codeLine="24" fill="#FEFECE" filter="url(#fsbzf4hsmpj4)" height="120.55" id="Test" style="stroke:#A80036;stroke-width:1.2000000000000002;" width="102.4" x="5.6" y="132.4"/><ellipse cx="43.8" cy="145.2" fill="#ADD1B2" rx="8.8" ry="8.8" style="stroke:#A80036;stroke-width:0.8;"/><path d="M45.4,142.4 Q45.5625,142 45.75,141.8 Q45.9375,141.6 46.15,141.6 Q46.525,141.6 46.7625,141.825 Q47,142.05 47,142.575 L47,143.825 Q47,144.35 46.775,144.575 Q46.55,144.8 46.2,144.8 Q45.8875,144.8 45.6875,144.6625 Q45.4875,144.525 45.4,144.1625 Q45.3625,143.9125 45.225,143.775 Q44.975,143.5125 44.525,143.3625 Q44.075,143.2 43.625,143.2 Q43.0625,143.2 42.5875,143.425 Q42.125,143.65 41.7625,144.15 Q41.4,144.65 41.4,145.3375 L41.4,146.075 Q41.4,146.9 42.075,147.45 Q42.75,148 43.95,148 Q44.6625,148 45.1625,147.8375 Q45.45,147.75 45.775,147.4625 Q45.9875,147.3 46.1,147.25 Q46.2125,147.2 46.35,147.2 Q46.6125,147.2 46.8,147.4125 Q47,147.6125 47,147.9 Q47,148.175 46.725,148.5 Q46.325,148.975 45.6875,149.2375 Q44.85,149.6 43.825,149.6 Q42.625,149.6 41.6625,149.125 Q40.8875,148.75 40.3375,147.9375 Q39.8,147.125 39.8,146.1625 L39.8,145.2875 Q39.8,144.2875 40.275,143.4125 Q40.7625,142.5375 41.6,142.075 Q42.45,141.6 43.4,141.6 Q43.975,141.6 44.475,141.8 Q44.975,142 45.4,142.4 Z " fill="#000000"/><text fill="#000000" font-family="sans-serif" font-size="9.6" lengthAdjust="spacing" textLength="19.2" x="60.2" y="149.1281">Test</text><line style="stroke:#A80036;stroke-width:1.2000000000000002;" x1="6.4" x2="107.2" y1="158" y2="158"/><text fill="#000000" font-family="sans-serif" font-size="8.8" lengthAdjust="spacing" textLength="51.2" x="10.4" y="170.3352">-internalCode</text><text fill="#000000" font-family="sans-serif" font-size="8.8" lengthAdjust="spacing" textLength="37.6" x="10.4" y="181.4039">-nhsCode</text><text fill="#000000" font-family="sans-serif" font-size="8.8" lengthAdjust="spacing" textLength="45.6" x="10.4" y="192.4727">-description</text><text fill="#000000" font-family="sans-serif" font-size="8.8" lengthAdjust="spacing" textLength="92.8" x="10.4" y="203.5414">-dateOfSampleCollected</text><text fill="#000000" font-family="sans-serif" font-size="8.8" lengthAdjust="spacing" textLength="91.2" x="10.4" y="214.6102">-timeOfSampleCollected</text><text fill="#000000" font-family="sans-serif" font-size="8.8" lengthAdjust="spacing" textLength="91.2" x="10.4" y="225.6789">-dateOfSampleAnalysis</text><text fill="#000000" font-family="sans-serif" font-size="8.8" lengthAdjust="spacing" textLength="89.6" x="10.4" y="236.7477">-timeOfSampleAnalysis</text><text fill="#000000" font-family="sans-serif" font-size="8.8" lengthAdjust="spacing" textLength="22.4" x="10.4" y="247.8164">-state</text><!--MD5=[7421f545a0d8420c5bec41e74b387d9c]
class Employee--><rect fill="#FEFECE" filter="url(#fsbzf4hsmpj4)" height="32" id="Employee" style="stroke:#A80036;stroke-width:1.2000000000000002;" width="69.6" x="356.8" y="83.2"/><ellipse cx="368.8" cy="96" fill="#ADD1B2" rx="8.8" ry="8.8" style="stroke:#A80036;stroke-width:0.8;"/><path d="M370.4,93.2 Q370.5625,92.8 370.75,92.6 Q370.9375,92.4 371.15,92.4 Q371.525,92.4 371.7625,92.625 Q372,92.85 372,93.375 L372,94.625 Q372,95.15 371.775,95.375 Q371.55,95.6 371.2,95.6 Q370.8875,95.6 370.6875,95.4625 Q370.4875,95.325 370.4,94.9625 Q370.3625,94.7125 370.225,94.575 Q369.975,94.3125 369.525,94.1625 Q369.075,94 368.625,94 Q368.0625,94 367.5875,94.225 Q367.125,94.45 366.7625,94.95 Q366.4,95.45 366.4,96.1375 L366.4,96.875 Q366.4,97.7 367.075,98.25 Q367.75,98.8 368.95,98.8 Q369.6625,98.8 370.1625,98.6375 Q370.45,98.55 370.775,98.2625 Q370.9875,98.1 371.1,98.05 Q371.2125,98 371.35,98 Q371.6125,98 371.8,98.2125 Q372,98.4125 372,98.7 Q372,98.975 371.725,99.3 Q371.325,99.775 370.6875,100.0375 Q369.85,100.4 368.825,100.4 Q367.625,100.4 366.6625,99.925 Q365.8875,99.55 365.3375,98.7375 Q364.8,97.925 364.8,96.9625 L364.8,96.0875 Q364.8,95.0875 365.275,94.2125 Q365.7625,93.3375 366.6,92.875 Q367.45,92.4 368.4,92.4 Q368.975,92.4 369.475,92.6 Q369.975,92.8 370.4,93.2 Z " fill="#000000"/><text fill="#000000" font-family="sans-serif" font-size="9.6" lengthAdjust="spacing" textLength="44" x="380" y="99.9281">Employee</text><line style="stroke:#A80036;stroke-width:1.2000000000000002;" x1="357.6" x2="425.6" y1="108.8" y2="108.8"/><!--MD5=[09366576ee87d48d594df10cacc83f45]
link Company to Employee--><path codeLine="37" d="M90.992,32.32 C141.84,40.4 241.568,57.384 324.8,78.4 C335.28,81.048 346.552,84.4 356.76,87.64 " fill="none" id="Company-Employee" style="stroke:#A80036;stroke-width:0.8;"/><polygon fill="#000000" points="177.9161,37.7558,171.311,33.9794,170.3527,38.583,177.9161,37.7558" style="stroke:#000000;stroke-width:0.8;"/><text fill="#000000" font-family="sans-serif" font-size="10.4" lengthAdjust="spacing" textLength="33.6" x="181.2" y="41.1961">employ</text><text fill="#000000" font-family="sans-serif" font-size="10.4" lengthAdjust="spacing" textLength="5.6" x="97.1188" y="45.0583">1</text><text fill="#000000" font-family="sans-serif" font-size="10.4" lengthAdjust="spacing" textLength="16" x="334.4679" y="83.0189">1..*</text><!--MD5=[3994f36c72829dbcddd1cf7021dddf61]
link Test to Client--><path codeLine="38" d="M108.008,200.152 C123.632,202.312 140.912,204.576 156.8,206.4 C223.776,214.08 301.792,220.848 348.68,224.68 " fill="none" id="Test-Client" style="stroke:#A80036;stroke-width:0.8;"/><polygon fill="#000000" points="165.1794,199.7462,158.219,196.6735,157.7422,201.3515,165.1794,199.7462" style="stroke:#000000;stroke-width:0.8;"/><text fill="#000000" font-family="sans-serif" font-size="10.4" lengthAdjust="spacing" textLength="59.2" x="168.4" y="203.5961">associated a</text><text fill="#000000" font-family="sans-serif" font-size="10.4" lengthAdjust="spacing" textLength="16" x="114.4839" y="212.4813">1..*</text><text fill="#000000" font-family="sans-serif" font-size="10.4" lengthAdjust="spacing" textLength="5.6" x="336.9364" y="235.9257">1</text><!--MD5=[2fe054cd67471b8fea8c71114980d435]
link Test to Employee--><path codeLine="39" d="M108.208,178.584 C176.928,159.28 297.936,125.288 356.768,108.76 " fill="none" id="Test-Employee" style="stroke:#A80036;stroke-width:0.8;"/><polygon fill="#000000" points="164.6509,137.4588,157.0487,137.1523,158.3204,141.6793,164.6509,137.4588" style="stroke:#000000;stroke-width:0.8;"/><text fill="#000000" font-family="sans-serif" font-size="10.4" lengthAdjust="spacing" textLength="60" x="168" y="142.7961">registered by</text><text fill="#000000" font-family="sans-serif" font-size="10.4" lengthAdjust="spacing" textLength="4" x="114.3833" y="188.5071">*</text><text fill="#000000" font-family="sans-serif" font-size="10.4" lengthAdjust="spacing" textLength="5.6" x="344.7" y="122.3234">1</text><!--MD5=[052f3a477de9d2dc4c55402b2b3fa494]
link Overview to Employee--><path codeLine="40" d="M225.28,99.2 C261.216,99.2 319.584,99.2 356.544,99.2 " fill="none" id="Overview-Employee" style="stroke:#A80036;stroke-width:0.8;"/><polygon fill="#000000" points="260.8,92.1406,253.5639,89.7895,253.5639,94.4918,260.8,92.1406" style="stroke:#000000;stroke-width:0.8;"/><text fill="#000000" font-family="sans-serif" font-size="10.4" lengthAdjust="spacing" textLength="60" x="264" y="96.3961">requested by</text><text fill="#000000" font-family="sans-serif" font-size="10.4" lengthAdjust="spacing" textLength="4" x="231.6373" y="111.202">*</text><text fill="#000000" font-family="sans-serif" font-size="10.4" lengthAdjust="spacing" textLength="5.6" x="344.9107" y="111.0385">1</text><!--MD5=[d754f8374be5b811bc19035f00085482]
@startuml
hide methods
left to right direction
skinparam classAttributeIconSize 0


class Company{
-designation
}

class Overview{
}

class Client{
 - name
 - email
 - phoneNumber
 - sex
 - tin
 - birthDate
 - nhsNumber
 - citizenCardNumber
}

class Test {
-internalCode
-nhsCode
-description
-dateOfSampleCollected
-timeOfSampleCollected
-dateOfSampleAnalysis
-timeOfSampleAnalysis
-state
}



Company "1"- - -"1..*" Employee : employ >
Test "1..*"- - -"1" Client : associated a >
Test "*"- - -"1" Employee : registered by >
Overview "*"- -"1" Employee : requested by >



@enduml

PlantUML version 1.2021.00(Sun Jan 10 10:25:05 GMT 2021)
(GPL source distribution)
Java Runtime: OpenJDK Runtime Environment
JVM: OpenJDK 64-Bit Server VM
Default Encoding: Cp1252
Language: pt
Country: PT
--></g></svg>