<?xml version="1.0" encoding="UTF-8" standalone="no"?><svg xmlns="http://www.w3.org/2000/svg" xmlns:xlink="http://www.w3.org/1999/xlink" contentScriptType="application/ecmascript" contentStyleType="text/css" height="798.3px" preserveAspectRatio="none" style="width:924px;height:798px;" version="1.1" viewBox="0 0 924 798" width="924.3px" zoomAndPan="magnify"><defs><filter height="300%" id="f1aewhkhdqmp5" width="300%" x="-1" y="-1"><feGaussianBlur result="blurOut" stdDeviation="1.8"/><feColorMatrix in="blurOut" result="blurOut2" type="matrix" values="0 0 0 0 0 0 0 0 0 0 0 0 0 0 0 0 0 0 .4 0"/><feOffset dx="3.6" dy="3.6" in="blurOut2" result="blurOut3"/><feBlend in="SourceGraphic" in2="blurOut3" mode="normal"/></filter></defs><g><!--MD5=[64e2e010ba86d7988e5cd73bd64f61f9]
cluster ui--><polygon fill="#FFFFFF" filter="url(#f1aewhkhdqmp5)" points="222.3,5.4,239.4,5.4,245.7,26.6484,335.7,26.6484,335.7,95.4,222.3,95.4,222.3,5.4" style="stroke:#000000;stroke-width:1.35;"/><line style="stroke:#000000;stroke-width:1.35;" x1="222.3" x2="245.7" y1="26.6484" y2="26.6484"/><text fill="#000000" font-family="sans-serif" font-size="12.6" font-weight="bold" lengthAdjust="spacing" textLength="11.7" x="225.9" y="20.2799">ui</text><!--MD5=[1f2cfc53d9d308f53762fd0fcbaa4873]
cluster Controller--><polygon fill="#FFFFFF" filter="url(#f1aewhkhdqmp5)" points="163.8,125.1,233.1,125.1,239.4,146.3484,394.2,146.3484,394.2,302.4,163.8,302.4,163.8,125.1" style="stroke:#000000;stroke-width:1.35;"/><line style="stroke:#000000;stroke-width:1.35;" x1="163.8" x2="239.4" y1="146.3484" y2="146.3484"/><text fill="#000000" font-family="sans-serif" font-size="12.6" font-weight="bold" lengthAdjust="spacing" textLength="63.9" x="167.4" y="139.9799">Controller</text><!--MD5=[a0bb257923b4feabbc8c8a837db65c88]
cluster adapter--><polygon fill="#FFFFFF" filter="url(#f1aewhkhdqmp5)" points="603.9,517.05,657.9,517.05,664.2,538.2984,909,538.2984,909,607.05,603.9,607.05,603.9,517.05" style="stroke:#000000;stroke-width:1.35;"/><line style="stroke:#000000;stroke-width:1.35;" x1="603.9" x2="664.2" y1="538.2984" y2="538.2984"/><text fill="#000000" font-family="sans-serif" font-size="12.6" font-weight="bold" lengthAdjust="spacing" textLength="48.6" x="607.5" y="531.9299">adapter</text><!--MD5=[5d4cd377749310b66bf14896f5cd8d9b]
cluster model--><polygon fill="#FFFFFF" filter="url(#f1aewhkhdqmp5)" points="14.4,479.7,58.5,479.7,64.8,500.9484,582.3,500.9484,582.3,644.4,14.4,644.4,14.4,479.7" style="stroke:#000000;stroke-width:1.35;"/><line style="stroke:#000000;stroke-width:1.35;" x1="14.4" x2="64.8" y1="500.9484" y2="500.9484"/><text fill="#000000" font-family="sans-serif" font-size="12.6" font-weight="bold" lengthAdjust="spacing" textLength="38.7" x="18" y="494.5799">model</text><!--MD5=[c23849cc5f4a85746a20de4317c530fc]
cluster store--><polygon fill="#FFFFFF" filter="url(#f1aewhkhdqmp5)" points="312.3,332.1,351,332.1,357.3,353.3484,646.2,353.3484,646.2,434.7,312.3,434.7,312.3,332.1" style="stroke:#000000;stroke-width:1.35;"/><line style="stroke:#000000;stroke-width:1.35;" x1="312.3" x2="357.3" y1="353.3484" y2="353.3484"/><text fill="#000000" font-family="sans-serif" font-size="12.6" font-weight="bold" lengthAdjust="spacing" textLength="33.3" x="315.9" y="346.9799">store</text><!--MD5=[e25d2abf3c472b89b03b52c7e4262e29]
cluster interfaces--><polygon fill="#FFFFFF" filter="url(#f1aewhkhdqmp5)" points="569.7,689.4,639,689.4,645.3,710.6484,791.1,710.6484,791.1,792,569.7,792,569.7,689.4" style="stroke:#000000;stroke-width:1.35;"/><line style="stroke:#000000;stroke-width:1.35;" x1="569.7" x2="645.3" y1="710.6484" y2="710.6484"/><text fill="#000000" font-family="sans-serif" font-size="12.6" font-weight="bold" lengthAdjust="spacing" textLength="63.9" x="573.3" y="704.2799">interfaces</text><!--MD5=[8bdfcc1bb83d41d65197b6c44356be8a]
class OverviewUI--><rect codeLine="4" fill="#FEFECE" filter="url(#f1aewhkhdqmp5)" height="43.2" id="OverviewUI" style="stroke:#A80036;stroke-width:1.35;" width="83.7" x="237.15" y="37.8"/><ellipse cx="250.65" cy="52.2" fill="#ADD1B2" rx="9.9" ry="9.9" style="stroke:#A80036;stroke-width:0.9;"/><path d="M252.45,49.05 Q252.6328,48.6 252.8438,48.375 Q253.0547,48.15 253.2938,48.15 Q253.7156,48.15 253.9828,48.4031 Q254.25,48.6563 254.25,49.2469 L254.25,50.6531 Q254.25,51.2438 253.9969,51.4969 Q253.7438,51.75 253.35,51.75 Q252.9984,51.75 252.7734,51.5953 Q252.5484,51.4406 252.45,51.0328 Q252.4078,50.7516 252.2531,50.5969 Q251.9719,50.3016 251.4656,50.1328 Q250.9594,49.95 250.4531,49.95 Q249.8203,49.95 249.2859,50.2031 Q248.7656,50.4563 248.3578,51.0188 Q247.95,51.5813 247.95,52.3547 L247.95,53.1844 Q247.95,54.1125 248.7094,54.7313 Q249.4688,55.35 250.8188,55.35 Q251.6203,55.35 252.1828,55.1672 Q252.5063,55.0688 252.8719,54.7453 Q253.1109,54.5625 253.2375,54.5063 Q253.3641,54.45 253.5188,54.45 Q253.8141,54.45 254.025,54.6891 Q254.25,54.9141 254.25,55.2375 Q254.25,55.5469 253.9406,55.9125 Q253.4906,56.4469 252.7734,56.7422 Q251.8313,57.15 250.6781,57.15 Q249.3281,57.15 248.2453,56.6156 Q247.3734,56.1938 246.7547,55.2797 Q246.15,54.3656 246.15,53.2828 L246.15,52.2984 Q246.15,51.1734 246.6844,50.1891 Q247.2328,49.2047 248.175,48.6844 Q249.1313,48.15 250.2,48.15 Q250.8469,48.15 251.4094,48.375 Q251.9719,48.6 252.45,49.05 Z " fill="#000000"/><text fill="#000000" font-family="sans-serif" font-size="10.8" lengthAdjust="spacing" textLength="54.9" x="263.25" y="56.6191">OverviewUI</text><line style="stroke:#A80036;stroke-width:1.35;" x1="238.05" x2="319.95" y1="66.6" y2="66.6"/><line style="stroke:#A80036;stroke-width:1.35;" x1="238.05" x2="319.95" y1="73.8" y2="73.8"/><!--MD5=[de4b9dae6d31a38c56afa7b52c7f3a39]
class OverviewController--><rect codeLine="8" fill="#FEFECE" filter="url(#f1aewhkhdqmp5)" height="130.3664" id="OverviewController" style="stroke:#A80036;stroke-width:1.35;" width="200.7" x="178.65" y="157.5"/><ellipse cx="228.825" cy="171.9" fill="#ADD1B2" rx="9.9" ry="9.9" style="stroke:#A80036;stroke-width:0.9;"/><path d="M230.625,168.75 Q230.8078,168.3 231.0188,168.075 Q231.2297,167.85 231.4688,167.85 Q231.8906,167.85 232.1578,168.1031 Q232.425,168.3563 232.425,168.9469 L232.425,170.3531 Q232.425,170.9438 232.1719,171.1969 Q231.9188,171.45 231.525,171.45 Q231.1734,171.45 230.9484,171.2953 Q230.7234,171.1406 230.625,170.7328 Q230.5828,170.4516 230.4281,170.2969 Q230.1469,170.0016 229.6406,169.8328 Q229.1344,169.65 228.6281,169.65 Q227.9953,169.65 227.4609,169.9031 Q226.9406,170.1563 226.5328,170.7188 Q226.125,171.2813 226.125,172.0547 L226.125,172.8844 Q226.125,173.8125 226.8844,174.4313 Q227.6438,175.05 228.9938,175.05 Q229.7953,175.05 230.3578,174.8672 Q230.6813,174.7688 231.0469,174.4453 Q231.2859,174.2625 231.4125,174.2063 Q231.5391,174.15 231.6938,174.15 Q231.9891,174.15 232.2,174.3891 Q232.425,174.6141 232.425,174.9375 Q232.425,175.2469 232.1156,175.6125 Q231.6656,176.1469 230.9484,176.4422 Q230.0063,176.85 228.8531,176.85 Q227.5031,176.85 226.4203,176.3156 Q225.5484,175.8938 224.9297,174.9797 Q224.325,174.0656 224.325,172.9828 L224.325,171.9984 Q224.325,170.8734 224.8594,169.8891 Q225.4078,168.9047 226.35,168.3844 Q227.3063,167.85 228.375,167.85 Q229.0219,167.85 229.5844,168.075 Q230.1469,168.3 230.625,168.75 Z " fill="#000000"/><text fill="#000000" font-family="sans-serif" font-size="10.8" lengthAdjust="spacing" textLength="92.7" x="247.275" y="176.3191">OverviewController</text><line style="stroke:#A80036;stroke-width:1.35;" x1="179.55" x2="378.45" y1="186.3" y2="186.3"/><line style="stroke:#A80036;stroke-width:1.35;" x1="179.55" x2="378.45" y1="193.5" y2="193.5"/><ellipse cx="188.55" cy="203.4" fill="#84BE84" rx="2.7" ry="2.7" style="stroke:#038048;stroke-width:0.9;"/><text fill="#000000" font-family="sans-serif" font-size="9.9" lengthAdjust="spacing" textLength="165.6" x="196.65" y="207.3771">getIntervalTestList(initialDate,endDate)</text><ellipse cx="188.55" cy="215.8523" fill="#84BE84" rx="2.7" ry="2.7" style="stroke:#038048;stroke-width:0.9;"/><text fill="#000000" font-family="sans-serif" font-size="9.9" lengthAdjust="spacing" textLength="93.6" x="196.65" y="219.8294">getNumberOfClients()</text><ellipse cx="188.55" cy="228.3047" fill="#84BE84" rx="2.7" ry="2.7" style="stroke:#038048;stroke-width:0.9;"/><text fill="#000000" font-family="sans-serif" font-size="9.9" lengthAdjust="spacing" textLength="167.4" x="196.65" y="232.2817">getNumberOfTestsWaitingForResults()</text><ellipse cx="188.55" cy="240.757" fill="#84BE84" rx="2.7" ry="2.7" style="stroke:#038048;stroke-width:0.9;"/><text fill="#000000" font-family="sans-serif" font-size="9.9" lengthAdjust="spacing" textLength="177.3" x="196.65" y="244.7341">getNumberOfTestsWaitingForDiagnosis()</text><ellipse cx="188.55" cy="253.2094" fill="#84BE84" rx="2.7" ry="2.7" style="stroke:#038048;stroke-width:0.9;"/><text fill="#000000" font-family="sans-serif" font-size="9.9" lengthAdjust="spacing" textLength="156.6" x="196.65" y="257.1864">getTotalNumberOfTestsProcessed()</text><ellipse cx="188.55" cy="265.6617" fill="#84BE84" rx="2.7" ry="2.7" style="stroke:#038048;stroke-width:0.9;"/><text fill="#000000" font-family="sans-serif" font-size="9.9" lengthAdjust="spacing" textLength="106.2" x="196.65" y="269.6388">getAvailableAlgorithms()</text><ellipse cx="188.55" cy="278.1141" fill="#84BE84" rx="2.7" ry="2.7" style="stroke:#038048;stroke-width:0.9;"/><text fill="#000000" font-family="sans-serif" font-size="9.9" lengthAdjust="spacing" textLength="158.4" x="196.65" y="282.0911">getSubsequenceWithMaximumSum()</text><!--MD5=[e3c1d1270012c6b2c5c7c678a4b80154]
class BenchmarkAdapter--><rect codeLine="20" fill="#FEFECE" filter="url(#f1aewhkhdqmp5)" height="43.2" id="BenchmarkAdapter" style="stroke:#A80036;stroke-width:1.35;" width="123.3" x="618.75" y="549.45"/><ellipse cx="632.25" cy="563.85" fill="#ADD1B2" rx="9.9" ry="9.9" style="stroke:#A80036;stroke-width:0.9;"/><path d="M634.05,560.7 Q634.2328,560.25 634.4438,560.025 Q634.6547,559.8 634.8938,559.8 Q635.3156,559.8 635.5828,560.0531 Q635.85,560.3063 635.85,560.8969 L635.85,562.3031 Q635.85,562.8938 635.5969,563.1469 Q635.3438,563.4 634.95,563.4 Q634.5984,563.4 634.3734,563.2453 Q634.1484,563.0906 634.05,562.6828 Q634.0078,562.4016 633.8531,562.2469 Q633.5719,561.9516 633.0656,561.7828 Q632.5594,561.6 632.0531,561.6 Q631.4203,561.6 630.8859,561.8531 Q630.3656,562.1063 629.9578,562.6688 Q629.55,563.2313 629.55,564.0047 L629.55,564.8344 Q629.55,565.7625 630.3094,566.3813 Q631.0688,567 632.4188,567 Q633.2203,567 633.7828,566.8172 Q634.1063,566.7188 634.4719,566.3953 Q634.7109,566.2125 634.8375,566.1563 Q634.9641,566.1 635.1188,566.1 Q635.4141,566.1 635.625,566.3391 Q635.85,566.5641 635.85,566.8875 Q635.85,567.1969 635.5406,567.5625 Q635.0906,568.0969 634.3734,568.3922 Q633.4313,568.8 632.2781,568.8 Q630.9281,568.8 629.8453,568.2656 Q628.9734,567.8438 628.3547,566.9297 Q627.75,566.0156 627.75,564.9328 L627.75,563.9484 Q627.75,562.8234 628.2844,561.8391 Q628.8328,560.8547 629.775,560.3344 Q630.7313,559.8 631.8,559.8 Q632.4469,559.8 633.0094,560.025 Q633.5719,560.25 634.05,560.7 Z " fill="#000000"/><text fill="#000000" font-family="sans-serif" font-size="10.8" lengthAdjust="spacing" textLength="94.5" x="644.85" y="568.2691">BenchmarkAdapter</text><line style="stroke:#A80036;stroke-width:1.35;" x1="619.65" x2="741.15" y1="578.25" y2="578.25"/><line style="stroke:#A80036;stroke-width:1.35;" x1="619.65" x2="741.15" y1="585.45" y2="585.45"/><!--MD5=[353627c8c411a6e119df40e03d4587a6]
class BruteForceAdapter--><rect codeLine="23" fill="#FEFECE" filter="url(#f1aewhkhdqmp5)" height="43.2" id="BruteForceAdapter" style="stroke:#A80036;stroke-width:1.35;" width="120.6" x="774" y="549.45"/><ellipse cx="787.5" cy="563.85" fill="#ADD1B2" rx="9.9" ry="9.9" style="stroke:#A80036;stroke-width:0.9;"/><path d="M789.3,560.7 Q789.4828,560.25 789.6938,560.025 Q789.9047,559.8 790.1438,559.8 Q790.5656,559.8 790.8328,560.0531 Q791.1,560.3063 791.1,560.8969 L791.1,562.3031 Q791.1,562.8938 790.8469,563.1469 Q790.5938,563.4 790.2,563.4 Q789.8484,563.4 789.6234,563.2453 Q789.3984,563.0906 789.3,562.6828 Q789.2578,562.4016 789.1031,562.2469 Q788.8219,561.9516 788.3156,561.7828 Q787.8094,561.6 787.3031,561.6 Q786.6703,561.6 786.1359,561.8531 Q785.6156,562.1063 785.2078,562.6688 Q784.8,563.2313 784.8,564.0047 L784.8,564.8344 Q784.8,565.7625 785.5594,566.3813 Q786.3188,567 787.6688,567 Q788.4703,567 789.0328,566.8172 Q789.3563,566.7188 789.7219,566.3953 Q789.9609,566.2125 790.0875,566.1563 Q790.2141,566.1 790.3688,566.1 Q790.6641,566.1 790.875,566.3391 Q791.1,566.5641 791.1,566.8875 Q791.1,567.1969 790.7906,567.5625 Q790.3406,568.0969 789.6234,568.3922 Q788.6813,568.8 787.5281,568.8 Q786.1781,568.8 785.0953,568.2656 Q784.2234,567.8438 783.6047,566.9297 Q783,566.0156 783,564.9328 L783,563.9484 Q783,562.8234 783.5344,561.8391 Q784.0828,560.8547 785.025,560.3344 Q785.9813,559.8 787.05,559.8 Q787.6969,559.8 788.2594,560.025 Q788.8219,560.25 789.3,560.7 Z " fill="#000000"/><text fill="#000000" font-family="sans-serif" font-size="10.8" lengthAdjust="spacing" textLength="91.8" x="800.1" y="568.2691">BruteForceAdapter</text><line style="stroke:#A80036;stroke-width:1.35;" x1="774.9" x2="893.7" y1="578.25" y2="578.25"/><line style="stroke:#A80036;stroke-width:1.35;" x1="774.9" x2="893.7" y1="585.45" y2="585.45"/><!--MD5=[02e4b9b7573f1156f41e60aa5b4e25a4]
class Company--><rect codeLine="28" fill="#FEFECE" filter="url(#f1aewhkhdqmp5)" height="55.6523" id="Company" style="stroke:#A80036;stroke-width:1.35;" width="86.4" x="261.9" y="543.15"/><ellipse cx="279.855" cy="557.55" fill="#ADD1B2" rx="9.9" ry="9.9" style="stroke:#A80036;stroke-width:0.9;"/><path d="M281.655,554.4 Q281.8378,553.95 282.0488,553.725 Q282.2597,553.5 282.4988,553.5 Q282.9206,553.5 283.1878,553.7531 Q283.455,554.0063 283.455,554.5969 L283.455,556.0031 Q283.455,556.5938 283.2019,556.8469 Q282.9488,557.1 282.555,557.1 Q282.2034,557.1 281.9784,556.9453 Q281.7534,556.7906 281.655,556.3828 Q281.6128,556.1016 281.4581,555.9469 Q281.1769,555.6516 280.6706,555.4828 Q280.1644,555.3 279.6581,555.3 Q279.0253,555.3 278.4909,555.5531 Q277.9706,555.8063 277.5628,556.3688 Q277.155,556.9313 277.155,557.7047 L277.155,558.5344 Q277.155,559.4625 277.9144,560.0813 Q278.6738,560.7 280.0238,560.7 Q280.8253,560.7 281.3878,560.5172 Q281.7113,560.4188 282.0769,560.0953 Q282.3159,559.9125 282.4425,559.8563 Q282.5691,559.8 282.7238,559.8 Q283.0191,559.8 283.23,560.0391 Q283.455,560.2641 283.455,560.5875 Q283.455,560.8969 283.1456,561.2625 Q282.6956,561.7969 281.9784,562.0922 Q281.0363,562.5 279.8831,562.5 Q278.5331,562.5 277.4503,561.9656 Q276.5784,561.5438 275.9597,560.6297 Q275.355,559.7156 275.355,558.6328 L275.355,557.6484 Q275.355,556.5234 275.8894,555.5391 Q276.4378,554.5547 277.38,554.0344 Q278.3363,553.5 279.405,553.5 Q280.0519,553.5 280.6144,553.725 Q281.1769,553.95 281.655,554.4 Z " fill="#000000"/><text fill="#000000" font-family="sans-serif" font-size="10.8" lengthAdjust="spacing" textLength="47.7" x="293.445" y="561.9691">Company</text><line style="stroke:#A80036;stroke-width:1.35;" x1="262.8" x2="347.4" y1="571.95" y2="571.95"/><line style="stroke:#A80036;stroke-width:1.35;" x1="262.8" x2="347.4" y1="579.15" y2="579.15"/><ellipse cx="271.8" cy="589.05" fill="#84BE84" rx="2.7" ry="2.7" style="stroke:#038048;stroke-width:0.9;"/><text fill="#000000" font-family="sans-serif" font-size="9.9" lengthAdjust="spacing" textLength="63" x="279.9" y="593.0271">getTestStore()</text><!--MD5=[df38be88ccee13e832d6fafd6288a4ca]
class Test--><rect codeLine="31" fill="#FEFECE" filter="url(#f1aewhkhdqmp5)" height="105.4617" id="Test" style="stroke:#A80036;stroke-width:1.35;" width="99" x="379.8" y="518.4"/><ellipse cx="415.17" cy="532.8" fill="#ADD1B2" rx="9.9" ry="9.9" style="stroke:#A80036;stroke-width:0.9;"/><path d="M416.97,529.65 Q417.1528,529.2 417.3638,528.975 Q417.5747,528.75 417.8138,528.75 Q418.2356,528.75 418.5028,529.0031 Q418.77,529.2563 418.77,529.8469 L418.77,531.2531 Q418.77,531.8438 418.5169,532.0969 Q418.2638,532.35 417.87,532.35 Q417.5184,532.35 417.2934,532.1953 Q417.0684,532.0406 416.97,531.6328 Q416.9278,531.3516 416.7731,531.1969 Q416.4919,530.9016 415.9856,530.7328 Q415.4794,530.55 414.9731,530.55 Q414.3403,530.55 413.8059,530.8031 Q413.2856,531.0563 412.8778,531.6188 Q412.47,532.1813 412.47,532.9547 L412.47,533.7844 Q412.47,534.7125 413.2294,535.3313 Q413.9888,535.95 415.3388,535.95 Q416.1403,535.95 416.7028,535.7672 Q417.0263,535.6688 417.3919,535.3453 Q417.6309,535.1625 417.7575,535.1063 Q417.8841,535.05 418.0388,535.05 Q418.3341,535.05 418.545,535.2891 Q418.77,535.5141 418.77,535.8375 Q418.77,536.1469 418.4606,536.5125 Q418.0106,537.0469 417.2934,537.3422 Q416.3513,537.75 415.1981,537.75 Q413.8481,537.75 412.7653,537.2156 Q411.8934,536.7938 411.2747,535.8797 Q410.67,534.9656 410.67,533.8828 L410.67,532.8984 Q410.67,531.7734 411.2044,530.7891 Q411.7528,529.8047 412.695,529.2844 Q413.6513,528.75 414.72,528.75 Q415.3669,528.75 415.9294,528.975 Q416.4919,529.2 416.97,529.65 Z " fill="#000000"/><text fill="#000000" font-family="sans-serif" font-size="10.8" lengthAdjust="spacing" textLength="21.6" x="432.63" y="537.2191">Test</text><line style="stroke:#A80036;stroke-width:1.35;" x1="380.7" x2="477.9" y1="547.2" y2="547.2"/><rect fill="none" height="5.4" style="stroke:#C82930;stroke-width:0.9;" width="5.4" x="387" y="554.4"/><text fill="#000000" font-family="sans-serif" font-size="9.9" lengthAdjust="spacing" textLength="22.5" x="397.8" y="561.0771">client</text><rect fill="none" height="5.4" style="stroke:#C82930;stroke-width:0.9;" width="5.4" x="387" y="566.8523"/><text fill="#000000" font-family="sans-serif" font-size="9.9" lengthAdjust="spacing" textLength="37.8" x="397.8" y="573.5294">nhscode</text><rect fill="none" height="5.4" style="stroke:#C82930;stroke-width:0.9;" width="5.4" x="387" y="579.3047"/><text fill="#000000" font-family="sans-serif" font-size="9.9" lengthAdjust="spacing" textLength="75.6" x="397.8" y="585.9817">testParameterList</text><rect fill="none" height="5.4" style="stroke:#C82930;stroke-width:0.9;" width="5.4" x="387" y="591.757"/><text fill="#000000" font-family="sans-serif" font-size="9.9" lengthAdjust="spacing" textLength="51.3" x="397.8" y="598.4341">stateOfTest</text><rect fill="none" height="5.4" style="stroke:#C82930;stroke-width:0.9;" width="5.4" x="387" y="604.2094"/><text fill="#000000" font-family="sans-serif" font-size="9.9" lengthAdjust="spacing" textLength="54" x="397.8" y="610.8864">internalCode</text><line style="stroke:#A80036;stroke-width:1.35;" x1="380.7" x2="477.9" y1="616.6617" y2="616.6617"/><!--MD5=[ed6624c6556d5e7b1bd23032162d20b7]
class Client--><rect codeLine="38" fill="#FEFECE" filter="url(#f1aewhkhdqmp5)" height="43.2" id="Client" style="stroke:#A80036;stroke-width:1.35;" width="57.6" x="510.3" y="549.45"/><ellipse cx="523.8" cy="563.85" fill="#ADD1B2" rx="9.9" ry="9.9" style="stroke:#A80036;stroke-width:0.9;"/><path d="M525.6,560.7 Q525.7828,560.25 525.9938,560.025 Q526.2047,559.8 526.4438,559.8 Q526.8656,559.8 527.1328,560.0531 Q527.4,560.3063 527.4,560.8969 L527.4,562.3031 Q527.4,562.8938 527.1469,563.1469 Q526.8938,563.4 526.5,563.4 Q526.1484,563.4 525.9234,563.2453 Q525.6984,563.0906 525.6,562.6828 Q525.5578,562.4016 525.4031,562.2469 Q525.1219,561.9516 524.6156,561.7828 Q524.1094,561.6 523.6031,561.6 Q522.9703,561.6 522.4359,561.8531 Q521.9156,562.1063 521.5078,562.6688 Q521.1,563.2313 521.1,564.0047 L521.1,564.8344 Q521.1,565.7625 521.8594,566.3813 Q522.6188,567 523.9688,567 Q524.7703,567 525.3328,566.8172 Q525.6563,566.7188 526.0219,566.3953 Q526.2609,566.2125 526.3875,566.1563 Q526.5141,566.1 526.6688,566.1 Q526.9641,566.1 527.175,566.3391 Q527.4,566.5641 527.4,566.8875 Q527.4,567.1969 527.0906,567.5625 Q526.6406,568.0969 525.9234,568.3922 Q524.9813,568.8 523.8281,568.8 Q522.4781,568.8 521.3953,568.2656 Q520.5234,567.8438 519.9047,566.9297 Q519.3,566.0156 519.3,564.9328 L519.3,563.9484 Q519.3,562.8234 519.8344,561.8391 Q520.3828,560.8547 521.325,560.3344 Q522.2813,559.8 523.35,559.8 Q523.9969,559.8 524.5594,560.025 Q525.1219,560.25 525.6,560.7 Z " fill="#000000"/><text fill="#000000" font-family="sans-serif" font-size="10.8" lengthAdjust="spacing" textLength="28.8" x="536.4" y="568.2691">Client</text><line style="stroke:#A80036;stroke-width:1.35;" x1="511.2" x2="567" y1="578.25" y2="578.25"/><line style="stroke:#A80036;stroke-width:1.35;" x1="511.2" x2="567" y1="585.45" y2="585.45"/><!--MD5=[6488d949f0b3201a1a4d4b30662da8d5]
class Overview--><rect codeLine="40" fill="#FEFECE" filter="url(#f1aewhkhdqmp5)" height="117.9141" id="Overview" style="stroke:#A80036;stroke-width:1.35;" width="200.7" x="29.25" y="512.1"/><ellipse cx="103.725" cy="526.5" fill="#ADD1B2" rx="9.9" ry="9.9" style="stroke:#A80036;stroke-width:0.9;"/><path d="M105.525,523.35 Q105.7078,522.9 105.9188,522.675 Q106.1297,522.45 106.3688,522.45 Q106.7906,522.45 107.0578,522.7031 Q107.325,522.9563 107.325,523.5469 L107.325,524.9531 Q107.325,525.5438 107.0719,525.7969 Q106.8188,526.05 106.425,526.05 Q106.0734,526.05 105.8484,525.8953 Q105.6234,525.7406 105.525,525.3328 Q105.4828,525.0516 105.3281,524.8969 Q105.0469,524.6016 104.5406,524.4328 Q104.0344,524.25 103.5281,524.25 Q102.8953,524.25 102.3609,524.5031 Q101.8406,524.7563 101.4328,525.3188 Q101.025,525.8813 101.025,526.6547 L101.025,527.4844 Q101.025,528.4125 101.7844,529.0313 Q102.5438,529.65 103.8938,529.65 Q104.6953,529.65 105.2578,529.4672 Q105.5813,529.3688 105.9469,529.0453 Q106.1859,528.8625 106.3125,528.8063 Q106.4391,528.75 106.5938,528.75 Q106.8891,528.75 107.1,528.9891 Q107.325,529.2141 107.325,529.5375 Q107.325,529.8469 107.0156,530.2125 Q106.5656,530.7469 105.8484,531.0422 Q104.9063,531.45 103.7531,531.45 Q102.4031,531.45 101.3203,530.9156 Q100.4484,530.4938 99.8297,529.5797 Q99.225,528.6656 99.225,527.5828 L99.225,526.5984 Q99.225,525.4734 99.7594,524.4891 Q100.3078,523.5047 101.25,522.9844 Q102.2063,522.45 103.275,522.45 Q103.9219,522.45 104.4844,522.675 Q105.0469,522.9 105.525,523.35 Z " fill="#000000"/><text fill="#000000" font-family="sans-serif" font-size="10.8" lengthAdjust="spacing" textLength="44.1" x="122.175" y="530.9191">Overview</text><line style="stroke:#A80036;stroke-width:1.35;" x1="30.15" x2="229.05" y1="540.9" y2="540.9"/><line style="stroke:#A80036;stroke-width:1.35;" x1="30.15" x2="229.05" y1="548.1" y2="548.1"/><ellipse cx="39.15" cy="558" fill="#84BE84" rx="2.7" ry="2.7" style="stroke:#038048;stroke-width:0.9;"/><text fill="#000000" font-family="sans-serif" font-size="9.9" lengthAdjust="spacing" textLength="93.6" x="47.25" y="561.9771">getNumberOfClients()</text><ellipse cx="39.15" cy="570.4523" fill="#84BE84" rx="2.7" ry="2.7" style="stroke:#038048;stroke-width:0.9;"/><text fill="#000000" font-family="sans-serif" font-size="9.9" lengthAdjust="spacing" textLength="167.4" x="47.25" y="574.4294">getNumberOfTestsWaitingForResults()</text><ellipse cx="39.15" cy="582.9047" fill="#84BE84" rx="2.7" ry="2.7" style="stroke:#038048;stroke-width:0.9;"/><text fill="#000000" font-family="sans-serif" font-size="9.9" lengthAdjust="spacing" textLength="177.3" x="47.25" y="586.8817">getNumberOfTestsWaitingForDiagnosis()</text><ellipse cx="39.15" cy="595.357" fill="#84BE84" rx="2.7" ry="2.7" style="stroke:#038048;stroke-width:0.9;"/><text fill="#000000" font-family="sans-serif" font-size="9.9" lengthAdjust="spacing" textLength="156.6" x="47.25" y="599.3341">getTotalNumberOfTestsProcessed()</text><ellipse cx="39.15" cy="607.8094" fill="#84BE84" rx="2.7" ry="2.7" style="stroke:#038048;stroke-width:0.9;"/><text fill="#000000" font-family="sans-serif" font-size="9.9" lengthAdjust="spacing" textLength="106.2" x="47.25" y="611.7864">getAvailableAlgorithms()</text><ellipse cx="39.15" cy="620.2617" fill="#84BE84" rx="2.7" ry="2.7" style="stroke:#038048;stroke-width:0.9;"/><text fill="#000000" font-family="sans-serif" font-size="9.9" lengthAdjust="spacing" textLength="158.4" x="47.25" y="624.2388">getSubsequenceWithMaximumSum()</text><!--MD5=[0f6f7964b844a64b0496af0dda7914bd]
class TestStore--><rect codeLine="53" fill="#FEFECE" filter="url(#f1aewhkhdqmp5)" height="55.6523" id="TestStore" style="stroke:#A80036;stroke-width:1.35;" width="189" x="326.7" y="364.5"/><ellipse cx="393.525" cy="378.9" fill="#ADD1B2" rx="9.9" ry="9.9" style="stroke:#A80036;stroke-width:0.9;"/><path d="M395.325,375.75 Q395.5078,375.3 395.7188,375.075 Q395.9297,374.85 396.1688,374.85 Q396.5906,374.85 396.8578,375.1031 Q397.125,375.3563 397.125,375.9469 L397.125,377.3531 Q397.125,377.9438 396.8719,378.1969 Q396.6188,378.45 396.225,378.45 Q395.8734,378.45 395.6484,378.2953 Q395.4234,378.1406 395.325,377.7328 Q395.2828,377.4516 395.1281,377.2969 Q394.8469,377.0016 394.3406,376.8328 Q393.8344,376.65 393.3281,376.65 Q392.6953,376.65 392.1609,376.9031 Q391.6406,377.1563 391.2328,377.7188 Q390.825,378.2813 390.825,379.0547 L390.825,379.8844 Q390.825,380.8125 391.5844,381.4313 Q392.3438,382.05 393.6938,382.05 Q394.4953,382.05 395.0578,381.8672 Q395.3813,381.7688 395.7469,381.4453 Q395.9859,381.2625 396.1125,381.2063 Q396.2391,381.15 396.3938,381.15 Q396.6891,381.15 396.9,381.3891 Q397.125,381.6141 397.125,381.9375 Q397.125,382.2469 396.8156,382.6125 Q396.3656,383.1469 395.6484,383.4422 Q394.7063,383.85 393.5531,383.85 Q392.2031,383.85 391.1203,383.3156 Q390.2484,382.8938 389.6297,381.9797 Q389.025,381.0656 389.025,379.9828 L389.025,378.9984 Q389.025,377.8734 389.5594,376.8891 Q390.1078,375.9047 391.05,375.3844 Q392.0063,374.85 393.075,374.85 Q393.7219,374.85 394.2844,375.075 Q394.8469,375.3 395.325,375.75 Z " fill="#000000"/><text fill="#000000" font-family="sans-serif" font-size="10.8" lengthAdjust="spacing" textLength="47.7" x="411.975" y="383.3191">TestStore</text><line style="stroke:#A80036;stroke-width:1.35;" x1="327.6" x2="514.8" y1="393.3" y2="393.3"/><line style="stroke:#A80036;stroke-width:1.35;" x1="327.6" x2="514.8" y1="400.5" y2="400.5"/><ellipse cx="336.6" cy="410.4" fill="#84BE84" rx="2.7" ry="2.7" style="stroke:#038048;stroke-width:0.9;"/><text fill="#000000" font-family="sans-serif" font-size="9.9" lengthAdjust="spacing" textLength="165.6" x="344.7" y="414.3771">getIntervalTestList(initialDate,endDate)</text><!--MD5=[55cb992be19579b505cea3c5691093cb]
class ClientStore--><rect codeLine="56" fill="#FEFECE" filter="url(#f1aewhkhdqmp5)" height="43.2" id="ClientStore" style="stroke:#A80036;stroke-width:1.35;" width="83.7" x="547.65" y="370.8"/><ellipse cx="561.15" cy="385.2" fill="#ADD1B2" rx="9.9" ry="9.9" style="stroke:#A80036;stroke-width:0.9;"/><path d="M562.95,382.05 Q563.1328,381.6 563.3438,381.375 Q563.5547,381.15 563.7938,381.15 Q564.2156,381.15 564.4828,381.4031 Q564.75,381.6563 564.75,382.2469 L564.75,383.6531 Q564.75,384.2438 564.4969,384.4969 Q564.2438,384.75 563.85,384.75 Q563.4984,384.75 563.2734,384.5953 Q563.0484,384.4406 562.95,384.0328 Q562.9078,383.7516 562.7531,383.5969 Q562.4719,383.3016 561.9656,383.1328 Q561.4594,382.95 560.9531,382.95 Q560.3203,382.95 559.7859,383.2031 Q559.2656,383.4563 558.8578,384.0188 Q558.45,384.5813 558.45,385.3547 L558.45,386.1844 Q558.45,387.1125 559.2094,387.7313 Q559.9688,388.35 561.3188,388.35 Q562.1203,388.35 562.6828,388.1672 Q563.0063,388.0688 563.3719,387.7453 Q563.6109,387.5625 563.7375,387.5063 Q563.8641,387.45 564.0188,387.45 Q564.3141,387.45 564.525,387.6891 Q564.75,387.9141 564.75,388.2375 Q564.75,388.5469 564.4406,388.9125 Q563.9906,389.4469 563.2734,389.7422 Q562.3313,390.15 561.1781,390.15 Q559.8281,390.15 558.7453,389.6156 Q557.8734,389.1938 557.2547,388.2797 Q556.65,387.3656 556.65,386.2828 L556.65,385.2984 Q556.65,384.1734 557.1844,383.1891 Q557.7328,382.2047 558.675,381.6844 Q559.6313,381.15 560.7,381.15 Q561.3469,381.15 561.9094,381.375 Q562.4719,381.6 562.95,382.05 Z " fill="#000000"/><text fill="#000000" font-family="sans-serif" font-size="10.8" lengthAdjust="spacing" textLength="54.9" x="573.75" y="389.6191">ClientStore</text><line style="stroke:#A80036;stroke-width:1.35;" x1="548.55" x2="630.45" y1="399.6" y2="399.6"/><line style="stroke:#A80036;stroke-width:1.35;" x1="548.55" x2="630.45" y1="406.8" y2="406.8"/><!--MD5=[2b56cfd589cfe749874a2b85e3eb71ae]
class SubsequenceWithMaximumSum--><rect codeLine="62" fill="#FEFECE" filter="url(#f1aewhkhdqmp5)" height="55.6523" id="SubsequenceWithMaximumSum" style="stroke:#A80036;stroke-width:1.35;" width="191.7" x="584.55" y="721.8"/><ellipse cx="598.05" cy="736.2" fill="#B4A7E5" rx="9.9" ry="9.9" style="stroke:#A80036;stroke-width:0.9;"/><path d="M598.95,733.5 L598.95,738.9 L600.75,738.9 L601.1859,738.9 L601.65,739.4625 L601.65,739.8 L601.65,740.1375 L601.1859,740.7 L600.75,740.7 L595.35,740.7 L594.9141,740.7 L594.45,740.1375 L594.45,739.8 L594.45,739.4625 L594.9141,738.9 L595.35,738.9 L597.15,738.9 L597.15,733.5 L595.35,733.5 L594.9141,733.5 L594.45,732.9375 L594.45,732.6 L594.45,732.2625 L594.9141,731.7 L595.35,731.7 L600.75,731.7 L601.1859,731.7 L601.65,732.2625 L601.65,732.6 L601.65,732.9375 L601.1859,733.5 L600.75,733.5 L598.95,733.5 Z " fill="#000000"/><text fill="#000000" font-family="sans-serif" font-size="10.8" font-style="italic" lengthAdjust="spacing" textLength="162.9" x="610.65" y="740.6191">SubsequenceWithMaximumSum</text><line style="stroke:#A80036;stroke-width:1.35;" x1="585.45" x2="775.35" y1="750.6" y2="750.6"/><line style="stroke:#A80036;stroke-width:1.35;" x1="585.45" x2="775.35" y1="757.8" y2="757.8"/><ellipse cx="594.45" cy="767.7" fill="#84BE84" rx="2.7" ry="2.7" style="stroke:#038048;stroke-width:0.9;"/><text fill="#000000" font-family="sans-serif" font-size="9.9" lengthAdjust="spacing" textLength="158.4" x="602.55" y="771.6771">getSubsequenceWithMaximumSum()</text><!--MD5=[b5d43e6dde8b20d61eeaceec3ba46b57]
link OverviewUI to OverviewController--><path codeLine="68" d="M279,81.09 C279,99.216 279,126.585 279,152.388 " fill="none" id="OverviewUI-to-OverviewController" style="stroke:#A80036;stroke-width:0.9;stroke-dasharray:7.0,7.0;"/><polygon fill="#A80036" points="279,157.185,282.6,149.085,279,152.685,275.4,149.085,279,157.185" style="stroke:#A80036;stroke-width:0.9;"/><!--MD5=[afcffa63d31dbb8b6780357b49737f46]
link OverviewController to TestStore--><path codeLine="70" d="M333.576,288.063 C354.744,313.056 377.991,340.497 395.217,360.828 " fill="none" id="OverviewController-to-TestStore" style="stroke:#A80036;stroke-width:0.9;stroke-dasharray:7.0,7.0;"/><polygon fill="#A80036" points="398.142,364.284,395.6566,355.7756,395.2347,360.8492,390.161,360.4273,398.142,364.284" style="stroke:#A80036;stroke-width:0.9;"/><!--MD5=[0457e93c71bc111013c44081e8b80bd7]
link OverviewController to ClientStore--><path codeLine="71" d="M379.386,251.541 C428.202,268.056 486.072,292.23 531.9,324.9 C547.83,336.258 562.23,352.899 572.643,366.705 " fill="none" id="OverviewController-to-ClientStore" style="stroke:#A80036;stroke-width:0.9;stroke-dasharray:7.0,7.0;"/><polygon fill="#A80036" points="575.469,370.521,573.5236,361.8732,572.7834,366.9102,567.7463,366.1701,575.469,370.521" style="stroke:#A80036;stroke-width:0.9;"/><!--MD5=[57a7026b392c729204b0e62bf7ca30f7]
link OverviewController to Company--><path codeLine="72" d="M260.622,288.153 C258.543,297.693 256.752,307.449 255.6,316.8 C247.5,382.302 241.164,400.896 255.6,465.3 C261.459,491.445 274.617,518.751 285.885,538.947 " fill="none" id="OverviewController-to-Company" style="stroke:#A80036;stroke-width:0.9;stroke-dasharray:7.0,7.0;"/><polygon fill="#A80036" points="288.117,542.889,287.2739,534.0652,285.9066,538.9693,281.0025,537.6019,288.117,542.889" style="stroke:#A80036;stroke-width:0.9;"/><!--MD5=[5a202084d49e6a74b2adda1c4a7283a3]
link OverviewController to Test--><path codeLine="73" d="M274.752,288.144 C274.842,334.629 281.745,396.855 312.3,441.9 C327.393,464.157 344.961,454.023 364.5,472.5 C377.271,484.578 388.8,499.617 398.466,514.26 " fill="none" id="OverviewController-to-Test" style="stroke:#A80036;stroke-width:0.9;stroke-dasharray:7.0,7.0;"/><polygon fill="#A80036" points="401.148,518.373,399.7405,509.6215,398.6906,514.6032,393.7088,513.5534,401.148,518.373" style="stroke:#A80036;stroke-width:0.9;"/><!--MD5=[d4d19ca8196fb0860a5c43d404efb101]
link OverviewController to Overview--><path codeLine="74" d="M251.253,288.009 C224.217,350.703 183.402,445.374 156.618,507.483 " fill="none" id="OverviewController-to-Overview" style="stroke:#A80036;stroke-width:0.9;stroke-dasharray:7.0,7.0;"/><polygon fill="#A80036" points="154.719,511.893,161.2412,505.8905,156.5072,507.7635,154.6341,503.0294,154.719,511.893" style="stroke:#A80036;stroke-width:0.9;"/><!--MD5=[7f6cf7f175eae0af66201860de5de971]
link Company to TestStore--><path codeLine="76" d="M320.949,542.871 C332.622,523.098 349.074,495.846 364.5,472.5 C375.156,456.381 387.594,438.876 398.097,424.431 " fill="none" id="Company-to-TestStore" style="stroke:#A80036;stroke-width:0.9;"/><polygon fill="#A80036" points="401.004,420.435,393.3265,424.8651,398.3557,424.0732,399.1476,429.1024,401.004,420.435" style="stroke:#A80036;stroke-width:0.9;"/><text fill="#000000" font-family="sans-serif" font-size="11.7" lengthAdjust="spacing" textLength="25.2" x="379.8" y="462.1456">uses</text><text fill="#000000" font-family="sans-serif" font-size="11.7" lengthAdjust="spacing" textLength="6.3" x="317.2682" y="533.3675">1</text><text fill="#000000" font-family="sans-serif" font-size="11.7" lengthAdjust="spacing" textLength="6.3" x="390.1078" y="439.5632">1</text><!--MD5=[b0f4f6db8206580012ef9cd998ed01c5]
link TestStore to Test--><path codeLine="77" d="M422.451,420.543 C423.585,445.293 425.286,482.589 426.717,513.747 " fill="none" id="TestStore-to-Test" style="stroke:#A80036;stroke-width:0.9;"/><polygon fill="#A80036" points="426.924,518.292,430.1503,510.0361,426.7185,513.7967,422.9579,510.3649,426.924,518.292" style="stroke:#A80036;stroke-width:0.9;"/><text fill="#000000" font-family="sans-serif" font-size="11.7" lengthAdjust="spacing" textLength="33.3" x="424.8" y="462.1456">knows</text><text fill="#000000" font-family="sans-serif" font-size="11.7" lengthAdjust="spacing" textLength="6.3" x="415.789" y="439.4701">1</text><text fill="#000000" font-family="sans-serif" font-size="11.7" lengthAdjust="spacing" textLength="4.5" x="421.8602" y="508.7397">*</text><!--MD5=[1d934105a045dbf126514c6917bd5072]
link ClientStore to Client--><path codeLine="78" d="M583.524,414.279 C574.236,446.859 556.389,509.49 546.372,544.635 " fill="none" id="ClientStore-to-Client" style="stroke:#A80036;stroke-width:0.9;"/><polygon fill="#A80036" points="545.076,549.198,550.7574,542.3942,546.3089,544.8702,543.8329,540.4216,545.076,549.198" style="stroke:#A80036;stroke-width:0.9;"/><text fill="#000000" font-family="sans-serif" font-size="11.7" lengthAdjust="spacing" textLength="33.3" x="573.3" y="462.1456">knows</text><text fill="#000000" font-family="sans-serif" font-size="11.7" lengthAdjust="spacing" textLength="6.3" x="575.1136" y="433.1857">1</text><text fill="#000000" font-family="sans-serif" font-size="11.7" lengthAdjust="spacing" textLength="4.5" x="541.5308" y="539.5396">*</text><!--MD5=[b93f17079b602d6561eaa7b2f9f4fd74]
link Overview to SubsequenceWithMaximumSum--><path codeLine="80" d="M206.217,630.009 C219.231,638.118 232.956,645.687 246.6,651.6 C355.41,698.769 489.879,724.329 580.005,737.235 " fill="none" id="Overview-to-SubsequenceWithMaximumSum" style="stroke:#A80036;stroke-width:0.9;"/><polygon fill="#A80036" points="584.532,737.874,577.0168,733.1738,580.0765,737.243,576.0072,740.3027,584.532,737.874" style="stroke:#A80036;stroke-width:0.9;"/><text fill="#000000" font-family="sans-serif" font-size="11.7" lengthAdjust="spacing" textLength="70.2" x="303.3" y="671.8456">makes use of</text><text fill="#000000" font-family="sans-serif" font-size="11.7" lengthAdjust="spacing" textLength="4.5" x="209.8509" y="649.4073">*</text><text fill="#000000" font-family="sans-serif" font-size="11.7" lengthAdjust="spacing" textLength="6.3" x="570.9604" y="734.2394">1</text><!--MD5=[8997d9d13c6ba1f9bb4ee6ff342a097d]
link BenchmarkAdapter to SubsequenceWithMaximumSum--><path codeLine="82" d="M680.4,592.929 C680.4,620.091 680.4,668.151 680.4,703.746 " fill="none" id="BenchmarkAdapter-to-SubsequenceWithMaximumSum" style="stroke:#A80036;stroke-width:0.9;stroke-dasharray:7.0,7.0;"/><polygon fill="none" points="686.7,703.782,680.4,721.782,674.1,703.782,686.7,703.782" style="stroke:#A80036;stroke-width:0.9;"/><!--MD5=[a5b5fe6b30e64a5edc1781e50286c47a]
link BruteForceAdapter to SubsequenceWithMaximumSum--><path codeLine="83" d="M816.039,592.929 C791.424,621.216 747.072,672.183 715.806,708.12 " fill="none" id="BruteForceAdapter-to-SubsequenceWithMaximumSum" style="stroke:#A80036;stroke-width:0.9;stroke-dasharray:7.0,7.0;"/><polygon fill="none" points="720.477,712.341,703.908,721.782,710.973,704.07,720.477,712.341" style="stroke:#A80036;stroke-width:0.9;"/><!--MD5=[3cf2ddb6a195336369cd41d3e1c6f1bd]
@startuml


package ui {
class OverviewUI{}
}

package Controller{
class OverviewController{
+getIntervalTestList(initialDate,endDate)
+getNumberOfClients()
+getNumberOfTestsWaitingForResults()
+getNumberOfTestsWaitingForDiagnosis()
+getTotalNumberOfTestsProcessed()
+getAvailableAlgorithms()
+getSubsequenceWithMaximumSum()
}
}

package adapter{
class BenchmarkAdapter{
}

class BruteForceAdapter{
}
}

package model{
class Company{
+getTestStore()
}
class Test{
-client
-nhscode
-testParameterList
-stateOfTest
-internalCode
}
class Client{
}
class Overview{
+getNumberOfClients()
+getNumberOfTestsWaitingForResults()
+getNumberOfTestsWaitingForDiagnosis()
+getTotalNumberOfTestsProcessed()
+getAvailableAlgorithms()
+getSubsequenceWithMaximumSum()
}
}



package store{
class TestStore{
+getIntervalTestList(initialDate,endDate)
}
class ClientStore{
}
}


package interfaces{
interface SubsequenceWithMaximumSum{
+getSubsequenceWithMaximumSum()
}
}


OverviewUI ..> OverviewController

OverviewController ..> TestStore
OverviewController ..> ClientStore
OverviewController ..> Company
OverviewController ..> Test
OverviewController ..> Overview

Company "1" - - - -> "1" TestStore : uses
TestStore "1" - -> "*" Test : knows
ClientStore "1" - -> "*" Client : knows

Overview "*" - ->"1"  SubsequenceWithMaximumSum : makes use of

BenchmarkAdapter..|>SubsequenceWithMaximumSum
BruteForceAdapter..|>SubsequenceWithMaximumSum

@enduml

PlantUML version 1.2021.5(Sun Apr 25 12:20:28 BST 2021)
(GPL source distribution)
Java Runtime: OpenJDK Runtime Environment
JVM: Dynamic Code Evolution 64-Bit Server VM
Default Encoding: Cp1252
Language: pt
Country: PT
--></g></svg>