<?xml version="1.0" encoding="UTF-8" standalone="no"?><svg xmlns="http://www.w3.org/2000/svg" xmlns:xlink="http://www.w3.org/1999/xlink" contentScriptType="application/ecmascript" contentStyleType="text/css" height="342px" preserveAspectRatio="none" style="width:1450px;height:342px;" version="1.1" viewBox="0 0 1450 342" width="1450.5px" zoomAndPan="magnify"><defs><filter height="300%" id="f1ibunkc04frsj" width="300%" x="-1" y="-1"><feGaussianBlur result="blurOut" stdDeviation="3.0"/><feColorMatrix in="blurOut" result="blurOut2" type="matrix" values="0 0 0 0 0 0 0 0 0 0 0 0 0 0 0 0 0 0 .4 0"/><feOffset dx="6.0" dy="6.0" in="blurOut2" result="blurOut3"/><feBlend in="SourceGraphic" in2="blurOut3" mode="normal"/></filter></defs><g><!--MD5=[da547346deef918ea16944ba046651ef]
class Administrator--><rect codeLine="6" fill="#FEFECE" filter="url(#f1ibunkc04frsj)" height="60" id="Administrator" style="stroke:#A80036;stroke-width:2.25;" width="157.5" x="10.5" y="261"/><ellipse cx="33" cy="285" fill="#ADD1B2" rx="16.5" ry="16.5" style="stroke:#A80036;stroke-width:1.5;"/><path d="M36,279.75 Q36.3047,279 36.6563,278.625 Q37.0078,278.25 37.4063,278.25 Q38.1094,278.25 38.5547,278.6719 Q39,279.0938 39,280.0781 L39,282.4219 Q39,283.4063 38.5781,283.8281 Q38.1563,284.25 37.5,284.25 Q36.9141,284.25 36.5391,283.9922 Q36.1641,283.7344 36,283.0547 Q35.9297,282.5859 35.6719,282.3281 Q35.2031,281.8359 34.3594,281.5547 Q33.5156,281.25 32.6719,281.25 Q31.6172,281.25 30.7266,281.6719 Q29.8594,282.0938 29.1797,283.0313 Q28.5,283.9688 28.5,285.2578 L28.5,286.6406 Q28.5,288.1875 29.7656,289.2188 Q31.0313,290.25 33.2813,290.25 Q34.6172,290.25 35.5547,289.9453 Q36.0938,289.7813 36.7031,289.2422 Q37.1016,288.9375 37.3125,288.8438 Q37.5234,288.75 37.7813,288.75 Q38.2734,288.75 38.625,289.1484 Q39,289.5234 39,290.0625 Q39,290.5781 38.4844,291.1875 Q37.7344,292.0781 36.5391,292.5703 Q34.9688,293.25 33.0469,293.25 Q30.7969,293.25 28.9922,292.3594 Q27.5391,291.6563 26.5078,290.1328 Q25.5,288.6094 25.5,286.8047 L25.5,285.1641 Q25.5,283.2891 26.3906,281.6484 Q27.3047,280.0078 28.875,279.1406 Q30.4688,278.25 32.25,278.25 Q33.3281,278.25 34.2656,278.625 Q35.2031,279 36,279.75 Z " fill="#000000"/><text fill="#000000" font-family="sans-serif" font-size="18" lengthAdjust="spacing" textLength="109.5" x="54" y="292.3652">Administrator</text><line style="stroke:#A80036;stroke-width:2.25;" x1="12" x2="166.5" y1="309" y2="309"/><!--MD5=[02e4b9b7573f1156f41e60aa5b4e25a4]
class Company--><rect codeLine="31" fill="#FEFECE" filter="url(#f1ibunkc04frsj)" height="80.7539" id="Company" style="stroke:#A80036;stroke-width:2.25;" width="127.5" x="363.75" y="40.5"/><ellipse cx="386.25" cy="64.5" fill="#ADD1B2" rx="16.5" ry="16.5" style="stroke:#A80036;stroke-width:1.5;"/><path d="M389.25,59.25 Q389.5547,58.5 389.9063,58.125 Q390.2578,57.75 390.6563,57.75 Q391.3594,57.75 391.8047,58.1719 Q392.25,58.5938 392.25,59.5781 L392.25,61.9219 Q392.25,62.9063 391.8281,63.3281 Q391.4063,63.75 390.75,63.75 Q390.1641,63.75 389.7891,63.4922 Q389.4141,63.2344 389.25,62.5547 Q389.1797,62.0859 388.9219,61.8281 Q388.4531,61.3359 387.6094,61.0547 Q386.7656,60.75 385.9219,60.75 Q384.8672,60.75 383.9766,61.1719 Q383.1094,61.5938 382.4297,62.5313 Q381.75,63.4688 381.75,64.7578 L381.75,66.1406 Q381.75,67.6875 383.0156,68.7188 Q384.2813,69.75 386.5313,69.75 Q387.8672,69.75 388.8047,69.4453 Q389.3438,69.2813 389.9531,68.7422 Q390.3516,68.4375 390.5625,68.3438 Q390.7734,68.25 391.0313,68.25 Q391.5234,68.25 391.875,68.6484 Q392.25,69.0234 392.25,69.5625 Q392.25,70.0781 391.7344,70.6875 Q390.9844,71.5781 389.7891,72.0703 Q388.2188,72.75 386.2969,72.75 Q384.0469,72.75 382.2422,71.8594 Q380.7891,71.1563 379.7578,69.6328 Q378.75,68.1094 378.75,66.3047 L378.75,64.6641 Q378.75,62.7891 379.6406,61.1484 Q380.5547,59.5078 382.125,58.6406 Q383.7188,57.75 385.5,57.75 Q386.5781,57.75 387.5156,58.125 Q388.4531,58.5 389.25,59.25 Z " fill="#000000"/><text fill="#000000" font-family="sans-serif" font-size="18" lengthAdjust="spacing" textLength="79.5" x="407.25" y="71.8652">Company</text><line style="stroke:#A80036;stroke-width:2.25;" x1="365.25" x2="489.75" y1="88.5" y2="88.5"/><text fill="#000000" font-family="sans-serif" font-size="16.5" lengthAdjust="spacing" textLength="88.5" x="372.75" y="111.6284">-designation</text><!--MD5=[7421f545a0d8420c5bec41e74b387d9c]
class Employee--><rect codeLine="22" fill="#FEFECE" filter="url(#f1ibunkc04frsj)" height="184.5234" id="Employee" style="stroke:#A80036;stroke-width:2.25;" width="130.5" x="687" y="135.75"/><ellipse cx="709.5" cy="159.75" fill="#ADD1B2" rx="16.5" ry="16.5" style="stroke:#A80036;stroke-width:1.5;"/><path d="M712.5,154.5 Q712.8047,153.75 713.1563,153.375 Q713.5078,153 713.9063,153 Q714.6094,153 715.0547,153.4219 Q715.5,153.8438 715.5,154.8281 L715.5,157.1719 Q715.5,158.1563 715.0781,158.5781 Q714.6563,159 714,159 Q713.4141,159 713.0391,158.7422 Q712.6641,158.4844 712.5,157.8047 Q712.4297,157.3359 712.1719,157.0781 Q711.7031,156.5859 710.8594,156.3047 Q710.0156,156 709.1719,156 Q708.1172,156 707.2266,156.4219 Q706.3594,156.8438 705.6797,157.7813 Q705,158.7188 705,160.0078 L705,161.3906 Q705,162.9375 706.2656,163.9688 Q707.5313,165 709.7813,165 Q711.1172,165 712.0547,164.6953 Q712.5938,164.5313 713.2031,163.9922 Q713.6016,163.6875 713.8125,163.5938 Q714.0234,163.5 714.2813,163.5 Q714.7734,163.5 715.125,163.8984 Q715.5,164.2734 715.5,164.8125 Q715.5,165.3281 714.9844,165.9375 Q714.2344,166.8281 713.0391,167.3203 Q711.4688,168 709.5469,168 Q707.2969,168 705.4922,167.1094 Q704.0391,166.4063 703.0078,164.8828 Q702,163.3594 702,161.5547 L702,159.9141 Q702,158.0391 702.8906,156.3984 Q703.8047,154.7578 705.375,153.8906 Q706.9688,153 708.75,153 Q709.8281,153 710.7656,153.375 Q711.7031,153.75 712.5,154.5 Z " fill="#000000"/><text fill="#000000" font-family="sans-serif" font-size="18" lengthAdjust="spacing" textLength="82.5" x="730.5" y="167.1152">Employee</text><line style="stroke:#A80036;stroke-width:2.25;" x1="688.5" x2="816" y1="183.75" y2="183.75"/><text fill="#000000" font-family="sans-serif" font-size="16.5" lengthAdjust="spacing" textLength="45" x="696" y="206.8784">-name</text><text fill="#000000" font-family="sans-serif" font-size="16.5" lengthAdjust="spacing" textLength="66" x="696" y="227.6323">-address</text><text fill="#000000" font-family="sans-serif" font-size="16.5" lengthAdjust="spacing" textLength="106.5" x="696" y="248.3862">-phoneNumber</text><text fill="#000000" font-family="sans-serif" font-size="16.5" lengthAdjust="spacing" textLength="42" x="696" y="269.1401">-email</text><text fill="#000000" font-family="sans-serif" font-size="16.5" lengthAdjust="spacing" textLength="87" x="696" y="289.894">-employeeId</text><text fill="#000000" font-family="sans-serif" font-size="16.5" lengthAdjust="spacing" textLength="70.5" x="696" y="310.6479">-socCode</text><!--MD5=[3fd616f346a44cd59a91eb10b19e157c]
class User--><rect codeLine="17" fill="#FEFECE" filter="url(#f1ibunkc04frsj)" height="122.2617" id="User" style="stroke:#A80036;stroke-width:2.25;" width="99" x="1022.25" y="166.5"/><ellipse cx="1049.475" cy="190.5" fill="#ADD1B2" rx="16.5" ry="16.5" style="stroke:#A80036;stroke-width:1.5;"/><path d="M1052.475,185.25 Q1052.7797,184.5 1053.1313,184.125 Q1053.4828,183.75 1053.8813,183.75 Q1054.5844,183.75 1055.0297,184.1719 Q1055.475,184.5938 1055.475,185.5781 L1055.475,187.9219 Q1055.475,188.9063 1055.0531,189.3281 Q1054.6313,189.75 1053.975,189.75 Q1053.3891,189.75 1053.0141,189.4922 Q1052.6391,189.2344 1052.475,188.5547 Q1052.4047,188.0859 1052.1469,187.8281 Q1051.6781,187.3359 1050.8344,187.0547 Q1049.9906,186.75 1049.1469,186.75 Q1048.0922,186.75 1047.2016,187.1719 Q1046.3344,187.5938 1045.6547,188.5313 Q1044.975,189.4688 1044.975,190.7578 L1044.975,192.1406 Q1044.975,193.6875 1046.2406,194.7188 Q1047.5063,195.75 1049.7563,195.75 Q1051.0922,195.75 1052.0297,195.4453 Q1052.5688,195.2813 1053.1781,194.7422 Q1053.5766,194.4375 1053.7875,194.3438 Q1053.9984,194.25 1054.2563,194.25 Q1054.7484,194.25 1055.1,194.6484 Q1055.475,195.0234 1055.475,195.5625 Q1055.475,196.0781 1054.9594,196.6875 Q1054.2094,197.5781 1053.0141,198.0703 Q1051.4438,198.75 1049.5219,198.75 Q1047.2719,198.75 1045.4672,197.8594 Q1044.0141,197.1563 1042.9828,195.6328 Q1041.975,194.1094 1041.975,192.3047 L1041.975,190.6641 Q1041.975,188.7891 1042.8656,187.1484 Q1043.7797,185.5078 1045.35,184.6406 Q1046.9438,183.75 1048.725,183.75 Q1049.8031,183.75 1050.7406,184.125 Q1051.6781,184.5 1052.475,185.25 Z " fill="#000000"/><text fill="#000000" font-family="sans-serif" font-size="18" lengthAdjust="spacing" textLength="40.5" x="1071.525" y="197.8652">User</text><line style="stroke:#A80036;stroke-width:2.25;" x1="1023.75" x2="1119.75" y1="214.5" y2="214.5"/><text fill="#000000" font-family="sans-serif" font-size="16.5" lengthAdjust="spacing" textLength="45" x="1031.25" y="237.6284">-name</text><text fill="#000000" font-family="sans-serif" font-size="16.5" lengthAdjust="spacing" textLength="42" x="1031.25" y="258.3823">-email</text><text fill="#000000" font-family="sans-serif" font-size="16.5" lengthAdjust="spacing" textLength="81" x="1031.25" y="279.1362">-password</text><!--MD5=[a3638c1e5b65d287ecad7f06f5c0f212]
class Role--><rect codeLine="35" fill="#FEFECE" filter="url(#f1ibunkc04frsj)" height="101.5078" id="Role" style="stroke:#A80036;stroke-width:2.25;" width="103.5" x="1326" y="177"/><ellipse cx="1355.925" cy="201" fill="#ADD1B2" rx="16.5" ry="16.5" style="stroke:#A80036;stroke-width:1.5;"/><path d="M1358.925,195.75 Q1359.2297,195 1359.5813,194.625 Q1359.9328,194.25 1360.3313,194.25 Q1361.0344,194.25 1361.4797,194.6719 Q1361.925,195.0938 1361.925,196.0781 L1361.925,198.4219 Q1361.925,199.4063 1361.5031,199.8281 Q1361.0813,200.25 1360.425,200.25 Q1359.8391,200.25 1359.4641,199.9922 Q1359.0891,199.7344 1358.925,199.0547 Q1358.8547,198.5859 1358.5969,198.3281 Q1358.1281,197.8359 1357.2844,197.5547 Q1356.4406,197.25 1355.5969,197.25 Q1354.5422,197.25 1353.6516,197.6719 Q1352.7844,198.0938 1352.1047,199.0313 Q1351.425,199.9688 1351.425,201.2578 L1351.425,202.6406 Q1351.425,204.1875 1352.6906,205.2188 Q1353.9563,206.25 1356.2063,206.25 Q1357.5422,206.25 1358.4797,205.9453 Q1359.0188,205.7813 1359.6281,205.2422 Q1360.0266,204.9375 1360.2375,204.8438 Q1360.4484,204.75 1360.7063,204.75 Q1361.1984,204.75 1361.55,205.1484 Q1361.925,205.5234 1361.925,206.0625 Q1361.925,206.5781 1361.4094,207.1875 Q1360.6594,208.0781 1359.4641,208.5703 Q1357.8938,209.25 1355.9719,209.25 Q1353.7219,209.25 1351.9172,208.3594 Q1350.4641,207.6563 1349.4328,206.1328 Q1348.425,204.6094 1348.425,202.8047 L1348.425,201.1641 Q1348.425,199.2891 1349.3156,197.6484 Q1350.2297,196.0078 1351.8,195.1406 Q1353.3938,194.25 1355.175,194.25 Q1356.2531,194.25 1357.1906,194.625 Q1358.1281,195 1358.925,195.75 Z " fill="#000000"/><text fill="#000000" font-family="sans-serif" font-size="18" lengthAdjust="spacing" textLength="39" x="1378.575" y="208.3652">Role</text><line style="stroke:#A80036;stroke-width:2.25;" x1="1327.5" x2="1428" y1="225" y2="225"/><text fill="#000000" font-family="sans-serif" font-size="16.5" lengthAdjust="spacing" textLength="18" x="1335" y="248.1284">-id</text><text fill="#000000" font-family="sans-serif" font-size="16.5" lengthAdjust="spacing" textLength="85.5" x="1335" y="268.8823">-description</text><!--MD5=[12e90e92236ca84f203192a07d84ec5e]
class OrganizationRole--><rect codeLine="13" fill="#FEFECE" filter="url(#f1ibunkc04frsj)" height="80.7539" id="OrganizationRole" style="stroke:#A80036;stroke-width:2.25;" width="190.5" x="976.5" y="10.5"/><ellipse cx="999" cy="34.5" fill="#ADD1B2" rx="16.5" ry="16.5" style="stroke:#A80036;stroke-width:1.5;"/><path d="M1002,29.25 Q1002.3047,28.5 1002.6563,28.125 Q1003.0078,27.75 1003.4063,27.75 Q1004.1094,27.75 1004.5547,28.1719 Q1005,28.5938 1005,29.5781 L1005,31.9219 Q1005,32.9063 1004.5781,33.3281 Q1004.1563,33.75 1003.5,33.75 Q1002.9141,33.75 1002.5391,33.4922 Q1002.1641,33.2344 1002,32.5547 Q1001.9297,32.0859 1001.6719,31.8281 Q1001.2031,31.3359 1000.3594,31.0547 Q999.5156,30.75 998.6719,30.75 Q997.6172,30.75 996.7266,31.1719 Q995.8594,31.5938 995.1797,32.5313 Q994.5,33.4688 994.5,34.7578 L994.5,36.1406 Q994.5,37.6875 995.7656,38.7188 Q997.0313,39.75 999.2813,39.75 Q1000.6172,39.75 1001.5547,39.4453 Q1002.0938,39.2813 1002.7031,38.7422 Q1003.1016,38.4375 1003.3125,38.3438 Q1003.5234,38.25 1003.7813,38.25 Q1004.2734,38.25 1004.625,38.6484 Q1005,39.0234 1005,39.5625 Q1005,40.0781 1004.4844,40.6875 Q1003.7344,41.5781 1002.5391,42.0703 Q1000.9688,42.75 999.0469,42.75 Q996.7969,42.75 994.9922,41.8594 Q993.5391,41.1563 992.5078,39.6328 Q991.5,38.1094 991.5,36.3047 L991.5,34.6641 Q991.5,32.7891 992.3906,31.1484 Q993.3047,29.5078 994.875,28.6406 Q996.4688,27.75 998.25,27.75 Q999.3281,27.75 1000.2656,28.125 Q1001.2031,28.5 1002,29.25 Z " fill="#000000"/><text fill="#000000" font-family="sans-serif" font-size="18" lengthAdjust="spacing" textLength="142.5" x="1020" y="41.8652">OrganizationRole</text><line style="stroke:#A80036;stroke-width:2.25;" x1="978" x2="1165.5" y1="58.5" y2="58.5"/><text fill="#000000" font-family="sans-serif" font-size="16.5" lengthAdjust="spacing" textLength="85.5" x="985.5" y="81.6284">-description</text><!--MD5=[7d96fd15f3014691d2fcaf89c5791e2a]
class SpecialistDoctor--><rect codeLine="40" fill="#FEFECE" filter="url(#f1ibunkc04frsj)" height="80.7539" id="SpecialistDoctor" style="stroke:#A80036;stroke-width:2.25;" width="183" x="336" y="174"/><ellipse cx="358.5" cy="198" fill="#ADD1B2" rx="16.5" ry="16.5" style="stroke:#A80036;stroke-width:1.5;"/><path d="M361.5,192.75 Q361.8047,192 362.1563,191.625 Q362.5078,191.25 362.9063,191.25 Q363.6094,191.25 364.0547,191.6719 Q364.5,192.0938 364.5,193.0781 L364.5,195.4219 Q364.5,196.4063 364.0781,196.8281 Q363.6563,197.25 363,197.25 Q362.4141,197.25 362.0391,196.9922 Q361.6641,196.7344 361.5,196.0547 Q361.4297,195.5859 361.1719,195.3281 Q360.7031,194.8359 359.8594,194.5547 Q359.0156,194.25 358.1719,194.25 Q357.1172,194.25 356.2266,194.6719 Q355.3594,195.0938 354.6797,196.0313 Q354,196.9688 354,198.2578 L354,199.6406 Q354,201.1875 355.2656,202.2188 Q356.5313,203.25 358.7813,203.25 Q360.1172,203.25 361.0547,202.9453 Q361.5938,202.7813 362.2031,202.2422 Q362.6016,201.9375 362.8125,201.8438 Q363.0234,201.75 363.2813,201.75 Q363.7734,201.75 364.125,202.1484 Q364.5,202.5234 364.5,203.0625 Q364.5,203.5781 363.9844,204.1875 Q363.2344,205.0781 362.0391,205.5703 Q360.4688,206.25 358.5469,206.25 Q356.2969,206.25 354.4922,205.3594 Q353.0391,204.6563 352.0078,203.1328 Q351,201.6094 351,199.8047 L351,198.1641 Q351,196.2891 351.8906,194.6484 Q352.8047,193.0078 354.375,192.1406 Q355.9688,191.25 357.75,191.25 Q358.8281,191.25 359.7656,191.625 Q360.7031,192 361.5,192.75 Z " fill="#000000"/><text fill="#000000" font-family="sans-serif" font-size="18" lengthAdjust="spacing" textLength="135" x="379.5" y="205.3652">SpecialistDoctor</text><line style="stroke:#A80036;stroke-width:2.25;" x1="337.5" x2="517.5" y1="222" y2="222"/><text fill="#000000" font-family="sans-serif" font-size="16.5" lengthAdjust="spacing" textLength="147" x="345" y="245.1284">-doctorIndexNumber</text><!--MD5=[304db59a05c0da2cdffc3c882f2d9e9b]
link Administrator to Company--><path codeLine="44" d="M138.78,260.925 C197.805,223.95 298.11,161.115 363.195,120.345 " fill="none" id="Administrator-Company" style="stroke:#A80036;stroke-width:1.5;"/><polygon fill="#000000" points="214.1441,158.7452,227.9823,155.2785,223.3018,147.8066,214.1441,158.7452" style="stroke:#000000;stroke-width:1.5;"/><text fill="#000000" font-family="sans-serif" font-size="19.5" lengthAdjust="spacing" textLength="55.5" x="234" y="162.7427">knows</text><text fill="#000000" font-family="sans-serif" font-size="19.5" lengthAdjust="spacing" textLength="7.5" x="144.7279" y="244.8856">*</text><text fill="#000000" font-family="sans-serif" font-size="19.5" lengthAdjust="spacing" textLength="10.5" x="341.175" y="149.1557">1</text><!--MD5=[22fb9506fac029fc1d2ae00f0eb8d606]
link Employee to User--><path codeLine="45" d="M817.8,228 C867.99,228 938.07,228 991.665,228 " fill="none" id="Employee-to-User" style="stroke:#A80036;stroke-width:1.5;"/><polygon fill="none" points="991.8,217.5,1021.8,228,991.8,238.5,991.8,217.5" style="stroke:#A80036;stroke-width:1.5;"/><!--MD5=[09366576ee87d48d594df10cacc83f45]
link Company to Employee--><path codeLine="46" d="M491.415,109.53 C547.71,135.24 630.12,172.89 686.85,198.81 " fill="none" id="Company-Employee" style="stroke:#A80036;stroke-width:1.5;"/><polygon fill="#000000" points="578.3219,136.8801,567.8128,127.2326,564.1492,135.2522,578.3219,136.8801" style="stroke:#000000;stroke-width:1.5;"/><text fill="#000000" font-family="sans-serif" font-size="19.5" lengthAdjust="spacing" textLength="55.5" x="585" y="141.7427">knows</text><text fill="#000000" font-family="sans-serif" font-size="19.5" lengthAdjust="spacing" textLength="10.5" x="503.3027" y="136.8052">1</text><text fill="#000000" font-family="sans-serif" font-size="19.5" lengthAdjust="spacing" textLength="7.5" x="667.4648" y="216.1414">*</text><!--MD5=[8f7dd94d56b58fc07b233ccd3dd98f8c]
link Administrator to Employee--><path codeLine="47" d="M168.345,303.945 C254.595,316.095 397.77,329.58 519,309 C577.62,299.055 641.16,275.895 686.865,256.875 " fill="none" id="Administrator-Employee" style="stroke:#A80036;stroke-width:1.5;"/><polygon fill="#000000" points="398.9693,295.0856,385.0587,291.9219,385.8558,300.7026,398.9693,295.0856" style="stroke:#000000;stroke-width:1.5;"/><text fill="#000000" font-family="sans-serif" font-size="19.5" lengthAdjust="spacing" textLength="64.5" x="405" y="303.7427">register</text><text fill="#000000" font-family="sans-serif" font-size="19.5" lengthAdjust="spacing" textLength="10.5" x="180.206" y="327.7326">1</text><text fill="#000000" font-family="sans-serif" font-size="19.5" lengthAdjust="spacing" textLength="7.5" x="667.4824" y="284.1864">*</text><!--MD5=[70c37dc9bfbc8656942103c36f1181e4]
link User to Role--><path codeLine="48" d="M1121.265,228 C1177.17,228 1269.075,228 1325.94,228 " fill="none" id="User-Role" style="stroke:#A80036;stroke-width:1.5;"/><polygon fill="#000000" points="1227,214.7637,1213.4324,210.3553,1213.4324,219.1721,1227,214.7637" style="stroke:#000000;stroke-width:1.5;"/><text fill="#000000" font-family="sans-serif" font-size="19.5" lengthAdjust="spacing" textLength="46.5" x="1233" y="222.7427">plays</text><text fill="#000000" font-family="sans-serif" font-size="19.5" lengthAdjust="spacing" textLength="7.5" x="1133.5825" y="251.164">*</text><text fill="#000000" font-family="sans-serif" font-size="19.5" lengthAdjust="spacing" textLength="10.5" x="1303.6714" y="250.8228">1</text><!--MD5=[241b49406f7a05442b1e788ffaf3787c]
link Employee to OrganizationRole--><path codeLine="49" d="M817.8,192.18 C869.82,163.095 943.2,122.055 997.44,91.725 " fill="none" id="Employee-OrganizationRole" style="stroke:#A80036;stroke-width:1.5;"/><polygon fill="#000000" points="876.546,112.1031,862.5525,114.8775,866.8558,122.5728,876.546,112.1031" style="stroke:#000000;stroke-width:1.5;"/><text fill="#000000" font-family="sans-serif" font-size="19.5" lengthAdjust="spacing" textLength="46.5" x="883.5" y="123.7427">plays</text><text fill="#000000" font-family="sans-serif" font-size="19.5" lengthAdjust="spacing" textLength="7.5" x="829.7109" y="208.3719">*</text><text fill="#000000" font-family="sans-serif" font-size="19.5" lengthAdjust="spacing" textLength="10.5" x="969.5363" y="123.5859">1</text><!--MD5=[e66f8c4fa516e197a55cf1b13c3927b3]
link SpecialistDoctor to Employee--><path codeLine="50" d="M519.06,218.28 C561.99,220.08 613.335,222.24 656.76,224.055 " fill="none" id="SpecialistDoctor-to-Employee" style="stroke:#A80036;stroke-width:1.5;"/><polygon fill="none" points="657.225,213.57,686.76,225.315,656.34,234.555,657.225,213.57" style="stroke:#A80036;stroke-width:1.5;"/><!--MD5=[9abf40ff36e4aa94ac761b2803c1dce8]
link Company to OrganizationRole--><path codeLine="51" d="M491.655,78.075 C604.785,72.78 843.735,61.605 976.44,55.395 " fill="none" id="Company-OrganizationRole" style="stroke:#A80036;stroke-width:1.5;"/><polygon fill="#000000" points="702.7418,50.9132,688.983,47.1437,689.395,55.9508,702.7418,50.9132" style="stroke:#000000;stroke-width:1.5;"/><text fill="#000000" font-family="sans-serif" font-size="19.5" lengthAdjust="spacing" textLength="106.5" x="708.75" y="59.2427">comprehend</text><!--MD5=[d077ae3577bf63e2debdf51fbd18026a]
@startuml
'https://plantuml.com/class-diagram
hide methods
left to right direction
skinparam classAttributeIconSize 0

class Administrator
class Company
class Employee
class User
class Role
class OrganizationRole

class OrganizationRole{
-description
}

class User{
-name
-email
-password
}
class Employee{
-name
-address
-phoneNumber
-email
-employeeId
-socCode
}

class Company{
-designation
}

class Role{
-id
-description
}

class SpecialistDoctor{
-doctorIndexNumber
}

Administrator "*"- -"1" Company : < knows
Employee - -|> User
Company "1"- -"*" Employee : knows >
Administrator "1"- -"*" Employee : register >
User "*"- -"1" Role : plays >
Employee "*"- -"1" OrganizationRole: plays >
SpecialistDoctor - -|> Employee
Company - - OrganizationRole : comprehend >
@enduml

@startuml
hide methods
left to right direction
skinparam classAttributeIconSize 0

class Administrator
class Company
class Employee
class User
class Role
class OrganizationRole

class OrganizationRole{
-description
}

class User{
-name
-email
-password
}
class Employee{
-name
-address
-phoneNumber
-email
-employeeId
-socCode
}

class Company{
-designation
}

class Role{
-id
-description
}

class SpecialistDoctor{
-doctorIndexNumber
}

Administrator "*"- -"1" Company : < knows
Employee - -|> User
Company "1"- -"*" Employee : knows >
Administrator "1"- -"*" Employee : register >
User "*"- -"1" Role : plays >
Employee "*"- -"1" OrganizationRole: plays >
SpecialistDoctor - -|> Employee
Company - - OrganizationRole : comprehend >
@enduml

PlantUML version 1.2021.4(Sun Apr 04 09:49:39 BST 2021)
(GPL source distribution)
Java Runtime: OpenJDK Runtime Environment
JVM: Dynamic Code Evolution 64-Bit Server VM
Default Encoding: Cp1252
Language: pt
Country: PT
--></g></svg>