<?xml version="1.0" encoding="UTF-8" standalone="no"?><svg xmlns="http://www.w3.org/2000/svg" xmlns:xlink="http://www.w3.org/1999/xlink" contentScriptType="application/ecmascript" contentStyleType="text/css" height="1129.5px" preserveAspectRatio="none" style="width:1005px;height:1129px;" version="1.1" viewBox="0 0 1005 1129" width="1005px" zoomAndPan="magnify"><defs><filter height="300%" id="f1p31ojmujjvg0" width="300%" x="-1" y="-1"><feGaussianBlur result="blurOut" stdDeviation="3.0"/><feColorMatrix in="blurOut" result="blurOut2" type="matrix" values="0 0 0 0 0 0 0 0 0 0 0 0 0 0 0 0 0 0 .4 0"/><feOffset dx="6.0" dy="6.0" in="blurOut2" result="blurOut3"/><feBlend in="SourceGraphic" in2="blurOut3" mode="normal"/></filter></defs><g><!--MD5=[02e4b9b7573f1156f41e60aa5b4e25a4]
class Company--><rect codeLine="9" fill="#FEFECE" filter="url(#f1p31ojmujjvg0)" height="155.0156" id="Company" style="stroke:#A80036;stroke-width:2.25;" width="252" x="359.25" y="10.5"/><ellipse cx="439.125" cy="34.5" fill="#ADD1B2" rx="16.5" ry="16.5" style="stroke:#A80036;stroke-width:1.5;"/><path d="M442.125,29.25 Q442.4297,28.5 442.7813,28.125 Q443.1328,27.75 443.5313,27.75 Q444.2344,27.75 444.6797,28.1719 Q445.125,28.5938 445.125,29.5781 L445.125,31.9219 Q445.125,32.9063 444.7031,33.3281 Q444.2813,33.75 443.625,33.75 Q443.0391,33.75 442.6641,33.4922 Q442.2891,33.2344 442.125,32.5547 Q442.0547,32.0859 441.7969,31.8281 Q441.3281,31.3359 440.4844,31.0547 Q439.6406,30.75 438.7969,30.75 Q437.7422,30.75 436.8516,31.1719 Q435.9844,31.5938 435.3047,32.5313 Q434.625,33.4688 434.625,34.7578 L434.625,36.1406 Q434.625,37.6875 435.8906,38.7188 Q437.1563,39.75 439.4063,39.75 Q440.7422,39.75 441.6797,39.4453 Q442.2188,39.2813 442.8281,38.7422 Q443.2266,38.4375 443.4375,38.3438 Q443.6484,38.25 443.9063,38.25 Q444.3984,38.25 444.75,38.6484 Q445.125,39.0234 445.125,39.5625 Q445.125,40.0781 444.6094,40.6875 Q443.8594,41.5781 442.6641,42.0703 Q441.0938,42.75 439.1719,42.75 Q436.9219,42.75 435.1172,41.8594 Q433.6641,41.1563 432.6328,39.6328 Q431.625,38.1094 431.625,36.3047 L431.625,34.6641 Q431.625,32.7891 432.5156,31.1484 Q433.4297,29.5078 435,28.6406 Q436.5938,27.75 438.375,27.75 Q439.4531,27.75 440.3906,28.125 Q441.3281,28.5 442.125,29.25 Z " fill="#000000"/><text fill="#000000" font-family="sans-serif" font-size="18" lengthAdjust="spacing" textLength="79.5" x="469.875" y="41.8652">Company</text><line style="stroke:#A80036;stroke-width:2.25;" x1="360.75" x2="609.75" y1="58.5" y2="58.5"/><rect fill="none" height="9" style="stroke:#C82930;stroke-width:1.5;" width="9" x="371.25" y="70.5"/><text fill="#000000" font-family="sans-serif" font-size="16.5" lengthAdjust="spacing" textLength="82.5" x="389.25" y="81.6284">designation</text><line style="stroke:#A80036;stroke-width:2.25;" x1="360.75" x2="609.75" y1="91.2539" y2="91.2539"/><ellipse cx="375.75" cy="107.7539" fill="#84BE84" rx="4.5" ry="4.5" style="stroke:#038048;stroke-width:1.5;"/><text fill="#000000" font-family="sans-serif" font-size="16.5" lengthAdjust="spacing" textLength="147" x="389.25" y="114.3823">getParameterStore()</text><ellipse cx="375.75" cy="128.5078" fill="#84BE84" rx="4.5" ry="4.5" style="stroke:#038048;stroke-width:1.5;"/><text fill="#000000" font-family="sans-serif" font-size="16.5" lengthAdjust="spacing" textLength="213" x="389.25" y="135.1362">getParameterCategoryStore()</text><ellipse cx="375.75" cy="149.2617" fill="#84BE84" rx="4.5" ry="4.5" style="stroke:#038048;stroke-width:1.5;"/><text fill="#000000" font-family="sans-serif" font-size="16.5" lengthAdjust="spacing" textLength="141" x="389.25" y="155.8901">getTestTypeStore()</text><!--MD5=[6ba72ddf03822b91e8d41ca71de58ed3]
class TestTypeStore--><rect codeLine="16" fill="#FEFECE" filter="url(#f1p31ojmujjvg0)" height="134.2617" id="TestTypeStore" style="stroke:#A80036;stroke-width:2.25;" width="247.5" x="10.5" y="302.25"/><ellipse cx="69.45" cy="326.25" fill="#ADD1B2" rx="16.5" ry="16.5" style="stroke:#A80036;stroke-width:1.5;"/><path d="M72.45,321 Q72.7547,320.25 73.1062,319.875 Q73.4578,319.5 73.8562,319.5 Q74.5594,319.5 75.0047,319.9219 Q75.45,320.3438 75.45,321.3281 L75.45,323.6719 Q75.45,324.6563 75.0281,325.0781 Q74.6062,325.5 73.95,325.5 Q73.3641,325.5 72.9891,325.2422 Q72.6141,324.9844 72.45,324.3047 Q72.3797,323.8359 72.1219,323.5781 Q71.6531,323.0859 70.8094,322.8047 Q69.9656,322.5 69.1219,322.5 Q68.0672,322.5 67.1766,322.9219 Q66.3094,323.3438 65.6297,324.2813 Q64.95,325.2188 64.95,326.5078 L64.95,327.8906 Q64.95,329.4375 66.2156,330.4688 Q67.4812,331.5 69.7312,331.5 Q71.0672,331.5 72.0047,331.1953 Q72.5437,331.0313 73.1531,330.4922 Q73.5516,330.1875 73.7625,330.0938 Q73.9734,330 74.2312,330 Q74.7234,330 75.075,330.3984 Q75.45,330.7734 75.45,331.3125 Q75.45,331.8281 74.9344,332.4375 Q74.1844,333.3281 72.9891,333.8203 Q71.4187,334.5 69.4969,334.5 Q67.2469,334.5 65.4422,333.6094 Q63.9891,332.9063 62.9578,331.3828 Q61.95,329.8594 61.95,328.0547 L61.95,326.4141 Q61.95,324.5391 62.8406,322.8984 Q63.7547,321.2578 65.325,320.3906 Q66.9187,319.5 68.7,319.5 Q69.7781,319.5 70.7156,319.875 Q71.6531,320.25 72.45,321 Z " fill="#000000"/><text fill="#000000" font-family="sans-serif" font-size="18" lengthAdjust="spacing" textLength="118.5" x="98.55" y="333.6152">TestTypeStore</text><line style="stroke:#A80036;stroke-width:2.25;" x1="12" x2="256.5" y1="350.25" y2="350.25"/><line style="stroke:#A80036;stroke-width:2.25;" x1="12" x2="256.5" y1="362.25" y2="362.25"/><ellipse cx="27" cy="378.75" fill="#84BE84" rx="4.5" ry="4.5" style="stroke:#038048;stroke-width:1.5;"/><text fill="#000000" font-family="sans-serif" font-size="16.5" lengthAdjust="spacing" textLength="208.5" x="40.5" y="385.3784">createTestType(designation)</text><ellipse cx="27" cy="399.5039" fill="#84BE84" rx="4.5" ry="4.5" style="stroke:#038048;stroke-width:1.5;"/><text fill="#000000" font-family="sans-serif" font-size="16.5" lengthAdjust="spacing" textLength="144" x="40.5" y="406.1323">validateTestType(tt)</text><ellipse cx="27" cy="420.2578" fill="#84BE84" rx="4.5" ry="4.5" style="stroke:#038048;stroke-width:1.5;"/><text fill="#000000" font-family="sans-serif" font-size="16.5" lengthAdjust="spacing" textLength="124.5" x="40.5" y="426.8862">saveTestType(tt)</text><!--MD5=[be7802b157a16874d39c59ca0e2b25be]
class ParameterStore--><rect codeLine="22" fill="#FEFECE" filter="url(#f1p31ojmujjvg0)" height="175.7695" id="ParameterStore" style="stroke:#A80036;stroke-width:2.25;" width="348" x="311.25" y="282"/><ellipse cx="413.625" cy="306" fill="#ADD1B2" rx="16.5" ry="16.5" style="stroke:#A80036;stroke-width:1.5;"/><path d="M416.625,300.75 Q416.9297,300 417.2813,299.625 Q417.6328,299.25 418.0313,299.25 Q418.7344,299.25 419.1797,299.6719 Q419.625,300.0938 419.625,301.0781 L419.625,303.4219 Q419.625,304.4063 419.2031,304.8281 Q418.7813,305.25 418.125,305.25 Q417.5391,305.25 417.1641,304.9922 Q416.7891,304.7344 416.625,304.0547 Q416.5547,303.5859 416.2969,303.3281 Q415.8281,302.8359 414.9844,302.5547 Q414.1406,302.25 413.2969,302.25 Q412.2422,302.25 411.3516,302.6719 Q410.4844,303.0938 409.8047,304.0313 Q409.125,304.9688 409.125,306.2578 L409.125,307.6406 Q409.125,309.1875 410.3906,310.2188 Q411.6563,311.25 413.9063,311.25 Q415.2422,311.25 416.1797,310.9453 Q416.7188,310.7813 417.3281,310.2422 Q417.7266,309.9375 417.9375,309.8438 Q418.1484,309.75 418.4063,309.75 Q418.8984,309.75 419.25,310.1484 Q419.625,310.5234 419.625,311.0625 Q419.625,311.5781 419.1094,312.1875 Q418.3594,313.0781 417.1641,313.5703 Q415.5938,314.25 413.6719,314.25 Q411.4219,314.25 409.6172,313.3594 Q408.1641,312.6563 407.1328,311.1328 Q406.125,309.6094 406.125,307.8047 L406.125,306.1641 Q406.125,304.2891 407.0156,302.6484 Q407.9297,301.0078 409.5,300.1406 Q411.0938,299.25 412.875,299.25 Q413.9531,299.25 414.8906,299.625 Q415.8281,300 416.625,300.75 Z " fill="#000000"/><text fill="#000000" font-family="sans-serif" font-size="18" lengthAdjust="spacing" textLength="130.5" x="444.375" y="313.3652">ParameterStore</text><line style="stroke:#A80036;stroke-width:2.25;" x1="312.75" x2="657.75" y1="330" y2="330"/><line style="stroke:#A80036;stroke-width:2.25;" x1="312.75" x2="657.75" y1="342" y2="342"/><ellipse cx="327.75" cy="358.5" fill="#84BE84" rx="4.5" ry="4.5" style="stroke:#038048;stroke-width:1.5;"/><text fill="#000000" font-family="sans-serif" font-size="16.5" lengthAdjust="spacing" textLength="309" x="341.25" y="365.1284">createParameter(id, designation, category)</text><ellipse cx="327.75" cy="379.2539" fill="#84BE84" rx="4.5" ry="4.5" style="stroke:#038048;stroke-width:1.5;"/><text fill="#000000" font-family="sans-serif" font-size="16.5" lengthAdjust="spacing" textLength="159" x="341.25" y="385.8823">validateParameter(pc)</text><ellipse cx="327.75" cy="400.0078" fill="#84BE84" rx="4.5" ry="4.5" style="stroke:#038048;stroke-width:1.5;"/><text fill="#000000" font-family="sans-serif" font-size="16.5" lengthAdjust="spacing" textLength="139.5" x="341.25" y="406.6362">saveParameter(pc)</text><ellipse cx="327.75" cy="420.7617" fill="#84BE84" rx="4.5" ry="4.5" style="stroke:#038048;stroke-width:1.5;"/><text fill="#000000" font-family="sans-serif" font-size="16.5" lengthAdjust="spacing" textLength="151.5" x="341.25" y="427.3901">getParameterById(id)</text><ellipse cx="327.75" cy="441.5156" fill="#84BE84" rx="4.5" ry="4.5" style="stroke:#038048;stroke-width:1.5;"/><text fill="#000000" font-family="sans-serif" font-size="16.5" lengthAdjust="spacing" textLength="267" x="341.25" y="448.144">getParametersByCategory(category)</text><!--MD5=[d802db621b5b215a6f0466f93cefcb42]
class ParameterCategoryStore--><rect codeLine="30" fill="#FEFECE" filter="url(#f1p31ojmujjvg0)" height="155.0156" id="ParameterCategoryStore" style="stroke:#A80036;stroke-width:2.25;" width="339" x="645.75" y="502.5"/><ellipse cx="707.4" cy="526.5" fill="#ADD1B2" rx="16.5" ry="16.5" style="stroke:#A80036;stroke-width:1.5;"/><path d="M710.4,521.25 Q710.7047,520.5 711.0563,520.125 Q711.4078,519.75 711.8063,519.75 Q712.5094,519.75 712.9547,520.1719 Q713.4,520.5938 713.4,521.5781 L713.4,523.9219 Q713.4,524.9063 712.9781,525.3281 Q712.5563,525.75 711.9,525.75 Q711.3141,525.75 710.9391,525.4922 Q710.5641,525.2344 710.4,524.5547 Q710.3297,524.0859 710.0719,523.8281 Q709.6031,523.3359 708.7594,523.0547 Q707.9156,522.75 707.0719,522.75 Q706.0172,522.75 705.1266,523.1719 Q704.2594,523.5938 703.5797,524.5313 Q702.9,525.4688 702.9,526.7578 L702.9,528.1406 Q702.9,529.6875 704.1656,530.7188 Q705.4313,531.75 707.6813,531.75 Q709.0172,531.75 709.9547,531.4453 Q710.4938,531.2813 711.1031,530.7422 Q711.5016,530.4375 711.7125,530.3438 Q711.9234,530.25 712.1813,530.25 Q712.6734,530.25 713.025,530.6484 Q713.4,531.0234 713.4,531.5625 Q713.4,532.0781 712.8844,532.6875 Q712.1344,533.5781 710.9391,534.0703 Q709.3688,534.75 707.4469,534.75 Q705.1969,534.75 703.3922,533.8594 Q701.9391,533.1563 700.9078,531.6328 Q699.9,530.1094 699.9,528.3047 L699.9,526.6641 Q699.9,524.7891 700.7906,523.1484 Q701.7047,521.5078 703.275,520.6406 Q704.8688,519.75 706.65,519.75 Q707.7281,519.75 708.6656,520.125 Q709.6031,520.5 710.4,521.25 Z " fill="#000000"/><text fill="#000000" font-family="sans-serif" font-size="18" lengthAdjust="spacing" textLength="204" x="737.1" y="533.8652">ParameterCategoryStore</text><line style="stroke:#A80036;stroke-width:2.25;" x1="647.25" x2="983.25" y1="550.5" y2="550.5"/><line style="stroke:#A80036;stroke-width:2.25;" x1="647.25" x2="983.25" y1="562.5" y2="562.5"/><ellipse cx="662.25" cy="579" fill="#84BE84" rx="4.5" ry="4.5" style="stroke:#038048;stroke-width:1.5;"/><text fill="#000000" font-family="sans-serif" font-size="16.5" lengthAdjust="spacing" textLength="300" x="675.75" y="585.6284">createCategory(code, designation, nhsId)</text><ellipse cx="662.25" cy="599.7539" fill="#84BE84" rx="4.5" ry="4.5" style="stroke:#038048;stroke-width:1.5;"/><text fill="#000000" font-family="sans-serif" font-size="16.5" lengthAdjust="spacing" textLength="142.5" x="675.75" y="606.3823">validateCategory(c)</text><ellipse cx="662.25" cy="620.5078" fill="#84BE84" rx="4.5" ry="4.5" style="stroke:#038048;stroke-width:1.5;"/><text fill="#000000" font-family="sans-serif" font-size="16.5" lengthAdjust="spacing" textLength="123" x="675.75" y="627.1362">saveCategory(c)</text><ellipse cx="662.25" cy="641.2617" fill="#84BE84" rx="4.5" ry="4.5" style="stroke:#038048;stroke-width:1.5;"/><text fill="#000000" font-family="sans-serif" font-size="16.5" lengthAdjust="spacing" textLength="249" x="675.75" y="647.8901">getParameterCategoryStore(code)</text><!--MD5=[aeb3272166074d8737a70b61b1e71682]
class TestType--><rect codeLine="50" fill="#FEFECE" filter="url(#f1p31ojmujjvg0)" height="113.5078" id="TestType" style="stroke:#A80036;stroke-width:2.25;" width="201" x="33.75" y="712.5"/><ellipse cx="91.35" cy="736.5" fill="#ADD1B2" rx="16.5" ry="16.5" style="stroke:#A80036;stroke-width:1.5;"/><path d="M94.35,731.25 Q94.6547,730.5 95.0063,730.125 Q95.3578,729.75 95.7563,729.75 Q96.4594,729.75 96.9047,730.1719 Q97.35,730.5938 97.35,731.5781 L97.35,733.9219 Q97.35,734.9063 96.9281,735.3281 Q96.5063,735.75 95.85,735.75 Q95.2641,735.75 94.8891,735.4922 Q94.5141,735.2344 94.35,734.5547 Q94.2797,734.0859 94.0219,733.8281 Q93.5531,733.3359 92.7094,733.0547 Q91.8656,732.75 91.0219,732.75 Q89.9672,732.75 89.0766,733.1719 Q88.2094,733.5938 87.5297,734.5313 Q86.85,735.4688 86.85,736.7578 L86.85,738.1406 Q86.85,739.6875 88.1156,740.7188 Q89.3813,741.75 91.6313,741.75 Q92.9672,741.75 93.9047,741.4453 Q94.4438,741.2813 95.0531,740.7422 Q95.4516,740.4375 95.6625,740.3438 Q95.8734,740.25 96.1313,740.25 Q96.6234,740.25 96.975,740.6484 Q97.35,741.0234 97.35,741.5625 Q97.35,742.0781 96.8344,742.6875 Q96.0844,743.5781 94.8891,744.0703 Q93.3188,744.75 91.3969,744.75 Q89.1469,744.75 87.3422,743.8594 Q85.8891,743.1563 84.8578,741.6328 Q83.85,740.1094 83.85,738.3047 L83.85,736.6641 Q83.85,734.7891 84.7406,733.1484 Q85.6547,731.5078 87.225,730.6406 Q88.8188,729.75 90.6,729.75 Q91.6781,729.75 92.6156,730.125 Q93.5531,730.5 94.35,731.25 Z " fill="#000000"/><text fill="#000000" font-family="sans-serif" font-size="18" lengthAdjust="spacing" textLength="75" x="120.15" y="743.8652">TestType</text><line style="stroke:#A80036;stroke-width:2.25;" x1="35.25" x2="233.25" y1="760.5" y2="760.5"/><rect fill="none" height="9" style="stroke:#C82930;stroke-width:1.5;" width="9" x="45.75" y="772.5"/><text fill="#000000" font-family="sans-serif" font-size="16.5" lengthAdjust="spacing" textLength="82.5" x="63.75" y="783.6284">designation</text><line style="stroke:#A80036;stroke-width:2.25;" x1="35.25" x2="233.25" y1="793.2539" y2="793.2539"/><ellipse cx="50.25" cy="809.7539" fill="#84BE84" rx="4.5" ry="4.5" style="stroke:#038048;stroke-width:1.5;"/><text fill="#000000" font-family="sans-serif" font-size="16.5" lengthAdjust="spacing" textLength="162" x="63.75" y="816.3823">TestType(designation)</text><!--MD5=[1f6362a5c8f21d8d6a0fce68f3a92a4e]
class Parameter--><rect codeLine="37" fill="#FEFECE" filter="url(#f1p31ojmujjvg0)" height="134.2617" id="Parameter" style="stroke:#A80036;stroke-width:2.25;" width="301.5" x="337.5" y="702"/><ellipse cx="438.375" cy="726" fill="#ADD1B2" rx="16.5" ry="16.5" style="stroke:#A80036;stroke-width:1.5;"/><path d="M441.375,720.75 Q441.6797,720 442.0313,719.625 Q442.3828,719.25 442.7813,719.25 Q443.4844,719.25 443.9297,719.6719 Q444.375,720.0938 444.375,721.0781 L444.375,723.4219 Q444.375,724.4063 443.9531,724.8281 Q443.5313,725.25 442.875,725.25 Q442.2891,725.25 441.9141,724.9922 Q441.5391,724.7344 441.375,724.0547 Q441.3047,723.5859 441.0469,723.3281 Q440.5781,722.8359 439.7344,722.5547 Q438.8906,722.25 438.0469,722.25 Q436.9922,722.25 436.1016,722.6719 Q435.2344,723.0938 434.5547,724.0313 Q433.875,724.9688 433.875,726.2578 L433.875,727.6406 Q433.875,729.1875 435.1406,730.2188 Q436.4063,731.25 438.6563,731.25 Q439.9922,731.25 440.9297,730.9453 Q441.4688,730.7813 442.0781,730.2422 Q442.4766,729.9375 442.6875,729.8438 Q442.8984,729.75 443.1563,729.75 Q443.6484,729.75 444,730.1484 Q444.375,730.5234 444.375,731.0625 Q444.375,731.5781 443.8594,732.1875 Q443.1094,733.0781 441.9141,733.5703 Q440.3438,734.25 438.4219,734.25 Q436.1719,734.25 434.3672,733.3594 Q432.9141,732.6563 431.8828,731.1328 Q430.875,729.6094 430.875,727.8047 L430.875,726.1641 Q430.875,724.2891 431.7656,722.6484 Q432.6797,721.0078 434.25,720.1406 Q435.8438,719.25 437.625,719.25 Q438.7031,719.25 439.6406,719.625 Q440.5781,720 441.375,720.75 Z " fill="#000000"/><text fill="#000000" font-family="sans-serif" font-size="18" lengthAdjust="spacing" textLength="87" x="469.125" y="733.3652">Parameter</text><line style="stroke:#A80036;stroke-width:2.25;" x1="339" x2="637.5" y1="750" y2="750"/><rect fill="none" height="9" style="stroke:#C82930;stroke-width:1.5;" width="9" x="349.5" y="762"/><text fill="#000000" font-family="sans-serif" font-size="16.5" lengthAdjust="spacing" textLength="12" x="367.5" y="773.1284">id</text><rect fill="none" height="9" style="stroke:#C82930;stroke-width:1.5;" width="9" x="349.5" y="782.7539"/><text fill="#000000" font-family="sans-serif" font-size="16.5" lengthAdjust="spacing" textLength="82.5" x="367.5" y="793.8823">designation</text><line style="stroke:#A80036;stroke-width:2.25;" x1="339" x2="637.5" y1="803.5078" y2="803.5078"/><ellipse cx="354" cy="820.0078" fill="#84BE84" rx="4.5" ry="4.5" style="stroke:#038048;stroke-width:1.5;"/><text fill="#000000" font-family="sans-serif" font-size="16.5" lengthAdjust="spacing" textLength="262.5" x="367.5" y="826.6362">Parameter(id, designation, category)</text><!--MD5=[36afb6bbd95a8ac778c4537c55a683d5]
class ParameterCategory--><rect codeLine="43" fill="#FEFECE" filter="url(#f1p31ojmujjvg0)" height="155.0156" id="ParameterCategory" style="stroke:#A80036;stroke-width:2.25;" width="366" x="480.75" y="954"/><ellipse cx="577.125" cy="978" fill="#ADD1B2" rx="16.5" ry="16.5" style="stroke:#A80036;stroke-width:1.5;"/><path d="M580.125,972.75 Q580.4297,972 580.7813,971.625 Q581.1328,971.25 581.5313,971.25 Q582.2344,971.25 582.6797,971.6719 Q583.125,972.0938 583.125,973.0781 L583.125,975.4219 Q583.125,976.4063 582.7031,976.8281 Q582.2813,977.25 581.625,977.25 Q581.0391,977.25 580.6641,976.9922 Q580.2891,976.7344 580.125,976.0547 Q580.0547,975.5859 579.7969,975.3281 Q579.3281,974.8359 578.4844,974.5547 Q577.6406,974.25 576.7969,974.25 Q575.7422,974.25 574.8516,974.6719 Q573.9844,975.0938 573.3047,976.0313 Q572.625,976.9688 572.625,978.2578 L572.625,979.6406 Q572.625,981.1875 573.8906,982.2188 Q575.1563,983.25 577.4063,983.25 Q578.7422,983.25 579.6797,982.9453 Q580.2188,982.7813 580.8281,982.2422 Q581.2266,981.9375 581.4375,981.8438 Q581.6484,981.75 581.9063,981.75 Q582.3984,981.75 582.75,982.1484 Q583.125,982.5234 583.125,983.0625 Q583.125,983.5781 582.6094,984.1875 Q581.8594,985.0781 580.6641,985.5703 Q579.0938,986.25 577.1719,986.25 Q574.9219,986.25 573.1172,985.3594 Q571.6641,984.6563 570.6328,983.1328 Q569.625,981.6094 569.625,979.8047 L569.625,978.1641 Q569.625,976.2891 570.5156,974.6484 Q571.4297,973.0078 573,972.1406 Q574.5938,971.25 576.375,971.25 Q577.4531,971.25 578.3906,971.625 Q579.3281,972 580.125,972.75 Z " fill="#000000"/><text fill="#000000" font-family="sans-serif" font-size="18" lengthAdjust="spacing" textLength="160.5" x="607.875" y="985.3652">ParameterCategory</text><line style="stroke:#A80036;stroke-width:2.25;" x1="482.25" x2="845.25" y1="1002" y2="1002"/><rect fill="none" height="9" style="stroke:#C82930;stroke-width:1.5;" width="9" x="492.75" y="1014"/><text fill="#000000" font-family="sans-serif" font-size="16.5" lengthAdjust="spacing" textLength="36" x="510.75" y="1025.1284">code</text><rect fill="none" height="9" style="stroke:#C82930;stroke-width:1.5;" width="9" x="492.75" y="1034.7539"/><text fill="#000000" font-family="sans-serif" font-size="16.5" lengthAdjust="spacing" textLength="82.5" x="510.75" y="1045.8823">designation</text><rect fill="none" height="9" style="stroke:#C82930;stroke-width:1.5;" width="9" x="492.75" y="1055.5078"/><text fill="#000000" font-family="sans-serif" font-size="16.5" lengthAdjust="spacing" textLength="39" x="510.75" y="1066.6362">nhsId</text><line style="stroke:#A80036;stroke-width:2.25;" x1="482.25" x2="845.25" y1="1076.2617" y2="1076.2617"/><ellipse cx="497.25" cy="1092.7617" fill="#84BE84" rx="4.5" ry="4.5" style="stroke:#038048;stroke-width:1.5;"/><text fill="#000000" font-family="sans-serif" font-size="16.5" lengthAdjust="spacing" textLength="327" x="510.75" y="1099.3901">ParameterCategory(code, designation, nhsId)</text><!--MD5=[daf3d7412afa2c7651483be0b6e971d1]
link Company to ParameterStore--><path codeLine="55" d="M485.25,165.495 C485.25,198.93 485.25,238.545 485.25,273.84 " fill="none" id="Company-to-ParameterStore" style="stroke:#A80036;stroke-width:1.5;"/><polygon fill="#A80036" points="485.25,281.76,491.25,268.26,485.25,274.26,479.25,268.26,485.25,281.76" style="stroke:#A80036;stroke-width:1.5;"/><text fill="#000000" font-family="sans-serif" font-size="19.5" lengthAdjust="spacing" textLength="42" x="486.75" y="231.7427">uses</text><text fill="#000000" font-family="sans-serif" font-size="19.5" lengthAdjust="spacing" textLength="10.5" x="474.0445" y="197.7979">1</text><text fill="#000000" font-family="sans-serif" font-size="19.5" lengthAdjust="spacing" textLength="10.5" x="474.1102" y="265.8321">1</text><!--MD5=[d53d7490e5836ca5709858d7326f212b]
link Company to ParameterCategoryStore--><path codeLine="56" d="M578.37,165.24 C614.85,198.36 655.005,239.325 684.75,282 C730.77,348.015 766.125,432.855 788.37,494.82 " fill="none" id="Company-to-ParameterCategoryStore" style="stroke:#A80036;stroke-width:1.5;"/><polygon fill="#A80036" points="791.01,502.26,792.1398,487.53,788.497,495.1935,780.8334,491.5508,791.01,502.26" style="stroke:#A80036;stroke-width:1.5;"/><text fill="#000000" font-family="sans-serif" font-size="19.5" lengthAdjust="spacing" textLength="42" x="650.25" y="231.7427">uses</text><text fill="#000000" font-family="sans-serif" font-size="19.5" lengthAdjust="spacing" textLength="10.5" x="579.6775" y="197.5087">1</text><text fill="#000000" font-family="sans-serif" font-size="19.5" lengthAdjust="spacing" textLength="10.5" x="776.5473" y="486.4782">1</text><!--MD5=[141c3afa12b2b3c0a39ffce56dbd5f19]
link Company to TestTypeStore--><path codeLine="57" d="M389.805,165.12 C338.1,206.205 274.62,256.68 223.86,297.03 " fill="none" id="Company-to-TestTypeStore" style="stroke:#A80036;stroke-width:1.5;"/><polygon fill="#A80036" points="217.725,301.89,232.0249,298.1801,223.594,297.2205,224.5536,288.7896,217.725,301.89" style="stroke:#A80036;stroke-width:1.5;"/><text fill="#000000" font-family="sans-serif" font-size="19.5" lengthAdjust="spacing" textLength="42" x="333.75" y="231.7427">uses</text><text fill="#000000" font-family="sans-serif" font-size="19.5" lengthAdjust="spacing" textLength="10.5" x="365.1448" y="197.9312">1</text><text fill="#000000" font-family="sans-serif" font-size="19.5" lengthAdjust="spacing" textLength="10.5" x="219.2032" y="286.001">1</text><!--MD5=[3eebf0e5f359806b77b30e9524c37676]
link TestTypeStore to TestType--><path codeLine="58" d="M134.25,437.655 C134.25,511.935 134.25,631.395 134.25,704.49 " fill="none" id="TestTypeStore-to-TestType" style="stroke:#A80036;stroke-width:1.5;"/><polygon fill="#A80036" points="134.25,712.29,140.25,698.79,134.25,704.79,128.25,698.79,134.25,712.29" style="stroke:#A80036;stroke-width:1.5;"/><text fill="#000000" font-family="sans-serif" font-size="19.5" lengthAdjust="spacing" textLength="79.5" x="135.75" y="587.9927">conducts</text><text fill="#000000" font-family="sans-serif" font-size="19.5" lengthAdjust="spacing" textLength="10.5" x="123.0445" y="468.7199">1</text><text fill="#000000" font-family="sans-serif" font-size="19.5" lengthAdjust="spacing" textLength="10.5" x="122.8148" y="696.2954">1</text><!--MD5=[d6274e3b73b5bc8f467c6cfbf5bf003e]
link ParameterCategoryStore to ParameterCategory--><path codeLine="59" d="M804.06,657.525 C792.51,725.325 771.285,826.23 737.25,909 C732.045,921.645 725.64,934.5 718.785,946.875 " fill="none" id="ParameterCategoryStore-to-ParameterCategory" style="stroke:#A80036;stroke-width:1.5;"/><polygon fill="#A80036" points="714.93,953.7,726.7876,944.8882,718.6141,947.1672,716.3351,938.9937,714.93,953.7" style="stroke:#A80036;stroke-width:1.5;"/><text fill="#000000" font-family="sans-serif" font-size="19.5" lengthAdjust="spacing" textLength="58.5" x="797.25" y="777.7427">adopts</text><text fill="#000000" font-family="sans-serif" font-size="19.5" lengthAdjust="spacing" textLength="10.5" x="791.3509" y="689.832">1</text><text fill="#000000" font-family="sans-serif" font-size="19.5" lengthAdjust="spacing" textLength="10.5" x="710.6018" y="937.9102">1</text><!--MD5=[a0992dda039fed1bb57aff5aacace800]
link ParameterStore to Parameter--><path codeLine="60" d="M449.985,457.68 C445.32,472.41 441.285,487.725 438.75,502.5 C427.11,570.18 424.455,589.845 438.75,657 C441.375,669.3 445.455,681.9 450.18,693.975 " fill="none" id="ParameterStore-to-Parameter" style="stroke:#A80036;stroke-width:1.5;"/><polygon fill="#A80036" points="453.195,701.43,453.713,686.6658,450.3911,694.4738,442.5831,691.152,453.195,701.43" style="stroke:#A80036;stroke-width:1.5;"/><text fill="#000000" font-family="sans-serif" font-size="19.5" lengthAdjust="spacing" textLength="177" x="440.25" y="587.9927">capable of analysing</text><text fill="#000000" font-family="sans-serif" font-size="19.5" lengthAdjust="spacing" textLength="10.5" x="434.5472" y="490.1174">1</text><text fill="#000000" font-family="sans-serif" font-size="19.5" lengthAdjust="spacing" textLength="7.5" x="439.753" y="685.5089">*</text><!--MD5=[6df8849671cb880f6936e94aa30db6f9]
link Parameter to ParameterCategory--><path codeLine="61" d="M533.445,837.63 C556.11,871.05 583.755,911.82 607.755,947.19 " fill="none" id="Parameter-to-ParameterCategory" style="stroke:#A80036;stroke-width:1.5;"/><polygon fill="#A80036" points="612.195,953.73,609.5722,939.1914,607.9806,947.5261,599.6459,945.9344,612.195,953.73" style="stroke:#A80036;stroke-width:1.5;"/><text fill="#000000" font-family="sans-serif" font-size="19.5" lengthAdjust="spacing" textLength="139.5" x="584.25" y="903.7427">presented under</text><text fill="#000000" font-family="sans-serif" font-size="19.5" lengthAdjust="spacing" textLength="7.5" x="531.5142" y="868.7252">*</text><text fill="#000000" font-family="sans-serif" font-size="19.5" lengthAdjust="spacing" textLength="10.5" x="594.0618" y="937.9442">1</text><!--MD5=[065773533521cf952a01b491de3b625b]
@startuml
class Company
class TestTypeStore
class ParameterStore
class ParameterCategoryStore
class TestType
class Parameter
class ParameterCategory

class Company{
-designation
+getParameterStore()
+getParameterCategoryStore()
+getTestTypeStore()
}

class TestTypeStore{
+createTestType(designation)
+validateTestType(tt)
+saveTestType(tt)
}

class ParameterStore{
+createParameter(id, designation, category)
+validateParameter(pc)
+saveParameter(pc)
+getParameterById(id)
+getParametersByCategory(category)
}

class ParameterCategoryStore{
+createCategory(code, designation, nhsId)
+validateCategory(c)
+saveCategory(c)
+getParameterCategoryStore(code)
}

class Parameter {
-id
-designation
+Parameter(id, designation, category)
}

class ParameterCategory {
-code
-designation
-nhsId
+ParameterCategory(code, designation, nhsId)
}

class TestType{
-designation
+TestType(designation)
}

Company "1"- ->"1" ParameterStore : uses
Company "1"- ->"1" ParameterCategoryStore : uses
Company "1"- ->"1" TestTypeStore : uses
TestTypeStore "1"- ->"1" TestType : conducts
ParameterCategoryStore "1"- ->"1" ParameterCategory: adopts
ParameterStore "1"- ->"*" Parameter: capable of analysing
Parameter "*"- ->"1" ParameterCategory : presented under



@enduml

PlantUML version 1.2021.4(Sun Apr 04 09:49:39 BST 2021)
(GPL source distribution)
Java Runtime: OpenJDK Runtime Environment
JVM: Dynamic Code Evolution 64-Bit Server VM
Default Encoding: Cp1252
Language: pt
Country: PT
--></g></svg>