<?xml version="1.0" encoding="UTF-8" standalone="no"?><svg xmlns="http://www.w3.org/2000/svg" xmlns:xlink="http://www.w3.org/1999/xlink" contentScriptType="application/ecmascript" contentStyleType="text/css" height="394.2px" preserveAspectRatio="none" style="width:1476px;height:394px;" version="1.1" viewBox="0 0 1476 394" width="1476.9px" zoomAndPan="magnify"><defs><filter height="300%" id="fq3yofnu5temp" width="300%" x="-1" y="-1"><feGaussianBlur result="blurOut" stdDeviation="2.7000000000000006"/><feColorMatrix in="blurOut" result="blurOut2" type="matrix" values="0 0 0 0 0 0 0 0 0 0 0 0 0 0 0 0 0 0 .4 0"/><feOffset dx="5.400000000000001" dy="5.400000000000001" in="blurOut2" result="blurOut3"/><feBlend in="SourceGraphic" in2="blurOut3" mode="normal"/></filter></defs><g><!--MD5=[02e4b9b7573f1156f41e60aa5b4e25a4]
class Company--><rect codeLine="23" fill="#FEFECE" filter="url(#fq3yofnu5temp)" height="147.3926" id="Company" style="stroke:#A80036;stroke-width:2.0250000000000004;" width="114.75" x="9.45" y="118.125"/><ellipse cx="29.7" cy="139.725" fill="#ADD1B2" rx="14.85" ry="14.85" style="stroke:#A80036;stroke-width:1.3500000000000003;"/><path d="M32.4,135 Q32.6742,134.325 32.9906,133.9875 Q33.307,133.65 33.6656,133.65 Q34.2984,133.65 34.6992,134.0297 Q35.1,134.4094 35.1,135.2953 L35.1,137.4047 Q35.1,138.2906 34.7203,138.6703 Q34.3406,139.05 33.75,139.05 Q33.2227,139.05 32.8852,138.818 Q32.5477,138.5859 32.4,137.9742 Q32.3367,137.5523 32.1047,137.3203 Q31.6828,136.8773 30.9234,136.6242 Q30.1641,136.35 29.4047,136.35 Q28.4555,136.35 27.6539,136.7297 Q26.8734,137.1094 26.2617,137.9531 Q25.65,138.7969 25.65,139.957 L25.65,141.2016 Q25.65,142.5938 26.7891,143.5219 Q27.9281,144.45 29.9531,144.45 Q31.1555,144.45 31.9992,144.1758 Q32.4844,144.0281 33.0328,143.543 Q33.3914,143.2688 33.5813,143.1844 Q33.7711,143.1 34.0031,143.1 Q34.4461,143.1 34.7625,143.4586 Q35.1,143.7961 35.1,144.2813 Q35.1,144.7453 34.6359,145.2938 Q33.9609,146.0953 32.8852,146.5383 Q31.4719,147.15 29.7422,147.15 Q27.7172,147.15 26.093,146.3484 Q24.7852,145.7156 23.857,144.3445 Q22.95,142.9734 22.95,141.3492 L22.95,139.8727 Q22.95,138.1852 23.7516,136.7086 Q24.5742,135.232 25.9875,134.4516 Q27.4219,133.65 29.025,133.65 Q29.9953,133.65 30.8391,133.9875 Q31.6828,134.325 32.4,135 Z " fill="#000000"/><text fill="#000000" font-family="sans-serif" font-size="16.2" lengthAdjust="spacing" textLength="71.55" x="48.6" y="146.3537">Company</text><line style="stroke:#A80036;stroke-width:2.0250000000000004;" x1="10.8" x2="122.85" y1="161.325" y2="161.325"/><text fill="#000000" font-family="sans-serif" font-size="14.85" lengthAdjust="spacing" textLength="40.5" x="17.55" y="182.1406">-name</text><text fill="#000000" font-family="sans-serif" font-size="14.85" lengthAdjust="spacing" textLength="79.65" x="17.55" y="200.8191">-designation</text><text fill="#000000" font-family="sans-serif" font-size="14.85" lengthAdjust="spacing" textLength="63.45" x="17.55" y="219.4976">-category</text><text fill="#000000" font-family="sans-serif" font-size="14.85" lengthAdjust="spacing" textLength="59.4" x="17.55" y="238.1761">-address</text><text fill="#000000" font-family="sans-serif" font-size="14.85" lengthAdjust="spacing" textLength="93.15" x="17.55" y="256.8546">-headquarters</text><!--MD5=[1f6362a5c8f21d8d6a0fce68f3a92a4e]
class Parameter--><rect codeLine="31" fill="#FEFECE" filter="url(#fq3yofnu5temp)" height="110.0355" id="Parameter" style="stroke:#A80036;stroke-width:2.0250000000000004;" width="121.5" x="384.75" y="9.45"/><ellipse cx="405" cy="31.05" fill="#ADD1B2" rx="14.85" ry="14.85" style="stroke:#A80036;stroke-width:1.3500000000000003;"/><path d="M407.7,26.325 Q407.9742,25.65 408.2906,25.3125 Q408.607,24.975 408.9656,24.975 Q409.5984,24.975 409.9992,25.3547 Q410.4,25.7344 410.4,26.6203 L410.4,28.7297 Q410.4,29.6156 410.0203,29.9953 Q409.6406,30.375 409.05,30.375 Q408.5227,30.375 408.1852,30.143 Q407.8477,29.9109 407.7,29.2992 Q407.6367,28.8773 407.4047,28.6453 Q406.9828,28.2023 406.2234,27.9492 Q405.4641,27.675 404.7047,27.675 Q403.7555,27.675 402.9539,28.0547 Q402.1734,28.4344 401.5617,29.2781 Q400.95,30.1219 400.95,31.282 L400.95,32.5266 Q400.95,33.9188 402.0891,34.8469 Q403.2281,35.775 405.2531,35.775 Q406.4555,35.775 407.2992,35.5008 Q407.7844,35.3531 408.3328,34.868 Q408.6914,34.5938 408.8813,34.5094 Q409.0711,34.425 409.3031,34.425 Q409.7461,34.425 410.0625,34.7836 Q410.4,35.1211 410.4,35.6063 Q410.4,36.0703 409.9359,36.6188 Q409.2609,37.4203 408.1852,37.8633 Q406.7719,38.475 405.0422,38.475 Q403.0172,38.475 401.393,37.6734 Q400.0852,37.0406 399.157,35.6695 Q398.25,34.2984 398.25,32.6742 L398.25,31.1977 Q398.25,29.5102 399.0516,28.0336 Q399.8742,26.557 401.2875,25.7766 Q402.7219,24.975 404.325,24.975 Q405.2953,24.975 406.1391,25.3125 Q406.9828,25.65 407.7,26.325 Z " fill="#000000"/><text fill="#000000" font-family="sans-serif" font-size="16.2" lengthAdjust="spacing" textLength="78.3" x="423.9" y="37.6787">Parameter</text><line style="stroke:#A80036;stroke-width:2.0250000000000004;" x1="386.1" x2="504.9" y1="52.65" y2="52.65"/><text fill="#000000" font-family="sans-serif" font-size="14.85" lengthAdjust="spacing" textLength="37.8" x="392.85" y="73.4656">-code</text><text fill="#000000" font-family="sans-serif" font-size="14.85" lengthAdjust="spacing" textLength="75.6" x="392.85" y="92.1441">-shortName</text><text fill="#000000" font-family="sans-serif" font-size="14.85" lengthAdjust="spacing" textLength="76.95" x="392.85" y="110.8226">-description</text><!--MD5=[36afb6bbd95a8ac778c4537c55a683d5]
class ParameterCategory--><rect codeLine="37" fill="#FEFECE" filter="url(#fq3yofnu5temp)" height="110.0355" id="ParameterCategory" style="stroke:#A80036;stroke-width:2.0250000000000004;" width="187.65" x="733.05" y="128.25"/><ellipse cx="753.3" cy="149.85" fill="#ADD1B2" rx="14.85" ry="14.85" style="stroke:#A80036;stroke-width:1.3500000000000003;"/><path d="M756,145.125 Q756.2742,144.45 756.5906,144.1125 Q756.907,143.775 757.2656,143.775 Q757.8984,143.775 758.2992,144.1547 Q758.7,144.5344 758.7,145.4203 L758.7,147.5297 Q758.7,148.4156 758.3203,148.7953 Q757.9406,149.175 757.35,149.175 Q756.8227,149.175 756.4852,148.943 Q756.1477,148.7109 756,148.0992 Q755.9367,147.6773 755.7047,147.4453 Q755.2828,147.0023 754.5234,146.7492 Q753.7641,146.475 753.0047,146.475 Q752.0555,146.475 751.2539,146.8547 Q750.4734,147.2344 749.8617,148.0781 Q749.25,148.9219 749.25,150.082 L749.25,151.3266 Q749.25,152.7188 750.3891,153.6469 Q751.5281,154.575 753.5531,154.575 Q754.7555,154.575 755.5992,154.3008 Q756.0844,154.1531 756.6328,153.668 Q756.9914,153.3938 757.1813,153.3094 Q757.3711,153.225 757.6031,153.225 Q758.0461,153.225 758.3625,153.5836 Q758.7,153.9211 758.7,154.4063 Q758.7,154.8703 758.2359,155.4188 Q757.5609,156.2203 756.4852,156.6633 Q755.0719,157.275 753.3422,157.275 Q751.3172,157.275 749.693,156.4734 Q748.3852,155.8406 747.457,154.4695 Q746.55,153.0984 746.55,151.4742 L746.55,149.9977 Q746.55,148.3102 747.3516,146.8336 Q748.1742,145.357 749.5875,144.5766 Q751.0219,143.775 752.625,143.775 Q753.5953,143.775 754.4391,144.1125 Q755.2828,144.45 756,145.125 Z " fill="#000000"/><text fill="#000000" font-family="sans-serif" font-size="16.2" lengthAdjust="spacing" textLength="144.45" x="772.2" y="156.4787">ParameterCategory</text><line style="stroke:#A80036;stroke-width:2.0250000000000004;" x1="734.4" x2="919.35" y1="171.45" y2="171.45"/><text fill="#000000" font-family="sans-serif" font-size="14.85" lengthAdjust="spacing" textLength="37.8" x="741.15" y="192.2656">-code</text><text fill="#000000" font-family="sans-serif" font-size="14.85" lengthAdjust="spacing" textLength="76.95" x="741.15" y="210.9441">-description</text><text fill="#000000" font-family="sans-serif" font-size="14.85" lengthAdjust="spacing" textLength="40.5" x="741.15" y="229.6226">-nhsid</text><!--MD5=[da547346deef918ea16944ba046651ef]
class Administrator--><rect codeLine="8" fill="#FEFECE" filter="url(#fq3yofnu5temp)" height="54" id="Administrator" style="stroke:#A80036;stroke-width:2.0250000000000004;" width="141.75" x="1104.3" y="171.45"/><ellipse cx="1124.55" cy="193.05" fill="#ADD1B2" rx="14.85" ry="14.85" style="stroke:#A80036;stroke-width:1.3500000000000003;"/><path d="M1127.25,188.325 Q1127.5242,187.65 1127.8406,187.3125 Q1128.157,186.975 1128.5156,186.975 Q1129.1484,186.975 1129.5492,187.3547 Q1129.95,187.7344 1129.95,188.6203 L1129.95,190.7297 Q1129.95,191.6156 1129.5703,191.9953 Q1129.1906,192.375 1128.6,192.375 Q1128.0727,192.375 1127.7352,192.143 Q1127.3977,191.9109 1127.25,191.2992 Q1127.1867,190.8773 1126.9547,190.6453 Q1126.5328,190.2023 1125.7734,189.9492 Q1125.0141,189.675 1124.2547,189.675 Q1123.3055,189.675 1122.5039,190.0547 Q1121.7234,190.4344 1121.1117,191.2781 Q1120.5,192.1219 1120.5,193.282 L1120.5,194.5266 Q1120.5,195.9188 1121.6391,196.8469 Q1122.7781,197.775 1124.8031,197.775 Q1126.0055,197.775 1126.8492,197.5008 Q1127.3344,197.3531 1127.8828,196.868 Q1128.2414,196.5938 1128.4313,196.5094 Q1128.6211,196.425 1128.8531,196.425 Q1129.2961,196.425 1129.6125,196.7836 Q1129.95,197.1211 1129.95,197.6063 Q1129.95,198.0703 1129.4859,198.6188 Q1128.8109,199.4203 1127.7352,199.8633 Q1126.3219,200.475 1124.5922,200.475 Q1122.5672,200.475 1120.943,199.6734 Q1119.6352,199.0406 1118.707,197.6695 Q1117.8,196.2984 1117.8,194.6742 L1117.8,193.1977 Q1117.8,191.5102 1118.6016,190.0336 Q1119.4242,188.557 1120.8375,187.7766 Q1122.2719,186.975 1123.875,186.975 Q1124.8453,186.975 1125.6891,187.3125 Q1126.5328,187.65 1127.25,188.325 Z " fill="#000000"/><text fill="#000000" font-family="sans-serif" font-size="16.2" lengthAdjust="spacing" textLength="98.55" x="1143.45" y="199.6787">Administrator</text><line style="stroke:#A80036;stroke-width:2.0250000000000004;" x1="1105.65" x2="1244.7" y1="214.65" y2="214.65"/><!--MD5=[7421f545a0d8420c5bec41e74b387d9c]
class Employee--><rect codeLine="43" fill="#FEFECE" filter="url(#fq3yofnu5temp)" height="184.7496" id="Employee" style="stroke:#A80036;stroke-width:2.0250000000000004;" width="129.6" x="1328.4" y="191.025"/><ellipse cx="1354.1175" cy="212.625" fill="#ADD1B2" rx="14.85" ry="14.85" style="stroke:#A80036;stroke-width:1.3500000000000003;"/><path d="M1356.8175,207.9 Q1357.0917,207.225 1357.4081,206.8875 Q1357.7245,206.55 1358.0831,206.55 Q1358.7159,206.55 1359.1167,206.9297 Q1359.5175,207.3094 1359.5175,208.1953 L1359.5175,210.3047 Q1359.5175,211.1906 1359.1378,211.5703 Q1358.7581,211.95 1358.1675,211.95 Q1357.6402,211.95 1357.3027,211.718 Q1356.9652,211.4859 1356.8175,210.8742 Q1356.7542,210.4523 1356.5222,210.2203 Q1356.1003,209.7773 1355.3409,209.5242 Q1354.5816,209.25 1353.8222,209.25 Q1352.873,209.25 1352.0714,209.6297 Q1351.2909,210.0094 1350.6792,210.8531 Q1350.0675,211.6969 1350.0675,212.857 L1350.0675,214.1016 Q1350.0675,215.4938 1351.2066,216.4219 Q1352.3456,217.35 1354.3706,217.35 Q1355.573,217.35 1356.4167,217.0758 Q1356.9019,216.9281 1357.4503,216.443 Q1357.8089,216.1688 1357.9988,216.0844 Q1358.1886,216 1358.4206,216 Q1358.8636,216 1359.18,216.3586 Q1359.5175,216.6961 1359.5175,217.1813 Q1359.5175,217.6453 1359.0534,218.1938 Q1358.3784,218.9953 1357.3027,219.4383 Q1355.8894,220.05 1354.1597,220.05 Q1352.1347,220.05 1350.5105,219.2484 Q1349.2027,218.6156 1348.2745,217.2445 Q1347.3675,215.8734 1347.3675,214.2492 L1347.3675,212.7727 Q1347.3675,211.0852 1348.1691,209.6086 Q1348.9917,208.132 1350.405,207.3516 Q1351.8394,206.55 1353.4425,206.55 Q1354.4128,206.55 1355.2566,206.8875 Q1356.1003,207.225 1356.8175,207.9 Z " fill="#000000"/><text fill="#000000" font-family="sans-serif" font-size="16.2" lengthAdjust="spacing" textLength="74.25" x="1374.2325" y="219.2537">Employee</text><line style="stroke:#A80036;stroke-width:2.0250000000000004;" x1="1329.75" x2="1456.65" y1="234.225" y2="234.225"/><text fill="#000000" font-family="sans-serif" font-size="14.85" lengthAdjust="spacing" textLength="40.5" x="1336.5" y="255.0406">-name</text><text fill="#000000" font-family="sans-serif" font-size="14.85" lengthAdjust="spacing" textLength="59.4" x="1336.5" y="273.7191">-address</text><text fill="#000000" font-family="sans-serif" font-size="14.85" lengthAdjust="spacing" textLength="95.85" x="1336.5" y="292.3976">-phoneNumber</text><text fill="#000000" font-family="sans-serif" font-size="14.85" lengthAdjust="spacing" textLength="37.8" x="1336.5" y="311.0761">-email</text><text fill="#000000" font-family="sans-serif" font-size="14.85" lengthAdjust="spacing" textLength="78.3" x="1336.5" y="329.7546">-employeeId</text><text fill="#000000" font-family="sans-serif" font-size="14.85" lengthAdjust="spacing" textLength="113.4" x="1336.5" y="348.4332">-organizationRole</text><text fill="#000000" font-family="sans-serif" font-size="14.85" lengthAdjust="spacing" textLength="63.45" x="1336.5" y="367.1117">-socCode</text><!--MD5=[12d76240d3c3c66074d4ec2ea8bf469c]
link Company to Parameter--><path codeLine="11" d="M124.2135,170.991 C137.457,166.185 151.551,161.1495 164.7,156.6 C240.2325,130.464 327.8475,101.979 384.5475,83.781 " fill="none" id="Company-Parameter" style="stroke:#A80036;stroke-width:1.3500000000000003;"/><polygon fill="#000000" points="177.8504,83.1432,165.0117,83.2598,167.5322,90.784,177.8504,83.1432" style="stroke:#000000;stroke-width:1.3500000000000003;"/><text fill="#000000" font-family="sans-serif" font-size="17.55" lengthAdjust="spacing" textLength="159.3" x="183.6" y="92.4684">capable of analyzing</text><text fill="#000000" font-family="sans-serif" font-size="17.55" lengthAdjust="spacing" textLength="9.45" x="134.8893" y="162.2137">1</text><text fill="#000000" font-family="sans-serif" font-size="17.55" lengthAdjust="spacing" textLength="6.75" x="367.1433" y="107.0262">*</text><!--MD5=[93b4f25fb503a8e0e9a46b1d30ff3f44]
link Company to ParameterCategory--><path codeLine="12" d="M124.4835,191.0925 C253.8945,189.7155 573.5745,186.3 732.6045,184.599 " fill="none" id="Company-ParameterCategory" style="stroke:#A80036;stroke-width:1.3500000000000003;"/><polygon fill="#000000" points="422.5496,175.6652,410.2971,171.8283,410.3818,179.7629,422.5496,175.6652" style="stroke:#000000;stroke-width:1.3500000000000003;"/><text fill="#000000" font-family="sans-serif" font-size="17.55" lengthAdjust="spacing" textLength="52.65" x="427.95" y="182.9184">adopts</text><text fill="#000000" font-family="sans-serif" font-size="17.55" lengthAdjust="spacing" textLength="9.45" x="134.8158" y="211.0183">1</text><text fill="#000000" font-family="sans-serif" font-size="17.55" lengthAdjust="spacing" textLength="6.75" x="715.7848" y="204.0929">*</text><!--MD5=[09366576ee87d48d594df10cacc83f45]
link Company to Employee--><path codeLine="13" d="M124.389,221.373 C196.4115,256.554 326.0655,310.5 444.15,310.5 C444.15,310.5 444.15,310.5 1176.525,310.5 C1227.7575,310.5 1285.335,302.886 1328.049,295.731 " fill="none" id="Company-Employee" style="stroke:#A80036;stroke-width:1.3500000000000003;"/><polygon fill="#000000" points="805.2622,299.0035,793.3192,294.2906,792.8299,302.2106,805.2622,299.0035" style="stroke:#000000;stroke-width:1.3500000000000003;"/><text fill="#000000" font-family="sans-serif" font-size="17.55" lengthAdjust="spacing" textLength="49.95" x="810.675" y="305.7684">knows</text><text fill="#000000" font-family="sans-serif" font-size="17.55" lengthAdjust="spacing" textLength="9.45" x="135.0949" y="246.5676">1</text><text fill="#000000" font-family="sans-serif" font-size="17.55" lengthAdjust="spacing" textLength="6.75" x="1310.806" y="317.5277">*</text><!--MD5=[6df8849671cb880f6936e94aa30db6f9]
link Parameter to ParameterCategory--><path codeLine="15" d="M506.439,83.4975 C567.1485,102.546 662.1615,132.354 732.7395,154.494 " fill="none" id="Parameter-ParameterCategory" style="stroke:#A80036;stroke-width:1.3500000000000003;"/><polygon fill="#000000" points="559.9405,87.3079,549.4772,79.867,547.1019,87.4383,559.9405,87.3079" style="stroke:#000000;stroke-width:1.3500000000000003;"/><text fill="#000000" font-family="sans-serif" font-size="17.55" lengthAdjust="spacing" textLength="125.55" x="565.65" y="92.4684">presented under</text><text fill="#000000" font-family="sans-serif" font-size="17.55" lengthAdjust="spacing" textLength="6.75" x="517.091" y="106.6958">*</text><text fill="#000000" font-family="sans-serif" font-size="17.55" lengthAdjust="spacing" textLength="9.45" x="713.0945" y="170.8833">1</text><!--MD5=[8fed49cf12a674e36a1de475622ee091]
link ParameterCategory to Administrator--><path codeLine="17" d="M920.835,187.5825 C978.426,190.053 1051.272,193.185 1103.9895,195.453 " fill="none" id="ParameterCategory-Administrator" style="stroke:#A80036;stroke-width:1.3500000000000003;"/><polygon fill="#000000" points="974.6938,178.7271,962.6645,174.239,962.3238,182.1667,974.6938,178.7271" style="stroke:#000000;stroke-width:1.3500000000000003;"/><text fill="#000000" font-family="sans-serif" font-size="17.55" lengthAdjust="spacing" textLength="82.35" x="980.1" y="185.6184">created by</text><text fill="#000000" font-family="sans-serif" font-size="17.55" lengthAdjust="spacing" textLength="6.75" x="931.481" y="207.48">*</text><text fill="#000000" font-family="sans-serif" font-size="17.55" lengthAdjust="spacing" textLength="9.45" x="1083.8646" y="214.8021">1</text><!--MD5=[8f7dd94d56b58fc07b233ccd3dd98f8c]
link Administrator to Employee--><path codeLine="20" d="M1245.2535,225.5985 C1263.519,232.8075 1283.526,240.7185 1302.723,248.292 " fill="none" id="Administrator-to-Employee" style="stroke:#A80036;stroke-width:1.3500000000000003;"/><polygon fill="none" points="1306.53,239.6385,1328.1705,258.3495,1299.5775,257.2155,1306.53,239.6385" style="stroke:#A80036;stroke-width:1.3500000000000003;"/><!--MD5=[fd0f1940f7315432ecbf87932c81d6e3]
@startuml
hide methods
left to right direction
skinparam classAttributeIconSize 0

class Company
class Parameter
class ParameterCategory
class Administrator
class Employee

Company "1"- -"*" Parameter : capable of analyzing >
Company "1"- -"*" ParameterCategory : adopts >
Company "1"- -"*" Employee : knows >

Parameter "*"- -"1" ParameterCategory : presented under >

ParameterCategory "*"- -"1" Administrator : created by >


Administrator - -|> Employee


class Company{
-name
-designation
-category
-address
-headquarters
}

class Parameter{
-code
-shortName
-description
}

class ParameterCategory{
-code
-description
-nhsid
}

class Employee {
-name
-address
-phoneNumber
-email
-employeeId
-organizationRole
-socCode
}



@enduml

PlantUML version 1.2021.4(Sun Apr 04 09:49:39 BST 2021)
(GPL source distribution)
Java Runtime: OpenJDK Runtime Environment
JVM: OpenJDK 64-Bit Server VM
Default Encoding: Cp1252
Language: pt
Country: PT
--></g></svg>