<?xml version="1.0" encoding="UTF-8" standalone="no"?><svg xmlns="http://www.w3.org/2000/svg" xmlns:xlink="http://www.w3.org/1999/xlink" contentScriptType="application/ecmascript" contentStyleType="text/css" height="831px" preserveAspectRatio="none" style="width:681px;height:831px;" version="1.1" viewBox="0 0 681 831" width="681px" zoomAndPan="magnify"><defs><filter height="300%" id="fun6ofurwf58k" width="300%" x="-1" y="-1"><feGaussianBlur result="blurOut" stdDeviation="3.0"/><feColorMatrix in="blurOut" result="blurOut2" type="matrix" values="0 0 0 0 0 0 0 0 0 0 0 0 0 0 0 0 0 0 .4 0"/><feOffset dx="6.0" dy="6.0" in="blurOut2" result="blurOut3"/><feBlend in="SourceGraphic" in2="blurOut3" mode="normal"/></filter></defs><g><!--MD5=[02e4b9b7573f1156f41e60aa5b4e25a4]
class Company--><rect codeLine="7" fill="#FEFECE" filter="url(#fun6ofurwf58k)" height="113.5078" id="Company" style="stroke:#A80036;stroke-width:2.25;" width="252" x="10.5" y="174"/><ellipse cx="90.375" cy="198" fill="#ADD1B2" rx="16.5" ry="16.5" style="stroke:#A80036;stroke-width:1.5;"/><path d="M93.375,192.75 Q93.6797,192 94.0313,191.625 Q94.3828,191.25 94.7813,191.25 Q95.4844,191.25 95.9297,191.6719 Q96.375,192.0938 96.375,193.0781 L96.375,195.4219 Q96.375,196.4063 95.9531,196.8281 Q95.5313,197.25 94.875,197.25 Q94.2891,197.25 93.9141,196.9922 Q93.5391,196.7344 93.375,196.0547 Q93.3047,195.5859 93.0469,195.3281 Q92.5781,194.8359 91.7344,194.5547 Q90.8906,194.25 90.0469,194.25 Q88.9922,194.25 88.1016,194.6719 Q87.2344,195.0938 86.5547,196.0313 Q85.875,196.9688 85.875,198.2578 L85.875,199.6406 Q85.875,201.1875 87.1406,202.2188 Q88.4063,203.25 90.6563,203.25 Q91.9922,203.25 92.9297,202.9453 Q93.4688,202.7813 94.0781,202.2422 Q94.4766,201.9375 94.6875,201.8438 Q94.8984,201.75 95.1563,201.75 Q95.6484,201.75 96,202.1484 Q96.375,202.5234 96.375,203.0625 Q96.375,203.5781 95.8594,204.1875 Q95.1094,205.0781 93.9141,205.5703 Q92.3438,206.25 90.4219,206.25 Q88.1719,206.25 86.3672,205.3594 Q84.9141,204.6563 83.8828,203.1328 Q82.875,201.6094 82.875,199.8047 L82.875,198.1641 Q82.875,196.2891 83.7656,194.6484 Q84.6797,193.0078 86.25,192.1406 Q87.8438,191.25 89.625,191.25 Q90.7031,191.25 91.6406,191.625 Q92.5781,192 93.375,192.75 Z " fill="#000000"/><text fill="#000000" font-family="sans-serif" font-size="18" lengthAdjust="spacing" textLength="79.5" x="121.125" y="205.3652">Company</text><line style="stroke:#A80036;stroke-width:2.25;" x1="12" x2="261" y1="222" y2="222"/><rect fill="none" height="9" style="stroke:#C82930;stroke-width:1.5;" width="9" x="22.5" y="234"/><text fill="#000000" font-family="sans-serif" font-size="16.5" lengthAdjust="spacing" textLength="82.5" x="40.5" y="245.1284">designation</text><line style="stroke:#A80036;stroke-width:2.25;" x1="12" x2="261" y1="254.7539" y2="254.7539"/><ellipse cx="27" cy="271.2539" fill="#84BE84" rx="4.5" ry="4.5" style="stroke:#038048;stroke-width:1.5;"/><text fill="#000000" font-family="sans-serif" font-size="16.5" lengthAdjust="spacing" textLength="213" x="40.5" y="277.8823">getParameterCategoryStore()</text><!--MD5=[d802db621b5b215a6f0466f93cefcb42]
class ParameterCategoryStore--><rect codeLine="18" fill="#FEFECE" filter="url(#fun6ofurwf58k)" height="155.0156" id="ParameterCategoryStore" style="stroke:#A80036;stroke-width:2.25;" width="321" x="87" y="405"/><ellipse cx="140.55" cy="429" fill="#ADD1B2" rx="16.5" ry="16.5" style="stroke:#A80036;stroke-width:1.5;"/><path d="M143.55,423.75 Q143.8547,423 144.2063,422.625 Q144.5578,422.25 144.9563,422.25 Q145.6594,422.25 146.1047,422.6719 Q146.55,423.0938 146.55,424.0781 L146.55,426.4219 Q146.55,427.4063 146.1281,427.8281 Q145.7063,428.25 145.05,428.25 Q144.4641,428.25 144.0891,427.9922 Q143.7141,427.7344 143.55,427.0547 Q143.4797,426.5859 143.2219,426.3281 Q142.7531,425.8359 141.9094,425.5547 Q141.0656,425.25 140.2219,425.25 Q139.1672,425.25 138.2766,425.6719 Q137.4094,426.0938 136.7297,427.0313 Q136.05,427.9688 136.05,429.2578 L136.05,430.6406 Q136.05,432.1875 137.3156,433.2188 Q138.5813,434.25 140.8313,434.25 Q142.1672,434.25 143.1047,433.9453 Q143.6438,433.7813 144.2531,433.2422 Q144.6516,432.9375 144.8625,432.8438 Q145.0734,432.75 145.3313,432.75 Q145.8234,432.75 146.175,433.1484 Q146.55,433.5234 146.55,434.0625 Q146.55,434.5781 146.0344,435.1875 Q145.2844,436.0781 144.0891,436.5703 Q142.5188,437.25 140.5969,437.25 Q138.3469,437.25 136.5422,436.3594 Q135.0891,435.6563 134.0578,434.1328 Q133.05,432.6094 133.05,430.8047 L133.05,429.1641 Q133.05,427.2891 133.9406,425.6484 Q134.8547,424.0078 136.425,423.1406 Q138.0188,422.25 139.8,422.25 Q140.8781,422.25 141.8156,422.625 Q142.7531,423 143.55,423.75 Z " fill="#000000"/><text fill="#000000" font-family="sans-serif" font-size="18" lengthAdjust="spacing" textLength="204" x="168.45" y="436.3652">ParameterCategoryStore</text><line style="stroke:#A80036;stroke-width:2.25;" x1="88.5" x2="406.5" y1="453" y2="453"/><line style="stroke:#A80036;stroke-width:2.25;" x1="88.5" x2="406.5" y1="465" y2="465"/><ellipse cx="103.5" cy="481.5" fill="#84BE84" rx="4.5" ry="4.5" style="stroke:#038048;stroke-width:1.5;"/><text fill="#000000" font-family="sans-serif" font-size="16.5" lengthAdjust="spacing" textLength="282" x="117" y="488.1284">createParameterCategory(code, name)</text><ellipse cx="103.5" cy="502.2539" fill="#84BE84" rx="4.5" ry="4.5" style="stroke:#038048;stroke-width:1.5;"/><text fill="#000000" font-family="sans-serif" font-size="16.5" lengthAdjust="spacing" textLength="216" x="117" y="508.8823">validateParameterCategory(c)</text><ellipse cx="103.5" cy="523.0078" fill="#84BE84" rx="4.5" ry="4.5" style="stroke:#038048;stroke-width:1.5;"/><text fill="#000000" font-family="sans-serif" font-size="16.5" lengthAdjust="spacing" textLength="187.5" x="117" y="529.6362">addParameterCategory(c)</text><rect fill="#F24D5C" height="9" style="stroke:#C82930;stroke-width:1.5;" width="9" x="99" y="539.2617"/><text fill="#000000" font-family="sans-serif" font-size="16.5" lengthAdjust="spacing" textLength="196.5" x="117" y="550.3901">saveParameterCategory(c)</text><!--MD5=[36afb6bbd95a8ac778c4537c55a683d5]
class ParameterCategory--><rect codeLine="26" fill="#FEFECE" filter="url(#fun6ofurwf58k)" height="134.2617" id="ParameterCategory" style="stroke:#A80036;stroke-width:2.25;" width="274.5" x="230.25" y="676.5"/><ellipse cx="282.45" cy="700.5" fill="#ADD1B2" rx="16.5" ry="16.5" style="stroke:#A80036;stroke-width:1.5;"/><path d="M285.45,695.25 Q285.7547,694.5 286.1063,694.125 Q286.4578,693.75 286.8563,693.75 Q287.5594,693.75 288.0047,694.1719 Q288.45,694.5938 288.45,695.5781 L288.45,697.9219 Q288.45,698.9063 288.0281,699.3281 Q287.6063,699.75 286.95,699.75 Q286.3641,699.75 285.9891,699.4922 Q285.6141,699.2344 285.45,698.5547 Q285.3797,698.0859 285.1219,697.8281 Q284.6531,697.3359 283.8094,697.0547 Q282.9656,696.75 282.1219,696.75 Q281.0672,696.75 280.1766,697.1719 Q279.3094,697.5938 278.6297,698.5313 Q277.95,699.4688 277.95,700.7578 L277.95,702.1406 Q277.95,703.6875 279.2156,704.7188 Q280.4813,705.75 282.7313,705.75 Q284.0672,705.75 285.0047,705.4453 Q285.5438,705.2813 286.1531,704.7422 Q286.5516,704.4375 286.7625,704.3438 Q286.9734,704.25 287.2313,704.25 Q287.7234,704.25 288.075,704.6484 Q288.45,705.0234 288.45,705.5625 Q288.45,706.0781 287.9344,706.6875 Q287.1844,707.5781 285.9891,708.0703 Q284.4188,708.75 282.4969,708.75 Q280.2469,708.75 278.4422,707.8594 Q276.9891,707.1563 275.9578,705.6328 Q274.95,704.1094 274.95,702.3047 L274.95,700.6641 Q274.95,698.7891 275.8406,697.1484 Q276.7547,695.5078 278.325,694.6406 Q279.9188,693.75 281.7,693.75 Q282.7781,693.75 283.7156,694.125 Q284.6531,694.5 285.45,695.25 Z " fill="#000000"/><text fill="#000000" font-family="sans-serif" font-size="18" lengthAdjust="spacing" textLength="160.5" x="310.05" y="707.8652">ParameterCategory</text><line style="stroke:#A80036;stroke-width:2.25;" x1="231.75" x2="503.25" y1="724.5" y2="724.5"/><rect fill="none" height="9" style="stroke:#C82930;stroke-width:1.5;" width="9" x="242.25" y="736.5"/><text fill="#000000" font-family="sans-serif" font-size="16.5" lengthAdjust="spacing" textLength="36" x="260.25" y="747.6284">code</text><rect fill="none" height="9" style="stroke:#C82930;stroke-width:1.5;" width="9" x="242.25" y="757.2539"/><text fill="#000000" font-family="sans-serif" font-size="16.5" lengthAdjust="spacing" textLength="39" x="260.25" y="768.3823">name</text><line style="stroke:#A80036;stroke-width:2.25;" x1="231.75" x2="503.25" y1="778.0078" y2="778.0078"/><ellipse cx="246.75" cy="794.5078" fill="#84BE84" rx="4.5" ry="4.5" style="stroke:#038048;stroke-width:1.5;"/><text fill="#000000" font-family="sans-serif" font-size="16.5" lengthAdjust="spacing" textLength="235.5" x="260.25" y="801.1362">ParameterCategory(code, name)</text><!--MD5=[43bb81d93caae6cc68206df5797cd1c4]
class CreateParameterCategoryController--><rect codeLine="12" fill="#FEFECE" filter="url(#fun6ofurwf58k)" height="113.5078" id="CreateParameterCategoryController" style="stroke:#A80036;stroke-width:2.25;" width="345" x="315" y="174"/><ellipse cx="337.5" cy="198" fill="#ADD1B2" rx="16.5" ry="16.5" style="stroke:#A80036;stroke-width:1.5;"/><path d="M340.5,192.75 Q340.8047,192 341.1563,191.625 Q341.5078,191.25 341.9063,191.25 Q342.6094,191.25 343.0547,191.6719 Q343.5,192.0938 343.5,193.0781 L343.5,195.4219 Q343.5,196.4063 343.0781,196.8281 Q342.6563,197.25 342,197.25 Q341.4141,197.25 341.0391,196.9922 Q340.6641,196.7344 340.5,196.0547 Q340.4297,195.5859 340.1719,195.3281 Q339.7031,194.8359 338.8594,194.5547 Q338.0156,194.25 337.1719,194.25 Q336.1172,194.25 335.2266,194.6719 Q334.3594,195.0938 333.6797,196.0313 Q333,196.9688 333,198.2578 L333,199.6406 Q333,201.1875 334.2656,202.2188 Q335.5313,203.25 337.7813,203.25 Q339.1172,203.25 340.0547,202.9453 Q340.5938,202.7813 341.2031,202.2422 Q341.6016,201.9375 341.8125,201.8438 Q342.0234,201.75 342.2813,201.75 Q342.7734,201.75 343.125,202.1484 Q343.5,202.5234 343.5,203.0625 Q343.5,203.5781 342.9844,204.1875 Q342.2344,205.0781 341.0391,205.5703 Q339.4688,206.25 337.5469,206.25 Q335.2969,206.25 333.4922,205.3594 Q332.0391,204.6563 331.0078,203.1328 Q330,201.6094 330,199.8047 L330,198.1641 Q330,196.2891 330.8906,194.6484 Q331.8047,193.0078 333.375,192.1406 Q334.9688,191.25 336.75,191.25 Q337.8281,191.25 338.7656,191.625 Q339.7031,192 340.5,192.75 Z " fill="#000000"/><text fill="#000000" font-family="sans-serif" font-size="18" lengthAdjust="spacing" textLength="297" x="358.5" y="205.3652">CreateParameterCategoryController</text><line style="stroke:#A80036;stroke-width:2.25;" x1="316.5" x2="658.5" y1="222" y2="222"/><line style="stroke:#A80036;stroke-width:2.25;" x1="316.5" x2="658.5" y1="234" y2="234"/><ellipse cx="331.5" cy="250.5" fill="#84BE84" rx="4.5" ry="4.5" style="stroke:#038048;stroke-width:1.5;"/><text fill="#000000" font-family="sans-serif" font-size="16.5" lengthAdjust="spacing" textLength="282" x="345" y="257.1284">createParameterCategory(code, name)</text><ellipse cx="331.5" cy="271.2539" fill="#84BE84" rx="4.5" ry="4.5" style="stroke:#038048;stroke-width:1.5;"/><text fill="#000000" font-family="sans-serif" font-size="16.5" lengthAdjust="spacing" textLength="187.5" x="345" y="277.8823">saveParameterCategory()</text><!--MD5=[6017f56a87b244e108fd0d8749edd53c]
class CreateParameterCategoryUI--><rect codeLine="5" fill="#FEFECE" filter="url(#fun6ofurwf58k)" height="72" id="CreateParameterCategoryUI" style="stroke:#A80036;stroke-width:2.25;" width="282" x="346.5" y="10.5"/><ellipse cx="369" cy="34.5" fill="#ADD1B2" rx="16.5" ry="16.5" style="stroke:#A80036;stroke-width:1.5;"/><path d="M372,29.25 Q372.3047,28.5 372.6563,28.125 Q373.0078,27.75 373.4063,27.75 Q374.1094,27.75 374.5547,28.1719 Q375,28.5938 375,29.5781 L375,31.9219 Q375,32.9063 374.5781,33.3281 Q374.1563,33.75 373.5,33.75 Q372.9141,33.75 372.5391,33.4922 Q372.1641,33.2344 372,32.5547 Q371.9297,32.0859 371.6719,31.8281 Q371.2031,31.3359 370.3594,31.0547 Q369.5156,30.75 368.6719,30.75 Q367.6172,30.75 366.7266,31.1719 Q365.8594,31.5938 365.1797,32.5313 Q364.5,33.4688 364.5,34.7578 L364.5,36.1406 Q364.5,37.6875 365.7656,38.7188 Q367.0313,39.75 369.2813,39.75 Q370.6172,39.75 371.5547,39.4453 Q372.0938,39.2813 372.7031,38.7422 Q373.1016,38.4375 373.3125,38.3438 Q373.5234,38.25 373.7813,38.25 Q374.2734,38.25 374.625,38.6484 Q375,39.0234 375,39.5625 Q375,40.0781 374.4844,40.6875 Q373.7344,41.5781 372.5391,42.0703 Q370.9688,42.75 369.0469,42.75 Q366.7969,42.75 364.9922,41.8594 Q363.5391,41.1563 362.5078,39.6328 Q361.5,38.1094 361.5,36.3047 L361.5,34.6641 Q361.5,32.7891 362.3906,31.1484 Q363.3047,29.5078 364.875,28.6406 Q366.4688,27.75 368.25,27.75 Q369.3281,27.75 370.2656,28.125 Q371.2031,28.5 372,29.25 Z " fill="#000000"/><text fill="#000000" font-family="sans-serif" font-size="18" lengthAdjust="spacing" textLength="234" x="390" y="41.8652">CreateParameterCategoryUI</text><line style="stroke:#A80036;stroke-width:2.25;" x1="348" x2="627" y1="58.5" y2="58.5"/><line style="stroke:#A80036;stroke-width:2.25;" x1="348" x2="627" y1="70.5" y2="70.5"/><!--MD5=[d53d7490e5836ca5709858d7326f212b]
link Company to ParameterCategoryStore--><path codeLine="32" d="M161.415,288.21 C175.845,320.505 194.31,361.8 210.435,397.845 " fill="none" id="Company-to-ParameterCategoryStore" style="stroke:#A80036;stroke-width:1.5;"/><polygon fill="#A80036" points="213.63,404.985,213.5828,390.2118,210.5621,398.1412,202.6327,395.1205,213.63,404.985" style="stroke:#A80036;stroke-width:1.5;"/><text fill="#000000" font-family="sans-serif" font-size="19.5" lengthAdjust="spacing" textLength="42" x="193.5" y="354.7427">uses</text><text fill="#000000" font-family="sans-serif" font-size="19.5" lengthAdjust="spacing" textLength="10.5" x="154.0491" y="319.5643">1</text><text fill="#000000" font-family="sans-serif" font-size="19.5" lengthAdjust="spacing" textLength="10.5" x="197.6288" y="388.6756">1</text><!--MD5=[93b1b9218398b0464d36d46d0f539949]
link CreateParameterCategoryUI to CreateParameterCategoryController--><path codeLine="33" d="M487.5,82.56 C487.5,106.065 487.5,137.865 487.5,165.87 " fill="none" id="CreateParameterCategoryUI-to-CreateParameterCategoryController" style="stroke:#A80036;stroke-width:1.5;stroke-dasharray:7.0,7.0;"/><polygon fill="#A80036" points="487.5,173.655,493.5,160.155,487.5,166.155,481.5,160.155,487.5,173.655" style="stroke:#A80036;stroke-width:1.5;"/><!--MD5=[869a0022b647c5cba08cf9438b652be2]
link CreateParameterCategoryController to ParameterCategory--><path codeLine="34" d="M481.905,288.15 C474.54,353.76 459.555,465.78 435,559.5 C425.385,596.19 411.255,635.82 398.415,668.775 " fill="none" id="CreateParameterCategoryController-to-ParameterCategory" style="stroke:#A80036;stroke-width:1.5;stroke-dasharray:7.0,7.0;"/><polygon fill="#A80036" points="395.52,676.14,406.0388,665.7668,398.2611,669.1588,394.869,661.3811,395.52,676.14" style="stroke:#A80036;stroke-width:1.5;"/><!--MD5=[d6274e3b73b5bc8f467c6cfbf5bf003e]
link ParameterCategoryStore to ParameterCategory--><path codeLine="35" d="M282.855,559.98 C298.86,594.495 317.7,635.115 333.54,669.27 " fill="none" id="ParameterCategoryStore-to-ParameterCategory" style="stroke:#A80036;stroke-width:1.5;"/><polygon fill="#A80036" points="336.87,676.455,336.6339,661.6836,333.7148,669.651,325.7474,666.7319,336.87,676.455" style="stroke:#A80036;stroke-width:1.5;"/><text fill="#000000" font-family="sans-serif" font-size="19.5" lengthAdjust="spacing" textLength="58.5" x="315" y="626.2427">adopts</text><text fill="#000000" font-family="sans-serif" font-size="19.5" lengthAdjust="spacing" textLength="10.5" x="276.4004" y="592.2809">1</text><text fill="#000000" font-family="sans-serif" font-size="19.5" lengthAdjust="spacing" textLength="7.5" x="323.8907" y="660.121">*</text><!--MD5=[be6e87e2c6f1800ec3da53612c46e11a]
link CreateParameterCategoryController to ParameterCategoryStore--><path codeLine="36" d="M433.635,288.21 C402.03,320.91 361.5,362.835 326.34,399.195 " fill="none" id="CreateParameterCategoryController-to-ParameterCategoryStore" style="stroke:#A80036;stroke-width:1.5;stroke-dasharray:7.0,7.0;"/><polygon fill="#A80036" points="320.745,404.985,334.4459,399.4591,325.9617,399.5965,325.8243,391.1124,320.745,404.985" style="stroke:#A80036;stroke-width:1.5;"/><!--MD5=[bbeb4bd682231f13e4083225a8a28f90]
@startuml
class Company
class ParameterCategoryStore
class ParameterCategory
class CreateParameterCategoryController
class CreateParameterCategoryUI

class Company{
-designation
+getParameterCategoryStore()
}

class CreateParameterCategoryController{
+createParameterCategory(code, name)
+saveParameterCategory()

}

class ParameterCategoryStore{
+createParameterCategory(code, name)
+validateParameterCategory(c)
+addParameterCategory(c)
-saveParameterCategory(c)
}


class ParameterCategory {
-code
-name
+ParameterCategory(code, name)
}

Company "1"- ->"1" ParameterCategoryStore : uses
CreateParameterCategoryUI ..> CreateParameterCategoryController
CreateParameterCategoryController ..> ParameterCategory
ParameterCategoryStore "1"- ->"*" ParameterCategory : adopts
CreateParameterCategoryController ..> ParameterCategoryStore





@enduml

PlantUML version 1.2021.4(Sun Apr 04 09:49:39 BST 2021)
(GPL source distribution)
Java Runtime: OpenJDK Runtime Environment
JVM: Dynamic Code Evolution 64-Bit Server VM
Default Encoding: Cp1252
Language: pt
Country: PT
--></g></svg>