<?xml version="1.0" encoding="UTF-8" standalone="no"?><svg xmlns="http://www.w3.org/2000/svg" xmlns:xlink="http://www.w3.org/1999/xlink" contentScriptType="application/ecmascript" contentStyleType="text/css" height="652.5px" preserveAspectRatio="none" style="width:606px;height:652px;" version="1.1" viewBox="0 0 606 652" width="606px" zoomAndPan="magnify"><defs><filter height="300%" id="fqmflcvr4gcfn" width="300%" x="-1" y="-1"><feGaussianBlur result="blurOut" stdDeviation="3.0"/><feColorMatrix in="blurOut" result="blurOut2" type="matrix" values="0 0 0 0 0 0 0 0 0 0 0 0 0 0 0 0 0 0 .4 0"/><feOffset dx="6.0" dy="6.0" in="blurOut2" result="blurOut3"/><feBlend in="SourceGraphic" in2="blurOut3" mode="normal"/></filter></defs><g><!--MD5=[02e4b9b7573f1156f41e60aa5b4e25a4]
class Company--><rect codeLine="6" fill="#FEFECE" filter="url(#fqmflcvr4gcfn)" height="80.7539" id="Company" style="stroke:#A80036;stroke-width:2.25;" width="127.5" x="230.25" y="10.5"/><ellipse cx="252.75" cy="34.5" fill="#ADD1B2" rx="16.5" ry="16.5" style="stroke:#A80036;stroke-width:1.5;"/><path d="M255.75,29.25 Q256.0547,28.5 256.4063,28.125 Q256.7578,27.75 257.1563,27.75 Q257.8594,27.75 258.3047,28.1719 Q258.75,28.5938 258.75,29.5781 L258.75,31.9219 Q258.75,32.9063 258.3281,33.3281 Q257.9063,33.75 257.25,33.75 Q256.6641,33.75 256.2891,33.4922 Q255.9141,33.2344 255.75,32.5547 Q255.6797,32.0859 255.4219,31.8281 Q254.9531,31.3359 254.1094,31.0547 Q253.2656,30.75 252.4219,30.75 Q251.3672,30.75 250.4766,31.1719 Q249.6094,31.5938 248.9297,32.5313 Q248.25,33.4688 248.25,34.7578 L248.25,36.1406 Q248.25,37.6875 249.5156,38.7188 Q250.7813,39.75 253.0313,39.75 Q254.3672,39.75 255.3047,39.4453 Q255.8438,39.2813 256.4531,38.7422 Q256.8516,38.4375 257.0625,38.3438 Q257.2734,38.25 257.5313,38.25 Q258.0234,38.25 258.375,38.6484 Q258.75,39.0234 258.75,39.5625 Q258.75,40.0781 258.2344,40.6875 Q257.4844,41.5781 256.2891,42.0703 Q254.7188,42.75 252.7969,42.75 Q250.5469,42.75 248.7422,41.8594 Q247.2891,41.1563 246.2578,39.6328 Q245.25,38.1094 245.25,36.3047 L245.25,34.6641 Q245.25,32.7891 246.1406,31.1484 Q247.0547,29.5078 248.625,28.6406 Q250.2188,27.75 252,27.75 Q253.0781,27.75 254.0156,28.125 Q254.9531,28.5 255.75,29.25 Z " fill="#000000"/><text fill="#000000" font-family="sans-serif" font-size="18" lengthAdjust="spacing" textLength="79.5" x="273.75" y="41.8652">Company</text><line style="stroke:#A80036;stroke-width:2.25;" x1="231.75" x2="356.25" y1="58.5" y2="58.5"/><text fill="#000000" font-family="sans-serif" font-size="16.5" lengthAdjust="spacing" textLength="45" x="239.25" y="81.6284">-name</text><!--MD5=[1f6362a5c8f21d8d6a0fce68f3a92a4e]
class Parameter--><rect codeLine="10" fill="#FEFECE" filter="url(#fqmflcvr4gcfn)" height="122.2617" id="Parameter" style="stroke:#A80036;stroke-width:2.25;" width="135" x="10.5" y="249.75"/><ellipse cx="33" cy="273.75" fill="#ADD1B2" rx="16.5" ry="16.5" style="stroke:#A80036;stroke-width:1.5;"/><path d="M36,268.5 Q36.3047,267.75 36.6563,267.375 Q37.0078,267 37.4063,267 Q38.1094,267 38.5547,267.4219 Q39,267.8438 39,268.8281 L39,271.1719 Q39,272.1563 38.5781,272.5781 Q38.1563,273 37.5,273 Q36.9141,273 36.5391,272.7422 Q36.1641,272.4844 36,271.8047 Q35.9297,271.3359 35.6719,271.0781 Q35.2031,270.5859 34.3594,270.3047 Q33.5156,270 32.6719,270 Q31.6172,270 30.7266,270.4219 Q29.8594,270.8438 29.1797,271.7813 Q28.5,272.7188 28.5,274.0078 L28.5,275.3906 Q28.5,276.9375 29.7656,277.9688 Q31.0313,279 33.2813,279 Q34.6172,279 35.5547,278.6953 Q36.0938,278.5313 36.7031,277.9922 Q37.1016,277.6875 37.3125,277.5938 Q37.5234,277.5 37.7813,277.5 Q38.2734,277.5 38.625,277.8984 Q39,278.2734 39,278.8125 Q39,279.3281 38.4844,279.9375 Q37.7344,280.8281 36.5391,281.3203 Q34.9688,282 33.0469,282 Q30.7969,282 28.9922,281.1094 Q27.5391,280.4063 26.5078,278.8828 Q25.5,277.3594 25.5,275.5547 L25.5,273.9141 Q25.5,272.0391 26.3906,270.3984 Q27.3047,268.7578 28.875,267.8906 Q30.4688,267 32.25,267 Q33.3281,267 34.2656,267.375 Q35.2031,267.75 36,268.5 Z " fill="#000000"/><text fill="#000000" font-family="sans-serif" font-size="18" lengthAdjust="spacing" textLength="87" x="54" y="281.1152">Parameter</text><line style="stroke:#A80036;stroke-width:2.25;" x1="12" x2="144" y1="297.75" y2="297.75"/><text fill="#000000" font-family="sans-serif" font-size="16.5" lengthAdjust="spacing" textLength="42" x="19.5" y="320.8784">-code</text><text fill="#000000" font-family="sans-serif" font-size="16.5" lengthAdjust="spacing" textLength="84" x="19.5" y="341.6323">-shortName</text><text fill="#000000" font-family="sans-serif" font-size="16.5" lengthAdjust="spacing" textLength="85.5" x="19.5" y="362.3862">-description</text><!--MD5=[36afb6bbd95a8ac778c4537c55a683d5]
class ParameterCategory--><rect codeLine="16" fill="#FEFECE" filter="url(#fqmflcvr4gcfn)" height="101.5078" id="ParameterCategory" style="stroke:#A80036;stroke-width:2.25;" width="208.5" x="189.75" y="531"/><ellipse cx="212.25" cy="555" fill="#ADD1B2" rx="16.5" ry="16.5" style="stroke:#A80036;stroke-width:1.5;"/><path d="M215.25,549.75 Q215.5547,549 215.9063,548.625 Q216.2578,548.25 216.6563,548.25 Q217.3594,548.25 217.8047,548.6719 Q218.25,549.0938 218.25,550.0781 L218.25,552.4219 Q218.25,553.4063 217.8281,553.8281 Q217.4063,554.25 216.75,554.25 Q216.1641,554.25 215.7891,553.9922 Q215.4141,553.7344 215.25,553.0547 Q215.1797,552.5859 214.9219,552.3281 Q214.4531,551.8359 213.6094,551.5547 Q212.7656,551.25 211.9219,551.25 Q210.8672,551.25 209.9766,551.6719 Q209.1094,552.0938 208.4297,553.0313 Q207.75,553.9688 207.75,555.2578 L207.75,556.6406 Q207.75,558.1875 209.0156,559.2188 Q210.2813,560.25 212.5313,560.25 Q213.8672,560.25 214.8047,559.9453 Q215.3438,559.7813 215.9531,559.2422 Q216.3516,558.9375 216.5625,558.8438 Q216.7734,558.75 217.0313,558.75 Q217.5234,558.75 217.875,559.1484 Q218.25,559.5234 218.25,560.0625 Q218.25,560.5781 217.7344,561.1875 Q216.9844,562.0781 215.7891,562.5703 Q214.2188,563.25 212.2969,563.25 Q210.0469,563.25 208.2422,562.3594 Q206.7891,561.6563 205.7578,560.1328 Q204.75,558.6094 204.75,556.8047 L204.75,555.1641 Q204.75,553.2891 205.6406,551.6484 Q206.5547,550.0078 208.125,549.1406 Q209.7188,548.25 211.5,548.25 Q212.5781,548.25 213.5156,548.625 Q214.4531,549 215.25,549.75 Z " fill="#000000"/><text fill="#000000" font-family="sans-serif" font-size="18" lengthAdjust="spacing" textLength="160.5" x="233.25" y="562.3652">ParameterCategory</text><line style="stroke:#A80036;stroke-width:2.25;" x1="191.25" x2="396.75" y1="579" y2="579"/><text fill="#000000" font-family="sans-serif" font-size="16.5" lengthAdjust="spacing" textLength="45" x="198.75" y="602.1284">-name</text><text fill="#000000" font-family="sans-serif" font-size="16.5" lengthAdjust="spacing" textLength="42" x="198.75" y="622.8823">-code</text><!--MD5=[da547346deef918ea16944ba046651ef]
class Administrator--><rect codeLine="21" fill="#FEFECE" filter="url(#fqmflcvr4gcfn)" height="205.2773" id="Administrator" style="stroke:#A80036;stroke-width:2.25;" width="157.5" x="428.25" y="208.5"/><ellipse cx="450.75" cy="232.5" fill="#ADD1B2" rx="16.5" ry="16.5" style="stroke:#A80036;stroke-width:1.5;"/><path d="M453.75,227.25 Q454.0547,226.5 454.4063,226.125 Q454.7578,225.75 455.1563,225.75 Q455.8594,225.75 456.3047,226.1719 Q456.75,226.5938 456.75,227.5781 L456.75,229.9219 Q456.75,230.9063 456.3281,231.3281 Q455.9063,231.75 455.25,231.75 Q454.6641,231.75 454.2891,231.4922 Q453.9141,231.2344 453.75,230.5547 Q453.6797,230.0859 453.4219,229.8281 Q452.9531,229.3359 452.1094,229.0547 Q451.2656,228.75 450.4219,228.75 Q449.3672,228.75 448.4766,229.1719 Q447.6094,229.5938 446.9297,230.5313 Q446.25,231.4688 446.25,232.7578 L446.25,234.1406 Q446.25,235.6875 447.5156,236.7188 Q448.7813,237.75 451.0313,237.75 Q452.3672,237.75 453.3047,237.4453 Q453.8438,237.2813 454.4531,236.7422 Q454.8516,236.4375 455.0625,236.3438 Q455.2734,236.25 455.5313,236.25 Q456.0234,236.25 456.375,236.6484 Q456.75,237.0234 456.75,237.5625 Q456.75,238.0781 456.2344,238.6875 Q455.4844,239.5781 454.2891,240.0703 Q452.7188,240.75 450.7969,240.75 Q448.5469,240.75 446.7422,239.8594 Q445.2891,239.1563 444.2578,237.6328 Q443.25,236.1094 443.25,234.3047 L443.25,232.6641 Q443.25,230.7891 444.1406,229.1484 Q445.0547,227.5078 446.625,226.6406 Q448.2188,225.75 450,225.75 Q451.0781,225.75 452.0156,226.125 Q452.9531,226.5 453.75,227.25 Z " fill="#000000"/><text fill="#000000" font-family="sans-serif" font-size="18" lengthAdjust="spacing" textLength="109.5" x="471.75" y="239.8652">Administrator</text><line style="stroke:#A80036;stroke-width:2.25;" x1="429.75" x2="584.25" y1="256.5" y2="256.5"/><text fill="#000000" font-family="sans-serif" font-size="16.5" lengthAdjust="spacing" textLength="45" x="437.25" y="279.6284">-name</text><text fill="#000000" font-family="sans-serif" font-size="16.5" lengthAdjust="spacing" textLength="66" x="437.25" y="300.3823">-address</text><text fill="#000000" font-family="sans-serif" font-size="16.5" lengthAdjust="spacing" textLength="106.5" x="437.25" y="321.1362">-phoneNumber</text><text fill="#000000" font-family="sans-serif" font-size="16.5" lengthAdjust="spacing" textLength="42" x="437.25" y="341.8901">-email</text><text fill="#000000" font-family="sans-serif" font-size="16.5" lengthAdjust="spacing" textLength="87" x="437.25" y="362.644">-employeeId</text><text fill="#000000" font-family="sans-serif" font-size="16.5" lengthAdjust="spacing" textLength="126" x="437.25" y="383.3979">-organizationRole</text><text fill="#000000" font-family="sans-serif" font-size="16.5" lengthAdjust="spacing" textLength="70.5" x="437.25" y="404.1519">-socCode</text><!--MD5=[12d76240d3c3c66074d4ec2ea8bf469c]
link Company to Parameter--><path codeLine="31" d="M229.74,55.545 C173.445,62.01 94.695,81.15 55.5,136.5 C32.535,168.93 38.97,213.54 50.73,249.36 " fill="none" id="Company-Parameter" style="stroke:#A80036;stroke-width:1.5;"/><polygon fill="#000000" points="57.9113,155.7732,70.3553,148.7974,63.8784,142.8153,57.9113,155.7732" style="stroke:#000000;stroke-width:1.5;"/><text fill="#000000" font-family="sans-serif" font-size="19.5" lengthAdjust="spacing" textLength="177" x="76.5" y="158.2427">capable of analyzing</text><text fill="#000000" font-family="sans-serif" font-size="19.5" lengthAdjust="spacing" textLength="10.5" x="207.7274" y="50.617">1</text><text fill="#000000" font-family="sans-serif" font-size="19.5" lengthAdjust="spacing" textLength="7.5" x="38.0923" y="233.4695">*</text><!--MD5=[93b4f25fb503a8e0e9a46b1d30ff3f44]
link Company to ParameterCategory--><path codeLine="32" d="M294,91.755 C294,186.27 294,426.405 294,530.79 " fill="none" id="Company-ParameterCategory" style="stroke:#A80036;stroke-width:1.5;"/><polygon fill="#000000" points="301.5,319.0137,305.9084,305.446,297.0916,305.446,301.5,319.0137" style="stroke:#000000;stroke-width:1.5;"/><text fill="#000000" font-family="sans-serif" font-size="19.5" lengthAdjust="spacing" textLength="58.5" x="315" y="319.4927">adopts</text><text fill="#000000" font-family="sans-serif" font-size="19.5" lengthAdjust="spacing" textLength="10.5" x="282.3516" y="123.6224">1</text><text fill="#000000" font-family="sans-serif" font-size="19.5" lengthAdjust="spacing" textLength="7.5" x="285.7617" y="514.6886">*</text><!--MD5=[eaea43e34e45c5b9d20b595fc78f1f20]
link Company to Administrator--><path codeLine="33" d="M326.355,91.575 C353.355,124.185 392.97,172.035 428.235,214.62 " fill="none" id="Company-Administrator" style="stroke:#A80036;stroke-width:1.5;"/><polygon fill="#000000" points="394.7831,156.0405,389.5259,142.7787,382.7348,148.4016,394.7831,156.0405" style="stroke:#000000;stroke-width:1.5;"/><text fill="#000000" font-family="sans-serif" font-size="19.5" lengthAdjust="spacing" textLength="31.5" x="403.5" y="158.2427">has</text><text fill="#000000" font-family="sans-serif" font-size="19.5" lengthAdjust="spacing" textLength="10.5" x="321.7842" y="123.4031">1</text><text fill="#000000" font-family="sans-serif" font-size="19.5" lengthAdjust="spacing" textLength="30" x="386.2214" y="196.9925">1..*</text><!--MD5=[6df8849671cb880f6936e94aa30db6f9]
link Parameter to ParameterCategory--><path codeLine="34" d="M69.06,373.125 C66.99,408.945 70.38,453.555 93,486 C115.83,518.745 153.045,540.45 189.3,554.7 " fill="none" id="Parameter-ParameterCategory" style="stroke:#A80036;stroke-width:1.5;"/><polygon fill="#000000" points="104.6409,479.0169,100.8255,465.2707,93.4744,470.1387,104.6409,479.0169" style="stroke:#000000;stroke-width:1.5;"/><text fill="#000000" font-family="sans-serif" font-size="19.5" lengthAdjust="spacing" textLength="139.5" x="114" y="480.7427">presented under</text><text fill="#000000" font-family="sans-serif" font-size="19.5" lengthAdjust="spacing" textLength="7.5" x="59.6962" y="404.311">*</text><text fill="#000000" font-family="sans-serif" font-size="19.5" lengthAdjust="spacing" textLength="10.5" x="167.4614" y="546.9424">1</text><!--MD5=[7144ffdeebbe38808f7fb2ce8ac24f7d]
link Administrator to ParameterCategory--><path codeLine="35" d="M427.995,412.065 C395.79,452.55 359.985,497.55 333.495,530.85 " fill="none" id="Administrator-ParameterCategory" style="stroke:#A80036;stroke-width:1.5;"/><polygon fill="#000000" points="391.3307,478.6329,403.2274,470.7599,396.3277,465.2708,391.3307,478.6329" style="stroke:#000000;stroke-width:1.5;"/><text fill="#000000" font-family="sans-serif" font-size="19.5" lengthAdjust="spacing" textLength="109.5" x="409.5" y="480.7427">specifies the</text><text fill="#000000" font-family="sans-serif" font-size="19.5" lengthAdjust="spacing" textLength="7.5" x="408.8576" y="420.85">*</text><text fill="#000000" font-family="sans-serif" font-size="19.5" lengthAdjust="spacing" textLength="7.5" x="333.0323" y="514.7604">*</text><!--MD5=[34fdedc72528947de1e1e7a83046c743]
@startuml
hide methods
'left to right direction
skinparam classAttributeIconSize 0


class Company{
-name
}

class Parameter{
-code
-shortName
-description
}

class ParameterCategory{
-name
-code
}

class Administrator{
-name
-address
-phoneNumber
-email
-employeeId
-organizationRole
-socCode
}

Company "1"- -"*" Parameter : capable of analyzing >
Company "1"- -"*" ParameterCategory : adopts >
Company "1"- -"1..*" Administrator : has >
Parameter "*"- -"1" ParameterCategory : presented under >
Administrator "*"- -"*" ParameterCategory : specifies the >





@enduml

@startuml
hide methods
skinparam classAttributeIconSize 0


class Company{
-name
}

class Parameter{
-code
-shortName
-description
}

class ParameterCategory{
-name
-code
}

class Administrator{
-name
-address
-phoneNumber
-email
-employeeId
-organizationRole
-socCode
}

Company "1"- -"*" Parameter : capable of analyzing >
Company "1"- -"*" ParameterCategory : adopts >
Company "1"- -"1..*" Administrator : has >
Parameter "*"- -"1" ParameterCategory : presented under >
Administrator "*"- -"*" ParameterCategory : specifies the >





@enduml

PlantUML version 1.2021.5(Sun Apr 25 12:20:28 BST 2021)
(GPL source distribution)
Java Runtime: OpenJDK Runtime Environment
JVM: OpenJDK 64-Bit Server VM
Default Encoding: Cp1252
Language: pt
Country: PT
--></g></svg>