<?xml version="1.0" encoding="UTF-8" standalone="no"?><svg xmlns="http://www.w3.org/2000/svg" xmlns:xlink="http://www.w3.org/1999/xlink" contentScriptType="application/ecmascript" contentStyleType="text/css" height="1128px" preserveAspectRatio="none" style="width:1170px;height:1128px;" version="1.1" viewBox="0 0 1170 1128" width="1170px" zoomAndPan="magnify"><defs><filter height="300%" id="f1emkdcncmspl2" width="300%" x="-1" y="-1"><feGaussianBlur result="blurOut" stdDeviation="3.0"/><feColorMatrix in="blurOut" result="blurOut2" type="matrix" values="0 0 0 0 0 0 0 0 0 0 0 0 0 0 0 0 0 0 .4 0"/><feOffset dx="6.0" dy="6.0" in="blurOut2" result="blurOut3"/><feBlend in="SourceGraphic" in2="blurOut3" mode="normal"/></filter></defs><g><!--MD5=[02e4b9b7573f1156f41e60aa5b4e25a4]
class Company--><rect codeLine="9" fill="#FEFECE" filter="url(#f1emkdcncmspl2)" height="155.0156" id="Company" style="stroke:#A80036;stroke-width:2.25;" width="252" x="560.25" y="10.5"/><ellipse cx="640.125" cy="34.5" fill="#ADD1B2" rx="16.5" ry="16.5" style="stroke:#A80036;stroke-width:1.5;"/><path d="M643.125,29.25 Q643.4297,28.5 643.7813,28.125 Q644.1328,27.75 644.5313,27.75 Q645.2344,27.75 645.6797,28.1719 Q646.125,28.5938 646.125,29.5781 L646.125,31.9219 Q646.125,32.9063 645.7031,33.3281 Q645.2813,33.75 644.625,33.75 Q644.0391,33.75 643.6641,33.4922 Q643.2891,33.2344 643.125,32.5547 Q643.0547,32.0859 642.7969,31.8281 Q642.3281,31.3359 641.4844,31.0547 Q640.6406,30.75 639.7969,30.75 Q638.7422,30.75 637.8516,31.1719 Q636.9844,31.5938 636.3047,32.5313 Q635.625,33.4688 635.625,34.7578 L635.625,36.1406 Q635.625,37.6875 636.8906,38.7188 Q638.1563,39.75 640.4063,39.75 Q641.7422,39.75 642.6797,39.4453 Q643.2188,39.2813 643.8281,38.7422 Q644.2266,38.4375 644.4375,38.3438 Q644.6484,38.25 644.9063,38.25 Q645.3984,38.25 645.75,38.6484 Q646.125,39.0234 646.125,39.5625 Q646.125,40.0781 645.6094,40.6875 Q644.8594,41.5781 643.6641,42.0703 Q642.0938,42.75 640.1719,42.75 Q637.9219,42.75 636.1172,41.8594 Q634.6641,41.1563 633.6328,39.6328 Q632.625,38.1094 632.625,36.3047 L632.625,34.6641 Q632.625,32.7891 633.5156,31.1484 Q634.4297,29.5078 636,28.6406 Q637.5938,27.75 639.375,27.75 Q640.4531,27.75 641.3906,28.125 Q642.3281,28.5 643.125,29.25 Z " fill="#000000"/><text fill="#000000" font-family="sans-serif" font-size="18" lengthAdjust="spacing" textLength="79.5" x="670.875" y="41.8652">Company</text><line style="stroke:#A80036;stroke-width:2.25;" x1="561.75" x2="810.75" y1="58.5" y2="58.5"/><rect fill="none" height="9" style="stroke:#C82930;stroke-width:1.5;" width="9" x="572.25" y="70.5"/><text fill="#000000" font-family="sans-serif" font-size="16.5" lengthAdjust="spacing" textLength="82.5" x="590.25" y="81.6284">designation</text><line style="stroke:#A80036;stroke-width:2.25;" x1="561.75" x2="810.75" y1="91.2539" y2="91.2539"/><ellipse cx="576.75" cy="107.7539" fill="#84BE84" rx="4.5" ry="4.5" style="stroke:#038048;stroke-width:1.5;"/><text fill="#000000" font-family="sans-serif" font-size="16.5" lengthAdjust="spacing" textLength="147" x="590.25" y="114.3823">getParameterStore()</text><ellipse cx="576.75" cy="128.5078" fill="#84BE84" rx="4.5" ry="4.5" style="stroke:#038048;stroke-width:1.5;"/><text fill="#000000" font-family="sans-serif" font-size="16.5" lengthAdjust="spacing" textLength="213" x="590.25" y="135.1362">getParameterCategoryStore()</text><ellipse cx="576.75" cy="149.2617" fill="#84BE84" rx="4.5" ry="4.5" style="stroke:#038048;stroke-width:1.5;"/><text fill="#000000" font-family="sans-serif" font-size="16.5" lengthAdjust="spacing" textLength="141" x="590.25" y="155.8901">getTestTypeStore()</text><!--MD5=[6ba72ddf03822b91e8d41ca71de58ed3]
class TestTypeStore--><rect codeLine="16" fill="#FEFECE" filter="url(#f1emkdcncmspl2)" height="134.2617" id="TestTypeStore" style="stroke:#A80036;stroke-width:2.25;" width="418.5" x="10.5" y="302.25"/><ellipse cx="154.125" cy="326.25" fill="#ADD1B2" rx="16.5" ry="16.5" style="stroke:#A80036;stroke-width:1.5;"/><path d="M157.125,321 Q157.4297,320.25 157.7813,319.875 Q158.1328,319.5 158.5313,319.5 Q159.2344,319.5 159.6797,319.9219 Q160.125,320.3438 160.125,321.3281 L160.125,323.6719 Q160.125,324.6563 159.7031,325.0781 Q159.2813,325.5 158.625,325.5 Q158.0391,325.5 157.6641,325.2422 Q157.2891,324.9844 157.125,324.3047 Q157.0547,323.8359 156.7969,323.5781 Q156.3281,323.0859 155.4844,322.8047 Q154.6406,322.5 153.7969,322.5 Q152.7422,322.5 151.8516,322.9219 Q150.9844,323.3438 150.3047,324.2813 Q149.625,325.2188 149.625,326.5078 L149.625,327.8906 Q149.625,329.4375 150.8906,330.4688 Q152.1563,331.5 154.4063,331.5 Q155.7422,331.5 156.6797,331.1953 Q157.2188,331.0313 157.8281,330.4922 Q158.2266,330.1875 158.4375,330.0938 Q158.6484,330 158.9063,330 Q159.3984,330 159.75,330.3984 Q160.125,330.7734 160.125,331.3125 Q160.125,331.8281 159.6094,332.4375 Q158.8594,333.3281 157.6641,333.8203 Q156.0938,334.5 154.1719,334.5 Q151.9219,334.5 150.1172,333.6094 Q148.6641,332.9063 147.6328,331.3828 Q146.625,329.8594 146.625,328.0547 L146.625,326.4141 Q146.625,324.5391 147.5156,322.8984 Q148.4297,321.2578 150,320.3906 Q151.5938,319.5 153.375,319.5 Q154.4531,319.5 155.3906,319.875 Q156.3281,320.25 157.125,321 Z " fill="#000000"/><text fill="#000000" font-family="sans-serif" font-size="18" lengthAdjust="spacing" textLength="118.5" x="184.875" y="333.6152">TestTypeStore</text><line style="stroke:#A80036;stroke-width:2.25;" x1="12" x2="427.5" y1="350.25" y2="350.25"/><line style="stroke:#A80036;stroke-width:2.25;" x1="12" x2="427.5" y1="362.25" y2="362.25"/><ellipse cx="27" cy="378.75" fill="#84BE84" rx="4.5" ry="4.5" style="stroke:#038048;stroke-width:1.5;"/><text fill="#000000" font-family="sans-serif" font-size="16.5" lengthAdjust="spacing" textLength="379.5" x="40.5" y="385.3784">createTestType(code, description, collectionMethod)</text><ellipse cx="27" cy="399.5039" fill="#84BE84" rx="4.5" ry="4.5" style="stroke:#038048;stroke-width:1.5;"/><text fill="#000000" font-family="sans-serif" font-size="16.5" lengthAdjust="spacing" textLength="144" x="40.5" y="406.1323">validateTestType(tt)</text><ellipse cx="27" cy="420.2578" fill="#84BE84" rx="4.5" ry="4.5" style="stroke:#038048;stroke-width:1.5;"/><text fill="#000000" font-family="sans-serif" font-size="16.5" lengthAdjust="spacing" textLength="124.5" x="40.5" y="426.8862">saveTestType(tt)</text><!--MD5=[be7802b157a16874d39c59ca0e2b25be]
class ParameterStore--><rect codeLine="22" fill="#FEFECE" filter="url(#f1emkdcncmspl2)" height="175.7695" id="ParameterStore" style="stroke:#A80036;stroke-width:2.25;" width="408" x="482.25" y="282"/><ellipse cx="614.625" cy="306" fill="#ADD1B2" rx="16.5" ry="16.5" style="stroke:#A80036;stroke-width:1.5;"/><path d="M617.625,300.75 Q617.9297,300 618.2813,299.625 Q618.6328,299.25 619.0313,299.25 Q619.7344,299.25 620.1797,299.6719 Q620.625,300.0938 620.625,301.0781 L620.625,303.4219 Q620.625,304.4063 620.2031,304.8281 Q619.7813,305.25 619.125,305.25 Q618.5391,305.25 618.1641,304.9922 Q617.7891,304.7344 617.625,304.0547 Q617.5547,303.5859 617.2969,303.3281 Q616.8281,302.8359 615.9844,302.5547 Q615.1406,302.25 614.2969,302.25 Q613.2422,302.25 612.3516,302.6719 Q611.4844,303.0938 610.8047,304.0313 Q610.125,304.9688 610.125,306.2578 L610.125,307.6406 Q610.125,309.1875 611.3906,310.2188 Q612.6563,311.25 614.9063,311.25 Q616.2422,311.25 617.1797,310.9453 Q617.7188,310.7813 618.3281,310.2422 Q618.7266,309.9375 618.9375,309.8438 Q619.1484,309.75 619.4063,309.75 Q619.8984,309.75 620.25,310.1484 Q620.625,310.5234 620.625,311.0625 Q620.625,311.5781 620.1094,312.1875 Q619.3594,313.0781 618.1641,313.5703 Q616.5938,314.25 614.6719,314.25 Q612.4219,314.25 610.6172,313.3594 Q609.1641,312.6563 608.1328,311.1328 Q607.125,309.6094 607.125,307.8047 L607.125,306.1641 Q607.125,304.2891 608.0156,302.6484 Q608.9297,301.0078 610.5,300.1406 Q612.0938,299.25 613.875,299.25 Q614.9531,299.25 615.8906,299.625 Q616.8281,300 617.625,300.75 Z " fill="#000000"/><text fill="#000000" font-family="sans-serif" font-size="18" lengthAdjust="spacing" textLength="130.5" x="645.375" y="313.3652">ParameterStore</text><line style="stroke:#A80036;stroke-width:2.25;" x1="483.75" x2="888.75" y1="330" y2="330"/><line style="stroke:#A80036;stroke-width:2.25;" x1="483.75" x2="888.75" y1="342" y2="342"/><ellipse cx="498.75" cy="358.5" fill="#84BE84" rx="4.5" ry="4.5" style="stroke:#038048;stroke-width:1.5;"/><text fill="#000000" font-family="sans-serif" font-size="16.5" lengthAdjust="spacing" textLength="369" x="512.25" y="365.1284">createParameter(name, parameterValue, category)</text><ellipse cx="498.75" cy="379.2539" fill="#84BE84" rx="4.5" ry="4.5" style="stroke:#038048;stroke-width:1.5;"/><text fill="#000000" font-family="sans-serif" font-size="16.5" lengthAdjust="spacing" textLength="159" x="512.25" y="385.8823">validateParameter(pc)</text><ellipse cx="498.75" cy="400.0078" fill="#84BE84" rx="4.5" ry="4.5" style="stroke:#038048;stroke-width:1.5;"/><text fill="#000000" font-family="sans-serif" font-size="16.5" lengthAdjust="spacing" textLength="139.5" x="512.25" y="406.6362">saveParameter(pc)</text><ellipse cx="498.75" cy="420.7617" fill="#84BE84" rx="4.5" ry="4.5" style="stroke:#038048;stroke-width:1.5;"/><text fill="#000000" font-family="sans-serif" font-size="16.5" lengthAdjust="spacing" textLength="207" x="512.25" y="427.3901">getParameterByName(name)</text><ellipse cx="498.75" cy="441.5156" fill="#84BE84" rx="4.5" ry="4.5" style="stroke:#038048;stroke-width:1.5;"/><text fill="#000000" font-family="sans-serif" font-size="16.5" lengthAdjust="spacing" textLength="267" x="512.25" y="448.144">getParametersByCategory(category)</text><!--MD5=[d802db621b5b215a6f0466f93cefcb42]
class ParameterCategoryStore--><rect codeLine="30" fill="#FEFECE" filter="url(#f1emkdcncmspl2)" height="155.0156" id="ParameterCategoryStore" style="stroke:#A80036;stroke-width:2.25;" width="288" x="861.75" y="502.5"/><ellipse cx="900.45" cy="526.5" fill="#ADD1B2" rx="16.5" ry="16.5" style="stroke:#A80036;stroke-width:1.5;"/><path d="M903.45,521.25 Q903.7547,520.5 904.1062,520.125 Q904.4578,519.75 904.8562,519.75 Q905.5594,519.75 906.0047,520.1719 Q906.45,520.5938 906.45,521.5781 L906.45,523.9219 Q906.45,524.9063 906.0281,525.3281 Q905.6062,525.75 904.95,525.75 Q904.3641,525.75 903.9891,525.4922 Q903.6141,525.2344 903.45,524.5547 Q903.3797,524.0859 903.1219,523.8281 Q902.6531,523.3359 901.8094,523.0547 Q900.9656,522.75 900.1219,522.75 Q899.0672,522.75 898.1766,523.1719 Q897.3094,523.5938 896.6297,524.5313 Q895.95,525.4688 895.95,526.7578 L895.95,528.1406 Q895.95,529.6875 897.2156,530.7188 Q898.4812,531.75 900.7312,531.75 Q902.0672,531.75 903.0047,531.4453 Q903.5437,531.2813 904.1531,530.7422 Q904.5516,530.4375 904.7625,530.3438 Q904.9734,530.25 905.2312,530.25 Q905.7234,530.25 906.075,530.6484 Q906.45,531.0234 906.45,531.5625 Q906.45,532.0781 905.9344,532.6875 Q905.1844,533.5781 903.9891,534.0703 Q902.4187,534.75 900.4969,534.75 Q898.2469,534.75 896.4422,533.8594 Q894.9891,533.1563 893.9578,531.6328 Q892.95,530.1094 892.95,528.3047 L892.95,526.6641 Q892.95,524.7891 893.8406,523.1484 Q894.7547,521.5078 896.325,520.6406 Q897.9187,519.75 899.7,519.75 Q900.7781,519.75 901.7156,520.125 Q902.6531,520.5 903.45,521.25 Z " fill="#000000"/><text fill="#000000" font-family="sans-serif" font-size="18" lengthAdjust="spacing" textLength="204" x="925.05" y="533.8652">ParameterCategoryStore</text><line style="stroke:#A80036;stroke-width:2.25;" x1="863.25" x2="1148.25" y1="550.5" y2="550.5"/><line style="stroke:#A80036;stroke-width:2.25;" x1="863.25" x2="1148.25" y1="562.5" y2="562.5"/><ellipse cx="878.25" cy="579" fill="#84BE84" rx="4.5" ry="4.5" style="stroke:#038048;stroke-width:1.5;"/><text fill="#000000" font-family="sans-serif" font-size="16.5" lengthAdjust="spacing" textLength="208.5" x="891.75" y="585.6284">createCategory(code, name)</text><ellipse cx="878.25" cy="599.7539" fill="#84BE84" rx="4.5" ry="4.5" style="stroke:#038048;stroke-width:1.5;"/><text fill="#000000" font-family="sans-serif" font-size="16.5" lengthAdjust="spacing" textLength="142.5" x="891.75" y="606.3823">validateCategory(c)</text><ellipse cx="878.25" cy="620.5078" fill="#84BE84" rx="4.5" ry="4.5" style="stroke:#038048;stroke-width:1.5;"/><text fill="#000000" font-family="sans-serif" font-size="16.5" lengthAdjust="spacing" textLength="123" x="891.75" y="627.1362">saveCategory(c)</text><ellipse cx="878.25" cy="641.2617" fill="#84BE84" rx="4.5" ry="4.5" style="stroke:#038048;stroke-width:1.5;"/><text fill="#000000" font-family="sans-serif" font-size="16.5" lengthAdjust="spacing" textLength="249" x="891.75" y="647.8901">getParameterCategoryStore(code)</text><!--MD5=[aeb3272166074d8737a70b61b1e71682]
class TestType--><rect codeLine="49" fill="#FEFECE" filter="url(#f1emkdcncmspl2)" height="155.0156" id="TestType" style="stroke:#A80036;stroke-width:2.25;" width="372" x="33.75" y="702"/><ellipse cx="175.875" cy="726" fill="#ADD1B2" rx="16.5" ry="16.5" style="stroke:#A80036;stroke-width:1.5;"/><path d="M178.875,720.75 Q179.1797,720 179.5313,719.625 Q179.8828,719.25 180.2813,719.25 Q180.9844,719.25 181.4297,719.6719 Q181.875,720.0938 181.875,721.0781 L181.875,723.4219 Q181.875,724.4063 181.4531,724.8281 Q181.0313,725.25 180.375,725.25 Q179.7891,725.25 179.4141,724.9922 Q179.0391,724.7344 178.875,724.0547 Q178.8047,723.5859 178.5469,723.3281 Q178.0781,722.8359 177.2344,722.5547 Q176.3906,722.25 175.5469,722.25 Q174.4922,722.25 173.6016,722.6719 Q172.7344,723.0938 172.0547,724.0313 Q171.375,724.9688 171.375,726.2578 L171.375,727.6406 Q171.375,729.1875 172.6406,730.2188 Q173.9063,731.25 176.1563,731.25 Q177.4922,731.25 178.4297,730.9453 Q178.9688,730.7813 179.5781,730.2422 Q179.9766,729.9375 180.1875,729.8438 Q180.3984,729.75 180.6563,729.75 Q181.1484,729.75 181.5,730.1484 Q181.875,730.5234 181.875,731.0625 Q181.875,731.5781 181.3594,732.1875 Q180.6094,733.0781 179.4141,733.5703 Q177.8438,734.25 175.9219,734.25 Q173.6719,734.25 171.8672,733.3594 Q170.4141,732.6563 169.3828,731.1328 Q168.375,729.6094 168.375,727.8047 L168.375,726.1641 Q168.375,724.2891 169.2656,722.6484 Q170.1797,721.0078 171.75,720.1406 Q173.3438,719.25 175.125,719.25 Q176.2031,719.25 177.1406,719.625 Q178.0781,720 178.875,720.75 Z " fill="#000000"/><text fill="#000000" font-family="sans-serif" font-size="18" lengthAdjust="spacing" textLength="75" x="206.625" y="733.3652">TestType</text><line style="stroke:#A80036;stroke-width:2.25;" x1="35.25" x2="404.25" y1="750" y2="750"/><rect fill="none" height="9" style="stroke:#C82930;stroke-width:1.5;" width="9" x="45.75" y="762"/><text fill="#000000" font-family="sans-serif" font-size="16.5" lengthAdjust="spacing" textLength="36" x="63.75" y="773.1284">code</text><rect fill="none" height="9" style="stroke:#C82930;stroke-width:1.5;" width="9" x="45.75" y="782.7539"/><text fill="#000000" font-family="sans-serif" font-size="16.5" lengthAdjust="spacing" textLength="79.5" x="63.75" y="793.8823">description</text><rect fill="none" height="9" style="stroke:#C82930;stroke-width:1.5;" width="9" x="45.75" y="803.5078"/><text fill="#000000" font-family="sans-serif" font-size="16.5" lengthAdjust="spacing" textLength="120" x="63.75" y="814.6362">collectionMethod</text><line style="stroke:#A80036;stroke-width:2.25;" x1="35.25" x2="404.25" y1="824.2617" y2="824.2617"/><ellipse cx="50.25" cy="840.7617" fill="#84BE84" rx="4.5" ry="4.5" style="stroke:#038048;stroke-width:1.5;"/><text fill="#000000" font-family="sans-serif" font-size="16.5" lengthAdjust="spacing" textLength="333" x="63.75" y="847.3901">TestType(code, description, collectionMethod)</text><!--MD5=[1f6362a5c8f21d8d6a0fce68f3a92a4e]
class Parameter--><rect codeLine="37" fill="#FEFECE" filter="url(#f1emkdcncmspl2)" height="134.2617" id="Parameter" style="stroke:#A80036;stroke-width:2.25;" width="361.5" x="505.5" y="711.75"/><ellipse cx="636.375" cy="735.75" fill="#ADD1B2" rx="16.5" ry="16.5" style="stroke:#A80036;stroke-width:1.5;"/><path d="M639.375,730.5 Q639.6797,729.75 640.0313,729.375 Q640.3828,729 640.7813,729 Q641.4844,729 641.9297,729.4219 Q642.375,729.8438 642.375,730.8281 L642.375,733.1719 Q642.375,734.1563 641.9531,734.5781 Q641.5313,735 640.875,735 Q640.2891,735 639.9141,734.7422 Q639.5391,734.4844 639.375,733.8047 Q639.3047,733.3359 639.0469,733.0781 Q638.5781,732.5859 637.7344,732.3047 Q636.8906,732 636.0469,732 Q634.9922,732 634.1016,732.4219 Q633.2344,732.8438 632.5547,733.7813 Q631.875,734.7188 631.875,736.0078 L631.875,737.3906 Q631.875,738.9375 633.1406,739.9688 Q634.4063,741 636.6563,741 Q637.9922,741 638.9297,740.6953 Q639.4688,740.5313 640.0781,739.9922 Q640.4766,739.6875 640.6875,739.5938 Q640.8984,739.5 641.1563,739.5 Q641.6484,739.5 642,739.8984 Q642.375,740.2734 642.375,740.8125 Q642.375,741.3281 641.8594,741.9375 Q641.1094,742.8281 639.9141,743.3203 Q638.3438,744 636.4219,744 Q634.1719,744 632.3672,743.1094 Q630.9141,742.4063 629.8828,740.8828 Q628.875,739.3594 628.875,737.5547 L628.875,735.9141 Q628.875,734.0391 629.7656,732.3984 Q630.6797,730.7578 632.25,729.8906 Q633.8438,729 635.625,729 Q636.7031,729 637.6406,729.375 Q638.5781,729.75 639.375,730.5 Z " fill="#000000"/><text fill="#000000" font-family="sans-serif" font-size="18" lengthAdjust="spacing" textLength="87" x="667.125" y="743.1152">Parameter</text><line style="stroke:#A80036;stroke-width:2.25;" x1="507" x2="865.5" y1="759.75" y2="759.75"/><rect fill="none" height="9" style="stroke:#C82930;stroke-width:1.5;" width="9" x="517.5" y="771.75"/><text fill="#000000" font-family="sans-serif" font-size="16.5" lengthAdjust="spacing" textLength="39" x="535.5" y="782.8784">name</text><rect fill="none" height="9" style="stroke:#C82930;stroke-width:1.5;" width="9" x="517.5" y="792.5039"/><text fill="#000000" font-family="sans-serif" font-size="16.5" lengthAdjust="spacing" textLength="115.5" x="535.5" y="803.6323">parameterValue</text><line style="stroke:#A80036;stroke-width:2.25;" x1="507" x2="865.5" y1="813.2578" y2="813.2578"/><ellipse cx="522" cy="829.7578" fill="#84BE84" rx="4.5" ry="4.5" style="stroke:#038048;stroke-width:1.5;"/><text fill="#000000" font-family="sans-serif" font-size="16.5" lengthAdjust="spacing" textLength="322.5" x="535.5" y="836.3862">Parameter(name, parameterValue, category)</text><!--MD5=[36afb6bbd95a8ac778c4537c55a683d5]
class ParameterCategory--><rect codeLine="43" fill="#FEFECE" filter="url(#f1emkdcncmspl2)" height="134.2617" id="ParameterCategory" style="stroke:#A80036;stroke-width:2.25;" width="274.5" x="715.5" y="973.5"/><ellipse cx="767.7" cy="997.5" fill="#ADD1B2" rx="16.5" ry="16.5" style="stroke:#A80036;stroke-width:1.5;"/><path d="M770.7,992.25 Q771.0047,991.5 771.3562,991.125 Q771.7078,990.75 772.1062,990.75 Q772.8094,990.75 773.2547,991.1719 Q773.7,991.5938 773.7,992.5781 L773.7,994.9219 Q773.7,995.9063 773.2781,996.3281 Q772.8562,996.75 772.2,996.75 Q771.6141,996.75 771.2391,996.4922 Q770.8641,996.2344 770.7,995.5547 Q770.6297,995.0859 770.3719,994.8281 Q769.9031,994.3359 769.0594,994.0547 Q768.2156,993.75 767.3719,993.75 Q766.3172,993.75 765.4266,994.1719 Q764.5594,994.5938 763.8797,995.5313 Q763.2,996.4688 763.2,997.7578 L763.2,999.1406 Q763.2,1000.6875 764.4656,1001.7188 Q765.7313,1002.75 767.9813,1002.75 Q769.3172,1002.75 770.2547,1002.4453 Q770.7937,1002.2813 771.4031,1001.7422 Q771.8016,1001.4375 772.0125,1001.3438 Q772.2234,1001.25 772.4812,1001.25 Q772.9734,1001.25 773.325,1001.6484 Q773.7,1002.0234 773.7,1002.5625 Q773.7,1003.0781 773.1844,1003.6875 Q772.4344,1004.5781 771.2391,1005.0703 Q769.6687,1005.75 767.7469,1005.75 Q765.4969,1005.75 763.6922,1004.8594 Q762.2391,1004.1563 761.2078,1002.6328 Q760.2,1001.1094 760.2,999.3047 L760.2,997.6641 Q760.2,995.7891 761.0906,994.1484 Q762.0047,992.5078 763.575,991.6406 Q765.1688,990.75 766.95,990.75 Q768.0281,990.75 768.9656,991.125 Q769.9031,991.5 770.7,992.25 Z " fill="#000000"/><text fill="#000000" font-family="sans-serif" font-size="18" lengthAdjust="spacing" textLength="160.5" x="795.3" y="1004.8652">ParameterCategory</text><line style="stroke:#A80036;stroke-width:2.25;" x1="717" x2="988.5" y1="1021.5" y2="1021.5"/><rect fill="none" height="9" style="stroke:#C82930;stroke-width:1.5;" width="9" x="727.5" y="1033.5"/><text fill="#000000" font-family="sans-serif" font-size="16.5" lengthAdjust="spacing" textLength="36" x="745.5" y="1044.6284">code</text><rect fill="none" height="9" style="stroke:#C82930;stroke-width:1.5;" width="9" x="727.5" y="1054.2539"/><text fill="#000000" font-family="sans-serif" font-size="16.5" lengthAdjust="spacing" textLength="39" x="745.5" y="1065.3823">name</text><line style="stroke:#A80036;stroke-width:2.25;" x1="717" x2="988.5" y1="1075.0078" y2="1075.0078"/><ellipse cx="732" cy="1091.5078" fill="#84BE84" rx="4.5" ry="4.5" style="stroke:#038048;stroke-width:1.5;"/><text fill="#000000" font-family="sans-serif" font-size="16.5" lengthAdjust="spacing" textLength="235.5" x="745.5" y="1098.1362">ParameterCategory(code, name)</text><!--MD5=[daf3d7412afa2c7651483be0b6e971d1]
link Company to ParameterStore--><path codeLine="56" d="M686.25,165.495 C686.25,198.93 686.25,238.545 686.25,273.84 " fill="none" id="Company-to-ParameterStore" style="stroke:#A80036;stroke-width:1.5;"/><polygon fill="#A80036" points="686.25,281.76,692.25,268.26,686.25,274.26,680.25,268.26,686.25,281.76" style="stroke:#A80036;stroke-width:1.5;"/><text fill="#000000" font-family="sans-serif" font-size="19.5" lengthAdjust="spacing" textLength="42" x="687.75" y="231.7427">uses</text><text fill="#000000" font-family="sans-serif" font-size="19.5" lengthAdjust="spacing" textLength="10.5" x="675.0445" y="197.7979">1</text><text fill="#000000" font-family="sans-serif" font-size="19.5" lengthAdjust="spacing" textLength="10.5" x="675.1102" y="265.8321">1</text><!--MD5=[d53d7490e5836ca5709858d7326f212b]
link Company to ParameterCategoryStore--><path codeLine="57" d="M801.96,165.12 C842.88,196.95 886.08,237.06 915.75,282 C958.305,346.44 981.435,431.85 993.555,494.4 " fill="none" id="Company-to-ParameterCategoryStore" style="stroke:#A80036;stroke-width:1.5;"/><polygon fill="#A80036" points="994.965,501.915,998.3542,487.5357,993.5725,494.5454,986.5628,489.7637,994.965,501.915" style="stroke:#A80036;stroke-width:1.5;"/><text fill="#000000" font-family="sans-serif" font-size="19.5" lengthAdjust="spacing" textLength="42" x="882.75" y="231.7427">uses</text><text fill="#000000" font-family="sans-serif" font-size="19.5" lengthAdjust="spacing" textLength="10.5" x="806.9934" y="197.9312">1</text><text fill="#000000" font-family="sans-serif" font-size="19.5" lengthAdjust="spacing" textLength="10.5" x="982.3103" y="486.0869">1</text><!--MD5=[141c3afa12b2b3c0a39ffce56dbd5f19]
link Company to TestTypeStore--><path codeLine="58" d="M560.01,164.745 C490.47,206.34 404.745,257.61 336.735,298.29 " fill="none" id="Company-to-TestTypeStore" style="stroke:#A80036;stroke-width:1.5;"/><polygon fill="#A80036" points="330.21,302.19,344.8731,300.3893,336.6412,298.3313,338.6992,290.0993,330.21,302.19" style="stroke:#A80036;stroke-width:1.5;"/><text fill="#000000" font-family="sans-serif" font-size="19.5" lengthAdjust="spacing" textLength="42" x="483.75" y="231.7427">uses</text><text fill="#000000" font-family="sans-serif" font-size="19.5" lengthAdjust="spacing" textLength="10.5" x="537.7992" y="166.7768">1</text><text fill="#000000" font-family="sans-serif" font-size="19.5" lengthAdjust="spacing" textLength="10.5" x="336.4778" y="285.8537">1</text><!--MD5=[3eebf0e5f359806b77b30e9524c37676]
link TestTypeStore to TestType--><path codeLine="59" d="M219.75,437.46 C219.75,507.495 219.75,618.165 219.75,694.17 " fill="none" id="TestTypeStore-to-TestType" style="stroke:#A80036;stroke-width:1.5;"/><polygon fill="#A80036" points="219.75,701.88,225.75,688.38,219.75,694.38,213.75,688.38,219.75,701.88" style="stroke:#A80036;stroke-width:1.5;"/><text fill="#000000" font-family="sans-serif" font-size="19.5" lengthAdjust="spacing" textLength="79.5" x="221.25" y="587.9927">conducts</text><text fill="#000000" font-family="sans-serif" font-size="19.5" lengthAdjust="spacing" textLength="10.5" x="208.5117" y="469.0009">1</text><text fill="#000000" font-family="sans-serif" font-size="19.5" lengthAdjust="spacing" textLength="10.5" x="208.5117" y="685.5558">1</text><!--MD5=[d6274e3b73b5bc8f467c6cfbf5bf003e]
link ParameterCategoryStore to ParameterCategory--><path codeLine="60" d="M999.93,657.315 C992.205,729.675 974.61,840.3 935.25,928.5 C929.475,941.445 921.96,954.33 913.845,966.495 " fill="none" id="ParameterCategoryStore-to-ParameterCategory" style="stroke:#A80036;stroke-width:1.5;"/><polygon fill="#A80036" points="909.27,973.17,921.8499,965.4243,913.509,966.9828,911.9504,958.6419,909.27,973.17" style="stroke:#A80036;stroke-width:1.5;"/><text fill="#000000" font-family="sans-serif" font-size="19.5" lengthAdjust="spacing" textLength="58.5" x="995.25" y="787.4927">adopts</text><text fill="#000000" font-family="sans-serif" font-size="19.5" lengthAdjust="spacing" textLength="10.5" x="987.9425" y="689.5938">1</text><text fill="#000000" font-family="sans-serif" font-size="19.5" lengthAdjust="spacing" textLength="10.5" x="906.6207" y="957.2856">1</text><!--MD5=[a0992dda039fed1bb57aff5aacace800]
link ParameterStore to Parameter--><path codeLine="61" d="M662.49,457.56 C659.28,472.44 656.49,487.845 654.75,502.5 C646.68,570.69 646.005,588.885 654.75,657 C656.715,672.33 660.03,688.485 663.795,703.83 " fill="none" id="ParameterStore-to-Parameter" style="stroke:#A80036;stroke-width:1.5;"/><polygon fill="#A80036" points="665.67,711.285,668.1764,696.7259,663.8309,704.014,656.5427,699.6685,665.67,711.285" style="stroke:#A80036;stroke-width:1.5;"/><text fill="#000000" font-family="sans-serif" font-size="19.5" lengthAdjust="spacing" textLength="177" x="656.25" y="587.9927">capable of analysing</text><text fill="#000000" font-family="sans-serif" font-size="19.5" lengthAdjust="spacing" textLength="10.5" x="648.4544" y="489.9827">1</text><text fill="#000000" font-family="sans-serif" font-size="19.5" lengthAdjust="spacing" textLength="7.5" x="654.4445" y="695.3799">*</text><!--MD5=[6df8849671cb880f6936e94aa30db6f9]
link Parameter to ParameterCategory--><path codeLine="62" d="M729.135,847.38 C752.625,883.905 781.785,929.22 805.89,966.675 " fill="none" id="Parameter-to-ParameterCategory" style="stroke:#A80036;stroke-width:1.5;"/><polygon fill="#A80036" points="810.015,973.095,807.7844,958.4911,805.9691,966.7799,797.6802,964.9646,810.015,973.095" style="stroke:#A80036;stroke-width:1.5;"/><text fill="#000000" font-family="sans-serif" font-size="19.5" lengthAdjust="spacing" textLength="139.5" x="782.25" y="923.2427">presented under</text><text fill="#000000" font-family="sans-serif" font-size="19.5" lengthAdjust="spacing" textLength="7.5" x="726.8938" y="878.4752">*</text><text fill="#000000" font-family="sans-serif" font-size="19.5" lengthAdjust="spacing" textLength="10.5" x="792.1673" y="957.1991">1</text><!--MD5=[65098b20c069be9d446763546e2cc357]
@startuml
class Company
class TestTypeStore
class ParameterStore
class ParameterCategoryStore
class TestType
class Parameter
class ParameterCategory

class Company{
-designation
+getParameterStore()
+getParameterCategoryStore()
+getTestTypeStore()
}

class TestTypeStore{
+createTestType(code, description, collectionMethod)
+validateTestType(tt)
+saveTestType(tt)
}

class ParameterStore{
+createParameter(name, parameterValue, category)
+validateParameter(pc)
+saveParameter(pc)
+getParameterByName(name)
+getParametersByCategory(category)
}

class ParameterCategoryStore{
+createCategory(code, name)
+validateCategory(c)
+saveCategory(c)
+getParameterCategoryStore(code)
}

class Parameter {
-name
-parameterValue
+Parameter(name, parameterValue, category)
}

class ParameterCategory {
-code
-name
+ParameterCategory(code, name)
}

class TestType{
-code
-description
-collectionMethod
+TestType(code, description, collectionMethod)
}

Company "1"- ->"1" ParameterStore : uses
Company "1"- ->"1" ParameterCategoryStore : uses
Company "1"- ->"1" TestTypeStore : uses
TestTypeStore "1"- ->"1" TestType : conducts
ParameterCategoryStore "1"- ->"1" ParameterCategory: adopts
ParameterStore "1"- ->"*" Parameter: capable of analysing
Parameter "*"- ->"1" ParameterCategory : presented under



@enduml

PlantUML version 1.2021.4(Sun Apr 04 09:49:39 BST 2021)
(GPL source distribution)
Java Runtime: OpenJDK Runtime Environment
JVM: Dynamic Code Evolution 64-Bit Server VM
Default Encoding: Cp1252
Language: pt
Country: PT
--></g></svg>