<?xml version="1.0" encoding="UTF-8" standalone="no"?><svg xmlns="http://www.w3.org/2000/svg" xmlns:xlink="http://www.w3.org/1999/xlink" contentScriptType="application/ecmascript" contentStyleType="text/css" height="1036.5px" preserveAspectRatio="none" style="width:535px;height:1036px;" version="1.1" viewBox="0 0 535 1036" width="535.5px" zoomAndPan="magnify"><defs><filter height="300%" id="ffykpg5tx5u8b" width="300%" x="-1" y="-1"><feGaussianBlur result="blurOut" stdDeviation="3.0"/><feColorMatrix in="blurOut" result="blurOut2" type="matrix" values="0 0 0 0 0 0 0 0 0 0 0 0 0 0 0 0 0 0 .4 0"/><feOffset dx="6.0" dy="6.0" in="blurOut2" result="blurOut3"/><feBlend in="SourceGraphic" in2="blurOut3" mode="normal"/></filter></defs><g><!--MD5=[02e4b9b7573f1156f41e60aa5b4e25a4]
class Company--><rect codeLine="7" fill="#FEFECE" filter="url(#ffykpg5tx5u8b)" height="113.5078" id="Company" style="stroke:#A80036;stroke-width:2.25;" width="252" x="10.5" y="379.5"/><ellipse cx="90.375" cy="403.5" fill="#ADD1B2" rx="16.5" ry="16.5" style="stroke:#A80036;stroke-width:1.5;"/><path d="M93.375,398.25 Q93.6797,397.5 94.0313,397.125 Q94.3828,396.75 94.7813,396.75 Q95.4844,396.75 95.9297,397.1719 Q96.375,397.5938 96.375,398.5781 L96.375,400.9219 Q96.375,401.9063 95.9531,402.3281 Q95.5313,402.75 94.875,402.75 Q94.2891,402.75 93.9141,402.4922 Q93.5391,402.2344 93.375,401.5547 Q93.3047,401.0859 93.0469,400.8281 Q92.5781,400.3359 91.7344,400.0547 Q90.8906,399.75 90.0469,399.75 Q88.9922,399.75 88.1016,400.1719 Q87.2344,400.5938 86.5547,401.5313 Q85.875,402.4688 85.875,403.7578 L85.875,405.1406 Q85.875,406.6875 87.1406,407.7188 Q88.4063,408.75 90.6563,408.75 Q91.9922,408.75 92.9297,408.4453 Q93.4688,408.2813 94.0781,407.7422 Q94.4766,407.4375 94.6875,407.3438 Q94.8984,407.25 95.1563,407.25 Q95.6484,407.25 96,407.6484 Q96.375,408.0234 96.375,408.5625 Q96.375,409.0781 95.8594,409.6875 Q95.1094,410.5781 93.9141,411.0703 Q92.3438,411.75 90.4219,411.75 Q88.1719,411.75 86.3672,410.8594 Q84.9141,410.1563 83.8828,408.6328 Q82.875,407.1094 82.875,405.3047 L82.875,403.6641 Q82.875,401.7891 83.7656,400.1484 Q84.6797,398.5078 86.25,397.6406 Q87.8438,396.75 89.625,396.75 Q90.7031,396.75 91.6406,397.125 Q92.5781,397.5 93.375,398.25 Z " fill="#000000"/><text fill="#000000" font-family="sans-serif" font-size="18" lengthAdjust="spacing" textLength="79.5" x="121.125" y="410.8652">Company</text><line style="stroke:#A80036;stroke-width:2.25;" x1="12" x2="261" y1="427.5" y2="427.5"/><rect fill="none" height="9" style="stroke:#C82930;stroke-width:1.5;" width="9" x="22.5" y="439.5"/><text fill="#000000" font-family="sans-serif" font-size="16.5" lengthAdjust="spacing" textLength="82.5" x="40.5" y="450.6284">designation</text><line style="stroke:#A80036;stroke-width:2.25;" x1="12" x2="261" y1="460.2539" y2="460.2539"/><ellipse cx="27" cy="476.7539" fill="#84BE84" rx="4.5" ry="4.5" style="stroke:#038048;stroke-width:1.5;"/><text fill="#000000" font-family="sans-serif" font-size="16.5" lengthAdjust="spacing" textLength="213" x="40.5" y="483.3823">getParameterCategoryStore()</text><!--MD5=[d802db621b5b215a6f0466f93cefcb42]
class ParameterCategoryStore--><rect codeLine="18" fill="#FEFECE" filter="url(#ffykpg5tx5u8b)" height="155.0156" id="ParameterCategoryStore" style="stroke:#A80036;stroke-width:2.25;" width="321" x="48" y="610.5"/><ellipse cx="101.55" cy="634.5" fill="#ADD1B2" rx="16.5" ry="16.5" style="stroke:#A80036;stroke-width:1.5;"/><path d="M104.55,629.25 Q104.8547,628.5 105.2063,628.125 Q105.5578,627.75 105.9563,627.75 Q106.6594,627.75 107.1047,628.1719 Q107.55,628.5938 107.55,629.5781 L107.55,631.9219 Q107.55,632.9063 107.1281,633.3281 Q106.7063,633.75 106.05,633.75 Q105.4641,633.75 105.0891,633.4922 Q104.7141,633.2344 104.55,632.5547 Q104.4797,632.0859 104.2219,631.8281 Q103.7531,631.3359 102.9094,631.0547 Q102.0656,630.75 101.2219,630.75 Q100.1672,630.75 99.2766,631.1719 Q98.4094,631.5938 97.7297,632.5313 Q97.05,633.4688 97.05,634.7578 L97.05,636.1406 Q97.05,637.6875 98.3156,638.7188 Q99.5813,639.75 101.8313,639.75 Q103.1672,639.75 104.1047,639.4453 Q104.6438,639.2813 105.2531,638.7422 Q105.6516,638.4375 105.8625,638.3438 Q106.0734,638.25 106.3313,638.25 Q106.8234,638.25 107.175,638.6484 Q107.55,639.0234 107.55,639.5625 Q107.55,640.0781 107.0344,640.6875 Q106.2844,641.5781 105.0891,642.0703 Q103.5188,642.75 101.5969,642.75 Q99.3469,642.75 97.5422,641.8594 Q96.0891,641.1563 95.0578,639.6328 Q94.05,638.1094 94.05,636.3047 L94.05,634.6641 Q94.05,632.7891 94.9406,631.1484 Q95.8547,629.5078 97.425,628.6406 Q99.0188,627.75 100.8,627.75 Q101.8781,627.75 102.8156,628.125 Q103.7531,628.5 104.55,629.25 Z " fill="#000000"/><text fill="#000000" font-family="sans-serif" font-size="18" lengthAdjust="spacing" textLength="204" x="129.45" y="641.8652">ParameterCategoryStore</text><line style="stroke:#A80036;stroke-width:2.25;" x1="49.5" x2="367.5" y1="658.5" y2="658.5"/><line style="stroke:#A80036;stroke-width:2.25;" x1="49.5" x2="367.5" y1="670.5" y2="670.5"/><ellipse cx="64.5" cy="687" fill="#84BE84" rx="4.5" ry="4.5" style="stroke:#038048;stroke-width:1.5;"/><text fill="#000000" font-family="sans-serif" font-size="16.5" lengthAdjust="spacing" textLength="282" x="78" y="693.6284">createParameterCategory(code, name)</text><ellipse cx="64.5" cy="707.7539" fill="#84BE84" rx="4.5" ry="4.5" style="stroke:#038048;stroke-width:1.5;"/><text fill="#000000" font-family="sans-serif" font-size="16.5" lengthAdjust="spacing" textLength="225" x="78" y="714.3823">validateParameterCategory(pc)</text><ellipse cx="64.5" cy="728.5078" fill="#84BE84" rx="4.5" ry="4.5" style="stroke:#038048;stroke-width:1.5;"/><text fill="#000000" font-family="sans-serif" font-size="16.5" lengthAdjust="spacing" textLength="196.5" x="78" y="735.1362">addParameterCategory(pc)</text><rect fill="#F24D5C" height="9" style="stroke:#C82930;stroke-width:1.5;" width="9" x="60" y="744.7617"/><text fill="#000000" font-family="sans-serif" font-size="16.5" lengthAdjust="spacing" textLength="205.5" x="78" y="755.8901">saveParameterCategory(pc)</text><!--MD5=[36afb6bbd95a8ac778c4537c55a683d5]
class ParameterCategory--><rect codeLine="26" fill="#FEFECE" filter="url(#ffykpg5tx5u8b)" height="134.2617" id="ParameterCategory" style="stroke:#A80036;stroke-width:2.25;" width="274.5" x="191.25" y="882"/><ellipse cx="243.45" cy="906" fill="#ADD1B2" rx="16.5" ry="16.5" style="stroke:#A80036;stroke-width:1.5;"/><path d="M246.45,900.75 Q246.7547,900 247.1063,899.625 Q247.4578,899.25 247.8563,899.25 Q248.5594,899.25 249.0047,899.6719 Q249.45,900.0938 249.45,901.0781 L249.45,903.4219 Q249.45,904.4063 249.0281,904.8281 Q248.6063,905.25 247.95,905.25 Q247.3641,905.25 246.9891,904.9922 Q246.6141,904.7344 246.45,904.0547 Q246.3797,903.5859 246.1219,903.3281 Q245.6531,902.8359 244.8094,902.5547 Q243.9656,902.25 243.1219,902.25 Q242.0672,902.25 241.1766,902.6719 Q240.3094,903.0938 239.6297,904.0313 Q238.95,904.9688 238.95,906.2578 L238.95,907.6406 Q238.95,909.1875 240.2156,910.2188 Q241.4813,911.25 243.7313,911.25 Q245.0672,911.25 246.0047,910.9453 Q246.5438,910.7813 247.1531,910.2422 Q247.5516,909.9375 247.7625,909.8438 Q247.9734,909.75 248.2313,909.75 Q248.7234,909.75 249.075,910.1484 Q249.45,910.5234 249.45,911.0625 Q249.45,911.5781 248.9344,912.1875 Q248.1844,913.0781 246.9891,913.5703 Q245.4188,914.25 243.4969,914.25 Q241.2469,914.25 239.4422,913.3594 Q237.9891,912.6563 236.9578,911.1328 Q235.95,909.6094 235.95,907.8047 L235.95,906.1641 Q235.95,904.2891 236.8406,902.6484 Q237.7547,901.0078 239.325,900.1406 Q240.9188,899.25 242.7,899.25 Q243.7781,899.25 244.7156,899.625 Q245.6531,900 246.45,900.75 Z " fill="#000000"/><text fill="#000000" font-family="sans-serif" font-size="18" lengthAdjust="spacing" textLength="160.5" x="271.05" y="913.3652">ParameterCategory</text><line style="stroke:#A80036;stroke-width:2.25;" x1="192.75" x2="464.25" y1="930" y2="930"/><rect fill="none" height="9" style="stroke:#C82930;stroke-width:1.5;" width="9" x="203.25" y="942"/><text fill="#000000" font-family="sans-serif" font-size="16.5" lengthAdjust="spacing" textLength="36" x="221.25" y="953.1284">code</text><rect fill="none" height="9" style="stroke:#C82930;stroke-width:1.5;" width="9" x="203.25" y="962.7539"/><text fill="#000000" font-family="sans-serif" font-size="16.5" lengthAdjust="spacing" textLength="39" x="221.25" y="973.8823">name</text><line style="stroke:#A80036;stroke-width:2.25;" x1="192.75" x2="464.25" y1="983.5078" y2="983.5078"/><ellipse cx="207.75" cy="1000.0078" fill="#84BE84" rx="4.5" ry="4.5" style="stroke:#038048;stroke-width:1.5;"/><text fill="#000000" font-family="sans-serif" font-size="16.5" lengthAdjust="spacing" textLength="235.5" x="221.25" y="1006.6362">ParameterCategory(code, name)</text><!--MD5=[43bb81d93caae6cc68206df5797cd1c4]
class CreateParameterCategoryController--><rect codeLine="12" fill="#FEFECE" filter="url(#ffykpg5tx5u8b)" height="113.5078" id="CreateParameterCategoryController" style="stroke:#A80036;stroke-width:2.25;" width="345" x="169.5" y="174"/><ellipse cx="192" cy="198" fill="#ADD1B2" rx="16.5" ry="16.5" style="stroke:#A80036;stroke-width:1.5;"/><path d="M195,192.75 Q195.3047,192 195.6563,191.625 Q196.0078,191.25 196.4063,191.25 Q197.1094,191.25 197.5547,191.6719 Q198,192.0938 198,193.0781 L198,195.4219 Q198,196.4063 197.5781,196.8281 Q197.1563,197.25 196.5,197.25 Q195.9141,197.25 195.5391,196.9922 Q195.1641,196.7344 195,196.0547 Q194.9297,195.5859 194.6719,195.3281 Q194.2031,194.8359 193.3594,194.5547 Q192.5156,194.25 191.6719,194.25 Q190.6172,194.25 189.7266,194.6719 Q188.8594,195.0938 188.1797,196.0313 Q187.5,196.9688 187.5,198.2578 L187.5,199.6406 Q187.5,201.1875 188.7656,202.2188 Q190.0313,203.25 192.2813,203.25 Q193.6172,203.25 194.5547,202.9453 Q195.0938,202.7813 195.7031,202.2422 Q196.1016,201.9375 196.3125,201.8438 Q196.5234,201.75 196.7813,201.75 Q197.2734,201.75 197.625,202.1484 Q198,202.5234 198,203.0625 Q198,203.5781 197.4844,204.1875 Q196.7344,205.0781 195.5391,205.5703 Q193.9688,206.25 192.0469,206.25 Q189.7969,206.25 187.9922,205.3594 Q186.5391,204.6563 185.5078,203.1328 Q184.5,201.6094 184.5,199.8047 L184.5,198.1641 Q184.5,196.2891 185.3906,194.6484 Q186.3047,193.0078 187.875,192.1406 Q189.4688,191.25 191.25,191.25 Q192.3281,191.25 193.2656,191.625 Q194.2031,192 195,192.75 Z " fill="#000000"/><text fill="#000000" font-family="sans-serif" font-size="18" lengthAdjust="spacing" textLength="297" x="213" y="205.3652">CreateParameterCategoryController</text><line style="stroke:#A80036;stroke-width:2.25;" x1="171" x2="513" y1="222" y2="222"/><line style="stroke:#A80036;stroke-width:2.25;" x1="171" x2="513" y1="234" y2="234"/><ellipse cx="186" cy="250.5" fill="#84BE84" rx="4.5" ry="4.5" style="stroke:#038048;stroke-width:1.5;"/><text fill="#000000" font-family="sans-serif" font-size="16.5" lengthAdjust="spacing" textLength="282" x="199.5" y="257.1284">createParameterCategory(code, name)</text><ellipse cx="186" cy="271.2539" fill="#84BE84" rx="4.5" ry="4.5" style="stroke:#038048;stroke-width:1.5;"/><text fill="#000000" font-family="sans-serif" font-size="16.5" lengthAdjust="spacing" textLength="187.5" x="199.5" y="277.8823">saveParameterCategory()</text><!--MD5=[6017f56a87b244e108fd0d8749edd53c]
class CreateParameterCategoryUI--><rect codeLine="5" fill="#FEFECE" filter="url(#ffykpg5tx5u8b)" height="72" id="CreateParameterCategoryUI" style="stroke:#A80036;stroke-width:2.25;" width="282" x="201" y="10.5"/><ellipse cx="223.5" cy="34.5" fill="#ADD1B2" rx="16.5" ry="16.5" style="stroke:#A80036;stroke-width:1.5;"/><path d="M226.5,29.25 Q226.8047,28.5 227.1563,28.125 Q227.5078,27.75 227.9063,27.75 Q228.6094,27.75 229.0547,28.1719 Q229.5,28.5938 229.5,29.5781 L229.5,31.9219 Q229.5,32.9063 229.0781,33.3281 Q228.6563,33.75 228,33.75 Q227.4141,33.75 227.0391,33.4922 Q226.6641,33.2344 226.5,32.5547 Q226.4297,32.0859 226.1719,31.8281 Q225.7031,31.3359 224.8594,31.0547 Q224.0156,30.75 223.1719,30.75 Q222.1172,30.75 221.2266,31.1719 Q220.3594,31.5938 219.6797,32.5313 Q219,33.4688 219,34.7578 L219,36.1406 Q219,37.6875 220.2656,38.7188 Q221.5313,39.75 223.7813,39.75 Q225.1172,39.75 226.0547,39.4453 Q226.5938,39.2813 227.2031,38.7422 Q227.6016,38.4375 227.8125,38.3438 Q228.0234,38.25 228.2813,38.25 Q228.7734,38.25 229.125,38.6484 Q229.5,39.0234 229.5,39.5625 Q229.5,40.0781 228.9844,40.6875 Q228.2344,41.5781 227.0391,42.0703 Q225.4688,42.75 223.5469,42.75 Q221.2969,42.75 219.4922,41.8594 Q218.0391,41.1563 217.0078,39.6328 Q216,38.1094 216,36.3047 L216,34.6641 Q216,32.7891 216.8906,31.1484 Q217.8047,29.5078 219.375,28.6406 Q220.9688,27.75 222.75,27.75 Q223.8281,27.75 224.7656,28.125 Q225.7031,28.5 226.5,29.25 Z " fill="#000000"/><text fill="#000000" font-family="sans-serif" font-size="18" lengthAdjust="spacing" textLength="234" x="244.5" y="41.8652">CreateParameterCategoryUI</text><line style="stroke:#A80036;stroke-width:2.25;" x1="202.5" x2="481.5" y1="58.5" y2="58.5"/><line style="stroke:#A80036;stroke-width:2.25;" x1="202.5" x2="481.5" y1="70.5" y2="70.5"/><!--MD5=[d53d7490e5836ca5709858d7326f212b]
link Company to ParameterCategoryStore--><path codeLine="32" d="M152.655,493.71 C161.985,525.87 173.895,566.955 184.32,602.895 " fill="none" id="Company-to-ParameterCategoryStore" style="stroke:#A80036;stroke-width:1.5;"/><polygon fill="#A80036" points="186.525,610.485,188.505,595.845,184.425,603.285,176.985,599.205,186.525,610.485" style="stroke:#A80036;stroke-width:1.5;"/><text fill="#000000" font-family="sans-serif" font-size="19.5" lengthAdjust="spacing" textLength="42" x="174" y="560.2427">uses</text><text fill="#000000" font-family="sans-serif" font-size="19.5" lengthAdjust="spacing" textLength="10.5" x="143.893" y="525.0643">1</text><text fill="#000000" font-family="sans-serif" font-size="19.5" lengthAdjust="spacing" textLength="10.5" x="172.1965" y="594.1756">1</text><!--MD5=[a00c31f7a5d66db29f7adf0293377a3b]
link CreateParameterCategoryController to Company--><path codeLine="33" d="M285.3,288.375 C258.345,314.925 226.065,346.74 198.465,373.935 " fill="none" id="CreateParameterCategoryController-to-Company" style="stroke:#A80036;stroke-width:1.5;stroke-dasharray:7.0,7.0;"/><polygon fill="#A80036" points="193.02,379.305,206.8511,374.1135,198.3661,374.0448,198.4348,365.5598,193.02,379.305" style="stroke:#A80036;stroke-width:1.5;"/><!--MD5=[93b1b9218398b0464d36d46d0f539949]
link CreateParameterCategoryUI to CreateParameterCategoryController--><path codeLine="34" d="M342,82.56 C342,106.065 342,137.865 342,165.87 " fill="none" id="CreateParameterCategoryUI-to-CreateParameterCategoryController" style="stroke:#A80036;stroke-width:1.5;stroke-dasharray:7.0,7.0;"/><polygon fill="#A80036" points="342,173.655,348,160.155,342,166.155,336,160.155,342,173.655" style="stroke:#A80036;stroke-width:1.5;"/><!--MD5=[869a0022b647c5cba08cf9438b652be2]
link CreateParameterCategoryController to ParameterCategory--><path codeLine="35" d="M357.705,288.075 C382.965,385.365 426.78,592.575 396,765 C389.355,802.185 375.69,841.725 362.37,874.485 " fill="none" id="CreateParameterCategoryController-to-ParameterCategory" style="stroke:#A80036;stroke-width:1.5;stroke-dasharray:7.0,7.0;"/><polygon fill="#A80036" points="359.37,881.805,370.0471,871.5947,362.2181,874.8668,358.946,867.0378,359.37,881.805" style="stroke:#A80036;stroke-width:1.5;"/><!--MD5=[d6274e3b73b5bc8f467c6cfbf5bf003e]
link ParameterCategoryStore to ParameterCategory--><path codeLine="36" d="M243.855,765.48 C259.86,799.995 278.7,840.615 294.54,874.77 " fill="none" id="ParameterCategoryStore-to-ParameterCategory" style="stroke:#A80036;stroke-width:1.5;"/><polygon fill="#A80036" points="297.87,881.955,297.6339,867.1836,294.7148,875.151,286.7474,872.2319,297.87,881.955" style="stroke:#A80036;stroke-width:1.5;"/><text fill="#000000" font-family="sans-serif" font-size="19.5" lengthAdjust="spacing" textLength="58.5" x="277.5" y="831.7427">adopts</text><text fill="#000000" font-family="sans-serif" font-size="19.5" lengthAdjust="spacing" textLength="10.5" x="237.4004" y="797.7809">1</text><text fill="#000000" font-family="sans-serif" font-size="19.5" lengthAdjust="spacing" textLength="7.5" x="284.8907" y="865.621">*</text><!--MD5=[be6e87e2c6f1800ec3da53612c46e11a]
link CreateParameterCategoryController to ParameterCategoryStore--><path codeLine="37" d="M333.57,288.255 C324.78,341.61 309.3,424.05 288,493.5 C276.75,530.175 261.195,569.505 246.825,603.015 " fill="none" id="CreateParameterCategoryController-to-ParameterCategoryStore" style="stroke:#A80036;stroke-width:1.5;stroke-dasharray:7.0,7.0;"/><polygon fill="#A80036" points="243.78,610.08,254.6128,600.0351,246.7344,603.1864,243.583,595.308,243.78,610.08" style="stroke:#A80036;stroke-width:1.5;"/><!--MD5=[ae8d3bf7a64613a666ec5a6c0d3112e4]
@startuml
class Company
class ParameterCategoryStore
class ParameterCategory
class CreateParameterCategoryController
class CreateParameterCategoryUI

class Company{
-designation
+getParameterCategoryStore()
}

class CreateParameterCategoryController{
+createParameterCategory(code, name)
+saveParameterCategory()

}

class ParameterCategoryStore{
+createParameterCategory(code, name)
+validateParameterCategory(pc)
+addParameterCategory(pc)
-saveParameterCategory(pc)
}


class ParameterCategory {
-code
-name
+ParameterCategory(code, name)
}

Company "1"- ->"1" ParameterCategoryStore : uses
CreateParameterCategoryController ..> Company
CreateParameterCategoryUI ..> CreateParameterCategoryController
CreateParameterCategoryController ..> ParameterCategory
ParameterCategoryStore "1"- ->"*" ParameterCategory : adopts
CreateParameterCategoryController ..> ParameterCategoryStore





@enduml

PlantUML version 1.2021.5(Sun Apr 25 12:20:28 BST 2021)
(GPL source distribution)
Java Runtime: OpenJDK Runtime Environment
JVM: OpenJDK 64-Bit Server VM
Default Encoding: Cp1252
Language: pt
Country: PT
--></g></svg>