<?xml version="1.0" encoding="UTF-8" standalone="no"?><svg xmlns="http://www.w3.org/2000/svg" xmlns:xlink="http://www.w3.org/1999/xlink" contentScriptType="application/ecmascript" contentStyleType="text/css" height="1540.5px" preserveAspectRatio="none" style="width:735px;height:1540px;" version="1.1" viewBox="0 0 735 1540" width="735px" zoomAndPan="magnify"><defs><filter height="300%" id="f1x4wc0056lb7g" width="300%" x="-1" y="-1"><feGaussianBlur result="blurOut" stdDeviation="3.0"/><feColorMatrix in="blurOut" result="blurOut2" type="matrix" values="0 0 0 0 0 0 0 0 0 0 0 0 0 0 0 0 0 0 .4 0"/><feOffset dx="6.0" dy="6.0" in="blurOut2" result="blurOut3"/><feBlend in="SourceGraphic" in2="blurOut3" mode="normal"/></filter></defs><g><!--MD5=[5518e6815e09c51d4db6e17774f331d2]
class CreateParameterUI--><rect codeLine="3" fill="#FEFECE" filter="url(#f1x4wc0056lb7g)" height="72" id="CreateParameterUI" style="stroke:#A80036;stroke-width:2.25;" width="208.5" x="320.25" y="10.5"/><ellipse cx="342.75" cy="34.5" fill="#ADD1B2" rx="16.5" ry="16.5" style="stroke:#A80036;stroke-width:1.5;"/><path d="M345.75,29.25 Q346.0547,28.5 346.4063,28.125 Q346.7578,27.75 347.1563,27.75 Q347.8594,27.75 348.3047,28.1719 Q348.75,28.5938 348.75,29.5781 L348.75,31.9219 Q348.75,32.9063 348.3281,33.3281 Q347.9063,33.75 347.25,33.75 Q346.6641,33.75 346.2891,33.4922 Q345.9141,33.2344 345.75,32.5547 Q345.6797,32.0859 345.4219,31.8281 Q344.9531,31.3359 344.1094,31.0547 Q343.2656,30.75 342.4219,30.75 Q341.3672,30.75 340.4766,31.1719 Q339.6094,31.5938 338.9297,32.5313 Q338.25,33.4688 338.25,34.7578 L338.25,36.1406 Q338.25,37.6875 339.5156,38.7188 Q340.7813,39.75 343.0313,39.75 Q344.3672,39.75 345.3047,39.4453 Q345.8438,39.2813 346.4531,38.7422 Q346.8516,38.4375 347.0625,38.3438 Q347.2734,38.25 347.5313,38.25 Q348.0234,38.25 348.375,38.6484 Q348.75,39.0234 348.75,39.5625 Q348.75,40.0781 348.2344,40.6875 Q347.4844,41.5781 346.2891,42.0703 Q344.7188,42.75 342.7969,42.75 Q340.5469,42.75 338.7422,41.8594 Q337.2891,41.1563 336.2578,39.6328 Q335.25,38.1094 335.25,36.3047 L335.25,34.6641 Q335.25,32.7891 336.1406,31.1484 Q337.0547,29.5078 338.625,28.6406 Q340.2188,27.75 342,27.75 Q343.0781,27.75 344.0156,28.125 Q344.9531,28.5 345.75,29.25 Z " fill="#000000"/><text fill="#000000" font-family="sans-serif" font-size="18" lengthAdjust="spacing" textLength="160.5" x="363.75" y="41.8652">CreateParameterUI</text><line style="stroke:#A80036;stroke-width:2.25;" x1="321.75" x2="527.25" y1="58.5" y2="58.5"/><line style="stroke:#A80036;stroke-width:2.25;" x1="321.75" x2="527.25" y1="70.5" y2="70.5"/><!--MD5=[b9009a04d919d78a73c2eeec1e385786]
class CreateParameterController--><rect codeLine="6" fill="#FEFECE" filter="url(#f1x4wc0056lb7g)" height="134.2617" id="CreateParameterController" style="stroke:#A80036;stroke-width:2.25;" width="498" x="175.5" y="174"/><ellipse cx="306.375" cy="198" fill="#ADD1B2" rx="16.5" ry="16.5" style="stroke:#A80036;stroke-width:1.5;"/><path d="M309.375,192.75 Q309.6797,192 310.0313,191.625 Q310.3828,191.25 310.7813,191.25 Q311.4844,191.25 311.9297,191.6719 Q312.375,192.0938 312.375,193.0781 L312.375,195.4219 Q312.375,196.4063 311.9531,196.8281 Q311.5313,197.25 310.875,197.25 Q310.2891,197.25 309.9141,196.9922 Q309.5391,196.7344 309.375,196.0547 Q309.3047,195.5859 309.0469,195.3281 Q308.5781,194.8359 307.7344,194.5547 Q306.8906,194.25 306.0469,194.25 Q304.9922,194.25 304.1016,194.6719 Q303.2344,195.0938 302.5547,196.0313 Q301.875,196.9688 301.875,198.2578 L301.875,199.6406 Q301.875,201.1875 303.1406,202.2188 Q304.4063,203.25 306.6563,203.25 Q307.9922,203.25 308.9297,202.9453 Q309.4688,202.7813 310.0781,202.2422 Q310.4766,201.9375 310.6875,201.8438 Q310.8984,201.75 311.1563,201.75 Q311.6484,201.75 312,202.1484 Q312.375,202.5234 312.375,203.0625 Q312.375,203.5781 311.8594,204.1875 Q311.1094,205.0781 309.9141,205.5703 Q308.3438,206.25 306.4219,206.25 Q304.1719,206.25 302.3672,205.3594 Q300.9141,204.6563 299.8828,203.1328 Q298.875,201.6094 298.875,199.8047 L298.875,198.1641 Q298.875,196.2891 299.7656,194.6484 Q300.6797,193.0078 302.25,192.1406 Q303.8438,191.25 305.625,191.25 Q306.7031,191.25 307.6406,191.625 Q308.5781,192 309.375,192.75 Z " fill="#000000"/><text fill="#000000" font-family="sans-serif" font-size="18" lengthAdjust="spacing" textLength="223.5" x="337.125" y="205.3652">CreateParameterController</text><line style="stroke:#A80036;stroke-width:2.25;" x1="177" x2="672" y1="222" y2="222"/><line style="stroke:#A80036;stroke-width:2.25;" x1="177" x2="672" y1="234" y2="234"/><text fill="#000000" font-family="sans-serif" font-size="16.5" lengthAdjust="spacing" textLength="195" x="184.5" y="257.1284">+getParameterCategories()</text><text fill="#000000" font-family="sans-serif" font-size="16.5" lengthAdjust="spacing" textLength="480" x="184.5" y="277.8823">+createParameter(code,designation,description,selectedCategory)</text><text fill="#000000" font-family="sans-serif" font-size="16.5" lengthAdjust="spacing" textLength="130.5" x="184.5" y="298.6362">+saveParameter()</text><!--MD5=[02e4b9b7573f1156f41e60aa5b4e25a4]
class Company--><rect codeLine="12" fill="#FEFECE" filter="url(#f1x4wc0056lb7g)" height="217.2773" id="Company" style="stroke:#A80036;stroke-width:2.25;" width="240" x="304.5" y="400.5"/><ellipse cx="378.375" cy="424.5" fill="#ADD1B2" rx="16.5" ry="16.5" style="stroke:#A80036;stroke-width:1.5;"/><path d="M381.375,419.25 Q381.6797,418.5 382.0313,418.125 Q382.3828,417.75 382.7813,417.75 Q383.4844,417.75 383.9297,418.1719 Q384.375,418.5938 384.375,419.5781 L384.375,421.9219 Q384.375,422.9063 383.9531,423.3281 Q383.5313,423.75 382.875,423.75 Q382.2891,423.75 381.9141,423.4922 Q381.5391,423.2344 381.375,422.5547 Q381.3047,422.0859 381.0469,421.8281 Q380.5781,421.3359 379.7344,421.0547 Q378.8906,420.75 378.0469,420.75 Q376.9922,420.75 376.1016,421.1719 Q375.2344,421.5938 374.5547,422.5313 Q373.875,423.4688 373.875,424.7578 L373.875,426.1406 Q373.875,427.6875 375.1406,428.7188 Q376.4063,429.75 378.6563,429.75 Q379.9922,429.75 380.9297,429.4453 Q381.4688,429.2813 382.0781,428.7422 Q382.4766,428.4375 382.6875,428.3438 Q382.8984,428.25 383.1563,428.25 Q383.6484,428.25 384,428.6484 Q384.375,429.0234 384.375,429.5625 Q384.375,430.0781 383.8594,430.6875 Q383.1094,431.5781 381.9141,432.0703 Q380.3438,432.75 378.4219,432.75 Q376.1719,432.75 374.3672,431.8594 Q372.9141,431.1563 371.8828,429.6328 Q370.875,428.1094 370.875,426.3047 L370.875,424.6641 Q370.875,422.7891 371.7656,421.1484 Q372.6797,419.5078 374.25,418.6406 Q375.8438,417.75 377.625,417.75 Q378.7031,417.75 379.6406,418.125 Q380.5781,418.5 381.375,419.25 Z " fill="#000000"/><text fill="#000000" font-family="sans-serif" font-size="18" lengthAdjust="spacing" textLength="79.5" x="409.125" y="431.8652">Company</text><line style="stroke:#A80036;stroke-width:2.25;" x1="306" x2="543" y1="448.5" y2="448.5"/><text fill="#000000" font-family="sans-serif" font-size="16.5" lengthAdjust="spacing" textLength="91.5" x="313.5" y="471.6284">-String name</text><text fill="#000000" font-family="sans-serif" font-size="16.5" lengthAdjust="spacing" textLength="135" x="313.5" y="492.3823">-String designation</text><text fill="#000000" font-family="sans-serif" font-size="16.5" lengthAdjust="spacing" textLength="70.5" x="313.5" y="513.1362">-category</text><text fill="#000000" font-family="sans-serif" font-size="16.5" lengthAdjust="spacing" textLength="66" x="313.5" y="533.8901">-address</text><text fill="#000000" font-family="sans-serif" font-size="16.5" lengthAdjust="spacing" textLength="103.5" x="313.5" y="554.644">-headquarters</text><line style="stroke:#A80036;stroke-width:1.5;" x1="306" x2="543" y1="564.2695" y2="564.2695"/><text fill="#000000" font-family="sans-serif" font-size="16.5" lengthAdjust="spacing" textLength="156" x="313.5" y="587.3979">+getParameterStore()</text><text fill="#000000" font-family="sans-serif" font-size="16.5" lengthAdjust="spacing" textLength="222" x="313.5" y="608.1519">+getParameterCategoryStore()</text><!--MD5=[be7802b157a16874d39c59ca0e2b25be]
class ParameterStore--><rect codeLine="23" fill="#FEFECE" filter="url(#f1x4wc0056lb7g)" height="175.7695" id="ParameterStore" style="stroke:#A80036;stroke-width:2.25;" width="498" x="10.5" y="735"/><ellipse cx="187.875" cy="759" fill="#ADD1B2" rx="16.5" ry="16.5" style="stroke:#A80036;stroke-width:1.5;"/><path d="M190.875,753.75 Q191.1797,753 191.5313,752.625 Q191.8828,752.25 192.2813,752.25 Q192.9844,752.25 193.4297,752.6719 Q193.875,753.0938 193.875,754.0781 L193.875,756.4219 Q193.875,757.4063 193.4531,757.8281 Q193.0313,758.25 192.375,758.25 Q191.7891,758.25 191.4141,757.9922 Q191.0391,757.7344 190.875,757.0547 Q190.8047,756.5859 190.5469,756.3281 Q190.0781,755.8359 189.2344,755.5547 Q188.3906,755.25 187.5469,755.25 Q186.4922,755.25 185.6016,755.6719 Q184.7344,756.0938 184.0547,757.0313 Q183.375,757.9688 183.375,759.2578 L183.375,760.6406 Q183.375,762.1875 184.6406,763.2188 Q185.9063,764.25 188.1563,764.25 Q189.4922,764.25 190.4297,763.9453 Q190.9688,763.7813 191.5781,763.2422 Q191.9766,762.9375 192.1875,762.8438 Q192.3984,762.75 192.6563,762.75 Q193.1484,762.75 193.5,763.1484 Q193.875,763.5234 193.875,764.0625 Q193.875,764.5781 193.3594,765.1875 Q192.6094,766.0781 191.4141,766.5703 Q189.8438,767.25 187.9219,767.25 Q185.6719,767.25 183.8672,766.3594 Q182.4141,765.6563 181.3828,764.1328 Q180.375,762.6094 180.375,760.8047 L180.375,759.1641 Q180.375,757.2891 181.2656,755.6484 Q182.1797,754.0078 183.75,753.1406 Q185.3438,752.25 187.125,752.25 Q188.2031,752.25 189.1406,752.625 Q190.0781,753 190.875,753.75 Z " fill="#000000"/><text fill="#000000" font-family="sans-serif" font-size="18" lengthAdjust="spacing" textLength="130.5" x="218.625" y="766.3652">ParameterStore</text><line style="stroke:#A80036;stroke-width:2.25;" x1="12" x2="507" y1="783" y2="783"/><line style="stroke:#A80036;stroke-width:2.25;" x1="12" x2="507" y1="795" y2="795"/><text fill="#000000" font-family="sans-serif" font-size="16.5" lengthAdjust="spacing" textLength="480" x="19.5" y="818.1284">+createParameter(code,designation,description,selectedCategory)</text><text fill="#000000" font-family="sans-serif" font-size="16.5" lengthAdjust="spacing" textLength="159" x="19.5" y="838.8823">+validateParameter(p)</text><text fill="#000000" font-family="sans-serif" font-size="16.5" lengthAdjust="spacing" textLength="139.5" x="19.5" y="859.6362">+saveParameter(p)</text><text fill="#000000" font-family="sans-serif" font-size="16.5" lengthAdjust="spacing" textLength="183" x="19.5" y="880.3901">+getParameterByCode(p)</text><text fill="#000000" font-family="sans-serif" font-size="16.5" lengthAdjust="spacing" textLength="211.5" x="19.5" y="901.144">+getParameterByCategory(p)</text><!--MD5=[d802db621b5b215a6f0466f93cefcb42]
class ParameterCategoryStore--><rect codeLine="31" fill="#FEFECE" filter="url(#f1x4wc0056lb7g)" height="113.5078" id="ParameterCategoryStore" style="stroke:#A80036;stroke-width:2.25;" width="258" x="456" y="955.5"/><ellipse cx="481.2" cy="979.5" fill="#ADD1B2" rx="16.5" ry="16.5" style="stroke:#A80036;stroke-width:1.5;"/><path d="M484.2,974.25 Q484.5047,973.5 484.8563,973.125 Q485.2078,972.75 485.6063,972.75 Q486.3094,972.75 486.7547,973.1719 Q487.2,973.5938 487.2,974.5781 L487.2,976.9219 Q487.2,977.9063 486.7781,978.3281 Q486.3563,978.75 485.7,978.75 Q485.1141,978.75 484.7391,978.4922 Q484.3641,978.2344 484.2,977.5547 Q484.1297,977.0859 483.8719,976.8281 Q483.4031,976.3359 482.5594,976.0547 Q481.7156,975.75 480.8719,975.75 Q479.8172,975.75 478.9266,976.1719 Q478.0594,976.5938 477.3797,977.5313 Q476.7,978.4688 476.7,979.7578 L476.7,981.1406 Q476.7,982.6875 477.9656,983.7188 Q479.2313,984.75 481.4813,984.75 Q482.8172,984.75 483.7547,984.4453 Q484.2938,984.2813 484.9031,983.7422 Q485.3016,983.4375 485.5125,983.3438 Q485.7234,983.25 485.9813,983.25 Q486.4734,983.25 486.825,983.6484 Q487.2,984.0234 487.2,984.5625 Q487.2,985.0781 486.6844,985.6875 Q485.9344,986.5781 484.7391,987.0703 Q483.1688,987.75 481.2469,987.75 Q478.9969,987.75 477.1922,986.8594 Q475.7391,986.1563 474.7078,984.6328 Q473.7,983.1094 473.7,981.3047 L473.7,979.6641 Q473.7,977.7891 474.5906,976.1484 Q475.5047,974.5078 477.075,973.6406 Q478.6688,972.75 480.45,972.75 Q481.5281,972.75 482.4656,973.125 Q483.4031,973.5 484.2,974.25 Z " fill="#000000"/><text fill="#000000" font-family="sans-serif" font-size="18" lengthAdjust="spacing" textLength="204" x="502.8" y="986.8652">ParameterCategoryStore</text><line style="stroke:#A80036;stroke-width:2.25;" x1="457.5" x2="712.5" y1="1003.5" y2="1003.5"/><line style="stroke:#A80036;stroke-width:2.25;" x1="457.5" x2="712.5" y1="1015.5" y2="1015.5"/><text fill="#000000" font-family="sans-serif" font-size="16.5" lengthAdjust="spacing" textLength="195" x="465" y="1038.6284">+getParameterCategories()</text><text fill="#000000" font-family="sans-serif" font-size="16.5" lengthAdjust="spacing" textLength="240" x="465" y="1059.3823">+getParameterCategoryByCode()</text><!--MD5=[1f6362a5c8f21d8d6a0fce68f3a92a4e]
class Parameter--><rect codeLine="36" fill="#FEFECE" filter="url(#f1x4wc0056lb7g)" height="155.0156" id="Parameter" style="stroke:#A80036;stroke-width:2.25;" width="424.5" x="51.75" y="1114.5"/><ellipse cx="214.125" cy="1138.5" fill="#ADD1B2" rx="16.5" ry="16.5" style="stroke:#A80036;stroke-width:1.5;"/><path d="M217.125,1133.25 Q217.4297,1132.5 217.7813,1132.125 Q218.1328,1131.75 218.5313,1131.75 Q219.2344,1131.75 219.6797,1132.1719 Q220.125,1132.5938 220.125,1133.5781 L220.125,1135.9219 Q220.125,1136.9063 219.7031,1137.3281 Q219.2813,1137.75 218.625,1137.75 Q218.0391,1137.75 217.6641,1137.4922 Q217.2891,1137.2344 217.125,1136.5547 Q217.0547,1136.0859 216.7969,1135.8281 Q216.3281,1135.3359 215.4844,1135.0547 Q214.6406,1134.75 213.7969,1134.75 Q212.7422,1134.75 211.8516,1135.1719 Q210.9844,1135.5938 210.3047,1136.5313 Q209.625,1137.4688 209.625,1138.7578 L209.625,1140.1406 Q209.625,1141.6875 210.8906,1142.7188 Q212.1563,1143.75 214.4063,1143.75 Q215.7422,1143.75 216.6797,1143.4453 Q217.2188,1143.2813 217.8281,1142.7422 Q218.2266,1142.4375 218.4375,1142.3438 Q218.6484,1142.25 218.9063,1142.25 Q219.3984,1142.25 219.75,1142.6484 Q220.125,1143.0234 220.125,1143.5625 Q220.125,1144.0781 219.6094,1144.6875 Q218.8594,1145.5781 217.6641,1146.0703 Q216.0938,1146.75 214.1719,1146.75 Q211.9219,1146.75 210.1172,1145.8594 Q208.6641,1145.1563 207.6328,1143.6328 Q206.625,1142.1094 206.625,1140.3047 L206.625,1138.6641 Q206.625,1136.7891 207.5156,1135.1484 Q208.4297,1133.5078 210,1132.6406 Q211.5938,1131.75 213.375,1131.75 Q214.4531,1131.75 215.3906,1132.125 Q216.3281,1132.5 217.125,1133.25 Z " fill="#000000"/><text fill="#000000" font-family="sans-serif" font-size="18" lengthAdjust="spacing" textLength="87" x="244.875" y="1145.8652">Parameter</text><line style="stroke:#A80036;stroke-width:2.25;" x1="53.25" x2="474.75" y1="1162.5" y2="1162.5"/><text fill="#000000" font-family="sans-serif" font-size="16.5" lengthAdjust="spacing" textLength="63" x="60.75" y="1185.6284">-int code</text><text fill="#000000" font-family="sans-serif" font-size="16.5" lengthAdjust="spacing" textLength="135" x="60.75" y="1206.3823">-String designation</text><text fill="#000000" font-family="sans-serif" font-size="16.5" lengthAdjust="spacing" textLength="132" x="60.75" y="1227.1362">-String description</text><line style="stroke:#A80036;stroke-width:2.25;" x1="53.25" x2="474.75" y1="1236.7617" y2="1236.7617"/><text fill="#000000" font-family="sans-serif" font-size="16.5" lengthAdjust="spacing" textLength="406.5" x="60.75" y="1259.8901">+create(code,designation,description,selectedCategory)</text><!--MD5=[36afb6bbd95a8ac778c4537c55a683d5]
class ParameterCategory--><rect codeLine="43" fill="#FEFECE" filter="url(#f1x4wc0056lb7g)" height="134.2617" id="ParameterCategory" style="stroke:#A80036;stroke-width:2.25;" width="208.5" x="320.25" y="1386"/><ellipse cx="342.75" cy="1410" fill="#ADD1B2" rx="16.5" ry="16.5" style="stroke:#A80036;stroke-width:1.5;"/><path d="M345.75,1404.75 Q346.0547,1404 346.4063,1403.625 Q346.7578,1403.25 347.1563,1403.25 Q347.8594,1403.25 348.3047,1403.6719 Q348.75,1404.0938 348.75,1405.0781 L348.75,1407.4219 Q348.75,1408.4063 348.3281,1408.8281 Q347.9063,1409.25 347.25,1409.25 Q346.6641,1409.25 346.2891,1408.9922 Q345.9141,1408.7344 345.75,1408.0547 Q345.6797,1407.5859 345.4219,1407.3281 Q344.9531,1406.8359 344.1094,1406.5547 Q343.2656,1406.25 342.4219,1406.25 Q341.3672,1406.25 340.4766,1406.6719 Q339.6094,1407.0938 338.9297,1408.0313 Q338.25,1408.9688 338.25,1410.2578 L338.25,1411.6406 Q338.25,1413.1875 339.5156,1414.2188 Q340.7813,1415.25 343.0313,1415.25 Q344.3672,1415.25 345.3047,1414.9453 Q345.8438,1414.7813 346.4531,1414.2422 Q346.8516,1413.9375 347.0625,1413.8438 Q347.2734,1413.75 347.5313,1413.75 Q348.0234,1413.75 348.375,1414.1484 Q348.75,1414.5234 348.75,1415.0625 Q348.75,1415.5781 348.2344,1416.1875 Q347.4844,1417.0781 346.2891,1417.5703 Q344.7188,1418.25 342.7969,1418.25 Q340.5469,1418.25 338.7422,1417.3594 Q337.2891,1416.6563 336.2578,1415.1328 Q335.25,1413.6094 335.25,1411.8047 L335.25,1410.1641 Q335.25,1408.2891 336.1406,1406.6484 Q337.0547,1405.0078 338.625,1404.1406 Q340.2188,1403.25 342,1403.25 Q343.0781,1403.25 344.0156,1403.625 Q344.9531,1404 345.75,1404.75 Z " fill="#000000"/><text fill="#000000" font-family="sans-serif" font-size="18" lengthAdjust="spacing" textLength="160.5" x="363.75" y="1417.3652">ParameterCategory</text><line style="stroke:#A80036;stroke-width:2.25;" x1="321.75" x2="527.25" y1="1434" y2="1434"/><text fill="#000000" font-family="sans-serif" font-size="16.5" lengthAdjust="spacing" textLength="42" x="329.25" y="1457.1284">-code</text><text fill="#000000" font-family="sans-serif" font-size="16.5" lengthAdjust="spacing" textLength="88.5" x="329.25" y="1477.8823">-designation</text><text fill="#000000" font-family="sans-serif" font-size="16.5" lengthAdjust="spacing" textLength="45" x="329.25" y="1498.6362">-nhsid</text><line style="stroke:#A80036;stroke-width:2.25;" x1="321.75" x2="527.25" y1="1508.2617" y2="1508.2617"/><!--MD5=[9d3dd688f78c4545f26622cd23f9dd25]
link CreateParameterUI to CreateParameterController--><path codeLine="50" d="M424.5,82.77 C424.5,105.885 424.5,137.13 424.5,165.675 " fill="none" id="CreateParameterUI-to-CreateParameterController" style="stroke:#A80036;stroke-width:1.5;"/><polygon fill="#A80036" points="424.5,173.64,430.5,160.14,424.5,166.14,418.5,160.14,424.5,173.64" style="stroke:#A80036;stroke-width:1.5;"/><!--MD5=[6d585fb02c26694275539b4f1508918e]
link CreateParameterController to Company--><path codeLine="51" d="M424.5,309.12 C424.5,334.32 424.5,363.84 424.5,392.295 " fill="none" id="CreateParameterController-to-Company" style="stroke:#A80036;stroke-width:1.5;"/><polygon fill="#A80036" points="424.5,400.29,430.5,386.79,424.5,392.79,418.5,386.79,424.5,400.29" style="stroke:#A80036;stroke-width:1.5;"/><!--MD5=[daf3d7412afa2c7651483be0b6e971d1]
link Company to ParameterStore--><path codeLine="52" d="M367.485,618.045 C348.45,653.865 327.405,693.465 308.985,728.13 " fill="none" id="Company-to-ParameterStore" style="stroke:#A80036;stroke-width:1.5;"/><polygon fill="#A80036" points="305.34,734.985,316.9687,725.8733,308.8561,728.3602,306.3691,720.2476,305.34,734.985" style="stroke:#A80036;stroke-width:1.5;"/><text fill="#000000" font-family="sans-serif" font-size="19.5" lengthAdjust="spacing" textLength="42" x="343.5" y="684.7427">uses</text><text fill="#000000" font-family="sans-serif" font-size="19.5" lengthAdjust="spacing" textLength="10.5" x="351.0504" y="649.8367">1</text><text fill="#000000" font-family="sans-serif" font-size="19.5" lengthAdjust="spacing" textLength="10.5" x="300.0406" y="718.4618">1</text><!--MD5=[d53d7490e5836ca5709858d7326f212b]
link Company to ParameterCategoryStore--><path codeLine="53" d="M484.38,618.33 C502.515,654.525 521.04,695.7 534,735 C557.43,806.085 571.11,891.225 578.295,947.97 " fill="none" id="Company-to-ParameterCategoryStore" style="stroke:#A80036;stroke-width:1.5;"/><polygon fill="#A80036" points="579.225,955.44,583.5192,941.3046,578.3027,947.9969,571.6103,942.7803,579.225,955.44" style="stroke:#A80036;stroke-width:1.5;"/><text fill="#000000" font-family="sans-serif" font-size="19.5" lengthAdjust="spacing" textLength="42" x="519" y="684.7427">uses</text><text fill="#000000" font-family="sans-serif" font-size="19.5" lengthAdjust="spacing" textLength="10.5" x="479.0869" y="650.1489">1</text><text fill="#000000" font-family="sans-serif" font-size="19.5" lengthAdjust="spacing" textLength="10.5" x="566.6923" y="939.0437">1</text><!--MD5=[a0992dda039fed1bb57aff5aacace800]
link ParameterStore to Parameter--><path codeLine="54" d="M249.315,910.995 C247.935,925.815 246.735,941.085 246,955.5 C243.405,1006.095 242.25,1018.965 246,1069.5 C246.9,1081.575 248.295,1094.28 249.915,1106.73 " fill="none" id="ParameterStore-to-Parameter" style="stroke:#A80036;stroke-width:1.5;"/><polygon fill="#A80036" points="250.95,1114.44,255.1239,1100.2686,249.9644,1107.005,243.2279,1101.8456,250.95,1114.44" style="stroke:#A80036;stroke-width:1.5;"/><text fill="#000000" font-family="sans-serif" font-size="19.5" lengthAdjust="spacing" textLength="180" x="247.5" y="1020.7427">Capable of analyzing</text><!--MD5=[d6274e3b73b5bc8f467c6cfbf5bf003e]
link ParameterCategoryStore to ParameterCategory--><path codeLine="55" d="M579.165,1069.545 C570.525,1136.52 550.605,1251.27 508.5,1341 C502.44,1353.915 494.7,1366.785 486.39,1378.935 " fill="none" id="ParameterCategoryStore-to-ParameterCategory" style="stroke:#A80036;stroke-width:1.5;"/><polygon fill="#A80036" points="481.71,1385.61,494.3689,1377.9941,486.0124,1379.4668,484.5397,1371.1103,481.71,1385.61" style="stroke:#A80036;stroke-width:1.5;"/><text fill="#000000" font-family="sans-serif" font-size="19.5" lengthAdjust="spacing" textLength="58.5" x="574.5" y="1199.9927">adopts</text><text fill="#000000" font-family="sans-serif" font-size="19.5" lengthAdjust="spacing" textLength="10.5" x="566.829" y="1101.3077">1</text><text fill="#000000" font-family="sans-serif" font-size="19.5" lengthAdjust="spacing" textLength="7.5" x="482.3961" y="1369.7164">*</text><!--MD5=[6df8849671cb880f6936e94aa30db6f9]
link Parameter to ParameterCategory--><path codeLine="56" d="M311.28,1269.48 C332.79,1304.145 358.11,1344.96 379.335,1379.19 " fill="none" id="Parameter-to-ParameterCategory" style="stroke:#A80036;stroke-width:1.5;"/><polygon fill="#A80036" points="383.535,1385.955,381.5257,1371.319,379.5851,1379.5794,371.3247,1377.6388,383.535,1385.955" style="stroke:#A80036;stroke-width:1.5;"/><text fill="#000000" font-family="sans-serif" font-size="19.5" lengthAdjust="spacing" textLength="139.5" x="355.5" y="1335.7427">presented under</text><text fill="#000000" font-family="sans-serif" font-size="19.5" lengthAdjust="spacing" textLength="10.5" x="306.4278" y="1301.7809">1</text><text fill="#000000" font-family="sans-serif" font-size="19.5" lengthAdjust="spacing" textLength="7.5" x="368.9085" y="1369.621">*</text><!--MD5=[b597ce07810aebb7dcd16f36f2badfc9]
@startuml
skinparam classAttributeIconSize 0

class CreateParameterUI{
}

class CreateParameterController{
+getParameterCategories()
+createParameter(code,designation,description,selectedCategory)
+saveParameter()
}

class Company{
-String name
-String designation
-category
-address
-headquarters
- -
+getParameterStore()
+getParameterCategoryStore()
}

class ParameterStore {
+createParameter(code,designation,description,selectedCategory)
+validateParameter(p)
+saveParameter(p)
+getParameterByCode(p)
+getParameterByCategory(p)
}

class ParameterCategoryStore {
+getParameterCategories()
+getParameterCategoryByCode()
}

class Parameter{
- int code
- String designation
- String description
+ create(code,designation,description,selectedCategory)
}

class ParameterCategory{
- code
- designation
- nhsid
}


CreateParameterUI - -> CreateParameterController
CreateParameterController - -> Company
Company "1" - -> "1" ParameterStore : uses
Company "1" - -> "1" ParameterCategoryStore : uses
ParameterStore - -> Parameter : Capable of analyzing
ParameterCategoryStore "1" - -> "*" ParameterCategory : adopts
Parameter "1" - -> "*" ParameterCategory : presented under

@enduml

PlantUML version 1.2021.4(Sun Apr 04 09:49:39 BST 2021)
(GPL source distribution)
Java Runtime: OpenJDK Runtime Environment
JVM: OpenJDK 64-Bit Server VM
Default Encoding: Cp1252
Language: pt
Country: PT
--></g></svg>