<?xml version="1.0" encoding="UTF-8" standalone="no"?><svg xmlns="http://www.w3.org/2000/svg" xmlns:xlink="http://www.w3.org/1999/xlink" contentScriptType="application/ecmascript" contentStyleType="text/css" height="352.5px" preserveAspectRatio="none" style="width:1414px;height:352px;" version="1.1" viewBox="0 0 1414 352" width="1414.5px" zoomAndPan="magnify"><defs><filter height="300%" id="f1d6qfpclph7bq" width="300%" x="-1" y="-1"><feGaussianBlur result="blurOut" stdDeviation="3.0"/><feColorMatrix in="blurOut" result="blurOut2" type="matrix" values="0 0 0 0 0 0 0 0 0 0 0 0 0 0 0 0 0 0 .4 0"/><feOffset dx="6.0" dy="6.0" in="blurOut2" result="blurOut3"/><feBlend in="SourceGraphic" in2="blurOut3" mode="normal"/></filter></defs><g><!--MD5=[02e4b9b7573f1156f41e60aa5b4e25a4]
class Company--><rect codeLine="19" fill="#FEFECE" filter="url(#f1d6qfpclph7bq)" height="163.7695" id="Company" style="stroke:#A80036;stroke-width:2.25;" width="136.5" x="10.5" y="131.25"/><ellipse cx="37.05" cy="155.25" fill="#ADD1B2" rx="16.5" ry="16.5" style="stroke:#A80036;stroke-width:1.5;"/><path d="M40.05,150 Q40.3547,149.25 40.7063,148.875 Q41.0578,148.5 41.4563,148.5 Q42.1594,148.5 42.6047,148.9219 Q43.05,149.3438 43.05,150.3281 L43.05,152.6719 Q43.05,153.6563 42.6281,154.0781 Q42.2063,154.5 41.55,154.5 Q40.9641,154.5 40.5891,154.2422 Q40.2141,153.9844 40.05,153.3047 Q39.9797,152.8359 39.7219,152.5781 Q39.2531,152.0859 38.4094,151.8047 Q37.5656,151.5 36.7219,151.5 Q35.6672,151.5 34.7766,151.9219 Q33.9094,152.3438 33.2297,153.2813 Q32.55,154.2188 32.55,155.5078 L32.55,156.8906 Q32.55,158.4375 33.8156,159.4688 Q35.0813,160.5 37.3313,160.5 Q38.6672,160.5 39.6047,160.1953 Q40.1438,160.0313 40.7531,159.4922 Q41.1516,159.1875 41.3625,159.0938 Q41.5734,159 41.8313,159 Q42.3234,159 42.675,159.3984 Q43.05,159.7734 43.05,160.3125 Q43.05,160.8281 42.5344,161.4375 Q41.7844,162.3281 40.5891,162.8203 Q39.0188,163.5 37.0969,163.5 Q34.8469,163.5 33.0422,162.6094 Q31.5891,161.9063 30.5578,160.3828 Q29.55,158.8594 29.55,157.0547 L29.55,155.4141 Q29.55,153.5391 30.4406,151.8984 Q31.3547,150.2578 32.925,149.3906 Q34.5188,148.5 36.3,148.5 Q37.3781,148.5 38.3156,148.875 Q39.2531,149.25 40.05,150 Z " fill="#000000"/><text fill="#000000" font-family="sans-serif" font-size="18" lengthAdjust="spacing" textLength="79.5" x="58.95" y="162.6152">Company</text><line style="stroke:#A80036;stroke-width:2.25;" x1="12" x2="145.5" y1="179.25" y2="179.25"/><rect fill="none" height="9" style="stroke:#C82930;stroke-width:1.5;" width="9" x="22.5" y="191.25"/><text fill="#000000" font-family="sans-serif" font-size="16.5" lengthAdjust="spacing" textLength="39" x="40.5" y="202.3784">name</text><rect fill="none" height="9" style="stroke:#C82930;stroke-width:1.5;" width="9" x="22.5" y="212.0039"/><text fill="#000000" font-family="sans-serif" font-size="16.5" lengthAdjust="spacing" textLength="82.5" x="40.5" y="223.1323">designation</text><rect fill="none" height="9" style="stroke:#C82930;stroke-width:1.5;" width="9" x="22.5" y="232.7578"/><text fill="#000000" font-family="sans-serif" font-size="16.5" lengthAdjust="spacing" textLength="64.5" x="40.5" y="243.8862">category</text><rect fill="none" height="9" style="stroke:#C82930;stroke-width:1.5;" width="9" x="22.5" y="253.5117"/><text fill="#000000" font-family="sans-serif" font-size="16.5" lengthAdjust="spacing" textLength="60" x="40.5" y="264.6401">address</text><rect fill="none" height="9" style="stroke:#C82930;stroke-width:1.5;" width="9" x="22.5" y="274.2656"/><text fill="#000000" font-family="sans-serif" font-size="16.5" lengthAdjust="spacing" textLength="97.5" x="40.5" y="285.394">headquarters</text><!--MD5=[1f6362a5c8f21d8d6a0fce68f3a92a4e]
class Parameter--><rect codeLine="27" fill="#FEFECE" filter="url(#f1d6qfpclph7bq)" height="122.2617" id="Parameter" style="stroke:#A80036;stroke-width:2.25;" width="135" x="436.5" y="10.5"/><ellipse cx="459" cy="34.5" fill="#ADD1B2" rx="16.5" ry="16.5" style="stroke:#A80036;stroke-width:1.5;"/><path d="M462,29.25 Q462.3047,28.5 462.6563,28.125 Q463.0078,27.75 463.4063,27.75 Q464.1094,27.75 464.5547,28.1719 Q465,28.5938 465,29.5781 L465,31.9219 Q465,32.9063 464.5781,33.3281 Q464.1563,33.75 463.5,33.75 Q462.9141,33.75 462.5391,33.4922 Q462.1641,33.2344 462,32.5547 Q461.9297,32.0859 461.6719,31.8281 Q461.2031,31.3359 460.3594,31.0547 Q459.5156,30.75 458.6719,30.75 Q457.6172,30.75 456.7266,31.1719 Q455.8594,31.5938 455.1797,32.5313 Q454.5,33.4688 454.5,34.7578 L454.5,36.1406 Q454.5,37.6875 455.7656,38.7188 Q457.0313,39.75 459.2813,39.75 Q460.6172,39.75 461.5547,39.4453 Q462.0938,39.2813 462.7031,38.7422 Q463.1016,38.4375 463.3125,38.3438 Q463.5234,38.25 463.7813,38.25 Q464.2734,38.25 464.625,38.6484 Q465,39.0234 465,39.5625 Q465,40.0781 464.4844,40.6875 Q463.7344,41.5781 462.5391,42.0703 Q460.9688,42.75 459.0469,42.75 Q456.7969,42.75 454.9922,41.8594 Q453.5391,41.1563 452.5078,39.6328 Q451.5,38.1094 451.5,36.3047 L451.5,34.6641 Q451.5,32.7891 452.3906,31.1484 Q453.3047,29.5078 454.875,28.6406 Q456.4688,27.75 458.25,27.75 Q459.3281,27.75 460.2656,28.125 Q461.2031,28.5 462,29.25 Z " fill="#000000"/><text fill="#000000" font-family="sans-serif" font-size="18" lengthAdjust="spacing" textLength="87" x="480" y="41.8652">Parameter</text><line style="stroke:#A80036;stroke-width:2.25;" x1="438" x2="570" y1="58.5" y2="58.5"/><rect fill="none" height="9" style="stroke:#C82930;stroke-width:1.5;" width="9" x="448.5" y="70.5"/><text fill="#000000" font-family="sans-serif" font-size="16.5" lengthAdjust="spacing" textLength="36" x="466.5" y="81.6284">code</text><rect fill="none" height="9" style="stroke:#C82930;stroke-width:1.5;" width="9" x="448.5" y="91.2539"/><text fill="#000000" font-family="sans-serif" font-size="16.5" lengthAdjust="spacing" textLength="78" x="466.5" y="102.3823">shortName</text><rect fill="none" height="9" style="stroke:#C82930;stroke-width:1.5;" width="9" x="448.5" y="112.0078"/><text fill="#000000" font-family="sans-serif" font-size="16.5" lengthAdjust="spacing" textLength="79.5" x="466.5" y="123.1362">description</text><!--MD5=[36afb6bbd95a8ac778c4537c55a683d5]
class ParameterCategory--><rect codeLine="33" fill="#FEFECE" filter="url(#f1d6qfpclph7bq)" height="122.2617" id="ParameterCategory" style="stroke:#A80036;stroke-width:2.25;" width="208.5" x="823.5" y="142.5"/><ellipse cx="846" cy="166.5" fill="#ADD1B2" rx="16.5" ry="16.5" style="stroke:#A80036;stroke-width:1.5;"/><path d="M849,161.25 Q849.3047,160.5 849.6563,160.125 Q850.0078,159.75 850.4063,159.75 Q851.1094,159.75 851.5547,160.1719 Q852,160.5938 852,161.5781 L852,163.9219 Q852,164.9063 851.5781,165.3281 Q851.1563,165.75 850.5,165.75 Q849.9141,165.75 849.5391,165.4922 Q849.1641,165.2344 849,164.5547 Q848.9297,164.0859 848.6719,163.8281 Q848.2031,163.3359 847.3594,163.0547 Q846.5156,162.75 845.6719,162.75 Q844.6172,162.75 843.7266,163.1719 Q842.8594,163.5938 842.1797,164.5313 Q841.5,165.4688 841.5,166.7578 L841.5,168.1406 Q841.5,169.6875 842.7656,170.7188 Q844.0313,171.75 846.2813,171.75 Q847.6172,171.75 848.5547,171.4453 Q849.0938,171.2813 849.7031,170.7422 Q850.1016,170.4375 850.3125,170.3438 Q850.5234,170.25 850.7813,170.25 Q851.2734,170.25 851.625,170.6484 Q852,171.0234 852,171.5625 Q852,172.0781 851.4844,172.6875 Q850.7344,173.5781 849.5391,174.0703 Q847.9688,174.75 846.0469,174.75 Q843.7969,174.75 841.9922,173.8594 Q840.5391,173.1563 839.5078,171.6328 Q838.5,170.1094 838.5,168.3047 L838.5,166.6641 Q838.5,164.7891 839.3906,163.1484 Q840.3047,161.5078 841.875,160.6406 Q843.4688,159.75 845.25,159.75 Q846.3281,159.75 847.2656,160.125 Q848.2031,160.5 849,161.25 Z " fill="#000000"/><text fill="#000000" font-family="sans-serif" font-size="18" lengthAdjust="spacing" textLength="160.5" x="867" y="173.8652">ParameterCategory</text><line style="stroke:#A80036;stroke-width:2.25;" x1="825" x2="1030.5" y1="190.5" y2="190.5"/><rect fill="none" height="9" style="stroke:#C82930;stroke-width:1.5;" width="9" x="835.5" y="202.5"/><text fill="#000000" font-family="sans-serif" font-size="16.5" lengthAdjust="spacing" textLength="36" x="853.5" y="213.6284">code</text><rect fill="none" height="9" style="stroke:#C82930;stroke-width:1.5;" width="9" x="835.5" y="223.2539"/><text fill="#000000" font-family="sans-serif" font-size="16.5" lengthAdjust="spacing" textLength="79.5" x="853.5" y="234.3823">description</text><rect fill="none" height="9" style="stroke:#C82930;stroke-width:1.5;" width="9" x="835.5" y="244.0078"/><text fill="#000000" font-family="sans-serif" font-size="16.5" lengthAdjust="spacing" textLength="39" x="853.5" y="255.1362">nhsid</text><!--MD5=[da547346deef918ea16944ba046651ef]
class Administrator--><rect codeLine="8" fill="#FEFECE" filter="url(#f1d6qfpclph7bq)" height="60" id="Administrator" style="stroke:#A80036;stroke-width:2.25;" width="157.5" x="1236" y="271.5"/><ellipse cx="1258.5" cy="295.5" fill="#ADD1B2" rx="16.5" ry="16.5" style="stroke:#A80036;stroke-width:1.5;"/><path d="M1261.5,290.25 Q1261.8047,289.5 1262.1563,289.125 Q1262.5078,288.75 1262.9063,288.75 Q1263.6094,288.75 1264.0547,289.1719 Q1264.5,289.5938 1264.5,290.5781 L1264.5,292.9219 Q1264.5,293.9063 1264.0781,294.3281 Q1263.6563,294.75 1263,294.75 Q1262.4141,294.75 1262.0391,294.4922 Q1261.6641,294.2344 1261.5,293.5547 Q1261.4297,293.0859 1261.1719,292.8281 Q1260.7031,292.3359 1259.8594,292.0547 Q1259.0156,291.75 1258.1719,291.75 Q1257.1172,291.75 1256.2266,292.1719 Q1255.3594,292.5938 1254.6797,293.5313 Q1254,294.4688 1254,295.7578 L1254,297.1406 Q1254,298.6875 1255.2656,299.7188 Q1256.5313,300.75 1258.7813,300.75 Q1260.1172,300.75 1261.0547,300.4453 Q1261.5938,300.2813 1262.2031,299.7422 Q1262.6016,299.4375 1262.8125,299.3438 Q1263.0234,299.25 1263.2813,299.25 Q1263.7734,299.25 1264.125,299.6484 Q1264.5,300.0234 1264.5,300.5625 Q1264.5,301.0781 1263.9844,301.6875 Q1263.2344,302.5781 1262.0391,303.0703 Q1260.4688,303.75 1258.5469,303.75 Q1256.2969,303.75 1254.4922,302.8594 Q1253.0391,302.1563 1252.0078,300.6328 Q1251,299.1094 1251,297.3047 L1251,295.6641 Q1251,293.7891 1251.8906,292.1484 Q1252.8047,290.5078 1254.375,289.6406 Q1255.9688,288.75 1257.75,288.75 Q1258.8281,288.75 1259.7656,289.125 Q1260.7031,289.5 1261.5,290.25 Z " fill="#000000"/><text fill="#000000" font-family="sans-serif" font-size="18" lengthAdjust="spacing" textLength="109.5" x="1279.5" y="302.8652">Administrator</text><line style="stroke:#A80036;stroke-width:2.25;" x1="1237.5" x2="1392" y1="319.5" y2="319.5"/><!--MD5=[12d76240d3c3c66074d4ec2ea8bf469c]
link Company to Parameter--><path codeLine="10" d="M147.555,189.285 C162.18,184.2 177.6,178.875 192,174 C276.105,145.515 373.425,113.73 436.365,93.345 " fill="none" id="Company-Parameter" style="stroke:#A80036;stroke-width:1.5;"/><polygon fill="#000000" points="206.6176,95.3993,192.352,95.4929,195.1315,103.8601,206.6176,95.3993" style="stroke:#000000;stroke-width:1.5;"/><text fill="#000000" font-family="sans-serif" font-size="19.5" lengthAdjust="spacing" textLength="177" x="213" y="105.7427">capable of analyzing</text><!--MD5=[93b4f25fb503a8e0e9a46b1d30ff3f44]
link Company to ParameterCategory--><path codeLine="11" d="M147.345,212.28 C294.675,210.72 647.34,206.97 823.08,205.095 " fill="none" id="Company-ParameterCategory" style="stroke:#A80036;stroke-width:1.5;"/><polygon fill="#000000" points="478.4996,195.1839,464.8858,190.92,464.9796,199.7363,478.4996,195.1839" style="stroke:#000000;stroke-width:1.5;"/><text fill="#000000" font-family="sans-serif" font-size="19.5" lengthAdjust="spacing" textLength="58.5" x="484.5" y="203.2427">adopts</text><!--MD5=[eaea43e34e45c5b9d20b595fc78f1f20]
link Company to Administrator--><path codeLine="12" d="M147.03,220.17 C161.835,221.76 177.45,223.44 192,225 C472.665,255.075 541.785,274.89 823.5,292.5 C969.06,301.605 1139.385,302.55 1235.97,302.175 " fill="none" id="Company-Administrator" style="stroke:#A80036;stroke-width:1.5;"/><polygon fill="#000000" points="673.4788,263.3269,660.2806,257.9121,659.6185,266.704,673.4788,263.3269" style="stroke:#000000;stroke-width:1.5;"/><text fill="#000000" font-family="sans-serif" font-size="19.5" lengthAdjust="spacing" textLength="55.5" x="679.5" y="270.7427">knows</text><!--MD5=[6df8849671cb880f6936e94aa30db6f9]
link Parameter to ParameterCategory--><path codeLine="14" d="M571.71,92.775 C639.165,113.94 744.735,147.06 823.155,171.66 " fill="none" id="Parameter-ParameterCategory" style="stroke:#A80036;stroke-width:1.5;"/><polygon fill="#000000" points="631.1561,97.0087,619.5302,88.7411,616.891,97.1536,631.1561,97.0087" style="stroke:#000000;stroke-width:1.5;"/><text fill="#000000" font-family="sans-serif" font-size="19.5" lengthAdjust="spacing" textLength="139.5" x="637.5" y="102.7427">presented under</text><!--MD5=[8fed49cf12a674e36a1de475622ee091]
link ParameterCategory to Administrator--><path codeLine="16" d="M1032.15,230.13 C1096.14,246.375 1177.08,266.925 1235.655,281.805 " fill="none" id="ParameterCategory-Administrator" style="stroke:#A80036;stroke-width:1.5;"/><polygon fill="#000000" points="1091.7693,233.1095,1079.704,225.4976,1077.534,234.0431,1091.7693,233.1095" style="stroke:#000000;stroke-width:1.5;"/><text fill="#000000" font-family="sans-serif" font-size="19.5" lengthAdjust="spacing" textLength="91.5" x="1098" y="239.2427">created by</text><!--MD5=[ca5ff9a33710dedbd84313666d4757eb]
@startuml
'https://plantuml.com/class-diagram
hide methods
left to right direction

class Company
class Parameter
class ParameterCategory
class Administrator

Company - - Parameter : capable of analyzing >
Company - - ParameterCategory : adopts >
Company - - Administrator : knows >

Parameter - - ParameterCategory : presented under >

ParameterCategory - - Administrator : created by >


class Company{
-name
-designation
-category
-address
-headquarters
}

class Parameter{
-code
-shortName
-description
}

class ParameterCategory{
-code
-description
-nhsid
}

@enduml

@startuml
hide methods
left to right direction

class Company
class Parameter
class ParameterCategory
class Administrator

Company - - Parameter : capable of analyzing >
Company - - ParameterCategory : adopts >
Company - - Administrator : knows >

Parameter - - ParameterCategory : presented under >

ParameterCategory - - Administrator : created by >


class Company{
-name
-designation
-category
-address
-headquarters
}

class Parameter{
-code
-shortName
-description
}

class ParameterCategory{
-code
-description
-nhsid
}

@enduml

PlantUML version 1.2021.4(Sun Apr 04 09:49:39 BST 2021)
(GPL source distribution)
Java Runtime: OpenJDK Runtime Environment
JVM: OpenJDK 64-Bit Server VM
Default Encoding: Cp1252
Language: pt
Country: PT
--></g></svg>