<?xml version="1.0" encoding="UTF-8" standalone="no"?><svg xmlns="http://www.w3.org/2000/svg" xmlns:xlink="http://www.w3.org/1999/xlink" contentScriptType="application/ecmascript" contentStyleType="text/css" height="796.8px" preserveAspectRatio="none" style="width:400px;height:796px;" version="1.1" viewBox="0 0 400 796" width="400.8px" zoomAndPan="magnify"><defs><filter height="300%" id="f1vxcb4glccfwd" width="300%" x="-1" y="-1"><feGaussianBlur result="blurOut" stdDeviation="2.4"/><feColorMatrix in="blurOut" result="blurOut2" type="matrix" values="0 0 0 0 0 0 0 0 0 0 0 0 0 0 0 0 0 0 .4 0"/><feOffset dx="4.8" dy="4.8" in="blurOut2" result="blurOut3"/><feBlend in="SourceGraphic" in2="blurOut3" mode="normal"/></filter></defs><g><!--MD5=[02e4b9b7573f1156f41e60aa5b4e25a4]
class Company--><rect codeLine="19" fill="#FEFECE" filter="url(#f1vxcb4glccfwd)" height="131.0156" id="Company" style="stroke:#A80036;stroke-width:1.7999999999999998;" width="102" x="184.2" y="8.4"/><ellipse cx="202.2" cy="27.6" fill="#ADD1B2" rx="13.2" ry="13.2" style="stroke:#A80036;stroke-width:1.2;"/><path d="M204.6,23.4 Q204.8438,22.8 205.125,22.5 Q205.4063,22.2 205.725,22.2 Q206.2875,22.2 206.6437,22.5375 Q207,22.875 207,23.6625 L207,25.5375 Q207,26.325 206.6625,26.6625 Q206.325,27 205.8,27 Q205.3312,27 205.0313,26.7938 Q204.7313,26.5875 204.6,26.0438 Q204.5438,25.6688 204.3375,25.4625 Q203.9625,25.0687 203.2875,24.8438 Q202.6125,24.6 201.9375,24.6 Q201.0938,24.6 200.3813,24.9375 Q199.6875,25.275 199.1437,26.025 Q198.6,26.775 198.6,27.8063 L198.6,28.9125 Q198.6,30.15 199.6125,30.975 Q200.625,31.8 202.425,31.8 Q203.4938,31.8 204.2438,31.5563 Q204.675,31.425 205.1625,30.9938 Q205.4813,30.75 205.65,30.675 Q205.8188,30.6 206.025,30.6 Q206.4188,30.6 206.7,30.9188 Q207,31.2188 207,31.65 Q207,32.0625 206.5875,32.55 Q205.9875,33.2625 205.0313,33.6563 Q203.775,34.2 202.2375,34.2 Q200.4375,34.2 198.9938,33.4875 Q197.8312,32.925 197.0063,31.7062 Q196.2,30.4875 196.2,29.0438 L196.2,27.7313 Q196.2,26.2313 196.9125,24.9188 Q197.6437,23.6063 198.9,22.9125 Q200.175,22.2 201.6,22.2 Q202.4625,22.2 203.2125,22.5 Q203.9625,22.8 204.6,23.4 Z " fill="#000000"/><text fill="#000000" font-family="sans-serif" font-size="14.4" lengthAdjust="spacing" textLength="63.6" x="219" y="33.4922">Company</text><line style="stroke:#A80036;stroke-width:1.7999999999999998;" x1="185.4" x2="285" y1="46.8" y2="46.8"/><text fill="#000000" font-family="sans-serif" font-size="13.2" lengthAdjust="spacing" textLength="36" x="191.4" y="65.3027">-name</text><text fill="#000000" font-family="sans-serif" font-size="13.2" lengthAdjust="spacing" textLength="70.8" x="191.4" y="81.9059">-designation</text><text fill="#000000" font-family="sans-serif" font-size="13.2" lengthAdjust="spacing" textLength="56.4" x="191.4" y="98.509">-category</text><text fill="#000000" font-family="sans-serif" font-size="13.2" lengthAdjust="spacing" textLength="52.8" x="191.4" y="115.1121">-address</text><text fill="#000000" font-family="sans-serif" font-size="13.2" lengthAdjust="spacing" textLength="82.8" x="191.4" y="131.7152">-headquarters</text><!--MD5=[1f6362a5c8f21d8d6a0fce68f3a92a4e]
class Parameter--><rect codeLine="27" fill="#FEFECE" filter="url(#f1vxcb4glccfwd)" height="97.8094" id="Parameter" style="stroke:#A80036;stroke-width:1.7999999999999998;" width="108" x="8.4" y="232.8"/><ellipse cx="26.4" cy="252" fill="#ADD1B2" rx="13.2" ry="13.2" style="stroke:#A80036;stroke-width:1.2;"/><path d="M28.8,247.8 Q29.0438,247.2 29.325,246.9 Q29.6063,246.6 29.925,246.6 Q30.4875,246.6 30.8438,246.9375 Q31.2,247.275 31.2,248.0625 L31.2,249.9375 Q31.2,250.725 30.8625,251.0625 Q30.525,251.4 30,251.4 Q29.5313,251.4 29.2313,251.1938 Q28.9313,250.9875 28.8,250.4438 Q28.7438,250.0688 28.5375,249.8625 Q28.1625,249.4688 27.4875,249.2437 Q26.8125,249 26.1375,249 Q25.2938,249 24.5813,249.3375 Q23.8875,249.675 23.3438,250.425 Q22.8,251.175 22.8,252.2062 L22.8,253.3125 Q22.8,254.55 23.8125,255.375 Q24.825,256.2 26.625,256.2 Q27.6937,256.2 28.4437,255.9562 Q28.875,255.825 29.3625,255.3937 Q29.6813,255.15 29.85,255.075 Q30.0187,255 30.225,255 Q30.6188,255 30.9,255.3188 Q31.2,255.6187 31.2,256.05 Q31.2,256.4625 30.7875,256.95 Q30.1875,257.6625 29.2313,258.0563 Q27.975,258.6 26.4375,258.6 Q24.6375,258.6 23.1937,257.8875 Q22.0313,257.325 21.2063,256.1063 Q20.4,254.8875 20.4,253.4438 L20.4,252.1313 Q20.4,250.6313 21.1125,249.3188 Q21.8438,248.0063 23.1,247.3125 Q24.375,246.6 25.8,246.6 Q26.6625,246.6 27.4125,246.9 Q28.1625,247.2 28.8,247.8 Z " fill="#000000"/><text fill="#000000" font-family="sans-serif" font-size="14.4" lengthAdjust="spacing" textLength="69.6" x="43.2" y="257.8922">Parameter</text><line style="stroke:#A80036;stroke-width:1.7999999999999998;" x1="9.6" x2="115.2" y1="271.2" y2="271.2"/><text fill="#000000" font-family="sans-serif" font-size="13.2" lengthAdjust="spacing" textLength="33.6" x="15.6" y="289.7027">-code</text><text fill="#000000" font-family="sans-serif" font-size="13.2" lengthAdjust="spacing" textLength="70.8" x="15.6" y="306.3059">-designation</text><text fill="#000000" font-family="sans-serif" font-size="13.2" lengthAdjust="spacing" textLength="68.4" x="15.6" y="322.909">-description</text><!--MD5=[36afb6bbd95a8ac778c4537c55a683d5]
class ParameterCategory--><rect codeLine="33" fill="#FEFECE" filter="url(#f1vxcb4glccfwd)" height="97.8094" id="ParameterCategory" style="stroke:#A80036;stroke-width:1.7999999999999998;" width="166.8" x="132.6" y="424.8"/><ellipse cx="150.6" cy="444" fill="#ADD1B2" rx="13.2" ry="13.2" style="stroke:#A80036;stroke-width:1.2;"/><path d="M153,439.8 Q153.2438,439.2 153.525,438.9 Q153.8063,438.6 154.125,438.6 Q154.6875,438.6 155.0438,438.9375 Q155.4,439.275 155.4,440.0625 L155.4,441.9375 Q155.4,442.725 155.0625,443.0625 Q154.725,443.4 154.2,443.4 Q153.7313,443.4 153.4313,443.1937 Q153.1313,442.9875 153,442.4437 Q152.9438,442.0687 152.7375,441.8625 Q152.3625,441.4688 151.6875,441.2438 Q151.0125,441 150.3375,441 Q149.4938,441 148.7813,441.3375 Q148.0875,441.675 147.5438,442.425 Q147,443.175 147,444.2063 L147,445.3125 Q147,446.55 148.0125,447.375 Q149.025,448.2 150.825,448.2 Q151.8937,448.2 152.6437,447.9563 Q153.075,447.825 153.5625,447.3938 Q153.8813,447.15 154.05,447.075 Q154.2188,447 154.425,447 Q154.8188,447 155.1,447.3187 Q155.4,447.6188 155.4,448.05 Q155.4,448.4625 154.9875,448.95 Q154.3875,449.6625 153.4313,450.0563 Q152.175,450.6 150.6375,450.6 Q148.8375,450.6 147.3937,449.8875 Q146.2313,449.325 145.4063,448.1063 Q144.6,446.8875 144.6,445.4437 L144.6,444.1312 Q144.6,442.6312 145.3125,441.3187 Q146.0438,440.0062 147.3,439.3125 Q148.575,438.6 150,438.6 Q150.8625,438.6 151.6125,438.9 Q152.3625,439.2 153,439.8 Z " fill="#000000"/><text fill="#000000" font-family="sans-serif" font-size="14.4" lengthAdjust="spacing" textLength="128.4" x="167.4" y="449.8922">ParameterCategory</text><line style="stroke:#A80036;stroke-width:1.7999999999999998;" x1="133.8" x2="298.2" y1="463.2" y2="463.2"/><text fill="#000000" font-family="sans-serif" font-size="13.2" lengthAdjust="spacing" textLength="33.6" x="139.8" y="481.7027">-code</text><text fill="#000000" font-family="sans-serif" font-size="13.2" lengthAdjust="spacing" textLength="68.4" x="139.8" y="498.3059">-description</text><text fill="#000000" font-family="sans-serif" font-size="13.2" lengthAdjust="spacing" textLength="36" x="139.8" y="514.909">-nhsid</text><!--MD5=[da547346deef918ea16944ba046651ef]
class Administrator--><rect codeLine="39" fill="#FEFECE" filter="url(#f1vxcb4glccfwd)" height="164.2219" id="Administrator" style="stroke:#A80036;stroke-width:1.7999999999999998;" width="126" x="226.2" y="616.8"/><ellipse cx="244.2" cy="636" fill="#ADD1B2" rx="13.2" ry="13.2" style="stroke:#A80036;stroke-width:1.2;"/><path d="M246.6,631.8 Q246.8438,631.2 247.125,630.9 Q247.4063,630.6 247.725,630.6 Q248.2875,630.6 248.6437,630.9375 Q249,631.275 249,632.0625 L249,633.9375 Q249,634.725 248.6625,635.0625 Q248.325,635.4 247.8,635.4 Q247.3312,635.4 247.0313,635.1938 Q246.7313,634.9875 246.6,634.4438 Q246.5438,634.0688 246.3375,633.8625 Q245.9625,633.4688 245.2875,633.2438 Q244.6125,633 243.9375,633 Q243.0938,633 242.3813,633.3375 Q241.6875,633.675 241.1437,634.425 Q240.6,635.175 240.6,636.2063 L240.6,637.3125 Q240.6,638.55 241.6125,639.375 Q242.625,640.2 244.425,640.2 Q245.4937,640.2 246.2437,639.9563 Q246.675,639.825 247.1625,639.3938 Q247.4813,639.15 247.65,639.075 Q247.8188,639 248.025,639 Q248.4188,639 248.7,639.3188 Q249,639.6188 249,640.05 Q249,640.4625 248.5875,640.95 Q247.9875,641.6625 247.0313,642.0563 Q245.775,642.6 244.2375,642.6 Q242.4375,642.6 240.9937,641.8875 Q239.8312,641.325 239.0063,640.1062 Q238.2,638.8875 238.2,637.4438 L238.2,636.1313 Q238.2,634.6313 238.9125,633.3188 Q239.6437,632.0063 240.9,631.3125 Q242.175,630.6 243.6,630.6 Q244.4625,630.6 245.2125,630.9 Q245.9625,631.2 246.6,631.8 Z " fill="#000000"/><text fill="#000000" font-family="sans-serif" font-size="14.4" lengthAdjust="spacing" textLength="87.6" x="261" y="641.8922">Administrator</text><line style="stroke:#A80036;stroke-width:1.7999999999999998;" x1="227.4" x2="351" y1="655.2" y2="655.2"/><text fill="#000000" font-family="sans-serif" font-size="13.2" lengthAdjust="spacing" textLength="36" x="233.4" y="673.7027">-name</text><text fill="#000000" font-family="sans-serif" font-size="13.2" lengthAdjust="spacing" textLength="52.8" x="233.4" y="690.3059">-address</text><text fill="#000000" font-family="sans-serif" font-size="13.2" lengthAdjust="spacing" textLength="85.2" x="233.4" y="706.909">-phoneNumber</text><text fill="#000000" font-family="sans-serif" font-size="13.2" lengthAdjust="spacing" textLength="33.6" x="233.4" y="723.5121">-email</text><text fill="#000000" font-family="sans-serif" font-size="13.2" lengthAdjust="spacing" textLength="69.6" x="233.4" y="740.1152">-employeeId</text><text fill="#000000" font-family="sans-serif" font-size="13.2" lengthAdjust="spacing" textLength="100.8" x="233.4" y="756.7184">-organizationRole</text><text fill="#000000" font-family="sans-serif" font-size="13.2" lengthAdjust="spacing" textLength="56.4" x="233.4" y="773.3215">-socCode</text><!--MD5=[12d76240d3c3c66074d4ec2ea8bf469c]
link Company to Parameter--><path codeLine="10" d="M183.984,86.184 C138.42,99.132 74.496,125.412 44.4,175.2 C34.104,192.228 35.568,213.468 40.74,232.428 " fill="none" id="Company-Parameter" style="stroke:#A80036;stroke-width:1.2;"/><polygon fill="#000000" points="46.2016,190.4973,56.3161,185.211,51.2771,180.2754,46.2016,190.4973" style="stroke:#000000;stroke-width:1.2;"/><text fill="#000000" font-family="sans-serif" font-size="15.6" lengthAdjust="spacing" textLength="141.6" x="61.2" y="192.5941">capable of analyzing</text><!--MD5=[93b4f25fb503a8e0e9a46b1d30ff3f44]
link Company to ParameterCategory--><path codeLine="11" d="M232.092,139.356 C228.24,219.18 221.76,353.424 218.316,424.8 " fill="none" id="Company-ParameterCategory" style="stroke:#A80036;stroke-width:1.2;"/><polygon fill="#000000" points="233.7108,288.204,237.7566,277.5325,230.7114,277.1925,233.7108,288.204" style="stroke:#000000;stroke-width:1.2;"/><text fill="#000000" font-family="sans-serif" font-size="15.6" lengthAdjust="spacing" textLength="46.8" x="244.8" y="288.5941">adopts</text><!--MD5=[eaea43e34e45c5b9d20b595fc78f1f20]
link Company to Administrator--><path codeLine="12" d="M267.792,139.5 C280.596,167.508 294.156,201.096 302.4,232.8 C339.12,373.992 329.46,413.52 337.2,559.2 C337.704,568.788 339.06,571.38 337.2,580.8 C334.86,592.644 331.32,604.8 327.18,616.596 " fill="none" id="Company-Administrator" style="stroke:#A80036;stroke-width:1.2;"/><polygon fill="#000000" points="336.7411,384.165,338.9001,372.9584,331.9007,373.8296,336.7411,384.165" style="stroke:#000000;stroke-width:1.2;"/><text fill="#000000" font-family="sans-serif" font-size="15.6" lengthAdjust="spacing" textLength="44.4" x="346.8" y="384.5941">knows</text><!--MD5=[6df8849671cb880f6936e94aa30db6f9]
link Parameter to ParameterCategory--><path codeLine="14" d="M58.944,331.5 C59.748,350.664 63.576,372.072 74.4,388.8 C88.452,410.52 110.268,427.38 132.6,440.1 " fill="none" id="Parameter-ParameterCategory" style="stroke:#A80036;stroke-width:1.2;"/><polygon fill="#000000" points="83.7679,383.1766,80.5941,372.2141,74.7566,376.1732,83.7679,383.1766" style="stroke:#000000;stroke-width:1.2;"/><text fill="#000000" font-family="sans-serif" font-size="15.6" lengthAdjust="spacing" textLength="111.6" x="91.2" y="384.5941">presented under</text><!--MD5=[8fed49cf12a674e36a1de475622ee091]
link ParameterCategory to Administrator--><path codeLine="16" d="M225.864,523.476 C230.004,541.62 235.248,562.32 241.2,580.8 C244.968,592.5 249.396,604.68 253.992,616.572 " fill="none" id="ParameterCategory-Administrator" style="stroke:#A80036;stroke-width:1.2;"/><polygon fill="#000000" points="248.9354,575.9545,249.172,564.5443,242.4201,566.5843,248.9354,575.9545" style="stroke:#000000;stroke-width:1.2;"/><text fill="#000000" font-family="sans-serif" font-size="15.6" lengthAdjust="spacing" textLength="73.2" x="258" y="576.5941">created by</text><!--MD5=[d70610129a4c78aa4a266a22b9b1c8f5]
@startuml
'https://plantuml.com/class-diagram
hide methods
skinparam classAttributeIconSize 0

class Company
class Parameter
class ParameterCategory
class Administrator

Company - - Parameter : capable of analyzing >
Company - - ParameterCategory : adopts >
Company - - Administrator : knows >

Parameter - - ParameterCategory : presented under >

ParameterCategory - - Administrator : created by >


class Company{
-name
-designation
-category
-address
-headquarters
}

class Parameter{
-code
-designation
-description
}

class ParameterCategory{
-code
-description
-nhsid
}

class Administrator {
-name
-address
-phoneNumber
-email
-employeeId
-organizationRole
-socCode
}

@enduml

@startuml
hide methods
skinparam classAttributeIconSize 0

class Company
class Parameter
class ParameterCategory
class Administrator

Company - - Parameter : capable of analyzing >
Company - - ParameterCategory : adopts >
Company - - Administrator : knows >

Parameter - - ParameterCategory : presented under >

ParameterCategory - - Administrator : created by >


class Company{
-name
-designation
-category
-address
-headquarters
}

class Parameter{
-code
-designation
-description
}

class ParameterCategory{
-code
-description
-nhsid
}

class Administrator {
-name
-address
-phoneNumber
-email
-employeeId
-organizationRole
-socCode
}

@enduml

PlantUML version 1.2021.4(Sun Apr 04 09:49:39 BST 2021)
(GPL source distribution)
Java Runtime: OpenJDK Runtime Environment
JVM: OpenJDK 64-Bit Server VM
Default Encoding: Cp1252
Language: pt
Country: PT
--></g></svg>