<?xml version="1.0" encoding="UTF-8" standalone="no"?><svg xmlns="http://www.w3.org/2000/svg" xmlns:xlink="http://www.w3.org/1999/xlink" contentScriptType="application/ecmascript" contentStyleType="text/css" height="814.4px" preserveAspectRatio="none" style="width:997px;height:814px;" version="1.1" viewBox="0 0 997 814" width="997.6px" zoomAndPan="magnify"><defs><filter height="300%" id="fryg06sjihgvb" width="300%" x="-1" y="-1"><feGaussianBlur result="blurOut" stdDeviation="1.6"/><feColorMatrix in="blurOut" result="blurOut2" type="matrix" values="0 0 0 0 0 0 0 0 0 0 0 0 0 0 0 0 0 0 .4 0"/><feOffset dx="3.2" dy="3.2" in="blurOut2" result="blurOut3"/><feBlend in="SourceGraphic" in2="blurOut3" mode="normal"/></filter></defs><g><!--MD5=[37309ab6e23351c4730a79161d180b75]
class CreateClinicalAnalysisLaboratoryUI--><rect codeLine="3" fill="#FEFECE" filter="url(#fryg06sjihgvb)" height="38.4" id="CreateClinicalAnalysisLaboratoryUI" style="stroke:#A80036;stroke-width:1.2000000000000002;" width="180.8" x="600.4" y="5.6"/><ellipse cx="612.4" cy="18.4" fill="#ADD1B2" rx="8.8" ry="8.8" style="stroke:#A80036;stroke-width:0.8;"/><path d="M614,15.6 Q614.1625,15.2 614.35,15 Q614.5375,14.8 614.75,14.8 Q615.125,14.8 615.3625,15.025 Q615.6,15.25 615.6,15.775 L615.6,17.025 Q615.6,17.55 615.375,17.775 Q615.15,18 614.8,18 Q614.4875,18 614.2875,17.8625 Q614.0875,17.725 614,17.3625 Q613.9625,17.1125 613.825,16.975 Q613.575,16.7125 613.125,16.5625 Q612.675,16.4 612.225,16.4 Q611.6625,16.4 611.1875,16.625 Q610.725,16.85 610.3625,17.35 Q610,17.85 610,18.5375 L610,19.275 Q610,20.1 610.675,20.65 Q611.35,21.2 612.55,21.2 Q613.2625,21.2 613.7625,21.0375 Q614.05,20.95 614.375,20.6625 Q614.5875,20.5 614.7,20.45 Q614.8125,20.4 614.95,20.4 Q615.2125,20.4 615.4,20.6125 Q615.6,20.8125 615.6,21.1 Q615.6,21.375 615.325,21.7 Q614.925,22.175 614.2875,22.4375 Q613.45,22.8 612.425,22.8 Q611.225,22.8 610.2625,22.325 Q609.4875,21.95 608.9375,21.1375 Q608.4,20.325 608.4,19.3625 L608.4,18.4875 Q608.4,17.4875 608.875,16.6125 Q609.3625,15.7375 610.2,15.275 Q611.05,14.8 612,14.8 Q612.575,14.8 613.075,15 Q613.575,15.2 614,15.6 Z " fill="#000000"/><text fill="#000000" font-family="sans-serif" font-size="9.6" lengthAdjust="spacing" textLength="155.2" x="623.6" y="22.3281">CreateClinicalAnalysisLaboratoryUI</text><line style="stroke:#A80036;stroke-width:1.2000000000000002;" x1="601.2" x2="780.4" y1="31.2" y2="31.2"/><line style="stroke:#A80036;stroke-width:1.2000000000000002;" x1="601.2" x2="780.4" y1="37.6" y2="37.6"/><!--MD5=[25ee8cb021a059750cba86b6e371f7ec]
class CreateClinicalAnalysisLaboratoryController--><rect codeLine="6" fill="#FEFECE" filter="url(#fryg06sjihgvb)" height="71.6063" id="CreateClinicalAnalysisLaboratoryController" style="stroke:#A80036;stroke-width:1.2000000000000002;" width="214.4" x="304.4" y="92.8"/><ellipse cx="316.4" cy="105.6" fill="#ADD1B2" rx="8.8" ry="8.8" style="stroke:#A80036;stroke-width:0.8;"/><path d="M318,102.8 Q318.1625,102.4 318.35,102.2 Q318.5375,102 318.75,102 Q319.125,102 319.3625,102.225 Q319.6,102.45 319.6,102.975 L319.6,104.225 Q319.6,104.75 319.375,104.975 Q319.15,105.2 318.8,105.2 Q318.4875,105.2 318.2875,105.0625 Q318.0875,104.925 318,104.5625 Q317.9625,104.3125 317.825,104.175 Q317.575,103.9125 317.125,103.7625 Q316.675,103.6 316.225,103.6 Q315.6625,103.6 315.1875,103.825 Q314.725,104.05 314.3625,104.55 Q314,105.05 314,105.7375 L314,106.475 Q314,107.3 314.675,107.85 Q315.35,108.4 316.55,108.4 Q317.2625,108.4 317.7625,108.2375 Q318.05,108.15 318.375,107.8625 Q318.5875,107.7 318.7,107.65 Q318.8125,107.6 318.95,107.6 Q319.2125,107.6 319.4,107.8125 Q319.6,108.0125 319.6,108.3 Q319.6,108.575 319.325,108.9 Q318.925,109.375 318.2875,109.6375 Q317.45,110 316.425,110 Q315.225,110 314.2625,109.525 Q313.4875,109.15 312.9375,108.3375 Q312.4,107.525 312.4,106.5625 L312.4,105.6875 Q312.4,104.6875 312.875,103.8125 Q313.3625,102.9375 314.2,102.475 Q315.05,102 316,102 Q316.575,102 317.075,102.2 Q317.575,102.4 318,102.8 Z " fill="#000000"/><text fill="#000000" font-family="sans-serif" font-size="9.6" lengthAdjust="spacing" textLength="188.8" x="327.6" y="109.5281">CreateClinicalAnalysisLaboratoryController</text><line style="stroke:#A80036;stroke-width:1.2000000000000002;" x1="305.2" x2="518" y1="118.4" y2="118.4"/><line style="stroke:#A80036;stroke-width:1.2000000000000002;" x1="305.2" x2="518" y1="124.8" y2="124.8"/><text fill="#000000" font-family="sans-serif" font-size="8.8" lengthAdjust="spacing" textLength="169.6" x="309.2" y="137.1352">+createClinicalAnalysisLaboratory(calDTO))</text><text fill="#000000" font-family="sans-serif" font-size="8.8" lengthAdjust="spacing" textLength="72.8" x="309.2" y="148.2039">+getTestTypeList()</text><text fill="#000000" font-family="sans-serif" font-size="8.8" lengthAdjust="spacing" textLength="144" x="309.2" y="159.2727">+saveClinicalAnalysisLaboratory(cal)</text><!--MD5=[02e4b9b7573f1156f41e60aa5b4e25a4]
class Company--><rect codeLine="12" fill="#FEFECE" filter="url(#fryg06sjihgvb)" height="60.5375" id="Company" style="stroke:#A80036;stroke-width:1.2000000000000002;" width="156" x="172" y="213.6"/><ellipse cx="225.4" cy="226.4" fill="#ADD1B2" rx="8.8" ry="8.8" style="stroke:#A80036;stroke-width:0.8;"/><path d="M227,223.6 Q227.1625,223.2 227.35,223 Q227.5375,222.8 227.75,222.8 Q228.125,222.8 228.3625,223.025 Q228.6,223.25 228.6,223.775 L228.6,225.025 Q228.6,225.55 228.375,225.775 Q228.15,226 227.8,226 Q227.4875,226 227.2875,225.8625 Q227.0875,225.725 227,225.3625 Q226.9625,225.1125 226.825,224.975 Q226.575,224.7125 226.125,224.5625 Q225.675,224.4 225.225,224.4 Q224.6625,224.4 224.1875,224.625 Q223.725,224.85 223.3625,225.35 Q223,225.85 223,226.5375 L223,227.275 Q223,228.1 223.675,228.65 Q224.35,229.2 225.55,229.2 Q226.2625,229.2 226.7625,229.0375 Q227.05,228.95 227.375,228.6625 Q227.5875,228.5 227.7,228.45 Q227.8125,228.4 227.95,228.4 Q228.2125,228.4 228.4,228.6125 Q228.6,228.8125 228.6,229.1 Q228.6,229.375 228.325,229.7 Q227.925,230.175 227.2875,230.4375 Q226.45,230.8 225.425,230.8 Q224.225,230.8 223.2625,230.325 Q222.4875,229.95 221.9375,229.1375 Q221.4,228.325 221.4,227.3625 L221.4,226.4875 Q221.4,225.4875 221.875,224.6125 Q222.3625,223.7375 223.2,223.275 Q224.05,222.8 225,222.8 Q225.575,222.8 226.075,223 Q226.575,223.2 227,223.6 Z " fill="#000000"/><text fill="#000000" font-family="sans-serif" font-size="9.6" lengthAdjust="spacing" textLength="42.4" x="241.8" y="230.3281">Company</text><line style="stroke:#A80036;stroke-width:1.2000000000000002;" x1="172.8" x2="327.2" y1="239.2" y2="239.2"/><line style="stroke:#A80036;stroke-width:1.2000000000000002;" x1="172.8" x2="327.2" y1="245.6" y2="245.6"/><text fill="#000000" font-family="sans-serif" font-size="8.8" lengthAdjust="spacing" textLength="146.4" x="176.8" y="257.9352">+getClinicalAnalysisLaboratoryStore()</text><text fill="#000000" font-family="sans-serif" font-size="8.8" lengthAdjust="spacing" textLength="80" x="176.8" y="269.0039">+getTestTypeStore()</text><!--MD5=[1934a092c0e7d4da7dc7075b6f4b6b03]
class ClinicalAnalysisLaboratory--><rect codeLine="18" fill="#FEFECE" filter="url(#fryg06sjihgvb)" height="104.8125" id="ClinicalAnalysisLaboratory" style="stroke:#A80036;stroke-width:1.2000000000000002;" width="141.6" x="240" y="504"/><ellipse cx="252" cy="516.8" fill="#ADD1B2" rx="8.8" ry="8.8" style="stroke:#A80036;stroke-width:0.8;"/><path d="M253.6,514 Q253.7625,513.6 253.95,513.4 Q254.1375,513.2 254.35,513.2 Q254.725,513.2 254.9625,513.425 Q255.2,513.65 255.2,514.175 L255.2,515.425 Q255.2,515.95 254.975,516.175 Q254.75,516.4 254.4,516.4 Q254.0875,516.4 253.8875,516.2625 Q253.6875,516.125 253.6,515.7625 Q253.5625,515.5125 253.425,515.375 Q253.175,515.1125 252.725,514.9625 Q252.275,514.8 251.825,514.8 Q251.2625,514.8 250.7875,515.025 Q250.325,515.25 249.9625,515.75 Q249.6,516.25 249.6,516.9375 L249.6,517.675 Q249.6,518.5 250.275,519.05 Q250.95,519.6 252.15,519.6 Q252.8625,519.6 253.3625,519.4375 Q253.65,519.35 253.975,519.0625 Q254.1875,518.9 254.3,518.85 Q254.4125,518.8 254.55,518.8 Q254.8125,518.8 255,519.0125 Q255.2,519.2125 255.2,519.5 Q255.2,519.775 254.925,520.1 Q254.525,520.575 253.8875,520.8375 Q253.05,521.2 252.025,521.2 Q250.825,521.2 249.8625,520.725 Q249.0875,520.35 248.5375,519.5375 Q248,518.725 248,517.7625 L248,516.8875 Q248,515.8875 248.475,515.0125 Q248.9625,514.1375 249.8,513.675 Q250.65,513.2 251.6,513.2 Q252.175,513.2 252.675,513.4 Q253.175,513.6 253.6,514 Z " fill="#000000"/><text fill="#000000" font-family="sans-serif" font-size="9.6" lengthAdjust="spacing" textLength="116" x="263.2" y="520.7281">ClinicalAnalysisLaboratory</text><line style="stroke:#A80036;stroke-width:1.2000000000000002;" x1="240.8" x2="380.8" y1="529.6" y2="529.6"/><text fill="#000000" font-family="sans-serif" font-size="8.8" lengthAdjust="spacing" textLength="48.8" x="244.8" y="541.9352">-String name</text><text fill="#000000" font-family="sans-serif" font-size="8.8" lengthAdjust="spacing" textLength="60" x="244.8" y="553.0039">-String address</text><text fill="#000000" font-family="sans-serif" font-size="8.8" lengthAdjust="spacing" textLength="68" x="244.8" y="564.0727">-int phoneNumber</text><text fill="#000000" font-family="sans-serif" font-size="8.8" lengthAdjust="spacing" textLength="23.2" x="244.8" y="575.1414">-int tin</text><text fill="#000000" font-family="sans-serif" font-size="8.8" lengthAdjust="spacing" textLength="73.6" x="244.8" y="586.2102">-String laboratoryId</text><text fill="#000000" font-family="sans-serif" font-size="8.8" lengthAdjust="spacing" textLength="125.6" x="244.8" y="597.2789">-List&lt;TestType&gt; listOfTestTypes</text><line style="stroke:#A80036;stroke-width:1.2000000000000002;" x1="240.8" x2="380.8" y1="602.4125" y2="602.4125"/><!--MD5=[6ba72ddf03822b91e8d41ca71de58ed3]
class TestTypeStore--><rect codeLine="31" fill="#FEFECE" filter="url(#fryg06sjihgvb)" height="49.4688" id="TestTypeStore" style="stroke:#A80036;stroke-width:1.2000000000000002;" width="88.8" x="5.6" y="364.4"/><ellipse cx="17.6" cy="377.2" fill="#ADD1B2" rx="8.8" ry="8.8" style="stroke:#A80036;stroke-width:0.8;"/><path d="M19.2,374.4 Q19.3625,374 19.55,373.8 Q19.7375,373.6 19.95,373.6 Q20.325,373.6 20.5625,373.825 Q20.8,374.05 20.8,374.575 L20.8,375.825 Q20.8,376.35 20.575,376.575 Q20.35,376.8 20,376.8 Q19.6875,376.8 19.4875,376.6625 Q19.2875,376.525 19.2,376.1625 Q19.1625,375.9125 19.025,375.775 Q18.775,375.5125 18.325,375.3625 Q17.875,375.2 17.425,375.2 Q16.8625,375.2 16.3875,375.425 Q15.925,375.65 15.5625,376.15 Q15.2,376.65 15.2,377.3375 L15.2,378.075 Q15.2,378.9 15.875,379.45 Q16.55,380 17.75,380 Q18.4625,380 18.9625,379.8375 Q19.25,379.75 19.575,379.4625 Q19.7875,379.3 19.9,379.25 Q20.0125,379.2 20.15,379.2 Q20.4125,379.2 20.6,379.4125 Q20.8,379.6125 20.8,379.9 Q20.8,380.175 20.525,380.5 Q20.125,380.975 19.4875,381.2375 Q18.65,381.6 17.625,381.6 Q16.425,381.6 15.4625,381.125 Q14.6875,380.75 14.1375,379.9375 Q13.6,379.125 13.6,378.1625 L13.6,377.2875 Q13.6,376.2875 14.075,375.4125 Q14.5625,374.5375 15.4,374.075 Q16.25,373.6 17.2,373.6 Q17.775,373.6 18.275,373.8 Q18.775,374 19.2,374.4 Z " fill="#000000"/><text fill="#000000" font-family="sans-serif" font-size="9.6" lengthAdjust="spacing" textLength="63.2" x="28.8" y="381.1281">TestTypeStore</text><line style="stroke:#A80036;stroke-width:1.2000000000000002;" x1="6.4" x2="93.6" y1="390" y2="390"/><line style="stroke:#A80036;stroke-width:1.2000000000000002;" x1="6.4" x2="93.6" y1="396.4" y2="396.4"/><text fill="#000000" font-family="sans-serif" font-size="8.8" lengthAdjust="spacing" textLength="72.8" x="10.4" y="408.7352">+getTestTypeList()</text><!--MD5=[438281daef332c5ccec4fb6cf3747e9a]
class ClinicalAnalysisLaboratoryStore--><rect codeLine="35" fill="#FEFECE" filter="url(#fryg06sjihgvb)" height="82.675" id="ClinicalAnalysisLaboratoryStore" style="stroke:#A80036;stroke-width:1.2000000000000002;" width="186.4" x="217.6" y="348"/><ellipse cx="239.32" cy="360.8" fill="#ADD1B2" rx="8.8" ry="8.8" style="stroke:#A80036;stroke-width:0.8;"/><path d="M240.92,358 Q241.0825,357.6 241.27,357.4 Q241.4575,357.2 241.67,357.2 Q242.045,357.2 242.2825,357.425 Q242.52,357.65 242.52,358.175 L242.52,359.425 Q242.52,359.95 242.295,360.175 Q242.07,360.4 241.72,360.4 Q241.4075,360.4 241.2075,360.2625 Q241.0075,360.125 240.92,359.7625 Q240.8825,359.5125 240.745,359.375 Q240.495,359.1125 240.045,358.9625 Q239.595,358.8 239.145,358.8 Q238.5825,358.8 238.1075,359.025 Q237.645,359.25 237.2825,359.75 Q236.92,360.25 236.92,360.9375 L236.92,361.675 Q236.92,362.5 237.595,363.05 Q238.27,363.6 239.47,363.6 Q240.1825,363.6 240.6825,363.4375 Q240.97,363.35 241.295,363.0625 Q241.5075,362.9 241.62,362.85 Q241.7325,362.8 241.87,362.8 Q242.1325,362.8 242.32,363.0125 Q242.52,363.2125 242.52,363.5 Q242.52,363.775 242.245,364.1 Q241.845,364.575 241.2075,364.8375 Q240.37,365.2 239.345,365.2 Q238.145,365.2 237.1825,364.725 Q236.4075,364.35 235.8575,363.5375 Q235.32,362.725 235.32,361.7625 L235.32,360.8875 Q235.32,359.8875 235.795,359.0125 Q236.2825,358.1375 237.12,357.675 Q237.97,357.2 238.92,357.2 Q239.495,357.2 239.995,357.4 Q240.495,357.6 240.92,358 Z " fill="#000000"/><text fill="#000000" font-family="sans-serif" font-size="9.6" lengthAdjust="spacing" textLength="139.2" x="252.68" y="364.7281">ClinicalAnalysisLaboratoryStore</text><line style="stroke:#A80036;stroke-width:1.2000000000000002;" x1="218.4" x2="403.2" y1="373.6" y2="373.6"/><line style="stroke:#A80036;stroke-width:1.2000000000000002;" x1="218.4" x2="403.2" y1="380" y2="380"/><text fill="#000000" font-family="sans-serif" font-size="8.8" lengthAdjust="spacing" textLength="166.4" x="222.4" y="392.3352">+createClinicalAnalysisLaboratory(calDTO)</text><text fill="#000000" font-family="sans-serif" font-size="8.8" lengthAdjust="spacing" textLength="154.4" x="222.4" y="403.4039">+validateClinicalAnalysisLaboratory(cal)</text><text fill="#000000" font-family="sans-serif" font-size="8.8" lengthAdjust="spacing" textLength="176.8" x="222.4" y="414.4727">+validateClinicalAnalysisLaboratoryglobal(cal)</text><text fill="#000000" font-family="sans-serif" font-size="8.8" lengthAdjust="spacing" textLength="139.2" x="222.4" y="425.5414">+addClinicalAnalysisLaboratory(cal)</text><!--MD5=[17fe4c0ca596c5ee4277d552a2bb53ec]
class ClinicalAnalysisLaboratoryMapper--><rect codeLine="42" fill="#FEFECE" filter="url(#fryg06sjihgvb)" height="49.4688" id="ClinicalAnalysisLaboratoryMapper" style="stroke:#A80036;stroke-width:1.2000000000000002;" width="174.4" x="413.2" y="219.2"/><ellipse cx="425.2" cy="232" fill="#ADD1B2" rx="8.8" ry="8.8" style="stroke:#A80036;stroke-width:0.8;"/><path d="M426.8,229.2 Q426.9625,228.8 427.15,228.6 Q427.3375,228.4 427.55,228.4 Q427.925,228.4 428.1625,228.625 Q428.4,228.85 428.4,229.375 L428.4,230.625 Q428.4,231.15 428.175,231.375 Q427.95,231.6 427.6,231.6 Q427.2875,231.6 427.0875,231.4625 Q426.8875,231.325 426.8,230.9625 Q426.7625,230.7125 426.625,230.575 Q426.375,230.3125 425.925,230.1625 Q425.475,230 425.025,230 Q424.4625,230 423.9875,230.225 Q423.525,230.45 423.1625,230.95 Q422.8,231.45 422.8,232.1375 L422.8,232.875 Q422.8,233.7 423.475,234.25 Q424.15,234.8 425.35,234.8 Q426.0625,234.8 426.5625,234.6375 Q426.85,234.55 427.175,234.2625 Q427.3875,234.1 427.5,234.05 Q427.6125,234 427.75,234 Q428.0125,234 428.2,234.2125 Q428.4,234.4125 428.4,234.7 Q428.4,234.975 428.125,235.3 Q427.725,235.775 427.0875,236.0375 Q426.25,236.4 425.225,236.4 Q424.025,236.4 423.0625,235.925 Q422.2875,235.55 421.7375,234.7375 Q421.2,233.925 421.2,232.9625 L421.2,232.0875 Q421.2,231.0875 421.675,230.2125 Q422.1625,229.3375 423,228.875 Q423.85,228.4 424.8,228.4 Q425.375,228.4 425.875,228.6 Q426.375,228.8 426.8,229.2 Z " fill="#000000"/><text fill="#000000" font-family="sans-serif" font-size="9.6" lengthAdjust="spacing" textLength="148.8" x="436.4" y="235.9281">ClinicalAnalysisLaboratoryMapper</text><line style="stroke:#A80036;stroke-width:1.2000000000000002;" x1="414" x2="586.8" y1="244.8" y2="244.8"/><line style="stroke:#A80036;stroke-width:1.2000000000000002;" x1="414" x2="586.8" y1="251.2" y2="251.2"/><text fill="#000000" font-family="sans-serif" font-size="8.8" lengthAdjust="spacing" textLength="74.4" x="418" y="263.5352">+toDomain(calDTO)</text><!--MD5=[724ead17d3ca940995455a91cefd1e12]
class TestTypeMapper--><rect codeLine="47" fill="#FEFECE" filter="url(#fryg06sjihgvb)" height="49.4688" id="TestTypeMapper" style="stroke:#A80036;stroke-width:1.2000000000000002;" width="98.4" x="733.6" y="219.2"/><ellipse cx="745.6" cy="232" fill="#ADD1B2" rx="8.8" ry="8.8" style="stroke:#A80036;stroke-width:0.8;"/><path d="M747.2,229.2 Q747.3625,228.8 747.55,228.6 Q747.7375,228.4 747.95,228.4 Q748.325,228.4 748.5625,228.625 Q748.8,228.85 748.8,229.375 L748.8,230.625 Q748.8,231.15 748.575,231.375 Q748.35,231.6 748,231.6 Q747.6875,231.6 747.4875,231.4625 Q747.2875,231.325 747.2,230.9625 Q747.1625,230.7125 747.025,230.575 Q746.775,230.3125 746.325,230.1625 Q745.875,230 745.425,230 Q744.8625,230 744.3875,230.225 Q743.925,230.45 743.5625,230.95 Q743.2,231.45 743.2,232.1375 L743.2,232.875 Q743.2,233.7 743.875,234.25 Q744.55,234.8 745.75,234.8 Q746.4625,234.8 746.9625,234.6375 Q747.25,234.55 747.575,234.2625 Q747.7875,234.1 747.9,234.05 Q748.0125,234 748.15,234 Q748.4125,234 748.6,234.2125 Q748.8,234.4125 748.8,234.7 Q748.8,234.975 748.525,235.3 Q748.125,235.775 747.4875,236.0375 Q746.65,236.4 745.625,236.4 Q744.425,236.4 743.4625,235.925 Q742.6875,235.55 742.1375,234.7375 Q741.6,233.925 741.6,232.9625 L741.6,232.0875 Q741.6,231.0875 742.075,230.2125 Q742.5625,229.3375 743.4,228.875 Q744.25,228.4 745.2,228.4 Q745.775,228.4 746.275,228.6 Q746.775,228.8 747.2,229.2 Z " fill="#000000"/><text fill="#000000" font-family="sans-serif" font-size="9.6" lengthAdjust="spacing" textLength="72.8" x="756.8" y="235.9281">TestTypeMapper</text><line style="stroke:#A80036;stroke-width:1.2000000000000002;" x1="734.4" x2="831.2" y1="244.8" y2="244.8"/><line style="stroke:#A80036;stroke-width:1.2000000000000002;" x1="734.4" x2="831.2" y1="251.2" y2="251.2"/><text fill="#000000" font-family="sans-serif" font-size="8.8" lengthAdjust="spacing" textLength="81.6" x="738.4" y="263.5352">+toDTO(listTestType)</text><!--MD5=[f2ede7b09882d90d79047a5fe779fb67]
class ClinicalAnalysisLaboratoryDTO--><rect codeLine="52" fill="#FEFECE" filter="url(#fryg06sjihgvb)" height="104.8125" id="ClinicalAnalysisLaboratoryDTO" style="stroke:#A80036;stroke-width:1.2000000000000002;" width="161.6" x="519.6" y="336.8"/><ellipse cx="531.6" cy="349.6" fill="#ADD1B2" rx="8.8" ry="8.8" style="stroke:#A80036;stroke-width:0.8;"/><path d="M533.2,346.8 Q533.3625,346.4 533.55,346.2 Q533.7375,346 533.95,346 Q534.325,346 534.5625,346.225 Q534.8,346.45 534.8,346.975 L534.8,348.225 Q534.8,348.75 534.575,348.975 Q534.35,349.2 534,349.2 Q533.6875,349.2 533.4875,349.0625 Q533.2875,348.925 533.2,348.5625 Q533.1625,348.3125 533.025,348.175 Q532.775,347.9125 532.325,347.7625 Q531.875,347.6 531.425,347.6 Q530.8625,347.6 530.3875,347.825 Q529.925,348.05 529.5625,348.55 Q529.2,349.05 529.2,349.7375 L529.2,350.475 Q529.2,351.3 529.875,351.85 Q530.55,352.4 531.75,352.4 Q532.4625,352.4 532.9625,352.2375 Q533.25,352.15 533.575,351.8625 Q533.7875,351.7 533.9,351.65 Q534.0125,351.6 534.15,351.6 Q534.4125,351.6 534.6,351.8125 Q534.8,352.0125 534.8,352.3 Q534.8,352.575 534.525,352.9 Q534.125,353.375 533.4875,353.6375 Q532.65,354 531.625,354 Q530.425,354 529.4625,353.525 Q528.6875,353.15 528.1375,352.3375 Q527.6,351.525 527.6,350.5625 L527.6,349.6875 Q527.6,348.6875 528.075,347.8125 Q528.5625,346.9375 529.4,346.475 Q530.25,346 531.2,346 Q531.775,346 532.275,346.2 Q532.775,346.4 533.2,346.8 Z " fill="#000000"/><text fill="#000000" font-family="sans-serif" font-size="9.6" lengthAdjust="spacing" textLength="136" x="542.8" y="353.5281">ClinicalAnalysisLaboratoryDTO</text><line style="stroke:#A80036;stroke-width:1.2000000000000002;" x1="520.4" x2="680.4" y1="362.4" y2="362.4"/><text fill="#000000" font-family="sans-serif" font-size="8.8" lengthAdjust="spacing" textLength="48.8" x="524.4" y="374.7352">-String name</text><text fill="#000000" font-family="sans-serif" font-size="8.8" lengthAdjust="spacing" textLength="60" x="524.4" y="385.8039">-String address</text><text fill="#000000" font-family="sans-serif" font-size="8.8" lengthAdjust="spacing" textLength="68" x="524.4" y="396.8727">-int phoneNumber</text><text fill="#000000" font-family="sans-serif" font-size="8.8" lengthAdjust="spacing" textLength="23.2" x="524.4" y="407.9414">-int tin</text><text fill="#000000" font-family="sans-serif" font-size="8.8" lengthAdjust="spacing" textLength="73.6" x="524.4" y="419.0102">-String laboratoryId</text><text fill="#000000" font-family="sans-serif" font-size="8.8" lengthAdjust="spacing" textLength="125.6" x="524.4" y="430.0789">-List&lt;TestType&gt; listOfTestTypes</text><line style="stroke:#A80036;stroke-width:1.2000000000000002;" x1="520.4" x2="680.4" y1="435.2125" y2="435.2125"/><!--MD5=[aeb3272166074d8737a70b61b1e71682]
class TestType--><rect codeLine="61" fill="#FEFECE" filter="url(#fryg06sjihgvb)" height="82.675" id="TestType" style="stroke:#A80036;stroke-width:1.2000000000000002;" width="220" x="271.2" y="720.8"/><ellipse cx="357.8" cy="733.6" fill="#ADD1B2" rx="8.8" ry="8.8" style="stroke:#A80036;stroke-width:0.8;"/><path d="M359.4,730.8 Q359.5625,730.4 359.75,730.2 Q359.9375,730 360.15,730 Q360.525,730 360.7625,730.225 Q361,730.45 361,730.975 L361,732.225 Q361,732.75 360.775,732.975 Q360.55,733.2 360.2,733.2 Q359.8875,733.2 359.6875,733.0625 Q359.4875,732.925 359.4,732.5625 Q359.3625,732.3125 359.225,732.175 Q358.975,731.9125 358.525,731.7625 Q358.075,731.6 357.625,731.6 Q357.0625,731.6 356.5875,731.825 Q356.125,732.05 355.7625,732.55 Q355.4,733.05 355.4,733.7375 L355.4,734.475 Q355.4,735.3 356.075,735.85 Q356.75,736.4 357.95,736.4 Q358.6625,736.4 359.1625,736.2375 Q359.45,736.15 359.775,735.8625 Q359.9875,735.7 360.1,735.65 Q360.2125,735.6 360.35,735.6 Q360.6125,735.6 360.8,735.8125 Q361,736.0125 361,736.3 Q361,736.575 360.725,736.9 Q360.325,737.375 359.6875,737.6375 Q358.85,738 357.825,738 Q356.625,738 355.6625,737.525 Q354.8875,737.15 354.3375,736.3375 Q353.8,735.525 353.8,734.5625 L353.8,733.6875 Q353.8,732.6875 354.275,731.8125 Q354.7625,730.9375 355.6,730.475 Q356.45,730 357.4,730 Q357.975,730 358.475,730.2 Q358.975,730.4 359.4,730.8 Z " fill="#000000"/><text fill="#000000" font-family="sans-serif" font-size="9.6" lengthAdjust="spacing" textLength="40" x="374.2" y="737.5281">TestType</text><line style="stroke:#A80036;stroke-width:1.2000000000000002;" x1="272" x2="490.4" y1="746.4" y2="746.4"/><text fill="#000000" font-family="sans-serif" font-size="8.8" lengthAdjust="spacing" textLength="47.2" x="276" y="758.7352">-String code</text><text fill="#000000" font-family="sans-serif" font-size="8.8" lengthAdjust="spacing" textLength="70.4" x="276" y="769.8039">-String description</text><text fill="#000000" font-family="sans-serif" font-size="8.8" lengthAdjust="spacing" textLength="92" x="276" y="780.8727">-String collectingMethod</text><text fill="#000000" font-family="sans-serif" font-size="8.8" lengthAdjust="spacing" textLength="210.4" x="276" y="791.9414">-List&lt;ParameterCategories&gt; listOfParameterCategories</text><line style="stroke:#A80036;stroke-width:1.2000000000000002;" x1="272" x2="490.4" y1="797.075" y2="797.075"/><!--MD5=[d0024740988d3925690046e9afae9c9c]
class TestTypeDTO--><rect codeLine="68" fill="#FEFECE" filter="url(#fryg06sjihgvb)" height="82.675" id="TestTypeDTO" style="stroke:#A80036;stroke-width:1.2000000000000002;" width="220" x="766.4" y="348"/><ellipse cx="843" cy="360.8" fill="#ADD1B2" rx="8.8" ry="8.8" style="stroke:#A80036;stroke-width:0.8;"/><path d="M844.6,358 Q844.7625,357.6 844.95,357.4 Q845.1375,357.2 845.35,357.2 Q845.725,357.2 845.9625,357.425 Q846.2,357.65 846.2,358.175 L846.2,359.425 Q846.2,359.95 845.975,360.175 Q845.75,360.4 845.4,360.4 Q845.0875,360.4 844.8875,360.2625 Q844.6875,360.125 844.6,359.7625 Q844.5625,359.5125 844.425,359.375 Q844.175,359.1125 843.725,358.9625 Q843.275,358.8 842.825,358.8 Q842.2625,358.8 841.7875,359.025 Q841.325,359.25 840.9625,359.75 Q840.6,360.25 840.6,360.9375 L840.6,361.675 Q840.6,362.5 841.275,363.05 Q841.95,363.6 843.15,363.6 Q843.8625,363.6 844.3625,363.4375 Q844.65,363.35 844.975,363.0625 Q845.1875,362.9 845.3,362.85 Q845.4125,362.8 845.55,362.8 Q845.8125,362.8 846,363.0125 Q846.2,363.2125 846.2,363.5 Q846.2,363.775 845.925,364.1 Q845.525,364.575 844.8875,364.8375 Q844.05,365.2 843.025,365.2 Q841.825,365.2 840.8625,364.725 Q840.0875,364.35 839.5375,363.5375 Q839,362.725 839,361.7625 L839,360.8875 Q839,359.8875 839.475,359.0125 Q839.9625,358.1375 840.8,357.675 Q841.65,357.2 842.6,357.2 Q843.175,357.2 843.675,357.4 Q844.175,357.6 844.6,358 Z " fill="#000000"/><text fill="#000000" font-family="sans-serif" font-size="9.6" lengthAdjust="spacing" textLength="60" x="859.4" y="364.7281">TestTypeDTO</text><line style="stroke:#A80036;stroke-width:1.2000000000000002;" x1="767.2" x2="985.6" y1="373.6" y2="373.6"/><text fill="#000000" font-family="sans-serif" font-size="8.8" lengthAdjust="spacing" textLength="47.2" x="771.2" y="385.9352">-String code</text><text fill="#000000" font-family="sans-serif" font-size="8.8" lengthAdjust="spacing" textLength="70.4" x="771.2" y="397.0039">-String description</text><text fill="#000000" font-family="sans-serif" font-size="8.8" lengthAdjust="spacing" textLength="92" x="771.2" y="408.0727">-String collectingMethod</text><text fill="#000000" font-family="sans-serif" font-size="8.8" lengthAdjust="spacing" textLength="210.4" x="771.2" y="419.1414">-List&lt;ParameterCategories&gt; listOfParameterCategories</text><line style="stroke:#A80036;stroke-width:1.2000000000000002;" x1="767.2" x2="985.6" y1="424.275" y2="424.275"/><!--MD5=[7f27f858498b73faf6020cfd30bff5b2]
link CreateClinicalAnalysisLaboratoryUI to CreateClinicalAnalysisLaboratoryController--><path codeLine="80" d="M640.56,44.024 C604.752,57.16 555.4,75.264 511.68,91.296 " fill="none" id="CreateClinicalAnalysisLaboratoryUI-to-CreateClinicalAnalysisLaboratoryController" style="stroke:#A80036;stroke-width:0.8;stroke-dasharray:7.0,7.0;"/><polygon fill="#A80036" points="507.736,92.736,515.5966,93.2751,511.4938,91.3654,513.4036,87.2626,507.736,92.736" style="stroke:#A80036;stroke-width:0.8;"/><!--MD5=[2bd3c658c63a30a0f3413ac5831e9b35]
link CreateClinicalAnalysisLaboratoryUI to ClinicalAnalysisLaboratoryDTO--><path codeLine="81" d="M689.432,44.224 C685.608,90.68 672.824,214.968 639.6,312.8 C637.336,319.472 634.552,326.28 631.528,332.944 " fill="none" id="CreateClinicalAnalysisLaboratoryUI-to-ClinicalAnalysisLaboratoryDTO" style="stroke:#A80036;stroke-width:0.8;stroke-dasharray:7.0,7.0;"/><polygon fill="#A80036" points="629.824,336.632,635.756,331.4463,631.5068,333.0032,629.9499,328.7539,629.824,336.632" style="stroke:#A80036;stroke-width:0.8;"/><!--MD5=[8bc37d60e48a0f8ca80a59740d5a27b7]
link CreateClinicalAnalysisLaboratoryUI to TestTypeDTO--><path codeLine="82" d="M711.888,44.04 C746.08,75.248 813.104,142.08 846,213.6 C865.088,255.096 872.264,307.168 874.92,343.64 " fill="none" id="CreateClinicalAnalysisLaboratoryUI-to-TestTypeDTO" style="stroke:#A80036;stroke-width:0.8;stroke-dasharray:7.0,7.0;"/><polygon fill="#A80036" points="875.208,347.784,877.9065,340.3814,874.9336,343.7934,871.5216,340.8205,875.208,347.784" style="stroke:#A80036;stroke-width:0.8;"/><!--MD5=[65adc60f3fa6e02aaadab8d72bd65ef9]
link CreateClinicalAnalysisLaboratoryController to ClinicalAnalysisLaboratoryDTO--><path codeLine="83" d="M518.808,152.68 C551.056,165.168 582.912,184.32 602,213.6 C624.704,248.432 622.648,296.048 615.832,332.792 " fill="none" id="CreateClinicalAnalysisLaboratoryController-to-ClinicalAnalysisLaboratoryDTO" style="stroke:#A80036;stroke-width:0.8;stroke-dasharray:7.0,7.0;"/><polygon fill="#A80036" points="615.072,336.76,619.5713,330.2919,615.8257,332.8316,613.286,329.086,615.072,336.76" style="stroke:#A80036;stroke-width:0.8;"/><!--MD5=[a9680a0d2232c0a37b6721baa8733a0b]
link CreateClinicalAnalysisLaboratoryController to Company--><path codeLine="84" d="M361.352,164.92 C340.424,179.64 316.28,196.608 295.84,210.976 " fill="none" id="CreateClinicalAnalysisLaboratoryController-to-Company" style="stroke:#A80036;stroke-width:0.8;stroke-dasharray:7.0,7.0;"/><polygon fill="#A80036" points="292.328,213.448,300.0551,211.9081,295.5952,211.1404,296.3629,206.6805,292.328,213.448" style="stroke:#A80036;stroke-width:0.8;"/><!--MD5=[09926c1a9fb0a07a44c53a2bf1628286]
link CreateClinicalAnalysisLaboratoryController to TestTypeStore--><path codeLine="85" d="M304.264,138.784 C228.976,147.352 136.88,162.824 108.4,188.8 C59.432,233.472 50.664,316.712 49.616,360.24 " fill="none" id="CreateClinicalAnalysisLaboratoryController-to-TestTypeStore" style="stroke:#A80036;stroke-width:0.8;stroke-dasharray:7.0,7.0;"/><polygon fill="#A80036" points="49.544,364.328,52.8873,357.1934,49.624,360.3288,46.4886,357.0655,49.544,364.328" style="stroke:#A80036;stroke-width:0.8;"/><!--MD5=[70095366c829f4ac12adfdb0b11a15fb]
link CreateClinicalAnalysisLaboratoryController to ClinicalAnalysisLaboratoryMapper--><path codeLine="86" d="M439.208,164.92 C451.992,181.272 466.944,200.4 478.872,215.664 " fill="none" id="CreateClinicalAnalysisLaboratoryController-to-ClinicalAnalysisLaboratoryMapper" style="stroke:#A80036;stroke-width:0.8;stroke-dasharray:7.0,7.0;"/><polygon fill="#A80036" points="481.528,219.056,479.6106,211.4138,479.0628,215.906,474.5706,215.3582,481.528,219.056" style="stroke:#A80036;stroke-width:0.8;"/><!--MD5=[32ed6f3568757b51f8568a41374af776]
link CreateClinicalAnalysisLaboratoryController to ClinicalAnalysisLaboratoryStore--><path codeLine="87" d="M397.792,165.04 C379.664,211.592 347.832,293.328 328.104,343.968 " fill="none" id="CreateClinicalAnalysisLaboratoryController-to-ClinicalAnalysisLaboratoryStore" style="stroke:#A80036;stroke-width:0.8;stroke-dasharray:7.0,7.0;"/><polygon fill="#A80036" points="326.592,347.856,332.1873,342.3087,328.044,344.1288,326.2239,339.9855,326.592,347.856" style="stroke:#A80036;stroke-width:0.8;"/><!--MD5=[4c80101412f9622c67d2b06c2311558b]
link CreateClinicalAnalysisLaboratoryController to ClinicalAnalysisLaboratory--><path codeLine="88" d="M304.368,138.096 C252.04,148.096 192.968,169.264 158,213.6 C87.696,302.744 184.336,429.352 252.928,500.872 " fill="none" id="CreateClinicalAnalysisLaboratoryController-to-ClinicalAnalysisLaboratory" style="stroke:#A80036;stroke-width:0.8;stroke-dasharray:7.0,7.0;"/><polygon fill="#A80036" points="255.76,503.816,253.0657,496.4119,252.9835,500.9366,248.4587,500.8544,255.76,503.816" style="stroke:#A80036;stroke-width:0.8;"/><!--MD5=[4f1bb0742f4cdb049ce2667d1c8828c9]
link CreateClinicalAnalysisLaboratoryController to TestTypeMapper--><path codeLine="89" d="M518.816,154.712 C557.416,164.44 601.12,176.256 640.4,188.8 C670.32,198.352 703.096,210.736 729.656,221.28 " fill="none" id="CreateClinicalAnalysisLaboratoryController-to-TestTypeMapper" style="stroke:#A80036;stroke-width:0.8;stroke-dasharray:7.0,7.0;"/><polygon fill="#A80036" points="733.528,222.816,728.0314,217.1709,729.8141,221.3304,725.6545,223.1131,733.528,222.816" style="stroke:#A80036;stroke-width:0.8;"/><!--MD5=[2dad08ae384f93453eb1ba4eb26732f1]
link ClinicalAnalysisLaboratoryStore to ClinicalAnalysisLaboratory--><path codeLine="90" d="M310.8,430.512 C310.8,451.336 310.8,477.032 310.8,499.712 " fill="none" id="ClinicalAnalysisLaboratoryStore-to-ClinicalAnalysisLaboratory" style="stroke:#A80036;stroke-width:0.8;"/><polygon fill="#A80036" points="310.8,503.912,314,496.712,310.8,499.912,307.6,496.712,310.8,503.912" style="stroke:#A80036;stroke-width:0.8;"/><text fill="#000000" font-family="sans-serif" font-size="10.4" lengthAdjust="spacing" textLength="42.4" x="311.6" y="477.1961">conducts</text><text fill="#000000" font-family="sans-serif" font-size="10.4" lengthAdjust="spacing" textLength="5.6" x="304.8063" y="448.018">1</text><text fill="#000000" font-family="sans-serif" font-size="10.4" lengthAdjust="spacing" textLength="5.6" x="304.8938" y="495.4819">1</text><!--MD5=[0883f0204777d2b70d64271e12381109]
link ClinicalAnalysisLaboratoryMapper to ClinicalAnalysisLaboratoryDTO--><path codeLine="91" d="M517.136,268.832 C529.328,286.344 546.352,310.784 561.824,333.008 " fill="none" id="ClinicalAnalysisLaboratoryMapper-to-ClinicalAnalysisLaboratoryDTO" style="stroke:#A80036;stroke-width:0.8;stroke-dasharray:7.0,7.0;"/><polygon fill="#A80036" points="564.296,336.552,562.8049,328.8153,562.0091,333.2702,557.5541,332.4744,564.296,336.552" style="stroke:#A80036;stroke-width:0.8;"/><!--MD5=[9b3c5737575fe452b44ed997296ffd7a]
link ClinicalAnalysisLaboratoryMapper to ClinicalAnalysisLaboratory--><path codeLine="92" d="M493.416,268.864 C481.576,307.36 455.2,384.272 418,441.6 C404.44,462.496 386.84,483.048 369.832,500.824 " fill="none" id="ClinicalAnalysisLaboratoryMapper-to-ClinicalAnalysisLaboratory" style="stroke:#A80036;stroke-width:0.8;stroke-dasharray:7.0,7.0;"/><polygon fill="#A80036" points="366.888,503.88,374.1832,500.9033,369.6586,500.9949,369.567,496.4704,366.888,503.88" style="stroke:#A80036;stroke-width:0.8;"/><!--MD5=[141c3afa12b2b3c0a39ffce56dbd5f19]
link Company to TestTypeStore--><path codeLine="93" d="M208.56,274.552 C172.648,300.336 121.176,337.296 86.72,362.032 " fill="none" id="Company-to-TestTypeStore" style="stroke:#A80036;stroke-width:0.8;"/><polygon fill="#A80036" points="83.44,364.392,91.1546,362.7905,86.6887,362.0584,87.4208,357.5925,83.44,364.392" style="stroke:#A80036;stroke-width:0.8;"/><text fill="#000000" font-family="sans-serif" font-size="10.4" lengthAdjust="spacing" textLength="22.4" x="174.8" y="309.9961">uses</text><text fill="#000000" font-family="sans-serif" font-size="10.4" lengthAdjust="spacing" textLength="5.6" x="195.9093" y="291.2806">1</text><text fill="#000000" font-family="sans-serif" font-size="10.4" lengthAdjust="spacing" textLength="5.6" x="84.5425" y="355.6065">1</text><!--MD5=[f379172a0573607dd0ae1a4ea50b9294]
link Company to ClinicalAnalysisLaboratoryStore--><path codeLine="94" d="M262.6,274.552 C271.08,294.592 282.416,321.368 291.968,343.92 " fill="none" id="Company-to-ClinicalAnalysisLaboratoryStore" style="stroke:#A80036;stroke-width:0.8;"/><polygon fill="#A80036" points="293.608,347.792,293.7337,339.9139,292.042,344.1113,287.8446,342.4195,293.608,347.792" style="stroke:#A80036;stroke-width:0.8;"/><text fill="#000000" font-family="sans-serif" font-size="10.4" lengthAdjust="spacing" textLength="22.4" x="279.6" y="309.9961">uses</text><text fill="#000000" font-family="sans-serif" font-size="10.4" lengthAdjust="spacing" textLength="5.6" x="258.5619" y="291.2806">1</text><text fill="#000000" font-family="sans-serif" font-size="10.4" lengthAdjust="spacing" textLength="5.6" x="285.3216" y="339.3643">1</text><!--MD5=[3eebf0e5f359806b77b30e9524c37676]
link TestTypeStore to TestType--><path codeLine="95" d="M67.88,414.064 C98.752,455.168 164.64,541.048 226,608.8 C260.752,647.168 302.784,688.144 334.336,717.928 " fill="none" id="TestTypeStore-to-TestType" style="stroke:#A80036;stroke-width:0.8;"/><polygon fill="#A80036" points="337.36,720.776,334.3101,713.5111,334.4472,718.0345,329.9238,718.1716,337.36,720.776" style="stroke:#A80036;stroke-width:0.8;"/><text fill="#000000" font-family="sans-serif" font-size="10.4" lengthAdjust="spacing" textLength="42.4" x="263.6" y="644.3961">conducts</text><text fill="#000000" font-family="sans-serif" font-size="10.4" lengthAdjust="spacing" textLength="5.6" x="65.2489" y="431.0558">1</text><text fill="#000000" font-family="sans-serif" font-size="10.4" lengthAdjust="spacing" textLength="4" x="326.9138" y="712.0754">*</text><!--MD5=[a3b705e4e3f391aa28b18ef9a5fd28a9]
link TestTypeMapper to TestType--><path codeLine="96" d="M765.992,268.968 C748.488,296.544 723.6,343.64 723.6,388.4 C723.6,388.4 723.6,388.4 723.6,672 C723.6,720.168 595.104,742.792 495.544,753.096 " fill="none" id="TestTypeMapper-to-TestType" style="stroke:#A80036;stroke-width:0.8;stroke-dasharray:7.0,7.0;"/><polygon fill="#A80036" points="491.424,753.52,498.9151,755.9621,495.4028,753.1084,498.2565,749.5961,491.424,753.52" style="stroke:#A80036;stroke-width:0.8;"/><!--MD5=[a866f4e758874d18eed8ecae1602bb43]
link TestTypeMapper to TestTypeDTO--><path codeLine="97" d="M798.464,268.832 C811.856,289.384 831.48,319.48 847.68,344.336 " fill="none" id="TestTypeMapper-to-TestTypeDTO" style="stroke:#A80036;stroke-width:0.8;stroke-dasharray:7.0,7.0;"/><polygon fill="#A80036" points="850.04,347.968,848.7888,340.1889,847.8556,344.6171,843.4274,343.6839,850.04,347.968" style="stroke:#A80036;stroke-width:0.8;"/><!--MD5=[17978371abb189f8d6f9c16a9776bfe1]
@startuml
skinparam classAttributeIconSize 0

class CreateClinicalAnalysisLaboratoryUI{
}

class CreateClinicalAnalysisLaboratoryController{
  +createClinicalAnalysisLaboratory(calDTO))
  +getTestTypeList()
  +saveClinicalAnalysisLaboratory(cal)
}

class Company{
  +getClinicalAnalysisLaboratoryStore()
  +getTestTypeStore()
}


class ClinicalAnalysisLaboratory {
  -String name
  -String address
  -int phoneNumber
  -int tin
  -String laboratoryId
  -List<TestType> listOfTestTypes



}


class TestTypeStore{
+getTestTypeList()
}

class ClinicalAnalysisLaboratoryStore{
  +createClinicalAnalysisLaboratory(calDTO)
  +validateClinicalAnalysisLaboratory(cal)
  +validateClinicalAnalysisLaboratoryglobal(cal)
  +addClinicalAnalysisLaboratory(cal)
}

class ClinicalAnalysisLaboratoryMapper {
   +toDomain(calDTO)

}

class TestTypeMapper {
   +toDTO(listTestType)
}


class ClinicalAnalysisLaboratoryDTO {
  -String name
  -String address
  -int phoneNumber
  -int tin
  -String laboratoryId
  -List<TestType> listOfTestTypes
}

class TestType{
  -String code
  -String description
  -String collectingMethod
  -List<ParameterCategories> listOfParameterCategories
}

class TestTypeDTO{
  -String code
  -String description
  -String collectingMethod
  -List<ParameterCategories> listOfParameterCategories
}






CreateClinicalAnalysisLaboratoryUI ..> CreateClinicalAnalysisLaboratoryController
CreateClinicalAnalysisLaboratoryUI ..> ClinicalAnalysisLaboratoryDTO
CreateClinicalAnalysisLaboratoryUI ..> TestTypeDTO
CreateClinicalAnalysisLaboratoryController ..> ClinicalAnalysisLaboratoryDTO
CreateClinicalAnalysisLaboratoryController ..> Company
CreateClinicalAnalysisLaboratoryController ...> TestTypeStore
CreateClinicalAnalysisLaboratoryController ..> ClinicalAnalysisLaboratoryMapper
CreateClinicalAnalysisLaboratoryController ..> ClinicalAnalysisLaboratoryStore
CreateClinicalAnalysisLaboratoryController ..> ClinicalAnalysisLaboratory
CreateClinicalAnalysisLaboratoryController ..> TestTypeMapper
ClinicalAnalysisLaboratoryStore"1" - -> "1" ClinicalAnalysisLaboratory : conducts
ClinicalAnalysisLaboratoryMapper ..> ClinicalAnalysisLaboratoryDTO
ClinicalAnalysisLaboratoryMapper ...> ClinicalAnalysisLaboratory
Company "1" - -> "1" TestTypeStore : uses
Company "1" - -> "1" ClinicalAnalysisLaboratoryStore : uses
TestTypeStore "1" - -> "*" TestType : conducts
TestTypeMapper .....> TestType
TestTypeMapper ..> TestTypeDTO
@enduml

PlantUML version 1.2021.00(Sun Jan 10 10:25:05 GMT 2021)
(GPL source distribution)
Java Runtime: OpenJDK Runtime Environment
JVM: OpenJDK 64-Bit Server VM
Default Encoding: Cp1252
Language: pt
Country: PT
--></g></svg>