<?xml version="1.0" encoding="UTF-8" standalone="no"?><svg xmlns="http://www.w3.org/2000/svg" xmlns:xlink="http://www.w3.org/1999/xlink" contentScriptType="application/ecmascript" contentStyleType="text/css" height="348px" preserveAspectRatio="none" style="width:819px;height:348px;" version="1.1" viewBox="0 0 819 348" width="819px" zoomAndPan="magnify"><defs><filter height="300%" id="f94lh2gsccs20" width="300%" x="-1" y="-1"><feGaussianBlur result="blurOut" stdDeviation="2.0"/><feColorMatrix in="blurOut" result="blurOut2" type="matrix" values="0 0 0 0 0 0 0 0 0 0 0 0 0 0 0 0 0 0 .4 0"/><feOffset dx="4.0" dy="4.0" in="blurOut2" result="blurOut3"/><feBlend in="SourceGraphic" in2="blurOut3" mode="normal"/></filter></defs><g><!--MD5=[02e4b9b7573f1156f41e60aa5b4e25a4]
class Company--><rect codeLine="7" fill="#FEFECE" filter="url(#f94lh2gsccs20)" height="109.1797" id="Company" style="stroke:#A80036;stroke-width:1.5;" width="85" x="329" y="82.5"/><ellipse cx="344" cy="98.5" fill="#ADD1B2" rx="11" ry="11" style="stroke:#A80036;stroke-width:1.0;"/><path d="M346,95 Q346.2031,94.5 346.4375,94.25 Q346.6719,94 346.9375,94 Q347.4063,94 347.7031,94.2813 Q348,94.5625 348,95.2188 L348,96.7813 Q348,97.4375 347.7188,97.7188 Q347.4375,98 347,98 Q346.6094,98 346.3594,97.8281 Q346.1094,97.6563 346,97.2031 Q345.9531,96.8906 345.7813,96.7188 Q345.4688,96.3906 344.9063,96.2031 Q344.3438,96 343.7813,96 Q343.0781,96 342.4844,96.2813 Q341.9063,96.5625 341.4531,97.1875 Q341,97.8125 341,98.6719 L341,99.5938 Q341,100.625 341.8438,101.3125 Q342.6875,102 344.1875,102 Q345.0781,102 345.7031,101.7969 Q346.0625,101.6875 346.4688,101.3281 Q346.7344,101.125 346.875,101.0625 Q347.0156,101 347.1875,101 Q347.5156,101 347.75,101.2656 Q348,101.5156 348,101.875 Q348,102.2188 347.6563,102.625 Q347.1563,103.2188 346.3594,103.5469 Q345.3125,104 344.0313,104 Q342.5313,104 341.3281,103.4063 Q340.3594,102.9375 339.6719,101.9219 Q339,100.9063 339,99.7031 L339,98.6094 Q339,97.3594 339.5938,96.2656 Q340.2031,95.1719 341.25,94.5938 Q342.3125,94 343.5,94 Q344.2188,94 344.8438,94.25 Q345.4688,94.5 346,95 Z " fill="#000000"/><text fill="#000000" font-family="sans-serif" font-size="12" lengthAdjust="spacing" textLength="53" x="358" y="103.4102">Company</text><line style="stroke:#A80036;stroke-width:1.5;" x1="330" x2="413" y1="114.5" y2="114.5"/><text fill="#000000" font-family="sans-serif" font-size="11" lengthAdjust="spacing" textLength="30" x="335" y="129.9189">-name</text><text fill="#000000" font-family="sans-serif" font-size="11" lengthAdjust="spacing" textLength="59" x="335" y="143.7549">-designation</text><text fill="#000000" font-family="sans-serif" font-size="11" lengthAdjust="spacing" textLength="47" x="335" y="157.5908">-category</text><text fill="#000000" font-family="sans-serif" font-size="11" lengthAdjust="spacing" textLength="44" x="335" y="171.4268">-address</text><text fill="#000000" font-family="sans-serif" font-size="11" lengthAdjust="spacing" textLength="69" x="335" y="185.2627">-headquarters</text><!--MD5=[0caf3a413731a0de34fc6162fe213ed9]
class Laboratory--><rect codeLine="15" fill="#FEFECE" filter="url(#f94lh2gsccs20)" height="95.3438" id="Laboratory" style="stroke:#A80036;stroke-width:1.5;" width="90" x="712" y="89.5"/><ellipse cx="727" cy="105.5" fill="#ADD1B2" rx="11" ry="11" style="stroke:#A80036;stroke-width:1.0;"/><path d="M729,102 Q729.2031,101.5 729.4375,101.25 Q729.6719,101 729.9375,101 Q730.4063,101 730.7031,101.2813 Q731,101.5625 731,102.2188 L731,103.7813 Q731,104.4375 730.7188,104.7188 Q730.4375,105 730,105 Q729.6094,105 729.3594,104.8281 Q729.1094,104.6563 729,104.2031 Q728.9531,103.8906 728.7813,103.7188 Q728.4688,103.3906 727.9063,103.2031 Q727.3438,103 726.7813,103 Q726.0781,103 725.4844,103.2813 Q724.9063,103.5625 724.4531,104.1875 Q724,104.8125 724,105.6719 L724,106.5938 Q724,107.625 724.8438,108.3125 Q725.6875,109 727.1875,109 Q728.0781,109 728.7031,108.7969 Q729.0625,108.6875 729.4688,108.3281 Q729.7344,108.125 729.875,108.0625 Q730.0156,108 730.1875,108 Q730.5156,108 730.75,108.2656 Q731,108.5156 731,108.875 Q731,109.2188 730.6563,109.625 Q730.1563,110.2188 729.3594,110.5469 Q728.3125,111 727.0313,111 Q725.5313,111 724.3281,110.4063 Q723.3594,109.9375 722.6719,108.9219 Q722,107.9063 722,106.7031 L722,105.6094 Q722,104.3594 722.5938,103.2656 Q723.2031,102.1719 724.25,101.5938 Q725.3125,101 726.5,101 Q727.2188,101 727.8438,101.25 Q728.4688,101.5 729,102 Z " fill="#000000"/><text fill="#000000" font-family="sans-serif" font-size="12" lengthAdjust="spacing" textLength="58" x="741" y="110.4102">Laboratory</text><line style="stroke:#A80036;stroke-width:1.5;" x1="713" x2="801" y1="121.5" y2="121.5"/><text fill="#000000" font-family="sans-serif" font-size="11" lengthAdjust="spacing" textLength="30" x="718" y="136.9189">-name</text><text fill="#000000" font-family="sans-serif" font-size="11" lengthAdjust="spacing" textLength="44" x="718" y="150.7549">-address</text><text fill="#000000" font-family="sans-serif" font-size="11" lengthAdjust="spacing" textLength="71" x="718" y="164.5908">-phoneNumber</text><text fill="#000000" font-family="sans-serif" font-size="11" lengthAdjust="spacing" textLength="15" x="718" y="178.4268">-tin</text><!--MD5=[1934a092c0e7d4da7dc7075b6f4b6b03]
class ClinicalAnalysisLaboratory--><rect codeLine="22" fill="#FEFECE" filter="url(#f94lh2gsccs20)" height="53.8359" id="ClinicalAnalysisLaboratory" style="stroke:#A80036;stroke-width:1.5;" width="177" x="283" y="239"/><ellipse cx="298" cy="255" fill="#ADD1B2" rx="11" ry="11" style="stroke:#A80036;stroke-width:1.0;"/><path d="M300,251.5 Q300.2031,251 300.4375,250.75 Q300.6719,250.5 300.9375,250.5 Q301.4063,250.5 301.7031,250.7813 Q302,251.0625 302,251.7188 L302,253.2813 Q302,253.9375 301.7188,254.2188 Q301.4375,254.5 301,254.5 Q300.6094,254.5 300.3594,254.3281 Q300.1094,254.1563 300,253.7031 Q299.9531,253.3906 299.7813,253.2188 Q299.4688,252.8906 298.9063,252.7031 Q298.3438,252.5 297.7813,252.5 Q297.0781,252.5 296.4844,252.7813 Q295.9063,253.0625 295.4531,253.6875 Q295,254.3125 295,255.1719 L295,256.0938 Q295,257.125 295.8438,257.8125 Q296.6875,258.5 298.1875,258.5 Q299.0781,258.5 299.7031,258.2969 Q300.0625,258.1875 300.4688,257.8281 Q300.7344,257.625 300.875,257.5625 Q301.0156,257.5 301.1875,257.5 Q301.5156,257.5 301.75,257.7656 Q302,258.0156 302,258.375 Q302,258.7188 301.6563,259.125 Q301.1563,259.7188 300.3594,260.0469 Q299.3125,260.5 298.0313,260.5 Q296.5313,260.5 295.3281,259.9063 Q294.3594,259.4375 293.6719,258.4219 Q293,257.4063 293,256.2031 L293,255.1094 Q293,253.8594 293.5938,252.7656 Q294.2031,251.6719 295.25,251.0938 Q296.3125,250.5 297.5,250.5 Q298.2188,250.5 298.8438,250.75 Q299.4688,251 300,251.5 Z " fill="#000000"/><text fill="#000000" font-family="sans-serif" font-size="12" lengthAdjust="spacing" textLength="145" x="312" y="259.9102">ClinicalAnalysisLaboratory</text><line style="stroke:#A80036;stroke-width:1.5;" x1="284" x2="459" y1="271" y2="271"/><text fill="#000000" font-family="sans-serif" font-size="11" lengthAdjust="spacing" textLength="61" x="289" y="286.4189">-laboratoryId</text><!--MD5=[aeb3272166074d8737a70b61b1e71682]
class TestType--><rect codeLine="26" fill="#FEFECE" filter="url(#f94lh2gsccs20)" height="81.5078" id="TestType" style="stroke:#A80036;stroke-width:1.5;" width="96" x="709" y="238"/><ellipse cx="730.3" cy="254" fill="#ADD1B2" rx="11" ry="11" style="stroke:#A80036;stroke-width:1.0;"/><path d="M732.3,250.5 Q732.5031,250 732.7375,249.75 Q732.9719,249.5 733.2375,249.5 Q733.7063,249.5 734.0031,249.7813 Q734.3,250.0625 734.3,250.7188 L734.3,252.2813 Q734.3,252.9375 734.0188,253.2188 Q733.7375,253.5 733.3,253.5 Q732.9094,253.5 732.6594,253.3281 Q732.4094,253.1563 732.3,252.7031 Q732.2531,252.3906 732.0813,252.2188 Q731.7688,251.8906 731.2063,251.7031 Q730.6438,251.5 730.0813,251.5 Q729.3781,251.5 728.7844,251.7813 Q728.2063,252.0625 727.7531,252.6875 Q727.3,253.3125 727.3,254.1719 L727.3,255.0938 Q727.3,256.125 728.1438,256.8125 Q728.9875,257.5 730.4875,257.5 Q731.3781,257.5 732.0031,257.2969 Q732.3625,257.1875 732.7688,256.8281 Q733.0344,256.625 733.175,256.5625 Q733.3156,256.5 733.4875,256.5 Q733.8156,256.5 734.05,256.7656 Q734.3,257.0156 734.3,257.375 Q734.3,257.7188 733.9563,258.125 Q733.4563,258.7188 732.6594,259.0469 Q731.6125,259.5 730.3313,259.5 Q728.8313,259.5 727.6281,258.9063 Q726.6594,258.4375 725.9719,257.4219 Q725.3,256.4063 725.3,255.2031 L725.3,254.1094 Q725.3,252.8594 725.8938,251.7656 Q726.5031,250.6719 727.55,250.0938 Q728.6125,249.5 729.8,249.5 Q730.5188,249.5 731.1438,249.75 Q731.7688,250 732.3,250.5 Z " fill="#000000"/><text fill="#000000" font-family="sans-serif" font-size="12" lengthAdjust="spacing" textLength="50" x="745.7" y="258.9102">TestType</text><line style="stroke:#A80036;stroke-width:1.5;" x1="710" x2="804" y1="270" y2="270"/><text fill="#000000" font-family="sans-serif" font-size="11" lengthAdjust="spacing" textLength="28" x="715" y="285.4189">-code</text><text fill="#000000" font-family="sans-serif" font-size="11" lengthAdjust="spacing" textLength="57" x="715" y="299.2549">-description</text><text fill="#000000" font-family="sans-serif" font-size="11" lengthAdjust="spacing" textLength="84" x="715" y="313.0908">-collectionMethod</text><!--MD5=[a64badb107d3691f2dc6af242cdbeb21]
class ChemicalLaboratory--><rect codeLine="32" fill="#FEFECE" filter="url(#f94lh2gsccs20)" height="40" id="ChemicalLaboratory" style="stroke:#A80036;stroke-width:1.5;" width="143" x="300" y="7"/><ellipse cx="315" cy="23" fill="#ADD1B2" rx="11" ry="11" style="stroke:#A80036;stroke-width:1.0;"/><path d="M317,19.5 Q317.2031,19 317.4375,18.75 Q317.6719,18.5 317.9375,18.5 Q318.4063,18.5 318.7031,18.7813 Q319,19.0625 319,19.7188 L319,21.2813 Q319,21.9375 318.7188,22.2188 Q318.4375,22.5 318,22.5 Q317.6094,22.5 317.3594,22.3281 Q317.1094,22.1563 317,21.7031 Q316.9531,21.3906 316.7813,21.2188 Q316.4688,20.8906 315.9063,20.7031 Q315.3438,20.5 314.7813,20.5 Q314.0781,20.5 313.4844,20.7813 Q312.9063,21.0625 312.4531,21.6875 Q312,22.3125 312,23.1719 L312,24.0938 Q312,25.125 312.8438,25.8125 Q313.6875,26.5 315.1875,26.5 Q316.0781,26.5 316.7031,26.2969 Q317.0625,26.1875 317.4688,25.8281 Q317.7344,25.625 317.875,25.5625 Q318.0156,25.5 318.1875,25.5 Q318.5156,25.5 318.75,25.7656 Q319,26.0156 319,26.375 Q319,26.7188 318.6563,27.125 Q318.1563,27.7188 317.3594,28.0469 Q316.3125,28.5 315.0313,28.5 Q313.5313,28.5 312.3281,27.9063 Q311.3594,27.4375 310.6719,26.4219 Q310,25.4063 310,24.2031 L310,23.1094 Q310,21.8594 310.5938,20.7656 Q311.2031,19.6719 312.25,19.0938 Q313.3125,18.5 314.5,18.5 Q315.2188,18.5 315.8438,18.75 Q316.4688,19 317,19.5 Z " fill="#000000"/><text fill="#000000" font-family="sans-serif" font-size="12" lengthAdjust="spacing" textLength="111" x="329" y="27.9102">ChemicalLaboratory</text><line style="stroke:#A80036;stroke-width:1.5;" x1="301" x2="442" y1="39" y2="39"/><!--MD5=[7421f545a0d8420c5bec41e74b387d9c]
class Employee--><rect codeLine="36" fill="#FEFECE" filter="url(#f94lh2gsccs20)" height="136.8516" id="Employee" style="stroke:#A80036;stroke-width:1.5;" width="96" x="7" y="197.5"/><ellipse cx="26.05" cy="213.5" fill="#ADD1B2" rx="11" ry="11" style="stroke:#A80036;stroke-width:1.0;"/><path d="M28.05,210 Q28.2531,209.5 28.4875,209.25 Q28.7219,209 28.9875,209 Q29.4563,209 29.7531,209.2813 Q30.05,209.5625 30.05,210.2188 L30.05,211.7813 Q30.05,212.4375 29.7688,212.7188 Q29.4875,213 29.05,213 Q28.6594,213 28.4094,212.8281 Q28.1594,212.6563 28.05,212.2031 Q28.0031,211.8906 27.8313,211.7188 Q27.5188,211.3906 26.9563,211.2031 Q26.3938,211 25.8313,211 Q25.1281,211 24.5344,211.2813 Q23.9563,211.5625 23.5031,212.1875 Q23.05,212.8125 23.05,213.6719 L23.05,214.5938 Q23.05,215.625 23.8938,216.3125 Q24.7375,217 26.2375,217 Q27.1281,217 27.7531,216.7969 Q28.1125,216.6875 28.5188,216.3281 Q28.7844,216.125 28.925,216.0625 Q29.0656,216 29.2375,216 Q29.5656,216 29.8,216.2656 Q30.05,216.5156 30.05,216.875 Q30.05,217.2188 29.7063,217.625 Q29.2063,218.2188 28.4094,218.5469 Q27.3625,219 26.0813,219 Q24.5813,219 23.3781,218.4063 Q22.4094,217.9375 21.7219,216.9219 Q21.05,215.9063 21.05,214.7031 L21.05,213.6094 Q21.05,212.3594 21.6438,211.2656 Q22.2531,210.1719 23.3,209.5938 Q24.3625,209 25.55,209 Q26.2688,209 26.8938,209.25 Q27.5188,209.5 28.05,210 Z " fill="#000000"/><text fill="#000000" font-family="sans-serif" font-size="12" lengthAdjust="spacing" textLength="55" x="40.95" y="218.4102">Employee</text><line style="stroke:#A80036;stroke-width:1.5;" x1="8" x2="102" y1="229.5" y2="229.5"/><text fill="#000000" font-family="sans-serif" font-size="11" lengthAdjust="spacing" textLength="30" x="13" y="244.9189">-name</text><text fill="#000000" font-family="sans-serif" font-size="11" lengthAdjust="spacing" textLength="44" x="13" y="258.7549">-address</text><text fill="#000000" font-family="sans-serif" font-size="11" lengthAdjust="spacing" textLength="71" x="13" y="272.5908">-phoneNumber</text><text fill="#000000" font-family="sans-serif" font-size="11" lengthAdjust="spacing" textLength="28" x="13" y="286.4268">-email</text><text fill="#000000" font-family="sans-serif" font-size="11" lengthAdjust="spacing" textLength="58" x="13" y="300.2627">-employeeId</text><text fill="#000000" font-family="sans-serif" font-size="11" lengthAdjust="spacing" textLength="84" x="13" y="314.0986">-organizationRole</text><text fill="#000000" font-family="sans-serif" font-size="11" lengthAdjust="spacing" textLength="47" x="13" y="327.9346">-socCode</text><!--MD5=[b921f878c1b19577ef94d929b3e93a58]
link Company to Laboratory--><path codeLine="46" d="M414.27,137 C487.26,137 637.35,137 711.93,137 " fill="none" id="Company-Laboratory" style="stroke:#A80036;stroke-width:1.0;"/><polygon fill="#000000" points="572,128.1758,562.9549,125.2369,562.9549,131.1147,572,128.1758" style="stroke:#000000;stroke-width:1.0;"/><text fill="#000000" font-family="sans-serif" font-size="13" lengthAdjust="spacing" textLength="30" x="576" y="133.4951">owns</text><text fill="#000000" font-family="sans-serif" font-size="13" lengthAdjust="spacing" textLength="7" x="421.9335" y="151.8344">1</text><text fill="#000000" font-family="sans-serif" font-size="13" lengthAdjust="spacing" textLength="20" x="683.8416" y="151.6707">1..*</text><!--MD5=[6d0dfcacb99e5b6ea3de933623cb0bd1]
link ClinicalAnalysisLaboratory to Laboratory--><path codeLine="47" d="M452.89,238.96 C524.25,214.95 627.1,180.36 692.74,158.28 " fill="none" id="ClinicalAnalysisLaboratory-to-Laboratory" style="stroke:#A80036;stroke-width:1.0;"/><polygon fill="none" points="690.65,151.6,711.84,151.86,695.11,164.87,690.65,151.6" style="stroke:#A80036;stroke-width:1.0;"/><!--MD5=[2eb961b30663a01bbfd8b4b9b8950031]
link ClinicalAnalysisLaboratory to TestType--><path codeLine="48" d="M460,268.97 C537.26,271.59 646.97,275.3 708.83,277.4 " fill="none" id="ClinicalAnalysisLaboratory-TestType" style="stroke:#A80036;stroke-width:1.0;"/><polygon fill="#000000" points="561.9971,263.3451,553.0567,260.1016,552.8577,265.9761,561.9971,263.3451" style="stroke:#000000;stroke-width:1.0;"/><text fill="#000000" font-family="sans-serif" font-size="13" lengthAdjust="spacing" textLength="50" x="566" y="268.4951">performs</text><text fill="#000000" font-family="sans-serif" font-size="13" lengthAdjust="spacing" textLength="20" x="467.8492" y="283.3598">1..*</text><text fill="#000000" font-family="sans-serif" font-size="13" lengthAdjust="spacing" textLength="5" x="696.0712" y="291.9397">*</text><!--MD5=[63451f9551014685060fb7e73cd3ce2b]
link Employee to ClinicalAnalysisLaboratory--><path codeLine="49" d="M103.08,266 C150.46,266 224.66,266 282.89,266 " fill="none" id="Employee-ClinicalAnalysisLaboratory" style="stroke:#A80036;stroke-width:1.0;"/><polygon fill="#000000" points="174,257.1758,164.9549,254.2369,164.9549,260.1147,174,257.1758" style="stroke:#000000;stroke-width:1.0;"/><text fill="#000000" font-family="sans-serif" font-size="13" lengthAdjust="spacing" textLength="43" x="178" y="262.4951">creates</text><text fill="#000000" font-family="sans-serif" font-size="13" lengthAdjust="spacing" textLength="7" x="110.9782" y="280.7584">1</text><text fill="#000000" font-family="sans-serif" font-size="13" lengthAdjust="spacing" textLength="20" x="255.032" y="280.1532">1..*</text><!--MD5=[ca241da2d6b7ba1ad04f00d8baddcc83]
link ChemicalLaboratory to Laboratory--><path codeLine="50" d="M443.14,45.11 C505.48,61.39 598.66,86.45 679,111 C683.41,112.35 687.96,113.78 692.52,115.24 " fill="none" id="ChemicalLaboratory-to-Laboratory" style="stroke:#A80036;stroke-width:1.0;"/><polygon fill="none" points="694.95,108.67,711.76,121.57,690.57,121.97,694.95,108.67" style="stroke:#A80036;stroke-width:1.0;"/><!--MD5=[c5c404c8d7bef371d5d819a8014aa421]
@startuml
hide methods
left to right direction
skinparam classAttributeIconSize 0



class Company{
-name
-designation
-category
-address
-headquarters
}

class Laboratory {
  -name
  -address
  -phoneNumber
  -tin
}

class ClinicalAnalysisLaboratory {
  -laboratoryId
}

class TestType{
-code
-description
-collectionMethod
}

class ChemicalLaboratory{

}

class Employee{
-name
-address
-phoneNumber
-email
-employeeId
-organizationRole
-socCode
}

Company "1"- - - - "1..*" Laboratory : owns >
ClinicalAnalysisLaboratory - - - -|> Laboratory
ClinicalAnalysisLaboratory "1..*"- - - -"*" TestType : performs >
Employee "1"- - -"1..*"ClinicalAnalysisLaboratory : creates >
ChemicalLaboratory - - - -|> Laboratory



@enduml

PlantUML version 1.2021.00(Sun Jan 10 10:25:05 GMT 2021)
(GPL source distribution)
Java Runtime: OpenJDK Runtime Environment
JVM: OpenJDK 64-Bit Server VM
Default Encoding: Cp1252
Language: pt
Country: PT
--></g></svg>