<?xml version="1.0" encoding="UTF-8" standalone="no"?><svg xmlns="http://www.w3.org/2000/svg" xmlns:xlink="http://www.w3.org/1999/xlink" contentScriptType="application/ecmascript" contentStyleType="text/css" height="259px" preserveAspectRatio="none" style="width:996px;height:259px;" version="1.1" viewBox="0 0 996 259" width="996px" zoomAndPan="magnify"><defs><filter height="300%" id="f1xutmu4wx31fv" width="300%" x="-1" y="-1"><feGaussianBlur result="blurOut" stdDeviation="2.0"/><feColorMatrix in="blurOut" result="blurOut2" type="matrix" values="0 0 0 0 0 0 0 0 0 0 0 0 0 0 0 0 0 0 .4 0"/><feOffset dx="4.0" dy="4.0" in="blurOut2" result="blurOut3"/><feBlend in="SourceGraphic" in2="blurOut3" mode="normal"/></filter></defs><g><!--MD5=[ed6624c6556d5e7b1bd23032162d20b7]
class Client--><rect codeLine="6" fill="#FEFECE" filter="url(#f1xutmu4wx31fv)" height="150.6875" id="Client" style="stroke:#A80036;stroke-width:1.5;" width="107" x="442" y="94.8564"/><ellipse cx="476.35" cy="110.8564" fill="#ADD1B2" rx="11" ry="11" style="stroke:#A80036;stroke-width:1.0;"/><path d="M478.35,107.3564 Q478.5531,106.8564 478.7875,106.6064 Q479.0219,106.3564 479.2875,106.3564 Q479.7563,106.3564 480.0531,106.6377 Q480.35,106.9189 480.35,107.5752 L480.35,109.1377 Q480.35,109.7939 480.0688,110.0752 Q479.7875,110.3564 479.35,110.3564 Q478.9594,110.3564 478.7094,110.1846 Q478.4594,110.0127 478.35,109.5596 Q478.3031,109.2471 478.1313,109.0752 Q477.8188,108.7471 477.2563,108.5596 Q476.6938,108.3564 476.1313,108.3564 Q475.4281,108.3564 474.8344,108.6377 Q474.2563,108.9189 473.8031,109.5439 Q473.35,110.1689 473.35,111.0283 L473.35,111.9502 Q473.35,112.9814 474.1938,113.6689 Q475.0375,114.3564 476.5375,114.3564 Q477.4281,114.3564 478.0531,114.1533 Q478.4125,114.0439 478.8188,113.6846 Q479.0844,113.4814 479.225,113.4189 Q479.3656,113.3564 479.5375,113.3564 Q479.8656,113.3564 480.1,113.6221 Q480.35,113.8721 480.35,114.2314 Q480.35,114.5752 480.0063,114.9814 Q479.5063,115.5752 478.7094,115.9033 Q477.6625,116.3564 476.3813,116.3564 Q474.8813,116.3564 473.6781,115.7627 Q472.7094,115.2939 472.0219,114.2783 Q471.35,113.2627 471.35,112.0596 L471.35,110.9658 Q471.35,109.7158 471.9438,108.6221 Q472.5531,107.5283 473.6,106.9502 Q474.6625,106.3564 475.85,106.3564 Q476.5688,106.3564 477.1938,106.6064 Q477.8188,106.8564 478.35,107.3564 Z " fill="#000000"/><text fill="#000000" font-family="sans-serif" font-size="12" lengthAdjust="spacing" textLength="32" x="494.65" y="115.7666">Client</text><line style="stroke:#A80036;stroke-width:1.5;" x1="443" x2="548" y1="126.8564" y2="126.8564"/><text fill="#000000" font-family="sans-serif" font-size="11" lengthAdjust="spacing" textLength="30" x="448" y="142.2754">-name</text><text fill="#000000" font-family="sans-serif" font-size="11" lengthAdjust="spacing" textLength="28" x="448" y="156.1113">-email</text><text fill="#000000" font-family="sans-serif" font-size="11" lengthAdjust="spacing" textLength="71" x="448" y="169.9473">-phoneNumber</text><text fill="#000000" font-family="sans-serif" font-size="11" lengthAdjust="spacing" textLength="22" x="448" y="183.7832">-sex</text><text fill="#000000" font-family="sans-serif" font-size="11" lengthAdjust="spacing" textLength="15" x="448" y="197.6191">-tin</text><text fill="#000000" font-family="sans-serif" font-size="11" lengthAdjust="spacing" textLength="47" x="448" y="211.4551">-birthDate</text><text fill="#000000" font-family="sans-serif" font-size="11" lengthAdjust="spacing" textLength="59" x="448" y="225.291">-nhsNumber</text><text fill="#000000" font-family="sans-serif" font-size="11" lengthAdjust="spacing" textLength="95" x="448" y="239.127">-citizenCardNumber</text><!--MD5=[a999c1570c205a2156b04a15307bc1ff]
class LabOrder--><rect codeLine="17" fill="#FEFECE" filter="url(#f1xutmu4wx31fv)" height="40" id="LabOrder" style="stroke:#A80036;stroke-width:1.5;" width="84" x="656" y="95.3564"/><ellipse cx="671" cy="111.3564" fill="#ADD1B2" rx="11" ry="11" style="stroke:#A80036;stroke-width:1.0;"/><path d="M673,107.8564 Q673.2031,107.3564 673.4375,107.1064 Q673.6719,106.8564 673.9375,106.8564 Q674.4063,106.8564 674.7031,107.1377 Q675,107.4189 675,108.0752 L675,109.6377 Q675,110.2939 674.7188,110.5752 Q674.4375,110.8564 674,110.8564 Q673.6094,110.8564 673.3594,110.6846 Q673.1094,110.5127 673,110.0596 Q672.9531,109.7471 672.7813,109.5752 Q672.4688,109.2471 671.9063,109.0596 Q671.3438,108.8564 670.7813,108.8564 Q670.0781,108.8564 669.4844,109.1377 Q668.9063,109.4189 668.4531,110.0439 Q668,110.6689 668,111.5283 L668,112.4502 Q668,113.4814 668.8438,114.1689 Q669.6875,114.8564 671.1875,114.8564 Q672.0781,114.8564 672.7031,114.6533 Q673.0625,114.5439 673.4688,114.1846 Q673.7344,113.9814 673.875,113.9189 Q674.0156,113.8564 674.1875,113.8564 Q674.5156,113.8564 674.75,114.1221 Q675,114.3721 675,114.7314 Q675,115.0752 674.6563,115.4814 Q674.1563,116.0752 673.3594,116.4033 Q672.3125,116.8564 671.0313,116.8564 Q669.5313,116.8564 668.3281,116.2627 Q667.3594,115.7939 666.6719,114.7783 Q666,113.7627 666,112.5596 L666,111.4658 Q666,110.2158 666.5938,109.1221 Q667.2031,108.0283 668.25,107.4502 Q669.3125,106.8564 670.5,106.8564 Q671.2188,106.8564 671.8438,107.1064 Q672.4688,107.3564 673,107.8564 Z " fill="#000000"/><text fill="#000000" font-family="sans-serif" font-size="12" lengthAdjust="spacing" textLength="52" x="685" y="116.2666">LabOrder</text><line style="stroke:#A80036;stroke-width:1.5;" x1="657" x2="739" y1="127.3564" y2="127.3564"/><!--MD5=[aeb3272166074d8737a70b61b1e71682]
class TestType--><rect codeLine="20" fill="#FEFECE" filter="url(#f1xutmu4wx31fv)" height="81.5078" id="TestType" style="stroke:#A80036;stroke-width:1.5;" width="96" x="886" y="20.3564"/><ellipse cx="907.3" cy="36.3564" fill="#ADD1B2" rx="11" ry="11" style="stroke:#A80036;stroke-width:1.0;"/><path d="M909.3,32.8564 Q909.5031,32.3564 909.7375,32.1064 Q909.9719,31.8564 910.2375,31.8564 Q910.7063,31.8564 911.0031,32.1377 Q911.3,32.4189 911.3,33.0752 L911.3,34.6377 Q911.3,35.2939 911.0188,35.5752 Q910.7375,35.8564 910.3,35.8564 Q909.9094,35.8564 909.6594,35.6846 Q909.4094,35.5127 909.3,35.0596 Q909.2531,34.7471 909.0813,34.5752 Q908.7688,34.2471 908.2063,34.0596 Q907.6438,33.8564 907.0813,33.8564 Q906.3781,33.8564 905.7844,34.1377 Q905.2063,34.4189 904.7531,35.0439 Q904.3,35.6689 904.3,36.5283 L904.3,37.4502 Q904.3,38.4814 905.1438,39.1689 Q905.9875,39.8564 907.4875,39.8564 Q908.3781,39.8564 909.0031,39.6533 Q909.3625,39.5439 909.7688,39.1846 Q910.0344,38.9814 910.175,38.9189 Q910.3156,38.8564 910.4875,38.8564 Q910.8156,38.8564 911.05,39.1221 Q911.3,39.3721 911.3,39.7314 Q911.3,40.0752 910.9563,40.4814 Q910.4563,41.0752 909.6594,41.4033 Q908.6125,41.8564 907.3313,41.8564 Q905.8313,41.8564 904.6281,41.2627 Q903.6594,40.7939 902.9719,39.7783 Q902.3,38.7627 902.3,37.5596 L902.3,36.4658 Q902.3,35.2158 902.8938,34.1221 Q903.5031,33.0283 904.55,32.4502 Q905.6125,31.8564 906.8,31.8564 Q907.5188,31.8564 908.1438,32.1064 Q908.7688,32.3564 909.3,32.8564 Z " fill="#000000"/><text fill="#000000" font-family="sans-serif" font-size="12" lengthAdjust="spacing" textLength="50" x="922.7" y="41.2666">TestType</text><line style="stroke:#A80036;stroke-width:1.5;" x1="887" x2="981" y1="52.3564" y2="52.3564"/><text fill="#000000" font-family="sans-serif" font-size="11" lengthAdjust="spacing" textLength="28" x="892" y="67.7754">-code</text><text fill="#000000" font-family="sans-serif" font-size="11" lengthAdjust="spacing" textLength="57" x="892" y="81.6113">-description</text><text fill="#000000" font-family="sans-serif" font-size="11" lengthAdjust="spacing" textLength="84" x="892" y="95.4473">-collectingMethod</text><!--MD5=[02e4b9b7573f1156f41e60aa5b4e25a4]
class Company--><rect codeLine="26" fill="#FEFECE" filter="url(#f1xutmu4wx31fv)" height="53.8359" id="Company" style="stroke:#A80036;stroke-width:1.5;" width="85" x="7" y="44.3564"/><ellipse cx="22" cy="60.3564" fill="#ADD1B2" rx="11" ry="11" style="stroke:#A80036;stroke-width:1.0;"/><path d="M24,56.8564 Q24.2031,56.3564 24.4375,56.1064 Q24.6719,55.8564 24.9375,55.8564 Q25.4063,55.8564 25.7031,56.1377 Q26,56.4189 26,57.0752 L26,58.6377 Q26,59.2939 25.7188,59.5752 Q25.4375,59.8564 25,59.8564 Q24.6094,59.8564 24.3594,59.6846 Q24.1094,59.5127 24,59.0596 Q23.9531,58.7471 23.7813,58.5752 Q23.4688,58.2471 22.9063,58.0596 Q22.3438,57.8564 21.7813,57.8564 Q21.0781,57.8564 20.4844,58.1377 Q19.9063,58.4189 19.4531,59.0439 Q19,59.6689 19,60.5283 L19,61.4502 Q19,62.4814 19.8438,63.1689 Q20.6875,63.8564 22.1875,63.8564 Q23.0781,63.8564 23.7031,63.6533 Q24.0625,63.5439 24.4688,63.1846 Q24.7344,62.9814 24.875,62.9189 Q25.0156,62.8564 25.1875,62.8564 Q25.5156,62.8564 25.75,63.1221 Q26,63.3721 26,63.7314 Q26,64.0752 25.6563,64.4814 Q25.1563,65.0752 24.3594,65.4033 Q23.3125,65.8564 22.0313,65.8564 Q20.5313,65.8564 19.3281,65.2627 Q18.3594,64.7939 17.6719,63.7783 Q17,62.7627 17,61.5596 L17,60.4658 Q17,59.2158 17.5938,58.1221 Q18.2031,57.0283 19.25,56.4502 Q20.3125,55.8564 21.5,55.8564 Q22.2188,55.8564 22.8438,56.1064 Q23.4688,56.3564 24,56.8564 Z " fill="#000000"/><text fill="#000000" font-family="sans-serif" font-size="12" lengthAdjust="spacing" textLength="53" x="36" y="65.2666">Company</text><line style="stroke:#A80036;stroke-width:1.5;" x1="8" x2="91" y1="76.3564" y2="76.3564"/><text fill="#000000" font-family="sans-serif" font-size="11" lengthAdjust="spacing" textLength="59" x="13" y="91.7754">-designation</text><!--MD5=[df38be88ccee13e832d6fafd6288a4ca]
class Test--><rect codeLine="30" fill="#FEFECE" filter="url(#f1xutmu4wx31fv)" height="81.5078" id="Test" style="stroke:#A80036;stroke-width:1.5;" width="76" x="217" y="90.3564"/><ellipse cx="241" cy="106.3564" fill="#ADD1B2" rx="11" ry="11" style="stroke:#A80036;stroke-width:1.0;"/><path d="M243,102.8564 Q243.2031,102.3564 243.4375,102.1064 Q243.6719,101.8564 243.9375,101.8564 Q244.4063,101.8564 244.7031,102.1377 Q245,102.4189 245,103.0752 L245,104.6377 Q245,105.2939 244.7188,105.5752 Q244.4375,105.8564 244,105.8564 Q243.6094,105.8564 243.3594,105.6846 Q243.1094,105.5127 243,105.0596 Q242.9531,104.7471 242.7813,104.5752 Q242.4688,104.2471 241.9063,104.0596 Q241.3438,103.8564 240.7813,103.8564 Q240.0781,103.8564 239.4844,104.1377 Q238.9063,104.4189 238.4531,105.0439 Q238,105.6689 238,106.5283 L238,107.4502 Q238,108.4814 238.8438,109.1689 Q239.6875,109.8564 241.1875,109.8564 Q242.0781,109.8564 242.7031,109.6533 Q243.0625,109.5439 243.4688,109.1846 Q243.7344,108.9814 243.875,108.9189 Q244.0156,108.8564 244.1875,108.8564 Q244.5156,108.8564 244.75,109.1221 Q245,109.3721 245,109.7314 Q245,110.0752 244.6563,110.4814 Q244.1563,111.0752 243.3594,111.4033 Q242.3125,111.8564 241.0313,111.8564 Q239.5313,111.8564 238.3281,111.2627 Q237.3594,110.7939 236.6719,109.7783 Q236,108.7627 236,107.5596 L236,106.4658 Q236,105.2158 236.5938,104.1221 Q237.2031,103.0283 238.25,102.4502 Q239.3125,101.8564 240.5,101.8564 Q241.2188,101.8564 241.8438,102.1064 Q242.4688,102.3564 243,102.8564 Z " fill="#000000"/><text fill="#000000" font-family="sans-serif" font-size="12" lengthAdjust="spacing" textLength="24" x="257" y="111.2666">Test</text><line style="stroke:#A80036;stroke-width:1.5;" x1="218" x2="292" y1="122.3564" y2="122.3564"/><text fill="#000000" font-family="sans-serif" font-size="11" lengthAdjust="spacing" textLength="64" x="223" y="137.7754">-internalCode</text><text fill="#000000" font-family="sans-serif" font-size="11" lengthAdjust="spacing" textLength="47" x="223" y="151.6113">-nhsCode</text><text fill="#000000" font-family="sans-serif" font-size="11" lengthAdjust="spacing" textLength="57" x="223" y="165.4473">-description</text><!--MD5=[7e4bc624457760b649895ff2ead938fa]
link Company to Test--><path codeLine="36" d="M92.17,83.6464 C128.8,94.4464 181.61,110.0164 216.83,120.3964 " fill="none" id="Company-Test" style="stroke:#A80036;stroke-width:1.0;"/><polygon fill="#000000" points="131.7959,85.9461,123.951,80.5694,122.289,86.2074,131.7959,85.9461" style="stroke:#000000;stroke-width:1.0;"/><text fill="#000000" font-family="sans-serif" font-size="13" lengthAdjust="spacing" textLength="50" x="136" y="89.8516">performs</text><text fill="#000000" font-family="sans-serif" font-size="13" lengthAdjust="spacing" textLength="7" x="100.1055" y="100.6732">1</text><text fill="#000000" font-family="sans-serif" font-size="13" lengthAdjust="spacing" textLength="5" x="204.0773" y="133.4077">*</text><!--MD5=[3994f36c72829dbcddd1cf7021dddf61]
link Test to Client--><path codeLine="37" d="M293,137.4064 C332.91,143.9364 396.78,154.3764 441.89,161.7564 " fill="none" id="Test-Client" style="stroke:#A80036;stroke-width:1.0;"/><polygon fill="#000000" points="332.9344,134.3392,324.4823,129.979,323.5336,135.7797,332.9344,134.3392" style="stroke:#000000;stroke-width:1.0;"/><text fill="#000000" font-family="sans-serif" font-size="13" lengthAdjust="spacing" textLength="74" x="337" y="138.8516">associated a</text><text fill="#000000" font-family="sans-serif" font-size="13" lengthAdjust="spacing" textLength="7" x="300.9109" y="153.6603">1</text><text fill="#000000" font-family="sans-serif" font-size="13" lengthAdjust="spacing" textLength="5" x="428.9995" y="175.2139">*</text><!--MD5=[0bde84c484199f8c429a86e32cc6847f]
link Client to LabOrder--><path codeLine="38" d="M549.18,155.9064 C582.48,146.7664 624.89,135.1364 655.74,126.6764 " fill="none" id="Client-LabOrder" style="stroke:#A80036;stroke-width:1.0;"/><polygon fill="#000000" points="588.8219,125.2096,579.3216,124.7681,580.8765,130.4365,588.8219,125.2096" style="stroke:#000000;stroke-width:1.0;"/><text fill="#000000" font-family="sans-serif" font-size="13" lengthAdjust="spacing" textLength="32" x="593" y="131.8516">has a</text><text fill="#000000" font-family="sans-serif" font-size="13" lengthAdjust="spacing" textLength="7" x="556.8636" y="168.5795">1</text><text fill="#000000" font-family="sans-serif" font-size="13" lengthAdjust="spacing" textLength="20" x="628.0643" y="143.035">1..*</text><!--MD5=[fba3ac294f3c76c431d275cef443fef8]
link LabOrder to TestType--><path codeLine="39" d="M740.03,105.8864 C780.79,96.4864 843.23,82.0764 885.98,72.2064 " fill="none" id="LabOrder-TestType" style="stroke:#A80036;stroke-width:1.0;"/><polygon fill="#000000" points="779.872,71.408,770.3977,70.5781,771.7193,76.3054,779.872,71.408" style="stroke:#000000;stroke-width:1.0;"/><text fill="#000000" font-family="sans-serif" font-size="13" lengthAdjust="spacing" textLength="71" x="784" y="77.8516">contains the</text><text fill="#000000" font-family="sans-serif" font-size="13" lengthAdjust="spacing" textLength="7" x="748.14" y="119.151">1</text><text fill="#000000" font-family="sans-serif" font-size="13" lengthAdjust="spacing" textLength="5" x="872.9284" y="88.773">*</text><!--MD5=[742a261f27a3dcd734c626287d811acd]
link Company to TestType--><path codeLine="40" d="M92.33,55.8364 C133.03,42.1464 196.89,24.3564 254,24.3564 C254,24.3564 254,24.3564 699,24.3564 C764.4,24.3564 838.83,38.6264 885.84,49.4464 " fill="none" id="Company-TestType" style="stroke:#A80036;stroke-width:1.0;"/><polygon fill="#000000" points="471.4998,15.492,462.4314,12.626,462.4787,18.5036,471.4998,15.492" style="stroke:#000000;stroke-width:1.0;"/><text fill="#000000" font-family="sans-serif" font-size="13" lengthAdjust="spacing" textLength="53" x="475.5" y="20.8516">conducts</text><text fill="#000000" font-family="sans-serif" font-size="13" lengthAdjust="spacing" textLength="5" x="100.1211" y="68.0834">*</text><text fill="#000000" font-family="sans-serif" font-size="13" lengthAdjust="spacing" textLength="7" x="870.9296" y="62.4074">1</text><!--MD5=[8ab2e4cfadce9013d792ec6a64628440]
@startuml
hide methods
left to right direction
skinparam classAttributeIconSize 0


class Client {
   - name
   - email
   - phoneNumber
   - sex
   - tin
   - birthDate
   - nhsNumber
   - citizenCardNumber
}

class LabOrder {
}

class TestType {
  -code
  -description
  -collectingMethod
}

class Company {
  -designation
}

class Test {
  -internalCode
  -nhsCode
  -description
}

Company "1" - - "*" Test : performs >
Test "1" - - "*" Client : associated a >
Client "1" - - "1..*" LabOrder : has a >
LabOrder "1" - - "*" TestType: contains the >
Company "*" - - "1" TestType: conducts >



@enduml

PlantUML version 1.2021.5(Sun Apr 25 12:20:28 BST 2021)
(GPL source distribution)
Java Runtime: OpenJDK Runtime Environment
JVM: OpenJDK 64-Bit Server VM
Default Encoding: Cp1252
Language: pt
Country: PT
--></g></svg>