<?xml version="1.0" encoding="UTF-8" standalone="no"?><svg xmlns="http://www.w3.org/2000/svg" xmlns:xlink="http://www.w3.org/1999/xlink" contentScriptType="application/ecmascript" contentStyleType="text/css" height="731px" preserveAspectRatio="none" style="width:434px;height:731px;" version="1.1" viewBox="0 0 434 731" width="434px" zoomAndPan="magnify"><defs><filter height="300%" id="fyx92wwof9akg" width="300%" x="-1" y="-1"><feGaussianBlur result="blurOut" stdDeviation="2.0"/><feColorMatrix in="blurOut" result="blurOut2" type="matrix" values="0 0 0 0 0 0 0 0 0 0 0 0 0 0 0 0 0 0 .4 0"/><feOffset dx="4.0" dy="4.0" in="blurOut2" result="blurOut3"/><feBlend in="SourceGraphic" in2="blurOut3" mode="normal"/></filter></defs><g><rect fill="#FFFFFF" filter="url(#fyx92wwof9akg)" height="528.3281" style="stroke:#A80036;stroke-width:1.0;" width="10" x="67" y="99.6094"/><rect fill="#FFFFFF" filter="url(#fyx92wwof9akg)" height="30.3516" style="stroke:#A80036;stroke-width:1.0;" width="10" x="361" y="138.3125"/><rect fill="#FFFFFF" filter="url(#fyx92wwof9akg)" height="30.3516" style="stroke:#A80036;stroke-width:1.0;" width="10" x="361" y="199.0156"/><rect fill="#FFFFFF" filter="url(#fyx92wwof9akg)" height="30.3516" style="stroke:#A80036;stroke-width:1.0;" width="10" x="361" y="259.7188"/><rect fill="#FFFFFF" filter="url(#fyx92wwof9akg)" height="30.3516" style="stroke:#A80036;stroke-width:1.0;" width="10" x="361" y="320.4219"/><rect fill="#FFFFFF" filter="url(#fyx92wwof9akg)" height="30.3516" style="stroke:#A80036;stroke-width:1.0;" width="10" x="361" y="406.4766"/><rect fill="#FFFFFF" filter="url(#fyx92wwof9akg)" height="74.7031" style="stroke:#A80036;stroke-width:1.0;" width="10" x="361" y="492.5313"/><rect fill="#FFFFFF" filter="url(#fyx92wwof9akg)" height="30.3516" style="stroke:#A80036;stroke-width:1.0;" width="10" x="361" y="597.5859"/><rect fill="#FFFFFF" filter="url(#fyx92wwof9akg)" height="172.1094" style="stroke:#000000;stroke-width:2.0;" width="410" x="10" y="365.7734"/><rect fill="#FFFFFF" filter="url(#fyx92wwof9akg)" height="79.0547" style="stroke:#000000;stroke-width:2.0;" width="390" x="20" y="451.8281"/><line style="stroke:#A80036;stroke-width:1.0;stroke-dasharray:5.0,5.0;" x1="72" x2="72" y1="89.6094" y2="645.9375"/><line style="stroke:#A80036;stroke-width:1.0;stroke-dasharray:5.0,5.0;" x1="366" x2="366" y1="89.6094" y2="645.9375"/><text fill="#000000" font-family="sans-serif" font-size="14" lengthAdjust="spacing" textLength="78" x="30" y="86.5332">Receptionist</text><ellipse cx="72" cy="15" fill="#FEFECE" filter="url(#fyx92wwof9akg)" rx="8" ry="8" style="stroke:#A80036;stroke-width:2.0;"/><path d="M72,23 L72,50 M59,31 L85,31 M72,50 L59,65 M72,50 L85,65 " fill="none" filter="url(#fyx92wwof9akg)" style="stroke:#A80036;stroke-width:2.0;"/><text fill="#000000" font-family="sans-serif" font-size="14" lengthAdjust="spacing" textLength="78" x="30" y="659.4707">Receptionist</text><ellipse cx="72" cy="672.5469" fill="#FEFECE" filter="url(#fyx92wwof9akg)" rx="8" ry="8" style="stroke:#A80036;stroke-width:2.0;"/><path d="M72,680.5469 L72,707.5469 M59,688.5469 L85,688.5469 M72,707.5469 L59,722.5469 M72,707.5469 L85,722.5469 " fill="none" filter="url(#fyx92wwof9akg)" style="stroke:#A80036;stroke-width:2.0;"/><rect fill="#FEFECE" filter="url(#fyx92wwof9akg)" height="31.6094" style="stroke:#A80036;stroke-width:1.5;" width="64" x="332" y="53"/><text fill="#000000" font-family="sans-serif" font-size="14" lengthAdjust="spacing" textLength="50" x="339" y="74.5332">:System</text><rect fill="#FEFECE" filter="url(#fyx92wwof9akg)" height="31.6094" style="stroke:#A80036;stroke-width:1.5;" width="64" x="332" y="644.9375"/><text fill="#000000" font-family="sans-serif" font-size="14" lengthAdjust="spacing" textLength="50" x="339" y="666.4707">:System</text><rect fill="#FFFFFF" filter="url(#fyx92wwof9akg)" height="528.3281" style="stroke:#A80036;stroke-width:1.0;" width="10" x="67" y="99.6094"/><rect fill="#FFFFFF" filter="url(#fyx92wwof9akg)" height="30.3516" style="stroke:#A80036;stroke-width:1.0;" width="10" x="361" y="138.3125"/><rect fill="#FFFFFF" filter="url(#fyx92wwof9akg)" height="30.3516" style="stroke:#A80036;stroke-width:1.0;" width="10" x="361" y="199.0156"/><rect fill="#FFFFFF" filter="url(#fyx92wwof9akg)" height="30.3516" style="stroke:#A80036;stroke-width:1.0;" width="10" x="361" y="259.7188"/><rect fill="#FFFFFF" filter="url(#fyx92wwof9akg)" height="30.3516" style="stroke:#A80036;stroke-width:1.0;" width="10" x="361" y="320.4219"/><rect fill="#FFFFFF" filter="url(#fyx92wwof9akg)" height="30.3516" style="stroke:#A80036;stroke-width:1.0;" width="10" x="361" y="406.4766"/><rect fill="#FFFFFF" filter="url(#fyx92wwof9akg)" height="74.7031" style="stroke:#A80036;stroke-width:1.0;" width="10" x="361" y="492.5313"/><rect fill="#FFFFFF" filter="url(#fyx92wwof9akg)" height="30.3516" style="stroke:#A80036;stroke-width:1.0;" width="10" x="361" y="597.5859"/><polygon fill="#A80036" points="349,134.3125,359,138.3125,349,142.3125,353,138.3125" style="stroke:#A80036;stroke-width:1.0;"/><line style="stroke:#A80036;stroke-width:1.0;" x1="77" x2="355" y1="138.3125" y2="138.3125"/><text fill="#000000" font-family="sans-serif" font-size="13" font-weight="bold" lengthAdjust="spacing" textLength="7" x="84" y="125.2803">1</text><text fill="#000000" font-family="sans-serif" font-size="13" lengthAdjust="spacing" textLength="160" x="95" y="117.1045">asks to register a test to be</text><text fill="#000000" font-family="sans-serif" font-size="13" lengthAdjust="spacing" textLength="179" x="99" y="133.4561">performed to a registered client</text><polygon fill="#A80036" points="88,164.6641,78,168.6641,88,172.6641,84,168.6641" style="stroke:#A80036;stroke-width:1.0;"/><line style="stroke:#A80036;stroke-width:1.0;stroke-dasharray:2.0,2.0;" x1="82" x2="365" y1="168.6641" y2="168.6641"/><text fill="#000000" font-family="sans-serif" font-size="13" font-weight="bold" lengthAdjust="spacing" textLength="7" x="94" y="163.8076">2</text><text fill="#000000" font-family="sans-serif" font-size="13" lengthAdjust="spacing" textLength="158" x="105" y="163.8076">requests data (tin,nhscode)</text><polygon fill="#A80036" points="349,195.0156,359,199.0156,349,203.0156,353,199.0156" style="stroke:#A80036;stroke-width:1.0;"/><line style="stroke:#A80036;stroke-width:1.0;" x1="77" x2="355" y1="199.0156" y2="199.0156"/><text fill="#000000" font-family="sans-serif" font-size="13" font-weight="bold" lengthAdjust="spacing" textLength="7" x="84" y="194.1592">3</text><text fill="#000000" font-family="sans-serif" font-size="13" lengthAdjust="spacing" textLength="122" x="95" y="194.1592">types requested data</text><polygon fill="#A80036" points="88,225.3672,78,229.3672,88,233.3672,84,229.3672" style="stroke:#A80036;stroke-width:1.0;"/><line style="stroke:#A80036;stroke-width:1.0;stroke-dasharray:2.0,2.0;" x1="82" x2="365" y1="229.3672" y2="229.3672"/><text fill="#000000" font-family="sans-serif" font-size="13" font-weight="bold" lengthAdjust="spacing" textLength="7" x="94" y="224.5107">4</text><text fill="#000000" font-family="sans-serif" font-size="13" lengthAdjust="spacing" textLength="244" x="105" y="224.5107">shows laboratories and asks to select one</text><polygon fill="#A80036" points="349,255.7188,359,259.7188,349,263.7188,353,259.7188" style="stroke:#A80036;stroke-width:1.0;"/><line style="stroke:#A80036;stroke-width:1.0;" x1="77" x2="355" y1="259.7188" y2="259.7188"/><text fill="#000000" font-family="sans-serif" font-size="13" font-weight="bold" lengthAdjust="spacing" textLength="7" x="84" y="254.8623">5</text><text fill="#000000" font-family="sans-serif" font-size="13" lengthAdjust="spacing" textLength="114" x="95" y="254.8623">selects a laboratory</text><polygon fill="#A80036" points="88,286.0703,78,290.0703,88,294.0703,84,290.0703" style="stroke:#A80036;stroke-width:1.0;"/><line style="stroke:#A80036;stroke-width:1.0;stroke-dasharray:2.0,2.0;" x1="82" x2="365" y1="290.0703" y2="290.0703"/><text fill="#000000" font-family="sans-serif" font-size="13" font-weight="bold" lengthAdjust="spacing" textLength="7" x="94" y="285.2139">6</text><text fill="#000000" font-family="sans-serif" font-size="13" lengthAdjust="spacing" textLength="235" x="105" y="285.2139">shows test types and asks to select one</text><polygon fill="#A80036" points="349,316.4219,359,320.4219,349,324.4219,353,320.4219" style="stroke:#A80036;stroke-width:1.0;"/><line style="stroke:#A80036;stroke-width:1.0;" x1="77" x2="355" y1="320.4219" y2="320.4219"/><text fill="#000000" font-family="sans-serif" font-size="13" font-weight="bold" lengthAdjust="spacing" textLength="7" x="84" y="315.5654">7</text><text fill="#000000" font-family="sans-serif" font-size="13" lengthAdjust="spacing" textLength="108" x="95" y="315.5654">selects a test type</text><polygon fill="#A80036" points="88,346.7734,78,350.7734,88,354.7734,84,350.7734" style="stroke:#A80036;stroke-width:1.0;"/><line style="stroke:#A80036;stroke-width:1.0;stroke-dasharray:2.0,2.0;" x1="82" x2="365" y1="350.7734" y2="350.7734"/><text fill="#000000" font-family="sans-serif" font-size="13" font-weight="bold" lengthAdjust="spacing" textLength="7" x="94" y="345.917">8</text><text fill="#000000" font-family="sans-serif" font-size="13" lengthAdjust="spacing" textLength="249" x="105" y="345.917">shows parameter categories to be selected</text><path d="M10,365.7734 L83,365.7734 L83,373.7734 L73,383.7734 L10,383.7734 L10,365.7734 " fill="#EEEEEE" style="stroke:#000000;stroke-width:1.0;"/><rect fill="none" height="172.1094" style="stroke:#000000;stroke-width:2.0;" width="410" x="10" y="365.7734"/><text fill="#000000" font-family="sans-serif" font-size="13" font-weight="bold" lengthAdjust="spacing" textLength="28" x="25" y="380.2686">loop</text><polygon fill="#A80036" points="349,402.4766,359,406.4766,349,410.4766,353,406.4766" style="stroke:#A80036;stroke-width:1.0;"/><line style="stroke:#A80036;stroke-width:1.0;" x1="77" x2="355" y1="406.4766" y2="406.4766"/><text fill="#000000" font-family="sans-serif" font-size="13" font-weight="bold" lengthAdjust="spacing" textLength="7" x="84" y="401.6201">9</text><text fill="#000000" font-family="sans-serif" font-size="13" lengthAdjust="spacing" textLength="158" x="95" y="401.6201">selects parameter category</text><polygon fill="#A80036" points="88,432.8281,78,436.8281,88,440.8281,84,436.8281" style="stroke:#A80036;stroke-width:1.0;"/><line style="stroke:#A80036;stroke-width:1.0;stroke-dasharray:2.0,2.0;" x1="82" x2="365" y1="436.8281" y2="436.8281"/><text fill="#000000" font-family="sans-serif" font-size="13" font-weight="bold" lengthAdjust="spacing" textLength="14" x="94" y="431.9717">10</text><text fill="#000000" font-family="sans-serif" font-size="13" lengthAdjust="spacing" textLength="192" x="112" y="431.9717">shows parameters to be selected</text><path d="M20,451.8281 L93,451.8281 L93,459.8281 L83,469.8281 L20,469.8281 L20,451.8281 " fill="#EEEEEE" style="stroke:#000000;stroke-width:1.0;"/><rect fill="none" height="79.0547" style="stroke:#000000;stroke-width:2.0;" width="390" x="20" y="451.8281"/><text fill="#000000" font-family="sans-serif" font-size="13" font-weight="bold" lengthAdjust="spacing" textLength="28" x="35" y="466.3232">loop</text><polygon fill="#A80036" points="349,488.5313,359,492.5313,349,496.5313,353,492.5313" style="stroke:#A80036;stroke-width:1.0;"/><line style="stroke:#A80036;stroke-width:1.0;" x1="77" x2="355" y1="492.5313" y2="492.5313"/><text fill="#000000" font-family="sans-serif" font-size="13" font-weight="bold" lengthAdjust="spacing" textLength="14" x="84" y="487.6748">11</text><text fill="#000000" font-family="sans-serif" font-size="13" lengthAdjust="spacing" textLength="115" x="102" y="487.6748">selects a parameter</text><polygon fill="#A80036" points="88,518.8828,78,522.8828,88,526.8828,84,522.8828" style="stroke:#A80036;stroke-width:1.0;"/><line style="stroke:#A80036;stroke-width:1.0;stroke-dasharray:2.0,2.0;" x1="82" x2="360" y1="522.8828" y2="522.8828"/><text fill="#000000" font-family="sans-serif" font-size="13" font-weight="bold" lengthAdjust="spacing" textLength="14" x="94" y="518.0264">12</text><text fill="#000000" font-family="sans-serif" font-size="13" lengthAdjust="spacing" textLength="115" x="112" y="518.0264">added with success</text><polygon fill="#A80036" points="88,563.2344,78,567.2344,88,571.2344,84,567.2344" style="stroke:#A80036;stroke-width:1.0;"/><line style="stroke:#A80036;stroke-width:1.0;stroke-dasharray:2.0,2.0;" x1="82" x2="365" y1="567.2344" y2="567.2344"/><text fill="#000000" font-family="sans-serif" font-size="13" font-weight="bold" lengthAdjust="spacing" textLength="14" x="94" y="562.3779">13</text><text fill="#000000" font-family="sans-serif" font-size="13" lengthAdjust="spacing" textLength="236" x="112" y="562.3779">shows all data and requests confirmation</text><polygon fill="#A80036" points="349,593.5859,359,597.5859,349,601.5859,353,597.5859" style="stroke:#A80036;stroke-width:1.0;"/><line style="stroke:#A80036;stroke-width:1.0;" x1="77" x2="355" y1="597.5859" y2="597.5859"/><text fill="#000000" font-family="sans-serif" font-size="13" font-weight="bold" lengthAdjust="spacing" textLength="14" x="84" y="592.7295">14</text><text fill="#000000" font-family="sans-serif" font-size="13" lengthAdjust="spacing" textLength="100" x="102" y="592.7295">confirms the data</text><polygon fill="#A80036" points="83,623.9375,73,627.9375,83,631.9375,79,627.9375" style="stroke:#A80036;stroke-width:1.0;"/><line style="stroke:#A80036;stroke-width:1.0;stroke-dasharray:2.0,2.0;" x1="77" x2="365" y1="627.9375" y2="627.9375"/><text fill="#000000" font-family="sans-serif" font-size="13" font-weight="bold" lengthAdjust="spacing" textLength="14" x="89" y="623.0811">15</text><text fill="#000000" font-family="sans-serif" font-size="13" lengthAdjust="spacing" textLength="152" x="107" y="623.0811">informs operation success</text><!--MD5=[27236c28c356398b673941f8b065bf79]
@startuml
autonumber
actor "Receptionist" as REP

activate REP
REP -> ":System" : asks to register a test to be \n performed to a registered client
activate ":System"
":System" - -> REP : requests data (tin,nhscode)
deactivate ":System"

REP -> ":System" : types requested data
activate ":System"
":System" - -> REP : shows laboratories and asks to select one
deactivate ":System"

REP -> ":System" : selects a laboratory
activate ":System"
":System" - -> REP : shows test types and asks to select one
deactivate ":System"

REP -> ":System" : selects a test type
activate ":System"

":System" - -> REP : shows parameter categories to be selected
deactivate ":System"
loop
REP -> ":System" : selects parameter category
activate ":System"

":System" - -> REP : shows parameters to be selected
deactivate ":System"

loop
REP -> ":System" : selects a parameter
activate ":System"
":System" - -> REP : added with success
end
end

":System" - -> REP : shows all data and requests confirmation
deactivate ":System"

REP -> ":System" : confirms the data
activate ":System"
":System" - -> REP : informs operation success
deactivate ":System"

deactivate REP

@enduml

PlantUML version 1.2021.5(Sun Apr 25 12:20:28 BST 2021)
(GPL source distribution)
Java Runtime: OpenJDK Runtime Environment
JVM: OpenJDK 64-Bit Server VM
Default Encoding: Cp1252
Language: pt
Country: PT
--></g></svg>