<?xml version="1.0" encoding="UTF-8" standalone="no"?><svg xmlns="http://www.w3.org/2000/svg" xmlns:xlink="http://www.w3.org/1999/xlink" contentScriptType="application/ecmascript" contentStyleType="text/css" height="888px" preserveAspectRatio="none" style="width:2797px;height:888px;" version="1.1" viewBox="0 0 2797 888" width="2797px" zoomAndPan="magnify"><defs><filter height="300%" id="fvzkekxksnk35" width="300%" x="-1" y="-1"><feGaussianBlur result="blurOut" stdDeviation="2.0"/><feColorMatrix in="blurOut" result="blurOut2" type="matrix" values="0 0 0 0 0 0 0 0 0 0 0 0 0 0 0 0 0 0 .4 0"/><feOffset dx="4.0" dy="4.0" in="blurOut2" result="blurOut3"/><feBlend in="SourceGraphic" in2="blurOut3" mode="normal"/></filter></defs><g><!--MD5=[e484dff12bc7e3f9ae9e3c87a060152b]
cluster mappers--><polygon fill="#FFFFFF" filter="url(#fvzkekxksnk35)" points="574,173.5,641,173.5,648,197.1094,1364,197.1094,1364,287.5,574,287.5,574,173.5" style="stroke:#000000;stroke-width:1.5;"/><line style="stroke:#000000;stroke-width:1.5;" x1="574" x2="648" y1="197.1094" y2="197.1094"/><text fill="#000000" font-family="sans-serif" font-size="14" font-weight="bold" lengthAdjust="spacing" textLength="61" x="578" y="190.0332">mappers</text><!--MD5=[e6eced616a98d47334dd1aaaa829ffd5]
cluster dto--><polygon fill="#FFFFFF" filter="url(#fvzkekxksnk35)" points="16,670.5,45,670.5,52,694.1094,743,694.1094,743,770.5,16,770.5,16,670.5" style="stroke:#000000;stroke-width:1.5;"/><line style="stroke:#000000;stroke-width:1.5;" x1="16" x2="52" y1="694.1094" y2="694.1094"/><text fill="#000000" font-family="sans-serif" font-size="14" font-weight="bold" lengthAdjust="spacing" textLength="23" x="20" y="687.0332">dto</text><!--MD5=[5d4cd377749310b66bf14896f5cd8d9b]
cluster model--><polygon fill="#FFFFFF" filter="url(#fvzkekxksnk35)" points="793,560,842,560,849,583.6094,2051,583.6094,2051,881,793,881,793,560" style="stroke:#000000;stroke-width:1.5;"/><line style="stroke:#000000;stroke-width:1.5;" x1="793" x2="849" y1="583.6094" y2="583.6094"/><text fill="#000000" font-family="sans-serif" font-size="14" font-weight="bold" lengthAdjust="spacing" textLength="43" x="797" y="576.5332">model</text><!--MD5=[c23849cc5f4a85746a20de4317c530fc]
cluster store--><polygon fill="#FFFFFF" filter="url(#fvzkekxksnk35)" points="1643,355,1686,355,1693,378.6094,2780,378.6094,2780,510,1643,510,1643,355" style="stroke:#000000;stroke-width:1.5;"/><line style="stroke:#000000;stroke-width:1.5;" x1="1643" x2="1693" y1="378.6094" y2="378.6094"/><text fill="#000000" font-family="sans-serif" font-size="14" font-weight="bold" lengthAdjust="spacing" textLength="37" x="1647" y="371.5332">store</text><!--MD5=[10ea673caf457862023e152271927b45]
cluster controller--><polygon fill="#FFFFFF" filter="url(#fvzkekxksnk35)" points="1388,139,1463,139,1470,162.6094,1592,162.6094,1592,322,1388,322,1388,139" style="stroke:#000000;stroke-width:1.5;"/><line style="stroke:#000000;stroke-width:1.5;" x1="1388" x2="1470" y1="162.6094" y2="162.6094"/><text fill="#000000" font-family="sans-serif" font-size="14" font-weight="bold" lengthAdjust="spacing" textLength="69" x="1392" y="155.5332">controller</text><!--MD5=[64e2e010ba86d7988e5cd73bd64f61f9]
cluster ui--><polygon fill="#FFFFFF" filter="url(#fvzkekxksnk35)" points="291,6,310,6,317,29.6094,439,29.6094,439,106,291,106,291,6" style="stroke:#000000;stroke-width:1.5;"/><line style="stroke:#000000;stroke-width:1.5;" x1="291" x2="317" y1="29.6094" y2="29.6094"/><text fill="#000000" font-family="sans-serif" font-size="14" font-weight="bold" lengthAdjust="spacing" textLength="13" x="295" y="22.5332">ui</text><!--MD5=[724ead17d3ca940995455a91cefd1e12]
class TestTypeMapper--><rect codeLine="76" fill="#FEFECE" filter="url(#fvzkekxksnk35)" height="61.8359" id="TestTypeMapper" style="stroke:#A80036;stroke-width:1.5;" width="123" x="590.5" y="209.5"/><ellipse cx="605.5" cy="225.5" fill="#ADD1B2" rx="11" ry="11" style="stroke:#A80036;stroke-width:1.0;"/><path d="M607.5,222 Q607.7031,221.5 607.9375,221.25 Q608.1719,221 608.4375,221 Q608.9063,221 609.2031,221.2813 Q609.5,221.5625 609.5,222.2188 L609.5,223.7813 Q609.5,224.4375 609.2188,224.7188 Q608.9375,225 608.5,225 Q608.1094,225 607.8594,224.8281 Q607.6094,224.6563 607.5,224.2031 Q607.4531,223.8906 607.2813,223.7188 Q606.9688,223.3906 606.4063,223.2031 Q605.8438,223 605.2813,223 Q604.5781,223 603.9844,223.2813 Q603.4063,223.5625 602.9531,224.1875 Q602.5,224.8125 602.5,225.6719 L602.5,226.5938 Q602.5,227.625 603.3438,228.3125 Q604.1875,229 605.6875,229 Q606.5781,229 607.2031,228.7969 Q607.5625,228.6875 607.9688,228.3281 Q608.2344,228.125 608.375,228.0625 Q608.5156,228 608.6875,228 Q609.0156,228 609.25,228.2656 Q609.5,228.5156 609.5,228.875 Q609.5,229.2188 609.1563,229.625 Q608.6563,230.2188 607.8594,230.5469 Q606.8125,231 605.5313,231 Q604.0313,231 602.8281,230.4063 Q601.8594,229.9375 601.1719,228.9219 Q600.5,227.9063 600.5,226.7031 L600.5,225.6094 Q600.5,224.3594 601.0938,223.2656 Q601.7031,222.1719 602.75,221.5938 Q603.8125,221 605,221 Q605.7188,221 606.3438,221.25 Q606.9688,221.5 607.5,222 Z " fill="#000000"/><text fill="#000000" font-family="sans-serif" font-size="12" lengthAdjust="spacing" textLength="91" x="619.5" y="230.4102">TestTypeMapper</text><line style="stroke:#A80036;stroke-width:1.5;" x1="591.5" x2="712.5" y1="241.5" y2="241.5"/><line style="stroke:#A80036;stroke-width:1.5;" x1="591.5" x2="712.5" y1="249.5" y2="249.5"/><ellipse cx="601.5" cy="260.5" fill="#84BE84" rx="3" ry="3" style="stroke:#038048;stroke-width:1.0;"/><text fill="#000000" font-family="sans-serif" font-size="11" lengthAdjust="spacing" textLength="57" x="610.5" y="264.9189">toDTO(TTS)</text><!--MD5=[e0569d1bc34b9d21face98cd33d75fba]
class ParameterMapper--><rect codeLine="156" fill="#FEFECE" filter="url(#fvzkekxksnk35)" height="61.8359" id="ParameterMapper" style="stroke:#A80036;stroke-width:1.5;" width="131" x="748.5" y="209.5"/><ellipse cx="763.5" cy="225.5" fill="#ADD1B2" rx="11" ry="11" style="stroke:#A80036;stroke-width:1.0;"/><path d="M765.5,222 Q765.7031,221.5 765.9375,221.25 Q766.1719,221 766.4375,221 Q766.9063,221 767.2031,221.2813 Q767.5,221.5625 767.5,222.2188 L767.5,223.7813 Q767.5,224.4375 767.2188,224.7188 Q766.9375,225 766.5,225 Q766.1094,225 765.8594,224.8281 Q765.6094,224.6563 765.5,224.2031 Q765.4531,223.8906 765.2813,223.7188 Q764.9688,223.3906 764.4063,223.2031 Q763.8438,223 763.2813,223 Q762.5781,223 761.9844,223.2813 Q761.4063,223.5625 760.9531,224.1875 Q760.5,224.8125 760.5,225.6719 L760.5,226.5938 Q760.5,227.625 761.3438,228.3125 Q762.1875,229 763.6875,229 Q764.5781,229 765.2031,228.7969 Q765.5625,228.6875 765.9688,228.3281 Q766.2344,228.125 766.375,228.0625 Q766.5156,228 766.6875,228 Q767.0156,228 767.25,228.2656 Q767.5,228.5156 767.5,228.875 Q767.5,229.2188 767.1563,229.625 Q766.6563,230.2188 765.8594,230.5469 Q764.8125,231 763.5313,231 Q762.0313,231 760.8281,230.4063 Q759.8594,229.9375 759.1719,228.9219 Q758.5,227.9063 758.5,226.7031 L758.5,225.6094 Q758.5,224.3594 759.0938,223.2656 Q759.7031,222.1719 760.75,221.5938 Q761.8125,221 763,221 Q763.7188,221 764.3438,221.25 Q764.9688,221.5 765.5,222 Z " fill="#000000"/><text fill="#000000" font-family="sans-serif" font-size="12" lengthAdjust="spacing" textLength="99" x="777.5" y="230.4102">ParameterMapper</text><line style="stroke:#A80036;stroke-width:1.5;" x1="749.5" x2="878.5" y1="241.5" y2="241.5"/><line style="stroke:#A80036;stroke-width:1.5;" x1="749.5" x2="878.5" y1="249.5" y2="249.5"/><ellipse cx="759.5" cy="260.5" fill="#84BE84" rx="3" ry="3" style="stroke:#038048;stroke-width:1.0;"/><text fill="#000000" font-family="sans-serif" font-size="11" lengthAdjust="spacing" textLength="52" x="768.5" y="264.9189">toDTO(PM)</text><!--MD5=[fab6cba0d8a30102bb3e071a5ce00b91]
class ParameterCategoryMapper--><rect codeLine="95" fill="#FEFECE" filter="url(#fvzkekxksnk35)" height="61.8359" id="ParameterCategoryMapper" style="stroke:#A80036;stroke-width:1.5;" width="180" x="915" y="209.5"/><ellipse cx="930" cy="225.5" fill="#ADD1B2" rx="11" ry="11" style="stroke:#A80036;stroke-width:1.0;"/><path d="M932,222 Q932.2031,221.5 932.4375,221.25 Q932.6719,221 932.9375,221 Q933.4063,221 933.7031,221.2813 Q934,221.5625 934,222.2188 L934,223.7813 Q934,224.4375 933.7188,224.7188 Q933.4375,225 933,225 Q932.6094,225 932.3594,224.8281 Q932.1094,224.6563 932,224.2031 Q931.9531,223.8906 931.7813,223.7188 Q931.4688,223.3906 930.9063,223.2031 Q930.3438,223 929.7813,223 Q929.0781,223 928.4844,223.2813 Q927.9063,223.5625 927.4531,224.1875 Q927,224.8125 927,225.6719 L927,226.5938 Q927,227.625 927.8438,228.3125 Q928.6875,229 930.1875,229 Q931.0781,229 931.7031,228.7969 Q932.0625,228.6875 932.4688,228.3281 Q932.7344,228.125 932.875,228.0625 Q933.0156,228 933.1875,228 Q933.5156,228 933.75,228.2656 Q934,228.5156 934,228.875 Q934,229.2188 933.6563,229.625 Q933.1563,230.2188 932.3594,230.5469 Q931.3125,231 930.0313,231 Q928.5313,231 927.3281,230.4063 Q926.3594,229.9375 925.6719,228.9219 Q925,227.9063 925,226.7031 L925,225.6094 Q925,224.3594 925.5938,223.2656 Q926.2031,222.1719 927.25,221.5938 Q928.3125,221 929.5,221 Q930.2188,221 930.8438,221.25 Q931.4688,221.5 932,222 Z " fill="#000000"/><text fill="#000000" font-family="sans-serif" font-size="12" lengthAdjust="spacing" textLength="148" x="944" y="230.4102">ParameterCategoryMapper</text><line style="stroke:#A80036;stroke-width:1.5;" x1="916" x2="1094" y1="241.5" y2="241.5"/><line style="stroke:#A80036;stroke-width:1.5;" x1="916" x2="1094" y1="249.5" y2="249.5"/><ellipse cx="926" cy="260.5" fill="#84BE84" rx="3" ry="3" style="stroke:#038048;stroke-width:1.0;"/><text fill="#000000" font-family="sans-serif" font-size="11" lengthAdjust="spacing" textLength="59" x="935" y="264.9189">toDTO(PMC)</text><!--MD5=[17fe4c0ca596c5ee4277d552a2bb53ec]
class ClinicalAnalysisLaboratoryMapper--><rect codeLine="44" fill="#FEFECE" filter="url(#fvzkekxksnk35)" height="61.8359" id="ClinicalAnalysisLaboratoryMapper" style="stroke:#A80036;stroke-width:1.5;" width="218" x="1130" y="209.5"/><ellipse cx="1145" cy="225.5" fill="#ADD1B2" rx="11" ry="11" style="stroke:#A80036;stroke-width:1.0;"/><path d="M1147,222 Q1147.2031,221.5 1147.4375,221.25 Q1147.6719,221 1147.9375,221 Q1148.4063,221 1148.7031,221.2813 Q1149,221.5625 1149,222.2188 L1149,223.7813 Q1149,224.4375 1148.7188,224.7188 Q1148.4375,225 1148,225 Q1147.6094,225 1147.3594,224.8281 Q1147.1094,224.6563 1147,224.2031 Q1146.9531,223.8906 1146.7813,223.7188 Q1146.4688,223.3906 1145.9063,223.2031 Q1145.3438,223 1144.7813,223 Q1144.0781,223 1143.4844,223.2813 Q1142.9063,223.5625 1142.4531,224.1875 Q1142,224.8125 1142,225.6719 L1142,226.5938 Q1142,227.625 1142.8438,228.3125 Q1143.6875,229 1145.1875,229 Q1146.0781,229 1146.7031,228.7969 Q1147.0625,228.6875 1147.4688,228.3281 Q1147.7344,228.125 1147.875,228.0625 Q1148.0156,228 1148.1875,228 Q1148.5156,228 1148.75,228.2656 Q1149,228.5156 1149,228.875 Q1149,229.2188 1148.6563,229.625 Q1148.1563,230.2188 1147.3594,230.5469 Q1146.3125,231 1145.0313,231 Q1143.5313,231 1142.3281,230.4063 Q1141.3594,229.9375 1140.6719,228.9219 Q1140,227.9063 1140,226.7031 L1140,225.6094 Q1140,224.3594 1140.5938,223.2656 Q1141.2031,222.1719 1142.25,221.5938 Q1143.3125,221 1144.5,221 Q1145.2188,221 1145.8438,221.25 Q1146.4688,221.5 1147,222 Z " fill="#000000"/><text fill="#000000" font-family="sans-serif" font-size="12" lengthAdjust="spacing" textLength="186" x="1159" y="230.4102">ClinicalAnalysisLaboratoryMapper</text><line style="stroke:#A80036;stroke-width:1.5;" x1="1131" x2="1347" y1="241.5" y2="241.5"/><line style="stroke:#A80036;stroke-width:1.5;" x1="1131" x2="1347" y1="249.5" y2="249.5"/><ellipse cx="1141" cy="260.5" fill="#84BE84" rx="3" ry="3" style="stroke:#038048;stroke-width:1.0;"/><text fill="#000000" font-family="sans-serif" font-size="11" lengthAdjust="spacing" textLength="59" x="1150" y="264.9189">toDTO(CAL)</text><!--MD5=[d0024740988d3925690046e9afae9c9c]
class TestTypeDTO--><rect codeLine="80" fill="#FEFECE" filter="url(#fvzkekxksnk35)" height="48" id="TestTypeDTO" style="stroke:#A80036;stroke-width:1.5;" width="107" x="32.5" y="706.5"/><ellipse cx="47.5" cy="722.5" fill="#ADD1B2" rx="11" ry="11" style="stroke:#A80036;stroke-width:1.0;"/><path d="M49.5,719 Q49.7031,718.5 49.9375,718.25 Q50.1719,718 50.4375,718 Q50.9063,718 51.2031,718.2813 Q51.5,718.5625 51.5,719.2188 L51.5,720.7813 Q51.5,721.4375 51.2188,721.7188 Q50.9375,722 50.5,722 Q50.1094,722 49.8594,721.8281 Q49.6094,721.6563 49.5,721.2031 Q49.4531,720.8906 49.2813,720.7188 Q48.9688,720.3906 48.4063,720.2031 Q47.8438,720 47.2813,720 Q46.5781,720 45.9844,720.2813 Q45.4063,720.5625 44.9531,721.1875 Q44.5,721.8125 44.5,722.6719 L44.5,723.5938 Q44.5,724.625 45.3438,725.3125 Q46.1875,726 47.6875,726 Q48.5781,726 49.2031,725.7969 Q49.5625,725.6875 49.9688,725.3281 Q50.2344,725.125 50.375,725.0625 Q50.5156,725 50.6875,725 Q51.0156,725 51.25,725.2656 Q51.5,725.5156 51.5,725.875 Q51.5,726.2188 51.1563,726.625 Q50.6563,727.2188 49.8594,727.5469 Q48.8125,728 47.5313,728 Q46.0313,728 44.8281,727.4063 Q43.8594,726.9375 43.1719,725.9219 Q42.5,724.9063 42.5,723.7031 L42.5,722.6094 Q42.5,721.3594 43.0938,720.2656 Q43.7031,719.1719 44.75,718.5938 Q45.8125,718 47,718 Q47.7188,718 48.3438,718.25 Q48.9688,718.5 49.5,719 Z " fill="#000000"/><text fill="#000000" font-family="sans-serif" font-size="12" lengthAdjust="spacing" textLength="75" x="61.5" y="727.4102">TestTypeDTO</text><line style="stroke:#A80036;stroke-width:1.5;" x1="33.5" x2="138.5" y1="738.5" y2="738.5"/><line style="stroke:#A80036;stroke-width:1.5;" x1="33.5" x2="138.5" y1="746.5" y2="746.5"/><!--MD5=[e82331375a7233007428e4f15d504621]
class ParameterDTO--><rect codeLine="160" fill="#FEFECE" filter="url(#fvzkekxksnk35)" height="48" id="ParameterDTO" style="stroke:#A80036;stroke-width:1.5;" width="115" x="374.5" y="706.5"/><ellipse cx="389.5" cy="722.5" fill="#ADD1B2" rx="11" ry="11" style="stroke:#A80036;stroke-width:1.0;"/><path d="M391.5,719 Q391.7031,718.5 391.9375,718.25 Q392.1719,718 392.4375,718 Q392.9063,718 393.2031,718.2813 Q393.5,718.5625 393.5,719.2188 L393.5,720.7813 Q393.5,721.4375 393.2188,721.7188 Q392.9375,722 392.5,722 Q392.1094,722 391.8594,721.8281 Q391.6094,721.6563 391.5,721.2031 Q391.4531,720.8906 391.2813,720.7188 Q390.9688,720.3906 390.4063,720.2031 Q389.8438,720 389.2813,720 Q388.5781,720 387.9844,720.2813 Q387.4063,720.5625 386.9531,721.1875 Q386.5,721.8125 386.5,722.6719 L386.5,723.5938 Q386.5,724.625 387.3438,725.3125 Q388.1875,726 389.6875,726 Q390.5781,726 391.2031,725.7969 Q391.5625,725.6875 391.9688,725.3281 Q392.2344,725.125 392.375,725.0625 Q392.5156,725 392.6875,725 Q393.0156,725 393.25,725.2656 Q393.5,725.5156 393.5,725.875 Q393.5,726.2188 393.1563,726.625 Q392.6563,727.2188 391.8594,727.5469 Q390.8125,728 389.5313,728 Q388.0313,728 386.8281,727.4063 Q385.8594,726.9375 385.1719,725.9219 Q384.5,724.9063 384.5,723.7031 L384.5,722.6094 Q384.5,721.3594 385.0938,720.2656 Q385.7031,719.1719 386.75,718.5938 Q387.8125,718 389,718 Q389.7188,718 390.3438,718.25 Q390.9688,718.5 391.5,719 Z " fill="#000000"/><text fill="#000000" font-family="sans-serif" font-size="12" lengthAdjust="spacing" textLength="83" x="403.5" y="727.4102">ParameterDTO</text><line style="stroke:#A80036;stroke-width:1.5;" x1="375.5" x2="488.5" y1="738.5" y2="738.5"/><line style="stroke:#A80036;stroke-width:1.5;" x1="375.5" x2="488.5" y1="746.5" y2="746.5"/><!--MD5=[cbc22b38bf287f6574f1f556e72826fc]
class ParameterCategoryDTO--><rect codeLine="99" fill="#FEFECE" filter="url(#fvzkekxksnk35)" height="48" id="ParameterCategoryDTO" style="stroke:#A80036;stroke-width:1.5;" width="164" x="175" y="706.5"/><ellipse cx="190" cy="722.5" fill="#ADD1B2" rx="11" ry="11" style="stroke:#A80036;stroke-width:1.0;"/><path d="M192,719 Q192.2031,718.5 192.4375,718.25 Q192.6719,718 192.9375,718 Q193.4063,718 193.7031,718.2813 Q194,718.5625 194,719.2188 L194,720.7813 Q194,721.4375 193.7188,721.7188 Q193.4375,722 193,722 Q192.6094,722 192.3594,721.8281 Q192.1094,721.6563 192,721.2031 Q191.9531,720.8906 191.7813,720.7188 Q191.4688,720.3906 190.9063,720.2031 Q190.3438,720 189.7813,720 Q189.0781,720 188.4844,720.2813 Q187.9063,720.5625 187.4531,721.1875 Q187,721.8125 187,722.6719 L187,723.5938 Q187,724.625 187.8438,725.3125 Q188.6875,726 190.1875,726 Q191.0781,726 191.7031,725.7969 Q192.0625,725.6875 192.4688,725.3281 Q192.7344,725.125 192.875,725.0625 Q193.0156,725 193.1875,725 Q193.5156,725 193.75,725.2656 Q194,725.5156 194,725.875 Q194,726.2188 193.6563,726.625 Q193.1563,727.2188 192.3594,727.5469 Q191.3125,728 190.0313,728 Q188.5313,728 187.3281,727.4063 Q186.3594,726.9375 185.6719,725.9219 Q185,724.9063 185,723.7031 L185,722.6094 Q185,721.3594 185.5938,720.2656 Q186.2031,719.1719 187.25,718.5938 Q188.3125,718 189.5,718 Q190.2188,718 190.8438,718.25 Q191.4688,718.5 192,719 Z " fill="#000000"/><text fill="#000000" font-family="sans-serif" font-size="12" lengthAdjust="spacing" textLength="132" x="204" y="727.4102">ParameterCategoryDTO</text><line style="stroke:#A80036;stroke-width:1.5;" x1="176" x2="338" y1="738.5" y2="738.5"/><line style="stroke:#A80036;stroke-width:1.5;" x1="176" x2="338" y1="746.5" y2="746.5"/><!--MD5=[f2ede7b09882d90d79047a5fe779fb67]
class ClinicalAnalysisLaboratoryDTO--><rect codeLine="14" fill="#FEFECE" filter="url(#fvzkekxksnk35)" height="48" id="ClinicalAnalysisLaboratoryDTO" style="stroke:#A80036;stroke-width:1.5;" width="202" x="525" y="706.5"/><ellipse cx="540" cy="722.5" fill="#ADD1B2" rx="11" ry="11" style="stroke:#A80036;stroke-width:1.0;"/><path d="M542,719 Q542.2031,718.5 542.4375,718.25 Q542.6719,718 542.9375,718 Q543.4063,718 543.7031,718.2813 Q544,718.5625 544,719.2188 L544,720.7813 Q544,721.4375 543.7188,721.7188 Q543.4375,722 543,722 Q542.6094,722 542.3594,721.8281 Q542.1094,721.6563 542,721.2031 Q541.9531,720.8906 541.7813,720.7188 Q541.4688,720.3906 540.9063,720.2031 Q540.3438,720 539.7813,720 Q539.0781,720 538.4844,720.2813 Q537.9063,720.5625 537.4531,721.1875 Q537,721.8125 537,722.6719 L537,723.5938 Q537,724.625 537.8438,725.3125 Q538.6875,726 540.1875,726 Q541.0781,726 541.7031,725.7969 Q542.0625,725.6875 542.4688,725.3281 Q542.7344,725.125 542.875,725.0625 Q543.0156,725 543.1875,725 Q543.5156,725 543.75,725.2656 Q544,725.5156 544,725.875 Q544,726.2188 543.6563,726.625 Q543.1563,727.2188 542.3594,727.5469 Q541.3125,728 540.0313,728 Q538.5313,728 537.3281,727.4063 Q536.3594,726.9375 535.6719,725.9219 Q535,724.9063 535,723.7031 L535,722.6094 Q535,721.3594 535.5938,720.2656 Q536.2031,719.1719 537.25,718.5938 Q538.3125,718 539.5,718 Q540.2188,718 540.8438,718.25 Q541.4688,718.5 542,719 Z " fill="#000000"/><text fill="#000000" font-family="sans-serif" font-size="12" lengthAdjust="spacing" textLength="170" x="554" y="727.4102">ClinicalAnalysisLaboratoryDTO</text><line style="stroke:#A80036;stroke-width:1.5;" x1="526" x2="726" y1="738.5" y2="738.5"/><line style="stroke:#A80036;stroke-width:1.5;" x1="526" x2="726" y1="746.5" y2="746.5"/><!--MD5=[02e4b9b7573f1156f41e60aa5b4e25a4]
class Company--><rect codeLine="164" fill="#FEFECE" filter="url(#fvzkekxksnk35)" height="131.0156" id="Company" style="stroke:#A80036;stroke-width:1.5;" width="168" x="1867" y="665"/><ellipse cx="1920.25" cy="681" fill="#ADD1B2" rx="11" ry="11" style="stroke:#A80036;stroke-width:1.0;"/><path d="M1922.25,677.5 Q1922.4531,677 1922.6875,676.75 Q1922.9219,676.5 1923.1875,676.5 Q1923.6563,676.5 1923.9531,676.7813 Q1924.25,677.0625 1924.25,677.7188 L1924.25,679.2813 Q1924.25,679.9375 1923.9688,680.2188 Q1923.6875,680.5 1923.25,680.5 Q1922.8594,680.5 1922.6094,680.3281 Q1922.3594,680.1563 1922.25,679.7031 Q1922.2031,679.3906 1922.0313,679.2188 Q1921.7188,678.8906 1921.1563,678.7031 Q1920.5938,678.5 1920.0313,678.5 Q1919.3281,678.5 1918.7344,678.7813 Q1918.1563,679.0625 1917.7031,679.6875 Q1917.25,680.3125 1917.25,681.1719 L1917.25,682.0938 Q1917.25,683.125 1918.0938,683.8125 Q1918.9375,684.5 1920.4375,684.5 Q1921.3281,684.5 1921.9531,684.2969 Q1922.3125,684.1875 1922.7188,683.8281 Q1922.9844,683.625 1923.125,683.5625 Q1923.2656,683.5 1923.4375,683.5 Q1923.7656,683.5 1924,683.7656 Q1924.25,684.0156 1924.25,684.375 Q1924.25,684.7188 1923.9063,685.125 Q1923.4063,685.7188 1922.6094,686.0469 Q1921.5625,686.5 1920.2813,686.5 Q1918.7813,686.5 1917.5781,685.9063 Q1916.6094,685.4375 1915.9219,684.4219 Q1915.25,683.4063 1915.25,682.2031 L1915.25,681.1094 Q1915.25,679.8594 1915.8438,678.7656 Q1916.4531,677.6719 1917.5,677.0938 Q1918.5625,676.5 1919.75,676.5 Q1920.4688,676.5 1921.0938,676.75 Q1921.7188,677 1922.25,677.5 Z " fill="#000000"/><text fill="#000000" font-family="sans-serif" font-size="12" lengthAdjust="spacing" textLength="53" x="1940.75" y="685.9102">Company</text><line style="stroke:#A80036;stroke-width:1.5;" x1="1868" x2="2034" y1="697" y2="697"/><rect fill="none" height="6" style="stroke:#C82930;stroke-width:1.0;" width="6" x="1875" y="705"/><text fill="#000000" font-family="sans-serif" font-size="11" lengthAdjust="spacing" textLength="86" x="1887" y="712.4189">String designation</text><line style="stroke:#A80036;stroke-width:1.5;" x1="1868" x2="2034" y1="718.8359" y2="718.8359"/><ellipse cx="1878" cy="729.8359" fill="#84BE84" rx="3" ry="3" style="stroke:#038048;stroke-width:1.0;"/><text fill="#000000" font-family="sans-serif" font-size="11" lengthAdjust="spacing" textLength="70" x="1887" y="734.2549">getTestStore()</text><ellipse cx="1878" cy="743.6719" fill="#84BE84" rx="3" ry="3" style="stroke:#038048;stroke-width:1.0;"/><text fill="#000000" font-family="sans-serif" font-size="11" lengthAdjust="spacing" textLength="75" x="1887" y="748.0908">getClientStore()</text><ellipse cx="1878" cy="757.5078" fill="#84BE84" rx="3" ry="3" style="stroke:#038048;stroke-width:1.0;"/><text fill="#000000" font-family="sans-serif" font-size="11" lengthAdjust="spacing" textLength="98" x="1887" y="761.9268">getParameterStore()</text><ellipse cx="1878" cy="771.3438" fill="#84BE84" rx="3" ry="3" style="stroke:#038048;stroke-width:1.0;"/><text fill="#000000" font-family="sans-serif" font-size="11" lengthAdjust="spacing" textLength="142" x="1887" y="775.7627">getParameterCategoryStore()</text><ellipse cx="1878" cy="785.1797" fill="#84BE84" rx="3" ry="3" style="stroke:#038048;stroke-width:1.0;"/><text fill="#000000" font-family="sans-serif" font-size="11" lengthAdjust="spacing" textLength="94" x="1887" y="789.5986">getTestTypeStore()</text><!--MD5=[ed6624c6556d5e7b1bd23032162d20b7]
class Client--><rect codeLine="107" fill="#FEFECE" filter="url(#fvzkekxksnk35)" height="269.375" id="Client" style="stroke:#A80036;stroke-width:1.5;" width="139" x="809.5" y="596"/><ellipse cx="858.75" cy="612" fill="#ADD1B2" rx="11" ry="11" style="stroke:#A80036;stroke-width:1.0;"/><path d="M860.75,608.5 Q860.9531,608 861.1875,607.75 Q861.4219,607.5 861.6875,607.5 Q862.1563,607.5 862.4531,607.7813 Q862.75,608.0625 862.75,608.7188 L862.75,610.2813 Q862.75,610.9375 862.4688,611.2188 Q862.1875,611.5 861.75,611.5 Q861.3594,611.5 861.1094,611.3281 Q860.8594,611.1563 860.75,610.7031 Q860.7031,610.3906 860.5313,610.2188 Q860.2188,609.8906 859.6563,609.7031 Q859.0938,609.5 858.5313,609.5 Q857.8281,609.5 857.2344,609.7813 Q856.6563,610.0625 856.2031,610.6875 Q855.75,611.3125 855.75,612.1719 L855.75,613.0938 Q855.75,614.125 856.5938,614.8125 Q857.4375,615.5 858.9375,615.5 Q859.8281,615.5 860.4531,615.2969 Q860.8125,615.1875 861.2188,614.8281 Q861.4844,614.625 861.625,614.5625 Q861.7656,614.5 861.9375,614.5 Q862.2656,614.5 862.5,614.7656 Q862.75,615.0156 862.75,615.375 Q862.75,615.7188 862.4063,616.125 Q861.9063,616.7188 861.1094,617.0469 Q860.0625,617.5 858.7813,617.5 Q857.2813,617.5 856.0781,616.9063 Q855.1094,616.4375 854.4219,615.4219 Q853.75,614.4063 853.75,613.2031 L853.75,612.1094 Q853.75,610.8594 854.3438,609.7656 Q854.9531,608.6719 856,608.0938 Q857.0625,607.5 858.25,607.5 Q858.9688,607.5 859.5938,607.75 Q860.2188,608 860.75,608.5 Z " fill="#000000"/><text fill="#000000" font-family="sans-serif" font-size="12" lengthAdjust="spacing" textLength="32" x="879.25" y="616.9102">Client</text><line style="stroke:#A80036;stroke-width:1.5;" x1="810.5" x2="947.5" y1="628" y2="628"/><rect fill="none" height="6" style="stroke:#C82930;stroke-width:1.0;" width="6" x="817.5" y="636"/><text fill="#000000" font-family="sans-serif" font-size="11" lengthAdjust="spacing" textLength="89" x="829.5" y="643.4189">citizencardnumber</text><rect fill="none" height="6" style="stroke:#C82930;stroke-width:1.0;" width="6" x="817.5" y="649.8359"/><text fill="#000000" font-family="sans-serif" font-size="11" lengthAdjust="spacing" textLength="18" x="829.5" y="657.2549">nhs</text><rect fill="none" height="6" style="stroke:#C82930;stroke-width:1.0;" width="6" x="817.5" y="663.6719"/><text fill="#000000" font-family="sans-serif" font-size="11" lengthAdjust="spacing" textLength="21" x="829.5" y="671.0908">date</text><rect fill="none" height="6" style="stroke:#C82930;stroke-width:1.0;" width="6" x="817.5" y="677.5078"/><text fill="#000000" font-family="sans-serif" font-size="11" lengthAdjust="spacing" textLength="18" x="829.5" y="684.9268">sex</text><rect fill="none" height="6" style="stroke:#C82930;stroke-width:1.0;" width="6" x="817.5" y="691.3438"/><text fill="#000000" font-family="sans-serif" font-size="11" lengthAdjust="spacing" textLength="11" x="829.5" y="698.7627">tin</text><rect fill="none" height="6" style="stroke:#C82930;stroke-width:1.0;" width="6" x="817.5" y="705.1797"/><text fill="#000000" font-family="sans-serif" font-size="11" lengthAdjust="spacing" textLength="66" x="829.5" y="712.5986">phonenumber</text><rect fill="none" height="6" style="stroke:#C82930;stroke-width:1.0;" width="6" x="817.5" y="719.0156"/><text fill="#000000" font-family="sans-serif" font-size="11" lengthAdjust="spacing" textLength="24" x="829.5" y="726.4346">email</text><rect fill="none" height="6" style="stroke:#C82930;stroke-width:1.0;" width="6" x="817.5" y="732.8516"/><text fill="#000000" font-family="sans-serif" font-size="11" lengthAdjust="spacing" textLength="26" x="829.5" y="740.2705">name</text><line style="stroke:#A80036;stroke-width:1.5;" x1="810.5" x2="947.5" y1="746.6875" y2="746.6875"/><ellipse cx="820.5" cy="757.6875" fill="#84BE84" rx="3" ry="3" style="stroke:#038048;stroke-width:1.0;"/><text fill="#000000" font-family="sans-serif" font-size="11" lengthAdjust="spacing" textLength="113" x="829.5" y="762.1064">getCitizencardnumber()</text><ellipse cx="820.5" cy="771.5234" fill="#84BE84" rx="3" ry="3" style="stroke:#038048;stroke-width:1.0;"/><text fill="#000000" font-family="sans-serif" font-size="11" lengthAdjust="spacing" textLength="42" x="829.5" y="775.9424">getNhs()</text><ellipse cx="820.5" cy="785.3594" fill="#84BE84" rx="3" ry="3" style="stroke:#038048;stroke-width:1.0;"/><text fill="#000000" font-family="sans-serif" font-size="11" lengthAdjust="spacing" textLength="45" x="829.5" y="789.7783">getDate()</text><ellipse cx="820.5" cy="799.1953" fill="#84BE84" rx="3" ry="3" style="stroke:#038048;stroke-width:1.0;"/><text fill="#000000" font-family="sans-serif" font-size="11" lengthAdjust="spacing" textLength="42" x="829.5" y="803.6143">getSex()</text><ellipse cx="820.5" cy="813.0313" fill="#84BE84" rx="3" ry="3" style="stroke:#038048;stroke-width:1.0;"/><text fill="#000000" font-family="sans-serif" font-size="11" lengthAdjust="spacing" textLength="37" x="829.5" y="817.4502">getTin()</text><ellipse cx="820.5" cy="826.8672" fill="#84BE84" rx="3" ry="3" style="stroke:#038048;stroke-width:1.0;"/><text fill="#000000" font-family="sans-serif" font-size="11" lengthAdjust="spacing" textLength="89" x="829.5" y="831.2861">getPhonenumber()</text><ellipse cx="820.5" cy="840.7031" fill="#84BE84" rx="3" ry="3" style="stroke:#038048;stroke-width:1.0;"/><text fill="#000000" font-family="sans-serif" font-size="11" lengthAdjust="spacing" textLength="47" x="829.5" y="845.1221">getEmail()</text><ellipse cx="820.5" cy="854.5391" fill="#84BE84" rx="3" ry="3" style="stroke:#038048;stroke-width:1.0;"/><text fill="#000000" font-family="sans-serif" font-size="11" lengthAdjust="spacing" textLength="50" x="829.5" y="858.958">getName()</text><!--MD5=[aeb3272166074d8737a70b61b1e71682]
class TestType--><rect codeLine="63" fill="#FEFECE" filter="url(#fvzkekxksnk35)" height="186.3594" id="TestType" style="stroke:#A80036;stroke-width:1.5;" width="179" x="983.5" y="637.5"/><ellipse cx="1043.75" cy="653.5" fill="#ADD1B2" rx="11" ry="11" style="stroke:#A80036;stroke-width:1.0;"/><path d="M1045.75,650 Q1045.9531,649.5 1046.1875,649.25 Q1046.4219,649 1046.6875,649 Q1047.1563,649 1047.4531,649.2813 Q1047.75,649.5625 1047.75,650.2188 L1047.75,651.7813 Q1047.75,652.4375 1047.4688,652.7188 Q1047.1875,653 1046.75,653 Q1046.3594,653 1046.1094,652.8281 Q1045.8594,652.6563 1045.75,652.2031 Q1045.7031,651.8906 1045.5313,651.7188 Q1045.2188,651.3906 1044.6563,651.2031 Q1044.0938,651 1043.5313,651 Q1042.8281,651 1042.2344,651.2813 Q1041.6563,651.5625 1041.2031,652.1875 Q1040.75,652.8125 1040.75,653.6719 L1040.75,654.5938 Q1040.75,655.625 1041.5938,656.3125 Q1042.4375,657 1043.9375,657 Q1044.8281,657 1045.4531,656.7969 Q1045.8125,656.6875 1046.2188,656.3281 Q1046.4844,656.125 1046.625,656.0625 Q1046.7656,656 1046.9375,656 Q1047.2656,656 1047.5,656.2656 Q1047.75,656.5156 1047.75,656.875 Q1047.75,657.2188 1047.4063,657.625 Q1046.9063,658.2188 1046.1094,658.5469 Q1045.0625,659 1043.7813,659 Q1042.2813,659 1041.0781,658.4063 Q1040.1094,657.9375 1039.4219,656.9219 Q1038.75,655.9063 1038.75,654.7031 L1038.75,653.6094 Q1038.75,652.3594 1039.3438,651.2656 Q1039.9531,650.1719 1041,649.5938 Q1042.0625,649 1043.25,649 Q1043.9688,649 1044.5938,649.25 Q1045.2188,649.5 1045.75,650 Z " fill="#000000"/><text fill="#000000" font-family="sans-serif" font-size="12" lengthAdjust="spacing" textLength="50" x="1064.25" y="658.4102">TestType</text><line style="stroke:#A80036;stroke-width:1.5;" x1="984.5" x2="1161.5" y1="669.5" y2="669.5"/><rect fill="none" height="6" style="stroke:#C82930;stroke-width:1.0;" width="6" x="991.5" y="677.5"/><text fill="#000000" font-family="sans-serif" font-size="11" lengthAdjust="spacing" textLength="24" x="1003.5" y="684.9189">code</text><rect fill="none" height="6" style="stroke:#C82930;stroke-width:1.0;" width="6" x="991.5" y="691.3359"/><text fill="#000000" font-family="sans-serif" font-size="11" lengthAdjust="spacing" textLength="53" x="1003.5" y="698.7549">description</text><rect fill="none" height="6" style="stroke:#C82930;stroke-width:1.0;" width="6" x="991.5" y="705.1719"/><text fill="#000000" font-family="sans-serif" font-size="11" lengthAdjust="spacing" textLength="80" x="1003.5" y="712.5908">collectingMethod</text><rect fill="none" height="6" style="stroke:#C82930;stroke-width:1.0;" width="6" x="991.5" y="719.0078"/><text fill="#000000" font-family="sans-serif" font-size="11" lengthAdjust="spacing" textLength="126" x="1003.5" y="726.4268">listOfParameterCategories</text><rect fill="none" height="6" style="stroke:#C82930;stroke-width:1.0;" width="6" x="991.5" y="732.8438"/><text fill="#000000" font-family="sans-serif" font-size="11" lengthAdjust="spacing" textLength="87" x="1003.5" y="740.2627">referenceAdapter</text><line style="stroke:#A80036;stroke-width:1.5;" x1="984.5" x2="1161.5" y1="746.6797" y2="746.6797"/><ellipse cx="994.5" cy="757.6797" fill="#84BE84" rx="3" ry="3" style="stroke:#038048;stroke-width:1.0;"/><text fill="#000000" font-family="sans-serif" font-size="11" lengthAdjust="spacing" textLength="48" x="1003.5" y="762.0986">getCode()</text><ellipse cx="994.5" cy="771.5156" fill="#84BE84" rx="3" ry="3" style="stroke:#038048;stroke-width:1.0;"/><text fill="#000000" font-family="sans-serif" font-size="11" lengthAdjust="spacing" textLength="113" x="1003.5" y="775.9346">getReferenceAdapter()</text><ellipse cx="994.5" cy="785.3516" fill="#84BE84" rx="3" ry="3" style="stroke:#038048;stroke-width:1.0;"/><text fill="#000000" font-family="sans-serif" font-size="11" lengthAdjust="spacing" textLength="77" x="1003.5" y="789.7705">getDescription()</text><ellipse cx="994.5" cy="799.1875" fill="#84BE84" rx="3" ry="3" style="stroke:#038048;stroke-width:1.0;"/><text fill="#000000" font-family="sans-serif" font-size="11" lengthAdjust="spacing" textLength="104" x="1003.5" y="803.6064">getCollectingMethod()</text><ellipse cx="994.5" cy="813.0234" fill="#84BE84" rx="3" ry="3" style="stroke:#038048;stroke-width:1.0;"/><text fill="#000000" font-family="sans-serif" font-size="11" lengthAdjust="spacing" textLength="153" x="1003.5" y="817.4424">getListOfParameterCategories()</text><!--MD5=[1f6362a5c8f21d8d6a0fce68f3a92a4e]
class Parameter--><rect codeLine="145" fill="#FEFECE" filter="url(#fvzkekxksnk35)" height="158.6875" id="Parameter" style="stroke:#A80036;stroke-width:1.5;" width="103" x="1197.5" y="651"/><ellipse cx="1218.35" cy="667" fill="#ADD1B2" rx="11" ry="11" style="stroke:#A80036;stroke-width:1.0;"/><path d="M1220.35,663.5 Q1220.5531,663 1220.7875,662.75 Q1221.0219,662.5 1221.2875,662.5 Q1221.7563,662.5 1222.0531,662.7813 Q1222.35,663.0625 1222.35,663.7188 L1222.35,665.2813 Q1222.35,665.9375 1222.0688,666.2188 Q1221.7875,666.5 1221.35,666.5 Q1220.9594,666.5 1220.7094,666.3281 Q1220.4594,666.1563 1220.35,665.7031 Q1220.3031,665.3906 1220.1313,665.2188 Q1219.8188,664.8906 1219.2563,664.7031 Q1218.6938,664.5 1218.1313,664.5 Q1217.4281,664.5 1216.8344,664.7813 Q1216.2563,665.0625 1215.8031,665.6875 Q1215.35,666.3125 1215.35,667.1719 L1215.35,668.0938 Q1215.35,669.125 1216.1938,669.8125 Q1217.0375,670.5 1218.5375,670.5 Q1219.4281,670.5 1220.0531,670.2969 Q1220.4125,670.1875 1220.8188,669.8281 Q1221.0844,669.625 1221.225,669.5625 Q1221.3656,669.5 1221.5375,669.5 Q1221.8656,669.5 1222.1,669.7656 Q1222.35,670.0156 1222.35,670.375 Q1222.35,670.7188 1222.0063,671.125 Q1221.5063,671.7188 1220.7094,672.0469 Q1219.6625,672.5 1218.3813,672.5 Q1216.8813,672.5 1215.6781,671.9063 Q1214.7094,671.4375 1214.0219,670.4219 Q1213.35,669.4063 1213.35,668.2031 L1213.35,667.1094 Q1213.35,665.8594 1213.9438,664.7656 Q1214.5531,663.6719 1215.6,663.0938 Q1216.6625,662.5 1217.85,662.5 Q1218.5688,662.5 1219.1938,662.75 Q1219.8188,663 1220.35,663.5 Z " fill="#000000"/><text fill="#000000" font-family="sans-serif" font-size="12" lengthAdjust="spacing" textLength="58" x="1233.65" y="671.9102">Parameter</text><line style="stroke:#A80036;stroke-width:1.5;" x1="1198.5" x2="1299.5" y1="683" y2="683"/><rect fill="none" height="6" style="stroke:#C82930;stroke-width:1.0;" width="6" x="1205.5" y="691"/><text fill="#000000" font-family="sans-serif" font-size="11" lengthAdjust="spacing" textLength="24" x="1217.5" y="698.4189">code</text><rect fill="none" height="6" style="stroke:#C82930;stroke-width:1.0;" width="6" x="1205.5" y="704.8359"/><text fill="#000000" font-family="sans-serif" font-size="11" lengthAdjust="spacing" textLength="52" x="1217.5" y="712.2549">shortName</text><rect fill="none" height="6" style="stroke:#C82930;stroke-width:1.0;" width="6" x="1205.5" y="718.6719"/><text fill="#000000" font-family="sans-serif" font-size="11" lengthAdjust="spacing" textLength="53" x="1217.5" y="726.0908">description</text><rect fill="none" height="6" style="stroke:#C82930;stroke-width:1.0;" width="6" x="1205.5" y="732.5078"/><text fill="#000000" font-family="sans-serif" font-size="11" lengthAdjust="spacing" textLength="43" x="1217.5" y="739.9268">category</text><line style="stroke:#A80036;stroke-width:1.5;" x1="1198.5" x2="1299.5" y1="746.3438" y2="746.3438"/><ellipse cx="1208.5" cy="757.3438" fill="#84BE84" rx="3" ry="3" style="stroke:#038048;stroke-width:1.0;"/><text fill="#000000" font-family="sans-serif" font-size="11" lengthAdjust="spacing" textLength="48" x="1217.5" y="761.7627">getCode()</text><ellipse cx="1208.5" cy="771.1797" fill="#84BE84" rx="3" ry="3" style="stroke:#038048;stroke-width:1.0;"/><text fill="#000000" font-family="sans-serif" font-size="11" lengthAdjust="spacing" textLength="76" x="1217.5" y="775.5986">getShortName()</text><ellipse cx="1208.5" cy="785.0156" fill="#84BE84" rx="3" ry="3" style="stroke:#038048;stroke-width:1.0;"/><text fill="#000000" font-family="sans-serif" font-size="11" lengthAdjust="spacing" textLength="77" x="1217.5" y="789.4346">getDescription()</text><ellipse cx="1208.5" cy="798.8516" fill="#84BE84" rx="3" ry="3" style="stroke:#038048;stroke-width:1.0;"/><text fill="#000000" font-family="sans-serif" font-size="11" lengthAdjust="spacing" textLength="67" x="1217.5" y="803.2705">getCategory()</text><!--MD5=[36afb6bbd95a8ac778c4537c55a683d5]
class ParameterCategory--><rect codeLine="88" fill="#FEFECE" filter="url(#fvzkekxksnk35)" height="103.3438" id="ParameterCategory" style="stroke:#A80036;stroke-width:1.5;" width="139" x="1335.5" y="679"/><ellipse cx="1350.5" cy="695" fill="#ADD1B2" rx="11" ry="11" style="stroke:#A80036;stroke-width:1.0;"/><path d="M1352.5,691.5 Q1352.7031,691 1352.9375,690.75 Q1353.1719,690.5 1353.4375,690.5 Q1353.9063,690.5 1354.2031,690.7813 Q1354.5,691.0625 1354.5,691.7188 L1354.5,693.2813 Q1354.5,693.9375 1354.2188,694.2188 Q1353.9375,694.5 1353.5,694.5 Q1353.1094,694.5 1352.8594,694.3281 Q1352.6094,694.1563 1352.5,693.7031 Q1352.4531,693.3906 1352.2813,693.2188 Q1351.9688,692.8906 1351.4063,692.7031 Q1350.8438,692.5 1350.2813,692.5 Q1349.5781,692.5 1348.9844,692.7813 Q1348.4063,693.0625 1347.9531,693.6875 Q1347.5,694.3125 1347.5,695.1719 L1347.5,696.0938 Q1347.5,697.125 1348.3438,697.8125 Q1349.1875,698.5 1350.6875,698.5 Q1351.5781,698.5 1352.2031,698.2969 Q1352.5625,698.1875 1352.9688,697.8281 Q1353.2344,697.625 1353.375,697.5625 Q1353.5156,697.5 1353.6875,697.5 Q1354.0156,697.5 1354.25,697.7656 Q1354.5,698.0156 1354.5,698.375 Q1354.5,698.7188 1354.1563,699.125 Q1353.6563,699.7188 1352.8594,700.0469 Q1351.8125,700.5 1350.5313,700.5 Q1349.0313,700.5 1347.8281,699.9063 Q1346.8594,699.4375 1346.1719,698.4219 Q1345.5,697.4063 1345.5,696.2031 L1345.5,695.1094 Q1345.5,693.8594 1346.0938,692.7656 Q1346.7031,691.6719 1347.75,691.0938 Q1348.8125,690.5 1350,690.5 Q1350.7188,690.5 1351.3438,690.75 Q1351.9688,691 1352.5,691.5 Z " fill="#000000"/><text fill="#000000" font-family="sans-serif" font-size="12" lengthAdjust="spacing" textLength="107" x="1364.5" y="699.9102">ParameterCategory</text><line style="stroke:#A80036;stroke-width:1.5;" x1="1336.5" x2="1473.5" y1="711" y2="711"/><rect fill="none" height="6" style="stroke:#C82930;stroke-width:1.0;" width="6" x="1343.5" y="719"/><text fill="#000000" font-family="sans-serif" font-size="11" lengthAdjust="spacing" textLength="26" x="1355.5" y="726.4189">name</text><rect fill="none" height="6" style="stroke:#C82930;stroke-width:1.0;" width="6" x="1343.5" y="732.8359"/><text fill="#000000" font-family="sans-serif" font-size="11" lengthAdjust="spacing" textLength="24" x="1355.5" y="740.2549">code</text><line style="stroke:#A80036;stroke-width:1.5;" x1="1336.5" x2="1473.5" y1="746.6719" y2="746.6719"/><ellipse cx="1346.5" cy="757.6719" fill="#84BE84" rx="3" ry="3" style="stroke:#038048;stroke-width:1.0;"/><text fill="#000000" font-family="sans-serif" font-size="11" lengthAdjust="spacing" textLength="50" x="1355.5" y="762.0908">getName()</text><ellipse cx="1346.5" cy="771.5078" fill="#84BE84" rx="3" ry="3" style="stroke:#038048;stroke-width:1.0;"/><text fill="#000000" font-family="sans-serif" font-size="11" lengthAdjust="spacing" textLength="48" x="1355.5" y="775.9268">getCode()</text><!--MD5=[df38be88ccee13e832d6fafd6288a4ca]
class Test--><rect codeLine="126" fill="#FEFECE" filter="url(#fvzkekxksnk35)" height="117.1797" id="Test" style="stroke:#A80036;stroke-width:1.5;" width="110" x="1722" y="672"/><ellipse cx="1761.3" cy="688" fill="#ADD1B2" rx="11" ry="11" style="stroke:#A80036;stroke-width:1.0;"/><path d="M1763.3,684.5 Q1763.5031,684 1763.7375,683.75 Q1763.9719,683.5 1764.2375,683.5 Q1764.7063,683.5 1765.0031,683.7813 Q1765.3,684.0625 1765.3,684.7188 L1765.3,686.2813 Q1765.3,686.9375 1765.0188,687.2188 Q1764.7375,687.5 1764.3,687.5 Q1763.9094,687.5 1763.6594,687.3281 Q1763.4094,687.1563 1763.3,686.7031 Q1763.2531,686.3906 1763.0813,686.2188 Q1762.7688,685.8906 1762.2063,685.7031 Q1761.6438,685.5 1761.0813,685.5 Q1760.3781,685.5 1759.7844,685.7813 Q1759.2063,686.0625 1758.7531,686.6875 Q1758.3,687.3125 1758.3,688.1719 L1758.3,689.0938 Q1758.3,690.125 1759.1438,690.8125 Q1759.9875,691.5 1761.4875,691.5 Q1762.3781,691.5 1763.0031,691.2969 Q1763.3625,691.1875 1763.7688,690.8281 Q1764.0344,690.625 1764.175,690.5625 Q1764.3156,690.5 1764.4875,690.5 Q1764.8156,690.5 1765.05,690.7656 Q1765.3,691.0156 1765.3,691.375 Q1765.3,691.7188 1764.9563,692.125 Q1764.4563,692.7188 1763.6594,693.0469 Q1762.6125,693.5 1761.3313,693.5 Q1759.8313,693.5 1758.6281,692.9063 Q1757.6594,692.4375 1756.9719,691.4219 Q1756.3,690.4063 1756.3,689.2031 L1756.3,688.1094 Q1756.3,686.8594 1756.8938,685.7656 Q1757.5031,684.6719 1758.55,684.0938 Q1759.6125,683.5 1760.8,683.5 Q1761.5188,683.5 1762.1438,683.75 Q1762.7688,684 1763.3,684.5 Z " fill="#000000"/><text fill="#000000" font-family="sans-serif" font-size="12" lengthAdjust="spacing" textLength="24" x="1780.7" y="692.9102">Test</text><line style="stroke:#A80036;stroke-width:1.5;" x1="1723" x2="1831" y1="704" y2="704"/><rect fill="none" height="6" style="stroke:#C82930;stroke-width:1.0;" width="6" x="1730" y="712"/><text fill="#000000" font-family="sans-serif" font-size="11" lengthAdjust="spacing" textLength="25" x="1742" y="719.4189">client</text><rect fill="none" height="6" style="stroke:#C82930;stroke-width:1.0;" width="6" x="1730" y="725.8359"/><text fill="#000000" font-family="sans-serif" font-size="11" lengthAdjust="spacing" textLength="42" x="1742" y="733.2549">nhscode</text><rect fill="none" height="6" style="stroke:#C82930;stroke-width:1.0;" width="6" x="1730" y="739.6719"/><text fill="#000000" font-family="sans-serif" font-size="11" lengthAdjust="spacing" textLength="84" x="1742" y="747.0908">testParameterList</text><rect fill="none" height="6" style="stroke:#C82930;stroke-width:1.0;" width="6" x="1730" y="753.5078"/><text fill="#000000" font-family="sans-serif" font-size="11" lengthAdjust="spacing" textLength="57" x="1742" y="760.9268">stateOfTest</text><rect fill="none" height="6" style="stroke:#C82930;stroke-width:1.0;" width="6" x="1730" y="767.3438"/><text fill="#000000" font-family="sans-serif" font-size="11" lengthAdjust="spacing" textLength="60" x="1742" y="774.7627">internalCode</text><line style="stroke:#A80036;stroke-width:1.5;" x1="1723" x2="1831" y1="781.1797" y2="781.1797"/><!--MD5=[1934a092c0e7d4da7dc7075b6f4b6b03]
class ClinicalAnalysisLaboratory--><rect codeLine="48" fill="#FEFECE" filter="url(#fvzkekxksnk35)" height="103.3438" id="ClinicalAnalysisLaboratory" style="stroke:#A80036;stroke-width:1.5;" width="177" x="1509.5" y="679"/><ellipse cx="1524.5" cy="695" fill="#ADD1B2" rx="11" ry="11" style="stroke:#A80036;stroke-width:1.0;"/><path d="M1526.5,691.5 Q1526.7031,691 1526.9375,690.75 Q1527.1719,690.5 1527.4375,690.5 Q1527.9063,690.5 1528.2031,690.7813 Q1528.5,691.0625 1528.5,691.7188 L1528.5,693.2813 Q1528.5,693.9375 1528.2188,694.2188 Q1527.9375,694.5 1527.5,694.5 Q1527.1094,694.5 1526.8594,694.3281 Q1526.6094,694.1563 1526.5,693.7031 Q1526.4531,693.3906 1526.2813,693.2188 Q1525.9688,692.8906 1525.4063,692.7031 Q1524.8438,692.5 1524.2813,692.5 Q1523.5781,692.5 1522.9844,692.7813 Q1522.4063,693.0625 1521.9531,693.6875 Q1521.5,694.3125 1521.5,695.1719 L1521.5,696.0938 Q1521.5,697.125 1522.3438,697.8125 Q1523.1875,698.5 1524.6875,698.5 Q1525.5781,698.5 1526.2031,698.2969 Q1526.5625,698.1875 1526.9688,697.8281 Q1527.2344,697.625 1527.375,697.5625 Q1527.5156,697.5 1527.6875,697.5 Q1528.0156,697.5 1528.25,697.7656 Q1528.5,698.0156 1528.5,698.375 Q1528.5,698.7188 1528.1563,699.125 Q1527.6563,699.7188 1526.8594,700.0469 Q1525.8125,700.5 1524.5313,700.5 Q1523.0313,700.5 1521.8281,699.9063 Q1520.8594,699.4375 1520.1719,698.4219 Q1519.5,697.4063 1519.5,696.2031 L1519.5,695.1094 Q1519.5,693.8594 1520.0938,692.7656 Q1520.7031,691.6719 1521.75,691.0938 Q1522.8125,690.5 1524,690.5 Q1524.7188,690.5 1525.3438,690.75 Q1525.9688,691 1526.5,691.5 Z " fill="#000000"/><text fill="#000000" font-family="sans-serif" font-size="12" lengthAdjust="spacing" textLength="145" x="1538.5" y="699.9102">ClinicalAnalysisLaboratory</text><line style="stroke:#A80036;stroke-width:1.5;" x1="1510.5" x2="1685.5" y1="711" y2="711"/><rect fill="none" height="6" style="stroke:#C82930;stroke-width:1.0;" width="6" x="1517.5" y="719"/><text fill="#000000" font-family="sans-serif" font-size="11" lengthAdjust="spacing" textLength="57" x="1529.5" y="726.4189">laboratoryId</text><rect fill="none" height="6" style="stroke:#C82930;stroke-width:1.0;" width="6" x="1517.5" y="732.8359"/><text fill="#000000" font-family="sans-serif" font-size="11" lengthAdjust="spacing" textLength="76" x="1529.5" y="740.2549">listOfTestTypes</text><line style="stroke:#A80036;stroke-width:1.5;" x1="1510.5" x2="1685.5" y1="746.6719" y2="746.6719"/><ellipse cx="1520.5" cy="757.6719" fill="#84BE84" rx="3" ry="3" style="stroke:#038048;stroke-width:1.0;"/><text fill="#000000" font-family="sans-serif" font-size="11" lengthAdjust="spacing" textLength="84" x="1529.5" y="762.0908">getLaboratoryId()</text><ellipse cx="1520.5" cy="771.5078" fill="#84BE84" rx="3" ry="3" style="stroke:#038048;stroke-width:1.0;"/><text fill="#000000" font-family="sans-serif" font-size="11" lengthAdjust="spacing" textLength="103" x="1529.5" y="775.9268">getListOfTestTypes()</text><!--MD5=[0f6f7964b844a64b0496af0dda7914bd]
class TestStore--><rect codeLine="134" fill="#FEFECE" filter="url(#fvzkekxksnk35)" height="103.3438" id="TestStore" style="stroke:#A80036;stroke-width:1.5;" width="215" x="2548.5" y="391"/><ellipse cx="2625.25" cy="407" fill="#ADD1B2" rx="11" ry="11" style="stroke:#A80036;stroke-width:1.0;"/><path d="M2627.25,403.5 Q2627.4531,403 2627.6875,402.75 Q2627.9219,402.5 2628.1875,402.5 Q2628.6563,402.5 2628.9531,402.7813 Q2629.25,403.0625 2629.25,403.7188 L2629.25,405.2813 Q2629.25,405.9375 2628.9688,406.2188 Q2628.6875,406.5 2628.25,406.5 Q2627.8594,406.5 2627.6094,406.3281 Q2627.3594,406.1563 2627.25,405.7031 Q2627.2031,405.3906 2627.0313,405.2188 Q2626.7188,404.8906 2626.1563,404.7031 Q2625.5938,404.5 2625.0313,404.5 Q2624.3281,404.5 2623.7344,404.7813 Q2623.1563,405.0625 2622.7031,405.6875 Q2622.25,406.3125 2622.25,407.1719 L2622.25,408.0938 Q2622.25,409.125 2623.0938,409.8125 Q2623.9375,410.5 2625.4375,410.5 Q2626.3281,410.5 2626.9531,410.2969 Q2627.3125,410.1875 2627.7188,409.8281 Q2627.9844,409.625 2628.125,409.5625 Q2628.2656,409.5 2628.4375,409.5 Q2628.7656,409.5 2629,409.7656 Q2629.25,410.0156 2629.25,410.375 Q2629.25,410.7188 2628.9063,411.125 Q2628.4063,411.7188 2627.6094,412.0469 Q2626.5625,412.5 2625.2813,412.5 Q2623.7813,412.5 2622.5781,411.9063 Q2621.6094,411.4375 2620.9219,410.4219 Q2620.25,409.4063 2620.25,408.2031 L2620.25,407.1094 Q2620.25,405.8594 2620.8438,404.7656 Q2621.4531,403.6719 2622.5,403.0938 Q2623.5625,402.5 2624.75,402.5 Q2625.4688,402.5 2626.0938,402.75 Q2626.7188,403 2627.25,403.5 Z " fill="#000000"/><text fill="#000000" font-family="sans-serif" font-size="12" lengthAdjust="spacing" textLength="53" x="2645.75" y="411.9102">TestStore</text><line style="stroke:#A80036;stroke-width:1.5;" x1="2549.5" x2="2762.5" y1="423" y2="423"/><line style="stroke:#A80036;stroke-width:1.5;" x1="2549.5" x2="2762.5" y1="431" y2="431"/><rect fill="#F24D5C" height="6" style="stroke:#C82930;stroke-width:1.0;" width="6" x="2556.5" y="439"/><text fill="#000000" font-family="sans-serif" font-size="11" lengthAdjust="spacing" textLength="114" x="2568.5" y="446.4189">generateInternalCode(t)</text><ellipse cx="2559.5" cy="455.8359" fill="#84BE84" rx="3" ry="3" style="stroke:#038048;stroke-width:1.0;"/><text fill="#000000" font-family="sans-serif" font-size="11" lengthAdjust="spacing" textLength="189" x="2568.5" y="460.2549">create(tin,nhscode,tt,TPM,internalcode)</text><ellipse cx="2559.5" cy="469.6719" fill="#84BE84" rx="3" ry="3" style="stroke:#038048;stroke-width:1.0;"/><text fill="#000000" font-family="sans-serif" font-size="11" lengthAdjust="spacing" textLength="69" x="2568.5" y="474.0908">validateTest(t)</text><ellipse cx="2559.5" cy="483.5078" fill="#84BE84" rx="3" ry="3" style="stroke:#038048;stroke-width:1.0;"/><text fill="#000000" font-family="sans-serif" font-size="11" lengthAdjust="spacing" textLength="50" x="2568.5" y="487.9268">addTest(t)</text><!--MD5=[6ba72ddf03822b91e8d41ca71de58ed3]
class TestTypeStore--><rect codeLine="59" fill="#FEFECE" filter="url(#fvzkekxksnk35)" height="61.8359" id="TestTypeStore" style="stroke:#A80036;stroke-width:1.5;" width="111" x="1803.5" y="411.5"/><ellipse cx="1818.5" cy="427.5" fill="#ADD1B2" rx="11" ry="11" style="stroke:#A80036;stroke-width:1.0;"/><path d="M1820.5,424 Q1820.7031,423.5 1820.9375,423.25 Q1821.1719,423 1821.4375,423 Q1821.9063,423 1822.2031,423.2813 Q1822.5,423.5625 1822.5,424.2188 L1822.5,425.7813 Q1822.5,426.4375 1822.2188,426.7188 Q1821.9375,427 1821.5,427 Q1821.1094,427 1820.8594,426.8281 Q1820.6094,426.6563 1820.5,426.2031 Q1820.4531,425.8906 1820.2813,425.7188 Q1819.9688,425.3906 1819.4063,425.2031 Q1818.8438,425 1818.2813,425 Q1817.5781,425 1816.9844,425.2813 Q1816.4063,425.5625 1815.9531,426.1875 Q1815.5,426.8125 1815.5,427.6719 L1815.5,428.5938 Q1815.5,429.625 1816.3438,430.3125 Q1817.1875,431 1818.6875,431 Q1819.5781,431 1820.2031,430.7969 Q1820.5625,430.6875 1820.9688,430.3281 Q1821.2344,430.125 1821.375,430.0625 Q1821.5156,430 1821.6875,430 Q1822.0156,430 1822.25,430.2656 Q1822.5,430.5156 1822.5,430.875 Q1822.5,431.2188 1822.1563,431.625 Q1821.6563,432.2188 1820.8594,432.5469 Q1819.8125,433 1818.5313,433 Q1817.0313,433 1815.8281,432.4063 Q1814.8594,431.9375 1814.1719,430.9219 Q1813.5,429.9063 1813.5,428.7031 L1813.5,427.6094 Q1813.5,426.3594 1814.0938,425.2656 Q1814.7031,424.1719 1815.75,423.5938 Q1816.8125,423 1818,423 Q1818.7188,423 1819.3438,423.25 Q1819.9688,423.5 1820.5,424 Z " fill="#000000"/><text fill="#000000" font-family="sans-serif" font-size="12" lengthAdjust="spacing" textLength="79" x="1832.5" y="432.4102">TestTypeStore</text><line style="stroke:#A80036;stroke-width:1.5;" x1="1804.5" x2="1913.5" y1="443.5" y2="443.5"/><line style="stroke:#A80036;stroke-width:1.5;" x1="1804.5" x2="1913.5" y1="451.5" y2="451.5"/><ellipse cx="1814.5" cy="462.5" fill="#84BE84" rx="3" ry="3" style="stroke:#038048;stroke-width:1.0;"/><text fill="#000000" font-family="sans-serif" font-size="11" lengthAdjust="spacing" textLength="85" x="1823.5" y="466.9189">getTestTypeList()</text><!--MD5=[be7802b157a16874d39c59ca0e2b25be]
class ParameterStore--><rect codeLine="141" fill="#FEFECE" filter="url(#fvzkekxksnk35)" height="61.8359" id="ParameterStore" style="stroke:#A80036;stroke-width:1.5;" width="119" x="1949.5" y="411.5"/><ellipse cx="1964.5" cy="427.5" fill="#ADD1B2" rx="11" ry="11" style="stroke:#A80036;stroke-width:1.0;"/><path d="M1966.5,424 Q1966.7031,423.5 1966.9375,423.25 Q1967.1719,423 1967.4375,423 Q1967.9063,423 1968.2031,423.2813 Q1968.5,423.5625 1968.5,424.2188 L1968.5,425.7813 Q1968.5,426.4375 1968.2188,426.7188 Q1967.9375,427 1967.5,427 Q1967.1094,427 1966.8594,426.8281 Q1966.6094,426.6563 1966.5,426.2031 Q1966.4531,425.8906 1966.2813,425.7188 Q1965.9688,425.3906 1965.4063,425.2031 Q1964.8438,425 1964.2813,425 Q1963.5781,425 1962.9844,425.2813 Q1962.4063,425.5625 1961.9531,426.1875 Q1961.5,426.8125 1961.5,427.6719 L1961.5,428.5938 Q1961.5,429.625 1962.3438,430.3125 Q1963.1875,431 1964.6875,431 Q1965.5781,431 1966.2031,430.7969 Q1966.5625,430.6875 1966.9688,430.3281 Q1967.2344,430.125 1967.375,430.0625 Q1967.5156,430 1967.6875,430 Q1968.0156,430 1968.25,430.2656 Q1968.5,430.5156 1968.5,430.875 Q1968.5,431.2188 1968.1563,431.625 Q1967.6563,432.2188 1966.8594,432.5469 Q1965.8125,433 1964.5313,433 Q1963.0313,433 1961.8281,432.4063 Q1960.8594,431.9375 1960.1719,430.9219 Q1959.5,429.9063 1959.5,428.7031 L1959.5,427.6094 Q1959.5,426.3594 1960.0938,425.2656 Q1960.7031,424.1719 1961.75,423.5938 Q1962.8125,423 1964,423 Q1964.7188,423 1965.3438,423.25 Q1965.9688,423.5 1966.5,424 Z " fill="#000000"/><text fill="#000000" font-family="sans-serif" font-size="12" lengthAdjust="spacing" textLength="87" x="1978.5" y="432.4102">ParameterStore</text><line style="stroke:#A80036;stroke-width:1.5;" x1="1950.5" x2="2067.5" y1="443.5" y2="443.5"/><line style="stroke:#A80036;stroke-width:1.5;" x1="1950.5" x2="2067.5" y1="451.5" y2="451.5"/><ellipse cx="1960.5" cy="462.5" fill="#84BE84" rx="3" ry="3" style="stroke:#038048;stroke-width:1.0;"/><text fill="#000000" font-family="sans-serif" font-size="11" lengthAdjust="spacing" textLength="89" x="1969.5" y="466.9189">getParameterList()</text><!--MD5=[d802db621b5b215a6f0466f93cefcb42]
class ParameterCategoryStore--><rect codeLine="84" fill="#FEFECE" filter="url(#fvzkekxksnk35)" height="61.8359" id="ParameterCategoryStore" style="stroke:#A80036;stroke-width:1.5;" width="168" x="2104" y="411.5"/><ellipse cx="2119" cy="427.5" fill="#ADD1B2" rx="11" ry="11" style="stroke:#A80036;stroke-width:1.0;"/><path d="M2121,424 Q2121.2031,423.5 2121.4375,423.25 Q2121.6719,423 2121.9375,423 Q2122.4063,423 2122.7031,423.2813 Q2123,423.5625 2123,424.2188 L2123,425.7813 Q2123,426.4375 2122.7188,426.7188 Q2122.4375,427 2122,427 Q2121.6094,427 2121.3594,426.8281 Q2121.1094,426.6563 2121,426.2031 Q2120.9531,425.8906 2120.7813,425.7188 Q2120.4688,425.3906 2119.9063,425.2031 Q2119.3438,425 2118.7813,425 Q2118.0781,425 2117.4844,425.2813 Q2116.9063,425.5625 2116.4531,426.1875 Q2116,426.8125 2116,427.6719 L2116,428.5938 Q2116,429.625 2116.8438,430.3125 Q2117.6875,431 2119.1875,431 Q2120.0781,431 2120.7031,430.7969 Q2121.0625,430.6875 2121.4688,430.3281 Q2121.7344,430.125 2121.875,430.0625 Q2122.0156,430 2122.1875,430 Q2122.5156,430 2122.75,430.2656 Q2123,430.5156 2123,430.875 Q2123,431.2188 2122.6563,431.625 Q2122.1563,432.2188 2121.3594,432.5469 Q2120.3125,433 2119.0313,433 Q2117.5313,433 2116.3281,432.4063 Q2115.3594,431.9375 2114.6719,430.9219 Q2114,429.9063 2114,428.7031 L2114,427.6094 Q2114,426.3594 2114.5938,425.2656 Q2115.2031,424.1719 2116.25,423.5938 Q2117.3125,423 2118.5,423 Q2119.2188,423 2119.8438,423.25 Q2120.4688,423.5 2121,424 Z " fill="#000000"/><text fill="#000000" font-family="sans-serif" font-size="12" lengthAdjust="spacing" textLength="136" x="2133" y="432.4102">ParameterCategoryStore</text><line style="stroke:#A80036;stroke-width:1.5;" x1="2105" x2="2271" y1="443.5" y2="443.5"/><line style="stroke:#A80036;stroke-width:1.5;" x1="2105" x2="2271" y1="451.5" y2="451.5"/><ellipse cx="2115" cy="462.5" fill="#84BE84" rx="3" ry="3" style="stroke:#038048;stroke-width:1.0;"/><text fill="#000000" font-family="sans-serif" font-size="11" lengthAdjust="spacing" textLength="133" x="2124" y="466.9189">getParameterCategoryList()</text><!--MD5=[438281daef332c5ccec4fb6cf3747e9a]
class ClinicalAnalysisLaboratoryStore--><rect codeLine="55" fill="#FEFECE" filter="url(#fvzkekxksnk35)" height="61.8359" id="ClinicalAnalysisLaboratoryStore" style="stroke:#A80036;stroke-width:1.5;" width="206" x="2307" y="411.5"/><ellipse cx="2322" cy="427.5" fill="#ADD1B2" rx="11" ry="11" style="stroke:#A80036;stroke-width:1.0;"/><path d="M2324,424 Q2324.2031,423.5 2324.4375,423.25 Q2324.6719,423 2324.9375,423 Q2325.4063,423 2325.7031,423.2813 Q2326,423.5625 2326,424.2188 L2326,425.7813 Q2326,426.4375 2325.7188,426.7188 Q2325.4375,427 2325,427 Q2324.6094,427 2324.3594,426.8281 Q2324.1094,426.6563 2324,426.2031 Q2323.9531,425.8906 2323.7813,425.7188 Q2323.4688,425.3906 2322.9063,425.2031 Q2322.3438,425 2321.7813,425 Q2321.0781,425 2320.4844,425.2813 Q2319.9063,425.5625 2319.4531,426.1875 Q2319,426.8125 2319,427.6719 L2319,428.5938 Q2319,429.625 2319.8438,430.3125 Q2320.6875,431 2322.1875,431 Q2323.0781,431 2323.7031,430.7969 Q2324.0625,430.6875 2324.4688,430.3281 Q2324.7344,430.125 2324.875,430.0625 Q2325.0156,430 2325.1875,430 Q2325.5156,430 2325.75,430.2656 Q2326,430.5156 2326,430.875 Q2326,431.2188 2325.6563,431.625 Q2325.1563,432.2188 2324.3594,432.5469 Q2323.3125,433 2322.0313,433 Q2320.5313,433 2319.3281,432.4063 Q2318.3594,431.9375 2317.6719,430.9219 Q2317,429.9063 2317,428.7031 L2317,427.6094 Q2317,426.3594 2317.5938,425.2656 Q2318.2031,424.1719 2319.25,423.5938 Q2320.3125,423 2321.5,423 Q2322.2188,423 2322.8438,423.25 Q2323.4688,423.5 2324,424 Z " fill="#000000"/><text fill="#000000" font-family="sans-serif" font-size="12" lengthAdjust="spacing" textLength="174" x="2336" y="432.4102">ClinicalAnalysisLaboratoryStore</text><line style="stroke:#A80036;stroke-width:1.5;" x1="2308" x2="2512" y1="443.5" y2="443.5"/><line style="stroke:#A80036;stroke-width:1.5;" x1="2308" x2="2512" y1="451.5" y2="451.5"/><ellipse cx="2318" cy="462.5" fill="#84BE84" rx="3" ry="3" style="stroke:#038048;stroke-width:1.0;"/><text fill="#000000" font-family="sans-serif" font-size="11" lengthAdjust="spacing" textLength="153" x="2327" y="466.9189">ClinicalAnalysisLaboratoryList()</text><!--MD5=[55cb992be19579b505cea3c5691093cb]
class ClientStore--><rect codeLine="103" fill="#FEFECE" filter="url(#fvzkekxksnk35)" height="61.8359" id="ClientStore" style="stroke:#A80036;stroke-width:1.5;" width="109" x="1659.5" y="411.5"/><ellipse cx="1681.7" cy="427.5" fill="#ADD1B2" rx="11" ry="11" style="stroke:#A80036;stroke-width:1.0;"/><path d="M1683.7,424 Q1683.9031,423.5 1684.1375,423.25 Q1684.3719,423 1684.6375,423 Q1685.1063,423 1685.4031,423.2813 Q1685.7,423.5625 1685.7,424.2188 L1685.7,425.7813 Q1685.7,426.4375 1685.4188,426.7188 Q1685.1375,427 1684.7,427 Q1684.3094,427 1684.0594,426.8281 Q1683.8094,426.6563 1683.7,426.2031 Q1683.6531,425.8906 1683.4813,425.7188 Q1683.1688,425.3906 1682.6063,425.2031 Q1682.0438,425 1681.4813,425 Q1680.7781,425 1680.1844,425.2813 Q1679.6063,425.5625 1679.1531,426.1875 Q1678.7,426.8125 1678.7,427.6719 L1678.7,428.5938 Q1678.7,429.625 1679.5438,430.3125 Q1680.3875,431 1681.8875,431 Q1682.7781,431 1683.4031,430.7969 Q1683.7625,430.6875 1684.1688,430.3281 Q1684.4344,430.125 1684.575,430.0625 Q1684.7156,430 1684.8875,430 Q1685.2156,430 1685.45,430.2656 Q1685.7,430.5156 1685.7,430.875 Q1685.7,431.2188 1685.3563,431.625 Q1684.8563,432.2188 1684.0594,432.5469 Q1683.0125,433 1681.7313,433 Q1680.2313,433 1679.0281,432.4063 Q1678.0594,431.9375 1677.3719,430.9219 Q1676.7,429.9063 1676.7,428.7031 L1676.7,427.6094 Q1676.7,426.3594 1677.2938,425.2656 Q1677.9031,424.1719 1678.95,423.5938 Q1680.0125,423 1681.2,423 Q1681.9188,423 1682.5438,423.25 Q1683.1688,423.5 1683.7,424 Z " fill="#000000"/><text fill="#000000" font-family="sans-serif" font-size="12" lengthAdjust="spacing" textLength="61" x="1697.3" y="432.4102">ClientStore</text><line style="stroke:#A80036;stroke-width:1.5;" x1="1660.5" x2="1767.5" y1="443.5" y2="443.5"/><line style="stroke:#A80036;stroke-width:1.5;" x1="1660.5" x2="1767.5" y1="451.5" y2="451.5"/><ellipse cx="1670.5" cy="462.5" fill="#84BE84" rx="3" ry="3" style="stroke:#038048;stroke-width:1.0;"/><text fill="#000000" font-family="sans-serif" font-size="11" lengthAdjust="spacing" textLength="83" x="1679.5" y="466.9189">getClientbytin(tin)</text><!--MD5=[73677359b52d98a525977144c337a659]
class RegisterTestController--><rect codeLine="173" fill="#FEFECE" filter="url(#fvzkekxksnk35)" height="131.0156" id="RegisterTestController" style="stroke:#A80036;stroke-width:1.5;" width="171" x="1404.5" y="175"/><ellipse cx="1425.8" cy="191" fill="#ADD1B2" rx="11" ry="11" style="stroke:#A80036;stroke-width:1.0;"/><path d="M1427.8,187.5 Q1428.0031,187 1428.2375,186.75 Q1428.4719,186.5 1428.7375,186.5 Q1429.2063,186.5 1429.5031,186.7813 Q1429.8,187.0625 1429.8,187.7188 L1429.8,189.2813 Q1429.8,189.9375 1429.5188,190.2188 Q1429.2375,190.5 1428.8,190.5 Q1428.4094,190.5 1428.1594,190.3281 Q1427.9094,190.1563 1427.8,189.7031 Q1427.7531,189.3906 1427.5813,189.2188 Q1427.2688,188.8906 1426.7063,188.7031 Q1426.1438,188.5 1425.5813,188.5 Q1424.8781,188.5 1424.2844,188.7813 Q1423.7063,189.0625 1423.2531,189.6875 Q1422.8,190.3125 1422.8,191.1719 L1422.8,192.0938 Q1422.8,193.125 1423.6438,193.8125 Q1424.4875,194.5 1425.9875,194.5 Q1426.8781,194.5 1427.5031,194.2969 Q1427.8625,194.1875 1428.2688,193.8281 Q1428.5344,193.625 1428.675,193.5625 Q1428.8156,193.5 1428.9875,193.5 Q1429.3156,193.5 1429.55,193.7656 Q1429.8,194.0156 1429.8,194.375 Q1429.8,194.7188 1429.4563,195.125 Q1428.9563,195.7188 1428.1594,196.0469 Q1427.1125,196.5 1425.8313,196.5 Q1424.3313,196.5 1423.1281,195.9063 Q1422.1594,195.4375 1421.4719,194.4219 Q1420.8,193.4063 1420.8,192.2031 L1420.8,191.1094 Q1420.8,189.8594 1421.3938,188.7656 Q1422.0031,187.6719 1423.05,187.0938 Q1424.1125,186.5 1425.3,186.5 Q1426.0188,186.5 1426.6438,186.75 Q1427.2688,187 1427.8,187.5 Z " fill="#000000"/><text fill="#000000" font-family="sans-serif" font-size="12" lengthAdjust="spacing" textLength="125" x="1441.2" y="195.9102">RegisterTestController</text><line style="stroke:#A80036;stroke-width:1.5;" x1="1405.5" x2="1574.5" y1="207" y2="207"/><line style="stroke:#A80036;stroke-width:1.5;" x1="1405.5" x2="1574.5" y1="215" y2="215"/><ellipse cx="1415.5" cy="226" fill="#84BE84" rx="3" ry="3" style="stroke:#038048;stroke-width:1.0;"/><text fill="#000000" font-family="sans-serif" font-size="11" lengthAdjust="spacing" textLength="60" x="1424.5" y="230.4189">getClient(tin)</text><ellipse cx="1415.5" cy="239.8359" fill="#84BE84" rx="3" ry="3" style="stroke:#038048;stroke-width:1.0;"/><text fill="#000000" font-family="sans-serif" font-size="11" lengthAdjust="spacing" textLength="85" x="1424.5" y="244.2549">getTestTypeList()</text><ellipse cx="1415.5" cy="253.6719" fill="#84BE84" rx="3" ry="3" style="stroke:#038048;stroke-width:1.0;"/><text fill="#000000" font-family="sans-serif" font-size="11" lengthAdjust="spacing" textLength="133" x="1424.5" y="258.0908">getParameterCategoryList()</text><ellipse cx="1415.5" cy="267.5078" fill="#84BE84" rx="3" ry="3" style="stroke:#038048;stroke-width:1.0;"/><text fill="#000000" font-family="sans-serif" font-size="11" lengthAdjust="spacing" textLength="89" x="1424.5" y="271.9268">getParameterList()</text><ellipse cx="1415.5" cy="281.3438" fill="#84BE84" rx="3" ry="3" style="stroke:#038048;stroke-width:1.0;"/><text fill="#000000" font-family="sans-serif" font-size="11" lengthAdjust="spacing" textLength="145" x="1424.5" y="285.7627">createTest(cl,nhscode,tt,TPM)</text><ellipse cx="1415.5" cy="295.1797" fill="#84BE84" rx="3" ry="3" style="stroke:#038048;stroke-width:1.0;"/><text fill="#000000" font-family="sans-serif" font-size="11" lengthAdjust="spacing" textLength="53" x="1424.5" y="299.5986">saveTest()</text><!--MD5=[d77386df0ab152061918b4652af9ba57]
class RegisterTestUI--><rect codeLine="182" fill="#FEFECE" filter="url(#fvzkekxksnk35)" height="48" id="RegisterTestUI" style="stroke:#A80036;stroke-width:1.5;" width="115" x="307.5" y="42"/><ellipse cx="322.5" cy="58" fill="#ADD1B2" rx="11" ry="11" style="stroke:#A80036;stroke-width:1.0;"/><path d="M324.5,54.5 Q324.7031,54 324.9375,53.75 Q325.1719,53.5 325.4375,53.5 Q325.9063,53.5 326.2031,53.7813 Q326.5,54.0625 326.5,54.7188 L326.5,56.2813 Q326.5,56.9375 326.2188,57.2188 Q325.9375,57.5 325.5,57.5 Q325.1094,57.5 324.8594,57.3281 Q324.6094,57.1563 324.5,56.7031 Q324.4531,56.3906 324.2813,56.2188 Q323.9688,55.8906 323.4063,55.7031 Q322.8438,55.5 322.2813,55.5 Q321.5781,55.5 320.9844,55.7813 Q320.4063,56.0625 319.9531,56.6875 Q319.5,57.3125 319.5,58.1719 L319.5,59.0938 Q319.5,60.125 320.3438,60.8125 Q321.1875,61.5 322.6875,61.5 Q323.5781,61.5 324.2031,61.2969 Q324.5625,61.1875 324.9688,60.8281 Q325.2344,60.625 325.375,60.5625 Q325.5156,60.5 325.6875,60.5 Q326.0156,60.5 326.25,60.7656 Q326.5,61.0156 326.5,61.375 Q326.5,61.7188 326.1563,62.125 Q325.6563,62.7188 324.8594,63.0469 Q323.8125,63.5 322.5313,63.5 Q321.0313,63.5 319.8281,62.9063 Q318.8594,62.4375 318.1719,61.4219 Q317.5,60.4063 317.5,59.2031 L317.5,58.1094 Q317.5,56.8594 318.0938,55.7656 Q318.7031,54.6719 319.75,54.0938 Q320.8125,53.5 322,53.5 Q322.7188,53.5 323.3438,53.75 Q323.9688,54 324.5,54.5 Z " fill="#000000"/><text fill="#000000" font-family="sans-serif" font-size="12" lengthAdjust="spacing" textLength="83" x="336.5" y="62.9102">RegisterTestUI</text><line style="stroke:#A80036;stroke-width:1.5;" x1="308.5" x2="421.5" y1="74" y2="74"/><line style="stroke:#A80036;stroke-width:1.5;" x1="308.5" x2="421.5" y1="82" y2="82"/><!--MD5=[14857a0f682f89c0bb9098ba51bf3333]
link RegisterTestUI to RegisterTestController--><path codeLine="186" d="M422.79,68.56 C622.63,74.26 1276.91,95.46 1364,131 C1386.61,140.23 1408.04,155.21 1426.6,171.13 " fill="none" id="RegisterTestUI-to-RegisterTestController" style="stroke:#A80036;stroke-width:1.0;stroke-dasharray:7.0,7.0;"/><polygon fill="#A80036" points="1430.76,174.75,1426.6016,165.8221,1426.99,171.4656,1421.3465,171.854,1430.76,174.75" style="stroke:#A80036;stroke-width:1.0;"/><!--MD5=[fd1bc663e883ec1d717e7d33cb6b726b]
link RegisterTestController to Company--><path codeLine="187" d="M1547.15,306.27 C1557.16,319.27 1566.94,333.19 1575,347 C1616.23,417.64 1578.21,468.08 1643,518 C1654.7,527.02 1694.44,523.51 1709,526 C1745.35,532.23 1753.69,537.56 1790,544 C1816.49,548.7 1827.69,536.97 1850,552 C1887.56,577.32 1912.79,621.57 1928.64,659.56 " fill="none" id="RegisterTestController-to-Company" style="stroke:#A80036;stroke-width:1.0;stroke-dasharray:7.0,7.0;"/><polygon fill="#A80036" points="1930.72,664.64,1931.0287,654.796,1928.8335,660.0095,1923.62,657.8144,1930.72,664.64" style="stroke:#A80036;stroke-width:1.0;"/><!--MD5=[863d0969a3c73776af97edc376ac5a92]
link RegisterTestController to Client--><path codeLine="188" d="M1404.4,300.33 C1386.37,312.24 1366.85,323.2 1347,330 C1311.32,342.23 1039.53,326.31 1008,347 C927.3,399.95 891.13,504.35 877.5,590.72 " fill="none" id="RegisterTestController-to-Client" style="stroke:#A80036;stroke-width:1.0;stroke-dasharray:7.0,7.0;"/><polygon fill="#A80036" points="876.71,595.86,882.0266,587.5694,877.4671,590.9176,874.1188,586.3581,876.71,595.86" style="stroke:#A80036;stroke-width:1.0;"/><!--MD5=[863d0969a3c73776af97edc376ac5a92]
link RegisterTestController to Client--><path codeLine="192" d="M1429.74,306.15 C1414.9,315.76 1398.56,324.32 1382,330 C1346.32,342.23 1074.53,326.31 1043,347 C962.3,399.95 926.13,504.35 907.27,590.72 " fill="none" id="RegisterTestController-to-Client-1" style="stroke:#A80036;stroke-width:1.0;stroke-dasharray:7.0,7.0;"/><polygon fill="#A80036" points="906.17,595.86,911.9606,587.8933,907.2137,590.9702,904.1369,586.2233,906.17,595.86" style="stroke:#A80036;stroke-width:1.0;"/><!--MD5=[6a57f7f5909bd34f9d66d293e1626668]
link RegisterTestController to Parameter--><path codeLine="189" d="M1404.22,298.88 C1384.08,313.7 1363.2,330.23 1345,347 C1267.83,418.12 1227.5,427.61 1191,526 C1176.63,564.73 1186.08,608.7 1201.19,645.84 " fill="none" id="RegisterTestController-to-Parameter" style="stroke:#A80036;stroke-width:1.0;stroke-dasharray:7.0,7.0;"/><polygon fill="#A80036" points="1203.26,650.8,1203.5059,640.9542,1201.344,646.1817,1196.1166,644.0198,1203.26,650.8" style="stroke:#A80036;stroke-width:1.0;"/><!--MD5=[ec47b9290aa4dd5508a85ec01f0b1ba8]
link RegisterTestController to TestType--><path codeLine="190" d="M1410.77,306.17 C1395.95,315.58 1380.05,324.07 1364,330 C1289.45,357.53 1256.69,310.68 1186,347 C1092.13,395.22 1067.02,427.18 1030,526 C1017.35,559.76 1021.11,598.14 1030.4,632.4 " fill="none" id="RegisterTestController-to-TestType" style="stroke:#A80036;stroke-width:1.0;stroke-dasharray:7.0,7.0;"/><polygon fill="#A80036" points="1031.81,637.43,1033.2448,627.6862,1030.4666,632.6138,1025.539,629.8356,1031.81,637.43" style="stroke:#A80036;stroke-width:1.0;"/><!--MD5=[2917e32a42f51cb17a9136a5085d19dc]
link RegisterTestController to ParameterCategory--><path codeLine="191" d="M1447.63,306.05 C1413.89,361.7 1369.53,445.54 1352,526 C1341.02,576.39 1358.3,633.13 1375.99,673.87 " fill="none" id="RegisterTestController-to-ParameterCategory" style="stroke:#A80036;stroke-width:1.0;stroke-dasharray:7.0,7.0;"/><polygon fill="#A80036" points="1378.14,678.76,1378.1828,668.9112,1376.1292,674.1822,1370.8582,672.1286,1378.14,678.76" style="stroke:#A80036;stroke-width:1.0;"/><!--MD5=[97e9c595f061e920ddd6d5d021effbc9]
link RegisterTestController to Test--><path codeLine="193" d="M1507.54,306.1 C1528.96,383 1564.27,502.99 1580,518 C1621.35,557.45 1661.19,514.14 1704,552 C1737.32,581.47 1755.74,628.48 1765.74,666.71 " fill="none" id="RegisterTestController-to-Test" style="stroke:#A80036;stroke-width:1.0;stroke-dasharray:7.0,7.0;"/><polygon fill="#A80036" points="1767.04,671.81,1768.6772,662.0982,1765.7971,666.9669,1760.9283,664.0868,1767.04,671.81" style="stroke:#A80036;stroke-width:1.0;"/><!--MD5=[9d702742cc0e04e63847c971060ce02c]
link RegisterTestController to ClinicalAnalysisLaboratory--><path codeLine="194" d="M1487.02,306.1 C1485.97,368.35 1489.19,464.54 1513,544 C1526.58,589.3 1549.11,637.81 1567.57,673.85 " fill="none" id="RegisterTestController-to-ClinicalAnalysisLaboratory" style="stroke:#A80036;stroke-width:1.0;stroke-dasharray:7.0,7.0;"/><polygon fill="#A80036" points="1570.03,678.63,1569.4696,668.7971,1567.7426,674.1839,1562.3558,672.4569,1570.03,678.63" style="stroke:#A80036;stroke-width:1.0;"/><!--MD5=[ba1988eed452b1c4a6c21cb9af5f7655]
link RegisterTestController to ParameterStore--><path codeLine="195" d="M1575.63,245.74 C1669.55,253.89 1821.59,277.67 1932,347 C1955.76,361.92 1975.56,386.73 1989.13,407.18 " fill="none" id="RegisterTestController-to-ParameterStore" style="stroke:#A80036;stroke-width:1.0;stroke-dasharray:7.0,7.0;"/><polygon fill="#A80036" points="1991.93,411.48,1990.358,401.7574,1989.1961,407.2936,1983.6598,406.1317,1991.93,411.48" style="stroke:#A80036;stroke-width:1.0;"/><!--MD5=[9bbdbd540c83e8eb6a96b73517cd98eb]
link RegisterTestController to TestTypeStore--><path codeLine="196" d="M1575.52,258.32 C1638.19,273.73 1722.97,301.26 1786,347 C1807.84,362.85 1826.34,387.01 1839.25,406.93 " fill="none" id="RegisterTestController-to-TestTypeStore" style="stroke:#A80036;stroke-width:1.0;stroke-dasharray:7.0,7.0;"/><polygon fill="#A80036" points="1842.09,411.37,1840.6264,401.6305,1839.4028,407.1535,1833.8799,405.9299,1842.09,411.37" style="stroke:#A80036;stroke-width:1.0;"/><!--MD5=[cecebe3255f956fc058b2d8992e01abb]
link RegisterTestController to ParameterCategoryStore--><path codeLine="197" d="M1575.62,241.73 C1695.79,245.27 1918.5,263.76 2086,347 C2115.1,361.46 2141.8,386.85 2160.58,407.67 " fill="none" id="RegisterTestController-to-ParameterCategoryStore" style="stroke:#A80036;stroke-width:1.0;stroke-dasharray:7.0,7.0;"/><polygon fill="#A80036" points="2163.99,411.5,2160.9803,402.1223,2160.6602,407.7701,2155.0124,407.4499,2163.99,411.5" style="stroke:#A80036;stroke-width:1.0;"/><!--MD5=[9982b9c45ac6bc54b3873a806e95b615]
link RegisterTestController to ClientStore--><path codeLine="198" d="M1575.79,293.63 C1595.14,307.03 1614.97,322.17 1632,338 C1654.35,358.78 1675.63,385.93 1690.91,407.22 " fill="none" id="RegisterTestController-to-ClientStore" style="stroke:#A80036;stroke-width:1.0;stroke-dasharray:7.0,7.0;"/><polygon fill="#A80036" points="1693.89,411.39,1691.9266,401.7388,1690.9892,407.3175,1685.4106,406.3801,1693.89,411.39" style="stroke:#A80036;stroke-width:1.0;"/><!--MD5=[ab922b8023446f7e094c4c89426f3446]
link RegisterTestController to TestStore--><path codeLine="199" d="M1575.66,244.25 C1792.34,252.14 2357.37,278.82 2531,347 C2555.1,356.46 2578.55,371.95 2598.51,387.67 " fill="none" id="RegisterTestController-to-TestStore" style="stroke:#A80036;stroke-width:1.0;stroke-dasharray:7.0,7.0;"/><polygon fill="#A80036" points="2602.45,390.81,2597.9327,382.0582,2598.5498,387.6813,2592.9268,388.2985,2602.45,390.81" style="stroke:#A80036;stroke-width:1.0;"/><!--MD5=[6b55bd95fcd93f20ed2f818f3f143c20]
link RegisterTestController to ClinicalAnalysisLaboratoryStore--><path codeLine="200" d="M1575.58,247.04 C1754.56,259.55 2162.37,293.18 2290,347 C2323.03,360.93 2354.64,386.5 2377.11,407.53 " fill="none" id="RegisterTestController-to-ClinicalAnalysisLaboratoryStore" style="stroke:#A80036;stroke-width:1.0;stroke-dasharray:7.0,7.0;"/><polygon fill="#A80036" points="2380.92,411.13,2377.1077,402.0489,2377.279,407.7032,2371.6247,407.8745,2380.92,411.13" style="stroke:#A80036;stroke-width:1.0;"/><!--MD5=[c01e41ad8fe9db5f83b6b7314d2ac040]
link RegisterTestController to ParameterMapper--><path codeLine="201" d="M1434.93,174.97 C1410.72,152.12 1380.13,130.24 1346.5,122.5 C1299.83,111.77 962.17,111.77 915.5,122.5 C874.46,131.94 845.77,173.61 829.61,204.78 " fill="none" id="RegisterTestController-to-ParameterMapper" style="stroke:#A80036;stroke-width:1.0;stroke-dasharray:7.0,7.0;"/><polygon fill="#A80036" points="827.31,209.29,834.9604,203.0874,829.5803,204.8351,827.8326,199.455,827.31,209.29" style="stroke:#A80036;stroke-width:1.0;"/><!--MD5=[bd529eadf1a960899656fd512532efaa]
link RegisterTestController to TestTypeMapper--><path codeLine="202" d="M1434.93,174.97 C1410.72,152.12 1380.13,130.24 1346.5,122.5 C1314.12,115.05 780.88,115.05 748.5,122.5 C708.31,131.74 681.29,173.46 666.3,204.69 " fill="none" id="RegisterTestController-to-TestTypeMapper" style="stroke:#A80036;stroke-width:1.0;stroke-dasharray:7.0,7.0;"/><polygon fill="#A80036" points="664.18,209.21,671.6364,202.7755,666.3124,204.6875,664.4004,199.3636,664.18,209.21" style="stroke:#A80036;stroke-width:1.0;"/><!--MD5=[b52cffb26a0b6b0d84f6740985f1451e]
link RegisterTestController to ParameterCategoryMapper--><path codeLine="203" d="M1434.93,174.97 C1410.72,152.12 1380.13,130.24 1346.5,122.5 C1299.72,111.74 1177.28,111.74 1130.5,122.5 C1122.07,124.44 1120.03,125.96 1113,131 C1083.26,152.33 1054.41,182.21 1034.01,205.37 " fill="none" id="RegisterTestController-to-ParameterCategoryMapper" style="stroke:#A80036;stroke-width:1.0;stroke-dasharray:7.0,7.0;"/><polygon fill="#A80036" points="1030.56,209.32,1039.4968,205.1808,1033.8525,205.5571,1033.4762,199.9128,1030.56,209.32" style="stroke:#A80036;stroke-width:1.0;"/><!--MD5=[fe73a226a890d1dcc10d85b4a87c82dd]
link RegisterTestController to ClinicalAnalysisLaboratoryMapper--><path codeLine="204" d="M1404.5,240.5 C1387.53,240.5 1370.56,240.5 1353.59,240.5 " fill="none" id="RegisterTestController-to-ClinicalAnalysisLaboratoryMapper" style="stroke:#A80036;stroke-width:1.0;stroke-dasharray:7.0,7.0;"/><polygon fill="#A80036" points="1348.32,240.5,1357.32,244.5,1353.32,240.5,1357.32,236.5,1348.32,240.5" style="stroke:#A80036;stroke-width:1.0;"/><!--MD5=[bf0400a7dd245b5a1223bef3ae7b1c25]
link RegisterTestController to ParameterDTO--><path codeLine="205" d="M1412.87,306.12 C1397.52,315.86 1380.9,324.48 1364,330 C1341.39,337.38 959.77,337.17 936,338 C857.72,340.73 832.65,317.74 760,347 C636.09,396.91 649.44,478.53 533,544 C522.83,549.72 516.63,544.15 508,552 C463.85,592.15 444.35,662.28 436.57,701.29 " fill="none" id="RegisterTestController-to-ParameterDTO" style="stroke:#A80036;stroke-width:1.0;stroke-dasharray:7.0,7.0;"/><polygon fill="#A80036" points="435.59,706.35,441.2368,698.2807,436.5459,701.4422,433.3844,696.7513,435.59,706.35" style="stroke:#A80036;stroke-width:1.0;"/><!--MD5=[333a6b16d9a198fd5c341f8a01566e38]
link RegisterTestController to TestTypeDTO--><path codeLine="206" d="M1412.9,306.21 C1397.55,315.95 1380.92,324.54 1364,330 C1311.23,347.03 417.01,325.25 366,347 C246.6,397.91 230.11,444.07 158,552 C125.87,600.1 104.16,664.78 93.54,701.31 " fill="none" id="RegisterTestController-to-TestTypeDTO" style="stroke:#A80036;stroke-width:1.0;stroke-dasharray:7.0,7.0;"/><polygon fill="#A80036" points="92.06,706.49,98.3786,698.9352,93.4336,701.6824,90.6864,696.7374,92.06,706.49" style="stroke:#A80036;stroke-width:1.0;"/><!--MD5=[d7ac390290887c57b8de0460cde81f85]
link RegisterTestController to ParameterCategoryDTO--><path codeLine="207" d="M1412.89,306.19 C1397.54,315.93 1380.91,324.53 1364,330 C1321.76,343.67 605.71,329.29 565,347 C402.44,417.73 300.76,625.91 268.3,701.59 " fill="none" id="RegisterTestController-to-ParameterCategoryDTO" style="stroke:#A80036;stroke-width:1.0;stroke-dasharray:7.0,7.0;"/><polygon fill="#A80036" points="266.27,706.38,273.4742,699.6644,268.2275,701.7791,266.1128,696.5324,266.27,706.38" style="stroke:#A80036;stroke-width:1.0;"/><!--MD5=[d7c7a67d913eeaa928335cacf9c678a0]
link RegisterTestController to ClinicalAnalysisLaboratoryDTO--><path codeLine="208" d="M1412.84,306.02 C1397.49,315.77 1380.88,324.42 1364,330 C1315.33,346.08 947.95,322.37 903,347 C864.81,367.92 699.24,617.55 644.01,701.87 " fill="none" id="RegisterTestController-to-ClinicalAnalysisLaboratoryDTO" style="stroke:#A80036;stroke-width:1.0;stroke-dasharray:7.0,7.0;"/><polygon fill="#A80036" points="641.15,706.24,649.4157,700.8849,643.8805,702.0514,642.7139,696.5161,641.15,706.24" style="stroke:#A80036;stroke-width:1.0;"/><!--MD5=[7b77de45d5738d5cbe2b6a993dc5156f]
link RegisterTestUI to TestTypeDTO--><path codeLine="209" d="M307.47,77.8 C272.32,86.91 228.44,103.09 198,131 C119.33,203.14 118.39,243.32 93,347 C61.42,475.94 74.89,636.71 82.31,701 " fill="none" id="RegisterTestUI-to-TestTypeDTO" style="stroke:#A80036;stroke-width:1.0;stroke-dasharray:7.0,7.0;"/><polygon fill="#A80036" points="82.92,706.2,85.8363,696.7928,82.3333,701.2345,77.8916,697.7315,82.92,706.2" style="stroke:#A80036;stroke-width:1.0;"/><!--MD5=[30274a6217d108ea0026c54aabf3cc89]
link RegisterTestUI to ParameterDTO--><path codeLine="210" d="M365.8,90.41 C368.35,159.84 377.45,370.57 399,544 C405.98,600.15 418.59,665.12 426.04,701.35 " fill="none" id="RegisterTestUI-to-ParameterDTO" style="stroke:#A80036;stroke-width:1.0;stroke-dasharray:7.0,7.0;"/><polygon fill="#A80036" points="427.1,706.48,429.1871,696.8548,426.0837,701.5844,421.3541,698.481,427.1,706.48" style="stroke:#A80036;stroke-width:1.0;"/><!--MD5=[8e4d0a0d908d0bf371f40068d82dcfaf]
link RegisterTestUI to ParameterCategoryDTO--><path codeLine="211" d="M345.55,90.11 C308.63,135.66 229.54,241.79 201,347 C165.8,476.73 219.96,637.59 245.19,701.47 " fill="none" id="RegisterTestUI-to-ParameterCategoryDTO" style="stroke:#A80036;stroke-width:1.0;stroke-dasharray:7.0,7.0;"/><polygon fill="#A80036" points="247.11,706.26,247.5075,696.4192,245.2654,701.6127,240.0718,699.3706,247.11,706.26" style="stroke:#A80036;stroke-width:1.0;"/><!--MD5=[3106cff7d4194596d77481437f2710c9]
link RegisterTestUI to ClinicalAnalysisLaboratoryDTO--><path codeLine="212" d="M378.15,90.05 C384.78,102.08 392.72,117.13 399,131 C496.13,345.37 587.91,614.66 616.72,701.29 " fill="none" id="RegisterTestUI-to-ClinicalAnalysisLaboratoryDTO" style="stroke:#A80036;stroke-width:1.0;stroke-dasharray:7.0,7.0;"/><polygon fill="#A80036" points="618.36,706.24,619.3264,696.4387,616.7874,701.4937,611.7324,698.9548,618.36,706.24" style="stroke:#A80036;stroke-width:1.0;"/><!--MD5=[bcaa6a39389c8cb768501da2b7549a8d]
link ParameterMapper to ParameterDTO--><path codeLine="213" d="M795.18,271.62 C780.49,292.16 758.06,317.76 731,330 C705.68,341.45 501.54,319.28 481,338 C376.69,433.08 408.55,628.74 424.96,701.47 " fill="none" id="ParameterMapper-to-ParameterDTO" style="stroke:#A80036;stroke-width:1.0;stroke-dasharray:7.0,7.0;"/><polygon fill="#A80036" points="426.11,706.49,427.9818,696.8206,424.9847,701.6183,420.187,698.6212,426.11,706.49" style="stroke:#A80036;stroke-width:1.0;"/><!--MD5=[a866f4e758874d18eed8ecae1602bb43]
link TestTypeMapper to TestTypeDTO--><path codeLine="214" d="M590.21,247.29 C479.99,258.78 255.52,287.77 197,338 C86.54,432.82 81.99,628.64 84.41,701.44 " fill="none" id="TestTypeMapper-to-TestTypeDTO" style="stroke:#A80036;stroke-width:1.0;stroke-dasharray:7.0,7.0;"/><polygon fill="#A80036" points="84.6,706.46,88.2622,697.3173,84.4139,701.4635,80.2678,697.6151,84.6,706.46" style="stroke:#A80036;stroke-width:1.0;"/><!--MD5=[b827252efc8c5a7fb825aa9e287feea1]
link ParameterCategoryMapper to ParameterCategoryDTO--><path codeLine="215" d="M979.06,271.5 C959.03,292.27 929.34,318.21 897,330 C880.58,335.99 280.45,325.74 268,338 C168.41,436.07 221.67,629.08 246.52,701.32 " fill="none" id="ParameterCategoryMapper-to-ParameterCategoryDTO" style="stroke:#A80036;stroke-width:1.0;stroke-dasharray:7.0,7.0;"/><polygon fill="#A80036" points="248.25,706.31,249.039,696.4928,246.5919,701.5929,241.4917,699.1458,248.25,706.31" style="stroke:#A80036;stroke-width:1.0;"/><!--MD5=[0883f0204777d2b70d64271e12381109]
link ClinicalAnalysisLaboratoryMapper to ClinicalAnalysisLaboratoryDTO--><path codeLine="216" d="M1207.76,271.51 C1183.9,292.27 1149.08,318.21 1113,330 C1090.87,337.23 711.67,322.84 694,338 C586.1,430.55 607.84,627.75 620.43,701.18 " fill="none" id="ClinicalAnalysisLaboratoryMapper-to-ClinicalAnalysisLaboratoryDTO" style="stroke:#A80036;stroke-width:1.0;stroke-dasharray:7.0,7.0;"/><polygon fill="#A80036" points="621.32,706.25,623.7141,696.6966,620.4609,701.3244,615.8331,698.0712,621.32,706.25" style="stroke:#A80036;stroke-width:1.0;"/><!--MD5=[6a9c25a7b7cd4f2505d061be4a34119e]
link ParameterMapper to Parameter--><path codeLine="217" d="M841.17,271.83 C857.23,289.32 878.23,311.44 898,330 C993.01,419.18 1016.71,442.61 1123,518 C1147.06,535.07 1160.96,529.47 1180,552 C1202.59,578.72 1218.3,613.69 1228.95,645.51 " fill="none" id="ParameterMapper-to-Parameter" style="stroke:#A80036;stroke-width:1.0;stroke-dasharray:7.0,7.0;"/><polygon fill="#A80036" points="1230.62,650.59,1231.6218,640.7922,1229.0646,645.8381,1224.0187,643.2809,1230.62,650.59" style="stroke:#A80036;stroke-width:1.0;"/><!--MD5=[a3b705e4e3f391aa28b18ef9a5fd28a9]
link TestTypeMapper to TestType--><path codeLine="218" d="M677.72,271.57 C692.87,288.97 712.62,311.1 731,330 C831.15,433.02 875.86,440.11 966,552 C986.03,576.87 1005.04,605.83 1021.32,633.05 " fill="none" id="TestTypeMapper-to-TestType" style="stroke:#A80036;stroke-width:1.0;stroke-dasharray:7.0,7.0;"/><polygon fill="#A80036" points="1023.91,637.41,1022.7478,627.63,1021.3543,633.1125,1015.8718,631.719,1023.91,637.41" style="stroke:#A80036;stroke-width:1.0;"/><!--MD5=[19765d4468597c595e89fcbff5e25b10]
link ParameterCategoryMapper to ParameterCategory--><path codeLine="219" d="M1042.77,271.67 C1106,323.64 1234.53,435.72 1318,552 C1345.2,589.89 1368.03,637.57 1383.48,673.97 " fill="none" id="ParameterCategoryMapper-to-ParameterCategory" style="stroke:#A80036;stroke-width:1.0;stroke-dasharray:7.0,7.0;"/><polygon fill="#A80036" points="1385.51,678.8,1385.704,668.9531,1383.5697,674.1918,1378.3309,672.0575,1385.51,678.8" style="stroke:#A80036;stroke-width:1.0;"/><!--MD5=[9b3c5737575fe452b44ed997296ffd7a]
link ClinicalAnalysisLaboratoryMapper to ClinicalAnalysisLaboratory--><path codeLine="220" d="M1266.04,271.62 C1314.09,325.79 1416.4,444.07 1492,552 C1519.69,591.53 1547.53,638.5 1567.73,674.19 " fill="none" id="ClinicalAnalysisLaboratoryMapper-to-ClinicalAnalysisLaboratory" style="stroke:#A80036;stroke-width:1.0;stroke-dasharray:7.0,7.0;"/><polygon fill="#A80036" points="1570.41,678.93,1569.4595,669.1271,1567.9478,674.5783,1562.4967,673.0666,1570.41,678.93" style="stroke:#A80036;stroke-width:1.0;"/><!--MD5=[daf3d7412afa2c7651483be0b6e971d1]
link Company to ParameterStore--><path codeLine="221" d="M1964.13,664.77 C1975.84,607.03 1992.53,524.7 2001.91,478.47 " fill="none" id="Company-to-ParameterStore" style="stroke:#A80036;stroke-width:1.0;"/><polygon fill="#A80036" points="2002.9,473.57,1997.2036,481.6044,2001.9139,478.4718,2005.0465,483.1821,2002.9,473.57" style="stroke:#A80036;stroke-width:1.0;"/><text fill="#000000" font-family="sans-serif" font-size="13" lengthAdjust="spacing" textLength="28" x="1992" y="540.4951">uses</text><text fill="#000000" font-family="sans-serif" font-size="13" lengthAdjust="spacing" textLength="7" x="1958.1833" y="654.2193">1</text><text fill="#000000" font-family="sans-serif" font-size="13" lengthAdjust="spacing" textLength="7" x="1994.01" y="494.8078">1</text><!--MD5=[141c3afa12b2b3c0a39ffce56dbd5f19]
link Company to TestTypeStore--><path codeLine="222" d="M1930.18,664.77 C1911.61,607.03 1885.12,524.7 1870.25,478.47 " fill="none" id="Company-to-TestTypeStore" style="stroke:#A80036;stroke-width:1.0;"/><polygon fill="#A80036" points="1868.67,473.57,1867.615,483.3622,1870.1996,478.3303,1875.2315,480.9149,1868.67,473.57" style="stroke:#A80036;stroke-width:1.0;"/><text fill="#000000" font-family="sans-serif" font-size="13" lengthAdjust="spacing" textLength="28" x="1889" y="540.4951">uses</text><text fill="#000000" font-family="sans-serif" font-size="13" lengthAdjust="spacing" textLength="7" x="1920.52" y="654.2193">1</text><text fill="#000000" font-family="sans-serif" font-size="13" lengthAdjust="spacing" textLength="7" x="1862.8847" y="494.8078">1</text><!--MD5=[d53d7490e5836ca5709858d7326f212b]
link Company to ParameterCategoryStore--><path codeLine="223" d="M2004.64,664.77 C2052.77,606.68 2121.54,523.7 2159.71,477.63 " fill="none" id="Company-to-ParameterCategoryStore" style="stroke:#A80036;stroke-width:1.0;"/><polygon fill="#A80036" points="2163.08,473.57,2154.2567,477.9459,2159.8889,477.4193,2160.4155,483.0516,2163.08,473.57" style="stroke:#A80036;stroke-width:1.0;"/><text fill="#000000" font-family="sans-serif" font-size="13" lengthAdjust="spacing" textLength="28" x="2118" y="540.4951">uses</text><text fill="#000000" font-family="sans-serif" font-size="13" lengthAdjust="spacing" textLength="7" x="2003.1241" y="654.2193">1</text><text fill="#000000" font-family="sans-serif" font-size="13" lengthAdjust="spacing" textLength="7" x="2158.8629" y="494.8078">1</text><!--MD5=[a11230341c8e65219708844feaa40162]
link Company to ClientStore--><path codeLine="224" d="M1925.11,664.89 C1908,628.34 1882.68,583.75 1850,552 C1826.9,529.56 1811.73,537.37 1786,518 C1770.37,506.23 1755.02,491.01 1742.54,477.4 " fill="none" id="Company-to-ClientStore" style="stroke:#A80036;stroke-width:1.0;"/><polygon fill="#A80036" points="1739.1,473.61,1742.1674,482.969,1742.4527,477.3194,1748.1024,477.6047,1739.1,473.61" style="stroke:#A80036;stroke-width:1.0;"/><text fill="#000000" font-family="sans-serif" font-size="13" lengthAdjust="spacing" textLength="28" x="1840" y="540.4951">uses</text><text fill="#000000" font-family="sans-serif" font-size="13" lengthAdjust="spacing" textLength="7" x="1914.8955" y="654.3524">1</text><text fill="#000000" font-family="sans-serif" font-size="13" lengthAdjust="spacing" textLength="7" x="1736.3525" y="494.8557">1</text><!--MD5=[7f6cf7f175eae0af66201860de5de971]
link Company to TestStore--><path codeLine="225" d="M2035.04,717.08 C2156.99,696.21 2386.9,645.99 2556,544 C2576.18,531.83 2595.26,514.7 2611.23,498.03 " fill="none" id="Company-to-TestStore" style="stroke:#A80036;stroke-width:1.0;"/><polygon fill="#A80036" points="2614.8,494.25,2605.711,498.0435,2611.3656,497.8839,2611.5252,503.5385,2614.8,494.25" style="stroke:#A80036;stroke-width:1.0;"/><text fill="#000000" font-family="sans-serif" font-size="13" lengthAdjust="spacing" textLength="28" x="2582" y="540.4951">uses</text><text fill="#000000" font-family="sans-serif" font-size="13" lengthAdjust="spacing" textLength="7" x="2043.1101" y="712.6159">1</text><text fill="#000000" font-family="sans-serif" font-size="13" lengthAdjust="spacing" textLength="7" x="2601.7934" y="515.7745">1</text><!--MD5=[f379172a0573607dd0ae1a4ea50b9294]
link Company to ClinicalAnalysisLaboratoryStore--><path codeLine="226" d="M2035.4,676.91 C2129.36,618.37 2278.34,525.54 2357.12,476.45 " fill="none" id="Company-to-ClinicalAnalysisLaboratoryStore" style="stroke:#A80036;stroke-width:1.0;"/><polygon fill="#A80036" points="2361.75,473.57,2351.9959,474.9332,2357.506,476.2136,2356.2257,481.7236,2361.75,473.57" style="stroke:#A80036;stroke-width:1.0;"/><text fill="#000000" font-family="sans-serif" font-size="13" lengthAdjust="spacing" textLength="28" x="2275" y="540.4951">uses</text><text fill="#000000" font-family="sans-serif" font-size="13" lengthAdjust="spacing" textLength="7" x="2042.9539" y="669.1267">1</text><text fill="#000000" font-family="sans-serif" font-size="13" lengthAdjust="spacing" textLength="7" x="2344.5617" y="494.8078">1</text><!--MD5=[b0f4f6db8206580012ef9cd998ed01c5]
link TestStore to Test--><path codeLine="227" d="M2582.46,494.18 C2566.13,503.45 2548.46,512.06 2531,518 C2525.2,519.97 2318.11,543.59 2312,544 C2299.19,544.87 1860.6,544.76 1850,552 C1812.34,577.71 1794.08,626.66 1785.24,666.65 " fill="none" id="TestStore-to-Test" style="stroke:#A80036;stroke-width:1.0;"/><polygon fill="#A80036" points="1784.11,671.98,1789.9006,664.0133,1785.1537,667.0902,1782.0769,662.3433,1784.11,671.98" style="stroke:#A80036;stroke-width:1.0;"/><text fill="#000000" font-family="sans-serif" font-size="13" lengthAdjust="spacing" textLength="72" x="2466" y="540.4951">registers the</text><text fill="#000000" font-family="sans-serif" font-size="13" lengthAdjust="spacing" textLength="7" x="2565.1078" y="515.6951">1</text><text fill="#000000" font-family="sans-serif" font-size="13" lengthAdjust="spacing" textLength="5" x="1779.7007" y="660.9633">*</text><!--MD5=[a0992dda039fed1bb57aff5aacace800]
link ParameterStore to Parameter--><path codeLine="228" d="M1987.32,473.53 C1973.54,489.96 1954.17,508.81 1932,518 C1908.13,527.9 1492.72,523.55 1467,526 C1400.08,532.38 1370,509.4 1318,552 C1289.6,575.27 1272.86,611.74 1263,645.59 " fill="none" id="ParameterStore-to-Parameter" style="stroke:#A80036;stroke-width:1.0;"/><polygon fill="#A80036" points="1261.6,650.57,1267.8919,642.9929,1262.9566,645.7576,1260.192,640.8223,1261.6,650.57" style="stroke:#A80036;stroke-width:1.0;"/><text fill="#000000" font-family="sans-serif" font-size="13" lengthAdjust="spacing" textLength="37" x="1468" y="540.4951">knows</text><text fill="#000000" font-family="sans-serif" font-size="13" lengthAdjust="spacing" textLength="7" x="1975.3627" y="494.7599">1</text><text fill="#000000" font-family="sans-serif" font-size="13" lengthAdjust="spacing" textLength="5" x="1257.4995" y="640.2634">*</text><!--MD5=[3eebf0e5f359806b77b30e9524c37676]
link TestTypeStore to TestType--><path codeLine="229" d="M1838.77,473.51 C1825.83,489.93 1807.46,508.78 1786,518 C1760.32,529.03 1310.71,522.33 1283,526 C1236.19,532.19 1217.93,523.89 1180,552 C1152.03,572.73 1129.92,603.14 1113.24,632.95 " fill="none" id="TestTypeStore-to-TestType" style="stroke:#A80036;stroke-width:1.0;"/><polygon fill="#A80036" points="1110.81,637.34,1118.6626,631.3955,1113.2273,632.9632,1111.6596,627.5279,1110.81,637.34" style="stroke:#A80036;stroke-width:1.0;"/><text fill="#000000" font-family="sans-serif" font-size="13" lengthAdjust="spacing" textLength="37" x="1284" y="540.4951">knows</text><text fill="#000000" font-family="sans-serif" font-size="13" lengthAdjust="spacing" textLength="7" x="1827.0982" y="494.736">1</text><text fill="#000000" font-family="sans-serif" font-size="13" lengthAdjust="spacing" textLength="5" x="1108.6238" y="626.7736">*</text><!--MD5=[d6274e3b73b5bc8f467c6cfbf5bf003e]
link ParameterCategoryStore to ParameterCategory--><path codeLine="230" d="M2157.4,473.68 C2138.51,490.16 2112.82,509.01 2086,518 C2059.71,526.81 1614.45,522.09 1587,526 C1576.17,527.54 1500.43,545.02 1492,552 C1454.54,582.98 1431.9,634.02 1419.15,673.43 " fill="none" id="ParameterCategoryStore-to-ParameterCategory" style="stroke:#A80036;stroke-width:1.0;"/><polygon fill="#A80036" points="1417.49,678.67,1424.0251,671.3016,1419.0025,673.9042,1416.3999,668.8817,1417.49,678.67" style="stroke:#A80036;stroke-width:1.0;"/><text fill="#000000" font-family="sans-serif" font-size="13" lengthAdjust="spacing" textLength="37" x="1588" y="540.4951">knows</text><text fill="#000000" font-family="sans-serif" font-size="13" lengthAdjust="spacing" textLength="7" x="2143.6866" y="494.9394">1</text><text fill="#000000" font-family="sans-serif" font-size="13" lengthAdjust="spacing" textLength="5" x="1413.8324" y="668.126">*</text><!--MD5=[1d934105a045dbf126514c6917bd5072]
link ClientStore to Client--><path codeLine="231" d="M1659.38,444.95 C1506.28,449.98 1076.96,471.16 966,552 C951.42,562.62 939.16,576.36 928.88,591.5 " fill="none" id="ClientStore-to-Client" style="stroke:#A80036;stroke-width:1.0;"/><polygon fill="#A80036" points="926.04,595.8,934.3396,590.4974,928.797,591.6288,927.6656,586.0862,926.04,595.8" style="stroke:#A80036;stroke-width:1.0;"/><text fill="#000000" font-family="sans-serif" font-size="13" lengthAdjust="spacing" textLength="37" x="1008" y="540.4951">knows</text><text fill="#000000" font-family="sans-serif" font-size="13" lengthAdjust="spacing" textLength="7" x="1644.5701" y="441.734">1</text><text fill="#000000" font-family="sans-serif" font-size="13" lengthAdjust="spacing" textLength="5" x="923.615" y="585.0446">*</text><!--MD5=[2dad08ae384f93453eb1ba4eb26732f1]
link ClinicalAnalysisLaboratoryStore to ClinicalAnalysisLaboratory--><path codeLine="232" d="M2373.38,473.55 C2350.82,490.11 2320.47,509.06 2290,518 C2232.52,534.85 1808.81,510.33 1751,526 C1682.25,544.63 1639.43,620.43 1617.14,674.05 " fill="none" id="ClinicalAnalysisLaboratoryStore-to-ClinicalAnalysisLaboratory" style="stroke:#A80036;stroke-width:1.0;"/><polygon fill="#A80036" points="1615.18,678.85,1622.28,672.0244,1617.0665,674.2195,1614.8713,669.006,1615.18,678.85" style="stroke:#A80036;stroke-width:1.0;"/><text fill="#000000" font-family="sans-serif" font-size="13" lengthAdjust="spacing" textLength="37" x="1752" y="540.4951">knows</text><text fill="#000000" font-family="sans-serif" font-size="13" lengthAdjust="spacing" textLength="7" x="2358.4814" y="494.7838">1</text><text fill="#000000" font-family="sans-serif" font-size="13" lengthAdjust="spacing" textLength="5" x="1612.2444" y="667.9574">*</text><!--MD5=[6fae739e602c200e38296b177112d1a9]
@startuml


package mappers{
class TestTypeMapper
class ParameterMapper
class ParameterCategoryMapper
class ClinicalAnalysisLaboratoryMapper
}

package dto{
class TestTypeDTO
class ParameterDTO
class ParameterCategoryDTO
class ClinicalAnalysisLaboratoryDTO
}

package model{
class Company
class Client
class TestType
class Parameter
class ParameterCategory
class Test
class ClinicalAnalysisLaboratory
}

package store{
class TestStore
class TestTypeStore
class ParameterStore
class ParameterCategoryStore
class ClinicalAnalysisLaboratoryStore
class ClientStore
}

package controller{
class RegisterTestController
}

package ui{
class RegisterTestUI
}

class ClinicalAnalysisLaboratoryMapper{
+toDTO(CAL)
}

class ClinicalAnalysisLaboratory{
-laboratoryId
-listOfTestTypes
+getLaboratoryId()
+getListOfTestTypes()
}

class ClinicalAnalysisLaboratoryStore{
+ClinicalAnalysisLaboratoryList()
}

class TestTypeStore{
+getTestTypeList()
}

class TestType{
-code
-description
-collectingMethod
-listOfParameterCategories
-referenceAdapter
+getCode()
+getReferenceAdapter()
+getDescription()
+getCollectingMethod()
+getListOfParameterCategories()
}

class TestTypeMapper{
+toDTO(TTS)
}

class TestTypeDTO{

}

class ParameterCategoryStore {
+getParameterCategoryList()
}

class ParameterCategory {
-name
-code
+getName()
+getCode()
}

class ParameterCategoryMapper{
+toDTO(PMC)
}

class ParameterCategoryDTO{

}

class ClientStore{
+getClientbytin(tin)
}

class Client{
-citizencardnumber
  -nhs
  -date
  -sex
  -tin
  -phonenumber
  -email
  -name
  +getCitizencardnumber()
  +getNhs()
  +getDate()
  +getSex()
  +getTin()
  +getPhonenumber()
  +getEmail()
  +getName()
}

class Test{
-client
-nhscode
-testParameterList
-stateOfTest
-internalCode
}

class TestStore{
-generateInternalCode(t)
+create(tin,nhscode,tt,TPM,internalcode)
+validateTest(t)
+addTest(t)
}

class ParameterStore {
+getParameterList()
}

class Parameter {
-code
-shortName
-description
-category
+getCode()
+getShortName()
+getDescription()
+getCategory()
}

class ParameterMapper{
+toDTO(PM)
}

class ParameterDTO{

}

class Company {
-String designation
+getTestStore()
+getClientStore()
+getParameterStore()
+getParameterCategoryStore()
+getTestTypeStore()
}

class RegisterTestController {
+getClient(tin)
+getTestTypeList()
+getParameterCategoryList()
+getParameterList()
+createTest(cl,nhscode,tt,TPM)
+saveTest()
}

class RegisterTestUI {

}

RegisterTestUI ..> RegisterTestController
RegisterTestController ...> Company
RegisterTestController ...> Client
RegisterTestController ...> Parameter
RegisterTestController ...> TestType
RegisterTestController ...> ParameterCategory
RegisterTestController ...> Client
RegisterTestController ...> Test
RegisterTestController ...> ClinicalAnalysisLaboratory
RegisterTestController ..> ParameterStore
RegisterTestController ..> TestTypeStore
RegisterTestController ..> ParameterCategoryStore
RegisterTestController ..> ClientStore
RegisterTestController ..> TestStore
RegisterTestController ..> ClinicalAnalysisLaboratoryStore
RegisterTestController .> ParameterMapper
RegisterTestController .> TestTypeMapper
RegisterTestController .> ParameterCategoryMapper
RegisterTestController .> ClinicalAnalysisLaboratoryMapper
RegisterTestController ..> ParameterDTO
RegisterTestController ..> TestTypeDTO
RegisterTestController ..> ParameterCategoryDTO
RegisterTestController ..> ClinicalAnalysisLaboratoryDTO
RegisterTestUI ...> TestTypeDTO
RegisterTestUI ...> ParameterDTO
RegisterTestUI ...> ParameterCategoryDTO
RegisterTestUI ...> ClinicalAnalysisLaboratoryDTO
ParameterMapper ...> ParameterDTO
TestTypeMapper ...> TestTypeDTO
ParameterCategoryMapper ...> ParameterCategoryDTO
ClinicalAnalysisLaboratoryMapper ...> ClinicalAnalysisLaboratoryDTO
ParameterMapper ..> Parameter
TestTypeMapper ..> TestType
ParameterCategoryMapper ..> ParameterCategory
ClinicalAnalysisLaboratoryMapper ..> ClinicalAnalysisLaboratory
Company "1" - - -> "1" ParameterStore :uses
Company "1" - - -> "1" TestTypeStore :uses
Company "1" - - -> "1" ParameterCategoryStore :uses
Company "1" - - -> "1" ClientStore :uses
Company "1" - - -> "1" TestStore :uses
Company "1" - - -> "1" ClinicalAnalysisLaboratoryStore :uses
TestStore "1" - -> "*" Test : registers the
ParameterStore "1" - -> "*" Parameter :knows
TestTypeStore "1" - -> "*" TestType :knows
ParameterCategoryStore "1" - -> "*" ParameterCategory :knows
ClientStore "1" - -> "*" Client :knows
ClinicalAnalysisLaboratoryStore "1" - -> "*" ClinicalAnalysisLaboratory :knows



@enduml

PlantUML version 1.2021.5(Sun Apr 25 12:20:28 BST 2021)
(GPL source distribution)
Java Runtime: OpenJDK Runtime Environment
JVM: OpenJDK 64-Bit Server VM
Default Encoding: Cp1252
Language: pt
Country: PT
--></g></svg>