<?xml version="1.0" encoding="UTF-8" standalone="no"?><svg xmlns="http://www.w3.org/2000/svg" xmlns:xlink="http://www.w3.org/1999/xlink" contentScriptType="application/ecmascript" contentStyleType="text/css" height="1141px" preserveAspectRatio="none" style="width:1364px;height:1141px;" version="1.1" viewBox="0 0 1364 1141" width="1364px" zoomAndPan="magnify"><defs><filter height="300%" id="f1w3erbfdzoy22" width="300%" x="-1" y="-1"><feGaussianBlur result="blurOut" stdDeviation="2.0"/><feColorMatrix in="blurOut" result="blurOut2" type="matrix" values="0 0 0 0 0 0 0 0 0 0 0 0 0 0 0 0 0 0 .4 0"/><feOffset dx="4.0" dy="4.0" in="blurOut2" result="blurOut3"/><feBlend in="SourceGraphic" in2="blurOut3" mode="normal"/></filter></defs><g><!--MD5=[9681dc6e01e10c6b4fe06895ae94f592]
cluster UI--><polygon fill="#FFFFFF" filter="url(#f1w3erbfdzoy22)" points="1062,6,1082,6,1089,29.6094,1246,29.6094,1246,106,1062,106,1062,6" style="stroke:#000000;stroke-width:1.5;"/><line style="stroke:#000000;stroke-width:1.5;" x1="1062" x2="1089" y1="29.6094" y2="29.6094"/><text fill="#000000" font-family="sans-serif" font-size="14" font-weight="bold" lengthAdjust="spacing" textLength="14" x="1066" y="22.5332">UI</text><!--MD5=[1f2cfc53d9d308f53762fd0fcbaa4873]
cluster Controller--><polygon fill="#FFFFFF" filter="url(#f1w3erbfdzoy22)" points="602,139,679,139,686,162.6094,832,162.6094,832,281,602,281,602,139" style="stroke:#000000;stroke-width:1.5;"/><line style="stroke:#000000;stroke-width:1.5;" x1="602" x2="686" y1="162.6094" y2="162.6094"/><text fill="#000000" font-family="sans-serif" font-size="14" font-weight="bold" lengthAdjust="spacing" textLength="71" x="606" y="155.5332">Controller</text><!--MD5=[15636c1ca4a123c16a2a1a8e90aca7a9]
cluster Model--><polygon fill="#FFFFFF" filter="url(#f1w3erbfdzoy22)" points="266,496,316,496,323,519.6094,609,519.6094,609,1134,266,1134,266,496" style="stroke:#000000;stroke-width:1.5;"/><line style="stroke:#000000;stroke-width:1.5;" x1="266" x2="323" y1="519.6094" y2="519.6094"/><text fill="#000000" font-family="sans-serif" font-size="14" font-weight="bold" lengthAdjust="spacing" textLength="44" x="270" y="512.5332">Model</text><!--MD5=[7ce1723ddb6e6233854253973eae5a71]
cluster Store--><polygon fill="#FFFFFF" filter="url(#f1w3erbfdzoy22)" points="16,776.5,60,776.5,67,800.1094,242,800.1094,242,904.5,16,904.5,16,776.5" style="stroke:#000000;stroke-width:1.5;"/><line style="stroke:#000000;stroke-width:1.5;" x1="16" x2="67" y1="800.1094" y2="800.1094"/><text fill="#000000" font-family="sans-serif" font-size="14" font-weight="bold" lengthAdjust="spacing" textLength="38" x="20" y="793.0332">Store</text><!--MD5=[701152d03fbf85133a1de050cfdbc7fd]
cluster Mappers--><polygon fill="#FFFFFF" filter="url(#f1w3erbfdzoy22)" points="652,314,720,314,727,337.6094,972,337.6094,972,442,652,442,652,314" style="stroke:#000000;stroke-width:1.5;"/><line style="stroke:#000000;stroke-width:1.5;" x1="652" x2="727" y1="337.6094" y2="337.6094"/><text fill="#000000" font-family="sans-serif" font-size="14" font-weight="bold" lengthAdjust="spacing" textLength="62" x="656" y="330.5332">Mappers</text><!--MD5=[7b8bc9ee8bb84b99fb3a3f9477c19238]
cluster DTO--><polygon fill="#FFFFFF" filter="url(#f1w3erbfdzoy22)" points="797,475,832,475,839,498.6094,1347,498.6094,1347,700,797,700,797,475" style="stroke:#000000;stroke-width:1.5;"/><line style="stroke:#000000;stroke-width:1.5;" x1="797" x2="839" y1="498.6094" y2="498.6094"/><text fill="#000000" font-family="sans-serif" font-size="14" font-weight="bold" lengthAdjust="spacing" textLength="29" x="801" y="491.5332">DTO</text><!--MD5=[e4ec2e7ae8016ed7f2a23175278300b9]
class WriteMedicalReportUI--><rect codeLine="3" fill="#FEFECE" filter="url(#f1w3erbfdzoy22)" height="48" id="WriteMedicalReportUI" style="stroke:#A80036;stroke-width:1.5;" width="151" x="1078.5" y="42"/><ellipse cx="1093.5" cy="58" fill="#ADD1B2" rx="11" ry="11" style="stroke:#A80036;stroke-width:1.0;"/><path d="M1095.5,54.5 Q1095.7031,54 1095.9375,53.75 Q1096.1719,53.5 1096.4375,53.5 Q1096.9063,53.5 1097.2031,53.7813 Q1097.5,54.0625 1097.5,54.7188 L1097.5,56.2813 Q1097.5,56.9375 1097.2188,57.2188 Q1096.9375,57.5 1096.5,57.5 Q1096.1094,57.5 1095.8594,57.3281 Q1095.6094,57.1563 1095.5,56.7031 Q1095.4531,56.3906 1095.2813,56.2188 Q1094.9688,55.8906 1094.4063,55.7031 Q1093.8438,55.5 1093.2813,55.5 Q1092.5781,55.5 1091.9844,55.7813 Q1091.4063,56.0625 1090.9531,56.6875 Q1090.5,57.3125 1090.5,58.1719 L1090.5,59.0938 Q1090.5,60.125 1091.3438,60.8125 Q1092.1875,61.5 1093.6875,61.5 Q1094.5781,61.5 1095.2031,61.2969 Q1095.5625,61.1875 1095.9688,60.8281 Q1096.2344,60.625 1096.375,60.5625 Q1096.5156,60.5 1096.6875,60.5 Q1097.0156,60.5 1097.25,60.7656 Q1097.5,61.0156 1097.5,61.375 Q1097.5,61.7188 1097.1563,62.125 Q1096.6563,62.7188 1095.8594,63.0469 Q1094.8125,63.5 1093.5313,63.5 Q1092.0313,63.5 1090.8281,62.9063 Q1089.8594,62.4375 1089.1719,61.4219 Q1088.5,60.4063 1088.5,59.2031 L1088.5,58.1094 Q1088.5,56.8594 1089.0938,55.7656 Q1089.7031,54.6719 1090.75,54.0938 Q1091.8125,53.5 1093,53.5 Q1093.7188,53.5 1094.3438,53.75 Q1094.9688,54 1095.5,54.5 Z " fill="#000000"/><text fill="#000000" font-family="sans-serif" font-size="12" lengthAdjust="spacing" textLength="119" x="1107.5" y="62.9102">WriteMedicalReportUI</text><line style="stroke:#A80036;stroke-width:1.5;" x1="1079.5" x2="1228.5" y1="74" y2="74"/><line style="stroke:#A80036;stroke-width:1.5;" x1="1079.5" x2="1228.5" y1="82" y2="82"/><!--MD5=[4304a37fa14ad02974e6bd4bd1961bd7]
class WriteMedicalReportController--><rect codeLine="8" fill="#FEFECE" filter="url(#f1w3erbfdzoy22)" height="89.5078" id="WriteMedicalReportController" style="stroke:#A80036;stroke-width:1.5;" width="198" x="618" y="175"/><ellipse cx="635.25" cy="191" fill="#ADD1B2" rx="11" ry="11" style="stroke:#A80036;stroke-width:1.0;"/><path d="M637.25,187.5 Q637.4531,187 637.6875,186.75 Q637.9219,186.5 638.1875,186.5 Q638.6563,186.5 638.9531,186.7813 Q639.25,187.0625 639.25,187.7188 L639.25,189.2813 Q639.25,189.9375 638.9688,190.2188 Q638.6875,190.5 638.25,190.5 Q637.8594,190.5 637.6094,190.3281 Q637.3594,190.1563 637.25,189.7031 Q637.2031,189.3906 637.0313,189.2188 Q636.7188,188.8906 636.1563,188.7031 Q635.5938,188.5 635.0313,188.5 Q634.3281,188.5 633.7344,188.7813 Q633.1563,189.0625 632.7031,189.6875 Q632.25,190.3125 632.25,191.1719 L632.25,192.0938 Q632.25,193.125 633.0938,193.8125 Q633.9375,194.5 635.4375,194.5 Q636.3281,194.5 636.9531,194.2969 Q637.3125,194.1875 637.7188,193.8281 Q637.9844,193.625 638.125,193.5625 Q638.2656,193.5 638.4375,193.5 Q638.7656,193.5 639,193.7656 Q639.25,194.0156 639.25,194.375 Q639.25,194.7188 638.9063,195.125 Q638.4063,195.7188 637.6094,196.0469 Q636.5625,196.5 635.2813,196.5 Q633.7813,196.5 632.5781,195.9063 Q631.6094,195.4375 630.9219,194.4219 Q630.25,193.4063 630.25,192.2031 L630.25,191.1094 Q630.25,189.8594 630.8438,188.7656 Q631.4531,187.6719 632.5,187.0938 Q633.5625,186.5 634.75,186.5 Q635.4688,186.5 636.0938,186.75 Q636.7188,187 637.25,187.5 Z " fill="#000000"/><text fill="#000000" font-family="sans-serif" font-size="12" lengthAdjust="spacing" textLength="161" x="649.75" y="195.9102">WriteMedicalReportController</text><line style="stroke:#A80036;stroke-width:1.5;" x1="619" x2="815" y1="207" y2="207"/><line style="stroke:#A80036;stroke-width:1.5;" x1="619" x2="815" y1="215" y2="215"/><ellipse cx="629" cy="226" fill="#84BE84" rx="3" ry="3" style="stroke:#038048;stroke-width:1.0;"/><text fill="#000000" font-family="sans-serif" font-size="11" lengthAdjust="spacing" textLength="167" x="638" y="230.4189">getTestHasSamplesAnalyzedList()</text><ellipse cx="629" cy="239.8359" fill="#84BE84" rx="3" ry="3" style="stroke:#038048;stroke-width:1.0;"/><text fill="#000000" font-family="sans-serif" font-size="11" lengthAdjust="spacing" textLength="172" x="638" y="244.2549">getTestParameterList(selectedTest)</text><ellipse cx="629" cy="253.6719" fill="#84BE84" rx="3" ry="3" style="stroke:#038048;stroke-width:1.0;"/><text fill="#000000" font-family="sans-serif" font-size="11" lengthAdjust="spacing" textLength="140" x="638" y="258.0908">addMedicalReport(diagnosis)</text><!--MD5=[02e4b9b7573f1156f41e60aa5b4e25a4]
class Company--><rect codeLine="16" fill="#FEFECE" filter="url(#f1w3erbfdzoy22)" height="75.6719" id="Company" style="stroke:#A80036;stroke-width:1.5;" width="112" x="282" y="559.5"/><ellipse cx="309.15" cy="575.5" fill="#ADD1B2" rx="11" ry="11" style="stroke:#A80036;stroke-width:1.0;"/><path d="M311.15,572 Q311.3531,571.5 311.5875,571.25 Q311.8219,571 312.0875,571 Q312.5563,571 312.8531,571.2813 Q313.15,571.5625 313.15,572.2188 L313.15,573.7813 Q313.15,574.4375 312.8688,574.7188 Q312.5875,575 312.15,575 Q311.7594,575 311.5094,574.8281 Q311.2594,574.6563 311.15,574.2031 Q311.1031,573.8906 310.9313,573.7188 Q310.6188,573.3906 310.0563,573.2031 Q309.4938,573 308.9313,573 Q308.2281,573 307.6344,573.2813 Q307.0563,573.5625 306.6031,574.1875 Q306.15,574.8125 306.15,575.6719 L306.15,576.5938 Q306.15,577.625 306.9938,578.3125 Q307.8375,579 309.3375,579 Q310.2281,579 310.8531,578.7969 Q311.2125,578.6875 311.6188,578.3281 Q311.8844,578.125 312.025,578.0625 Q312.1656,578 312.3375,578 Q312.6656,578 312.9,578.2656 Q313.15,578.5156 313.15,578.875 Q313.15,579.2188 312.8063,579.625 Q312.3063,580.2188 311.5094,580.5469 Q310.4625,581 309.1813,581 Q307.6813,581 306.4781,580.4063 Q305.5094,579.9375 304.8219,578.9219 Q304.15,577.9063 304.15,576.7031 L304.15,575.6094 Q304.15,574.3594 304.7438,573.2656 Q305.3531,572.1719 306.4,571.5938 Q307.4625,571 308.65,571 Q309.3688,571 309.9938,571.25 Q310.6188,571.5 311.15,572 Z " fill="#000000"/><text fill="#000000" font-family="sans-serif" font-size="12" lengthAdjust="spacing" textLength="53" x="325.85" y="580.4102">Company</text><line style="stroke:#A80036;stroke-width:1.5;" x1="283" x2="393" y1="591.5" y2="591.5"/><rect fill="none" height="6" style="stroke:#C82930;stroke-width:1.0;" width="6" x="290" y="599.5"/><text fill="#000000" font-family="sans-serif" font-size="11" lengthAdjust="spacing" textLength="86" x="302" y="606.9189">String designation</text><line style="stroke:#A80036;stroke-width:1.5;" x1="283" x2="393" y1="613.3359" y2="613.3359"/><ellipse cx="293" cy="624.3359" fill="#84BE84" rx="3" ry="3" style="stroke:#038048;stroke-width:1.0;"/><text fill="#000000" font-family="sans-serif" font-size="11" lengthAdjust="spacing" textLength="70" x="302" y="628.7549">getTestStore()</text><!--MD5=[df38be88ccee13e832d6fafd6288a4ca]
class Test--><rect codeLine="21" fill="#FEFECE" filter="url(#f1w3erbfdzoy22)" height="172.5234" id="Test" style="stroke:#A80036;stroke-width:1.5;" width="177" x="394.5" y="764"/><ellipse cx="466.75" cy="780" fill="#ADD1B2" rx="11" ry="11" style="stroke:#A80036;stroke-width:1.0;"/><path d="M468.75,776.5 Q468.9531,776 469.1875,775.75 Q469.4219,775.5 469.6875,775.5 Q470.1563,775.5 470.4531,775.7813 Q470.75,776.0625 470.75,776.7188 L470.75,778.2813 Q470.75,778.9375 470.4688,779.2188 Q470.1875,779.5 469.75,779.5 Q469.3594,779.5 469.1094,779.3281 Q468.8594,779.1563 468.75,778.7031 Q468.7031,778.3906 468.5313,778.2188 Q468.2188,777.8906 467.6563,777.7031 Q467.0938,777.5 466.5313,777.5 Q465.8281,777.5 465.2344,777.7813 Q464.6563,778.0625 464.2031,778.6875 Q463.75,779.3125 463.75,780.1719 L463.75,781.0938 Q463.75,782.125 464.5938,782.8125 Q465.4375,783.5 466.9375,783.5 Q467.8281,783.5 468.4531,783.2969 Q468.8125,783.1875 469.2188,782.8281 Q469.4844,782.625 469.625,782.5625 Q469.7656,782.5 469.9375,782.5 Q470.2656,782.5 470.5,782.7656 Q470.75,783.0156 470.75,783.375 Q470.75,783.7188 470.4063,784.125 Q469.9063,784.7188 469.1094,785.0469 Q468.0625,785.5 466.7813,785.5 Q465.2813,785.5 464.0781,784.9063 Q463.1094,784.4375 462.4219,783.4219 Q461.75,782.4063 461.75,781.2031 L461.75,780.1094 Q461.75,778.8594 462.3438,777.7656 Q462.9531,776.6719 464,776.0938 Q465.0625,775.5 466.25,775.5 Q466.9688,775.5 467.5938,775.75 Q468.2188,776 468.75,776.5 Z " fill="#000000"/><text fill="#000000" font-family="sans-serif" font-size="12" lengthAdjust="spacing" textLength="24" x="487.25" y="784.9102">Test</text><line style="stroke:#A80036;stroke-width:1.5;" x1="395.5" x2="570.5" y1="796" y2="796"/><rect fill="none" height="6" style="stroke:#C82930;stroke-width:1.0;" width="6" x="402.5" y="804"/><text fill="#000000" font-family="sans-serif" font-size="11" lengthAdjust="spacing" textLength="91" x="414.5" y="811.4189">String internalCode</text><rect fill="none" height="6" style="stroke:#C82930;stroke-width:1.0;" width="6" x="402.5" y="817.8359"/><text fill="#000000" font-family="sans-serif" font-size="11" lengthAdjust="spacing" textLength="74" x="414.5" y="825.2549">String nhsCode</text><rect fill="none" height="6" style="stroke:#C82930;stroke-width:1.0;" width="6" x="402.5" y="831.6719"/><text fill="#000000" font-family="sans-serif" font-size="11" lengthAdjust="spacing" textLength="84" x="414.5" y="839.0908">String description</text><line style="stroke:#A80036;stroke-width:1.5;" x1="395.5" x2="570.5" y1="845.5078" y2="845.5078"/><ellipse cx="405.5" cy="856.5078" fill="#84BE84" rx="3" ry="3" style="stroke:#038048;stroke-width:1.0;"/><text fill="#000000" font-family="sans-serif" font-size="11" lengthAdjust="spacing" textLength="110" x="414.5" y="860.9268">getTestParameterList()</text><ellipse cx="405.5" cy="870.3438" fill="#84BE84" rx="3" ry="3" style="stroke:#038048;stroke-width:1.0;"/><text fill="#000000" font-family="sans-serif" font-size="11" lengthAdjust="spacing" textLength="77" x="414.5" y="874.7627">getDescription()</text><ellipse cx="405.5" cy="884.1797" fill="#84BE84" rx="3" ry="3" style="stroke:#038048;stroke-width:1.0;"/><text fill="#000000" font-family="sans-serif" font-size="11" lengthAdjust="spacing" textLength="83" x="414.5" y="888.5986">getInternalCode()</text><ellipse cx="405.5" cy="898.0156" fill="#84BE84" rx="3" ry="3" style="stroke:#038048;stroke-width:1.0;"/><text fill="#000000" font-family="sans-serif" font-size="11" lengthAdjust="spacing" textLength="140" x="414.5" y="902.4346">addMedicalReport(diagnosis)</text><ellipse cx="405.5" cy="911.8516" fill="#84BE84" rx="3" ry="3" style="stroke:#038048;stroke-width:1.0;"/><text fill="#000000" font-family="sans-serif" font-size="11" lengthAdjust="spacing" textLength="113" x="414.5" y="916.2705">validateMedicalReport()</text><rect fill="#F24D5C" height="6" style="stroke:#C82930;stroke-width:1.0;" width="6" x="402.5" y="922.6875"/><text fill="#000000" font-family="sans-serif" font-size="11" lengthAdjust="spacing" textLength="151" x="414.5" y="930.1064">updateStateToDiagnosisMade()</text><!--MD5=[b2d1f399f1909a0bb241ed0598ba126f]
class MedicalReport--><rect codeLine="33" fill="#FEFECE" filter="url(#f1w3erbfdzoy22)" height="103.3438" id="MedicalReport" style="stroke:#A80036;stroke-width:1.5;" width="148" x="409" y="1015"/><ellipse cx="440.65" cy="1031" fill="#ADD1B2" rx="11" ry="11" style="stroke:#A80036;stroke-width:1.0;"/><path d="M442.65,1027.5 Q442.8531,1027 443.0875,1026.75 Q443.3219,1026.5 443.5875,1026.5 Q444.0563,1026.5 444.3531,1026.7813 Q444.65,1027.0625 444.65,1027.7188 L444.65,1029.2813 Q444.65,1029.9375 444.3688,1030.2188 Q444.0875,1030.5 443.65,1030.5 Q443.2594,1030.5 443.0094,1030.3281 Q442.7594,1030.1563 442.65,1029.7031 Q442.6031,1029.3906 442.4313,1029.2188 Q442.1188,1028.8906 441.5563,1028.7031 Q440.9938,1028.5 440.4313,1028.5 Q439.7281,1028.5 439.1344,1028.7813 Q438.5563,1029.0625 438.1031,1029.6875 Q437.65,1030.3125 437.65,1031.1719 L437.65,1032.0938 Q437.65,1033.125 438.4938,1033.8125 Q439.3375,1034.5 440.8375,1034.5 Q441.7281,1034.5 442.3531,1034.2969 Q442.7125,1034.1875 443.1188,1033.8281 Q443.3844,1033.625 443.525,1033.5625 Q443.6656,1033.5 443.8375,1033.5 Q444.1656,1033.5 444.4,1033.7656 Q444.65,1034.0156 444.65,1034.375 Q444.65,1034.7188 444.3063,1035.125 Q443.8063,1035.7188 443.0094,1036.0469 Q441.9625,1036.5 440.6813,1036.5 Q439.1813,1036.5 437.9781,1035.9063 Q437.0094,1035.4375 436.3219,1034.4219 Q435.65,1033.4063 435.65,1032.2031 L435.65,1031.1094 Q435.65,1029.8594 436.2438,1028.7656 Q436.8531,1027.6719 437.9,1027.0938 Q438.9625,1026.5 440.15,1026.5 Q440.8688,1026.5 441.4938,1026.75 Q442.1188,1027 442.65,1027.5 Z " fill="#000000"/><text fill="#000000" font-family="sans-serif" font-size="12" lengthAdjust="spacing" textLength="79" x="458.35" y="1035.9102">MedicalReport</text><line style="stroke:#A80036;stroke-width:1.5;" x1="410" x2="556" y1="1047" y2="1047"/><rect fill="none" height="6" style="stroke:#C82930;stroke-width:1.0;" width="6" x="417" y="1055"/><text fill="#000000" font-family="sans-serif" font-size="11" lengthAdjust="spacing" textLength="77" x="429" y="1062.4189">String diagnosis</text><rect fill="none" height="6" style="stroke:#C82930;stroke-width:1.0;" width="6" x="417" y="1068.8359"/><text fill="#000000" font-family="sans-serif" font-size="11" lengthAdjust="spacing" textLength="73" x="429" y="1076.2549">Date createdAt</text><line style="stroke:#A80036;stroke-width:1.5;" x1="410" x2="556" y1="1082.6719" y2="1082.6719"/><ellipse cx="420" cy="1093.6719" fill="#84BE84" rx="3" ry="3" style="stroke:#038048;stroke-width:1.0;"/><text fill="#000000" font-family="sans-serif" font-size="11" lengthAdjust="spacing" textLength="122" x="429" y="1098.0908">MedicalReport(diagnosis)</text><ellipse cx="420" cy="1107.5078" fill="#84BE84" rx="3" ry="3" style="stroke:#038048;stroke-width:1.0;"/><text fill="#000000" font-family="sans-serif" font-size="11" lengthAdjust="spacing" textLength="88" x="429" y="1111.9268">addCreationDate()</text><!--MD5=[0f07739f46effee96e095e9c408da841]
class TestParameter--><rect codeLine="40" fill="#FEFECE" filter="url(#f1w3erbfdzoy22)" height="131.0156" id="TestParameter" style="stroke:#A80036;stroke-width:1.5;" width="163" x="429.5" y="532"/><ellipse cx="466.55" cy="548" fill="#ADD1B2" rx="11" ry="11" style="stroke:#A80036;stroke-width:1.0;"/><path d="M468.55,544.5 Q468.7531,544 468.9875,543.75 Q469.2219,543.5 469.4875,543.5 Q469.9563,543.5 470.2531,543.7813 Q470.55,544.0625 470.55,544.7188 L470.55,546.2813 Q470.55,546.9375 470.2688,547.2188 Q469.9875,547.5 469.55,547.5 Q469.1594,547.5 468.9094,547.3281 Q468.6594,547.1563 468.55,546.7031 Q468.5031,546.3906 468.3313,546.2188 Q468.0188,545.8906 467.4563,545.7031 Q466.8938,545.5 466.3313,545.5 Q465.6281,545.5 465.0344,545.7813 Q464.4563,546.0625 464.0031,546.6875 Q463.55,547.3125 463.55,548.1719 L463.55,549.0938 Q463.55,550.125 464.3938,550.8125 Q465.2375,551.5 466.7375,551.5 Q467.6281,551.5 468.2531,551.2969 Q468.6125,551.1875 469.0188,550.8281 Q469.2844,550.625 469.425,550.5625 Q469.5656,550.5 469.7375,550.5 Q470.0656,550.5 470.3,550.7656 Q470.55,551.0156 470.55,551.375 Q470.55,551.7188 470.2063,552.125 Q469.7063,552.7188 468.9094,553.0469 Q467.8625,553.5 466.5813,553.5 Q465.0813,553.5 463.8781,552.9063 Q462.9094,552.4375 462.2219,551.4219 Q461.55,550.4063 461.55,549.2031 L461.55,548.1094 Q461.55,546.8594 462.1438,545.7656 Q462.7531,544.6719 463.8,544.0938 Q464.8625,543.5 466.05,543.5 Q466.7688,543.5 467.3938,543.75 Q468.0188,544 468.55,544.5 Z " fill="#000000"/><text fill="#000000" font-family="sans-serif" font-size="12" lengthAdjust="spacing" textLength="82" x="485.45" y="552.9102">TestParameter</text><line style="stroke:#A80036;stroke-width:1.5;" x1="430.5" x2="591.5" y1="564" y2="564"/><line style="stroke:#A80036;stroke-width:1.5;" x1="430.5" x2="591.5" y1="572" y2="572"/><ellipse cx="440.5" cy="583" fill="#84BE84" rx="3" ry="3" style="stroke:#038048;stroke-width:1.0;"/><text fill="#000000" font-family="sans-serif" font-size="11" lengthAdjust="spacing" textLength="99" x="449.5" y="587.4189">getParameterName()</text><ellipse cx="440.5" cy="596.8359" fill="#84BE84" rx="3" ry="3" style="stroke:#038048;stroke-width:1.0;"/><text fill="#000000" font-family="sans-serif" font-size="11" lengthAdjust="spacing" textLength="102" x="449.5" y="601.2549">getParameterResult()</text><ellipse cx="440.5" cy="610.6719" fill="#84BE84" rx="3" ry="3" style="stroke:#038048;stroke-width:1.0;"/><text fill="#000000" font-family="sans-serif" font-size="11" lengthAdjust="spacing" textLength="101" x="449.5" y="615.0908">getParameterMetric()</text><ellipse cx="440.5" cy="624.5078" fill="#84BE84" rx="3" ry="3" style="stroke:#038048;stroke-width:1.0;"/><text fill="#000000" font-family="sans-serif" font-size="11" lengthAdjust="spacing" textLength="133" x="449.5" y="628.9268">getParameterMinRefValue()</text><ellipse cx="440.5" cy="638.3438" fill="#84BE84" rx="3" ry="3" style="stroke:#038048;stroke-width:1.0;"/><text fill="#000000" font-family="sans-serif" font-size="11" lengthAdjust="spacing" textLength="137" x="449.5" y="642.7627">getParameterMaxRefValue()</text><ellipse cx="440.5" cy="652.1797" fill="#84BE84" rx="3" ry="3" style="stroke:#038048;stroke-width:1.0;"/><text fill="#000000" font-family="sans-serif" font-size="11" lengthAdjust="spacing" textLength="97" x="449.5" y="656.5986">getRefValueMetric()</text><!--MD5=[0f6f7964b844a64b0496af0dda7914bd]
class TestStore--><rect codeLine="51" fill="#FEFECE" filter="url(#f1w3erbfdzoy22)" height="75.6719" id="TestStore" style="stroke:#A80036;stroke-width:1.5;" width="193" x="32.5" y="812.5"/><ellipse cx="98.25" cy="828.5" fill="#ADD1B2" rx="11" ry="11" style="stroke:#A80036;stroke-width:1.0;"/><path d="M100.25,825 Q100.4531,824.5 100.6875,824.25 Q100.9219,824 101.1875,824 Q101.6563,824 101.9531,824.2813 Q102.25,824.5625 102.25,825.2188 L102.25,826.7813 Q102.25,827.4375 101.9688,827.7188 Q101.6875,828 101.25,828 Q100.8594,828 100.6094,827.8281 Q100.3594,827.6563 100.25,827.2031 Q100.2031,826.8906 100.0313,826.7188 Q99.7188,826.3906 99.1563,826.2031 Q98.5938,826 98.0313,826 Q97.3281,826 96.7344,826.2813 Q96.1563,826.5625 95.7031,827.1875 Q95.25,827.8125 95.25,828.6719 L95.25,829.5938 Q95.25,830.625 96.0938,831.3125 Q96.9375,832 98.4375,832 Q99.3281,832 99.9531,831.7969 Q100.3125,831.6875 100.7188,831.3281 Q100.9844,831.125 101.125,831.0625 Q101.2656,831 101.4375,831 Q101.7656,831 102,831.2656 Q102.25,831.5156 102.25,831.875 Q102.25,832.2188 101.9063,832.625 Q101.4063,833.2188 100.6094,833.5469 Q99.5625,834 98.2813,834 Q96.7813,834 95.5781,833.4063 Q94.6094,832.9375 93.9219,831.9219 Q93.25,830.9063 93.25,829.7031 L93.25,828.6094 Q93.25,827.3594 93.8438,826.2656 Q94.4531,825.1719 95.5,824.5938 Q96.5625,824 97.75,824 Q98.4688,824 99.0938,824.25 Q99.7188,824.5 100.25,825 Z " fill="#000000"/><text fill="#000000" font-family="sans-serif" font-size="12" lengthAdjust="spacing" textLength="53" x="118.75" y="833.4102">TestStore</text><line style="stroke:#A80036;stroke-width:1.5;" x1="33.5" x2="224.5" y1="844.5" y2="844.5"/><line style="stroke:#A80036;stroke-width:1.5;" x1="33.5" x2="224.5" y1="852.5" y2="852.5"/><ellipse cx="43.5" cy="863.5" fill="#84BE84" rx="3" ry="3" style="stroke:#038048;stroke-width:1.0;"/><text fill="#000000" font-family="sans-serif" font-size="11" lengthAdjust="spacing" textLength="167" x="52.5" y="867.9189">getTestHasSamplesAnalyzedList()</text><ellipse cx="43.5" cy="877.3359" fill="#84BE84" rx="3" ry="3" style="stroke:#038048;stroke-width:1.0;"/><text fill="#000000" font-family="sans-serif" font-size="11" lengthAdjust="spacing" textLength="141" x="52.5" y="881.7549">getTestByInternalCode(code)</text><!--MD5=[144698ec4d0188f6929a3b58a3eeb1f6]
class TestMapper--><rect codeLine="58" fill="#FEFECE" filter="url(#f1w3erbfdzoy22)" height="75.6719" id="TestMapper" style="stroke:#A80036;stroke-width:1.5;" width="97" x="668.5" y="350"/><ellipse cx="683.5" cy="366" fill="#ADD1B2" rx="11" ry="11" style="stroke:#A80036;stroke-width:1.0;"/><path d="M685.5,362.5 Q685.7031,362 685.9375,361.75 Q686.1719,361.5 686.4375,361.5 Q686.9063,361.5 687.2031,361.7813 Q687.5,362.0625 687.5,362.7188 L687.5,364.2813 Q687.5,364.9375 687.2188,365.2188 Q686.9375,365.5 686.5,365.5 Q686.1094,365.5 685.8594,365.3281 Q685.6094,365.1563 685.5,364.7031 Q685.4531,364.3906 685.2813,364.2188 Q684.9688,363.8906 684.4063,363.7031 Q683.8438,363.5 683.2813,363.5 Q682.5781,363.5 681.9844,363.7813 Q681.4063,364.0625 680.9531,364.6875 Q680.5,365.3125 680.5,366.1719 L680.5,367.0938 Q680.5,368.125 681.3438,368.8125 Q682.1875,369.5 683.6875,369.5 Q684.5781,369.5 685.2031,369.2969 Q685.5625,369.1875 685.9688,368.8281 Q686.2344,368.625 686.375,368.5625 Q686.5156,368.5 686.6875,368.5 Q687.0156,368.5 687.25,368.7656 Q687.5,369.0156 687.5,369.375 Q687.5,369.7188 687.1563,370.125 Q686.6563,370.7188 685.8594,371.0469 Q684.8125,371.5 683.5313,371.5 Q682.0313,371.5 680.8281,370.9063 Q679.8594,370.4375 679.1719,369.4219 Q678.5,368.4063 678.5,367.2031 L678.5,366.1094 Q678.5,364.8594 679.0938,363.7656 Q679.7031,362.6719 680.75,362.0938 Q681.8125,361.5 683,361.5 Q683.7188,361.5 684.3438,361.75 Q684.9688,362 685.5,362.5 Z " fill="#000000"/><text fill="#000000" font-family="sans-serif" font-size="12" lengthAdjust="spacing" textLength="65" x="697.5" y="370.9102">TestMapper</text><line style="stroke:#A80036;stroke-width:1.5;" x1="669.5" x2="764.5" y1="382" y2="382"/><line style="stroke:#A80036;stroke-width:1.5;" x1="669.5" x2="764.5" y1="390" y2="390"/><ellipse cx="679.5" cy="401" fill="#84BE84" rx="3" ry="3" style="stroke:#038048;stroke-width:1.0;"/><text fill="#000000" font-family="sans-serif" font-size="11" lengthAdjust="spacing" textLength="51" x="688.5" y="405.4189">toDto(test)</text><ellipse cx="679.5" cy="414.8359" fill="#84BE84" rx="3" ry="3" style="stroke:#038048;stroke-width:1.0;"/><text fill="#000000" font-family="sans-serif" font-size="11" lengthAdjust="spacing" textLength="68" x="688.5" y="419.2549">toDto(testList)</text><!--MD5=[a82d32c079496d6dca2681dc0633feb0]
class TestParameterMapper--><rect codeLine="63" fill="#FEFECE" filter="url(#f1w3erbfdzoy22)" height="75.6719" id="TestParameterMapper" style="stroke:#A80036;stroke-width:1.5;" width="155" x="800.5" y="350"/><ellipse cx="815.5" cy="366" fill="#ADD1B2" rx="11" ry="11" style="stroke:#A80036;stroke-width:1.0;"/><path d="M817.5,362.5 Q817.7031,362 817.9375,361.75 Q818.1719,361.5 818.4375,361.5 Q818.9063,361.5 819.2031,361.7813 Q819.5,362.0625 819.5,362.7188 L819.5,364.2813 Q819.5,364.9375 819.2188,365.2188 Q818.9375,365.5 818.5,365.5 Q818.1094,365.5 817.8594,365.3281 Q817.6094,365.1563 817.5,364.7031 Q817.4531,364.3906 817.2813,364.2188 Q816.9688,363.8906 816.4063,363.7031 Q815.8438,363.5 815.2813,363.5 Q814.5781,363.5 813.9844,363.7813 Q813.4063,364.0625 812.9531,364.6875 Q812.5,365.3125 812.5,366.1719 L812.5,367.0938 Q812.5,368.125 813.3438,368.8125 Q814.1875,369.5 815.6875,369.5 Q816.5781,369.5 817.2031,369.2969 Q817.5625,369.1875 817.9688,368.8281 Q818.2344,368.625 818.375,368.5625 Q818.5156,368.5 818.6875,368.5 Q819.0156,368.5 819.25,368.7656 Q819.5,369.0156 819.5,369.375 Q819.5,369.7188 819.1563,370.125 Q818.6563,370.7188 817.8594,371.0469 Q816.8125,371.5 815.5313,371.5 Q814.0313,371.5 812.8281,370.9063 Q811.8594,370.4375 811.1719,369.4219 Q810.5,368.4063 810.5,367.2031 L810.5,366.1094 Q810.5,364.8594 811.0938,363.7656 Q811.7031,362.6719 812.75,362.0938 Q813.8125,361.5 815,361.5 Q815.7188,361.5 816.3438,361.75 Q816.9688,362 817.5,362.5 Z " fill="#000000"/><text fill="#000000" font-family="sans-serif" font-size="12" lengthAdjust="spacing" textLength="123" x="829.5" y="370.9102">TestParameterMapper</text><line style="stroke:#A80036;stroke-width:1.5;" x1="801.5" x2="954.5" y1="382" y2="382"/><line style="stroke:#A80036;stroke-width:1.5;" x1="801.5" x2="954.5" y1="390" y2="390"/><ellipse cx="811.5" cy="401" fill="#84BE84" rx="3" ry="3" style="stroke:#038048;stroke-width:1.0;"/><text fill="#000000" font-family="sans-serif" font-size="11" lengthAdjust="spacing" textLength="128" x="820.5" y="405.4189">toDTO(testParametersList)</text><ellipse cx="811.5" cy="414.8359" fill="#84BE84" rx="3" ry="3" style="stroke:#038048;stroke-width:1.0;"/><text fill="#000000" font-family="sans-serif" font-size="11" lengthAdjust="spacing" textLength="105" x="820.5" y="419.2549">toDTO(testParameter)</text><!--MD5=[1c38f6084f2098752e2974895ca67f4c]
class TestDto--><rect codeLine="70" fill="#FEFECE" filter="url(#f1w3erbfdzoy22)" height="89.5078" id="TestDto" style="stroke:#A80036;stroke-width:1.5;" width="187" x="813.5" y="552.5"/><ellipse cx="881.25" cy="568.5" fill="#ADD1B2" rx="11" ry="11" style="stroke:#A80036;stroke-width:1.0;"/><path d="M883.25,565 Q883.4531,564.5 883.6875,564.25 Q883.9219,564 884.1875,564 Q884.6563,564 884.9531,564.2813 Q885.25,564.5625 885.25,565.2188 L885.25,566.7813 Q885.25,567.4375 884.9688,567.7188 Q884.6875,568 884.25,568 Q883.8594,568 883.6094,567.8281 Q883.3594,567.6563 883.25,567.2031 Q883.2031,566.8906 883.0313,566.7188 Q882.7188,566.3906 882.1563,566.2031 Q881.5938,566 881.0313,566 Q880.3281,566 879.7344,566.2813 Q879.1563,566.5625 878.7031,567.1875 Q878.25,567.8125 878.25,568.6719 L878.25,569.5938 Q878.25,570.625 879.0938,571.3125 Q879.9375,572 881.4375,572 Q882.3281,572 882.9531,571.7969 Q883.3125,571.6875 883.7188,571.3281 Q883.9844,571.125 884.125,571.0625 Q884.2656,571 884.4375,571 Q884.7656,571 885,571.2656 Q885.25,571.5156 885.25,571.875 Q885.25,572.2188 884.9063,572.625 Q884.4063,573.2188 883.6094,573.5469 Q882.5625,574 881.2813,574 Q879.7813,574 878.5781,573.4063 Q877.6094,572.9375 876.9219,571.9219 Q876.25,570.9063 876.25,569.7031 L876.25,568.6094 Q876.25,567.3594 876.8438,566.2656 Q877.4531,565.1719 878.5,564.5938 Q879.5625,564 880.75,564 Q881.4688,564 882.0938,564.25 Q882.7188,564.5 883.25,565 Z " fill="#000000"/><text fill="#000000" font-family="sans-serif" font-size="12" lengthAdjust="spacing" textLength="43" x="901.75" y="573.4102">TestDto</text><line style="stroke:#A80036;stroke-width:1.5;" x1="814.5" x2="999.5" y1="584.5" y2="584.5"/><rect fill="none" height="6" style="stroke:#C82930;stroke-width:1.0;" width="6" x="821.5" y="592.5"/><text fill="#000000" font-family="sans-serif" font-size="11" lengthAdjust="spacing" textLength="91" x="833.5" y="599.9189">String internalCode</text><rect fill="none" height="6" style="stroke:#C82930;stroke-width:1.0;" width="6" x="821.5" y="606.3359"/><text fill="#000000" font-family="sans-serif" font-size="11" lengthAdjust="spacing" textLength="84" x="833.5" y="613.7549">String description</text><line style="stroke:#A80036;stroke-width:1.5;" x1="814.5" x2="999.5" y1="620.1719" y2="620.1719"/><ellipse cx="824.5" cy="631.1719" fill="#84BE84" rx="3" ry="3" style="stroke:#038048;stroke-width:1.0;"/><text fill="#000000" font-family="sans-serif" font-size="11" lengthAdjust="spacing" textLength="161" x="833.5" y="635.5908">TestDto(internalCode,description)</text><!--MD5=[fa2f44d2bdbb0499bd765719ad83ddd6]
class TestParameterDto--><rect codeLine="76" fill="#FEFECE" filter="url(#f1w3erbfdzoy22)" height="172.5234" id="TestParameterDto" style="stroke:#A80036;stroke-width:1.5;" width="295" x="1035.5" y="511"/><ellipse cx="1128.25" cy="527" fill="#ADD1B2" rx="11" ry="11" style="stroke:#A80036;stroke-width:1.0;"/><path d="M1130.25,523.5 Q1130.4531,523 1130.6875,522.75 Q1130.9219,522.5 1131.1875,522.5 Q1131.6563,522.5 1131.9531,522.7813 Q1132.25,523.0625 1132.25,523.7188 L1132.25,525.2813 Q1132.25,525.9375 1131.9688,526.2188 Q1131.6875,526.5 1131.25,526.5 Q1130.8594,526.5 1130.6094,526.3281 Q1130.3594,526.1563 1130.25,525.7031 Q1130.2031,525.3906 1130.0313,525.2188 Q1129.7188,524.8906 1129.1563,524.7031 Q1128.5938,524.5 1128.0313,524.5 Q1127.3281,524.5 1126.7344,524.7813 Q1126.1563,525.0625 1125.7031,525.6875 Q1125.25,526.3125 1125.25,527.1719 L1125.25,528.0938 Q1125.25,529.125 1126.0938,529.8125 Q1126.9375,530.5 1128.4375,530.5 Q1129.3281,530.5 1129.9531,530.2969 Q1130.3125,530.1875 1130.7188,529.8281 Q1130.9844,529.625 1131.125,529.5625 Q1131.2656,529.5 1131.4375,529.5 Q1131.7656,529.5 1132,529.7656 Q1132.25,530.0156 1132.25,530.375 Q1132.25,530.7188 1131.9063,531.125 Q1131.4063,531.7188 1130.6094,532.0469 Q1129.5625,532.5 1128.2813,532.5 Q1126.7813,532.5 1125.5781,531.9063 Q1124.6094,531.4375 1123.9219,530.4219 Q1123.25,529.4063 1123.25,528.2031 L1123.25,527.1094 Q1123.25,525.8594 1123.8438,524.7656 Q1124.4531,523.6719 1125.5,523.0938 Q1126.5625,522.5 1127.75,522.5 Q1128.4688,522.5 1129.0938,522.75 Q1129.7188,523 1130.25,523.5 Z " fill="#000000"/><text fill="#000000" font-family="sans-serif" font-size="12" lengthAdjust="spacing" textLength="101" x="1148.75" y="531.9102">TestParameterDto</text><line style="stroke:#A80036;stroke-width:1.5;" x1="1036.5" x2="1329.5" y1="543" y2="543"/><rect fill="none" height="6" style="stroke:#C82930;stroke-width:1.0;" width="6" x="1043.5" y="551"/><text fill="#000000" font-family="sans-serif" font-size="11" lengthAdjust="spacing" textLength="107" x="1055.5" y="558.4189">String parameterName</text><rect fill="none" height="6" style="stroke:#C82930;stroke-width:1.0;" width="6" x="1043.5" y="564.8359"/><text fill="#000000" font-family="sans-serif" font-size="11" lengthAdjust="spacing" textLength="128" x="1055.5" y="572.2549">String testParameterResult</text><rect fill="none" height="6" style="stroke:#C82930;stroke-width:1.0;" width="6" x="1043.5" y="578.6719"/><text fill="#000000" font-family="sans-serif" font-size="11" lengthAdjust="spacing" textLength="127" x="1055.5" y="586.0908">String testParameterMetric</text><rect fill="none" height="6" style="stroke:#C82930;stroke-width:1.0;" width="6" x="1043.5" y="592.5078"/><text fill="#000000" font-family="sans-serif" font-size="11" lengthAdjust="spacing" textLength="163" x="1055.5" y="599.9268">double testParameterMinRefValue</text><rect fill="none" height="6" style="stroke:#C82930;stroke-width:1.0;" width="6" x="1043.5" y="606.3438"/><text fill="#000000" font-family="sans-serif" font-size="11" lengthAdjust="spacing" textLength="167" x="1055.5" y="613.7627">double testParameterMaxRefValue</text><rect fill="none" height="6" style="stroke:#C82930;stroke-width:1.0;" width="6" x="1043.5" y="620.1797"/><text fill="#000000" font-family="sans-serif" font-size="11" lengthAdjust="spacing" textLength="102" x="1055.5" y="627.5986">String refValueMetric</text><line style="stroke:#A80036;stroke-width:1.5;" x1="1036.5" x2="1329.5" y1="634.0156" y2="634.0156"/><ellipse cx="1046.5" cy="645.0156" fill="#84BE84" rx="3" ry="3" style="stroke:#038048;stroke-width:1.0;"/><text fill="#000000" font-family="sans-serif" font-size="11" lengthAdjust="spacing" textLength="269" x="1055.5" y="649.4346">TestParameterDto(parameterName,testParameterResult,</text><text fill="#000000" font-family="sans-serif" font-size="11" lengthAdjust="spacing" textLength="230" x="1055.5" y="663.2705">testParameterMetric,testParameterMinRefValue,</text><text fill="#000000" font-family="sans-serif" font-size="11" lengthAdjust="spacing" textLength="210" x="1055.5" y="677.1064">testParameterMaxRefValue,refValueMetric)</text><!--MD5=[bbc66458f6440b7390e5e54a12cdf2f1]
link WriteMedicalReportUI to WriteMedicalReportController--><path codeLine="88" d="M1087.63,90.09 C1016.81,114.72 903.67,154.07 821,182.82 " fill="none" id="WriteMedicalReportUI-to-WriteMedicalReportController" style="stroke:#A80036;stroke-width:1.0;stroke-dasharray:7.0,7.0;"/><polygon fill="#A80036" points="816.1,184.53,825.9143,185.3548,820.8231,182.8891,823.2888,177.7979,816.1,184.53" style="stroke:#A80036;stroke-width:1.0;"/><!--MD5=[adbc032425c7e51ba2ad24017d53629a]
link WriteMedicalReportUI to TestDto--><path codeLine="89" d="M1147.74,90.03 C1130.41,151.99 1078.31,326.52 1007,459 C990.07,490.46 966.8,522.9 946.96,548.37 " fill="none" id="WriteMedicalReportUI-to-TestDto" style="stroke:#A80036;stroke-width:1.0;stroke-dasharray:7.0,7.0;"/><polygon fill="#A80036" points="943.81,552.4,952.5068,547.7777,946.8915,548.4625,946.2068,542.8472,943.81,552.4" style="stroke:#A80036;stroke-width:1.0;"/><!--MD5=[01734996bc336a4e5d2ed8719592e27f]
link WriteMedicalReportUI to TestParameterDto--><path codeLine="90" d="M1167.62,90.01 C1172.54,99.56 1177.49,110.98 1180,122 C1209.79,252.79 1202.9,409.18 1193.93,505.68 " fill="none" id="WriteMedicalReportUI-to-TestParameterDto" style="stroke:#A80036;stroke-width:1.0;stroke-dasharray:7.0,7.0;"/><polygon fill="#A80036" points="1193.45,510.8,1198.2818,502.2178,1193.922,505.8223,1190.3175,501.4626,1193.45,510.8" style="stroke:#A80036;stroke-width:1.0;"/><!--MD5=[b787b54ee1aef98cad412d2a644aa045]
link WriteMedicalReportController to Company--><path codeLine="91" d="M617.95,249.83 C583.5,263.14 546.21,281.53 517,306 C434.68,374.97 379.19,491.92 353.81,554.33 " fill="none" id="WriteMedicalReportController-to-Company" style="stroke:#A80036;stroke-width:1.0;stroke-dasharray:7.0,7.0;"/><polygon fill="#A80036" points="351.89,559.09,358.9646,552.238,353.7592,554.4526,351.5447,549.2472,351.89,559.09" style="stroke:#A80036;stroke-width:1.0;"/><!--MD5=[0a4b7f6f2e1052e6554456fc8aa21a03]
link WriteMedicalReportController to TestStore--><path codeLine="92" d="M617.81,231.35 C551.36,241.97 464.25,263.33 398,306 C216.74,422.75 153.34,700.52 135.23,806.98 " fill="none" id="WriteMedicalReportController-to-TestStore" style="stroke:#A80036;stroke-width:1.0;stroke-dasharray:7.0,7.0;"/><polygon fill="#A80036" points="134.35,812.22,139.7867,804.0077,135.1789,807.2892,131.8975,802.6814,134.35,812.22" style="stroke:#A80036;stroke-width:1.0;"/><!--MD5=[d59dafcd53f8ba979ac3ce89e293f269]
link WriteMedicalReportController to TestMapper--><path codeLine="93" d="M717,265.05 C717,289.71 717,320.3 717,344.68 " fill="none" id="WriteMedicalReportController-to-TestMapper" style="stroke:#A80036;stroke-width:1.0;stroke-dasharray:7.0,7.0;"/><polygon fill="#A80036" points="717,349.78,721,340.78,717,344.78,713,340.78,717,349.78" style="stroke:#A80036;stroke-width:1.0;"/><!--MD5=[0cd9019ce07d4cbb96eb84fb6d9e22ee]
link WriteMedicalReportController to TestParameterDto--><path codeLine="94" d="M816.34,227.6 C878.67,236.64 956.82,257.64 1009,306 C1069.31,361.89 1115.65,443.41 1145.29,505.88 " fill="none" id="WriteMedicalReportController-to-TestParameterDto" style="stroke:#A80036;stroke-width:1.0;stroke-dasharray:7.0,7.0;"/><polygon fill="#A80036" points="1147.57,510.73,1147.3616,500.8833,1145.4431,506.2049,1140.1215,504.2864,1147.57,510.73" style="stroke:#A80036;stroke-width:1.0;"/><!--MD5=[ba75a4db94b946b551daa943cd9720f8]
link WriteMedicalReportController to TestDto--><path codeLine="95" d="M816.05,226.79 C871.58,235.72 936.6,256.88 972,306 C1024.38,378.67 976.03,486.12 939.34,547.93 " fill="none" id="WriteMedicalReportController-to-TestDto" style="stroke:#A80036;stroke-width:1.0;stroke-dasharray:7.0,7.0;"/><polygon fill="#A80036" points="936.72,552.3,944.7804,546.6405,939.2925,548.0125,937.9205,542.5246,936.72,552.3" style="stroke:#A80036;stroke-width:1.0;"/><!--MD5=[d3614dad8e7ab28fcc7b8ffd0e053a84]
link WriteMedicalReportController to TestParameter--><path codeLine="96" d="M622.55,265.1 C609.91,274.21 598.17,284.81 589,297 C538.32,364.38 520.46,461.68 514.23,526.91 " fill="none" id="WriteMedicalReportController-to-TestParameter" style="stroke:#A80036;stroke-width:1.0;stroke-dasharray:7.0,7.0;"/><polygon fill="#A80036" points="513.77,531.94,518.5773,523.3441,514.2278,526.961,510.6109,522.6115,513.77,531.94" style="stroke:#A80036;stroke-width:1.0;"/><!--MD5=[eaabf2cc0e7c429fc49065438c9fd520]
link WriteMedicalReportController to Test--><path codeLine="97" d="M675.49,265.21 C666.16,277.55 657.42,291.56 652,306 C585.01,484.47 711.17,564.47 624,734 C612.54,756.29 594.67,775.85 575.45,792.23 " fill="none" id="WriteMedicalReportController-to-Test" style="stroke:#A80036;stroke-width:1.0;stroke-dasharray:7.0,7.0;"/><polygon fill="#A80036" points="571.59,795.46,581.0548,792.7366,575.4194,792.245,575.9109,786.6096,571.59,795.46" style="stroke:#A80036;stroke-width:1.0;"/><!--MD5=[29a1b506a2116fd5358dcc26b4aac099]
link WriteMedicalReportController to TestParameterMapper--><path codeLine="98" d="M759.72,265.05 C784.04,290.12 814.31,321.33 838.13,345.9 " fill="none" id="WriteMedicalReportController-to-TestParameterMapper" style="stroke:#A80036;stroke-width:1.0;stroke-dasharray:7.0,7.0;"/><polygon fill="#A80036" points="841.9,349.78,838.5132,340.5318,838.4219,346.1879,832.7658,346.0967,841.9,349.78" style="stroke:#A80036;stroke-width:1.0;"/><!--MD5=[0d2deb453e4521a8ecd45cf39c488e89]
link TestParameterMapper to TestParameterDto--><path codeLine="99" d="M949.79,426.17 C972.09,438.46 996.45,452.67 1018,467 C1036.75,479.47 1056.06,493.47 1074.58,507.53 " fill="none" id="TestParameterMapper-to-TestParameterDto" style="stroke:#A80036;stroke-width:1.0;stroke-dasharray:7.0,7.0;"/><polygon fill="#A80036" points="1078.76,510.72,1074.029,502.0818,1074.7842,507.6881,1069.1779,508.4432,1078.76,510.72" style="stroke:#A80036;stroke-width:1.0;"/><!--MD5=[886f81fd36c1ffd754dcf922ff388f49]
link TestParameterMapper to TestParameter--><path codeLine="100" d="M821.93,426.01 C809.24,434.1 795.75,442.49 783,450 C721.76,486.08 651.03,524.07 597.05,552.31 " fill="none" id="TestParameterMapper-to-TestParameter" style="stroke:#A80036;stroke-width:1.0;stroke-dasharray:7.0,7.0;"/><polygon fill="#A80036" points="592.54,554.67,602.3691,554.0467,596.9714,552.3542,598.6639,546.9565,592.54,554.67" style="stroke:#A80036;stroke-width:1.0;"/><!--MD5=[34b2fed5845bf5a187f4983fcf3f57bc]
link TestMapper to TestDto--><path codeLine="101" d="M750.97,426.1 C782.17,460.18 828.61,510.89 862.72,548.14 " fill="none" id="TestMapper-to-TestDto" style="stroke:#A80036;stroke-width:1.0;stroke-dasharray:7.0,7.0;"/><polygon fill="#A80036" points="866.4,552.16,863.2769,542.8194,863.0253,548.4707,857.374,548.219,866.4,552.16" style="stroke:#A80036;stroke-width:1.0;"/><!--MD5=[8d9a2c3ea1bf73d8d45b939465e53fff]
link TestMapper to Test--><path codeLine="102" d="M721.98,426.25 C728.99,493.58 734.67,637.5 672,734 C649.35,768.88 612.11,794.9 576.65,813.32 " fill="none" id="TestMapper-to-Test" style="stroke:#A80036;stroke-width:1.0;stroke-dasharray:7.0,7.0;"/><polygon fill="#A80036" points="571.88,815.76,581.715,815.2374,576.3349,813.4897,578.0826,808.1096,571.88,815.76" style="stroke:#A80036;stroke-width:1.0;"/><!--MD5=[7e4bc624457760b649895ff2ead938fa]
link Company to Test--><path codeLine="103" d="M358.53,635.75 C373.67,663.06 394.88,700.97 414,734 C419.62,743.7 425.55,753.83 431.49,763.87 " fill="none" id="Company-Test" style="stroke:#A80036;stroke-width:1.0;"/><polygon fill="#000000" points="421.4743,729.5207,419.5521,720.2064,414.4444,723.115,421.4743,729.5207" style="stroke:#000000;stroke-width:1.0;"/><text fill="#000000" font-family="sans-serif" font-size="13" lengthAdjust="spacing" textLength="50" x="428" y="730.4951">performs</text><text fill="#000000" font-family="sans-serif" font-size="13" lengthAdjust="spacing" textLength="7" x="354.2442" y="656.6704">1</text><text fill="#000000" font-family="sans-serif" font-size="13" lengthAdjust="spacing" textLength="20" x="406.204" y="753.2684">1..*</text><!--MD5=[7d615427424eb1e9d8965c4eb17ecbf5]
link TestParameter to Test--><path codeLine="104" d="M497.2,663.2 C494.02,680.3 490.99,698.79 489,716 C487.22,731.44 485.96,747.94 485.07,763.9 " fill="none" id="TestParameter-Test" style="stroke:#A80036;stroke-width:1.0;"/><polygon fill="#000000" points="494.598,720.2117,490.5984,728.8404,496.4341,729.5433,494.598,720.2117" style="stroke:#000000;stroke-width:1.0;"/><text fill="#000000" font-family="sans-serif" font-size="13" lengthAdjust="spacing" textLength="116" x="503" y="730.4951">requests analysis of</text><text fill="#000000" font-family="sans-serif" font-size="13" lengthAdjust="spacing" textLength="20" x="474.7456" y="684.3128">1..*</text><text fill="#000000" font-family="sans-serif" font-size="13" lengthAdjust="spacing" textLength="7" x="477.9426" y="753.0067">1</text><!--MD5=[abecf3ad954b07cbfe9ff14796c37293]
reverse link Test to MedicalReport--><path codeLine="105" d="M483,950.13 C483,972.56 483,995.5 483,1014.95 " fill="none" id="Test-backto-MedicalReport" style="stroke:#A80036;stroke-width:1.0;"/><polygon fill="#A80036" points="483,937,479,943,483,949,487,943,483,937" style="stroke:#A80036;stroke-width:1.0;"/><polygon fill="#000000" points="488,981.1758,490.9389,972.1307,485.0611,972.1307,488,981.1758" style="stroke:#000000;stroke-width:1.0;"/><text fill="#000000" font-family="sans-serif" font-size="13" lengthAdjust="spacing" textLength="43" x="497" y="981.4951">request</text><text fill="#000000" font-family="sans-serif" font-size="13" lengthAdjust="spacing" textLength="7" x="475.7211" y="958.0586">1</text><text fill="#000000" font-family="sans-serif" font-size="13" lengthAdjust="spacing" textLength="7" x="475.5078" y="1004.0714">1</text><!--MD5=[7f6cf7f175eae0af66201860de5de971]
link Company to TestStore--><path codeLine="106" d="M307.16,635.54 C268.73,681.69 203.24,760.34 163.27,808.34 " fill="none" id="Company-to-TestStore" style="stroke:#A80036;stroke-width:1.0;"/><polygon fill="#A80036" points="159.97,812.31,168.803,807.9535,163.1695,808.4677,162.6553,802.8343,159.97,812.31" style="stroke:#A80036;stroke-width:1.0;"/><text fill="#000000" font-family="sans-serif" font-size="13" lengthAdjust="spacing" textLength="28" x="240" y="730.4951">uses</text><text fill="#000000" font-family="sans-serif" font-size="13" lengthAdjust="spacing" textLength="7" x="294.4724" y="656.7168">1</text><text fill="#000000" font-family="sans-serif" font-size="13" lengthAdjust="spacing" textLength="7" x="157.8631" y="801.6381">1</text><!--MD5=[65381a3cb71afd0b24e9f06e22f19cdc]
@startuml

package UI{
class WriteMedicalReportUI{
}
}

package Controller{
class WriteMedicalReportController{
+getTestHasSamplesAnalyzedList()
+getTestParameterList(selectedTest)
+addMedicalReport(diagnosis)
}
}

package Model{
class Company{
-String designation
+getTestStore()
}

class Test{
-String internalCode
-String nhsCode
-String description
+getTestParameterList()
+getDescription()
+getInternalCode()
+addMedicalReport(diagnosis)
+validateMedicalReport()
-updateStateToDiagnosisMade()
}

class MedicalReport{
-String diagnosis
-Date createdAt
+ MedicalReport(diagnosis)
+ addCreationDate()
}

class TestParameter{
+ getParameterName()
+ getParameterResult()
+ getParameterMetric()
+ getParameterMinRefValue()
+ getParameterMaxRefValue()
+ getRefValueMetric()
}
}

package Store{
class TestStore{
+getTestHasSamplesAnalyzedList()
+getTestByInternalCode(code)
}
}

package Mappers{
class TestMapper{
+toDto(test)
+toDto(testList)
}

class TestParameterMapper{
+toDTO(testParametersList)
+toDTO(testParameter)
}
}

package DTO{
class TestDto{
-String internalCode
-String description
+TestDto(internalCode,description)
}

class TestParameterDto{
-String parameterName
-String testParameterResult
-String testParameterMetric
-double testParameterMinRefValue
-double testParameterMaxRefValue
-String refValueMetric
+TestParameterDto(parameterName,testParameterResult,\ntestParameterMetric,testParameterMinRefValue,\ntestParameterMaxRefValue,refValueMetric)
}
}


WriteMedicalReportUI ..> WriteMedicalReportController
WriteMedicalReportUI ..> TestDto
WriteMedicalReportUI ..> TestParameterDto
WriteMedicalReportController ..> Company
WriteMedicalReportController ..> TestStore
WriteMedicalReportController ..> TestMapper
WriteMedicalReportController ...> TestParameterDto
WriteMedicalReportController ...> TestDto
WriteMedicalReportController ...> TestParameter
WriteMedicalReportController ...> Test
WriteMedicalReportController ..> TestParameterMapper
TestParameterMapper ..> TestParameterDto
TestParameterMapper ..> TestParameter
TestMapper ..> TestDto
TestMapper ..> Test
Company "1"- -"1..*" Test : performs >
TestParameter "1..*" - -"1" Test : requests analysis of <
Test "1"*- -"1" MedicalReport : request >
Company"1"- -> "1" TestStore : uses

@enduml

PlantUML version 1.2021.5(Sun Apr 25 12:20:28 BST 2021)
(GPL source distribution)
Java Runtime: OpenJDK Runtime Environment
JVM: Dynamic Code Evolution 64-Bit Server VM
Default Encoding: Cp1252
Language: pt
Country: PT
--></g></svg>