<?xml version="1.0" encoding="UTF-8" standalone="no"?><svg xmlns="http://www.w3.org/2000/svg" xmlns:xlink="http://www.w3.org/1999/xlink" contentScriptType="application/ecmascript" contentStyleType="text/css" height="1850px" preserveAspectRatio="none" style="width:791px;height:1850px;" version="1.1" viewBox="0 0 791 1850" width="791px" zoomAndPan="magnify"><defs><filter height="300%" id="fcseqbldv8jxf" width="300%" x="-1" y="-1"><feGaussianBlur result="blurOut" stdDeviation="2.0"/><feColorMatrix in="blurOut" result="blurOut2" type="matrix" values="0 0 0 0 0 0 0 0 0 0 0 0 0 0 0 0 0 0 .4 0"/><feOffset dx="4.0" dy="4.0" in="blurOut2" result="blurOut3"/><feBlend in="SourceGraphic" in2="blurOut3" mode="normal"/></filter></defs><g><!--MD5=[64e2e010ba86d7988e5cd73bd64f61f9]
cluster ui--><polygon fill="#FFFFFF" filter="url(#fcseqbldv8jxf)" points="558,6,577,6,584,29.6094,736,29.6094,736,174,558,174,558,6" style="stroke:#000000;stroke-width:1.5;"/><line style="stroke:#000000;stroke-width:1.5;" x1="558" x2="584" y1="29.6094" y2="29.6094"/><text fill="#000000" font-family="sans-serif" font-size="14" font-weight="bold" lengthAdjust="spacing" textLength="13" x="562" y="22.5332">ui</text><!--MD5=[11b63f87f9efce6fda9831b98bfa73ba]
cluster gui--><polygon fill="#FFFFFF" filter="url(#fcseqbldv8jxf)" points="582,50,610,50,617,73.6094,712,73.6094,712,150,582,150,582,50" style="stroke:#000000;stroke-width:1.5;"/><line style="stroke:#000000;stroke-width:1.5;" x1="582" x2="617" y1="73.6094" y2="73.6094"/><text fill="#000000" font-family="sans-serif" font-size="14" font-weight="bold" lengthAdjust="spacing" textLength="22" x="586" y="66.5332">gui</text><!--MD5=[10ea673caf457862023e152271927b45]
cluster controller--><polygon fill="#FFFFFF" filter="url(#fcseqbldv8jxf)" points="314,207,389,207,396,230.6094,586,230.6094,586,376,314,376,314,207" style="stroke:#000000;stroke-width:1.5;"/><line style="stroke:#000000;stroke-width:1.5;" x1="314" x2="396" y1="230.6094" y2="230.6094"/><text fill="#000000" font-family="sans-serif" font-size="14" font-weight="bold" lengthAdjust="spacing" textLength="69" x="318" y="223.5332">controller</text><!--MD5=[e484dff12bc7e3f9ae9e3c87a060152b]
cluster mappers--><polygon fill="#FFFFFF" filter="url(#fcseqbldv8jxf)" points="309,409,376,409,383,432.6094,675,432.6094,675,927,309,927,309,409" style="stroke:#000000;stroke-width:1.5;"/><line style="stroke:#000000;stroke-width:1.5;" x1="309" x2="383" y1="432.6094" y2="432.6094"/><text fill="#000000" font-family="sans-serif" font-size="14" font-weight="bold" lengthAdjust="spacing" textLength="61" x="313" y="425.5332">mappers</text><!--MD5=[e6eced616a98d47334dd1aaaa829ffd5]
cluster dto--><polygon fill="#FFFFFF" filter="url(#fcseqbldv8jxf)" points="333,554,362,554,369,577.6094,651,577.6094,651,903,333,903,333,554" style="stroke:#000000;stroke-width:1.5;"/><line style="stroke:#000000;stroke-width:1.5;" x1="333" x2="369" y1="577.6094" y2="577.6094"/><text fill="#000000" font-family="sans-serif" font-size="14" font-weight="bold" lengthAdjust="spacing" textLength="23" x="337" y="570.5332">dto</text><!--MD5=[27f772719433d509ddbc20ff768eba08]
cluster domain--><polygon fill="#FFFFFF" filter="url(#fcseqbldv8jxf)" points="16,1084,73,1084,80,1107.6094,615,1107.6094,615,1843,16,1843,16,1084" style="stroke:#000000;stroke-width:1.5;"/><line style="stroke:#000000;stroke-width:1.5;" x1="16" x2="80" y1="1107.6094" y2="1107.6094"/><text fill="#000000" font-family="sans-serif" font-size="14" font-weight="bold" lengthAdjust="spacing" textLength="51" x="20" y="1100.5332">domain</text><!--MD5=[5d4cd377749310b66bf14896f5cd8d9b]
cluster model--><polygon fill="#FFFFFF" filter="url(#fcseqbldv8jxf)" points="40,1128,89,1128,96,1151.6094,591,1151.6094,591,1517,40,1517,40,1128" style="stroke:#000000;stroke-width:1.5;"/><line style="stroke:#000000;stroke-width:1.5;" x1="40" x2="96" y1="1151.6094" y2="1151.6094"/><text fill="#000000" font-family="sans-serif" font-size="14" font-weight="bold" lengthAdjust="spacing" textLength="43" x="44" y="1144.5332">model</text><!--MD5=[3063470ff00343f127a4682df62b6479]
cluster users--><polygon fill="#FFFFFF" filter="url(#fcseqbldv8jxf)" points="303,1172,349,1172,356,1195.6094,567,1195.6094,567,1493,303,1493,303,1172" style="stroke:#000000;stroke-width:1.5;"/><line style="stroke:#000000;stroke-width:1.5;" x1="303" x2="356" y1="1195.6094" y2="1195.6094"/><text fill="#000000" font-family="sans-serif" font-size="14" font-weight="bold" lengthAdjust="spacing" textLength="40" x="307" y="1188.5332">users</text><!--MD5=[e34dbf285ccc79cc804d08732d8d3341]
cluster testrelated--><polygon fill="#FFFFFF" filter="url(#fcseqbldv8jxf)" points="171,1268.5,254,1268.5,261,1292.1094,279,1292.1094,279,1396.5,171,1396.5,171,1268.5" style="stroke:#000000;stroke-width:1.5;"/><line style="stroke:#000000;stroke-width:1.5;" x1="171" x2="261" y1="1292.1094" y2="1292.1094"/><text fill="#000000" font-family="sans-serif" font-size="14" font-weight="bold" lengthAdjust="spacing" textLength="77" x="175" y="1285.0332">testrelated</text><!--MD5=[c23849cc5f4a85746a20de4317c530fc]
cluster store--><polygon fill="#FFFFFF" filter="url(#fcseqbldv8jxf)" points="64,1691,107,1691,114,1714.6094,336,1714.6094,336,1819,64,1819,64,1691" style="stroke:#000000;stroke-width:1.5;"/><line style="stroke:#000000;stroke-width:1.5;" x1="64" x2="114" y1="1714.6094" y2="1714.6094"/><text fill="#000000" font-family="sans-serif" font-size="14" font-weight="bold" lengthAdjust="spacing" textLength="37" x="68" y="1707.5332">store</text><!--MD5=[83b9165ac23e5504f5b86f6415319180]
class SeeTestsUI--><rect codeLine="35" fill="#FEFECE" filter="url(#fcseqbldv8jxf)" height="48" id="SeeTestsUI" style="stroke:#A80036;stroke-width:1.5;" width="97" x="598.5" y="86"/><ellipse cx="613.5" cy="102" fill="#ADD1B2" rx="11" ry="11" style="stroke:#A80036;stroke-width:1.0;"/><path d="M615.5,98.5 Q615.7031,98 615.9375,97.75 Q616.1719,97.5 616.4375,97.5 Q616.9063,97.5 617.2031,97.7813 Q617.5,98.0625 617.5,98.7188 L617.5,100.2813 Q617.5,100.9375 617.2188,101.2188 Q616.9375,101.5 616.5,101.5 Q616.1094,101.5 615.8594,101.3281 Q615.6094,101.1563 615.5,100.7031 Q615.4531,100.3906 615.2813,100.2188 Q614.9688,99.8906 614.4063,99.7031 Q613.8438,99.5 613.2813,99.5 Q612.5781,99.5 611.9844,99.7813 Q611.4063,100.0625 610.9531,100.6875 Q610.5,101.3125 610.5,102.1719 L610.5,103.0938 Q610.5,104.125 611.3438,104.8125 Q612.1875,105.5 613.6875,105.5 Q614.5781,105.5 615.2031,105.2969 Q615.5625,105.1875 615.9688,104.8281 Q616.2344,104.625 616.375,104.5625 Q616.5156,104.5 616.6875,104.5 Q617.0156,104.5 617.25,104.7656 Q617.5,105.0156 617.5,105.375 Q617.5,105.7188 617.1563,106.125 Q616.6563,106.7188 615.8594,107.0469 Q614.8125,107.5 613.5313,107.5 Q612.0313,107.5 610.8281,106.9063 Q609.8594,106.4375 609.1719,105.4219 Q608.5,104.4063 608.5,103.2031 L608.5,102.1094 Q608.5,100.8594 609.0938,99.7656 Q609.7031,98.6719 610.75,98.0938 Q611.8125,97.5 613,97.5 Q613.7188,97.5 614.3438,97.75 Q614.9688,98 615.5,98.5 Z " fill="#000000"/><text fill="#000000" font-family="sans-serif" font-size="12" lengthAdjust="spacing" textLength="65" x="627.5" y="106.9102">SeeTestsUI</text><line style="stroke:#A80036;stroke-width:1.5;" x1="599.5" x2="694.5" y1="118" y2="118"/><line style="stroke:#A80036;stroke-width:1.5;" x1="599.5" x2="694.5" y1="126" y2="126"/><!--MD5=[2654ad7b4abe994fc75dee3c22725869]
class SeeTestsController--><rect codeLine="38" fill="#FEFECE" filter="url(#fcseqbldv8jxf)" height="117.1797" id="SeeTestsController" style="stroke:#A80036;stroke-width:1.5;" width="239" x="330.5" y="243"/><ellipse cx="392.25" cy="259" fill="#ADD1B2" rx="11" ry="11" style="stroke:#A80036;stroke-width:1.0;"/><path d="M394.25,255.5 Q394.4531,255 394.6875,254.75 Q394.9219,254.5 395.1875,254.5 Q395.6563,254.5 395.9531,254.7813 Q396.25,255.0625 396.25,255.7188 L396.25,257.2813 Q396.25,257.9375 395.9688,258.2188 Q395.6875,258.5 395.25,258.5 Q394.8594,258.5 394.6094,258.3281 Q394.3594,258.1563 394.25,257.7031 Q394.2031,257.3906 394.0313,257.2188 Q393.7188,256.8906 393.1563,256.7031 Q392.5938,256.5 392.0313,256.5 Q391.3281,256.5 390.7344,256.7813 Q390.1563,257.0625 389.7031,257.6875 Q389.25,258.3125 389.25,259.1719 L389.25,260.0938 Q389.25,261.125 390.0938,261.8125 Q390.9375,262.5 392.4375,262.5 Q393.3281,262.5 393.9531,262.2969 Q394.3125,262.1875 394.7188,261.8281 Q394.9844,261.625 395.125,261.5625 Q395.2656,261.5 395.4375,261.5 Q395.7656,261.5 396,261.7656 Q396.25,262.0156 396.25,262.375 Q396.25,262.7188 395.9063,263.125 Q395.4063,263.7188 394.6094,264.0469 Q393.5625,264.5 392.2813,264.5 Q390.7813,264.5 389.5781,263.9063 Q388.6094,263.4375 387.9219,262.4219 Q387.25,261.4063 387.25,260.2031 L387.25,259.1094 Q387.25,257.8594 387.8438,256.7656 Q388.4531,255.6719 389.5,255.0938 Q390.5625,254.5 391.75,254.5 Q392.4688,254.5 393.0938,254.75 Q393.7188,255 394.25,255.5 Z " fill="#000000"/><text fill="#000000" font-family="sans-serif" font-size="12" lengthAdjust="spacing" textLength="107" x="412.75" y="263.9102">SeeTestsController</text><line style="stroke:#A80036;stroke-width:1.5;" x1="331.5" x2="568.5" y1="275" y2="275"/><line style="stroke:#A80036;stroke-width:1.5;" x1="331.5" x2="568.5" y1="283" y2="283"/><ellipse cx="341.5" cy="294" fill="#84BE84" rx="3" ry="3" style="stroke:#038048;stroke-width:1.0;"/><text fill="#000000" font-family="sans-serif" font-size="11" lengthAdjust="spacing" textLength="148" x="350.5" y="298.4189">getClientsWithValidatedTests()</text><ellipse cx="341.5" cy="307.8359" fill="#84BE84" rx="3" ry="3" style="stroke:#038048;stroke-width:1.0;"/><text fill="#000000" font-family="sans-serif" font-size="11" lengthAdjust="spacing" textLength="135" x="350.5" y="312.2549">orderClientList(clientListDto)</text><ellipse cx="341.5" cy="321.6719" fill="#84BE84" rx="3" ry="3" style="stroke:#038048;stroke-width:1.0;"/><text fill="#000000" font-family="sans-serif" font-size="11" lengthAdjust="spacing" textLength="213" x="350.5" y="326.0908">getTestAssociatedWithClient(selectedClient)</text><ellipse cx="341.5" cy="335.5078" fill="#84BE84" rx="3" ry="3" style="stroke:#038048;stroke-width:1.0;"/><text fill="#000000" font-family="sans-serif" font-size="11" lengthAdjust="spacing" textLength="172" x="350.5" y="339.9268">getClientsListByAlphabeticalOrder()</text><ellipse cx="341.5" cy="349.3438" fill="#84BE84" rx="3" ry="3" style="stroke:#038048;stroke-width:1.0;"/><text fill="#000000" font-family="sans-serif" font-size="11" lengthAdjust="spacing" textLength="93" x="350.5" y="353.7627">getClientListByTin()</text><!--MD5=[d9af5e34e5bc78cd5a2caff02363fedd]
class ClientMapper--><rect codeLine="82" fill="#FEFECE" filter="url(#fcseqbldv8jxf)" height="61.8359" id="ClientMapper" style="stroke:#A80036;stroke-width:1.5;" width="113" x="480.5" y="445"/><ellipse cx="499.1" cy="461" fill="#ADD1B2" rx="11" ry="11" style="stroke:#A80036;stroke-width:1.0;"/><path d="M501.1,457.5 Q501.3031,457 501.5375,456.75 Q501.7719,456.5 502.0375,456.5 Q502.5063,456.5 502.8031,456.7813 Q503.1,457.0625 503.1,457.7188 L503.1,459.2813 Q503.1,459.9375 502.8188,460.2188 Q502.5375,460.5 502.1,460.5 Q501.7094,460.5 501.4594,460.3281 Q501.2094,460.1563 501.1,459.7031 Q501.0531,459.3906 500.8813,459.2188 Q500.5688,458.8906 500.0063,458.7031 Q499.4438,458.5 498.8813,458.5 Q498.1781,458.5 497.5844,458.7813 Q497.0063,459.0625 496.5531,459.6875 Q496.1,460.3125 496.1,461.1719 L496.1,462.0938 Q496.1,463.125 496.9438,463.8125 Q497.7875,464.5 499.2875,464.5 Q500.1781,464.5 500.8031,464.2969 Q501.1625,464.1875 501.5688,463.8281 Q501.8344,463.625 501.975,463.5625 Q502.1156,463.5 502.2875,463.5 Q502.6156,463.5 502.85,463.7656 Q503.1,464.0156 503.1,464.375 Q503.1,464.7188 502.7563,465.125 Q502.2563,465.7188 501.4594,466.0469 Q500.4125,466.5 499.1313,466.5 Q497.6313,466.5 496.4281,465.9063 Q495.4594,465.4375 494.7719,464.4219 Q494.1,463.4063 494.1,462.2031 L494.1,461.1094 Q494.1,459.8594 494.6938,458.7656 Q495.3031,457.6719 496.35,457.0938 Q497.4125,456.5 498.6,456.5 Q499.3188,456.5 499.9438,456.75 Q500.5688,457 501.1,457.5 Z " fill="#000000"/><text fill="#000000" font-family="sans-serif" font-size="12" lengthAdjust="spacing" textLength="73" x="513.9" y="465.9102">ClientMapper</text><line style="stroke:#A80036;stroke-width:1.5;" x1="481.5" x2="592.5" y1="477" y2="477"/><line style="stroke:#A80036;stroke-width:1.5;" x1="481.5" x2="592.5" y1="485" y2="485"/><ellipse cx="491.5" cy="496" fill="#84BE84" rx="3" ry="3" style="stroke:#038048;stroke-width:1.0;"/><text fill="#000000" font-family="sans-serif" font-size="11" lengthAdjust="spacing" textLength="87" x="500.5" y="500.4189">toDTO(ClientsList)</text><!--MD5=[144698ec4d0188f6929a3b58a3eeb1f6]
class TestMapper--><rect codeLine="113" fill="#FEFECE" filter="url(#fcseqbldv8jxf)" height="61.8359" id="TestMapper" style="stroke:#A80036;stroke-width:1.5;" width="120" x="325" y="445"/><ellipse cx="350.35" cy="461" fill="#ADD1B2" rx="11" ry="11" style="stroke:#A80036;stroke-width:1.0;"/><path d="M352.35,457.5 Q352.5531,457 352.7875,456.75 Q353.0219,456.5 353.2875,456.5 Q353.7563,456.5 354.0531,456.7813 Q354.35,457.0625 354.35,457.7188 L354.35,459.2813 Q354.35,459.9375 354.0688,460.2188 Q353.7875,460.5 353.35,460.5 Q352.9594,460.5 352.7094,460.3281 Q352.4594,460.1563 352.35,459.7031 Q352.3031,459.3906 352.1313,459.2188 Q351.8188,458.8906 351.2563,458.7031 Q350.6938,458.5 350.1313,458.5 Q349.4281,458.5 348.8344,458.7813 Q348.2563,459.0625 347.8031,459.6875 Q347.35,460.3125 347.35,461.1719 L347.35,462.0938 Q347.35,463.125 348.1938,463.8125 Q349.0375,464.5 350.5375,464.5 Q351.4281,464.5 352.0531,464.2969 Q352.4125,464.1875 352.8188,463.8281 Q353.0844,463.625 353.225,463.5625 Q353.3656,463.5 353.5375,463.5 Q353.8656,463.5 354.1,463.7656 Q354.35,464.0156 354.35,464.375 Q354.35,464.7188 354.0063,465.125 Q353.5063,465.7188 352.7094,466.0469 Q351.6625,466.5 350.3813,466.5 Q348.8813,466.5 347.6781,465.9063 Q346.7094,465.4375 346.0219,464.4219 Q345.35,463.4063 345.35,462.2031 L345.35,461.1094 Q345.35,459.8594 345.9438,458.7656 Q346.5531,457.6719 347.6,457.0938 Q348.6625,456.5 349.85,456.5 Q350.5688,456.5 351.1938,456.75 Q351.8188,457 352.35,457.5 Z " fill="#000000"/><text fill="#000000" font-family="sans-serif" font-size="12" lengthAdjust="spacing" textLength="65" x="366.65" y="465.9102">TestMapper</text><line style="stroke:#A80036;stroke-width:1.5;" x1="326" x2="444" y1="477" y2="477"/><line style="stroke:#A80036;stroke-width:1.5;" x1="326" x2="444" y1="485" y2="485"/><ellipse cx="336" cy="496" fill="#84BE84" rx="3" ry="3" style="stroke:#038048;stroke-width:1.0;"/><text fill="#000000" font-family="sans-serif" font-size="11" lengthAdjust="spacing" textLength="94" x="345" y="500.4189">toDTO(ListOfTests)</text><!--MD5=[d92da6d3e9b1e9631354e1a6db35e891]
class ClientDTO--><rect codeLine="48" fill="#FEFECE" filter="url(#fcseqbldv8jxf)" height="297.0469" id="ClientDTO" style="stroke:#A80036;stroke-width:1.5;" width="141" x="493.5" y="590"/><ellipse cx="531.9" cy="606" fill="#ADD1B2" rx="11" ry="11" style="stroke:#A80036;stroke-width:1.0;"/><path d="M533.9,602.5 Q534.1031,602 534.3375,601.75 Q534.5719,601.5 534.8375,601.5 Q535.3063,601.5 535.6031,601.7813 Q535.9,602.0625 535.9,602.7188 L535.9,604.2813 Q535.9,604.9375 535.6188,605.2188 Q535.3375,605.5 534.9,605.5 Q534.5094,605.5 534.2594,605.3281 Q534.0094,605.1563 533.9,604.7031 Q533.8531,604.3906 533.6813,604.2188 Q533.3688,603.8906 532.8063,603.7031 Q532.2438,603.5 531.6813,603.5 Q530.9781,603.5 530.3844,603.7813 Q529.8063,604.0625 529.3531,604.6875 Q528.9,605.3125 528.9,606.1719 L528.9,607.0938 Q528.9,608.125 529.7438,608.8125 Q530.5875,609.5 532.0875,609.5 Q532.9781,609.5 533.6031,609.2969 Q533.9625,609.1875 534.3688,608.8281 Q534.6344,608.625 534.775,608.5625 Q534.9156,608.5 535.0875,608.5 Q535.4156,608.5 535.65,608.7656 Q535.9,609.0156 535.9,609.375 Q535.9,609.7188 535.5563,610.125 Q535.0563,610.7188 534.2594,611.0469 Q533.2125,611.5 531.9313,611.5 Q530.4313,611.5 529.2281,610.9063 Q528.2594,610.4375 527.5719,609.4219 Q526.9,608.4063 526.9,607.2031 L526.9,606.1094 Q526.9,604.8594 527.4938,603.7656 Q528.1031,602.6719 529.15,602.0938 Q530.2125,601.5 531.4,601.5 Q532.1188,601.5 532.7438,601.75 Q533.3688,602 533.9,602.5 Z " fill="#000000"/><text fill="#000000" font-family="sans-serif" font-size="12" lengthAdjust="spacing" textLength="57" x="551.1" y="610.9102">ClientDTO</text><line style="stroke:#A80036;stroke-width:1.5;" x1="494.5" x2="633.5" y1="622" y2="622"/><rect fill="none" height="6" style="stroke:#C82930;stroke-width:1.0;" width="6" x="501.5" y="630"/><text fill="#000000" font-family="sans-serif" font-size="11" lengthAdjust="spacing" textLength="91" x="513.5" y="637.4189">citizenCardNumber</text><rect fill="none" height="6" style="stroke:#C82930;stroke-width:1.0;" width="6" x="501.5" y="643.8359"/><text fill="#000000" font-family="sans-serif" font-size="11" lengthAdjust="spacing" textLength="43" x="513.5" y="651.2549">nhsCode</text><rect fill="none" height="6" style="stroke:#C82930;stroke-width:1.0;" width="6" x="501.5" y="657.6719"/><text fill="#000000" font-family="sans-serif" font-size="11" lengthAdjust="spacing" textLength="43" x="513.5" y="665.0908">birthDate</text><rect fill="none" height="6" style="stroke:#C82930;stroke-width:1.0;" width="6" x="501.5" y="671.5078"/><text fill="#000000" font-family="sans-serif" font-size="11" lengthAdjust="spacing" textLength="18" x="513.5" y="678.9268">sex</text><rect fill="none" height="6" style="stroke:#C82930;stroke-width:1.0;" width="6" x="501.5" y="685.3438"/><text fill="#000000" font-family="sans-serif" font-size="11" lengthAdjust="spacing" textLength="9" x="513.5" y="692.7627">tif</text><rect fill="none" height="6" style="stroke:#C82930;stroke-width:1.0;" width="6" x="501.5" y="699.1797"/><text fill="#000000" font-family="sans-serif" font-size="11" lengthAdjust="spacing" textLength="67" x="513.5" y="706.5986">phoneNumber</text><rect fill="none" height="6" style="stroke:#C82930;stroke-width:1.0;" width="6" x="501.5" y="713.0156"/><text fill="#000000" font-family="sans-serif" font-size="11" lengthAdjust="spacing" textLength="28" x="513.5" y="720.4346">e-mail</text><rect fill="none" height="6" style="stroke:#C82930;stroke-width:1.0;" width="6" x="501.5" y="726.8516"/><text fill="#000000" font-family="sans-serif" font-size="11" lengthAdjust="spacing" textLength="26" x="513.5" y="734.2705">name</text><rect fill="none" height="6" style="stroke:#C82930;stroke-width:1.0;" width="6" x="501.5" y="740.6875"/><text fill="#000000" font-family="sans-serif" font-size="11" lengthAdjust="spacing" textLength="40" x="513.5" y="748.1064">address</text><line style="stroke:#A80036;stroke-width:1.5;" x1="494.5" x2="633.5" y1="754.5234" y2="754.5234"/><ellipse cx="504.5" cy="765.5234" fill="#84BE84" rx="3" ry="3" style="stroke:#038048;stroke-width:1.0;"/><text fill="#000000" font-family="sans-serif" font-size="11" lengthAdjust="spacing" textLength="50" x="513.5" y="769.9424">getName()</text><ellipse cx="504.5" cy="779.3594" fill="#84BE84" rx="3" ry="3" style="stroke:#038048;stroke-width:1.0;"/><text fill="#000000" font-family="sans-serif" font-size="11" lengthAdjust="spacing" textLength="115" x="513.5" y="783.7783">getCitizenCardNumber()</text><ellipse cx="504.5" cy="793.1953" fill="#84BE84" rx="3" ry="3" style="stroke:#038048;stroke-width:1.0;"/><text fill="#000000" font-family="sans-serif" font-size="11" lengthAdjust="spacing" textLength="67" x="513.5" y="797.6143">getNhsCode()</text><ellipse cx="504.5" cy="807.0313" fill="#84BE84" rx="3" ry="3" style="stroke:#038048;stroke-width:1.0;"/><text fill="#000000" font-family="sans-serif" font-size="11" lengthAdjust="spacing" textLength="79" x="513.5" y="811.4502">getDateOfBirth()</text><ellipse cx="504.5" cy="820.8672" fill="#84BE84" rx="3" ry="3" style="stroke:#038048;stroke-width:1.0;"/><text fill="#000000" font-family="sans-serif" font-size="11" lengthAdjust="spacing" textLength="47" x="513.5" y="825.2861">getEmail()</text><ellipse cx="504.5" cy="834.7031" fill="#84BE84" rx="3" ry="3" style="stroke:#038048;stroke-width:1.0;"/><text fill="#000000" font-family="sans-serif" font-size="11" lengthAdjust="spacing" textLength="90" x="513.5" y="839.1221">getPhoneNumber()</text><ellipse cx="504.5" cy="848.5391" fill="#84BE84" rx="3" ry="3" style="stroke:#038048;stroke-width:1.0;"/><text fill="#000000" font-family="sans-serif" font-size="11" lengthAdjust="spacing" textLength="37" x="513.5" y="852.958">getTin()</text><ellipse cx="504.5" cy="862.375" fill="#84BE84" rx="3" ry="3" style="stroke:#038048;stroke-width:1.0;"/><text fill="#000000" font-family="sans-serif" font-size="11" lengthAdjust="spacing" textLength="42" x="513.5" y="866.7939">getSex()</text><ellipse cx="504.5" cy="876.2109" fill="#84BE84" rx="3" ry="3" style="stroke:#038048;stroke-width:1.0;"/><text fill="#000000" font-family="sans-serif" font-size="11" lengthAdjust="spacing" textLength="65" x="513.5" y="880.6299">getAddress()</text><!--MD5=[9fb704ffefcaf68bf1a361787afa998b]
class TestDTO--><rect codeLine="70" fill="#FEFECE" filter="url(#fcseqbldv8jxf)" height="89.5078" id="TestDTO" style="stroke:#A80036;stroke-width:1.5;" width="109" x="349.5" y="693.5"/><ellipse cx="377.1" cy="709.5" fill="#ADD1B2" rx="11" ry="11" style="stroke:#A80036;stroke-width:1.0;"/><path d="M379.1,706 Q379.3031,705.5 379.5375,705.25 Q379.7719,705 380.0375,705 Q380.5063,705 380.8031,705.2813 Q381.1,705.5625 381.1,706.2188 L381.1,707.7813 Q381.1,708.4375 380.8188,708.7188 Q380.5375,709 380.1,709 Q379.7094,709 379.4594,708.8281 Q379.2094,708.6563 379.1,708.2031 Q379.0531,707.8906 378.8813,707.7188 Q378.5688,707.3906 378.0063,707.2031 Q377.4438,707 376.8813,707 Q376.1781,707 375.5844,707.2813 Q375.0063,707.5625 374.5531,708.1875 Q374.1,708.8125 374.1,709.6719 L374.1,710.5938 Q374.1,711.625 374.9438,712.3125 Q375.7875,713 377.2875,713 Q378.1781,713 378.8031,712.7969 Q379.1625,712.6875 379.5688,712.3281 Q379.8344,712.125 379.975,712.0625 Q380.1156,712 380.2875,712 Q380.6156,712 380.85,712.2656 Q381.1,712.5156 381.1,712.875 Q381.1,713.2188 380.7563,713.625 Q380.2563,714.2188 379.4594,714.5469 Q378.4125,715 377.1313,715 Q375.6313,715 374.4281,714.4063 Q373.4594,713.9375 372.7719,712.9219 Q372.1,711.9063 372.1,710.7031 L372.1,709.6094 Q372.1,708.3594 372.6938,707.2656 Q373.3031,706.1719 374.35,705.5938 Q375.4125,705 376.6,705 Q377.3188,705 377.9438,705.25 Q378.5688,705.5 379.1,706 Z " fill="#000000"/><text fill="#000000" font-family="sans-serif" font-size="12" lengthAdjust="spacing" textLength="49" x="393.9" y="714.4102">TestDTO</text><line style="stroke:#A80036;stroke-width:1.5;" x1="350.5" x2="457.5" y1="725.5" y2="725.5"/><rect fill="none" height="6" style="stroke:#C82930;stroke-width:1.0;" width="6" x="357.5" y="733.5"/><text fill="#000000" font-family="sans-serif" font-size="11" lengthAdjust="spacing" textLength="60" x="369.5" y="740.9189">internalCode</text><rect fill="none" height="6" style="stroke:#C82930;stroke-width:1.0;" width="6" x="357.5" y="747.3359"/><text fill="#000000" font-family="sans-serif" font-size="11" lengthAdjust="spacing" textLength="53" x="369.5" y="754.7549">description</text><line style="stroke:#A80036;stroke-width:1.5;" x1="350.5" x2="457.5" y1="761.1719" y2="761.1719"/><ellipse cx="360.5" cy="772.1719" fill="#84BE84" rx="3" ry="3" style="stroke:#038048;stroke-width:1.0;"/><text fill="#000000" font-family="sans-serif" font-size="11" lengthAdjust="spacing" textLength="83" x="369.5" y="776.5908">getInternalCode()</text><!--MD5=[02e4b9b7573f1156f41e60aa5b4e25a4]
class Company--><rect codeLine="76" fill="#FEFECE" filter="url(#fcseqbldv8jxf)" height="61.8359" id="Company" style="stroke:#A80036;stroke-width:1.5;" width="96" x="56" y="1311.5"/><ellipse cx="75.95" cy="1327.5" fill="#ADD1B2" rx="11" ry="11" style="stroke:#A80036;stroke-width:1.0;"/><path d="M77.95,1324 Q78.1531,1323.5 78.3875,1323.25 Q78.6219,1323 78.8875,1323 Q79.3563,1323 79.6531,1323.2813 Q79.95,1323.5625 79.95,1324.2188 L79.95,1325.7813 Q79.95,1326.4375 79.6688,1326.7188 Q79.3875,1327 78.95,1327 Q78.5594,1327 78.3094,1326.8281 Q78.0594,1326.6563 77.95,1326.2031 Q77.9031,1325.8906 77.7313,1325.7188 Q77.4188,1325.3906 76.8563,1325.2031 Q76.2938,1325 75.7313,1325 Q75.0281,1325 74.4344,1325.2813 Q73.8563,1325.5625 73.4031,1326.1875 Q72.95,1326.8125 72.95,1327.6719 L72.95,1328.5938 Q72.95,1329.625 73.7938,1330.3125 Q74.6375,1331 76.1375,1331 Q77.0281,1331 77.6531,1330.7969 Q78.0125,1330.6875 78.4188,1330.3281 Q78.6844,1330.125 78.825,1330.0625 Q78.9656,1330 79.1375,1330 Q79.4656,1330 79.7,1330.2656 Q79.95,1330.5156 79.95,1330.875 Q79.95,1331.2188 79.6063,1331.625 Q79.1063,1332.2188 78.3094,1332.5469 Q77.2625,1333 75.9813,1333 Q74.4813,1333 73.2781,1332.4063 Q72.3094,1331.9375 71.6219,1330.9219 Q70.95,1329.9063 70.95,1328.7031 L70.95,1327.6094 Q70.95,1326.3594 71.5438,1325.2656 Q72.1531,1324.1719 73.2,1323.5938 Q74.2625,1323 75.45,1323 Q76.1688,1323 76.7938,1323.25 Q77.4188,1323.5 77.95,1324 Z " fill="#000000"/><text fill="#000000" font-family="sans-serif" font-size="12" lengthAdjust="spacing" textLength="53" x="91.05" y="1332.4102">Company</text><line style="stroke:#A80036;stroke-width:1.5;" x1="57" x2="151" y1="1343.5" y2="1343.5"/><line style="stroke:#A80036;stroke-width:1.5;" x1="57" x2="151" y1="1351.5" y2="1351.5"/><ellipse cx="67" cy="1362.5" fill="#84BE84" rx="3" ry="3" style="stroke:#038048;stroke-width:1.0;"/><text fill="#000000" font-family="sans-serif" font-size="11" lengthAdjust="spacing" textLength="70" x="76" y="1366.9189">getTestStore()</text><!--MD5=[ed6624c6556d5e7b1bd23032162d20b7]
class Client--><rect codeLine="91" fill="#FEFECE" filter="url(#fcseqbldv8jxf)" height="269.375" id="Client" style="stroke:#A80036;stroke-width:1.5;" width="232" x="319" y="1208"/><ellipse cx="414.75" cy="1224" fill="#ADD1B2" rx="11" ry="11" style="stroke:#A80036;stroke-width:1.0;"/><path d="M416.75,1220.5 Q416.9531,1220 417.1875,1219.75 Q417.4219,1219.5 417.6875,1219.5 Q418.1563,1219.5 418.4531,1219.7813 Q418.75,1220.0625 418.75,1220.7188 L418.75,1222.2813 Q418.75,1222.9375 418.4688,1223.2188 Q418.1875,1223.5 417.75,1223.5 Q417.3594,1223.5 417.1094,1223.3281 Q416.8594,1223.1563 416.75,1222.7031 Q416.7031,1222.3906 416.5313,1222.2188 Q416.2188,1221.8906 415.6563,1221.7031 Q415.0938,1221.5 414.5313,1221.5 Q413.8281,1221.5 413.2344,1221.7813 Q412.6563,1222.0625 412.2031,1222.6875 Q411.75,1223.3125 411.75,1224.1719 L411.75,1225.0938 Q411.75,1226.125 412.5938,1226.8125 Q413.4375,1227.5 414.9375,1227.5 Q415.8281,1227.5 416.4531,1227.2969 Q416.8125,1227.1875 417.2188,1226.8281 Q417.4844,1226.625 417.625,1226.5625 Q417.7656,1226.5 417.9375,1226.5 Q418.2656,1226.5 418.5,1226.7656 Q418.75,1227.0156 418.75,1227.375 Q418.75,1227.7188 418.4063,1228.125 Q417.9063,1228.7188 417.1094,1229.0469 Q416.0625,1229.5 414.7813,1229.5 Q413.2813,1229.5 412.0781,1228.9063 Q411.1094,1228.4375 410.4219,1227.4219 Q409.75,1226.4063 409.75,1225.2031 L409.75,1224.1094 Q409.75,1222.8594 410.3438,1221.7656 Q410.9531,1220.6719 412,1220.0938 Q413.0625,1219.5 414.25,1219.5 Q414.9688,1219.5 415.5938,1219.75 Q416.2188,1220 416.75,1220.5 Z " fill="#000000"/><text fill="#000000" font-family="sans-serif" font-size="12" lengthAdjust="spacing" textLength="32" x="435.25" y="1228.9102">Client</text><line style="stroke:#A80036;stroke-width:1.5;" x1="320" x2="550" y1="1240" y2="1240"/><rect fill="none" height="6" style="stroke:#C82930;stroke-width:1.0;" width="6" x="327" y="1248"/><text fill="#000000" font-family="sans-serif" font-size="11" lengthAdjust="spacing" textLength="91" x="339" y="1255.4189">citizenCardNumber</text><rect fill="none" height="6" style="stroke:#C82930;stroke-width:1.0;" width="6" x="327" y="1261.8359"/><text fill="#000000" font-family="sans-serif" font-size="11" lengthAdjust="spacing" textLength="43" x="339" y="1269.2549">nhsCode</text><rect fill="none" height="6" style="stroke:#C82930;stroke-width:1.0;" width="6" x="327" y="1275.6719"/><text fill="#000000" font-family="sans-serif" font-size="11" lengthAdjust="spacing" textLength="43" x="339" y="1283.0908">birthDate</text><rect fill="none" height="6" style="stroke:#C82930;stroke-width:1.0;" width="6" x="327" y="1289.5078"/><text fill="#000000" font-family="sans-serif" font-size="11" lengthAdjust="spacing" textLength="18" x="339" y="1296.9268">sex</text><rect fill="none" height="6" style="stroke:#C82930;stroke-width:1.0;" width="6" x="327" y="1303.3438"/><text fill="#000000" font-family="sans-serif" font-size="11" lengthAdjust="spacing" textLength="9" x="339" y="1310.7627">tif</text><rect fill="none" height="6" style="stroke:#C82930;stroke-width:1.0;" width="6" x="327" y="1317.1797"/><text fill="#000000" font-family="sans-serif" font-size="11" lengthAdjust="spacing" textLength="67" x="339" y="1324.5986">phoneNumber</text><rect fill="none" height="6" style="stroke:#C82930;stroke-width:1.0;" width="6" x="327" y="1331.0156"/><text fill="#000000" font-family="sans-serif" font-size="11" lengthAdjust="spacing" textLength="28" x="339" y="1338.4346">e-mail</text><rect fill="none" height="6" style="stroke:#C82930;stroke-width:1.0;" width="6" x="327" y="1344.8516"/><text fill="#000000" font-family="sans-serif" font-size="11" lengthAdjust="spacing" textLength="26" x="339" y="1352.2705">name</text><line style="stroke:#A80036;stroke-width:1.5;" x1="320" x2="550" y1="1358.6875" y2="1358.6875"/><ellipse cx="330" cy="1369.6875" fill="#84BE84" rx="3" ry="3" style="stroke:#038048;stroke-width:1.0;"/><text fill="#000000" font-family="sans-serif" font-size="11" lengthAdjust="spacing" textLength="76" x="339" y="1374.1064">getName(name)</text><ellipse cx="330" cy="1383.5234" fill="#84BE84" rx="3" ry="3" style="stroke:#038048;stroke-width:1.0;"/><text fill="#000000" font-family="sans-serif" font-size="11" lengthAdjust="spacing" textLength="206" x="339" y="1387.9424">getCitizenCardNumber(citizenCardNumber)</text><ellipse cx="330" cy="1397.3594" fill="#84BE84" rx="3" ry="3" style="stroke:#038048;stroke-width:1.0;"/><text fill="#000000" font-family="sans-serif" font-size="11" lengthAdjust="spacing" textLength="110" x="339" y="1401.7783">getNhsCode(nhsCode)</text><ellipse cx="330" cy="1411.1953" fill="#84BE84" rx="3" ry="3" style="stroke:#038048;stroke-width:1.0;"/><text fill="#000000" font-family="sans-serif" font-size="11" lengthAdjust="spacing" textLength="134" x="339" y="1415.6143">getDateOfBirth(dateOfBirth)</text><ellipse cx="330" cy="1425.0313" fill="#84BE84" rx="3" ry="3" style="stroke:#038048;stroke-width:1.0;"/><text fill="#000000" font-family="sans-serif" font-size="11" lengthAdjust="spacing" textLength="71" x="339" y="1429.4502">getEmail(email)</text><ellipse cx="330" cy="1438.8672" fill="#84BE84" rx="3" ry="3" style="stroke:#038048;stroke-width:1.0;"/><text fill="#000000" font-family="sans-serif" font-size="11" lengthAdjust="spacing" textLength="157" x="339" y="1443.2861">getPhoneNumber(phoneNumber)</text><ellipse cx="330" cy="1452.7031" fill="#84BE84" rx="3" ry="3" style="stroke:#038048;stroke-width:1.0;"/><text fill="#000000" font-family="sans-serif" font-size="11" lengthAdjust="spacing" textLength="82" x="339" y="1457.1221">getDateOfTin(tin)</text><ellipse cx="330" cy="1466.5391" fill="#84BE84" rx="3" ry="3" style="stroke:#038048;stroke-width:1.0;"/><text fill="#000000" font-family="sans-serif" font-size="11" lengthAdjust="spacing" textLength="60" x="339" y="1470.958">getSex(sex)</text><!--MD5=[df38be88ccee13e832d6fafd6288a4ca]
class Test--><rect codeLine="118" fill="#FEFECE" filter="url(#fcseqbldv8jxf)" height="75.6719" id="Test" style="stroke:#A80036;stroke-width:1.5;" width="75" x="187.5" y="1304.5"/><ellipse cx="211.05" cy="1320.5" fill="#ADD1B2" rx="11" ry="11" style="stroke:#A80036;stroke-width:1.0;"/><path d="M213.05,1317 Q213.2531,1316.5 213.4875,1316.25 Q213.7219,1316 213.9875,1316 Q214.4563,1316 214.7531,1316.2813 Q215.05,1316.5625 215.05,1317.2188 L215.05,1318.7813 Q215.05,1319.4375 214.7688,1319.7188 Q214.4875,1320 214.05,1320 Q213.6594,1320 213.4094,1319.8281 Q213.1594,1319.6563 213.05,1319.2031 Q213.0031,1318.8906 212.8313,1318.7188 Q212.5188,1318.3906 211.9563,1318.2031 Q211.3938,1318 210.8313,1318 Q210.1281,1318 209.5344,1318.2813 Q208.9563,1318.5625 208.5031,1319.1875 Q208.05,1319.8125 208.05,1320.6719 L208.05,1321.5938 Q208.05,1322.625 208.8938,1323.3125 Q209.7375,1324 211.2375,1324 Q212.1281,1324 212.7531,1323.7969 Q213.1125,1323.6875 213.5188,1323.3281 Q213.7844,1323.125 213.925,1323.0625 Q214.0656,1323 214.2375,1323 Q214.5656,1323 214.8,1323.2656 Q215.05,1323.5156 215.05,1323.875 Q215.05,1324.2188 214.7063,1324.625 Q214.2063,1325.2188 213.4094,1325.5469 Q212.3625,1326 211.0813,1326 Q209.5813,1326 208.3781,1325.4063 Q207.4094,1324.9375 206.7219,1323.9219 Q206.05,1322.9063 206.05,1321.7031 L206.05,1320.6094 Q206.05,1319.3594 206.6438,1318.2656 Q207.2531,1317.1719 208.3,1316.5938 Q209.3625,1316 210.55,1316 Q211.2688,1316 211.8938,1316.25 Q212.5188,1316.5 213.05,1317 Z " fill="#000000"/><text fill="#000000" font-family="sans-serif" font-size="12" lengthAdjust="spacing" textLength="24" x="226.95" y="1325.4102">Test</text><line style="stroke:#A80036;stroke-width:1.5;" x1="188.5" x2="261.5" y1="1336.5" y2="1336.5"/><rect fill="none" height="6" style="stroke:#C82930;stroke-width:1.0;" width="6" x="195.5" y="1344.5"/><text fill="#000000" font-family="sans-serif" font-size="11" lengthAdjust="spacing" textLength="25" x="207.5" y="1351.9189">client</text><line style="stroke:#A80036;stroke-width:1.5;" x1="188.5" x2="261.5" y1="1358.3359" y2="1358.3359"/><ellipse cx="198.5" cy="1369.3359" fill="#84BE84" rx="3" ry="3" style="stroke:#038048;stroke-width:1.0;"/><text fill="#000000" font-family="sans-serif" font-size="11" lengthAdjust="spacing" textLength="49" x="207.5" y="1373.7549">getClient()</text><!--MD5=[0f6f7964b844a64b0496af0dda7914bd]
class TestStore--><rect codeLine="86" fill="#FEFECE" filter="url(#fcseqbldv8jxf)" height="75.6719" id="TestStore" style="stroke:#A80036;stroke-width:1.5;" width="239" x="80.5" y="1727"/><ellipse cx="169.25" cy="1743" fill="#ADD1B2" rx="11" ry="11" style="stroke:#A80036;stroke-width:1.0;"/><path d="M171.25,1739.5 Q171.4531,1739 171.6875,1738.75 Q171.9219,1738.5 172.1875,1738.5 Q172.6563,1738.5 172.9531,1738.7813 Q173.25,1739.0625 173.25,1739.7188 L173.25,1741.2813 Q173.25,1741.9375 172.9688,1742.2188 Q172.6875,1742.5 172.25,1742.5 Q171.8594,1742.5 171.6094,1742.3281 Q171.3594,1742.1563 171.25,1741.7031 Q171.2031,1741.3906 171.0313,1741.2188 Q170.7188,1740.8906 170.1563,1740.7031 Q169.5938,1740.5 169.0313,1740.5 Q168.3281,1740.5 167.7344,1740.7813 Q167.1563,1741.0625 166.7031,1741.6875 Q166.25,1742.3125 166.25,1743.1719 L166.25,1744.0938 Q166.25,1745.125 167.0938,1745.8125 Q167.9375,1746.5 169.4375,1746.5 Q170.3281,1746.5 170.9531,1746.2969 Q171.3125,1746.1875 171.7188,1745.8281 Q171.9844,1745.625 172.125,1745.5625 Q172.2656,1745.5 172.4375,1745.5 Q172.7656,1745.5 173,1745.7656 Q173.25,1746.0156 173.25,1746.375 Q173.25,1746.7188 172.9063,1747.125 Q172.4063,1747.7188 171.6094,1748.0469 Q170.5625,1748.5 169.2813,1748.5 Q167.7813,1748.5 166.5781,1747.9063 Q165.6094,1747.4375 164.9219,1746.4219 Q164.25,1745.4063 164.25,1744.2031 L164.25,1743.1094 Q164.25,1741.8594 164.8438,1740.7656 Q165.4531,1739.6719 166.5,1739.0938 Q167.5625,1738.5 168.75,1738.5 Q169.4688,1738.5 170.0938,1738.75 Q170.7188,1739 171.25,1739.5 Z " fill="#000000"/><text fill="#000000" font-family="sans-serif" font-size="12" lengthAdjust="spacing" textLength="53" x="189.75" y="1747.9102">TestStore</text><line style="stroke:#A80036;stroke-width:1.5;" x1="81.5" x2="318.5" y1="1759" y2="1759"/><line style="stroke:#A80036;stroke-width:1.5;" x1="81.5" x2="318.5" y1="1767" y2="1767"/><ellipse cx="91.5" cy="1778" fill="#84BE84" rx="3" ry="3" style="stroke:#038048;stroke-width:1.0;"/><text fill="#000000" font-family="sans-serif" font-size="11" lengthAdjust="spacing" textLength="148" x="100.5" y="1782.4189">getClientsWithValidatedTests()</text><ellipse cx="91.5" cy="1791.8359" fill="#84BE84" rx="3" ry="3" style="stroke:#038048;stroke-width:1.0;"/><text fill="#000000" font-family="sans-serif" font-size="11" lengthAdjust="spacing" textLength="213" x="100.5" y="1796.2549">getTestAssociatedWithClient(selectedClient)</text><!--MD5=[d6561e92f0be27e487d269a41628b178]
link SeeTestsUI to SeeTestsController--><path codeLine="124" d="M622.84,134.24 C595.88,160.17 551.15,203.2 513.94,238.99 " fill="none" id="SeeTestsUI-to-SeeTestsController" style="stroke:#A80036;stroke-width:1.0;stroke-dasharray:7.0,7.0;"/><polygon fill="#A80036" points="509.91,242.87,519.1718,239.5205,513.5161,239.4065,513.6301,233.7507,509.91,242.87" style="stroke:#A80036;stroke-width:1.0;"/><!--MD5=[950fda1a1a9f55d3a0db0476ac073e57]
link SeeTestsUI to ClientDTO--><path codeLine="125" d="M647.79,134.37 C649.55,199.09 651.75,385.94 625,538 C622.3,553.36 618.78,569.19 614.8,584.9 " fill="none" id="SeeTestsUI-to-ClientDTO" style="stroke:#A80036;stroke-width:1.0;stroke-dasharray:7.0,7.0;"/><polygon fill="#A80036" points="613.55,589.77,619.6617,582.0468,614.7929,584.9269,611.9128,580.0582,613.55,589.77" style="stroke:#A80036;stroke-width:1.0;"/><!--MD5=[da19ebf839da0f5b392f9687cb24b47a]
link SeeTestsUI to TestDTO--><path codeLine="126" d="M658.87,134.44 C693.3,206.12 784.11,424.42 675,538 C659.67,553.96 493.94,533.04 476,546 C430.81,578.65 413.97,643.24 407.7,688.34 " fill="none" id="SeeTestsUI-to-TestDTO" style="stroke:#A80036;stroke-width:1.0;stroke-dasharray:7.0,7.0;"/><polygon fill="#A80036" points="407.02,693.47,412.168,685.0737,407.6771,688.5134,404.2374,684.0224,407.02,693.47" style="stroke:#A80036;stroke-width:1.0;"/><!--MD5=[6ebc42fbb22f45d25e6168d97a26701b]
link SeeTestsController to TestMapper--><path codeLine="127" d="M428.18,360.42 C418.26,386.74 406.85,417.01 398.25,439.83 " fill="none" id="SeeTestsController-to-TestMapper" style="stroke:#A80036;stroke-width:1.0;stroke-dasharray:7.0,7.0;"/><polygon fill="#A80036" points="396.46,444.58,403.3725,437.5645,398.2203,439.9001,395.8847,434.748,396.46,444.58" style="stroke:#A80036;stroke-width:1.0;"/><!--MD5=[d96acf488ec8abe6abda7b0ea1ec0948]
link SeeTestsController to ClientMapper--><path codeLine="128" d="M479.21,360.42 C492.54,386.85 507.88,417.27 519.41,440.12 " fill="none" id="SeeTestsController-to-ClientMapper" style="stroke:#A80036;stroke-width:1.0;stroke-dasharray:7.0,7.0;"/><polygon fill="#A80036" points="521.66,444.58,521.1751,434.7431,519.4068,440.1165,514.0335,438.3481,521.66,444.58" style="stroke:#A80036;stroke-width:1.0;"/><!--MD5=[12463469446cfa35038e1e4c7e5eef4f]
link SeeTestsController to Company--><path codeLine="129" d="M330.47,317.92 C239.21,337.19 129,380.1 129,475 C129,475 129,475 129,1037 C129,1134.83 116.02,1249.74 108.77,1306.35 " fill="none" id="SeeTestsController-to-Company" style="stroke:#A80036;stroke-width:1.0;stroke-dasharray:7.0,7.0;"/><polygon fill="#A80036" points="108.13,1311.31,113.2542,1302.8992,108.773,1306.3515,105.3207,1301.8703,108.13,1311.31" style="stroke:#A80036;stroke-width:1.0;"/><!--MD5=[7f6cf7f175eae0af66201860de5de971]
link Company to TestStore--><path codeLine="130" d="M110.9,1373.74 C127.77,1447.6 171.07,1637.29 190.42,1722.02 " fill="none" id="Company-to-TestStore" style="stroke:#A80036;stroke-width:1.0;"/><polygon fill="#A80036" points="191.54,1726.96,193.4655,1717.3012,190.4418,1722.0821,185.6609,1719.0584,191.54,1726.96" style="stroke:#A80036;stroke-width:1.0;"/><text fill="#000000" font-family="sans-serif" font-size="13" lengthAdjust="spacing" textLength="28" x="166" y="1609.4951">uses</text><text fill="#000000" font-family="sans-serif" font-size="13" lengthAdjust="spacing" textLength="7" x="104.5481" y="1394.7644">1</text><text fill="#000000" font-family="sans-serif" font-size="13" lengthAdjust="spacing" textLength="7" x="182.3349" y="1716.0292">1</text><!--MD5=[b0f4f6db8206580012ef9cd998ed01c5]
link TestStore to Test--><path codeLine="131" d="M202.21,1726.77 C206.85,1648.76 217.56,1468.58 222.47,1386.11 " fill="none" id="TestStore-to-Test" style="stroke:#A80036;stroke-width:1.0;"/><polygon fill="#A80036" points="222.78,1380.82,218.2467,1389.5635,222.4797,1385.811,226.2322,1390.044,222.78,1380.82" style="stroke:#A80036;stroke-width:1.0;"/><text fill="#000000" font-family="sans-serif" font-size="13" lengthAdjust="spacing" textLength="30" x="210" y="1609.4951">know</text><text fill="#000000" font-family="sans-serif" font-size="13" lengthAdjust="spacing" textLength="7" x="194.9802" y="1716.0909">1</text><text fill="#000000" font-family="sans-serif" font-size="13" lengthAdjust="spacing" textLength="5" x="217.0278" y="1401.7515">*</text><!--MD5=[f6fda4afaf882dd39139bcbf06c50c8c]
link TestMapper to TestDTO--><path codeLine="132" d="M387.2,507.14 C390.43,551.51 396.52,634.92 400.41,688.26 " fill="none" id="TestMapper-to-TestDTO" style="stroke:#A80036;stroke-width:1.0;stroke-dasharray:7.0,7.0;"/><polygon fill="#A80036" points="400.78,693.32,404.1003,684.0477,400.4085,688.3338,396.1224,684.642,400.78,693.32" style="stroke:#A80036;stroke-width:1.0;"/><!--MD5=[8d9a2c3ea1bf73d8d45b939465e53fff]
link TestMapper to Test--><path codeLine="133" d="M326.98,507.01 C311.19,517.52 295.34,530.61 284,546 C231.16,617.69 225,648.44 225,737.5 C225,737.5 225,737.5 225,1037 C225,1130.65 225,1240.5 225,1299.29 " fill="none" id="TestMapper-to-Test" style="stroke:#A80036;stroke-width:1.0;stroke-dasharray:7.0,7.0;"/><polygon fill="#A80036" points="225,1304.47,229,1295.47,225,1299.47,221,1295.47,225,1304.47" style="stroke:#A80036;stroke-width:1.0;"/><!--MD5=[af3939234646809cec66923e43961aa6]
link ClientMapper to ClientDTO--><path codeLine="134" d="M540.12,507.14 C542.2,527.14 545.09,555.08 548.15,584.62 " fill="none" id="ClientMapper-to-ClientDTO" style="stroke:#A80036;stroke-width:1.0;stroke-dasharray:7.0,7.0;"/><polygon fill="#A80036" points="548.69,589.76,551.7427,580.3962,548.1755,584.7865,543.7851,581.2194,548.69,589.76" style="stroke:#A80036;stroke-width:1.0;"/><!--MD5=[7e87959ebe2e461efeab352c4ade48a9]
link ClientMapper to Client--><path codeLine="135" d="M480.24,500.64 C474.45,502.86 468.62,505.02 463,507 C406.1,527.02 373.46,501.26 333,546 C274.86,610.3 296,650.81 296,737.5 C296,737.5 296,737.5 296,1037 C296,1094.54 316.79,1153.12 342.29,1203.33 " fill="none" id="ClientMapper-to-Client" style="stroke:#A80036;stroke-width:1.0;stroke-dasharray:7.0,7.0;"/><polygon fill="#A80036" points="344.62,1207.85,344.0596,1198.0171,342.3326,1203.4039,336.9458,1201.6769,344.62,1207.85" style="stroke:#A80036;stroke-width:1.0;"/><!--MD5=[118638c7374b042eede47565f6742fe2]
@startuml
'https://plantuml.com/class-diagram
package ui {
package gui {
class SeeTestsUI
}
}
package controller {
class SeeTestsController
}

package mappers {
package dto {
class ClientDTO
class TestDTO
}
class ClientMapper
class TestMapper
}

package domain {
package model {
package users {
class Client
}
package testrelated {
class Test
}
class Company
}
package store {
class TestStore
}
}

class SeeTestsUI {
}

class SeeTestsController {
+getClientsWithValidatedTests()
+orderClientList(clientListDto)
+getTestAssociatedWithClient(selectedClient)
+getClientsListByAlphabeticalOrder()
+getClientListByTin()


}

class  ClientDTO{
-citizenCardNumber
-nhsCode
-birthDate
-sex
-tif
-phoneNumber
-e-mail
-name
-address

+getName()
+getCitizenCardNumber()
+getNhsCode()
+getDateOfBirth()
+getEmail()
+getPhoneNumber()
+getTin()
+getSex()
+getAddress()
}

class TestDTO{
-internalCode
-description
+getInternalCode()
}

class Company{
+getTestStore()

}


class ClientMapper{
+toDTO(ClientsList)
}

class TestStore{
+getClientsWithValidatedTests()
+getTestAssociatedWithClient(selectedClient)

}
class Client {
-citizenCardNumber
-nhsCode
-birthDate
-sex
-tif
-phoneNumber
-e-mail
-name

+getName(name)
+getCitizenCardNumber(citizenCardNumber)
+getNhsCode(nhsCode)
+getDateOfBirth(dateOfBirth)
+getEmail(email)
+getPhoneNumber(phoneNumber)
+getDateOfTin(tin)
+getSex(sex)


}

class TestMapper{
+toDTO(ListOfTests)

}

class Test {
-client
+getClient()

}

SeeTestsUI .> SeeTestsController
SeeTestsUI ....> ClientDTO
SeeTestsUI ....> TestDTO
SeeTestsController .> TestMapper
SeeTestsController ..> ClientMapper
SeeTestsController ..> Company
Company "1" - - - -> "1" TestStore : uses
TestStore"1" - -> "*" Test : know
TestMapper ..> TestDTO
TestMapper .....> Test
ClientMapper ..> ClientDTO
ClientMapper ..> Client

@enduml

@startuml
package ui {
package gui {
class SeeTestsUI
}
}
package controller {
class SeeTestsController
}

package mappers {
package dto {
class ClientDTO
class TestDTO
}
class ClientMapper
class TestMapper
}

package domain {
package model {
package users {
class Client
}
package testrelated {
class Test
}
class Company
}
package store {
class TestStore
}
}

class SeeTestsUI {
}

class SeeTestsController {
+getClientsWithValidatedTests()
+orderClientList(clientListDto)
+getTestAssociatedWithClient(selectedClient)
+getClientsListByAlphabeticalOrder()
+getClientListByTin()


}

class  ClientDTO{
-citizenCardNumber
-nhsCode
-birthDate
-sex
-tif
-phoneNumber
-e-mail
-name
-address

+getName()
+getCitizenCardNumber()
+getNhsCode()
+getDateOfBirth()
+getEmail()
+getPhoneNumber()
+getTin()
+getSex()
+getAddress()
}

class TestDTO{
-internalCode
-description
+getInternalCode()
}

class Company{
+getTestStore()

}


class ClientMapper{
+toDTO(ClientsList)
}

class TestStore{
+getClientsWithValidatedTests()
+getTestAssociatedWithClient(selectedClient)

}
class Client {
-citizenCardNumber
-nhsCode
-birthDate
-sex
-tif
-phoneNumber
-e-mail
-name

+getName(name)
+getCitizenCardNumber(citizenCardNumber)
+getNhsCode(nhsCode)
+getDateOfBirth(dateOfBirth)
+getEmail(email)
+getPhoneNumber(phoneNumber)
+getDateOfTin(tin)
+getSex(sex)


}

class TestMapper{
+toDTO(ListOfTests)

}

class Test {
-client
+getClient()

}

SeeTestsUI .> SeeTestsController
SeeTestsUI ....> ClientDTO
SeeTestsUI ....> TestDTO
SeeTestsController .> TestMapper
SeeTestsController ..> ClientMapper
SeeTestsController ..> Company
Company "1" - - - -> "1" TestStore : uses
TestStore"1" - -> "*" Test : know
TestMapper ..> TestDTO
TestMapper .....> Test
ClientMapper ..> ClientDTO
ClientMapper ..> Client

@enduml

PlantUML version 1.2021.00(Sun Jan 10 10:25:05 GMT 2021)
(GPL source distribution)
Java Runtime: OpenJDK Runtime Environment
JVM: OpenJDK 64-Bit Server VM
Default Encoding: Cp1252
Language: pt
Country: PT
--></g></svg>