<?xml version="1.0" encoding="UTF-8" standalone="no"?><svg xmlns="http://www.w3.org/2000/svg" xmlns:xlink="http://www.w3.org/1999/xlink" contentScriptType="application/ecmascript" contentStyleType="text/css" height="2692.5px" preserveAspectRatio="none" style="width:1174px;height:2692px;background:#FFFFFF;" version="1.1" viewBox="0 0 1174 2692" width="1174.5px" zoomAndPan="magnify"><defs><filter height="300%" id="f2c20hngxudon" width="300%" x="-1" y="-1"><feGaussianBlur result="blurOut" stdDeviation="3.0"/><feColorMatrix in="blurOut" result="blurOut2" type="matrix" values="0 0 0 0 0 0 0 0 0 0 0 0 0 0 0 0 0 0 .4 0"/><feOffset dx="6.0" dy="6.0" in="blurOut2" result="blurOut3"/><feBlend in="SourceGraphic" in2="blurOut3" mode="normal"/></filter></defs><g><!--MD5=[64e2e010ba86d7988e5cd73bd64f61f9]
cluster ui--><polygon fill="#FFFFFF" filter="url(#f2c20hngxudon)" points="837,9,865.5,9,876,44.4141,1104,44.4141,1104,261,837,261,837,9" style="stroke:#000000;stroke-width:2.25;"/><line style="stroke:#000000;stroke-width:2.25;" x1="837" x2="876" y1="44.4141" y2="44.4141"/><text fill="#000000" font-family="sans-serif" font-size="21" font-weight="bold" lengthAdjust="spacing" textLength="19.5" x="843" y="33.7998">ui</text><!--MD5=[11b63f87f9efce6fda9831b98bfa73ba]
cluster gui--><polygon fill="#FFFFFF" filter="url(#f2c20hngxudon)" points="873,75,915,75,925.5,110.4141,1068,110.4141,1068,225,873,225,873,75" style="stroke:#000000;stroke-width:2.25;"/><line style="stroke:#000000;stroke-width:2.25;" x1="873" x2="925.5" y1="110.4141" y2="110.4141"/><text fill="#000000" font-family="sans-serif" font-size="21" font-weight="bold" lengthAdjust="spacing" textLength="33" x="879" y="99.7998">gui</text><!--MD5=[10ea673caf457862023e152271927b45]
cluster controller--><polygon fill="#FFFFFF" filter="url(#f2c20hngxudon)" points="472.5,310.5,585,310.5,595.5,345.9141,880.5,345.9141,880.5,523.5,472.5,523.5,472.5,310.5" style="stroke:#000000;stroke-width:2.25;"/><line style="stroke:#000000;stroke-width:2.25;" x1="472.5" x2="595.5" y1="345.9141" y2="345.9141"/><text fill="#000000" font-family="sans-serif" font-size="21" font-weight="bold" lengthAdjust="spacing" textLength="103.5" x="478.5" y="335.2998">controller</text><!--MD5=[e484dff12bc7e3f9ae9e3c87a060152b]
cluster mappers--><polygon fill="#FFFFFF" filter="url(#f2c20hngxudon)" points="463.5,573,564,573,574.5,608.4141,1149,608.4141,1149,1308,463.5,1308,463.5,573" style="stroke:#000000;stroke-width:2.25;"/><line style="stroke:#000000;stroke-width:2.25;" x1="463.5" x2="574.5" y1="608.4141" y2="608.4141"/><text fill="#000000" font-family="sans-serif" font-size="21" font-weight="bold" lengthAdjust="spacing" textLength="91.5" x="469.5" y="597.7998">mappers</text><!--MD5=[e6eced616a98d47334dd1aaaa829ffd5]
cluster dto--><polygon fill="#FFFFFF" filter="url(#f2c20hngxudon)" points="499.5,790.5,543,790.5,553.5,825.9141,1113,825.9141,1113,1272,499.5,1272,499.5,790.5" style="stroke:#000000;stroke-width:2.25;"/><line style="stroke:#000000;stroke-width:2.25;" x1="499.5" x2="553.5" y1="825.9141" y2="825.9141"/><text fill="#000000" font-family="sans-serif" font-size="21" font-weight="bold" lengthAdjust="spacing" textLength="34.5" x="505.5" y="815.2998">dto</text><!--MD5=[27f772719433d509ddbc20ff768eba08]
cluster domain--><polygon fill="#FFFFFF" filter="url(#f2c20hngxudon)" points="24,1543.5,109.5,1543.5,120,1578.9141,922.5,1578.9141,922.5,2682,24,2682,24,1543.5" style="stroke:#000000;stroke-width:2.25;"/><line style="stroke:#000000;stroke-width:2.25;" x1="24" x2="120" y1="1578.9141" y2="1578.9141"/><text fill="#000000" font-family="sans-serif" font-size="21" font-weight="bold" lengthAdjust="spacing" textLength="76.5" x="30" y="1568.2998">domain</text><!--MD5=[5d4cd377749310b66bf14896f5cd8d9b]
cluster model--><polygon fill="#FFFFFF" filter="url(#f2c20hngxudon)" points="60,1609.5,133.5,1609.5,144,1644.9141,886.5,1644.9141,886.5,2193,60,2193,60,1609.5" style="stroke:#000000;stroke-width:2.25;"/><line style="stroke:#000000;stroke-width:2.25;" x1="60" x2="144" y1="1644.9141" y2="1644.9141"/><text fill="#000000" font-family="sans-serif" font-size="21" font-weight="bold" lengthAdjust="spacing" textLength="64.5" x="66" y="1634.2998">model</text><!--MD5=[3063470ff00343f127a4682df62b6479]
cluster users--><polygon fill="#FFFFFF" filter="url(#f2c20hngxudon)" points="454.5,1675.5,523.5,1675.5,534,1710.9141,850.5,1710.9141,850.5,2157,454.5,2157,454.5,1675.5" style="stroke:#000000;stroke-width:2.25;"/><line style="stroke:#000000;stroke-width:2.25;" x1="454.5" x2="534" y1="1710.9141" y2="1710.9141"/><text fill="#000000" font-family="sans-serif" font-size="21" font-weight="bold" lengthAdjust="spacing" textLength="60" x="460.5" y="1700.2998">users</text><!--MD5=[e34dbf285ccc79cc804d08732d8d3341]
cluster testrelated--><polygon fill="#FFFFFF" filter="url(#f2c20hngxudon)" points="256.5,1820.25,381,1820.25,391.5,1855.6641,418.5,1855.6641,418.5,2012.25,256.5,2012.25,256.5,1820.25" style="stroke:#000000;stroke-width:2.25;"/><line style="stroke:#000000;stroke-width:2.25;" x1="256.5" x2="391.5" y1="1855.6641" y2="1855.6641"/><text fill="#000000" font-family="sans-serif" font-size="21" font-weight="bold" lengthAdjust="spacing" textLength="115.5" x="262.5" y="1845.0498">testrelated</text><!--MD5=[c23849cc5f4a85746a20de4317c530fc]
cluster store--><polygon fill="#FFFFFF" filter="url(#f2c20hngxudon)" points="69,2454,133.5,2454,144,2489.4141,807,2489.4141,807,2646,69,2646,69,2454" style="stroke:#000000;stroke-width:2.25;"/><line style="stroke:#000000;stroke-width:2.25;" x1="69" x2="144" y1="2489.4141" y2="2489.4141"/><text fill="#000000" font-family="sans-serif" font-size="21" font-weight="bold" lengthAdjust="spacing" textLength="55.5" x="75" y="2478.7998">store</text><!--MD5=[83b9165ac23e5504f5b86f6415319180]
class SeeTestsUI--><rect codeLine="36" fill="#FEFECE" filter="url(#f2c20hngxudon)" height="72" id="SeeTestsUI" style="stroke:#A80036;stroke-width:2.25;" width="145.5" x="897.75" y="129"/><ellipse cx="920.25" cy="153" fill="#ADD1B2" rx="16.5" ry="16.5" style="stroke:#A80036;stroke-width:1.5;"/><path d="M923.25,147.75 Q923.5547,147 923.9063,146.625 Q924.2578,146.25 924.6563,146.25 Q925.3594,146.25 925.8047,146.6719 Q926.25,147.0938 926.25,148.0781 L926.25,150.4219 Q926.25,151.4063 925.8281,151.8281 Q925.4063,152.25 924.75,152.25 Q924.1641,152.25 923.7891,151.9922 Q923.4141,151.7344 923.25,151.0547 Q923.1797,150.5859 922.9219,150.3281 Q922.4531,149.8359 921.6094,149.5547 Q920.7656,149.25 919.9219,149.25 Q918.8672,149.25 917.9766,149.6719 Q917.1094,150.0938 916.4297,151.0313 Q915.75,151.9688 915.75,153.2578 L915.75,154.6406 Q915.75,156.1875 917.0156,157.2188 Q918.2813,158.25 920.5313,158.25 Q921.8672,158.25 922.8047,157.9453 Q923.3438,157.7813 923.9531,157.2422 Q924.3516,156.9375 924.5625,156.8438 Q924.7734,156.75 925.0313,156.75 Q925.5234,156.75 925.875,157.1484 Q926.25,157.5234 926.25,158.0625 Q926.25,158.5781 925.7344,159.1875 Q924.9844,160.0781 923.7891,160.5703 Q922.2188,161.25 920.2969,161.25 Q918.0469,161.25 916.2422,160.3594 Q914.7891,159.6563 913.7578,158.1328 Q912.75,156.6094 912.75,154.8047 L912.75,153.1641 Q912.75,151.2891 913.6406,149.6484 Q914.5547,148.0078 916.125,147.1406 Q917.7188,146.25 919.5,146.25 Q920.5781,146.25 921.5156,146.625 Q922.4531,147 923.25,147.75 Z " fill="#000000"/><text fill="#000000" font-family="sans-serif" font-size="18" lengthAdjust="spacing" textLength="97.5" x="941.25" y="160.3652">SeeTestsUI</text><line style="stroke:#A80036;stroke-width:2.25;" x1="899.25" x2="1041.75" y1="177" y2="177"/><line style="stroke:#A80036;stroke-width:2.25;" x1="899.25" x2="1041.75" y1="189" y2="189"/><!--MD5=[2654ad7b4abe994fc75dee3c22725869]
class SeeTestsController--><rect codeLine="39" fill="#FEFECE" filter="url(#f2c20hngxudon)" height="134.2617" id="SeeTestsController" style="stroke:#A80036;stroke-width:2.25;" width="358.5" x="497.25" y="364.5"/><ellipse cx="589.875" cy="388.5" fill="#ADD1B2" rx="16.5" ry="16.5" style="stroke:#A80036;stroke-width:1.5;"/><path d="M592.875,383.25 Q593.1797,382.5 593.5313,382.125 Q593.8828,381.75 594.2813,381.75 Q594.9844,381.75 595.4297,382.1719 Q595.875,382.5938 595.875,383.5781 L595.875,385.9219 Q595.875,386.9063 595.4531,387.3281 Q595.0313,387.75 594.375,387.75 Q593.7891,387.75 593.4141,387.4922 Q593.0391,387.2344 592.875,386.5547 Q592.8047,386.0859 592.5469,385.8281 Q592.0781,385.3359 591.2344,385.0547 Q590.3906,384.75 589.5469,384.75 Q588.4922,384.75 587.6016,385.1719 Q586.7344,385.5938 586.0547,386.5313 Q585.375,387.4688 585.375,388.7578 L585.375,390.1406 Q585.375,391.6875 586.6406,392.7188 Q587.9063,393.75 590.1563,393.75 Q591.4922,393.75 592.4297,393.4453 Q592.9688,393.2813 593.5781,392.7422 Q593.9766,392.4375 594.1875,392.3438 Q594.3984,392.25 594.6563,392.25 Q595.1484,392.25 595.5,392.6484 Q595.875,393.0234 595.875,393.5625 Q595.875,394.0781 595.3594,394.6875 Q594.6094,395.5781 593.4141,396.0703 Q591.8438,396.75 589.9219,396.75 Q587.6719,396.75 585.8672,395.8594 Q584.4141,395.1563 583.3828,393.6328 Q582.375,392.1094 582.375,390.3047 L582.375,388.6641 Q582.375,386.7891 583.2656,385.1484 Q584.1797,383.5078 585.75,382.6406 Q587.3438,381.75 589.125,381.75 Q590.2031,381.75 591.1406,382.125 Q592.0781,382.5 592.875,383.25 Z " fill="#000000"/><text fill="#000000" font-family="sans-serif" font-size="18" lengthAdjust="spacing" textLength="160.5" x="620.625" y="395.8652">SeeTestsController</text><line style="stroke:#A80036;stroke-width:2.25;" x1="498.75" x2="854.25" y1="412.5" y2="412.5"/><line style="stroke:#A80036;stroke-width:2.25;" x1="498.75" x2="854.25" y1="424.5" y2="424.5"/><ellipse cx="513.75" cy="441" fill="#84BE84" rx="4.5" ry="4.5" style="stroke:#038048;stroke-width:1.5;"/><text fill="#000000" font-family="sans-serif" font-size="16.5" lengthAdjust="spacing" textLength="222" x="527.25" y="447.6284">getClientsWithValidatedTests()</text><ellipse cx="513.75" cy="461.7539" fill="#84BE84" rx="4.5" ry="4.5" style="stroke:#038048;stroke-width:1.5;"/><text fill="#000000" font-family="sans-serif" font-size="16.5" lengthAdjust="spacing" textLength="202.5" x="527.25" y="468.3823">orderClientList(clientListDto)</text><ellipse cx="513.75" cy="482.5078" fill="#84BE84" rx="4.5" ry="4.5" style="stroke:#038048;stroke-width:1.5;"/><text fill="#000000" font-family="sans-serif" font-size="16.5" lengthAdjust="spacing" textLength="319.5" x="527.25" y="489.1362">getTestAssociatedWithClient(selectedClient)</text><!--MD5=[d9af5e34e5bc78cd5a2caff02363fedd]
class ClientMapper--><rect codeLine="83" fill="#FEFECE" filter="url(#f2c20hngxudon)" height="92.7539" id="ClientMapper" style="stroke:#A80036;stroke-width:2.25;" width="169.5" x="720.75" y="627"/><ellipse cx="748.65" cy="651" fill="#ADD1B2" rx="16.5" ry="16.5" style="stroke:#A80036;stroke-width:1.5;"/><path d="M751.65,645.75 Q751.9547,645 752.3063,644.625 Q752.6578,644.25 753.0563,644.25 Q753.7594,644.25 754.2047,644.6719 Q754.65,645.0938 754.65,646.0781 L754.65,648.4219 Q754.65,649.4063 754.2281,649.8281 Q753.8063,650.25 753.15,650.25 Q752.5641,650.25 752.1891,649.9922 Q751.8141,649.7344 751.65,649.0547 Q751.5797,648.5859 751.3219,648.3281 Q750.8531,647.8359 750.0094,647.5547 Q749.1656,647.25 748.3219,647.25 Q747.2672,647.25 746.3766,647.6719 Q745.5094,648.0938 744.8297,649.0313 Q744.15,649.9688 744.15,651.2578 L744.15,652.6406 Q744.15,654.1875 745.4156,655.2188 Q746.6813,656.25 748.9313,656.25 Q750.2672,656.25 751.2047,655.9453 Q751.7438,655.7813 752.3531,655.2422 Q752.7516,654.9375 752.9625,654.8438 Q753.1734,654.75 753.4313,654.75 Q753.9234,654.75 754.275,655.1484 Q754.65,655.5234 754.65,656.0625 Q754.65,656.5781 754.1344,657.1875 Q753.3844,658.0781 752.1891,658.5703 Q750.6188,659.25 748.6969,659.25 Q746.4469,659.25 744.6422,658.3594 Q743.1891,657.6563 742.1578,656.1328 Q741.15,654.6094 741.15,652.8047 L741.15,651.1641 Q741.15,649.2891 742.0406,647.6484 Q742.9547,646.0078 744.525,645.1406 Q746.1188,644.25 747.9,644.25 Q748.9781,644.25 749.9156,644.625 Q750.8531,645 751.65,645.75 Z " fill="#000000"/><text fill="#000000" font-family="sans-serif" font-size="18" lengthAdjust="spacing" textLength="109.5" x="770.85" y="658.3652">ClientMapper</text><line style="stroke:#A80036;stroke-width:2.25;" x1="722.25" x2="888.75" y1="675" y2="675"/><line style="stroke:#A80036;stroke-width:2.25;" x1="722.25" x2="888.75" y1="687" y2="687"/><ellipse cx="737.25" cy="703.5" fill="#84BE84" rx="4.5" ry="4.5" style="stroke:#038048;stroke-width:1.5;"/><text fill="#000000" font-family="sans-serif" font-size="16.5" lengthAdjust="spacing" textLength="130.5" x="750.75" y="710.1284">toDTO(ClientsList)</text><!--MD5=[144698ec4d0188f6929a3b58a3eeb1f6]
class TestMapper--><rect codeLine="114" fill="#FEFECE" filter="url(#f2c20hngxudon)" height="92.7539" id="TestMapper" style="stroke:#A80036;stroke-width:2.25;" width="180" x="487.5" y="627"/><ellipse cx="525.525" cy="651" fill="#ADD1B2" rx="16.5" ry="16.5" style="stroke:#A80036;stroke-width:1.5;"/><path d="M528.525,645.75 Q528.8297,645 529.1813,644.625 Q529.5328,644.25 529.9313,644.25 Q530.6344,644.25 531.0797,644.6719 Q531.525,645.0938 531.525,646.0781 L531.525,648.4219 Q531.525,649.4063 531.1031,649.8281 Q530.6813,650.25 530.025,650.25 Q529.4391,650.25 529.0641,649.9922 Q528.6891,649.7344 528.525,649.0547 Q528.4547,648.5859 528.1969,648.3281 Q527.7281,647.8359 526.8844,647.5547 Q526.0406,647.25 525.1969,647.25 Q524.1422,647.25 523.2516,647.6719 Q522.3844,648.0938 521.7047,649.0313 Q521.025,649.9688 521.025,651.2578 L521.025,652.6406 Q521.025,654.1875 522.2906,655.2188 Q523.5563,656.25 525.8063,656.25 Q527.1422,656.25 528.0797,655.9453 Q528.6188,655.7813 529.2281,655.2422 Q529.6266,654.9375 529.8375,654.8438 Q530.0484,654.75 530.3063,654.75 Q530.7984,654.75 531.15,655.1484 Q531.525,655.5234 531.525,656.0625 Q531.525,656.5781 531.0094,657.1875 Q530.2594,658.0781 529.0641,658.5703 Q527.4938,659.25 525.5719,659.25 Q523.3219,659.25 521.5172,658.3594 Q520.0641,657.6563 519.0328,656.1328 Q518.025,654.6094 518.025,652.8047 L518.025,651.1641 Q518.025,649.2891 518.9156,647.6484 Q519.8297,646.0078 521.4,645.1406 Q522.9938,644.25 524.775,644.25 Q525.8531,644.25 526.7906,644.625 Q527.7281,645 528.525,645.75 Z " fill="#000000"/><text fill="#000000" font-family="sans-serif" font-size="18" lengthAdjust="spacing" textLength="97.5" x="549.975" y="658.3652">TestMapper</text><line style="stroke:#A80036;stroke-width:2.25;" x1="489" x2="666" y1="675" y2="675"/><line style="stroke:#A80036;stroke-width:2.25;" x1="489" x2="666" y1="687" y2="687"/><ellipse cx="504" cy="703.5" fill="#84BE84" rx="4.5" ry="4.5" style="stroke:#038048;stroke-width:1.5;"/><text fill="#000000" font-family="sans-serif" font-size="16.5" lengthAdjust="spacing" textLength="141" x="517.5" y="710.1284">toDTO(ListOfTests)</text><!--MD5=[d92da6d3e9b1e9631354e1a6db35e891]
class ClientDTO--><rect codeLine="47" fill="#FEFECE" filter="url(#f2c20hngxudon)" height="404.0625" id="ClientDTO" style="stroke:#A80036;stroke-width:2.25;" width="348" x="523.5" y="844.5"/><ellipse cx="648.375" cy="868.5" fill="#ADD1B2" rx="16.5" ry="16.5" style="stroke:#A80036;stroke-width:1.5;"/><path d="M651.375,863.25 Q651.6797,862.5 652.0313,862.125 Q652.3828,861.75 652.7813,861.75 Q653.4844,861.75 653.9297,862.1719 Q654.375,862.5938 654.375,863.5781 L654.375,865.9219 Q654.375,866.9063 653.9531,867.3281 Q653.5313,867.75 652.875,867.75 Q652.2891,867.75 651.9141,867.4922 Q651.5391,867.2344 651.375,866.5547 Q651.3047,866.0859 651.0469,865.8281 Q650.5781,865.3359 649.7344,865.0547 Q648.8906,864.75 648.0469,864.75 Q646.9922,864.75 646.1016,865.1719 Q645.2344,865.5938 644.5547,866.5313 Q643.875,867.4688 643.875,868.7578 L643.875,870.1406 Q643.875,871.6875 645.1406,872.7188 Q646.4063,873.75 648.6563,873.75 Q649.9922,873.75 650.9297,873.4453 Q651.4688,873.2813 652.0781,872.7422 Q652.4766,872.4375 652.6875,872.3438 Q652.8984,872.25 653.1563,872.25 Q653.6484,872.25 654,872.6484 Q654.375,873.0234 654.375,873.5625 Q654.375,874.0781 653.8594,874.6875 Q653.1094,875.5781 651.9141,876.0703 Q650.3438,876.75 648.4219,876.75 Q646.1719,876.75 644.3672,875.8594 Q642.9141,875.1563 641.8828,873.6328 Q640.875,872.1094 640.875,870.3047 L640.875,868.6641 Q640.875,866.7891 641.7656,865.1484 Q642.6797,863.5078 644.25,862.6406 Q645.8438,861.75 647.625,861.75 Q648.7031,861.75 649.6406,862.125 Q650.5781,862.5 651.375,863.25 Z " fill="#000000"/><text fill="#000000" font-family="sans-serif" font-size="18" lengthAdjust="spacing" textLength="85.5" x="679.125" y="875.8652">ClientDTO</text><line style="stroke:#A80036;stroke-width:2.25;" x1="525" x2="870" y1="892.5" y2="892.5"/><rect fill="none" height="9" style="stroke:#C82930;stroke-width:1.5;" width="9" x="535.5" y="904.5"/><text fill="#000000" font-family="sans-serif" font-size="16.5" lengthAdjust="spacing" textLength="136.5" x="553.5" y="915.6284">citizenCardNumber</text><rect fill="none" height="9" style="stroke:#C82930;stroke-width:1.5;" width="9" x="535.5" y="925.2539"/><text fill="#000000" font-family="sans-serif" font-size="16.5" lengthAdjust="spacing" textLength="64.5" x="553.5" y="936.3823">nhsCode</text><rect fill="none" height="9" style="stroke:#C82930;stroke-width:1.5;" width="9" x="535.5" y="946.0078"/><text fill="#000000" font-family="sans-serif" font-size="16.5" lengthAdjust="spacing" textLength="64.5" x="553.5" y="957.1362">birthDate</text><rect fill="none" height="9" style="stroke:#C82930;stroke-width:1.5;" width="9" x="535.5" y="966.7617"/><text fill="#000000" font-family="sans-serif" font-size="16.5" lengthAdjust="spacing" textLength="27" x="553.5" y="977.8901">sex</text><rect fill="none" height="9" style="stroke:#C82930;stroke-width:1.5;" width="9" x="535.5" y="987.5156"/><text fill="#000000" font-family="sans-serif" font-size="16.5" lengthAdjust="spacing" textLength="13.5" x="553.5" y="998.644">tif</text><rect fill="none" height="9" style="stroke:#C82930;stroke-width:1.5;" width="9" x="535.5" y="1008.2695"/><text fill="#000000" font-family="sans-serif" font-size="16.5" lengthAdjust="spacing" textLength="100.5" x="553.5" y="1019.3979">phoneNumber</text><rect fill="none" height="9" style="stroke:#C82930;stroke-width:1.5;" width="9" x="535.5" y="1029.0234"/><text fill="#000000" font-family="sans-serif" font-size="16.5" lengthAdjust="spacing" textLength="42" x="553.5" y="1040.1519">e-mail</text><rect fill="none" height="9" style="stroke:#C82930;stroke-width:1.5;" width="9" x="535.5" y="1049.7773"/><text fill="#000000" font-family="sans-serif" font-size="16.5" lengthAdjust="spacing" textLength="39" x="553.5" y="1060.9058">name</text><line style="stroke:#A80036;stroke-width:2.25;" x1="525" x2="870" y1="1070.5313" y2="1070.5313"/><ellipse cx="540" cy="1087.0313" fill="#84BE84" rx="4.5" ry="4.5" style="stroke:#038048;stroke-width:1.5;"/><text fill="#000000" font-family="sans-serif" font-size="16.5" lengthAdjust="spacing" textLength="114" x="553.5" y="1093.6597">getName(name)</text><ellipse cx="540" cy="1107.7852" fill="#84BE84" rx="4.5" ry="4.5" style="stroke:#038048;stroke-width:1.5;"/><text fill="#000000" font-family="sans-serif" font-size="16.5" lengthAdjust="spacing" textLength="309" x="553.5" y="1114.4136">getCitizenCardNumber(citizenCardNumber)</text><ellipse cx="540" cy="1128.5391" fill="#84BE84" rx="4.5" ry="4.5" style="stroke:#038048;stroke-width:1.5;"/><text fill="#000000" font-family="sans-serif" font-size="16.5" lengthAdjust="spacing" textLength="165" x="553.5" y="1135.1675">getNhsCode(nhsCode)</text><ellipse cx="540" cy="1149.293" fill="#84BE84" rx="4.5" ry="4.5" style="stroke:#038048;stroke-width:1.5;"/><text fill="#000000" font-family="sans-serif" font-size="16.5" lengthAdjust="spacing" textLength="201" x="553.5" y="1155.9214">getDateOfBirth(dateOfBirth)</text><ellipse cx="540" cy="1170.0469" fill="#84BE84" rx="4.5" ry="4.5" style="stroke:#038048;stroke-width:1.5;"/><text fill="#000000" font-family="sans-serif" font-size="16.5" lengthAdjust="spacing" textLength="106.5" x="553.5" y="1176.6753">getEmail(email)</text><ellipse cx="540" cy="1190.8008" fill="#84BE84" rx="4.5" ry="4.5" style="stroke:#038048;stroke-width:1.5;"/><text fill="#000000" font-family="sans-serif" font-size="16.5" lengthAdjust="spacing" textLength="235.5" x="553.5" y="1197.4292">getPhoneNumber(phoneNumber)</text><ellipse cx="540" cy="1211.5547" fill="#84BE84" rx="4.5" ry="4.5" style="stroke:#038048;stroke-width:1.5;"/><text fill="#000000" font-family="sans-serif" font-size="16.5" lengthAdjust="spacing" textLength="123" x="553.5" y="1218.1831">getDateOfTin(tin)</text><ellipse cx="540" cy="1232.3086" fill="#84BE84" rx="4.5" ry="4.5" style="stroke:#038048;stroke-width:1.5;"/><text fill="#000000" font-family="sans-serif" font-size="16.5" lengthAdjust="spacing" textLength="90" x="553.5" y="1238.937">getSex(sex)</text><!--MD5=[9fb704ffefcaf68bf1a361787afa998b]
class TestDTO--><rect codeLine="67" fill="#FEFECE" filter="url(#f2c20hngxudon)" height="134.2617" id="TestDTO" style="stroke:#A80036;stroke-width:2.25;" width="163.5" x="924.75" y="978.75"/><ellipse cx="966.15" cy="1002.75" fill="#ADD1B2" rx="16.5" ry="16.5" style="stroke:#A80036;stroke-width:1.5;"/><path d="M969.15,997.5 Q969.4547,996.75 969.8063,996.375 Q970.1578,996 970.5563,996 Q971.2594,996 971.7047,996.4219 Q972.15,996.8438 972.15,997.8281 L972.15,1000.1719 Q972.15,1001.1563 971.7281,1001.5781 Q971.3063,1002 970.65,1002 Q970.0641,1002 969.6891,1001.7422 Q969.3141,1001.4844 969.15,1000.8047 Q969.0797,1000.3359 968.8219,1000.0781 Q968.3531,999.5859 967.5094,999.3047 Q966.6656,999 965.8219,999 Q964.7672,999 963.8766,999.4219 Q963.0094,999.8438 962.3297,1000.7813 Q961.65,1001.7188 961.65,1003.0078 L961.65,1004.3906 Q961.65,1005.9375 962.9156,1006.9688 Q964.1813,1008 966.4313,1008 Q967.7672,1008 968.7047,1007.6953 Q969.2438,1007.5313 969.8531,1006.9922 Q970.2516,1006.6875 970.4625,1006.5938 Q970.6734,1006.5 970.9313,1006.5 Q971.4234,1006.5 971.775,1006.8984 Q972.15,1007.2734 972.15,1007.8125 Q972.15,1008.3281 971.6344,1008.9375 Q970.8844,1009.8281 969.6891,1010.3203 Q968.1188,1011 966.1969,1011 Q963.9469,1011 962.1422,1010.1094 Q960.6891,1009.4063 959.6578,1007.8828 Q958.65,1006.3594 958.65,1004.5547 L958.65,1002.9141 Q958.65,1001.0391 959.5406,999.3984 Q960.4547,997.7578 962.025,996.8906 Q963.6188,996 965.4,996 Q966.4781,996 967.4156,996.375 Q968.3531,996.75 969.15,997.5 Z " fill="#000000"/><text fill="#000000" font-family="sans-serif" font-size="18" lengthAdjust="spacing" textLength="73.5" x="991.35" y="1010.1152">TestDTO</text><line style="stroke:#A80036;stroke-width:2.25;" x1="926.25" x2="1086.75" y1="1026.75" y2="1026.75"/><rect fill="none" height="9" style="stroke:#C82930;stroke-width:1.5;" width="9" x="936.75" y="1038.75"/><text fill="#000000" font-family="sans-serif" font-size="16.5" lengthAdjust="spacing" textLength="90" x="954.75" y="1049.8784">internalCode</text><rect fill="none" height="9" style="stroke:#C82930;stroke-width:1.5;" width="9" x="936.75" y="1059.5039"/><text fill="#000000" font-family="sans-serif" font-size="16.5" lengthAdjust="spacing" textLength="79.5" x="954.75" y="1070.6323">description</text><line style="stroke:#A80036;stroke-width:2.25;" x1="926.25" x2="1086.75" y1="1080.2578" y2="1080.2578"/><ellipse cx="941.25" cy="1096.7578" fill="#84BE84" rx="4.5" ry="4.5" style="stroke:#038048;stroke-width:1.5;"/><text fill="#000000" font-family="sans-serif" font-size="16.5" lengthAdjust="spacing" textLength="124.5" x="954.75" y="1103.3862">getInternalCode()</text><!--MD5=[02e4b9b7573f1156f41e60aa5b4e25a4]
class Company--><rect codeLine="73" fill="#FEFECE" filter="url(#f2c20hngxudon)" height="92.7539" id="Company" style="stroke:#A80036;stroke-width:2.25;" width="144" x="84" y="1884.75"/><ellipse cx="113.925" cy="1908.75" fill="#ADD1B2" rx="16.5" ry="16.5" style="stroke:#A80036;stroke-width:1.5;"/><path d="M116.925,1903.5 Q117.2297,1902.75 117.5813,1902.375 Q117.9328,1902 118.3313,1902 Q119.0344,1902 119.4797,1902.4219 Q119.925,1902.8438 119.925,1903.8281 L119.925,1906.1719 Q119.925,1907.1563 119.5031,1907.5781 Q119.0813,1908 118.425,1908 Q117.8391,1908 117.4641,1907.7422 Q117.0891,1907.4844 116.925,1906.8047 Q116.8547,1906.3359 116.5969,1906.0781 Q116.1281,1905.5859 115.2844,1905.3047 Q114.4406,1905 113.5969,1905 Q112.5422,1905 111.6516,1905.4219 Q110.7844,1905.8438 110.1047,1906.7813 Q109.425,1907.7188 109.425,1909.0078 L109.425,1910.3906 Q109.425,1911.9375 110.6906,1912.9688 Q111.9563,1914 114.2063,1914 Q115.5422,1914 116.4797,1913.6953 Q117.0188,1913.5313 117.6281,1912.9922 Q118.0266,1912.6875 118.2375,1912.5938 Q118.4484,1912.5 118.7063,1912.5 Q119.1984,1912.5 119.55,1912.8984 Q119.925,1913.2734 119.925,1913.8125 Q119.925,1914.3281 119.4094,1914.9375 Q118.6594,1915.8281 117.4641,1916.3203 Q115.8938,1917 113.9719,1917 Q111.7219,1917 109.9172,1916.1094 Q108.4641,1915.4063 107.4328,1913.8828 Q106.425,1912.3594 106.425,1910.5547 L106.425,1908.9141 Q106.425,1907.0391 107.3156,1905.3984 Q108.2297,1903.7578 109.8,1902.8906 Q111.3938,1902 113.175,1902 Q114.2531,1902 115.1906,1902.375 Q116.1281,1902.75 116.925,1903.5 Z " fill="#000000"/><text fill="#000000" font-family="sans-serif" font-size="18" lengthAdjust="spacing" textLength="79.5" x="136.575" y="1916.1152">Company</text><line style="stroke:#A80036;stroke-width:2.25;" x1="85.5" x2="226.5" y1="1932.75" y2="1932.75"/><line style="stroke:#A80036;stroke-width:2.25;" x1="85.5" x2="226.5" y1="1944.75" y2="1944.75"/><ellipse cx="100.5" cy="1961.25" fill="#84BE84" rx="4.5" ry="4.5" style="stroke:#038048;stroke-width:1.5;"/><text fill="#000000" font-family="sans-serif" font-size="16.5" lengthAdjust="spacing" textLength="105" x="114" y="1967.8784">getTestStore()</text><!--MD5=[ed6624c6556d5e7b1bd23032162d20b7]
class Client--><rect codeLine="92" fill="#FEFECE" filter="url(#f2c20hngxudon)" height="404.0625" id="Client" style="stroke:#A80036;stroke-width:2.25;" width="348" x="478.5" y="1729.5"/><ellipse cx="622.125" cy="1753.5" fill="#ADD1B2" rx="16.5" ry="16.5" style="stroke:#A80036;stroke-width:1.5;"/><path d="M625.125,1748.25 Q625.4297,1747.5 625.7813,1747.125 Q626.1328,1746.75 626.5313,1746.75 Q627.2344,1746.75 627.6797,1747.1719 Q628.125,1747.5938 628.125,1748.5781 L628.125,1750.9219 Q628.125,1751.9063 627.7031,1752.3281 Q627.2813,1752.75 626.625,1752.75 Q626.0391,1752.75 625.6641,1752.4922 Q625.2891,1752.2344 625.125,1751.5547 Q625.0547,1751.0859 624.7969,1750.8281 Q624.3281,1750.3359 623.4844,1750.0547 Q622.6406,1749.75 621.7969,1749.75 Q620.7422,1749.75 619.8516,1750.1719 Q618.9844,1750.5938 618.3047,1751.5313 Q617.625,1752.4688 617.625,1753.7578 L617.625,1755.1406 Q617.625,1756.6875 618.8906,1757.7188 Q620.1563,1758.75 622.4063,1758.75 Q623.7422,1758.75 624.6797,1758.4453 Q625.2188,1758.2813 625.8281,1757.7422 Q626.2266,1757.4375 626.4375,1757.3438 Q626.6484,1757.25 626.9063,1757.25 Q627.3984,1757.25 627.75,1757.6484 Q628.125,1758.0234 628.125,1758.5625 Q628.125,1759.0781 627.6094,1759.6875 Q626.8594,1760.5781 625.6641,1761.0703 Q624.0938,1761.75 622.1719,1761.75 Q619.9219,1761.75 618.1172,1760.8594 Q616.6641,1760.1563 615.6328,1758.6328 Q614.625,1757.1094 614.625,1755.3047 L614.625,1753.6641 Q614.625,1751.7891 615.5156,1750.1484 Q616.4297,1748.5078 618,1747.6406 Q619.5938,1746.75 621.375,1746.75 Q622.4531,1746.75 623.3906,1747.125 Q624.3281,1747.5 625.125,1748.25 Z " fill="#000000"/><text fill="#000000" font-family="sans-serif" font-size="18" lengthAdjust="spacing" textLength="48" x="652.875" y="1760.8652">Client</text><line style="stroke:#A80036;stroke-width:2.25;" x1="480" x2="825" y1="1777.5" y2="1777.5"/><rect fill="none" height="9" style="stroke:#C82930;stroke-width:1.5;" width="9" x="490.5" y="1789.5"/><text fill="#000000" font-family="sans-serif" font-size="16.5" lengthAdjust="spacing" textLength="136.5" x="508.5" y="1800.6284">citizenCardNumber</text><rect fill="none" height="9" style="stroke:#C82930;stroke-width:1.5;" width="9" x="490.5" y="1810.2539"/><text fill="#000000" font-family="sans-serif" font-size="16.5" lengthAdjust="spacing" textLength="64.5" x="508.5" y="1821.3823">nhsCode</text><rect fill="none" height="9" style="stroke:#C82930;stroke-width:1.5;" width="9" x="490.5" y="1831.0078"/><text fill="#000000" font-family="sans-serif" font-size="16.5" lengthAdjust="spacing" textLength="64.5" x="508.5" y="1842.1362">birthDate</text><rect fill="none" height="9" style="stroke:#C82930;stroke-width:1.5;" width="9" x="490.5" y="1851.7617"/><text fill="#000000" font-family="sans-serif" font-size="16.5" lengthAdjust="spacing" textLength="27" x="508.5" y="1862.8901">sex</text><rect fill="none" height="9" style="stroke:#C82930;stroke-width:1.5;" width="9" x="490.5" y="1872.5156"/><text fill="#000000" font-family="sans-serif" font-size="16.5" lengthAdjust="spacing" textLength="13.5" x="508.5" y="1883.644">tif</text><rect fill="none" height="9" style="stroke:#C82930;stroke-width:1.5;" width="9" x="490.5" y="1893.2695"/><text fill="#000000" font-family="sans-serif" font-size="16.5" lengthAdjust="spacing" textLength="100.5" x="508.5" y="1904.3979">phoneNumber</text><rect fill="none" height="9" style="stroke:#C82930;stroke-width:1.5;" width="9" x="490.5" y="1914.0234"/><text fill="#000000" font-family="sans-serif" font-size="16.5" lengthAdjust="spacing" textLength="42" x="508.5" y="1925.1519">e-mail</text><rect fill="none" height="9" style="stroke:#C82930;stroke-width:1.5;" width="9" x="490.5" y="1934.7773"/><text fill="#000000" font-family="sans-serif" font-size="16.5" lengthAdjust="spacing" textLength="39" x="508.5" y="1945.9058">name</text><line style="stroke:#A80036;stroke-width:2.25;" x1="480" x2="825" y1="1955.5313" y2="1955.5313"/><ellipse cx="495" cy="1972.0313" fill="#84BE84" rx="4.5" ry="4.5" style="stroke:#038048;stroke-width:1.5;"/><text fill="#000000" font-family="sans-serif" font-size="16.5" lengthAdjust="spacing" textLength="114" x="508.5" y="1978.6597">getName(name)</text><ellipse cx="495" cy="1992.7852" fill="#84BE84" rx="4.5" ry="4.5" style="stroke:#038048;stroke-width:1.5;"/><text fill="#000000" font-family="sans-serif" font-size="16.5" lengthAdjust="spacing" textLength="309" x="508.5" y="1999.4136">getCitizenCardNumber(citizenCardNumber)</text><ellipse cx="495" cy="2013.5391" fill="#84BE84" rx="4.5" ry="4.5" style="stroke:#038048;stroke-width:1.5;"/><text fill="#000000" font-family="sans-serif" font-size="16.5" lengthAdjust="spacing" textLength="165" x="508.5" y="2020.1675">getNhsCode(nhsCode)</text><ellipse cx="495" cy="2034.293" fill="#84BE84" rx="4.5" ry="4.5" style="stroke:#038048;stroke-width:1.5;"/><text fill="#000000" font-family="sans-serif" font-size="16.5" lengthAdjust="spacing" textLength="201" x="508.5" y="2040.9214">getDateOfBirth(dateOfBirth)</text><ellipse cx="495" cy="2055.0469" fill="#84BE84" rx="4.5" ry="4.5" style="stroke:#038048;stroke-width:1.5;"/><text fill="#000000" font-family="sans-serif" font-size="16.5" lengthAdjust="spacing" textLength="106.5" x="508.5" y="2061.6753">getEmail(email)</text><ellipse cx="495" cy="2075.8008" fill="#84BE84" rx="4.5" ry="4.5" style="stroke:#038048;stroke-width:1.5;"/><text fill="#000000" font-family="sans-serif" font-size="16.5" lengthAdjust="spacing" textLength="235.5" x="508.5" y="2082.4292">getPhoneNumber(phoneNumber)</text><ellipse cx="495" cy="2096.5547" fill="#84BE84" rx="4.5" ry="4.5" style="stroke:#038048;stroke-width:1.5;"/><text fill="#000000" font-family="sans-serif" font-size="16.5" lengthAdjust="spacing" textLength="123" x="508.5" y="2103.1831">getDateOfTin(tin)</text><ellipse cx="495" cy="2117.3086" fill="#84BE84" rx="4.5" ry="4.5" style="stroke:#038048;stroke-width:1.5;"/><text fill="#000000" font-family="sans-serif" font-size="16.5" lengthAdjust="spacing" textLength="90" x="508.5" y="2123.937">getSex(sex)</text><!--MD5=[df38be88ccee13e832d6fafd6288a4ca]
class Test--><rect codeLine="119" fill="#FEFECE" filter="url(#f2c20hngxudon)" height="113.5078" id="Test" style="stroke:#A80036;stroke-width:2.25;" width="112.5" x="281.25" y="1874.25"/><ellipse cx="316.575" cy="1898.25" fill="#ADD1B2" rx="16.5" ry="16.5" style="stroke:#A80036;stroke-width:1.5;"/><path d="M319.575,1893 Q319.8797,1892.25 320.2313,1891.875 Q320.5828,1891.5 320.9813,1891.5 Q321.6844,1891.5 322.1297,1891.9219 Q322.575,1892.3438 322.575,1893.3281 L322.575,1895.6719 Q322.575,1896.6563 322.1531,1897.0781 Q321.7313,1897.5 321.075,1897.5 Q320.4891,1897.5 320.1141,1897.2422 Q319.7391,1896.9844 319.575,1896.3047 Q319.5047,1895.8359 319.2469,1895.5781 Q318.7781,1895.0859 317.9344,1894.8047 Q317.0906,1894.5 316.2469,1894.5 Q315.1922,1894.5 314.3016,1894.9219 Q313.4344,1895.3438 312.7547,1896.2813 Q312.075,1897.2188 312.075,1898.5078 L312.075,1899.8906 Q312.075,1901.4375 313.3406,1902.4688 Q314.6063,1903.5 316.8563,1903.5 Q318.1922,1903.5 319.1297,1903.1953 Q319.6688,1903.0313 320.2781,1902.4922 Q320.6766,1902.1875 320.8875,1902.0938 Q321.0984,1902 321.3563,1902 Q321.8484,1902 322.2,1902.3984 Q322.575,1902.7734 322.575,1903.3125 Q322.575,1903.8281 322.0594,1904.4375 Q321.3094,1905.3281 320.1141,1905.8203 Q318.5438,1906.5 316.6219,1906.5 Q314.3719,1906.5 312.5672,1905.6094 Q311.1141,1904.9063 310.0828,1903.3828 Q309.075,1901.8594 309.075,1900.0547 L309.075,1898.4141 Q309.075,1896.5391 309.9656,1894.8984 Q310.8797,1893.2578 312.45,1892.3906 Q314.0438,1891.5 315.825,1891.5 Q316.9031,1891.5 317.8406,1891.875 Q318.7781,1892.25 319.575,1893 Z " fill="#000000"/><text fill="#000000" font-family="sans-serif" font-size="18" lengthAdjust="spacing" textLength="36" x="340.425" y="1905.6152">Test</text><line style="stroke:#A80036;stroke-width:2.25;" x1="282.75" x2="392.25" y1="1922.25" y2="1922.25"/><rect fill="none" height="9" style="stroke:#C82930;stroke-width:1.5;" width="9" x="293.25" y="1934.25"/><text fill="#000000" font-family="sans-serif" font-size="16.5" lengthAdjust="spacing" textLength="37.5" x="311.25" y="1945.3784">client</text><line style="stroke:#A80036;stroke-width:2.25;" x1="282.75" x2="392.25" y1="1955.0039" y2="1955.0039"/><ellipse cx="297.75" cy="1971.5039" fill="#84BE84" rx="4.5" ry="4.5" style="stroke:#038048;stroke-width:1.5;"/><text fill="#000000" font-family="sans-serif" font-size="16.5" lengthAdjust="spacing" textLength="73.5" x="311.25" y="1978.1323">getClient()</text><!--MD5=[55cb992be19579b505cea3c5691093cb]
class ClientStore--><rect codeLine="78" fill="#FEFECE" filter="url(#f2c20hngxudon)" height="92.7539" id="ClientStore" style="stroke:#A80036;stroke-width:2.25;" width="277.5" x="504.75" y="2518.5"/><ellipse cx="591.375" cy="2542.5" fill="#ADD1B2" rx="16.5" ry="16.5" style="stroke:#A80036;stroke-width:1.5;"/><path d="M594.375,2537.25 Q594.6797,2536.5 595.0313,2536.125 Q595.3828,2535.75 595.7813,2535.75 Q596.4844,2535.75 596.9297,2536.1719 Q597.375,2536.5938 597.375,2537.5781 L597.375,2539.9219 Q597.375,2540.9063 596.9531,2541.3281 Q596.5313,2541.75 595.875,2541.75 Q595.2891,2541.75 594.9141,2541.4922 Q594.5391,2541.2344 594.375,2540.5547 Q594.3047,2540.0859 594.0469,2539.8281 Q593.5781,2539.3359 592.7344,2539.0547 Q591.8906,2538.75 591.0469,2538.75 Q589.9922,2538.75 589.1016,2539.1719 Q588.2344,2539.5938 587.5547,2540.5313 Q586.875,2541.4688 586.875,2542.7578 L586.875,2544.1406 Q586.875,2545.6875 588.1406,2546.7188 Q589.4063,2547.75 591.6563,2547.75 Q592.9922,2547.75 593.9297,2547.4453 Q594.4688,2547.2813 595.0781,2546.7422 Q595.4766,2546.4375 595.6875,2546.3438 Q595.8984,2546.25 596.1563,2546.25 Q596.6484,2546.25 597,2546.6484 Q597.375,2547.0234 597.375,2547.5625 Q597.375,2548.0781 596.8594,2548.6875 Q596.1094,2549.5781 594.9141,2550.0703 Q593.3438,2550.75 591.4219,2550.75 Q589.1719,2550.75 587.3672,2549.8594 Q585.9141,2549.1563 584.8828,2547.6328 Q583.875,2546.1094 583.875,2544.3047 L583.875,2542.6641 Q583.875,2540.7891 584.7656,2539.1484 Q585.6797,2537.5078 587.25,2536.6406 Q588.8438,2535.75 590.625,2535.75 Q591.7031,2535.75 592.6406,2536.125 Q593.5781,2536.5 594.375,2537.25 Z " fill="#000000"/><text fill="#000000" font-family="sans-serif" font-size="18" lengthAdjust="spacing" textLength="91.5" x="622.125" y="2549.8652">ClientStore</text><line style="stroke:#A80036;stroke-width:2.25;" x1="506.25" x2="780.75" y1="2566.5" y2="2566.5"/><line style="stroke:#A80036;stroke-width:2.25;" x1="506.25" x2="780.75" y1="2578.5" y2="2578.5"/><ellipse cx="521.25" cy="2595" fill="#84BE84" rx="4.5" ry="4.5" style="stroke:#038048;stroke-width:1.5;"/><text fill="#000000" font-family="sans-serif" font-size="16.5" lengthAdjust="spacing" textLength="238.5" x="534.75" y="2601.6284">getClientListWithTestsValidated()</text><!--MD5=[0f6f7964b844a64b0496af0dda7914bd]
class TestStore--><rect codeLine="87" fill="#FEFECE" filter="url(#f2c20hngxudon)" height="113.5078" id="TestStore" style="stroke:#A80036;stroke-width:2.25;" width="358.5" x="93.75" y="2508"/><ellipse cx="226.875" cy="2532" fill="#ADD1B2" rx="16.5" ry="16.5" style="stroke:#A80036;stroke-width:1.5;"/><path d="M229.875,2526.75 Q230.1797,2526 230.5313,2525.625 Q230.8828,2525.25 231.2813,2525.25 Q231.9844,2525.25 232.4297,2525.6719 Q232.875,2526.0938 232.875,2527.0781 L232.875,2529.4219 Q232.875,2530.4063 232.4531,2530.8281 Q232.0313,2531.25 231.375,2531.25 Q230.7891,2531.25 230.4141,2530.9922 Q230.0391,2530.7344 229.875,2530.0547 Q229.8047,2529.5859 229.5469,2529.3281 Q229.0781,2528.8359 228.2344,2528.5547 Q227.3906,2528.25 226.5469,2528.25 Q225.4922,2528.25 224.6016,2528.6719 Q223.7344,2529.0938 223.0547,2530.0313 Q222.375,2530.9688 222.375,2532.2578 L222.375,2533.6406 Q222.375,2535.1875 223.6406,2536.2188 Q224.9063,2537.25 227.1563,2537.25 Q228.4922,2537.25 229.4297,2536.9453 Q229.9688,2536.7813 230.5781,2536.2422 Q230.9766,2535.9375 231.1875,2535.8438 Q231.3984,2535.75 231.6563,2535.75 Q232.1484,2535.75 232.5,2536.1484 Q232.875,2536.5234 232.875,2537.0625 Q232.875,2537.5781 232.3594,2538.1875 Q231.6094,2539.0781 230.4141,2539.5703 Q228.8438,2540.25 226.9219,2540.25 Q224.6719,2540.25 222.8672,2539.3594 Q221.4141,2538.6563 220.3828,2537.1328 Q219.375,2535.6094 219.375,2533.8047 L219.375,2532.1641 Q219.375,2530.2891 220.2656,2528.6484 Q221.1797,2527.0078 222.75,2526.1406 Q224.3438,2525.25 226.125,2525.25 Q227.2031,2525.25 228.1406,2525.625 Q229.0781,2526 229.875,2526.75 Z " fill="#000000"/><text fill="#000000" font-family="sans-serif" font-size="18" lengthAdjust="spacing" textLength="79.5" x="257.625" y="2539.3652">TestStore</text><line style="stroke:#A80036;stroke-width:2.25;" x1="95.25" x2="450.75" y1="2556" y2="2556"/><line style="stroke:#A80036;stroke-width:2.25;" x1="95.25" x2="450.75" y1="2568" y2="2568"/><ellipse cx="110.25" cy="2584.5" fill="#84BE84" rx="4.5" ry="4.5" style="stroke:#038048;stroke-width:1.5;"/><text fill="#000000" font-family="sans-serif" font-size="16.5" lengthAdjust="spacing" textLength="222" x="123.75" y="2591.1284">getClientsWithValidatedTests()</text><ellipse cx="110.25" cy="2605.2539" fill="#84BE84" rx="4.5" ry="4.5" style="stroke:#038048;stroke-width:1.5;"/><text fill="#000000" font-family="sans-serif" font-size="16.5" lengthAdjust="spacing" textLength="319.5" x="123.75" y="2611.8823">getTestAssociatedWithClient(selectedClient)</text><!--MD5=[d6561e92f0be27e487d269a41628b178]
link SeeTestsUI to SeeTestsController--><path codeLine="125" d="M932.07,201.015 C887.76,240.795 813.735,307.26 756.72,358.455 " fill="none" id="SeeTestsUI-to-SeeTestsController" style="stroke:#A80036;stroke-width:1.5;stroke-dasharray:7.0,7.0;"/><polygon fill="#A80036" points="750.57,363.99,764.6183,359.4187,756.1447,358.9728,756.5907,350.4992,750.57,363.99" style="stroke:#A80036;stroke-width:1.5;"/><!--MD5=[950fda1a1a9f55d3a0db0476ac073e57]
link SeeTestsUI to ClientDTO--><path codeLine="126" d="M973.575,201.345 C982.965,315.84 1006.5,678.255 937.5,766.5 C926.325,780.78 913.35,768.09 898.5,778.5 C874.455,795.36 852.045,815.97 831.57,838.215 " fill="none" id="SeeTestsUI-to-ClientDTO" style="stroke:#A80036;stroke-width:1.5;stroke-dasharray:7.0,7.0;"/><polygon fill="#A80036" points="826.41,843.9,839.925,837.9338,831.4497,838.3456,831.038,829.8703,826.41,843.9" style="stroke:#A80036;stroke-width:1.5;"/><!--MD5=[da19ebf839da0f5b392f9687cb24b47a]
link SeeTestsUI to TestDTO--><path codeLine="127" d="M985.095,201.03 C994.125,224.295 1004.835,255.915 1009.5,285 C1049.415,533.94 1028.055,834.675 1014.66,971.085 " fill="none" id="SeeTestsUI-to-TestDTO" style="stroke:#A80036;stroke-width:1.5;stroke-dasharray:7.0,7.0;"/><polygon fill="#A80036" points="1013.91,978.645,1021.2308,965.8132,1014.6605,971.1826,1009.2911,964.6123,1013.91,978.645" style="stroke:#A80036;stroke-width:1.5;"/><!--MD5=[6ebc42fbb22f45d25e6168d97a26701b]
link SeeTestsController to TestMapper--><path codeLine="128" d="M648.93,499.935 C633.33,537.51 614.085,583.845 599.505,618.975 " fill="none" id="SeeTestsController-to-TestMapper" style="stroke:#A80036;stroke-width:1.5;stroke-dasharray:7.0,7.0;"/><polygon fill="#A80036" points="596.475,626.295,607.1901,616.1246,599.349,619.3675,596.1061,611.5263,596.475,626.295" style="stroke:#A80036;stroke-width:1.5;"/><!--MD5=[d96acf488ec8abe6abda7b0ea1ec0948]
link SeeTestsController to ClientMapper--><path codeLine="129" d="M712.44,499.935 C732.84,537.66 758.025,584.235 777.06,619.41 " fill="none" id="SeeTestsController-to-ClientMapper" style="stroke:#A80036;stroke-width:1.5;stroke-dasharray:7.0,7.0;"/><polygon fill="#A80036" points="780.78,626.295,779.6198,611.5673,777.2051,619.7018,769.0707,617.2872,780.78,626.295" style="stroke:#A80036;stroke-width:1.5;"/><!--MD5=[12463469446cfa35038e1e4c7e5eef4f]
link SeeTestsController to Company--><path codeLine="130" d="M496.65,450.15 C359.325,473.955 193.5,531.72 193.5,672 C193.5,672 193.5,672 193.5,1473 C193.5,1619.745 174.03,1792.11 163.155,1877.025 " fill="none" id="SeeTestsController-to-Company" style="stroke:#A80036;stroke-width:1.5;stroke-dasharray:7.0,7.0;"/><polygon fill="#A80036" points="162.195,1884.465,169.8814,1871.8487,163.1595,1877.0273,157.981,1870.3055,162.195,1884.465" style="stroke:#A80036;stroke-width:1.5;"/><!--MD5=[7f6cf7f175eae0af66201860de5de971]
link Company to TestStore--><path codeLine="131" d="M144.705,1978.035 C127.785,2053.905 101.4,2210.745 136.5,2337 C153.375,2397.705 191.4,2458.425 223.035,2501.7 " fill="none" id="Company-to-TestStore" style="stroke:#A80036;stroke-width:1.5;"/><polygon fill="#A80036" points="227.655,2507.955,224.4457,2493.5345,223.1928,2501.9268,214.8006,2500.674,227.655,2507.955" style="stroke:#A80036;stroke-width:1.5;"/><text fill="#000000" font-family="sans-serif" font-size="19.5" lengthAdjust="spacing" textLength="42" x="138" y="2331.7427">uses</text><text fill="#000000" font-family="sans-serif" font-size="19.5" lengthAdjust="spacing" textLength="10.5" x="130.9477" y="2009.9271">1</text><text fill="#000000" font-family="sans-serif" font-size="19.5" lengthAdjust="spacing" textLength="10.5" x="207.8265" y="2491.5615">1</text><!--MD5=[a11230341c8e65219708844feaa40162]
link Company to ClientStore--><path codeLine="132" d="M152.595,1977.765 C148.92,2058.84 152.715,2230.89 238.5,2337 C311.7,2427.54 377.67,2383.785 478.5,2442 C514.605,2462.85 552.225,2490.06 582.42,2513.46 " fill="none" id="Company-to-ClientStore" style="stroke:#A80036;stroke-width:1.5;"/><polygon fill="#A80036" points="588.36,2518.08,581.3972,2505.0504,582.4433,2513.471,574.0228,2514.5171,588.36,2518.08" style="stroke:#A80036;stroke-width:1.5;"/><text fill="#000000" font-family="sans-serif" font-size="19.5" lengthAdjust="spacing" textLength="42" x="240" y="2331.7427">uses</text><text fill="#000000" font-family="sans-serif" font-size="19.5" lengthAdjust="spacing" textLength="10.5" x="152.9582" y="2009.604">1</text><text fill="#000000" font-family="sans-serif" font-size="19.5" lengthAdjust="spacing" textLength="10.5" x="565.4046" y="2502.2502">1</text><!--MD5=[1d934105a045dbf126514c6917bd5072]
link ClientStore to Client--><path codeLine="133" d="M644.145,2517.885 C645.27,2439.69 647.61,2275.425 649.53,2140.8 " fill="none" id="ClientStore-to-Client" style="stroke:#A80036;stroke-width:1.5;"/><polygon fill="#A80036" points="649.635,2133.195,643.4428,2146.6079,649.5279,2140.6942,655.4416,2146.7793,649.635,2133.195" style="stroke:#A80036;stroke-width:1.5;"/><text fill="#000000" font-family="sans-serif" font-size="19.5" lengthAdjust="spacing" textLength="45" x="648" y="2331.7427">know</text><text fill="#000000" font-family="sans-serif" font-size="19.5" lengthAdjust="spacing" textLength="10.5" x="632.6952" y="2502.015">1</text><text fill="#000000" font-family="sans-serif" font-size="19.5" lengthAdjust="spacing" textLength="7.5" x="641.7526" y="2165.8054">*</text><!--MD5=[b0f4f6db8206580012ef9cd998ed01c5]
link TestStore to Test--><path codeLine="134" d="M278.715,2507.655 C290.67,2390.64 318.315,2120.37 330.96,1996.665 " fill="none" id="TestStore-to-Test" style="stroke:#A80036;stroke-width:1.5;"/><polygon fill="#A80036" points="331.77,1988.73,324.4165,2001.5431,331.0004,1996.1904,336.3531,2002.7744,331.77,1988.73" style="stroke:#A80036;stroke-width:1.5;"/><text fill="#000000" font-family="sans-serif" font-size="19.5" lengthAdjust="spacing" textLength="45" x="300" y="2331.7427">know</text><text fill="#000000" font-family="sans-serif" font-size="19.5" lengthAdjust="spacing" textLength="10.5" x="268.2978" y="2491.6364">1</text><text fill="#000000" font-family="sans-serif" font-size="19.5" lengthAdjust="spacing" textLength="7.5" x="322.7591" y="2020.1273">*</text><!--MD5=[f6fda4afaf882dd39139bcbf06c50c8c]
link TestMapper to TestDTO--><path codeLine="135" d="M667.92,710.67 C676.86,713.94 685.83,717.09 694.5,720 C783.93,749.955 828.36,715.44 898.5,778.5 C953.88,828.3 981.39,910.56 994.71,970.5 " fill="none" id="TestMapper-to-TestDTO" style="stroke:#A80036;stroke-width:1.5;stroke-dasharray:7.0,7.0;"/><polygon fill="#A80036" points="996.42,978.42,999.4293,963.9565,994.8339,971.0896,987.7007,966.4942,996.42,978.42" style="stroke:#A80036;stroke-width:1.5;"/><!--MD5=[8d9a2c3ea1bf73d8d45b939465e53fff]
link TestMapper to Test--><path codeLine="136" d="M492.105,720.18 C468.54,736.005 444.75,755.64 427.5,778.5 C352.26,878.205 337.5,919.845 337.5,1044.75 C337.5,1044.75 337.5,1044.75 337.5,1473 C337.5,1613.475 337.5,1778.25 337.5,1866.435 " fill="none" id="TestMapper-to-Test" style="stroke:#A80036;stroke-width:1.5;stroke-dasharray:7.0,7.0;"/><polygon fill="#A80036" points="337.5,1874.205,343.5,1860.705,337.5,1866.705,331.5,1860.705,337.5,1874.205" style="stroke:#A80036;stroke-width:1.5;"/><!--MD5=[af3939234646809cec66923e43961aa6]
link ClientMapper to ClientDTO--><path codeLine="137" d="M792.255,720.345 C783.42,750.6 771.09,792.78 758.25,836.745 " fill="none" id="ClientMapper-to-ClientDTO" style="stroke:#A80036;stroke-width:1.5;stroke-dasharray:7.0,7.0;"/><polygon fill="#A80036" points="756.03,844.38,765.6009,833.1262,758.1497,837.1858,754.0901,829.7346,756.03,844.38" style="stroke:#A80036;stroke-width:1.5;"/><!--MD5=[7e87959ebe2e461efeab352c4ade48a9]
link ClientMapper to Client--><path codeLine="138" d="M720.36,710.46 C711.675,713.79 702.93,717.03 694.5,720 C609.15,750.03 560.67,711.825 499.5,778.5 C417.78,867.57 444,923.88 444,1044.75 C444,1044.75 444,1044.75 444,1473 C444,1559.31 475.185,1647.18 513.435,1722.495 " fill="none" id="ClientMapper-to-Client" style="stroke:#A80036;stroke-width:1.5;stroke-dasharray:7.0,7.0;"/><polygon fill="#A80036" points="516.93,1729.275,516.0894,1714.5256,513.4989,1722.6058,505.4187,1720.0154,516.93,1729.275" style="stroke:#A80036;stroke-width:1.5;"/><!--MD5=[f0030137b4a30aa92b058feb8744589b]
@startuml
'https://plantuml.com/class-diagram
package ui {
package gui {
class SeeTestsUI
}
}
package controller {
class SeeTestsController
}

package mappers {
package dto {
class ClientDTO
class TestDTO
}
class ClientMapper
class TestMapper
}

package domain {
package model {
package users {
class Client
}
package testrelated {
class Test
}
class Company
}
package store {
class ClientStore
class TestStore
}
}

class SeeTestsUI {
}

class SeeTestsController {
+getClientsWithValidatedTests()
+orderClientList(clientListDto)
+getTestAssociatedWithClient(selectedClient)


}

class  ClientDTO{
-citizenCardNumber
-nhsCode
-birthDate
-sex
-tif
-phoneNumber
-e-mail
-name

+getName(name)
+getCitizenCardNumber(citizenCardNumber)
+getNhsCode(nhsCode)
+getDateOfBirth(dateOfBirth)
+getEmail(email)
+getPhoneNumber(phoneNumber)
+getDateOfTin(tin)
+getSex(sex)
}

class TestDTO{
-internalCode
-description
+getInternalCode()
}

class Company{
+getTestStore()

}

class ClientStore{
+getClientListWithTestsValidated()

}

class ClientMapper{
+toDTO(ClientsList)
}

class TestStore{
+getClientsWithValidatedTests()
+getTestAssociatedWithClient(selectedClient)

}
class Client {
-citizenCardNumber
-nhsCode
-birthDate
-sex
-tif
-phoneNumber
-e-mail
-name

+getName(name)
+getCitizenCardNumber(citizenCardNumber)
+getNhsCode(nhsCode)
+getDateOfBirth(dateOfBirth)
+getEmail(email)
+getPhoneNumber(phoneNumber)
+getDateOfTin(tin)
+getSex(sex)


}

class TestMapper{
+toDTO(ListOfTests)

}

class Test {
-client
+getClient()

}

SeeTestsUI .> SeeTestsController
SeeTestsUI ....> ClientDTO
SeeTestsUI ....> TestDTO
SeeTestsController .> TestMapper
SeeTestsController ..> ClientMapper
SeeTestsController ..> Company
Company "1" - - - -> "1" TestStore : uses
Company "1" - - - - -> "1" ClientStore : uses
ClientStore "1" - -> "*" Client : know
TestStore"1" - -> "*" Test : know
TestMapper ..> TestDTO
TestMapper .....> Test
ClientMapper ..> ClientDTO
ClientMapper ..> Client

@enduml

@startuml
package ui {
package gui {
class SeeTestsUI
}
}
package controller {
class SeeTestsController
}

package mappers {
package dto {
class ClientDTO
class TestDTO
}
class ClientMapper
class TestMapper
}

package domain {
package model {
package users {
class Client
}
package testrelated {
class Test
}
class Company
}
package store {
class ClientStore
class TestStore
}
}

class SeeTestsUI {
}

class SeeTestsController {
+getClientsWithValidatedTests()
+orderClientList(clientListDto)
+getTestAssociatedWithClient(selectedClient)


}

class  ClientDTO{
-citizenCardNumber
-nhsCode
-birthDate
-sex
-tif
-phoneNumber
-e-mail
-name

+getName(name)
+getCitizenCardNumber(citizenCardNumber)
+getNhsCode(nhsCode)
+getDateOfBirth(dateOfBirth)
+getEmail(email)
+getPhoneNumber(phoneNumber)
+getDateOfTin(tin)
+getSex(sex)
}

class TestDTO{
-internalCode
-description
+getInternalCode()
}

class Company{
+getTestStore()

}

class ClientStore{
+getClientListWithTestsValidated()

}

class ClientMapper{
+toDTO(ClientsList)
}

class TestStore{
+getClientsWithValidatedTests()
+getTestAssociatedWithClient(selectedClient)

}
class Client {
-citizenCardNumber
-nhsCode
-birthDate
-sex
-tif
-phoneNumber
-e-mail
-name

+getName(name)
+getCitizenCardNumber(citizenCardNumber)
+getNhsCode(nhsCode)
+getDateOfBirth(dateOfBirth)
+getEmail(email)
+getPhoneNumber(phoneNumber)
+getDateOfTin(tin)
+getSex(sex)


}

class TestMapper{
+toDTO(ListOfTests)

}

class Test {
-client
+getClient()

}

SeeTestsUI .> SeeTestsController
SeeTestsUI ....> ClientDTO
SeeTestsUI ....> TestDTO
SeeTestsController .> TestMapper
SeeTestsController ..> ClientMapper
SeeTestsController ..> Company
Company "1" - - - -> "1" TestStore : uses
Company "1" - - - - -> "1" ClientStore : uses
ClientStore "1" - -> "*" Client : know
TestStore"1" - -> "*" Test : know
TestMapper ..> TestDTO
TestMapper .....> Test
ClientMapper ..> ClientDTO
ClientMapper ..> Client

@enduml

PlantUML version 1.2021.7(Sun May 23 13:40:07 BST 2021)
(GPL source distribution)
Java Runtime: OpenJDK Runtime Environment
JVM: Dynamic Code Evolution 64-Bit Server VM
Default Encoding: Cp1252
Language: pt
Country: PT
--></g></svg>