<?xml version="1.0" encoding="UTF-8" standalone="no"?><svg xmlns="http://www.w3.org/2000/svg" xmlns:xlink="http://www.w3.org/1999/xlink" contentScriptType="application/ecmascript" contentStyleType="text/css" height="171px" preserveAspectRatio="none" style="width:467px;height:171px;" version="1.1" viewBox="0 0 467 171" width="467px" zoomAndPan="magnify"><defs><filter height="300%" id="f19atjd440ohls" width="300%" x="-1" y="-1"><feGaussianBlur result="blurOut" stdDeviation="2.0"/><feColorMatrix in="blurOut" result="blurOut2" type="matrix" values="0 0 0 0 0 0 0 0 0 0 0 0 0 0 0 0 0 0 .4 0"/><feOffset dx="4.0" dy="4.0" in="blurOut2" result="blurOut3"/><feBlend in="SourceGraphic" in2="blurOut3" mode="normal"/></filter></defs><g><!--MD5=[ed6624c6556d5e7b1bd23032162d20b7]
class Client--><rect codeLine="6" fill="#FEFECE" filter="url(#f19atjd440ohls)" height="150.6875" id="Client" style="stroke:#A80036;stroke-width:1.5;" width="107" x="346" y="7"/><ellipse cx="380.35" cy="23" fill="#ADD1B2" rx="11" ry="11" style="stroke:#A80036;stroke-width:1.0;"/><path d="M382.35,19.5 Q382.5531,19 382.7875,18.75 Q383.0219,18.5 383.2875,18.5 Q383.7563,18.5 384.0531,18.7813 Q384.35,19.0625 384.35,19.7188 L384.35,21.2813 Q384.35,21.9375 384.0688,22.2188 Q383.7875,22.5 383.35,22.5 Q382.9594,22.5 382.7094,22.3281 Q382.4594,22.1563 382.35,21.7031 Q382.3031,21.3906 382.1313,21.2188 Q381.8188,20.8906 381.2563,20.7031 Q380.6938,20.5 380.1313,20.5 Q379.4281,20.5 378.8344,20.7813 Q378.2563,21.0625 377.8031,21.6875 Q377.35,22.3125 377.35,23.1719 L377.35,24.0938 Q377.35,25.125 378.1938,25.8125 Q379.0375,26.5 380.5375,26.5 Q381.4281,26.5 382.0531,26.2969 Q382.4125,26.1875 382.8188,25.8281 Q383.0844,25.625 383.225,25.5625 Q383.3656,25.5 383.5375,25.5 Q383.8656,25.5 384.1,25.7656 Q384.35,26.0156 384.35,26.375 Q384.35,26.7188 384.0063,27.125 Q383.5063,27.7188 382.7094,28.0469 Q381.6625,28.5 380.3813,28.5 Q378.8813,28.5 377.6781,27.9063 Q376.7094,27.4375 376.0219,26.4219 Q375.35,25.4063 375.35,24.2031 L375.35,23.1094 Q375.35,21.8594 375.9438,20.7656 Q376.5531,19.6719 377.6,19.0938 Q378.6625,18.5 379.85,18.5 Q380.5688,18.5 381.1938,18.75 Q381.8188,19 382.35,19.5 Z " fill="#000000"/><text fill="#000000" font-family="sans-serif" font-size="12" lengthAdjust="spacing" textLength="32" x="398.65" y="27.9102">Client</text><line style="stroke:#A80036;stroke-width:1.5;" x1="347" x2="452" y1="39" y2="39"/><text fill="#000000" font-family="sans-serif" font-size="11" lengthAdjust="spacing" textLength="30" x="352" y="54.4189">-name</text><text fill="#000000" font-family="sans-serif" font-size="11" lengthAdjust="spacing" textLength="28" x="352" y="68.2549">-email</text><text fill="#000000" font-family="sans-serif" font-size="11" lengthAdjust="spacing" textLength="71" x="352" y="82.0908">-phoneNumber</text><text fill="#000000" font-family="sans-serif" font-size="11" lengthAdjust="spacing" textLength="22" x="352" y="95.9268">-sex</text><text fill="#000000" font-family="sans-serif" font-size="11" lengthAdjust="spacing" textLength="15" x="352" y="109.7627">-tin</text><text fill="#000000" font-family="sans-serif" font-size="11" lengthAdjust="spacing" textLength="47" x="352" y="123.5986">-birthDate</text><text fill="#000000" font-family="sans-serif" font-size="11" lengthAdjust="spacing" textLength="59" x="352" y="137.4346">-nhsNumber</text><text fill="#000000" font-family="sans-serif" font-size="11" lengthAdjust="spacing" textLength="95" x="352" y="151.2705">-citizenCardNumber</text><!--MD5=[df38be88ccee13e832d6fafd6288a4ca]
class Test--><rect codeLine="16" fill="#FEFECE" filter="url(#f19atjd440ohls)" height="150.6875" id="Test" style="stroke:#A80036;stroke-width:1.5;" width="128" x="7" y="7"/><ellipse cx="54.75" cy="23" fill="#ADD1B2" rx="11" ry="11" style="stroke:#A80036;stroke-width:1.0;"/><path d="M56.75,19.5 Q56.9531,19 57.1875,18.75 Q57.4219,18.5 57.6875,18.5 Q58.1563,18.5 58.4531,18.7813 Q58.75,19.0625 58.75,19.7188 L58.75,21.2813 Q58.75,21.9375 58.4688,22.2188 Q58.1875,22.5 57.75,22.5 Q57.3594,22.5 57.1094,22.3281 Q56.8594,22.1563 56.75,21.7031 Q56.7031,21.3906 56.5313,21.2188 Q56.2188,20.8906 55.6563,20.7031 Q55.0938,20.5 54.5313,20.5 Q53.8281,20.5 53.2344,20.7813 Q52.6563,21.0625 52.2031,21.6875 Q51.75,22.3125 51.75,23.1719 L51.75,24.0938 Q51.75,25.125 52.5938,25.8125 Q53.4375,26.5 54.9375,26.5 Q55.8281,26.5 56.4531,26.2969 Q56.8125,26.1875 57.2188,25.8281 Q57.4844,25.625 57.625,25.5625 Q57.7656,25.5 57.9375,25.5 Q58.2656,25.5 58.5,25.7656 Q58.75,26.0156 58.75,26.375 Q58.75,26.7188 58.4063,27.125 Q57.9063,27.7188 57.1094,28.0469 Q56.0625,28.5 54.7813,28.5 Q53.2813,28.5 52.0781,27.9063 Q51.1094,27.4375 50.4219,26.4219 Q49.75,25.4063 49.75,24.2031 L49.75,23.1094 Q49.75,21.8594 50.3438,20.7656 Q50.9531,19.6719 52,19.0938 Q53.0625,18.5 54.25,18.5 Q54.9688,18.5 55.5938,18.75 Q56.2188,19 56.75,19.5 Z " fill="#000000"/><text fill="#000000" font-family="sans-serif" font-size="12" lengthAdjust="spacing" textLength="24" x="75.25" y="27.9102">Test</text><line style="stroke:#A80036;stroke-width:1.5;" x1="8" x2="134" y1="39" y2="39"/><text fill="#000000" font-family="sans-serif" font-size="11" lengthAdjust="spacing" textLength="64" x="13" y="54.4189">-internalCode</text><text fill="#000000" font-family="sans-serif" font-size="11" lengthAdjust="spacing" textLength="47" x="13" y="68.2549">-nhsCode</text><text fill="#000000" font-family="sans-serif" font-size="11" lengthAdjust="spacing" textLength="57" x="13" y="82.0908">-description</text><text fill="#000000" font-family="sans-serif" font-size="11" lengthAdjust="spacing" textLength="116" x="13" y="95.9268">-dateOfSampleCollected</text><text fill="#000000" font-family="sans-serif" font-size="11" lengthAdjust="spacing" textLength="114" x="13" y="109.7627">-timeOfSampleCollected</text><text fill="#000000" font-family="sans-serif" font-size="11" lengthAdjust="spacing" textLength="114" x="13" y="123.5986">-dateOfSampleAnalysis</text><text fill="#000000" font-family="sans-serif" font-size="11" lengthAdjust="spacing" textLength="112" x="13" y="137.4346">-timeOfSampleAnalysis</text><text fill="#000000" font-family="sans-serif" font-size="11" lengthAdjust="spacing" textLength="28" x="13" y="151.2705">-state</text><!--MD5=[3994f36c72829dbcddd1cf7021dddf61]
link Test to Client--><path codeLine="26" d="M135.34,82.5 C196.63,82.5 288.45,82.5 345.84,82.5 " fill="none" id="Test-Client" style="stroke:#A80036;stroke-width:1.0;"/><polygon fill="#000000" points="196,73.6758,205.0451,76.6147,205.0451,70.7369,196,73.6758" style="stroke:#000000;stroke-width:1.0;"/><text fill="#000000" font-family="sans-serif" font-size="13" lengthAdjust="spacing" textLength="74" x="210" y="78.9951">associated a</text><text fill="#000000" font-family="sans-serif" font-size="13" lengthAdjust="spacing" textLength="20" x="143.0063" y="96.8544">1..*</text><text fill="#000000" font-family="sans-serif" font-size="13" lengthAdjust="spacing" textLength="7" x="331.1591" y="97.1147">1</text><!--MD5=[bf03b3c6ce3786f3c419c16daaa29444]
@startuml
'https://plantuml.com/class-diagram
hide methods
left to right direction
skinparam classAttributeIconSize 0

class Client{
 - name
 - email
 - phoneNumber
 - sex
 - tin
 - birthDate
 - nhsNumber
 - citizenCardNumber
}
class Test{
-internalCode
-nhsCode
-description
-dateOfSampleCollected
-timeOfSampleCollected
-dateOfSampleAnalysis
-timeOfSampleAnalysis
-state
}
Test "1..*"- - -"1" Client : associated a <


@enduml

@startuml
hide methods
left to right direction
skinparam classAttributeIconSize 0

class Client{
 - name
 - email
 - phoneNumber
 - sex
 - tin
 - birthDate
 - nhsNumber
 - citizenCardNumber
}
class Test{
-internalCode
-nhsCode
-description
-dateOfSampleCollected
-timeOfSampleCollected
-dateOfSampleAnalysis
-timeOfSampleAnalysis
-state
}
Test "1..*"- - -"1" Client : associated a <


@enduml

PlantUML version 1.2021.00(Sun Jan 10 10:25:05 GMT 2021)
(GPL source distribution)
Java Runtime: OpenJDK Runtime Environment
JVM: OpenJDK 64-Bit Server VM
Default Encoding: Cp1252
Language: pt
Country: PT
--></g></svg>