<?xml version="1.0" encoding="UTF-8" standalone="no"?><svg xmlns="http://www.w3.org/2000/svg" xmlns:xlink="http://www.w3.org/1999/xlink" contentScriptType="application/ecmascript" contentStyleType="text/css" height="2149.5px" preserveAspectRatio="none" style="width:2298px;height:2149px;" version="1.1" viewBox="0 0 2298 2149" width="2298px" zoomAndPan="magnify"><defs><filter height="300%" id="feprj52399dt6" width="300%" x="-1" y="-1"><feGaussianBlur result="blurOut" stdDeviation="3.0"/><feColorMatrix in="blurOut" result="blurOut2" type="matrix" values="0 0 0 0 0 0 0 0 0 0 0 0 0 0 0 0 0 0 .4 0"/><feOffset dx="6.0" dy="6.0" in="blurOut2" result="blurOut3"/><feBlend in="SourceGraphic" in2="blurOut3" mode="normal"/></filter></defs><g><!--MD5=[02e4b9b7573f1156f41e60aa5b4e25a4]
class Company--><rect codeLine="27" fill="#FEFECE" filter="url(#feprj52399dt6)" height="175.7695" id="Company" style="stroke:#A80036;stroke-width:2.25;" width="127.5" x="431.5142" y="1366.5"/><ellipse cx="454.0142" cy="1390.5" fill="#ADD1B2" rx="16.5" ry="16.5" style="stroke:#A80036;stroke-width:1.5;"/><path d="M457.0142,1385.25 Q457.3189,1384.5 457.6705,1384.125 Q458.022,1383.75 458.4205,1383.75 Q459.1236,1383.75 459.5689,1384.1719 Q460.0142,1384.5938 460.0142,1385.5781 L460.0142,1387.9219 Q460.0142,1388.9063 459.5923,1389.3281 Q459.1705,1389.75 458.5142,1389.75 Q457.9283,1389.75 457.5533,1389.4922 Q457.1783,1389.2344 457.0142,1388.5547 Q456.9439,1388.0859 456.6861,1387.8281 Q456.2173,1387.3359 455.3736,1387.0547 Q454.5298,1386.75 453.6861,1386.75 Q452.6314,1386.75 451.7408,1387.1719 Q450.8736,1387.5938 450.1939,1388.5313 Q449.5142,1389.4688 449.5142,1390.7578 L449.5142,1392.1406 Q449.5142,1393.6875 450.7798,1394.7188 Q452.0455,1395.75 454.2955,1395.75 Q455.6314,1395.75 456.5689,1395.4453 Q457.108,1395.2813 457.7173,1394.7422 Q458.1158,1394.4375 458.3267,1394.3438 Q458.5377,1394.25 458.7955,1394.25 Q459.2877,1394.25 459.6392,1394.6484 Q460.0142,1395.0234 460.0142,1395.5625 Q460.0142,1396.0781 459.4986,1396.6875 Q458.7486,1397.5781 457.5533,1398.0703 Q455.983,1398.75 454.0611,1398.75 Q451.8111,1398.75 450.0064,1397.8594 Q448.5533,1397.1563 447.522,1395.6328 Q446.5142,1394.1094 446.5142,1392.3047 L446.5142,1390.6641 Q446.5142,1388.7891 447.4048,1387.1484 Q448.3189,1385.5078 449.8892,1384.6406 Q451.483,1383.75 453.2642,1383.75 Q454.3423,1383.75 455.2798,1384.125 Q456.2173,1384.5 457.0142,1385.25 Z " fill="#000000"/><text fill="#000000" font-family="sans-serif" font-size="18" lengthAdjust="spacing" textLength="79.5" x="475.0142" y="1397.8652">Company</text><line style="stroke:#A80036;stroke-width:2.25;" x1="433.0142" x2="557.5142" y1="1414.5" y2="1414.5"/><text fill="#000000" font-family="sans-serif" font-size="16.5" lengthAdjust="spacing" textLength="45" x="440.5142" y="1437.6284">-name</text><text fill="#000000" font-family="sans-serif" font-size="16.5" lengthAdjust="spacing" textLength="88.5" x="440.5142" y="1458.3823">-designation</text><text fill="#000000" font-family="sans-serif" font-size="16.5" lengthAdjust="spacing" textLength="70.5" x="440.5142" y="1479.1362">-category</text><text fill="#000000" font-family="sans-serif" font-size="16.5" lengthAdjust="spacing" textLength="66" x="440.5142" y="1499.8901">-address</text><text fill="#000000" font-family="sans-serif" font-size="16.5" lengthAdjust="spacing" textLength="94.5" x="440.5142" y="1520.644">-headquarter</text><line style="stroke:#A80036;stroke-width:2.25;" x1="433.0142" x2="557.5142" y1="1530.2695" y2="1530.2695"/><!--MD5=[7421f545a0d8420c5bec41e74b387d9c]
class Employee--><rect codeLine="4" fill="#FEFECE" filter="url(#feprj52399dt6)" height="72" id="Employee" style="stroke:#A80036;stroke-width:2.25;" width="130.5" x="866.5142" y="2047.5"/><ellipse cx="889.0142" cy="2071.5" fill="#ADD1B2" rx="16.5" ry="16.5" style="stroke:#A80036;stroke-width:1.5;"/><path d="M892.0142,2066.25 Q892.3189,2065.5 892.6705,2065.125 Q893.022,2064.75 893.4205,2064.75 Q894.1236,2064.75 894.5689,2065.1719 Q895.0142,2065.5938 895.0142,2066.5781 L895.0142,2068.9219 Q895.0142,2069.9063 894.5923,2070.3281 Q894.1705,2070.75 893.5142,2070.75 Q892.9283,2070.75 892.5533,2070.4922 Q892.1783,2070.2344 892.0142,2069.5547 Q891.9439,2069.0859 891.6861,2068.8281 Q891.2173,2068.3359 890.3736,2068.0547 Q889.5298,2067.75 888.6861,2067.75 Q887.6314,2067.75 886.7408,2068.1719 Q885.8736,2068.5938 885.1939,2069.5313 Q884.5142,2070.4688 884.5142,2071.7578 L884.5142,2073.1406 Q884.5142,2074.6875 885.7798,2075.7188 Q887.0455,2076.75 889.2955,2076.75 Q890.6314,2076.75 891.5689,2076.4453 Q892.108,2076.2813 892.7173,2075.7422 Q893.1158,2075.4375 893.3267,2075.3438 Q893.5377,2075.25 893.7955,2075.25 Q894.2877,2075.25 894.6392,2075.6484 Q895.0142,2076.0234 895.0142,2076.5625 Q895.0142,2077.0781 894.4986,2077.6875 Q893.7486,2078.5781 892.5533,2079.0703 Q890.983,2079.75 889.0611,2079.75 Q886.8111,2079.75 885.0064,2078.8594 Q883.5533,2078.1563 882.522,2076.6328 Q881.5142,2075.1094 881.5142,2073.3047 L881.5142,2071.6641 Q881.5142,2069.7891 882.4048,2068.1484 Q883.3189,2066.5078 884.8892,2065.6406 Q886.483,2064.75 888.2642,2064.75 Q889.3423,2064.75 890.2798,2065.125 Q891.2173,2065.5 892.0142,2066.25 Z " fill="#000000"/><text fill="#000000" font-family="sans-serif" font-size="18" lengthAdjust="spacing" textLength="82.5" x="910.0142" y="2078.8652">Employee</text><line style="stroke:#A80036;stroke-width:2.25;" x1="868.0142" x2="995.5142" y1="2095.5" y2="2095.5"/><line style="stroke:#A80036;stroke-width:2.25;" x1="868.0142" x2="995.5142" y1="2107.5" y2="2107.5"/><!--MD5=[7bbeb2ee2985aba439820f756b846a5a]
class Clinical_Analysis_Laboratory--><rect codeLine="5" fill="#FEFECE" filter="url(#feprj52399dt6)" height="72" id="Clinical_Analysis_Laboratory" style="stroke:#A80036;stroke-width:2.25;" width="286.5" x="521.5142" y="1167"/><ellipse cx="544.0142" cy="1191" fill="#ADD1B2" rx="16.5" ry="16.5" style="stroke:#A80036;stroke-width:1.5;"/><path d="M547.0142,1185.75 Q547.3189,1185 547.6705,1184.625 Q548.022,1184.25 548.4205,1184.25 Q549.1236,1184.25 549.5689,1184.6719 Q550.0142,1185.0938 550.0142,1186.0781 L550.0142,1188.4219 Q550.0142,1189.4063 549.5923,1189.8281 Q549.1705,1190.25 548.5142,1190.25 Q547.9283,1190.25 547.5533,1189.9922 Q547.1783,1189.7344 547.0142,1189.0547 Q546.9439,1188.5859 546.6861,1188.3281 Q546.2173,1187.8359 545.3736,1187.5547 Q544.5298,1187.25 543.6861,1187.25 Q542.6314,1187.25 541.7408,1187.6719 Q540.8736,1188.0938 540.1939,1189.0313 Q539.5142,1189.9688 539.5142,1191.2578 L539.5142,1192.6406 Q539.5142,1194.1875 540.7798,1195.2188 Q542.0455,1196.25 544.2955,1196.25 Q545.6314,1196.25 546.5689,1195.9453 Q547.108,1195.7813 547.7173,1195.2422 Q548.1158,1194.9375 548.3267,1194.8438 Q548.5377,1194.75 548.7955,1194.75 Q549.2877,1194.75 549.6392,1195.1484 Q550.0142,1195.5234 550.0142,1196.0625 Q550.0142,1196.5781 549.4986,1197.1875 Q548.7486,1198.0781 547.5533,1198.5703 Q545.983,1199.25 544.0611,1199.25 Q541.8111,1199.25 540.0064,1198.3594 Q538.5533,1197.6563 537.522,1196.1328 Q536.5142,1194.6094 536.5142,1192.8047 L536.5142,1191.1641 Q536.5142,1189.2891 537.4048,1187.6484 Q538.3189,1186.0078 539.8892,1185.1406 Q541.483,1184.25 543.2642,1184.25 Q544.3423,1184.25 545.2798,1184.625 Q546.2173,1185 547.0142,1185.75 Z " fill="#000000"/><text fill="#000000" font-family="sans-serif" font-size="18" lengthAdjust="spacing" textLength="238.5" x="565.0142" y="1198.3652">Clinical_Analysis_Laboratory</text><line style="stroke:#A80036;stroke-width:2.25;" x1="523.0142" x2="806.5142" y1="1215" y2="1215"/><line style="stroke:#A80036;stroke-width:2.25;" x1="523.0142" x2="806.5142" y1="1227" y2="1227"/><!--MD5=[03960189e81aa2c066c762ffabbee709]
class Receptionist--><rect codeLine="6" fill="#FEFECE" filter="url(#feprj52399dt6)" height="72" id="Receptionist" style="stroke:#A80036;stroke-width:2.25;" width="151.5" x="112.0142" y="10.5"/><ellipse cx="134.5142" cy="34.5" fill="#ADD1B2" rx="16.5" ry="16.5" style="stroke:#A80036;stroke-width:1.5;"/><path d="M137.5142,29.25 Q137.8189,28.5 138.1705,28.125 Q138.522,27.75 138.9205,27.75 Q139.6236,27.75 140.0689,28.1719 Q140.5142,28.5938 140.5142,29.5781 L140.5142,31.9219 Q140.5142,32.9063 140.0923,33.3281 Q139.6705,33.75 139.0142,33.75 Q138.4283,33.75 138.0533,33.4922 Q137.6783,33.2344 137.5142,32.5547 Q137.4439,32.0859 137.1861,31.8281 Q136.7173,31.3359 135.8736,31.0547 Q135.0298,30.75 134.1861,30.75 Q133.1314,30.75 132.2408,31.1719 Q131.3736,31.5938 130.6939,32.5313 Q130.0142,33.4688 130.0142,34.7578 L130.0142,36.1406 Q130.0142,37.6875 131.2798,38.7188 Q132.5455,39.75 134.7955,39.75 Q136.1314,39.75 137.0689,39.4453 Q137.608,39.2813 138.2173,38.7422 Q138.6158,38.4375 138.8267,38.3438 Q139.0377,38.25 139.2955,38.25 Q139.7877,38.25 140.1392,38.6484 Q140.5142,39.0234 140.5142,39.5625 Q140.5142,40.0781 139.9986,40.6875 Q139.2486,41.5781 138.0533,42.0703 Q136.483,42.75 134.5611,42.75 Q132.3111,42.75 130.5064,41.8594 Q129.0533,41.1563 128.022,39.6328 Q127.0142,38.1094 127.0142,36.3047 L127.0142,34.6641 Q127.0142,32.7891 127.9048,31.1484 Q128.8189,29.5078 130.3892,28.6406 Q131.983,27.75 133.7642,27.75 Q134.8423,27.75 135.7798,28.125 Q136.7173,28.5 137.5142,29.25 Z " fill="#000000"/><text fill="#000000" font-family="sans-serif" font-size="18" lengthAdjust="spacing" textLength="103.5" x="155.5142" y="41.8652">Receptionist</text><line style="stroke:#A80036;stroke-width:2.25;" x1="113.5142" x2="262.0142" y1="58.5" y2="58.5"/><line style="stroke:#A80036;stroke-width:2.25;" x1="113.5142" x2="262.0142" y1="70.5" y2="70.5"/><!--MD5=[df38be88ccee13e832d6fafd6288a4ca]
class Test--><rect codeLine="49" fill="#FEFECE" filter="url(#feprj52399dt6)" height="134.2617" id="Test" style="stroke:#A80036;stroke-width:2.25;" width="96" x="369.2642" y="673.5"/><ellipse cx="397.1642" cy="697.5" fill="#ADD1B2" rx="16.5" ry="16.5" style="stroke:#A80036;stroke-width:1.5;"/><path d="M400.1642,692.25 Q400.4689,691.5 400.8205,691.125 Q401.172,690.75 401.5705,690.75 Q402.2736,690.75 402.7189,691.1719 Q403.1642,691.5938 403.1642,692.5781 L403.1642,694.9219 Q403.1642,695.9063 402.7423,696.3281 Q402.3205,696.75 401.6642,696.75 Q401.0783,696.75 400.7033,696.4922 Q400.3283,696.2344 400.1642,695.5547 Q400.0939,695.0859 399.8361,694.8281 Q399.3673,694.3359 398.5236,694.0547 Q397.6798,693.75 396.8361,693.75 Q395.7814,693.75 394.8908,694.1719 Q394.0236,694.5938 393.3439,695.5313 Q392.6642,696.4688 392.6642,697.7578 L392.6642,699.1406 Q392.6642,700.6875 393.9298,701.7188 Q395.1955,702.75 397.4455,702.75 Q398.7814,702.75 399.7189,702.4453 Q400.258,702.2813 400.8673,701.7422 Q401.2658,701.4375 401.4767,701.3438 Q401.6877,701.25 401.9455,701.25 Q402.4377,701.25 402.7892,701.6484 Q403.1642,702.0234 403.1642,702.5625 Q403.1642,703.0781 402.6486,703.6875 Q401.8986,704.5781 400.7033,705.0703 Q399.133,705.75 397.2111,705.75 Q394.9611,705.75 393.1564,704.8594 Q391.7033,704.1563 390.672,702.6328 Q389.6642,701.1094 389.6642,699.3047 L389.6642,697.6641 Q389.6642,695.7891 390.5548,694.1484 Q391.4689,692.5078 393.0392,691.6406 Q394.633,690.75 396.4142,690.75 Q397.4923,690.75 398.4298,691.125 Q399.3673,691.5 400.1642,692.25 Z " fill="#000000"/><text fill="#000000" font-family="sans-serif" font-size="18" lengthAdjust="spacing" textLength="36" x="419.3642" y="704.8652">Test</text><line style="stroke:#A80036;stroke-width:2.25;" x1="370.7642" x2="463.7642" y1="721.5" y2="721.5"/><text fill="#000000" font-family="sans-serif" font-size="16.5" lengthAdjust="spacing" textLength="42" x="378.2642" y="744.6284">-code</text><text fill="#000000" font-family="sans-serif" font-size="16.5" lengthAdjust="spacing" textLength="70.5" x="378.2642" y="765.3823">-nhsCode</text><text fill="#000000" font-family="sans-serif" font-size="16.5" lengthAdjust="spacing" textLength="78" x="378.2642" y="786.1362">-createdAt</text><line style="stroke:#A80036;stroke-width:2.25;" x1="370.7642" x2="463.7642" y1="795.7617" y2="795.7617"/><!--MD5=[aeb3272166074d8737a70b61b1e71682]
class TestType--><rect codeLine="54" fill="#FEFECE" filter="url(#feprj52399dt6)" height="92.7539" id="TestType" style="stroke:#A80036;stroke-width:2.25;" width="123" x="285.2642" y="1156.5"/><ellipse cx="307.7642" cy="1180.5" fill="#ADD1B2" rx="16.5" ry="16.5" style="stroke:#A80036;stroke-width:1.5;"/><path d="M310.7642,1175.25 Q311.0689,1174.5 311.4205,1174.125 Q311.772,1173.75 312.1705,1173.75 Q312.8736,1173.75 313.3189,1174.1719 Q313.7642,1174.5938 313.7642,1175.5781 L313.7642,1177.9219 Q313.7642,1178.9063 313.3423,1179.3281 Q312.9205,1179.75 312.2642,1179.75 Q311.6783,1179.75 311.3033,1179.4922 Q310.9283,1179.2344 310.7642,1178.5547 Q310.6939,1178.0859 310.4361,1177.8281 Q309.9673,1177.3359 309.1236,1177.0547 Q308.2798,1176.75 307.4361,1176.75 Q306.3814,1176.75 305.4908,1177.1719 Q304.6236,1177.5938 303.9439,1178.5313 Q303.2642,1179.4688 303.2642,1180.7578 L303.2642,1182.1406 Q303.2642,1183.6875 304.5298,1184.7188 Q305.7955,1185.75 308.0455,1185.75 Q309.3814,1185.75 310.3189,1185.4453 Q310.858,1185.2813 311.4673,1184.7422 Q311.8658,1184.4375 312.0767,1184.3438 Q312.2877,1184.25 312.5455,1184.25 Q313.0377,1184.25 313.3892,1184.6484 Q313.7642,1185.0234 313.7642,1185.5625 Q313.7642,1186.0781 313.2486,1186.6875 Q312.4986,1187.5781 311.3033,1188.0703 Q309.733,1188.75 307.8111,1188.75 Q305.5611,1188.75 303.7564,1187.8594 Q302.3033,1187.1563 301.272,1185.6328 Q300.2642,1184.1094 300.2642,1182.3047 L300.2642,1180.6641 Q300.2642,1178.7891 301.1548,1177.1484 Q302.0689,1175.5078 303.6392,1174.6406 Q305.233,1173.75 307.0142,1173.75 Q308.0923,1173.75 309.0298,1174.125 Q309.9673,1174.5 310.7642,1175.25 Z " fill="#000000"/><text fill="#000000" font-family="sans-serif" font-size="18" lengthAdjust="spacing" textLength="75" x="328.7642" y="1187.8652">TestType</text><line style="stroke:#A80036;stroke-width:2.25;" x1="286.7642" x2="406.7642" y1="1204.5" y2="1204.5"/><text fill="#000000" font-family="sans-serif" font-size="16.5" lengthAdjust="spacing" textLength="88.5" x="294.2642" y="1227.6284">-designation</text><line style="stroke:#A80036;stroke-width:2.25;" x1="286.7642" x2="406.7642" y1="1237.2539" y2="1237.2539"/><!--MD5=[a96594a83e2ecdc78cbf17c2ddf01934]
class Category--><rect codeLine="9" fill="#FEFECE" filter="url(#feprj52399dt6)" height="72" id="Category" style="stroke:#A80036;stroke-width:2.25;" width="121.5" x="284.5142" y="1659"/><ellipse cx="307.0142" cy="1683" fill="#ADD1B2" rx="16.5" ry="16.5" style="stroke:#A80036;stroke-width:1.5;"/><path d="M310.0142,1677.75 Q310.3189,1677 310.6705,1676.625 Q311.022,1676.25 311.4205,1676.25 Q312.1236,1676.25 312.5689,1676.6719 Q313.0142,1677.0938 313.0142,1678.0781 L313.0142,1680.4219 Q313.0142,1681.4063 312.5923,1681.8281 Q312.1705,1682.25 311.5142,1682.25 Q310.9283,1682.25 310.5533,1681.9922 Q310.1783,1681.7344 310.0142,1681.0547 Q309.9439,1680.5859 309.6861,1680.3281 Q309.2173,1679.8359 308.3736,1679.5547 Q307.5298,1679.25 306.6861,1679.25 Q305.6314,1679.25 304.7408,1679.6719 Q303.8736,1680.0938 303.1939,1681.0313 Q302.5142,1681.9688 302.5142,1683.2578 L302.5142,1684.6406 Q302.5142,1686.1875 303.7798,1687.2188 Q305.0455,1688.25 307.2955,1688.25 Q308.6314,1688.25 309.5689,1687.9453 Q310.108,1687.7813 310.7173,1687.2422 Q311.1158,1686.9375 311.3267,1686.8438 Q311.5377,1686.75 311.7955,1686.75 Q312.2877,1686.75 312.6392,1687.1484 Q313.0142,1687.5234 313.0142,1688.0625 Q313.0142,1688.5781 312.4986,1689.1875 Q311.7486,1690.0781 310.5533,1690.5703 Q308.983,1691.25 307.0611,1691.25 Q304.8111,1691.25 303.0064,1690.3594 Q301.5533,1689.6563 300.522,1688.1328 Q299.5142,1686.6094 299.5142,1684.8047 L299.5142,1683.1641 Q299.5142,1681.2891 300.4048,1679.6484 Q301.3189,1678.0078 302.8892,1677.1406 Q304.483,1676.25 306.2642,1676.25 Q307.3423,1676.25 308.2798,1676.625 Q309.2173,1677 310.0142,1677.75 Z " fill="#000000"/><text fill="#000000" font-family="sans-serif" font-size="18" lengthAdjust="spacing" textLength="73.5" x="328.0142" y="1690.3652">Category</text><line style="stroke:#A80036;stroke-width:2.25;" x1="286.0142" x2="404.5142" y1="1707" y2="1707"/><line style="stroke:#A80036;stroke-width:2.25;" x1="286.0142" x2="404.5142" y1="1719" y2="1719"/><!--MD5=[56f671791a7bc69038cb91d87520b796]
class Parameters--><rect codeLine="10" fill="#FEFECE" filter="url(#feprj52399dt6)" height="72" id="Parameters" style="stroke:#A80036;stroke-width:2.25;" width="145.5" x="233.5142" y="1418.25"/><ellipse cx="256.0142" cy="1442.25" fill="#ADD1B2" rx="16.5" ry="16.5" style="stroke:#A80036;stroke-width:1.5;"/><path d="M259.0142,1437 Q259.3189,1436.25 259.6705,1435.875 Q260.022,1435.5 260.4205,1435.5 Q261.1236,1435.5 261.5689,1435.9219 Q262.0142,1436.3438 262.0142,1437.3281 L262.0142,1439.6719 Q262.0142,1440.6563 261.5923,1441.0781 Q261.1705,1441.5 260.5142,1441.5 Q259.9283,1441.5 259.5533,1441.2422 Q259.1783,1440.9844 259.0142,1440.3047 Q258.9439,1439.8359 258.6861,1439.5781 Q258.2173,1439.0859 257.3736,1438.8047 Q256.5298,1438.5 255.6861,1438.5 Q254.6314,1438.5 253.7408,1438.9219 Q252.8736,1439.3438 252.1939,1440.2813 Q251.5142,1441.2188 251.5142,1442.5078 L251.5142,1443.8906 Q251.5142,1445.4375 252.7798,1446.4688 Q254.0455,1447.5 256.2955,1447.5 Q257.6314,1447.5 258.5689,1447.1953 Q259.108,1447.0313 259.7173,1446.4922 Q260.1158,1446.1875 260.3267,1446.0938 Q260.5377,1446 260.7955,1446 Q261.2877,1446 261.6392,1446.3984 Q262.0142,1446.7734 262.0142,1447.3125 Q262.0142,1447.8281 261.4986,1448.4375 Q260.7486,1449.3281 259.5533,1449.8203 Q257.983,1450.5 256.0611,1450.5 Q253.8111,1450.5 252.0064,1449.6094 Q250.5533,1448.9063 249.522,1447.3828 Q248.5142,1445.8594 248.5142,1444.0547 L248.5142,1442.4141 Q248.5142,1440.5391 249.4048,1438.8984 Q250.3189,1437.2578 251.8892,1436.3906 Q253.483,1435.5 255.2642,1435.5 Q256.3423,1435.5 257.2798,1435.875 Q258.2173,1436.25 259.0142,1437 Z " fill="#000000"/><text fill="#000000" font-family="sans-serif" font-size="18" lengthAdjust="spacing" textLength="97.5" x="277.0142" y="1449.6152">Parameters</text><line style="stroke:#A80036;stroke-width:2.25;" x1="235.0142" x2="377.5142" y1="1466.25" y2="1466.25"/><line style="stroke:#A80036;stroke-width:2.25;" x1="235.0142" x2="377.5142" y1="1478.25" y2="1478.25"/><!--MD5=[9681492165142af2a4a3a169d90ee8d4]
class Sample--><rect codeLine="44" fill="#FEFECE" filter="url(#feprj52399dt6)" height="113.5078" id="Sample" style="stroke:#A80036;stroke-width:2.25;" width="127.5" x="1043.5142" y="925.5"/><ellipse cx="1072.7642" cy="949.5" fill="#ADD1B2" rx="16.5" ry="16.5" style="stroke:#A80036;stroke-width:1.5;"/><path d="M1075.7642,944.25 Q1076.0689,943.5 1076.4205,943.125 Q1076.772,942.75 1077.1705,942.75 Q1077.8736,942.75 1078.3189,943.1719 Q1078.7642,943.5938 1078.7642,944.5781 L1078.7642,946.9219 Q1078.7642,947.9063 1078.3423,948.3281 Q1077.9205,948.75 1077.2642,948.75 Q1076.6783,948.75 1076.3033,948.4922 Q1075.9283,948.2344 1075.7642,947.5547 Q1075.6939,947.0859 1075.4361,946.8281 Q1074.9673,946.3359 1074.1236,946.0547 Q1073.2798,945.75 1072.4361,945.75 Q1071.3814,945.75 1070.4908,946.1719 Q1069.6236,946.5938 1068.9439,947.5313 Q1068.2642,948.4688 1068.2642,949.7578 L1068.2642,951.1406 Q1068.2642,952.6875 1069.5298,953.7188 Q1070.7955,954.75 1073.0455,954.75 Q1074.3814,954.75 1075.3189,954.4453 Q1075.858,954.2813 1076.4673,953.7422 Q1076.8658,953.4375 1077.0767,953.3438 Q1077.2877,953.25 1077.5455,953.25 Q1078.0377,953.25 1078.3892,953.6484 Q1078.7642,954.0234 1078.7642,954.5625 Q1078.7642,955.0781 1078.2486,955.6875 Q1077.4986,956.5781 1076.3033,957.0703 Q1074.733,957.75 1072.8111,957.75 Q1070.5611,957.75 1068.7564,956.8594 Q1067.3033,956.1563 1066.272,954.6328 Q1065.2642,953.1094 1065.2642,951.3047 L1065.2642,949.6641 Q1065.2642,947.7891 1066.1548,946.1484 Q1067.0689,944.5078 1068.6392,943.6406 Q1070.233,942.75 1072.0142,942.75 Q1073.0923,942.75 1074.0298,943.125 Q1074.9673,943.5 1075.7642,944.25 Z " fill="#000000"/><text fill="#000000" font-family="sans-serif" font-size="18" lengthAdjust="spacing" textLength="64.5" x="1095.2642" y="956.8652">Sample</text><line style="stroke:#A80036;stroke-width:2.25;" x1="1045.0142" x2="1169.5142" y1="973.5" y2="973.5"/><text fill="#000000" font-family="sans-serif" font-size="16.5" lengthAdjust="spacing" textLength="66" x="1052.5142" y="996.6284">-barcode</text><text fill="#000000" font-family="sans-serif" font-size="16.5" lengthAdjust="spacing" textLength="109.5" x="1052.5142" y="1017.3823">-collection date</text><line style="stroke:#A80036;stroke-width:2.25;" x1="1045.0142" x2="1169.5142" y1="1027.0078" y2="1027.0078"/><!--MD5=[3a31710ff0fe32e4db47bca97b229f4c]
class Medical_Lab_Technician--><rect codeLine="12" fill="#FEFECE" filter="url(#feprj52399dt6)" height="72" id="Medical_Lab_Technician" style="stroke:#A80036;stroke-width:2.25;" width="253.5" x="1342.0142" y="401.25"/><ellipse cx="1364.5142" cy="425.25" fill="#ADD1B2" rx="16.5" ry="16.5" style="stroke:#A80036;stroke-width:1.5;"/><path d="M1367.5142,420 Q1367.8189,419.25 1368.1705,418.875 Q1368.522,418.5 1368.9205,418.5 Q1369.6236,418.5 1370.0689,418.9219 Q1370.5142,419.3438 1370.5142,420.3281 L1370.5142,422.6719 Q1370.5142,423.6563 1370.0923,424.0781 Q1369.6705,424.5 1369.0142,424.5 Q1368.4283,424.5 1368.0533,424.2422 Q1367.6783,423.9844 1367.5142,423.3047 Q1367.4439,422.8359 1367.1861,422.5781 Q1366.7173,422.0859 1365.8736,421.8047 Q1365.0298,421.5 1364.1861,421.5 Q1363.1314,421.5 1362.2408,421.9219 Q1361.3736,422.3438 1360.6939,423.2813 Q1360.0142,424.2188 1360.0142,425.5078 L1360.0142,426.8906 Q1360.0142,428.4375 1361.2798,429.4688 Q1362.5455,430.5 1364.7955,430.5 Q1366.1314,430.5 1367.0689,430.1953 Q1367.608,430.0313 1368.2173,429.4922 Q1368.6158,429.1875 1368.8267,429.0938 Q1369.0377,429 1369.2955,429 Q1369.7877,429 1370.1392,429.3984 Q1370.5142,429.7734 1370.5142,430.3125 Q1370.5142,430.8281 1369.9986,431.4375 Q1369.2486,432.3281 1368.0533,432.8203 Q1366.483,433.5 1364.5611,433.5 Q1362.3111,433.5 1360.5064,432.6094 Q1359.0533,431.9063 1358.022,430.3828 Q1357.0142,428.8594 1357.0142,427.0547 L1357.0142,425.4141 Q1357.0142,423.5391 1357.9048,421.8984 Q1358.8189,420.2578 1360.3892,419.3906 Q1361.983,418.5 1363.7642,418.5 Q1364.8423,418.5 1365.7798,418.875 Q1366.7173,419.25 1367.5142,420 Z " fill="#000000"/><text fill="#000000" font-family="sans-serif" font-size="18" lengthAdjust="spacing" textLength="205.5" x="1385.5142" y="432.6152">Medical_Lab_Technician</text><line style="stroke:#A80036;stroke-width:2.25;" x1="1343.5142" x2="1594.0142" y1="449.25" y2="449.25"/><line style="stroke:#A80036;stroke-width:2.25;" x1="1343.5142" x2="1594.0142" y1="461.25" y2="461.25"/><!--MD5=[5a42d898e2a5d299cc26761d1eaa7d84]
class Doctor--><rect codeLine="13" fill="#FEFECE" filter="url(#feprj52399dt6)" height="72" id="Doctor" style="stroke:#A80036;stroke-width:2.25;" width="102" x="1989.2642" y="1659"/><ellipse cx="2011.7642" cy="1683" fill="#ADD1B2" rx="16.5" ry="16.5" style="stroke:#A80036;stroke-width:1.5;"/><path d="M2014.7642,1677.75 Q2015.0689,1677 2015.4205,1676.625 Q2015.772,1676.25 2016.1705,1676.25 Q2016.8736,1676.25 2017.3189,1676.6719 Q2017.7642,1677.0938 2017.7642,1678.0781 L2017.7642,1680.4219 Q2017.7642,1681.4063 2017.3423,1681.8281 Q2016.9205,1682.25 2016.2642,1682.25 Q2015.6783,1682.25 2015.3033,1681.9922 Q2014.9283,1681.7344 2014.7642,1681.0547 Q2014.6939,1680.5859 2014.4361,1680.3281 Q2013.9673,1679.8359 2013.1236,1679.5547 Q2012.2798,1679.25 2011.4361,1679.25 Q2010.3814,1679.25 2009.4908,1679.6719 Q2008.6236,1680.0938 2007.9439,1681.0313 Q2007.2642,1681.9688 2007.2642,1683.2578 L2007.2642,1684.6406 Q2007.2642,1686.1875 2008.5298,1687.2188 Q2009.7955,1688.25 2012.0455,1688.25 Q2013.3814,1688.25 2014.3189,1687.9453 Q2014.858,1687.7813 2015.4673,1687.2422 Q2015.8658,1686.9375 2016.0767,1686.8438 Q2016.2877,1686.75 2016.5455,1686.75 Q2017.0377,1686.75 2017.3892,1687.1484 Q2017.7642,1687.5234 2017.7642,1688.0625 Q2017.7642,1688.5781 2017.2486,1689.1875 Q2016.4986,1690.0781 2015.3033,1690.5703 Q2013.733,1691.25 2011.8111,1691.25 Q2009.5611,1691.25 2007.7564,1690.3594 Q2006.3033,1689.6563 2005.272,1688.1328 Q2004.2642,1686.6094 2004.2642,1684.8047 L2004.2642,1683.1641 Q2004.2642,1681.2891 2005.1548,1679.6484 Q2006.0689,1678.0078 2007.6392,1677.1406 Q2009.233,1676.25 2011.0142,1676.25 Q2012.0923,1676.25 2013.0298,1676.625 Q2013.9673,1677 2014.7642,1677.75 Z " fill="#000000"/><text fill="#000000" font-family="sans-serif" font-size="18" lengthAdjust="spacing" textLength="54" x="2032.7642" y="1690.3652">Doctor</text><line style="stroke:#A80036;stroke-width:2.25;" x1="1990.7642" x2="2089.7642" y1="1707" y2="1707"/><line style="stroke:#A80036;stroke-width:2.25;" x1="1990.7642" x2="2089.7642" y1="1719" y2="1719"/><!--MD5=[f00dbe8c0302c6aec2cb26b3c659c8fc]
class Report--><rect codeLine="40" fill="#FEFECE" filter="url(#feprj52399dt6)" height="92.7539" id="Report" style="stroke:#A80036;stroke-width:2.25;" width="103.5" x="2138.5142" y="2037"/><ellipse cx="2161.0142" cy="2061" fill="#ADD1B2" rx="16.5" ry="16.5" style="stroke:#A80036;stroke-width:1.5;"/><path d="M2164.0142,2055.75 Q2164.3189,2055 2164.6705,2054.625 Q2165.022,2054.25 2165.4205,2054.25 Q2166.1236,2054.25 2166.5689,2054.6719 Q2167.0142,2055.0938 2167.0142,2056.0781 L2167.0142,2058.4219 Q2167.0142,2059.4063 2166.5923,2059.8281 Q2166.1705,2060.25 2165.5142,2060.25 Q2164.9283,2060.25 2164.5533,2059.9922 Q2164.1783,2059.7344 2164.0142,2059.0547 Q2163.9439,2058.5859 2163.6861,2058.3281 Q2163.2173,2057.8359 2162.3736,2057.5547 Q2161.5298,2057.25 2160.6861,2057.25 Q2159.6314,2057.25 2158.7408,2057.6719 Q2157.8736,2058.0938 2157.1939,2059.0313 Q2156.5142,2059.9688 2156.5142,2061.2578 L2156.5142,2062.6406 Q2156.5142,2064.1875 2157.7798,2065.2188 Q2159.0455,2066.25 2161.2955,2066.25 Q2162.6314,2066.25 2163.5689,2065.9453 Q2164.108,2065.7813 2164.7173,2065.2422 Q2165.1158,2064.9375 2165.3267,2064.8438 Q2165.5377,2064.75 2165.7955,2064.75 Q2166.2877,2064.75 2166.6392,2065.1484 Q2167.0142,2065.5234 2167.0142,2066.0625 Q2167.0142,2066.5781 2166.4986,2067.1875 Q2165.7486,2068.0781 2164.5533,2068.5703 Q2162.983,2069.25 2161.0611,2069.25 Q2158.8111,2069.25 2157.0064,2068.3594 Q2155.5533,2067.6563 2154.522,2066.1328 Q2153.5142,2064.6094 2153.5142,2062.8047 L2153.5142,2061.1641 Q2153.5142,2059.2891 2154.4048,2057.6484 Q2155.3189,2056.0078 2156.8892,2055.1406 Q2158.483,2054.25 2160.2642,2054.25 Q2161.3423,2054.25 2162.2798,2054.625 Q2163.2173,2055 2164.0142,2055.75 Z " fill="#000000"/><text fill="#000000" font-family="sans-serif" font-size="18" lengthAdjust="spacing" textLength="55.5" x="2182.0142" y="2068.3652">Report</text><line style="stroke:#A80036;stroke-width:2.25;" x1="2140.0142" x2="2240.5142" y1="2085" y2="2085"/><text fill="#000000" font-family="sans-serif" font-size="16.5" lengthAdjust="spacing" textLength="75" x="2147.5142" y="2108.1284">-diagnosis</text><line style="stroke:#A80036;stroke-width:2.25;" x1="2140.0142" x2="2240.5142" y1="2117.7539" y2="2117.7539"/><!--MD5=[88c7cd8b94a08243205aff172d14c4f7]
class Chemical_Analyses--><rect codeLine="15" fill="#FEFECE" filter="url(#feprj52399dt6)" height="72" id="Chemical_Analyses" style="stroke:#A80036;stroke-width:2.25;" width="213" x="1234.7642" y="1659"/><ellipse cx="1257.2642" cy="1683" fill="#ADD1B2" rx="16.5" ry="16.5" style="stroke:#A80036;stroke-width:1.5;"/><path d="M1260.2642,1677.75 Q1260.5689,1677 1260.9205,1676.625 Q1261.272,1676.25 1261.6705,1676.25 Q1262.3736,1676.25 1262.8189,1676.6719 Q1263.2642,1677.0938 1263.2642,1678.0781 L1263.2642,1680.4219 Q1263.2642,1681.4063 1262.8423,1681.8281 Q1262.4205,1682.25 1261.7642,1682.25 Q1261.1783,1682.25 1260.8033,1681.9922 Q1260.4283,1681.7344 1260.2642,1681.0547 Q1260.1939,1680.5859 1259.9361,1680.3281 Q1259.4673,1679.8359 1258.6236,1679.5547 Q1257.7798,1679.25 1256.9361,1679.25 Q1255.8814,1679.25 1254.9908,1679.6719 Q1254.1236,1680.0938 1253.4439,1681.0313 Q1252.7642,1681.9688 1252.7642,1683.2578 L1252.7642,1684.6406 Q1252.7642,1686.1875 1254.0298,1687.2188 Q1255.2955,1688.25 1257.5455,1688.25 Q1258.8814,1688.25 1259.8189,1687.9453 Q1260.358,1687.7813 1260.9673,1687.2422 Q1261.3658,1686.9375 1261.5767,1686.8438 Q1261.7877,1686.75 1262.0455,1686.75 Q1262.5377,1686.75 1262.8892,1687.1484 Q1263.2642,1687.5234 1263.2642,1688.0625 Q1263.2642,1688.5781 1262.7486,1689.1875 Q1261.9986,1690.0781 1260.8033,1690.5703 Q1259.233,1691.25 1257.3111,1691.25 Q1255.0611,1691.25 1253.2564,1690.3594 Q1251.8033,1689.6563 1250.772,1688.1328 Q1249.7642,1686.6094 1249.7642,1684.8047 L1249.7642,1683.1641 Q1249.7642,1681.2891 1250.6548,1679.6484 Q1251.5689,1678.0078 1253.1392,1677.1406 Q1254.733,1676.25 1256.5142,1676.25 Q1257.5923,1676.25 1258.5298,1676.625 Q1259.4673,1677 1260.2642,1677.75 Z " fill="#000000"/><text fill="#000000" font-family="sans-serif" font-size="18" lengthAdjust="spacing" textLength="165" x="1278.2642" y="1690.3652">Chemical_Analyses</text><line style="stroke:#A80036;stroke-width:2.25;" x1="1236.2642" x2="1446.2642" y1="1707" y2="1707"/><line style="stroke:#A80036;stroke-width:2.25;" x1="1236.2642" x2="1446.2642" y1="1719" y2="1719"/><!--MD5=[34c242df592fe6116019f1c4c26784f4]
class Chemical_Laboratory--><rect codeLine="16" fill="#FEFECE" filter="url(#feprj52399dt6)" height="72" id="Chemical_Laboratory" style="stroke:#A80036;stroke-width:2.25;" width="225" x="1228.7642" y="1418.25"/><ellipse cx="1251.2642" cy="1442.25" fill="#ADD1B2" rx="16.5" ry="16.5" style="stroke:#A80036;stroke-width:1.5;"/><path d="M1254.2642,1437 Q1254.5689,1436.25 1254.9205,1435.875 Q1255.272,1435.5 1255.6705,1435.5 Q1256.3736,1435.5 1256.8189,1435.9219 Q1257.2642,1436.3438 1257.2642,1437.3281 L1257.2642,1439.6719 Q1257.2642,1440.6563 1256.8423,1441.0781 Q1256.4205,1441.5 1255.7642,1441.5 Q1255.1783,1441.5 1254.8033,1441.2422 Q1254.4283,1440.9844 1254.2642,1440.3047 Q1254.1939,1439.8359 1253.9361,1439.5781 Q1253.4673,1439.0859 1252.6236,1438.8047 Q1251.7798,1438.5 1250.9361,1438.5 Q1249.8814,1438.5 1248.9908,1438.9219 Q1248.1236,1439.3438 1247.4439,1440.2813 Q1246.7642,1441.2188 1246.7642,1442.5078 L1246.7642,1443.8906 Q1246.7642,1445.4375 1248.0298,1446.4688 Q1249.2955,1447.5 1251.5455,1447.5 Q1252.8814,1447.5 1253.8189,1447.1953 Q1254.358,1447.0313 1254.9673,1446.4922 Q1255.3658,1446.1875 1255.5767,1446.0938 Q1255.7877,1446 1256.0455,1446 Q1256.5377,1446 1256.8892,1446.3984 Q1257.2642,1446.7734 1257.2642,1447.3125 Q1257.2642,1447.8281 1256.7486,1448.4375 Q1255.9986,1449.3281 1254.8033,1449.8203 Q1253.233,1450.5 1251.3111,1450.5 Q1249.0611,1450.5 1247.2564,1449.6094 Q1245.8033,1448.9063 1244.772,1447.3828 Q1243.7642,1445.8594 1243.7642,1444.0547 L1243.7642,1442.4141 Q1243.7642,1440.5391 1244.6548,1438.8984 Q1245.5689,1437.2578 1247.1392,1436.3906 Q1248.733,1435.5 1250.5142,1435.5 Q1251.5923,1435.5 1252.5298,1435.875 Q1253.4673,1436.25 1254.2642,1437 Z " fill="#000000"/><text fill="#000000" font-family="sans-serif" font-size="18" lengthAdjust="spacing" textLength="177" x="1272.2642" y="1449.6152">Chemical_Laboratory</text><line style="stroke:#A80036;stroke-width:2.25;" x1="1230.2642" x2="1452.2642" y1="1466.25" y2="1466.25"/><line style="stroke:#A80036;stroke-width:2.25;" x1="1230.2642" x2="1452.2642" y1="1478.25" y2="1478.25"/><!--MD5=[b61e69a70bb7e771c8a5603a4a917a69]
class Clinical_Chemistry_Technologist--><rect codeLine="17" fill="#FEFECE" filter="url(#feprj52399dt6)" height="72" id="Clinical_Chemistry_Technologist" style="stroke:#A80036;stroke-width:2.25;" width="321" x="771.2642" y="1418.25"/><ellipse cx="793.7642" cy="1442.25" fill="#ADD1B2" rx="16.5" ry="16.5" style="stroke:#A80036;stroke-width:1.5;"/><path d="M796.7642,1437 Q797.0689,1436.25 797.4205,1435.875 Q797.772,1435.5 798.1705,1435.5 Q798.8736,1435.5 799.3189,1435.9219 Q799.7642,1436.3438 799.7642,1437.3281 L799.7642,1439.6719 Q799.7642,1440.6563 799.3423,1441.0781 Q798.9205,1441.5 798.2642,1441.5 Q797.6783,1441.5 797.3033,1441.2422 Q796.9283,1440.9844 796.7642,1440.3047 Q796.6939,1439.8359 796.4361,1439.5781 Q795.9673,1439.0859 795.1236,1438.8047 Q794.2798,1438.5 793.4361,1438.5 Q792.3814,1438.5 791.4908,1438.9219 Q790.6236,1439.3438 789.9439,1440.2813 Q789.2642,1441.2188 789.2642,1442.5078 L789.2642,1443.8906 Q789.2642,1445.4375 790.5298,1446.4688 Q791.7955,1447.5 794.0455,1447.5 Q795.3814,1447.5 796.3189,1447.1953 Q796.858,1447.0313 797.4673,1446.4922 Q797.8658,1446.1875 798.0767,1446.0938 Q798.2877,1446 798.5455,1446 Q799.0377,1446 799.3892,1446.3984 Q799.7642,1446.7734 799.7642,1447.3125 Q799.7642,1447.8281 799.2486,1448.4375 Q798.4986,1449.3281 797.3033,1449.8203 Q795.733,1450.5 793.8111,1450.5 Q791.5611,1450.5 789.7564,1449.6094 Q788.3033,1448.9063 787.272,1447.3828 Q786.2642,1445.8594 786.2642,1444.0547 L786.2642,1442.4141 Q786.2642,1440.5391 787.1548,1438.8984 Q788.0689,1437.2578 789.6392,1436.3906 Q791.233,1435.5 793.0142,1435.5 Q794.0923,1435.5 795.0298,1435.875 Q795.9673,1436.25 796.7642,1437 Z " fill="#000000"/><text fill="#000000" font-family="sans-serif" font-size="18" lengthAdjust="spacing" textLength="273" x="814.7642" y="1449.6152">Clinical_Chemistry_Technologist</text><line style="stroke:#A80036;stroke-width:2.25;" x1="772.7642" x2="1090.7642" y1="1466.25" y2="1466.25"/><line style="stroke:#A80036;stroke-width:2.25;" x1="772.7642" x2="1090.7642" y1="1478.25" y2="1478.25"/><!--MD5=[a999c1570c205a2156b04a15307bc1ff]
class LabOrder--><rect codeLine="18" fill="#FEFECE" filter="url(#feprj52399dt6)" height="72" id="LabOrder" style="stroke:#A80036;stroke-width:2.25;" width="126" x="108.2642" y="705"/><ellipse cx="130.7642" cy="729" fill="#ADD1B2" rx="16.5" ry="16.5" style="stroke:#A80036;stroke-width:1.5;"/><path d="M133.7642,723.75 Q134.0689,723 134.4205,722.625 Q134.772,722.25 135.1705,722.25 Q135.8736,722.25 136.3189,722.6719 Q136.7642,723.0938 136.7642,724.0781 L136.7642,726.4219 Q136.7642,727.4063 136.3423,727.8281 Q135.9205,728.25 135.2642,728.25 Q134.6783,728.25 134.3033,727.9922 Q133.9283,727.7344 133.7642,727.0547 Q133.6939,726.5859 133.4361,726.3281 Q132.9673,725.8359 132.1236,725.5547 Q131.2798,725.25 130.4361,725.25 Q129.3814,725.25 128.4908,725.6719 Q127.6236,726.0938 126.9439,727.0313 Q126.2642,727.9688 126.2642,729.2578 L126.2642,730.6406 Q126.2642,732.1875 127.5298,733.2188 Q128.7955,734.25 131.0455,734.25 Q132.3814,734.25 133.3189,733.9453 Q133.858,733.7813 134.4673,733.2422 Q134.8658,732.9375 135.0767,732.8438 Q135.2877,732.75 135.5455,732.75 Q136.0377,732.75 136.3892,733.1484 Q136.7642,733.5234 136.7642,734.0625 Q136.7642,734.5781 136.2486,735.1875 Q135.4986,736.0781 134.3033,736.5703 Q132.733,737.25 130.8111,737.25 Q128.5611,737.25 126.7564,736.3594 Q125.3033,735.6563 124.272,734.1328 Q123.2642,732.6094 123.2642,730.8047 L123.2642,729.1641 Q123.2642,727.2891 124.1548,725.6484 Q125.0689,724.0078 126.6392,723.1406 Q128.233,722.25 130.0142,722.25 Q131.0923,722.25 132.0298,722.625 Q132.9673,723 133.7642,723.75 Z " fill="#000000"/><text fill="#000000" font-family="sans-serif" font-size="18" lengthAdjust="spacing" textLength="78" x="151.7642" y="736.3652">LabOrder</text><line style="stroke:#A80036;stroke-width:2.25;" x1="109.7642" x2="232.7642" y1="753" y2="753"/><line style="stroke:#A80036;stroke-width:2.25;" x1="109.7642" x2="232.7642" y1="765" y2="765"/><!--MD5=[ed6624c6556d5e7b1bd23032162d20b7]
class Client--><rect codeLine="58" fill="#FEFECE" filter="url(#feprj52399dt6)" height="238.0313" id="Client" style="stroke:#A80036;stroke-width:2.25;" width="171" x="102.2642" y="318"/><ellipse cx="158.5142" cy="342" fill="#ADD1B2" rx="16.5" ry="16.5" style="stroke:#A80036;stroke-width:1.5;"/><path d="M161.5142,336.75 Q161.8189,336 162.1705,335.625 Q162.522,335.25 162.9205,335.25 Q163.6236,335.25 164.0689,335.6719 Q164.5142,336.0938 164.5142,337.0781 L164.5142,339.4219 Q164.5142,340.4063 164.0923,340.8281 Q163.6705,341.25 163.0142,341.25 Q162.4283,341.25 162.0533,340.9922 Q161.6783,340.7344 161.5142,340.0547 Q161.4439,339.5859 161.1861,339.3281 Q160.7173,338.8359 159.8736,338.5547 Q159.0298,338.25 158.1861,338.25 Q157.1314,338.25 156.2408,338.6719 Q155.3736,339.0938 154.6939,340.0313 Q154.0142,340.9688 154.0142,342.2578 L154.0142,343.6406 Q154.0142,345.1875 155.2798,346.2188 Q156.5455,347.25 158.7955,347.25 Q160.1314,347.25 161.0689,346.9453 Q161.608,346.7813 162.2173,346.2422 Q162.6158,345.9375 162.8267,345.8438 Q163.0377,345.75 163.2955,345.75 Q163.7877,345.75 164.1392,346.1484 Q164.5142,346.5234 164.5142,347.0625 Q164.5142,347.5781 163.9986,348.1875 Q163.2486,349.0781 162.0533,349.5703 Q160.483,350.25 158.5611,350.25 Q156.3111,350.25 154.5064,349.3594 Q153.0533,348.6563 152.022,347.1328 Q151.0142,345.6094 151.0142,343.8047 L151.0142,342.1641 Q151.0142,340.2891 151.9048,338.6484 Q152.8189,337.0078 154.3892,336.1406 Q155.983,335.25 157.7642,335.25 Q158.8423,335.25 159.7798,335.625 Q160.7173,336 161.5142,336.75 Z " fill="#000000"/><text fill="#000000" font-family="sans-serif" font-size="18" lengthAdjust="spacing" textLength="48" x="187.0142" y="349.3652">Client</text><line style="stroke:#A80036;stroke-width:2.25;" x1="103.7642" x2="271.7642" y1="366" y2="366"/><text fill="#000000" font-family="sans-serif" font-size="16.5" lengthAdjust="spacing" textLength="46.5" x="111.2642" y="389.1284">-Name</text><text fill="#000000" font-family="sans-serif" font-size="16.5" lengthAdjust="spacing" textLength="42" x="111.2642" y="409.8823">-Email</text><text fill="#000000" font-family="sans-serif" font-size="16.5" lengthAdjust="spacing" textLength="111" x="111.2642" y="430.6362">-Phone Number</text><text fill="#000000" font-family="sans-serif" font-size="16.5" lengthAdjust="spacing" textLength="34.5" x="111.2642" y="451.3901">-Sex</text><text fill="#000000" font-family="sans-serif" font-size="16.5" lengthAdjust="spacing" textLength="27" x="111.2642" y="472.144">-TIF</text><text fill="#000000" font-family="sans-serif" font-size="16.5" lengthAdjust="spacing" textLength="76.5" x="111.2642" y="492.8979">-Birth Date</text><text fill="#000000" font-family="sans-serif" font-size="16.5" lengthAdjust="spacing" textLength="97.5" x="111.2642" y="513.6519">-NHS Number</text><text fill="#000000" font-family="sans-serif" font-size="16.5" lengthAdjust="spacing" textLength="153" x="111.2642" y="534.4058">-Citizen Card Number</text><line style="stroke:#A80036;stroke-width:2.25;" x1="103.7642" x2="271.7642" y1="544.0313" y2="544.0313"/><!--MD5=[c013d92ead36e014512d2b24f31a2748]
class Laboratory_Coordinator--><rect codeLine="20" fill="#FEFECE" filter="url(#feprj52399dt6)" height="72" id="Laboratory_Coordinator" style="stroke:#A80036;stroke-width:2.25;" width="243" x="1506.2642" y="1418.25"/><ellipse cx="1528.7642" cy="1442.25" fill="#ADD1B2" rx="16.5" ry="16.5" style="stroke:#A80036;stroke-width:1.5;"/><path d="M1531.7642,1437 Q1532.0689,1436.25 1532.4205,1435.875 Q1532.772,1435.5 1533.1705,1435.5 Q1533.8736,1435.5 1534.3189,1435.9219 Q1534.7642,1436.3438 1534.7642,1437.3281 L1534.7642,1439.6719 Q1534.7642,1440.6563 1534.3423,1441.0781 Q1533.9205,1441.5 1533.2642,1441.5 Q1532.6783,1441.5 1532.3033,1441.2422 Q1531.9283,1440.9844 1531.7642,1440.3047 Q1531.6939,1439.8359 1531.4361,1439.5781 Q1530.9673,1439.0859 1530.1236,1438.8047 Q1529.2798,1438.5 1528.4361,1438.5 Q1527.3814,1438.5 1526.4908,1438.9219 Q1525.6236,1439.3438 1524.9439,1440.2813 Q1524.2642,1441.2188 1524.2642,1442.5078 L1524.2642,1443.8906 Q1524.2642,1445.4375 1525.5298,1446.4688 Q1526.7955,1447.5 1529.0455,1447.5 Q1530.3814,1447.5 1531.3189,1447.1953 Q1531.858,1447.0313 1532.4673,1446.4922 Q1532.8658,1446.1875 1533.0767,1446.0938 Q1533.2877,1446 1533.5455,1446 Q1534.0377,1446 1534.3892,1446.3984 Q1534.7642,1446.7734 1534.7642,1447.3125 Q1534.7642,1447.8281 1534.2486,1448.4375 Q1533.4986,1449.3281 1532.3033,1449.8203 Q1530.733,1450.5 1528.8111,1450.5 Q1526.5611,1450.5 1524.7564,1449.6094 Q1523.3033,1448.9063 1522.272,1447.3828 Q1521.2642,1445.8594 1521.2642,1444.0547 L1521.2642,1442.4141 Q1521.2642,1440.5391 1522.1548,1438.8984 Q1523.0689,1437.2578 1524.6392,1436.3906 Q1526.233,1435.5 1528.0142,1435.5 Q1529.0923,1435.5 1530.0298,1435.875 Q1530.9673,1436.25 1531.7642,1437 Z " fill="#000000"/><text fill="#000000" font-family="sans-serif" font-size="18" lengthAdjust="spacing" textLength="195" x="1549.7642" y="1449.6152">Laboratory_Coordinator</text><line style="stroke:#A80036;stroke-width:2.25;" x1="1507.7642" x2="1747.7642" y1="1466.25" y2="1466.25"/><line style="stroke:#A80036;stroke-width:2.25;" x1="1507.7642" x2="1747.7642" y1="1478.25" y2="1478.25"/><!--MD5=[da547346deef918ea16944ba046651ef]
class Administrator--><rect codeLine="21" fill="#FEFECE" filter="url(#feprj52399dt6)" height="72" id="Administrator" style="stroke:#A80036;stroke-width:2.25;" width="157.5" x="248.5142" y="1848"/><ellipse cx="271.0142" cy="1872" fill="#ADD1B2" rx="16.5" ry="16.5" style="stroke:#A80036;stroke-width:1.5;"/><path d="M274.0142,1866.75 Q274.3189,1866 274.6705,1865.625 Q275.022,1865.25 275.4205,1865.25 Q276.1236,1865.25 276.5689,1865.6719 Q277.0142,1866.0938 277.0142,1867.0781 L277.0142,1869.4219 Q277.0142,1870.4063 276.5923,1870.8281 Q276.1705,1871.25 275.5142,1871.25 Q274.9283,1871.25 274.5533,1870.9922 Q274.1783,1870.7344 274.0142,1870.0547 Q273.9439,1869.5859 273.6861,1869.3281 Q273.2173,1868.8359 272.3736,1868.5547 Q271.5298,1868.25 270.6861,1868.25 Q269.6314,1868.25 268.7408,1868.6719 Q267.8736,1869.0938 267.1939,1870.0313 Q266.5142,1870.9688 266.5142,1872.2578 L266.5142,1873.6406 Q266.5142,1875.1875 267.7798,1876.2188 Q269.0455,1877.25 271.2955,1877.25 Q272.6314,1877.25 273.5689,1876.9453 Q274.108,1876.7813 274.7173,1876.2422 Q275.1158,1875.9375 275.3267,1875.8438 Q275.5377,1875.75 275.7955,1875.75 Q276.2877,1875.75 276.6392,1876.1484 Q277.0142,1876.5234 277.0142,1877.0625 Q277.0142,1877.5781 276.4986,1878.1875 Q275.7486,1879.0781 274.5533,1879.5703 Q272.983,1880.25 271.0611,1880.25 Q268.8111,1880.25 267.0064,1879.3594 Q265.5533,1878.6563 264.522,1877.1328 Q263.5142,1875.6094 263.5142,1873.8047 L263.5142,1872.1641 Q263.5142,1870.2891 264.4048,1868.6484 Q265.3189,1867.0078 266.8892,1866.1406 Q268.483,1865.25 270.2642,1865.25 Q271.3423,1865.25 272.2798,1865.625 Q273.2173,1866 274.0142,1866.75 Z " fill="#000000"/><text fill="#000000" font-family="sans-serif" font-size="18" lengthAdjust="spacing" textLength="109.5" x="292.0142" y="1879.3652">Administrator</text><line style="stroke:#A80036;stroke-width:2.25;" x1="250.0142" x2="404.5142" y1="1896" y2="1896"/><line style="stroke:#A80036;stroke-width:2.25;" x1="250.0142" x2="404.5142" y1="1908" y2="1908"/><!--MD5=[0caf3a413731a0de34fc6162fe213ed9]
class Laboratory--><rect codeLine="34" fill="#FEFECE" filter="url(#feprj52399dt6)" height="72" id="Laboratory" style="stroke:#A80036;stroke-width:2.25;" width="135" x="607.7642" y="1659"/><ellipse cx="630.2642" cy="1683" fill="#ADD1B2" rx="16.5" ry="16.5" style="stroke:#A80036;stroke-width:1.5;"/><path d="M633.2642,1677.75 Q633.5689,1677 633.9205,1676.625 Q634.272,1676.25 634.6705,1676.25 Q635.3736,1676.25 635.8189,1676.6719 Q636.2642,1677.0938 636.2642,1678.0781 L636.2642,1680.4219 Q636.2642,1681.4063 635.8423,1681.8281 Q635.4205,1682.25 634.7642,1682.25 Q634.1783,1682.25 633.8033,1681.9922 Q633.4283,1681.7344 633.2642,1681.0547 Q633.1939,1680.5859 632.9361,1680.3281 Q632.4673,1679.8359 631.6236,1679.5547 Q630.7798,1679.25 629.9361,1679.25 Q628.8814,1679.25 627.9908,1679.6719 Q627.1236,1680.0938 626.4439,1681.0313 Q625.7642,1681.9688 625.7642,1683.2578 L625.7642,1684.6406 Q625.7642,1686.1875 627.0298,1687.2188 Q628.2955,1688.25 630.5455,1688.25 Q631.8814,1688.25 632.8189,1687.9453 Q633.358,1687.7813 633.9673,1687.2422 Q634.3658,1686.9375 634.5767,1686.8438 Q634.7877,1686.75 635.0455,1686.75 Q635.5377,1686.75 635.8892,1687.1484 Q636.2642,1687.5234 636.2642,1688.0625 Q636.2642,1688.5781 635.7486,1689.1875 Q634.9986,1690.0781 633.8033,1690.5703 Q632.233,1691.25 630.3111,1691.25 Q628.0611,1691.25 626.2564,1690.3594 Q624.8033,1689.6563 623.772,1688.1328 Q622.7642,1686.6094 622.7642,1684.8047 L622.7642,1683.1641 Q622.7642,1681.2891 623.6548,1679.6484 Q624.5689,1678.0078 626.1392,1677.1406 Q627.733,1676.25 629.5142,1676.25 Q630.5923,1676.25 631.5298,1676.625 Q632.4673,1677 633.2642,1677.75 Z " fill="#000000"/><text fill="#000000" font-family="sans-serif" font-size="18" lengthAdjust="spacing" textLength="87" x="651.2642" y="1690.3652">Laboratory</text><line style="stroke:#A80036;stroke-width:2.25;" x1="609.2642" x2="741.2642" y1="1707" y2="1707"/><line style="stroke:#A80036;stroke-width:2.25;" x1="609.2642" x2="741.2642" y1="1719" y2="1719"/><!--MD5=[f3f9c3092fd9d54590edb61eacad4f09]
class External_API--><rect codeLine="23" fill="#FEFECE" filter="url(#feprj52399dt6)" height="72" id="External_API" style="stroke:#A80036;stroke-width:2.25;" width="151.5" x="1597.0142" y="946.5"/><ellipse cx="1619.5142" cy="970.5" fill="#ADD1B2" rx="16.5" ry="16.5" style="stroke:#A80036;stroke-width:1.5;"/><path d="M1622.5142,965.25 Q1622.8189,964.5 1623.1705,964.125 Q1623.522,963.75 1623.9205,963.75 Q1624.6236,963.75 1625.0689,964.1719 Q1625.5142,964.5938 1625.5142,965.5781 L1625.5142,967.9219 Q1625.5142,968.9063 1625.0923,969.3281 Q1624.6705,969.75 1624.0142,969.75 Q1623.4283,969.75 1623.0533,969.4922 Q1622.6783,969.2344 1622.5142,968.5547 Q1622.4439,968.0859 1622.1861,967.8281 Q1621.7173,967.3359 1620.8736,967.0547 Q1620.0298,966.75 1619.1861,966.75 Q1618.1314,966.75 1617.2408,967.1719 Q1616.3736,967.5938 1615.6939,968.5313 Q1615.0142,969.4688 1615.0142,970.7578 L1615.0142,972.1406 Q1615.0142,973.6875 1616.2798,974.7188 Q1617.5455,975.75 1619.7955,975.75 Q1621.1314,975.75 1622.0689,975.4453 Q1622.608,975.2813 1623.2173,974.7422 Q1623.6158,974.4375 1623.8267,974.3438 Q1624.0377,974.25 1624.2955,974.25 Q1624.7877,974.25 1625.1392,974.6484 Q1625.5142,975.0234 1625.5142,975.5625 Q1625.5142,976.0781 1624.9986,976.6875 Q1624.2486,977.5781 1623.0533,978.0703 Q1621.483,978.75 1619.5611,978.75 Q1617.3111,978.75 1615.5064,977.8594 Q1614.0533,977.1563 1613.022,975.6328 Q1612.0142,974.1094 1612.0142,972.3047 L1612.0142,970.6641 Q1612.0142,968.7891 1612.9048,967.1484 Q1613.8189,965.5078 1615.3892,964.6406 Q1616.983,963.75 1618.7642,963.75 Q1619.8423,963.75 1620.7798,964.125 Q1621.7173,964.5 1622.5142,965.25 Z " fill="#000000"/><text fill="#000000" font-family="sans-serif" font-size="18" lengthAdjust="spacing" textLength="103.5" x="1640.5142" y="977.8652">External_API</text><line style="stroke:#A80036;stroke-width:2.25;" x1="1598.5142" x2="1747.0142" y1="994.5" y2="994.5"/><line style="stroke:#A80036;stroke-width:2.25;" x1="1598.5142" x2="1747.0142" y1="1006.5" y2="1006.5"/><!--MD5=[9b099ed1995c6e2a39c231c3e7860d27]
class Reference_Values--><rect codeLine="24" fill="#FEFECE" filter="url(#feprj52399dt6)" height="72" id="Reference_Values" style="stroke:#A80036;stroke-width:2.25;" width="201" x="1240.7642" y="1848"/><ellipse cx="1263.2642" cy="1872" fill="#ADD1B2" rx="16.5" ry="16.5" style="stroke:#A80036;stroke-width:1.5;"/><path d="M1266.2642,1866.75 Q1266.5689,1866 1266.9205,1865.625 Q1267.272,1865.25 1267.6705,1865.25 Q1268.3736,1865.25 1268.8189,1865.6719 Q1269.2642,1866.0938 1269.2642,1867.0781 L1269.2642,1869.4219 Q1269.2642,1870.4063 1268.8423,1870.8281 Q1268.4205,1871.25 1267.7642,1871.25 Q1267.1783,1871.25 1266.8033,1870.9922 Q1266.4283,1870.7344 1266.2642,1870.0547 Q1266.1939,1869.5859 1265.9361,1869.3281 Q1265.4673,1868.8359 1264.6236,1868.5547 Q1263.7798,1868.25 1262.9361,1868.25 Q1261.8814,1868.25 1260.9908,1868.6719 Q1260.1236,1869.0938 1259.4439,1870.0313 Q1258.7642,1870.9688 1258.7642,1872.2578 L1258.7642,1873.6406 Q1258.7642,1875.1875 1260.0298,1876.2188 Q1261.2955,1877.25 1263.5455,1877.25 Q1264.8814,1877.25 1265.8189,1876.9453 Q1266.358,1876.7813 1266.9673,1876.2422 Q1267.3658,1875.9375 1267.5767,1875.8438 Q1267.7877,1875.75 1268.0455,1875.75 Q1268.5377,1875.75 1268.8892,1876.1484 Q1269.2642,1876.5234 1269.2642,1877.0625 Q1269.2642,1877.5781 1268.7486,1878.1875 Q1267.9986,1879.0781 1266.8033,1879.5703 Q1265.233,1880.25 1263.3111,1880.25 Q1261.0611,1880.25 1259.2564,1879.3594 Q1257.8033,1878.6563 1256.772,1877.1328 Q1255.7642,1875.6094 1255.7642,1873.8047 L1255.7642,1872.1641 Q1255.7642,1870.2891 1256.6548,1868.6484 Q1257.5689,1867.0078 1259.1392,1866.1406 Q1260.733,1865.25 1262.5142,1865.25 Q1263.5923,1865.25 1264.5298,1865.625 Q1265.4673,1866 1266.2642,1866.75 Z " fill="#000000"/><text fill="#000000" font-family="sans-serif" font-size="18" lengthAdjust="spacing" textLength="153" x="1284.2642" y="1879.3652">Reference_Values</text><line style="stroke:#A80036;stroke-width:2.25;" x1="1242.2642" x2="1440.2642" y1="1896" y2="1896"/><line style="stroke:#A80036;stroke-width:2.25;" x1="1242.2642" x2="1440.2642" y1="1908" y2="1908"/><!--MD5=[e59bda2572a266093cda22ac34510ea0]
class Barcode--><rect codeLine="36" fill="#FEFECE" filter="url(#feprj52399dt6)" height="92.7539" id="Barcode" style="stroke:#A80036;stroke-width:2.25;" width="117" x="1293.2642" y="936"/><ellipse cx="1315.7642" cy="960" fill="#ADD1B2" rx="16.5" ry="16.5" style="stroke:#A80036;stroke-width:1.5;"/><path d="M1318.7642,954.75 Q1319.0689,954 1319.4205,953.625 Q1319.772,953.25 1320.1705,953.25 Q1320.8736,953.25 1321.3189,953.6719 Q1321.7642,954.0938 1321.7642,955.0781 L1321.7642,957.4219 Q1321.7642,958.4063 1321.3423,958.8281 Q1320.9205,959.25 1320.2642,959.25 Q1319.6783,959.25 1319.3033,958.9922 Q1318.9283,958.7344 1318.7642,958.0547 Q1318.6939,957.5859 1318.4361,957.3281 Q1317.9673,956.8359 1317.1236,956.5547 Q1316.2798,956.25 1315.4361,956.25 Q1314.3814,956.25 1313.4908,956.6719 Q1312.6236,957.0938 1311.9439,958.0313 Q1311.2642,958.9688 1311.2642,960.2578 L1311.2642,961.6406 Q1311.2642,963.1875 1312.5298,964.2188 Q1313.7955,965.25 1316.0455,965.25 Q1317.3814,965.25 1318.3189,964.9453 Q1318.858,964.7813 1319.4673,964.2422 Q1319.8658,963.9375 1320.0767,963.8438 Q1320.2877,963.75 1320.5455,963.75 Q1321.0377,963.75 1321.3892,964.1484 Q1321.7642,964.5234 1321.7642,965.0625 Q1321.7642,965.5781 1321.2486,966.1875 Q1320.4986,967.0781 1319.3033,967.5703 Q1317.733,968.25 1315.8111,968.25 Q1313.5611,968.25 1311.7564,967.3594 Q1310.3033,966.6563 1309.272,965.1328 Q1308.2642,963.6094 1308.2642,961.8047 L1308.2642,960.1641 Q1308.2642,958.2891 1309.1548,956.6484 Q1310.0689,955.0078 1311.6392,954.1406 Q1313.233,953.25 1315.0142,953.25 Q1316.0923,953.25 1317.0298,953.625 Q1317.9673,954 1318.7642,954.75 Z " fill="#000000"/><text fill="#000000" font-family="sans-serif" font-size="18" lengthAdjust="spacing" textLength="69" x="1336.7642" y="967.3652">Barcode</text><line style="stroke:#A80036;stroke-width:2.25;" x1="1294.7642" x2="1408.7642" y1="984" y2="984"/><text fill="#000000" font-family="sans-serif" font-size="16.5" lengthAdjust="spacing" textLength="42" x="1302.2642" y="1007.1284">-code</text><line style="stroke:#A80036;stroke-width:2.25;" x1="1294.7642" x2="1408.7642" y1="1016.7539" y2="1016.7539"/><!--MD5=[09366576ee87d48d594df10cacc83f45]
link Company to Employee--><path codeLine="71" d="M510.3242,1542.03 C523.0892,1598.955 545.3642,1673.385 582.2642,1731 C668.2892,1865.34 813.1592,1989.285 886.4192,2047.365 " fill="none" id="Company-Employee" style="stroke:#A80036;stroke-width:1.5;"/><polygon fill="#000000" points="645.242,1795.7802,640.678,1782.2642,633.6051,1787.5282,645.242,1795.7802" style="stroke:#000000;stroke-width:1.5;"/><text fill="#000000" font-family="sans-serif" font-size="19.5" lengthAdjust="spacing" textLength="55.5" x="654.2642" y="1797.7427">knows</text><text fill="#000000" font-family="sans-serif" font-size="19.5" lengthAdjust="spacing" textLength="10.5" x="501.0198" y="1574.4491">1</text><text fill="#000000" font-family="sans-serif" font-size="19.5" lengthAdjust="spacing" textLength="7.5" x="866.3386" y="2031.3406">*</text><!--MD5=[b921f878c1b19577ef94d929b3e93a58]
link Company to Laboratory--><path codeLine="72" d="M526.2092,1542.375 C537.3842,1566.99 551.5742,1592.835 568.7642,1614 C582.5792,1631.01 600.8192,1646.355 618.2792,1658.91 " fill="none" id="Company-Laboratory" style="stroke:#A80036;stroke-width:1.5;"/><polygon fill="#000000" points="580.9137,1606.6486,575.9618,1593.2698,569.0436,1598.7355,580.9137,1606.6486" style="stroke:#000000;stroke-width:1.5;"/><text fill="#000000" font-family="sans-serif" font-size="19.5" lengthAdjust="spacing" textLength="45" x="589.7642" y="1608.7427">owns</text><text fill="#000000" font-family="sans-serif" font-size="19.5" lengthAdjust="spacing" textLength="10.5" x="518.6802" y="1574.2095">1</text><text fill="#000000" font-family="sans-serif" font-size="19.5" lengthAdjust="spacing" textLength="7.5" x="595.2159" y="1642.8972">*</text><!--MD5=[aa1255e4af638346fc98de7bb86040cd]
link Clinical_Analysis_Laboratory to Laboratory--><path codeLine="73" d="M665.5142,1239.27 C667.4342,1329.165 672.5792,1568.505 674.5142,1658.58 " fill="none" id="Clinical_Analysis_Laboratory-Laboratory" style="stroke:#A80036;stroke-width:1.5;"/><polygon fill="#000000" points="678.4252,1462.0119,682.5414,1448.3528,673.7266,1448.542,678.4252,1462.0119" style="stroke:#000000;stroke-width:1.5;"/><text fill="#000000" font-family="sans-serif" font-size="19.5" lengthAdjust="spacing" textLength="31.5" x="691.7642" y="1462.4927">is a</text><text fill="#000000" font-family="sans-serif" font-size="19.5" lengthAdjust="spacing" textLength="7.5" x="657.283" y="1271.3428">*</text><text fill="#000000" font-family="sans-serif" font-size="19.5" lengthAdjust="spacing" textLength="10.5" x="662.4767" y="1642.4826">1</text><!--MD5=[0a4b97457b3bd0876e0d27cd497e183e]
link Chemical_Laboratory to Laboratory--><path codeLine="74" d="M1254.5942,1490.385 C1213.7042,1506.48 1164.1292,1525.635 1119.2642,1542 C986.6942,1590.345 830.2142,1642.635 742.8992,1671.405 " fill="none" id="Chemical_Laboratory-Laboratory" style="stroke:#A80036;stroke-width:1.5;"/><polygon fill="#000000" points="984.6936,1603.265,998.9547,1602.896,996.0142,1594.5841,984.6936,1603.265" style="stroke:#000000;stroke-width:1.5;"/><text fill="#000000" font-family="sans-serif" font-size="19.5" lengthAdjust="spacing" textLength="31.5" x="1005.2642" y="1608.7427">is a</text><text fill="#000000" font-family="sans-serif" font-size="19.5" lengthAdjust="spacing" textLength="10.5" x="1221.6887" y="1522.4249">1</text><text fill="#000000" font-family="sans-serif" font-size="19.5" lengthAdjust="spacing" textLength="10.5" x="754.9708" y="1661.7959">1</text><!--MD5=[06bb7d2a85a007b79d10922b2d5e4cdd]
link Receptionist to Employee--><path codeLine="75" d="M111.5492,77.805 C68.3042,100.23 22.7642,135.765 22.7642,186 C22.7642,186 22.7642,186 22.7642,1885.5 C22.7642,2058.255 657.9692,2079.495 866.3942,2081.82 " fill="none" id="Receptionist-Employee" style="stroke:#A80036;stroke-width:1.5;"/><polygon fill="#000000" points="32.9079,1105.2823,32.2509,1091.0316,24,1094.1394,32.9079,1105.2823" style="stroke:#000000;stroke-width:1.5;"/><text fill="#000000" font-family="sans-serif" font-size="19.5" lengthAdjust="spacing" textLength="31.5" x="43.7642" y="1106.2427">is a</text><text fill="#000000" font-family="sans-serif" font-size="19.5" lengthAdjust="spacing" textLength="10.5" x="89.5932" y="76.7995">1</text><text fill="#000000" font-family="sans-serif" font-size="19.5" lengthAdjust="spacing" textLength="10.5" x="844.1978" y="2103.8156">1</text><!--MD5=[2d4c399f92ddbcdc8c2269cd010b9280]
link Laboratory_Coordinator to Employee--><path codeLine="76" d="M1626.3092,1490.58 C1620.8042,1576.44 1594.4642,1799.985 1468.7642,1920 C1336.3442,2046.42 1108.8092,2074.53 997.2692,2080.545 " fill="none" id="Laboratory_Coordinator-Employee" style="stroke:#A80036;stroke-width:1.5;"/><polygon fill="#000000" points="1563.7937,1794.8943,1576.7057,1788.8283,1570.6742,1782.3974,1563.7937,1794.8943" style="stroke:#000000;stroke-width:1.5;"/><text fill="#000000" font-family="sans-serif" font-size="19.5" lengthAdjust="spacing" textLength="31.5" x="1582.7642" y="1797.7427">is a</text><text fill="#000000" font-family="sans-serif" font-size="19.5" lengthAdjust="spacing" textLength="10.5" x="1614.1749" y="1522.6674">1</text><text fill="#000000" font-family="sans-serif" font-size="19.5" lengthAdjust="spacing" textLength="10.5" x="1008.988" y="2102.3294">1</text><!--MD5=[45a7766f93d7d4be916bb467d156a72c]
link Medical_Lab_Technician to Employee--><path codeLine="77" d="M1569.5192,473.415 C1676.0192,517.215 1828.7642,603.705 1828.7642,739.5 C1828.7642,739.5 1828.7642,739.5 1828.7642,1885.5 C1828.7642,2055.69 1204.8692,2078.685 997.7192,2081.625 " fill="none" id="Medical_Lab_Technician-Employee" style="stroke:#A80036;stroke-width:1.5;"/><polygon fill="#000000" points="1833.7517,1315.3303,1842.4506,1304.0235,1834.1433,1301.0698,1833.7517,1315.3303" style="stroke:#000000;stroke-width:1.5;"/><text fill="#000000" font-family="sans-serif" font-size="19.5" lengthAdjust="spacing" textLength="31.5" x="1849.7642" y="1316.2427">is a</text><text fill="#000000" font-family="sans-serif" font-size="19.5" lengthAdjust="spacing" textLength="10.5" x="1582.2986" y="505.4622">1</text><text fill="#000000" font-family="sans-serif" font-size="19.5" lengthAdjust="spacing" textLength="10.5" x="1009.0675" y="2075.6984">1</text><!--MD5=[8f7dd94d56b58fc07b233ccd3dd98f8c]
link Administrator to Employee--><path codeLine="78" d="M339.8342,1920.33 C350.3642,1944.345 367.7942,1974.915 393.2642,1992 C469.7192,2043.285 740.1992,2068.56 866.2292,2077.77 " fill="none" id="Administrator-Employee" style="stroke:#A80036;stroke-width:1.5;"/><polygon fill="#000000" points="407.9497,1980.9128,396.2143,1972.8015,393.6878,1981.2485,407.9497,1980.9128" style="stroke:#000000;stroke-width:1.5;"/><text fill="#000000" font-family="sans-serif" font-size="19.5" lengthAdjust="spacing" textLength="31.5" x="414.2642" y="1986.7427">is a</text><text fill="#000000" font-family="sans-serif" font-size="19.5" lengthAdjust="spacing" textLength="10.5" x="331.1185" y="1952.4174">1</text><text fill="#000000" font-family="sans-serif" font-size="19.5" lengthAdjust="spacing" textLength="10.5" x="844.0055" y="2071.1198">1</text><!--MD5=[738be3b9320e072410965e082551cccc]
link Doctor to Employee--><path codeLine="79" d="M2031.3242,1731.15 C2012.8292,1795.05 1963.8392,1930.53 1867.7642,1992 C1794.7142,2038.74 1197.9992,2069.895 997.3292,2079.135 " fill="none" id="Doctor-Employee" style="stroke:#A80036;stroke-width:1.5;"/><polygon fill="#000000" points="1985.156,1886.6559,1999.421,1886.5064,1996.6088,1878.1502,1985.156,1886.6559" style="stroke:#000000;stroke-width:1.5;"/><text fill="#000000" font-family="sans-serif" font-size="19.5" lengthAdjust="spacing" textLength="31.5" x="2005.7642" y="1892.2427">is a</text><text fill="#000000" font-family="sans-serif" font-size="19.5" lengthAdjust="spacing" textLength="10.5" x="2017.3654" y="1763.1935">1</text><text fill="#000000" font-family="sans-serif" font-size="19.5" lengthAdjust="spacing" textLength="10.5" x="1009.058" y="2072.7109">1</text><!--MD5=[d8ce3ee85b6b4189abd519ef3b14e1ce]
link Clinical_Chemistry_Technologist to Employee--><path codeLine="80" d="M931.7642,1490.31 C931.7642,1599.675 931.7642,1937.415 931.7642,2047.155 " fill="none" id="Clinical_Chemistry_Technologist-Employee" style="stroke:#A80036;stroke-width:1.5;"/><polygon fill="#000000" points="939.2642,1797.2637,943.6726,1783.696,934.8558,1783.696,939.2642,1797.2637" style="stroke:#000000;stroke-width:1.5;"/><text fill="#000000" font-family="sans-serif" font-size="19.5" lengthAdjust="spacing" textLength="31.5" x="952.7642" y="1797.7427">is a</text><text fill="#000000" font-family="sans-serif" font-size="19.5" lengthAdjust="spacing" textLength="10.5" x="919.9845" y="1522.3316">1</text><text fill="#000000" font-family="sans-serif" font-size="19.5" lengthAdjust="spacing" textLength="10.5" x="919.9189" y="2031.0768">1</text><!--MD5=[6a35157f4c730bda767e7c9f1b8b7f73]
link Receptionist to Client--><path codeLine="81" d="M187.7642,83.1 C187.7642,135.57 187.7642,236.94 187.7642,317.595 " fill="none" id="Receptionist-Client" style="stroke:#A80036;stroke-width:1.5;"/><polygon fill="#000000" points="195.2642,195.2637,199.6726,181.696,190.8558,181.696,195.2642,195.2637" style="stroke:#000000;stroke-width:1.5;"/><text fill="#000000" font-family="sans-serif" font-size="19.5" lengthAdjust="spacing" textLength="81" x="208.7642" y="195.7427">register a</text><text fill="#000000" font-family="sans-serif" font-size="19.5" lengthAdjust="spacing" textLength="10.5" x="176.0502" y="114.6424">1</text><text fill="#000000" font-family="sans-serif" font-size="19.5" lengthAdjust="spacing" textLength="7.5" x="179.9185" y="301.7466">*</text><!--MD5=[e8b34c2e6517a986175307f5599f058a]
link Receptionist to Test--><path codeLine="82" d="M229.7492,82.95 C254.9042,106.185 285.3692,138.825 303.2642,174 C387.8192,340.275 409.6742,563.925 415.3142,673.47 " fill="none" id="Receptionist-Test" style="stroke:#A80036;stroke-width:1.5;"/><polygon fill="#000000" points="352.0126,266.9187,352.1509,252.6535,343.7396,255.2967,352.0126,266.9187" style="stroke:#000000;stroke-width:1.5;"/><text fill="#000000" font-family="sans-serif" font-size="19.5" lengthAdjust="spacing" textLength="64.5" x="363.2642" y="267.7427">register</text><text fill="#000000" font-family="sans-serif" font-size="19.5" lengthAdjust="spacing" textLength="10.5" x="227.7442" y="114.4577">1</text><text fill="#000000" font-family="sans-serif" font-size="19.5" lengthAdjust="spacing" textLength="7.5" x="406.9058" y="657.1384">*</text><!--MD5=[0bde84c484199f8c429a86e32cc6847f]
link Client to LabOrder--><path codeLine="83" d="M181.2842,556.755 C178.3892,609.735 175.1642,668.355 173.1842,704.565 " fill="none" id="Client-LabOrder" style="stroke:#A80036;stroke-width:1.5;"/><polygon fill="#000000" points="185.8538,622.7524,190.998,609.4464,182.1944,608.9639,185.8538,622.7524" style="stroke:#000000;stroke-width:1.5;"/><text fill="#000000" font-family="sans-serif" font-size="19.5" lengthAdjust="spacing" textLength="48" x="199.7642" y="623.2427">has a</text><text fill="#000000" font-family="sans-serif" font-size="19.5" lengthAdjust="spacing" textLength="10.5" x="169.7762" y="588.3417">1</text><text fill="#000000" font-family="sans-serif" font-size="19.5" lengthAdjust="spacing" textLength="30" x="139.8325" y="688.4638">1..*</text><!--MD5=[84a279e28ad6c3248737114c29c49c27]
link LabOrder to Test--><path codeLine="84" d="M234.6092,741 C276.4742,741 330.4742,741 368.8892,741 " fill="none" id="LabOrder-Test" style="stroke:#A80036;stroke-width:1.5;"/><polygon fill="#000000" points="275.5142,723.2637,261.9466,718.8553,261.9466,727.6721,275.5142,723.2637" style="stroke:#000000;stroke-width:1.5;"/><text fill="#000000" font-family="sans-serif" font-size="19.5" lengthAdjust="spacing" textLength="60" x="281.5142" y="731.2427">order a</text><text fill="#000000" font-family="sans-serif" font-size="19.5" lengthAdjust="spacing" textLength="10.5" x="246.399" y="735.2255">1</text><text fill="#000000" font-family="sans-serif" font-size="19.5" lengthAdjust="spacing" textLength="10.5" x="346.6587" y="734.7561">1</text><!--MD5=[e981d4f96c4342412d1e68160b30cf70]
link Test to TestType--><path codeLine="85" d="M407.0942,808.755 C392.5592,903.345 366.2492,1074.63 353.7392,1156.095 " fill="none" id="Test-TestType" style="stroke:#A80036;stroke-width:1.5;"/><polygon fill="#000000" points="395.1255,990.1767,401.5427,977.4357,392.8282,976.0971,395.1255,990.1767" style="stroke:#000000;stroke-width:1.5;"/><text fill="#000000" font-family="sans-serif" font-size="19.5" lengthAdjust="spacing" textLength="64.5" x="409.7642" y="990.7427">under a</text><text fill="#000000" font-family="sans-serif" font-size="19.5" lengthAdjust="spacing" textLength="7.5" x="397.7237" y="839.7998">*</text><text fill="#000000" font-family="sans-serif" font-size="19.5" lengthAdjust="spacing" textLength="10.5" x="343.595" y="1140.2683">1</text><!--MD5=[b72ac8ab7fb5921fceb5036a3902baea]
link Test to Sample--><path codeLine="86" d="M465.7892,759.27 C587.5592,801.36 906.1742,911.49 1043.1392,958.845 " fill="none" id="Test-Sample" style="stroke:#A80036;stroke-width:1.5;"/><polygon fill="#000000" points="817.3527,869.714,805.9698,861.1149,803.0893,869.4478,817.3527,869.714" style="stroke:#000000;stroke-width:1.5;"/><text fill="#000000" font-family="sans-serif" font-size="19.5" lengthAdjust="spacing" textLength="52.5" x="823.7642" y="875.2427">needs</text><text fill="#000000" font-family="sans-serif" font-size="19.5" lengthAdjust="spacing" textLength="10.5" x="477.5525" y="757.0227">1</text><text fill="#000000" font-family="sans-serif" font-size="19.5" lengthAdjust="spacing" textLength="30" x="1001.5177" y="949.9257">1..*</text><!--MD5=[67f3eb9464bc08ca2c5b58e33c8e251a]
link Medical_Lab_Technician to Sample--><path codeLine="87" d="M1445.6042,473.49 C1384.5992,565.005 1219.0592,813.3 1144.5242,925.11 " fill="none" id="Medical_Lab_Technician-Sample" style="stroke:#A80036;stroke-width:1.5;"/><polygon fill="#000000" points="1314.604,747.504,1325.7979,738.6604,1318.4619,733.7698,1314.604,747.504" style="stroke:#000000;stroke-width:1.5;"/><text fill="#000000" font-family="sans-serif" font-size="19.5" lengthAdjust="spacing" textLength="57" x="1332.2642" y="749.2427">collect</text><text fill="#000000" font-family="sans-serif" font-size="19.5" lengthAdjust="spacing" textLength="10.5" x="1428.1793" y="505.5554">1</text><text fill="#000000" font-family="sans-serif" font-size="19.5" lengthAdjust="spacing" textLength="7.5" x="1142.9932" y="909.0834">*</text><!--MD5=[066eeab0ddf9d5e82045888553ec8bea]
link Sample to Chemical_Laboratory--><path codeLine="88" d="M1135.0292,1039.62 C1183.8092,1137.345 1283.5742,1337.175 1323.8342,1417.845 " fill="none" id="Sample-Chemical_Laboratory" style="stroke:#A80036;stroke-width:1.5;"/><polygon fill="#000000" points="1245.614,1209.9741,1243.4985,1195.8659,1235.61,1199.8038,1245.614,1209.9741" style="stroke:#000000;stroke-width:1.5;"/><text fill="#000000" font-family="sans-serif" font-size="19.5" lengthAdjust="spacing" textLength="64.5" x="1255.7642" y="1211.2427">send to</text><text fill="#000000" font-family="sans-serif" font-size="19.5" lengthAdjust="spacing" textLength="7.5" x="1131.5067" y="1071.3951">*</text><text fill="#000000" font-family="sans-serif" font-size="19.5" lengthAdjust="spacing" textLength="10.5" x="1307.5225" y="1401.7515">1</text><!--MD5=[327391d6abe62f0446af3ffbf41cf7ec]
link Sample to Barcode--><path codeLine="89" d="M1171.5092,982.5 C1209.1442,982.5 1256.3192,982.5 1292.9792,982.5 " fill="none" id="Sample-Barcode" style="stroke:#A80036;stroke-width:1.5;"/><polygon fill="#000000" points="1211.8892,964.7637,1198.3216,960.3553,1198.3216,969.1721,1211.8892,964.7637" style="stroke:#000000;stroke-width:1.5;"/><text fill="#000000" font-family="sans-serif" font-size="19.5" lengthAdjust="spacing" textLength="48" x="1217.8892" y="972.7427">has a</text><text fill="#000000" font-family="sans-serif" font-size="19.5" lengthAdjust="spacing" textLength="10.5" x="1183.0193" y="976.8396">1</text><text fill="#000000" font-family="sans-serif" font-size="19.5" lengthAdjust="spacing" textLength="10.5" x="1270.6728" y="976.6015">1</text><!--MD5=[388a00413fc3108aa0baec2b59b7bdf9]
link Barcode to External_API--><path codeLine="90" d="M1410.6392,982.5 C1462.9442,982.5 1539.7142,982.5 1596.6692,982.5 " fill="none" id="Barcode-External_API" style="stroke:#A80036;stroke-width:1.5;"/><polygon fill="#000000" points="1451.1392,964.7637,1437.5716,960.3553,1437.5716,969.1721,1451.1392,964.7637" style="stroke:#000000;stroke-width:1.5;"/><text fill="#000000" font-family="sans-serif" font-size="19.5" lengthAdjust="spacing" textLength="112.5" x="1457.1392" y="972.7427">generated by</text><text fill="#000000" font-family="sans-serif" font-size="19.5" lengthAdjust="spacing" textLength="7.5" x="1422.1857" y="976.6015">*</text><text fill="#000000" font-family="sans-serif" font-size="19.5" lengthAdjust="spacing" textLength="10.5" x="1574.7301" y="977.0923">1</text><!--MD5=[55a9865c974ffedc3ab58fdf8180d268]
link Clinical_Chemistry_Technologist to Chemical_Laboratory--><path codeLine="91" d="M1092.4292,1454.25 C1137.9242,1454.25 1186.4492,1454.25 1228.4642,1454.25 " fill="none" id="Clinical_Chemistry_Technologist-Chemical_Laboratory" style="stroke:#A80036;stroke-width:1.5;"/><polygon fill="#000000" points="1133.5142,1436.5137,1119.9466,1432.1053,1119.9466,1440.9221,1133.5142,1436.5137" style="stroke:#000000;stroke-width:1.5;"/><text fill="#000000" font-family="sans-serif" font-size="19.5" lengthAdjust="spacing" textLength="61.5" x="1139.5142" y="1444.4927">work in</text><text fill="#000000" font-family="sans-serif" font-size="19.5" lengthAdjust="spacing" textLength="7.5" x="1104.5034" y="1449.6308">*</text><text fill="#000000" font-family="sans-serif" font-size="19.5" lengthAdjust="spacing" textLength="10.5" x="1206.3437" y="1449.3374">1</text><!--MD5=[afe83291a4ff360dae8c5a3fdf90a0a3]
link Clinical_Chemistry_Technologist to Chemical_Analyses--><path codeLine="92" d="M991.3142,1490.325 C1068.9542,1535.4 1203.9692,1613.79 1281.6542,1658.88 " fill="none" id="Clinical_Chemistry_Technologist-Chemical_Analyses" style="stroke:#A80036;stroke-width:1.5;"/><polygon fill="#000000" points="1209.7504,1604.5292,1200.2301,1593.9048,1195.8035,1601.5298,1209.7504,1604.5292" style="stroke:#000000;stroke-width:1.5;"/><text fill="#000000" font-family="sans-serif" font-size="19.5" lengthAdjust="spacing" textLength="64.5" x="1216.7642" y="1608.7427">perform</text><text fill="#000000" font-family="sans-serif" font-size="19.5" lengthAdjust="spacing" textLength="10.5" x="994.0498" y="1522.3502">1</text><text fill="#000000" font-family="sans-serif" font-size="19.5" lengthAdjust="spacing" textLength="7.5" x="1257.9182" y="1642.8595">*</text><!--MD5=[59d44bdecc6aa2c729a3967aadca6766]
link TestType to Parameters--><path codeLine="93" d="M339.3392,1250.04 C331.4342,1298.46 319.1042,1374.015 311.9492,1417.92 " fill="none" id="TestType-Parameters" style="stroke:#A80036;stroke-width:1.5;"/><polygon fill="#000000" points="336.5565,1315.6658,343.0921,1302.9851,334.3904,1301.5654,336.5565,1315.6658" style="stroke:#000000;stroke-width:1.5;"/><text fill="#000000" font-family="sans-serif" font-size="19.5" lengthAdjust="spacing" textLength="63" x="351.2642" y="1316.2427">contain</text><text fill="#000000" font-family="sans-serif" font-size="19.5" lengthAdjust="spacing" textLength="7.5" x="329.709" y="1281.6109">*</text><text fill="#000000" font-family="sans-serif" font-size="19.5" lengthAdjust="spacing" textLength="30" x="279.5622" y="1401.8457">1..*</text><!--MD5=[6153584152eea4d43fc5098491765777]
link Parameters to Category--><path codeLine="94" d="M311.9342,1490.325 C319.3292,1535.4 332.1842,1613.79 339.5792,1658.88 " fill="none" id="Parameters-Category" style="stroke:#A80036;stroke-width:1.5;"/><polygon fill="#000000" points="338.9781,1608.1648,341.1324,1594.0625,332.4319,1595.4895,338.9781,1608.1648" style="stroke:#000000;stroke-width:1.5;"/><text fill="#000000" font-family="sans-serif" font-size="19.5" lengthAdjust="spacing" textLength="48" x="351.2642" y="1608.7427">under</text><text fill="#000000" font-family="sans-serif" font-size="19.5" lengthAdjust="spacing" textLength="7.5" x="304.9022" y="1522.3502">*</text><text fill="#000000" font-family="sans-serif" font-size="19.5" lengthAdjust="spacing" textLength="10.5" x="326.2771" y="1642.8595">1</text><!--MD5=[2c46651aa9ea3a6d986170fabc83ad48]
link Category to Administrator--><path codeLine="95" d="M341.9192,1731.045 C338.7092,1764.255 333.8792,1814.16 330.6542,1847.505 " fill="none" id="Category-Administrator" style="stroke:#A80036;stroke-width:1.5;"/><polygon fill="#000000" points="344.4863,1782.2985,338.7921,1795.3787,347.5679,1796.2275,344.4863,1782.2985" style="stroke:#000000;stroke-width:1.5;"/><text fill="#000000" font-family="sans-serif" font-size="19.5" lengthAdjust="spacing" textLength="54" x="357.2642" y="1797.7427">create</text><text fill="#000000" font-family="sans-serif" font-size="19.5" lengthAdjust="spacing" textLength="7.5" x="332.6898" y="1763.0629">*</text><text fill="#000000" font-family="sans-serif" font-size="19.5" lengthAdjust="spacing" textLength="10.5" x="319.7008" y="1831.9913">1</text><!--MD5=[a30860acc0b1e1e93377b3e8bf0b9e42]
link Parameters to Administrator--><path codeLine="96" d="M270.9392,1490.535 C222.8042,1542.36 146.4242,1643.175 181.7642,1731 C201.0992,1779.045 243.7442,1820.4 277.8992,1847.715 " fill="none" id="Parameters-Administrator" style="stroke:#A80036;stroke-width:1.5;"/><polygon fill="#000000" points="189.1181,1687.7651,184.9749,1701.416,193.79,1701.2443,189.1181,1687.7651" style="stroke:#000000;stroke-width:1.5;"/><text fill="#000000" font-family="sans-serif" font-size="19.5" lengthAdjust="spacing" textLength="54" x="202.7642" y="1703.2427">create</text><text fill="#000000" font-family="sans-serif" font-size="19.5" lengthAdjust="spacing" textLength="7.5" x="253.9147" y="1522.6114">*</text><text fill="#000000" font-family="sans-serif" font-size="19.5" lengthAdjust="spacing" textLength="10.5" x="253.4041" y="1831.6522">1</text><!--MD5=[97bf7d4409aa0aabe6940c9420d19100]
link Doctor to Chemical_Analyses--><path codeLine="97" d="M1989.1442,1695 C1875.6092,1695 1600.4942,1695 1447.8092,1695 " fill="none" id="Doctor-Chemical_Analyses" style="stroke:#A80036;stroke-width:1.5;"/><polygon fill="#000000" points="1679.5142,1677.2637,1693.0818,1681.6721,1693.0818,1672.8553,1679.5142,1677.2637" style="stroke:#000000;stroke-width:1.5;"/><text fill="#000000" font-family="sans-serif" font-size="19.5" lengthAdjust="spacing" textLength="55.5" x="1700.5142" y="1685.2427">knows</text><text fill="#000000" font-family="sans-serif" font-size="19.5" lengthAdjust="spacing" textLength="10.5" x="1967.0179" y="1688.8221">1</text><text fill="#000000" font-family="sans-serif" font-size="19.5" lengthAdjust="spacing" textLength="7.5" x="1459.8727" y="1689.959">*</text><!--MD5=[ea81175f604d6a35cf7833ef6a6b10c7]
link Doctor to Report--><path codeLine="98" d="M2053.8392,1731.39 C2081.0942,1801.455 2142.4742,1959.165 2172.7292,2036.925 " fill="none" id="Doctor-Report" style="stroke:#A80036;stroke-width:1.5;"/><polygon fill="#000000" points="2134.484,1891.2532,2133.6722,1877.0104,2125.4556,1880.2077,2134.484,1891.2532" style="stroke:#000000;stroke-width:1.5;"/><text fill="#000000" font-family="sans-serif" font-size="19.5" lengthAdjust="spacing" textLength="40.5" x="2145.2642" y="1892.2427">write</text><text fill="#000000" font-family="sans-serif" font-size="19.5" lengthAdjust="spacing" textLength="10.5" x="2045.3684" y="1763.492">1</text><text fill="#000000" font-family="sans-serif" font-size="19.5" lengthAdjust="spacing" textLength="7.5" x="2160.5731" y="2020.439">*</text><!--MD5=[dd54e598cac7fafada6498813f841094]
link Laboratory_Coordinator to Report--><path codeLine="99" d="M1749.6392,1478.94 C1858.7642,1505.43 2016.7892,1558.74 2118.2642,1659 C2220.8042,1760.31 2209.4642,1950.135 2197.8242,2036.79 " fill="none" id="Laboratory_Coordinator-Report" style="stroke:#A80036;stroke-width:1.5;"/><polygon fill="#000000" points="2202.4616,1795.6104,2197.4006,1782.2725,2190.5273,1787.7946,2202.4616,1795.6104" style="stroke:#000000;stroke-width:1.5;"/><text fill="#000000" font-family="sans-serif" font-size="19.5" lengthAdjust="spacing" textLength="75" x="2211.2642" y="1797.7427">validates</text><text fill="#000000" font-family="sans-serif" font-size="19.5" lengthAdjust="spacing" textLength="10.5" x="1761.3586" y="1476.3768">1</text><text fill="#000000" font-family="sans-serif" font-size="19.5" lengthAdjust="spacing" textLength="7.5" x="2191.11" y="2021.0035">*</text><!--MD5=[da711191734cedfa923cb6d15ab387e4]
link Laboratory_Coordinator to Chemical_Analyses--><path codeLine="100" d="M1586.1092,1490.325 C1531.7792,1535.4 1437.3242,1613.79 1382.9792,1658.88 " fill="none" id="Laboratory_Coordinator-Chemical_Analyses" style="stroke:#A80036;stroke-width:1.5;"/><polygon fill="#000000" points="1468.9925,1605.553,1482.2487,1600.2816,1476.6185,1593.4965,1468.9925,1605.553" style="stroke:#000000;stroke-width:1.5;"/><text fill="#000000" font-family="sans-serif" font-size="19.5" lengthAdjust="spacing" textLength="75" x="1488.2642" y="1608.7427">validates</text><text fill="#000000" font-family="sans-serif" font-size="19.5" lengthAdjust="spacing" textLength="10.5" x="1564.1761" y="1522.3502">1</text><text fill="#000000" font-family="sans-serif" font-size="19.5" lengthAdjust="spacing" textLength="7.5" x="1385.2077" y="1642.8595">*</text><!--MD5=[27969557b789a3a8615f455b93804dd6]
link Chemical_Analyses to Reference_Values--><path codeLine="101" d="M1341.2642,1731.045 C1341.2642,1764.255 1341.2642,1814.16 1341.2642,1847.505 " fill="none" id="Chemical_Analyses-Reference_Values" style="stroke:#A80036;stroke-width:1.5;"/><polygon fill="#000000" points="1348.7642,1797.2637,1353.1726,1783.696,1344.3558,1783.696,1348.7642,1797.2637" style="stroke:#000000;stroke-width:1.5;"/><text fill="#000000" font-family="sans-serif" font-size="19.5" lengthAdjust="spacing" textLength="105" x="1362.2642" y="1797.7427">analyzed by</text><text fill="#000000" font-family="sans-serif" font-size="19.5" lengthAdjust="spacing" textLength="7.5" x="1332.8502" y="1763.0629">*</text><text fill="#000000" font-family="sans-serif" font-size="19.5" lengthAdjust="spacing" textLength="7.5" x="1332.8502" y="1831.9913">*</text><!--MD5=[5c8b8e7f88d142648b3f7f498d239779]
@startuml
'https://plantuml.com/class-diagram
skinparam classAttributeIconSize 0
class Company
class Employee
class Clinical_Analysis_Laboratory
class Receptionist
class Test
class TestType
class Category
class Parameters
class Sample
class Medical_Lab_Technician
class Doctor
class Report
class Chemical_Analyses
class Chemical_Laboratory
class Clinical_Chemistry_Technologist
class LabOrder
class Client
class Laboratory_Coordinator
class Administrator
class Laboratory
class External_API
class Reference_Values
class Barcode

class Company{
-name
-designation
-category
-address
-headquarter
}
class Laboratory{
}
class Barcode{
-code
}

class Report{
-diagnosis
}

class Sample{
-barcode
-collection date
}

class Test{
-code
-nhsCode
-createdAt
}
class TestType{
-designation
}

class Client{
 - Name
 - Email
 - Phone Number
 - Sex
 - TIF
 - Birth Date
 - NHS Number
 - Citizen Card Number

}


Company "1"- - -"*" Employee : knows >
Company "1"- -"*" Laboratory : owns >
Clinical_Analysis_Laboratory "*"- - -"1" Laboratory : is a >
Chemical_Laboratory "1"- -"1" Laboratory : is a >
Receptionist "1"- -"1" Employee : is a >
Laboratory_Coordinator "1"- -"1" Employee : is a >
Medical_Lab_Technician "1"- -"1" Employee : is a >
Administrator "1"- -"1" Employee : is a >
Doctor "1"- - -"1" Employee : is a >
Clinical_Chemistry_Technologist "1"- - - -"1" Employee : is a >
Receptionist "1"- - -"*" Client : register a >
Receptionist "1"-"*" Test : register >
Client "1"- -"1..*" LabOrder : has a >
LabOrder "1"-"1" Test : order a >
Test "*"- - -"1" TestType : under a >
Test "1"-"1..*" Sample : needs >
Medical_Lab_Technician "1"- - -"*" Sample : collect >
Sample "*"- - -"1" Chemical_Laboratory : send to >
Sample "1"-"1" Barcode : has a >
Barcode "*"-"1" External_API : generated by >
Clinical_Chemistry_Technologist "*"-"1" Chemical_Laboratory : work in >
Clinical_Chemistry_Technologist "1"- -"*" Chemical_Analyses : perform >
TestType "*"- -"1..*" Parameters : contain >
Parameters "*"- -"1" Category : under >
Category "*"- -"1" Administrator : < create
Parameters "*"- - -"1"Administrator : < create
Doctor "1"-"*" Chemical_Analyses : knows >
Doctor "1"- - -"*" Report : write >
Laboratory_Coordinator "1"-"*" Report : validates >
Laboratory_Coordinator "1"- -"*" Chemical_Analyses : validates >
Chemical_Analyses "*"- -"*" Reference_Values : analyzed by >





@enduml

@startuml
skinparam classAttributeIconSize 0
class Company
class Employee
class Clinical_Analysis_Laboratory
class Receptionist
class Test
class TestType
class Category
class Parameters
class Sample
class Medical_Lab_Technician
class Doctor
class Report
class Chemical_Analyses
class Chemical_Laboratory
class Clinical_Chemistry_Technologist
class LabOrder
class Client
class Laboratory_Coordinator
class Administrator
class Laboratory
class External_API
class Reference_Values
class Barcode

class Company{
-name
-designation
-category
-address
-headquarter
}
class Laboratory{
}
class Barcode{
-code
}

class Report{
-diagnosis
}

class Sample{
-barcode
-collection date
}

class Test{
-code
-nhsCode
-createdAt
}
class TestType{
-designation
}

class Client{
 - Name
 - Email
 - Phone Number
 - Sex
 - TIF
 - Birth Date
 - NHS Number
 - Citizen Card Number

}


Company "1"- - -"*" Employee : knows >
Company "1"- -"*" Laboratory : owns >
Clinical_Analysis_Laboratory "*"- - -"1" Laboratory : is a >
Chemical_Laboratory "1"- -"1" Laboratory : is a >
Receptionist "1"- -"1" Employee : is a >
Laboratory_Coordinator "1"- -"1" Employee : is a >
Medical_Lab_Technician "1"- -"1" Employee : is a >
Administrator "1"- -"1" Employee : is a >
Doctor "1"- - -"1" Employee : is a >
Clinical_Chemistry_Technologist "1"- - - -"1" Employee : is a >
Receptionist "1"- - -"*" Client : register a >
Receptionist "1"-"*" Test : register >
Client "1"- -"1..*" LabOrder : has a >
LabOrder "1"-"1" Test : order a >
Test "*"- - -"1" TestType : under a >
Test "1"-"1..*" Sample : needs >
Medical_Lab_Technician "1"- - -"*" Sample : collect >
Sample "*"- - -"1" Chemical_Laboratory : send to >
Sample "1"-"1" Barcode : has a >
Barcode "*"-"1" External_API : generated by >
Clinical_Chemistry_Technologist "*"-"1" Chemical_Laboratory : work in >
Clinical_Chemistry_Technologist "1"- -"*" Chemical_Analyses : perform >
TestType "*"- -"1..*" Parameters : contain >
Parameters "*"- -"1" Category : under >
Category "*"- -"1" Administrator : < create
Parameters "*"- - -"1"Administrator : < create
Doctor "1"-"*" Chemical_Analyses : knows >
Doctor "1"- - -"*" Report : write >
Laboratory_Coordinator "1"-"*" Report : validates >
Laboratory_Coordinator "1"- -"*" Chemical_Analyses : validates >
Chemical_Analyses "*"- -"*" Reference_Values : analyzed by >





@enduml

PlantUML version 1.2021.4(Sun Apr 04 09:49:39 BST 2021)
(GPL source distribution)
Java Runtime: OpenJDK Runtime Environment
JVM: Dynamic Code Evolution 64-Bit Server VM
Default Encoding: Cp1252
Language: pt
Country: PT
--></g></svg>