<?xml version="1.0" encoding="UTF-8" standalone="no"?><svg xmlns="http://www.w3.org/2000/svg" xmlns:xlink="http://www.w3.org/1999/xlink" contentScriptType="application/ecmascript" contentStyleType="text/css" height="995.4px" preserveAspectRatio="none" style="width:870px;height:995px;" version="1.1" viewBox="0 0 870 995" width="870px" zoomAndPan="magnify"><defs><filter height="300%" id="f16i0knrpx5bdx" width="300%" x="-1" y="-1"><feGaussianBlur result="blurOut" stdDeviation="1.2"/><feColorMatrix in="blurOut" result="blurOut2" type="matrix" values="0 0 0 0 0 0 0 0 0 0 0 0 0 0 0 0 0 0 .4 0"/><feOffset dx="2.4" dy="2.4" in="blurOut2" result="blurOut3"/><feBlend in="SourceGraphic" in2="blurOut3" mode="normal"/></filter></defs><g><!--MD5=[02e4b9b7573f1156f41e60aa5b4e25a4]
class Company--><rect codeLine="27" fill="#FEFECE" filter="url(#f16i0knrpx5bdx)" height="70.3078" id="Company" style="stroke:#A80036;stroke-width:0.8999999999999999;" width="51" x="636.108" y="648.6"/><ellipse cx="645.108" cy="658.2" fill="#ADD1B2" rx="6.6" ry="6.6" style="stroke:#A80036;stroke-width:0.6;"/><path d="M646.308,656.1 Q646.4299,655.8 646.5705,655.65 Q646.7111,655.5 646.8705,655.5 Q647.1518,655.5 647.3299,655.6687 Q647.508,655.8375 647.508,656.2312 L647.508,657.1687 Q647.508,657.5625 647.3393,657.7312 Q647.1705,657.9 646.908,657.9 Q646.6736,657.9 646.5236,657.7969 Q646.3736,657.6938 646.308,657.4219 Q646.2799,657.2344 646.1768,657.1313 Q645.9893,656.9344 645.6518,656.8219 Q645.3143,656.7 644.9768,656.7 Q644.5549,656.7 644.1986,656.8688 Q643.8518,657.0375 643.5799,657.4125 Q643.308,657.7875 643.308,658.3031 L643.308,658.8562 Q643.308,659.475 643.8143,659.8875 Q644.3205,660.3 645.2205,660.3 Q645.7549,660.3 646.1299,660.1781 Q646.3455,660.1125 646.5893,659.8969 Q646.7486,659.775 646.833,659.7375 Q646.9174,659.7 647.0205,659.7 Q647.2174,659.7 647.358,659.8594 Q647.508,660.0094 647.508,660.225 Q647.508,660.4313 647.3018,660.675 Q647.0018,661.0313 646.5236,661.2281 Q645.8955,661.5 645.1268,661.5 Q644.2268,661.5 643.5049,661.1438 Q642.9236,660.8625 642.5111,660.2531 Q642.108,659.6438 642.108,658.9219 L642.108,658.2656 Q642.108,657.5156 642.4643,656.8594 Q642.8299,656.2031 643.458,655.8562 Q644.0955,655.5 644.808,655.5 Q645.2393,655.5 645.6143,655.65 Q645.9893,655.8 646.308,656.1 Z " fill="#000000"/><text fill="#000000" font-family="sans-serif" font-size="7.2" lengthAdjust="spacing" textLength="31.8" x="653.508" y="661.1461">Company</text><line style="stroke:#A80036;stroke-width:0.8999999999999999;" x1="636.708" x2="686.508" y1="667.8" y2="667.8"/><text fill="#000000" font-family="sans-serif" font-size="6.6" lengthAdjust="spacing" textLength="18" x="639.708" y="677.0514">-name</text><text fill="#000000" font-family="sans-serif" font-size="6.6" lengthAdjust="spacing" textLength="35.4" x="639.708" y="685.3529">-designation</text><text fill="#000000" font-family="sans-serif" font-size="6.6" lengthAdjust="spacing" textLength="28.2" x="639.708" y="693.6545">-category</text><text fill="#000000" font-family="sans-serif" font-size="6.6" lengthAdjust="spacing" textLength="26.4" x="639.708" y="701.9561">-address</text><text fill="#000000" font-family="sans-serif" font-size="6.6" lengthAdjust="spacing" textLength="37.8" x="639.708" y="710.2576">-headquarter</text><line style="stroke:#A80036;stroke-width:0.8999999999999999;" x1="636.708" x2="686.508" y1="714.1078" y2="714.1078"/><!--MD5=[7421f545a0d8420c5bec41e74b387d9c]
class Employee--><rect codeLine="4" fill="#FEFECE" filter="url(#f16i0knrpx5bdx)" height="28.8" id="Employee" style="stroke:#A80036;stroke-width:0.8999999999999999;" width="52.2" x="364.908" y="946.2"/><ellipse cx="373.908" cy="955.8" fill="#ADD1B2" rx="6.6" ry="6.6" style="stroke:#A80036;stroke-width:0.6;"/><path d="M375.108,953.7 Q375.2299,953.4 375.3705,953.25 Q375.5111,953.1 375.6705,953.1 Q375.9517,953.1 376.1299,953.2688 Q376.308,953.4375 376.308,953.8313 L376.308,954.7688 Q376.308,955.1625 376.1392,955.3313 Q375.9705,955.5 375.708,955.5 Q375.4736,955.5 375.3236,955.3969 Q375.1736,955.2937 375.108,955.0219 Q375.0799,954.8344 374.9768,954.7312 Q374.7893,954.5344 374.4517,954.4219 Q374.1142,954.3 373.7767,954.3 Q373.3549,954.3 372.9986,954.4688 Q372.6517,954.6375 372.3799,955.0125 Q372.108,955.3875 372.108,955.9031 L372.108,956.4563 Q372.108,957.075 372.6142,957.4875 Q373.1205,957.9 374.0205,957.9 Q374.5549,957.9 374.9299,957.7781 Q375.1455,957.7125 375.3892,957.4969 Q375.5486,957.375 375.633,957.3375 Q375.7174,957.3 375.8205,957.3 Q376.0174,957.3 376.158,957.4594 Q376.308,957.6094 376.308,957.825 Q376.308,958.0313 376.1018,958.275 Q375.8017,958.6312 375.3236,958.8281 Q374.6955,959.1 373.9267,959.1 Q373.0267,959.1 372.3049,958.7438 Q371.7236,958.4625 371.3111,957.8531 Q370.908,957.2438 370.908,956.5219 L370.908,955.8656 Q370.908,955.1156 371.2642,954.4594 Q371.6299,953.8031 372.258,953.4563 Q372.8955,953.1 373.608,953.1 Q374.0393,953.1 374.4143,953.25 Q374.7893,953.4 375.108,953.7 Z " fill="#000000"/><text fill="#000000" font-family="sans-serif" font-size="7.2" lengthAdjust="spacing" textLength="33" x="382.308" y="958.7461">Employee</text><line style="stroke:#A80036;stroke-width:0.8999999999999999;" x1="365.508" x2="416.508" y1="965.4" y2="965.4"/><line style="stroke:#A80036;stroke-width:0.8999999999999999;" x1="365.508" x2="416.508" y1="970.2" y2="970.2"/><!--MD5=[7bbeb2ee2985aba439820f756b846a5a]
class Clinical_Analysis_Laboratory--><rect codeLine="5" fill="#FEFECE" filter="url(#f16i0knrpx5bdx)" height="28.8" id="Clinical_Analysis_Laboratory" style="stroke:#A80036;stroke-width:0.8999999999999999;" width="114.6" x="672.108" y="568.8"/><ellipse cx="681.108" cy="578.4" fill="#ADD1B2" rx="6.6" ry="6.6" style="stroke:#A80036;stroke-width:0.6;"/><path d="M682.308,576.3 Q682.4299,576 682.5705,575.85 Q682.7111,575.7 682.8705,575.7 Q683.1518,575.7 683.3299,575.8688 Q683.508,576.0375 683.508,576.4313 L683.508,577.3688 Q683.508,577.7625 683.3393,577.9313 Q683.1705,578.1 682.908,578.1 Q682.6736,578.1 682.5236,577.9969 Q682.3736,577.8938 682.308,577.6219 Q682.2799,577.4344 682.1768,577.3313 Q681.9893,577.1344 681.6518,577.0219 Q681.3143,576.9 680.9768,576.9 Q680.5549,576.9 680.1986,577.0688 Q679.8518,577.2375 679.5799,577.6125 Q679.308,577.9875 679.308,578.5031 L679.308,579.0563 Q679.308,579.675 679.8143,580.0875 Q680.3205,580.5 681.2205,580.5 Q681.7549,580.5 682.1299,580.3781 Q682.3455,580.3125 682.5893,580.0969 Q682.7486,579.975 682.833,579.9375 Q682.9174,579.9 683.0205,579.9 Q683.2174,579.9 683.358,580.0594 Q683.508,580.2094 683.508,580.425 Q683.508,580.6313 683.3018,580.875 Q683.0018,581.2312 682.5236,581.4281 Q681.8955,581.7 681.1268,581.7 Q680.2268,581.7 679.5049,581.3438 Q678.9236,581.0625 678.5111,580.4531 Q678.108,579.8438 678.108,579.1219 L678.108,578.4656 Q678.108,577.7156 678.4643,577.0594 Q678.8299,576.4031 679.458,576.0563 Q680.0955,575.7 680.808,575.7 Q681.2393,575.7 681.6143,575.85 Q681.9893,576 682.308,576.3 Z " fill="#000000"/><text fill="#000000" font-family="sans-serif" font-size="7.2" lengthAdjust="spacing" textLength="95.4" x="689.508" y="581.3461">Clinical_Analysis_Laboratory</text><line style="stroke:#A80036;stroke-width:0.8999999999999999;" x1="672.708" x2="786.108" y1="588" y2="588"/><line style="stroke:#A80036;stroke-width:0.8999999999999999;" x1="672.708" x2="786.108" y1="592.8" y2="592.8"/><!--MD5=[03960189e81aa2c066c762ffabbee709]
class Receptionist--><rect codeLine="6" fill="#FEFECE" filter="url(#f16i0knrpx5bdx)" height="28.8" id="Receptionist" style="stroke:#A80036;stroke-width:0.8999999999999999;" width="60.6" x="573.708" y="4.2"/><ellipse cx="582.708" cy="13.8" fill="#ADD1B2" rx="6.6" ry="6.6" style="stroke:#A80036;stroke-width:0.6;"/><path d="M583.908,11.7 Q584.0299,11.4 584.1705,11.25 Q584.3111,11.1 584.4705,11.1 Q584.7517,11.1 584.9299,11.2687 Q585.108,11.4375 585.108,11.8312 L585.108,12.7687 Q585.108,13.1625 584.9392,13.3312 Q584.7705,13.5 584.508,13.5 Q584.2736,13.5 584.1236,13.3969 Q583.9736,13.2938 583.908,13.0219 Q583.8799,12.8344 583.7768,12.7313 Q583.5893,12.5344 583.2517,12.4219 Q582.9142,12.3 582.5768,12.3 Q582.1549,12.3 581.7986,12.4688 Q581.4518,12.6375 581.1799,13.0125 Q580.908,13.3875 580.908,13.9031 L580.908,14.4562 Q580.908,15.075 581.4142,15.4875 Q581.9205,15.9 582.8205,15.9 Q583.3549,15.9 583.7299,15.7781 Q583.9455,15.7125 584.1892,15.4969 Q584.3486,15.375 584.433,15.3375 Q584.5174,15.3 584.6205,15.3 Q584.8174,15.3 584.958,15.4594 Q585.108,15.6094 585.108,15.825 Q585.108,16.0313 584.9018,16.275 Q584.6017,16.6312 584.1236,16.8281 Q583.4955,17.1 582.7267,17.1 Q581.8268,17.1 581.1049,16.7438 Q580.5236,16.4625 580.1111,15.8531 Q579.708,15.2437 579.708,14.5219 L579.708,13.8656 Q579.708,13.1156 580.0642,12.4594 Q580.4299,11.8031 581.058,11.4562 Q581.6955,11.1 582.408,11.1 Q582.8393,11.1 583.2143,11.25 Q583.5893,11.4 583.908,11.7 Z " fill="#000000"/><text fill="#000000" font-family="sans-serif" font-size="7.2" lengthAdjust="spacing" textLength="41.4" x="591.108" y="16.7461">Receptionist</text><line style="stroke:#A80036;stroke-width:0.8999999999999999;" x1="574.308" x2="633.708" y1="23.4" y2="23.4"/><line style="stroke:#A80036;stroke-width:0.8999999999999999;" x1="574.308" x2="633.708" y1="28.2" y2="28.2"/><!--MD5=[df38be88ccee13e832d6fafd6288a4ca]
class Test--><rect codeLine="48" fill="#FEFECE" filter="url(#f16i0knrpx5bdx)" height="53.7047" id="Test" style="stroke:#A80036;stroke-width:0.8999999999999999;" width="45.6" x="545.208" y="390"/><ellipse cx="559.608" cy="399.6" fill="#ADD1B2" rx="6.6" ry="6.6" style="stroke:#A80036;stroke-width:0.6;"/><path d="M560.808,397.5 Q560.9299,397.2 561.0705,397.05 Q561.2111,396.9 561.3705,396.9 Q561.6518,396.9 561.8299,397.0687 Q562.008,397.2375 562.008,397.6312 L562.008,398.5687 Q562.008,398.9625 561.8393,399.1312 Q561.6705,399.3 561.408,399.3 Q561.1736,399.3 561.0236,399.1969 Q560.8736,399.0938 560.808,398.8219 Q560.7799,398.6344 560.6768,398.5313 Q560.4893,398.3344 560.1518,398.2219 Q559.8142,398.1 559.4767,398.1 Q559.0549,398.1 558.6986,398.2688 Q558.3517,398.4375 558.0799,398.8125 Q557.808,399.1875 557.808,399.7031 L557.808,400.2562 Q557.808,400.875 558.3142,401.2875 Q558.8205,401.7 559.7205,401.7 Q560.2549,401.7 560.6299,401.5781 Q560.8455,401.5125 561.0893,401.2969 Q561.2486,401.175 561.333,401.1375 Q561.4174,401.1 561.5205,401.1 Q561.7174,401.1 561.858,401.2594 Q562.008,401.4094 562.008,401.625 Q562.008,401.8313 561.8018,402.075 Q561.5017,402.4313 561.0236,402.6281 Q560.3955,402.9 559.6267,402.9 Q558.7267,402.9 558.0049,402.5438 Q557.4236,402.2625 557.0111,401.6531 Q556.608,401.0438 556.608,400.3219 L556.608,399.6656 Q556.608,398.9156 556.9643,398.2594 Q557.3299,397.6031 557.958,397.2562 Q558.5955,396.9 559.308,396.9 Q559.7393,396.9 560.1143,397.05 Q560.4893,397.2 560.808,397.5 Z " fill="#000000"/><text fill="#000000" font-family="sans-serif" font-size="7.2" lengthAdjust="spacing" textLength="14.4" x="569.208" y="402.5461">Test</text><line style="stroke:#A80036;stroke-width:0.8999999999999999;" x1="545.808" x2="590.208" y1="409.2" y2="409.2"/><text fill="#000000" font-family="sans-serif" font-size="6.6" lengthAdjust="spacing" textLength="38.4" x="548.808" y="418.4514">-internalCode</text><text fill="#000000" font-family="sans-serif" font-size="6.6" lengthAdjust="spacing" textLength="28.2" x="548.808" y="426.7529">-nhsCode</text><text fill="#000000" font-family="sans-serif" font-size="6.6" lengthAdjust="spacing" textLength="34.2" x="548.808" y="435.0545">-description</text><line style="stroke:#A80036;stroke-width:0.8999999999999999;" x1="545.808" x2="590.208" y1="438.9047" y2="438.9047"/><!--MD5=[aeb3272166074d8737a70b61b1e71682]
class TestType--><rect codeLine="54" fill="#FEFECE" filter="url(#f16i0knrpx5bdx)" height="37.1016" id="TestType" style="stroke:#A80036;stroke-width:0.8999999999999999;" width="49.2" x="544.008" y="564.6"/><ellipse cx="553.008" cy="574.2" fill="#ADD1B2" rx="6.6" ry="6.6" style="stroke:#A80036;stroke-width:0.6;"/><path d="M554.208,572.1 Q554.3299,571.8 554.4705,571.65 Q554.6111,571.5 554.7705,571.5 Q555.0518,571.5 555.2299,571.6687 Q555.408,571.8375 555.408,572.2312 L555.408,573.1687 Q555.408,573.5625 555.2393,573.7312 Q555.0705,573.9 554.808,573.9 Q554.5736,573.9 554.4236,573.7969 Q554.2736,573.6938 554.208,573.4219 Q554.1799,573.2344 554.0768,573.1313 Q553.8893,572.9344 553.5518,572.8219 Q553.2143,572.7 552.8767,572.7 Q552.4549,572.7 552.0986,572.8688 Q551.7517,573.0375 551.4799,573.4125 Q551.208,573.7875 551.208,574.3031 L551.208,574.8562 Q551.208,575.475 551.7143,575.8875 Q552.2205,576.3 553.1205,576.3 Q553.6549,576.3 554.0299,576.1781 Q554.2455,576.1125 554.4893,575.8969 Q554.6486,575.775 554.733,575.7375 Q554.8174,575.7 554.9205,575.7 Q555.1174,575.7 555.258,575.8594 Q555.408,576.0094 555.408,576.225 Q555.408,576.4313 555.2018,576.675 Q554.9018,577.0313 554.4236,577.2281 Q553.7955,577.5 553.0268,577.5 Q552.1267,577.5 551.4049,577.1438 Q550.8236,576.8625 550.4111,576.2531 Q550.008,575.6438 550.008,574.9219 L550.008,574.2656 Q550.008,573.5156 550.3643,572.8594 Q550.7299,572.2031 551.358,571.8562 Q551.9955,571.5 552.708,571.5 Q553.1393,571.5 553.5143,571.65 Q553.8893,571.8 554.208,572.1 Z " fill="#000000"/><text fill="#000000" font-family="sans-serif" font-size="7.2" lengthAdjust="spacing" textLength="30" x="561.408" y="577.1461">TestType</text><line style="stroke:#A80036;stroke-width:0.8999999999999999;" x1="544.608" x2="592.608" y1="583.8" y2="583.8"/><text fill="#000000" font-family="sans-serif" font-size="6.6" lengthAdjust="spacing" textLength="35.4" x="547.608" y="593.0514">-designation</text><line style="stroke:#A80036;stroke-width:0.8999999999999999;" x1="544.608" x2="592.608" y1="596.9016" y2="596.9016"/><!--MD5=[a96594a83e2ecdc78cbf17c2ddf01934]
class Category--><rect codeLine="9" fill="#FEFECE" filter="url(#f16i0knrpx5bdx)" height="28.8" id="Category" style="stroke:#A80036;stroke-width:0.8999999999999999;" width="48.6" x="510.708" y="774"/><ellipse cx="519.708" cy="783.6" fill="#ADD1B2" rx="6.6" ry="6.6" style="stroke:#A80036;stroke-width:0.6;"/><path d="M520.908,781.5 Q521.0299,781.2 521.1705,781.05 Q521.3111,780.9 521.4705,780.9 Q521.7517,780.9 521.9299,781.0688 Q522.108,781.2375 522.108,781.6313 L522.108,782.5688 Q522.108,782.9625 521.9392,783.1313 Q521.7705,783.3 521.508,783.3 Q521.2736,783.3 521.1236,783.1969 Q520.9736,783.0938 520.908,782.8219 Q520.8799,782.6344 520.7768,782.5313 Q520.5893,782.3344 520.2517,782.2219 Q519.9142,782.1 519.5768,782.1 Q519.1549,782.1 518.7986,782.2688 Q518.4518,782.4375 518.1799,782.8125 Q517.908,783.1875 517.908,783.7031 L517.908,784.2563 Q517.908,784.875 518.4142,785.2875 Q518.9205,785.7 519.8205,785.7 Q520.3549,785.7 520.7299,785.5781 Q520.9455,785.5125 521.1892,785.2969 Q521.3486,785.175 521.433,785.1375 Q521.5174,785.1 521.6205,785.1 Q521.8174,785.1 521.958,785.2594 Q522.108,785.4094 522.108,785.625 Q522.108,785.8313 521.9018,786.075 Q521.6017,786.4313 521.1236,786.6281 Q520.4955,786.9 519.7267,786.9 Q518.8268,786.9 518.1049,786.5437 Q517.5236,786.2625 517.1111,785.6531 Q516.708,785.0437 516.708,784.3219 L516.708,783.6656 Q516.708,782.9156 517.0642,782.2594 Q517.4299,781.6031 518.058,781.2563 Q518.6955,780.9 519.408,780.9 Q519.8393,780.9 520.2143,781.05 Q520.5893,781.2 520.908,781.5 Z " fill="#000000"/><text fill="#000000" font-family="sans-serif" font-size="7.2" lengthAdjust="spacing" textLength="29.4" x="528.108" y="786.5461">Category</text><line style="stroke:#A80036;stroke-width:0.8999999999999999;" x1="511.308" x2="558.708" y1="793.2" y2="793.2"/><line style="stroke:#A80036;stroke-width:0.8999999999999999;" x1="511.308" x2="558.708" y1="798" y2="798"/><!--MD5=[56f671791a7bc69038cb91d87520b796]
class Parameters--><rect codeLine="10" fill="#FEFECE" filter="url(#f16i0knrpx5bdx)" height="28.8" id="Parameters" style="stroke:#A80036;stroke-width:0.8999999999999999;" width="58.2" x="505.908" y="669.3"/><ellipse cx="514.908" cy="678.9" fill="#ADD1B2" rx="6.6" ry="6.6" style="stroke:#A80036;stroke-width:0.6;"/><path d="M516.108,676.8 Q516.2299,676.5 516.3705,676.35 Q516.5111,676.2 516.6705,676.2 Q516.9518,676.2 517.1299,676.3688 Q517.308,676.5375 517.308,676.9313 L517.308,677.8688 Q517.308,678.2625 517.1393,678.4313 Q516.9705,678.6 516.708,678.6 Q516.4736,678.6 516.3236,678.4969 Q516.1736,678.3938 516.108,678.1219 Q516.0799,677.9344 515.9767,677.8313 Q515.7892,677.6344 515.4518,677.5219 Q515.1143,677.4 514.7768,677.4 Q514.3549,677.4 513.9986,677.5688 Q513.6518,677.7375 513.3799,678.1125 Q513.108,678.4875 513.108,679.0031 L513.108,679.5563 Q513.108,680.175 513.6143,680.5875 Q514.1205,681 515.0205,681 Q515.5549,681 515.9299,680.8781 Q516.1455,680.8125 516.3893,680.5969 Q516.5486,680.475 516.633,680.4375 Q516.7174,680.4 516.8205,680.4 Q517.0174,680.4 517.158,680.5594 Q517.308,680.7094 517.308,680.925 Q517.308,681.1313 517.1017,681.375 Q516.8018,681.7312 516.3236,681.9281 Q515.6955,682.2 514.9268,682.2 Q514.0268,682.2 513.3049,681.8438 Q512.7236,681.5625 512.3111,680.9531 Q511.908,680.3438 511.908,679.6219 L511.908,678.9656 Q511.908,678.2156 512.2643,677.5594 Q512.6299,676.9031 513.258,676.5563 Q513.8955,676.2 514.608,676.2 Q515.0392,676.2 515.4142,676.35 Q515.7892,676.5 516.108,676.8 Z " fill="#000000"/><text fill="#000000" font-family="sans-serif" font-size="7.2" lengthAdjust="spacing" textLength="39" x="523.308" y="681.8461">Parameters</text><line style="stroke:#A80036;stroke-width:0.8999999999999999;" x1="506.508" x2="563.508" y1="688.5" y2="688.5"/><line style="stroke:#A80036;stroke-width:0.8999999999999999;" x1="506.508" x2="563.508" y1="693.3" y2="693.3"/><!--MD5=[9681492165142af2a4a3a169d90ee8d4]
class Sample--><rect codeLine="44" fill="#FEFECE" filter="url(#f16i0knrpx5bdx)" height="37.1016" id="Sample" style="stroke:#A80036;stroke-width:0.8999999999999999;" width="51" x="273.108" y="490.8"/><ellipse cx="284.808" cy="500.4" fill="#ADD1B2" rx="6.6" ry="6.6" style="stroke:#A80036;stroke-width:0.6;"/><path d="M286.008,498.3 Q286.1299,498 286.2705,497.85 Q286.4111,497.7 286.5705,497.7 Q286.8518,497.7 287.0299,497.8688 Q287.208,498.0375 287.208,498.4313 L287.208,499.3688 Q287.208,499.7625 287.0393,499.9313 Q286.8705,500.1 286.608,500.1 Q286.3736,500.1 286.2236,499.9969 Q286.0736,499.8937 286.008,499.6219 Q285.9799,499.4344 285.8768,499.3312 Q285.6893,499.1344 285.3518,499.0219 Q285.0143,498.9 284.6767,498.9 Q284.2549,498.9 283.8986,499.0687 Q283.5517,499.2375 283.2799,499.6125 Q283.008,499.9875 283.008,500.5031 L283.008,501.0563 Q283.008,501.675 283.5143,502.0875 Q284.0205,502.5 284.9205,502.5 Q285.4549,502.5 285.8299,502.3781 Q286.0455,502.3125 286.2893,502.0969 Q286.4486,501.975 286.533,501.9375 Q286.6174,501.9 286.7205,501.9 Q286.9174,501.9 287.058,502.0594 Q287.208,502.2094 287.208,502.425 Q287.208,502.6312 287.0018,502.875 Q286.7018,503.2313 286.2236,503.4281 Q285.5955,503.7 284.8268,503.7 Q283.9267,503.7 283.2049,503.3438 Q282.6236,503.0625 282.2111,502.4531 Q281.808,501.8438 281.808,501.1219 L281.808,500.4656 Q281.808,499.7156 282.1643,499.0594 Q282.5299,498.4031 283.158,498.0563 Q283.7955,497.7 284.508,497.7 Q284.9393,497.7 285.3143,497.85 Q285.6893,498 286.008,498.3 Z " fill="#000000"/><text fill="#000000" font-family="sans-serif" font-size="7.2" lengthAdjust="spacing" textLength="25.8" x="293.808" y="503.3461">Sample</text><line style="stroke:#A80036;stroke-width:0.8999999999999999;" x1="273.708" x2="323.508" y1="510" y2="510"/><text fill="#000000" font-family="sans-serif" font-size="6.6" lengthAdjust="spacing" textLength="43.8" x="276.708" y="519.2514">-collection date</text><line style="stroke:#A80036;stroke-width:0.8999999999999999;" x1="273.708" x2="323.508" y1="523.1016" y2="523.1016"/><!--MD5=[3a31710ff0fe32e4db47bca97b229f4c]
class Medical_Lab_Technician--><rect codeLine="12" fill="#FEFECE" filter="url(#f16i0knrpx5bdx)" height="28.8" id="Medical_Lab_Technician" style="stroke:#A80036;stroke-width:0.8999999999999999;" width="101.4" x="216.708" y="324.6"/><ellipse cx="225.708" cy="334.2" fill="#ADD1B2" rx="6.6" ry="6.6" style="stroke:#A80036;stroke-width:0.6;"/><path d="M226.908,332.1 Q227.0299,331.8 227.1705,331.65 Q227.3111,331.5 227.4705,331.5 Q227.7518,331.5 227.9299,331.6688 Q228.108,331.8375 228.108,332.2313 L228.108,333.1688 Q228.108,333.5625 227.9393,333.7313 Q227.7705,333.9 227.508,333.9 Q227.2736,333.9 227.1236,333.7969 Q226.9736,333.6937 226.908,333.4219 Q226.8799,333.2344 226.7768,333.1312 Q226.5893,332.9344 226.2518,332.8219 Q225.9143,332.7 225.5768,332.7 Q225.1549,332.7 224.7986,332.8688 Q224.4518,333.0375 224.1799,333.4125 Q223.908,333.7875 223.908,334.3031 L223.908,334.8563 Q223.908,335.475 224.4143,335.8875 Q224.9205,336.3 225.8205,336.3 Q226.3549,336.3 226.7299,336.1781 Q226.9455,336.1125 227.1893,335.8969 Q227.3486,335.775 227.433,335.7375 Q227.5174,335.7 227.6205,335.7 Q227.8174,335.7 227.958,335.8594 Q228.108,336.0094 228.108,336.225 Q228.108,336.4313 227.9018,336.675 Q227.6018,337.0313 227.1236,337.2281 Q226.4955,337.5 225.7268,337.5 Q224.8268,337.5 224.1049,337.1438 Q223.5236,336.8625 223.1111,336.2531 Q222.708,335.6438 222.708,334.9219 L222.708,334.2656 Q222.708,333.5156 223.0643,332.8594 Q223.4299,332.2031 224.058,331.8563 Q224.6955,331.5 225.408,331.5 Q225.8393,331.5 226.2143,331.65 Q226.5893,331.8 226.908,332.1 Z " fill="#000000"/><text fill="#000000" font-family="sans-serif" font-size="7.2" lengthAdjust="spacing" textLength="82.2" x="234.108" y="337.1461">Medical_Lab_Technician</text><line style="stroke:#A80036;stroke-width:0.8999999999999999;" x1="217.308" x2="317.508" y1="343.8" y2="343.8"/><line style="stroke:#A80036;stroke-width:0.8999999999999999;" x1="217.308" x2="317.508" y1="348.6" y2="348.6"/><!--MD5=[5a42d898e2a5d299cc26761d1eaa7d84]
class Doctor--><rect codeLine="13" fill="#FEFECE" filter="url(#f16i0knrpx5bdx)" height="28.8" id="Doctor" style="stroke:#A80036;stroke-width:0.8999999999999999;" width="40.8" x="107.808" y="774"/><ellipse cx="116.808" cy="783.6" fill="#ADD1B2" rx="6.6" ry="6.6" style="stroke:#A80036;stroke-width:0.6;"/><path d="M118.008,781.5 Q118.1299,781.2 118.2705,781.05 Q118.4111,780.9 118.5705,780.9 Q118.8518,780.9 119.0299,781.0688 Q119.208,781.2375 119.208,781.6313 L119.208,782.5688 Q119.208,782.9625 119.0393,783.1313 Q118.8705,783.3 118.608,783.3 Q118.3736,783.3 118.2236,783.1969 Q118.0736,783.0938 118.008,782.8219 Q117.9799,782.6344 117.8768,782.5313 Q117.6893,782.3344 117.3518,782.2219 Q117.0143,782.1 116.6768,782.1 Q116.2549,782.1 115.8986,782.2688 Q115.5518,782.4375 115.2799,782.8125 Q115.008,783.1875 115.008,783.7031 L115.008,784.2563 Q115.008,784.875 115.5143,785.2875 Q116.0205,785.7 116.9205,785.7 Q117.4549,785.7 117.8299,785.5781 Q118.0455,785.5125 118.2893,785.2969 Q118.4486,785.175 118.533,785.1375 Q118.6174,785.1 118.7205,785.1 Q118.9174,785.1 119.058,785.2594 Q119.208,785.4094 119.208,785.625 Q119.208,785.8313 119.0018,786.075 Q118.7018,786.4313 118.2236,786.6281 Q117.5955,786.9 116.8268,786.9 Q115.9268,786.9 115.2049,786.5437 Q114.6236,786.2625 114.2111,785.6531 Q113.808,785.0437 113.808,784.3219 L113.808,783.6656 Q113.808,782.9156 114.1643,782.2594 Q114.5299,781.6031 115.158,781.2563 Q115.7955,780.9 116.508,780.9 Q116.9393,780.9 117.3143,781.05 Q117.6893,781.2 118.008,781.5 Z " fill="#000000"/><text fill="#000000" font-family="sans-serif" font-size="7.2" lengthAdjust="spacing" textLength="21.6" x="125.208" y="786.5461">Doctor</text><line style="stroke:#A80036;stroke-width:0.8999999999999999;" x1="108.408" x2="148.008" y1="793.2" y2="793.2"/><line style="stroke:#A80036;stroke-width:0.8999999999999999;" x1="108.408" x2="148.008" y1="798" y2="798"/><!--MD5=[f00dbe8c0302c6aec2cb26b3c659c8fc]
class Report--><rect codeLine="73" fill="#FEFECE" filter="url(#f16i0knrpx5bdx)" height="53.7047" id="Report" style="stroke:#A80036;stroke-width:0.8999999999999999;" width="41.4" x="5.508" y="933.6"/><ellipse cx="14.508" cy="943.2" fill="#ADD1B2" rx="6.6" ry="6.6" style="stroke:#A80036;stroke-width:0.6;"/><path d="M15.708,941.1 Q15.8299,940.8 15.9705,940.65 Q16.1111,940.5 16.2705,940.5 Q16.5518,940.5 16.7299,940.6687 Q16.908,940.8375 16.908,941.2312 L16.908,942.1687 Q16.908,942.5625 16.7393,942.7312 Q16.5705,942.9 16.308,942.9 Q16.0736,942.9 15.9236,942.7969 Q15.7736,942.6937 15.708,942.4219 Q15.6799,942.2344 15.5767,942.1312 Q15.3892,941.9344 15.0517,941.8219 Q14.7143,941.7 14.3768,941.7 Q13.9549,941.7 13.5986,941.8688 Q13.2518,942.0375 12.9799,942.4125 Q12.708,942.7875 12.708,943.3031 L12.708,943.8562 Q12.708,944.475 13.2143,944.8875 Q13.7205,945.3 14.6205,945.3 Q15.1549,945.3 15.5299,945.1781 Q15.7455,945.1125 15.9892,944.8969 Q16.1486,944.775 16.233,944.7375 Q16.3174,944.7 16.4205,944.7 Q16.6174,944.7 16.758,944.8594 Q16.908,945.0094 16.908,945.225 Q16.908,945.4313 16.7018,945.675 Q16.4018,946.0313 15.9236,946.2281 Q15.2955,946.5 14.5268,946.5 Q13.6268,946.5 12.9049,946.1438 Q12.3236,945.8625 11.9111,945.2531 Q11.508,944.6438 11.508,943.9219 L11.508,943.2656 Q11.508,942.5156 11.8643,941.8594 Q12.2299,941.2031 12.858,940.8562 Q13.4955,940.5 14.208,940.5 Q14.6392,940.5 15.0142,940.65 Q15.3892,940.8 15.708,941.1 Z " fill="#000000"/><text fill="#000000" font-family="sans-serif" font-size="7.2" lengthAdjust="spacing" textLength="22.2" x="22.908" y="946.1461">Report</text><line style="stroke:#A80036;stroke-width:0.8999999999999999;" x1="6.108" x2="46.308" y1="952.8" y2="952.8"/><text fill="#000000" font-family="sans-serif" font-size="6.6" lengthAdjust="spacing" textLength="30" x="9.108" y="962.0514">-diagnosis</text><text fill="#000000" font-family="sans-serif" font-size="6.6" lengthAdjust="spacing" textLength="15" x="9.108" y="970.3529">-date</text><text fill="#000000" font-family="sans-serif" font-size="6.6" lengthAdjust="spacing" textLength="13.8" x="9.108" y="978.6545">-time</text><line style="stroke:#A80036;stroke-width:0.8999999999999999;" x1="6.108" x2="46.308" y1="982.5047" y2="982.5047"/><!--MD5=[88c7cd8b94a08243205aff172d14c4f7]
class Chemical_Analyses--><rect codeLine="69" fill="#FEFECE" filter="url(#f16i0knrpx5bdx)" height="45.4031" id="Chemical_Analyses" style="stroke:#A80036;stroke-width:0.8999999999999999;" width="85.2" x="200.808" y="765.6"/><ellipse cx="209.808" cy="775.2" fill="#ADD1B2" rx="6.6" ry="6.6" style="stroke:#A80036;stroke-width:0.6;"/><path d="M211.008,773.1 Q211.1299,772.8 211.2705,772.65 Q211.4111,772.5 211.5705,772.5 Q211.8518,772.5 212.0299,772.6687 Q212.208,772.8375 212.208,773.2312 L212.208,774.1687 Q212.208,774.5625 212.0393,774.7312 Q211.8705,774.9 211.608,774.9 Q211.3736,774.9 211.2236,774.7969 Q211.0736,774.6938 211.008,774.4219 Q210.9799,774.2344 210.8768,774.1313 Q210.6893,773.9344 210.3518,773.8219 Q210.0143,773.7 209.6768,773.7 Q209.2549,773.7 208.8986,773.8688 Q208.5518,774.0375 208.2799,774.4125 Q208.008,774.7875 208.008,775.3031 L208.008,775.8562 Q208.008,776.475 208.5143,776.8875 Q209.0205,777.3 209.9205,777.3 Q210.4549,777.3 210.8299,777.1781 Q211.0455,777.1125 211.2893,776.8969 Q211.4486,776.775 211.533,776.7375 Q211.6174,776.7 211.7205,776.7 Q211.9174,776.7 212.058,776.8594 Q212.208,777.0094 212.208,777.225 Q212.208,777.4313 212.0018,777.675 Q211.7018,778.0313 211.2236,778.2281 Q210.5955,778.5 209.8268,778.5 Q208.9268,778.5 208.2049,778.1438 Q207.6236,777.8625 207.2111,777.2531 Q206.808,776.6438 206.808,775.9219 L206.808,775.2656 Q206.808,774.5156 207.1643,773.8594 Q207.5299,773.2031 208.158,772.8562 Q208.7955,772.5 209.508,772.5 Q209.9393,772.5 210.3143,772.65 Q210.6893,772.8 211.008,773.1 Z " fill="#000000"/><text fill="#000000" font-family="sans-serif" font-size="7.2" lengthAdjust="spacing" textLength="66" x="218.208" y="778.1461">Chemical_Analyses</text><line style="stroke:#A80036;stroke-width:0.8999999999999999;" x1="201.408" x2="285.408" y1="784.8" y2="784.8"/><text fill="#000000" font-family="sans-serif" font-size="6.6" lengthAdjust="spacing" textLength="15" x="204.408" y="794.0514">-date</text><text fill="#000000" font-family="sans-serif" font-size="6.6" lengthAdjust="spacing" textLength="13.8" x="204.408" y="802.3529">-time</text><line style="stroke:#A80036;stroke-width:0.8999999999999999;" x1="201.408" x2="285.408" y1="806.2031" y2="806.2031"/><!--MD5=[34c242df592fe6116019f1c4c26784f4]
class Chemical_Laboratory--><rect codeLine="16" fill="#FEFECE" filter="url(#f16i0knrpx5bdx)" height="28.8" id="Chemical_Laboratory" style="stroke:#A80036;stroke-width:0.8999999999999999;" width="90" x="772.008" y="669.3"/><ellipse cx="781.008" cy="678.9" fill="#ADD1B2" rx="6.6" ry="6.6" style="stroke:#A80036;stroke-width:0.6;"/><path d="M782.208,676.8 Q782.3299,676.5 782.4705,676.35 Q782.6111,676.2 782.7705,676.2 Q783.0518,676.2 783.2299,676.3688 Q783.408,676.5375 783.408,676.9313 L783.408,677.8688 Q783.408,678.2625 783.2393,678.4313 Q783.0705,678.6 782.808,678.6 Q782.5736,678.6 782.4236,678.4969 Q782.2736,678.3938 782.208,678.1219 Q782.1799,677.9344 782.0768,677.8313 Q781.8893,677.6344 781.5518,677.5219 Q781.2143,677.4 780.8768,677.4 Q780.4549,677.4 780.0986,677.5688 Q779.7518,677.7375 779.4799,678.1125 Q779.208,678.4875 779.208,679.0031 L779.208,679.5563 Q779.208,680.175 779.7143,680.5875 Q780.2205,681 781.1205,681 Q781.6549,681 782.0299,680.8781 Q782.2455,680.8125 782.4893,680.5969 Q782.6486,680.475 782.733,680.4375 Q782.8174,680.4 782.9205,680.4 Q783.1174,680.4 783.258,680.5594 Q783.408,680.7094 783.408,680.925 Q783.408,681.1313 783.2018,681.375 Q782.9018,681.7312 782.4236,681.9281 Q781.7955,682.2 781.0268,682.2 Q780.1268,682.2 779.4049,681.8438 Q778.8236,681.5625 778.4111,680.9531 Q778.008,680.3438 778.008,679.6219 L778.008,678.9656 Q778.008,678.2156 778.3643,677.5594 Q778.7299,676.9031 779.358,676.5563 Q779.9955,676.2 780.708,676.2 Q781.1393,676.2 781.5143,676.35 Q781.8893,676.5 782.208,676.8 Z " fill="#000000"/><text fill="#000000" font-family="sans-serif" font-size="7.2" lengthAdjust="spacing" textLength="70.8" x="789.408" y="681.8461">Chemical_Laboratory</text><line style="stroke:#A80036;stroke-width:0.8999999999999999;" x1="772.608" x2="861.408" y1="688.5" y2="688.5"/><line style="stroke:#A80036;stroke-width:0.8999999999999999;" x1="772.608" x2="861.408" y1="693.3" y2="693.3"/><!--MD5=[b61e69a70bb7e771c8a5603a4a917a69]
class Clinical_Chemistry_Technologist--><rect codeLine="17" fill="#FEFECE" filter="url(#f16i0knrpx5bdx)" height="28.8" id="Clinical_Chemistry_Technologist" style="stroke:#A80036;stroke-width:0.8999999999999999;" width="128.4" x="326.808" y="669.3"/><ellipse cx="335.808" cy="678.9" fill="#ADD1B2" rx="6.6" ry="6.6" style="stroke:#A80036;stroke-width:0.6;"/><path d="M337.008,676.8 Q337.1299,676.5 337.2705,676.35 Q337.4111,676.2 337.5705,676.2 Q337.8518,676.2 338.0299,676.3688 Q338.208,676.5375 338.208,676.9313 L338.208,677.8688 Q338.208,678.2625 338.0393,678.4313 Q337.8705,678.6 337.608,678.6 Q337.3736,678.6 337.2236,678.4969 Q337.0736,678.3938 337.008,678.1219 Q336.9799,677.9344 336.8767,677.8313 Q336.6892,677.6344 336.3518,677.5219 Q336.0142,677.4 335.6767,677.4 Q335.2549,677.4 334.8986,677.5688 Q334.5517,677.7375 334.2799,678.1125 Q334.008,678.4875 334.008,679.0031 L334.008,679.5563 Q334.008,680.175 334.5142,680.5875 Q335.0205,681 335.9205,681 Q336.4549,681 336.8299,680.8781 Q337.0455,680.8125 337.2893,680.5969 Q337.4486,680.475 337.533,680.4375 Q337.6174,680.4 337.7205,680.4 Q337.9174,680.4 338.058,680.5594 Q338.208,680.7094 338.208,680.925 Q338.208,681.1313 338.0017,681.375 Q337.7017,681.7312 337.2236,681.9281 Q336.5955,682.2 335.8267,682.2 Q334.9267,682.2 334.2049,681.8438 Q333.6236,681.5625 333.2111,680.9531 Q332.808,680.3438 332.808,679.6219 L332.808,678.9656 Q332.808,678.2156 333.1643,677.5594 Q333.5299,676.9031 334.158,676.5563 Q334.7955,676.2 335.508,676.2 Q335.9392,676.2 336.3142,676.35 Q336.6892,676.5 337.008,676.8 Z " fill="#000000"/><text fill="#000000" font-family="sans-serif" font-size="7.2" lengthAdjust="spacing" textLength="109.2" x="344.208" y="681.8461">Clinical_Chemistry_Technologist</text><line style="stroke:#A80036;stroke-width:0.8999999999999999;" x1="327.408" x2="454.608" y1="688.5" y2="688.5"/><line style="stroke:#A80036;stroke-width:0.8999999999999999;" x1="327.408" x2="454.608" y1="693.3" y2="693.3"/><!--MD5=[a999c1570c205a2156b04a15307bc1ff]
class LabOrder--><rect codeLine="18" fill="#FEFECE" filter="url(#f16i0knrpx5bdx)" height="28.8" id="LabOrder" style="stroke:#A80036;stroke-width:0.8999999999999999;" width="50.4" x="512.808" y="259.2"/><ellipse cx="521.808" cy="268.8" fill="#ADD1B2" rx="6.6" ry="6.6" style="stroke:#A80036;stroke-width:0.6;"/><path d="M523.008,266.7 Q523.1299,266.4 523.2705,266.25 Q523.4111,266.1 523.5705,266.1 Q523.8517,266.1 524.0299,266.2688 Q524.208,266.4375 524.208,266.8313 L524.208,267.7688 Q524.208,268.1625 524.0392,268.3313 Q523.8705,268.5 523.608,268.5 Q523.3736,268.5 523.2236,268.3969 Q523.0736,268.2938 523.008,268.0219 Q522.9799,267.8344 522.8767,267.7313 Q522.6892,267.5344 522.3517,267.4219 Q522.0143,267.3 521.6768,267.3 Q521.2549,267.3 520.8986,267.4688 Q520.5518,267.6375 520.2799,268.0125 Q520.008,268.3875 520.008,268.9031 L520.008,269.4563 Q520.008,270.075 520.5143,270.4875 Q521.0205,270.9 521.9205,270.9 Q522.4549,270.9 522.8299,270.7781 Q523.0455,270.7125 523.2892,270.4969 Q523.4486,270.375 523.533,270.3375 Q523.6174,270.3 523.7205,270.3 Q523.9174,270.3 524.058,270.4594 Q524.208,270.6094 524.208,270.825 Q524.208,271.0313 524.0017,271.275 Q523.7018,271.6312 523.2236,271.8281 Q522.5955,272.1 521.8268,272.1 Q520.9268,272.1 520.2049,271.7438 Q519.6236,271.4625 519.2111,270.8531 Q518.808,270.2438 518.808,269.5219 L518.808,268.8656 Q518.808,268.1156 519.1642,267.4594 Q519.5299,266.8031 520.158,266.4563 Q520.7955,266.1 521.508,266.1 Q521.9392,266.1 522.3142,266.25 Q522.6892,266.4 523.008,266.7 Z " fill="#000000"/><text fill="#000000" font-family="sans-serif" font-size="7.2" lengthAdjust="spacing" textLength="31.2" x="530.208" y="271.7461">LabOrder</text><line style="stroke:#A80036;stroke-width:0.8999999999999999;" x1="513.408" x2="562.608" y1="278.4" y2="278.4"/><line style="stroke:#A80036;stroke-width:0.8999999999999999;" x1="513.408" x2="562.608" y1="283.2" y2="283.2"/><!--MD5=[ed6624c6556d5e7b1bd23032162d20b7]
class Client--><rect codeLine="58" fill="#FEFECE" filter="url(#f16i0knrpx5bdx)" height="95.2125" id="Client" style="stroke:#A80036;stroke-width:0.8999999999999999;" width="68.4" x="500.208" y="117"/><ellipse cx="522.708" cy="126.6" fill="#ADD1B2" rx="6.6" ry="6.6" style="stroke:#A80036;stroke-width:0.6;"/><path d="M523.908,124.5 Q524.0299,124.2 524.1705,124.05 Q524.3111,123.9 524.4705,123.9 Q524.7517,123.9 524.9299,124.0688 Q525.108,124.2375 525.108,124.6313 L525.108,125.5688 Q525.108,125.9625 524.9392,126.1313 Q524.7705,126.3 524.508,126.3 Q524.2736,126.3 524.1236,126.1969 Q523.9736,126.0938 523.908,125.8219 Q523.8799,125.6344 523.7768,125.5313 Q523.5893,125.3344 523.2517,125.2219 Q522.9142,125.1 522.5768,125.1 Q522.1549,125.1 521.7986,125.2688 Q521.4518,125.4375 521.1799,125.8125 Q520.908,126.1875 520.908,126.7031 L520.908,127.2563 Q520.908,127.875 521.4142,128.2875 Q521.9205,128.7 522.8205,128.7 Q523.3549,128.7 523.7299,128.5781 Q523.9455,128.5125 524.1892,128.2969 Q524.3486,128.175 524.433,128.1375 Q524.5174,128.1 524.6205,128.1 Q524.8174,128.1 524.958,128.2594 Q525.108,128.4094 525.108,128.625 Q525.108,128.8312 524.9018,129.075 Q524.6017,129.4313 524.1236,129.6281 Q523.4955,129.9 522.7267,129.9 Q521.8268,129.9 521.1049,129.5438 Q520.5236,129.2625 520.1111,128.6531 Q519.708,128.0438 519.708,127.3219 L519.708,126.6656 Q519.708,125.9156 520.0642,125.2594 Q520.4299,124.6031 521.058,124.2563 Q521.6955,123.9 522.408,123.9 Q522.8393,123.9 523.2143,124.05 Q523.5893,124.2 523.908,124.5 Z " fill="#000000"/><text fill="#000000" font-family="sans-serif" font-size="7.2" lengthAdjust="spacing" textLength="19.2" x="534.108" y="129.5461">Client</text><line style="stroke:#A80036;stroke-width:0.8999999999999999;" x1="500.808" x2="568.008" y1="136.2" y2="136.2"/><text fill="#000000" font-family="sans-serif" font-size="6.6" lengthAdjust="spacing" textLength="18.6" x="503.808" y="145.4514">-Name</text><text fill="#000000" font-family="sans-serif" font-size="6.6" lengthAdjust="spacing" textLength="16.8" x="503.808" y="153.7529">-Email</text><text fill="#000000" font-family="sans-serif" font-size="6.6" lengthAdjust="spacing" textLength="44.4" x="503.808" y="162.0545">-Phone Number</text><text fill="#000000" font-family="sans-serif" font-size="6.6" lengthAdjust="spacing" textLength="13.8" x="503.808" y="170.3561">-Sex</text><text fill="#000000" font-family="sans-serif" font-size="6.6" lengthAdjust="spacing" textLength="10.8" x="503.808" y="178.6576">-TIF</text><text fill="#000000" font-family="sans-serif" font-size="6.6" lengthAdjust="spacing" textLength="30.6" x="503.808" y="186.9592">-Birth Date</text><text fill="#000000" font-family="sans-serif" font-size="6.6" lengthAdjust="spacing" textLength="39" x="503.808" y="195.2607">-NHS Number</text><text fill="#000000" font-family="sans-serif" font-size="6.6" lengthAdjust="spacing" textLength="61.2" x="503.808" y="203.5623">-Citizen Card Number</text><line style="stroke:#A80036;stroke-width:0.8999999999999999;" x1="500.808" x2="568.008" y1="207.4125" y2="207.4125"/><!--MD5=[c013d92ead36e014512d2b24f31a2748]
class Laboratory_Coordinator--><rect codeLine="20" fill="#FEFECE" filter="url(#f16i0knrpx5bdx)" height="28.8" id="Laboratory_Coordinator" style="stroke:#A80036;stroke-width:0.8999999999999999;" width="97.2" x="27.408" y="669.3"/><ellipse cx="36.408" cy="678.9" fill="#ADD1B2" rx="6.6" ry="6.6" style="stroke:#A80036;stroke-width:0.6;"/><path d="M37.608,676.8 Q37.7299,676.5 37.8705,676.35 Q38.0111,676.2 38.1705,676.2 Q38.4518,676.2 38.6299,676.3688 Q38.808,676.5375 38.808,676.9313 L38.808,677.8688 Q38.808,678.2625 38.6393,678.4313 Q38.4705,678.6 38.208,678.6 Q37.9736,678.6 37.8236,678.4969 Q37.6736,678.3938 37.608,678.1219 Q37.5799,677.9344 37.4767,677.8313 Q37.2892,677.6344 36.9518,677.5219 Q36.6143,677.4 36.2768,677.4 Q35.8549,677.4 35.4986,677.5688 Q35.1518,677.7375 34.8799,678.1125 Q34.608,678.4875 34.608,679.0031 L34.608,679.5563 Q34.608,680.175 35.1143,680.5875 Q35.6205,681 36.5205,681 Q37.0549,681 37.4299,680.8781 Q37.6455,680.8125 37.8893,680.5969 Q38.0486,680.475 38.133,680.4375 Q38.2174,680.4 38.3205,680.4 Q38.5174,680.4 38.658,680.5594 Q38.808,680.7094 38.808,680.925 Q38.808,681.1313 38.6018,681.375 Q38.3018,681.7312 37.8236,681.9281 Q37.1955,682.2 36.4268,682.2 Q35.5268,682.2 34.8049,681.8438 Q34.2236,681.5625 33.8111,680.9531 Q33.408,680.3438 33.408,679.6219 L33.408,678.9656 Q33.408,678.2156 33.7643,677.5594 Q34.1299,676.9031 34.758,676.5563 Q35.3955,676.2 36.108,676.2 Q36.5392,676.2 36.9142,676.35 Q37.2892,676.5 37.608,676.8 Z " fill="#000000"/><text fill="#000000" font-family="sans-serif" font-size="7.2" lengthAdjust="spacing" textLength="78" x="44.808" y="681.8461">Laboratory_Coordinator</text><line style="stroke:#A80036;stroke-width:0.8999999999999999;" x1="28.008" x2="124.008" y1="688.5" y2="688.5"/><line style="stroke:#A80036;stroke-width:0.8999999999999999;" x1="28.008" x2="124.008" y1="693.3" y2="693.3"/><!--MD5=[da547346deef918ea16944ba046651ef]
class Administrator--><rect codeLine="21" fill="#FEFECE" filter="url(#f16i0knrpx5bdx)" height="28.8" id="Administrator" style="stroke:#A80036;stroke-width:0.8999999999999999;" width="63" x="427.308" y="858"/><ellipse cx="436.308" cy="867.6" fill="#ADD1B2" rx="6.6" ry="6.6" style="stroke:#A80036;stroke-width:0.6;"/><path d="M437.508,865.5 Q437.6299,865.2 437.7705,865.05 Q437.9111,864.9 438.0705,864.9 Q438.3518,864.9 438.5299,865.0688 Q438.708,865.2375 438.708,865.6313 L438.708,866.5688 Q438.708,866.9625 438.5393,867.1313 Q438.3705,867.3 438.108,867.3 Q437.8736,867.3 437.7236,867.1969 Q437.5736,867.0938 437.508,866.8219 Q437.4799,866.6344 437.3767,866.5313 Q437.1892,866.3344 436.8518,866.2219 Q436.5142,866.1 436.1767,866.1 Q435.7549,866.1 435.3986,866.2688 Q435.0517,866.4375 434.7799,866.8125 Q434.508,867.1875 434.508,867.7031 L434.508,868.2563 Q434.508,868.875 435.0142,869.2875 Q435.5205,869.7 436.4205,869.7 Q436.9549,869.7 437.3299,869.5781 Q437.5455,869.5125 437.7893,869.2969 Q437.9486,869.175 438.033,869.1375 Q438.1174,869.1 438.2205,869.1 Q438.4174,869.1 438.558,869.2594 Q438.708,869.4094 438.708,869.625 Q438.708,869.8313 438.5017,870.075 Q438.2017,870.4313 437.7236,870.6281 Q437.0955,870.9 436.3267,870.9 Q435.4267,870.9 434.7049,870.5437 Q434.1236,870.2625 433.7111,869.6531 Q433.308,869.0437 433.308,868.3219 L433.308,867.6656 Q433.308,866.9156 433.6643,866.2594 Q434.0299,865.6031 434.658,865.2563 Q435.2955,864.9 436.008,864.9 Q436.4392,864.9 436.8142,865.05 Q437.1892,865.2 437.508,865.5 Z " fill="#000000"/><text fill="#000000" font-family="sans-serif" font-size="7.2" lengthAdjust="spacing" textLength="43.8" x="444.708" y="870.5461">Administrator</text><line style="stroke:#A80036;stroke-width:0.8999999999999999;" x1="427.908" x2="489.708" y1="877.2" y2="877.2"/><line style="stroke:#A80036;stroke-width:0.8999999999999999;" x1="427.908" x2="489.708" y1="882" y2="882"/><!--MD5=[0caf3a413731a0de34fc6162fe213ed9]
class Laboratory--><rect codeLine="34" fill="#FEFECE" filter="url(#f16i0knrpx5bdx)" height="28.8" id="Laboratory" style="stroke:#A80036;stroke-width:0.8999999999999999;" width="54" x="702.408" y="774"/><ellipse cx="711.408" cy="783.6" fill="#ADD1B2" rx="6.6" ry="6.6" style="stroke:#A80036;stroke-width:0.6;"/><path d="M712.608,781.5 Q712.7299,781.2 712.8705,781.05 Q713.0111,780.9 713.1705,780.9 Q713.4518,780.9 713.6299,781.0688 Q713.808,781.2375 713.808,781.6313 L713.808,782.5688 Q713.808,782.9625 713.6393,783.1313 Q713.4705,783.3 713.208,783.3 Q712.9736,783.3 712.8236,783.1969 Q712.6736,783.0938 712.608,782.8219 Q712.5799,782.6344 712.4768,782.5313 Q712.2893,782.3344 711.9518,782.2219 Q711.6143,782.1 711.2768,782.1 Q710.8549,782.1 710.4986,782.2688 Q710.1518,782.4375 709.8799,782.8125 Q709.608,783.1875 709.608,783.7031 L709.608,784.2563 Q709.608,784.875 710.1143,785.2875 Q710.6205,785.7 711.5205,785.7 Q712.0549,785.7 712.4299,785.5781 Q712.6455,785.5125 712.8893,785.2969 Q713.0486,785.175 713.133,785.1375 Q713.2174,785.1 713.3205,785.1 Q713.5174,785.1 713.658,785.2594 Q713.808,785.4094 713.808,785.625 Q713.808,785.8313 713.6018,786.075 Q713.3018,786.4313 712.8236,786.6281 Q712.1955,786.9 711.4268,786.9 Q710.5268,786.9 709.8049,786.5437 Q709.2236,786.2625 708.8111,785.6531 Q708.408,785.0437 708.408,784.3219 L708.408,783.6656 Q708.408,782.9156 708.7643,782.2594 Q709.1299,781.6031 709.758,781.2563 Q710.3955,780.9 711.108,780.9 Q711.5393,780.9 711.9143,781.05 Q712.2893,781.2 712.608,781.5 Z " fill="#000000"/><text fill="#000000" font-family="sans-serif" font-size="7.2" lengthAdjust="spacing" textLength="34.8" x="719.808" y="786.5461">Laboratory</text><line style="stroke:#A80036;stroke-width:0.8999999999999999;" x1="703.008" x2="755.808" y1="793.2" y2="793.2"/><line style="stroke:#A80036;stroke-width:0.8999999999999999;" x1="703.008" x2="755.808" y1="798" y2="798"/><!--MD5=[f3f9c3092fd9d54590edb61eacad4f09]
class External_API--><rect codeLine="23" fill="#FEFECE" filter="url(#f16i0knrpx5bdx)" height="28.8" id="External_API" style="stroke:#A80036;stroke-width:0.8999999999999999;" width="60.6" x="494.508" y="495"/><ellipse cx="503.508" cy="504.6" fill="#ADD1B2" rx="6.6" ry="6.6" style="stroke:#A80036;stroke-width:0.6;"/><path d="M504.708,502.5 Q504.8299,502.2 504.9705,502.05 Q505.1111,501.9 505.2705,501.9 Q505.5517,501.9 505.7299,502.0687 Q505.908,502.2375 505.908,502.6312 L505.908,503.5687 Q505.908,503.9625 505.7392,504.1312 Q505.5705,504.3 505.308,504.3 Q505.0736,504.3 504.9236,504.1969 Q504.7736,504.0938 504.708,503.8219 Q504.6799,503.6344 504.5767,503.5313 Q504.3892,503.3344 504.0517,503.2219 Q503.7142,503.1 503.3767,503.1 Q502.9549,503.1 502.5986,503.2687 Q502.2517,503.4375 501.9799,503.8125 Q501.708,504.1875 501.708,504.7031 L501.708,505.2562 Q501.708,505.875 502.2142,506.2875 Q502.7205,506.7 503.6205,506.7 Q504.1549,506.7 504.5299,506.5781 Q504.7455,506.5125 504.9892,506.2969 Q505.1486,506.175 505.233,506.1375 Q505.3174,506.1 505.4205,506.1 Q505.6174,506.1 505.758,506.2594 Q505.908,506.4094 505.908,506.625 Q505.908,506.8312 505.7017,507.075 Q505.4017,507.4313 504.9236,507.6281 Q504.2955,507.9 503.5267,507.9 Q502.6267,507.9 501.9049,507.5438 Q501.3236,507.2625 500.9111,506.6531 Q500.508,506.0438 500.508,505.3219 L500.508,504.6656 Q500.508,503.9156 500.8642,503.2594 Q501.2299,502.6031 501.858,502.2562 Q502.4955,501.9 503.208,501.9 Q503.6392,501.9 504.0142,502.05 Q504.3892,502.2 504.708,502.5 Z " fill="#000000"/><text fill="#000000" font-family="sans-serif" font-size="7.2" lengthAdjust="spacing" textLength="41.4" x="511.908" y="507.5461">External_API</text><line style="stroke:#A80036;stroke-width:0.8999999999999999;" x1="495.108" x2="554.508" y1="514.2" y2="514.2"/><line style="stroke:#A80036;stroke-width:0.8999999999999999;" x1="495.108" x2="554.508" y1="519" y2="519"/><!--MD5=[9b099ed1995c6e2a39c231c3e7860d27]
class Reference_Values--><rect codeLine="24" fill="#FEFECE" filter="url(#f16i0knrpx5bdx)" height="28.8" id="Reference_Values" style="stroke:#A80036;stroke-width:0.8999999999999999;" width="80.4" x="205.008" y="858"/><ellipse cx="214.008" cy="867.6" fill="#ADD1B2" rx="6.6" ry="6.6" style="stroke:#A80036;stroke-width:0.6;"/><path d="M215.208,865.5 Q215.3299,865.2 215.4705,865.05 Q215.6111,864.9 215.7705,864.9 Q216.0518,864.9 216.2299,865.0688 Q216.408,865.2375 216.408,865.6313 L216.408,866.5688 Q216.408,866.9625 216.2393,867.1313 Q216.0705,867.3 215.808,867.3 Q215.5736,867.3 215.4236,867.1969 Q215.2736,867.0938 215.208,866.8219 Q215.1799,866.6344 215.0768,866.5313 Q214.8893,866.3344 214.5518,866.2219 Q214.2143,866.1 213.8768,866.1 Q213.4549,866.1 213.0986,866.2688 Q212.7518,866.4375 212.4799,866.8125 Q212.208,867.1875 212.208,867.7031 L212.208,868.2563 Q212.208,868.875 212.7143,869.2875 Q213.2205,869.7 214.1205,869.7 Q214.6549,869.7 215.0299,869.5781 Q215.2455,869.5125 215.4893,869.2969 Q215.6486,869.175 215.733,869.1375 Q215.8174,869.1 215.9205,869.1 Q216.1174,869.1 216.258,869.2594 Q216.408,869.4094 216.408,869.625 Q216.408,869.8313 216.2018,870.075 Q215.9018,870.4313 215.4236,870.6281 Q214.7955,870.9 214.0268,870.9 Q213.1268,870.9 212.4049,870.5437 Q211.8236,870.2625 211.4111,869.6531 Q211.008,869.0437 211.008,868.3219 L211.008,867.6656 Q211.008,866.9156 211.3643,866.2594 Q211.7299,865.6031 212.358,865.2563 Q212.9955,864.9 213.708,864.9 Q214.1393,864.9 214.5143,865.05 Q214.8893,865.2 215.208,865.5 Z " fill="#000000"/><text fill="#000000" font-family="sans-serif" font-size="7.2" lengthAdjust="spacing" textLength="61.2" x="222.408" y="870.5461">Reference_Values</text><line style="stroke:#A80036;stroke-width:0.8999999999999999;" x1="205.608" x2="284.808" y1="877.2" y2="877.2"/><line style="stroke:#A80036;stroke-width:0.8999999999999999;" x1="205.608" x2="284.808" y1="882" y2="882"/><!--MD5=[e59bda2572a266093cda22ac34510ea0]
class Barcode--><rect codeLine="36" fill="#FEFECE" filter="url(#f16i0knrpx5bdx)" height="37.1016" id="Barcode" style="stroke:#A80036;stroke-width:0.8999999999999999;" width="46.8" x="373.008" y="490.8"/><ellipse cx="382.008" cy="500.4" fill="#ADD1B2" rx="6.6" ry="6.6" style="stroke:#A80036;stroke-width:0.6;"/><path d="M383.208,498.3 Q383.3299,498 383.4705,497.85 Q383.6111,497.7 383.7705,497.7 Q384.0517,497.7 384.2299,497.8688 Q384.408,498.0375 384.408,498.4313 L384.408,499.3688 Q384.408,499.7625 384.2392,499.9313 Q384.0705,500.1 383.808,500.1 Q383.5736,500.1 383.4236,499.9969 Q383.2736,499.8937 383.208,499.6219 Q383.1799,499.4344 383.0767,499.3312 Q382.8892,499.1344 382.5517,499.0219 Q382.2142,498.9 381.8767,498.9 Q381.4549,498.9 381.0986,499.0687 Q380.7517,499.2375 380.4799,499.6125 Q380.208,499.9875 380.208,500.5031 L380.208,501.0563 Q380.208,501.675 380.7142,502.0875 Q381.2205,502.5 382.1205,502.5 Q382.6549,502.5 383.0299,502.3781 Q383.2455,502.3125 383.4892,502.0969 Q383.6486,501.975 383.733,501.9375 Q383.8174,501.9 383.9205,501.9 Q384.1174,501.9 384.258,502.0594 Q384.408,502.2094 384.408,502.425 Q384.408,502.6312 384.2017,502.875 Q383.9017,503.2313 383.4236,503.4281 Q382.7955,503.7 382.0267,503.7 Q381.1267,503.7 380.4049,503.3438 Q379.8236,503.0625 379.4111,502.4531 Q379.008,501.8438 379.008,501.1219 L379.008,500.4656 Q379.008,499.7156 379.3642,499.0594 Q379.7299,498.4031 380.358,498.0563 Q380.9955,497.7 381.708,497.7 Q382.1392,497.7 382.5142,497.85 Q382.8892,498 383.208,498.3 Z " fill="#000000"/><text fill="#000000" font-family="sans-serif" font-size="7.2" lengthAdjust="spacing" textLength="27.6" x="390.408" y="503.3461">Barcode</text><line style="stroke:#A80036;stroke-width:0.8999999999999999;" x1="373.608" x2="419.208" y1="510" y2="510"/><text fill="#000000" font-family="sans-serif" font-size="6.6" lengthAdjust="spacing" textLength="16.8" x="376.608" y="519.2514">-code</text><line style="stroke:#A80036;stroke-width:0.8999999999999999;" x1="373.608" x2="419.208" y1="523.1016" y2="523.1016"/><!--MD5=[09366576ee87d48d594df10cacc83f45]
link Company to Employee--><path codeLine="79" d="M666.294,718.902 C671.022,769.44 671.454,863.118 619.608,915.6 C591.588,943.968 471.03,954.978 417.174,958.542 " fill="none" id="Company-Employee" style="stroke:#A80036;stroke-width:0.6;"/><polygon fill="#000000" points="661.8459,836.7853,666.9796,834.2937,664.5347,831.7521,661.8459,836.7853" style="stroke:#000000;stroke-width:0.6;"/><text fill="#000000" font-family="sans-serif" font-size="7.8" lengthAdjust="spacing" textLength="22.2" x="669.408" y="837.8971">knows</text><text fill="#000000" font-family="sans-serif" font-size="7.8" lengthAdjust="spacing" textLength="4.2" x="662.4092" y="731.8806">1</text><text fill="#000000" font-family="sans-serif" font-size="7.8" lengthAdjust="spacing" textLength="3" x="421.9291" y="967.1285">*</text><!--MD5=[b921f878c1b19577ef94d929b3e93a58]
link Company to Laboratory--><path codeLine="80" d="M672.24,718.848 C676.044,728.586 680.892,738.894 686.808,747.6 C693.492,757.44 702.966,766.686 711.282,773.82 " fill="none" id="Company-Laboratory" style="stroke:#A80036;stroke-width:0.6;"/><polygon fill="#000000" points="691.5451,744.7514,689.8403,739.3056,686.965,741.3477,691.5451,744.7514" style="stroke:#000000;stroke-width:0.6;"/><text fill="#000000" font-family="sans-serif" font-size="7.8" lengthAdjust="spacing" textLength="18" x="695.208" y="745.4971">owns</text><text fill="#000000" font-family="sans-serif" font-size="7.8" lengthAdjust="spacing" textLength="4.2" x="669.0798" y="731.82">1</text><text fill="#000000" font-family="sans-serif" font-size="7.8" lengthAdjust="spacing" textLength="3" x="703.2528" y="767.378">*</text><!--MD5=[aa1255e4af638346fc98de7bb86040cd]
link Clinical_Analysis_Laboratory to Laboratory--><path codeLine="81" d="M729.408,597.66 C729.408,634.878 729.408,736.68 729.408,773.922 " fill="none" id="Clinical_Analysis_Laboratory-Laboratory" style="stroke:#A80036;stroke-width:0.6;"/><polygon fill="#000000" points="732.408,686.8055,734.1714,681.3784,730.6446,681.3784,732.408,686.8055" style="stroke:#000000;stroke-width:0.6;"/><text fill="#000000" font-family="sans-serif" font-size="7.8" lengthAdjust="spacing" textLength="12.6" x="737.808" y="686.9971">is a</text><text fill="#000000" font-family="sans-serif" font-size="7.8" lengthAdjust="spacing" textLength="3" x="726.0424" y="610.4774">*</text><text fill="#000000" font-family="sans-serif" font-size="7.8" lengthAdjust="spacing" textLength="4.2" x="724.6699" y="767.5061">1</text><!--MD5=[0a4b97457b3bd0876e0d27cd497e183e]
link Chemical_Laboratory to Laboratory--><path codeLine="82" d="M805.194,698.256 C788.43,718.068 757.914,754.122 741.174,773.898 " fill="none" id="Chemical_Laboratory-Laboratory" style="stroke:#A80036;stroke-width:0.6;"/><polygon fill="#000000" points="771.2699,744.5954,776.1219,741.5921,773.43,739.3137,771.2699,744.5954" style="stroke:#000000;stroke-width:0.6;"/><text fill="#000000" font-family="sans-serif" font-size="7.8" lengthAdjust="spacing" textLength="12.6" x="778.608" y="745.4971">is a</text><text fill="#000000" font-family="sans-serif" font-size="7.8" lengthAdjust="spacing" textLength="4.2" x="797.6025" y="711.0968">1</text><text fill="#000000" font-family="sans-serif" font-size="7.8" lengthAdjust="spacing" textLength="4.2" x="739.4509" y="767.476">1</text><!--MD5=[06bb7d2a85a007b79d10922b2d5e4cdd]
link Receptionist to Employee--><path codeLine="83" d="M626.598,33.204 C639.294,42.966 652.608,57.288 652.608,74.4 C652.608,74.4 652.608,74.4 652.608,468 C652.608,591.504 604.008,618.096 604.008,741.6 C604.008,741.6 604.008,741.6 604.008,873 C604.008,912.942 474.006,943.578 417.126,955.068 " fill="none" id="Receptionist-Employee" style="stroke:#A80036;stroke-width:0.6;"/><polygon fill="#000000" points="654.9433,470.4309,657.8653,465.5295,654.4263,464.748,654.9433,470.4309" style="stroke:#000000;stroke-width:0.6;"/><text fill="#000000" font-family="sans-serif" font-size="7.8" lengthAdjust="spacing" textLength="12.6" x="661.008" y="470.6971">is a</text><text fill="#000000" font-family="sans-serif" font-size="7.8" lengthAdjust="spacing" textLength="4.2" x="627.1363" y="45.8126">1</text><text fill="#000000" font-family="sans-serif" font-size="7.8" lengthAdjust="spacing" textLength="4.2" x="421.976" y="951.8074">1</text><!--MD5=[2d4c399f92ddbcdc8c2269cd010b9280]
link Laboratory_Coordinator to Employee--><path codeLine="84" d="M76.8,698.19 C78.48,721.926 83.43,771.594 97.008,811.2 C110.052,849.264 117.408,859.332 146.808,886.8 C209.058,944.97 315.768,957.048 364.878,959.46 " fill="none" id="Laboratory_Coordinator-Employee" style="stroke:#A80036;stroke-width:0.6;"/><polygon fill="#000000" points="113.6302,836.7209,110.7948,831.7688,108.4256,834.3811,113.6302,836.7209" style="stroke:#000000;stroke-width:0.6;"/><text fill="#000000" font-family="sans-serif" font-size="7.8" lengthAdjust="spacing" textLength="12.6" x="116.808" y="837.8971">is a</text><text fill="#000000" font-family="sans-serif" font-size="7.8" lengthAdjust="spacing" textLength="4.2" x="72.2812" y="711.0147">1</text><text fill="#000000" font-family="sans-serif" font-size="7.8" lengthAdjust="spacing" textLength="4.2" x="355.826" y="968.2043">1</text><!--MD5=[45a7766f93d7d4be916bb467d156a72c]
link Medical_Lab_Technician to Employee--><path codeLine="85" d="M266.814,353.562 C265.722,380.226 263.412,440.25 262.608,490.8 C260.778,606.108 267.198,636.984 299.808,747.6 C322.734,825.354 366.264,912.648 383.604,946.014 " fill="none" id="Medical_Lab_Technician-Employee" style="stroke:#A80036;stroke-width:0.6;"/><polygon fill="#000000" points="273.3882,628.2488,274.0687,622.5832,270.6085,623.2653,273.3882,628.2488" style="stroke:#000000;stroke-width:0.6;"/><text fill="#000000" font-family="sans-serif" font-size="7.8" lengthAdjust="spacing" textLength="12.6" x="278.208" y="628.4971">is a</text><text fill="#000000" font-family="sans-serif" font-size="7.8" lengthAdjust="spacing" textLength="4.2" x="261.9573" y="366.4043">1</text><text fill="#000000" font-family="sans-serif" font-size="7.8" lengthAdjust="spacing" textLength="4.2" x="376.9686" y="939.5704">1</text><!--MD5=[8f7dd94d56b58fc07b233ccd3dd98f8c]
link Administrator to Employee--><path codeLine="86" d="M447.912,886.98 C435.264,903.216 414.516,929.838 401.874,946.056 " fill="none" id="Administrator-Employee" style="stroke:#A80036;stroke-width:0.6;"/><polygon fill="#000000" points="434.1639,912.6718,438.8908,909.475,436.109,907.3072,434.1639,912.6718" style="stroke:#000000;stroke-width:0.6;"/><text fill="#000000" font-family="sans-serif" font-size="7.8" lengthAdjust="spacing" textLength="12.6" x="441.408" y="913.4971">is a</text><text fill="#000000" font-family="sans-serif" font-size="7.8" lengthAdjust="spacing" textLength="4.2" x="440.7067" y="899.5831">1</text><text fill="#000000" font-family="sans-serif" font-size="7.8" lengthAdjust="spacing" textLength="4.2" x="399.9203" y="939.6232">1</text><!--MD5=[738be3b9320e072410965e082551cccc]
link Doctor to Employee--><path codeLine="87" d="M130.836,802.92 C135.534,824.01 147.342,864.006 172.608,886.8 C228.426,937.158 320.046,953.034 364.782,957.912 " fill="none" id="Doctor-Employee" style="stroke:#A80036;stroke-width:0.6;"/><polygon fill="#000000" points="178.1089,874.1624,174.5586,869.695,172.6108,872.635,178.1089,874.1624" style="stroke:#000000;stroke-width:0.6;"/><text fill="#000000" font-family="sans-serif" font-size="7.8" lengthAdjust="spacing" textLength="12.6" x="181.008" y="875.6971">is a</text><text fill="#000000" font-family="sans-serif" font-size="7.8" lengthAdjust="spacing" textLength="4.2" x="126.7647" y="815.752">1</text><text fill="#000000" font-family="sans-serif" font-size="7.8" lengthAdjust="spacing" textLength="4.2" x="355.8905" y="955.1863">1</text><!--MD5=[d8ce3ee85b6b4189abd519ef3b14e1ce]
link Clinical_Chemistry_Technologist to Employee--><path codeLine="88" d="M391.008,698.16 C391.008,745.278 391.008,898.95 391.008,946.11 " fill="none" id="Clinical_Chemistry_Technologist-Employee" style="stroke:#A80036;stroke-width:0.6;"/><polygon fill="#000000" points="394.008,837.7055,395.7714,832.2784,392.2446,832.2784,394.008,837.7055" style="stroke:#000000;stroke-width:0.6;"/><text fill="#000000" font-family="sans-serif" font-size="7.8" lengthAdjust="spacing" textLength="12.6" x="399.408" y="837.8971">is a</text><text fill="#000000" font-family="sans-serif" font-size="7.8" lengthAdjust="spacing" textLength="4.2" x="386.2961" y="710.9774">1</text><text fill="#000000" font-family="sans-serif" font-size="7.8" lengthAdjust="spacing" textLength="4.2" x="386.2699" y="939.691">1</text><!--MD5=[6a35157f4c730bda767e7c9f1b8b7f73]
link Receptionist to Client--><path codeLine="89" d="M581.76,33 C569.436,41.88 555.024,54.564 547.008,69.6 C539.382,83.916 535.746,101.118 534.162,116.898 " fill="none" id="Receptionist-Client" style="stroke:#A80036;stroke-width:0.6;"/><polygon fill="#000000" points="548.5276,77.7148,552.7394,73.8646,549.6719,72.1244,548.5276,77.7148" style="stroke:#000000;stroke-width:0.6;"/><text fill="#000000" font-family="sans-serif" font-size="7.8" lengthAdjust="spacing" textLength="32.4" x="555.408" y="78.2971">register a</text><text fill="#000000" font-family="sans-serif" font-size="7.8" lengthAdjust="spacing" textLength="4.2" x="571.6252" y="45.8028">1</text><text fill="#000000" font-family="sans-serif" font-size="7.8" lengthAdjust="spacing" textLength="3" x="531.001" y="110.5642">*</text><!--MD5=[e8b34c2e6517a986175307f5599f058a]
link Receptionist to Test--><path codeLine="90" d="M604.008,33.036 C604.008,44.202 604.008,60.312 604.008,74.4 C604.008,74.4 604.008,74.4 604.008,339.6 C604.008,357.492 595.896,375.702 587.376,389.892 " fill="none" id="Receptionist-Test" style="stroke:#A80036;stroke-width:0.6;"/><polygon fill="#000000" points="606.8683,238.9022,608.8824,233.5631,605.3596,233.399,606.8683,238.9022" style="stroke:#000000;stroke-width:0.6;"/><text fill="#000000" font-family="sans-serif" font-size="7.8" lengthAdjust="spacing" textLength="25.8" x="612.408" y="239.0971">register</text><text fill="#000000" font-family="sans-serif" font-size="7.8" lengthAdjust="spacing" textLength="4.2" x="599.2961" y="45.8476">1</text><text fill="#000000" font-family="sans-serif" font-size="7.8" lengthAdjust="spacing" textLength="3" x="587.112" y="383.5419">*</text><!--MD5=[0bde84c484199f8c429a86e32cc6847f]
link Client to LabOrder--><path codeLine="91" d="M535.986,212.538 C536.55,229.38 537.144,247.098 537.54,258.972 " fill="none" id="Client-LabOrder" style="stroke:#A80036;stroke-width:0.6;"/><polygon fill="#000000" points="539.9083,238.9038,541.4892,233.4208,537.9645,233.5388,539.9083,238.9038" style="stroke:#000000;stroke-width:0.6;"/><text fill="#000000" font-family="sans-serif" font-size="7.8" lengthAdjust="spacing" textLength="19.2" x="545.208" y="239.0971">has a</text><text fill="#000000" font-family="sans-serif" font-size="7.8" lengthAdjust="spacing" textLength="4.2" x="531.7411" y="225.1758">1</text><text fill="#000000" font-family="sans-serif" font-size="7.8" lengthAdjust="spacing" textLength="12" x="523.9634" y="252.7592">1..*</text><!--MD5=[84a279e28ad6c3248737114c29c49c27]
link LabOrder to Test--><path codeLine="92" d="M540.942,288.096 C545.91,311.646 556.062,359.778 562.422,389.934 " fill="none" id="LabOrder-Test" style="stroke:#A80036;stroke-width:0.6;"/><polygon fill="#000000" points="557.8271,342.0409,558.4325,336.3667,554.9817,337.0946,557.8271,342.0409" style="stroke:#000000;stroke-width:0.6;"/><text fill="#000000" font-family="sans-serif" font-size="7.8" lengthAdjust="spacing" textLength="24" x="562.608" y="342.2971">order a</text><text fill="#000000" font-family="sans-serif" font-size="7.8" lengthAdjust="spacing" textLength="4.2" x="536.9453" y="300.9222">1</text><text fill="#000000" font-family="sans-serif" font-size="7.8" lengthAdjust="spacing" textLength="4.2" x="556.997" y="383.3928">1</text><!--MD5=[e981d4f96c4342412d1e68160b30cf70]
link Test to TestType--><path codeLine="93" d="M568.104,444.108 C568.23,477.906 568.434,535.44 568.542,564.564 " fill="none" id="Test-TestType" style="stroke:#A80036;stroke-width:0.6;"/><polygon fill="#000000" points="571.0189,512.5054,572.7625,507.072,569.2358,507.0848,571.0189,512.5054" style="stroke:#000000;stroke-width:0.6;"/><text fill="#000000" font-family="sans-serif" font-size="7.8" lengthAdjust="spacing" textLength="14.4" x="576.408" y="512.6971">is of</text><text fill="#000000" font-family="sans-serif" font-size="7.8" lengthAdjust="spacing" textLength="3" x="564.9153" y="456.5267">*</text><text fill="#000000" font-family="sans-serif" font-size="7.8" lengthAdjust="spacing" textLength="4.2" x="563.8682" y="557.9683">1</text><!--MD5=[b72ac8ab7fb5921fceb5036a3902baea]
link Test to Sample--><path codeLine="94" d="M545.04,425.376 C495.03,442.302 376.602,482.394 324.252,500.118 " fill="none" id="Test-Sample" style="stroke:#A80036;stroke-width:0.6;"/><polygon fill="#000000" points="433.7664,468.4674,439.4723,468.3975,438.3415,465.057,433.7664,468.4674" style="stroke:#000000;stroke-width:0.6;"/><text fill="#000000" font-family="sans-serif" font-size="7.8" lengthAdjust="spacing" textLength="21" x="442.008" y="470.6971">needs</text><text fill="#000000" font-family="sans-serif" font-size="7.8" lengthAdjust="spacing" textLength="4.2" x="536.2181" y="424.5791">1</text><text fill="#000000" font-family="sans-serif" font-size="7.8" lengthAdjust="spacing" textLength="12" x="328.8997" y="496.5695">1..*</text><!--MD5=[67f3eb9464bc08ca2c5b58e33c8e251a]
link Medical_Lab_Technician to Sample--><path codeLine="95" d="M269.964,353.448 C275.58,383.91 289.008,456.738 295.278,490.74 " fill="none" id="Medical_Lab_Technician-Sample" style="stroke:#A80036;stroke-width:0.6;"/><polygon fill="#000000" points="290.752,420.0557,291.502,414.3989,288.0338,415.0384,290.752,420.0557" style="stroke:#000000;stroke-width:0.6;"/><text fill="#000000" font-family="sans-serif" font-size="7.8" lengthAdjust="spacing" textLength="22.8" x="295.608" y="420.2971">collect</text><text fill="#000000" font-family="sans-serif" font-size="7.8" lengthAdjust="spacing" textLength="4.2" x="271.0989" y="366.2625">1</text><text fill="#000000" font-family="sans-serif" font-size="7.8" lengthAdjust="spacing" textLength="3" x="291.2818" y="484.4303">*</text><!--MD5=[c0365682835b1ef97cd138fe3c5981b0]
link Sample to Clinical_Chemistry_Technologist--><path codeLine="96" d="M308.232,528.036 C326.772,562.758 367.044,638.208 383.64,669.294 " fill="none" id="Sample-Clinical_Chemistry_Technologist" style="stroke:#A80036;stroke-width:0.6;"/><polygon fill="#000000" points="348.7952,580.659,349.7954,586.277,352.9066,584.6161,348.7952,580.659" style="stroke:#000000;stroke-width:0.6;"/><text fill="#000000" font-family="sans-serif" font-size="7.8" lengthAdjust="spacing" textLength="28.2" x="355.608" y="586.4971">receives</text><text fill="#000000" font-family="sans-serif" font-size="7.8" lengthAdjust="spacing" textLength="3" x="306.8314" y="540.7775">*</text><text fill="#000000" font-family="sans-serif" font-size="7.8" lengthAdjust="spacing" textLength="4.2" x="377.0138" y="662.8966">1</text><!--MD5=[327391d6abe62f0446af3ffbf41cf7ec]
link Sample to Barcode--><path codeLine="97" d="M324.306,509.4 C339.36,509.4 358.23,509.4 372.894,509.4 " fill="none" id="Sample-Barcode" style="stroke:#A80036;stroke-width:0.6;"/><polygon fill="#000000" points="340.458,502.3055,335.0309,500.5421,335.0309,504.0688,340.458,502.3055" style="stroke:#000000;stroke-width:0.6;"/><text fill="#000000" font-family="sans-serif" font-size="7.8" lengthAdjust="spacing" textLength="19.2" x="342.858" y="505.4971">has a</text><text fill="#000000" font-family="sans-serif" font-size="7.8" lengthAdjust="spacing" textLength="4.2" x="328.91" y="518.3177">1</text><text fill="#000000" font-family="sans-serif" font-size="7.8" lengthAdjust="spacing" textLength="4.2" x="363.9714" y="507.0406">1</text><!--MD5=[388a00413fc3108aa0baec2b59b7bdf9]
link Barcode to External_API--><path codeLine="98" d="M419.958,509.4 C440.88,509.4 471.588,509.4 494.37,509.4 " fill="none" id="Barcode-External_API" style="stroke:#A80036;stroke-width:0.6;"/><polygon fill="#000000" points="436.158,502.3055,430.7309,500.5421,430.7309,504.0688,436.158,502.3055" style="stroke:#000000;stroke-width:0.6;"/><text fill="#000000" font-family="sans-serif" font-size="7.8" lengthAdjust="spacing" textLength="45" x="438.558" y="505.4971">generated by</text><text fill="#000000" font-family="sans-serif" font-size="7.8" lengthAdjust="spacing" textLength="3" x="424.5766" y="507.0406">*</text><text fill="#000000" font-family="sans-serif" font-size="7.8" lengthAdjust="spacing" textLength="4.2" x="485.5943" y="507.2369">1</text><!--MD5=[55a9865c974ffedc3ab58fdf8180d268]
link Clinical_Chemistry_Technologist to Chemical_Laboratory--><path codeLine="99" d="M427.668,669.294 C484.158,648.858 595.974,615.408 691.608,629.4 C721.074,633.714 728.442,636.846 755.808,648.6 C769.2,654.354 783.366,662.34 794.694,669.246 " fill="none" id="Clinical_Chemistry_Technologist-Chemical_Laboratory" style="stroke:#A80036;stroke-width:0.6;"/><polygon fill="#000000" points="664.008,625.3051,658.5807,623.5424,658.5812,627.0691,664.008,625.3051" style="stroke:#000000;stroke-width:0.6;"/><text fill="#000000" font-family="sans-serif" font-size="7.8" lengthAdjust="spacing" textLength="24.6" x="666.408" y="628.4971">work in</text><text fill="#000000" font-family="sans-serif" font-size="7.8" lengthAdjust="spacing" textLength="3" x="433.6778" y="662.8966">*</text><text fill="#000000" font-family="sans-serif" font-size="7.8" lengthAdjust="spacing" textLength="4.2" x="784.2379" y="662.8363">1</text><!--MD5=[afe83291a4ff360dae8c5a3fdf90a0a3]
link Clinical_Chemistry_Technologist to Chemical_Analyses--><path codeLine="100" d="M371.256,698.154 C346.668,715.392 304.362,745.056 275.19,765.51 " fill="none" id="Clinical_Chemistry_Technologist-Chemical_Analyses" style="stroke:#A80036;stroke-width:0.6;"/><polygon fill="#000000" points="313.5516,744.0277,319.0076,742.3559,316.9829,739.4683,313.5516,744.0277" style="stroke:#000000;stroke-width:0.6;"/><text fill="#000000" font-family="sans-serif" font-size="7.8" lengthAdjust="spacing" textLength="25.8" x="321.408" y="745.4971">perform</text><text fill="#000000" font-family="sans-serif" font-size="7.8" lengthAdjust="spacing" textLength="4.2" x="361.7296" y="710.9699">1</text><text fill="#000000" font-family="sans-serif" font-size="7.8" lengthAdjust="spacing" textLength="3" x="277.584" y="759.1111">*</text><!--MD5=[59d44bdecc6aa2c729a3967aadca6766]
link TestType to Parameters--><path codeLine="101" d="M562.446,602.016 C555.888,621.384 545.664,651.606 539.724,669.168 " fill="none" id="TestType-Parameters" style="stroke:#A80036;stroke-width:0.6;"/><polygon fill="#000000" points="557.4465,628.1472,560.8562,623.5716,557.5156,622.4413,557.4465,628.1472" style="stroke:#000000;stroke-width:0.6;"/><text fill="#000000" font-family="sans-serif" font-size="7.8" lengthAdjust="spacing" textLength="25.2" x="563.808" y="628.4971">contain</text><text fill="#000000" font-family="sans-serif" font-size="7.8" lengthAdjust="spacing" textLength="3" x="557.9854" y="614.6444">*</text><text fill="#000000" font-family="sans-serif" font-size="7.8" lengthAdjust="spacing" textLength="12" x="527.395" y="662.7383">1..*</text><!--MD5=[6153584152eea4d43fc5098491765777]
link Parameters to Category--><path codeLine="102" d="M535.008,698.256 C535.008,718.068 535.008,754.122 535.008,773.898 " fill="none" id="Parameters-Category" style="stroke:#A80036;stroke-width:0.6;"/><polygon fill="#000000" points="538.008,745.3055,539.7714,739.8784,536.2446,739.8784,538.008,745.3055" style="stroke:#000000;stroke-width:0.6;"/><text fill="#000000" font-family="sans-serif" font-size="7.8" lengthAdjust="spacing" textLength="19.2" x="543.408" y="745.4971">under</text><text fill="#000000" font-family="sans-serif" font-size="7.8" lengthAdjust="spacing" textLength="3" x="531.6424" y="711.0968">*</text><text fill="#000000" font-family="sans-serif" font-size="7.8" lengthAdjust="spacing" textLength="4.2" x="530.2699" y="767.476">1</text><!--MD5=[2c46651aa9ea3a6d986170fabc83ad48]
link Category to Administrator--><path codeLine="103" d="M522.252,802.86 C508.188,818.142 485.688,842.592 471.606,857.898 " fill="none" id="Category-Administrator" style="stroke:#A80036;stroke-width:0.6;"/><polygon fill="#000000" points="501.6394,832.4979,496.667,835.2974,499.2621,837.6855,501.6394,832.4979" style="stroke:#000000;stroke-width:0.6;"/><text fill="#000000" font-family="sans-serif" font-size="7.8" lengthAdjust="spacing" textLength="21.6" x="505.008" y="837.8971">create</text><text fill="#000000" font-family="sans-serif" font-size="7.8" lengthAdjust="spacing" textLength="3" x="515.7771" y="815.6774">*</text><text fill="#000000" font-family="sans-serif" font-size="7.8" lengthAdjust="spacing" textLength="4.2" x="470.1474" y="851.476">1</text><!--MD5=[a30860acc0b1e1e93377b3e8bf0b9e42]
link Parameters to Administrator--><path codeLine="104" d="M519.534,698.154 C503.976,713.106 480.75,738.45 469.608,765.6 C456.84,796.716 456.75,837.096 457.776,857.958 " fill="none" id="Parameters-Administrator" style="stroke:#A80036;stroke-width:0.6;"/><polygon fill="#000000" points="473.6894,785.7072,470.0883,790.1337,473.3779,791.405,473.6894,785.7072" style="stroke:#000000;stroke-width:0.6;"/><text fill="#000000" font-family="sans-serif" font-size="7.8" lengthAdjust="spacing" textLength="21.6" x="478.008" y="791.6971">create</text><text fill="#000000" font-family="sans-serif" font-size="7.8" lengthAdjust="spacing" textLength="3" x="512.3966" y="710.9699">*</text><text fill="#000000" font-family="sans-serif" font-size="7.8" lengthAdjust="spacing" textLength="4.2" x="452.7734" y="851.5513">1</text><!--MD5=[97bf7d4409aa0aabe6940c9420d19100]
link Doctor to Chemical_Analyses--><path codeLine="105" d="M148.806,788.4 C163.236,788.4 183.042,788.4 200.802,788.4 " fill="none" id="Doctor-Chemical_Analyses" style="stroke:#A80036;stroke-width:0.6;"/><polygon fill="#000000" points="165.108,781.3055,159.6809,779.5421,159.6809,783.0688,165.108,781.3055" style="stroke:#000000;stroke-width:0.6;"/><text fill="#000000" font-family="sans-serif" font-size="7.8" lengthAdjust="spacing" textLength="22.2" x="167.508" y="784.4971">knows</text><text fill="#000000" font-family="sans-serif" font-size="7.8" lengthAdjust="spacing" textLength="4.2" x="153.4875" y="785.9288">1</text><text fill="#000000" font-family="sans-serif" font-size="7.8" lengthAdjust="spacing" textLength="3" x="192.9779" y="786.3944">*</text><!--MD5=[ea81175f604d6a35cf7833ef6a6b10c7]
link Doctor to Report--><path codeLine="106" d="M120.09,802.872 C114.072,813.138 105.66,827.46 98.208,840 C79.038,872.274 56.778,909.3 42.144,933.588 " fill="none" id="Doctor-Report" style="stroke:#A80036;stroke-width:0.6;"/><polygon fill="#000000" points="88.8715,875.0821,93.1656,871.324,90.1365,869.5178,88.8715,875.0821" style="stroke:#000000;stroke-width:0.6;"/><text fill="#000000" font-family="sans-serif" font-size="7.8" lengthAdjust="spacing" textLength="16.2" x="95.808" y="875.6971">write</text><text fill="#000000" font-family="sans-serif" font-size="7.8" lengthAdjust="spacing" textLength="4.2" x="113.3994" y="815.6923">1</text><text fill="#000000" font-family="sans-serif" font-size="7.8" lengthAdjust="spacing" textLength="3" x="41.4447" y="927.0554">*</text><!--MD5=[dd54e598cac7fafada6498813f841094]
link Laboratory_Coordinator to Report--><path codeLine="107" d="M67.368,698.214 C52.38,723.27 22.11,778.128 11.208,829.2 C3.6,864.852 11.292,906.852 18.174,933.456 " fill="none" id="Laboratory_Coordinator-Report" style="stroke:#A80036;stroke-width:0.6;"/><polygon fill="#000000" points="13.5939,837.6419,16.4308,832.6908,12.9788,831.9689,13.5939,837.6419" style="stroke:#000000;stroke-width:0.6;"/><text fill="#000000" font-family="sans-serif" font-size="7.8" lengthAdjust="spacing" textLength="30" x="19.608" y="837.8971">validates</text><text fill="#000000" font-family="sans-serif" font-size="7.8" lengthAdjust="spacing" textLength="4.2" x="60.5501" y="711.0446">1</text><text fill="#000000" font-family="sans-serif" font-size="7.8" lengthAdjust="spacing" textLength="3" x="13.7141" y="927.1004">*</text><!--MD5=[da711191734cedfa923cb6d15ab387e4]
link Laboratory_Coordinator to Chemical_Analyses--><path codeLine="108" d="M98.412,698.154 C126.294,715.392 174.276,745.056 207.36,765.51 " fill="none" id="Laboratory_Coordinator-Chemical_Analyses" style="stroke:#A80036;stroke-width:0.6;"/><polygon fill="#000000" points="180.5597,743.883,176.8709,739.5293,175.0163,742.529,180.5597,743.883" style="stroke:#000000;stroke-width:0.6;"/><text fill="#000000" font-family="sans-serif" font-size="7.8" lengthAdjust="spacing" textLength="30" x="183.408" y="745.4971">validates</text><text fill="#000000" font-family="sans-serif" font-size="7.8" lengthAdjust="spacing" textLength="4.2" x="99.1611" y="710.9699">1</text><text fill="#000000" font-family="sans-serif" font-size="7.8" lengthAdjust="spacing" textLength="3" x="197.6718" y="759.1111">*</text><!--MD5=[27969557b789a3a8615f455b93804dd6]
link Chemical_Analyses to Reference_Values--><path codeLine="109" d="M242.67,811.35 C242.496,820.266 242.454,830.622 242.808,840 C243.03,845.862 243.48,852.324 243.93,857.88 " fill="none" id="Chemical_Analyses-Reference_Values" style="stroke:#A80036;stroke-width:0.6;"/><polygon fill="#000000" points="245.8892,837.7044,247.505,832.2316,243.9796,832.327,245.8892,837.7044" style="stroke:#000000;stroke-width:0.6;"/><text fill="#000000" font-family="sans-serif" font-size="7.8" lengthAdjust="spacing" textLength="50.4" x="251.208" y="837.8971">compared with</text><text fill="#000000" font-family="sans-serif" font-size="7.8" lengthAdjust="spacing" textLength="3" x="239.3133" y="823.9022">*</text><text fill="#000000" font-family="sans-serif" font-size="7.8" lengthAdjust="spacing" textLength="3" x="240.2181" y="851.4533">*</text><!--MD5=[225363dfc93dc8386659a07422f442b3]
@startuml
'https://plantuml.com/class-diagram
skinparam classAttributeIconSize 0
class Company
class Employee
class Clinical_Analysis_Laboratory
class Receptionist
class Test
class TestType
class Category
class Parameters
class Sample
class Medical_Lab_Technician
class Doctor
class Report
class Chemical_Analyses
class Chemical_Laboratory
class Clinical_Chemistry_Technologist
class LabOrder
class Client
class Laboratory_Coordinator
class Administrator
class Laboratory
class External_API
class Reference_Values
class Barcode

class Company{
-name
-designation
-category
-address
-headquarter
}
class Laboratory{
}
class Barcode{
-code
}

class Report{
-diagnosis
}

class Sample{
-collection date
}

class Test{
-internalCode
-nhsCode
-description

}
class TestType{
-designation
}

class Client{
 - Name
 - Email
 - Phone Number
 - Sex
 - TIF
 - Birth Date
 - NHS Number
 - Citizen Card Number

}
class Chemical_Analyses{
-date
-time
}
class Report{
-date
-time
}


Company "1"- - -"*" Employee : knows >
Company "1"- -"*" Laboratory : owns >
Clinical_Analysis_Laboratory "*"- - -"1" Laboratory : is a >
Chemical_Laboratory "1"- -"1" Laboratory : is a >
Receptionist "1"- -"1" Employee : is a >
Laboratory_Coordinator "1"- -"1" Employee : is a >
Medical_Lab_Technician "1"- -"1" Employee : is a >
Administrator "1"- -"1" Employee : is a >
Doctor "1"- - -"1" Employee : is a >
Clinical_Chemistry_Technologist "1"- - - -"1" Employee : is a >
Receptionist "1"- - -"*" Client : register a >
Receptionist "1"-"*" Test : register >
Client "1"- -"1..*" LabOrder : has a >
LabOrder "1"- - -"1" Test : order a >
Test "*"- - -"1" TestType : is of >
Test "1"-"1..*" Sample : needs >
Medical_Lab_Technician "1"- - -"*" Sample : collect >
Sample "*"- - -"1" Clinical_Chemistry_Technologist : < receives
Sample "1"-"1" Barcode : has a >
Barcode "*"-"1" External_API : generated by >
Clinical_Chemistry_Technologist "*"-"1" Chemical_Laboratory : work in >
Clinical_Chemistry_Technologist "1"- -"*" Chemical_Analyses : perform >
TestType "*"- -"1..*" Parameters : contain >
Parameters "*"- -"1" Category : under >
Category "*"- -"1" Administrator : < create
Parameters "*"- - -"1"Administrator : < create
Doctor "1"-"*" Chemical_Analyses : knows >
Doctor "1"- - -"*" Report : write >
Laboratory_Coordinator "1"-"*" Report : validates >
Laboratory_Coordinator "1"- -"*" Chemical_Analyses : validates >
Chemical_Analyses "*"- -"*" Reference_Values : compared with >





@enduml

@startuml
skinparam classAttributeIconSize 0
class Company
class Employee
class Clinical_Analysis_Laboratory
class Receptionist
class Test
class TestType
class Category
class Parameters
class Sample
class Medical_Lab_Technician
class Doctor
class Report
class Chemical_Analyses
class Chemical_Laboratory
class Clinical_Chemistry_Technologist
class LabOrder
class Client
class Laboratory_Coordinator
class Administrator
class Laboratory
class External_API
class Reference_Values
class Barcode

class Company{
-name
-designation
-category
-address
-headquarter
}
class Laboratory{
}
class Barcode{
-code
}

class Report{
-diagnosis
}

class Sample{
-collection date
}

class Test{
-internalCode
-nhsCode
-description

}
class TestType{
-designation
}

class Client{
 - Name
 - Email
 - Phone Number
 - Sex
 - TIF
 - Birth Date
 - NHS Number
 - Citizen Card Number

}
class Chemical_Analyses{
-date
-time
}
class Report{
-date
-time
}


Company "1"- - -"*" Employee : knows >
Company "1"- -"*" Laboratory : owns >
Clinical_Analysis_Laboratory "*"- - -"1" Laboratory : is a >
Chemical_Laboratory "1"- -"1" Laboratory : is a >
Receptionist "1"- -"1" Employee : is a >
Laboratory_Coordinator "1"- -"1" Employee : is a >
Medical_Lab_Technician "1"- -"1" Employee : is a >
Administrator "1"- -"1" Employee : is a >
Doctor "1"- - -"1" Employee : is a >
Clinical_Chemistry_Technologist "1"- - - -"1" Employee : is a >
Receptionist "1"- - -"*" Client : register a >
Receptionist "1"-"*" Test : register >
Client "1"- -"1..*" LabOrder : has a >
LabOrder "1"- - -"1" Test : order a >
Test "*"- - -"1" TestType : is of >
Test "1"-"1..*" Sample : needs >
Medical_Lab_Technician "1"- - -"*" Sample : collect >
Sample "*"- - -"1" Clinical_Chemistry_Technologist : < receives
Sample "1"-"1" Barcode : has a >
Barcode "*"-"1" External_API : generated by >
Clinical_Chemistry_Technologist "*"-"1" Chemical_Laboratory : work in >
Clinical_Chemistry_Technologist "1"- -"*" Chemical_Analyses : perform >
TestType "*"- -"1..*" Parameters : contain >
Parameters "*"- -"1" Category : under >
Category "*"- -"1" Administrator : < create
Parameters "*"- - -"1"Administrator : < create
Doctor "1"-"*" Chemical_Analyses : knows >
Doctor "1"- - -"*" Report : write >
Laboratory_Coordinator "1"-"*" Report : validates >
Laboratory_Coordinator "1"- -"*" Chemical_Analyses : validates >
Chemical_Analyses "*"- -"*" Reference_Values : compared with >





@enduml

PlantUML version 1.2021.4(Sun Apr 04 09:49:39 BST 2021)
(GPL source distribution)
Java Runtime: OpenJDK Runtime Environment
JVM: Dynamic Code Evolution 64-Bit Server VM
Default Encoding: Cp1252
Language: pt
Country: PT
--></g></svg>