<?xml version="1.0" encoding="UTF-8" standalone="no"?><svg xmlns="http://www.w3.org/2000/svg" xmlns:xlink="http://www.w3.org/1999/xlink" contentScriptType="application/ecmascript" contentStyleType="text/css" height="556.8px" preserveAspectRatio="none" style="width:1834px;height:556px;" version="1.1" viewBox="0 0 1834 556" width="1834.8px" zoomAndPan="magnify"><defs><filter height="300%" id="f1c25xhgrlbd3b" width="300%" x="-1" y="-1"><feGaussianBlur result="blurOut" stdDeviation="1.2"/><feColorMatrix in="blurOut" result="blurOut2" type="matrix" values="0 0 0 0 0 0 0 0 0 0 0 0 0 0 0 0 0 0 .4 0"/><feOffset dx="2.4" dy="2.4" in="blurOut2" result="blurOut3"/><feBlend in="SourceGraphic" in2="blurOut3" mode="normal"/></filter></defs><g><!--MD5=[02e4b9b7573f1156f41e60aa5b4e25a4]
class Company--><rect codeLine="28" fill="#FEFECE" filter="url(#f1c25xhgrlbd3b)" height="70.3078" id="Company" style="stroke:#A80036;stroke-width:0.8999999999999999;" width="51" x="1251.9" y="142.1139"/><ellipse cx="1260.9" cy="151.7139" fill="#ADD1B2" rx="6.6" ry="6.6" style="stroke:#A80036;stroke-width:0.6;"/><path d="M1262.1,149.6139 Q1262.2219,149.3139 1262.3625,149.1639 Q1262.5031,149.0139 1262.6625,149.0139 Q1262.9438,149.0139 1263.1219,149.1826 Q1263.3,149.3514 1263.3,149.7451 L1263.3,150.6826 Q1263.3,151.0764 1263.1313,151.2451 Q1262.9625,151.4139 1262.7,151.4139 Q1262.4656,151.4139 1262.3156,151.3107 Q1262.1656,151.2076 1262.1,150.9357 Q1262.0719,150.7482 1261.9688,150.6451 Q1261.7813,150.4482 1261.4438,150.3357 Q1261.1063,150.2139 1260.7688,150.2139 Q1260.3469,150.2139 1259.9906,150.3826 Q1259.6438,150.5514 1259.3719,150.9264 Q1259.1,151.3014 1259.1,151.817 L1259.1,152.3701 Q1259.1,152.9889 1259.6063,153.4014 Q1260.1125,153.8139 1261.0125,153.8139 Q1261.5469,153.8139 1261.9219,153.692 Q1262.1375,153.6264 1262.3813,153.4107 Q1262.5406,153.2889 1262.625,153.2514 Q1262.7094,153.2139 1262.8125,153.2139 Q1263.0094,153.2139 1263.15,153.3732 Q1263.3,153.5232 1263.3,153.7389 Q1263.3,153.9451 1263.0938,154.1889 Q1262.7938,154.5451 1262.3156,154.742 Q1261.6875,155.0139 1260.9188,155.0139 Q1260.0188,155.0139 1259.2969,154.6576 Q1258.7156,154.3764 1258.3031,153.767 Q1257.9,153.1576 1257.9,152.4357 L1257.9,151.7795 Q1257.9,151.0295 1258.2563,150.3732 Q1258.6219,149.717 1259.25,149.3701 Q1259.8875,149.0139 1260.6,149.0139 Q1261.0313,149.0139 1261.4063,149.1639 Q1261.7813,149.3139 1262.1,149.6139 Z " fill="#000000"/><text fill="#000000" font-family="sans-serif" font-size="7.2" lengthAdjust="spacing" textLength="31.8" x="1269.3" y="154.66">Company</text><line style="stroke:#A80036;stroke-width:0.8999999999999999;" x1="1252.5" x2="1302.3" y1="161.3139" y2="161.3139"/><text fill="#000000" font-family="sans-serif" font-size="6.6" lengthAdjust="spacing" textLength="18" x="1255.5" y="170.5652">-name</text><text fill="#000000" font-family="sans-serif" font-size="6.6" lengthAdjust="spacing" textLength="35.4" x="1255.5" y="178.8668">-designation</text><text fill="#000000" font-family="sans-serif" font-size="6.6" lengthAdjust="spacing" textLength="28.2" x="1255.5" y="187.1684">-category</text><text fill="#000000" font-family="sans-serif" font-size="6.6" lengthAdjust="spacing" textLength="26.4" x="1255.5" y="195.4699">-address</text><text fill="#000000" font-family="sans-serif" font-size="6.6" lengthAdjust="spacing" textLength="37.8" x="1255.5" y="203.7715">-headquarter</text><line style="stroke:#A80036;stroke-width:0.8999999999999999;" x1="1252.5" x2="1302.3" y1="207.6217" y2="207.6217"/><!--MD5=[7421f545a0d8420c5bec41e74b387d9c]
class Employee--><rect codeLine="5" fill="#FEFECE" filter="url(#f1c25xhgrlbd3b)" height="28.8" id="Employee" style="stroke:#A80036;stroke-width:0.8999999999999999;" width="52.2" x="1581.9" y="162.8139"/><ellipse cx="1590.9" cy="172.4139" fill="#ADD1B2" rx="6.6" ry="6.6" style="stroke:#A80036;stroke-width:0.6;"/><path d="M1592.1,170.3139 Q1592.2219,170.0139 1592.3625,169.8639 Q1592.5031,169.7139 1592.6625,169.7139 Q1592.9438,169.7139 1593.1219,169.8826 Q1593.3,170.0514 1593.3,170.4451 L1593.3,171.3826 Q1593.3,171.7764 1593.1313,171.9451 Q1592.9625,172.1139 1592.7,172.1139 Q1592.4656,172.1139 1592.3156,172.0107 Q1592.1656,171.9076 1592.1,171.6357 Q1592.0719,171.4482 1591.9688,171.3451 Q1591.7813,171.1482 1591.4438,171.0357 Q1591.1063,170.9139 1590.7688,170.9139 Q1590.3469,170.9139 1589.9906,171.0826 Q1589.6438,171.2514 1589.3719,171.6264 Q1589.1,172.0014 1589.1,172.517 L1589.1,173.0701 Q1589.1,173.6889 1589.6063,174.1014 Q1590.1125,174.5139 1591.0125,174.5139 Q1591.5469,174.5139 1591.9219,174.392 Q1592.1375,174.3264 1592.3813,174.1107 Q1592.5406,173.9889 1592.625,173.9514 Q1592.7094,173.9139 1592.8125,173.9139 Q1593.0094,173.9139 1593.15,174.0732 Q1593.3,174.2232 1593.3,174.4389 Q1593.3,174.6451 1593.0938,174.8889 Q1592.7938,175.2451 1592.3156,175.442 Q1591.6875,175.7139 1590.9188,175.7139 Q1590.0188,175.7139 1589.2969,175.3576 Q1588.7156,175.0764 1588.3031,174.467 Q1587.9,173.8576 1587.9,173.1357 L1587.9,172.4795 Q1587.9,171.7295 1588.2563,171.0732 Q1588.6219,170.417 1589.25,170.0701 Q1589.8875,169.7139 1590.6,169.7139 Q1591.0313,169.7139 1591.4063,169.8639 Q1591.7813,170.0139 1592.1,170.3139 Z " fill="#000000"/><text fill="#000000" font-family="sans-serif" font-size="7.2" lengthAdjust="spacing" textLength="33" x="1599.3" y="175.36">Employee</text><line style="stroke:#A80036;stroke-width:0.8999999999999999;" x1="1582.5" x2="1633.5" y1="182.0139" y2="182.0139"/><line style="stroke:#A80036;stroke-width:0.8999999999999999;" x1="1582.5" x2="1633.5" y1="186.8139" y2="186.8139"/><!--MD5=[7bbeb2ee2985aba439820f756b846a5a]
class Clinical_Analysis_Laboratory--><rect codeLine="6" fill="#FEFECE" filter="url(#f1c25xhgrlbd3b)" height="28.8" id="Clinical_Analysis_Laboratory" style="stroke:#A80036;stroke-width:0.8999999999999999;" width="114.6" x="1041.3" y="230.0139"/><ellipse cx="1050.3" cy="239.6139" fill="#ADD1B2" rx="6.6" ry="6.6" style="stroke:#A80036;stroke-width:0.6;"/><path d="M1051.5,237.5139 Q1051.6219,237.2139 1051.7625,237.0639 Q1051.9031,236.9139 1052.0625,236.9139 Q1052.3438,236.9139 1052.5219,237.0826 Q1052.7,237.2514 1052.7,237.6451 L1052.7,238.5826 Q1052.7,238.9764 1052.5313,239.1451 Q1052.3625,239.3139 1052.1,239.3139 Q1051.8656,239.3139 1051.7156,239.2107 Q1051.5656,239.1076 1051.5,238.8357 Q1051.4719,238.6482 1051.3687,238.5451 Q1051.1812,238.3482 1050.8438,238.2357 Q1050.5063,238.1139 1050.1688,238.1139 Q1049.7469,238.1139 1049.3906,238.2826 Q1049.0438,238.4514 1048.7719,238.8264 Q1048.5,239.2014 1048.5,239.717 L1048.5,240.2701 Q1048.5,240.8889 1049.0063,241.3014 Q1049.5125,241.7139 1050.4125,241.7139 Q1050.9469,241.7139 1051.3219,241.592 Q1051.5375,241.5264 1051.7813,241.3107 Q1051.9406,241.1889 1052.025,241.1514 Q1052.1094,241.1139 1052.2125,241.1139 Q1052.4094,241.1139 1052.55,241.2732 Q1052.7,241.4232 1052.7,241.6389 Q1052.7,241.8451 1052.4937,242.0889 Q1052.1938,242.4451 1051.7156,242.642 Q1051.0875,242.9139 1050.3188,242.9139 Q1049.4188,242.9139 1048.6969,242.5576 Q1048.1156,242.2764 1047.7031,241.667 Q1047.3,241.0576 1047.3,240.3357 L1047.3,239.6795 Q1047.3,238.9295 1047.6563,238.2732 Q1048.0219,237.617 1048.65,237.2701 Q1049.2875,236.9139 1050,236.9139 Q1050.4312,236.9139 1050.8062,237.0639 Q1051.1812,237.2139 1051.5,237.5139 Z " fill="#000000"/><text fill="#000000" font-family="sans-serif" font-size="7.2" lengthAdjust="spacing" textLength="95.4" x="1058.7" y="242.56">Clinical_Analysis_Laboratory</text><line style="stroke:#A80036;stroke-width:0.8999999999999999;" x1="1041.9" x2="1155.3" y1="249.2139" y2="249.2139"/><line style="stroke:#A80036;stroke-width:0.8999999999999999;" x1="1041.9" x2="1155.3" y1="254.0139" y2="254.0139"/><!--MD5=[03960189e81aa2c066c762ffabbee709]
class Receptionist--><rect codeLine="7" fill="#FEFECE" filter="url(#f1c25xhgrlbd3b)" height="28.8" id="Receptionist" style="stroke:#A80036;stroke-width:0.8999999999999999;" width="60.6" x="4.2" y="59.6139"/><ellipse cx="13.2" cy="69.2139" fill="#ADD1B2" rx="6.6" ry="6.6" style="stroke:#A80036;stroke-width:0.6;"/><path d="M14.4,67.1139 Q14.5219,66.8139 14.6625,66.6639 Q14.8031,66.5139 14.9625,66.5139 Q15.2437,66.5139 15.4219,66.6826 Q15.6,66.8514 15.6,67.2451 L15.6,68.1826 Q15.6,68.5764 15.4312,68.7451 Q15.2625,68.9139 15,68.9139 Q14.7656,68.9139 14.6156,68.8107 Q14.4656,68.7076 14.4,68.4357 Q14.3719,68.2482 14.2687,68.1451 Q14.0812,67.9482 13.7438,67.8357 Q13.4063,67.7139 13.0688,67.7139 Q12.6469,67.7139 12.2906,67.8826 Q11.9438,68.0514 11.6719,68.4264 Q11.4,68.8014 11.4,69.317 L11.4,69.8701 Q11.4,70.4889 11.9063,70.9014 Q12.4125,71.3139 13.3125,71.3139 Q13.8469,71.3139 14.2219,71.192 Q14.4375,71.1264 14.6812,70.9107 Q14.8406,70.7889 14.925,70.7514 Q15.0094,70.7139 15.1125,70.7139 Q15.3094,70.7139 15.45,70.8732 Q15.6,71.0232 15.6,71.2389 Q15.6,71.4451 15.3937,71.6889 Q15.0938,72.0451 14.6156,72.242 Q13.9875,72.5139 13.2188,72.5139 Q12.3188,72.5139 11.5969,72.1576 Q11.0156,71.8764 10.6031,71.267 Q10.2,70.6576 10.2,69.9357 L10.2,69.2795 Q10.2,68.5295 10.5563,67.8732 Q10.9219,67.217 11.55,66.8701 Q12.1875,66.5139 12.9,66.5139 Q13.3312,66.5139 13.7062,66.6639 Q14.0812,66.8139 14.4,67.1139 Z " fill="#000000"/><text fill="#000000" font-family="sans-serif" font-size="7.2" lengthAdjust="spacing" textLength="41.4" x="21.6" y="72.16">Receptionist</text><line style="stroke:#A80036;stroke-width:0.8999999999999999;" x1="4.8" x2="64.2" y1="78.8139" y2="78.8139"/><line style="stroke:#A80036;stroke-width:0.8999999999999999;" x1="4.8" x2="64.2" y1="83.6139" y2="83.6139"/><!--MD5=[df38be88ccee13e832d6fafd6288a4ca]
class Test--><rect codeLine="49" fill="#FEFECE" filter="url(#f1c25xhgrlbd3b)" height="53.7047" id="Test" style="stroke:#A80036;stroke-width:0.8999999999999999;" width="45.6" x="459.3" y="137.0139"/><ellipse cx="473.7" cy="146.6139" fill="#ADD1B2" rx="6.6" ry="6.6" style="stroke:#A80036;stroke-width:0.6;"/><path d="M474.9,144.5139 Q475.0219,144.2139 475.1625,144.0639 Q475.3031,143.9139 475.4625,143.9139 Q475.7438,143.9139 475.9219,144.0826 Q476.1,144.2514 476.1,144.6451 L476.1,145.5826 Q476.1,145.9764 475.9313,146.1451 Q475.7625,146.3139 475.5,146.3139 Q475.2656,146.3139 475.1156,146.2107 Q474.9656,146.1076 474.9,145.8357 Q474.8719,145.6482 474.7687,145.5451 Q474.5812,145.3482 474.2438,145.2357 Q473.9063,145.1139 473.5687,145.1139 Q473.1469,145.1139 472.7906,145.2826 Q472.4437,145.4514 472.1719,145.8264 Q471.9,146.2014 471.9,146.717 L471.9,147.2701 Q471.9,147.8889 472.4063,148.3014 Q472.9125,148.7139 473.8125,148.7139 Q474.3469,148.7139 474.7219,148.592 Q474.9375,148.5264 475.1813,148.3107 Q475.3406,148.1889 475.425,148.1514 Q475.5094,148.1139 475.6125,148.1139 Q475.8094,148.1139 475.95,148.2732 Q476.1,148.4232 476.1,148.6389 Q476.1,148.8451 475.8937,149.0889 Q475.5938,149.4451 475.1156,149.642 Q474.4875,149.9139 473.7188,149.9139 Q472.8187,149.9139 472.0969,149.5576 Q471.5156,149.2764 471.1031,148.667 Q470.7,148.0576 470.7,147.3357 L470.7,146.6795 Q470.7,145.9295 471.0563,145.2732 Q471.4219,144.617 472.05,144.2701 Q472.6875,143.9139 473.4,143.9139 Q473.8312,143.9139 474.2062,144.0639 Q474.5812,144.2139 474.9,144.5139 Z " fill="#000000"/><text fill="#000000" font-family="sans-serif" font-size="7.2" lengthAdjust="spacing" textLength="14.4" x="483.3" y="149.56">Test</text><line style="stroke:#A80036;stroke-width:0.8999999999999999;" x1="459.9" x2="504.3" y1="156.2139" y2="156.2139"/><text fill="#000000" font-family="sans-serif" font-size="6.6" lengthAdjust="spacing" textLength="38.4" x="462.9" y="165.4652">-internalCode</text><text fill="#000000" font-family="sans-serif" font-size="6.6" lengthAdjust="spacing" textLength="28.2" x="462.9" y="173.7668">-nhsCode</text><text fill="#000000" font-family="sans-serif" font-size="6.6" lengthAdjust="spacing" textLength="34.2" x="462.9" y="182.0684">-description</text><line style="stroke:#A80036;stroke-width:0.8999999999999999;" x1="459.9" x2="504.3" y1="185.9186" y2="185.9186"/><!--MD5=[aeb3272166074d8737a70b61b1e71682]
class TestType--><rect codeLine="55" fill="#FEFECE" filter="url(#f1c25xhgrlbd3b)" height="37.1016" id="TestType" style="stroke:#A80036;stroke-width:0.8999999999999999;" width="49.2" x="638.7" y="145.4139"/><ellipse cx="647.7" cy="155.0139" fill="#ADD1B2" rx="6.6" ry="6.6" style="stroke:#A80036;stroke-width:0.6;"/><path d="M648.9,152.9139 Q649.0219,152.6139 649.1625,152.4639 Q649.3031,152.3139 649.4625,152.3139 Q649.7438,152.3139 649.9219,152.4826 Q650.1,152.6514 650.1,153.0451 L650.1,153.9826 Q650.1,154.3764 649.9313,154.5451 Q649.7625,154.7139 649.5,154.7139 Q649.2656,154.7139 649.1156,154.6107 Q648.9656,154.5076 648.9,154.2357 Q648.8719,154.0482 648.7688,153.9451 Q648.5813,153.7482 648.2438,153.6357 Q647.9063,153.5139 647.5688,153.5139 Q647.1469,153.5139 646.7906,153.6826 Q646.4438,153.8514 646.1719,154.2264 Q645.9,154.6014 645.9,155.117 L645.9,155.6701 Q645.9,156.2889 646.4063,156.7014 Q646.9125,157.1139 647.8125,157.1139 Q648.3469,157.1139 648.7219,156.992 Q648.9375,156.9264 649.1813,156.7107 Q649.3406,156.5889 649.425,156.5514 Q649.5094,156.5139 649.6125,156.5139 Q649.8094,156.5139 649.95,156.6732 Q650.1,156.8232 650.1,157.0389 Q650.1,157.2451 649.8938,157.4889 Q649.5938,157.8451 649.1156,158.042 Q648.4875,158.3139 647.7188,158.3139 Q646.8188,158.3139 646.0969,157.9576 Q645.5156,157.6764 645.1031,157.067 Q644.7,156.4576 644.7,155.7357 L644.7,155.0795 Q644.7,154.3295 645.0563,153.6732 Q645.4219,153.017 646.05,152.6701 Q646.6875,152.3139 647.4,152.3139 Q647.8313,152.3139 648.2063,152.4639 Q648.5813,152.6139 648.9,152.9139 Z " fill="#000000"/><text fill="#000000" font-family="sans-serif" font-size="7.2" lengthAdjust="spacing" textLength="30" x="656.1" y="157.96">TestType</text><line style="stroke:#A80036;stroke-width:0.8999999999999999;" x1="639.3" x2="687.3" y1="164.6139" y2="164.6139"/><text fill="#000000" font-family="sans-serif" font-size="6.6" lengthAdjust="spacing" textLength="35.4" x="642.3" y="173.8652">-designation</text><line style="stroke:#A80036;stroke-width:0.8999999999999999;" x1="639.3" x2="687.3" y1="177.7154" y2="177.7154"/><!--MD5=[a96594a83e2ecdc78cbf17c2ddf01934]
class Category--><rect codeLine="10" fill="#FEFECE" filter="url(#f1c25xhgrlbd3b)" height="28.8" id="Category" style="stroke:#A80036;stroke-width:0.8999999999999999;" width="48.6" x="913.2" y="162.2139"/><ellipse cx="922.2" cy="171.8139" fill="#ADD1B2" rx="6.6" ry="6.6" style="stroke:#A80036;stroke-width:0.6;"/><path d="M923.4,169.7139 Q923.5219,169.4139 923.6625,169.2639 Q923.8031,169.1139 923.9625,169.1139 Q924.2438,169.1139 924.4219,169.2826 Q924.6,169.4514 924.6,169.8451 L924.6,170.7826 Q924.6,171.1764 924.4313,171.3451 Q924.2625,171.5139 924,171.5139 Q923.7656,171.5139 923.6156,171.4107 Q923.4656,171.3076 923.4,171.0357 Q923.3719,170.8482 923.2688,170.7451 Q923.0813,170.5482 922.7438,170.4357 Q922.4063,170.3139 922.0687,170.3139 Q921.6469,170.3139 921.2906,170.4826 Q920.9438,170.6514 920.6719,171.0264 Q920.4,171.4014 920.4,171.917 L920.4,172.4701 Q920.4,173.0889 920.9063,173.5014 Q921.4125,173.9139 922.3125,173.9139 Q922.8469,173.9139 923.2219,173.792 Q923.4375,173.7264 923.6813,173.5107 Q923.8406,173.3889 923.925,173.3514 Q924.0094,173.3139 924.1125,173.3139 Q924.3094,173.3139 924.45,173.4732 Q924.6,173.6232 924.6,173.8389 Q924.6,174.0451 924.3938,174.2889 Q924.0938,174.6451 923.6156,174.842 Q922.9875,175.1139 922.2188,175.1139 Q921.3188,175.1139 920.5969,174.7576 Q920.0156,174.4764 919.6031,173.867 Q919.2,173.2576 919.2,172.5357 L919.2,171.8795 Q919.2,171.1295 919.5563,170.4732 Q919.9219,169.817 920.55,169.4701 Q921.1875,169.1139 921.9,169.1139 Q922.3313,169.1139 922.7063,169.2639 Q923.0813,169.4139 923.4,169.7139 Z " fill="#000000"/><text fill="#000000" font-family="sans-serif" font-size="7.2" lengthAdjust="spacing" textLength="29.4" x="930.6" y="174.76">Category</text><line style="stroke:#A80036;stroke-width:0.8999999999999999;" x1="913.8" x2="961.2" y1="181.4139" y2="181.4139"/><line style="stroke:#A80036;stroke-width:0.8999999999999999;" x1="913.8" x2="961.2" y1="186.2139" y2="186.2139"/><!--MD5=[56f671791a7bc69038cb91d87520b796]
class Parameters--><rect codeLine="11" fill="#FEFECE" filter="url(#f1c25xhgrlbd3b)" height="28.8" id="Parameters" style="stroke:#A80036;stroke-width:0.8999999999999999;" width="58.2" x="759" y="149.6139"/><ellipse cx="768" cy="159.2139" fill="#ADD1B2" rx="6.6" ry="6.6" style="stroke:#A80036;stroke-width:0.6;"/><path d="M769.2,157.1139 Q769.3219,156.8139 769.4625,156.6639 Q769.6031,156.5139 769.7625,156.5139 Q770.0437,156.5139 770.2219,156.6826 Q770.4,156.8514 770.4,157.2451 L770.4,158.1826 Q770.4,158.5764 770.2312,158.7451 Q770.0625,158.9139 769.8,158.9139 Q769.5656,158.9139 769.4156,158.8107 Q769.2656,158.7076 769.2,158.4357 Q769.1719,158.2482 769.0688,158.1451 Q768.8813,157.9482 768.5437,157.8357 Q768.2063,157.7139 767.8688,157.7139 Q767.4469,157.7139 767.0906,157.8826 Q766.7438,158.0514 766.4719,158.4264 Q766.2,158.8014 766.2,159.317 L766.2,159.8701 Q766.2,160.4889 766.7063,160.9014 Q767.2125,161.3139 768.1125,161.3139 Q768.6469,161.3139 769.0219,161.192 Q769.2375,161.1264 769.4812,160.9107 Q769.6406,160.7889 769.725,160.7514 Q769.8094,160.7139 769.9125,160.7139 Q770.1094,160.7139 770.25,160.8732 Q770.4,161.0232 770.4,161.2389 Q770.4,161.4451 770.1938,161.6889 Q769.8938,162.0451 769.4156,162.242 Q768.7875,162.5139 768.0188,162.5139 Q767.1188,162.5139 766.3969,162.1576 Q765.8156,161.8764 765.4031,161.267 Q765,160.6576 765,159.9357 L765,159.2795 Q765,158.5295 765.3562,157.8732 Q765.7219,157.217 766.35,156.8701 Q766.9875,156.5139 767.7,156.5139 Q768.1313,156.5139 768.5063,156.6639 Q768.8813,156.8139 769.2,157.1139 Z " fill="#000000"/><text fill="#000000" font-family="sans-serif" font-size="7.2" lengthAdjust="spacing" textLength="39" x="776.4" y="162.16">Parameters</text><line style="stroke:#A80036;stroke-width:0.8999999999999999;" x1="759.6" x2="816.6" y1="168.8139" y2="168.8139"/><line style="stroke:#A80036;stroke-width:0.8999999999999999;" x1="759.6" x2="816.6" y1="173.6139" y2="173.6139"/><!--MD5=[9681492165142af2a4a3a169d90ee8d4]
class Sample--><rect codeLine="45" fill="#FEFECE" filter="url(#f1c25xhgrlbd3b)" height="37.1016" id="Sample" style="stroke:#A80036;stroke-width:0.8999999999999999;" width="51" x="637.8" y="206.0139"/><ellipse cx="649.5" cy="215.6139" fill="#ADD1B2" rx="6.6" ry="6.6" style="stroke:#A80036;stroke-width:0.6;"/><path d="M650.7,213.5139 Q650.8219,213.2139 650.9625,213.0639 Q651.1031,212.9139 651.2625,212.9139 Q651.5437,212.9139 651.7219,213.0826 Q651.9,213.2514 651.9,213.6451 L651.9,214.5826 Q651.9,214.9764 651.7312,215.1451 Q651.5625,215.3139 651.3,215.3139 Q651.0656,215.3139 650.9156,215.2107 Q650.7656,215.1076 650.7,214.8357 Q650.6719,214.6482 650.5688,214.5451 Q650.3813,214.3482 650.0437,214.2357 Q649.7063,214.1139 649.3688,214.1139 Q648.9469,214.1139 648.5906,214.2826 Q648.2438,214.4514 647.9719,214.8264 Q647.7,215.2014 647.7,215.717 L647.7,216.2701 Q647.7,216.8889 648.2063,217.3014 Q648.7125,217.7139 649.6125,217.7139 Q650.1469,217.7139 650.5219,217.592 Q650.7375,217.5264 650.9812,217.3107 Q651.1406,217.1889 651.225,217.1514 Q651.3094,217.1139 651.4125,217.1139 Q651.6094,217.1139 651.75,217.2732 Q651.9,217.4232 651.9,217.6389 Q651.9,217.8451 651.6938,218.0889 Q651.3938,218.4451 650.9156,218.642 Q650.2875,218.9139 649.5188,218.9139 Q648.6188,218.9139 647.8969,218.5576 Q647.3156,218.2764 646.9031,217.667 Q646.5,217.0576 646.5,216.3357 L646.5,215.6795 Q646.5,214.9295 646.8562,214.2732 Q647.2219,213.617 647.85,213.2701 Q648.4875,212.9139 649.2,212.9139 Q649.6313,212.9139 650.0063,213.0639 Q650.3813,213.2139 650.7,213.5139 Z " fill="#000000"/><text fill="#000000" font-family="sans-serif" font-size="7.2" lengthAdjust="spacing" textLength="25.8" x="658.5" y="218.56">Sample</text><line style="stroke:#A80036;stroke-width:0.8999999999999999;" x1="638.4" x2="688.2" y1="225.2139" y2="225.2139"/><text fill="#000000" font-family="sans-serif" font-size="6.6" lengthAdjust="spacing" textLength="43.8" x="641.4" y="234.4652">-collection date</text><line style="stroke:#A80036;stroke-width:0.8999999999999999;" x1="638.4" x2="688.2" y1="238.3154" y2="238.3154"/><!--MD5=[3a31710ff0fe32e4db47bca97b229f4c]
class Medical_Lab_Technician--><rect codeLine="13" fill="#FEFECE" filter="url(#f1c25xhgrlbd3b)" height="28.8" id="Medical_Lab_Technician" style="stroke:#A80036;stroke-width:0.8999999999999999;" width="101.4" x="431.4" y="69.8139"/><ellipse cx="440.4" cy="79.4139" fill="#ADD1B2" rx="6.6" ry="6.6" style="stroke:#A80036;stroke-width:0.6;"/><path d="M441.6,77.3139 Q441.7219,77.0139 441.8625,76.8639 Q442.0031,76.7139 442.1625,76.7139 Q442.4437,76.7139 442.6219,76.8826 Q442.8,77.0514 442.8,77.4451 L442.8,78.3826 Q442.8,78.7764 442.6312,78.9451 Q442.4625,79.1139 442.2,79.1139 Q441.9656,79.1139 441.8156,79.0107 Q441.6656,78.9076 441.6,78.6357 Q441.5719,78.4482 441.4688,78.3451 Q441.2813,78.1482 440.9437,78.0357 Q440.6063,77.9139 440.2688,77.9139 Q439.8469,77.9139 439.4906,78.0826 Q439.1438,78.2514 438.8719,78.6264 Q438.6,79.0014 438.6,79.517 L438.6,80.0701 Q438.6,80.6889 439.1063,81.1014 Q439.6125,81.5139 440.5125,81.5139 Q441.0469,81.5139 441.4219,81.392 Q441.6375,81.3264 441.8812,81.1107 Q442.0406,80.9889 442.125,80.9514 Q442.2094,80.9139 442.3125,80.9139 Q442.5094,80.9139 442.65,81.0732 Q442.8,81.2232 442.8,81.4389 Q442.8,81.6451 442.5938,81.8889 Q442.2938,82.2451 441.8156,82.442 Q441.1875,82.7139 440.4188,82.7139 Q439.5188,82.7139 438.7969,82.3576 Q438.2156,82.0764 437.8031,81.467 Q437.4,80.8576 437.4,80.1357 L437.4,79.4795 Q437.4,78.7295 437.7562,78.0732 Q438.1219,77.417 438.75,77.0701 Q439.3875,76.7139 440.1,76.7139 Q440.5313,76.7139 440.9063,76.8639 Q441.2813,77.0139 441.6,77.3139 Z " fill="#000000"/><text fill="#000000" font-family="sans-serif" font-size="7.2" lengthAdjust="spacing" textLength="82.2" x="448.8" y="82.36">Medical_Lab_Technician</text><line style="stroke:#A80036;stroke-width:0.8999999999999999;" x1="432" x2="532.2" y1="89.0139" y2="89.0139"/><line style="stroke:#A80036;stroke-width:0.8999999999999999;" x1="432" x2="532.2" y1="93.8139" y2="93.8139"/><!--MD5=[5a42d898e2a5d299cc26761d1eaa7d84]
class Doctor--><rect codeLine="14" fill="#FEFECE" filter="url(#f1c25xhgrlbd3b)" height="28.8" id="Doctor" style="stroke:#A80036;stroke-width:0.8999999999999999;" width="40.8" x="1257" y="382.4139"/><ellipse cx="1266" cy="392.0139" fill="#ADD1B2" rx="6.6" ry="6.6" style="stroke:#A80036;stroke-width:0.6;"/><path d="M1267.2,389.9139 Q1267.3219,389.6139 1267.4625,389.4639 Q1267.6031,389.3139 1267.7625,389.3139 Q1268.0438,389.3139 1268.2219,389.4826 Q1268.4,389.6514 1268.4,390.0451 L1268.4,390.9826 Q1268.4,391.3764 1268.2313,391.5451 Q1268.0625,391.7139 1267.8,391.7139 Q1267.5656,391.7139 1267.4156,391.6107 Q1267.2656,391.5076 1267.2,391.2357 Q1267.1719,391.0482 1267.0688,390.9451 Q1266.8813,390.7482 1266.5438,390.6357 Q1266.2063,390.5139 1265.8687,390.5139 Q1265.4469,390.5139 1265.0906,390.6826 Q1264.7437,390.8514 1264.4719,391.2264 Q1264.2,391.6014 1264.2,392.117 L1264.2,392.6701 Q1264.2,393.2889 1264.7063,393.7014 Q1265.2125,394.1139 1266.1125,394.1139 Q1266.6469,394.1139 1267.0219,393.992 Q1267.2375,393.9264 1267.4813,393.7107 Q1267.6406,393.5889 1267.725,393.5514 Q1267.8094,393.5139 1267.9125,393.5139 Q1268.1094,393.5139 1268.25,393.6732 Q1268.4,393.8232 1268.4,394.0389 Q1268.4,394.2451 1268.1938,394.4889 Q1267.8938,394.8451 1267.4156,395.042 Q1266.7875,395.3139 1266.0188,395.3139 Q1265.1187,395.3139 1264.3969,394.9576 Q1263.8156,394.6764 1263.4031,394.067 Q1263,393.4576 1263,392.7357 L1263,392.0795 Q1263,391.3295 1263.3563,390.6732 Q1263.7219,390.017 1264.35,389.6701 Q1264.9875,389.3139 1265.7,389.3139 Q1266.1313,389.3139 1266.5063,389.4639 Q1266.8813,389.6139 1267.2,389.9139 Z " fill="#000000"/><text fill="#000000" font-family="sans-serif" font-size="7.2" lengthAdjust="spacing" textLength="21.6" x="1274.4" y="394.96">Doctor</text><line style="stroke:#A80036;stroke-width:0.8999999999999999;" x1="1257.6" x2="1297.2" y1="401.6139" y2="401.6139"/><line style="stroke:#A80036;stroke-width:0.8999999999999999;" x1="1257.6" x2="1297.2" y1="406.4139" y2="406.4139"/><!--MD5=[f00dbe8c0302c6aec2cb26b3c659c8fc]
class Report--><rect codeLine="74" fill="#FEFECE" filter="url(#f1c25xhgrlbd3b)" height="53.7047" id="Report" style="stroke:#A80036;stroke-width:0.8999999999999999;" width="41.4" x="1587.3" y="398.6139"/><ellipse cx="1596.3" cy="408.2139" fill="#ADD1B2" rx="6.6" ry="6.6" style="stroke:#A80036;stroke-width:0.6;"/><path d="M1597.5,406.1139 Q1597.6219,405.8139 1597.7625,405.6639 Q1597.9031,405.5139 1598.0625,405.5139 Q1598.3438,405.5139 1598.5219,405.6826 Q1598.7,405.8514 1598.7,406.2451 L1598.7,407.1826 Q1598.7,407.5764 1598.5313,407.7451 Q1598.3625,407.9139 1598.1,407.9139 Q1597.8656,407.9139 1597.7156,407.8107 Q1597.5656,407.7076 1597.5,407.4357 Q1597.4719,407.2482 1597.3687,407.1451 Q1597.1812,406.9482 1596.8438,406.8357 Q1596.5063,406.7139 1596.1688,406.7139 Q1595.7469,406.7139 1595.3906,406.8826 Q1595.0438,407.0514 1594.7719,407.4264 Q1594.5,407.8014 1594.5,408.317 L1594.5,408.8701 Q1594.5,409.4889 1595.0063,409.9014 Q1595.5125,410.3139 1596.4125,410.3139 Q1596.9469,410.3139 1597.3219,410.192 Q1597.5375,410.1264 1597.7813,409.9107 Q1597.9406,409.7889 1598.025,409.7514 Q1598.1094,409.7139 1598.2125,409.7139 Q1598.4094,409.7139 1598.55,409.8732 Q1598.7,410.0232 1598.7,410.2389 Q1598.7,410.4451 1598.4937,410.6889 Q1598.1938,411.0451 1597.7156,411.242 Q1597.0875,411.5139 1596.3188,411.5139 Q1595.4188,411.5139 1594.6969,411.1576 Q1594.1156,410.8764 1593.7031,410.267 Q1593.3,409.6576 1593.3,408.9357 L1593.3,408.2795 Q1593.3,407.5295 1593.6563,406.8732 Q1594.0219,406.217 1594.65,405.8701 Q1595.2875,405.5139 1596,405.5139 Q1596.4312,405.5139 1596.8062,405.6639 Q1597.1812,405.8139 1597.5,406.1139 Z " fill="#000000"/><text fill="#000000" font-family="sans-serif" font-size="7.2" lengthAdjust="spacing" textLength="22.2" x="1604.7" y="411.16">Report</text><line style="stroke:#A80036;stroke-width:0.8999999999999999;" x1="1587.9" x2="1628.1" y1="417.8139" y2="417.8139"/><text fill="#000000" font-family="sans-serif" font-size="6.6" lengthAdjust="spacing" textLength="30" x="1590.9" y="427.0652">-diagnosis</text><text fill="#000000" font-family="sans-serif" font-size="6.6" lengthAdjust="spacing" textLength="15" x="1590.9" y="435.3668">-date</text><text fill="#000000" font-family="sans-serif" font-size="6.6" lengthAdjust="spacing" textLength="13.8" x="1590.9" y="443.6684">-time</text><line style="stroke:#A80036;stroke-width:0.8999999999999999;" x1="1587.9" x2="1628.1" y1="447.5186" y2="447.5186"/><!--MD5=[88c7cd8b94a08243205aff172d14c4f7]
class Chemical_Analyses--><rect codeLine="70" fill="#FEFECE" filter="url(#f1c25xhgrlbd3b)" height="45.4031" id="Chemical_Analyses" style="stroke:#A80036;stroke-width:0.8999999999999999;" width="85.2" x="1565.4" y="503.0139"/><ellipse cx="1574.4" cy="512.6139" fill="#ADD1B2" rx="6.6" ry="6.6" style="stroke:#A80036;stroke-width:0.6;"/><path d="M1575.6,510.5139 Q1575.7219,510.2139 1575.8625,510.0639 Q1576.0031,509.9139 1576.1625,509.9139 Q1576.4438,509.9139 1576.6219,510.0826 Q1576.8,510.2514 1576.8,510.6451 L1576.8,511.5826 Q1576.8,511.9764 1576.6313,512.1451 Q1576.4625,512.3139 1576.2,512.3139 Q1575.9656,512.3139 1575.8156,512.2107 Q1575.6656,512.1076 1575.6,511.8357 Q1575.5719,511.6482 1575.4688,511.5451 Q1575.2813,511.3482 1574.9438,511.2357 Q1574.6063,511.1139 1574.2688,511.1139 Q1573.8469,511.1139 1573.4906,511.2826 Q1573.1438,511.4514 1572.8719,511.8264 Q1572.6,512.2014 1572.6,512.717 L1572.6,513.2701 Q1572.6,513.8889 1573.1063,514.3014 Q1573.6125,514.7139 1574.5125,514.7139 Q1575.0469,514.7139 1575.4219,514.592 Q1575.6375,514.5264 1575.8813,514.3107 Q1576.0406,514.1889 1576.125,514.1514 Q1576.2094,514.1139 1576.3125,514.1139 Q1576.5094,514.1139 1576.65,514.2732 Q1576.8,514.4232 1576.8,514.6389 Q1576.8,514.8451 1576.5938,515.0889 Q1576.2938,515.4451 1575.8156,515.642 Q1575.1875,515.9139 1574.4188,515.9139 Q1573.5188,515.9139 1572.7969,515.5576 Q1572.2156,515.2764 1571.8031,514.667 Q1571.4,514.0576 1571.4,513.3357 L1571.4,512.6795 Q1571.4,511.9295 1571.7563,511.2732 Q1572.1219,510.617 1572.75,510.2701 Q1573.3875,509.9139 1574.1,509.9139 Q1574.5313,509.9139 1574.9063,510.0639 Q1575.2813,510.2139 1575.6,510.5139 Z " fill="#000000"/><text fill="#000000" font-family="sans-serif" font-size="7.2" lengthAdjust="spacing" textLength="66" x="1582.8" y="515.56">Chemical_Analyses</text><line style="stroke:#A80036;stroke-width:0.8999999999999999;" x1="1566" x2="1650" y1="522.2139" y2="522.2139"/><text fill="#000000" font-family="sans-serif" font-size="6.6" lengthAdjust="spacing" textLength="15" x="1569" y="531.4652">-date</text><text fill="#000000" font-family="sans-serif" font-size="6.6" lengthAdjust="spacing" textLength="13.8" x="1569" y="539.7668">-time</text><line style="stroke:#A80036;stroke-width:0.8999999999999999;" x1="1566" x2="1650" y1="543.617" y2="543.617"/><!--MD5=[34c242df592fe6116019f1c4c26784f4]
class Chemical_Laboratory--><rect codeLine="17" fill="#FEFECE" filter="url(#f1c25xhgrlbd3b)" height="28.8" id="Chemical_Laboratory" style="stroke:#A80036;stroke-width:0.8999999999999999;" width="90" x="1232.4" y="286.4139"/><ellipse cx="1241.4" cy="296.0139" fill="#ADD1B2" rx="6.6" ry="6.6" style="stroke:#A80036;stroke-width:0.6;"/><path d="M1242.6,293.9139 Q1242.7219,293.6139 1242.8625,293.4639 Q1243.0031,293.3139 1243.1625,293.3139 Q1243.4438,293.3139 1243.6219,293.4826 Q1243.8,293.6514 1243.8,294.0451 L1243.8,294.9826 Q1243.8,295.3764 1243.6313,295.5451 Q1243.4625,295.7139 1243.2,295.7139 Q1242.9656,295.7139 1242.8156,295.6107 Q1242.6656,295.5076 1242.6,295.2357 Q1242.5719,295.0482 1242.4688,294.9451 Q1242.2813,294.7482 1241.9438,294.6357 Q1241.6063,294.5139 1241.2688,294.5139 Q1240.8469,294.5139 1240.4906,294.6826 Q1240.1438,294.8514 1239.8719,295.2264 Q1239.6,295.6014 1239.6,296.117 L1239.6,296.6701 Q1239.6,297.2889 1240.1063,297.7014 Q1240.6125,298.1139 1241.5125,298.1139 Q1242.0469,298.1139 1242.4219,297.992 Q1242.6375,297.9264 1242.8813,297.7107 Q1243.0406,297.5889 1243.125,297.5514 Q1243.2094,297.5139 1243.3125,297.5139 Q1243.5094,297.5139 1243.65,297.6732 Q1243.8,297.8232 1243.8,298.0389 Q1243.8,298.2451 1243.5938,298.4889 Q1243.2938,298.8451 1242.8156,299.042 Q1242.1875,299.3139 1241.4188,299.3139 Q1240.5188,299.3139 1239.7969,298.9576 Q1239.2156,298.6764 1238.8031,298.067 Q1238.4,297.4576 1238.4,296.7357 L1238.4,296.0795 Q1238.4,295.3295 1238.7563,294.6732 Q1239.1219,294.017 1239.75,293.6701 Q1240.3875,293.3139 1241.1,293.3139 Q1241.5313,293.3139 1241.9063,293.4639 Q1242.2813,293.6139 1242.6,293.9139 Z " fill="#000000"/><text fill="#000000" font-family="sans-serif" font-size="7.2" lengthAdjust="spacing" textLength="70.8" x="1249.8" y="298.96">Chemical_Laboratory</text><line style="stroke:#A80036;stroke-width:0.8999999999999999;" x1="1233" x2="1321.8" y1="305.6139" y2="305.6139"/><line style="stroke:#A80036;stroke-width:0.8999999999999999;" x1="1233" x2="1321.8" y1="310.4139" y2="310.4139"/><!--MD5=[b61e69a70bb7e771c8a5603a4a917a69]
class Clinical_Chemistry_Technologist--><rect codeLine="18" fill="#FEFECE" filter="url(#f1c25xhgrlbd3b)" height="28.8" id="Clinical_Chemistry_Technologist" style="stroke:#A80036;stroke-width:0.8999999999999999;" width="128.4" x="1034.4" y="314.0139"/><ellipse cx="1043.4" cy="323.6139" fill="#ADD1B2" rx="6.6" ry="6.6" style="stroke:#A80036;stroke-width:0.6;"/><path d="M1044.6,321.5139 Q1044.7219,321.2139 1044.8625,321.0639 Q1045.0031,320.9139 1045.1625,320.9139 Q1045.4438,320.9139 1045.6219,321.0826 Q1045.8,321.2514 1045.8,321.6451 L1045.8,322.5826 Q1045.8,322.9764 1045.6313,323.1451 Q1045.4625,323.3139 1045.2,323.3139 Q1044.9656,323.3139 1044.8156,323.2107 Q1044.6656,323.1076 1044.6,322.8357 Q1044.5719,322.6482 1044.4688,322.5451 Q1044.2813,322.3482 1043.9438,322.2357 Q1043.6063,322.1139 1043.2688,322.1139 Q1042.8469,322.1139 1042.4906,322.2826 Q1042.1438,322.4514 1041.8719,322.8264 Q1041.6,323.2014 1041.6,323.717 L1041.6,324.2701 Q1041.6,324.8889 1042.1063,325.3014 Q1042.6125,325.7139 1043.5125,325.7139 Q1044.0469,325.7139 1044.4219,325.592 Q1044.6375,325.5264 1044.8813,325.3107 Q1045.0406,325.1889 1045.125,325.1514 Q1045.2094,325.1139 1045.3125,325.1139 Q1045.5094,325.1139 1045.65,325.2732 Q1045.8,325.4232 1045.8,325.6389 Q1045.8,325.8451 1045.5938,326.0889 Q1045.2938,326.4451 1044.8156,326.642 Q1044.1875,326.9139 1043.4188,326.9139 Q1042.5188,326.9139 1041.7969,326.5576 Q1041.2156,326.2764 1040.8031,325.667 Q1040.4,325.0576 1040.4,324.3357 L1040.4,323.6795 Q1040.4,322.9295 1040.7563,322.2732 Q1041.1219,321.617 1041.75,321.2701 Q1042.3875,320.9139 1043.1,320.9139 Q1043.5313,320.9139 1043.9063,321.0639 Q1044.2813,321.2139 1044.6,321.5139 Z " fill="#000000"/><text fill="#000000" font-family="sans-serif" font-size="7.2" lengthAdjust="spacing" textLength="109.2" x="1051.8" y="326.56">Clinical_Chemistry_Technologist</text><line style="stroke:#A80036;stroke-width:0.8999999999999999;" x1="1035" x2="1162.2" y1="333.2139" y2="333.2139"/><line style="stroke:#A80036;stroke-width:0.8999999999999999;" x1="1035" x2="1162.2" y1="338.0139" y2="338.0139"/><!--MD5=[a999c1570c205a2156b04a15307bc1ff]
class LabOrder--><rect codeLine="19" fill="#FEFECE" filter="url(#f1c25xhgrlbd3b)" height="28.8" id="LabOrder" style="stroke:#A80036;stroke-width:0.8999999999999999;" width="50.4" x="312" y="149.6139"/><ellipse cx="321" cy="159.2139" fill="#ADD1B2" rx="6.6" ry="6.6" style="stroke:#A80036;stroke-width:0.6;"/><path d="M322.2,157.1139 Q322.3219,156.8139 322.4625,156.6639 Q322.6031,156.5139 322.7625,156.5139 Q323.0438,156.5139 323.2219,156.6826 Q323.4,156.8514 323.4,157.2451 L323.4,158.1826 Q323.4,158.5764 323.2313,158.7451 Q323.0625,158.9139 322.8,158.9139 Q322.5656,158.9139 322.4156,158.8107 Q322.2656,158.7076 322.2,158.4357 Q322.1719,158.2482 322.0687,158.1451 Q321.8812,157.9482 321.5438,157.8357 Q321.2063,157.7139 320.8688,157.7139 Q320.4469,157.7139 320.0906,157.8826 Q319.7438,158.0514 319.4719,158.4264 Q319.2,158.8014 319.2,159.317 L319.2,159.8701 Q319.2,160.4889 319.7063,160.9014 Q320.2125,161.3139 321.1125,161.3139 Q321.6469,161.3139 322.0219,161.192 Q322.2375,161.1264 322.4813,160.9107 Q322.6406,160.7889 322.725,160.7514 Q322.8094,160.7139 322.9125,160.7139 Q323.1094,160.7139 323.25,160.8732 Q323.4,161.0232 323.4,161.2389 Q323.4,161.4451 323.1937,161.6889 Q322.8938,162.0451 322.4156,162.242 Q321.7875,162.5139 321.0188,162.5139 Q320.1188,162.5139 319.3969,162.1576 Q318.8156,161.8764 318.4031,161.267 Q318,160.6576 318,159.9357 L318,159.2795 Q318,158.5295 318.3563,157.8732 Q318.7219,157.217 319.35,156.8701 Q319.9875,156.5139 320.7,156.5139 Q321.1312,156.5139 321.5062,156.6639 Q321.8812,156.8139 322.2,157.1139 Z " fill="#000000"/><text fill="#000000" font-family="sans-serif" font-size="7.2" lengthAdjust="spacing" textLength="31.2" x="329.4" y="162.16">LabOrder</text><line style="stroke:#A80036;stroke-width:0.8999999999999999;" x1="312.6" x2="361.8" y1="168.8139" y2="168.8139"/><line style="stroke:#A80036;stroke-width:0.8999999999999999;" x1="312.6" x2="361.8" y1="173.6139" y2="173.6139"/><!--MD5=[ed6624c6556d5e7b1bd23032162d20b7]
class Client--><rect codeLine="59" fill="#FEFECE" filter="url(#f1c25xhgrlbd3b)" height="95.2125" id="Client" style="stroke:#A80036;stroke-width:0.8999999999999999;" width="68.4" x="179.4" y="116.3139"/><ellipse cx="201.9" cy="125.9139" fill="#ADD1B2" rx="6.6" ry="6.6" style="stroke:#A80036;stroke-width:0.6;"/><path d="M203.1,123.8139 Q203.2219,123.5139 203.3625,123.3639 Q203.5031,123.2139 203.6625,123.2139 Q203.9438,123.2139 204.1219,123.3826 Q204.3,123.5514 204.3,123.9451 L204.3,124.8826 Q204.3,125.2764 204.1313,125.4451 Q203.9625,125.6139 203.7,125.6139 Q203.4656,125.6139 203.3156,125.5107 Q203.1656,125.4076 203.1,125.1357 Q203.0719,124.9482 202.9688,124.8451 Q202.7813,124.6482 202.4438,124.5357 Q202.1063,124.4139 201.7687,124.4139 Q201.3469,124.4139 200.9906,124.5826 Q200.6437,124.7514 200.3719,125.1264 Q200.1,125.5014 200.1,126.017 L200.1,126.5701 Q200.1,127.1889 200.6063,127.6014 Q201.1125,128.0139 202.0125,128.0139 Q202.5469,128.0139 202.9219,127.892 Q203.1375,127.8264 203.3813,127.6107 Q203.5406,127.4889 203.625,127.4514 Q203.7094,127.4139 203.8125,127.4139 Q204.0094,127.4139 204.15,127.5732 Q204.3,127.7232 204.3,127.9389 Q204.3,128.1451 204.0938,128.3889 Q203.7938,128.7451 203.3156,128.942 Q202.6875,129.2139 201.9188,129.2139 Q201.0187,129.2139 200.2969,128.8576 Q199.7156,128.5764 199.3031,127.967 Q198.9,127.3576 198.9,126.6357 L198.9,125.9795 Q198.9,125.2295 199.2563,124.5732 Q199.6219,123.917 200.25,123.5701 Q200.8875,123.2139 201.6,123.2139 Q202.0313,123.2139 202.4063,123.3639 Q202.7813,123.5139 203.1,123.8139 Z " fill="#000000"/><text fill="#000000" font-family="sans-serif" font-size="7.2" lengthAdjust="spacing" textLength="19.2" x="213.3" y="128.86">Client</text><line style="stroke:#A80036;stroke-width:0.8999999999999999;" x1="180" x2="247.2" y1="135.5139" y2="135.5139"/><text fill="#000000" font-family="sans-serif" font-size="6.6" lengthAdjust="spacing" textLength="18.6" x="183" y="144.7652">-Name</text><text fill="#000000" font-family="sans-serif" font-size="6.6" lengthAdjust="spacing" textLength="16.8" x="183" y="153.0668">-Email</text><text fill="#000000" font-family="sans-serif" font-size="6.6" lengthAdjust="spacing" textLength="44.4" x="183" y="161.3684">-Phone Number</text><text fill="#000000" font-family="sans-serif" font-size="6.6" lengthAdjust="spacing" textLength="13.8" x="183" y="169.6699">-Sex</text><text fill="#000000" font-family="sans-serif" font-size="6.6" lengthAdjust="spacing" textLength="10.8" x="183" y="177.9715">-TIF</text><text fill="#000000" font-family="sans-serif" font-size="6.6" lengthAdjust="spacing" textLength="30.6" x="183" y="186.273">-Birth Date</text><text fill="#000000" font-family="sans-serif" font-size="6.6" lengthAdjust="spacing" textLength="39" x="183" y="194.5746">-NHS Number</text><text fill="#000000" font-family="sans-serif" font-size="6.6" lengthAdjust="spacing" textLength="61.2" x="183" y="202.8762">-Citizen Card Number</text><line style="stroke:#A80036;stroke-width:0.8999999999999999;" x1="180" x2="247.2" y1="206.7264" y2="206.7264"/><!--MD5=[c013d92ead36e014512d2b24f31a2748]
class Laboratory_Coordinator--><rect codeLine="21" fill="#FEFECE" filter="url(#f1c25xhgrlbd3b)" height="28.8" id="Laboratory_Coordinator" style="stroke:#A80036;stroke-width:0.8999999999999999;" width="97.2" x="1393.2" y="441.8139"/><ellipse cx="1402.2" cy="451.4139" fill="#ADD1B2" rx="6.6" ry="6.6" style="stroke:#A80036;stroke-width:0.6;"/><path d="M1403.4,449.3139 Q1403.5219,449.0139 1403.6625,448.8639 Q1403.8031,448.7139 1403.9625,448.7139 Q1404.2437,448.7139 1404.4219,448.8826 Q1404.6,449.0514 1404.6,449.4451 L1404.6,450.3826 Q1404.6,450.7764 1404.4312,450.9451 Q1404.2625,451.1139 1404,451.1139 Q1403.7656,451.1139 1403.6156,451.0107 Q1403.4656,450.9076 1403.4,450.6357 Q1403.3719,450.4482 1403.2688,450.3451 Q1403.0813,450.1482 1402.7437,450.0357 Q1402.4063,449.9139 1402.0688,449.9139 Q1401.6469,449.9139 1401.2906,450.0826 Q1400.9438,450.2514 1400.6719,450.6264 Q1400.4,451.0014 1400.4,451.517 L1400.4,452.0701 Q1400.4,452.6889 1400.9063,453.1014 Q1401.4125,453.5139 1402.3125,453.5139 Q1402.8469,453.5139 1403.2219,453.392 Q1403.4375,453.3264 1403.6812,453.1107 Q1403.8406,452.9889 1403.925,452.9514 Q1404.0094,452.9139 1404.1125,452.9139 Q1404.3094,452.9139 1404.45,453.0732 Q1404.6,453.2232 1404.6,453.4389 Q1404.6,453.6451 1404.3938,453.8889 Q1404.0938,454.2451 1403.6156,454.442 Q1402.9875,454.7139 1402.2188,454.7139 Q1401.3188,454.7139 1400.5969,454.3576 Q1400.0156,454.0764 1399.6031,453.467 Q1399.2,452.8576 1399.2,452.1357 L1399.2,451.4795 Q1399.2,450.7295 1399.5562,450.0732 Q1399.9219,449.417 1400.55,449.0701 Q1401.1875,448.7139 1401.9,448.7139 Q1402.3313,448.7139 1402.7063,448.8639 Q1403.0813,449.0139 1403.4,449.3139 Z " fill="#000000"/><text fill="#000000" font-family="sans-serif" font-size="7.2" lengthAdjust="spacing" textLength="78" x="1410.6" y="454.36">Laboratory_Coordinator</text><line style="stroke:#A80036;stroke-width:0.8999999999999999;" x1="1393.8" x2="1489.8" y1="461.0139" y2="461.0139"/><line style="stroke:#A80036;stroke-width:0.8999999999999999;" x1="1393.8" x2="1489.8" y1="465.8139" y2="465.8139"/><!--MD5=[da547346deef918ea16944ba046651ef]
class Administrator--><rect codeLine="22" fill="#FEFECE" filter="url(#f1c25xhgrlbd3b)" height="28.8" id="Administrator" style="stroke:#A80036;stroke-width:0.8999999999999999;" width="63" x="1067.1" y="105.8139"/><ellipse cx="1076.1" cy="115.4139" fill="#ADD1B2" rx="6.6" ry="6.6" style="stroke:#A80036;stroke-width:0.6;"/><path d="M1077.3,113.3139 Q1077.4219,113.0139 1077.5625,112.8639 Q1077.7031,112.7139 1077.8625,112.7139 Q1078.1438,112.7139 1078.3219,112.8826 Q1078.5,113.0514 1078.5,113.4451 L1078.5,114.3826 Q1078.5,114.7764 1078.3313,114.9451 Q1078.1625,115.1139 1077.9,115.1139 Q1077.6656,115.1139 1077.5156,115.0107 Q1077.3656,114.9076 1077.3,114.6357 Q1077.2719,114.4482 1077.1688,114.3451 Q1076.9813,114.1482 1076.6438,114.0357 Q1076.3062,113.9139 1075.9688,113.9139 Q1075.5469,113.9139 1075.1906,114.0826 Q1074.8438,114.2514 1074.5719,114.6264 Q1074.3,115.0014 1074.3,115.517 L1074.3,116.0701 Q1074.3,116.6889 1074.8062,117.1014 Q1075.3125,117.5139 1076.2125,117.5139 Q1076.7469,117.5139 1077.1219,117.392 Q1077.3375,117.3264 1077.5813,117.1107 Q1077.7406,116.9889 1077.825,116.9514 Q1077.9094,116.9139 1078.0125,116.9139 Q1078.2094,116.9139 1078.35,117.0732 Q1078.5,117.2232 1078.5,117.4389 Q1078.5,117.6451 1078.2938,117.8889 Q1077.9937,118.2451 1077.5156,118.442 Q1076.8875,118.7139 1076.1187,118.7139 Q1075.2188,118.7139 1074.4969,118.3576 Q1073.9156,118.0764 1073.5031,117.467 Q1073.1,116.8576 1073.1,116.1357 L1073.1,115.4795 Q1073.1,114.7295 1073.4563,114.0732 Q1073.8219,113.417 1074.45,113.0701 Q1075.0875,112.7139 1075.8,112.7139 Q1076.2313,112.7139 1076.6063,112.8639 Q1076.9813,113.0139 1077.3,113.3139 Z " fill="#000000"/><text fill="#000000" font-family="sans-serif" font-size="7.2" lengthAdjust="spacing" textLength="43.8" x="1084.5" y="118.36">Administrator</text><line style="stroke:#A80036;stroke-width:0.8999999999999999;" x1="1067.7" x2="1129.5" y1="125.0139" y2="125.0139"/><line style="stroke:#A80036;stroke-width:0.8999999999999999;" x1="1067.7" x2="1129.5" y1="129.8139" y2="129.8139"/><!--MD5=[0caf3a413731a0de34fc6162fe213ed9]
class Laboratory--><rect codeLine="35" fill="#FEFECE" filter="url(#f1c25xhgrlbd3b)" height="28.8" id="Laboratory" style="stroke:#A80036;stroke-width:0.8999999999999999;" width="54" x="1414.8" y="230.0139"/><ellipse cx="1423.8" cy="239.6139" fill="#ADD1B2" rx="6.6" ry="6.6" style="stroke:#A80036;stroke-width:0.6;"/><path d="M1425,237.5139 Q1425.1219,237.2139 1425.2625,237.0639 Q1425.4031,236.9139 1425.5625,236.9139 Q1425.8438,236.9139 1426.0219,237.0826 Q1426.2,237.2514 1426.2,237.6451 L1426.2,238.5826 Q1426.2,238.9764 1426.0313,239.1451 Q1425.8625,239.3139 1425.6,239.3139 Q1425.3656,239.3139 1425.2156,239.2107 Q1425.0656,239.1076 1425,238.8357 Q1424.9719,238.6482 1424.8687,238.5451 Q1424.6812,238.3482 1424.3438,238.2357 Q1424.0063,238.1139 1423.6688,238.1139 Q1423.2469,238.1139 1422.8906,238.2826 Q1422.5438,238.4514 1422.2719,238.8264 Q1422,239.2014 1422,239.717 L1422,240.2701 Q1422,240.8889 1422.5063,241.3014 Q1423.0125,241.7139 1423.9125,241.7139 Q1424.4469,241.7139 1424.8219,241.592 Q1425.0375,241.5264 1425.2813,241.3107 Q1425.4406,241.1889 1425.525,241.1514 Q1425.6094,241.1139 1425.7125,241.1139 Q1425.9094,241.1139 1426.05,241.2732 Q1426.2,241.4232 1426.2,241.6389 Q1426.2,241.8451 1425.9937,242.0889 Q1425.6938,242.4451 1425.2156,242.642 Q1424.5875,242.9139 1423.8188,242.9139 Q1422.9188,242.9139 1422.1969,242.5576 Q1421.6156,242.2764 1421.2031,241.667 Q1420.8,241.0576 1420.8,240.3357 L1420.8,239.6795 Q1420.8,238.9295 1421.1563,238.2732 Q1421.5219,237.617 1422.15,237.2701 Q1422.7875,236.9139 1423.5,236.9139 Q1423.9312,236.9139 1424.3062,237.0639 Q1424.6812,237.2139 1425,237.5139 Z " fill="#000000"/><text fill="#000000" font-family="sans-serif" font-size="7.2" lengthAdjust="spacing" textLength="34.8" x="1432.2" y="242.56">Laboratory</text><line style="stroke:#A80036;stroke-width:0.8999999999999999;" x1="1415.4" x2="1468.2" y1="249.2139" y2="249.2139"/><line style="stroke:#A80036;stroke-width:0.8999999999999999;" x1="1415.4" x2="1468.2" y1="254.0139" y2="254.0139"/><!--MD5=[f3f9c3092fd9d54590edb61eacad4f09]
class External_API--><rect codeLine="24" fill="#FEFECE" filter="url(#f1c25xhgrlbd3b)" height="28.8" id="External_API" style="stroke:#A80036;stroke-width:0.8999999999999999;" width="60.6" x="907.2" y="212.0139"/><ellipse cx="916.2" cy="221.6139" fill="#ADD1B2" rx="6.6" ry="6.6" style="stroke:#A80036;stroke-width:0.6;"/><path d="M917.4,219.5139 Q917.5219,219.2139 917.6625,219.0639 Q917.8031,218.9139 917.9625,218.9139 Q918.2438,218.9139 918.4219,219.0826 Q918.6,219.2514 918.6,219.6451 L918.6,220.5826 Q918.6,220.9764 918.4313,221.1451 Q918.2625,221.3139 918,221.3139 Q917.7656,221.3139 917.6156,221.2107 Q917.4656,221.1076 917.4,220.8357 Q917.3719,220.6482 917.2688,220.5451 Q917.0813,220.3482 916.7438,220.2357 Q916.4063,220.1139 916.0688,220.1139 Q915.6469,220.1139 915.2906,220.2826 Q914.9438,220.4514 914.6719,220.8264 Q914.4,221.2014 914.4,221.717 L914.4,222.2701 Q914.4,222.8889 914.9063,223.3014 Q915.4125,223.7139 916.3125,223.7139 Q916.8469,223.7139 917.2219,223.592 Q917.4375,223.5264 917.6813,223.3107 Q917.8406,223.1889 917.925,223.1514 Q918.0094,223.1139 918.1125,223.1139 Q918.3094,223.1139 918.45,223.2732 Q918.6,223.4232 918.6,223.6389 Q918.6,223.8451 918.3938,224.0889 Q918.0938,224.4451 917.6156,224.642 Q916.9875,224.9139 916.2188,224.9139 Q915.3188,224.9139 914.5969,224.5576 Q914.0156,224.2764 913.6031,223.667 Q913.2,223.0576 913.2,222.3357 L913.2,221.6795 Q913.2,220.9295 913.5563,220.2732 Q913.9219,219.617 914.55,219.2701 Q915.1875,218.9139 915.9,218.9139 Q916.3313,218.9139 916.7063,219.0639 Q917.0813,219.2139 917.4,219.5139 Z " fill="#000000"/><text fill="#000000" font-family="sans-serif" font-size="7.2" lengthAdjust="spacing" textLength="41.4" x="924.6" y="224.56">External_API</text><line style="stroke:#A80036;stroke-width:0.8999999999999999;" x1="907.8" x2="967.2" y1="231.2139" y2="231.2139"/><line style="stroke:#A80036;stroke-width:0.8999999999999999;" x1="907.8" x2="967.2" y1="236.0139" y2="236.0139"/><!--MD5=[9b099ed1995c6e2a39c231c3e7860d27]
class Reference_Values--><rect codeLine="25" fill="#FEFECE" filter="url(#f1c25xhgrlbd3b)" height="28.8" id="Reference_Values" style="stroke:#A80036;stroke-width:0.8999999999999999;" width="80.4" x="1746" y="511.4139"/><ellipse cx="1755" cy="521.0139" fill="#ADD1B2" rx="6.6" ry="6.6" style="stroke:#A80036;stroke-width:0.6;"/><path d="M1756.2,518.9139 Q1756.3219,518.6139 1756.4625,518.4639 Q1756.6031,518.3139 1756.7625,518.3139 Q1757.0438,518.3139 1757.2219,518.4826 Q1757.4,518.6514 1757.4,519.0451 L1757.4,519.9826 Q1757.4,520.3764 1757.2313,520.5451 Q1757.0625,520.7139 1756.8,520.7139 Q1756.5656,520.7139 1756.4156,520.6107 Q1756.2656,520.5076 1756.2,520.2357 Q1756.1719,520.0482 1756.0688,519.9451 Q1755.8813,519.7482 1755.5438,519.6357 Q1755.2063,519.5139 1754.8687,519.5139 Q1754.4469,519.5139 1754.0906,519.6826 Q1753.7437,519.8514 1753.4719,520.2264 Q1753.2,520.6014 1753.2,521.117 L1753.2,521.6701 Q1753.2,522.2889 1753.7063,522.7014 Q1754.2125,523.1139 1755.1125,523.1139 Q1755.6469,523.1139 1756.0219,522.992 Q1756.2375,522.9264 1756.4813,522.7107 Q1756.6406,522.5889 1756.725,522.5514 Q1756.8094,522.5139 1756.9125,522.5139 Q1757.1094,522.5139 1757.25,522.6732 Q1757.4,522.8232 1757.4,523.0389 Q1757.4,523.2451 1757.1938,523.4889 Q1756.8938,523.8451 1756.4156,524.042 Q1755.7875,524.3139 1755.0188,524.3139 Q1754.1187,524.3139 1753.3969,523.9576 Q1752.8156,523.6764 1752.4031,523.067 Q1752,522.4576 1752,521.7357 L1752,521.0795 Q1752,520.3295 1752.3563,519.6732 Q1752.7219,519.017 1753.35,518.6701 Q1753.9875,518.3139 1754.7,518.3139 Q1755.1313,518.3139 1755.5063,518.4639 Q1755.8813,518.6139 1756.2,518.9139 Z " fill="#000000"/><text fill="#000000" font-family="sans-serif" font-size="7.2" lengthAdjust="spacing" textLength="61.2" x="1763.4" y="523.96">Reference_Values</text><line style="stroke:#A80036;stroke-width:0.8999999999999999;" x1="1746.6" x2="1825.8" y1="530.6139" y2="530.6139"/><line style="stroke:#A80036;stroke-width:0.8999999999999999;" x1="1746.6" x2="1825.8" y1="535.4139" y2="535.4139"/><!--MD5=[e59bda2572a266093cda22ac34510ea0]
class Barcode--><rect codeLine="37" fill="#FEFECE" filter="url(#f1c25xhgrlbd3b)" height="37.1016" id="Barcode" style="stroke:#A80036;stroke-width:0.8999999999999999;" width="46.8" x="764.7" y="207.2139"/><ellipse cx="773.7" cy="216.8139" fill="#ADD1B2" rx="6.6" ry="6.6" style="stroke:#A80036;stroke-width:0.6;"/><path d="M774.9,214.7139 Q775.0219,214.4139 775.1625,214.2639 Q775.3031,214.1139 775.4625,214.1139 Q775.7438,214.1139 775.9219,214.2826 Q776.1,214.4514 776.1,214.8451 L776.1,215.7826 Q776.1,216.1764 775.9313,216.3451 Q775.7625,216.5139 775.5,216.5139 Q775.2656,216.5139 775.1156,216.4107 Q774.9656,216.3076 774.9,216.0357 Q774.8719,215.8482 774.7688,215.7451 Q774.5813,215.5482 774.2438,215.4357 Q773.9063,215.3139 773.5688,215.3139 Q773.1469,215.3139 772.7906,215.4826 Q772.4438,215.6514 772.1719,216.0264 Q771.9,216.4014 771.9,216.917 L771.9,217.4701 Q771.9,218.0889 772.4063,218.5014 Q772.9125,218.9139 773.8125,218.9139 Q774.3469,218.9139 774.7219,218.792 Q774.9375,218.7264 775.1813,218.5107 Q775.3406,218.3889 775.425,218.3514 Q775.5094,218.3139 775.6125,218.3139 Q775.8094,218.3139 775.95,218.4732 Q776.1,218.6232 776.1,218.8389 Q776.1,219.0451 775.8938,219.2889 Q775.5938,219.6451 775.1156,219.842 Q774.4875,220.1139 773.7188,220.1139 Q772.8188,220.1139 772.0969,219.7576 Q771.5156,219.4764 771.1031,218.867 Q770.7,218.2576 770.7,217.5357 L770.7,216.8795 Q770.7,216.1295 771.0563,215.4732 Q771.4219,214.817 772.05,214.4701 Q772.6875,214.1139 773.4,214.1139 Q773.8313,214.1139 774.2063,214.2639 Q774.5813,214.4139 774.9,214.7139 Z " fill="#000000"/><text fill="#000000" font-family="sans-serif" font-size="7.2" lengthAdjust="spacing" textLength="27.6" x="782.1" y="219.76">Barcode</text><line style="stroke:#A80036;stroke-width:0.8999999999999999;" x1="765.3" x2="810.9" y1="226.4139" y2="226.4139"/><text fill="#000000" font-family="sans-serif" font-size="6.6" lengthAdjust="spacing" textLength="16.8" x="768.3" y="235.6652">-code</text><line style="stroke:#A80036;stroke-width:0.8999999999999999;" x1="765.3" x2="810.9" y1="239.5154" y2="239.5154"/><!--MD5=[09366576ee87d48d594df10cacc83f45]
link Company to Employee--><path codeLine="80" d="M1303.026,177.2139 C1364.058,177.2139 1520.04,177.2139 1581.732,177.2139 " fill="none" id="Company-Employee" style="stroke:#A80036;stroke-width:0.6;"/><polygon fill="#000000" points="1432.2,171.9193,1426.7729,170.156,1426.7729,173.6827,1432.2,171.9193" style="stroke:#000000;stroke-width:0.6;"/><text fill="#000000" font-family="sans-serif" font-size="7.8" lengthAdjust="spacing" textLength="22.2" x="1434.6" y="175.1109">knows</text><text fill="#000000" font-family="sans-serif" font-size="7.8" lengthAdjust="spacing" textLength="4.2" x="1307.6181" y="186.1145">1</text><text fill="#000000" font-family="sans-serif" font-size="7.8" lengthAdjust="spacing" textLength="3" x="1574.1329" y="186.1234">*</text><!--MD5=[b921f878c1b19577ef94d929b3e93a58]
link Company to Laboratory--><path codeLine="81" d="M1303.014,187.8999 C1314.402,192.7419 1328.064,198.5079 1340.4,203.6139 C1365.522,214.0119 1394.274,225.6219 1414.626,233.7879 " fill="none" id="Company-Laboratory" style="stroke:#A80036;stroke-width:0.6;"/><polygon fill="#000000" points="1350.0746,199.4601,1345.7258,195.7655,1344.3847,199.0273,1350.0746,199.4601" style="stroke:#000000;stroke-width:0.6;"/><text fill="#000000" font-family="sans-serif" font-size="7.8" lengthAdjust="spacing" textLength="18" x="1352.7" y="201.5109">owns</text><text fill="#000000" font-family="sans-serif" font-size="7.8" lengthAdjust="spacing" textLength="4.2" x="1307.7773" y="198.6675">1</text><text fill="#000000" font-family="sans-serif" font-size="7.8" lengthAdjust="spacing" textLength="3" x="1407.0561" y="240.9732">*</text><!--MD5=[aa1255e4af638346fc98de7bb86040cd]
link Clinical_Analysis_Laboratory to Laboratory--><path codeLine="82" d="M1156.056,244.4139 C1230.894,244.4139 1359.408,244.4139 1414.668,244.4139 " fill="none" id="Clinical_Analysis_Laboratory-Laboratory" style="stroke:#A80036;stroke-width:0.6;"/><polygon fill="#000000" points="1272.6,239.1193,1267.1729,237.356,1267.1729,240.8827,1272.6,239.1193" style="stroke:#000000;stroke-width:0.6;"/><text fill="#000000" font-family="sans-serif" font-size="7.8" lengthAdjust="spacing" textLength="12.6" x="1275" y="242.3109">is a</text><text fill="#000000" font-family="sans-serif" font-size="7.8" lengthAdjust="spacing" textLength="3" x="1160.7541" y="252.9018">*</text><text fill="#000000" font-family="sans-serif" font-size="7.8" lengthAdjust="spacing" textLength="4.2" x="1405.8092" y="253.2927">1</text><!--MD5=[0a4b97457b3bd0876e0d27cd497e183e]
link Chemical_Laboratory to Laboratory--><path codeLine="83" d="M1322.526,287.9019 C1339.152,282.8619 1358.136,276.8499 1375.2,270.8139 C1388.346,266.1639 1402.746,260.4759 1414.734,255.5739 " fill="none" id="Chemical_Laboratory-Laboratory" style="stroke:#A80036;stroke-width:0.6;"/><polygon fill="#000000" points="1352.831,264.5268,1347.1262,264.6583,1348.293,267.9864,1352.831,264.5268" style="stroke:#000000;stroke-width:0.6;"/><text fill="#000000" font-family="sans-serif" font-size="7.8" lengthAdjust="spacing" textLength="12.6" x="1355.4" y="268.7109">is a</text><text fill="#000000" font-family="sans-serif" font-size="7.8" lengthAdjust="spacing" textLength="4.2" x="1327.1748" y="295.2108">1</text><text fill="#000000" font-family="sans-serif" font-size="7.8" lengthAdjust="spacing" textLength="4.2" x="1405.8857" y="266.2314">1</text><!--MD5=[06bb7d2a85a007b79d10922b2d5e4cdd]
link Receptionist to Employee--><path codeLine="84" d="M46.398,59.4819 C61.458,41.8959 89.916,14.6139 121.5,14.6139 C121.5,14.6139 121.5,14.6139 1442.4,14.6139 C1526.454,14.6139 1583.238,122.9919 1601.256,162.7839 " fill="none" id="Receptionist-Employee" style="stroke:#A80036;stroke-width:0.6;"/><polygon fill="#000000" points="658.4934,9.5182,653.1952,7.399,652.9614,10.9179,658.4934,9.5182" style="stroke:#000000;stroke-width:0.6;"/><text fill="#000000" font-family="sans-serif" font-size="7.8" lengthAdjust="spacing" textLength="12.6" x="660.9" y="12.5109">is a</text><text fill="#000000" font-family="sans-serif" font-size="7.8" lengthAdjust="spacing" textLength="4.2" x="44.7087" y="53.0521">1</text><text fill="#000000" font-family="sans-serif" font-size="7.8" lengthAdjust="spacing" textLength="4.2" x="1594.7897" y="156.3803">1</text><!--MD5=[2d4c399f92ddbcdc8c2269cd010b9280]
link Laboratory_Coordinator to Employee--><path codeLine="85" d="M1468.254,441.7899 C1492.374,426.9879 1527.54,401.7219 1547.4,370.4139 C1585.302,310.6479 1600.71,225.2739 1605.552,191.6259 " fill="none" id="Laboratory_Coordinator-Employee" style="stroke:#A80036;stroke-width:0.6;"/><polygon fill="#000000" points="1521.5434,362.4894,1517.3864,366.3986,1520.4781,368.0954,1521.5434,362.4894" style="stroke:#000000;stroke-width:0.6;"/><text fill="#000000" font-family="sans-serif" font-size="7.8" lengthAdjust="spacing" textLength="12.6" x="1525.5" y="368.3109">is a</text><text fill="#000000" font-family="sans-serif" font-size="7.8" lengthAdjust="spacing" textLength="4.2" x="1470.2947" y="435.3878">1</text><text fill="#000000" font-family="sans-serif" font-size="7.8" lengthAdjust="spacing" textLength="4.2" x="1605.4672" y="204.4316">1</text><!--MD5=[45a7766f93d7d4be916bb467d156a72c]
link Medical_Lab_Technician to Employee--><path codeLine="86" d="M533.016,72.5919 C549.402,69.7059 567.738,67.4139 584.7,67.4139 C584.7,67.4139 584.7,67.4139 1442.4,67.4139 C1510.356,67.4139 1571.664,132.7659 1596.138,162.6339 " fill="none" id="Medical_Lab_Technician-Employee" style="stroke:#A80036;stroke-width:0.6;"/><polygon fill="#000000" points="932.6893,62.3725,927.4304,60.1574,927.1328,63.6716,932.6893,62.3725" style="stroke:#000000;stroke-width:0.6;"/><text fill="#000000" font-family="sans-serif" font-size="7.8" lengthAdjust="spacing" textLength="12.6" x="935.1" y="65.3109">is a</text><text fill="#000000" font-family="sans-serif" font-size="7.8" lengthAdjust="spacing" textLength="4.2" x="537.5721" y="80.1117">1</text><text fill="#000000" font-family="sans-serif" font-size="7.8" lengthAdjust="spacing" textLength="4.2" x="1588.3602" y="156.1918">1</text><!--MD5=[8f7dd94d56b58fc07b233ccd3dd98f8c]
link Administrator to Employee--><path codeLine="87" d="M1130.13,120.9939 C1173.264,122.2719 1253.916,125.3079 1322.4,131.6139 C1422.858,140.8599 1448.4,142.2159 1547.4,161.6139 C1558.806,163.8459 1571.268,166.9719 1581.864,169.8399 " fill="none" id="Administrator-Employee" style="stroke:#A80036;stroke-width:0.6;"/><polygon fill="#000000" points="1352.9826,128.4418,1347.7766,126.1053,1347.3974,129.6116,1352.9826,128.4418" style="stroke:#000000;stroke-width:0.6;"/><text fill="#000000" font-family="sans-serif" font-size="7.8" lengthAdjust="spacing" textLength="12.6" x="1355.4" y="131.3109">is a</text><text fill="#000000" font-family="sans-serif" font-size="7.8" lengthAdjust="spacing" textLength="4.2" x="1134.8592" y="129.8905">1</text><text fill="#000000" font-family="sans-serif" font-size="7.8" lengthAdjust="spacing" textLength="4.2" x="1572.9874" y="166.3381">1</text><!--MD5=[738be3b9320e072410965e082551cccc]
link Doctor to Employee--><path codeLine="88" d="M1297.854,391.4319 C1358.484,374.9259 1537.716,325.6239 1547.4,317.0139 C1585.794,282.8859 1600.482,219.9159 1605.324,191.6319 " fill="none" id="Doctor-Employee" style="stroke:#A80036;stroke-width:0.6;"/><polygon fill="#000000" points="1436.5155,330.4847,1431.0041,331.9632,1432.9257,334.9204,1436.5155,330.4847" style="stroke:#000000;stroke-width:0.6;"/><text fill="#000000" font-family="sans-serif" font-size="7.8" lengthAdjust="spacing" textLength="12.6" x="1439.4" y="335.3109">is a</text><text fill="#000000" font-family="sans-serif" font-size="7.8" lengthAdjust="spacing" textLength="4.2" x="1302.5058" y="387.8507">1</text><text fill="#000000" font-family="sans-serif" font-size="7.8" lengthAdjust="spacing" textLength="4.2" x="1599.9599" y="204.439">1</text><!--MD5=[d8ce3ee85b6b4189abd519ef3b14e1ce]
link Clinical_Chemistry_Technologist to Employee--><path codeLine="89" d="M1162.926,332.9799 C1207.83,334.9239 1269.192,335.0019 1322.4,326.0139 C1400.064,312.8979 1421.136,307.1079 1490.4,269.6139 C1530.804,247.7439 1571.424,211.7799 1592.538,191.7819 " fill="none" id="Clinical_Chemistry_Technologist-Employee" style="stroke:#A80036;stroke-width:0.6;"/><polygon fill="#000000" points="1352.85,309.5826,1347.1437,309.6019,1348.2449,312.9523,1352.85,309.5826" style="stroke:#000000;stroke-width:0.6;"/><text fill="#000000" font-family="sans-serif" font-size="7.8" lengthAdjust="spacing" textLength="12.6" x="1355.4" y="313.7109">is a</text><text fill="#000000" font-family="sans-serif" font-size="7.8" lengthAdjust="spacing" textLength="4.2" x="1167.5966" y="341.7429">1</text><text fill="#000000" font-family="sans-serif" font-size="7.8" lengthAdjust="spacing" textLength="4.2" x="1584.0573" y="204.6256">1</text><!--MD5=[6a35157f4c730bda767e7c9f1b8b7f73]
link Receptionist to Client--><path codeLine="90" d="M63.684,88.4739 C95.214,104.4219 145.896,130.0659 179.328,146.9799 " fill="none" id="Receptionist-Client" style="stroke:#A80036;stroke-width:0.6;"/><polygon fill="#000000" points="107.0769,103.6736,103.0304,99.6502,101.4383,102.7971,107.0769,103.6736" style="stroke:#000000;stroke-width:0.6;"/><text fill="#000000" font-family="sans-serif" font-size="7.8" lengthAdjust="spacing" textLength="32.4" x="109.8" y="105.5109">register a</text><text fill="#000000" font-family="sans-serif" font-size="7.8" lengthAdjust="spacing" textLength="4.2" x="66.0857" y="101.2913">1</text><text fill="#000000" font-family="sans-serif" font-size="7.8" lengthAdjust="spacing" textLength="3" x="171.5211" y="153.4598">*</text><!--MD5=[e8b34c2e6517a986175307f5599f058a]
link Receptionist to Test--><path codeLine="91" d="M64.89,74.0139 C81.54,74.0139 102.672,74.0139 121.5,74.0139 C121.5,74.0139 121.5,74.0139 337.8,74.0139 C386.958,74.0139 433.134,112.3119 459.294,138.9459 " fill="none" id="Receptionist-Test" style="stroke:#A80036;stroke-width:0.6;"/><polygon fill="#000000" points="202.1602,69.2067,197.0916,66.5851,196.5187,70.065,202.1602,69.2067" style="stroke:#000000;stroke-width:0.6;"/><text fill="#000000" font-family="sans-serif" font-size="7.8" lengthAdjust="spacing" textLength="25.8" x="204.6" y="71.9109">register</text><text fill="#000000" font-family="sans-serif" font-size="7.8" lengthAdjust="spacing" textLength="4.2" x="69.662" y="82.8314">1</text><text fill="#000000" font-family="sans-serif" font-size="7.8" lengthAdjust="spacing" textLength="3" x="451.5088" y="143.1025">*</text><!--MD5=[0bde84c484199f8c429a86e32cc6847f]
link Client to LabOrder--><path codeLine="92" d="M247.806,164.0139 C268.122,164.0139 293.562,164.0139 311.994,164.0139 " fill="none" id="Client-LabOrder" style="stroke:#A80036;stroke-width:0.6;"/><polygon fill="#000000" points="271.8,158.7193,266.3729,156.956,266.3729,160.4827,271.8,158.7193" style="stroke:#000000;stroke-width:0.6;"/><text fill="#000000" font-family="sans-serif" font-size="7.8" lengthAdjust="spacing" textLength="19.2" x="274.2" y="161.9109">has a</text><text fill="#000000" font-family="sans-serif" font-size="7.8" lengthAdjust="spacing" textLength="4.2" x="252.6846" y="172.7827">1</text><text fill="#000000" font-family="sans-serif" font-size="7.8" lengthAdjust="spacing" textLength="12" x="295.2156" y="172.8621">1..*</text><!--MD5=[84a279e28ad6c3248737114c29c49c27]
link LabOrder to Test--><path codeLine="93" d="M362.502,164.0139 C389.706,164.0139 433.056,164.0139 459.24,164.0139 " fill="none" id="LabOrder-Test" style="stroke:#A80036;stroke-width:0.6;"/><polygon fill="#000000" points="386.4,158.7193,380.9729,156.956,380.9729,160.4827,386.4,158.7193" style="stroke:#000000;stroke-width:0.6;"/><text fill="#000000" font-family="sans-serif" font-size="7.8" lengthAdjust="spacing" textLength="24" x="388.8" y="161.9109">order a</text><text fill="#000000" font-family="sans-serif" font-size="7.8" lengthAdjust="spacing" textLength="4.2" x="367.2117" y="172.9541">1</text><text fill="#000000" font-family="sans-serif" font-size="7.8" lengthAdjust="spacing" textLength="4.2" x="450.282" y="173.0742">1</text><!--MD5=[e981d4f96c4342412d1e68160b30cf70]
link Test to TestType--><path codeLine="94" d="M504.954,164.0139 C538.908,164.0139 603.402,164.0139 638.49,164.0139 " fill="none" id="Test-TestType" style="stroke:#A80036;stroke-width:0.6;"/><polygon fill="#000000" points="579.6,158.7193,574.1729,156.956,574.1729,160.4827,579.6,158.7193" style="stroke:#000000;stroke-width:0.6;"/><text fill="#000000" font-family="sans-serif" font-size="7.8" lengthAdjust="spacing" textLength="14.4" x="582" y="161.9109">is of</text><text fill="#000000" font-family="sans-serif" font-size="7.8" lengthAdjust="spacing" textLength="3" x="509.7487" y="173.1058">*</text><text fill="#000000" font-family="sans-serif" font-size="7.8" lengthAdjust="spacing" textLength="4.2" x="629.6648" y="172.9625">1</text><!--MD5=[b72ac8ab7fb5921fceb5036a3902baea]
link Test to Sample--><path codeLine="95" d="M504.954,171.5079 C538.626,182.8419 602.334,204.2919 637.608,216.1659 " fill="none" id="Test-Sample" style="stroke:#A80036;stroke-width:0.6;"/><polygon fill="#000000" points="576.1432,188.4765,571.5624,185.0738,570.4372,188.4162,576.1432,188.4765" style="stroke:#000000;stroke-width:0.6;"/><text fill="#000000" font-family="sans-serif" font-size="7.8" lengthAdjust="spacing" textLength="21" x="578.7" y="190.7109">needs</text><text fill="#000000" font-family="sans-serif" font-size="7.8" lengthAdjust="spacing" textLength="4.2" x="509.7109" y="181.9967">1</text><text fill="#000000" font-family="sans-serif" font-size="7.8" lengthAdjust="spacing" textLength="12" x="620.9532" y="223.7499">1..*</text><!--MD5=[67f3eb9464bc08ca2c5b58e33c8e251a]
link Medical_Lab_Technician to Sample--><path codeLine="96" d="M517.602,98.6619 C542.472,109.9779 575.844,127.3059 601.2,148.4139 C602.61,149.5839 630.042,183.7779 647.79,205.9539 " fill="none" id="Medical_Lab_Technician-Sample" style="stroke:#A80036;stroke-width:0.6;"/><polygon fill="#000000" points="574.7151,122.2273,571.6485,117.415,569.4056,120.1366,574.7151,122.2273" style="stroke:#000000;stroke-width:0.6;"/><text fill="#000000" font-family="sans-serif" font-size="7.8" lengthAdjust="spacing" textLength="22.8" x="577.8" y="123.5109">collect</text><text fill="#000000" font-family="sans-serif" font-size="7.8" lengthAdjust="spacing" textLength="4.2" x="521.5437" y="111.4763">1</text><text fill="#000000" font-family="sans-serif" font-size="7.8" lengthAdjust="spacing" textLength="3" x="641.2817" y="199.6442">*</text><!--MD5=[c0365682835b1ef97cd138fe3c5981b0]
link Sample to Clinical_Chemistry_Technologist--><path codeLine="97" d="M688.926,233.4159 C707.988,239.9319 734.958,248.7699 759,255.2139 C854.01,280.6899 965.82,303.4659 1034.292,316.6059 " fill="none" id="Sample-Clinical_Chemistry_Technologist" style="stroke:#A80036;stroke-width:0.6;"/><polygon fill="#000000" points="843.6834,268.4168,848.5466,271.402,849.3725,267.9734,843.6834,268.4168" style="stroke:#000000;stroke-width:0.6;"/><text fill="#000000" font-family="sans-serif" font-size="7.8" lengthAdjust="spacing" textLength="28.2" x="852" y="272.3109">receives</text><text fill="#000000" font-family="sans-serif" font-size="7.8" lengthAdjust="spacing" textLength="3" x="693.5883" y="243.8774">*</text><text fill="#000000" font-family="sans-serif" font-size="7.8" lengthAdjust="spacing" textLength="4.2" x="1025.4227" y="324.2176">1</text><!--MD5=[327391d6abe62f0446af3ffbf41cf7ec]
link Sample to Barcode--><path codeLine="98" d="M688.914,224.8539 C711.06,225.0699 743.124,225.3819 764.61,225.5919 " fill="none" id="Sample-Barcode" style="stroke:#A80036;stroke-width:0.6;"/><polygon fill="#000000" points="715.7999,219.3486,710.3903,217.5324,710.3559,221.0589,715.7999,219.3486" style="stroke:#000000;stroke-width:0.6;"/><text fill="#000000" font-family="sans-serif" font-size="7.8" lengthAdjust="spacing" textLength="19.2" x="718.2" y="222.5109">has a</text><text fill="#000000" font-family="sans-serif" font-size="7.8" lengthAdjust="spacing" textLength="4.2" x="693.6773" y="222.5938">1</text><text fill="#000000" font-family="sans-serif" font-size="7.8" lengthAdjust="spacing" textLength="4.2" x="755.6918" y="234.5615">1</text><!--MD5=[388a00413fc3108aa0baec2b59b7bdf9]
link Barcode to External_API--><path codeLine="99" d="M811.53,225.9039 C837.186,226.0119 878.928,226.1799 907.128,226.2939 " fill="none" id="Barcode-External_API" style="stroke:#A80036;stroke-width:0.6;"/><polygon fill="#000000" points="841.2,220.5316,835.7802,218.7461,835.7658,222.2728,841.2,220.5316" style="stroke:#000000;stroke-width:0.6;"/><text fill="#000000" font-family="sans-serif" font-size="7.8" lengthAdjust="spacing" textLength="45" x="843.6" y="223.7109">generated by</text><text fill="#000000" font-family="sans-serif" font-size="7.8" lengthAdjust="spacing" textLength="3" x="816.2823" y="234.9626">*</text><text fill="#000000" font-family="sans-serif" font-size="7.8" lengthAdjust="spacing" textLength="4.2" x="898.1587" y="235.0938">1</text><!--MD5=[55a9865c974ffedc3ab58fdf8180d268]
link Clinical_Chemistry_Technologist to Chemical_Laboratory--><path codeLine="100" d="M1162.818,318.5259 C1185.81,314.9559 1211.256,311.0019 1232.262,307.7379 " fill="none" id="Clinical_Chemistry_Technologist-Chemical_Laboratory" style="stroke:#A80036;stroke-width:0.6;"/><polygon fill="#000000" points="1186.7644,304.6588,1181.131,303.7494,1181.6724,307.2344,1186.7644,304.6588" style="stroke:#000000;stroke-width:0.6;"/><text fill="#000000" font-family="sans-serif" font-size="7.8" lengthAdjust="spacing" textLength="24.6" x="1189.2" y="308.3109">work in</text><text fill="#000000" font-family="sans-serif" font-size="7.8" lengthAdjust="spacing" textLength="3" x="1167.6442" y="326.257">*</text><text fill="#000000" font-family="sans-serif" font-size="7.8" lengthAdjust="spacing" textLength="4.2" x="1223.412" y="316.9994">1</text><!--MD5=[afe83291a4ff360dae8c5a3fdf90a0a3]
link Clinical_Chemistry_Technologist to Chemical_Analyses--><path codeLine="101" d="M1113.348,342.9579 C1152.942,382.4019 1270.068,490.5999 1393.2,522.8139 C1451.4,538.0419 1521.564,535.2219 1565.34,531.0819 " fill="none" id="Clinical_Chemistry_Technologist-Chemical_Analyses" style="stroke:#A80036;stroke-width:0.6;"/><polygon fill="#000000" points="1346.1697,500.6721,1341.8369,496.9587,1340.4817,500.2147,1346.1697,500.6721" style="stroke:#000000;stroke-width:0.6;"/><text fill="#000000" font-family="sans-serif" font-size="7.8" lengthAdjust="spacing" textLength="25.8" x="1348.8" y="502.7109">perform</text><text fill="#000000" font-family="sans-serif" font-size="7.8" lengthAdjust="spacing" textLength="4.2" x="1112.231" y="355.7957">1</text><text fill="#000000" font-family="sans-serif" font-size="7.8" lengthAdjust="spacing" textLength="3" x="1557.51" y="540.3024">*</text><!--MD5=[59d44bdecc6aa2c729a3967aadca6766]
link TestType to Parameters--><path codeLine="102" d="M688.026,164.0139 C708.33,164.0139 737.406,164.0139 758.88,164.0139 " fill="none" id="TestType-Parameters" style="stroke:#A80036;stroke-width:0.6;"/><polygon fill="#000000" points="712.8,158.7193,707.3729,156.956,707.3729,160.4827,712.8,158.7193" style="stroke:#000000;stroke-width:0.6;"/><text fill="#000000" font-family="sans-serif" font-size="7.8" lengthAdjust="spacing" textLength="25.2" x="715.2" y="161.9109">contain</text><text fill="#000000" font-family="sans-serif" font-size="7.8" lengthAdjust="spacing" textLength="3" x="692.6975" y="172.9935">*</text><text fill="#000000" font-family="sans-serif" font-size="7.8" lengthAdjust="spacing" textLength="12" x="742.1473" y="172.7701">1..*</text><!--MD5=[6153584152eea4d43fc5098491765777]
link Parameters to Category--><path codeLine="103" d="M817.272,166.4439 C845.118,168.8079 886.956,172.3659 913.056,174.5859 " fill="none" id="Parameters-Category" style="stroke:#A80036;stroke-width:0.6;"/><polygon fill="#000000" points="854.0892,162.5734,848.831,160.3567,848.5323,163.8708,854.0892,162.5734" style="stroke:#000000;stroke-width:0.6;"/><text fill="#000000" font-family="sans-serif" font-size="7.8" lengthAdjust="spacing" textLength="19.2" x="856.5" y="165.5109">under</text><text fill="#000000" font-family="sans-serif" font-size="7.8" lengthAdjust="spacing" textLength="3" x="821.9686" y="175.6642">*</text><text fill="#000000" font-family="sans-serif" font-size="7.8" lengthAdjust="spacing" textLength="4.2" x="904.1279" y="183.1955">1</text><!--MD5=[2c46651aa9ea3a6d986170fabc83ad48]
link Category to Administrator--><path codeLine="104" d="M961.866,168.2319 C989.79,158.3799 1036.212,142.0059 1066.956,131.1639 " fill="none" id="Category-Administrator" style="stroke:#A80036;stroke-width:0.6;"/><polygon fill="#000000" points="985.9708,145.3173,991.6754,145.1749,990.5023,141.8491,985.9708,145.3173" style="stroke:#000000;stroke-width:0.6;"/><text fill="#000000" font-family="sans-serif" font-size="7.8" lengthAdjust="spacing" textLength="21.6" x="994.2" y="147.5109">create</text><text fill="#000000" font-family="sans-serif" font-size="7.8" lengthAdjust="spacing" textLength="3" x="966.635" y="175.688">*</text><text fill="#000000" font-family="sans-serif" font-size="7.8" lengthAdjust="spacing" textLength="4.2" x="1058.0108" y="141.4906">1</text><!--MD5=[a30860acc0b1e1e93377b3e8bf0b9e42]
link Parameters to Administrator--><path codeLine="105" d="M817.338,155.9919 C823.218,154.5219 829.386,153.1119 835.2,152.0139 C918.294,136.3359 1017.702,126.7659 1067.046,122.6259 " fill="none" id="Parameters-Administrator" style="stroke:#A80036;stroke-width:0.6;"/><polygon fill="#000000" points="922.2264,127.3167,927.8392,128.3457,927.3721,124.8501,922.2264,127.3167" style="stroke:#000000;stroke-width:0.6;"/><text fill="#000000" font-family="sans-serif" font-size="7.8" lengthAdjust="spacing" textLength="21.6" x="930.6" y="130.1109">create</text><text fill="#000000" font-family="sans-serif" font-size="7.8" lengthAdjust="spacing" textLength="3" x="822.0448" y="163.6117">*</text><text fill="#000000" font-family="sans-serif" font-size="7.8" lengthAdjust="spacing" textLength="4.2" x="1058.1134" y="120.802">1</text><!--MD5=[97bf7d4409aa0aabe6940c9420d19100]
link Doctor to Chemical_Analyses--><path codeLine="106" d="M1290.51,411.2499 C1310.064,432.7659 1350.114,472.7859 1393.2,492.2139 C1449.132,517.4379 1520.676,524.1639 1565.28,525.7179 " fill="none" id="Doctor-Chemical_Analyses" style="stroke:#A80036;stroke-width:0.6;"/><polygon fill="#000000" points="1431.9693,488.073,1427.6377,484.3582,1426.2815,487.6137,1431.9693,488.073" style="stroke:#000000;stroke-width:0.6;"/><text fill="#000000" font-family="sans-serif" font-size="7.8" lengthAdjust="spacing" textLength="22.2" x="1434.6" y="490.1109">knows</text><text fill="#000000" font-family="sans-serif" font-size="7.8" lengthAdjust="spacing" textLength="4.2" x="1288.9937" y="424.0614">1</text><text fill="#000000" font-family="sans-serif" font-size="7.8" lengthAdjust="spacing" textLength="3" x="1557.7198" y="534.3211">*</text><!--MD5=[ea81175f604d6a35cf7833ef6a6b10c7]
link Doctor to Report--><path codeLine="107" d="M1297.914,396.3999 C1342.746,395.7699 1454.934,395.8839 1547.4,410.0139 C1560.804,412.0599 1575.552,415.8759 1587.066,419.2179 " fill="none" id="Doctor-Report" style="stroke:#A80036;stroke-width:0.6;"/><polygon fill="#000000" points="1435.1907,391.7553,1429.9192,389.5705,1429.6417,393.0863,1435.1907,391.7553" style="stroke:#000000;stroke-width:0.6;"/><text fill="#000000" font-family="sans-serif" font-size="7.8" lengthAdjust="spacing" textLength="16.2" x="1437.6" y="394.7109">write</text><text fill="#000000" font-family="sans-serif" font-size="7.8" lengthAdjust="spacing" textLength="4.2" x="1302.5781" y="405.4233">1</text><text fill="#000000" font-family="sans-serif" font-size="7.8" lengthAdjust="spacing" textLength="3" x="1579.439" y="427.038">*</text><!--MD5=[dd54e598cac7fafada6498813f841094]
link Laboratory_Coordinator to Report--><path codeLine="108" d="M1490.574,462.3039 C1508.64,463.2219 1529.196,462.6159 1547.4,458.0139 C1561.518,454.4439 1575.918,446.8239 1587.072,439.8759 " fill="none" id="Laboratory_Coordinator-Report" style="stroke:#A80036;stroke-width:0.6;"/><polygon fill="#000000" points="1514.3221,452.0402,1508.6368,451.5512,1509.4352,454.9864,1514.3221,452.0402" style="stroke:#000000;stroke-width:0.6;"/><text fill="#000000" font-family="sans-serif" font-size="7.8" lengthAdjust="spacing" textLength="30" x="1516.8" y="455.9109">validates</text><text fill="#000000" font-family="sans-serif" font-size="7.8" lengthAdjust="spacing" textLength="4.2" x="1495.2639" y="471.4146">1</text><text fill="#000000" font-family="sans-serif" font-size="7.8" lengthAdjust="spacing" textLength="3" x="1579.4462" y="451.9567">*</text><!--MD5=[da711191734cedfa923cb6d15ab387e4]
link Laboratory_Coordinator to Chemical_Analyses--><path codeLine="109" d="M1476.588,470.6379 C1502.358,481.5039 1537.836,496.4739 1565.346,508.0719 " fill="none" id="Laboratory_Coordinator-Chemical_Analyses" style="stroke:#A80036;stroke-width:0.6;"/><polygon fill="#000000" points="1514.1642,480.2852,1509.849,476.5514,1508.4785,479.8009,1514.1642,480.2852" style="stroke:#000000;stroke-width:0.6;"/><text fill="#000000" font-family="sans-serif" font-size="7.8" lengthAdjust="spacing" textLength="30" x="1516.8" y="482.3109">validates</text><text fill="#000000" font-family="sans-serif" font-size="7.8" lengthAdjust="spacing" textLength="4.2" x="1480.3557" y="483.4465">1</text><text fill="#000000" font-family="sans-serif" font-size="7.8" lengthAdjust="spacing" textLength="3" x="1557.5167" y="514.7757">*</text><!--MD5=[27969557b789a3a8615f455b93804dd6]
link Chemical_Analyses to Reference_Values--><path codeLine="110" d="M1650.774,525.8139 C1679.604,525.8139 1717.578,525.8139 1745.874,525.8139 " fill="none" id="Chemical_Analyses-Reference_Values" style="stroke:#A80036;stroke-width:0.6;"/><polygon fill="#000000" points="1674.6,520.5193,1669.1729,518.756,1669.1729,522.2827,1674.6,520.5193" style="stroke:#000000;stroke-width:0.6;"/><text fill="#000000" font-family="sans-serif" font-size="7.8" lengthAdjust="spacing" textLength="50.4" x="1677" y="523.7109">compared with</text><text fill="#000000" font-family="sans-serif" font-size="7.8" lengthAdjust="spacing" textLength="3" x="1655.3398" y="534.427">*</text><text fill="#000000" font-family="sans-serif" font-size="7.8" lengthAdjust="spacing" textLength="3" x="1738.2993" y="534.4475">*</text><!--MD5=[9233e816989dcb1b676bb81fad85c8d1]
@startuml
'https://plantuml.com/class-diagram
skinparam classAttributeIconSize 0
left to right direction
class Company
class Employee
class Clinical_Analysis_Laboratory
class Receptionist
class Test
class TestType
class Category
class Parameters
class Sample
class Medical_Lab_Technician
class Doctor
class Report
class Chemical_Analyses
class Chemical_Laboratory
class Clinical_Chemistry_Technologist
class LabOrder
class Client
class Laboratory_Coordinator
class Administrator
class Laboratory
class External_API
class Reference_Values
class Barcode

class Company{
-name
-designation
-category
-address
-headquarter
}
class Laboratory{
}
class Barcode{
-code
}

class Report{
-diagnosis
}

class Sample{
-collection date
}

class Test{
-internalCode
-nhsCode
-description

}
class TestType{
-designation
}

class Client{
 - Name
 - Email
 - Phone Number
 - Sex
 - TIF
 - Birth Date
 - NHS Number
 - Citizen Card Number

}
class Chemical_Analyses{
-date
-time
}
class Report{
-date
-time
}


Company "1"- - -"*" Employee : knows >
Company "1"- -"*" Laboratory : owns >
Clinical_Analysis_Laboratory "*"- - -"1" Laboratory : is a >
Chemical_Laboratory "1"- -"1" Laboratory : is a >
Receptionist "1"- -"1" Employee : is a >
Laboratory_Coordinator "1"- -"1" Employee : is a >
Medical_Lab_Technician "1"- -"1" Employee : is a >
Administrator "1"- -"1" Employee : is a >
Doctor "1"- - -"1" Employee : is a >
Clinical_Chemistry_Technologist "1"- - - -"1" Employee : is a >
Receptionist "1"- - -"*" Client : register a >
Receptionist "1"-"*" Test : register >
Client "1"- -"1..*" LabOrder : has a >
LabOrder "1"- -"1" Test : order a >
Test "*"- - -"1" TestType : is of >
Test "1"- - -"1..*" Sample : needs >
Medical_Lab_Technician "1"- - -"*" Sample : collect >
Sample "*"- - - -"1" Clinical_Chemistry_Technologist : < receives
Sample "1"- -"1" Barcode : has a >
Barcode "*"- -"1" External_API : generated by >
Clinical_Chemistry_Technologist "*"- -"1" Chemical_Laboratory : work in >
Clinical_Chemistry_Technologist "1"- -"*" Chemical_Analyses : perform >
TestType "*"- -"1..*" Parameters : contain >
Parameters "*"- -"1" Category : under >
Category "*"- -"1" Administrator : < create
Parameters "*"- - -"1"Administrator : < create
Doctor "1"-"*" Chemical_Analyses : knows >
Doctor "1"- - -"*" Report : write >
Laboratory_Coordinator "1"- -"*" Report : validates >
Laboratory_Coordinator "1"- -"*" Chemical_Analyses : validates >
Chemical_Analyses "*"- -"*" Reference_Values : compared with >





@enduml

@startuml
skinparam classAttributeIconSize 0
left to right direction
class Company
class Employee
class Clinical_Analysis_Laboratory
class Receptionist
class Test
class TestType
class Category
class Parameters
class Sample
class Medical_Lab_Technician
class Doctor
class Report
class Chemical_Analyses
class Chemical_Laboratory
class Clinical_Chemistry_Technologist
class LabOrder
class Client
class Laboratory_Coordinator
class Administrator
class Laboratory
class External_API
class Reference_Values
class Barcode

class Company{
-name
-designation
-category
-address
-headquarter
}
class Laboratory{
}
class Barcode{
-code
}

class Report{
-diagnosis
}

class Sample{
-collection date
}

class Test{
-internalCode
-nhsCode
-description

}
class TestType{
-designation
}

class Client{
 - Name
 - Email
 - Phone Number
 - Sex
 - TIF
 - Birth Date
 - NHS Number
 - Citizen Card Number

}
class Chemical_Analyses{
-date
-time
}
class Report{
-date
-time
}


Company "1"- - -"*" Employee : knows >
Company "1"- -"*" Laboratory : owns >
Clinical_Analysis_Laboratory "*"- - -"1" Laboratory : is a >
Chemical_Laboratory "1"- -"1" Laboratory : is a >
Receptionist "1"- -"1" Employee : is a >
Laboratory_Coordinator "1"- -"1" Employee : is a >
Medical_Lab_Technician "1"- -"1" Employee : is a >
Administrator "1"- -"1" Employee : is a >
Doctor "1"- - -"1" Employee : is a >
Clinical_Chemistry_Technologist "1"- - - -"1" Employee : is a >
Receptionist "1"- - -"*" Client : register a >
Receptionist "1"-"*" Test : register >
Client "1"- -"1..*" LabOrder : has a >
LabOrder "1"- -"1" Test : order a >
Test "*"- - -"1" TestType : is of >
Test "1"- - -"1..*" Sample : needs >
Medical_Lab_Technician "1"- - -"*" Sample : collect >
Sample "*"- - - -"1" Clinical_Chemistry_Technologist : < receives
Sample "1"- -"1" Barcode : has a >
Barcode "*"- -"1" External_API : generated by >
Clinical_Chemistry_Technologist "*"- -"1" Chemical_Laboratory : work in >
Clinical_Chemistry_Technologist "1"- -"*" Chemical_Analyses : perform >
TestType "*"- -"1..*" Parameters : contain >
Parameters "*"- -"1" Category : under >
Category "*"- -"1" Administrator : < create
Parameters "*"- - -"1"Administrator : < create
Doctor "1"-"*" Chemical_Analyses : knows >
Doctor "1"- - -"*" Report : write >
Laboratory_Coordinator "1"- -"*" Report : validates >
Laboratory_Coordinator "1"- -"*" Chemical_Analyses : validates >
Chemical_Analyses "*"- -"*" Reference_Values : compared with >





@enduml

PlantUML version 1.2021.4(Sun Apr 04 09:49:39 BST 2021)
(GPL source distribution)
Java Runtime: OpenJDK Runtime Environment
JVM: Dynamic Code Evolution 64-Bit Server VM
Default Encoding: Cp1252
Language: pt
Country: PT
--></g></svg>