<?xml version="1.0" encoding="UTF-8" standalone="no"?><svg xmlns="http://www.w3.org/2000/svg" xmlns:xlink="http://www.w3.org/1999/xlink" contentScriptType="application/ecmascript" contentStyleType="text/css" height="2482.5px" preserveAspectRatio="none" style="width:1036px;height:2482px;" version="1.1" viewBox="0 0 1036 2482" width="1036.5px" zoomAndPan="magnify"><defs><filter height="300%" id="ffk5rkqvf0eq6" width="300%" x="-1" y="-1"><feGaussianBlur result="blurOut" stdDeviation="3.0"/><feColorMatrix in="blurOut" result="blurOut2" type="matrix" values="0 0 0 0 0 0 0 0 0 0 0 0 0 0 0 0 0 0 .4 0"/><feOffset dx="6.0" dy="6.0" in="blurOut2" result="blurOut3"/><feBlend in="SourceGraphic" in2="blurOut3" mode="normal"/></filter></defs><g><!--MD5=[02e4b9b7573f1156f41e60aa5b4e25a4]
class Company--><rect codeLine="23" fill="#FEFECE" filter="url(#ffk5rkqvf0eq6)" height="134.2617" id="Company" style="stroke:#A80036;stroke-width:2.25;" width="127.5" x="10.5" y="10.5"/><ellipse cx="33" cy="34.5" fill="#ADD1B2" rx="16.5" ry="16.5" style="stroke:#A80036;stroke-width:1.5;"/><path d="M36,29.25 Q36.3047,28.5 36.6563,28.125 Q37.0078,27.75 37.4063,27.75 Q38.1094,27.75 38.5547,28.1719 Q39,28.5938 39,29.5781 L39,31.9219 Q39,32.9063 38.5781,33.3281 Q38.1563,33.75 37.5,33.75 Q36.9141,33.75 36.5391,33.4922 Q36.1641,33.2344 36,32.5547 Q35.9297,32.0859 35.6719,31.8281 Q35.2031,31.3359 34.3594,31.0547 Q33.5156,30.75 32.6719,30.75 Q31.6172,30.75 30.7266,31.1719 Q29.8594,31.5938 29.1797,32.5313 Q28.5,33.4688 28.5,34.7578 L28.5,36.1406 Q28.5,37.6875 29.7656,38.7188 Q31.0313,39.75 33.2813,39.75 Q34.6172,39.75 35.5547,39.4453 Q36.0938,39.2813 36.7031,38.7422 Q37.1016,38.4375 37.3125,38.3438 Q37.5234,38.25 37.7813,38.25 Q38.2734,38.25 38.625,38.6484 Q39,39.0234 39,39.5625 Q39,40.0781 38.4844,40.6875 Q37.7344,41.5781 36.5391,42.0703 Q34.9688,42.75 33.0469,42.75 Q30.7969,42.75 28.9922,41.8594 Q27.5391,41.1563 26.5078,39.6328 Q25.5,38.1094 25.5,36.3047 L25.5,34.6641 Q25.5,32.7891 26.3906,31.1484 Q27.3047,29.5078 28.875,28.6406 Q30.4688,27.75 32.25,27.75 Q33.3281,27.75 34.2656,28.125 Q35.2031,28.5 36,29.25 Z " fill="#000000"/><text fill="#000000" font-family="sans-serif" font-size="18" lengthAdjust="spacing" textLength="79.5" x="54" y="41.8652">Company</text><line style="stroke:#A80036;stroke-width:2.25;" x1="12" x2="136.5" y1="58.5" y2="58.5"/><text fill="#000000" font-family="sans-serif" font-size="16.5" lengthAdjust="spacing" textLength="45" x="19.5" y="81.6284">-name</text><text fill="#000000" font-family="sans-serif" font-size="16.5" lengthAdjust="spacing" textLength="88.5" x="19.5" y="102.3823">-designation</text><text fill="#000000" font-family="sans-serif" font-size="16.5" lengthAdjust="spacing" textLength="70.5" x="19.5" y="123.1362">-category</text><line style="stroke:#A80036;stroke-width:2.25;" x1="12" x2="136.5" y1="132.7617" y2="132.7617"/><!--MD5=[d093ac04eae792ab9dd475c65e92d910]
class Headquarter--><rect codeLine="28" fill="#FEFECE" filter="url(#ffk5rkqvf0eq6)" height="92.7539" id="Headquarter" style="stroke:#A80036;stroke-width:2.25;" width="151.5" x="87" y="879"/><ellipse cx="109.5" cy="903" fill="#ADD1B2" rx="16.5" ry="16.5" style="stroke:#A80036;stroke-width:1.5;"/><path d="M112.5,897.75 Q112.8047,897 113.1563,896.625 Q113.5078,896.25 113.9063,896.25 Q114.6094,896.25 115.0547,896.6719 Q115.5,897.0938 115.5,898.0781 L115.5,900.4219 Q115.5,901.4063 115.0781,901.8281 Q114.6563,902.25 114,902.25 Q113.4141,902.25 113.0391,901.9922 Q112.6641,901.7344 112.5,901.0547 Q112.4297,900.5859 112.1719,900.3281 Q111.7031,899.8359 110.8594,899.5547 Q110.0156,899.25 109.1719,899.25 Q108.1172,899.25 107.2266,899.6719 Q106.3594,900.0938 105.6797,901.0313 Q105,901.9688 105,903.2578 L105,904.6406 Q105,906.1875 106.2656,907.2188 Q107.5313,908.25 109.7813,908.25 Q111.1172,908.25 112.0547,907.9453 Q112.5938,907.7813 113.2031,907.2422 Q113.6016,906.9375 113.8125,906.8438 Q114.0234,906.75 114.2813,906.75 Q114.7734,906.75 115.125,907.1484 Q115.5,907.5234 115.5,908.0625 Q115.5,908.5781 114.9844,909.1875 Q114.2344,910.0781 113.0391,910.5703 Q111.4688,911.25 109.5469,911.25 Q107.2969,911.25 105.4922,910.3594 Q104.0391,909.6563 103.0078,908.1328 Q102,906.6094 102,904.8047 L102,903.1641 Q102,901.2891 102.8906,899.6484 Q103.8047,898.0078 105.375,897.1406 Q106.9688,896.25 108.75,896.25 Q109.8281,896.25 110.7656,896.625 Q111.7031,897 112.5,897.75 Z " fill="#000000"/><text fill="#000000" font-family="sans-serif" font-size="18" lengthAdjust="spacing" textLength="103.5" x="130.5" y="910.3652">Headquarter</text><line style="stroke:#A80036;stroke-width:2.25;" x1="88.5" x2="237" y1="927" y2="927"/><text fill="#000000" font-family="sans-serif" font-size="16.5" lengthAdjust="spacing" textLength="66" x="96" y="950.1284">-address</text><line style="stroke:#A80036;stroke-width:2.25;" x1="88.5" x2="237" y1="959.7539" y2="959.7539"/><!--MD5=[7bbeb2ee2985aba439820f756b846a5a]
class Clinical_Analysis_Laboratory--><rect codeLine="74" fill="#FEFECE" filter="url(#ffk5rkqvf0eq6)" height="113.5078" id="Clinical_Analysis_Laboratory" style="stroke:#A80036;stroke-width:2.25;" width="286.5" x="258" y="21"/><ellipse cx="280.5" cy="45" fill="#ADD1B2" rx="16.5" ry="16.5" style="stroke:#A80036;stroke-width:1.5;"/><path d="M283.5,39.75 Q283.8047,39 284.1563,38.625 Q284.5078,38.25 284.9063,38.25 Q285.6094,38.25 286.0547,38.6719 Q286.5,39.0938 286.5,40.0781 L286.5,42.4219 Q286.5,43.4063 286.0781,43.8281 Q285.6563,44.25 285,44.25 Q284.4141,44.25 284.0391,43.9922 Q283.6641,43.7344 283.5,43.0547 Q283.4297,42.5859 283.1719,42.3281 Q282.7031,41.8359 281.8594,41.5547 Q281.0156,41.25 280.1719,41.25 Q279.1172,41.25 278.2266,41.6719 Q277.3594,42.0938 276.6797,43.0313 Q276,43.9688 276,45.2578 L276,46.6406 Q276,48.1875 277.2656,49.2188 Q278.5313,50.25 280.7813,50.25 Q282.1172,50.25 283.0547,49.9453 Q283.5938,49.7813 284.2031,49.2422 Q284.6016,48.9375 284.8125,48.8438 Q285.0234,48.75 285.2813,48.75 Q285.7734,48.75 286.125,49.1484 Q286.5,49.5234 286.5,50.0625 Q286.5,50.5781 285.9844,51.1875 Q285.2344,52.0781 284.0391,52.5703 Q282.4688,53.25 280.5469,53.25 Q278.2969,53.25 276.4922,52.3594 Q275.0391,51.6563 274.0078,50.1328 Q273,48.6094 273,46.8047 L273,45.1641 Q273,43.2891 273.8906,41.6484 Q274.8047,40.0078 276.375,39.1406 Q277.9688,38.25 279.75,38.25 Q280.8281,38.25 281.7656,38.625 Q282.7031,39 283.5,39.75 Z " fill="#000000"/><text fill="#000000" font-family="sans-serif" font-size="18" lengthAdjust="spacing" textLength="238.5" x="301.5" y="52.3652">Clinical_Analysis_Laboratory</text><line style="stroke:#A80036;stroke-width:2.25;" x1="259.5" x2="543" y1="69" y2="69"/><text fill="#000000" font-family="sans-serif" font-size="16.5" lengthAdjust="spacing" textLength="66" x="267" y="92.1284">-address</text><text fill="#000000" font-family="sans-serif" font-size="16.5" lengthAdjust="spacing" textLength="106.5" x="267" y="112.8823">-phoneNumber</text><line style="stroke:#A80036;stroke-width:2.25;" x1="259.5" x2="543" y1="122.5078" y2="122.5078"/><!--MD5=[03960189e81aa2c066c762ffabbee709]
class Receptionist--><rect codeLine="78" fill="#FEFECE" filter="url(#ffk5rkqvf0eq6)" height="134.2617" id="Receptionist" style="stroke:#A80036;stroke-width:2.25;" width="151.5" x="282" y="314.25"/><ellipse cx="304.5" cy="338.25" fill="#ADD1B2" rx="16.5" ry="16.5" style="stroke:#A80036;stroke-width:1.5;"/><path d="M307.5,333 Q307.8047,332.25 308.1563,331.875 Q308.5078,331.5 308.9063,331.5 Q309.6094,331.5 310.0547,331.9219 Q310.5,332.3438 310.5,333.3281 L310.5,335.6719 Q310.5,336.6563 310.0781,337.0781 Q309.6563,337.5 309,337.5 Q308.4141,337.5 308.0391,337.2422 Q307.6641,336.9844 307.5,336.3047 Q307.4297,335.8359 307.1719,335.5781 Q306.7031,335.0859 305.8594,334.8047 Q305.0156,334.5 304.1719,334.5 Q303.1172,334.5 302.2266,334.9219 Q301.3594,335.3438 300.6797,336.2813 Q300,337.2188 300,338.5078 L300,339.8906 Q300,341.4375 301.2656,342.4688 Q302.5313,343.5 304.7813,343.5 Q306.1172,343.5 307.0547,343.1953 Q307.5938,343.0313 308.2031,342.4922 Q308.6016,342.1875 308.8125,342.0938 Q309.0234,342 309.2813,342 Q309.7734,342 310.125,342.3984 Q310.5,342.7734 310.5,343.3125 Q310.5,343.8281 309.9844,344.4375 Q309.2344,345.3281 308.0391,345.8203 Q306.4688,346.5 304.5469,346.5 Q302.2969,346.5 300.4922,345.6094 Q299.0391,344.9063 298.0078,343.3828 Q297,341.8594 297,340.0547 L297,338.4141 Q297,336.5391 297.8906,334.8984 Q298.8047,333.2578 300.375,332.3906 Q301.9688,331.5 303.75,331.5 Q304.8281,331.5 305.7656,331.875 Q306.7031,332.25 307.5,333 Z " fill="#000000"/><text fill="#000000" font-family="sans-serif" font-size="18" lengthAdjust="spacing" textLength="103.5" x="325.5" y="345.6152">Receptionist</text><line style="stroke:#A80036;stroke-width:2.25;" x1="283.5" x2="432" y1="362.25" y2="362.25"/><text fill="#000000" font-family="sans-serif" font-size="16.5" lengthAdjust="spacing" textLength="45" x="291" y="385.3784">-name</text><text fill="#000000" font-family="sans-serif" font-size="16.5" lengthAdjust="spacing" textLength="42" x="291" y="406.1323">-email</text><text fill="#000000" font-family="sans-serif" font-size="16.5" lengthAdjust="spacing" textLength="81" x="291" y="426.8862">-password</text><line style="stroke:#A80036;stroke-width:2.25;" x1="283.5" x2="432" y1="436.5117" y2="436.5117"/><!--MD5=[df38be88ccee13e832d6fafd6288a4ca]
class Test--><rect codeLine="61" fill="#FEFECE" filter="url(#ffk5rkqvf0eq6)" height="134.2617" id="Test" style="stroke:#A80036;stroke-width:2.25;" width="96" x="287.25" y="1017"/><ellipse cx="315.15" cy="1041" fill="#ADD1B2" rx="16.5" ry="16.5" style="stroke:#A80036;stroke-width:1.5;"/><path d="M318.15,1035.75 Q318.4547,1035 318.8063,1034.625 Q319.1578,1034.25 319.5563,1034.25 Q320.2594,1034.25 320.7047,1034.6719 Q321.15,1035.0938 321.15,1036.0781 L321.15,1038.4219 Q321.15,1039.4063 320.7281,1039.8281 Q320.3063,1040.25 319.65,1040.25 Q319.0641,1040.25 318.6891,1039.9922 Q318.3141,1039.7344 318.15,1039.0547 Q318.0797,1038.5859 317.8219,1038.3281 Q317.3531,1037.8359 316.5094,1037.5547 Q315.6656,1037.25 314.8219,1037.25 Q313.7672,1037.25 312.8766,1037.6719 Q312.0094,1038.0938 311.3297,1039.0313 Q310.65,1039.9688 310.65,1041.2578 L310.65,1042.6406 Q310.65,1044.1875 311.9156,1045.2188 Q313.1813,1046.25 315.4313,1046.25 Q316.7672,1046.25 317.7047,1045.9453 Q318.2438,1045.7813 318.8531,1045.2422 Q319.2516,1044.9375 319.4625,1044.8438 Q319.6734,1044.75 319.9313,1044.75 Q320.4234,1044.75 320.775,1045.1484 Q321.15,1045.5234 321.15,1046.0625 Q321.15,1046.5781 320.6344,1047.1875 Q319.8844,1048.0781 318.6891,1048.5703 Q317.1188,1049.25 315.1969,1049.25 Q312.9469,1049.25 311.1422,1048.3594 Q309.6891,1047.6563 308.6578,1046.1328 Q307.65,1044.6094 307.65,1042.8047 L307.65,1041.1641 Q307.65,1039.2891 308.5406,1037.6484 Q309.4547,1036.0078 311.025,1035.1406 Q312.6188,1034.25 314.4,1034.25 Q315.4781,1034.25 316.4156,1034.625 Q317.3531,1035 318.15,1035.75 Z " fill="#000000"/><text fill="#000000" font-family="sans-serif" font-size="18" lengthAdjust="spacing" textLength="36" x="337.35" y="1048.3652">Test</text><line style="stroke:#A80036;stroke-width:2.25;" x1="288.75" x2="381.75" y1="1065" y2="1065"/><text fill="#000000" font-family="sans-serif" font-size="16.5" lengthAdjust="spacing" textLength="42" x="296.25" y="1088.1284">-code</text><text fill="#000000" font-family="sans-serif" font-size="16.5" lengthAdjust="spacing" textLength="70.5" x="296.25" y="1108.8823">-nhsCode</text><text fill="#000000" font-family="sans-serif" font-size="16.5" lengthAdjust="spacing" textLength="78" x="296.25" y="1129.6362">-createdAt</text><line style="stroke:#A80036;stroke-width:2.25;" x1="288.75" x2="381.75" y1="1139.2617" y2="1139.2617"/><!--MD5=[aeb3272166074d8737a70b61b1e71682]
class TestType--><rect codeLine="66" fill="#FEFECE" filter="url(#ffk5rkqvf0eq6)" height="92.7539" id="TestType" style="stroke:#A80036;stroke-width:2.25;" width="123" x="494.25" y="1038"/><ellipse cx="516.75" cy="1062" fill="#ADD1B2" rx="16.5" ry="16.5" style="stroke:#A80036;stroke-width:1.5;"/><path d="M519.75,1056.75 Q520.0547,1056 520.4063,1055.625 Q520.7578,1055.25 521.1563,1055.25 Q521.8594,1055.25 522.3047,1055.6719 Q522.75,1056.0938 522.75,1057.0781 L522.75,1059.4219 Q522.75,1060.4063 522.3281,1060.8281 Q521.9063,1061.25 521.25,1061.25 Q520.6641,1061.25 520.2891,1060.9922 Q519.9141,1060.7344 519.75,1060.0547 Q519.6797,1059.5859 519.4219,1059.3281 Q518.9531,1058.8359 518.1094,1058.5547 Q517.2656,1058.25 516.4219,1058.25 Q515.3672,1058.25 514.4766,1058.6719 Q513.6094,1059.0938 512.9297,1060.0313 Q512.25,1060.9688 512.25,1062.2578 L512.25,1063.6406 Q512.25,1065.1875 513.5156,1066.2188 Q514.7813,1067.25 517.0313,1067.25 Q518.3672,1067.25 519.3047,1066.9453 Q519.8438,1066.7813 520.4531,1066.2422 Q520.8516,1065.9375 521.0625,1065.8438 Q521.2734,1065.75 521.5313,1065.75 Q522.0234,1065.75 522.375,1066.1484 Q522.75,1066.5234 522.75,1067.0625 Q522.75,1067.5781 522.2344,1068.1875 Q521.4844,1069.0781 520.2891,1069.5703 Q518.7188,1070.25 516.7969,1070.25 Q514.5469,1070.25 512.7422,1069.3594 Q511.2891,1068.6563 510.2578,1067.1328 Q509.25,1065.6094 509.25,1063.8047 L509.25,1062.1641 Q509.25,1060.2891 510.1406,1058.6484 Q511.0547,1057.0078 512.625,1056.1406 Q514.2188,1055.25 516,1055.25 Q517.0781,1055.25 518.0156,1055.625 Q518.9531,1056 519.75,1056.75 Z " fill="#000000"/><text fill="#000000" font-family="sans-serif" font-size="18" lengthAdjust="spacing" textLength="75" x="537.75" y="1069.3652">TestType</text><line style="stroke:#A80036;stroke-width:2.25;" x1="495.75" x2="615.75" y1="1086" y2="1086"/><text fill="#000000" font-family="sans-serif" font-size="16.5" lengthAdjust="spacing" textLength="88.5" x="503.25" y="1109.1284">-designation</text><line style="stroke:#A80036;stroke-width:2.25;" x1="495.75" x2="615.75" y1="1118.7539" y2="1118.7539"/><!--MD5=[a96594a83e2ecdc78cbf17c2ddf01934]
class Category--><rect codeLine="9" fill="#FEFECE" filter="url(#ffk5rkqvf0eq6)" height="72" id="Category" style="stroke:#A80036;stroke-width:2.25;" width="121.5" x="439.5" y="1300.5"/><ellipse cx="462" cy="1324.5" fill="#ADD1B2" rx="16.5" ry="16.5" style="stroke:#A80036;stroke-width:1.5;"/><path d="M465,1319.25 Q465.3047,1318.5 465.6563,1318.125 Q466.0078,1317.75 466.4063,1317.75 Q467.1094,1317.75 467.5547,1318.1719 Q468,1318.5938 468,1319.5781 L468,1321.9219 Q468,1322.9063 467.5781,1323.3281 Q467.1563,1323.75 466.5,1323.75 Q465.9141,1323.75 465.5391,1323.4922 Q465.1641,1323.2344 465,1322.5547 Q464.9297,1322.0859 464.6719,1321.8281 Q464.2031,1321.3359 463.3594,1321.0547 Q462.5156,1320.75 461.6719,1320.75 Q460.6172,1320.75 459.7266,1321.1719 Q458.8594,1321.5938 458.1797,1322.5313 Q457.5,1323.4688 457.5,1324.7578 L457.5,1326.1406 Q457.5,1327.6875 458.7656,1328.7188 Q460.0313,1329.75 462.2813,1329.75 Q463.6172,1329.75 464.5547,1329.4453 Q465.0938,1329.2813 465.7031,1328.7422 Q466.1016,1328.4375 466.3125,1328.3438 Q466.5234,1328.25 466.7813,1328.25 Q467.2734,1328.25 467.625,1328.6484 Q468,1329.0234 468,1329.5625 Q468,1330.0781 467.4844,1330.6875 Q466.7344,1331.5781 465.5391,1332.0703 Q463.9688,1332.75 462.0469,1332.75 Q459.7969,1332.75 457.9922,1331.8594 Q456.5391,1331.1563 455.5078,1329.6328 Q454.5,1328.1094 454.5,1326.3047 L454.5,1324.6641 Q454.5,1322.7891 455.3906,1321.1484 Q456.3047,1319.5078 457.875,1318.6406 Q459.4688,1317.75 461.25,1317.75 Q462.3281,1317.75 463.2656,1318.125 Q464.2031,1318.5 465,1319.25 Z " fill="#000000"/><text fill="#000000" font-family="sans-serif" font-size="18" lengthAdjust="spacing" textLength="73.5" x="483" y="1331.8652">Category</text><line style="stroke:#A80036;stroke-width:2.25;" x1="441" x2="559.5" y1="1348.5" y2="1348.5"/><line style="stroke:#A80036;stroke-width:2.25;" x1="441" x2="559.5" y1="1360.5" y2="1360.5"/><!--MD5=[56f671791a7bc69038cb91d87520b796]
class Parameters--><rect codeLine="10" fill="#FEFECE" filter="url(#ffk5rkqvf0eq6)" height="72" id="Parameters" style="stroke:#A80036;stroke-width:2.25;" width="145.5" x="723" y="1048.5"/><ellipse cx="745.5" cy="1072.5" fill="#ADD1B2" rx="16.5" ry="16.5" style="stroke:#A80036;stroke-width:1.5;"/><path d="M748.5,1067.25 Q748.8047,1066.5 749.1563,1066.125 Q749.5078,1065.75 749.9063,1065.75 Q750.6094,1065.75 751.0547,1066.1719 Q751.5,1066.5938 751.5,1067.5781 L751.5,1069.9219 Q751.5,1070.9063 751.0781,1071.3281 Q750.6563,1071.75 750,1071.75 Q749.4141,1071.75 749.0391,1071.4922 Q748.6641,1071.2344 748.5,1070.5547 Q748.4297,1070.0859 748.1719,1069.8281 Q747.7031,1069.3359 746.8594,1069.0547 Q746.0156,1068.75 745.1719,1068.75 Q744.1172,1068.75 743.2266,1069.1719 Q742.3594,1069.5938 741.6797,1070.5313 Q741,1071.4688 741,1072.7578 L741,1074.1406 Q741,1075.6875 742.2656,1076.7188 Q743.5313,1077.75 745.7813,1077.75 Q747.1172,1077.75 748.0547,1077.4453 Q748.5938,1077.2813 749.2031,1076.7422 Q749.6016,1076.4375 749.8125,1076.3438 Q750.0234,1076.25 750.2813,1076.25 Q750.7734,1076.25 751.125,1076.6484 Q751.5,1077.0234 751.5,1077.5625 Q751.5,1078.0781 750.9844,1078.6875 Q750.2344,1079.5781 749.0391,1080.0703 Q747.4688,1080.75 745.5469,1080.75 Q743.2969,1080.75 741.4922,1079.8594 Q740.0391,1079.1563 739.0078,1077.6328 Q738,1076.1094 738,1074.3047 L738,1072.6641 Q738,1070.7891 738.8906,1069.1484 Q739.8047,1067.5078 741.375,1066.6406 Q742.9688,1065.75 744.75,1065.75 Q745.8281,1065.75 746.7656,1066.125 Q747.7031,1066.5 748.5,1067.25 Z " fill="#000000"/><text fill="#000000" font-family="sans-serif" font-size="18" lengthAdjust="spacing" textLength="97.5" x="766.5" y="1079.8652">Parameters</text><line style="stroke:#A80036;stroke-width:2.25;" x1="724.5" x2="867" y1="1096.5" y2="1096.5"/><line style="stroke:#A80036;stroke-width:2.25;" x1="724.5" x2="867" y1="1108.5" y2="1108.5"/><!--MD5=[9681492165142af2a4a3a169d90ee8d4]
class Sample--><rect codeLine="52" fill="#FEFECE" filter="url(#ffk5rkqvf0eq6)" height="113.5078" id="Sample" style="stroke:#A80036;stroke-width:2.25;" width="127.5" x="271.5" y="1624.5"/><ellipse cx="300.75" cy="1648.5" fill="#ADD1B2" rx="16.5" ry="16.5" style="stroke:#A80036;stroke-width:1.5;"/><path d="M303.75,1643.25 Q304.0547,1642.5 304.4063,1642.125 Q304.7578,1641.75 305.1563,1641.75 Q305.8594,1641.75 306.3047,1642.1719 Q306.75,1642.5938 306.75,1643.5781 L306.75,1645.9219 Q306.75,1646.9063 306.3281,1647.3281 Q305.9063,1647.75 305.25,1647.75 Q304.6641,1647.75 304.2891,1647.4922 Q303.9141,1647.2344 303.75,1646.5547 Q303.6797,1646.0859 303.4219,1645.8281 Q302.9531,1645.3359 302.1094,1645.0547 Q301.2656,1644.75 300.4219,1644.75 Q299.3672,1644.75 298.4766,1645.1719 Q297.6094,1645.5938 296.9297,1646.5313 Q296.25,1647.4688 296.25,1648.7578 L296.25,1650.1406 Q296.25,1651.6875 297.5156,1652.7188 Q298.7813,1653.75 301.0313,1653.75 Q302.3672,1653.75 303.3047,1653.4453 Q303.8438,1653.2813 304.4531,1652.7422 Q304.8516,1652.4375 305.0625,1652.3438 Q305.2734,1652.25 305.5313,1652.25 Q306.0234,1652.25 306.375,1652.6484 Q306.75,1653.0234 306.75,1653.5625 Q306.75,1654.0781 306.2344,1654.6875 Q305.4844,1655.5781 304.2891,1656.0703 Q302.7188,1656.75 300.7969,1656.75 Q298.5469,1656.75 296.7422,1655.8594 Q295.2891,1655.1563 294.2578,1653.6328 Q293.25,1652.1094 293.25,1650.3047 L293.25,1648.6641 Q293.25,1646.7891 294.1406,1645.1484 Q295.0547,1643.5078 296.625,1642.6406 Q298.2188,1641.75 300,1641.75 Q301.0781,1641.75 302.0156,1642.125 Q302.9531,1642.5 303.75,1643.25 Z " fill="#000000"/><text fill="#000000" font-family="sans-serif" font-size="18" lengthAdjust="spacing" textLength="64.5" x="323.25" y="1655.8652">Sample</text><line style="stroke:#A80036;stroke-width:2.25;" x1="273" x2="397.5" y1="1672.5" y2="1672.5"/><text fill="#000000" font-family="sans-serif" font-size="16.5" lengthAdjust="spacing" textLength="66" x="280.5" y="1695.6284">-barcode</text><text fill="#000000" font-family="sans-serif" font-size="16.5" lengthAdjust="spacing" textLength="109.5" x="280.5" y="1716.3823">-collection date</text><line style="stroke:#A80036;stroke-width:2.25;" x1="273" x2="397.5" y1="1726.0078" y2="1726.0078"/><!--MD5=[3a31710ff0fe32e4db47bca97b229f4c]
class Medical_Lab_Technician--><rect codeLine="56" fill="#FEFECE" filter="url(#ffk5rkqvf0eq6)" height="134.2617" id="Medical_Lab_Technician" style="stroke:#A80036;stroke-width:2.25;" width="253.5" x="714" y="1614"/><ellipse cx="736.5" cy="1638" fill="#ADD1B2" rx="16.5" ry="16.5" style="stroke:#A80036;stroke-width:1.5;"/><path d="M739.5,1632.75 Q739.8047,1632 740.1563,1631.625 Q740.5078,1631.25 740.9063,1631.25 Q741.6094,1631.25 742.0547,1631.6719 Q742.5,1632.0938 742.5,1633.0781 L742.5,1635.4219 Q742.5,1636.4063 742.0781,1636.8281 Q741.6563,1637.25 741,1637.25 Q740.4141,1637.25 740.0391,1636.9922 Q739.6641,1636.7344 739.5,1636.0547 Q739.4297,1635.5859 739.1719,1635.3281 Q738.7031,1634.8359 737.8594,1634.5547 Q737.0156,1634.25 736.1719,1634.25 Q735.1172,1634.25 734.2266,1634.6719 Q733.3594,1635.0938 732.6797,1636.0313 Q732,1636.9688 732,1638.2578 L732,1639.6406 Q732,1641.1875 733.2656,1642.2188 Q734.5313,1643.25 736.7813,1643.25 Q738.1172,1643.25 739.0547,1642.9453 Q739.5938,1642.7813 740.2031,1642.2422 Q740.6016,1641.9375 740.8125,1641.8438 Q741.0234,1641.75 741.2813,1641.75 Q741.7734,1641.75 742.125,1642.1484 Q742.5,1642.5234 742.5,1643.0625 Q742.5,1643.5781 741.9844,1644.1875 Q741.2344,1645.0781 740.0391,1645.5703 Q738.4688,1646.25 736.5469,1646.25 Q734.2969,1646.25 732.4922,1645.3594 Q731.0391,1644.6563 730.0078,1643.1328 Q729,1641.6094 729,1639.8047 L729,1638.1641 Q729,1636.2891 729.8906,1634.6484 Q730.8047,1633.0078 732.375,1632.1406 Q733.9688,1631.25 735.75,1631.25 Q736.8281,1631.25 737.7656,1631.625 Q738.7031,1632 739.5,1632.75 Z " fill="#000000"/><text fill="#000000" font-family="sans-serif" font-size="18" lengthAdjust="spacing" textLength="205.5" x="757.5" y="1645.3652">Medical_Lab_Technician</text><line style="stroke:#A80036;stroke-width:2.25;" x1="715.5" x2="966" y1="1662" y2="1662"/><text fill="#000000" font-family="sans-serif" font-size="16.5" lengthAdjust="spacing" textLength="45" x="723" y="1685.1284">-name</text><text fill="#000000" font-family="sans-serif" font-size="16.5" lengthAdjust="spacing" textLength="42" x="723" y="1705.8823">-email</text><text fill="#000000" font-family="sans-serif" font-size="16.5" lengthAdjust="spacing" textLength="81" x="723" y="1726.6362">-password</text><line style="stroke:#A80036;stroke-width:2.25;" x1="715.5" x2="966" y1="1736.2617" y2="1736.2617"/><!--MD5=[5a42d898e2a5d299cc26761d1eaa7d84]
class Doctor--><rect codeLine="39" fill="#FEFECE" filter="url(#ffk5rkqvf0eq6)" height="134.2617" id="Doctor" style="stroke:#A80036;stroke-width:2.25;" width="102" x="497.25" y="2328"/><ellipse cx="519.75" cy="2352" fill="#ADD1B2" rx="16.5" ry="16.5" style="stroke:#A80036;stroke-width:1.5;"/><path d="M522.75,2346.75 Q523.0547,2346 523.4063,2345.625 Q523.7578,2345.25 524.1563,2345.25 Q524.8594,2345.25 525.3047,2345.6719 Q525.75,2346.0938 525.75,2347.0781 L525.75,2349.4219 Q525.75,2350.4063 525.3281,2350.8281 Q524.9063,2351.25 524.25,2351.25 Q523.6641,2351.25 523.2891,2350.9922 Q522.9141,2350.7344 522.75,2350.0547 Q522.6797,2349.5859 522.4219,2349.3281 Q521.9531,2348.8359 521.1094,2348.5547 Q520.2656,2348.25 519.4219,2348.25 Q518.3672,2348.25 517.4766,2348.6719 Q516.6094,2349.0938 515.9297,2350.0313 Q515.25,2350.9688 515.25,2352.2578 L515.25,2353.6406 Q515.25,2355.1875 516.5156,2356.2188 Q517.7813,2357.25 520.0313,2357.25 Q521.3672,2357.25 522.3047,2356.9453 Q522.8438,2356.7813 523.4531,2356.2422 Q523.8516,2355.9375 524.0625,2355.8438 Q524.2734,2355.75 524.5313,2355.75 Q525.0234,2355.75 525.375,2356.1484 Q525.75,2356.5234 525.75,2357.0625 Q525.75,2357.5781 525.2344,2358.1875 Q524.4844,2359.0781 523.2891,2359.5703 Q521.7188,2360.25 519.7969,2360.25 Q517.5469,2360.25 515.7422,2359.3594 Q514.2891,2358.6563 513.2578,2357.1328 Q512.25,2355.6094 512.25,2353.8047 L512.25,2352.1641 Q512.25,2350.2891 513.1406,2348.6484 Q514.0547,2347.0078 515.625,2346.1406 Q517.2188,2345.25 519,2345.25 Q520.0781,2345.25 521.0156,2345.625 Q521.9531,2346 522.75,2346.75 Z " fill="#000000"/><text fill="#000000" font-family="sans-serif" font-size="18" lengthAdjust="spacing" textLength="54" x="540.75" y="2359.3652">Doctor</text><line style="stroke:#A80036;stroke-width:2.25;" x1="498.75" x2="597.75" y1="2376" y2="2376"/><text fill="#000000" font-family="sans-serif" font-size="16.5" lengthAdjust="spacing" textLength="45" x="506.25" y="2399.1284">-name</text><text fill="#000000" font-family="sans-serif" font-size="16.5" lengthAdjust="spacing" textLength="42" x="506.25" y="2419.8823">-email</text><text fill="#000000" font-family="sans-serif" font-size="16.5" lengthAdjust="spacing" textLength="81" x="506.25" y="2440.6362">-password</text><line style="stroke:#A80036;stroke-width:2.25;" x1="498.75" x2="597.75" y1="2450.2617" y2="2450.2617"/><!--MD5=[f00dbe8c0302c6aec2cb26b3c659c8fc]
class Report--><rect codeLine="44" fill="#FEFECE" filter="url(#ffk5rkqvf0eq6)" height="92.7539" id="Report" style="stroke:#A80036;stroke-width:2.25;" width="103.5" x="714" y="2349"/><ellipse cx="736.5" cy="2373" fill="#ADD1B2" rx="16.5" ry="16.5" style="stroke:#A80036;stroke-width:1.5;"/><path d="M739.5,2367.75 Q739.8047,2367 740.1563,2366.625 Q740.5078,2366.25 740.9063,2366.25 Q741.6094,2366.25 742.0547,2366.6719 Q742.5,2367.0938 742.5,2368.0781 L742.5,2370.4219 Q742.5,2371.4063 742.0781,2371.8281 Q741.6563,2372.25 741,2372.25 Q740.4141,2372.25 740.0391,2371.9922 Q739.6641,2371.7344 739.5,2371.0547 Q739.4297,2370.5859 739.1719,2370.3281 Q738.7031,2369.8359 737.8594,2369.5547 Q737.0156,2369.25 736.1719,2369.25 Q735.1172,2369.25 734.2266,2369.6719 Q733.3594,2370.0938 732.6797,2371.0313 Q732,2371.9688 732,2373.2578 L732,2374.6406 Q732,2376.1875 733.2656,2377.2188 Q734.5313,2378.25 736.7813,2378.25 Q738.1172,2378.25 739.0547,2377.9453 Q739.5938,2377.7813 740.2031,2377.2422 Q740.6016,2376.9375 740.8125,2376.8438 Q741.0234,2376.75 741.2813,2376.75 Q741.7734,2376.75 742.125,2377.1484 Q742.5,2377.5234 742.5,2378.0625 Q742.5,2378.5781 741.9844,2379.1875 Q741.2344,2380.0781 740.0391,2380.5703 Q738.4688,2381.25 736.5469,2381.25 Q734.2969,2381.25 732.4922,2380.3594 Q731.0391,2379.6563 730.0078,2378.1328 Q729,2376.6094 729,2374.8047 L729,2373.1641 Q729,2371.2891 729.8906,2369.6484 Q730.8047,2368.0078 732.375,2367.1406 Q733.9688,2366.25 735.75,2366.25 Q736.8281,2366.25 737.7656,2366.625 Q738.7031,2367 739.5,2367.75 Z " fill="#000000"/><text fill="#000000" font-family="sans-serif" font-size="18" lengthAdjust="spacing" textLength="55.5" x="757.5" y="2380.3652">Report</text><line style="stroke:#A80036;stroke-width:2.25;" x1="715.5" x2="816" y1="2397" y2="2397"/><text fill="#000000" font-family="sans-serif" font-size="16.5" lengthAdjust="spacing" textLength="75" x="723" y="2420.1284">-diagnosis</text><line style="stroke:#A80036;stroke-width:2.25;" x1="715.5" x2="816" y1="2429.7539" y2="2429.7539"/><!--MD5=[88c7cd8b94a08243205aff172d14c4f7]
class Chemical_Analyses--><rect codeLine="15" fill="#FEFECE" filter="url(#ffk5rkqvf0eq6)" height="72" id="Chemical_Analyses" style="stroke:#A80036;stroke-width:2.25;" width="213" x="104.25" y="2359.5"/><ellipse cx="126.75" cy="2383.5" fill="#ADD1B2" rx="16.5" ry="16.5" style="stroke:#A80036;stroke-width:1.5;"/><path d="M129.75,2378.25 Q130.0547,2377.5 130.4063,2377.125 Q130.7578,2376.75 131.1563,2376.75 Q131.8594,2376.75 132.3047,2377.1719 Q132.75,2377.5938 132.75,2378.5781 L132.75,2380.9219 Q132.75,2381.9063 132.3281,2382.3281 Q131.9063,2382.75 131.25,2382.75 Q130.6641,2382.75 130.2891,2382.4922 Q129.9141,2382.2344 129.75,2381.5547 Q129.6797,2381.0859 129.4219,2380.8281 Q128.9531,2380.3359 128.1094,2380.0547 Q127.2656,2379.75 126.4219,2379.75 Q125.3672,2379.75 124.4766,2380.1719 Q123.6094,2380.5938 122.9297,2381.5313 Q122.25,2382.4688 122.25,2383.7578 L122.25,2385.1406 Q122.25,2386.6875 123.5156,2387.7188 Q124.7813,2388.75 127.0313,2388.75 Q128.3672,2388.75 129.3047,2388.4453 Q129.8438,2388.2813 130.4531,2387.7422 Q130.8516,2387.4375 131.0625,2387.3438 Q131.2734,2387.25 131.5313,2387.25 Q132.0234,2387.25 132.375,2387.6484 Q132.75,2388.0234 132.75,2388.5625 Q132.75,2389.0781 132.2344,2389.6875 Q131.4844,2390.5781 130.2891,2391.0703 Q128.7188,2391.75 126.7969,2391.75 Q124.5469,2391.75 122.7422,2390.8594 Q121.2891,2390.1563 120.2578,2388.6328 Q119.25,2387.1094 119.25,2385.3047 L119.25,2383.6641 Q119.25,2381.7891 120.1406,2380.1484 Q121.0547,2378.5078 122.625,2377.6406 Q124.2188,2376.75 126,2376.75 Q127.0781,2376.75 128.0156,2377.125 Q128.9531,2377.5 129.75,2378.25 Z " fill="#000000"/><text fill="#000000" font-family="sans-serif" font-size="18" lengthAdjust="spacing" textLength="165" x="147.75" y="2390.8652">Chemical_Analyses</text><line style="stroke:#A80036;stroke-width:2.25;" x1="105.75" x2="315.75" y1="2407.5" y2="2407.5"/><line style="stroke:#A80036;stroke-width:2.25;" x1="105.75" x2="315.75" y1="2419.5" y2="2419.5"/><!--MD5=[34c242df592fe6116019f1c4c26784f4]
class Chemical_Laboratory--><rect codeLine="31" fill="#FEFECE" filter="url(#ffk5rkqvf0eq6)" height="92.7539" id="Chemical_Laboratory" style="stroke:#A80036;stroke-width:2.25;" width="225" x="98.25" y="1866"/><ellipse cx="120.75" cy="1890" fill="#ADD1B2" rx="16.5" ry="16.5" style="stroke:#A80036;stroke-width:1.5;"/><path d="M123.75,1884.75 Q124.0547,1884 124.4063,1883.625 Q124.7578,1883.25 125.1563,1883.25 Q125.8594,1883.25 126.3047,1883.6719 Q126.75,1884.0938 126.75,1885.0781 L126.75,1887.4219 Q126.75,1888.4063 126.3281,1888.8281 Q125.9063,1889.25 125.25,1889.25 Q124.6641,1889.25 124.2891,1888.9922 Q123.9141,1888.7344 123.75,1888.0547 Q123.6797,1887.5859 123.4219,1887.3281 Q122.9531,1886.8359 122.1094,1886.5547 Q121.2656,1886.25 120.4219,1886.25 Q119.3672,1886.25 118.4766,1886.6719 Q117.6094,1887.0938 116.9297,1888.0313 Q116.25,1888.9688 116.25,1890.2578 L116.25,1891.6406 Q116.25,1893.1875 117.5156,1894.2188 Q118.7813,1895.25 121.0313,1895.25 Q122.3672,1895.25 123.3047,1894.9453 Q123.8438,1894.7813 124.4531,1894.2422 Q124.8516,1893.9375 125.0625,1893.8438 Q125.2734,1893.75 125.5313,1893.75 Q126.0234,1893.75 126.375,1894.1484 Q126.75,1894.5234 126.75,1895.0625 Q126.75,1895.5781 126.2344,1896.1875 Q125.4844,1897.0781 124.2891,1897.5703 Q122.7188,1898.25 120.7969,1898.25 Q118.5469,1898.25 116.7422,1897.3594 Q115.2891,1896.6563 114.2578,1895.1328 Q113.25,1893.6094 113.25,1891.8047 L113.25,1890.1641 Q113.25,1888.2891 114.1406,1886.6484 Q115.0547,1885.0078 116.625,1884.1406 Q118.2188,1883.25 120,1883.25 Q121.0781,1883.25 122.0156,1883.625 Q122.9531,1884 123.75,1884.75 Z " fill="#000000"/><text fill="#000000" font-family="sans-serif" font-size="18" lengthAdjust="spacing" textLength="177" x="141.75" y="1897.3652">Chemical_Laboratory</text><line style="stroke:#A80036;stroke-width:2.25;" x1="99.75" x2="321.75" y1="1914" y2="1914"/><text fill="#000000" font-family="sans-serif" font-size="16.5" lengthAdjust="spacing" textLength="106.5" x="107.25" y="1937.1284">-phoneNumber</text><line style="stroke:#A80036;stroke-width:2.25;" x1="99.75" x2="321.75" y1="1946.7539" y2="1946.7539"/><!--MD5=[b61e69a70bb7e771c8a5603a4a917a69]
class Clinical_Chemistry_Technologist--><rect codeLine="34" fill="#FEFECE" filter="url(#ffk5rkqvf0eq6)" height="134.2617" id="Clinical_Chemistry_Technologist" style="stroke:#A80036;stroke-width:2.25;" width="321" x="50.25" y="2076"/><ellipse cx="72.75" cy="2100" fill="#ADD1B2" rx="16.5" ry="16.5" style="stroke:#A80036;stroke-width:1.5;"/><path d="M75.75,2094.75 Q76.0547,2094 76.4063,2093.625 Q76.7578,2093.25 77.1563,2093.25 Q77.8594,2093.25 78.3047,2093.6719 Q78.75,2094.0938 78.75,2095.0781 L78.75,2097.4219 Q78.75,2098.4063 78.3281,2098.8281 Q77.9063,2099.25 77.25,2099.25 Q76.6641,2099.25 76.2891,2098.9922 Q75.9141,2098.7344 75.75,2098.0547 Q75.6797,2097.5859 75.4219,2097.3281 Q74.9531,2096.8359 74.1094,2096.5547 Q73.2656,2096.25 72.4219,2096.25 Q71.3672,2096.25 70.4766,2096.6719 Q69.6094,2097.0938 68.9297,2098.0313 Q68.25,2098.9688 68.25,2100.2578 L68.25,2101.6406 Q68.25,2103.1875 69.5156,2104.2188 Q70.7813,2105.25 73.0313,2105.25 Q74.3672,2105.25 75.3047,2104.9453 Q75.8438,2104.7813 76.4531,2104.2422 Q76.8516,2103.9375 77.0625,2103.8438 Q77.2734,2103.75 77.5313,2103.75 Q78.0234,2103.75 78.375,2104.1484 Q78.75,2104.5234 78.75,2105.0625 Q78.75,2105.5781 78.2344,2106.1875 Q77.4844,2107.0781 76.2891,2107.5703 Q74.7188,2108.25 72.7969,2108.25 Q70.5469,2108.25 68.7422,2107.3594 Q67.2891,2106.6563 66.2578,2105.1328 Q65.25,2103.6094 65.25,2101.8047 L65.25,2100.1641 Q65.25,2098.2891 66.1406,2096.6484 Q67.0547,2095.0078 68.625,2094.1406 Q70.2188,2093.25 72,2093.25 Q73.0781,2093.25 74.0156,2093.625 Q74.9531,2094 75.75,2094.75 Z " fill="#000000"/><text fill="#000000" font-family="sans-serif" font-size="18" lengthAdjust="spacing" textLength="273" x="93.75" y="2107.3652">Clinical_Chemistry_Technologist</text><line style="stroke:#A80036;stroke-width:2.25;" x1="51.75" x2="369.75" y1="2124" y2="2124"/><text fill="#000000" font-family="sans-serif" font-size="16.5" lengthAdjust="spacing" textLength="45" x="59.25" y="2147.1284">-name</text><text fill="#000000" font-family="sans-serif" font-size="16.5" lengthAdjust="spacing" textLength="42" x="59.25" y="2167.8823">-email</text><text fill="#000000" font-family="sans-serif" font-size="16.5" lengthAdjust="spacing" textLength="81" x="59.25" y="2188.6362">-password</text><line style="stroke:#A80036;stroke-width:2.25;" x1="51.75" x2="369.75" y1="2198.2617" y2="2198.2617"/><!--MD5=[a999c1570c205a2156b04a15307bc1ff]
class LabOrder--><rect codeLine="18" fill="#FEFECE" filter="url(#ffk5rkqvf0eq6)" height="72" id="LabOrder" style="stroke:#A80036;stroke-width:2.25;" width="126" x="540.75" y="618"/><ellipse cx="563.25" cy="642" fill="#ADD1B2" rx="16.5" ry="16.5" style="stroke:#A80036;stroke-width:1.5;"/><path d="M566.25,636.75 Q566.5547,636 566.9063,635.625 Q567.2578,635.25 567.6563,635.25 Q568.3594,635.25 568.8047,635.6719 Q569.25,636.0938 569.25,637.0781 L569.25,639.4219 Q569.25,640.4063 568.8281,640.8281 Q568.4063,641.25 567.75,641.25 Q567.1641,641.25 566.7891,640.9922 Q566.4141,640.7344 566.25,640.0547 Q566.1797,639.5859 565.9219,639.3281 Q565.4531,638.8359 564.6094,638.5547 Q563.7656,638.25 562.9219,638.25 Q561.8672,638.25 560.9766,638.6719 Q560.1094,639.0938 559.4297,640.0313 Q558.75,640.9688 558.75,642.2578 L558.75,643.6406 Q558.75,645.1875 560.0156,646.2188 Q561.2813,647.25 563.5313,647.25 Q564.8672,647.25 565.8047,646.9453 Q566.3438,646.7813 566.9531,646.2422 Q567.3516,645.9375 567.5625,645.8438 Q567.7734,645.75 568.0313,645.75 Q568.5234,645.75 568.875,646.1484 Q569.25,646.5234 569.25,647.0625 Q569.25,647.5781 568.7344,648.1875 Q567.9844,649.0781 566.7891,649.5703 Q565.2188,650.25 563.2969,650.25 Q561.0469,650.25 559.2422,649.3594 Q557.7891,648.6563 556.7578,647.1328 Q555.75,645.6094 555.75,643.8047 L555.75,642.1641 Q555.75,640.2891 556.6406,638.6484 Q557.5547,637.0078 559.125,636.1406 Q560.7188,635.25 562.5,635.25 Q563.5781,635.25 564.5156,635.625 Q565.4531,636 566.25,636.75 Z " fill="#000000"/><text fill="#000000" font-family="sans-serif" font-size="18" lengthAdjust="spacing" textLength="78" x="584.25" y="649.3652">LabOrder</text><line style="stroke:#A80036;stroke-width:2.25;" x1="542.25" x2="665.25" y1="666" y2="666"/><line style="stroke:#A80036;stroke-width:2.25;" x1="542.25" x2="665.25" y1="678" y2="678"/><!--MD5=[ed6624c6556d5e7b1bd23032162d20b7]
class Client--><rect codeLine="83" fill="#FEFECE" filter="url(#ffk5rkqvf0eq6)" height="238.0313" id="Client" style="stroke:#A80036;stroke-width:2.25;" width="171" x="572.25" y="262.5"/><ellipse cx="628.5" cy="286.5" fill="#ADD1B2" rx="16.5" ry="16.5" style="stroke:#A80036;stroke-width:1.5;"/><path d="M631.5,281.25 Q631.8047,280.5 632.1563,280.125 Q632.5078,279.75 632.9063,279.75 Q633.6094,279.75 634.0547,280.1719 Q634.5,280.5938 634.5,281.5781 L634.5,283.9219 Q634.5,284.9063 634.0781,285.3281 Q633.6563,285.75 633,285.75 Q632.4141,285.75 632.0391,285.4922 Q631.6641,285.2344 631.5,284.5547 Q631.4297,284.0859 631.1719,283.8281 Q630.7031,283.3359 629.8594,283.0547 Q629.0156,282.75 628.1719,282.75 Q627.1172,282.75 626.2266,283.1719 Q625.3594,283.5938 624.6797,284.5313 Q624,285.4688 624,286.7578 L624,288.1406 Q624,289.6875 625.2656,290.7188 Q626.5313,291.75 628.7813,291.75 Q630.1172,291.75 631.0547,291.4453 Q631.5938,291.2813 632.2031,290.7422 Q632.6016,290.4375 632.8125,290.3438 Q633.0234,290.25 633.2813,290.25 Q633.7734,290.25 634.125,290.6484 Q634.5,291.0234 634.5,291.5625 Q634.5,292.0781 633.9844,292.6875 Q633.2344,293.5781 632.0391,294.0703 Q630.4688,294.75 628.5469,294.75 Q626.2969,294.75 624.4922,293.8594 Q623.0391,293.1563 622.0078,291.6328 Q621,290.1094 621,288.3047 L621,286.6641 Q621,284.7891 621.8906,283.1484 Q622.8047,281.5078 624.375,280.6406 Q625.9688,279.75 627.75,279.75 Q628.8281,279.75 629.7656,280.125 Q630.7031,280.5 631.5,281.25 Z " fill="#000000"/><text fill="#000000" font-family="sans-serif" font-size="18" lengthAdjust="spacing" textLength="48" x="657" y="293.8652">Client</text><line style="stroke:#A80036;stroke-width:2.25;" x1="573.75" x2="741.75" y1="310.5" y2="310.5"/><text fill="#000000" font-family="sans-serif" font-size="16.5" lengthAdjust="spacing" textLength="46.5" x="581.25" y="333.6284">-Name</text><text fill="#000000" font-family="sans-serif" font-size="16.5" lengthAdjust="spacing" textLength="42" x="581.25" y="354.3823">-Email</text><text fill="#000000" font-family="sans-serif" font-size="16.5" lengthAdjust="spacing" textLength="111" x="581.25" y="375.1362">-Phone Number</text><text fill="#000000" font-family="sans-serif" font-size="16.5" lengthAdjust="spacing" textLength="34.5" x="581.25" y="395.8901">-Sex</text><text fill="#000000" font-family="sans-serif" font-size="16.5" lengthAdjust="spacing" textLength="27" x="581.25" y="416.644">-TIF</text><text fill="#000000" font-family="sans-serif" font-size="16.5" lengthAdjust="spacing" textLength="76.5" x="581.25" y="437.3979">-Birth Date</text><text fill="#000000" font-family="sans-serif" font-size="16.5" lengthAdjust="spacing" textLength="97.5" x="581.25" y="458.1519">-NHS Number</text><text fill="#000000" font-family="sans-serif" font-size="16.5" lengthAdjust="spacing" textLength="153" x="581.25" y="478.9058">-Citizen Card Number</text><line style="stroke:#A80036;stroke-width:2.25;" x1="573.75" x2="741.75" y1="488.5313" y2="488.5313"/><!--MD5=[c013d92ead36e014512d2b24f31a2748]
class Laboratory_Coordinator--><rect codeLine="47" fill="#FEFECE" filter="url(#ffk5rkqvf0eq6)" height="134.2617" id="Laboratory_Coordinator" style="stroke:#A80036;stroke-width:2.25;" width="243" x="533.25" y="2076"/><ellipse cx="555.75" cy="2100" fill="#ADD1B2" rx="16.5" ry="16.5" style="stroke:#A80036;stroke-width:1.5;"/><path d="M558.75,2094.75 Q559.0547,2094 559.4063,2093.625 Q559.7578,2093.25 560.1563,2093.25 Q560.8594,2093.25 561.3047,2093.6719 Q561.75,2094.0938 561.75,2095.0781 L561.75,2097.4219 Q561.75,2098.4063 561.3281,2098.8281 Q560.9063,2099.25 560.25,2099.25 Q559.6641,2099.25 559.2891,2098.9922 Q558.9141,2098.7344 558.75,2098.0547 Q558.6797,2097.5859 558.4219,2097.3281 Q557.9531,2096.8359 557.1094,2096.5547 Q556.2656,2096.25 555.4219,2096.25 Q554.3672,2096.25 553.4766,2096.6719 Q552.6094,2097.0938 551.9297,2098.0313 Q551.25,2098.9688 551.25,2100.2578 L551.25,2101.6406 Q551.25,2103.1875 552.5156,2104.2188 Q553.7813,2105.25 556.0313,2105.25 Q557.3672,2105.25 558.3047,2104.9453 Q558.8438,2104.7813 559.4531,2104.2422 Q559.8516,2103.9375 560.0625,2103.8438 Q560.2734,2103.75 560.5313,2103.75 Q561.0234,2103.75 561.375,2104.1484 Q561.75,2104.5234 561.75,2105.0625 Q561.75,2105.5781 561.2344,2106.1875 Q560.4844,2107.0781 559.2891,2107.5703 Q557.7188,2108.25 555.7969,2108.25 Q553.5469,2108.25 551.7422,2107.3594 Q550.2891,2106.6563 549.2578,2105.1328 Q548.25,2103.6094 548.25,2101.8047 L548.25,2100.1641 Q548.25,2098.2891 549.1406,2096.6484 Q550.0547,2095.0078 551.625,2094.1406 Q553.2188,2093.25 555,2093.25 Q556.0781,2093.25 557.0156,2093.625 Q557.9531,2094 558.75,2094.75 Z " fill="#000000"/><text fill="#000000" font-family="sans-serif" font-size="18" lengthAdjust="spacing" textLength="195" x="576.75" y="2107.3652">Laboratory_Coordinator</text><line style="stroke:#A80036;stroke-width:2.25;" x1="534.75" x2="774.75" y1="2124" y2="2124"/><text fill="#000000" font-family="sans-serif" font-size="16.5" lengthAdjust="spacing" textLength="45" x="542.25" y="2147.1284">-name</text><text fill="#000000" font-family="sans-serif" font-size="16.5" lengthAdjust="spacing" textLength="42" x="542.25" y="2167.8823">-email</text><text fill="#000000" font-family="sans-serif" font-size="16.5" lengthAdjust="spacing" textLength="81" x="542.25" y="2188.6362">-password</text><line style="stroke:#A80036;stroke-width:2.25;" x1="534.75" x2="774.75" y1="2198.2617" y2="2198.2617"/><!--MD5=[da547346deef918ea16944ba046651ef]
class Administrator--><rect codeLine="69" fill="#FEFECE" filter="url(#ffk5rkqvf0eq6)" height="134.2617" id="Administrator" style="stroke:#A80036;stroke-width:2.25;" width="157.5" x="727.5" y="1269"/><ellipse cx="750" cy="1293" fill="#ADD1B2" rx="16.5" ry="16.5" style="stroke:#A80036;stroke-width:1.5;"/><path d="M753,1287.75 Q753.3047,1287 753.6563,1286.625 Q754.0078,1286.25 754.4063,1286.25 Q755.1094,1286.25 755.5547,1286.6719 Q756,1287.0938 756,1288.0781 L756,1290.4219 Q756,1291.4063 755.5781,1291.8281 Q755.1563,1292.25 754.5,1292.25 Q753.9141,1292.25 753.5391,1291.9922 Q753.1641,1291.7344 753,1291.0547 Q752.9297,1290.5859 752.6719,1290.3281 Q752.2031,1289.8359 751.3594,1289.5547 Q750.5156,1289.25 749.6719,1289.25 Q748.6172,1289.25 747.7266,1289.6719 Q746.8594,1290.0938 746.1797,1291.0313 Q745.5,1291.9688 745.5,1293.2578 L745.5,1294.6406 Q745.5,1296.1875 746.7656,1297.2188 Q748.0313,1298.25 750.2813,1298.25 Q751.6172,1298.25 752.5547,1297.9453 Q753.0938,1297.7813 753.7031,1297.2422 Q754.1016,1296.9375 754.3125,1296.8438 Q754.5234,1296.75 754.7813,1296.75 Q755.2734,1296.75 755.625,1297.1484 Q756,1297.5234 756,1298.0625 Q756,1298.5781 755.4844,1299.1875 Q754.7344,1300.0781 753.5391,1300.5703 Q751.9688,1301.25 750.0469,1301.25 Q747.7969,1301.25 745.9922,1300.3594 Q744.5391,1299.6563 743.5078,1298.1328 Q742.5,1296.6094 742.5,1294.8047 L742.5,1293.1641 Q742.5,1291.2891 743.3906,1289.6484 Q744.3047,1288.0078 745.875,1287.1406 Q747.4688,1286.25 749.25,1286.25 Q750.3281,1286.25 751.2656,1286.625 Q752.2031,1287 753,1287.75 Z " fill="#000000"/><text fill="#000000" font-family="sans-serif" font-size="18" lengthAdjust="spacing" textLength="109.5" x="771" y="1300.3652">Administrator</text><line style="stroke:#A80036;stroke-width:2.25;" x1="729" x2="883.5" y1="1317" y2="1317"/><text fill="#000000" font-family="sans-serif" font-size="16.5" lengthAdjust="spacing" textLength="45" x="736.5" y="1340.1284">-name</text><text fill="#000000" font-family="sans-serif" font-size="16.5" lengthAdjust="spacing" textLength="42" x="736.5" y="1360.8823">-email</text><text fill="#000000" font-family="sans-serif" font-size="16.5" lengthAdjust="spacing" textLength="81" x="736.5" y="1381.6362">-password</text><line style="stroke:#A80036;stroke-width:2.25;" x1="729" x2="883.5" y1="1391.2617" y2="1391.2617"/><!--MD5=[067c7b54f750bccbfcadee5c648044a4]
link Company to Clinical_Analysis_Laboratory--><path codeLine="95" d="M138.075,78 C172.275,78 215.88,78 257.715,78 " fill="none" id="Company-Clinical_Analysis_Laboratory" style="stroke:#A80036;stroke-width:1.5;"/><polygon fill="#000000" points="179.25,60.2637,165.6824,55.8553,165.6824,64.6721,179.25,60.2637" style="stroke:#000000;stroke-width:1.5;"/><text fill="#000000" font-family="sans-serif" font-size="19.5" lengthAdjust="spacing" textLength="45" x="185.25" y="68.2427">owns</text><text fill="#000000" font-family="sans-serif" font-size="19.5" lengthAdjust="spacing" textLength="10.5" x="149.9473" y="72.2889">1</text><text fill="#000000" font-family="sans-serif" font-size="19.5" lengthAdjust="spacing" textLength="30" x="216.0726" y="99.1614">1..*</text><!--MD5=[b266d3d862fa7340fde466c43f1e27c4]
link Company to Headquarter--><path codeLine="96" d="M104.64,146.04 C129.21,205.995 159.75,297.195 159.75,380.25 C159.75,380.25 159.75,380.25 159.75,750 C159.75,793.815 160.71,843.81 161.55,878.94 " fill="none" id="Company-Headquarter" style="stroke:#A80036;stroke-width:1.5;"/><polygon fill="#000000" points="167.8306,567.2412,171.1754,553.373,162.3851,554.0555,167.8306,567.2412" style="stroke:#000000;stroke-width:1.5;"/><text fill="#000000" font-family="sans-serif" font-size="19.5" lengthAdjust="spacing" textLength="48" x="180.75" y="567.7427">has a</text><text fill="#000000" font-family="sans-serif" font-size="19.5" lengthAdjust="spacing" textLength="10.5" x="97.5182" y="177.1231">1</text><text fill="#000000" font-family="sans-serif" font-size="19.5" lengthAdjust="spacing" textLength="7.5" x="152.9672" y="862.4573">*</text><!--MD5=[3827bfa78b8fb8a7b4f022a402ae5a4e]
link Headquarter to Chemical_Laboratory--><path codeLine="97" d="M163.92,972.42 C165.255,1028.145 167.25,1125.51 167.25,1209 C167.25,1209 167.25,1209 167.25,1683 C167.25,1747.275 184.14,1819.965 196.86,1865.625 " fill="none" id="Headquarter-Chemical_Laboratory" style="stroke:#A80036;stroke-width:1.5;"/><polygon fill="#000000" points="175.0264,1470.2586,178.9318,1456.5377,170.121,1456.8626,175.0264,1470.2586" style="stroke:#000000;stroke-width:1.5;"/><text fill="#000000" font-family="sans-serif" font-size="19.5" lengthAdjust="spacing" textLength="63" x="188.25" y="1470.7427">contain</text><text fill="#000000" font-family="sans-serif" font-size="19.5" lengthAdjust="spacing" textLength="10.5" x="152.6423" y="1003.968">1</text><text fill="#000000" font-family="sans-serif" font-size="19.5" lengthAdjust="spacing" textLength="10.5" x="182.4124" y="1849.8045">1</text><!--MD5=[b47a9e0fed6e80c74a531cfd31e9cb69]
link Clinical_Analysis_Laboratory to Receptionist--><path codeLine="98" d="M393.165,135.36 C385.845,185.985 375.045,260.64 367.305,314.205 " fill="none" id="Clinical_Analysis_Laboratory-Receptionist" style="stroke:#A80036;stroke-width:1.5;"/><polygon fill="#000000" points="393.3233,196.8409,387.0187,209.638,395.7447,210.8997,393.3233,196.8409" style="stroke:#000000;stroke-width:1.5;"/><text fill="#000000" font-family="sans-serif" font-size="19.5" lengthAdjust="spacing" textLength="67.5" x="405.75" y="212.2427">work for</text><text fill="#000000" font-family="sans-serif" font-size="19.5" lengthAdjust="spacing" textLength="10.5" x="380.5397" y="166.7382">1</text><text fill="#000000" font-family="sans-serif" font-size="19.5" lengthAdjust="spacing" textLength="30" x="336.4372" y="297.871">1..*</text><!--MD5=[6a35157f4c730bda767e7c9f1b8b7f73]
link Receptionist to Client--><path codeLine="99" d="M433.845,381.75 C476.025,381.75 528.6,381.75 572.205,381.75 " fill="none" id="Receptionist-Client" style="stroke:#A80036;stroke-width:1.5;"/><polygon fill="#000000" points="474.375,364.0137,460.8074,359.6053,460.8074,368.4221,474.375,364.0137" style="stroke:#000000;stroke-width:1.5;"/><text fill="#000000" font-family="sans-serif" font-size="19.5" lengthAdjust="spacing" textLength="64.5" x="480.375" y="371.9927">register</text><text fill="#000000" font-family="sans-serif" font-size="19.5" lengthAdjust="spacing" textLength="10.5" x="445.2841" y="376.3942">1</text><text fill="#000000" font-family="sans-serif" font-size="19.5" lengthAdjust="spacing" textLength="7.5" x="552.706" y="376.4471">*</text><!--MD5=[e8b34c2e6517a986175307f5599f058a]
link Receptionist to Test--><path codeLine="100" d="M355.62,449.715 C351.315,583.44 341.655,883.62 337.38,1016.985 " fill="none" id="Receptionist-Test" style="stroke:#A80036;stroke-width:1.5;"/><polygon fill="#000000" points="354.509,756.2598,359.3511,742.8409,350.5389,742.5575,354.509,756.2598" style="stroke:#000000;stroke-width:1.5;"/><text fill="#000000" font-family="sans-serif" font-size="19.5" lengthAdjust="spacing" textLength="64.5" x="368.25" y="756.7427">register</text><text fill="#000000" font-family="sans-serif" font-size="19.5" lengthAdjust="spacing" textLength="7.5" x="347.3299" y="480.788">*</text><text fill="#000000" font-family="sans-serif" font-size="19.5" lengthAdjust="spacing" textLength="7.5" x="329.6218" y="1000.6558">*</text><!--MD5=[0bde84c484199f8c429a86e32cc6847f]
link Client to LabOrder--><path codeLine="101" d="M634.065,501.345 C625.62,543.45 616.74,587.745 610.785,617.43 " fill="none" id="Client-LabOrder" style="stroke:#A80036;stroke-width:1.5;"/><polygon fill="#000000" points="629.2753,567.1173,636.2654,554.6813,627.6207,552.9477,629.2753,567.1173" style="stroke:#000000;stroke-width:1.5;"/><text fill="#000000" font-family="sans-serif" font-size="19.5" lengthAdjust="spacing" textLength="31.5" x="644.25" y="567.7427">has</text><text fill="#000000" font-family="sans-serif" font-size="19.5" lengthAdjust="spacing" textLength="10.5" x="621.0784" y="532.9394">1</text><text fill="#000000" font-family="sans-serif" font-size="19.5" lengthAdjust="spacing" textLength="30" x="578.8435" y="601.898">1..*</text><!--MD5=[84a279e28ad6c3248737114c29c49c27]
link LabOrder to Test--><path codeLine="102" d="M581.775,690.48 C537,761.775 434.565,924.87 376.815,1016.82 " fill="none" id="LabOrder-Test" style="stroke:#A80036;stroke-width:1.5;"/><polygon fill="#000000" points="509.7611,827.1149,520.7103,817.97,513.244,813.2808,509.7611,827.1149" style="stroke:#000000;stroke-width:1.5;"/><text fill="#000000" font-family="sans-serif" font-size="19.5" lengthAdjust="spacing" textLength="64.5" x="527.25" y="828.7427">request</text><text fill="#000000" font-family="sans-serif" font-size="19.5" lengthAdjust="spacing" textLength="10.5" x="564.9792" y="721.9946">1</text><text fill="#000000" font-family="sans-serif" font-size="19.5" lengthAdjust="spacing" textLength="30" x="350.8828" y="1000.9586">1..*</text><!--MD5=[e981d4f96c4342412d1e68160b30cf70]
link Test to TestType--><path codeLine="103" d="M383.64,1084.5 C416.1,1084.5 459.12,1084.5 494.04,1084.5 " fill="none" id="Test-TestType" style="stroke:#A80036;stroke-width:1.5;"/><polygon fill="#000000" points="424.5,1066.7637,410.9324,1062.3553,410.9324,1071.1721,424.5,1066.7637" style="stroke:#000000;stroke-width:1.5;"/><text fill="#000000" font-family="sans-serif" font-size="19.5" lengthAdjust="spacing" textLength="36" x="430.5" y="1074.7427">is of</text><text fill="#000000" font-family="sans-serif" font-size="19.5" lengthAdjust="spacing" textLength="7.5" x="395.0456" y="1078.2561">*</text><text fill="#000000" font-family="sans-serif" font-size="19.5" lengthAdjust="spacing" textLength="10.5" x="471.6128" y="1078.6741">1</text><!--MD5=[b72ac8ab7fb5921fceb5036a3902baea]
link Test to Sample--><path codeLine="104" d="M335.25,1152.405 C335.25,1270.32 335.25,1514.16 335.25,1624.095 " fill="none" id="Test-Sample" style="stroke:#A80036;stroke-width:1.5;"/><polygon fill="#000000" points="342.75,1470.2637,347.1584,1456.696,338.3416,1456.696,342.75,1470.2637" style="stroke:#000000;stroke-width:1.5;"/><text fill="#000000" font-family="sans-serif" font-size="19.5" lengthAdjust="spacing" textLength="42" x="356.25" y="1470.7427">need</text><text fill="#000000" font-family="sans-serif" font-size="19.5" lengthAdjust="spacing" textLength="10.5" x="324.0445" y="1183.4699">1</text><text fill="#000000" font-family="sans-serif" font-size="19.5" lengthAdjust="spacing" textLength="30" x="302.5781" y="1608.0657">1..*</text><!--MD5=[dbd88c9d712c5916a43bf0c7693689f0]
link Sample to Medical_Lab_Technician--><path codeLine="105" d="M399.27,1681.5 C478.05,1681.5 613.635,1681.5 713.82,1681.5 " fill="none" id="Sample-Medical_Lab_Technician" style="stroke:#A80036;stroke-width:1.5;"/><polygon fill="#000000" points="507.75,1663.7637,494.1824,1659.3553,494.1824,1668.1721,507.75,1663.7637" style="stroke:#000000;stroke-width:1.5;"/><text fill="#000000" font-family="sans-serif" font-size="19.5" lengthAdjust="spacing" textLength="105" x="513.75" y="1671.7427">collected by</text><text fill="#000000" font-family="sans-serif" font-size="19.5" lengthAdjust="spacing" textLength="30" x="410.8761" y="1676.055">1..*</text><text fill="#000000" font-family="sans-serif" font-size="19.5" lengthAdjust="spacing" textLength="10.5" x="691.5477" y="1676.7303">1</text><!--MD5=[ece275a13c5c40b1992c56e935b47d84]
link Medical_Lab_Technician to Client--><path codeLine="106" d="M930.9,1613.82 C954.885,1588.62 974.25,1557.45 974.25,1522.5 C974.25,652.5 974.25,652.5 974.25,652.5 C974.25,530.94 837.135,452.76 743.4,413.505 " fill="none" id="Medical_Lab_Technician-Client" style="stroke:#A80036;stroke-width:1.5;"/><polygon fill="#000000" points="980.5925,1077.3535,978.3309,1091.439,987.042,1090.0782,980.5925,1077.3535" style="stroke:#000000;stroke-width:1.5;"/><text fill="#000000" font-family="sans-serif" font-size="19.5" lengthAdjust="spacing" textLength="30" x="995.25" y="1092.7427">call</text><text fill="#000000" font-family="sans-serif" font-size="19.5" lengthAdjust="spacing" textLength="10.5" x="933.4003" y="1597.9586">1</text><text fill="#000000" font-family="sans-serif" font-size="19.5" lengthAdjust="spacing" textLength="7.5" x="755.4131" y="412.4692">*</text><!--MD5=[59d44bdecc6aa2c729a3967aadca6766]
link TestType to Parameters--><path codeLine="107" d="M617.55,1084.5 C649.635,1084.5 689.04,1084.5 722.64,1084.5 " fill="none" id="TestType-Parameters" style="stroke:#A80036;stroke-width:1.5;"/><polygon fill="#000000" points="658.125,1066.7637,644.5574,1062.3553,644.5574,1071.1721,658.125,1066.7637" style="stroke:#000000;stroke-width:1.5;"/><text fill="#000000" font-family="sans-serif" font-size="19.5" lengthAdjust="spacing" textLength="31.5" x="664.125" y="1074.7427">has</text><text fill="#000000" font-family="sans-serif" font-size="19.5" lengthAdjust="spacing" textLength="7.5" x="629.2261" y="1078.6741">*</text><text fill="#000000" font-family="sans-serif" font-size="19.5" lengthAdjust="spacing" textLength="30" x="680.8002" y="1106.3906">1..*</text><!--MD5=[6153584152eea4d43fc5098491765777]
link Parameters to Category--><path codeLine="108" d="M746.535,1120.665 C717.105,1141.905 679.305,1170.105 647.25,1197 C607.29,1230.51 564.045,1271.76 534.885,1300.395 " fill="none" id="Parameters-Category" style="stroke:#A80036;stroke-width:1.5;"/><polygon fill="#000000" points="649.0332,1215.6183,662.2285,1210.1964,656.5215,1203.4759,649.0332,1215.6183" style="stroke:#000000;stroke-width:1.5;"/><text fill="#000000" font-family="sans-serif" font-size="19.5" lengthAdjust="spacing" textLength="118.5" x="668.25" y="1218.7427">present under</text><text fill="#000000" font-family="sans-serif" font-size="19.5" lengthAdjust="spacing" textLength="7.5" x="726.1248" y="1152.7122">*</text><text fill="#000000" font-family="sans-serif" font-size="19.5" lengthAdjust="spacing" textLength="10.5" x="531.9149" y="1284.3783">1</text><!--MD5=[2c46651aa9ea3a6d986170fabc83ad48]
link Category to Administrator--><path codeLine="109" d="M561.435,1336.5 C609.06,1336.5 675.495,1336.5 727.14,1336.5 " fill="none" id="Category-Administrator" style="stroke:#A80036;stroke-width:1.5;"/><polygon fill="#000000" points="602.25,1318.7637,588.6824,1314.3553,588.6824,1323.1721,602.25,1318.7637" style="stroke:#000000;stroke-width:1.5;"/><text fill="#000000" font-family="sans-serif" font-size="19.5" lengthAdjust="spacing" textLength="91.5" x="608.25" y="1326.7427">created by</text><text fill="#000000" font-family="sans-serif" font-size="19.5" lengthAdjust="spacing" textLength="7.5" x="573.0015" y="1330.6521">*</text><text fill="#000000" font-family="sans-serif" font-size="19.5" lengthAdjust="spacing" textLength="10.5" x="704.7769" y="1331.1442">1</text><!--MD5=[066eeab0ddf9d5e82045888553ec8bea]
link Sample to Chemical_Laboratory--><path codeLine="110" d="M304.8,1738.77 C283.485,1777.8 255.39,1829.265 235.47,1865.745 " fill="none" id="Sample-Chemical_Laboratory" style="stroke:#A80036;stroke-width:1.5;"/><polygon fill="#000000" points="277.6558,1814.3463,288.027,1804.5508,280.2886,1800.3255,277.6558,1814.3463" style="stroke:#000000;stroke-width:1.5;"/><text fill="#000000" font-family="sans-serif" font-size="19.5" lengthAdjust="spacing" textLength="37.5" x="294.75" y="1815.7427">sent</text><text fill="#000000" font-family="sans-serif" font-size="19.5" lengthAdjust="spacing" textLength="7.5" x="291.8494" y="1770.1338">*</text><text fill="#000000" font-family="sans-serif" font-size="19.5" lengthAdjust="spacing" textLength="10.5" x="228.9857" y="1849.9492">1</text><!--MD5=[81020e100de8e00f8c2f9d43af8f821e]
link Chemical_Laboratory to Clinical_Chemistry_Technologist--><path codeLine="111" d="M210.75,1959.045 C210.75,1992.405 210.75,2038.365 210.75,2075.88 " fill="none" id="Chemical_Laboratory-Clinical_Chemistry_Technologist" style="stroke:#A80036;stroke-width:1.5;"/><polygon fill="#000000" points="218.25,2010.2637,213.8416,2023.8313,222.6584,2023.8313,218.25,2010.2637" style="stroke:#000000;stroke-width:1.5;"/><text fill="#000000" font-family="sans-serif" font-size="19.5" lengthAdjust="spacing" textLength="105" x="231.75" y="2025.7427">employee of</text><text fill="#000000" font-family="sans-serif" font-size="19.5" lengthAdjust="spacing" textLength="10.5" x="199.2164" y="1990.8899">1</text><text fill="#000000" font-family="sans-serif" font-size="19.5" lengthAdjust="spacing" textLength="30" x="178.3594" y="2059.5341">1..*</text><!--MD5=[afe83291a4ff360dae8c5a3fdf90a0a3]
link Clinical_Chemistry_Technologist to Chemical_Analyses--><path codeLine="112" d="M210.75,2211.075 C210.75,2258.625 210.75,2320.86 210.75,2359.11 " fill="none" id="Clinical_Chemistry_Technologist-Chemical_Analyses" style="stroke:#A80036;stroke-width:1.5;"/><polygon fill="#000000" points="218.25,2277.2637,222.6584,2263.696,213.8416,2263.696,218.25,2277.2637" style="stroke:#000000;stroke-width:1.5;"/><text fill="#000000" font-family="sans-serif" font-size="19.5" lengthAdjust="spacing" textLength="64.5" x="231.75" y="2277.7427">perform</text><text fill="#000000" font-family="sans-serif" font-size="19.5" lengthAdjust="spacing" textLength="10.5" x="199.5117" y="2242.5969">1</text><text fill="#000000" font-family="sans-serif" font-size="19.5" lengthAdjust="spacing" textLength="7.5" x="202.2891" y="2343.0203">*</text><!--MD5=[19769aa47622681e2fd7065522328abb]
link Chemical_Analyses to Doctor--><path codeLine="113" d="M317.535,2395.5 C377.4,2395.5 449.355,2395.5 496.8,2395.5 " fill="none" id="Chemical_Analyses-Doctor" style="stroke:#A80036;stroke-width:1.5;"/><polygon fill="#000000" points="358.5,2377.7637,344.9324,2373.3553,344.9324,2382.1721,358.5,2377.7637" style="stroke:#000000;stroke-width:1.5;"/><text fill="#000000" font-family="sans-serif" font-size="19.5" lengthAdjust="spacing" textLength="105" x="364.5" y="2385.7427">analyzed by</text><text fill="#000000" font-family="sans-serif" font-size="19.5" lengthAdjust="spacing" textLength="7.5" x="328.9339" y="2390.5324">*</text><text fill="#000000" font-family="sans-serif" font-size="19.5" lengthAdjust="spacing" textLength="10.5" x="474.6056" y="2389.3982">1</text><!--MD5=[ea81175f604d6a35cf7833ef6a6b10c7]
link Doctor to Report--><path codeLine="114" d="M599.79,2395.5 C634.215,2395.5 679.32,2395.5 713.82,2395.5 " fill="none" id="Doctor-Report" style="stroke:#A80036;stroke-width:1.5;"/><polygon fill="#000000" points="640.125,2377.7637,626.5574,2373.3553,626.5574,2382.1721,640.125,2377.7637" style="stroke:#000000;stroke-width:1.5;"/><text fill="#000000" font-family="sans-serif" font-size="19.5" lengthAdjust="spacing" textLength="40.5" x="646.125" y="2385.7427">write</text><text fill="#000000" font-family="sans-serif" font-size="19.5" lengthAdjust="spacing" textLength="10.5" x="611.5029" y="2389.3982">1</text><text fill="#000000" font-family="sans-serif" font-size="19.5" lengthAdjust="spacing" textLength="7.5" x="694.836" y="2389.3474">*</text><!--MD5=[da711191734cedfa923cb6d15ab387e4]
link Laboratory_Coordinator to Chemical_Analyses--><path codeLine="115" d="M536.925,2211.075 C451.89,2258.76 340.485,2321.25 272.34,2359.455 " fill="none" id="Laboratory_Coordinator-Chemical_Analyses" style="stroke:#A80036;stroke-width:1.5;"/><polygon fill="#000000" points="447.2084,2273.4322,461.1985,2270.6408,456.8859,2262.9507,447.2084,2273.4322" style="stroke:#000000;stroke-width:1.5;"/><text fill="#000000" font-family="sans-serif" font-size="19.5" lengthAdjust="spacing" textLength="64.5" x="467.25" y="2277.7427">validate</text><text fill="#000000" font-family="sans-serif" font-size="19.5" lengthAdjust="spacing" textLength="10.5" x="510.656" y="2241.5943">1</text><text fill="#000000" font-family="sans-serif" font-size="19.5" lengthAdjust="spacing" textLength="7.5" x="279.6615" y="2343.4537">*</text><!--MD5=[dd54e598cac7fafada6498813f841094]
link Laboratory_Coordinator to Report--><path codeLine="116" d="M684.21,2211.075 C703.605,2254.59 728.49,2310.405 745.635,2348.88 " fill="none" id="Laboratory_Coordinator-Report" style="stroke:#A80036;stroke-width:1.5;"/><polygon fill="#000000" points="723.8034,2276.614,722.3062,2262.4269,714.2532,2266.0164,723.8034,2276.614" style="stroke:#000000;stroke-width:1.5;"/><text fill="#000000" font-family="sans-serif" font-size="19.5" lengthAdjust="spacing" textLength="64.5" x="734.25" y="2277.7427">validate</text><text fill="#000000" font-family="sans-serif" font-size="19.5" lengthAdjust="spacing" textLength="10.5" x="677.1145" y="2242.5969">1</text><text fill="#000000" font-family="sans-serif" font-size="19.5" lengthAdjust="spacing" textLength="7.5" x="732.9145" y="2332.3841">*</text><!--MD5=[f94ab6525aeaa7463367791af73ff451]
link Administrator to Parameters--><path codeLine="117" d="M803.46,1268.91 C801.45,1221.255 798.825,1158.84 797.205,1120.62 " fill="none" id="Administrator-Parameters" style="stroke:#A80036;stroke-width:1.5;"/><polygon fill="#000000" points="808.0661,1218.257,811.8988,1204.5157,803.0898,1204.8872,808.0661,1218.257" style="stroke:#000000;stroke-width:1.5;"/><text fill="#000000" font-family="sans-serif" font-size="19.5" lengthAdjust="spacing" textLength="91.5" x="821.25" y="1218.7427">created by</text><text fill="#000000" font-family="sans-serif" font-size="19.5" lengthAdjust="spacing" textLength="10.5" x="791.6786" y="1252.5689">1</text><text fill="#000000" font-family="sans-serif" font-size="19.5" lengthAdjust="spacing" textLength="7.5" x="789.1456" y="1152.6562">*</text><!--MD5=[6e5c0684f544fc54c7d1c0c39fd79bfd]
@startuml
'https://plantuml.com/class-diagram
skinparam classAttributeIconSize 0
class Company
class Headquarter
class Clinical_Analysis_Laboratory
class Receptionist
class Test
class TestType
class Category
class Parameters
class Sample
class Medical_Lab_Technician
class Doctor
class Report
class Chemical_Analyses
class Chemical_Laboratory
class Clinical_Chemistry_Technologist
class LabOrder
class Client
class Laboratory_Coordinator
class Administrator

class Company{
-name
-designation
-category
}
class Headquarter{
-address
}
class Chemical_Laboratory{
-phoneNumber
}
class Clinical_Chemistry_Technologist{
-name
-email
-password
}
class Doctor{
-name
-email
-password
}
class Report{
-diagnosis
}
class Laboratory_Coordinator{
-name
-email
-password
}
class Sample{
-barcode
-collection date
}
class Medical_Lab_Technician{
-name
-email
-password
}
class Test{
-code
-nhsCode
-createdAt
}
class TestType{
-designation
}
class Administrator{
-name
-email
-password
}
class Clinical_Analysis_Laboratory{
-address
-phoneNumber
}
class Receptionist{
-name
-email
-password
}
class Client{
 - Name
 - Email
 - Phone Number
 - Sex
 - TIF
 - Birth Date
 - NHS Number
 - Citizen Card Number

}

Company "1" - "1..*" Clinical_Analysis_Laboratory : owns >
Company "1" - - - - "*" Headquarter : has a >
Headquarter "1" - - - "1" Chemical_Laboratory : contain >
Clinical_Analysis_Laboratory "1" - -"1..*" Receptionist : < work for
Receptionist "1" - "*" Client : register >
Receptionist "*" - "*" Test : register >
Client "1" - - "1..*" LabOrder : has >
LabOrder "1" - - - "1..*" Test : request >
Test "*" - "1" TestType : is of >
Test "1" - - - - "1..*" Sample : need >
Sample "1..*" - "1" Medical_Lab_Technician : collected by >
Medical_Lab_Technician "1" - - - - - - - "*" Client : call >
TestType "*" - "1..*" Parameters : has >
Parameters "*" - - "1" Category : present under >
Category "*" - "1" Administrator : created by >
Sample "*" - - "1" Chemical_Laboratory : sent >
Chemical_Laboratory "1" - - "1..*" Clinical_Chemistry_Technologist : < employee of
Clinical_Chemistry_Technologist "1" - - "*" Chemical_Analyses : perform >
Chemical_Analyses "*" - "1" Doctor : analyzed by >
Doctor "1" - "*" Report : write >
Laboratory_Coordinator "1" - "*" Chemical_Analyses : validate >
Laboratory_Coordinator "1" - - "*" Report : validate >
Administrator "1" - - "*" Parameters : < created by




@enduml

@startuml
skinparam classAttributeIconSize 0
class Company
class Headquarter
class Clinical_Analysis_Laboratory
class Receptionist
class Test
class TestType
class Category
class Parameters
class Sample
class Medical_Lab_Technician
class Doctor
class Report
class Chemical_Analyses
class Chemical_Laboratory
class Clinical_Chemistry_Technologist
class LabOrder
class Client
class Laboratory_Coordinator
class Administrator

class Company{
-name
-designation
-category
}
class Headquarter{
-address
}
class Chemical_Laboratory{
-phoneNumber
}
class Clinical_Chemistry_Technologist{
-name
-email
-password
}
class Doctor{
-name
-email
-password
}
class Report{
-diagnosis
}
class Laboratory_Coordinator{
-name
-email
-password
}
class Sample{
-barcode
-collection date
}
class Medical_Lab_Technician{
-name
-email
-password
}
class Test{
-code
-nhsCode
-createdAt
}
class TestType{
-designation
}
class Administrator{
-name
-email
-password
}
class Clinical_Analysis_Laboratory{
-address
-phoneNumber
}
class Receptionist{
-name
-email
-password
}
class Client{
 - Name
 - Email
 - Phone Number
 - Sex
 - TIF
 - Birth Date
 - NHS Number
 - Citizen Card Number

}

Company "1" - "1..*" Clinical_Analysis_Laboratory : owns >
Company "1" - - - - "*" Headquarter : has a >
Headquarter "1" - - - "1" Chemical_Laboratory : contain >
Clinical_Analysis_Laboratory "1" - -"1..*" Receptionist : < work for
Receptionist "1" - "*" Client : register >
Receptionist "*" - "*" Test : register >
Client "1" - - "1..*" LabOrder : has >
LabOrder "1" - - - "1..*" Test : request >
Test "*" - "1" TestType : is of >
Test "1" - - - - "1..*" Sample : need >
Sample "1..*" - "1" Medical_Lab_Technician : collected by >
Medical_Lab_Technician "1" - - - - - - - "*" Client : call >
TestType "*" - "1..*" Parameters : has >
Parameters "*" - - "1" Category : present under >
Category "*" - "1" Administrator : created by >
Sample "*" - - "1" Chemical_Laboratory : sent >
Chemical_Laboratory "1" - - "1..*" Clinical_Chemistry_Technologist : < employee of
Clinical_Chemistry_Technologist "1" - - "*" Chemical_Analyses : perform >
Chemical_Analyses "*" - "1" Doctor : analyzed by >
Doctor "1" - "*" Report : write >
Laboratory_Coordinator "1" - "*" Chemical_Analyses : validate >
Laboratory_Coordinator "1" - - "*" Report : validate >
Administrator "1" - - "*" Parameters : < created by




@enduml

PlantUML version 1.2021.4(Sun Apr 04 09:49:39 BST 2021)
(GPL source distribution)
Java Runtime: OpenJDK Runtime Environment
JVM: Dynamic Code Evolution 64-Bit Server VM
Default Encoding: Cp1252
Language: pt
Country: PT
--></g></svg>