<?xml version="1.0" encoding="UTF-8" standalone="no"?><svg xmlns="http://www.w3.org/2000/svg" xmlns:xlink="http://www.w3.org/1999/xlink" contentScriptType="application/ecmascript" contentStyleType="text/css" height="567.3px" preserveAspectRatio="none" style="width:926px;height:567px;" version="1.1" viewBox="0 0 926 567" width="926.9px" zoomAndPan="magnify"><defs><filter height="300%" id="flhvv7c5p425t" width="300%" x="-1" y="-1"><feGaussianBlur result="blurOut" stdDeviation="1.24"/><feColorMatrix in="blurOut" result="blurOut2" type="matrix" values="0 0 0 0 0 0 0 0 0 0 0 0 0 0 0 0 0 0 .4 0"/><feOffset dx="2.48" dy="2.48" in="blurOut2" result="blurOut3"/><feBlend in="SourceGraphic" in2="blurOut3" mode="normal"/></filter></defs><g><!--MD5=[9681dc6e01e10c6b4fe06895ae94f592]
cluster UI--><polygon fill="#FFFFFF" filter="url(#flhvv7c5p425t)" points="794.84,50.84,807.24,50.84,811.58,65.4778,886.6,65.4778,886.6,112.84,794.84,112.84,794.84,50.84" style="stroke:#000000;stroke-width:0.9299999999999999;"/><line style="stroke:#000000;stroke-width:0.9299999999999999;" x1="794.84" x2="811.58" y1="65.4778" y2="65.4778"/><text fill="#000000" font-family="sans-serif" font-size="8.68" font-weight="bold" lengthAdjust="spacing" textLength="8.68" x="797.32" y="61.0906">UI</text><!--MD5=[1f2cfc53d9d308f53762fd0fcbaa4873]
cluster Controller--><polygon fill="#FFFFFF" filter="url(#flhvv7c5p425t)" points="527.62,3.72,575.36,3.72,579.7,18.3578,696.26,18.3578,696.26,159.96,527.62,159.96,527.62,3.72" style="stroke:#000000;stroke-width:0.9299999999999999;"/><line style="stroke:#000000;stroke-width:0.9299999999999999;" x1="527.62" x2="579.7" y1="18.3578" y2="18.3578"/><text fill="#000000" font-family="sans-serif" font-size="8.68" font-weight="bold" lengthAdjust="spacing" textLength="44.02" x="530.1" y="13.9706">Controller</text><!--MD5=[15636c1ca4a123c16a2a1a8e90aca7a9]
cluster Model--><polygon fill="#FFFFFF" filter="url(#flhvv7c5p425t)" points="102.92,189.1,133.92,189.1,138.26,203.7378,481.12,203.7378,481.12,562.96,102.92,562.96,102.92,189.1" style="stroke:#000000;stroke-width:0.9299999999999999;"/><line style="stroke:#000000;stroke-width:0.9299999999999999;" x1="102.92" x2="138.26" y1="203.7378" y2="203.7378"/><text fill="#000000" font-family="sans-serif" font-size="8.68" font-weight="bold" lengthAdjust="spacing" textLength="27.28" x="105.4" y="199.3506">Model</text><!--MD5=[7ce1723ddb6e6233854253973eae5a71]
cluster Store--><polygon fill="#FFFFFF" filter="url(#flhvv7c5p425t)" points="496,180.42,523.28,180.42,527.62,195.0578,620,195.0578,620,259.78,496,259.78,496,180.42" style="stroke:#000000;stroke-width:0.9299999999999999;"/><line style="stroke:#000000;stroke-width:0.9299999999999999;" x1="496" x2="527.62" y1="195.0578" y2="195.0578"/><text fill="#000000" font-family="sans-serif" font-size="8.68" font-weight="bold" lengthAdjust="spacing" textLength="23.56" x="498.48" y="190.6706">Store</text><!--MD5=[701152d03fbf85133a1de050cfdbc7fd]
cluster Mappers--><polygon fill="#FFFFFF" filter="url(#flhvv7c5p425t)" points="634.88,180.42,677.04,180.42,681.38,195.0578,798.56,195.0578,798.56,259.78,634.88,259.78,634.88,180.42" style="stroke:#000000;stroke-width:0.9299999999999999;"/><line style="stroke:#000000;stroke-width:0.9299999999999999;" x1="634.88" x2="681.38" y1="195.0578" y2="195.0578"/><text fill="#000000" font-family="sans-serif" font-size="8.68" font-weight="bold" lengthAdjust="spacing" textLength="38.44" x="637.36" y="190.6706">Mappers</text><!--MD5=[e25d2abf3c472b89b03b52c7e4262e29]
cluster interfaces--><polygon fill="#FFFFFF" filter="url(#flhvv7c5p425t)" points="9.92,453.84,57.66,453.84,62,468.4778,88.04,468.4778,88.04,515.84,9.92,515.84,9.92,453.84" style="stroke:#000000;stroke-width:0.9299999999999999;"/><line style="stroke:#000000;stroke-width:0.9299999999999999;" x1="9.92" x2="62" y1="468.4778" y2="468.4778"/><text fill="#000000" font-family="sans-serif" font-size="8.68" font-weight="bold" lengthAdjust="spacing" textLength="44.02" x="12.4" y="464.0906">interfaces</text><!--MD5=[7b8bc9ee8bb84b99fb3a3f9477c19238]
cluster DTO--><polygon fill="#FFFFFF" filter="url(#flhvv7c5p425t)" points="844.44,180.42,866.14,180.42,870.48,195.0578,916.36,195.0578,916.36,259.78,844.44,259.78,844.44,180.42" style="stroke:#000000;stroke-width:0.9299999999999999;"/><line style="stroke:#000000;stroke-width:0.9299999999999999;" x1="844.44" x2="870.48" y1="195.0578" y2="195.0578"/><text fill="#000000" font-family="sans-serif" font-size="8.68" font-weight="bold" lengthAdjust="spacing" textLength="17.98" x="846.92" y="190.6706">DTO</text><!--MD5=[aac44b466456b05e2cd81996831d2f6a]
class ValidateWorkUI--><rect codeLine="3" fill="#FEFECE" filter="url(#flhvv7c5p425t)" height="29.76" id="ValidateWorkUI" style="stroke:#A80036;stroke-width:0.9299999999999999;" width="71.92" x="804.76" y="73.16"/><ellipse cx="814.06" cy="83.08" fill="#ADD1B2" rx="6.82" ry="6.82" style="stroke:#A80036;stroke-width:0.62;"/><path d="M815.3,80.91 Q815.4259,80.6 815.5713,80.445 Q815.7166,80.29 815.8813,80.29 Q816.1719,80.29 816.3559,80.4644 Q816.54,80.6388 816.54,81.0456 L816.54,82.0144 Q816.54,82.4213 816.3656,82.5956 Q816.1913,82.77 815.92,82.77 Q815.6778,82.77 815.5228,82.6634 Q815.3678,82.5569 815.3,82.2759 Q815.2709,82.0822 815.1644,81.9756 Q814.9706,81.7722 814.6219,81.6559 Q814.2731,81.53 813.9244,81.53 Q813.4884,81.53 813.1203,81.7044 Q812.7619,81.8788 812.4809,82.2663 Q812.2,82.6538 812.2,83.1866 L812.2,83.7581 Q812.2,84.3975 812.7231,84.8238 Q813.2463,85.25 814.1763,85.25 Q814.7284,85.25 815.1159,85.1241 Q815.3388,85.0563 815.5906,84.8334 Q815.7553,84.7075 815.8425,84.6688 Q815.9297,84.63 816.0363,84.63 Q816.2397,84.63 816.385,84.7947 Q816.54,84.9497 816.54,85.1725 Q816.54,85.3856 816.3269,85.6375 Q816.0169,86.0056 815.5228,86.2091 Q814.8738,86.49 814.0794,86.49 Q813.1494,86.49 812.4034,86.1219 Q811.8028,85.8313 811.3766,85.2016 Q810.96,84.5719 810.96,83.8259 L810.96,83.1478 Q810.96,82.3728 811.3281,81.6947 Q811.7059,81.0166 812.355,80.6581 Q813.0138,80.29 813.75,80.29 Q814.1956,80.29 814.5831,80.445 Q814.9706,80.6 815.3,80.91 Z " fill="#000000"/><text fill="#000000" font-family="sans-serif" font-size="7.44" lengthAdjust="spacing" textLength="52.08" x="822.74" y="86.1243">ValidateWorkUI</text><line style="stroke:#A80036;stroke-width:0.9299999999999999;" x1="805.38" x2="876.06" y1="93" y2="93"/><line style="stroke:#A80036;stroke-width:0.9299999999999999;" x1="805.38" x2="876.06" y1="97.96" y2="97.96"/><!--MD5=[b5416685e7a8a51f2eeb2ec2a6d13f1a]
class ValidateWorkController--><rect codeLine="8" fill="#FEFECE" filter="url(#flhvv7c5p425t)" height="124.1211" id="ValidateWorkController" style="stroke:#A80036;stroke-width:0.9299999999999999;" width="148.8" x="537.54" y="26.04"/><ellipse cx="570.245" cy="35.96" fill="#ADD1B2" rx="6.82" ry="6.82" style="stroke:#A80036;stroke-width:0.62;"/><path d="M571.485,33.79 Q571.6109,33.48 571.7563,33.325 Q571.9016,33.17 572.0663,33.17 Q572.3569,33.17 572.5409,33.3444 Q572.725,33.5188 572.725,33.9256 L572.725,34.8944 Q572.725,35.3013 572.5506,35.4756 Q572.3763,35.65 572.105,35.65 Q571.8628,35.65 571.7078,35.5434 Q571.5528,35.4369 571.485,35.1559 Q571.4559,34.9622 571.3494,34.8556 Q571.1556,34.6522 570.8069,34.5359 Q570.4581,34.41 570.1094,34.41 Q569.6734,34.41 569.3053,34.5844 Q568.9469,34.7588 568.6659,35.1463 Q568.385,35.5338 568.385,36.0666 L568.385,36.6381 Q568.385,37.2775 568.9081,37.7038 Q569.4313,38.13 570.3613,38.13 Q570.9134,38.13 571.3009,38.0041 Q571.5238,37.9363 571.7756,37.7134 Q571.9403,37.5875 572.0275,37.5488 Q572.1147,37.51 572.2212,37.51 Q572.4247,37.51 572.57,37.6747 Q572.725,37.8297 572.725,38.0525 Q572.725,38.2656 572.5119,38.5175 Q572.2019,38.8856 571.7078,39.0891 Q571.0588,39.37 570.2644,39.37 Q569.3344,39.37 568.5884,39.0019 Q567.9878,38.7113 567.5616,38.0816 Q567.145,37.4519 567.145,36.7059 L567.145,36.0278 Q567.145,35.2528 567.5131,34.5747 Q567.8909,33.8966 568.54,33.5381 Q569.1988,33.17 569.935,33.17 Q570.3806,33.17 570.7681,33.325 Q571.1556,33.48 571.485,33.79 Z " fill="#000000"/><text fill="#000000" font-family="sans-serif" font-size="7.44" lengthAdjust="spacing" textLength="78.12" x="582.955" y="39.0043">ValidateWorkController</text><line style="stroke:#A80036;stroke-width:0.9299999999999999;" x1="538.16" x2="685.72" y1="45.88" y2="45.88"/><line style="stroke:#A80036;stroke-width:0.9299999999999999;" x1="538.16" x2="685.72" y1="50.84" y2="50.84"/><ellipse cx="544.36" cy="57.66" fill="#84BE84" rx="1.86" ry="1.86" style="stroke:#038048;stroke-width:0.62;"/><text fill="#000000" font-family="sans-serif" font-size="6.82" lengthAdjust="spacing" textLength="69.44" x="549.94" y="60.3997">getTestToValidateList()</text><ellipse cx="544.36" cy="66.2383" fill="#84BE84" rx="1.86" ry="1.86" style="stroke:#038048;stroke-width:0.62;"/><text fill="#000000" font-family="sans-serif" font-size="6.82" lengthAdjust="spacing" textLength="91.76" x="549.94" y="68.978">getSelectedTest(selectedTest)</text><ellipse cx="544.36" cy="74.8166" fill="#84BE84" rx="1.86" ry="1.86" style="stroke:#038048;stroke-width:0.62;"/><text fill="#000000" font-family="sans-serif" font-size="6.82" lengthAdjust="spacing" textLength="104.78" x="549.94" y="77.5563">createTestValidation(selectedTest)</text><ellipse cx="544.36" cy="83.3948" fill="#84BE84" rx="1.86" ry="1.86" style="stroke:#038048;stroke-width:0.62;"/><text fill="#000000" font-family="sans-serif" font-size="6.82" lengthAdjust="spacing" textLength="54.56" x="549.94" y="86.1346">validateDate(date)</text><ellipse cx="544.36" cy="91.9731" fill="#84BE84" rx="1.86" ry="1.86" style="stroke:#038048;stroke-width:0.62;"/><text fill="#000000" font-family="sans-serif" font-size="6.82" lengthAdjust="spacing" textLength="71.3" x="549.94" y="94.7129">showRegistrationDate()</text><ellipse cx="544.36" cy="100.5514" fill="#84BE84" rx="1.86" ry="1.86" style="stroke:#038048;stroke-width:0.62;"/><text fill="#000000" font-family="sans-serif" font-size="6.82" lengthAdjust="spacing" textLength="88.66" x="549.94" y="103.2912">showChemicalAnalysisDate()</text><ellipse cx="544.36" cy="109.1297" fill="#84BE84" rx="1.86" ry="1.86" style="stroke:#038048;stroke-width:0.62;"/><text fill="#000000" font-family="sans-serif" font-size="6.82" lengthAdjust="spacing" textLength="65.1" x="549.94" y="111.8694">showDiagnosisDate()</text><ellipse cx="544.36" cy="117.708" fill="#84BE84" rx="1.86" ry="1.86" style="stroke:#038048;stroke-width:0.62;"/><text fill="#000000" font-family="sans-serif" font-size="6.82" lengthAdjust="spacing" textLength="132.68" x="549.94" y="120.4477">showLabCoordValidationDate(selectedTest)</text><ellipse cx="544.36" cy="126.2863" fill="#84BE84" rx="1.86" ry="1.86" style="stroke:#038048;stroke-width:0.62;"/><text fill="#000000" font-family="sans-serif" font-size="6.82" lengthAdjust="spacing" textLength="39.68" x="549.94" y="129.026">showDates()</text><ellipse cx="544.36" cy="134.8645" fill="#84BE84" rx="1.86" ry="1.86" style="stroke:#038048;stroke-width:0.62;"/><text fill="#000000" font-family="sans-serif" font-size="6.82" lengthAdjust="spacing" textLength="106.02" x="549.94" y="137.6043">recordValidationDate(selectedTest)</text><ellipse cx="544.36" cy="143.4428" fill="#84BE84" rx="1.86" ry="1.86" style="stroke:#038048;stroke-width:0.62;"/><text fill="#000000" font-family="sans-serif" font-size="6.82" lengthAdjust="spacing" textLength="87.42" x="549.94" y="146.1826">notifyTheClient(selectedTest)</text><!--MD5=[02e4b9b7573f1156f41e60aa5b4e25a4]
class Company--><rect codeLine="24" fill="#FEFECE" filter="url(#flhvv7c5p425t)" height="81.2297" id="Company" style="stroke:#A80036;stroke-width:0.9299999999999999;" width="67.58" x="113.77" y="299.46"/><ellipse cx="129.766" cy="309.38" fill="#ADD1B2" rx="6.82" ry="6.82" style="stroke:#A80036;stroke-width:0.62;"/><path d="M131.006,307.21 Q131.1319,306.9 131.2773,306.745 Q131.4226,306.59 131.5873,306.59 Q131.8779,306.59 132.0619,306.7644 Q132.246,306.9387 132.246,307.3456 L132.246,308.3144 Q132.246,308.7213 132.0716,308.8956 Q131.8973,309.07 131.626,309.07 Q131.3838,309.07 131.2288,308.9634 Q131.0738,308.8569 131.006,308.5759 Q130.9769,308.3822 130.8704,308.2756 Q130.6766,308.0722 130.3279,307.9559 Q129.9791,307.83 129.6304,307.83 Q129.1944,307.83 128.8263,308.0044 Q128.4679,308.1788 128.1869,308.5663 Q127.906,308.9538 127.906,309.4866 L127.906,310.0581 Q127.906,310.6975 128.4291,311.1238 Q128.9523,311.55 129.8823,311.55 Q130.4344,311.55 130.8219,311.4241 Q131.0448,311.3563 131.2966,311.1334 Q131.4613,311.0075 131.5485,310.9688 Q131.6357,310.93 131.7423,310.93 Q131.9457,310.93 132.091,311.0947 Q132.246,311.2497 132.246,311.4725 Q132.246,311.6856 132.0329,311.9375 Q131.7229,312.3056 131.2288,312.5091 Q130.5798,312.79 129.7854,312.79 Q128.8554,312.79 128.1094,312.4219 Q127.5088,312.1313 127.0826,311.5016 Q126.666,310.8719 126.666,310.1259 L126.666,309.4478 Q126.666,308.6728 127.0341,307.9947 Q127.4119,307.3166 128.061,306.9581 Q128.7198,306.59 129.456,306.59 Q129.9016,306.59 130.2891,306.745 Q130.6766,306.9 131.006,307.21 Z " fill="#000000"/><text fill="#000000" font-family="sans-serif" font-size="7.44" lengthAdjust="spacing" textLength="32.86" x="139.934" y="312.4243">Company</text><line style="stroke:#A80036;stroke-width:0.9299999999999999;" x1="114.39" x2="180.73" y1="319.3" y2="319.3"/><rect fill="none" height="3.72" style="stroke:#C82930;stroke-width:0.62;" width="3.72" x="118.73" y="324.26"/><text fill="#000000" font-family="sans-serif" font-size="6.82" lengthAdjust="spacing" textLength="35.34" x="126.17" y="328.8597">String name</text><rect fill="none" height="3.72" style="stroke:#C82930;stroke-width:0.62;" width="3.72" x="118.73" y="332.8383"/><text fill="#000000" font-family="sans-serif" font-size="6.82" lengthAdjust="spacing" textLength="51.46" x="126.17" y="337.438">String shortName</text><rect fill="none" height="3.72" style="stroke:#C82930;stroke-width:0.62;" width="3.72" x="118.73" y="341.4166"/><text fill="#000000" font-family="sans-serif" font-size="6.82" lengthAdjust="spacing" textLength="26.66" x="126.17" y="346.0163">category</text><rect fill="none" height="3.72" style="stroke:#C82930;stroke-width:0.62;" width="3.72" x="118.73" y="349.9948"/><text fill="#000000" font-family="sans-serif" font-size="6.82" lengthAdjust="spacing" textLength="24.8" x="126.17" y="354.5946">address</text><rect fill="none" height="3.72" style="stroke:#C82930;stroke-width:0.62;" width="3.72" x="118.73" y="358.5731"/><text fill="#000000" font-family="sans-serif" font-size="6.82" lengthAdjust="spacing" textLength="40.3" x="126.17" y="363.1729">headquarters</text><line style="stroke:#A80036;stroke-width:0.62;" x1="114.39" x2="180.73" y1="367.1514" y2="367.1514"/><ellipse cx="120.59" cy="373.9714" fill="#84BE84" rx="1.86" ry="1.86" style="stroke:#038048;stroke-width:0.62;"/><text fill="#000000" font-family="sans-serif" font-size="6.82" lengthAdjust="spacing" textLength="43.4" x="126.17" y="376.7112">getTestStore()</text><!--MD5=[ed6624c6556d5e7b1bd23032162d20b7]
class Client--><rect codeLine="34" fill="#FEFECE" filter="url(#flhvv7c5p425t)" height="29.76" id="Client" style="stroke:#A80036;stroke-width:0.9299999999999999;" width="39.68" x="250.48" y="211.42"/><ellipse cx="259.78" cy="221.34" fill="#ADD1B2" rx="6.82" ry="6.82" style="stroke:#A80036;stroke-width:0.62;"/><path d="M261.02,219.17 Q261.1459,218.86 261.2913,218.705 Q261.4366,218.55 261.6013,218.55 Q261.8919,218.55 262.0759,218.7244 Q262.26,218.8988 262.26,219.3056 L262.26,220.2744 Q262.26,220.6813 262.0856,220.8556 Q261.9113,221.03 261.64,221.03 Q261.3978,221.03 261.2428,220.9234 Q261.0878,220.8169 261.02,220.5359 Q260.9909,220.3422 260.8844,220.2356 Q260.6906,220.0322 260.3419,219.9159 Q259.9931,219.79 259.6444,219.79 Q259.2084,219.79 258.8403,219.9644 Q258.4819,220.1388 258.2009,220.5263 Q257.92,220.9138 257.92,221.4466 L257.92,222.0181 Q257.92,222.6575 258.4431,223.0838 Q258.9663,223.51 259.8963,223.51 Q260.4484,223.51 260.8359,223.3841 Q261.0588,223.3163 261.3106,223.0934 Q261.4753,222.9675 261.5625,222.9288 Q261.6497,222.89 261.7563,222.89 Q261.9597,222.89 262.105,223.0547 Q262.26,223.2097 262.26,223.4325 Q262.26,223.6456 262.0469,223.8975 Q261.7369,224.2656 261.2428,224.4691 Q260.5938,224.75 259.7994,224.75 Q258.8694,224.75 258.1234,224.3819 Q257.5228,224.0913 257.0966,223.4616 Q256.68,222.8319 256.68,222.0859 L256.68,221.4078 Q256.68,220.6328 257.0481,219.9547 Q257.4259,219.2766 258.075,218.9181 Q258.7338,218.55 259.47,218.55 Q259.9156,218.55 260.3031,218.705 Q260.6906,218.86 261.02,219.17 Z " fill="#000000"/><text fill="#000000" font-family="sans-serif" font-size="7.44" lengthAdjust="spacing" textLength="19.84" x="268.46" y="224.3843">Client</text><line style="stroke:#A80036;stroke-width:0.9299999999999999;" x1="251.1" x2="289.54" y1="231.26" y2="231.26"/><line style="stroke:#A80036;stroke-width:0.9299999999999999;" x1="251.1" x2="289.54" y1="236.22" y2="236.22"/><!--MD5=[ce1fa2ecc820f9fe44a7b1eda96ab511]
class LabCoordinatorValidation--><rect codeLine="38" fill="#FEFECE" filter="url(#flhvv7c5p425t)" height="98.3863" id="LabCoordinatorValidation" style="stroke:#A80036;stroke-width:0.9299999999999999;" width="124.62" x="346.27" y="441.75"/><ellipse cx="363.661" cy="451.67" fill="#ADD1B2" rx="6.82" ry="6.82" style="stroke:#A80036;stroke-width:0.62;"/><path d="M364.901,449.5 Q365.0269,449.19 365.1722,449.035 Q365.3176,448.88 365.4822,448.88 Q365.7729,448.88 365.9569,449.0544 Q366.141,449.2288 366.141,449.6356 L366.141,450.6044 Q366.141,451.0113 365.9666,451.1856 Q365.7922,451.36 365.521,451.36 Q365.2788,451.36 365.1238,451.2534 Q364.9688,451.1469 364.901,450.8659 Q364.8719,450.6722 364.7654,450.5656 Q364.5716,450.3622 364.2229,450.2459 Q363.8741,450.12 363.5254,450.12 Q363.0894,450.12 362.7213,450.2944 Q362.3629,450.4688 362.0819,450.8563 Q361.801,451.2438 361.801,451.7766 L361.801,452.3481 Q361.801,452.9875 362.3241,453.4138 Q362.8473,453.84 363.7773,453.84 Q364.3294,453.84 364.7169,453.7141 Q364.9397,453.6463 365.1916,453.4234 Q365.3563,453.2975 365.4435,453.2588 Q365.5307,453.22 365.6373,453.22 Q365.8407,453.22 365.986,453.3847 Q366.141,453.5397 366.141,453.7625 Q366.141,453.9756 365.9279,454.2275 Q365.6179,454.5956 365.1238,454.7991 Q364.4748,455.08 363.6804,455.08 Q362.7504,455.08 362.0044,454.7119 Q361.4038,454.4213 360.9776,453.7916 Q360.561,453.1619 360.561,452.4159 L360.561,451.7378 Q360.561,450.9628 360.9291,450.2847 Q361.3069,449.6066 361.956,449.2481 Q362.6147,448.88 363.351,448.88 Q363.7966,448.88 364.1841,449.035 Q364.5716,449.19 364.901,449.5 Z " fill="#000000"/><text fill="#000000" font-family="sans-serif" font-size="7.44" lengthAdjust="spacing" textLength="86.8" x="374.139" y="454.7143">LabCoordinatorValidation</text><line style="stroke:#A80036;stroke-width:0.9299999999999999;" x1="346.89" x2="470.27" y1="461.59" y2="461.59"/><rect fill="none" height="3.72" style="stroke:#C82930;stroke-width:0.62;" width="3.72" x="351.23" y="466.55"/><text fill="#000000" font-family="sans-serif" font-size="6.82" lengthAdjust="spacing" textLength="65.72" x="358.67" y="471.1497">registerDateValidation</text><rect fill="none" height="3.72" style="stroke:#C82930;stroke-width:0.62;" width="3.72" x="351.23" y="475.1283"/><text fill="#000000" font-family="sans-serif" font-size="6.82" lengthAdjust="spacing" textLength="94.86" x="358.67" y="479.728">chemicalAnalysisDateValidation</text><rect fill="none" height="3.72" style="stroke:#C82930;stroke-width:0.62;" width="3.72" x="351.23" y="483.7066"/><text fill="#000000" font-family="sans-serif" font-size="6.82" lengthAdjust="spacing" textLength="71.3" x="358.67" y="488.3063">diagnosisDateValidation</text><rect fill="none" height="3.72" style="stroke:#C82930;stroke-width:0.62;" width="3.72" x="351.23" y="492.2848"/><text fill="#000000" font-family="sans-serif" font-size="6.82" lengthAdjust="spacing" textLength="40.3" x="358.67" y="496.8846">labCoordDate</text><line style="stroke:#A80036;stroke-width:0.62;" x1="346.89" x2="470.27" y1="500.8631" y2="500.8631"/><ellipse cx="353.09" cy="507.6831" fill="#84BE84" rx="1.86" ry="1.86" style="stroke:#038048;stroke-width:0.62;"/><text fill="#000000" font-family="sans-serif" font-size="6.82" lengthAdjust="spacing" textLength="49.6" x="358.67" y="510.4229">checkDate(date)</text><ellipse cx="353.09" cy="516.2614" fill="#84BE84" rx="1.86" ry="1.86" style="stroke:#038048;stroke-width:0.62;"/><text fill="#000000" font-family="sans-serif" font-size="6.82" lengthAdjust="spacing" textLength="38.44" x="358.67" y="519.0012">recordDate()</text><ellipse cx="353.09" cy="524.8397" rx="1.86" ry="1.86" style="stroke:#038048;stroke-width:0.62;fill:none;"/><text fill="#000000" font-family="sans-serif" font-size="6.82" lengthAdjust="spacing" textLength="108.5" x="358.67" y="527.5794">recordLabCoordinatorValidationDate</text><ellipse cx="353.09" cy="533.418" fill="#84BE84" rx="1.86" ry="1.86" style="stroke:#038048;stroke-width:0.62;"/><text fill="#000000" font-family="sans-serif" font-size="6.82" lengthAdjust="spacing" textLength="57.04" x="358.67" y="536.1577">getLabCoordDate()</text><!--MD5=[df38be88ccee13e832d6fafd6288a4ca]
class Test--><rect codeLine="50" fill="#FEFECE" filter="url(#flhvv7c5p425t)" height="124.1211" id="Test" style="stroke:#A80036;stroke-width:0.9299999999999999;" width="162.44" x="112.84" y="429.04"/><ellipse cx="183.985" cy="438.96" fill="#ADD1B2" rx="6.82" ry="6.82" style="stroke:#A80036;stroke-width:0.62;"/><path d="M185.225,436.79 Q185.3509,436.48 185.4963,436.325 Q185.6416,436.17 185.8063,436.17 Q186.0969,436.17 186.2809,436.3444 Q186.465,436.5188 186.465,436.9256 L186.465,437.8944 Q186.465,438.3013 186.2906,438.4756 Q186.1163,438.65 185.845,438.65 Q185.6028,438.65 185.4478,438.5434 Q185.2928,438.4369 185.225,438.1559 Q185.1959,437.9622 185.0894,437.8556 Q184.8956,437.6522 184.5469,437.5359 Q184.1981,437.41 183.8494,437.41 Q183.4134,437.41 183.0453,437.5844 Q182.6869,437.7588 182.4059,438.1463 Q182.125,438.5338 182.125,439.0666 L182.125,439.6381 Q182.125,440.2775 182.6481,440.7038 Q183.1713,441.13 184.1013,441.13 Q184.6534,441.13 185.0409,441.0041 Q185.2638,440.9363 185.5156,440.7134 Q185.6803,440.5875 185.7675,440.5488 Q185.8547,440.51 185.9613,440.51 Q186.1647,440.51 186.31,440.6747 Q186.465,440.8297 186.465,441.0525 Q186.465,441.2656 186.2519,441.5175 Q185.9419,441.8856 185.4478,442.0891 Q184.7988,442.37 184.0044,442.37 Q183.0744,442.37 182.3284,442.0019 Q181.7278,441.7113 181.3016,441.0816 Q180.885,440.4519 180.885,439.7059 L180.885,439.0278 Q180.885,438.2528 181.2531,437.5747 Q181.6309,436.8966 182.28,436.5381 Q182.9388,436.17 183.675,436.17 Q184.1206,436.17 184.5081,436.325 Q184.8956,436.48 185.225,436.79 Z " fill="#000000"/><text fill="#000000" font-family="sans-serif" font-size="7.44" lengthAdjust="spacing" textLength="14.88" x="196.695" y="442.0043">Test</text><line style="stroke:#A80036;stroke-width:0.9299999999999999;" x1="113.46" x2="274.66" y1="448.88" y2="448.88"/><rect fill="none" height="3.72" style="stroke:#C82930;stroke-width:0.62;" width="3.72" x="117.8" y="453.84"/><text fill="#000000" font-family="sans-serif" font-size="6.82" lengthAdjust="spacing" textLength="37.2" x="125.24" y="458.4397">testAddDate</text><line style="stroke:#A80036;stroke-width:0.62;" x1="113.46" x2="274.66" y1="462.4183" y2="462.4183"/><ellipse cx="119.66" cy="469.2383" fill="#84BE84" rx="1.86" ry="1.86" style="stroke:#038048;stroke-width:0.62;"/><text fill="#000000" font-family="sans-serif" font-size="6.82" lengthAdjust="spacing" textLength="41.54" x="125.24" y="471.978">getNhsCode()</text><ellipse cx="119.66" cy="477.8166" fill="#84BE84" rx="1.86" ry="1.86" style="stroke:#038048;stroke-width:0.62;"/><text fill="#000000" font-family="sans-serif" font-size="6.82" lengthAdjust="spacing" textLength="51.46" x="125.24" y="480.5563">getInternalCode()</text><ellipse cx="119.66" cy="486.3948" fill="#84BE84" rx="1.86" ry="1.86" style="stroke:#038048;stroke-width:0.62;"/><text fill="#000000" font-family="sans-serif" font-size="6.82" lengthAdjust="spacing" textLength="63.24" x="125.24" y="489.1346">getRegistrationDate()</text><ellipse cx="119.66" cy="494.9731" fill="#84BE84" rx="1.86" ry="1.86" style="stroke:#038048;stroke-width:0.62;"/><text fill="#000000" font-family="sans-serif" font-size="6.82" lengthAdjust="spacing" textLength="80.6" x="125.24" y="497.7129">getChemicalAnalysisDate()</text><ellipse cx="119.66" cy="503.5514" fill="#84BE84" rx="1.86" ry="1.86" style="stroke:#038048;stroke-width:0.62;"/><text fill="#000000" font-family="sans-serif" font-size="6.82" lengthAdjust="spacing" textLength="57.04" x="125.24" y="506.2912">getDiagnosisDate()</text><ellipse cx="119.66" cy="512.1297" fill="#84BE84" rx="1.86" ry="1.86" style="stroke:#038048;stroke-width:0.62;"/><text fill="#000000" font-family="sans-serif" font-size="6.82" lengthAdjust="spacing" textLength="43.4" x="125.24" y="514.8694">validateWork()</text><ellipse cx="119.66" cy="520.708" fill="#84BE84" rx="1.86" ry="1.86" style="stroke:#038048;stroke-width:0.62;"/><text fill="#000000" font-family="sans-serif" font-size="6.82" lengthAdjust="spacing" textLength="53.32" x="125.24" y="523.4477">getTestAddDate()</text><ellipse cx="119.66" cy="529.2863" fill="#84BE84" rx="1.86" ry="1.86" style="stroke:#038048;stroke-width:0.62;"/><text fill="#000000" font-family="sans-serif" font-size="6.82" lengthAdjust="spacing" textLength="80.6" x="125.24" y="532.026">getChemicalAnalysisDate()</text><ellipse cx="119.66" cy="537.8645" fill="#84BE84" rx="1.86" ry="1.86" style="stroke:#038048;stroke-width:0.62;"/><text fill="#000000" font-family="sans-serif" font-size="6.82" lengthAdjust="spacing" textLength="44.64" x="125.24" y="540.6043">getCreatedAt()</text><ellipse cx="119.66" cy="546.4428" fill="#84BE84" rx="1.86" ry="1.86" style="stroke:#038048;stroke-width:0.62;"/><text fill="#000000" font-family="sans-serif" font-size="6.82" lengthAdjust="spacing" textLength="146.32" x="125.24" y="549.1826">generateDateAndTimeLabCoordinatorValidation()</text><!--MD5=[7e2bc2f128e759c5889ccd6a2666d576]
class EmailNotification--><rect codeLine="65" fill="#FEFECE" filter="url(#flhvv7c5p425t)" height="38.3383" id="EmailNotification" style="stroke:#A80036;stroke-width:0.9299999999999999;" width="91.76" x="316.82" y="320.85"/><ellipse cx="332.537" cy="330.77" fill="#ADD1B2" rx="6.82" ry="6.82" style="stroke:#A80036;stroke-width:0.62;"/><path d="M333.777,328.6 Q333.9029,328.29 334.0483,328.135 Q334.1936,327.98 334.3583,327.98 Q334.6489,327.98 334.8329,328.1544 Q335.017,328.3288 335.017,328.7356 L335.017,329.7044 Q335.017,330.1113 334.8426,330.2856 Q334.6683,330.46 334.397,330.46 Q334.1548,330.46 333.9998,330.3534 Q333.8448,330.2469 333.777,329.9659 Q333.7479,329.7722 333.6414,329.6656 Q333.4476,329.4622 333.0989,329.3459 Q332.7501,329.22 332.4014,329.22 Q331.9654,329.22 331.5973,329.3944 Q331.2389,329.5688 330.9579,329.9563 Q330.677,330.3438 330.677,330.8766 L330.677,331.4481 Q330.677,332.0875 331.2001,332.5138 Q331.7233,332.94 332.6533,332.94 Q333.2054,332.94 333.5929,332.8141 Q333.8158,332.7463 334.0676,332.5234 Q334.2323,332.3975 334.3195,332.3588 Q334.4067,332.32 334.5133,332.32 Q334.7167,332.32 334.862,332.4847 Q335.017,332.6397 335.017,332.8625 Q335.017,333.0756 334.8039,333.3275 Q334.4939,333.6956 333.9998,333.8991 Q333.3508,334.18 332.5564,334.18 Q331.6264,334.18 330.8804,333.8119 Q330.2798,333.5213 329.8536,332.8916 Q329.437,332.2619 329.437,331.5159 L329.437,330.8378 Q329.437,330.0628 329.8051,329.3847 Q330.1829,328.7066 330.832,328.3481 Q331.4908,327.98 332.227,327.98 Q332.6726,327.98 333.0601,328.135 Q333.4476,328.29 333.777,328.6 Z " fill="#000000"/><text fill="#000000" font-family="sans-serif" font-size="7.44" lengthAdjust="spacing" textLength="57.66" x="342.643" y="333.8143">EmailNotification</text><line style="stroke:#A80036;stroke-width:0.9299999999999999;" x1="317.44" x2="407.96" y1="340.69" y2="340.69"/><line style="stroke:#A80036;stroke-width:0.9299999999999999;" x1="317.44" x2="407.96" y1="345.65" y2="345.65"/><ellipse cx="323.64" cy="352.47" fill="#84BE84" rx="1.86" ry="1.86" style="stroke:#038048;stroke-width:0.62;"/><text fill="#000000" font-family="sans-serif" font-size="6.82" lengthAdjust="spacing" textLength="75.64" x="329.22" y="355.2097">notification(selectedTest)</text><!--MD5=[17d776304760d17bcc13ba401441cbdd]
class SMSNotification--><rect codeLine="69" fill="#FEFECE" filter="url(#flhvv7c5p425t)" height="38.3383" id="SMSNotification" style="stroke:#A80036;stroke-width:0.9299999999999999;" width="91.76" x="203.36" y="320.85"/><ellipse cx="221.03" cy="330.77" fill="#ADD1B2" rx="6.82" ry="6.82" style="stroke:#A80036;stroke-width:0.62;"/><path d="M222.27,328.6 Q222.3959,328.29 222.5413,328.135 Q222.6866,327.98 222.8513,327.98 Q223.1419,327.98 223.3259,328.1544 Q223.51,328.3288 223.51,328.7356 L223.51,329.7044 Q223.51,330.1113 223.3356,330.2856 Q223.1613,330.46 222.89,330.46 Q222.6478,330.46 222.4928,330.3534 Q222.3378,330.2469 222.27,329.9659 Q222.2409,329.7722 222.1344,329.6656 Q221.9406,329.4622 221.5919,329.3459 Q221.2431,329.22 220.8944,329.22 Q220.4584,329.22 220.0903,329.3944 Q219.7319,329.5688 219.4509,329.9563 Q219.17,330.3438 219.17,330.8766 L219.17,331.4481 Q219.17,332.0875 219.6931,332.5138 Q220.2163,332.94 221.1463,332.94 Q221.6984,332.94 222.0859,332.8141 Q222.3088,332.7463 222.5606,332.5234 Q222.7253,332.3975 222.8125,332.3588 Q222.8997,332.32 223.0063,332.32 Q223.2097,332.32 223.355,332.4847 Q223.51,332.6397 223.51,332.8625 Q223.51,333.0756 223.2969,333.3275 Q222.9869,333.6956 222.4928,333.8991 Q221.8438,334.18 221.0494,334.18 Q220.1194,334.18 219.3734,333.8119 Q218.7728,333.5213 218.3466,332.8916 Q217.93,332.2619 217.93,331.5159 L217.93,330.8378 Q217.93,330.0628 218.2981,329.3847 Q218.6759,328.7066 219.325,328.3481 Q219.9838,327.98 220.72,327.98 Q221.1656,327.98 221.5531,328.135 Q221.9406,328.29 222.27,328.6 Z " fill="#000000"/><text fill="#000000" font-family="sans-serif" font-size="7.44" lengthAdjust="spacing" textLength="53.32" x="231.57" y="333.8143">SMSNotification</text><line style="stroke:#A80036;stroke-width:0.9299999999999999;" x1="203.98" x2="294.5" y1="340.69" y2="340.69"/><line style="stroke:#A80036;stroke-width:0.9299999999999999;" x1="203.98" x2="294.5" y1="345.65" y2="345.65"/><ellipse cx="210.18" cy="352.47" fill="#84BE84" rx="1.86" ry="1.86" style="stroke:#038048;stroke-width:0.62;"/><text fill="#000000" font-family="sans-serif" font-size="6.82" lengthAdjust="spacing" textLength="75.64" x="215.76" y="355.2097">notification(selectedTest)</text><!--MD5=[0f6f7964b844a64b0496af0dda7914bd]
class TestStore--><rect codeLine="75" fill="#FEFECE" filter="url(#flhvv7c5p425t)" height="46.9166" id="TestStore" style="stroke:#A80036;stroke-width:0.9299999999999999;" width="103.54" x="506.23" y="202.74"/><ellipse cx="538.935" cy="212.66" fill="#ADD1B2" rx="6.82" ry="6.82" style="stroke:#A80036;stroke-width:0.62;"/><path d="M540.175,210.49 Q540.3009,210.18 540.4463,210.025 Q540.5916,209.87 540.7563,209.87 Q541.0469,209.87 541.2309,210.0444 Q541.415,210.2188 541.415,210.6256 L541.415,211.5944 Q541.415,212.0013 541.2406,212.1756 Q541.0663,212.35 540.795,212.35 Q540.5528,212.35 540.3978,212.2434 Q540.2428,212.1369 540.175,211.8559 Q540.1459,211.6622 540.0394,211.5556 Q539.8456,211.3522 539.4969,211.2359 Q539.1481,211.11 538.7994,211.11 Q538.3634,211.11 537.9953,211.2844 Q537.6369,211.4588 537.3559,211.8463 Q537.075,212.2338 537.075,212.7666 L537.075,213.3381 Q537.075,213.9775 537.5981,214.4038 Q538.1213,214.83 539.0513,214.83 Q539.6034,214.83 539.9909,214.7041 Q540.2138,214.6363 540.4656,214.4134 Q540.6303,214.2875 540.7175,214.2488 Q540.8047,214.21 540.9113,214.21 Q541.1147,214.21 541.26,214.3747 Q541.415,214.5297 541.415,214.7525 Q541.415,214.9656 541.2019,215.2175 Q540.8919,215.5856 540.3978,215.7891 Q539.7488,216.07 538.9544,216.07 Q538.0244,216.07 537.2784,215.7019 Q536.6778,215.4113 536.2516,214.7816 Q535.835,214.1519 535.835,213.4059 L535.835,212.7278 Q535.835,211.9528 536.2031,211.2747 Q536.5809,210.5966 537.23,210.2381 Q537.8888,209.87 538.625,209.87 Q539.0706,209.87 539.4581,210.025 Q539.8456,210.18 540.175,210.49 Z " fill="#000000"/><text fill="#000000" font-family="sans-serif" font-size="7.44" lengthAdjust="spacing" textLength="32.86" x="551.645" y="215.7043">TestStore</text><line style="stroke:#A80036;stroke-width:0.9299999999999999;" x1="506.85" x2="609.15" y1="222.58" y2="222.58"/><line style="stroke:#A80036;stroke-width:0.9299999999999999;" x1="506.85" x2="609.15" y1="227.54" y2="227.54"/><ellipse cx="513.05" cy="234.36" fill="#84BE84" rx="1.86" ry="1.86" style="stroke:#038048;stroke-width:0.62;"/><text fill="#000000" font-family="sans-serif" font-size="6.82" lengthAdjust="spacing" textLength="69.44" x="518.63" y="237.0997">getTestHasReportList()</text><ellipse cx="513.05" cy="242.9383" fill="#84BE84" rx="1.86" ry="1.86" style="stroke:#038048;stroke-width:0.62;"/><text fill="#000000" font-family="sans-serif" font-size="6.82" lengthAdjust="spacing" textLength="87.42" x="518.63" y="245.678">getTestByInternalCode(code)</text><!--MD5=[144698ec4d0188f6929a3b58a3eeb1f6]
class TestMapper--><rect codeLine="82" fill="#FEFECE" filter="url(#flhvv7c5p425t)" height="46.9166" id="TestMapper" style="stroke:#A80036;stroke-width:0.9299999999999999;" width="60.14" x="728.19" y="202.74"/><ellipse cx="737.49" cy="212.66" fill="#ADD1B2" rx="6.82" ry="6.82" style="stroke:#A80036;stroke-width:0.62;"/><path d="M738.73,210.49 Q738.8559,210.18 739.0013,210.025 Q739.1466,209.87 739.3113,209.87 Q739.6019,209.87 739.7859,210.0444 Q739.97,210.2188 739.97,210.6256 L739.97,211.5944 Q739.97,212.0013 739.7956,212.1756 Q739.6213,212.35 739.35,212.35 Q739.1078,212.35 738.9528,212.2434 Q738.7978,212.1369 738.73,211.8559 Q738.7009,211.6622 738.5944,211.5556 Q738.4006,211.3522 738.0519,211.2359 Q737.7031,211.11 737.3544,211.11 Q736.9184,211.11 736.5503,211.2844 Q736.1919,211.4588 735.9109,211.8463 Q735.63,212.2338 735.63,212.7666 L735.63,213.3381 Q735.63,213.9775 736.1531,214.4038 Q736.6763,214.83 737.6063,214.83 Q738.1584,214.83 738.5459,214.7041 Q738.7688,214.6363 739.0206,214.4134 Q739.1853,214.2875 739.2725,214.2488 Q739.3597,214.21 739.4663,214.21 Q739.6697,214.21 739.815,214.3747 Q739.97,214.5297 739.97,214.7525 Q739.97,214.9656 739.7569,215.2175 Q739.4469,215.5856 738.9528,215.7891 Q738.3038,216.07 737.5094,216.07 Q736.5794,216.07 735.8334,215.7019 Q735.2328,215.4113 734.8066,214.7816 Q734.39,214.1519 734.39,213.4059 L734.39,212.7278 Q734.39,211.9528 734.7581,211.2747 Q735.1359,210.5966 735.785,210.2381 Q736.4438,209.87 737.18,209.87 Q737.6256,209.87 738.0131,210.025 Q738.4006,210.18 738.73,210.49 Z " fill="#000000"/><text fill="#000000" font-family="sans-serif" font-size="7.44" lengthAdjust="spacing" textLength="40.3" x="746.17" y="215.7043">TestMapper</text><line style="stroke:#A80036;stroke-width:0.9299999999999999;" x1="728.81" x2="787.71" y1="222.58" y2="222.58"/><line style="stroke:#A80036;stroke-width:0.9299999999999999;" x1="728.81" x2="787.71" y1="227.54" y2="227.54"/><ellipse cx="735.01" cy="234.36" fill="#84BE84" rx="1.86" ry="1.86" style="stroke:#038048;stroke-width:0.62;"/><text fill="#000000" font-family="sans-serif" font-size="6.82" lengthAdjust="spacing" textLength="31.62" x="740.59" y="237.0997">toDto(test)</text><ellipse cx="735.01" cy="242.9383" fill="#84BE84" rx="1.86" ry="1.86" style="stroke:#038048;stroke-width:0.62;"/><text fill="#000000" font-family="sans-serif" font-size="6.82" lengthAdjust="spacing" textLength="42.16" x="740.59" y="245.678">toDto(testList)</text><!--MD5=[3ac5a900dc87cdb1f6ebf195c1c51555]
class DateMapper--><rect codeLine="86" fill="#FEFECE" filter="url(#flhvv7c5p425t)" height="46.9166" id="DateMapper" style="stroke:#A80036;stroke-width:0.9299999999999999;" width="61.38" x="645.11" y="202.74"/><ellipse cx="654.41" cy="212.66" fill="#ADD1B2" rx="6.82" ry="6.82" style="stroke:#A80036;stroke-width:0.62;"/><path d="M655.65,210.49 Q655.7759,210.18 655.9213,210.025 Q656.0666,209.87 656.2313,209.87 Q656.5219,209.87 656.7059,210.0444 Q656.89,210.2188 656.89,210.6256 L656.89,211.5944 Q656.89,212.0013 656.7156,212.1756 Q656.5413,212.35 656.27,212.35 Q656.0278,212.35 655.8728,212.2434 Q655.7178,212.1369 655.65,211.8559 Q655.6209,211.6622 655.5144,211.5556 Q655.3206,211.3522 654.9719,211.2359 Q654.6231,211.11 654.2744,211.11 Q653.8384,211.11 653.4703,211.2844 Q653.1119,211.4588 652.8309,211.8463 Q652.55,212.2338 652.55,212.7666 L652.55,213.3381 Q652.55,213.9775 653.0731,214.4038 Q653.5962,214.83 654.5263,214.83 Q655.0784,214.83 655.4659,214.7041 Q655.6888,214.6363 655.9406,214.4134 Q656.1053,214.2875 656.1925,214.2488 Q656.2797,214.21 656.3863,214.21 Q656.5897,214.21 656.735,214.3747 Q656.89,214.5297 656.89,214.7525 Q656.89,214.9656 656.6769,215.2175 Q656.3669,215.5856 655.8728,215.7891 Q655.2238,216.07 654.4294,216.07 Q653.4994,216.07 652.7534,215.7019 Q652.1528,215.4113 651.7266,214.7816 Q651.31,214.1519 651.31,213.4059 L651.31,212.7278 Q651.31,211.9528 651.6781,211.2747 Q652.0559,210.5966 652.705,210.2381 Q653.3638,209.87 654.1,209.87 Q654.5456,209.87 654.9331,210.025 Q655.3206,210.18 655.65,210.49 Z " fill="#000000"/><text fill="#000000" font-family="sans-serif" font-size="7.44" lengthAdjust="spacing" textLength="41.54" x="663.09" y="215.7043">DateMapper</text><line style="stroke:#A80036;stroke-width:0.9299999999999999;" x1="645.73" x2="705.87" y1="222.58" y2="222.58"/><line style="stroke:#A80036;stroke-width:0.9299999999999999;" x1="645.73" x2="705.87" y1="227.54" y2="227.54"/><ellipse cx="651.93" cy="234.36" fill="#84BE84" rx="1.86" ry="1.86" style="stroke:#038048;stroke-width:0.62;"/><text fill="#000000" font-family="sans-serif" font-size="6.82" lengthAdjust="spacing" textLength="33.48" x="657.51" y="237.0997">toDto(date)</text><ellipse cx="651.93" cy="242.9383" fill="#84BE84" rx="1.86" ry="1.86" style="stroke:#038048;stroke-width:0.62;"/><text fill="#000000" font-family="sans-serif" font-size="6.82" lengthAdjust="spacing" textLength="44.02" x="657.51" y="245.678">toDto(dateList)</text><!--MD5=[76b5e19c9337179d2d7ae334371d68c8]
class Notification--><rect codeLine="93" fill="#FEFECE" filter="url(#flhvv7c5p425t)" height="29.76" id="Notification" style="stroke:#A80036;stroke-width:0.9299999999999999;" width="57.66" x="20.15" y="476.16"/><ellipse cx="29.45" cy="486.08" fill="#B4A7E5" rx="6.82" ry="6.82" style="stroke:#A80036;stroke-width:0.62;"/><path d="M30.07,484.22 L30.07,487.94 L31.31,487.94 L31.6103,487.94 L31.93,488.3275 L31.93,488.56 L31.93,488.7925 L31.6103,489.18 L31.31,489.18 L27.59,489.18 L27.2897,489.18 L26.97,488.7925 L26.97,488.56 L26.97,488.3275 L27.2897,487.94 L27.59,487.94 L28.83,487.94 L28.83,484.22 L27.59,484.22 L27.2897,484.22 L26.97,483.8325 L26.97,483.6 L26.97,483.3675 L27.2897,482.98 L27.59,482.98 L31.31,482.98 L31.6103,482.98 L31.93,483.3675 L31.93,483.6 L31.93,483.8325 L31.6103,484.22 L31.31,484.22 L30.07,484.22 Z " fill="#000000"/><text fill="#000000" font-family="sans-serif" font-size="7.44" font-style="italic" lengthAdjust="spacing" textLength="37.82" x="38.13" y="489.1243">Notification</text><line style="stroke:#A80036;stroke-width:0.9299999999999999;" x1="20.77" x2="77.19" y1="496" y2="496"/><line style="stroke:#A80036;stroke-width:0.9299999999999999;" x1="20.77" x2="77.19" y1="500.96" y2="500.96"/><!--MD5=[66cf87756492a869627b98ff8d281655]
class DateDTO--><rect codeLine="98" fill="#FEFECE" filter="url(#flhvv7c5p425t)" height="46.9166" id="DateDTO" style="stroke:#A80036;stroke-width:0.9299999999999999;" width="51.46" x="854.67" y="202.74"/><ellipse cx="863.97" cy="212.66" fill="#ADD1B2" rx="6.82" ry="6.82" style="stroke:#A80036;stroke-width:0.62;"/><path d="M865.21,210.49 Q865.3359,210.18 865.4813,210.025 Q865.6266,209.87 865.7913,209.87 Q866.0819,209.87 866.2659,210.0444 Q866.45,210.2188 866.45,210.6256 L866.45,211.5944 Q866.45,212.0013 866.2756,212.1756 Q866.1013,212.35 865.83,212.35 Q865.5878,212.35 865.4328,212.2434 Q865.2778,212.1369 865.21,211.8559 Q865.1809,211.6622 865.0744,211.5556 Q864.8806,211.3522 864.5319,211.2359 Q864.1831,211.11 863.8344,211.11 Q863.3984,211.11 863.0303,211.2844 Q862.6719,211.4588 862.3909,211.8463 Q862.11,212.2338 862.11,212.7666 L862.11,213.3381 Q862.11,213.9775 862.6331,214.4038 Q863.1563,214.83 864.0863,214.83 Q864.6384,214.83 865.0259,214.7041 Q865.2488,214.6363 865.5006,214.4134 Q865.6653,214.2875 865.7525,214.2488 Q865.8397,214.21 865.9463,214.21 Q866.1497,214.21 866.295,214.3747 Q866.45,214.5297 866.45,214.7525 Q866.45,214.9656 866.2369,215.2175 Q865.9269,215.5856 865.4328,215.7891 Q864.7837,216.07 863.9894,216.07 Q863.0594,216.07 862.3134,215.7019 Q861.7128,215.4113 861.2866,214.7816 Q860.87,214.1519 860.87,213.4059 L860.87,212.7278 Q860.87,211.9528 861.2381,211.2747 Q861.6159,210.5966 862.265,210.2381 Q862.9238,209.87 863.66,209.87 Q864.1056,209.87 864.4931,210.025 Q864.8806,210.18 865.21,210.49 Z " fill="#000000"/><text fill="#000000" font-family="sans-serif" font-size="7.44" lengthAdjust="spacing" textLength="31.62" x="872.65" y="215.7043">DateDTO</text><line style="stroke:#A80036;stroke-width:0.9299999999999999;" x1="855.29" x2="905.51" y1="222.58" y2="222.58"/><rect fill="none" height="3.72" style="stroke:#C82930;stroke-width:0.62;" width="3.72" x="859.63" y="227.54"/><text fill="#000000" font-family="sans-serif" font-size="6.82" lengthAdjust="spacing" textLength="13.02" x="867.07" y="232.1397">date</text><rect fill="none" height="3.72" style="stroke:#C82930;stroke-width:0.62;" width="3.72" x="859.63" y="236.1183"/><text fill="#000000" font-family="sans-serif" font-size="6.82" lengthAdjust="spacing" textLength="30.38" x="867.07" y="240.718">dateString</text><line style="stroke:#A80036;stroke-width:0.9299999999999999;" x1="855.29" x2="905.51" y1="244.6966" y2="244.6966"/><!--MD5=[b8bd95e3f6740b08f0bb61da85ab4767]
link ValidateWorkUI to ValidateWorkController--><path codeLine="107" d="M804.5864,88.04 C766.32,88.04 728.0536,88.04 689.7872,88.04 " fill="none" id="ValidateWorkUI-to-ValidateWorkController" style="stroke:#A80036;stroke-width:0.62;stroke-dasharray:7.0,7.0;"/><polygon fill="#A80036" points="686.5632,88.04,692.1432,90.52,689.6632,88.04,692.1432,85.56,686.5632,88.04" style="stroke:#A80036;stroke-width:0.62;"/><!--MD5=[cb82b14914c4bc68f393060595913c80]
link ValidateWorkUI to DateDTO--><path codeLine="108" d="M844.8926,103.0378 C849.6108,119.2694 857.5034,146.4688 864.28,169.88 C867.0762,179.5396 870.139,190.1416 872.836,199.485 " fill="none" id="ValidateWorkUI-to-DateDTO" style="stroke:#A80036;stroke-width:0.62;stroke-dasharray:7.0,7.0;"/><polygon fill="#A80036" points="873.7412,202.6036,874.5762,196.5547,872.8814,199.6252,869.8108,197.9304,873.7412,202.6036" style="stroke:#A80036;stroke-width:0.62;"/><!--MD5=[50d8ceb658c65cdc3fa2f95f4fab6e4c]
link ValidateWorkController to Company--><path codeLine="110" d="M537.5214,98.8032 C442.928,112.9082 286.3284,140.6656 239.94,175.46 C199.764,205.592 174.5362,258.6454 160.7846,296.2422 " fill="none" id="ValidateWorkController-to-Company" style="stroke:#A80036;stroke-width:0.62;stroke-dasharray:7.0,7.0;"/><polygon fill="#A80036" points="159.65,299.3732,163.8758,294.9653,160.7016,296.457,159.2099,293.2828,159.65,299.3732" style="stroke:#A80036;stroke-width:0.62;"/><!--MD5=[d87421f406902a4d5ef5a680b014dd1f]
link ValidateWorkController to TestStore--><path codeLine="111" d="M587.729,150.1578 C580.878,167.555 573.7914,185.5722 568.2548,199.64 " fill="none" id="ValidateWorkController-to-TestStore" style="stroke:#A80036;stroke-width:0.62;stroke-dasharray:7.0,7.0;"/><polygon fill="#A80036" points="567.0954,202.5788,571.4546,198.3028,568.236,199.6963,566.8425,196.4777,567.0954,202.5788" style="stroke:#A80036;stroke-width:0.62;"/><!--MD5=[19c2fef5f1991f130f01593fb67b1f56]
link ValidateWorkController to Test--><path codeLine="112" d="M537.2548,134.5896 C522.1144,146.4688 507.3646,160.2576 496,175.46 C437.7386,253.394 483.941,307.5634 419.74,380.68 C409.2868,392.584 337.869,426.3802 278.132,453.3564 " fill="none" id="ValidateWorkController-to-Test" style="stroke:#A80036;stroke-width:0.62;stroke-dasharray:7.0,7.0;"/><polygon fill="#A80036" points="275.2924,454.6336,281.3986,454.5982,278.1179,453.3582,279.3579,450.0774,275.2924,454.6336" style="stroke:#A80036;stroke-width:0.62;"/><!--MD5=[2d57252601d7ffe451cb680cf0092eed]
link ValidateWorkController to TestMapper--><path codeLine="113" d="M686.4392,146.8594 C697.1156,156.0974 707.73,165.7942 717.34,175.46 C724.8854,183.0488 732.4804,191.9334 739.0338,200.105 " fill="none" id="ValidateWorkController-to-TestMapper" style="stroke:#A80036;stroke-width:0.62;stroke-dasharray:7.0,7.0;"/><polygon fill="#A80036" points="741.0364,202.616,739.4793,196.7116,739.0966,200.1979,735.6103,199.8153,741.0364,202.616" style="stroke:#A80036;stroke-width:0.62;"/><!--MD5=[9909770ebab99bbd3eaf26c869c4dc5e]
link ValidateWorkController to DateMapper--><path codeLine="114" d="M640.6026,150.1578 C648.7122,167.555 657.107,185.5722 663.6604,199.64 " fill="none" id="ValidateWorkController-to-DateMapper" style="stroke:#A80036;stroke-width:0.62;stroke-dasharray:7.0,7.0;"/><polygon fill="#A80036" points="665.0306,202.5788,664.9172,196.4736,663.7192,199.7699,660.4229,198.5718,665.0306,202.5788" style="stroke:#A80036;stroke-width:0.62;"/><!--MD5=[1213d4e61ca5987b7479ad73eb71efcd]
link ValidateWorkController to DateDTO--><path codeLine="115" d="M686.3896,125.2276 C718.9582,139.7666 758.0616,155.2914 794.84,164.92 C813.0928,169.7002 820.5638,160.611 837,169.88 C849.3194,176.824 859.3386,188.8272 866.636,199.919 " fill="none" id="ValidateWorkController-to-DateDTO" style="stroke:#A80036;stroke-width:0.62;stroke-dasharray:7.0,7.0;"/><polygon fill="#A80036" points="868.434,202.7214,867.5027,196.6865,866.7577,200.1137,863.3305,199.3687,868.434,202.7214" style="stroke:#A80036;stroke-width:0.62;"/><!--MD5=[e31bcfd6bccc71c06cc96c243b2085dd]
link ValidateWorkController to LabCoordinatorValidation--><path codeLine="116" d="M686.5694,103.0688 C727.1298,115.1154 773.9212,136.8216 798.56,175.46 C819.8942,208.9152 816.2238,229.2078 798.56,264.74 C735.7292,391.1146 567.765,451.453 474.0644,476.067 " fill="none" id="ValidateWorkController-to-LabCoordinatorValidation" style="stroke:#A80036;stroke-width:0.62;stroke-dasharray:7.0,7.0;"/><polygon fill="#A80036" points="471.0326,476.8544,477.0574,477.8485,474.0326,476.0733,475.8077,473.0485,471.0326,476.8544" style="stroke:#A80036;stroke-width:0.62;"/><!--MD5=[ad161f2f8a609450ef4e272a9e77a580]
link ValidateWorkController to EmailNotification--><path codeLine="117" d="M537.4718,116.6654 C509.6462,129.7536 479.2662,147.467 456.32,169.88 C433.1196,192.541 391.7408,277.3074 372.7378,317.7376 " fill="none" id="ValidateWorkController-to-EmailNotification" style="stroke:#A80036;stroke-width:0.62;stroke-dasharray:7.0,7.0;"/><polygon fill="#A80036" points="371.411,320.5648,376.0291,316.5698,372.7297,317.7593,371.5402,314.4599,371.411,320.5648" style="stroke:#A80036;stroke-width:0.62;"/><!--MD5=[c28ce93173870cdd4654e108059067f5]
link ValidateWorkController to SMSNotification--><path codeLine="118" d="M537.4036,101.9776 C490.5564,113.9064 431.954,135.8792 393.7,175.46 C359.1102,211.2464 390.8232,245.4208 355.88,280.86 C339.3508,297.6248 327.1058,288.4798 306.28,299.46 C295.8144,304.978 285.0202,312.1142 275.6768,318.8288 " fill="none" id="ValidateWorkController-to-SMSNotification" style="stroke:#A80036;stroke-width:0.62;stroke-dasharray:7.0,7.0;"/><polygon fill="#A80036" points="273.079,320.7136,279.0549,319.4586,275.5926,318.8992,276.1519,315.4369,273.079,320.7136" style="stroke:#A80036;stroke-width:0.62;"/><!--MD5=[7e4bc624457760b649895ff2ead938fa]
link Company to Test--><path codeLine="120" d="M156.2958,380.7482 C158.6704,390.5256 161.3922,400.9106 164.3,410.44 C166.1352,416.4602 168.1812,422.6912 170.3202,428.8912 " fill="none" id="Company-Test" style="stroke:#A80036;stroke-width:0.62;"/><polygon fill="#000000" points="168.267,407.9453,168.448,402.0515,164.9492,403.0707,168.267,407.9453" style="stroke:#000000;stroke-width:0.62;"/><text fill="#000000" font-family="sans-serif" font-size="8.06" lengthAdjust="spacing" textLength="31" x="172.98" y="408.267">performs</text><text fill="#000000" font-family="sans-serif" font-size="8.06" lengthAdjust="spacing" textLength="4.34" x="152.6739" y="394.1182">1</text><text fill="#000000" font-family="sans-serif" font-size="8.06" lengthAdjust="spacing" textLength="12.4" x="155.7215" y="422.4134">1..*</text><!--MD5=[b0f4f6db8206580012ef9cd998ed01c5]
link TestStore to Test--><path codeLine="122" d="M556.6298,249.891 C552.9284,289.6144 539.2264,370.7104 488.56,410.44 C461.5838,431.5944 368.5032,420.05 335.42,429.04 C316.4852,434.186 296.8002,441.4152 278.349,449.1218 " fill="none" id="TestStore-to-Test" style="stroke:#A80036;stroke-width:0.62;"/><polygon fill="#A80036" points="275.3978,450.3618,281.503,450.4753,278.2535,449.1557,279.5732,445.9061,275.3978,450.3618" style="stroke:#A80036;stroke-width:0.62;"/><text fill="#000000" font-family="sans-serif" font-size="8.06" lengthAdjust="spacing" textLength="22.94" x="548.7" y="343.477">knows</text><text fill="#000000" font-family="sans-serif" font-size="8.06" lengthAdjust="spacing" textLength="4.34" x="551.7035" y="263.0216">1</text><text fill="#000000" font-family="sans-serif" font-size="8.06" lengthAdjust="spacing" textLength="3.1" x="280.1898" y="446.1731">*</text><!--MD5=[f9357b26d284f1c63f0cbb6e0cdfe31b]
link LabCoordinatorValidation to Test--><path codeLine="124" d="M346.1026,491.04 C324.0306,491.04 298.8772,491.04 275.466,491.04 " fill="none" id="LabCoordinatorValidation-Test" style="stroke:#A80036;stroke-width:0.62;"/><text fill="#000000" font-family="sans-serif" font-size="8.06" lengthAdjust="spacing" textLength="48.36" x="286.595" y="487.007">associated to</text><text fill="#000000" font-family="sans-serif" font-size="8.06" lengthAdjust="spacing" textLength="4.34" x="337.0151" y="489.1378">1</text><text fill="#000000" font-family="sans-serif" font-size="8.06" lengthAdjust="spacing" textLength="4.34" x="280.2977" y="489.203">1</text><!--MD5=[8d9a2c3ea1bf73d8d45b939465e53fff]
link TestMapper to Test--><path codeLine="126" d="M735.754,250.0336 C703.1606,282.5154 639.8524,342.0168 577.22,380.68 C549.2952,397.916 541.353,401.9832 509.64,410.44 C434.3968,430.5032 410.7128,409.169 335.42,429.04 C316.448,434.0434 296.7506,441.2168 278.2932,448.911 " fill="none" id="TestMapper-to-Test" style="stroke:#A80036;stroke-width:0.62;stroke-dasharray:7.0,7.0;"/><polygon fill="#A80036" points="275.342,450.1448,281.4472,450.2583,278.1977,448.9387,279.5174,445.6891,275.342,450.1448" style="stroke:#A80036;stroke-width:0.62;"/><!--MD5=[61a69ca76a267e5ce61d227b41cc8554]
link EmailNotification to Test--><path codeLine="128" d="M343.5606,359.352 C328.8294,373.5748 307.8548,393.5326 288.92,410.44 C282.1744,416.4664 275.0816,422.6664 267.9516,428.823 " fill="none" id="EmailNotification-Test" style="stroke:#A80036;stroke-width:0.62;"/><polygon fill="#000000" points="301.5173,407.0664,306.8796,404.6139,304.4139,401.9304,301.5173,407.0664" style="stroke:#000000;stroke-width:0.62;"/><text fill="#000000" font-family="sans-serif" font-size="8.06" lengthAdjust="spacing" textLength="48.36" x="309.38" y="408.267">associated to</text><text fill="#000000" font-family="sans-serif" font-size="8.06" lengthAdjust="spacing" textLength="4.34" x="335.0253" y="372.5231">1</text><text fill="#000000" font-family="sans-serif" font-size="8.06" lengthAdjust="spacing" textLength="4.34" x="268.8787" y="422.3402">1</text><!--MD5=[4a33660dcf1a07cc3b229ce4d592c1cf]
link SMSNotification to Test--><path codeLine="130" d="M242.3642,359.352 C235.9224,376.8298 225.928,403.9486 216.6962,428.9904 " fill="none" id="SMSNotification-Test" style="stroke:#A80036;stroke-width:0.62;"/><polygon fill="#000000" points="228.3279,407.8777,231.9771,403.246,228.5577,401.9856,228.3279,407.8777" style="stroke:#000000;stroke-width:0.62;"/><text fill="#000000" font-family="sans-serif" font-size="8.06" lengthAdjust="spacing" textLength="48.36" x="234.98" y="408.267">associated to</text><text fill="#000000" font-family="sans-serif" font-size="8.06" lengthAdjust="spacing" textLength="4.34" x="236.2433" y="372.5231">1</text><text fill="#000000" font-family="sans-serif" font-size="8.06" lengthAdjust="spacing" textLength="4.34" x="213.9231" y="422.3107">1</text><!--MD5=[afa21fc83a998d74c62ccf708b6f3d37]
link Client to SMSNotification--><path codeLine="132" d="M261.8508,241.2296 C257.5542,249.2958 252.774,259.7242 250.48,269.7 C246.574,286.6942 246.667,306.6396 247.4978,320.8376 " fill="none" id="Client-SMSNotification" style="stroke:#A80036;stroke-width:0.62;"/><polygon fill="#000000" points="253.03,278.4398,255.8182,273.2441,252.2318,272.5975,253.03,278.4398" style="stroke:#000000;stroke-width:0.62;"/><text fill="#000000" font-family="sans-serif" font-size="8.06" lengthAdjust="spacing" textLength="29.14" x="259.16" y="278.687">receives</text><text fill="#000000" font-family="sans-serif" font-size="8.06" lengthAdjust="spacing" textLength="3.1" x="256.3086" y="254.4712">*</text><text fill="#000000" font-family="sans-serif" font-size="8.06" lengthAdjust="spacing" textLength="12.4" x="233.3604" y="314.0275">1..*</text><!--MD5=[046f1426d7198af2f58a8c09756be431]
link Client to EmailNotification--><path codeLine="133" d="M282.2054,241.4032 C298.8276,261.64 329.0092,298.4122 347.324,320.7198 " fill="none" id="Client-EmailNotification" style="stroke:#A80036;stroke-width:0.62;"/><polygon fill="#000000" points="318.7871,277.7849,316.6369,272.2944,313.8203,274.6068,318.7871,277.7849" style="stroke:#000000;stroke-width:0.62;"/><text fill="#000000" font-family="sans-serif" font-size="8.06" lengthAdjust="spacing" textLength="29.14" x="322.4" y="278.687">receives</text><text fill="#000000" font-family="sans-serif" font-size="8.06" lengthAdjust="spacing" textLength="3.1" x="281.4955" y="254.435">*</text><text fill="#000000" font-family="sans-serif" font-size="8.06" lengthAdjust="spacing" textLength="12.4" x="330.474" y="314.1858">1..*</text><!--MD5=[e5aa68eb235f485d09cbc3d4aa8060b3]
link SMSNotification to Notification--><path codeLine="135" d="M227.2796,359.4946 C217.1984,367.195 204.7178,375.4968 192.2,380.68 C148.0002,398.9824 123.4234,369.2534 86.18,399.28 C66.588,415.0714 57.226,442.8536 52.8116,463.5988 " fill="none" id="SMSNotification-to-Notification" style="stroke:#A80036;stroke-width:0.62;stroke-dasharray:7.0,7.0;"/><polygon fill="none" points="57.04,464.597,50.561,476.0236,48.4964,463.0532,57.04,464.597" style="stroke:#A80036;stroke-width:0.62;"/><!--MD5=[4038f9ac231441f6e886151ed51892b7]
link EmailNotification to Notification--><path codeLine="136" d="M341.6572,359.383 C331.6256,367.257 319.0396,375.7262 306.28,380.68 C243.8956,404.891 220.5092,378.6092 156.86,399.28 C130.82,407.7368 124.2604,411.8846 102.92,429.04 C89.5776,439.7598 76.8304,454.0136 67.084,466.085 " fill="none" id="EmailNotification-to-Notification" style="stroke:#A80036;stroke-width:0.62;stroke-dasharray:7.0,7.0;"/><polygon fill="none" points="70.401,468.8874,59.3464,475.9864,63.5562,463.543,70.401,468.8874" style="stroke:#A80036;stroke-width:0.62;"/><!--MD5=[f328e94d7275638584b911a734332594]
@startuml

package UI{
class ValidateWorkUI{
}
}

package Controller{
class ValidateWorkController{
+getTestToValidateList()
+getSelectedTest(selectedTest)
+createTestValidation(selectedTest)
+validateDate(date)
+showRegistrationDate()
+showChemicalAnalysisDate()
+showDiagnosisDate()
+showLabCoordValidationDate(selectedTest)
+showDates()
+recordValidationDate(selectedTest)
+notifyTheClient(selectedTest)
}
}

package Model{
class Company{
-String name
-String shortName
-category
-address
-headquarters
- -
+getTestStore()
}

class Client{
}


class LabCoordinatorValidation {
-registerDateValidation
-chemicalAnalysisDateValidation
-diagnosisDateValidation
-labCoordDate
- -
+checkDate(date)
+recordDate()
+recordLabCoordinatorValidationDate
+getLabCoordDate()
}

class Test{
-testAddDate
- -
+getNhsCode()
+getInternalCode()
+getRegistrationDate()
+getChemicalAnalysisDate()
+getDiagnosisDate()
+validateWork()
+getTestAddDate()
+getChemicalAnalysisDate()
+getCreatedAt()
+generateDateAndTimeLabCoordinatorValidation()
}

class EmailNotification{
+notification(selectedTest)
}

class SMSNotification{
+notification(selectedTest)
}
}

package Store{
class TestStore {
+getTestHasReportList()
+getTestByInternalCode(code)
}
}

package Mappers{
class TestMapper{
+toDto(test)
+toDto(testList)
}
class DateMapper{
+toDto(date)
+toDto(dateList)
}
}

package interfaces{
interface Notification{
}
}

package DTO{
class DateDTO{
-date
-dateString
}
}




ValidateWorkUI .> ValidateWorkController
ValidateWorkUI .> DateDTO

ValidateWorkController ..> Company
ValidateWorkController ..> TestStore
ValidateWorkController ..> Test
ValidateWorkController ..> TestMapper
ValidateWorkController ..> DateMapper
ValidateWorkController ..> DateDTO
ValidateWorkController ..> LabCoordinatorValidation
ValidateWorkController ..> EmailNotification
ValidateWorkController ..> SMSNotification

Company "1"- -"1..*" Test : performs >

TestStore "1"- ->"*"Test : knows

LabCoordinatorValidation "1"-"1" Test : associated to

TestMapper ...> Test 

EmailNotification "1"- -"1" Test : associated to >

SMSNotification "1"- -"1" Test : associated to >

Client "*"- -"1..*" SMSNotification : receives >
Client "*"- -"1..*" EmailNotification : receives >

SMSNotification..|>Notification
EmailNotification..|>Notification

@enduml

PlantUML version 1.2021.4(Sun Apr 04 09:49:39 BST 2021)
(GPL source distribution)
Java Runtime: OpenJDK Runtime Environment
JVM: OpenJDK 64-Bit Server VM
Default Encoding: Cp1252
Language: pt
Country: PT
--></g></svg>