<?xml version="1.0" encoding="UTF-8" standalone="no"?><svg xmlns="http://www.w3.org/2000/svg" xmlns:xlink="http://www.w3.org/1999/xlink" contentScriptType="application/ecmascript" contentStyleType="text/css" height="1858.75px" preserveAspectRatio="none" style="width:950px;height:1858px;" version="1.1" viewBox="0 0 950 1858" width="950px" zoomAndPan="magnify"><defs><filter height="300%" id="ffgiep1folgmg" width="300%" x="-1" y="-1"><feGaussianBlur result="blurOut" stdDeviation="2.5"/><feColorMatrix in="blurOut" result="blurOut2" type="matrix" values="0 0 0 0 0 0 0 0 0 0 0 0 0 0 0 0 0 0 .4 0"/><feOffset dx="5.0" dy="5.0" in="blurOut2" result="blurOut3"/><feBlend in="SourceGraphic" in2="blurOut3" mode="normal"/></filter></defs><g><!--MD5=[02e4b9b7573f1156f41e60aa5b4e25a4]
class Company--><rect codeLine="17" fill="#FEFECE" filter="url(#ffgiep1folgmg)" height="136.4746" id="Company" style="stroke:#A80036;stroke-width:1.875;" width="106.25" x="8.75" y="372.5"/><ellipse cx="27.5" cy="392.5" fill="#ADD1B2" rx="13.75" ry="13.75" style="stroke:#A80036;stroke-width:1.25;"/><path d="M30,388.125 Q30.2539,387.5 30.5469,387.1875 Q30.8398,386.875 31.1719,386.875 Q31.7578,386.875 32.1289,387.2266 Q32.5,387.5781 32.5,388.3984 L32.5,390.3516 Q32.5,391.1719 32.1484,391.5234 Q31.7969,391.875 31.25,391.875 Q30.7617,391.875 30.4492,391.6602 Q30.1367,391.4453 30,390.8789 Q29.9414,390.4883 29.7266,390.2734 Q29.3359,389.8633 28.6328,389.6289 Q27.9297,389.375 27.2266,389.375 Q26.3477,389.375 25.6055,389.7266 Q24.8828,390.0781 24.3164,390.8594 Q23.75,391.6406 23.75,392.7148 L23.75,393.8672 Q23.75,395.1563 24.8047,396.0156 Q25.8594,396.875 27.7344,396.875 Q28.8477,396.875 29.6289,396.6211 Q30.0781,396.4844 30.5859,396.0352 Q30.918,395.7813 31.0938,395.7031 Q31.2695,395.625 31.4844,395.625 Q31.8945,395.625 32.1875,395.957 Q32.5,396.2695 32.5,396.7188 Q32.5,397.1484 32.0703,397.6563 Q31.4453,398.3984 30.4492,398.8086 Q29.1406,399.375 27.5391,399.375 Q25.6641,399.375 24.1602,398.6328 Q22.9492,398.0469 22.0898,396.7773 Q21.25,395.5078 21.25,394.0039 L21.25,392.6367 Q21.25,391.0742 21.9922,389.707 Q22.7539,388.3398 24.0625,387.6172 Q25.3906,386.875 26.875,386.875 Q27.7734,386.875 28.5547,387.1875 Q29.3359,387.5 30,388.125 Z " fill="#000000"/><text fill="#000000" font-family="sans-serif" font-size="15" lengthAdjust="spacing" textLength="66.25" x="45" y="398.6377">Company</text><line style="stroke:#A80036;stroke-width:1.875;" x1="10" x2="113.75" y1="412.5" y2="412.5"/><text fill="#000000" font-family="sans-serif" font-size="13.75" lengthAdjust="spacing" textLength="37.5" x="16.25" y="431.7737">-name</text><text fill="#000000" font-family="sans-serif" font-size="13.75" lengthAdjust="spacing" textLength="73.75" x="16.25" y="449.0686">-designation</text><text fill="#000000" font-family="sans-serif" font-size="13.75" lengthAdjust="spacing" textLength="58.75" x="16.25" y="466.3635">-category</text><text fill="#000000" font-family="sans-serif" font-size="13.75" lengthAdjust="spacing" textLength="55" x="16.25" y="483.6584">-address</text><text fill="#000000" font-family="sans-serif" font-size="13.75" lengthAdjust="spacing" textLength="86.25" x="16.25" y="500.9534">-headquarters</text><!--MD5=[ce1fa2ecc820f9fe44a7b1eda96ab511]
class LabCoordinatorValidation--><rect codeLine="25" fill="#FEFECE" filter="url(#ffgiep1folgmg)" height="67.2949" id="LabCoordinatorValidation" style="stroke:#A80036;stroke-width:1.875;" width="215" x="540.625" y="1506.25"/><ellipse cx="559.375" cy="1526.25" fill="#ADD1B2" rx="13.75" ry="13.75" style="stroke:#A80036;stroke-width:1.25;"/><path d="M561.875,1521.875 Q562.1289,1521.25 562.4219,1520.9375 Q562.7148,1520.625 563.0469,1520.625 Q563.6328,1520.625 564.0039,1520.9766 Q564.375,1521.3281 564.375,1522.1484 L564.375,1524.1016 Q564.375,1524.9219 564.0234,1525.2734 Q563.6719,1525.625 563.125,1525.625 Q562.6367,1525.625 562.3242,1525.4102 Q562.0117,1525.1953 561.875,1524.6289 Q561.8164,1524.2383 561.6016,1524.0234 Q561.2109,1523.6133 560.5078,1523.3789 Q559.8047,1523.125 559.1016,1523.125 Q558.2227,1523.125 557.4805,1523.4766 Q556.7578,1523.8281 556.1914,1524.6094 Q555.625,1525.3906 555.625,1526.4648 L555.625,1527.6172 Q555.625,1528.9063 556.6797,1529.7656 Q557.7344,1530.625 559.6094,1530.625 Q560.7227,1530.625 561.5039,1530.3711 Q561.9531,1530.2344 562.4609,1529.7852 Q562.793,1529.5313 562.9688,1529.4531 Q563.1445,1529.375 563.3594,1529.375 Q563.7695,1529.375 564.0625,1529.707 Q564.375,1530.0195 564.375,1530.4688 Q564.375,1530.8984 563.9453,1531.4063 Q563.3203,1532.1484 562.3242,1532.5586 Q561.0156,1533.125 559.4141,1533.125 Q557.5391,1533.125 556.0352,1532.3828 Q554.8242,1531.7969 553.9648,1530.5273 Q553.125,1529.2578 553.125,1527.7539 L553.125,1526.3867 Q553.125,1524.8242 553.8672,1523.457 Q554.6289,1522.0898 555.9375,1521.3672 Q557.2656,1520.625 558.75,1520.625 Q559.6484,1520.625 560.4297,1520.9375 Q561.2109,1521.25 561.875,1521.875 Z " fill="#000000"/><text fill="#000000" font-family="sans-serif" font-size="15" lengthAdjust="spacing" textLength="175" x="576.875" y="1532.3877">LabCoordinatorValidation</text><line style="stroke:#A80036;stroke-width:1.875;" x1="541.875" x2="754.375" y1="1546.25" y2="1546.25"/><text fill="#000000" font-family="sans-serif" font-size="13.75" lengthAdjust="spacing" textLength="83.75" x="548.125" y="1565.5237">-dateAndTime</text><!--MD5=[7421f545a0d8420c5bec41e74b387d9c]
class Employee--><rect codeLine="29" fill="#FEFECE" filter="url(#ffgiep1folgmg)" height="171.0645" id="Employee" style="stroke:#A80036;stroke-width:1.875;" width="120" x="359.375" y="1671.25"/><ellipse cx="383.1875" cy="1691.25" fill="#ADD1B2" rx="13.75" ry="13.75" style="stroke:#A80036;stroke-width:1.25;"/><path d="M385.6875,1686.875 Q385.9414,1686.25 386.2344,1685.9375 Q386.5273,1685.625 386.8594,1685.625 Q387.4453,1685.625 387.8164,1685.9766 Q388.1875,1686.3281 388.1875,1687.1484 L388.1875,1689.1016 Q388.1875,1689.9219 387.8359,1690.2734 Q387.4844,1690.625 386.9375,1690.625 Q386.4492,1690.625 386.1367,1690.4102 Q385.8242,1690.1953 385.6875,1689.6289 Q385.6289,1689.2383 385.4141,1689.0234 Q385.0234,1688.6133 384.3203,1688.3789 Q383.6172,1688.125 382.9141,1688.125 Q382.0352,1688.125 381.293,1688.4766 Q380.5703,1688.8281 380.0039,1689.6094 Q379.4375,1690.3906 379.4375,1691.4648 L379.4375,1692.6172 Q379.4375,1693.9063 380.4922,1694.7656 Q381.5469,1695.625 383.4219,1695.625 Q384.5352,1695.625 385.3164,1695.3711 Q385.7656,1695.2344 386.2734,1694.7852 Q386.6055,1694.5313 386.7813,1694.4531 Q386.957,1694.375 387.1719,1694.375 Q387.582,1694.375 387.875,1694.707 Q388.1875,1695.0195 388.1875,1695.4688 Q388.1875,1695.8984 387.7578,1696.4063 Q387.1328,1697.1484 386.1367,1697.5586 Q384.8281,1698.125 383.2266,1698.125 Q381.3516,1698.125 379.8477,1697.3828 Q378.6367,1696.7969 377.7773,1695.5273 Q376.9375,1694.2578 376.9375,1692.7539 L376.9375,1691.3867 Q376.9375,1689.8242 377.6797,1688.457 Q378.4414,1687.0898 379.75,1686.3672 Q381.0781,1685.625 382.5625,1685.625 Q383.4609,1685.625 384.2422,1685.9375 Q385.0234,1686.25 385.6875,1686.875 Z " fill="#000000"/><text fill="#000000" font-family="sans-serif" font-size="15" lengthAdjust="spacing" textLength="68.75" x="401.8125" y="1697.3877">Employee</text><line style="stroke:#A80036;stroke-width:1.875;" x1="360.625" x2="478.125" y1="1711.25" y2="1711.25"/><text fill="#000000" font-family="sans-serif" font-size="13.75" lengthAdjust="spacing" textLength="37.5" x="366.875" y="1730.5237">-name</text><text fill="#000000" font-family="sans-serif" font-size="13.75" lengthAdjust="spacing" textLength="55" x="366.875" y="1747.8186">-address</text><text fill="#000000" font-family="sans-serif" font-size="13.75" lengthAdjust="spacing" textLength="88.75" x="366.875" y="1765.1135">-phoneNumber</text><text fill="#000000" font-family="sans-serif" font-size="13.75" lengthAdjust="spacing" textLength="35" x="366.875" y="1782.4084">-email</text><text fill="#000000" font-family="sans-serif" font-size="13.75" lengthAdjust="spacing" textLength="72.5" x="366.875" y="1799.7034">-employeeId</text><text fill="#000000" font-family="sans-serif" font-size="13.75" lengthAdjust="spacing" textLength="105" x="366.875" y="1816.9983">-organizationRole</text><text fill="#000000" font-family="sans-serif" font-size="13.75" lengthAdjust="spacing" textLength="58.75" x="366.875" y="1834.2932">-socCode</text><!--MD5=[a05769ccb6ff68467d0f03d44782bb8a]
class ChemicalAnalysis--><rect codeLine="50" fill="#FEFECE" filter="url(#ffgiep1folgmg)" height="67.2949" id="ChemicalAnalysis" style="stroke:#A80036;stroke-width:1.875;" width="163.75" x="556.25" y="970"/><ellipse cx="575" cy="990" fill="#ADD1B2" rx="13.75" ry="13.75" style="stroke:#A80036;stroke-width:1.25;"/><path d="M577.5,985.625 Q577.7539,985 578.0469,984.6875 Q578.3398,984.375 578.6719,984.375 Q579.2578,984.375 579.6289,984.7266 Q580,985.0781 580,985.8984 L580,987.8516 Q580,988.6719 579.6484,989.0234 Q579.2969,989.375 578.75,989.375 Q578.2617,989.375 577.9492,989.1602 Q577.6367,988.9453 577.5,988.3789 Q577.4414,987.9883 577.2266,987.7734 Q576.8359,987.3633 576.1328,987.1289 Q575.4297,986.875 574.7266,986.875 Q573.8477,986.875 573.1055,987.2266 Q572.3828,987.5781 571.8164,988.3594 Q571.25,989.1406 571.25,990.2148 L571.25,991.3672 Q571.25,992.6563 572.3047,993.5156 Q573.3594,994.375 575.2344,994.375 Q576.3477,994.375 577.1289,994.1211 Q577.5781,993.9844 578.0859,993.5352 Q578.418,993.2813 578.5938,993.2031 Q578.7695,993.125 578.9844,993.125 Q579.3945,993.125 579.6875,993.457 Q580,993.7695 580,994.2188 Q580,994.6484 579.5703,995.1563 Q578.9453,995.8984 577.9492,996.3086 Q576.6406,996.875 575.0391,996.875 Q573.1641,996.875 571.6602,996.1328 Q570.4492,995.5469 569.5898,994.2773 Q568.75,993.0078 568.75,991.5039 L568.75,990.1367 Q568.75,988.5742 569.4922,987.207 Q570.2539,985.8398 571.5625,985.1172 Q572.8906,984.375 574.375,984.375 Q575.2734,984.375 576.0547,984.6875 Q576.8359,985 577.5,985.625 Z " fill="#000000"/><text fill="#000000" font-family="sans-serif" font-size="15" lengthAdjust="spacing" textLength="123.75" x="592.5" y="996.1377">ChemicalAnalysis</text><line style="stroke:#A80036;stroke-width:1.875;" x1="557.5" x2="718.75" y1="1010" y2="1010"/><text fill="#000000" font-family="sans-serif" font-size="13.75" lengthAdjust="spacing" textLength="83.75" x="563.75" y="1029.2737">-dateAndTime</text><!--MD5=[7d96fd15f3014691d2fcaf89c5791e2a]
class SpecialistDoctor--><rect codeLine="54" fill="#FEFECE" filter="url(#ffgiep1folgmg)" height="67.2949" id="SpecialistDoctor" style="stroke:#A80036;stroke-width:1.875;" width="152.5" x="131.875" y="1506.25"/><ellipse cx="150.625" cy="1526.25" fill="#ADD1B2" rx="13.75" ry="13.75" style="stroke:#A80036;stroke-width:1.25;"/><path d="M153.125,1521.875 Q153.3789,1521.25 153.6719,1520.9375 Q153.9648,1520.625 154.2969,1520.625 Q154.8828,1520.625 155.2539,1520.9766 Q155.625,1521.3281 155.625,1522.1484 L155.625,1524.1016 Q155.625,1524.9219 155.2734,1525.2734 Q154.9219,1525.625 154.375,1525.625 Q153.8867,1525.625 153.5742,1525.4102 Q153.2617,1525.1953 153.125,1524.6289 Q153.0664,1524.2383 152.8516,1524.0234 Q152.4609,1523.6133 151.7578,1523.3789 Q151.0547,1523.125 150.3516,1523.125 Q149.4727,1523.125 148.7305,1523.4766 Q148.0078,1523.8281 147.4414,1524.6094 Q146.875,1525.3906 146.875,1526.4648 L146.875,1527.6172 Q146.875,1528.9063 147.9297,1529.7656 Q148.9844,1530.625 150.8594,1530.625 Q151.9727,1530.625 152.7539,1530.3711 Q153.2031,1530.2344 153.7109,1529.7852 Q154.043,1529.5313 154.2188,1529.4531 Q154.3945,1529.375 154.6094,1529.375 Q155.0195,1529.375 155.3125,1529.707 Q155.625,1530.0195 155.625,1530.4688 Q155.625,1530.8984 155.1953,1531.4063 Q154.5703,1532.1484 153.5742,1532.5586 Q152.2656,1533.125 150.6641,1533.125 Q148.7891,1533.125 147.2852,1532.3828 Q146.0742,1531.7969 145.2148,1530.5273 Q144.375,1529.2578 144.375,1527.7539 L144.375,1526.3867 Q144.375,1524.8242 145.1172,1523.457 Q145.8789,1522.0898 147.1875,1521.3672 Q148.5156,1520.625 150,1520.625 Q150.8984,1520.625 151.6797,1520.9375 Q152.4609,1521.25 153.125,1521.875 Z " fill="#000000"/><text fill="#000000" font-family="sans-serif" font-size="15" lengthAdjust="spacing" textLength="112.5" x="168.125" y="1532.3877">SpecialistDoctor</text><line style="stroke:#A80036;stroke-width:1.875;" x1="133.125" x2="283.125" y1="1546.25" y2="1546.25"/><text fill="#000000" font-family="sans-serif" font-size="13.75" lengthAdjust="spacing" textLength="122.5" x="139.375" y="1565.5237">-doctorIndexNumber</text><!--MD5=[b2d1f399f1909a0bb241ed0598ba126f]
class MedicalReport--><rect codeLine="58" fill="#FEFECE" filter="url(#ffgiep1folgmg)" height="84.5898" id="MedicalReport" style="stroke:#A80036;stroke-width:1.875;" width="138.75" x="348.75" y="961.25"/><ellipse cx="367.5" cy="981.25" fill="#ADD1B2" rx="13.75" ry="13.75" style="stroke:#A80036;stroke-width:1.25;"/><path d="M370,976.875 Q370.2539,976.25 370.5469,975.9375 Q370.8398,975.625 371.1719,975.625 Q371.7578,975.625 372.1289,975.9766 Q372.5,976.3281 372.5,977.1484 L372.5,979.1016 Q372.5,979.9219 372.1484,980.2734 Q371.7969,980.625 371.25,980.625 Q370.7617,980.625 370.4492,980.4102 Q370.1367,980.1953 370,979.6289 Q369.9414,979.2383 369.7266,979.0234 Q369.3359,978.6133 368.6328,978.3789 Q367.9297,978.125 367.2266,978.125 Q366.3477,978.125 365.6055,978.4766 Q364.8828,978.8281 364.3164,979.6094 Q363.75,980.3906 363.75,981.4648 L363.75,982.6172 Q363.75,983.9063 364.8047,984.7656 Q365.8594,985.625 367.7344,985.625 Q368.8477,985.625 369.6289,985.3711 Q370.0781,985.2344 370.5859,984.7852 Q370.918,984.5313 371.0938,984.4531 Q371.2695,984.375 371.4844,984.375 Q371.8945,984.375 372.1875,984.707 Q372.5,985.0195 372.5,985.4688 Q372.5,985.8984 372.0703,986.4063 Q371.4453,987.1484 370.4492,987.5586 Q369.1406,988.125 367.5391,988.125 Q365.6641,988.125 364.1602,987.3828 Q362.9492,986.7969 362.0898,985.5273 Q361.25,984.2578 361.25,982.7539 L361.25,981.3867 Q361.25,979.8242 361.9922,978.457 Q362.7539,977.0898 364.0625,976.3672 Q365.3906,975.625 366.875,975.625 Q367.7734,975.625 368.5547,975.9375 Q369.3359,976.25 370,976.875 Z " fill="#000000"/><text fill="#000000" font-family="sans-serif" font-size="15" lengthAdjust="spacing" textLength="98.75" x="385" y="987.3877">MedicalReport</text><line style="stroke:#A80036;stroke-width:1.875;" x1="350" x2="486.25" y1="1001.25" y2="1001.25"/><text fill="#000000" font-family="sans-serif" font-size="13.75" lengthAdjust="spacing" textLength="62.5" x="356.25" y="1020.5237">-diagnosis</text><text fill="#000000" font-family="sans-serif" font-size="13.75" lengthAdjust="spacing" textLength="83.75" x="356.25" y="1037.8186">-dateAndTime</text><!--MD5=[80e560c845ce9ec3c8b9ef25ef04dbf1]
class ParameterResult--><rect codeLine="63" fill="#FEFECE" filter="url(#ffgiep1folgmg)" height="67.2949" id="ParameterResult" style="stroke:#A80036;stroke-width:1.875;" width="157.5" x="340.625" y="1242.5"/><ellipse cx="359.375" cy="1262.5" fill="#ADD1B2" rx="13.75" ry="13.75" style="stroke:#A80036;stroke-width:1.25;"/><path d="M361.875,1258.125 Q362.1289,1257.5 362.4219,1257.1875 Q362.7148,1256.875 363.0469,1256.875 Q363.6328,1256.875 364.0039,1257.2266 Q364.375,1257.5781 364.375,1258.3984 L364.375,1260.3516 Q364.375,1261.1719 364.0234,1261.5234 Q363.6719,1261.875 363.125,1261.875 Q362.6367,1261.875 362.3242,1261.6602 Q362.0117,1261.4453 361.875,1260.8789 Q361.8164,1260.4883 361.6016,1260.2734 Q361.2109,1259.8633 360.5078,1259.6289 Q359.8047,1259.375 359.1016,1259.375 Q358.2227,1259.375 357.4805,1259.7266 Q356.7578,1260.0781 356.1914,1260.8594 Q355.625,1261.6406 355.625,1262.7148 L355.625,1263.8672 Q355.625,1265.1563 356.6797,1266.0156 Q357.7344,1266.875 359.6094,1266.875 Q360.7227,1266.875 361.5039,1266.6211 Q361.9531,1266.4844 362.4609,1266.0352 Q362.793,1265.7813 362.9688,1265.7031 Q363.1445,1265.625 363.3594,1265.625 Q363.7695,1265.625 364.0625,1265.957 Q364.375,1266.2695 364.375,1266.7188 Q364.375,1267.1484 363.9453,1267.6563 Q363.3203,1268.3984 362.3242,1268.8086 Q361.0156,1269.375 359.4141,1269.375 Q357.5391,1269.375 356.0352,1268.6328 Q354.8242,1268.0469 353.9648,1266.7773 Q353.125,1265.5078 353.125,1264.0039 L353.125,1262.6367 Q353.125,1261.0742 353.8672,1259.707 Q354.6289,1258.3398 355.9375,1257.6172 Q357.2656,1256.875 358.75,1256.875 Q359.6484,1256.875 360.4297,1257.1875 Q361.2109,1257.5 361.875,1258.125 Z " fill="#000000"/><text fill="#000000" font-family="sans-serif" font-size="15" lengthAdjust="spacing" textLength="117.5" x="376.875" y="1268.6377">ParameterResult</text><line style="stroke:#A80036;stroke-width:1.875;" x1="341.875" x2="496.875" y1="1282.5" y2="1282.5"/><text fill="#000000" font-family="sans-serif" font-size="13.75" lengthAdjust="spacing" textLength="101.25" x="348.125" y="1301.7737">-parameterValue</text><!--MD5=[df38be88ccee13e832d6fafd6288a4ca]
class Test--><rect codeLine="68" fill="#FEFECE" filter="url(#ffgiep1folgmg)" height="101.8848" id="Test" style="stroke:#A80036;stroke-width:1.875;" width="95" x="509.375" y="683.75"/><ellipse cx="539.375" cy="703.75" fill="#ADD1B2" rx="13.75" ry="13.75" style="stroke:#A80036;stroke-width:1.25;"/><path d="M541.875,699.375 Q542.1289,698.75 542.4219,698.4375 Q542.7148,698.125 543.0469,698.125 Q543.6328,698.125 544.0039,698.4766 Q544.375,698.8281 544.375,699.6484 L544.375,701.6016 Q544.375,702.4219 544.0234,702.7734 Q543.6719,703.125 543.125,703.125 Q542.6367,703.125 542.3242,702.9102 Q542.0117,702.6953 541.875,702.1289 Q541.8164,701.7383 541.6016,701.5234 Q541.2109,701.1133 540.5078,700.8789 Q539.8047,700.625 539.1016,700.625 Q538.2227,700.625 537.4805,700.9766 Q536.7578,701.3281 536.1914,702.1094 Q535.625,702.8906 535.625,703.9648 L535.625,705.1172 Q535.625,706.4063 536.6797,707.2656 Q537.7344,708.125 539.6094,708.125 Q540.7227,708.125 541.5039,707.8711 Q541.9531,707.7344 542.4609,707.2852 Q542.793,707.0313 542.9688,706.9531 Q543.1445,706.875 543.3594,706.875 Q543.7695,706.875 544.0625,707.207 Q544.375,707.5195 544.375,707.9688 Q544.375,708.3984 543.9453,708.9063 Q543.3203,709.6484 542.3242,710.0586 Q541.0156,710.625 539.4141,710.625 Q537.5391,710.625 536.0352,709.8828 Q534.8242,709.2969 533.9648,708.0273 Q533.125,706.7578 533.125,705.2539 L533.125,703.8867 Q533.125,702.3242 533.8672,700.957 Q534.6289,699.5898 535.9375,698.8672 Q537.2656,698.125 538.75,698.125 Q539.6484,698.125 540.4297,698.4375 Q541.2109,698.75 541.875,699.375 Z " fill="#000000"/><text fill="#000000" font-family="sans-serif" font-size="15" lengthAdjust="spacing" textLength="30" x="559.375" y="709.8877">Test</text><line style="stroke:#A80036;stroke-width:1.875;" x1="510.625" x2="603.125" y1="723.75" y2="723.75"/><text fill="#000000" font-family="sans-serif" font-size="13.75" lengthAdjust="spacing" textLength="80" x="516.875" y="743.0237">-internalCode</text><text fill="#000000" font-family="sans-serif" font-size="13.75" lengthAdjust="spacing" textLength="58.75" x="516.875" y="760.3186">-nhsCode</text><text fill="#000000" font-family="sans-serif" font-size="13.75" lengthAdjust="spacing" textLength="71.25" x="516.875" y="777.6135">-description</text><!--MD5=[7e2bc2f128e759c5889ccd6a2666d576]
class EmailNotification--><rect codeLine="74" fill="#FEFECE" filter="url(#ffgiep1folgmg)" height="67.2949" id="EmailNotification" style="stroke:#A80036;stroke-width:1.875;" width="156.25" x="381.25" y="406.875"/><ellipse cx="400" cy="426.875" fill="#ADD1B2" rx="13.75" ry="13.75" style="stroke:#A80036;stroke-width:1.25;"/><path d="M402.5,422.5 Q402.7539,421.875 403.0469,421.5625 Q403.3398,421.25 403.6719,421.25 Q404.2578,421.25 404.6289,421.6016 Q405,421.9531 405,422.7734 L405,424.7266 Q405,425.5469 404.6484,425.8984 Q404.2969,426.25 403.75,426.25 Q403.2617,426.25 402.9492,426.0352 Q402.6367,425.8203 402.5,425.2539 Q402.4414,424.8633 402.2266,424.6484 Q401.8359,424.2383 401.1328,424.0039 Q400.4297,423.75 399.7266,423.75 Q398.8477,423.75 398.1055,424.1016 Q397.3828,424.4531 396.8164,425.2344 Q396.25,426.0156 396.25,427.0898 L396.25,428.2422 Q396.25,429.5313 397.3047,430.3906 Q398.3594,431.25 400.2344,431.25 Q401.3477,431.25 402.1289,430.9961 Q402.5781,430.8594 403.0859,430.4102 Q403.418,430.1563 403.5938,430.0781 Q403.7695,430 403.9844,430 Q404.3945,430 404.6875,430.332 Q405,430.6445 405,431.0938 Q405,431.5234 404.5703,432.0313 Q403.9453,432.7734 402.9492,433.1836 Q401.6406,433.75 400.0391,433.75 Q398.1641,433.75 396.6602,433.0078 Q395.4492,432.4219 394.5898,431.1523 Q393.75,429.8828 393.75,428.3789 L393.75,427.0117 Q393.75,425.4492 394.4922,424.082 Q395.2539,422.7148 396.5625,421.9922 Q397.8906,421.25 399.375,421.25 Q400.2734,421.25 401.0547,421.5625 Q401.8359,421.875 402.5,422.5 Z " fill="#000000"/><text fill="#000000" font-family="sans-serif" font-size="15" lengthAdjust="spacing" textLength="116.25" x="417.5" y="433.0127">EmailNotification</text><line style="stroke:#A80036;stroke-width:1.875;" x1="382.5" x2="536.25" y1="446.875" y2="446.875"/><text fill="#000000" font-family="sans-serif" font-size="13.75" lengthAdjust="spacing" textLength="60" x="388.75" y="466.1487">-message</text><!--MD5=[17d776304760d17bcc13ba401441cbdd]
class SMSNotification--><rect codeLine="78" fill="#FEFECE" filter="url(#ffgiep1folgmg)" height="67.2949" id="SMSNotification" style="stroke:#A80036;stroke-width:1.875;" width="147.5" x="584.375" y="406.875"/><ellipse cx="603.125" cy="426.875" fill="#ADD1B2" rx="13.75" ry="13.75" style="stroke:#A80036;stroke-width:1.25;"/><path d="M605.625,422.5 Q605.8789,421.875 606.1719,421.5625 Q606.4648,421.25 606.7969,421.25 Q607.3828,421.25 607.7539,421.6016 Q608.125,421.9531 608.125,422.7734 L608.125,424.7266 Q608.125,425.5469 607.7734,425.8984 Q607.4219,426.25 606.875,426.25 Q606.3867,426.25 606.0742,426.0352 Q605.7617,425.8203 605.625,425.2539 Q605.5664,424.8633 605.3516,424.6484 Q604.9609,424.2383 604.2578,424.0039 Q603.5547,423.75 602.8516,423.75 Q601.9727,423.75 601.2305,424.1016 Q600.5078,424.4531 599.9414,425.2344 Q599.375,426.0156 599.375,427.0898 L599.375,428.2422 Q599.375,429.5313 600.4297,430.3906 Q601.4844,431.25 603.3594,431.25 Q604.4727,431.25 605.2539,430.9961 Q605.7031,430.8594 606.2109,430.4102 Q606.543,430.1563 606.7188,430.0781 Q606.8945,430 607.1094,430 Q607.5195,430 607.8125,430.332 Q608.125,430.6445 608.125,431.0938 Q608.125,431.5234 607.6953,432.0313 Q607.0703,432.7734 606.0742,433.1836 Q604.7656,433.75 603.1641,433.75 Q601.2891,433.75 599.7852,433.0078 Q598.5742,432.4219 597.7148,431.1523 Q596.875,429.8828 596.875,428.3789 L596.875,427.0117 Q596.875,425.4492 597.6172,424.082 Q598.3789,422.7148 599.6875,421.9922 Q601.0156,421.25 602.5,421.25 Q603.3984,421.25 604.1797,421.5625 Q604.9609,421.875 605.625,422.5 Z " fill="#000000"/><text fill="#000000" font-family="sans-serif" font-size="15" lengthAdjust="spacing" textLength="107.5" x="620.625" y="433.0127">SMSNotification</text><line style="stroke:#A80036;stroke-width:1.875;" x1="585.625" x2="730.625" y1="446.875" y2="446.875"/><text fill="#000000" font-family="sans-serif" font-size="13.75" lengthAdjust="spacing" textLength="60" x="591.875" y="466.1487">-message</text><!--MD5=[ed6624c6556d5e7b1bd23032162d20b7]
class Client--><rect codeLine="39" fill="#FEFECE" filter="url(#ffgiep1folgmg)" height="188.3594" id="Client" style="stroke:#A80036;stroke-width:1.875;" width="133.75" x="493.75" y="8.75"/><ellipse cx="536.6875" cy="28.75" fill="#ADD1B2" rx="13.75" ry="13.75" style="stroke:#A80036;stroke-width:1.25;"/><path d="M539.1875,24.375 Q539.4414,23.75 539.7344,23.4375 Q540.0273,23.125 540.3594,23.125 Q540.9453,23.125 541.3164,23.4766 Q541.6875,23.8281 541.6875,24.6484 L541.6875,26.6016 Q541.6875,27.4219 541.3359,27.7734 Q540.9844,28.125 540.4375,28.125 Q539.9492,28.125 539.6367,27.9102 Q539.3242,27.6953 539.1875,27.1289 Q539.1289,26.7383 538.9141,26.5234 Q538.5234,26.1133 537.8203,25.8789 Q537.1172,25.625 536.4141,25.625 Q535.5352,25.625 534.793,25.9766 Q534.0703,26.3281 533.5039,27.1094 Q532.9375,27.8906 532.9375,28.9648 L532.9375,30.1172 Q532.9375,31.4063 533.9922,32.2656 Q535.0469,33.125 536.9219,33.125 Q538.0352,33.125 538.8164,32.8711 Q539.2656,32.7344 539.7734,32.2852 Q540.1055,32.0313 540.2813,31.9531 Q540.457,31.875 540.6719,31.875 Q541.082,31.875 541.375,32.207 Q541.6875,32.5195 541.6875,32.9688 Q541.6875,33.3984 541.2578,33.9063 Q540.6328,34.6484 539.6367,35.0586 Q538.3281,35.625 536.7266,35.625 Q534.8516,35.625 533.3477,34.8828 Q532.1367,34.2969 531.2773,33.0273 Q530.4375,31.7578 530.4375,30.2539 L530.4375,28.8867 Q530.4375,27.3242 531.1797,25.957 Q531.9414,24.5898 533.25,23.8672 Q534.5781,23.125 536.0625,23.125 Q536.9609,23.125 537.7422,23.4375 Q538.5234,23.75 539.1875,24.375 Z " fill="#000000"/><text fill="#000000" font-family="sans-serif" font-size="15" lengthAdjust="spacing" textLength="40" x="559.5625" y="34.8877">Client</text><line style="stroke:#A80036;stroke-width:1.875;" x1="495" x2="626.25" y1="48.75" y2="48.75"/><text fill="#000000" font-family="sans-serif" font-size="13.75" lengthAdjust="spacing" textLength="37.5" x="501.25" y="68.0237">-name</text><text fill="#000000" font-family="sans-serif" font-size="13.75" lengthAdjust="spacing" textLength="35" x="501.25" y="85.3186">-email</text><text fill="#000000" font-family="sans-serif" font-size="13.75" lengthAdjust="spacing" textLength="88.75" x="501.25" y="102.6135">-phoneNumber</text><text fill="#000000" font-family="sans-serif" font-size="13.75" lengthAdjust="spacing" textLength="27.5" x="501.25" y="119.9084">-sex</text><text fill="#000000" font-family="sans-serif" font-size="13.75" lengthAdjust="spacing" textLength="18.75" x="501.25" y="137.2034">-tin</text><text fill="#000000" font-family="sans-serif" font-size="13.75" lengthAdjust="spacing" textLength="58.75" x="501.25" y="154.4983">-birthDate</text><text fill="#000000" font-family="sans-serif" font-size="13.75" lengthAdjust="spacing" textLength="73.75" x="501.25" y="171.7932">-nhsNumber</text><text fill="#000000" font-family="sans-serif" font-size="13.75" lengthAdjust="spacing" textLength="118.75" x="501.25" y="189.0881">-citizenCardNumber</text><!--MD5=[1d9fce1f293ee3914182f145f5c48d77]
link ChemicalAnalysis to ParameterResult--><path codeLine="83" d="M611.7875,1037.7875 C585.5625,1070.4 544.1375,1121.85 508.125,1166.25 C487.4,1191.8 463.85,1220.65 446.225,1242.2 " fill="none" id="ChemicalAnalysis-ParameterResult" style="stroke:#A80036;stroke-width:1.25;"/><polygon fill="#000000" points="527.9413,1160.0765,537.9122,1153.6027,532.2027,1148.9783,527.9413,1160.0765" style="stroke:#000000;stroke-width:1.25;"/><text fill="#000000" font-family="sans-serif" font-size="16.25" lengthAdjust="spacing" textLength="71.25" x="543.125" y="1161.8689">generates</text><text fill="#000000" font-family="sans-serif" font-size="16.25" lengthAdjust="spacing" textLength="8.75" x="596.3191" y="1064.3601">1</text><text fill="#000000" font-family="sans-serif" font-size="16.25" lengthAdjust="spacing" textLength="25" x="424.5434" y="1228.9569">1..*</text><!--MD5=[09366576ee87d48d594df10cacc83f45]
link Company to Employee--><path codeLine="85" d="M39.7125,508.9625 C32.7625,535.4625 26.875,566.3625 26.875,595 C26.875,595 26.875,595 26.875,1541.25 C26.875,1690.9125 249.3875,1736.7375 359.3375,1750.2375 " fill="none" id="Company-Employee" style="stroke:#A80036;stroke-width:1.25;"/><polygon fill="#000000" points="34.6835,1101.2723,35.4217,1089.407,28.3065,1091.2392,34.6835,1101.2723" style="stroke:#000000;stroke-width:1.25;"/><text fill="#000000" font-family="sans-serif" font-size="16.25" lengthAdjust="spacing" textLength="52.5" x="44.375" y="1101.8689">employ</text><text fill="#000000" font-family="sans-serif" font-size="16.25" lengthAdjust="spacing" textLength="8.75" x="27.5624" y="535.8822">1</text><text fill="#000000" font-family="sans-serif" font-size="16.25" lengthAdjust="spacing" textLength="25" x="324.5903" y="1744.9127">1..*</text><!--MD5=[7e4bc624457760b649895ff2ead938fa]
link Company to Test--><path codeLine="86" d="M115.325,473.3875 C212.4375,530.65 416.4,650.925 509.15,705.6125 " fill="none" id="Company-Test" style="stroke:#A80036;stroke-width:1.25;"/><polygon fill="#000000" points="354.7587,599.6443,346.8855,590.737,343.1535,597.0659,354.7587,599.6443" style="stroke:#000000;stroke-width:1.25;"/><text fill="#000000" font-family="sans-serif" font-size="16.25" lengthAdjust="spacing" textLength="62.5" x="360.625" y="603.1189">performs</text><text fill="#000000" font-family="sans-serif" font-size="16.25" lengthAdjust="spacing" textLength="8.75" x="124.9023" y="474.0442">1</text><text fill="#000000" font-family="sans-serif" font-size="16.25" lengthAdjust="spacing" textLength="25" x="474.5516" y="696.2881">1..*</text><!--MD5=[afa21fc83a998d74c62ccf708b6f3d37]
link Client to SMSNotification--><path codeLine="88" d="M587.7875,197.6875 C608.075,267.3875 634.6,358.5625 648.575,406.55 " fill="none" id="Client-SMSNotification" style="stroke:#A80036;stroke-width:1.25;"/><polygon fill="#000000" points="623.6215,291.2207,623.9893,279.3382,616.9347,281.3914,623.6215,291.2207" style="stroke:#000000;stroke-width:1.25;"/><text fill="#000000" font-family="sans-serif" font-size="16.25" lengthAdjust="spacing" textLength="58.75" x="633.125" y="291.8689">receives</text><text fill="#000000" font-family="sans-serif" font-size="16.25" lengthAdjust="spacing" textLength="6.25" x="583.6783" y="223.906">*</text><text fill="#000000" font-family="sans-serif" font-size="16.25" lengthAdjust="spacing" textLength="25" x="618.4759" y="393.3011">1..*</text><!--MD5=[046f1426d7198af2f58a8c09756be431]
link Client to EmailNotification--><path codeLine="89" d="M532.425,197.6875 C511.3625,267.3875 483.8,358.5625 469.3,406.55 " fill="none" id="Client-EmailNotification" style="stroke:#A80036;stroke-width:1.25;"/><polygon fill="#000000" points="512.5668,291.2025,519.3544,281.4424,512.3213,279.3168,512.5668,291.2025" style="stroke:#000000;stroke-width:1.25;"/><text fill="#000000" font-family="sans-serif" font-size="16.25" lengthAdjust="spacing" textLength="58.75" x="525.625" y="291.8689">receives</text><text fill="#000000" font-family="sans-serif" font-size="16.25" lengthAdjust="spacing" textLength="6.25" x="523.3851" y="223.906">*</text><text fill="#000000" font-family="sans-serif" font-size="16.25" lengthAdjust="spacing" textLength="25" x="443.7045" y="393.3011">1..*</text><!--MD5=[c41feacfd326c0120b90dd643e09888b]
link LabCoordinatorValidation to Employee--><path codeLine="91" d="M613.3875,1573.8125 C577.8875,1607.075 522.075,1659.375 479.4125,1699.3625 " fill="none" id="LabCoordinatorValidation-Employee" style="stroke:#A80036;stroke-width:1.25;"/><polygon fill="#000000" points="568.5645,1626.9934,579.3265,1621.9428,574.3025,1616.5816,568.5645,1626.9934" style="stroke:#000000;stroke-width:1.25;"/><text fill="#000000" font-family="sans-serif" font-size="16.25" lengthAdjust="spacing" textLength="62.5" x="584.375" y="1629.3689">made by</text><text fill="#000000" font-family="sans-serif" font-size="16.25" lengthAdjust="spacing" textLength="6.25" x="598.8551" y="1600.3359">*</text><text fill="#000000" font-family="sans-serif" font-size="16.25" lengthAdjust="spacing" textLength="8.75" x="489.2757" y="1685.9414">1</text><!--MD5=[aaa4fd89289bd3ba156877f624c1e585]
link MedicalReport to LabCoordinatorValidation--><path codeLine="93" d="M453.8875,1046.5125 C508.4125,1112.9125 609.925,1249.5125 646.875,1386.25 C657.725,1426.375 655.7375,1474.65 652.575,1505.975 " fill="none" id="MedicalReport-LabCoordinatorValidation" style="stroke:#A80036;stroke-width:1.25;"/><polygon fill="#000000" points="628.1057,1282.2063,626.99,1270.3706,620.2462,1273.2868,628.1057,1282.2063" style="stroke:#000000;stroke-width:1.25;"/><text fill="#000000" font-family="sans-serif" font-size="16.25" lengthAdjust="spacing" textLength="85" x="636.875" y="1283.1189">validated by</text><text fill="#000000" font-family="sans-serif" font-size="16.25" lengthAdjust="spacing" textLength="6.25" x="453.4511" y="1072.8554">*</text><text fill="#000000" font-family="sans-serif" font-size="16.25" lengthAdjust="spacing" textLength="8.75" x="643.8423" y="1492.7376">1</text><!--MD5=[58d00352d0d878c29d71423db283726d]
link MedicalReport to ParameterResult--><path codeLine="94" d="M418.3125,1046.6 C418.5625,1100.4375 419,1193.1625 419.225,1242.275 " fill="none" id="MedicalReport-ParameterResult" style="stroke:#A80036;stroke-width:1.25;"/><polygon fill="#000000" points="424.4041,1161.4697,428.025,1150.1463,420.6778,1150.1806,424.4041,1161.4697" style="stroke:#000000;stroke-width:1.25;"/><text fill="#000000" font-family="sans-serif" font-size="16.25" lengthAdjust="spacing" textLength="61.25" x="435.625" y="1161.8689">contains</text><text fill="#000000" font-family="sans-serif" font-size="16.25" lengthAdjust="spacing" textLength="8.75" x="408.8428" y="1072.6255">1</text><text fill="#000000" font-family="sans-serif" font-size="16.25" lengthAdjust="spacing" textLength="25" x="391.2997" y="1229.0492">1..*</text><!--MD5=[998e2ee25e4f5c17bcb5810d33ccda6e]
link MedicalReport to SpecialistDoctor--><path codeLine="95" d="M348.6,1011.6375 C265.3125,1023.85 136.875,1058.1875 136.875,1153.75 C136.875,1153.75 136.875,1153.75 136.875,1398.75 C136.875,1438.8375 160.3625,1479.05 180.375,1506.025 " fill="none" id="MedicalReport-SpecialistDoctor" style="stroke:#A80036;stroke-width:1.25;"/><polygon fill="#000000" points="141.1117,1282.3866,148.2316,1272.8663,141.276,1270.4995,141.1117,1282.3866" style="stroke:#000000;stroke-width:1.25;"/><text fill="#000000" font-family="sans-serif" font-size="16.25" lengthAdjust="spacing" textLength="70" x="154.375" y="1283.1189">written by</text><text fill="#000000" font-family="sans-serif" font-size="16.25" lengthAdjust="spacing" textLength="6.25" x="332.5877" y="1008.2796">*</text><text fill="#000000" font-family="sans-serif" font-size="16.25" lengthAdjust="spacing" textLength="8.75" x="164.1961" y="1492.7992">1</text><!--MD5=[0a2399e6bed099984ffec5248367e4df]
link Test to ChemicalAnalysis--><path codeLine="97" d="M572.1625,786.325 C588.5625,840.1125 614.1625,923.9875 628.1625,969.85 " fill="none" id="Test-ChemicalAnalysis" style="stroke:#A80036;stroke-width:1.25;"/><polygon fill="#000000" points="609.9491,879.9476,610.163,868.0613,603.1356,870.2057,609.9491,879.9476" style="stroke:#000000;stroke-width:1.25;"/><text fill="#000000" font-family="sans-serif" font-size="16.25" lengthAdjust="spacing" textLength="53.75" x="619.375" y="880.6189">request</text><text fill="#000000" font-family="sans-serif" font-size="16.25" lengthAdjust="spacing" textLength="25" x="547.5893" y="812.665">1..*</text><text fill="#000000" font-family="sans-serif" font-size="16.25" lengthAdjust="spacing" textLength="8.75" x="616.097" y="956.6415">1</text><!--MD5=[12505f9a91f7073ba2db55a7332f54d3]
link Test to LabCoordinatorValidation--><path codeLine="98" d="M604.675,736.2 C692.2125,738.8875 869.375,758.425 869.375,872.5 C869.375,872.5 869.375,872.5 869.375,1398.75 C869.375,1457.95 812.1,1493.1625 755.8375,1513.45 " fill="none" id="Test-LabCoordinatorValidation" style="stroke:#A80036;stroke-width:1.25;"/><polygon fill="#000000" points="876.8182,1161.3548,878.2658,1149.555,871.0536,1150.9577,876.8182,1161.3548" style="stroke:#000000;stroke-width:1.25;"/><text fill="#000000" font-family="sans-serif" font-size="16.25" lengthAdjust="spacing" textLength="53.75" x="886.875" y="1161.8689">request</text><text fill="#000000" font-family="sans-serif" font-size="16.25" lengthAdjust="spacing" textLength="6.25" x="614.3826" y="731.4919">*</text><text fill="#000000" font-family="sans-serif" font-size="16.25" lengthAdjust="spacing" textLength="8.75" x="765.47" y="1507.2056">1</text><!--MD5=[c3238c64a9072feb51e313e35a850213]
link Test to MedicalReport--><path codeLine="99" d="M530.775,786.325 C504.475,836.7875 464.3625,913.7625 439.775,960.95 " fill="none" id="Test-MedicalReport" style="stroke:#A80036;stroke-width:1.25;"/><polygon fill="#000000" points="493.9867,879.5123,502.4695,871.1834,495.9539,867.788,493.9867,879.5123" style="stroke:#000000;stroke-width:1.25;"/><text fill="#000000" font-family="sans-serif" font-size="16.25" lengthAdjust="spacing" textLength="53.75" x="508.125" y="880.6189">request</text><text fill="#000000" font-family="sans-serif" font-size="16.25" lengthAdjust="spacing" textLength="8.75" x="517.3585" y="812.665">1</text><text fill="#000000" font-family="sans-serif" font-size="16.25" lengthAdjust="spacing" textLength="8.75" x="434.318" y="947.8349">1</text><!--MD5=[2e9fe7435b56c4f273cc6fb62d6ae7ee]
link ParameterResult to Employee--><path codeLine="101" d="M419.375,1310.3625 C419.375,1383.8875 419.375,1563.6125 419.375,1670.9 " fill="none" id="ParameterResult-Employee" style="stroke:#A80036;stroke-width:1.25;"/><polygon fill="#000000" points="425.625,1463.9697,429.2987,1452.6634,421.9513,1452.6634,425.625,1463.9697" style="stroke:#000000;stroke-width:1.25;"/><text fill="#000000" font-family="sans-serif" font-size="16.25" lengthAdjust="spacing" textLength="93.75" x="436.875" y="1464.3689">registered by</text><text fill="#000000" font-family="sans-serif" font-size="16.25" lengthAdjust="spacing" textLength="25" x="391.7969" y="1336.3961">1..*</text><text fill="#000000" font-family="sans-serif" font-size="16.25" lengthAdjust="spacing" textLength="8.75" x="410.1738" y="1657.9037">1</text><!--MD5=[91d3281bca283ab5414e7e6d500047a2]
link ParameterResult to LabCoordinatorValidation--><path codeLine="102" d="M447.8875,1310.0625 C491.8375,1360.2625 575.6625,1455.9875 619.6125,1506.1875 " fill="none" id="ParameterResult-LabCoordinatorValidation" style="stroke:#A80036;stroke-width:1.25;"/><polygon fill="#000000" points="543.4922,1402.422,538.808,1391.4955,533.2802,1396.3356,543.4922,1402.422" style="stroke:#000000;stroke-width:1.25;"/><text fill="#000000" font-family="sans-serif" font-size="16.25" lengthAdjust="spacing" textLength="85" x="550.625" y="1404.3689">validated by</text><text fill="#000000" font-family="sans-serif" font-size="16.25" lengthAdjust="spacing" textLength="25" x="426.3902" y="1336.5859">1..*</text><text fill="#000000" font-family="sans-serif" font-size="16.25" lengthAdjust="spacing" textLength="8.75" x="602.8462" y="1492.4557">1</text><!--MD5=[91b2c2dc70e917e4c40b66372232a103]
link ParameterResult to SpecialistDoctor--><path codeLine="103" d="M366.675,1310.0875 C338.4375,1329.5375 304.625,1356.2625 280.625,1386.25 C251.3125,1422.875 230.325,1473.2875 218.7,1505.95 " fill="none" id="ParameterResult-SpecialistDoctor" style="stroke:#A80036;stroke-width:1.25;"/><polygon fill="#000000" points="283.1075,1402.7065,292.8542,1395.8998,286.9918,1391.4708,283.1075,1402.7065" style="stroke:#000000;stroke-width:1.25;"/><text fill="#000000" font-family="sans-serif" font-size="16.25" lengthAdjust="spacing" textLength="87.5" x="298.125" y="1404.3689">analyzed by</text><text fill="#000000" font-family="sans-serif" font-size="16.25" lengthAdjust="spacing" textLength="25" x="327.4125" y="1336.6163">1..*</text><text fill="#000000" font-family="sans-serif" font-size="16.25" lengthAdjust="spacing" textLength="8.75" x="211.3838" y="1492.7069">1</text><!--MD5=[61a69ca76a267e5ce61d227b41cc8554]
link EmailNotification to Test--><path codeLine="105" d="M462.2375,474.3875 C465.925,508.3375 473.8125,562.7875 489.375,607.5 C498.45,633.55 512.3375,660.75 525.175,683.2 " fill="none" id="EmailNotification-Test" style="stroke:#A80036;stroke-width:1.25;"/><polygon fill="#000000" points="497.4286,602.4538,497.6832,590.5683,490.6485,592.6887,497.4286,602.4538" style="stroke:#000000;stroke-width:1.25;"/><text fill="#000000" font-family="sans-serif" font-size="16.25" lengthAdjust="spacing" textLength="97.5" x="506.875" y="603.1189">associated to</text><text fill="#000000" font-family="sans-serif" font-size="16.25" lengthAdjust="spacing" textLength="8.75" x="453.1566" y="500.8999">1</text><text fill="#000000" font-family="sans-serif" font-size="16.25" lengthAdjust="spacing" textLength="8.75" x="510.6755" y="670.3036">1</text><!--MD5=[4a33660dcf1a07cc3b229ce4d592c1cf]
link SMSNotification to Test--><path codeLine="107" d="M650.0125,474.625 C641.3625,508.3 626.725,562.1125 610.625,607.5 C601.625,632.875 590.1,660.4375 580.025,683.325 " fill="none" id="SMSNotification-Test" style="stroke:#A80036;stroke-width:1.25;"/><polygon fill="#000000" points="622.3878,602.3954,629.4657,592.8438,622.4996,590.5077,622.3878,602.3954" style="stroke:#000000;stroke-width:1.25;"/><text fill="#000000" font-family="sans-serif" font-size="16.25" lengthAdjust="spacing" textLength="97.5" x="635.625" y="603.1189">associated to</text><text fill="#000000" font-family="sans-serif" font-size="16.25" lengthAdjust="spacing" textLength="8.75" x="638.5309" y="501.1894">1</text><text fill="#000000" font-family="sans-serif" font-size="16.25" lengthAdjust="spacing" textLength="8.75" x="574.3846" y="670.0663">1</text><!--MD5=[82852a721177fab4f3b31d608ce89450]
@startuml
'https://plantuml.com/class-diagram
hide methods
skinparam classAttributeIconSize 0

class Company
class LabCoordinatorValidation
class Employee
class ChemicalAnalysis
class SpecialistDoctor
class MedicalReport
class ParameterResult
class Test
class EmailNotification
class SMSNotification


class Company{
-name
-designation
-category
-address
-headquarters
}

class LabCoordinatorValidation {
-dateAndTime
}

class Employee {
-name
-address
-phoneNumber
-email
-employeeId
-organizationRole
-socCode
}

class Client{
 - name
 - email
 - phoneNumber
 - sex
 - tin
 - birthDate
 - nhsNumber
 - citizenCardNumber
}

class ChemicalAnalysis{
-dateAndTime
}

class SpecialistDoctor{
-doctorIndexNumber
}

class MedicalReport{
-diagnosis
-dateAndTime
}

class ParameterResult{
-parameterValue
}


class Test{
-internalCode
-nhsCode
-description
}

class EmailNotification{
-message
}

class SMSNotification{
-message
}


ChemicalAnalysis "1"- - -"1..*" ParameterResult: generates >

Company "1"- - -"1..*" Employee : employ >
Company "1"- - -"1..*" Test : performs >

Client "*"- - -"1..*" SMSNotification : receives >
Client "*"- - -"1..*" EmailNotification : receives >

LabCoordinatorValidation "*"- -"1" Employee : made by >

MedicalReport "*"- - -"1" LabCoordinatorValidation : validated by >
MedicalReport "1"- - -"1..*" ParameterResult : contains >
MedicalReport "*"- - -"1" SpecialistDoctor : written by >

Test "1..*" - - -"1" ChemicalAnalysis : request >
Test "*" - - - "1" LabCoordinatorValidation : request >
Test "1" - - -"1" MedicalReport : request >

ParameterResult "1..*"- - -"1" Employee: registered by >
ParameterResult "1..*"- - -"1" LabCoordinatorValidation : validated by >
ParameterResult "1..*"- - -"1" SpecialistDoctor : analyzed by >

EmailNotification "1"- - -"1" Test : associated to >

SMSNotification "1"- - -"1" Test : associated to >

@enduml

@startuml
hide methods
skinparam classAttributeIconSize 0

class Company
class LabCoordinatorValidation
class Employee
class ChemicalAnalysis
class SpecialistDoctor
class MedicalReport
class ParameterResult
class Test
class EmailNotification
class SMSNotification


class Company{
-name
-designation
-category
-address
-headquarters
}

class LabCoordinatorValidation {
-dateAndTime
}

class Employee {
-name
-address
-phoneNumber
-email
-employeeId
-organizationRole
-socCode
}

class Client{
 - name
 - email
 - phoneNumber
 - sex
 - tin
 - birthDate
 - nhsNumber
 - citizenCardNumber
}

class ChemicalAnalysis{
-dateAndTime
}

class SpecialistDoctor{
-doctorIndexNumber
}

class MedicalReport{
-diagnosis
-dateAndTime
}

class ParameterResult{
-parameterValue
}


class Test{
-internalCode
-nhsCode
-description
}

class EmailNotification{
-message
}

class SMSNotification{
-message
}


ChemicalAnalysis "1"- - -"1..*" ParameterResult: generates >

Company "1"- - -"1..*" Employee : employ >
Company "1"- - -"1..*" Test : performs >

Client "*"- - -"1..*" SMSNotification : receives >
Client "*"- - -"1..*" EmailNotification : receives >

LabCoordinatorValidation "*"- -"1" Employee : made by >

MedicalReport "*"- - -"1" LabCoordinatorValidation : validated by >
MedicalReport "1"- - -"1..*" ParameterResult : contains >
MedicalReport "*"- - -"1" SpecialistDoctor : written by >

Test "1..*" - - -"1" ChemicalAnalysis : request >
Test "*" - - - "1" LabCoordinatorValidation : request >
Test "1" - - -"1" MedicalReport : request >

ParameterResult "1..*"- - -"1" Employee: registered by >
ParameterResult "1..*"- - -"1" LabCoordinatorValidation : validated by >
ParameterResult "1..*"- - -"1" SpecialistDoctor : analyzed by >

EmailNotification "1"- - -"1" Test : associated to >

SMSNotification "1"- - -"1" Test : associated to >

@enduml

PlantUML version 1.2021.4(Sun Apr 04 09:49:39 BST 2021)
(GPL source distribution)
Java Runtime: OpenJDK Runtime Environment
JVM: OpenJDK 64-Bit Server VM
Default Encoding: Cp1252
Language: pt
Country: PT
--></g></svg>