<?xml version="1.0" encoding="UTF-8" standalone="no"?><svg xmlns="http://www.w3.org/2000/svg" xmlns:xlink="http://www.w3.org/1999/xlink" contentScriptType="application/ecmascript" contentStyleType="text/css" height="748px" preserveAspectRatio="none" style="width:837px;height:748px;" version="1.1" viewBox="0 0 837 748" width="837px" zoomAndPan="magnify"><defs><filter height="300%" id="f1btz1cqfdohmq" width="300%" x="-1" y="-1"><feGaussianBlur result="blurOut" stdDeviation="2.0"/><feColorMatrix in="blurOut" result="blurOut2" type="matrix" values="0 0 0 0 0 0 0 0 0 0 0 0 0 0 0 0 0 0 .4 0"/><feOffset dx="4.0" dy="4.0" in="blurOut2" result="blurOut3"/><feBlend in="SourceGraphic" in2="blurOut3" mode="normal"/></filter></defs><g><!--MD5=[0deb7dd7aafd8ac89375ffa110837fa5]
class CreateClientUI--><rect codeLine="3" fill="#FEFECE" filter="url(#f1btz1cqfdohmq)" height="48" id="CreateClientUI" style="stroke:#A80036;stroke-width:1.5;" width="113" x="7" y="7"/><ellipse cx="22" cy="23" fill="#ADD1B2" rx="11" ry="11" style="stroke:#A80036;stroke-width:1.0;"/><path d="M24,19.5 Q24.2031,19 24.4375,18.75 Q24.6719,18.5 24.9375,18.5 Q25.4063,18.5 25.7031,18.7813 Q26,19.0625 26,19.7188 L26,21.2813 Q26,21.9375 25.7188,22.2188 Q25.4375,22.5 25,22.5 Q24.6094,22.5 24.3594,22.3281 Q24.1094,22.1563 24,21.7031 Q23.9531,21.3906 23.7813,21.2188 Q23.4688,20.8906 22.9063,20.7031 Q22.3438,20.5 21.7813,20.5 Q21.0781,20.5 20.4844,20.7813 Q19.9063,21.0625 19.4531,21.6875 Q19,22.3125 19,23.1719 L19,24.0938 Q19,25.125 19.8438,25.8125 Q20.6875,26.5 22.1875,26.5 Q23.0781,26.5 23.7031,26.2969 Q24.0625,26.1875 24.4688,25.8281 Q24.7344,25.625 24.875,25.5625 Q25.0156,25.5 25.1875,25.5 Q25.5156,25.5 25.75,25.7656 Q26,26.0156 26,26.375 Q26,26.7188 25.6563,27.125 Q25.1563,27.7188 24.3594,28.0469 Q23.3125,28.5 22.0313,28.5 Q20.5313,28.5 19.3281,27.9063 Q18.3594,27.4375 17.6719,26.4219 Q17,25.4063 17,24.2031 L17,23.1094 Q17,21.8594 17.5938,20.7656 Q18.2031,19.6719 19.25,19.0938 Q20.3125,18.5 21.5,18.5 Q22.2188,18.5 22.8438,18.75 Q23.4688,19 24,19.5 Z " fill="#000000"/><text fill="#000000" font-family="sans-serif" font-size="12" lengthAdjust="spacing" textLength="81" x="36" y="27.9102">CreateClientUI</text><line style="stroke:#A80036;stroke-width:1.5;" x1="8" x2="119" y1="39" y2="39"/><line style="stroke:#A80036;stroke-width:1.5;" x1="8" x2="119" y1="47" y2="47"/><!--MD5=[ed6624c6556d5e7b1bd23032162d20b7]
class Client--><rect codeLine="7" fill="#FEFECE" filter="url(#f1btz1cqfdohmq)" height="186.3594" id="Client" style="stroke:#A80036;stroke-width:1.5;" width="207" x="351" y="499.5"/><ellipse cx="434.25" cy="515.5" fill="#ADD1B2" rx="11" ry="11" style="stroke:#A80036;stroke-width:1.0;"/><path d="M436.25,512 Q436.4531,511.5 436.6875,511.25 Q436.9219,511 437.1875,511 Q437.6563,511 437.9531,511.2813 Q438.25,511.5625 438.25,512.2188 L438.25,513.7813 Q438.25,514.4375 437.9688,514.7188 Q437.6875,515 437.25,515 Q436.8594,515 436.6094,514.8281 Q436.3594,514.6563 436.25,514.2031 Q436.2031,513.8906 436.0313,513.7188 Q435.7188,513.3906 435.1563,513.2031 Q434.5938,513 434.0313,513 Q433.3281,513 432.7344,513.2813 Q432.1563,513.5625 431.7031,514.1875 Q431.25,514.8125 431.25,515.6719 L431.25,516.5938 Q431.25,517.625 432.0938,518.3125 Q432.9375,519 434.4375,519 Q435.3281,519 435.9531,518.7969 Q436.3125,518.6875 436.7188,518.3281 Q436.9844,518.125 437.125,518.0625 Q437.2656,518 437.4375,518 Q437.7656,518 438,518.2656 Q438.25,518.5156 438.25,518.875 Q438.25,519.2188 437.9063,519.625 Q437.4063,520.2188 436.6094,520.5469 Q435.5625,521 434.2813,521 Q432.7813,521 431.5781,520.4063 Q430.6094,519.9375 429.9219,518.9219 Q429.25,517.9063 429.25,516.7031 L429.25,515.6094 Q429.25,514.3594 429.8438,513.2656 Q430.4531,512.1719 431.5,511.5938 Q432.5625,511 433.75,511 Q434.4688,511 435.0938,511.25 Q435.7188,511.5 436.25,512 Z " fill="#000000"/><text fill="#000000" font-family="sans-serif" font-size="12" lengthAdjust="spacing" textLength="32" x="454.75" y="520.4102">Client</text><line style="stroke:#A80036;stroke-width:1.5;" x1="352" x2="557" y1="531.5" y2="531.5"/><text fill="#000000" font-family="sans-serif" font-size="11" lengthAdjust="spacing" textLength="113" x="357" y="546.9189">-int citizen card number</text><text fill="#000000" font-family="sans-serif" font-size="11" lengthAdjust="spacing" textLength="78" x="357" y="560.7549">-int NHS number</text><text fill="#000000" font-family="sans-serif" font-size="11" lengthAdjust="spacing" textLength="63" x="357" y="574.5908">-int birth date</text><text fill="#000000" font-family="sans-serif" font-size="11" lengthAdjust="spacing" textLength="53" x="357" y="588.4268">-String sex</text><text fill="#000000" font-family="sans-serif" font-size="11" lengthAdjust="spacing" textLength="32" x="357" y="602.2627">-int TIF</text><text fill="#000000" font-family="sans-serif" font-size="11" lengthAdjust="spacing" textLength="87" x="357" y="616.0986">-int phone number</text><text fill="#000000" font-family="sans-serif" font-size="11" lengthAdjust="spacing" textLength="63" x="357" y="629.9346">-String e-mail</text><text fill="#000000" font-family="sans-serif" font-size="11" lengthAdjust="spacing" textLength="61" x="357" y="643.7705">-String name</text><line style="stroke:#A80036;stroke-width:1.5;" x1="352" x2="557" y1="650.1875" y2="650.1875"/><text fill="#000000" font-family="sans-serif" font-size="11" lengthAdjust="spacing" textLength="159" x="357" y="665.6064">create(name, citizencardnumber,</text><text fill="#000000" font-family="sans-serif" font-size="11" lengthAdjust="spacing" textLength="192" x="360" y="679.4424">nhs, date, sex, tin, phonenumber, email)</text><!--MD5=[55cb992be19579b505cea3c5691093cb]
class ClientStore--><rect codeLine="19" fill="#FEFECE" filter="url(#f1btz1cqfdohmq)" height="103.3438" id="ClientStore" style="stroke:#A80036;stroke-width:1.5;" width="106" x="507.5" y="270"/><ellipse cx="528.35" cy="286" fill="#ADD1B2" rx="11" ry="11" style="stroke:#A80036;stroke-width:1.0;"/><path d="M530.35,282.5 Q530.5531,282 530.7875,281.75 Q531.0219,281.5 531.2875,281.5 Q531.7563,281.5 532.0531,281.7813 Q532.35,282.0625 532.35,282.7188 L532.35,284.2813 Q532.35,284.9375 532.0688,285.2188 Q531.7875,285.5 531.35,285.5 Q530.9594,285.5 530.7094,285.3281 Q530.4594,285.1563 530.35,284.7031 Q530.3031,284.3906 530.1313,284.2188 Q529.8188,283.8906 529.2563,283.7031 Q528.6938,283.5 528.1313,283.5 Q527.4281,283.5 526.8344,283.7813 Q526.2563,284.0625 525.8031,284.6875 Q525.35,285.3125 525.35,286.1719 L525.35,287.0938 Q525.35,288.125 526.1938,288.8125 Q527.0375,289.5 528.5375,289.5 Q529.4281,289.5 530.0531,289.2969 Q530.4125,289.1875 530.8188,288.8281 Q531.0844,288.625 531.225,288.5625 Q531.3656,288.5 531.5375,288.5 Q531.8656,288.5 532.1,288.7656 Q532.35,289.0156 532.35,289.375 Q532.35,289.7188 532.0063,290.125 Q531.5063,290.7188 530.7094,291.0469 Q529.6625,291.5 528.3813,291.5 Q526.8813,291.5 525.6781,290.9063 Q524.7094,290.4375 524.0219,289.4219 Q523.35,288.4063 523.35,287.2031 L523.35,286.1094 Q523.35,284.8594 523.9438,283.7656 Q524.5531,282.6719 525.6,282.0938 Q526.6625,281.5 527.85,281.5 Q528.5688,281.5 529.1938,281.75 Q529.8188,282 530.35,282.5 Z " fill="#000000"/><text fill="#000000" font-family="sans-serif" font-size="12" lengthAdjust="spacing" textLength="61" x="543.65" y="290.9102">ClientStore</text><line style="stroke:#A80036;stroke-width:1.5;" x1="508.5" x2="612.5" y1="302" y2="302"/><line style="stroke:#A80036;stroke-width:1.5;" x1="508.5" x2="612.5" y1="310" y2="310"/><text fill="#000000" font-family="sans-serif" font-size="11" lengthAdjust="spacing" textLength="94" x="513.5" y="325.4189">+createClient(cldto)</text><text fill="#000000" font-family="sans-serif" font-size="11" lengthAdjust="spacing" textLength="85" x="513.5" y="339.2549">+validateClient(cl)</text><text fill="#000000" font-family="sans-serif" font-size="11" lengthAdjust="spacing" textLength="72" x="513.5" y="353.0908">+saveClient(cl)</text><text fill="#000000" font-family="sans-serif" font-size="11" lengthAdjust="spacing" textLength="66" x="513.5" y="366.9268">+addClient(cl)</text><!--MD5=[687b2867e958f9e5343032874922dbed]
class ClientDto--><rect codeLine="26" fill="#FEFECE" filter="url(#f1btz1cqfdohmq)" height="283.2109" id="ClientDto" style="stroke:#A80036;stroke-width:1.5;" width="207" x="11" y="451"/><ellipse cx="84.75" cy="467" fill="#ADD1B2" rx="11" ry="11" style="stroke:#A80036;stroke-width:1.0;"/><path d="M86.75,463.5 Q86.9531,463 87.1875,462.75 Q87.4219,462.5 87.6875,462.5 Q88.1563,462.5 88.4531,462.7813 Q88.75,463.0625 88.75,463.7188 L88.75,465.2813 Q88.75,465.9375 88.4688,466.2188 Q88.1875,466.5 87.75,466.5 Q87.3594,466.5 87.1094,466.3281 Q86.8594,466.1563 86.75,465.7031 Q86.7031,465.3906 86.5313,465.2188 Q86.2188,464.8906 85.6563,464.7031 Q85.0938,464.5 84.5313,464.5 Q83.8281,464.5 83.2344,464.7813 Q82.6563,465.0625 82.2031,465.6875 Q81.75,466.3125 81.75,467.1719 L81.75,468.0938 Q81.75,469.125 82.5938,469.8125 Q83.4375,470.5 84.9375,470.5 Q85.8281,470.5 86.4531,470.2969 Q86.8125,470.1875 87.2188,469.8281 Q87.4844,469.625 87.625,469.5625 Q87.7656,469.5 87.9375,469.5 Q88.2656,469.5 88.5,469.7656 Q88.75,470.0156 88.75,470.375 Q88.75,470.7188 88.4063,471.125 Q87.9063,471.7188 87.1094,472.0469 Q86.0625,472.5 84.7813,472.5 Q83.2813,472.5 82.0781,471.9063 Q81.1094,471.4375 80.4219,470.4219 Q79.75,469.4063 79.75,468.2031 L79.75,467.1094 Q79.75,465.8594 80.3438,464.7656 Q80.9531,463.6719 82,463.0938 Q83.0625,462.5 84.25,462.5 Q84.9688,462.5 85.5938,462.75 Q86.2188,463 86.75,463.5 Z " fill="#000000"/><text fill="#000000" font-family="sans-serif" font-size="12" lengthAdjust="spacing" textLength="51" x="105.25" y="471.9102">ClientDto</text><line style="stroke:#A80036;stroke-width:1.5;" x1="12" x2="217" y1="483" y2="483"/><text fill="#000000" font-family="sans-serif" font-size="11" lengthAdjust="spacing" textLength="113" x="17" y="498.4189">-int citizen card number</text><text fill="#000000" font-family="sans-serif" font-size="11" lengthAdjust="spacing" textLength="78" x="17" y="512.2549">-int NHS number</text><text fill="#000000" font-family="sans-serif" font-size="11" lengthAdjust="spacing" textLength="63" x="17" y="526.0908">-int birth date</text><text fill="#000000" font-family="sans-serif" font-size="11" lengthAdjust="spacing" textLength="53" x="17" y="539.9268">-String sex</text><text fill="#000000" font-family="sans-serif" font-size="11" lengthAdjust="spacing" textLength="32" x="17" y="553.7627">-int TIF</text><text fill="#000000" font-family="sans-serif" font-size="11" lengthAdjust="spacing" textLength="87" x="17" y="567.5986">-int phone number</text><text fill="#000000" font-family="sans-serif" font-size="11" lengthAdjust="spacing" textLength="63" x="17" y="581.4346">-String e-mail</text><text fill="#000000" font-family="sans-serif" font-size="11" lengthAdjust="spacing" textLength="61" x="17" y="595.2705">-String name</text><line style="stroke:#A80036;stroke-width:1.5;" x1="12" x2="217" y1="601.6875" y2="601.6875"/><text fill="#000000" font-family="sans-serif" font-size="11" lengthAdjust="spacing" textLength="170" x="17" y="617.1064">ClientDto(name, citizencardnumber,</text><text fill="#000000" font-family="sans-serif" font-size="11" lengthAdjust="spacing" textLength="192" x="20" y="630.9424">nhs, date, sex, tin, phonenumber, email)</text><text fill="#000000" font-family="sans-serif" font-size="11" lengthAdjust="spacing" textLength="55" x="17" y="644.7783">+getname()</text><text fill="#000000" font-family="sans-serif" font-size="11" lengthAdjust="spacing" textLength="47" x="17" y="658.6143">+getnhs()</text><text fill="#000000" font-family="sans-serif" font-size="11" lengthAdjust="spacing" textLength="50" x="17" y="672.4502">+getdate()</text><text fill="#000000" font-family="sans-serif" font-size="11" lengthAdjust="spacing" textLength="47" x="17" y="686.2861">+getsex()</text><text fill="#000000" font-family="sans-serif" font-size="11" lengthAdjust="spacing" textLength="40" x="17" y="700.1221">+gettin()</text><text fill="#000000" font-family="sans-serif" font-size="11" lengthAdjust="spacing" textLength="95" x="17" y="713.958">+getphonenumber()</text><text fill="#000000" font-family="sans-serif" font-size="11" lengthAdjust="spacing" textLength="53" x="17" y="727.7939">+getemail()</text><!--MD5=[d9af5e34e5bc78cd5a2caff02363fedd]
class ClientMapper--><rect codeLine="45" fill="#FEFECE" filter="url(#f1btz1cqfdohmq)" height="48" id="ClientMapper" style="stroke:#A80036;stroke-width:1.5;" width="105" x="296" y="297.5"/><ellipse cx="311" cy="313.5" fill="#ADD1B2" rx="11" ry="11" style="stroke:#A80036;stroke-width:1.0;"/><path d="M313,310 Q313.2031,309.5 313.4375,309.25 Q313.6719,309 313.9375,309 Q314.4063,309 314.7031,309.2813 Q315,309.5625 315,310.2188 L315,311.7813 Q315,312.4375 314.7188,312.7188 Q314.4375,313 314,313 Q313.6094,313 313.3594,312.8281 Q313.1094,312.6563 313,312.2031 Q312.9531,311.8906 312.7813,311.7188 Q312.4688,311.3906 311.9063,311.2031 Q311.3438,311 310.7813,311 Q310.0781,311 309.4844,311.2813 Q308.9063,311.5625 308.4531,312.1875 Q308,312.8125 308,313.6719 L308,314.5938 Q308,315.625 308.8438,316.3125 Q309.6875,317 311.1875,317 Q312.0781,317 312.7031,316.7969 Q313.0625,316.6875 313.4688,316.3281 Q313.7344,316.125 313.875,316.0625 Q314.0156,316 314.1875,316 Q314.5156,316 314.75,316.2656 Q315,316.5156 315,316.875 Q315,317.2188 314.6563,317.625 Q314.1563,318.2188 313.3594,318.5469 Q312.3125,319 311.0313,319 Q309.5313,319 308.3281,318.4063 Q307.3594,317.9375 306.6719,316.9219 Q306,315.9063 306,314.7031 L306,313.6094 Q306,312.3594 306.5938,311.2656 Q307.2031,310.1719 308.25,309.5938 Q309.3125,309 310.5,309 Q311.2188,309 311.8438,309.25 Q312.4688,309.5 313,310 Z " fill="#000000"/><text fill="#000000" font-family="sans-serif" font-size="12" lengthAdjust="spacing" textLength="73" x="325" y="318.4102">ClientMapper</text><line style="stroke:#A80036;stroke-width:1.5;" x1="297" x2="400" y1="329.5" y2="329.5"/><line style="stroke:#A80036;stroke-width:1.5;" x1="297" x2="400" y1="337.5" y2="337.5"/><!--MD5=[02e4b9b7573f1156f41e60aa5b4e25a4]
class Company--><rect codeLine="49" fill="#FEFECE" filter="url(#f1btz1cqfdohmq)" height="61.8359" id="Company" style="stroke:#A80036;stroke-width:1.5;" width="93" x="168" y="290.5"/><ellipse cx="186.6" cy="306.5" fill="#ADD1B2" rx="11" ry="11" style="stroke:#A80036;stroke-width:1.0;"/><path d="M188.6,303 Q188.8031,302.5 189.0375,302.25 Q189.2719,302 189.5375,302 Q190.0063,302 190.3031,302.2813 Q190.6,302.5625 190.6,303.2188 L190.6,304.7813 Q190.6,305.4375 190.3188,305.7188 Q190.0375,306 189.6,306 Q189.2094,306 188.9594,305.8281 Q188.7094,305.6563 188.6,305.2031 Q188.5531,304.8906 188.3813,304.7188 Q188.0688,304.3906 187.5063,304.2031 Q186.9438,304 186.3813,304 Q185.6781,304 185.0844,304.2813 Q184.5063,304.5625 184.0531,305.1875 Q183.6,305.8125 183.6,306.6719 L183.6,307.5938 Q183.6,308.625 184.4438,309.3125 Q185.2875,310 186.7875,310 Q187.6781,310 188.3031,309.7969 Q188.6625,309.6875 189.0688,309.3281 Q189.3344,309.125 189.475,309.0625 Q189.6156,309 189.7875,309 Q190.1156,309 190.35,309.2656 Q190.6,309.5156 190.6,309.875 Q190.6,310.2188 190.2563,310.625 Q189.7563,311.2188 188.9594,311.5469 Q187.9125,312 186.6313,312 Q185.1313,312 183.9281,311.4063 Q182.9594,310.9375 182.2719,309.9219 Q181.6,308.9063 181.6,307.7031 L181.6,306.6094 Q181.6,305.3594 182.1938,304.2656 Q182.8031,303.1719 183.85,302.5938 Q184.9125,302 186.1,302 Q186.8188,302 187.4438,302.25 Q188.0688,302.5 188.6,303 Z " fill="#000000"/><text fill="#000000" font-family="sans-serif" font-size="12" lengthAdjust="spacing" textLength="53" x="201.4" y="311.4102">Company</text><line style="stroke:#A80036;stroke-width:1.5;" x1="169" x2="260" y1="322.5" y2="322.5"/><line style="stroke:#A80036;stroke-width:1.5;" x1="169" x2="260" y1="330.5" y2="330.5"/><text fill="#000000" font-family="sans-serif" font-size="11" lengthAdjust="spacing" textLength="81" x="174" y="345.9189">+getClientStore()</text><!--MD5=[7b68a60807ef0d5ecf982988765ba5ca]
class CreateClientController--><rect codeLine="54" fill="#FEFECE" filter="url(#f1btz1cqfdohmq)" height="75.6719" id="CreateClientController" style="stroke:#A80036;stroke-width:1.5;" width="155" x="188" y="116"/><ellipse cx="203" cy="132" fill="#ADD1B2" rx="11" ry="11" style="stroke:#A80036;stroke-width:1.0;"/><path d="M205,128.5 Q205.2031,128 205.4375,127.75 Q205.6719,127.5 205.9375,127.5 Q206.4063,127.5 206.7031,127.7813 Q207,128.0625 207,128.7188 L207,130.2813 Q207,130.9375 206.7188,131.2188 Q206.4375,131.5 206,131.5 Q205.6094,131.5 205.3594,131.3281 Q205.1094,131.1563 205,130.7031 Q204.9531,130.3906 204.7813,130.2188 Q204.4688,129.8906 203.9063,129.7031 Q203.3438,129.5 202.7813,129.5 Q202.0781,129.5 201.4844,129.7813 Q200.9063,130.0625 200.4531,130.6875 Q200,131.3125 200,132.1719 L200,133.0938 Q200,134.125 200.8438,134.8125 Q201.6875,135.5 203.1875,135.5 Q204.0781,135.5 204.7031,135.2969 Q205.0625,135.1875 205.4688,134.8281 Q205.7344,134.625 205.875,134.5625 Q206.0156,134.5 206.1875,134.5 Q206.5156,134.5 206.75,134.7656 Q207,135.0156 207,135.375 Q207,135.7188 206.6563,136.125 Q206.1563,136.7188 205.3594,137.0469 Q204.3125,137.5 203.0313,137.5 Q201.5313,137.5 200.3281,136.9063 Q199.3594,136.4375 198.6719,135.4219 Q198,134.4063 198,133.2031 L198,132.1094 Q198,130.8594 198.5938,129.7656 Q199.2031,128.6719 200.25,128.0938 Q201.3125,127.5 202.5,127.5 Q203.2188,127.5 203.8438,127.75 Q204.4688,128 205,128.5 Z " fill="#000000"/><text fill="#000000" font-family="sans-serif" font-size="12" lengthAdjust="spacing" textLength="123" x="217" y="136.9102">CreateClientController</text><line style="stroke:#A80036;stroke-width:1.5;" x1="189" x2="342" y1="148" y2="148"/><line style="stroke:#A80036;stroke-width:1.5;" x1="189" x2="342" y1="156" y2="156"/><text fill="#000000" font-family="sans-serif" font-size="11" lengthAdjust="spacing" textLength="71" x="194" y="171.4189">+createClient()</text><text fill="#000000" font-family="sans-serif" font-size="11" lengthAdjust="spacing" textLength="64" x="194" y="185.2549">+saveClient()</text><!--MD5=[8ae808d068a8995f06b9b3ec51357f0b]
class AuthFacade--><rect codeLine="59" fill="#FEFECE" filter="url(#f1btz1cqfdohmq)" height="61.8359" id="AuthFacade" style="stroke:#A80036;stroke-width:1.5;" width="145" x="678" y="290.5"/><ellipse cx="714.6" cy="306.5" fill="#ADD1B2" rx="11" ry="11" style="stroke:#A80036;stroke-width:1.0;"/><path d="M716.6,303 Q716.8031,302.5 717.0375,302.25 Q717.2719,302 717.5375,302 Q718.0063,302 718.3031,302.2813 Q718.6,302.5625 718.6,303.2188 L718.6,304.7813 Q718.6,305.4375 718.3188,305.7188 Q718.0375,306 717.6,306 Q717.2094,306 716.9594,305.8281 Q716.7094,305.6563 716.6,305.2031 Q716.5531,304.8906 716.3813,304.7188 Q716.0688,304.3906 715.5063,304.2031 Q714.9438,304 714.3813,304 Q713.6781,304 713.0844,304.2813 Q712.5063,304.5625 712.0531,305.1875 Q711.6,305.8125 711.6,306.6719 L711.6,307.5938 Q711.6,308.625 712.4438,309.3125 Q713.2875,310 714.7875,310 Q715.6781,310 716.3031,309.7969 Q716.6625,309.6875 717.0688,309.3281 Q717.3344,309.125 717.475,309.0625 Q717.6156,309 717.7875,309 Q718.1156,309 718.35,309.2656 Q718.6,309.5156 718.6,309.875 Q718.6,310.2188 718.2563,310.625 Q717.7563,311.2188 716.9594,311.5469 Q715.9125,312 714.6313,312 Q713.1313,312 711.9281,311.4063 Q710.9594,310.9375 710.2719,309.9219 Q709.6,308.9063 709.6,307.7031 L709.6,306.6094 Q709.6,305.3594 710.1938,304.2656 Q710.8031,303.1719 711.85,302.5938 Q712.9125,302 714.1,302 Q714.8188,302 715.4438,302.25 Q716.0688,302.5 716.6,303 Z " fill="#000000"/><text fill="#000000" font-family="sans-serif" font-size="12" lengthAdjust="spacing" textLength="65" x="733.4" y="311.4102">AuthFacade</text><line style="stroke:#A80036;stroke-width:1.5;" x1="679" x2="822" y1="322.5" y2="322.5"/><line style="stroke:#A80036;stroke-width:1.5;" x1="679" x2="822" y1="330.5" y2="330.5"/><text fill="#000000" font-family="sans-serif" font-size="11" lengthAdjust="spacing" textLength="133" x="684" y="345.9189">+addUser(name,email,pwd)</text><!--MD5=[8090ea5979f93a1303155e437990326e]
link CreateClientUI to CreateClientController--><path codeLine="65" d="M101.97,55.04 C129.36,71.45 166.86,93.91 199.04,113.19 " fill="none" id="CreateClientUI-to-CreateClientController" style="stroke:#A80036;stroke-width:1.0;stroke-dasharray:7.0,7.0;"/><polygon fill="#A80036" points="203.34,115.77,197.6805,107.7096,199.0525,113.1975,193.5646,114.5695,203.34,115.77" style="stroke:#A80036;stroke-width:1.0;"/><!--MD5=[277f000ab38abe7104cdd4025b3a6723]
link CreateClientUI to ClientDto--><path codeLine="66" d="M65.63,55.33 C71.6,120.82 88.88,310.41 101.2,445.54 " fill="none" id="CreateClientUI-to-ClientDto" style="stroke:#A80036;stroke-width:1.0;stroke-dasharray:7.0,7.0;"/><polygon fill="#A80036" points="101.67,450.72,104.8315,441.3924,101.2135,445.7409,96.8649,442.1228,101.67,450.72" style="stroke:#A80036;stroke-width:1.0;"/><!--MD5=[847feef31dc0a43ae624abe8cae832f5]
link CreateClientController to Company--><path codeLine="67" d="M254.05,192.14 C245.46,220.04 233.76,258.01 225.32,285.4 " fill="none" id="CreateClientController-to-Company" style="stroke:#A80036;stroke-width:1.0;stroke-dasharray:7.0,7.0;"/><polygon fill="#A80036" points="223.78,290.39,230.2546,282.9684,225.2534,285.612,222.6098,280.6109,223.78,290.39" style="stroke:#A80036;stroke-width:1.0;"/><!--MD5=[b2b8f739963272a7a1c2f17dc624f1bb]
link CreateClientController to ClientDto--><path codeLine="68" d="M215.05,192.03 C191.38,212.29 165.19,239.47 150.5,270 C124.56,323.92 113.97,388.64 110.46,445.83 " fill="none" id="CreateClientController-to-ClientDto" style="stroke:#A80036;stroke-width:1.0;stroke-dasharray:7.0,7.0;"/><polygon fill="#A80036" points="110.16,450.99,114.6684,442.2336,110.4461,445.9982,106.6815,441.7759,110.16,450.99" style="stroke:#A80036;stroke-width:1.0;"/><!--MD5=[335834ecaa73fd89288f95c6f1e892bb]
link CreateClientController to ClientMapper--><path codeLine="69" d="M284.13,192.14 C299.4,222.59 320.68,265.03 334.52,292.63 " fill="none" id="CreateClientController-to-ClientMapper" style="stroke:#A80036;stroke-width:1.0;stroke-dasharray:7.0,7.0;"/><polygon fill="#A80036" points="336.85,297.26,336.3902,287.4219,334.6082,292.7907,329.2394,291.0087,336.85,297.26" style="stroke:#A80036;stroke-width:1.0;"/><!--MD5=[5e0004deadefe782d12e29dc3925821a]
link CreateClientController to Client--><path codeLine="70" d="M343.12,169.88 C372.98,179.64 404.45,195.7 423.5,222 C480.12,300.19 481.04,413.56 472.09,494.07 " fill="none" id="CreateClientController-to-Client" style="stroke:#A80036;stroke-width:1.0;stroke-dasharray:7.0,7.0;"/><polygon fill="#A80036" points="471.49,499.33,476.4916,490.8456,472.061,494.3627,468.5439,489.9321,471.49,499.33" style="stroke:#A80036;stroke-width:1.0;"/><!--MD5=[529d1c67480f8a4484a8895d72e2d26c]
link CreateClientController to ClientStore--><path codeLine="71" d="M343.2,167.74 C386.37,177.51 439.47,194.21 480.5,222 C497.57,233.56 512.85,249.83 525.36,265.82 " fill="none" id="CreateClientController-to-ClientStore" style="stroke:#A80036;stroke-width:1.0;stroke-dasharray:7.0,7.0;"/><polygon fill="#A80036" points="528.48,269.88,526.1648,260.3071,525.4321,265.9163,519.8229,265.1837,528.48,269.88" style="stroke:#A80036;stroke-width:1.0;"/><!--MD5=[2372c001abf21b3b2df79a55ac61b7a2]
link ClientMapper to ClientDto--><path codeLine="72" d="M328.14,345.9 C304.03,373.63 262,421.94 221.57,468.42 " fill="none" id="ClientMapper-to-ClientDto" style="stroke:#A80036;stroke-width:1.0;stroke-dasharray:7.0,7.0;"/><polygon fill="#A80036" points="218.16,472.33,227.0879,468.1716,221.4444,468.56,221.056,462.9165,218.16,472.33" style="stroke:#A80036;stroke-width:1.0;"/><!--MD5=[7e87959ebe2e461efeab352c4ade48a9]
link ClientMapper to Client--><path codeLine="73" d="M357.72,345.9 C370.73,378.91 395.23,441.08 416.32,494.62 " fill="none" id="ClientMapper-to-Client" style="stroke:#A80036;stroke-width:1.0;stroke-dasharray:7.0,7.0;"/><polygon fill="#A80036" points="418.22,499.44,418.654,489.6007,416.3926,494.7859,411.2074,492.5245,418.22,499.44" style="stroke:#A80036;stroke-width:1.0;"/><!--MD5=[1d934105a045dbf126514c6917bd5072]
link ClientStore to Client--><path codeLine="74" d="M540.56,373.1 C527.08,407.32 508.84,453.6 492.63,494.75 " fill="none" id="ClientStore-to-Client" style="stroke:#A80036;stroke-width:1.0;"/><polygon fill="#A80036" points="490.76,499.48,497.7726,492.5645,492.5874,494.8259,490.326,489.6407,490.76,499.48" style="stroke:#A80036;stroke-width:1.0;"/><text fill="#000000" font-family="sans-serif" font-size="13" lengthAdjust="spacing" textLength="65" x="526.5" y="417.4951">register the</text><text fill="#000000" font-family="sans-serif" font-size="13" lengthAdjust="spacing" textLength="7" x="530.2638" y="394.9769">1</text><text fill="#000000" font-family="sans-serif" font-size="13" lengthAdjust="spacing" textLength="5" x="488.5558" y="488.6091">*</text><!--MD5=[f8bd89e10615b5e5f22d4bd50c99347c]
link ClientStore to AuthFacade--><path codeLine="75" d="M613.68,321.5 C632,321.5 652.91,321.5 672.77,321.5 " fill="none" id="ClientStore-to-AuthFacade" style="stroke:#A80036;stroke-width:1.0;"/><polygon fill="#A80036" points="677.8,321.5,668.8,317.5,672.8,321.5,668.8,325.5,677.8,321.5" style="stroke:#A80036;stroke-width:1.0;"/><text fill="#000000" font-family="sans-serif" font-size="13" lengthAdjust="spacing" textLength="28" x="631.75" y="314.9951">uses</text><text fill="#000000" font-family="sans-serif" font-size="13" lengthAdjust="spacing" textLength="7" x="621.6506" y="317.8707">1</text><text fill="#000000" font-family="sans-serif" font-size="13" lengthAdjust="spacing" textLength="7" x="662.9419" y="318.1967">1</text><!--MD5=[a11230341c8e65219708844feaa40162]
link Company to ClientStore--><path codeLine="76" d="M248.36,290.34 C257.64,282.92 268.05,275.55 278.5,270 C333.81,240.61 354.59,222.42 415.5,237 C446.57,244.44 477.63,261.01 502.98,277.52 " fill="none" id="Company-to-ClientStore" style="stroke:#A80036;stroke-width:1.0;"/><polygon fill="#A80036" points="507.33,280.38,502.0274,272.0804,503.1588,277.623,497.6162,278.7544,507.33,280.38" style="stroke:#A80036;stroke-width:1.0;"/><text fill="#000000" font-family="sans-serif" font-size="13" lengthAdjust="spacing" textLength="28" x="386.5" y="236.4951">uses</text><text fill="#000000" font-family="sans-serif" font-size="13" lengthAdjust="spacing" textLength="7" x="247.6218" y="279.8115">1</text><text fill="#000000" font-family="sans-serif" font-size="13" lengthAdjust="spacing" textLength="7" x="492.3608" y="270.9682">1</text><!--MD5=[7ceef3cc8b9f083b18aef5fb4703a6d7]
@startuml
skinparam classAttributeIconSize 0

class CreateClientUI {

}

class Client {
  -int citizen card number
  -int NHS number
  -int birth date
  -String sex
  -int TIF
  -int phone number
  -String e-mail
  -String name
  create(name, citizencardnumber,\n nhs, date, sex, tin, phonenumber, email)
}

class ClientStore {
  +createClient(cldto)
  +validateClient(cl)
  +saveClient(cl)
  +addClient(cl)
}

class ClientDto {
  -int citizen card number
  -int NHS number
  -int birth date
  -String sex
  -int TIF
  -int phone number
  -String e-mail
  -String name
  ClientDto(name, citizencardnumber,\n nhs, date, sex, tin, phonenumber, email)
  +getname()
  +getnhs()
  +getdate()
  +getsex()
  +gettin()
  +getphonenumber()
  +getemail()
}

class ClientMapper {

}

class Company {
  +getClientStore()
}


class CreateClientController {
  +createClient()
  +saveClient()
}

class AuthFacade {
  +addUser(name,email,pwd)
}



CreateClientUI ..> CreateClientController
CreateClientUI ..> ClientDto
CreateClientController ..> Company
CreateClientController ..> ClientDto
CreateClientController ..> ClientMapper
CreateClientController ..> Client
CreateClientController ..> ClientStore
ClientMapper ..> ClientDto
ClientMapper ..> Client
ClientStore "1" -> "*" Client : register the
ClientStore "1" -> "1" AuthFacade : uses
Company "1" -> "1" ClientStore : uses



@enduml

PlantUML version 1.2021.5(Sun Apr 25 12:20:28 BST 2021)
(GPL source distribution)
Java Runtime: OpenJDK Runtime Environment
JVM: OpenJDK 64-Bit Server VM
Default Encoding: Cp1252
Language: pt
Country: PT
--></g></svg>