<?xml version="1.0" encoding="UTF-8" standalone="no"?><svg xmlns="http://www.w3.org/2000/svg" xmlns:xlink="http://www.w3.org/1999/xlink" contentScriptType="application/ecmascript" contentStyleType="text/css" height="302px" preserveAspectRatio="none" style="width:555px;height:302px;" version="1.1" viewBox="0 0 555 302" width="555px" zoomAndPan="magnify"><defs><filter height="300%" id="f1i3xgo6vh0ij" width="300%" x="-1" y="-1"><feGaussianBlur result="blurOut" stdDeviation="2.0"/><feColorMatrix in="blurOut" result="blurOut2" type="matrix" values="0 0 0 0 0 0 0 0 0 0 0 0 0 0 0 0 0 0 .4 0"/><feOffset dx="4.0" dy="4.0" in="blurOut2" result="blurOut3"/><feBlend in="SourceGraphic" in2="blurOut3" mode="normal"/></filter></defs><g><!--MD5=[03960189e81aa2c066c762ffabbee709]
class Receptionist--><rect codeLine="6" fill="#FEFECE" filter="url(#f1i3xgo6vh0ij)" height="40" id="Receptionist" style="stroke:#A80036;stroke-width:1.5;" width="101" x="7" y="191.5"/><ellipse cx="22" cy="207.5" fill="#ADD1B2" rx="11" ry="11" style="stroke:#A80036;stroke-width:1.0;"/><path d="M24,204 Q24.2031,203.5 24.4375,203.25 Q24.6719,203 24.9375,203 Q25.4063,203 25.7031,203.2813 Q26,203.5625 26,204.2188 L26,205.7813 Q26,206.4375 25.7188,206.7188 Q25.4375,207 25,207 Q24.6094,207 24.3594,206.8281 Q24.1094,206.6563 24,206.2031 Q23.9531,205.8906 23.7813,205.7188 Q23.4688,205.3906 22.9063,205.2031 Q22.3438,205 21.7813,205 Q21.0781,205 20.4844,205.2813 Q19.9063,205.5625 19.4531,206.1875 Q19,206.8125 19,207.6719 L19,208.5938 Q19,209.625 19.8438,210.3125 Q20.6875,211 22.1875,211 Q23.0781,211 23.7031,210.7969 Q24.0625,210.6875 24.4688,210.3281 Q24.7344,210.125 24.875,210.0625 Q25.0156,210 25.1875,210 Q25.5156,210 25.75,210.2656 Q26,210.5156 26,210.875 Q26,211.2188 25.6563,211.625 Q25.1563,212.2188 24.3594,212.5469 Q23.3125,213 22.0313,213 Q20.5313,213 19.3281,212.4063 Q18.3594,211.9375 17.6719,210.9219 Q17,209.9063 17,208.7031 L17,207.6094 Q17,206.3594 17.5938,205.2656 Q18.2031,204.1719 19.25,203.5938 Q20.3125,203 21.5,203 Q22.2188,203 22.8438,203.25 Q23.4688,203.5 24,204 Z " fill="#000000"/><text fill="#000000" font-family="sans-serif" font-size="12" lengthAdjust="spacing" textLength="69" x="36" y="212.4102">Receptionist</text><line style="stroke:#A80036;stroke-width:1.5;" x1="8" x2="107" y1="223.5" y2="223.5"/><!--MD5=[ed6624c6556d5e7b1bd23032162d20b7]
class Client--><rect codeLine="10" fill="#FEFECE" filter="url(#f1i3xgo6vh0ij)" height="150.6875" id="Client" style="stroke:#A80036;stroke-width:1.5;" width="105" x="248" y="7"/><ellipse cx="281.45" cy="23" fill="#ADD1B2" rx="11" ry="11" style="stroke:#A80036;stroke-width:1.0;"/><path d="M283.45,19.5 Q283.6531,19 283.8875,18.75 Q284.1219,18.5 284.3875,18.5 Q284.8563,18.5 285.1531,18.7813 Q285.45,19.0625 285.45,19.7188 L285.45,21.2813 Q285.45,21.9375 285.1688,22.2188 Q284.8875,22.5 284.45,22.5 Q284.0594,22.5 283.8094,22.3281 Q283.5594,22.1563 283.45,21.7031 Q283.4031,21.3906 283.2313,21.2188 Q282.9188,20.8906 282.3563,20.7031 Q281.7938,20.5 281.2313,20.5 Q280.5281,20.5 279.9344,20.7813 Q279.3563,21.0625 278.9031,21.6875 Q278.45,22.3125 278.45,23.1719 L278.45,24.0938 Q278.45,25.125 279.2938,25.8125 Q280.1375,26.5 281.6375,26.5 Q282.5281,26.5 283.1531,26.2969 Q283.5125,26.1875 283.9188,25.8281 Q284.1844,25.625 284.325,25.5625 Q284.4656,25.5 284.6375,25.5 Q284.9656,25.5 285.2,25.7656 Q285.45,26.0156 285.45,26.375 Q285.45,26.7188 285.1063,27.125 Q284.6063,27.7188 283.8094,28.0469 Q282.7625,28.5 281.4813,28.5 Q279.9813,28.5 278.7781,27.9063 Q277.8094,27.4375 277.1219,26.4219 Q276.45,25.4063 276.45,24.2031 L276.45,23.1094 Q276.45,21.8594 277.0438,20.7656 Q277.6531,19.6719 278.7,19.0938 Q279.7625,18.5 280.95,18.5 Q281.6688,18.5 282.2938,18.75 Q282.9188,19 283.45,19.5 Z " fill="#000000"/><text fill="#000000" font-family="sans-serif" font-size="12" lengthAdjust="spacing" textLength="32" x="299.55" y="27.9102">Client</text><line style="stroke:#A80036;stroke-width:1.5;" x1="249" x2="352" y1="39" y2="39"/><text fill="#000000" font-family="sans-serif" font-size="11" lengthAdjust="spacing" textLength="30" x="254" y="54.4189">-name</text><text fill="#000000" font-family="sans-serif" font-size="11" lengthAdjust="spacing" textLength="93" x="254" y="68.2549">-citizencardnumber</text><text fill="#000000" font-family="sans-serif" font-size="11" lengthAdjust="spacing" textLength="22" x="254" y="82.0908">-nhs</text><text fill="#000000" font-family="sans-serif" font-size="11" lengthAdjust="spacing" textLength="25" x="254" y="95.9268">-date</text><text fill="#000000" font-family="sans-serif" font-size="11" lengthAdjust="spacing" textLength="22" x="254" y="109.7627">-sex</text><text fill="#000000" font-family="sans-serif" font-size="11" lengthAdjust="spacing" textLength="15" x="254" y="123.5986">-tin</text><text fill="#000000" font-family="sans-serif" font-size="11" lengthAdjust="spacing" textLength="70" x="254" y="137.4346">-phonenumber</text><text fill="#000000" font-family="sans-serif" font-size="11" lengthAdjust="spacing" textLength="28" x="254" y="151.2705">-email</text><!--MD5=[78bec0fde86ad92ec1dc3fb343b83709]
class Email--><rect codeLine="21" fill="#FEFECE" filter="url(#f1i3xgo6vh0ij)" height="67.6719" id="Email" style="stroke:#A80036;stroke-width:1.5;" width="66" x="475" y="48.5"/><ellipse cx="490.9" cy="64.5" fill="#ADD1B2" rx="11" ry="11" style="stroke:#A80036;stroke-width:1.0;"/><path d="M492.9,61 Q493.1031,60.5 493.3375,60.25 Q493.5719,60 493.8375,60 Q494.3063,60 494.6031,60.2813 Q494.9,60.5625 494.9,61.2188 L494.9,62.7813 Q494.9,63.4375 494.6188,63.7188 Q494.3375,64 493.9,64 Q493.5094,64 493.2594,63.8281 Q493.0094,63.6563 492.9,63.2031 Q492.8531,62.8906 492.6813,62.7188 Q492.3688,62.3906 491.8063,62.2031 Q491.2438,62 490.6813,62 Q489.9781,62 489.3844,62.2813 Q488.8063,62.5625 488.3531,63.1875 Q487.9,63.8125 487.9,64.6719 L487.9,65.5938 Q487.9,66.625 488.7438,67.3125 Q489.5875,68 491.0875,68 Q491.9781,68 492.6031,67.7969 Q492.9625,67.6875 493.3688,67.3281 Q493.6344,67.125 493.775,67.0625 Q493.9156,67 494.0875,67 Q494.4156,67 494.65,67.2656 Q494.9,67.5156 494.9,67.875 Q494.9,68.2188 494.5563,68.625 Q494.0563,69.2188 493.2594,69.5469 Q492.2125,70 490.9313,70 Q489.4313,70 488.2281,69.4063 Q487.2594,68.9375 486.5719,67.9219 Q485.9,66.9063 485.9,65.7031 L485.9,64.6094 Q485.9,63.3594 486.4938,62.2656 Q487.1031,61.1719 488.15,60.5938 Q489.2125,60 490.4,60 Q491.1188,60 491.7438,60.25 Q492.3688,60.5 492.9,61 Z " fill="#000000"/><text fill="#000000" font-family="sans-serif" font-size="12" lengthAdjust="spacing" textLength="32" x="505.1" y="69.4102">Email</text><line style="stroke:#A80036;stroke-width:1.5;" x1="476" x2="540" y1="80.5" y2="80.5"/><text fill="#000000" font-family="sans-serif" font-size="11" lengthAdjust="spacing" textLength="48" x="481" y="95.9189">-message</text><text fill="#000000" font-family="sans-serif" font-size="11" lengthAdjust="spacing" textLength="54" x="481" y="109.7549">-password</text><!--MD5=[7421f545a0d8420c5bec41e74b387d9c]
class Employee--><rect codeLine="26" fill="#FEFECE" filter="url(#f1i3xgo6vh0ij)" height="95.3438" id="Employee" style="stroke:#A80036;stroke-width:1.5;" width="87" x="257" y="193"/><ellipse cx="272" cy="209" fill="#ADD1B2" rx="11" ry="11" style="stroke:#A80036;stroke-width:1.0;"/><path d="M274,205.5 Q274.2031,205 274.4375,204.75 Q274.6719,204.5 274.9375,204.5 Q275.4063,204.5 275.7031,204.7813 Q276,205.0625 276,205.7188 L276,207.2813 Q276,207.9375 275.7188,208.2188 Q275.4375,208.5 275,208.5 Q274.6094,208.5 274.3594,208.3281 Q274.1094,208.1563 274,207.7031 Q273.9531,207.3906 273.7813,207.2188 Q273.4688,206.8906 272.9063,206.7031 Q272.3438,206.5 271.7813,206.5 Q271.0781,206.5 270.4844,206.7813 Q269.9063,207.0625 269.4531,207.6875 Q269,208.3125 269,209.1719 L269,210.0938 Q269,211.125 269.8438,211.8125 Q270.6875,212.5 272.1875,212.5 Q273.0781,212.5 273.7031,212.2969 Q274.0625,212.1875 274.4688,211.8281 Q274.7344,211.625 274.875,211.5625 Q275.0156,211.5 275.1875,211.5 Q275.5156,211.5 275.75,211.7656 Q276,212.0156 276,212.375 Q276,212.7188 275.6563,213.125 Q275.1563,213.7188 274.3594,214.0469 Q273.3125,214.5 272.0313,214.5 Q270.5313,214.5 269.3281,213.9063 Q268.3594,213.4375 267.6719,212.4219 Q267,211.4063 267,210.2031 L267,209.1094 Q267,207.8594 267.5938,206.7656 Q268.2031,205.6719 269.25,205.0938 Q270.3125,204.5 271.5,204.5 Q272.2188,204.5 272.8438,204.75 Q273.4688,205 274,205.5 Z " fill="#000000"/><text fill="#000000" font-family="sans-serif" font-size="12" lengthAdjust="spacing" textLength="55" x="286" y="213.9102">Employee</text><line style="stroke:#A80036;stroke-width:1.5;" x1="258" x2="343" y1="225" y2="225"/><text fill="#000000" font-family="sans-serif" font-size="11" lengthAdjust="spacing" textLength="30" x="263" y="240.4189">-name</text><text fill="#000000" font-family="sans-serif" font-size="11" lengthAdjust="spacing" textLength="43" x="263" y="254.2549">-function</text><text fill="#000000" font-family="sans-serif" font-size="11" lengthAdjust="spacing" textLength="34" x="263" y="268.0908">-phone</text><text fill="#000000" font-family="sans-serif" font-size="11" lengthAdjust="spacing" textLength="28" x="263" y="281.9268">-email</text><!--MD5=[6a35157f4c730bda767e7c9f1b8b7f73]
link Receptionist to Client--><path codeLine="34" d="M95.89,191.49 C136.61,169.69 202.02,134.68 247.68,110.24 " fill="none" id="Receptionist-Client" style="stroke:#A80036;stroke-width:1.0;"/><polygon fill="#000000" points="147.4082,116.3162,138.0467,117.9937,140.8206,123.1758,147.4082,116.3162" style="stroke:#000000;stroke-width:1.0;"/><text fill="#000000" font-family="sans-serif" font-size="13" lengthAdjust="spacing" textLength="65" x="152" y="123.9951">register the</text><text fill="#000000" font-family="sans-serif" font-size="13" lengthAdjust="spacing" textLength="7" x="99.1389" y="180.8088">1</text><text fill="#000000" font-family="sans-serif" font-size="13" lengthAdjust="spacing" textLength="5" x="234.9006" y="128.8077">*</text><!--MD5=[3d4318aa56b2322dc15876394339f951]
link Client to Email--><path codeLine="35" d="M353.09,82.5 C391.37,82.5 442.38,82.5 474.96,82.5 " fill="none" id="Client-Email" style="stroke:#A80036;stroke-width:1.0;"/><polygon fill="#000000" points="393,73.6758,383.9549,70.7369,383.9549,76.6147,393,73.6758" style="stroke:#000000;stroke-width:1.0;"/><text fill="#000000" font-family="sans-serif" font-size="13" lengthAdjust="spacing" textLength="47" x="397" y="78.9951">receives</text><text fill="#000000" font-family="sans-serif" font-size="13" lengthAdjust="spacing" textLength="5" x="360.837" y="97.1668">*</text><text fill="#000000" font-family="sans-serif" font-size="13" lengthAdjust="spacing" textLength="12" x="454.908" y="97.7152">1*</text><!--MD5=[06bb7d2a85a007b79d10922b2d5e4cdd]
link Receptionist to Employee--><path codeLine="36" d="M108.14,217.47 C145.37,221.95 196.59,228.12 236.68,232.94 " fill="none" id="Receptionist-to-Employee" style="stroke:#A80036;stroke-width:1.0;"/><polygon fill="none" points="237.75,226.02,256.77,235.36,236.08,239.92,237.75,226.02" style="stroke:#A80036;stroke-width:1.0;"/><!--MD5=[e60e7da2080ca9b1ee48e90d0e1b3578]
@startuml
hide methods
left to right direction
skinparam classAttributeIconSize 0


class Receptionist {

}

class Client {
  -name
  -citizencardnumber
  -nhs
  -date
  -sex
  -tin
  -phonenumber
  -email
}

class Email {
  -message
  -password
}

class Employee {
  -name
  -function
  -phone
  -email
}


Receptionist "1" - - "*" Client : register the >
Client "*" - - "1*" Email: receives >
Receptionist - -|> Employee


@enduml

PlantUML version 1.2021.5(Sun Apr 25 12:20:28 BST 2021)
(GPL source distribution)
Java Runtime: OpenJDK Runtime Environment
JVM: OpenJDK 64-Bit Server VM
Default Encoding: Cp1252
Language: pt
Country: PT
--></g></svg>