<?xml version="1.0" encoding="UTF-8" standalone="no"?><svg xmlns="http://www.w3.org/2000/svg" xmlns:xlink="http://www.w3.org/1999/xlink" contentScriptType="application/ecmascript" contentStyleType="text/css" height="1268px" preserveAspectRatio="none" style="width:2222px;height:1268px;" version="1.1" viewBox="0 0 2222 1268" width="2222px" zoomAndPan="magnify"><defs><filter height="300%" id="ffig33fd7a3e6" width="300%" x="-1" y="-1"><feGaussianBlur result="blurOut" stdDeviation="2.0"/><feColorMatrix in="blurOut" result="blurOut2" type="matrix" values="0 0 0 0 0 0 0 0 0 0 0 0 0 0 0 0 0 0 .4 0"/><feOffset dx="4.0" dy="4.0" in="blurOut2" result="blurOut3"/><feBlend in="SourceGraphic" in2="blurOut3" mode="normal"/></filter></defs><g><rect fill="#FFFFFF" filter="url(#ffig33fd7a3e6)" height="1065.1406" style="stroke:#A80036;stroke-width:1.0;" width="10" x="44.5" y="99.6094"/><rect fill="#FFFFFF" filter="url(#ffig33fd7a3e6)" height="46.7031" style="stroke:#A80036;stroke-width:1.0;" width="10" x="433.5" y="121.9609"/><rect fill="#FFFFFF" filter="url(#ffig33fd7a3e6)" height="146.0547" style="stroke:#A80036;stroke-width:1.0;" width="10" x="433.5" y="199.0156"/><rect fill="#FFFFFF" filter="url(#ffig33fd7a3e6)" height="490.8672" style="stroke:#A80036;stroke-width:1.0;" width="10" x="433.5" y="375.4219"/><rect fill="#FFFFFF" filter="url(#ffig33fd7a3e6)" height="268.1094" style="stroke:#A80036;stroke-width:1.0;" width="10" x="433.5" y="896.6406"/><rect fill="#FFFFFF" filter="url(#ffig33fd7a3e6)" height="60.3516" style="stroke:#A80036;stroke-width:1.0;" width="10" x="1084.5" y="229.3672"/><rect fill="#FFFFFF" filter="url(#ffig33fd7a3e6)" height="430.1641" style="stroke:#A80036;stroke-width:1.0;" width="10" x="1084.5" y="405.7734"/><rect fill="#FFFFFF" filter="url(#ffig33fd7a3e6)" height="237.7578" style="stroke:#A80036;stroke-width:1.0;" width="10" x="1084.5" y="926.9922"/><rect fill="#FFFFFF" filter="url(#ffig33fd7a3e6)" height="30" style="stroke:#A80036;stroke-width:1.0;" width="10" x="1284" y="436.125"/><rect fill="#FFFFFF" filter="url(#ffig33fd7a3e6)" height="30" style="stroke:#A80036;stroke-width:1.0;" width="10" x="1413" y="259.7188"/><rect fill="#FFFFFF" filter="url(#ffig33fd7a3e6)" height="30" style="stroke:#A80036;stroke-width:1.0;" width="10" x="1413" y="546.8281"/><rect fill="#FFFFFF" filter="url(#ffig33fd7a3e6)" height="71.7031" style="stroke:#A80036;stroke-width:1.0;" width="10" x="1562.5" y="630.5313"/><rect fill="#FFFFFF" filter="url(#ffig33fd7a3e6)" height="30" style="stroke:#A80036;stroke-width:1.0;" width="10" x="1562.5" y="805.9375"/><rect fill="#FFFFFF" filter="url(#ffig33fd7a3e6)" height="139.7031" style="stroke:#A80036;stroke-width:1.0;" width="10" x="1562.5" y="957.3438"/><rect fill="#FFFFFF" filter="url(#ffig33fd7a3e6)" height="28" style="stroke:#A80036;stroke-width:1.0;" width="10" x="1567.5" y="995.6953"/><rect fill="#FFFFFF" filter="url(#ffig33fd7a3e6)" height="28" style="stroke:#A80036;stroke-width:1.0;" width="10" x="1567.5" y="1069.0469"/><rect fill="#FFFFFF" filter="url(#ffig33fd7a3e6)" height="56.3516" style="stroke:#A80036;stroke-width:1.0;" width="10" x="1971.5" y="712.2344"/><rect fill="#FFFFFF" filter="url(#ffig33fd7a3e6)" height="28" style="stroke:#A80036;stroke-width:1.0;" width="10" x="1976.5" y="740.5859"/><rect fill="#FFFFFF" filter="url(#ffig33fd7a3e6)" height="78.7031" style="stroke:#000000;stroke-width:2.0;" width="571" x="933" y="506.125"/><line style="stroke:#A80036;stroke-width:1.0;stroke-dasharray:5.0,5.0;" x1="49" x2="49" y1="89.6094" y2="1182.75"/><line style="stroke:#A80036;stroke-width:1.0;stroke-dasharray:5.0,5.0;" x1="438" x2="438" y1="89.6094" y2="1182.75"/><line style="stroke:#A80036;stroke-width:1.0;stroke-dasharray:5.0,5.0;" x1="1089" x2="1089" y1="89.6094" y2="1182.75"/><line style="stroke:#A80036;stroke-width:1.0;stroke-dasharray:5.0,5.0;" x1="1289" x2="1289" y1="89.6094" y2="1182.75"/><line style="stroke:#A80036;stroke-width:1.0;stroke-dasharray:5.0,5.0;" x1="1418" x2="1418" y1="89.6094" y2="1182.75"/><line style="stroke:#A80036;stroke-width:1.0;stroke-dasharray:5.0,5.0;" x1="1567" x2="1567" y1="89.6094" y2="1182.75"/><line style="stroke:#A80036;stroke-width:1.0;stroke-dasharray:5.0,5.0;" x1="1976.5" x2="1976.5" y1="696.8828" y2="1182.75"/><text fill="#000000" font-family="sans-serif" font-size="14" lengthAdjust="spacing" textLength="83" x="5" y="86.5332">Administrator</text><ellipse cx="49.5" cy="15" fill="#FEFECE" filter="url(#ffig33fd7a3e6)" rx="8" ry="8" style="stroke:#A80036;stroke-width:2.0;"/><path d="M49.5,23 L49.5,50 M36.5,31 L62.5,31 M49.5,50 L36.5,65 M49.5,50 L62.5,65 " fill="none" filter="url(#ffig33fd7a3e6)" style="stroke:#A80036;stroke-width:2.0;"/><text fill="#000000" font-family="sans-serif" font-size="14" lengthAdjust="spacing" textLength="83" x="5" y="1196.2832">Administrator</text><ellipse cx="49.5" cy="1209.3594" fill="#FEFECE" filter="url(#ffig33fd7a3e6)" rx="8" ry="8" style="stroke:#A80036;stroke-width:2.0;"/><path d="M49.5,1217.3594 L49.5,1244.3594 M36.5,1225.3594 L62.5,1225.3594 M49.5,1244.3594 L36.5,1259.3594 M49.5,1244.3594 L62.5,1259.3594 " fill="none" filter="url(#ffig33fd7a3e6)" style="stroke:#A80036;stroke-width:2.0;"/><rect fill="#FEFECE" filter="url(#ffig33fd7a3e6)" height="31.6094" style="stroke:#A80036;stroke-width:1.5;" width="239" x="317" y="53"/><text fill="#000000" font-family="sans-serif" font-size="14" lengthAdjust="spacing" textLength="225" x="324" y="74.5332">:CreateClinicalAnalysisLaboratoryUI</text><rect fill="#FEFECE" filter="url(#ffig33fd7a3e6)" height="31.6094" style="stroke:#A80036;stroke-width:1.5;" width="239" x="317" y="1181.75"/><text fill="#000000" font-family="sans-serif" font-size="14" lengthAdjust="spacing" textLength="225" x="324" y="1203.2832">:CreateClinicalAnalysisLaboratoryUI</text><rect fill="#FEFECE" filter="url(#ffig33fd7a3e6)" height="31.6094" style="stroke:#A80036;stroke-width:1.5;" width="289" x="943" y="53"/><text fill="#000000" font-family="sans-serif" font-size="14" lengthAdjust="spacing" textLength="275" x="950" y="74.5332">:CreateClinicalAnalysisLaboratoryController</text><rect fill="#FEFECE" filter="url(#ffig33fd7a3e6)" height="31.6094" style="stroke:#A80036;stroke-width:1.5;" width="289" x="943" y="1181.75"/><text fill="#000000" font-family="sans-serif" font-size="14" lengthAdjust="spacing" textLength="275" x="950" y="1203.2832">:CreateClinicalAnalysisLaboratoryController</text><rect fill="#FEFECE" filter="url(#ffig33fd7a3e6)" height="31.6094" style="stroke:#A80036;stroke-width:1.5;" width="82" x="1246" y="53"/><text fill="#000000" font-family="sans-serif" font-size="14" lengthAdjust="spacing" textLength="68" x="1253" y="74.5332">: Company</text><rect fill="#FEFECE" filter="url(#ffig33fd7a3e6)" height="31.6094" style="stroke:#A80036;stroke-width:1.5;" width="82" x="1246" y="1181.75"/><text fill="#000000" font-family="sans-serif" font-size="14" lengthAdjust="spacing" textLength="68" x="1253" y="1203.2832">: Company</text><rect fill="#FEFECE" filter="url(#ffig33fd7a3e6)" height="31.6094" style="stroke:#A80036;stroke-width:1.5;" width="148" x="1342" y="53"/><text fill="#000000" font-family="sans-serif" font-size="14" lengthAdjust="spacing" textLength="134" x="1349" y="74.5332">store: TestTypeStore</text><rect fill="#FEFECE" filter="url(#ffig33fd7a3e6)" height="31.6094" style="stroke:#A80036;stroke-width:1.5;" width="148" x="1342" y="1181.75"/><text fill="#000000" font-family="sans-serif" font-size="14" lengthAdjust="spacing" textLength="134" x="1349" y="1203.2832">store: TestTypeStore</text><rect fill="#FEFECE" filter="url(#ffig33fd7a3e6)" height="31.6094" style="stroke:#A80036;stroke-width:1.5;" width="123" x="1504" y="53"/><text fill="#000000" font-family="sans-serif" font-size="14" lengthAdjust="spacing" textLength="109" x="1511" y="74.5332">store: Laboratory</text><rect fill="#FEFECE" filter="url(#ffig33fd7a3e6)" height="31.6094" style="stroke:#A80036;stroke-width:1.5;" width="123" x="1504" y="1181.75"/><text fill="#000000" font-family="sans-serif" font-size="14" lengthAdjust="spacing" textLength="109" x="1511" y="1203.2832">store: Laboratory</text><rect fill="#FEFECE" filter="url(#ffig33fd7a3e6)" height="31.6094" style="stroke:#A80036;stroke-width:1.5;" width="206" x="1871.5" y="1181.75"/><text fill="#000000" font-family="sans-serif" font-size="14" lengthAdjust="spacing" textLength="192" x="1878.5" y="1203.2832">cal: ClinicalAnalysisLaboratory</text><rect fill="#FFFFFF" filter="url(#ffig33fd7a3e6)" height="1065.1406" style="stroke:#A80036;stroke-width:1.0;" width="10" x="44.5" y="99.6094"/><rect fill="#FFFFFF" filter="url(#ffig33fd7a3e6)" height="46.7031" style="stroke:#A80036;stroke-width:1.0;" width="10" x="433.5" y="121.9609"/><rect fill="#FFFFFF" filter="url(#ffig33fd7a3e6)" height="146.0547" style="stroke:#A80036;stroke-width:1.0;" width="10" x="433.5" y="199.0156"/><rect fill="#FFFFFF" filter="url(#ffig33fd7a3e6)" height="490.8672" style="stroke:#A80036;stroke-width:1.0;" width="10" x="433.5" y="375.4219"/><rect fill="#FFFFFF" filter="url(#ffig33fd7a3e6)" height="268.1094" style="stroke:#A80036;stroke-width:1.0;" width="10" x="433.5" y="896.6406"/><rect fill="#FFFFFF" filter="url(#ffig33fd7a3e6)" height="60.3516" style="stroke:#A80036;stroke-width:1.0;" width="10" x="1084.5" y="229.3672"/><rect fill="#FFFFFF" filter="url(#ffig33fd7a3e6)" height="430.1641" style="stroke:#A80036;stroke-width:1.0;" width="10" x="1084.5" y="405.7734"/><rect fill="#FFFFFF" filter="url(#ffig33fd7a3e6)" height="237.7578" style="stroke:#A80036;stroke-width:1.0;" width="10" x="1084.5" y="926.9922"/><rect fill="#FFFFFF" filter="url(#ffig33fd7a3e6)" height="30" style="stroke:#A80036;stroke-width:1.0;" width="10" x="1284" y="436.125"/><rect fill="#FFFFFF" filter="url(#ffig33fd7a3e6)" height="30" style="stroke:#A80036;stroke-width:1.0;" width="10" x="1413" y="259.7188"/><rect fill="#FFFFFF" filter="url(#ffig33fd7a3e6)" height="30" style="stroke:#A80036;stroke-width:1.0;" width="10" x="1413" y="546.8281"/><rect fill="#FFFFFF" filter="url(#ffig33fd7a3e6)" height="71.7031" style="stroke:#A80036;stroke-width:1.0;" width="10" x="1562.5" y="630.5313"/><rect fill="#FFFFFF" filter="url(#ffig33fd7a3e6)" height="30" style="stroke:#A80036;stroke-width:1.0;" width="10" x="1562.5" y="805.9375"/><rect fill="#FFFFFF" filter="url(#ffig33fd7a3e6)" height="139.7031" style="stroke:#A80036;stroke-width:1.0;" width="10" x="1562.5" y="957.3438"/><rect fill="#FFFFFF" filter="url(#ffig33fd7a3e6)" height="28" style="stroke:#A80036;stroke-width:1.0;" width="10" x="1567.5" y="995.6953"/><rect fill="#FFFFFF" filter="url(#ffig33fd7a3e6)" height="28" style="stroke:#A80036;stroke-width:1.0;" width="10" x="1567.5" y="1069.0469"/><rect fill="#FFFFFF" filter="url(#ffig33fd7a3e6)" height="56.3516" style="stroke:#A80036;stroke-width:1.0;" width="10" x="1971.5" y="712.2344"/><rect fill="#FFFFFF" filter="url(#ffig33fd7a3e6)" height="28" style="stroke:#A80036;stroke-width:1.0;" width="10" x="1976.5" y="740.5859"/><polygon fill="#A80036" points="421.5,117.9609,431.5,121.9609,421.5,125.9609,425.5,121.9609" style="stroke:#A80036;stroke-width:1.0;"/><line style="stroke:#A80036;stroke-width:1.0;" x1="54.5" x2="427.5" y1="121.9609" y2="121.9609"/><text fill="#000000" font-family="sans-serif" font-size="13" font-weight="bold" lengthAdjust="spacing" textLength="7" x="61.5" y="117.1045">1</text><text fill="#000000" font-family="sans-serif" font-size="13" lengthAdjust="spacing" textLength="286" x="72.5" y="117.1045">asks to create a new Clinical Analysis Laboratory</text><polygon fill="#A80036" points="65.5,164.6641,55.5,168.6641,65.5,172.6641,61.5,168.6641" style="stroke:#A80036;stroke-width:1.0;"/><line style="stroke:#A80036;stroke-width:1.0;stroke-dasharray:2.0,2.0;" x1="59.5" x2="437.5" y1="168.6641" y2="168.6641"/><text fill="#000000" font-family="sans-serif" font-size="13" font-weight="bold" lengthAdjust="spacing" textLength="7" x="71.5" y="155.6318">2</text><text fill="#000000" font-family="sans-serif" font-size="13" lengthAdjust="spacing" textLength="337" x="82.5" y="147.4561">requests data to create a new Clinical Analysis Laboratory</text><text fill="#000000" font-family="sans-serif" font-size="13" lengthAdjust="spacing" textLength="288" x="86.5" y="163.8076">(name, address, phoneNumber , TIN, laboratoryId)</text><polygon fill="#A80036" points="421.5,195.0156,431.5,199.0156,421.5,203.0156,425.5,199.0156" style="stroke:#A80036;stroke-width:1.0;"/><line style="stroke:#A80036;stroke-width:1.0;" x1="54.5" x2="427.5" y1="199.0156" y2="199.0156"/><text fill="#000000" font-family="sans-serif" font-size="13" font-weight="bold" lengthAdjust="spacing" textLength="7" x="61.5" y="194.1592">3</text><text fill="#000000" font-family="sans-serif" font-size="13" lengthAdjust="spacing" textLength="122" x="72.5" y="194.1592">types requested data</text><polygon fill="#A80036" points="1072.5,225.3672,1082.5,229.3672,1072.5,233.3672,1076.5,229.3672" style="stroke:#A80036;stroke-width:1.0;"/><line style="stroke:#A80036;stroke-width:1.0;" x1="443.5" x2="1078.5" y1="229.3672" y2="229.3672"/><text fill="#000000" font-family="sans-serif" font-size="13" font-weight="bold" lengthAdjust="spacing" textLength="7" x="450.5" y="224.5107">4</text><text fill="#000000" font-family="sans-serif" font-size="13" lengthAdjust="spacing" textLength="97" x="461.5" y="224.5107">lc=getTestType()</text><polygon fill="#A80036" points="1401,255.7188,1411,259.7188,1401,263.7188,1405,259.7188" style="stroke:#A80036;stroke-width:1.0;"/><line style="stroke:#A80036;stroke-width:1.0;" x1="1094.5" x2="1407" y1="259.7188" y2="259.7188"/><text fill="#000000" font-family="sans-serif" font-size="13" font-weight="bold" lengthAdjust="spacing" textLength="7" x="1101.5" y="254.8623">5</text><text fill="#000000" font-family="sans-serif" font-size="13" lengthAdjust="spacing" textLength="97" x="1112.5" y="254.8623">lc=getTestType()</text><polygon fill="#A80036" points="65.5,341.0703,55.5,345.0703,65.5,349.0703,61.5,345.0703" style="stroke:#A80036;stroke-width:1.0;"/><line style="stroke:#A80036;stroke-width:1.0;stroke-dasharray:2.0,2.0;" x1="59.5" x2="437.5" y1="345.0703" y2="345.0703"/><text fill="#000000" font-family="sans-serif" font-size="13" font-weight="bold" lengthAdjust="spacing" textLength="7" x="71.5" y="340.2139">6</text><text fill="#000000" font-family="sans-serif" font-size="13" lengthAdjust="spacing" textLength="344" x="82.5" y="340.2139">shows a TestType list and ask to choose the ones intended</text><polygon fill="#A80036" points="421.5,371.4219,431.5,375.4219,421.5,379.4219,425.5,375.4219" style="stroke:#A80036;stroke-width:1.0;"/><line style="stroke:#A80036;stroke-width:1.0;" x1="54.5" x2="427.5" y1="375.4219" y2="375.4219"/><text fill="#000000" font-family="sans-serif" font-size="13" font-weight="bold" lengthAdjust="spacing" textLength="7" x="61.5" y="370.5654">7</text><text fill="#000000" font-family="sans-serif" font-size="13" lengthAdjust="spacing" textLength="181" x="72.5" y="370.5654">selects the TestTypes intended</text><polygon fill="#A80036" points="1072.5,401.7734,1082.5,405.7734,1072.5,409.7734,1076.5,405.7734" style="stroke:#A80036;stroke-width:1.0;"/><line style="stroke:#A80036;stroke-width:1.0;" x1="443.5" x2="1078.5" y1="405.7734" y2="405.7734"/><text fill="#000000" font-family="sans-serif" font-size="13" font-weight="bold" lengthAdjust="spacing" textLength="7" x="450.5" y="400.917">8</text><text fill="#000000" font-family="sans-serif" font-size="13" lengthAdjust="spacing" textLength="611" x="461.5" y="400.917">createClinicalAnalysisLaboratory(name, address, phoneNumber , TIN, laboratoryId,selectedTestTypesList)</text><polygon fill="#A80036" points="1272,432.125,1282,436.125,1272,440.125,1276,436.125" style="stroke:#A80036;stroke-width:1.0;"/><line style="stroke:#A80036;stroke-width:1.0;" x1="1094.5" x2="1278" y1="436.125" y2="436.125"/><text fill="#000000" font-family="sans-serif" font-size="13" font-weight="bold" lengthAdjust="spacing" textLength="7" x="1101.5" y="431.2686">9</text><text fill="#000000" font-family="sans-serif" font-size="13" lengthAdjust="spacing" textLength="132" x="1112.5" y="431.2686">store = getLaboratory()</text><path d="M933,506.125 L1006,506.125 L1006,514.125 L996,524.125 L933,524.125 L933,506.125 " fill="#EEEEEE" style="stroke:#000000;stroke-width:1.0;"/><rect fill="none" height="78.7031" style="stroke:#000000;stroke-width:2.0;" width="571" x="933" y="506.125"/><text fill="#000000" font-family="sans-serif" font-size="13" font-weight="bold" lengthAdjust="spacing" textLength="28" x="948" y="520.6201">loop</text><polygon fill="#A80036" points="1401,542.8281,1411,546.8281,1401,550.8281,1405,546.8281" style="stroke:#A80036;stroke-width:1.0;"/><line style="stroke:#A80036;stroke-width:1.0;" x1="1094.5" x2="1407" y1="546.8281" y2="546.8281"/><text fill="#000000" font-family="sans-serif" font-size="13" font-weight="bold" lengthAdjust="spacing" textLength="14" x="1101.5" y="541.9717">10</text><text fill="#000000" font-family="sans-serif" font-size="13" lengthAdjust="spacing" textLength="261" x="1119.5" y="541.9717">selectedTestTypesList=getTestTypebyCode()</text><polygon fill="#A80036" points="1550.5,626.5313,1560.5,630.5313,1550.5,634.5313,1554.5,630.5313" style="stroke:#A80036;stroke-width:1.0;"/><line style="stroke:#A80036;stroke-width:1.0;" x1="1094.5" x2="1556.5" y1="630.5313" y2="630.5313"/><text fill="#000000" font-family="sans-serif" font-size="13" font-weight="bold" lengthAdjust="spacing" textLength="14" x="1101.5" y="617.499">11</text><text fill="#000000" font-family="sans-serif" font-size="13" lengthAdjust="spacing" textLength="222" x="1119.5" y="609.3232">cal = createClinicalAnalysisLaboratory</text><text fill="#000000" font-family="sans-serif" font-size="13" lengthAdjust="spacing" textLength="422" x="1119.5" y="625.6748">(name, address, phoneNumber , TIN, laboratoryId,selectedTestTypesList)</text><polygon fill="#A80036" points="1859.5,698.2344,1869.5,702.2344,1859.5,706.2344,1863.5,702.2344" style="stroke:#A80036;stroke-width:1.0;"/><line style="stroke:#A80036;stroke-width:1.0;" x1="1567.5" x2="1865.5" y1="702.2344" y2="702.2344"/><text fill="#000000" font-family="sans-serif" font-size="13" font-weight="bold" lengthAdjust="spacing" textLength="14" x="1574.5" y="689.2021">12</text><text fill="#000000" font-family="sans-serif" font-size="13" lengthAdjust="spacing" textLength="257" x="1592.5" y="681.0264">create (name, address, phoneNumber , TIN ,</text><text fill="#000000" font-family="sans-serif" font-size="13" lengthAdjust="spacing" textLength="205" x="1596.5" y="697.3779">laboratoryId,selectedTestTypesList)</text><rect fill="#FEFECE" filter="url(#ffig33fd7a3e6)" height="31.6094" style="stroke:#A80036;stroke-width:1.5;" width="206" x="1871.5" y="663.625"/><text fill="#000000" font-family="sans-serif" font-size="14" lengthAdjust="spacing" textLength="192" x="1878.5" y="685.1582">cal: ClinicalAnalysisLaboratory</text><line style="stroke:#A80036;stroke-width:1.0;" x1="1986.5" x2="2028.5" y1="732.5859" y2="732.5859"/><line style="stroke:#A80036;stroke-width:1.0;" x1="2028.5" x2="2028.5" y1="732.5859" y2="745.5859"/><line style="stroke:#A80036;stroke-width:1.0;" x1="1987.5" x2="2028.5" y1="745.5859" y2="745.5859"/><polygon fill="#A80036" points="1997.5,741.5859,1987.5,745.5859,1997.5,749.5859,1993.5,745.5859" style="stroke:#A80036;stroke-width:1.0;"/><text fill="#000000" font-family="sans-serif" font-size="13" font-weight="bold" lengthAdjust="spacing" textLength="14" x="1993.5" y="727.7295">13</text><text fill="#000000" font-family="sans-serif" font-size="13" lengthAdjust="spacing" textLength="204" x="2011.5" y="727.7295">validateClinicalAnalysisLaboratory()</text><polygon fill="#A80036" points="1550.5,801.9375,1560.5,805.9375,1550.5,809.9375,1554.5,805.9375" style="stroke:#A80036;stroke-width:1.0;"/><line style="stroke:#A80036;stroke-width:1.0;" x1="1094.5" x2="1556.5" y1="805.9375" y2="805.9375"/><text fill="#000000" font-family="sans-serif" font-size="13" font-weight="bold" lengthAdjust="spacing" textLength="14" x="1101.5" y="801.0811">14</text><text fill="#000000" font-family="sans-serif" font-size="13" lengthAdjust="spacing" textLength="221" x="1119.5" y="801.0811">validateClinicalAnalysisLaboratory(cal)</text><polygon fill="#A80036" points="65.5,862.2891,55.5,866.2891,65.5,870.2891,61.5,866.2891" style="stroke:#A80036;stroke-width:1.0;"/><line style="stroke:#A80036;stroke-width:1.0;stroke-dasharray:2.0,2.0;" x1="59.5" x2="437.5" y1="866.2891" y2="866.2891"/><text fill="#000000" font-family="sans-serif" font-size="13" font-weight="bold" lengthAdjust="spacing" textLength="14" x="71.5" y="861.4326">15</text><text fill="#000000" font-family="sans-serif" font-size="13" lengthAdjust="spacing" textLength="236" x="89.5" y="861.4326">shows all data and requests confirmation</text><polygon fill="#A80036" points="421.5,892.6406,431.5,896.6406,421.5,900.6406,425.5,896.6406" style="stroke:#A80036;stroke-width:1.0;"/><line style="stroke:#A80036;stroke-width:1.0;" x1="54.5" x2="427.5" y1="896.6406" y2="896.6406"/><text fill="#000000" font-family="sans-serif" font-size="13" font-weight="bold" lengthAdjust="spacing" textLength="14" x="61.5" y="891.7842">16</text><text fill="#000000" font-family="sans-serif" font-size="13" lengthAdjust="spacing" textLength="100" x="79.5" y="891.7842">confirms the data</text><polygon fill="#A80036" points="1072.5,922.9922,1082.5,926.9922,1072.5,930.9922,1076.5,926.9922" style="stroke:#A80036;stroke-width:1.0;"/><line style="stroke:#A80036;stroke-width:1.0;" x1="443.5" x2="1078.5" y1="926.9922" y2="926.9922"/><text fill="#000000" font-family="sans-serif" font-size="13" font-weight="bold" lengthAdjust="spacing" textLength="14" x="450.5" y="922.1357">17</text><text fill="#000000" font-family="sans-serif" font-size="13" lengthAdjust="spacing" textLength="187" x="468.5" y="922.1357">saveClinicalAnalysisLaboratory()</text><polygon fill="#A80036" points="1550.5,953.3438,1560.5,957.3438,1550.5,961.3438,1554.5,957.3438" style="stroke:#A80036;stroke-width:1.0;"/><line style="stroke:#A80036;stroke-width:1.0;" x1="1094.5" x2="1556.5" y1="957.3438" y2="957.3438"/><text fill="#000000" font-family="sans-serif" font-size="13" font-weight="bold" lengthAdjust="spacing" textLength="14" x="1101.5" y="952.4873">18</text><text fill="#000000" font-family="sans-serif" font-size="13" lengthAdjust="spacing" textLength="204" x="1119.5" y="952.4873">saveClinicalAnalysisLaboratory(cal)</text><line style="stroke:#A80036;stroke-width:1.0;" x1="1577.5" x2="1619.5" y1="987.6953" y2="987.6953"/><line style="stroke:#A80036;stroke-width:1.0;" x1="1619.5" x2="1619.5" y1="987.6953" y2="1000.6953"/><line style="stroke:#A80036;stroke-width:1.0;" x1="1578.5" x2="1619.5" y1="1000.6953" y2="1000.6953"/><polygon fill="#A80036" points="1588.5,996.6953,1578.5,1000.6953,1588.5,1004.6953,1584.5,1000.6953" style="stroke:#A80036;stroke-width:1.0;"/><text fill="#000000" font-family="sans-serif" font-size="13" font-weight="bold" lengthAdjust="spacing" textLength="14" x="1584.5" y="982.8389">19</text><text fill="#000000" font-family="sans-serif" font-size="13" lengthAdjust="spacing" textLength="221" x="1602.5" y="982.8389">validateClinicalAnalysisLaboratory(cal)</text><line style="stroke:#A80036;stroke-width:1.0;" x1="1577.5" x2="1619.5" y1="1061.0469" y2="1061.0469"/><line style="stroke:#A80036;stroke-width:1.0;" x1="1619.5" x2="1619.5" y1="1061.0469" y2="1074.0469"/><line style="stroke:#A80036;stroke-width:1.0;" x1="1578.5" x2="1619.5" y1="1074.0469" y2="1074.0469"/><polygon fill="#A80036" points="1588.5,1070.0469,1578.5,1074.0469,1588.5,1078.0469,1584.5,1074.0469" style="stroke:#A80036;stroke-width:1.0;"/><text fill="#000000" font-family="sans-serif" font-size="13" font-weight="bold" lengthAdjust="spacing" textLength="14" x="1584.5" y="1056.1904">20</text><text fill="#000000" font-family="sans-serif" font-size="13" lengthAdjust="spacing" textLength="199" x="1602.5" y="1056.1904">addClinicalAnalysisLaboratory(cal)</text><polygon fill="#A80036" points="454.5,1130.3984,444.5,1134.3984,454.5,1138.3984,450.5,1134.3984" style="stroke:#A80036;stroke-width:1.0;"/><line style="stroke:#A80036;stroke-width:1.0;stroke-dasharray:2.0,2.0;" x1="448.5" x2="1083.5" y1="1134.3984" y2="1134.3984"/><text fill="#000000" font-family="sans-serif" font-size="13" font-weight="bold" lengthAdjust="spacing" textLength="14" x="460.5" y="1129.542">21</text><text fill="#000000" font-family="sans-serif" font-size="13" lengthAdjust="spacing" textLength="32" x="478.5" y="1129.542">result</text><polygon fill="#A80036" points="60.5,1160.75,50.5,1164.75,60.5,1168.75,56.5,1164.75" style="stroke:#A80036;stroke-width:1.0;"/><line style="stroke:#A80036;stroke-width:1.0;stroke-dasharray:2.0,2.0;" x1="54.5" x2="437.5" y1="1164.75" y2="1164.75"/><text fill="#000000" font-family="sans-serif" font-size="13" font-weight="bold" lengthAdjust="spacing" textLength="14" x="66.5" y="1159.8936">22</text><text fill="#000000" font-family="sans-serif" font-size="13" lengthAdjust="spacing" textLength="152" x="84.5" y="1159.8936">informs operation success</text><!--MD5=[f00a7f4630800d37eda8163ee80fc525]
@startuml
autonumber
actor "Administrator" as ADM

participant ":CreateClinicalAnalysisLaboratoryUI" as UI
participant ":CreateClinicalAnalysisLaboratoryController" as CTRL
participant ": Company" as Comp
participant "store: TestTypeStore" as TTS
participant "store: Laboratory" as LAB
participant "cal: ClinicalAnalysisLaboratory" as CAL

activate ADM
ADM -> UI : asks to create a new Clinical Analysis Laboratory
activate UI
UI - -> ADM : requests data to create a new Clinical Analysis Laboratory \n (name, address, phoneNumber , TIN, laboratoryId)
deactivate UI

ADM -> UI : types requested data
activate UI

UI -> CTRL : lc=getTestType()
activate CTRL

CTRL -> TTS : lc=getTestType()
activate TTS
|||
deactivate TTS
deactivate CTRL

UI - -> ADM : shows a TestType list and ask to choose the ones intended
deactivate UI

ADM -> UI : selects the TestTypes intended
activate UI

UI -> CTRL : createClinicalAnalysisLaboratory(name, address, phoneNumber , TIN, laboratoryId,selectedTestTypesList)
activate CTRL

CTRL -> Comp : store = getLaboratory()
activate Comp
|||
deactivate Comp

loop
CTRL -> TTS : selectedTestTypesList=getTestTypebyCode()
activate TTS
deactivate TTS
end

CTRL -> LAB: cal = createClinicalAnalysisLaboratory\n(name, address, phoneNumber , TIN, laboratoryId,selectedTestTypesList)
activate LAB
|||
LAB -> CAL**: create (name, address, phoneNumber , TIN ,\n laboratoryId,selectedTestTypesList)
deactivate LAB

activate CAL
CAL -> CAL: validateClinicalAnalysisLaboratory()
activate CAL
deactivate CAL
deactivate CAL


CTRL -> LAB : validateClinicalAnalysisLaboratory(cal)
activate LAB
deactivate LAB
deactivate CTRL

UI - -> ADM: shows all data and requests confirmation
deactivate CTRL
deactivate UI

ADM -> UI : confirms the data
activate UI
UI -> CTRL : saveClinicalAnalysisLaboratory()
activate CTRL

CTRL -> LAB : saveClinicalAnalysisLaboratory(cal)
activate LAB

LAB -> LAB: validateClinicalAnalysisLaboratory(cal)
activate LAB
deactivate LAB
LAB -> LAB: addClinicalAnalysisLaboratory(cal)
activate LAB
deactivate LAB
deactivate LAB

CTRL - -> UI : result

UI - -> ADM : informs operation success
deactivate CTRL
deactivate UI

deactivate ADM

@enduml

PlantUML version 1.2021.00(Sun Jan 10 10:25:05 GMT 2021)
(GPL source distribution)
Java Runtime: OpenJDK Runtime Environment
JVM: OpenJDK 64-Bit Server VM
Default Encoding: Cp1252
Language: pt
Country: PT
--></g></svg>