<?xml version="1.0" encoding="UTF-8" standalone="no"?><svg xmlns="http://www.w3.org/2000/svg" xmlns:xlink="http://www.w3.org/1999/xlink" contentScriptType="application/ecmascript" contentStyleType="text/css" height="498px" preserveAspectRatio="none" style="width:513px;height:498px;" version="1.1" viewBox="0 0 513 498" width="513px" zoomAndPan="magnify"><defs><filter height="300%" id="f4mdeobwn2vmw" width="300%" x="-1" y="-1"><feGaussianBlur result="blurOut" stdDeviation="2.0"/><feColorMatrix in="blurOut" result="blurOut2" type="matrix" values="0 0 0 0 0 0 0 0 0 0 0 0 0 0 0 0 0 0 .4 0"/><feOffset dx="4.0" dy="4.0" in="blurOut2" result="blurOut3"/><feBlend in="SourceGraphic" in2="blurOut3" mode="normal"/></filter></defs><g><rect fill="#FFFFFF" filter="url(#f4mdeobwn2vmw)" height="295.5156" style="stroke:#A80036;stroke-width:1.0;" width="10" x="44.5" y="99.6094"/><rect fill="#FFFFFF" filter="url(#f4mdeobwn2vmw)" height="30.3516" style="stroke:#A80036;stroke-width:1.0;" width="10" x="464.5" y="121.9609"/><rect fill="#FFFFFF" filter="url(#f4mdeobwn2vmw)" height="30.3516" style="stroke:#A80036;stroke-width:1.0;" width="10" x="464.5" y="182.6641"/><rect fill="#FFFFFF" filter="url(#f4mdeobwn2vmw)" height="30.3516" style="stroke:#A80036;stroke-width:1.0;" width="10" x="464.5" y="243.3672"/><rect fill="#FFFFFF" filter="url(#f4mdeobwn2vmw)" height="30.3516" style="stroke:#A80036;stroke-width:1.0;" width="10" x="464.5" y="304.0703"/><rect fill="#FFFFFF" filter="url(#f4mdeobwn2vmw)" height="30.3516" style="stroke:#A80036;stroke-width:1.0;" width="10" x="464.5" y="364.7734"/><line style="stroke:#A80036;stroke-width:1.0;stroke-dasharray:5.0,5.0;" x1="49" x2="49" y1="89.6094" y2="413.125"/><line style="stroke:#A80036;stroke-width:1.0;stroke-dasharray:5.0,5.0;" x1="469.5" x2="469.5" y1="89.6094" y2="413.125"/><text fill="#000000" font-family="sans-serif" font-size="14" lengthAdjust="spacing" textLength="83" x="5" y="86.5332">Administrator</text><ellipse cx="49.5" cy="15" fill="#FEFECE" filter="url(#f4mdeobwn2vmw)" rx="8" ry="8" style="stroke:#A80036;stroke-width:2.0;"/><path d="M49.5,23 L49.5,50 M36.5,31 L62.5,31 M49.5,50 L36.5,65 M49.5,50 L62.5,65 " fill="none" filter="url(#f4mdeobwn2vmw)" style="stroke:#A80036;stroke-width:2.0;"/><text fill="#000000" font-family="sans-serif" font-size="14" lengthAdjust="spacing" textLength="83" x="5" y="426.6582">Administrator</text><ellipse cx="49.5" cy="439.7344" fill="#FEFECE" filter="url(#f4mdeobwn2vmw)" rx="8" ry="8" style="stroke:#A80036;stroke-width:2.0;"/><path d="M49.5,447.7344 L49.5,474.7344 M36.5,455.7344 L62.5,455.7344 M49.5,474.7344 L36.5,489.7344 M49.5,474.7344 L62.5,489.7344 " fill="none" filter="url(#f4mdeobwn2vmw)" style="stroke:#A80036;stroke-width:2.0;"/><rect fill="#FEFECE" filter="url(#f4mdeobwn2vmw)" height="31.6094" style="stroke:#A80036;stroke-width:1.5;" width="64" x="435.5" y="53"/><text fill="#000000" font-family="sans-serif" font-size="14" lengthAdjust="spacing" textLength="50" x="442.5" y="74.5332">:System</text><rect fill="#FEFECE" filter="url(#f4mdeobwn2vmw)" height="31.6094" style="stroke:#A80036;stroke-width:1.5;" width="64" x="435.5" y="412.125"/><text fill="#000000" font-family="sans-serif" font-size="14" lengthAdjust="spacing" textLength="50" x="442.5" y="433.6582">:System</text><rect fill="#FFFFFF" filter="url(#f4mdeobwn2vmw)" height="295.5156" style="stroke:#A80036;stroke-width:1.0;" width="10" x="44.5" y="99.6094"/><rect fill="#FFFFFF" filter="url(#f4mdeobwn2vmw)" height="30.3516" style="stroke:#A80036;stroke-width:1.0;" width="10" x="464.5" y="121.9609"/><rect fill="#FFFFFF" filter="url(#f4mdeobwn2vmw)" height="30.3516" style="stroke:#A80036;stroke-width:1.0;" width="10" x="464.5" y="182.6641"/><rect fill="#FFFFFF" filter="url(#f4mdeobwn2vmw)" height="30.3516" style="stroke:#A80036;stroke-width:1.0;" width="10" x="464.5" y="243.3672"/><rect fill="#FFFFFF" filter="url(#f4mdeobwn2vmw)" height="30.3516" style="stroke:#A80036;stroke-width:1.0;" width="10" x="464.5" y="304.0703"/><rect fill="#FFFFFF" filter="url(#f4mdeobwn2vmw)" height="30.3516" style="stroke:#A80036;stroke-width:1.0;" width="10" x="464.5" y="364.7734"/><polygon fill="#A80036" points="452.5,117.9609,462.5,121.9609,452.5,125.9609,456.5,121.9609" style="stroke:#A80036;stroke-width:1.0;"/><line style="stroke:#A80036;stroke-width:1.0;" x1="54.5" x2="458.5" y1="121.9609" y2="121.9609"/><text fill="#000000" font-family="sans-serif" font-size="13" font-weight="bold" lengthAdjust="spacing" textLength="7" x="61.5" y="117.1045">1</text><text fill="#000000" font-family="sans-serif" font-size="13" lengthAdjust="spacing" textLength="286" x="72.5" y="117.1045">asks to create a new Clinical Analysis Laboratory</text><polygon fill="#A80036" points="65.5,148.3125,55.5,152.3125,65.5,156.3125,61.5,152.3125" style="stroke:#A80036;stroke-width:1.0;"/><line style="stroke:#A80036;stroke-width:1.0;stroke-dasharray:2.0,2.0;" x1="59.5" x2="468.5" y1="152.3125" y2="152.3125"/><text fill="#000000" font-family="sans-serif" font-size="13" font-weight="bold" lengthAdjust="spacing" textLength="7" x="71.5" y="147.4561">2</text><text fill="#000000" font-family="sans-serif" font-size="13" lengthAdjust="spacing" textLength="375" x="82.5" y="147.4561">requests data (name, address, phoneNumber , TIN, laboratoryId )</text><polygon fill="#A80036" points="452.5,178.6641,462.5,182.6641,452.5,186.6641,456.5,182.6641" style="stroke:#A80036;stroke-width:1.0;"/><line style="stroke:#A80036;stroke-width:1.0;" x1="54.5" x2="458.5" y1="182.6641" y2="182.6641"/><text fill="#000000" font-family="sans-serif" font-size="13" font-weight="bold" lengthAdjust="spacing" textLength="7" x="61.5" y="177.8076">3</text><text fill="#000000" font-family="sans-serif" font-size="13" lengthAdjust="spacing" textLength="122" x="72.5" y="177.8076">types requested data</text><polygon fill="#A80036" points="65.5,209.0156,55.5,213.0156,65.5,217.0156,61.5,213.0156" style="stroke:#A80036;stroke-width:1.0;"/><line style="stroke:#A80036;stroke-width:1.0;stroke-dasharray:2.0,2.0;" x1="59.5" x2="468.5" y1="213.0156" y2="213.0156"/><text fill="#000000" font-family="sans-serif" font-size="13" font-weight="bold" lengthAdjust="spacing" textLength="7" x="71.5" y="208.1592">4</text><text fill="#000000" font-family="sans-serif" font-size="13" lengthAdjust="spacing" textLength="219" x="82.5" y="208.1592">shows data and requests confirmation</text><polygon fill="#A80036" points="452.5,239.3672,462.5,243.3672,452.5,247.3672,456.5,243.3672" style="stroke:#A80036;stroke-width:1.0;"/><line style="stroke:#A80036;stroke-width:1.0;" x1="54.5" x2="458.5" y1="243.3672" y2="243.3672"/><text fill="#000000" font-family="sans-serif" font-size="13" font-weight="bold" lengthAdjust="spacing" textLength="7" x="61.5" y="238.5107">5</text><text fill="#000000" font-family="sans-serif" font-size="13" lengthAdjust="spacing" textLength="100" x="72.5" y="238.5107">confirms the data</text><polygon fill="#A80036" points="65.5,269.7188,55.5,273.7188,65.5,277.7188,61.5,273.7188" style="stroke:#A80036;stroke-width:1.0;"/><line style="stroke:#A80036;stroke-width:1.0;stroke-dasharray:2.0,2.0;" x1="59.5" x2="468.5" y1="273.7188" y2="273.7188"/><text fill="#000000" font-family="sans-serif" font-size="13" font-weight="bold" lengthAdjust="spacing" textLength="7" x="71.5" y="268.8623">6</text><text fill="#000000" font-family="sans-serif" font-size="13" lengthAdjust="spacing" textLength="137" x="82.5" y="268.8623">request data (TestType)</text><polygon fill="#A80036" points="452.5,300.0703,462.5,304.0703,452.5,308.0703,456.5,304.0703" style="stroke:#A80036;stroke-width:1.0;"/><line style="stroke:#A80036;stroke-width:1.0;" x1="54.5" x2="458.5" y1="304.0703" y2="304.0703"/><text fill="#000000" font-family="sans-serif" font-size="13" font-weight="bold" lengthAdjust="spacing" textLength="7" x="61.5" y="299.2139">7</text><text fill="#000000" font-family="sans-serif" font-size="13" lengthAdjust="spacing" textLength="147" x="72.5" y="299.2139">select the requested data</text><polygon fill="#A80036" points="65.5,330.4219,55.5,334.4219,65.5,338.4219,61.5,334.4219" style="stroke:#A80036;stroke-width:1.0;"/><line style="stroke:#A80036;stroke-width:1.0;stroke-dasharray:2.0,2.0;" x1="59.5" x2="468.5" y1="334.4219" y2="334.4219"/><text fill="#000000" font-family="sans-serif" font-size="13" font-weight="bold" lengthAdjust="spacing" textLength="7" x="71.5" y="329.5654">8</text><text fill="#000000" font-family="sans-serif" font-size="13" lengthAdjust="spacing" textLength="219" x="82.5" y="329.5654">shows data and requests confirmation</text><polygon fill="#A80036" points="452.5,360.7734,462.5,364.7734,452.5,368.7734,456.5,364.7734" style="stroke:#A80036;stroke-width:1.0;"/><line style="stroke:#A80036;stroke-width:1.0;" x1="54.5" x2="458.5" y1="364.7734" y2="364.7734"/><text fill="#000000" font-family="sans-serif" font-size="13" font-weight="bold" lengthAdjust="spacing" textLength="7" x="61.5" y="359.917">9</text><text fill="#000000" font-family="sans-serif" font-size="13" lengthAdjust="spacing" textLength="100" x="72.5" y="359.917">confirms the data</text><polygon fill="#A80036" points="60.5,391.125,50.5,395.125,60.5,399.125,56.5,395.125" style="stroke:#A80036;stroke-width:1.0;"/><line style="stroke:#A80036;stroke-width:1.0;stroke-dasharray:2.0,2.0;" x1="54.5" x2="468.5" y1="395.125" y2="395.125"/><text fill="#000000" font-family="sans-serif" font-size="13" font-weight="bold" lengthAdjust="spacing" textLength="14" x="66.5" y="390.2686">10</text><text fill="#000000" font-family="sans-serif" font-size="13" lengthAdjust="spacing" textLength="174" x="84.5" y="390.2686">informs the operation success</text><!--MD5=[6b7a63b3f4a02c75f30d2333b69cfcbd]
@startuml
autonumber
actor "Administrator" as Adm

activate Adm
Adm -> ":System" : asks to create a new Clinical Analysis Laboratory
activate ":System"
":System" - -> Adm : requests data (name, address, phoneNumber , TIN, laboratoryId )

deactivate ":System"

Adm -> ":System" : types requested data
activate ":System"
":System" - -> Adm : shows data and requests confirmation
deactivate ":System"

Adm -> ":System" : confirms the data
activate ":System"
":System" - -> Adm : request data (TestType)
deactivate ":System"

Adm -> ":System" : select the requested data
activate ":System"
":System" - -> Adm : shows data and requests confirmation
deactivate ":System"



Adm -> ":System" : confirms the data
activate ":System"
":System" - -> Adm : informs the operation success
deactivate ":System"

deactivate Adm

@enduml

PlantUML version 1.2021.00(Sun Jan 10 10:25:05 GMT 2021)
(GPL source distribution)
Java Runtime: OpenJDK Runtime Environment
JVM: OpenJDK 64-Bit Server VM
Default Encoding: Cp1252
Language: pt
Country: PT
--></g></svg>