<?xml version="1.0" encoding="UTF-8" standalone="no"?><svg xmlns="http://www.w3.org/2000/svg" xmlns:xlink="http://www.w3.org/1999/xlink" contentScriptType="application/ecmascript" contentStyleType="text/css" height="326px" preserveAspectRatio="none" style="width:828px;height:326px;" version="1.1" viewBox="0 0 828 326" width="828px" zoomAndPan="magnify"><defs><filter height="300%" id="f1x66e6q6ec8m7" width="300%" x="-1" y="-1"><feGaussianBlur result="blurOut" stdDeviation="2.0"/><feColorMatrix in="blurOut" result="blurOut2" type="matrix" values="0 0 0 0 0 0 0 0 0 0 0 0 0 0 0 0 0 0 .4 0"/><feOffset dx="4.0" dy="4.0" in="blurOut2" result="blurOut3"/><feBlend in="SourceGraphic" in2="blurOut3" mode="normal"/></filter></defs><g><!--MD5=[02e4b9b7573f1156f41e60aa5b4e25a4]
class Company--><rect codeLine="7" fill="#FEFECE" filter="url(#f1x66e6q6ec8m7)" height="109.1797" id="Company" style="stroke:#A80036;stroke-width:1.5;" width="85" x="338" y="82.5"/><ellipse cx="353" cy="98.5" fill="#ADD1B2" rx="11" ry="11" style="stroke:#A80036;stroke-width:1.0;"/><path d="M355,95 Q355.2031,94.5 355.4375,94.25 Q355.6719,94 355.9375,94 Q356.4063,94 356.7031,94.2813 Q357,94.5625 357,95.2188 L357,96.7813 Q357,97.4375 356.7188,97.7188 Q356.4375,98 356,98 Q355.6094,98 355.3594,97.8281 Q355.1094,97.6563 355,97.2031 Q354.9531,96.8906 354.7813,96.7188 Q354.4688,96.3906 353.9063,96.2031 Q353.3438,96 352.7813,96 Q352.0781,96 351.4844,96.2813 Q350.9063,96.5625 350.4531,97.1875 Q350,97.8125 350,98.6719 L350,99.5938 Q350,100.625 350.8438,101.3125 Q351.6875,102 353.1875,102 Q354.0781,102 354.7031,101.7969 Q355.0625,101.6875 355.4688,101.3281 Q355.7344,101.125 355.875,101.0625 Q356.0156,101 356.1875,101 Q356.5156,101 356.75,101.2656 Q357,101.5156 357,101.875 Q357,102.2188 356.6563,102.625 Q356.1563,103.2188 355.3594,103.5469 Q354.3125,104 353.0313,104 Q351.5313,104 350.3281,103.4063 Q349.3594,102.9375 348.6719,101.9219 Q348,100.9063 348,99.7031 L348,98.6094 Q348,97.3594 348.5938,96.2656 Q349.2031,95.1719 350.25,94.5938 Q351.3125,94 352.5,94 Q353.2188,94 353.8438,94.25 Q354.4688,94.5 355,95 Z " fill="#000000"/><text fill="#000000" font-family="sans-serif" font-size="12" lengthAdjust="spacing" textLength="53" x="367" y="103.4102">Company</text><line style="stroke:#A80036;stroke-width:1.5;" x1="339" x2="422" y1="114.5" y2="114.5"/><text fill="#000000" font-family="sans-serif" font-size="11" lengthAdjust="spacing" textLength="30" x="344" y="129.9189">-name</text><text fill="#000000" font-family="sans-serif" font-size="11" lengthAdjust="spacing" textLength="59" x="344" y="143.7549">-designation</text><text fill="#000000" font-family="sans-serif" font-size="11" lengthAdjust="spacing" textLength="47" x="344" y="157.5908">-category</text><text fill="#000000" font-family="sans-serif" font-size="11" lengthAdjust="spacing" textLength="44" x="344" y="171.4268">-address</text><text fill="#000000" font-family="sans-serif" font-size="11" lengthAdjust="spacing" textLength="69" x="344" y="185.2627">-headquarters</text><!--MD5=[0caf3a413731a0de34fc6162fe213ed9]
class Laboratory--><rect codeLine="15" fill="#FEFECE" filter="url(#f1x66e6q6ec8m7)" height="95.3438" id="Laboratory" style="stroke:#A80036;stroke-width:1.5;" width="90" x="721" y="89.5"/><ellipse cx="736" cy="105.5" fill="#ADD1B2" rx="11" ry="11" style="stroke:#A80036;stroke-width:1.0;"/><path d="M738,102 Q738.2031,101.5 738.4375,101.25 Q738.6719,101 738.9375,101 Q739.4063,101 739.7031,101.2813 Q740,101.5625 740,102.2188 L740,103.7813 Q740,104.4375 739.7188,104.7188 Q739.4375,105 739,105 Q738.6094,105 738.3594,104.8281 Q738.1094,104.6563 738,104.2031 Q737.9531,103.8906 737.7813,103.7188 Q737.4688,103.3906 736.9063,103.2031 Q736.3438,103 735.7813,103 Q735.0781,103 734.4844,103.2813 Q733.9063,103.5625 733.4531,104.1875 Q733,104.8125 733,105.6719 L733,106.5938 Q733,107.625 733.8438,108.3125 Q734.6875,109 736.1875,109 Q737.0781,109 737.7031,108.7969 Q738.0625,108.6875 738.4688,108.3281 Q738.7344,108.125 738.875,108.0625 Q739.0156,108 739.1875,108 Q739.5156,108 739.75,108.2656 Q740,108.5156 740,108.875 Q740,109.2188 739.6563,109.625 Q739.1563,110.2188 738.3594,110.5469 Q737.3125,111 736.0313,111 Q734.5313,111 733.3281,110.4063 Q732.3594,109.9375 731.6719,108.9219 Q731,107.9063 731,106.7031 L731,105.6094 Q731,104.3594 731.5938,103.2656 Q732.2031,102.1719 733.25,101.5938 Q734.3125,101 735.5,101 Q736.2188,101 736.8438,101.25 Q737.4688,101.5 738,102 Z " fill="#000000"/><text fill="#000000" font-family="sans-serif" font-size="12" lengthAdjust="spacing" textLength="58" x="750" y="110.4102">Laboratory</text><line style="stroke:#A80036;stroke-width:1.5;" x1="722" x2="810" y1="121.5" y2="121.5"/><text fill="#000000" font-family="sans-serif" font-size="11" lengthAdjust="spacing" textLength="30" x="727" y="136.9189">-name</text><text fill="#000000" font-family="sans-serif" font-size="11" lengthAdjust="spacing" textLength="44" x="727" y="150.7549">-address</text><text fill="#000000" font-family="sans-serif" font-size="11" lengthAdjust="spacing" textLength="71" x="727" y="164.5908">-phoneNumber</text><text fill="#000000" font-family="sans-serif" font-size="11" lengthAdjust="spacing" textLength="15" x="727" y="178.4268">-tin</text><!--MD5=[1934a092c0e7d4da7dc7075b6f4b6b03]
class ClinicalAnalysisLaboratory--><rect codeLine="22" fill="#FEFECE" filter="url(#f1x66e6q6ec8m7)" height="53.8359" id="ClinicalAnalysisLaboratory" style="stroke:#A80036;stroke-width:1.5;" width="177" x="292" y="239"/><ellipse cx="307" cy="255" fill="#ADD1B2" rx="11" ry="11" style="stroke:#A80036;stroke-width:1.0;"/><path d="M309,251.5 Q309.2031,251 309.4375,250.75 Q309.6719,250.5 309.9375,250.5 Q310.4063,250.5 310.7031,250.7813 Q311,251.0625 311,251.7188 L311,253.2813 Q311,253.9375 310.7188,254.2188 Q310.4375,254.5 310,254.5 Q309.6094,254.5 309.3594,254.3281 Q309.1094,254.1563 309,253.7031 Q308.9531,253.3906 308.7813,253.2188 Q308.4688,252.8906 307.9063,252.7031 Q307.3438,252.5 306.7813,252.5 Q306.0781,252.5 305.4844,252.7813 Q304.9063,253.0625 304.4531,253.6875 Q304,254.3125 304,255.1719 L304,256.0938 Q304,257.125 304.8438,257.8125 Q305.6875,258.5 307.1875,258.5 Q308.0781,258.5 308.7031,258.2969 Q309.0625,258.1875 309.4688,257.8281 Q309.7344,257.625 309.875,257.5625 Q310.0156,257.5 310.1875,257.5 Q310.5156,257.5 310.75,257.7656 Q311,258.0156 311,258.375 Q311,258.7188 310.6563,259.125 Q310.1563,259.7188 309.3594,260.0469 Q308.3125,260.5 307.0313,260.5 Q305.5313,260.5 304.3281,259.9063 Q303.3594,259.4375 302.6719,258.4219 Q302,257.4063 302,256.2031 L302,255.1094 Q302,253.8594 302.5938,252.7656 Q303.2031,251.6719 304.25,251.0938 Q305.3125,250.5 306.5,250.5 Q307.2188,250.5 307.8438,250.75 Q308.4688,251 309,251.5 Z " fill="#000000"/><text fill="#000000" font-family="sans-serif" font-size="12" lengthAdjust="spacing" textLength="145" x="321" y="259.9102">ClinicalAnalysisLaboratory</text><line style="stroke:#A80036;stroke-width:1.5;" x1="293" x2="468" y1="271" y2="271"/><text fill="#000000" font-family="sans-serif" font-size="11" lengthAdjust="spacing" textLength="61" x="298" y="286.4189">-laboratoryId</text><!--MD5=[aeb3272166074d8737a70b61b1e71682]
class TestType--><rect codeLine="26" fill="#FEFECE" filter="url(#f1x66e6q6ec8m7)" height="67.6719" id="TestType" style="stroke:#A80036;stroke-width:1.5;" width="96" x="718" y="245"/><ellipse cx="739.3" cy="261" fill="#ADD1B2" rx="11" ry="11" style="stroke:#A80036;stroke-width:1.0;"/><path d="M741.3,257.5 Q741.5031,257 741.7375,256.75 Q741.9719,256.5 742.2375,256.5 Q742.7063,256.5 743.0031,256.7813 Q743.3,257.0625 743.3,257.7188 L743.3,259.2813 Q743.3,259.9375 743.0188,260.2188 Q742.7375,260.5 742.3,260.5 Q741.9094,260.5 741.6594,260.3281 Q741.4094,260.1563 741.3,259.7031 Q741.2531,259.3906 741.0813,259.2188 Q740.7688,258.8906 740.2063,258.7031 Q739.6438,258.5 739.0813,258.5 Q738.3781,258.5 737.7844,258.7813 Q737.2063,259.0625 736.7531,259.6875 Q736.3,260.3125 736.3,261.1719 L736.3,262.0938 Q736.3,263.125 737.1438,263.8125 Q737.9875,264.5 739.4875,264.5 Q740.3781,264.5 741.0031,264.2969 Q741.3625,264.1875 741.7688,263.8281 Q742.0344,263.625 742.175,263.5625 Q742.3156,263.5 742.4875,263.5 Q742.8156,263.5 743.05,263.7656 Q743.3,264.0156 743.3,264.375 Q743.3,264.7188 742.9563,265.125 Q742.4563,265.7188 741.6594,266.0469 Q740.6125,266.5 739.3313,266.5 Q737.8313,266.5 736.6281,265.9063 Q735.6594,265.4375 734.9719,264.4219 Q734.3,263.4063 734.3,262.2031 L734.3,261.1094 Q734.3,259.8594 734.8938,258.7656 Q735.5031,257.6719 736.55,257.0938 Q737.6125,256.5 738.8,256.5 Q739.5188,256.5 740.1438,256.75 Q740.7688,257 741.3,257.5 Z " fill="#000000"/><text fill="#000000" font-family="sans-serif" font-size="12" lengthAdjust="spacing" textLength="50" x="754.7" y="265.9102">TestType</text><line style="stroke:#A80036;stroke-width:1.5;" x1="719" x2="813" y1="277" y2="277"/><text fill="#000000" font-family="sans-serif" font-size="11" lengthAdjust="spacing" textLength="59" x="724" y="292.4189">-designation</text><text fill="#000000" font-family="sans-serif" font-size="11" lengthAdjust="spacing" textLength="84" x="724" y="306.2549">-collectingMethod</text><!--MD5=[a64badb107d3691f2dc6af242cdbeb21]
class ChemicalLaboratory--><rect codeLine="31" fill="#FEFECE" filter="url(#f1x66e6q6ec8m7)" height="40" id="ChemicalLaboratory" style="stroke:#A80036;stroke-width:1.5;" width="143" x="309" y="7"/><ellipse cx="324" cy="23" fill="#ADD1B2" rx="11" ry="11" style="stroke:#A80036;stroke-width:1.0;"/><path d="M326,19.5 Q326.2031,19 326.4375,18.75 Q326.6719,18.5 326.9375,18.5 Q327.4063,18.5 327.7031,18.7813 Q328,19.0625 328,19.7188 L328,21.2813 Q328,21.9375 327.7188,22.2188 Q327.4375,22.5 327,22.5 Q326.6094,22.5 326.3594,22.3281 Q326.1094,22.1563 326,21.7031 Q325.9531,21.3906 325.7813,21.2188 Q325.4688,20.8906 324.9063,20.7031 Q324.3438,20.5 323.7813,20.5 Q323.0781,20.5 322.4844,20.7813 Q321.9063,21.0625 321.4531,21.6875 Q321,22.3125 321,23.1719 L321,24.0938 Q321,25.125 321.8438,25.8125 Q322.6875,26.5 324.1875,26.5 Q325.0781,26.5 325.7031,26.2969 Q326.0625,26.1875 326.4688,25.8281 Q326.7344,25.625 326.875,25.5625 Q327.0156,25.5 327.1875,25.5 Q327.5156,25.5 327.75,25.7656 Q328,26.0156 328,26.375 Q328,26.7188 327.6563,27.125 Q327.1563,27.7188 326.3594,28.0469 Q325.3125,28.5 324.0313,28.5 Q322.5313,28.5 321.3281,27.9063 Q320.3594,27.4375 319.6719,26.4219 Q319,25.4063 319,24.2031 L319,23.1094 Q319,21.8594 319.5938,20.7656 Q320.2031,19.6719 321.25,19.0938 Q322.3125,18.5 323.5,18.5 Q324.2188,18.5 324.8438,18.75 Q325.4688,19 326,19.5 Z " fill="#000000"/><text fill="#000000" font-family="sans-serif" font-size="12" lengthAdjust="spacing" textLength="111" x="338" y="27.9102">ChemicalLaboratory</text><line style="stroke:#A80036;stroke-width:1.5;" x1="310" x2="451" y1="39" y2="39"/><!--MD5=[da547346deef918ea16944ba046651ef]
class Administrator--><rect codeLine="35" fill="#FEFECE" filter="url(#f1x66e6q6ec8m7)" height="40" id="Administrator" style="stroke:#A80036;stroke-width:1.5;" width="105" x="7" y="246"/><ellipse cx="22" cy="262" fill="#ADD1B2" rx="11" ry="11" style="stroke:#A80036;stroke-width:1.0;"/><path d="M24,258.5 Q24.2031,258 24.4375,257.75 Q24.6719,257.5 24.9375,257.5 Q25.4063,257.5 25.7031,257.7813 Q26,258.0625 26,258.7188 L26,260.2813 Q26,260.9375 25.7188,261.2188 Q25.4375,261.5 25,261.5 Q24.6094,261.5 24.3594,261.3281 Q24.1094,261.1563 24,260.7031 Q23.9531,260.3906 23.7813,260.2188 Q23.4688,259.8906 22.9063,259.7031 Q22.3438,259.5 21.7813,259.5 Q21.0781,259.5 20.4844,259.7813 Q19.9063,260.0625 19.4531,260.6875 Q19,261.3125 19,262.1719 L19,263.0938 Q19,264.125 19.8438,264.8125 Q20.6875,265.5 22.1875,265.5 Q23.0781,265.5 23.7031,265.2969 Q24.0625,265.1875 24.4688,264.8281 Q24.7344,264.625 24.875,264.5625 Q25.0156,264.5 25.1875,264.5 Q25.5156,264.5 25.75,264.7656 Q26,265.0156 26,265.375 Q26,265.7188 25.6563,266.125 Q25.1563,266.7188 24.3594,267.0469 Q23.3125,267.5 22.0313,267.5 Q20.5313,267.5 19.3281,266.9063 Q18.3594,266.4375 17.6719,265.4219 Q17,264.4063 17,263.2031 L17,262.1094 Q17,260.8594 17.5938,259.7656 Q18.2031,258.6719 19.25,258.0938 Q20.3125,257.5 21.5,257.5 Q22.2188,257.5 22.8438,257.75 Q23.4688,258 24,258.5 Z " fill="#000000"/><text fill="#000000" font-family="sans-serif" font-size="12" lengthAdjust="spacing" textLength="73" x="36" y="266.9102">Administrator</text><line style="stroke:#A80036;stroke-width:1.5;" x1="8" x2="111" y1="278" y2="278"/><!--MD5=[b921f878c1b19577ef94d929b3e93a58]
link Company to Laboratory--><path codeLine="39" d="M423.27,137 C496.26,137 646.35,137 720.93,137 " fill="none" id="Company-Laboratory" style="stroke:#A80036;stroke-width:1.0;"/><polygon fill="#000000" points="581,128.1758,571.9549,125.2369,571.9549,131.1147,581,128.1758" style="stroke:#000000;stroke-width:1.0;"/><text fill="#000000" font-family="sans-serif" font-size="13" lengthAdjust="spacing" textLength="30" x="585" y="133.4951">owns</text><text fill="#000000" font-family="sans-serif" font-size="13" lengthAdjust="spacing" textLength="7" x="430.9335" y="151.8344">1</text><text fill="#000000" font-family="sans-serif" font-size="13" lengthAdjust="spacing" textLength="20" x="692.8416" y="151.6707">1..*</text><!--MD5=[6d0dfcacb99e5b6ea3de933623cb0bd1]
link ClinicalAnalysisLaboratory to Laboratory--><path codeLine="40" d="M461.89,238.96 C533.25,214.95 636.1,180.36 701.74,158.28 " fill="none" id="ClinicalAnalysisLaboratory-to-Laboratory" style="stroke:#A80036;stroke-width:1.0;"/><polygon fill="none" points="699.65,151.6,720.84,151.86,704.11,164.87,699.65,151.6" style="stroke:#A80036;stroke-width:1.0;"/><!--MD5=[2eb961b30663a01bbfd8b4b9b8950031]
link ClinicalAnalysisLaboratory to TestType--><path codeLine="41" d="M469,268.97 C546.26,271.59 655.97,275.3 717.83,277.4 " fill="none" id="ClinicalAnalysisLaboratory-TestType" style="stroke:#A80036;stroke-width:1.0;"/><polygon fill="#000000" points="570.9971,263.3451,562.0567,260.1016,561.8577,265.9761,570.9971,263.3451" style="stroke:#000000;stroke-width:1.0;"/><text fill="#000000" font-family="sans-serif" font-size="13" lengthAdjust="spacing" textLength="50" x="575" y="268.4951">performs</text><text fill="#000000" font-family="sans-serif" font-size="13" lengthAdjust="spacing" textLength="20" x="476.8492" y="283.3598">1..*</text><text fill="#000000" font-family="sans-serif" font-size="13" lengthAdjust="spacing" textLength="5" x="705.0712" y="291.9272">*</text><!--MD5=[23b8a99c177c2cd6d714b2cbaa81b3c4]
link Administrator to ClinicalAnalysisLaboratory--><path codeLine="42" d="M112.11,266 C160.6,266 234.14,266 291.83,266 " fill="none" id="Administrator-ClinicalAnalysisLaboratory" style="stroke:#A80036;stroke-width:1.0;"/><polygon fill="#000000" points="183,257.1758,173.9549,254.2369,173.9549,260.1147,183,257.1758" style="stroke:#000000;stroke-width:1.0;"/><text fill="#000000" font-family="sans-serif" font-size="13" lengthAdjust="spacing" textLength="43" x="187" y="262.4951">creates</text><text fill="#000000" font-family="sans-serif" font-size="13" lengthAdjust="spacing" textLength="7" x="120.0005" y="280.6448">1</text><text fill="#000000" font-family="sans-serif" font-size="13" lengthAdjust="spacing" textLength="20" x="263.9672" y="280.1532">1..*</text><!--MD5=[ca241da2d6b7ba1ad04f00d8baddcc83]
link ChemicalLaboratory to Laboratory--><path codeLine="43" d="M452.14,45.11 C514.48,61.39 607.66,86.45 688,111 C692.41,112.35 696.96,113.78 701.52,115.24 " fill="none" id="ChemicalLaboratory-to-Laboratory" style="stroke:#A80036;stroke-width:1.0;"/><polygon fill="none" points="703.95,108.67,720.76,121.57,699.57,121.97,703.95,108.67" style="stroke:#A80036;stroke-width:1.0;"/><!--MD5=[3a9786b8340a69e3f7d6eb4d9e6d113c]
@startuml
hide methods
left to right direction
skinparam classAttributeIconSize 0



class Company{
-name
-designation
-category
-address
-headquarters
}

class Laboratory {
  -name
  -address
  -phoneNumber
  -tin
}

class ClinicalAnalysisLaboratory {
  -laboratoryId
}

class TestType{
-designation
-collectingMethod
}

class ChemicalLaboratory{

}

class Administrator {

}

Company "1"- - - - "1..*" Laboratory : owns >
ClinicalAnalysisLaboratory - - - -|> Laboratory
ClinicalAnalysisLaboratory "1..*"- - - -"*" TestType : performs >
Administrator "1"- - -"1..*"ClinicalAnalysisLaboratory : creates >
ChemicalLaboratory - - - -|> Laboratory



@enduml

PlantUML version 1.2021.00(Sun Jan 10 10:25:05 GMT 2021)
(GPL source distribution)
Java Runtime: OpenJDK Runtime Environment
JVM: OpenJDK 64-Bit Server VM
Default Encoding: Cp1252
Language: pt
Country: PT
--></g></svg>