<?xml version="1.0" encoding="UTF-8" standalone="no"?><svg xmlns="http://www.w3.org/2000/svg" xmlns:xlink="http://www.w3.org/1999/xlink" contentScriptType="application/ecmascript" contentStyleType="text/css" height="774px" preserveAspectRatio="none" style="width:374px;height:774px;" version="1.1" viewBox="0 0 374 774" width="374px" zoomAndPan="magnify"><defs><filter height="300%" id="ftescfz0azkaz" width="300%" x="-1" y="-1"><feGaussianBlur result="blurOut" stdDeviation="2.0"/><feColorMatrix in="blurOut" result="blurOut2" type="matrix" values="0 0 0 0 0 0 0 0 0 0 0 0 0 0 0 0 0 0 .4 0"/><feOffset dx="4.0" dy="4.0" in="blurOut2" result="blurOut3"/><feBlend in="SourceGraphic" in2="blurOut3" mode="normal"/></filter></defs><g><!--MD5=[37309ab6e23351c4730a79161d180b75]
class CreateClinicalAnalysisLaboratoryUI--><rect codeLine="3" fill="#FEFECE" filter="url(#ftescfz0azkaz)" height="48" id="CreateClinicalAnalysisLaboratoryUI" style="stroke:#A80036;stroke-width:1.5;" width="226" x="70.5" y="7"/><ellipse cx="85.5" cy="23" fill="#ADD1B2" rx="11" ry="11" style="stroke:#A80036;stroke-width:1.0;"/><path d="M87.5,19.5 Q87.7031,19 87.9375,18.75 Q88.1719,18.5 88.4375,18.5 Q88.9063,18.5 89.2031,18.7813 Q89.5,19.0625 89.5,19.7188 L89.5,21.2813 Q89.5,21.9375 89.2188,22.2188 Q88.9375,22.5 88.5,22.5 Q88.1094,22.5 87.8594,22.3281 Q87.6094,22.1563 87.5,21.7031 Q87.4531,21.3906 87.2813,21.2188 Q86.9688,20.8906 86.4063,20.7031 Q85.8438,20.5 85.2813,20.5 Q84.5781,20.5 83.9844,20.7813 Q83.4063,21.0625 82.9531,21.6875 Q82.5,22.3125 82.5,23.1719 L82.5,24.0938 Q82.5,25.125 83.3438,25.8125 Q84.1875,26.5 85.6875,26.5 Q86.5781,26.5 87.2031,26.2969 Q87.5625,26.1875 87.9688,25.8281 Q88.2344,25.625 88.375,25.5625 Q88.5156,25.5 88.6875,25.5 Q89.0156,25.5 89.25,25.7656 Q89.5,26.0156 89.5,26.375 Q89.5,26.7188 89.1563,27.125 Q88.6563,27.7188 87.8594,28.0469 Q86.8125,28.5 85.5313,28.5 Q84.0313,28.5 82.8281,27.9063 Q81.8594,27.4375 81.1719,26.4219 Q80.5,25.4063 80.5,24.2031 L80.5,23.1094 Q80.5,21.8594 81.0938,20.7656 Q81.7031,19.6719 82.75,19.0938 Q83.8125,18.5 85,18.5 Q85.7188,18.5 86.3438,18.75 Q86.9688,19 87.5,19.5 Z " fill="#000000"/><text fill="#000000" font-family="sans-serif" font-size="12" lengthAdjust="spacing" textLength="194" x="99.5" y="27.9102">CreateClinicalAnalysisLaboratoryUI</text><line style="stroke:#A80036;stroke-width:1.5;" x1="71.5" x2="295.5" y1="39" y2="39"/><line style="stroke:#A80036;stroke-width:1.5;" x1="71.5" x2="295.5" y1="47" y2="47"/><!--MD5=[25ee8cb021a059750cba86b6e371f7ec]
class CreateClinicalAnalysisLaboratoryController--><rect codeLine="6" fill="#FEFECE" filter="url(#ftescfz0azkaz)" height="103.3438" id="CreateClinicalAnalysisLaboratoryController" style="stroke:#A80036;stroke-width:1.5;" width="353" x="7" y="116"/><ellipse cx="61.25" cy="132" fill="#ADD1B2" rx="11" ry="11" style="stroke:#A80036;stroke-width:1.0;"/><path d="M63.25,128.5 Q63.4531,128 63.6875,127.75 Q63.9219,127.5 64.1875,127.5 Q64.6563,127.5 64.9531,127.7813 Q65.25,128.0625 65.25,128.7188 L65.25,130.2813 Q65.25,130.9375 64.9688,131.2188 Q64.6875,131.5 64.25,131.5 Q63.8594,131.5 63.6094,131.3281 Q63.3594,131.1563 63.25,130.7031 Q63.2031,130.3906 63.0313,130.2188 Q62.7188,129.8906 62.1563,129.7031 Q61.5938,129.5 61.0313,129.5 Q60.3281,129.5 59.7344,129.7813 Q59.1563,130.0625 58.7031,130.6875 Q58.25,131.3125 58.25,132.1719 L58.25,133.0938 Q58.25,134.125 59.0938,134.8125 Q59.9375,135.5 61.4375,135.5 Q62.3281,135.5 62.9531,135.2969 Q63.3125,135.1875 63.7188,134.8281 Q63.9844,134.625 64.125,134.5625 Q64.2656,134.5 64.4375,134.5 Q64.7656,134.5 65,134.7656 Q65.25,135.0156 65.25,135.375 Q65.25,135.7188 64.9063,136.125 Q64.4063,136.7188 63.6094,137.0469 Q62.5625,137.5 61.2813,137.5 Q59.7813,137.5 58.5781,136.9063 Q57.6094,136.4375 56.9219,135.4219 Q56.25,134.4063 56.25,133.2031 L56.25,132.1094 Q56.25,130.8594 56.8438,129.7656 Q57.4531,128.6719 58.5,128.0938 Q59.5625,127.5 60.75,127.5 Q61.4688,127.5 62.0938,127.75 Q62.7188,128 63.25,128.5 Z " fill="#000000"/><text fill="#000000" font-family="sans-serif" font-size="12" lengthAdjust="spacing" textLength="236" x="81.75" y="136.9102">CreateClinicalAnalysisLaboratoryController</text><line style="stroke:#A80036;stroke-width:1.5;" x1="8" x2="359" y1="148" y2="148"/><line style="stroke:#A80036;stroke-width:1.5;" x1="8" x2="359" y1="156" y2="156"/><text fill="#000000" font-family="sans-serif" font-size="11" lengthAdjust="spacing" textLength="341" x="13" y="171.4189">+createClinicalAnalysisLaboratory(name, address, phoneNumber , TIN,</text><text fill="#000000" font-family="sans-serif" font-size="11" lengthAdjust="spacing" textLength="173" x="16" y="185.2549">laboratoryId,selectedTestTypesList)</text><text fill="#000000" font-family="sans-serif" font-size="11" lengthAdjust="spacing" textLength="166" x="13" y="199.0908">+saveClinicalAnalysisLaboratory()</text><text fill="#000000" font-family="sans-serif" font-size="11" lengthAdjust="spacing" textLength="74" x="13" y="212.9268">+getTestType()</text><!--MD5=[02e4b9b7573f1156f41e60aa5b4e25a4]
class Company--><rect codeLine="12" fill="#FEFECE" filter="url(#ftescfz0azkaz)" height="61.8359" id="Company" style="stroke:#A80036;stroke-width:1.5;" width="94" x="61.5" y="280"/><ellipse cx="80.55" cy="296" fill="#ADD1B2" rx="11" ry="11" style="stroke:#A80036;stroke-width:1.0;"/><path d="M82.55,292.5 Q82.7531,292 82.9875,291.75 Q83.2219,291.5 83.4875,291.5 Q83.9563,291.5 84.2531,291.7813 Q84.55,292.0625 84.55,292.7188 L84.55,294.2813 Q84.55,294.9375 84.2688,295.2188 Q83.9875,295.5 83.55,295.5 Q83.1594,295.5 82.9094,295.3281 Q82.6594,295.1563 82.55,294.7031 Q82.5031,294.3906 82.3313,294.2188 Q82.0188,293.8906 81.4563,293.7031 Q80.8938,293.5 80.3313,293.5 Q79.6281,293.5 79.0344,293.7813 Q78.4563,294.0625 78.0031,294.6875 Q77.55,295.3125 77.55,296.1719 L77.55,297.0938 Q77.55,298.125 78.3938,298.8125 Q79.2375,299.5 80.7375,299.5 Q81.6281,299.5 82.2531,299.2969 Q82.6125,299.1875 83.0188,298.8281 Q83.2844,298.625 83.425,298.5625 Q83.5656,298.5 83.7375,298.5 Q84.0656,298.5 84.3,298.7656 Q84.55,299.0156 84.55,299.375 Q84.55,299.7188 84.2063,300.125 Q83.7063,300.7188 82.9094,301.0469 Q81.8625,301.5 80.5813,301.5 Q79.0813,301.5 77.8781,300.9063 Q76.9094,300.4375 76.2219,299.4219 Q75.55,298.4063 75.55,297.2031 L75.55,296.1094 Q75.55,294.8594 76.1438,293.7656 Q76.7531,292.6719 77.8,292.0938 Q78.8625,291.5 80.05,291.5 Q80.7688,291.5 81.3938,291.75 Q82.0188,292 82.55,292.5 Z " fill="#000000"/><text fill="#000000" font-family="sans-serif" font-size="12" lengthAdjust="spacing" textLength="53" x="95.45" y="300.9102">Company</text><line style="stroke:#A80036;stroke-width:1.5;" x1="62.5" x2="154.5" y1="312" y2="312"/><line style="stroke:#A80036;stroke-width:1.5;" x1="62.5" x2="154.5" y1="320" y2="320"/><text fill="#000000" font-family="sans-serif" font-size="11" lengthAdjust="spacing" textLength="82" x="67.5" y="335.4189">+getLaboratory()</text><!--MD5=[1934a092c0e7d4da7dc7075b6f4b6b03]
class ClinicalAnalysisLaboratory--><rect codeLine="17" fill="#FEFECE" filter="url(#ftescfz0azkaz)" height="89.5078" id="ClinicalAnalysisLaboratory" style="stroke:#A80036;stroke-width:1.5;" width="231" x="43" y="671"/><ellipse cx="82.3" cy="687" fill="#ADD1B2" rx="11" ry="11" style="stroke:#A80036;stroke-width:1.0;"/><path d="M84.3,683.5 Q84.5031,683 84.7375,682.75 Q84.9719,682.5 85.2375,682.5 Q85.7063,682.5 86.0031,682.7813 Q86.3,683.0625 86.3,683.7188 L86.3,685.2813 Q86.3,685.9375 86.0188,686.2188 Q85.7375,686.5 85.3,686.5 Q84.9094,686.5 84.6594,686.3281 Q84.4094,686.1563 84.3,685.7031 Q84.2531,685.3906 84.0813,685.2188 Q83.7688,684.8906 83.2063,684.7031 Q82.6438,684.5 82.0813,684.5 Q81.3781,684.5 80.7844,684.7813 Q80.2063,685.0625 79.7531,685.6875 Q79.3,686.3125 79.3,687.1719 L79.3,688.0938 Q79.3,689.125 80.1438,689.8125 Q80.9875,690.5 82.4875,690.5 Q83.3781,690.5 84.0031,690.2969 Q84.3625,690.1875 84.7688,689.8281 Q85.0344,689.625 85.175,689.5625 Q85.3156,689.5 85.4875,689.5 Q85.8156,689.5 86.05,689.7656 Q86.3,690.0156 86.3,690.375 Q86.3,690.7188 85.9563,691.125 Q85.4563,691.7188 84.6594,692.0469 Q83.6125,692.5 82.3313,692.5 Q80.8313,692.5 79.6281,691.9063 Q78.6594,691.4375 77.9719,690.4219 Q77.3,689.4063 77.3,688.2031 L77.3,687.1094 Q77.3,685.8594 77.8938,684.7656 Q78.5031,683.6719 79.55,683.0938 Q80.6125,682.5 81.8,682.5 Q82.5188,682.5 83.1438,682.75 Q83.7688,683 84.3,683.5 Z " fill="#000000"/><text fill="#000000" font-family="sans-serif" font-size="12" lengthAdjust="spacing" textLength="145" x="101.7" y="691.9102">ClinicalAnalysisLaboratory</text><line style="stroke:#A80036;stroke-width:1.5;" x1="44" x2="273" y1="703" y2="703"/><text fill="#000000" font-family="sans-serif" font-size="11" lengthAdjust="spacing" textLength="92" x="49" y="718.4189">-String laboratoryId</text><line style="stroke:#A80036;stroke-width:1.5;" x1="44" x2="273" y1="724.8359" y2="724.8359"/><text fill="#000000" font-family="sans-serif" font-size="11" lengthAdjust="spacing" textLength="219" x="49" y="740.2549">+create (name, address, phoneNumber , TIN ,</text><text fill="#000000" font-family="sans-serif" font-size="11" lengthAdjust="spacing" textLength="173" x="49" y="754.0908">laboratoryId,selectedTestTypesList)</text><!--MD5=[0caf3a413731a0de34fc6162fe213ed9]
class Laboratory--><rect codeLine="24" fill="#FEFECE" filter="url(#ftescfz0azkaz)" height="172.5234" id="Laboratory" style="stroke:#A80036;stroke-width:1.5;" width="231" x="43" y="420"/><ellipse cx="125.25" cy="436" fill="#ADD1B2" rx="11" ry="11" style="stroke:#A80036;stroke-width:1.0;"/><path d="M127.25,432.5 Q127.4531,432 127.6875,431.75 Q127.9219,431.5 128.1875,431.5 Q128.6563,431.5 128.9531,431.7813 Q129.25,432.0625 129.25,432.7188 L129.25,434.2813 Q129.25,434.9375 128.9688,435.2188 Q128.6875,435.5 128.25,435.5 Q127.8594,435.5 127.6094,435.3281 Q127.3594,435.1563 127.25,434.7031 Q127.2031,434.3906 127.0313,434.2188 Q126.7188,433.8906 126.1563,433.7031 Q125.5938,433.5 125.0313,433.5 Q124.3281,433.5 123.7344,433.7813 Q123.1563,434.0625 122.7031,434.6875 Q122.25,435.3125 122.25,436.1719 L122.25,437.0938 Q122.25,438.125 123.0938,438.8125 Q123.9375,439.5 125.4375,439.5 Q126.3281,439.5 126.9531,439.2969 Q127.3125,439.1875 127.7188,438.8281 Q127.9844,438.625 128.125,438.5625 Q128.2656,438.5 128.4375,438.5 Q128.7656,438.5 129,438.7656 Q129.25,439.0156 129.25,439.375 Q129.25,439.7188 128.9063,440.125 Q128.4063,440.7188 127.6094,441.0469 Q126.5625,441.5 125.2813,441.5 Q123.7813,441.5 122.5781,440.9063 Q121.6094,440.4375 120.9219,439.4219 Q120.25,438.4063 120.25,437.2031 L120.25,436.1094 Q120.25,434.8594 120.8438,433.7656 Q121.4531,432.6719 122.5,432.0938 Q123.5625,431.5 124.75,431.5 Q125.4688,431.5 126.0938,431.75 Q126.7188,432 127.25,432.5 Z " fill="#000000"/><text fill="#000000" font-family="sans-serif" font-size="12" lengthAdjust="spacing" textLength="58" x="145.75" y="440.9102">Laboratory</text><line style="stroke:#A80036;stroke-width:1.5;" x1="44" x2="273" y1="452" y2="452"/><text fill="#000000" font-family="sans-serif" font-size="11" lengthAdjust="spacing" textLength="61" x="49" y="467.4189">-String name</text><text fill="#000000" font-family="sans-serif" font-size="11" lengthAdjust="spacing" textLength="75" x="49" y="481.2549">-String address</text><text fill="#000000" font-family="sans-serif" font-size="11" lengthAdjust="spacing" textLength="85" x="49" y="495.0908">-int phoneNumber</text><text fill="#000000" font-family="sans-serif" font-size="11" lengthAdjust="spacing" textLength="29" x="49" y="508.9268">-int tin</text><line style="stroke:#A80036;stroke-width:1.5;" x1="44" x2="273" y1="515.3438" y2="515.3438"/><text fill="#000000" font-family="sans-serif" font-size="11" lengthAdjust="spacing" textLength="219" x="49" y="530.7627">+create (name, address, phoneNumber , TIN ,</text><text fill="#000000" font-family="sans-serif" font-size="11" lengthAdjust="spacing" textLength="173" x="52" y="544.5986">laboratoryId,selectedTestTypesList)</text><text fill="#000000" font-family="sans-serif" font-size="11" lengthAdjust="spacing" textLength="193" x="49" y="558.4346">+validateClinicalAnalysisLaboratory(cal)</text><text fill="#000000" font-family="sans-serif" font-size="11" lengthAdjust="spacing" textLength="174" x="49" y="572.2705">+addClinicalAnalysisLaboratory(cal)</text><text fill="#000000" font-family="sans-serif" font-size="11" lengthAdjust="spacing" textLength="180" x="49" y="586.1064">+saveClinicalAnalysisLaboratory(cal)</text><!--MD5=[7f27f858498b73faf6020cfd30bff5b2]
link CreateClinicalAnalysisLaboratoryUI to CreateClinicalAnalysisLaboratoryController--><path codeLine="40" d="M183.5,55.12 C183.5,70.36 183.5,91.02 183.5,110.4 " fill="none" id="CreateClinicalAnalysisLaboratoryUI-to-CreateClinicalAnalysisLaboratoryController" style="stroke:#A80036;stroke-width:1.0;stroke-dasharray:7.0,7.0;"/><polygon fill="#A80036" points="183.5,115.83,187.5,106.83,183.5,110.83,179.5,106.83,183.5,115.83" style="stroke:#A80036;stroke-width:1.0;"/><!--MD5=[a9680a0d2232c0a37b6721baa8733a0b]
link CreateClinicalAnalysisLaboratoryController to Company--><path codeLine="41" d="M156.64,219.19 C146.8,237.74 135.9,258.31 126.96,275.17 " fill="none" id="CreateClinicalAnalysisLaboratoryController-to-Company" style="stroke:#A80036;stroke-width:1.0;stroke-dasharray:7.0,7.0;"/><polygon fill="#A80036" points="124.5,279.82,132.2443,273.7352,126.8381,275.4004,125.1729,269.9942,124.5,279.82" style="stroke:#A80036;stroke-width:1.0;"/><!--MD5=[47dd30888e0fb596f2a21957b7d58119]
link CreateClinicalAnalysisLaboratoryController to Laboratory--><path codeLine="42" d="M181.04,219.02 C179.24,253.65 176.59,300.63 173.5,342 C171.74,365.62 169.54,391.13 167.37,414.82 " fill="none" id="CreateClinicalAnalysisLaboratoryController-to-Laboratory" style="stroke:#A80036;stroke-width:1.0;stroke-dasharray:7.0,7.0;"/><polygon fill="#A80036" points="166.91,419.84,171.7151,411.2428,167.3665,414.8609,163.7485,410.5124,166.91,419.84" style="stroke:#A80036;stroke-width:1.0;"/><!--MD5=[b921f878c1b19577ef94d929b3e93a58]
link Company to Laboratory--><path codeLine="43" d="M116.31,342.23 C121.41,361.95 128.35,388.8 135.12,415.03 " fill="none" id="Company-to-Laboratory" style="stroke:#A80036;stroke-width:1.0;"/><polygon fill="#A80036" points="136.39,419.92,138.0272,410.2082,135.1471,415.0769,130.2783,412.1968,136.39,419.92" style="stroke:#A80036;stroke-width:1.0;"/><text fill="#000000" font-family="sans-serif" font-size="13" lengthAdjust="spacing" textLength="28" x="129.5" y="386.4951">uses</text><text fill="#000000" font-family="sans-serif" font-size="13" lengthAdjust="spacing" textLength="7" x="110.1316" y="363.2525">1</text><text fill="#000000" font-family="sans-serif" font-size="13" lengthAdjust="spacing" textLength="7" x="127.1091" y="409.0285">1</text><!--MD5=[98f82590f5f631bfe55e6520882022d0]
link Laboratory to ClinicalAnalysisLaboratory--><path codeLine="44" d="M158.5,593.1 C158.5,617.8 158.5,643.92 158.5,665.61 " fill="none" id="Laboratory-to-ClinicalAnalysisLaboratory" style="stroke:#A80036;stroke-width:1.0;"/><polygon fill="#A80036" points="158.5,670.74,162.5,661.74,158.5,665.74,154.5,661.74,158.5,670.74" style="stroke:#A80036;stroke-width:1.0;"/><text fill="#000000" font-family="sans-serif" font-size="13" lengthAdjust="spacing" textLength="39" x="159.5" y="637.4951">adopts</text><text fill="#000000" font-family="sans-serif" font-size="13" lengthAdjust="spacing" textLength="7" x="151.2211" y="614.1666">1</text><text fill="#000000" font-family="sans-serif" font-size="13" lengthAdjust="spacing" textLength="5" x="153.1172" y="660.1443">*</text><!--MD5=[727d2700d465aff00408358cfdadcc68]
@startuml
skinparam classAttributeIconSize 0

class CreateClinicalAnalysisLaboratoryUI{
}

class CreateClinicalAnalysisLaboratoryController{
  +createClinicalAnalysisLaboratory(name, address, phoneNumber , TIN,\n laboratoryId,selectedTestTypesList)
  +saveClinicalAnalysisLaboratory()
  +getTestType()
}

class Company{
+getLaboratory()
}


class ClinicalAnalysisLaboratory {
  -String laboratoryId
  +create (name, address, phoneNumber , TIN ,\nlaboratoryId,selectedTestTypesList)


}

class Laboratory {
  -String name
  -String address
  -int phoneNumber
  -int tin
  +create (name, address, phoneNumber , TIN ,\n laboratoryId,selectedTestTypesList)
  +validateClinicalAnalysisLaboratory(cal)
  +addClinicalAnalysisLaboratory(cal)
  +saveClinicalAnalysisLaboratory(cal)
}






CreateClinicalAnalysisLaboratoryUI ..> CreateClinicalAnalysisLaboratoryController
CreateClinicalAnalysisLaboratoryController ..> Company
CreateClinicalAnalysisLaboratoryController ...> Laboratory
Company "1" - -> "1" Laboratory : uses
Laboratory "1" - -> "*" ClinicalAnalysisLaboratory : adopts


@enduml

PlantUML version 1.2021.00(Sun Jan 10 10:25:05 GMT 2021)
(GPL source distribution)
Java Runtime: OpenJDK Runtime Environment
JVM: OpenJDK 64-Bit Server VM
Default Encoding: Cp1252
Language: pt
Country: PT
--></g></svg>