<?xml version="1.0" encoding="UTF-8" standalone="no"?><svg xmlns="http://www.w3.org/2000/svg" xmlns:xlink="http://www.w3.org/1999/xlink" contentScriptType="application/ecmascript" contentStyleType="text/css" height="491px" preserveAspectRatio="none" style="width:860px;height:491px;" version="1.1" viewBox="0 0 860 491" width="860px" zoomAndPan="magnify"><defs><filter height="300%" id="f1gujw9wguo5zh" width="300%" x="-1" y="-1"><feGaussianBlur result="blurOut" stdDeviation="2.0"/><feColorMatrix in="blurOut" result="blurOut2" type="matrix" values="0 0 0 0 0 0 0 0 0 0 0 0 0 0 0 0 0 0 .4 0"/><feOffset dx="4.0" dy="4.0" in="blurOut2" result="blurOut3"/><feBlend in="SourceGraphic" in2="blurOut3" mode="normal"/></filter></defs><g><!--MD5=[df38be88ccee13e832d6fafd6288a4ca]
class Test--><rect codeLine="6" fill="#FEFECE" filter="url(#f1gujw9wguo5zh)" height="81.5078" id="Test" style="stroke:#A80036;stroke-width:1.5;" width="76" x="763" y="307.5"/><ellipse cx="787" cy="323.5" fill="#ADD1B2" rx="11" ry="11" style="stroke:#A80036;stroke-width:1.0;"/><path d="M789,320 Q789.2031,319.5 789.4375,319.25 Q789.6719,319 789.9375,319 Q790.4063,319 790.7031,319.2813 Q791,319.5625 791,320.2188 L791,321.7813 Q791,322.4375 790.7188,322.7188 Q790.4375,323 790,323 Q789.6094,323 789.3594,322.8281 Q789.1094,322.6563 789,322.2031 Q788.9531,321.8906 788.7813,321.7188 Q788.4688,321.3906 787.9063,321.2031 Q787.3438,321 786.7813,321 Q786.0781,321 785.4844,321.2813 Q784.9063,321.5625 784.4531,322.1875 Q784,322.8125 784,323.6719 L784,324.5938 Q784,325.625 784.8438,326.3125 Q785.6875,327 787.1875,327 Q788.0781,327 788.7031,326.7969 Q789.0625,326.6875 789.4688,326.3281 Q789.7344,326.125 789.875,326.0625 Q790.0156,326 790.1875,326 Q790.5156,326 790.75,326.2656 Q791,326.5156 791,326.875 Q791,327.2188 790.6563,327.625 Q790.1563,328.2188 789.3594,328.5469 Q788.3125,329 787.0313,329 Q785.5313,329 784.3281,328.4063 Q783.3594,327.9375 782.6719,326.9219 Q782,325.9063 782,324.7031 L782,323.6094 Q782,322.3594 782.5938,321.2656 Q783.2031,320.1719 784.25,319.5938 Q785.3125,319 786.5,319 Q787.2188,319 787.8438,319.25 Q788.4688,319.5 789,320 Z " fill="#000000"/><text fill="#000000" font-family="sans-serif" font-size="12" lengthAdjust="spacing" textLength="24" x="803" y="328.4102">Test</text><line style="stroke:#A80036;stroke-width:1.5;" x1="764" x2="838" y1="339.5" y2="339.5"/><text fill="#000000" font-family="sans-serif" font-size="11" lengthAdjust="spacing" textLength="64" x="769" y="354.9189">-internalCode</text><text fill="#000000" font-family="sans-serif" font-size="11" lengthAdjust="spacing" textLength="47" x="769" y="368.7549">-nhsCode</text><text fill="#000000" font-family="sans-serif" font-size="11" lengthAdjust="spacing" textLength="57" x="769" y="382.5908">-description</text><!--MD5=[02e4b9b7573f1156f41e60aa5b4e25a4]
class Company--><rect codeLine="12" fill="#FEFECE" filter="url(#f1gujw9wguo5zh)" height="109.1797" id="Company" style="stroke:#A80036;stroke-width:1.5;" width="85" x="376" y="7"/><ellipse cx="391" cy="23" fill="#ADD1B2" rx="11" ry="11" style="stroke:#A80036;stroke-width:1.0;"/><path d="M393,19.5 Q393.2031,19 393.4375,18.75 Q393.6719,18.5 393.9375,18.5 Q394.4063,18.5 394.7031,18.7813 Q395,19.0625 395,19.7188 L395,21.2813 Q395,21.9375 394.7188,22.2188 Q394.4375,22.5 394,22.5 Q393.6094,22.5 393.3594,22.3281 Q393.1094,22.1563 393,21.7031 Q392.9531,21.3906 392.7813,21.2188 Q392.4688,20.8906 391.9063,20.7031 Q391.3438,20.5 390.7813,20.5 Q390.0781,20.5 389.4844,20.7813 Q388.9063,21.0625 388.4531,21.6875 Q388,22.3125 388,23.1719 L388,24.0938 Q388,25.125 388.8438,25.8125 Q389.6875,26.5 391.1875,26.5 Q392.0781,26.5 392.7031,26.2969 Q393.0625,26.1875 393.4688,25.8281 Q393.7344,25.625 393.875,25.5625 Q394.0156,25.5 394.1875,25.5 Q394.5156,25.5 394.75,25.7656 Q395,26.0156 395,26.375 Q395,26.7188 394.6563,27.125 Q394.1563,27.7188 393.3594,28.0469 Q392.3125,28.5 391.0313,28.5 Q389.5313,28.5 388.3281,27.9063 Q387.3594,27.4375 386.6719,26.4219 Q386,25.4063 386,24.2031 L386,23.1094 Q386,21.8594 386.5938,20.7656 Q387.2031,19.6719 388.25,19.0938 Q389.3125,18.5 390.5,18.5 Q391.2188,18.5 391.8438,18.75 Q392.4688,19 393,19.5 Z " fill="#000000"/><text fill="#000000" font-family="sans-serif" font-size="12" lengthAdjust="spacing" textLength="53" x="405" y="27.9102">Company</text><line style="stroke:#A80036;stroke-width:1.5;" x1="377" x2="460" y1="39" y2="39"/><text fill="#000000" font-family="sans-serif" font-size="11" lengthAdjust="spacing" textLength="30" x="382" y="54.4189">-name</text><text fill="#000000" font-family="sans-serif" font-size="11" lengthAdjust="spacing" textLength="59" x="382" y="68.2549">-designation</text><text fill="#000000" font-family="sans-serif" font-size="11" lengthAdjust="spacing" textLength="47" x="382" y="82.0908">-category</text><text fill="#000000" font-family="sans-serif" font-size="11" lengthAdjust="spacing" textLength="44" x="382" y="95.9268">-address</text><text fill="#000000" font-family="sans-serif" font-size="11" lengthAdjust="spacing" textLength="69" x="382" y="109.7627">-headquarters</text><!--MD5=[0caf3a413731a0de34fc6162fe213ed9]
class Laboratory--><rect codeLine="20" fill="#FEFECE" filter="url(#f1gujw9wguo5zh)" height="95.3438" id="Laboratory" style="stroke:#A80036;stroke-width:1.5;" width="90" x="756" y="124"/><ellipse cx="771" cy="140" fill="#ADD1B2" rx="11" ry="11" style="stroke:#A80036;stroke-width:1.0;"/><path d="M773,136.5 Q773.2031,136 773.4375,135.75 Q773.6719,135.5 773.9375,135.5 Q774.4063,135.5 774.7031,135.7813 Q775,136.0625 775,136.7188 L775,138.2813 Q775,138.9375 774.7188,139.2188 Q774.4375,139.5 774,139.5 Q773.6094,139.5 773.3594,139.3281 Q773.1094,139.1563 773,138.7031 Q772.9531,138.3906 772.7813,138.2188 Q772.4688,137.8906 771.9063,137.7031 Q771.3438,137.5 770.7813,137.5 Q770.0781,137.5 769.4844,137.7813 Q768.9063,138.0625 768.4531,138.6875 Q768,139.3125 768,140.1719 L768,141.0938 Q768,142.125 768.8438,142.8125 Q769.6875,143.5 771.1875,143.5 Q772.0781,143.5 772.7031,143.2969 Q773.0625,143.1875 773.4688,142.8281 Q773.7344,142.625 773.875,142.5625 Q774.0156,142.5 774.1875,142.5 Q774.5156,142.5 774.75,142.7656 Q775,143.0156 775,143.375 Q775,143.7188 774.6563,144.125 Q774.1563,144.7188 773.3594,145.0469 Q772.3125,145.5 771.0313,145.5 Q769.5313,145.5 768.3281,144.9063 Q767.3594,144.4375 766.6719,143.4219 Q766,142.4063 766,141.2031 L766,140.1094 Q766,138.8594 766.5938,137.7656 Q767.2031,136.6719 768.25,136.0938 Q769.3125,135.5 770.5,135.5 Q771.2188,135.5 771.8438,135.75 Q772.4688,136 773,136.5 Z " fill="#000000"/><text fill="#000000" font-family="sans-serif" font-size="12" lengthAdjust="spacing" textLength="58" x="785" y="144.9102">Laboratory</text><line style="stroke:#A80036;stroke-width:1.5;" x1="757" x2="845" y1="156" y2="156"/><text fill="#000000" font-family="sans-serif" font-size="11" lengthAdjust="spacing" textLength="30" x="762" y="171.4189">-name</text><text fill="#000000" font-family="sans-serif" font-size="11" lengthAdjust="spacing" textLength="44" x="762" y="185.2549">-address</text><text fill="#000000" font-family="sans-serif" font-size="11" lengthAdjust="spacing" textLength="71" x="762" y="199.0908">-phoneNumber</text><text fill="#000000" font-family="sans-serif" font-size="11" lengthAdjust="spacing" textLength="15" x="762" y="212.9268">-tin</text><!--MD5=[1934a092c0e7d4da7dc7075b6f4b6b03]
class ClinicalAnalysisLaboratory--><rect codeLine="27" fill="#FEFECE" filter="url(#f1gujw9wguo5zh)" height="53.8359" id="ClinicalAnalysisLaboratory" style="stroke:#A80036;stroke-width:1.5;" width="177" x="330" y="243.5"/><ellipse cx="345" cy="259.5" fill="#ADD1B2" rx="11" ry="11" style="stroke:#A80036;stroke-width:1.0;"/><path d="M347,256 Q347.2031,255.5 347.4375,255.25 Q347.6719,255 347.9375,255 Q348.4063,255 348.7031,255.2813 Q349,255.5625 349,256.2188 L349,257.7813 Q349,258.4375 348.7188,258.7188 Q348.4375,259 348,259 Q347.6094,259 347.3594,258.8281 Q347.1094,258.6563 347,258.2031 Q346.9531,257.8906 346.7813,257.7188 Q346.4688,257.3906 345.9063,257.2031 Q345.3438,257 344.7813,257 Q344.0781,257 343.4844,257.2813 Q342.9063,257.5625 342.4531,258.1875 Q342,258.8125 342,259.6719 L342,260.5938 Q342,261.625 342.8438,262.3125 Q343.6875,263 345.1875,263 Q346.0781,263 346.7031,262.7969 Q347.0625,262.6875 347.4688,262.3281 Q347.7344,262.125 347.875,262.0625 Q348.0156,262 348.1875,262 Q348.5156,262 348.75,262.2656 Q349,262.5156 349,262.875 Q349,263.2188 348.6563,263.625 Q348.1563,264.2188 347.3594,264.5469 Q346.3125,265 345.0313,265 Q343.5313,265 342.3281,264.4063 Q341.3594,263.9375 340.6719,262.9219 Q340,261.9063 340,260.7031 L340,259.6094 Q340,258.3594 340.5938,257.2656 Q341.2031,256.1719 342.25,255.5938 Q343.3125,255 344.5,255 Q345.2188,255 345.8438,255.25 Q346.4688,255.5 347,256 Z " fill="#000000"/><text fill="#000000" font-family="sans-serif" font-size="12" lengthAdjust="spacing" textLength="145" x="359" y="264.4102">ClinicalAnalysisLaboratory</text><line style="stroke:#A80036;stroke-width:1.5;" x1="331" x2="506" y1="275.5" y2="275.5"/><text fill="#000000" font-family="sans-serif" font-size="11" lengthAdjust="spacing" textLength="61" x="336" y="290.9189">-laboratoryId</text><!--MD5=[7421f545a0d8420c5bec41e74b387d9c]
class Employee--><rect codeLine="31" fill="#FEFECE" filter="url(#f1gujw9wguo5zh)" height="136.8516" id="Employee" style="stroke:#A80036;stroke-width:1.5;" width="96" x="173" y="341"/><ellipse cx="192.05" cy="357" fill="#ADD1B2" rx="11" ry="11" style="stroke:#A80036;stroke-width:1.0;"/><path d="M194.05,353.5 Q194.2531,353 194.4875,352.75 Q194.7219,352.5 194.9875,352.5 Q195.4563,352.5 195.7531,352.7813 Q196.05,353.0625 196.05,353.7188 L196.05,355.2813 Q196.05,355.9375 195.7688,356.2188 Q195.4875,356.5 195.05,356.5 Q194.6594,356.5 194.4094,356.3281 Q194.1594,356.1563 194.05,355.7031 Q194.0031,355.3906 193.8313,355.2188 Q193.5188,354.8906 192.9563,354.7031 Q192.3938,354.5 191.8313,354.5 Q191.1281,354.5 190.5344,354.7813 Q189.9563,355.0625 189.5031,355.6875 Q189.05,356.3125 189.05,357.1719 L189.05,358.0938 Q189.05,359.125 189.8938,359.8125 Q190.7375,360.5 192.2375,360.5 Q193.1281,360.5 193.7531,360.2969 Q194.1125,360.1875 194.5188,359.8281 Q194.7844,359.625 194.925,359.5625 Q195.0656,359.5 195.2375,359.5 Q195.5656,359.5 195.8,359.7656 Q196.05,360.0156 196.05,360.375 Q196.05,360.7188 195.7063,361.125 Q195.2063,361.7188 194.4094,362.0469 Q193.3625,362.5 192.0813,362.5 Q190.5813,362.5 189.3781,361.9063 Q188.4094,361.4375 187.7219,360.4219 Q187.05,359.4063 187.05,358.2031 L187.05,357.1094 Q187.05,355.8594 187.6438,354.7656 Q188.2531,353.6719 189.3,353.0938 Q190.3625,352.5 191.55,352.5 Q192.2688,352.5 192.8938,352.75 Q193.5188,353 194.05,353.5 Z " fill="#000000"/><text fill="#000000" font-family="sans-serif" font-size="12" lengthAdjust="spacing" textLength="55" x="206.95" y="361.9102">Employee</text><line style="stroke:#A80036;stroke-width:1.5;" x1="174" x2="268" y1="373" y2="373"/><text fill="#000000" font-family="sans-serif" font-size="11" lengthAdjust="spacing" textLength="30" x="179" y="388.4189">-name</text><text fill="#000000" font-family="sans-serif" font-size="11" lengthAdjust="spacing" textLength="44" x="179" y="402.2549">-address</text><text fill="#000000" font-family="sans-serif" font-size="11" lengthAdjust="spacing" textLength="71" x="179" y="416.0908">-phoneNumber</text><text fill="#000000" font-family="sans-serif" font-size="11" lengthAdjust="spacing" textLength="28" x="179" y="429.9268">-email</text><text fill="#000000" font-family="sans-serif" font-size="11" lengthAdjust="spacing" textLength="58" x="179" y="443.7627">-employeeId</text><text fill="#000000" font-family="sans-serif" font-size="11" lengthAdjust="spacing" textLength="84" x="179" y="457.5986">-organizationRole</text><text fill="#000000" font-family="sans-serif" font-size="11" lengthAdjust="spacing" textLength="47" x="179" y="471.4346">-socCode</text><!--MD5=[aeb3272166074d8737a70b61b1e71682]
class TestType--><rect codeLine="41" fill="#FEFECE" filter="url(#f1gujw9wguo5zh)" height="67.6719" id="TestType" style="stroke:#A80036;stroke-width:1.5;" width="96" x="370.5" y="350.5"/><ellipse cx="391.8" cy="366.5" fill="#ADD1B2" rx="11" ry="11" style="stroke:#A80036;stroke-width:1.0;"/><path d="M393.8,363 Q394.0031,362.5 394.2375,362.25 Q394.4719,362 394.7375,362 Q395.2063,362 395.5031,362.2813 Q395.8,362.5625 395.8,363.2188 L395.8,364.7813 Q395.8,365.4375 395.5188,365.7188 Q395.2375,366 394.8,366 Q394.4094,366 394.1594,365.8281 Q393.9094,365.6563 393.8,365.2031 Q393.7531,364.8906 393.5813,364.7188 Q393.2688,364.3906 392.7063,364.2031 Q392.1438,364 391.5813,364 Q390.8781,364 390.2844,364.2813 Q389.7063,364.5625 389.2531,365.1875 Q388.8,365.8125 388.8,366.6719 L388.8,367.5938 Q388.8,368.625 389.6438,369.3125 Q390.4875,370 391.9875,370 Q392.8781,370 393.5031,369.7969 Q393.8625,369.6875 394.2688,369.3281 Q394.5344,369.125 394.675,369.0625 Q394.8156,369 394.9875,369 Q395.3156,369 395.55,369.2656 Q395.8,369.5156 395.8,369.875 Q395.8,370.2188 395.4563,370.625 Q394.9563,371.2188 394.1594,371.5469 Q393.1125,372 391.8313,372 Q390.3313,372 389.1281,371.4063 Q388.1594,370.9375 387.4719,369.9219 Q386.8,368.9063 386.8,367.7031 L386.8,366.6094 Q386.8,365.3594 387.3938,364.2656 Q388.0031,363.1719 389.05,362.5938 Q390.1125,362 391.3,362 Q392.0188,362 392.6438,362.25 Q393.2688,362.5 393.8,363 Z " fill="#000000"/><text fill="#000000" font-family="sans-serif" font-size="12" lengthAdjust="spacing" textLength="50" x="407.2" y="371.4102">TestType</text><line style="stroke:#A80036;stroke-width:1.5;" x1="371.5" x2="465.5" y1="382.5" y2="382.5"/><text fill="#000000" font-family="sans-serif" font-size="11" lengthAdjust="spacing" textLength="59" x="376.5" y="397.9189">-designation</text><text fill="#000000" font-family="sans-serif" font-size="11" lengthAdjust="spacing" textLength="84" x="376.5" y="411.7549">-collectingMethod</text><!--MD5=[a64badb107d3691f2dc6af242cdbeb21]
class ChemicalLaboratory--><rect codeLine="46" fill="#FEFECE" filter="url(#f1gujw9wguo5zh)" height="40" id="ChemicalLaboratory" style="stroke:#A80036;stroke-width:1.5;" width="143" x="347" y="151.5"/><ellipse cx="362" cy="167.5" fill="#ADD1B2" rx="11" ry="11" style="stroke:#A80036;stroke-width:1.0;"/><path d="M364,164 Q364.2031,163.5 364.4375,163.25 Q364.6719,163 364.9375,163 Q365.4063,163 365.7031,163.2813 Q366,163.5625 366,164.2188 L366,165.7813 Q366,166.4375 365.7188,166.7188 Q365.4375,167 365,167 Q364.6094,167 364.3594,166.8281 Q364.1094,166.6563 364,166.2031 Q363.9531,165.8906 363.7813,165.7188 Q363.4688,165.3906 362.9063,165.2031 Q362.3438,165 361.7813,165 Q361.0781,165 360.4844,165.2813 Q359.9063,165.5625 359.4531,166.1875 Q359,166.8125 359,167.6719 L359,168.5938 Q359,169.625 359.8438,170.3125 Q360.6875,171 362.1875,171 Q363.0781,171 363.7031,170.7969 Q364.0625,170.6875 364.4688,170.3281 Q364.7344,170.125 364.875,170.0625 Q365.0156,170 365.1875,170 Q365.5156,170 365.75,170.2656 Q366,170.5156 366,170.875 Q366,171.2188 365.6563,171.625 Q365.1563,172.2188 364.3594,172.5469 Q363.3125,173 362.0313,173 Q360.5313,173 359.3281,172.4063 Q358.3594,171.9375 357.6719,170.9219 Q357,169.9063 357,168.7031 L357,167.6094 Q357,166.3594 357.5938,165.2656 Q358.2031,164.1719 359.25,163.5938 Q360.3125,163 361.5,163 Q362.2188,163 362.8438,163.25 Q363.4688,163.5 364,164 Z " fill="#000000"/><text fill="#000000" font-family="sans-serif" font-size="12" lengthAdjust="spacing" textLength="111" x="376" y="172.4102">ChemicalLaboratory</text><line style="stroke:#A80036;stroke-width:1.5;" x1="348" x2="489" y1="183.5" y2="183.5"/><!--MD5=[da547346deef918ea16944ba046651ef]
class Administrator--><rect codeLine="50" fill="#FEFECE" filter="url(#f1gujw9wguo5zh)" height="40" id="Administrator" style="stroke:#A80036;stroke-width:1.5;" width="105" x="7" y="320.5"/><ellipse cx="22" cy="336.5" fill="#ADD1B2" rx="11" ry="11" style="stroke:#A80036;stroke-width:1.0;"/><path d="M24,333 Q24.2031,332.5 24.4375,332.25 Q24.6719,332 24.9375,332 Q25.4063,332 25.7031,332.2813 Q26,332.5625 26,333.2188 L26,334.7813 Q26,335.4375 25.7188,335.7188 Q25.4375,336 25,336 Q24.6094,336 24.3594,335.8281 Q24.1094,335.6563 24,335.2031 Q23.9531,334.8906 23.7813,334.7188 Q23.4688,334.3906 22.9063,334.2031 Q22.3438,334 21.7813,334 Q21.0781,334 20.4844,334.2813 Q19.9063,334.5625 19.4531,335.1875 Q19,335.8125 19,336.6719 L19,337.5938 Q19,338.625 19.8438,339.3125 Q20.6875,340 22.1875,340 Q23.0781,340 23.7031,339.7969 Q24.0625,339.6875 24.4688,339.3281 Q24.7344,339.125 24.875,339.0625 Q25.0156,339 25.1875,339 Q25.5156,339 25.75,339.2656 Q26,339.5156 26,339.875 Q26,340.2188 25.6563,340.625 Q25.1563,341.2188 24.3594,341.5469 Q23.3125,342 22.0313,342 Q20.5313,342 19.3281,341.4063 Q18.3594,340.9375 17.6719,339.9219 Q17,338.9063 17,337.7031 L17,336.6094 Q17,335.3594 17.5938,334.2656 Q18.2031,333.1719 19.25,332.5938 Q20.3125,332 21.5,332 Q22.2188,332 22.8438,332.25 Q23.4688,332.5 24,333 Z " fill="#000000"/><text fill="#000000" font-family="sans-serif" font-size="12" lengthAdjust="spacing" textLength="73" x="36" y="341.4102">Administrator</text><line style="stroke:#A80036;stroke-width:1.5;" x1="8" x2="111" y1="352.5" y2="352.5"/><!--MD5=[b921f878c1b19577ef94d929b3e93a58]
link Company to Laboratory--><path codeLine="54" d="M461.41,71.99 C520.69,87.05 632.25,116.23 726,145.5 C735.75,148.54 746.14,152.04 755.95,155.45 " fill="none" id="Company-Laboratory" style="stroke:#A80036;stroke-width:1.0;"/><polygon fill="#000000" points="618.8106,102.0389,610.9094,96.7454,609.3069,102.4006,618.8106,102.0389" style="stroke:#000000;stroke-width:1.0;"/><text fill="#000000" font-family="sans-serif" font-size="13" lengthAdjust="spacing" textLength="30" x="623" y="105.9951">owns</text><text fill="#000000" font-family="sans-serif" font-size="13" lengthAdjust="spacing" textLength="7" x="469.0967" y="88.5618">1</text><text fill="#000000" font-family="sans-serif" font-size="13" lengthAdjust="spacing" textLength="20" x="727.8645" y="167.7633">1..*</text><!--MD5=[6d0dfcacb99e5b6ea3de933623cb0bd1]
link ClinicalAnalysisLaboratory to Laboratory--><path codeLine="55" d="M507.27,247.66 C577.23,229.46 673.53,204.41 736.26,188.08 " fill="none" id="ClinicalAnalysisLaboratory-to-Laboratory" style="stroke:#A80036;stroke-width:1.0;"/><polygon fill="none" points="734.65,181.27,755.77,183.01,738.18,194.82,734.65,181.27" style="stroke:#A80036;stroke-width:1.0;"/><!--MD5=[d480452e7d21fe720ba0207568bc7434]
link ClinicalAnalysisLaboratory to Test--><path codeLine="56" d="M507.27,288.49 C588.04,305.05 703.93,328.81 762.73,340.86 " fill="none" id="ClinicalAnalysisLaboratory-Test" style="stroke:#A80036;stroke-width:1.0;"/><polygon fill="#000000" points="608.8981,298.6799,600.6275,293.9844,599.4471,299.7425,608.8981,298.6799" style="stroke:#000000;stroke-width:1.0;"/><text fill="#000000" font-family="sans-serif" font-size="13" lengthAdjust="spacing" textLength="50" x="613" y="302.9951">performs</text><text fill="#000000" font-family="sans-serif" font-size="13" lengthAdjust="spacing" textLength="20" x="515.1407" y="304.0767">1..*</text><text fill="#000000" font-family="sans-serif" font-size="13" lengthAdjust="spacing" textLength="5" x="749.9582" y="354.5042">*</text><!--MD5=[c2c6b28b052a3fe86d789b83a09b2815]
link TestType to Test--><path codeLine="57" d="M466.53,384.64 C515.88,384.3 595.63,382.39 664,374.5 C697.79,370.6 735.78,363.07 763,357.11 " fill="none" id="TestType-Test" style="stroke:#A80036;stroke-width:1.0;"/><polygon fill="#000000" points="623.4786,365.2135,614.2005,363.1235,614.744,368.9761,623.4786,365.2135" style="stroke:#000000;stroke-width:1.0;"/><text fill="#000000" font-family="sans-serif" font-size="13" lengthAdjust="spacing" textLength="21" x="627.5" y="370.9951">is a</text><text fill="#000000" font-family="sans-serif" font-size="13" lengthAdjust="spacing" textLength="7" x="474.4205" y="399.4336">1</text><text fill="#000000" font-family="sans-serif" font-size="13" lengthAdjust="spacing" textLength="5" x="750.0266" y="373.9583">*</text><!--MD5=[23b8a99c177c2cd6d714b2cbaa81b3c4]
link Administrator to ClinicalAnalysisLaboratory--><path codeLine="58" d="M112.03,330.4 C168.9,319.25 261.41,301.11 329.75,287.71 " fill="none" id="Administrator-ClinicalAnalysisLaboratory" style="stroke:#A80036;stroke-width:1.0;"/><polygon fill="#000000" points="201.9066,289.7137,192.465,288.5701,193.596,294.3381,201.9066,289.7137" style="stroke:#000000;stroke-width:1.0;"/><text fill="#000000" font-family="sans-serif" font-size="13" lengthAdjust="spacing" textLength="43" x="206" y="295.9951">creates</text><text fill="#000000" font-family="sans-serif" font-size="13" lengthAdjust="spacing" textLength="7" x="119.9092" y="343.6245">1</text><text fill="#000000" font-family="sans-serif" font-size="13" lengthAdjust="spacing" textLength="20" x="301.8809" y="303.2346">1..*</text><!--MD5=[8f7dd94d56b58fc07b233ccd3dd98f8c]
link Administrator to Employee--><path codeLine="59" d="M107.06,360.64 C121.85,367.04 138.49,374.24 154.37,381.11 " fill="none" id="Administrator-to-Employee" style="stroke:#A80036;stroke-width:1.0;"/><polygon fill="none" points="157.25,374.73,172.83,389.09,151.69,387.58,157.25,374.73" style="stroke:#A80036;stroke-width:1.0;"/><!--MD5=[ca241da2d6b7ba1ad04f00d8baddcc83]
link ChemicalLaboratory to Laboratory--><path codeLine="60" d="M490.18,171.5 C560.53,171.5 667.57,171.5 735.63,171.5 " fill="none" id="ChemicalLaboratory-to-Laboratory" style="stroke:#A80036;stroke-width:1.0;"/><polygon fill="none" points="735.84,164.5,755.84,171.5,735.84,178.5,735.84,164.5" style="stroke:#A80036;stroke-width:1.0;"/><!--MD5=[b2768ab838c16bd69b0fee033ab8f459]
@startuml
hide methods
left to right direction
skinparam classAttributeIconSize 0


class Test{
-internalCode
-nhsCode
-description
}

class Company{
-name
-designation
-category
-address
-headquarters
}

class Laboratory {
  -name
  -address
  -phoneNumber
  -tin
}

class ClinicalAnalysisLaboratory {
  -laboratoryId
}

class Employee {
  -name
  -address
  -phoneNumber
  -email
  -employeeId
  -organizationRole
  -socCode
}

class TestType{
-designation
-collectingMethod
}

class ChemicalLaboratory{

}

class Administrator {

}

Company "1"- - - - "1..*" Laboratory : owns >
ClinicalAnalysisLaboratory - - - -|> Laboratory
ClinicalAnalysisLaboratory "1..*"- - - -"*" Test : performs >
TestType "1"- - - -"*" Test : is a >
Administrator "1"- - -"1..*"ClinicalAnalysisLaboratory : creates >
Administrator - -|> Employee
ChemicalLaboratory - - - -|> Laboratory



@enduml

PlantUML version 1.2021.00(Sun Jan 10 10:25:05 GMT 2021)
(GPL source distribution)
Java Runtime: OpenJDK Runtime Environment
JVM: OpenJDK 64-Bit Server VM
Default Encoding: Cp1252
Language: pt
Country: PT
--></g></svg>