<?xml version="1.0" encoding="UTF-8" standalone="no"?><svg xmlns="http://www.w3.org/2000/svg" xmlns:xlink="http://www.w3.org/1999/xlink" contentScriptType="application/ecmascript" contentStyleType="text/css" height="828px" preserveAspectRatio="none" style="width:449px;height:828px;" version="1.1" viewBox="0 0 449 828" width="449px" zoomAndPan="magnify"><defs><filter height="300%" id="f4xp1u01uqw4k" width="300%" x="-1" y="-1"><feGaussianBlur result="blurOut" stdDeviation="2.0"/><feColorMatrix in="blurOut" result="blurOut2" type="matrix" values="0 0 0 0 0 0 0 0 0 0 0 0 0 0 0 0 0 0 .4 0"/><feOffset dx="4.0" dy="4.0" in="blurOut2" result="blurOut3"/><feBlend in="SourceGraphic" in2="blurOut3" mode="normal"/></filter></defs><g><!--MD5=[ac912f3c36d0a34df6b87a8b2eff29eb]
class CreateChemicalAnalysisLaboratoryUI--><rect codeLine="3" fill="#FEFECE" filter="url(#f4xp1u01uqw4k)" height="48" id="CreateChemicalAnalysisLaboratoryUI" style="stroke:#A80036;stroke-width:1.5;" width="238" x="64.5" y="34.5"/><ellipse cx="79.5" cy="50.5" fill="#ADD1B2" rx="11" ry="11" style="stroke:#A80036;stroke-width:1.0;"/><path d="M81.5,47 Q81.7031,46.5 81.9375,46.25 Q82.1719,46 82.4375,46 Q82.9063,46 83.2031,46.2813 Q83.5,46.5625 83.5,47.2188 L83.5,48.7813 Q83.5,49.4375 83.2188,49.7188 Q82.9375,50 82.5,50 Q82.1094,50 81.8594,49.8281 Q81.6094,49.6563 81.5,49.2031 Q81.4531,48.8906 81.2813,48.7188 Q80.9688,48.3906 80.4063,48.2031 Q79.8438,48 79.2813,48 Q78.5781,48 77.9844,48.2813 Q77.4063,48.5625 76.9531,49.1875 Q76.5,49.8125 76.5,50.6719 L76.5,51.5938 Q76.5,52.625 77.3438,53.3125 Q78.1875,54 79.6875,54 Q80.5781,54 81.2031,53.7969 Q81.5625,53.6875 81.9688,53.3281 Q82.2344,53.125 82.375,53.0625 Q82.5156,53 82.6875,53 Q83.0156,53 83.25,53.2656 Q83.5,53.5156 83.5,53.875 Q83.5,54.2188 83.1563,54.625 Q82.6563,55.2188 81.8594,55.5469 Q80.8125,56 79.5313,56 Q78.0313,56 76.8281,55.4063 Q75.8594,54.9375 75.1719,53.9219 Q74.5,52.9063 74.5,51.7031 L74.5,50.6094 Q74.5,49.3594 75.0938,48.2656 Q75.7031,47.1719 76.75,46.5938 Q77.8125,46 79,46 Q79.7188,46 80.3438,46.25 Q80.9688,46.5 81.5,47 Z " fill="#000000"/><text fill="#000000" font-family="sans-serif" font-size="12" lengthAdjust="spacing" textLength="206" x="93.5" y="55.4102">CreateChemicalAnalysisLaboratoryUI</text><line style="stroke:#A80036;stroke-width:1.5;" x1="65.5" x2="301.5" y1="66.5" y2="66.5"/><line style="stroke:#A80036;stroke-width:1.5;" x1="65.5" x2="301.5" y1="74.5" y2="74.5"/><!--MD5=[712c3bcb4534db0e71ba374e8578d48b]
class CreateChemicalAnalysisLaboratoryController--><rect codeLine="6" fill="#FEFECE" filter="url(#f4xp1u01uqw4k)" height="103.3438" id="CreateChemicalAnalysisLaboratoryController" style="stroke:#A80036;stroke-width:1.5;" width="353" x="7" y="171"/><ellipse cx="55.25" cy="187" fill="#ADD1B2" rx="11" ry="11" style="stroke:#A80036;stroke-width:1.0;"/><path d="M57.25,183.5 Q57.4531,183 57.6875,182.75 Q57.9219,182.5 58.1875,182.5 Q58.6563,182.5 58.9531,182.7813 Q59.25,183.0625 59.25,183.7188 L59.25,185.2813 Q59.25,185.9375 58.9688,186.2188 Q58.6875,186.5 58.25,186.5 Q57.8594,186.5 57.6094,186.3281 Q57.3594,186.1563 57.25,185.7031 Q57.2031,185.3906 57.0313,185.2188 Q56.7188,184.8906 56.1563,184.7031 Q55.5938,184.5 55.0313,184.5 Q54.3281,184.5 53.7344,184.7813 Q53.1563,185.0625 52.7031,185.6875 Q52.25,186.3125 52.25,187.1719 L52.25,188.0938 Q52.25,189.125 53.0938,189.8125 Q53.9375,190.5 55.4375,190.5 Q56.3281,190.5 56.9531,190.2969 Q57.3125,190.1875 57.7188,189.8281 Q57.9844,189.625 58.125,189.5625 Q58.2656,189.5 58.4375,189.5 Q58.7656,189.5 59,189.7656 Q59.25,190.0156 59.25,190.375 Q59.25,190.7188 58.9063,191.125 Q58.4063,191.7188 57.6094,192.0469 Q56.5625,192.5 55.2813,192.5 Q53.7813,192.5 52.5781,191.9063 Q51.6094,191.4375 50.9219,190.4219 Q50.25,189.4063 50.25,188.2031 L50.25,187.1094 Q50.25,185.8594 50.8438,184.7656 Q51.4531,183.6719 52.5,183.0938 Q53.5625,182.5 54.75,182.5 Q55.4688,182.5 56.0938,182.75 Q56.7188,183 57.25,183.5 Z " fill="#000000"/><text fill="#000000" font-family="sans-serif" font-size="12" lengthAdjust="spacing" textLength="248" x="75.75" y="191.9102">CreateChemicalAnalysisLaboratoryController</text><line style="stroke:#A80036;stroke-width:1.5;" x1="8" x2="359" y1="203" y2="203"/><line style="stroke:#A80036;stroke-width:1.5;" x1="8" x2="359" y1="211" y2="211"/><text fill="#000000" font-family="sans-serif" font-size="11" lengthAdjust="spacing" textLength="341" x="13" y="226.4189">+createClinicalAnalysisLaboratory(name, address, phoneNumber , TIN,</text><text fill="#000000" font-family="sans-serif" font-size="11" lengthAdjust="spacing" textLength="173" x="16" y="240.2549">laboratoryId,selectedTestTypesList)</text><text fill="#000000" font-family="sans-serif" font-size="11" lengthAdjust="spacing" textLength="166" x="13" y="254.0908">+saveClinicalAnalysisLaboratory()</text><text fill="#000000" font-family="sans-serif" font-size="11" lengthAdjust="spacing" textLength="74" x="13" y="267.9268">+getTestType()</text><!--MD5=[02e4b9b7573f1156f41e60aa5b4e25a4]
class Company--><rect codeLine="12" fill="#FEFECE" filter="url(#f4xp1u01uqw4k)" height="61.8359" id="Company" style="stroke:#A80036;stroke-width:1.5;" width="195" x="11" y="335"/><ellipse cx="77.75" cy="351" fill="#ADD1B2" rx="11" ry="11" style="stroke:#A80036;stroke-width:1.0;"/><path d="M79.75,347.5 Q79.9531,347 80.1875,346.75 Q80.4219,346.5 80.6875,346.5 Q81.1563,346.5 81.4531,346.7813 Q81.75,347.0625 81.75,347.7188 L81.75,349.2813 Q81.75,349.9375 81.4688,350.2188 Q81.1875,350.5 80.75,350.5 Q80.3594,350.5 80.1094,350.3281 Q79.8594,350.1563 79.75,349.7031 Q79.7031,349.3906 79.5313,349.2188 Q79.2188,348.8906 78.6563,348.7031 Q78.0938,348.5 77.5313,348.5 Q76.8281,348.5 76.2344,348.7813 Q75.6563,349.0625 75.2031,349.6875 Q74.75,350.3125 74.75,351.1719 L74.75,352.0938 Q74.75,353.125 75.5938,353.8125 Q76.4375,354.5 77.9375,354.5 Q78.8281,354.5 79.4531,354.2969 Q79.8125,354.1875 80.2188,353.8281 Q80.4844,353.625 80.625,353.5625 Q80.7656,353.5 80.9375,353.5 Q81.2656,353.5 81.5,353.7656 Q81.75,354.0156 81.75,354.375 Q81.75,354.7188 81.4063,355.125 Q80.9063,355.7188 80.1094,356.0469 Q79.0625,356.5 77.7813,356.5 Q76.2813,356.5 75.0781,355.9063 Q74.1094,355.4375 73.4219,354.4219 Q72.75,353.4063 72.75,352.2031 L72.75,351.1094 Q72.75,349.8594 73.3438,348.7656 Q73.9531,347.6719 75,347.0938 Q76.0625,346.5 77.25,346.5 Q77.9688,346.5 78.5938,346.75 Q79.2188,347 79.75,347.5 Z " fill="#000000"/><text fill="#000000" font-family="sans-serif" font-size="12" lengthAdjust="spacing" textLength="53" x="98.25" y="355.9102">Company</text><line style="stroke:#A80036;stroke-width:1.5;" x1="12" x2="205" y1="367" y2="367"/><line style="stroke:#A80036;stroke-width:1.5;" x1="12" x2="205" y1="375" y2="375"/><text fill="#000000" font-family="sans-serif" font-size="11" lengthAdjust="spacing" textLength="183" x="17" y="390.4189">+getClinicalAnalysisLaboratoryStore()</text><!--MD5=[0caf3a413731a0de34fc6162fe213ed9]
class Laboratory--><rect codeLine="16" fill="#FEFECE" filter="url(#f4xp1u01uqw4k)" height="103.3438" id="Laboratory" style="stroke:#A80036;stroke-width:1.5;" width="97" x="338" y="7"/><ellipse cx="356.15" cy="23" fill="#ADD1B2" rx="11" ry="11" style="stroke:#A80036;stroke-width:1.0;"/><path d="M358.15,19.5 Q358.3531,19 358.5875,18.75 Q358.8219,18.5 359.0875,18.5 Q359.5563,18.5 359.8531,18.7813 Q360.15,19.0625 360.15,19.7188 L360.15,21.2813 Q360.15,21.9375 359.8688,22.2188 Q359.5875,22.5 359.15,22.5 Q358.7594,22.5 358.5094,22.3281 Q358.2594,22.1563 358.15,21.7031 Q358.1031,21.3906 357.9313,21.2188 Q357.6188,20.8906 357.0563,20.7031 Q356.4938,20.5 355.9313,20.5 Q355.2281,20.5 354.6344,20.7813 Q354.0563,21.0625 353.6031,21.6875 Q353.15,22.3125 353.15,23.1719 L353.15,24.0938 Q353.15,25.125 353.9938,25.8125 Q354.8375,26.5 356.3375,26.5 Q357.2281,26.5 357.8531,26.2969 Q358.2125,26.1875 358.6188,25.8281 Q358.8844,25.625 359.025,25.5625 Q359.1656,25.5 359.3375,25.5 Q359.6656,25.5 359.9,25.7656 Q360.15,26.0156 360.15,26.375 Q360.15,26.7188 359.8063,27.125 Q359.3063,27.7188 358.5094,28.0469 Q357.4625,28.5 356.1813,28.5 Q354.6813,28.5 353.4781,27.9063 Q352.5094,27.4375 351.8219,26.4219 Q351.15,25.4063 351.15,24.2031 L351.15,23.1094 Q351.15,21.8594 351.7438,20.7656 Q352.3531,19.6719 353.4,19.0938 Q354.4625,18.5 355.65,18.5 Q356.3688,18.5 356.9938,18.75 Q357.6188,19 358.15,19.5 Z " fill="#000000"/><text fill="#000000" font-family="sans-serif" font-size="12" lengthAdjust="spacing" textLength="58" x="370.85" y="27.9102">Laboratory</text><line style="stroke:#A80036;stroke-width:1.5;" x1="339" x2="434" y1="39" y2="39"/><text fill="#000000" font-family="sans-serif" font-size="11" lengthAdjust="spacing" textLength="61" x="344" y="54.4189">-String name</text><text fill="#000000" font-family="sans-serif" font-size="11" lengthAdjust="spacing" textLength="75" x="344" y="68.2549">-String address</text><text fill="#000000" font-family="sans-serif" font-size="11" lengthAdjust="spacing" textLength="85" x="344" y="82.0908">-int phoneNumber</text><text fill="#000000" font-family="sans-serif" font-size="11" lengthAdjust="spacing" textLength="29" x="344" y="95.9268">-int tin</text><line style="stroke:#A80036;stroke-width:1.5;" x1="339" x2="434" y1="102.3438" y2="102.3438"/><!--MD5=[1934a092c0e7d4da7dc7075b6f4b6b03]
class ClinicalAnalysisLaboratory--><rect codeLine="23" fill="#FEFECE" filter="url(#f4xp1u01uqw4k)" height="144.8516" id="ClinicalAnalysisLaboratory" style="stroke:#A80036;stroke-width:1.5;" width="231" x="68" y="670"/><ellipse cx="107.3" cy="686" fill="#ADD1B2" rx="11" ry="11" style="stroke:#A80036;stroke-width:1.0;"/><path d="M109.3,682.5 Q109.5031,682 109.7375,681.75 Q109.9719,681.5 110.2375,681.5 Q110.7063,681.5 111.0031,681.7813 Q111.3,682.0625 111.3,682.7188 L111.3,684.2813 Q111.3,684.9375 111.0188,685.2188 Q110.7375,685.5 110.3,685.5 Q109.9094,685.5 109.6594,685.3281 Q109.4094,685.1563 109.3,684.7031 Q109.2531,684.3906 109.0813,684.2188 Q108.7688,683.8906 108.2063,683.7031 Q107.6438,683.5 107.0813,683.5 Q106.3781,683.5 105.7844,683.7813 Q105.2063,684.0625 104.7531,684.6875 Q104.3,685.3125 104.3,686.1719 L104.3,687.0938 Q104.3,688.125 105.1438,688.8125 Q105.9875,689.5 107.4875,689.5 Q108.3781,689.5 109.0031,689.2969 Q109.3625,689.1875 109.7688,688.8281 Q110.0344,688.625 110.175,688.5625 Q110.3156,688.5 110.4875,688.5 Q110.8156,688.5 111.05,688.7656 Q111.3,689.0156 111.3,689.375 Q111.3,689.7188 110.9563,690.125 Q110.4563,690.7188 109.6594,691.0469 Q108.6125,691.5 107.3313,691.5 Q105.8313,691.5 104.6281,690.9063 Q103.6594,690.4375 102.9719,689.4219 Q102.3,688.4063 102.3,687.2031 L102.3,686.1094 Q102.3,684.8594 102.8938,683.7656 Q103.5031,682.6719 104.55,682.0938 Q105.6125,681.5 106.8,681.5 Q107.5188,681.5 108.1438,681.75 Q108.7688,682 109.3,682.5 Z " fill="#000000"/><text fill="#000000" font-family="sans-serif" font-size="12" lengthAdjust="spacing" textLength="145" x="126.7" y="690.9102">ClinicalAnalysisLaboratory</text><line style="stroke:#A80036;stroke-width:1.5;" x1="69" x2="298" y1="702" y2="702"/><text fill="#000000" font-family="sans-serif" font-size="11" lengthAdjust="spacing" textLength="61" x="74" y="717.4189">-String name</text><text fill="#000000" font-family="sans-serif" font-size="11" lengthAdjust="spacing" textLength="75" x="74" y="731.2549">-String address</text><text fill="#000000" font-family="sans-serif" font-size="11" lengthAdjust="spacing" textLength="85" x="74" y="745.0908">-int phoneNumber</text><text fill="#000000" font-family="sans-serif" font-size="11" lengthAdjust="spacing" textLength="29" x="74" y="758.9268">-int tin</text><text fill="#000000" font-family="sans-serif" font-size="11" lengthAdjust="spacing" textLength="61" x="74" y="772.7627">-laboratoryId</text><line style="stroke:#A80036;stroke-width:1.5;" x1="69" x2="298" y1="779.1797" y2="779.1797"/><text fill="#000000" font-family="sans-serif" font-size="11" lengthAdjust="spacing" textLength="219" x="74" y="794.5986">+create (name, address, phoneNumber , TIN ,</text><text fill="#000000" font-family="sans-serif" font-size="11" lengthAdjust="spacing" textLength="173" x="74" y="808.4346">laboratoryId,selectedTestTypesList)</text><!--MD5=[438281daef332c5ccec4fb6cf3747e9a]
class ClinicalAnalysisLaboratoryStore--><rect codeLine="34" fill="#FEFECE" filter="url(#f4xp1u01uqw4k)" height="117.1797" id="ClinicalAnalysisLaboratoryStore" style="stroke:#A80036;stroke-width:1.5;" width="231" x="68" y="475"/><ellipse cx="94.25" cy="491" fill="#ADD1B2" rx="11" ry="11" style="stroke:#A80036;stroke-width:1.0;"/><path d="M96.25,487.5 Q96.4531,487 96.6875,486.75 Q96.9219,486.5 97.1875,486.5 Q97.6563,486.5 97.9531,486.7813 Q98.25,487.0625 98.25,487.7188 L98.25,489.2813 Q98.25,489.9375 97.9688,490.2188 Q97.6875,490.5 97.25,490.5 Q96.8594,490.5 96.6094,490.3281 Q96.3594,490.1563 96.25,489.7031 Q96.2031,489.3906 96.0313,489.2188 Q95.7188,488.8906 95.1563,488.7031 Q94.5938,488.5 94.0313,488.5 Q93.3281,488.5 92.7344,488.7813 Q92.1563,489.0625 91.7031,489.6875 Q91.25,490.3125 91.25,491.1719 L91.25,492.0938 Q91.25,493.125 92.0938,493.8125 Q92.9375,494.5 94.4375,494.5 Q95.3281,494.5 95.9531,494.2969 Q96.3125,494.1875 96.7188,493.8281 Q96.9844,493.625 97.125,493.5625 Q97.2656,493.5 97.4375,493.5 Q97.7656,493.5 98,493.7656 Q98.25,494.0156 98.25,494.375 Q98.25,494.7188 97.9063,495.125 Q97.4063,495.7188 96.6094,496.0469 Q95.5625,496.5 94.2813,496.5 Q92.7813,496.5 91.5781,495.9063 Q90.6094,495.4375 89.9219,494.4219 Q89.25,493.4063 89.25,492.2031 L89.25,491.1094 Q89.25,489.8594 89.8438,488.7656 Q90.4531,487.6719 91.5,487.0938 Q92.5625,486.5 93.75,486.5 Q94.4688,486.5 95.0938,486.75 Q95.7188,487 96.25,487.5 Z " fill="#000000"/><text fill="#000000" font-family="sans-serif" font-size="12" lengthAdjust="spacing" textLength="174" x="110.75" y="495.9102">ClinicalAnalysisLaboratoryStore</text><line style="stroke:#A80036;stroke-width:1.5;" x1="69" x2="298" y1="507" y2="507"/><line style="stroke:#A80036;stroke-width:1.5;" x1="69" x2="298" y1="515" y2="515"/><text fill="#000000" font-family="sans-serif" font-size="11" lengthAdjust="spacing" textLength="219" x="74" y="530.4189">+create (name, address, phoneNumber , TIN ,</text><text fill="#000000" font-family="sans-serif" font-size="11" lengthAdjust="spacing" textLength="173" x="77" y="544.2549">laboratoryId,selectedTestTypesList)</text><text fill="#000000" font-family="sans-serif" font-size="11" lengthAdjust="spacing" textLength="193" x="74" y="558.0908">+validateClinicalAnalysisLaboratory(cal)</text><text fill="#000000" font-family="sans-serif" font-size="11" lengthAdjust="spacing" textLength="174" x="74" y="571.9268">+addClinicalAnalysisLaboratory(cal)</text><text fill="#000000" font-family="sans-serif" font-size="11" lengthAdjust="spacing" textLength="180" x="74" y="585.7627">+saveClinicalAnalysisLaboratory(cal)</text><!--MD5=[fe27bc33de758320c15db31e2e792150]
link CreateChemicalAnalysisLaboratoryUI to CreateChemicalAnalysisLaboratoryController--><path codeLine="46" d="M183.5,82.71 C183.5,104.29 183.5,137.29 183.5,165.69 " fill="none" id="CreateChemicalAnalysisLaboratoryUI-to-CreateChemicalAnalysisLaboratoryController" style="stroke:#A80036;stroke-width:1.0;stroke-dasharray:7.0,7.0;"/><polygon fill="#A80036" points="183.5,170.94,187.5,161.94,183.5,165.94,179.5,161.94,183.5,170.94" style="stroke:#A80036;stroke-width:1.0;"/><!--MD5=[7e5ede35609db73cbb6873eb3da57642]
link CreateChemicalAnalysisLaboratoryController to Company--><path codeLine="47" d="M156.64,274.19 C146.8,292.74 135.9,313.31 126.96,330.17 " fill="none" id="CreateChemicalAnalysisLaboratoryController-to-Company" style="stroke:#A80036;stroke-width:1.0;stroke-dasharray:7.0,7.0;"/><polygon fill="#A80036" points="124.5,334.82,132.2443,328.7352,126.8381,330.4004,125.1729,324.9942,124.5,334.82" style="stroke:#A80036;stroke-width:1.0;"/><!--MD5=[9d4de2f136c131ae2a6a4713f89d4b09]
link CreateChemicalAnalysisLaboratoryController to ClinicalAnalysisLaboratoryStore--><path codeLine="48" d="M205.82,274.12 C212.96,292.86 219.94,314.54 223.5,335 C231.36,380.19 220.68,430.9 208.38,469.62 " fill="none" id="CreateChemicalAnalysisLaboratoryController-to-ClinicalAnalysisLaboratoryStore" style="stroke:#A80036;stroke-width:1.0;stroke-dasharray:7.0,7.0;"/><polygon fill="#A80036" points="206.72,474.76,213.3014,467.433,208.2625,470.0039,205.6917,464.965,206.72,474.76" style="stroke:#A80036;stroke-width:1.0;"/><!--MD5=[f379172a0573607dd0ae1a4ea50b9294]
link Company to ClinicalAnalysisLaboratoryStore--><path codeLine="49" d="M122.26,397.36 C131.49,417.74 143.99,445.32 155.29,470.25 " fill="none" id="Company-to-ClinicalAnalysisLaboratoryStore" style="stroke:#A80036;stroke-width:1.0;"/><polygon fill="#A80036" points="157.39,474.88,157.3072,465.0315,155.321,470.3282,150.0243,468.3419,157.39,474.88" style="stroke:#A80036;stroke-width:1.0;"/><text fill="#000000" font-family="sans-serif" font-size="13" lengthAdjust="spacing" textLength="28" x="145.5" y="441.4951">uses</text><text fill="#000000" font-family="sans-serif" font-size="13" lengthAdjust="spacing" textLength="7" x="117.2158" y="418.4073">1</text><text fill="#000000" font-family="sans-serif" font-size="13" lengthAdjust="spacing" textLength="7" x="146.7813" y="464.2663">1</text><!--MD5=[2dad08ae384f93453eb1ba4eb26732f1]
link ClinicalAnalysisLaboratoryStore to ClinicalAnalysisLaboratory--><path codeLine="50" d="M183.5,592.16 C183.5,614.61 183.5,640.66 183.5,664.66 " fill="none" id="ClinicalAnalysisLaboratoryStore-to-ClinicalAnalysisLaboratory" style="stroke:#A80036;stroke-width:1.0;"/><polygon fill="#A80036" points="183.5,669.75,187.5,660.75,183.5,664.75,179.5,660.75,183.5,669.75" style="stroke:#A80036;stroke-width:1.0;"/><text fill="#000000" font-family="sans-serif" font-size="13" lengthAdjust="spacing" textLength="39" x="184.5" y="636.4951">adopts</text><text fill="#000000" font-family="sans-serif" font-size="13" lengthAdjust="spacing" textLength="7" x="176.0734" y="613.7898">1</text><text fill="#000000" font-family="sans-serif" font-size="13" lengthAdjust="spacing" textLength="5" x="178.2422" y="658.9436">*</text><!--MD5=[610c65468c4cb7e038eb104f4c922ff0]
@startuml
skinparam classAttributeIconSize 0

class CreateChemicalAnalysisLaboratoryUI{
}

class CreateChemicalAnalysisLaboratoryController{
  +createClinicalAnalysisLaboratory(name, address, phoneNumber , TIN,\n laboratoryId,selectedTestTypesList)
  +saveClinicalAnalysisLaboratory()
  +getTestType()
}

class Company{
+getClinicalAnalysisLaboratoryStore()
}

class Laboratory {
  -String name
  -String address
  -int phoneNumber
  -int tin
}

class ClinicalAnalysisLaboratory {
  -String name
  -String address
  -int phoneNumber
  -int tin
  -laboratoryId
  +create (name, address, phoneNumber , TIN ,\nlaboratoryId,selectedTestTypesList)


}

class ClinicalAnalysisLaboratoryStore {
  +create (name, address, phoneNumber , TIN ,\n laboratoryId,selectedTestTypesList)
  +validateClinicalAnalysisLaboratory(cal)
  +addClinicalAnalysisLaboratory(cal)
  +saveClinicalAnalysisLaboratory(cal)
}






CreateChemicalAnalysisLaboratoryUI ..> CreateChemicalAnalysisLaboratoryController
CreateChemicalAnalysisLaboratoryController ..> Company
CreateChemicalAnalysisLaboratoryController ...> ClinicalAnalysisLaboratoryStore
Company "1" - -> "1" ClinicalAnalysisLaboratoryStore : uses
ClinicalAnalysisLaboratoryStore "1" - -> "*" ClinicalAnalysisLaboratory : adopts


@enduml

PlantUML version 1.2021.00(Sun Jan 10 10:25:05 GMT 2021)
(GPL source distribution)
Java Runtime: OpenJDK Runtime Environment
JVM: OpenJDK 64-Bit Server VM
Default Encoding: Cp1252
Language: pt
Country: PT
--></g></svg>