<?xml version="1.0" encoding="UTF-8" standalone="no"?><svg xmlns="http://www.w3.org/2000/svg" xmlns:xlink="http://www.w3.org/1999/xlink" contentScriptType="application/ecmascript" contentStyleType="text/css" height="411px" preserveAspectRatio="none" style="width:860px;height:411px;" version="1.1" viewBox="0 0 860 411" width="860px" zoomAndPan="magnify"><defs><filter height="300%" id="f1vkmcwj3xat8m" width="300%" x="-1" y="-1"><feGaussianBlur result="blurOut" stdDeviation="2.0"/><feColorMatrix in="blurOut" result="blurOut2" type="matrix" values="0 0 0 0 0 0 0 0 0 0 0 0 0 0 0 0 0 0 .4 0"/><feOffset dx="4.0" dy="4.0" in="blurOut2" result="blurOut3"/><feBlend in="SourceGraphic" in2="blurOut3" mode="normal"/></filter></defs><g><!--MD5=[df38be88ccee13e832d6fafd6288a4ca]
class Test--><rect codeLine="6" fill="#FEFECE" filter="url(#f1vkmcwj3xat8m)" height="81.5078" id="Test" style="stroke:#A80036;stroke-width:1.5;" width="76" x="763" y="162.5"/><ellipse cx="787" cy="178.5" fill="#ADD1B2" rx="11" ry="11" style="stroke:#A80036;stroke-width:1.0;"/><path d="M789,175 Q789.2031,174.5 789.4375,174.25 Q789.6719,174 789.9375,174 Q790.4063,174 790.7031,174.2813 Q791,174.5625 791,175.2188 L791,176.7813 Q791,177.4375 790.7188,177.7188 Q790.4375,178 790,178 Q789.6094,178 789.3594,177.8281 Q789.1094,177.6563 789,177.2031 Q788.9531,176.8906 788.7813,176.7188 Q788.4688,176.3906 787.9063,176.2031 Q787.3438,176 786.7813,176 Q786.0781,176 785.4844,176.2813 Q784.9063,176.5625 784.4531,177.1875 Q784,177.8125 784,178.6719 L784,179.5938 Q784,180.625 784.8438,181.3125 Q785.6875,182 787.1875,182 Q788.0781,182 788.7031,181.7969 Q789.0625,181.6875 789.4688,181.3281 Q789.7344,181.125 789.875,181.0625 Q790.0156,181 790.1875,181 Q790.5156,181 790.75,181.2656 Q791,181.5156 791,181.875 Q791,182.2188 790.6563,182.625 Q790.1563,183.2188 789.3594,183.5469 Q788.3125,184 787.0313,184 Q785.5313,184 784.3281,183.4063 Q783.3594,182.9375 782.6719,181.9219 Q782,180.9063 782,179.7031 L782,178.6094 Q782,177.3594 782.5938,176.2656 Q783.2031,175.1719 784.25,174.5938 Q785.3125,174 786.5,174 Q787.2188,174 787.8438,174.25 Q788.4688,174.5 789,175 Z " fill="#000000"/><text fill="#000000" font-family="sans-serif" font-size="12" lengthAdjust="spacing" textLength="24" x="803" y="183.4102">Test</text><line style="stroke:#A80036;stroke-width:1.5;" x1="764" x2="838" y1="194.5" y2="194.5"/><text fill="#000000" font-family="sans-serif" font-size="11" lengthAdjust="spacing" textLength="64" x="769" y="209.9189">-internalCode</text><text fill="#000000" font-family="sans-serif" font-size="11" lengthAdjust="spacing" textLength="47" x="769" y="223.7549">-nhsCode</text><text fill="#000000" font-family="sans-serif" font-size="11" lengthAdjust="spacing" textLength="57" x="769" y="237.5908">-description</text><!--MD5=[02e4b9b7573f1156f41e60aa5b4e25a4]
class Company--><rect codeLine="12" fill="#FEFECE" filter="url(#f1vkmcwj3xat8m)" height="109.1797" id="Company" style="stroke:#A80036;stroke-width:1.5;" width="85" x="376" y="7"/><ellipse cx="391" cy="23" fill="#ADD1B2" rx="11" ry="11" style="stroke:#A80036;stroke-width:1.0;"/><path d="M393,19.5 Q393.2031,19 393.4375,18.75 Q393.6719,18.5 393.9375,18.5 Q394.4063,18.5 394.7031,18.7813 Q395,19.0625 395,19.7188 L395,21.2813 Q395,21.9375 394.7188,22.2188 Q394.4375,22.5 394,22.5 Q393.6094,22.5 393.3594,22.3281 Q393.1094,22.1563 393,21.7031 Q392.9531,21.3906 392.7813,21.2188 Q392.4688,20.8906 391.9063,20.7031 Q391.3438,20.5 390.7813,20.5 Q390.0781,20.5 389.4844,20.7813 Q388.9063,21.0625 388.4531,21.6875 Q388,22.3125 388,23.1719 L388,24.0938 Q388,25.125 388.8438,25.8125 Q389.6875,26.5 391.1875,26.5 Q392.0781,26.5 392.7031,26.2969 Q393.0625,26.1875 393.4688,25.8281 Q393.7344,25.625 393.875,25.5625 Q394.0156,25.5 394.1875,25.5 Q394.5156,25.5 394.75,25.7656 Q395,26.0156 395,26.375 Q395,26.7188 394.6563,27.125 Q394.1563,27.7188 393.3594,28.0469 Q392.3125,28.5 391.0313,28.5 Q389.5313,28.5 388.3281,27.9063 Q387.3594,27.4375 386.6719,26.4219 Q386,25.4063 386,24.2031 L386,23.1094 Q386,21.8594 386.5938,20.7656 Q387.2031,19.6719 388.25,19.0938 Q389.3125,18.5 390.5,18.5 Q391.2188,18.5 391.8438,18.75 Q392.4688,19 393,19.5 Z " fill="#000000"/><text fill="#000000" font-family="sans-serif" font-size="12" lengthAdjust="spacing" textLength="53" x="405" y="27.9102">Company</text><line style="stroke:#A80036;stroke-width:1.5;" x1="377" x2="460" y1="39" y2="39"/><text fill="#000000" font-family="sans-serif" font-size="11" lengthAdjust="spacing" textLength="30" x="382" y="54.4189">-name</text><text fill="#000000" font-family="sans-serif" font-size="11" lengthAdjust="spacing" textLength="59" x="382" y="68.2549">-designation</text><text fill="#000000" font-family="sans-serif" font-size="11" lengthAdjust="spacing" textLength="47" x="382" y="82.0908">-category</text><text fill="#000000" font-family="sans-serif" font-size="11" lengthAdjust="spacing" textLength="44" x="382" y="95.9268">-address</text><text fill="#000000" font-family="sans-serif" font-size="11" lengthAdjust="spacing" textLength="69" x="382" y="109.7627">-headquarters</text><!--MD5=[0caf3a413731a0de34fc6162fe213ed9]
class Laboratory--><rect codeLine="20" fill="#FEFECE" filter="url(#f1vkmcwj3xat8m)" height="95.3438" id="Laboratory" style="stroke:#A80036;stroke-width:1.5;" width="90" x="756" y="23"/><ellipse cx="771" cy="39" fill="#ADD1B2" rx="11" ry="11" style="stroke:#A80036;stroke-width:1.0;"/><path d="M773,35.5 Q773.2031,35 773.4375,34.75 Q773.6719,34.5 773.9375,34.5 Q774.4063,34.5 774.7031,34.7813 Q775,35.0625 775,35.7188 L775,37.2813 Q775,37.9375 774.7188,38.2188 Q774.4375,38.5 774,38.5 Q773.6094,38.5 773.3594,38.3281 Q773.1094,38.1563 773,37.7031 Q772.9531,37.3906 772.7813,37.2188 Q772.4688,36.8906 771.9063,36.7031 Q771.3438,36.5 770.7813,36.5 Q770.0781,36.5 769.4844,36.7813 Q768.9063,37.0625 768.4531,37.6875 Q768,38.3125 768,39.1719 L768,40.0938 Q768,41.125 768.8438,41.8125 Q769.6875,42.5 771.1875,42.5 Q772.0781,42.5 772.7031,42.2969 Q773.0625,42.1875 773.4688,41.8281 Q773.7344,41.625 773.875,41.5625 Q774.0156,41.5 774.1875,41.5 Q774.5156,41.5 774.75,41.7656 Q775,42.0156 775,42.375 Q775,42.7188 774.6563,43.125 Q774.1563,43.7188 773.3594,44.0469 Q772.3125,44.5 771.0313,44.5 Q769.5313,44.5 768.3281,43.9063 Q767.3594,43.4375 766.6719,42.4219 Q766,41.4063 766,40.2031 L766,39.1094 Q766,37.8594 766.5938,36.7656 Q767.2031,35.6719 768.25,35.0938 Q769.3125,34.5 770.5,34.5 Q771.2188,34.5 771.8438,34.75 Q772.4688,35 773,35.5 Z " fill="#000000"/><text fill="#000000" font-family="sans-serif" font-size="12" lengthAdjust="spacing" textLength="58" x="785" y="43.9102">Laboratory</text><line style="stroke:#A80036;stroke-width:1.5;" x1="757" x2="845" y1="55" y2="55"/><text fill="#000000" font-family="sans-serif" font-size="11" lengthAdjust="spacing" textLength="30" x="762" y="70.4189">-name</text><text fill="#000000" font-family="sans-serif" font-size="11" lengthAdjust="spacing" textLength="44" x="762" y="84.2549">-address</text><text fill="#000000" font-family="sans-serif" font-size="11" lengthAdjust="spacing" textLength="71" x="762" y="98.0908">-phoneNumber</text><text fill="#000000" font-family="sans-serif" font-size="11" lengthAdjust="spacing" textLength="15" x="762" y="111.9268">-tin</text><!--MD5=[1934a092c0e7d4da7dc7075b6f4b6b03]
class ClinicalAnalysisLaboratory--><rect codeLine="27" fill="#FEFECE" filter="url(#f1vkmcwj3xat8m)" height="53.8359" id="ClinicalAnalysisLaboratory" style="stroke:#A80036;stroke-width:1.5;" width="177" x="330" y="163.5"/><ellipse cx="345" cy="179.5" fill="#ADD1B2" rx="11" ry="11" style="stroke:#A80036;stroke-width:1.0;"/><path d="M347,176 Q347.2031,175.5 347.4375,175.25 Q347.6719,175 347.9375,175 Q348.4063,175 348.7031,175.2813 Q349,175.5625 349,176.2188 L349,177.7813 Q349,178.4375 348.7188,178.7188 Q348.4375,179 348,179 Q347.6094,179 347.3594,178.8281 Q347.1094,178.6563 347,178.2031 Q346.9531,177.8906 346.7813,177.7188 Q346.4688,177.3906 345.9063,177.2031 Q345.3438,177 344.7813,177 Q344.0781,177 343.4844,177.2813 Q342.9063,177.5625 342.4531,178.1875 Q342,178.8125 342,179.6719 L342,180.5938 Q342,181.625 342.8438,182.3125 Q343.6875,183 345.1875,183 Q346.0781,183 346.7031,182.7969 Q347.0625,182.6875 347.4688,182.3281 Q347.7344,182.125 347.875,182.0625 Q348.0156,182 348.1875,182 Q348.5156,182 348.75,182.2656 Q349,182.5156 349,182.875 Q349,183.2188 348.6563,183.625 Q348.1563,184.2188 347.3594,184.5469 Q346.3125,185 345.0313,185 Q343.5313,185 342.3281,184.4063 Q341.3594,183.9375 340.6719,182.9219 Q340,181.9063 340,180.7031 L340,179.6094 Q340,178.3594 340.5938,177.2656 Q341.2031,176.1719 342.25,175.5938 Q343.3125,175 344.5,175 Q345.2188,175 345.8438,175.25 Q346.4688,175.5 347,176 Z " fill="#000000"/><text fill="#000000" font-family="sans-serif" font-size="12" lengthAdjust="spacing" textLength="145" x="359" y="184.4102">ClinicalAnalysisLaboratory</text><line style="stroke:#A80036;stroke-width:1.5;" x1="331" x2="506" y1="195.5" y2="195.5"/><text fill="#000000" font-family="sans-serif" font-size="11" lengthAdjust="spacing" textLength="61" x="336" y="210.9189">-laboratoryId</text><!--MD5=[7421f545a0d8420c5bec41e74b387d9c]
class Employee--><rect codeLine="31" fill="#FEFECE" filter="url(#f1vkmcwj3xat8m)" height="136.8516" id="Employee" style="stroke:#A80036;stroke-width:1.5;" width="96" x="173" y="261"/><ellipse cx="192.05" cy="277" fill="#ADD1B2" rx="11" ry="11" style="stroke:#A80036;stroke-width:1.0;"/><path d="M194.05,273.5 Q194.2531,273 194.4875,272.75 Q194.7219,272.5 194.9875,272.5 Q195.4563,272.5 195.7531,272.7813 Q196.05,273.0625 196.05,273.7188 L196.05,275.2813 Q196.05,275.9375 195.7688,276.2188 Q195.4875,276.5 195.05,276.5 Q194.6594,276.5 194.4094,276.3281 Q194.1594,276.1563 194.05,275.7031 Q194.0031,275.3906 193.8313,275.2188 Q193.5188,274.8906 192.9563,274.7031 Q192.3938,274.5 191.8313,274.5 Q191.1281,274.5 190.5344,274.7813 Q189.9563,275.0625 189.5031,275.6875 Q189.05,276.3125 189.05,277.1719 L189.05,278.0938 Q189.05,279.125 189.8938,279.8125 Q190.7375,280.5 192.2375,280.5 Q193.1281,280.5 193.7531,280.2969 Q194.1125,280.1875 194.5188,279.8281 Q194.7844,279.625 194.925,279.5625 Q195.0656,279.5 195.2375,279.5 Q195.5656,279.5 195.8,279.7656 Q196.05,280.0156 196.05,280.375 Q196.05,280.7188 195.7063,281.125 Q195.2063,281.7188 194.4094,282.0469 Q193.3625,282.5 192.0813,282.5 Q190.5813,282.5 189.3781,281.9063 Q188.4094,281.4375 187.7219,280.4219 Q187.05,279.4063 187.05,278.2031 L187.05,277.1094 Q187.05,275.8594 187.6438,274.7656 Q188.2531,273.6719 189.3,273.0938 Q190.3625,272.5 191.55,272.5 Q192.2688,272.5 192.8938,272.75 Q193.5188,273 194.05,273.5 Z " fill="#000000"/><text fill="#000000" font-family="sans-serif" font-size="12" lengthAdjust="spacing" textLength="55" x="206.95" y="281.9102">Employee</text><line style="stroke:#A80036;stroke-width:1.5;" x1="174" x2="268" y1="293" y2="293"/><text fill="#000000" font-family="sans-serif" font-size="11" lengthAdjust="spacing" textLength="30" x="179" y="308.4189">-name</text><text fill="#000000" font-family="sans-serif" font-size="11" lengthAdjust="spacing" textLength="44" x="179" y="322.2549">-address</text><text fill="#000000" font-family="sans-serif" font-size="11" lengthAdjust="spacing" textLength="71" x="179" y="336.0908">-phoneNumber</text><text fill="#000000" font-family="sans-serif" font-size="11" lengthAdjust="spacing" textLength="28" x="179" y="349.9268">-email</text><text fill="#000000" font-family="sans-serif" font-size="11" lengthAdjust="spacing" textLength="58" x="179" y="363.7627">-employeeId</text><text fill="#000000" font-family="sans-serif" font-size="11" lengthAdjust="spacing" textLength="84" x="179" y="377.5986">-organizationRole</text><text fill="#000000" font-family="sans-serif" font-size="11" lengthAdjust="spacing" textLength="47" x="179" y="391.4346">-socCode</text><!--MD5=[da547346deef918ea16944ba046651ef]
class Administrator--><rect codeLine="42" fill="#FEFECE" filter="url(#f1vkmcwj3xat8m)" height="40" id="Administrator" style="stroke:#A80036;stroke-width:1.5;" width="105" x="7" y="240.5"/><ellipse cx="22" cy="256.5" fill="#ADD1B2" rx="11" ry="11" style="stroke:#A80036;stroke-width:1.0;"/><path d="M24,253 Q24.2031,252.5 24.4375,252.25 Q24.6719,252 24.9375,252 Q25.4063,252 25.7031,252.2813 Q26,252.5625 26,253.2188 L26,254.7813 Q26,255.4375 25.7188,255.7188 Q25.4375,256 25,256 Q24.6094,256 24.3594,255.8281 Q24.1094,255.6563 24,255.2031 Q23.9531,254.8906 23.7813,254.7188 Q23.4688,254.3906 22.9063,254.2031 Q22.3438,254 21.7813,254 Q21.0781,254 20.4844,254.2813 Q19.9063,254.5625 19.4531,255.1875 Q19,255.8125 19,256.6719 L19,257.5938 Q19,258.625 19.8438,259.3125 Q20.6875,260 22.1875,260 Q23.0781,260 23.7031,259.7969 Q24.0625,259.6875 24.4688,259.3281 Q24.7344,259.125 24.875,259.0625 Q25.0156,259 25.1875,259 Q25.5156,259 25.75,259.2656 Q26,259.5156 26,259.875 Q26,260.2188 25.6563,260.625 Q25.1563,261.2188 24.3594,261.5469 Q23.3125,262 22.0313,262 Q20.5313,262 19.3281,261.4063 Q18.3594,260.9375 17.6719,259.9219 Q17,258.9063 17,257.7031 L17,256.6094 Q17,255.3594 17.5938,254.2656 Q18.2031,253.1719 19.25,252.5938 Q20.3125,252 21.5,252 Q22.2188,252 22.8438,252.25 Q23.4688,252.5 24,253 Z " fill="#000000"/><text fill="#000000" font-family="sans-serif" font-size="12" lengthAdjust="spacing" textLength="73" x="36" y="261.4102">Administrator</text><line style="stroke:#A80036;stroke-width:1.5;" x1="8" x2="111" y1="272.5" y2="272.5"/><!--MD5=[b921f878c1b19577ef94d929b3e93a58]
link Company to Laboratory--><path codeLine="46" d="M461.31,62.49 C533.7,64.2 681.74,67.7 755.78,69.45 " fill="none" id="Company-Laboratory" style="stroke:#A80036;stroke-width:1.0;"/><polygon fill="#000000" points="618.9986,57.7939,610.0255,54.6421,609.8866,60.5183,618.9986,57.7939" style="stroke:#000000;stroke-width:1.0;"/><text fill="#000000" font-family="sans-serif" font-size="13" lengthAdjust="spacing" textLength="30" x="623" y="62.9951">owns</text><text fill="#000000" font-family="sans-serif" font-size="13" lengthAdjust="spacing" textLength="7" x="468.9801" y="77.4883">1</text><text fill="#000000" font-family="sans-serif" font-size="13" lengthAdjust="spacing" textLength="20" x="728.0147" y="83.923">1..*</text><!--MD5=[6d0dfcacb99e5b6ea3de933623cb0bd1]
link ClinicalAnalysisLaboratory to Laboratory--><path codeLine="47" d="M505.37,163.42 C575.58,141.28 673.27,110.47 736.56,90.51 " fill="none" id="ClinicalAnalysisLaboratory-to-Laboratory" style="stroke:#A80036;stroke-width:1.0;"/><polygon fill="none" points="734.65,83.77,755.83,84.43,738.86,97.12,734.65,83.77" style="stroke:#A80036;stroke-width:1.0;"/><!--MD5=[d480452e7d21fe720ba0207568bc7434]
link ClinicalAnalysisLaboratory to Test--><path codeLine="48" d="M507.27,193.5 C588.04,196.26 703.93,200.22 762.73,202.23 " fill="none" id="ClinicalAnalysisLaboratory-Test" style="stroke:#A80036;stroke-width:1.0;"/><polygon fill="#000000" points="608.9971,188.8465,600.0577,185.6004,599.8569,191.4748,608.9971,188.8465" style="stroke:#000000;stroke-width:1.0;"/><text fill="#000000" font-family="sans-serif" font-size="13" lengthAdjust="spacing" textLength="50" x="613" y="193.9951">performs</text><text fill="#000000" font-family="sans-serif" font-size="13" lengthAdjust="spacing" textLength="20" x="515.1407" y="207.8922">1..*</text><text fill="#000000" font-family="sans-serif" font-size="13" lengthAdjust="spacing" textLength="5" x="749.9582" y="217.0884">*</text><!--MD5=[23b8a99c177c2cd6d714b2cbaa81b3c4]
link Administrator to ClinicalAnalysisLaboratory--><path codeLine="49" d="M112.03,250.4 C168.9,239.25 261.41,221.11 329.75,207.71 " fill="none" id="Administrator-ClinicalAnalysisLaboratory" style="stroke:#A80036;stroke-width:1.0;"/><polygon fill="#000000" points="201.9066,210.7137,192.465,209.5701,193.596,215.3381,201.9066,210.7137" style="stroke:#000000;stroke-width:1.0;"/><text fill="#000000" font-family="sans-serif" font-size="13" lengthAdjust="spacing" textLength="43" x="206" y="216.9951">creates</text><text fill="#000000" font-family="sans-serif" font-size="13" lengthAdjust="spacing" textLength="7" x="119.9092" y="263.6245">1</text><text fill="#000000" font-family="sans-serif" font-size="13" lengthAdjust="spacing" textLength="20" x="301.8809" y="223.2346">1..*</text><!--MD5=[8f7dd94d56b58fc07b233ccd3dd98f8c]
link Administrator to Employee--><path codeLine="50" d="M107.06,280.64 C121.85,287.04 138.49,294.24 154.37,301.11 " fill="none" id="Administrator-to-Employee" style="stroke:#A80036;stroke-width:1.0;"/><polygon fill="none" points="157.25,294.73,172.83,309.09,151.69,307.58,157.25,294.73" style="stroke:#A80036;stroke-width:1.0;"/><!--MD5=[c73febcd466fe700d86ad06e8c4b6b13]
@startuml
hide methods
left to right direction
skinparam classAttributeIconSize 0


class Test{
-internalCode
-nhsCode
-description
}

class Company{
-name
-designation
-category
-address
-headquarters
}

class Laboratory {
  -name
  -address
  -phoneNumber
  -tin
}

class ClinicalAnalysisLaboratory {
  -laboratoryId
}

class Employee {
  -name
  -address
  -phoneNumber
  -email
  -employeeId
  -organizationRole
  -socCode
}


class Administrator {

}

Company "1"- - - - "1..*" Laboratory : owns >
ClinicalAnalysisLaboratory - - - -|> Laboratory
ClinicalAnalysisLaboratory "1..*"- - - -"*" Test : performs >
Administrator "1"- - -"1..*"ClinicalAnalysisLaboratory : creates >
Administrator - -|> Employee



@enduml

PlantUML version 1.2021.00(Sun Jan 10 10:25:05 GMT 2021)
(GPL source distribution)
Java Runtime: OpenJDK Runtime Environment
JVM: OpenJDK 64-Bit Server VM
Default Encoding: Cp1252
Language: pt
Country: PT
--></g></svg>