<?xml version="1.0" encoding="UTF-8" standalone="no"?><svg xmlns="http://www.w3.org/2000/svg" xmlns:xlink="http://www.w3.org/1999/xlink" contentScriptType="application/ecmascript" contentStyleType="text/css" height="792px" preserveAspectRatio="none" style="width:976px;height:792px;" version="1.1" viewBox="0 0 976 792" width="976.8px" zoomAndPan="magnify"><defs><filter height="300%" id="f1qta3ln90cpxk" width="300%" x="-1" y="-1"><feGaussianBlur result="blurOut" stdDeviation="1.6"/><feColorMatrix in="blurOut" result="blurOut2" type="matrix" values="0 0 0 0 0 0 0 0 0 0 0 0 0 0 0 0 0 0 .4 0"/><feOffset dx="3.2" dy="3.2" in="blurOut2" result="blurOut3"/><feBlend in="SourceGraphic" in2="blurOut3" mode="normal"/></filter></defs><g><!--MD5=[37309ab6e23351c4730a79161d180b75]
class CreateClinicalAnalysisLaboratoryUI--><rect codeLine="3" fill="#FEFECE" filter="url(#f1qta3ln90cpxk)" height="38.4" id="CreateClinicalAnalysisLaboratoryUI" style="stroke:#A80036;stroke-width:1.2000000000000002;" width="180.8" x="555.472" y="5.6"/><ellipse cx="567.472" cy="18.4" fill="#ADD1B2" rx="8.8" ry="8.8" style="stroke:#A80036;stroke-width:0.8;"/><path d="M569.072,15.6 Q569.2345,15.2 569.422,15 Q569.6095,14.8 569.822,14.8 Q570.197,14.8 570.4345,15.025 Q570.672,15.25 570.672,15.775 L570.672,17.025 Q570.672,17.55 570.447,17.775 Q570.222,18 569.872,18 Q569.5595,18 569.3595,17.8625 Q569.1595,17.725 569.072,17.3625 Q569.0345,17.1125 568.897,16.975 Q568.647,16.7125 568.197,16.5625 Q567.747,16.4 567.297,16.4 Q566.7345,16.4 566.2595,16.625 Q565.797,16.85 565.4345,17.35 Q565.072,17.85 565.072,18.5375 L565.072,19.275 Q565.072,20.1 565.747,20.65 Q566.422,21.2 567.622,21.2 Q568.3345,21.2 568.8345,21.0375 Q569.122,20.95 569.447,20.6625 Q569.6595,20.5 569.772,20.45 Q569.8845,20.4 570.022,20.4 Q570.2845,20.4 570.472,20.6125 Q570.672,20.8125 570.672,21.1 Q570.672,21.375 570.397,21.7 Q569.997,22.175 569.3595,22.4375 Q568.522,22.8 567.497,22.8 Q566.297,22.8 565.3345,22.325 Q564.5595,21.95 564.0095,21.1375 Q563.472,20.325 563.472,19.3625 L563.472,18.4875 Q563.472,17.4875 563.947,16.6125 Q564.4345,15.7375 565.272,15.275 Q566.122,14.8 567.072,14.8 Q567.647,14.8 568.147,15 Q568.647,15.2 569.072,15.6 Z " fill="#000000"/><text fill="#000000" font-family="sans-serif" font-size="9.6" lengthAdjust="spacing" textLength="155.2" x="578.672" y="22.3281">CreateClinicalAnalysisLaboratoryUI</text><line style="stroke:#A80036;stroke-width:1.2000000000000002;" x1="556.272" x2="735.472" y1="31.2" y2="31.2"/><line style="stroke:#A80036;stroke-width:1.2000000000000002;" x1="556.272" x2="735.472" y1="37.6" y2="37.6"/><!--MD5=[25ee8cb021a059750cba86b6e371f7ec]
class CreateClinicalAnalysisLaboratoryController--><rect codeLine="6" fill="#FEFECE" filter="url(#f1qta3ln90cpxk)" height="71.6063" id="CreateClinicalAnalysisLaboratoryController" style="stroke:#A80036;stroke-width:1.2000000000000002;" width="214.4" x="254.672" y="92.8"/><ellipse cx="266.672" cy="105.6" fill="#ADD1B2" rx="8.8" ry="8.8" style="stroke:#A80036;stroke-width:0.8;"/><path d="M268.272,102.8 Q268.4345,102.4 268.622,102.2 Q268.8095,102 269.022,102 Q269.397,102 269.6345,102.225 Q269.872,102.45 269.872,102.975 L269.872,104.225 Q269.872,104.75 269.647,104.975 Q269.422,105.2 269.072,105.2 Q268.7595,105.2 268.5595,105.0625 Q268.3595,104.925 268.272,104.5625 Q268.2345,104.3125 268.097,104.175 Q267.847,103.9125 267.397,103.7625 Q266.947,103.6 266.497,103.6 Q265.9345,103.6 265.4595,103.825 Q264.997,104.05 264.6345,104.55 Q264.272,105.05 264.272,105.7375 L264.272,106.475 Q264.272,107.3 264.947,107.85 Q265.622,108.4 266.822,108.4 Q267.5345,108.4 268.0345,108.2375 Q268.322,108.15 268.647,107.8625 Q268.8595,107.7 268.972,107.65 Q269.0845,107.6 269.222,107.6 Q269.4845,107.6 269.672,107.8125 Q269.872,108.0125 269.872,108.3 Q269.872,108.575 269.597,108.9 Q269.197,109.375 268.5595,109.6375 Q267.722,110 266.697,110 Q265.497,110 264.5345,109.525 Q263.7595,109.15 263.2095,108.3375 Q262.672,107.525 262.672,106.5625 L262.672,105.6875 Q262.672,104.6875 263.147,103.8125 Q263.6345,102.9375 264.472,102.475 Q265.322,102 266.272,102 Q266.847,102 267.347,102.2 Q267.847,102.4 268.272,102.8 Z " fill="#000000"/><text fill="#000000" font-family="sans-serif" font-size="9.6" lengthAdjust="spacing" textLength="188.8" x="277.872" y="109.5281">CreateClinicalAnalysisLaboratoryController</text><line style="stroke:#A80036;stroke-width:1.2000000000000002;" x1="255.472" x2="468.272" y1="118.4" y2="118.4"/><line style="stroke:#A80036;stroke-width:1.2000000000000002;" x1="255.472" x2="468.272" y1="124.8" y2="124.8"/><text fill="#000000" font-family="sans-serif" font-size="8.8" lengthAdjust="spacing" textLength="169.6" x="259.472" y="137.1352">+createClinicalAnalysisLaboratory(calDTO))</text><text fill="#000000" font-family="sans-serif" font-size="8.8" lengthAdjust="spacing" textLength="72.8" x="259.472" y="148.2039">+getTestTypeList()</text><text fill="#000000" font-family="sans-serif" font-size="8.8" lengthAdjust="spacing" textLength="144" x="259.472" y="159.2727">+saveClinicalAnalysisLaboratory(cal)</text><!--MD5=[02e4b9b7573f1156f41e60aa5b4e25a4]
class Company--><rect codeLine="12" fill="#FEFECE" filter="url(#f1qta3ln90cpxk)" height="60.5375" id="Company" style="stroke:#A80036;stroke-width:1.2000000000000002;" width="156" x="51.872" y="213.6"/><ellipse cx="105.272" cy="226.4" fill="#ADD1B2" rx="8.8" ry="8.8" style="stroke:#A80036;stroke-width:0.8;"/><path d="M106.872,223.6 Q107.0345,223.2 107.222,223 Q107.4095,222.8 107.622,222.8 Q107.997,222.8 108.2345,223.025 Q108.472,223.25 108.472,223.775 L108.472,225.025 Q108.472,225.55 108.247,225.775 Q108.022,226 107.672,226 Q107.3595,226 107.1595,225.8625 Q106.9595,225.725 106.872,225.3625 Q106.8345,225.1125 106.697,224.975 Q106.447,224.7125 105.997,224.5625 Q105.547,224.4 105.097,224.4 Q104.5345,224.4 104.0595,224.625 Q103.597,224.85 103.2345,225.35 Q102.872,225.85 102.872,226.5375 L102.872,227.275 Q102.872,228.1 103.547,228.65 Q104.222,229.2 105.422,229.2 Q106.1345,229.2 106.6345,229.0375 Q106.922,228.95 107.247,228.6625 Q107.4595,228.5 107.572,228.45 Q107.6845,228.4 107.822,228.4 Q108.0845,228.4 108.272,228.6125 Q108.472,228.8125 108.472,229.1 Q108.472,229.375 108.197,229.7 Q107.797,230.175 107.1595,230.4375 Q106.322,230.8 105.297,230.8 Q104.097,230.8 103.1345,230.325 Q102.3595,229.95 101.8095,229.1375 Q101.272,228.325 101.272,227.3625 L101.272,226.4875 Q101.272,225.4875 101.747,224.6125 Q102.2345,223.7375 103.072,223.275 Q103.922,222.8 104.872,222.8 Q105.447,222.8 105.947,223 Q106.447,223.2 106.872,223.6 Z " fill="#000000"/><text fill="#000000" font-family="sans-serif" font-size="9.6" lengthAdjust="spacing" textLength="42.4" x="121.672" y="230.3281">Company</text><line style="stroke:#A80036;stroke-width:1.2000000000000002;" x1="52.672" x2="207.072" y1="239.2" y2="239.2"/><line style="stroke:#A80036;stroke-width:1.2000000000000002;" x1="52.672" x2="207.072" y1="245.6" y2="245.6"/><text fill="#000000" font-family="sans-serif" font-size="8.8" lengthAdjust="spacing" textLength="146.4" x="56.672" y="257.9352">+getClinicalAnalysisLaboratoryStore()</text><text fill="#000000" font-family="sans-serif" font-size="8.8" lengthAdjust="spacing" textLength="80" x="56.672" y="269.0039">+getTestTypeStore()</text><!--MD5=[1934a092c0e7d4da7dc7075b6f4b6b03]
class ClinicalAnalysisLaboratory--><rect codeLine="18" fill="#FEFECE" filter="url(#f1qta3ln90cpxk)" height="71.6063" id="ClinicalAnalysisLaboratory" style="stroke:#A80036;stroke-width:1.2000000000000002;" width="318.4" x="213.872" y="509.2"/><ellipse cx="311.672" cy="522" fill="#ADD1B2" rx="8.8" ry="8.8" style="stroke:#A80036;stroke-width:0.8;"/><path d="M313.272,519.2 Q313.4345,518.8 313.622,518.6 Q313.8095,518.4 314.022,518.4 Q314.397,518.4 314.6345,518.625 Q314.872,518.85 314.872,519.375 L314.872,520.625 Q314.872,521.15 314.647,521.375 Q314.422,521.6 314.072,521.6 Q313.7595,521.6 313.5595,521.4625 Q313.3595,521.325 313.272,520.9625 Q313.2345,520.7125 313.097,520.575 Q312.847,520.3125 312.397,520.1625 Q311.947,520 311.497,520 Q310.9345,520 310.4595,520.225 Q309.997,520.45 309.6345,520.95 Q309.272,521.45 309.272,522.1375 L309.272,522.875 Q309.272,523.7 309.947,524.25 Q310.622,524.8 311.822,524.8 Q312.5345,524.8 313.0345,524.6375 Q313.322,524.55 313.647,524.2625 Q313.8595,524.1 313.972,524.05 Q314.0845,524 314.222,524 Q314.4845,524 314.672,524.2125 Q314.872,524.4125 314.872,524.7 Q314.872,524.975 314.597,525.3 Q314.197,525.775 313.5595,526.0375 Q312.722,526.4 311.697,526.4 Q310.497,526.4 309.5345,525.925 Q308.7595,525.55 308.2095,524.7375 Q307.672,523.925 307.672,522.9625 L307.672,522.0875 Q307.672,521.0875 308.147,520.2125 Q308.6345,519.3375 309.472,518.875 Q310.322,518.4 311.272,518.4 Q311.847,518.4 312.347,518.6 Q312.847,518.8 313.272,519.2 Z " fill="#000000"/><text fill="#000000" font-family="sans-serif" font-size="9.6" lengthAdjust="spacing" textLength="116" x="328.072" y="525.9281">ClinicalAnalysisLaboratory</text><line style="stroke:#A80036;stroke-width:1.2000000000000002;" x1="214.672" x2="531.472" y1="534.8" y2="534.8"/><text fill="#000000" font-family="sans-serif" font-size="8.8" lengthAdjust="spacing" textLength="73.6" x="218.672" y="547.1352">-String laboratoryId</text><text fill="#000000" font-family="sans-serif" font-size="8.8" lengthAdjust="spacing" textLength="125.6" x="218.672" y="558.2039">-List&lt;TestType&gt; listOfTestTypes</text><line style="stroke:#A80036;stroke-width:1.2000000000000002;" x1="214.672" x2="531.472" y1="563.3375" y2="563.3375"/><text fill="#000000" font-family="sans-serif" font-size="8.8" lengthAdjust="spacing" textLength="308.8" x="218.672" y="575.6727">create (name, address, phoneNumber , TIN ,laboratoryId,selectedTestTypesList)</text><!--MD5=[0caf3a413731a0de34fc6162fe213ed9]
class Laboratory--><rect codeLine="26" fill="#FEFECE" filter="url(#f1qta3ln90cpxk)" height="82.675" id="Laboratory" style="stroke:#A80036;stroke-width:1.2000000000000002;" width="77.6" x="107.872" y="504"/><ellipse cx="122.392" cy="516.8" fill="#ADD1B2" rx="8.8" ry="8.8" style="stroke:#A80036;stroke-width:0.8;"/><path d="M123.992,514 Q124.1545,513.6 124.342,513.4 Q124.5295,513.2 124.742,513.2 Q125.117,513.2 125.3545,513.425 Q125.592,513.65 125.592,514.175 L125.592,515.425 Q125.592,515.95 125.367,516.175 Q125.142,516.4 124.792,516.4 Q124.4795,516.4 124.2795,516.2625 Q124.0795,516.125 123.992,515.7625 Q123.9545,515.5125 123.817,515.375 Q123.567,515.1125 123.117,514.9625 Q122.667,514.8 122.217,514.8 Q121.6545,514.8 121.1795,515.025 Q120.717,515.25 120.3545,515.75 Q119.992,516.25 119.992,516.9375 L119.992,517.675 Q119.992,518.5 120.667,519.05 Q121.342,519.6 122.542,519.6 Q123.2545,519.6 123.7545,519.4375 Q124.042,519.35 124.367,519.0625 Q124.5795,518.9 124.692,518.85 Q124.8045,518.8 124.942,518.8 Q125.2045,518.8 125.392,519.0125 Q125.592,519.2125 125.592,519.5 Q125.592,519.775 125.317,520.1 Q124.917,520.575 124.2795,520.8375 Q123.442,521.2 122.417,521.2 Q121.217,521.2 120.2545,520.725 Q119.4795,520.35 118.9295,519.5375 Q118.392,518.725 118.392,517.7625 L118.392,516.8875 Q118.392,515.8875 118.867,515.0125 Q119.3545,514.1375 120.192,513.675 Q121.042,513.2 121.992,513.2 Q122.567,513.2 123.067,513.4 Q123.567,513.6 123.992,514 Z " fill="#000000"/><text fill="#000000" font-family="sans-serif" font-size="9.6" lengthAdjust="spacing" textLength="46.4" x="134.152" y="520.7281">Laboratory</text><line style="stroke:#A80036;stroke-width:1.2000000000000002;" x1="108.672" x2="184.672" y1="529.6" y2="529.6"/><text fill="#000000" font-family="sans-serif" font-size="8.8" lengthAdjust="spacing" textLength="48.8" x="112.672" y="541.9352">-String name</text><text fill="#000000" font-family="sans-serif" font-size="8.8" lengthAdjust="spacing" textLength="60" x="112.672" y="553.0039">-String address</text><text fill="#000000" font-family="sans-serif" font-size="8.8" lengthAdjust="spacing" textLength="68" x="112.672" y="564.0727">-int phoneNumber</text><text fill="#000000" font-family="sans-serif" font-size="8.8" lengthAdjust="spacing" textLength="23.2" x="112.672" y="575.1414">-int tin</text><line style="stroke:#A80036;stroke-width:1.2000000000000002;" x1="108.672" x2="184.672" y1="580.275" y2="580.275"/><!--MD5=[6ba72ddf03822b91e8d41ca71de58ed3]
class TestTypeStore--><rect codeLine="34" fill="#FEFECE" filter="url(#f1qta3ln90cpxk)" height="49.4688" id="TestTypeStore" style="stroke:#A80036;stroke-width:1.2000000000000002;" width="88.8" x="20.672" y="364.4"/><ellipse cx="32.672" cy="377.2" fill="#ADD1B2" rx="8.8" ry="8.8" style="stroke:#A80036;stroke-width:0.8;"/><path d="M34.272,374.4 Q34.4345,374 34.622,373.8 Q34.8095,373.6 35.022,373.6 Q35.397,373.6 35.6345,373.825 Q35.872,374.05 35.872,374.575 L35.872,375.825 Q35.872,376.35 35.647,376.575 Q35.422,376.8 35.072,376.8 Q34.7595,376.8 34.5595,376.6625 Q34.3595,376.525 34.272,376.1625 Q34.2345,375.9125 34.097,375.775 Q33.847,375.5125 33.397,375.3625 Q32.947,375.2 32.497,375.2 Q31.9345,375.2 31.4595,375.425 Q30.997,375.65 30.6345,376.15 Q30.272,376.65 30.272,377.3375 L30.272,378.075 Q30.272,378.9 30.947,379.45 Q31.622,380 32.822,380 Q33.5345,380 34.0345,379.8375 Q34.322,379.75 34.647,379.4625 Q34.8595,379.3 34.972,379.25 Q35.0845,379.2 35.222,379.2 Q35.4845,379.2 35.672,379.4125 Q35.872,379.6125 35.872,379.9 Q35.872,380.175 35.597,380.5 Q35.197,380.975 34.5595,381.2375 Q33.722,381.6 32.697,381.6 Q31.497,381.6 30.5345,381.125 Q29.7595,380.75 29.2095,379.9375 Q28.672,379.125 28.672,378.1625 L28.672,377.2875 Q28.672,376.2875 29.147,375.4125 Q29.6345,374.5375 30.472,374.075 Q31.322,373.6 32.272,373.6 Q32.847,373.6 33.347,373.8 Q33.847,374 34.272,374.4 Z " fill="#000000"/><text fill="#000000" font-family="sans-serif" font-size="9.6" lengthAdjust="spacing" textLength="63.2" x="43.872" y="381.1281">TestTypeStore</text><line style="stroke:#A80036;stroke-width:1.2000000000000002;" x1="21.472" x2="108.672" y1="390" y2="390"/><line style="stroke:#A80036;stroke-width:1.2000000000000002;" x1="21.472" x2="108.672" y1="396.4" y2="396.4"/><text fill="#000000" font-family="sans-serif" font-size="8.8" lengthAdjust="spacing" textLength="72.8" x="25.472" y="408.7352">+getTestTypeList()</text><!--MD5=[438281daef332c5ccec4fb6cf3747e9a]
class ClinicalAnalysisLaboratoryStore--><rect codeLine="38" fill="#FEFECE" filter="url(#f1qta3ln90cpxk)" height="71.6063" id="ClinicalAnalysisLaboratoryStore" style="stroke:#A80036;stroke-width:1.2000000000000002;" width="176" x="238.672" y="353.2"/><ellipse cx="255.712" cy="366" fill="#ADD1B2" rx="8.8" ry="8.8" style="stroke:#A80036;stroke-width:0.8;"/><path d="M257.312,363.2 Q257.4745,362.8 257.662,362.6 Q257.8495,362.4 258.062,362.4 Q258.437,362.4 258.6745,362.625 Q258.912,362.85 258.912,363.375 L258.912,364.625 Q258.912,365.15 258.687,365.375 Q258.462,365.6 258.112,365.6 Q257.7995,365.6 257.5995,365.4625 Q257.3995,365.325 257.312,364.9625 Q257.2745,364.7125 257.137,364.575 Q256.887,364.3125 256.437,364.1625 Q255.987,364 255.537,364 Q254.9745,364 254.4995,364.225 Q254.037,364.45 253.6745,364.95 Q253.312,365.45 253.312,366.1375 L253.312,366.875 Q253.312,367.7 253.987,368.25 Q254.662,368.8 255.862,368.8 Q256.5745,368.8 257.0745,368.6375 Q257.362,368.55 257.687,368.2625 Q257.8995,368.1 258.012,368.05 Q258.1245,368 258.262,368 Q258.5245,368 258.712,368.2125 Q258.912,368.4125 258.912,368.7 Q258.912,368.975 258.637,369.3 Q258.237,369.775 257.5995,370.0375 Q256.762,370.4 255.737,370.4 Q254.537,370.4 253.5745,369.925 Q252.7995,369.55 252.2495,368.7375 Q251.712,367.925 251.712,366.9625 L251.712,366.0875 Q251.712,365.0875 252.187,364.2125 Q252.6745,363.3375 253.512,362.875 Q254.362,362.4 255.312,362.4 Q255.887,362.4 256.387,362.6 Q256.887,362.8 257.312,363.2 Z " fill="#000000"/><text fill="#000000" font-family="sans-serif" font-size="9.6" lengthAdjust="spacing" textLength="139.2" x="268.032" y="369.9281">ClinicalAnalysisLaboratoryStore</text><line style="stroke:#A80036;stroke-width:1.2000000000000002;" x1="239.472" x2="413.872" y1="378.8" y2="378.8"/><line style="stroke:#A80036;stroke-width:1.2000000000000002;" x1="239.472" x2="413.872" y1="385.2" y2="385.2"/><text fill="#000000" font-family="sans-serif" font-size="8.8" lengthAdjust="spacing" textLength="166.4" x="243.472" y="397.5352">+createClinicalAnalysisLaboratory(calDTO)</text><text fill="#000000" font-family="sans-serif" font-size="8.8" lengthAdjust="spacing" textLength="154.4" x="243.472" y="408.6039">+validateClinicalAnalysisLaboratory(cal)</text><text fill="#000000" font-family="sans-serif" font-size="8.8" lengthAdjust="spacing" textLength="139.2" x="243.472" y="419.6727">+addClinicalAnalysisLaboratory(cal)</text><!--MD5=[17fe4c0ca596c5ee4277d552a2bb53ec]
class ClinicalAnalysisLaboratoryMapper--><rect codeLine="44" fill="#FEFECE" filter="url(#f1qta3ln90cpxk)" height="49.4688" id="ClinicalAnalysisLaboratoryMapper" style="stroke:#A80036;stroke-width:1.2000000000000002;" width="174.4" x="363.472" y="219.2"/><ellipse cx="375.472" cy="232" fill="#ADD1B2" rx="8.8" ry="8.8" style="stroke:#A80036;stroke-width:0.8;"/><path d="M377.072,229.2 Q377.2345,228.8 377.422,228.6 Q377.6095,228.4 377.822,228.4 Q378.197,228.4 378.4345,228.625 Q378.672,228.85 378.672,229.375 L378.672,230.625 Q378.672,231.15 378.447,231.375 Q378.222,231.6 377.872,231.6 Q377.5595,231.6 377.3595,231.4625 Q377.1595,231.325 377.072,230.9625 Q377.0345,230.7125 376.897,230.575 Q376.647,230.3125 376.197,230.1625 Q375.747,230 375.297,230 Q374.7345,230 374.2595,230.225 Q373.797,230.45 373.4345,230.95 Q373.072,231.45 373.072,232.1375 L373.072,232.875 Q373.072,233.7 373.747,234.25 Q374.422,234.8 375.622,234.8 Q376.3345,234.8 376.8345,234.6375 Q377.122,234.55 377.447,234.2625 Q377.6595,234.1 377.772,234.05 Q377.8845,234 378.022,234 Q378.2845,234 378.472,234.2125 Q378.672,234.4125 378.672,234.7 Q378.672,234.975 378.397,235.3 Q377.997,235.775 377.3595,236.0375 Q376.522,236.4 375.497,236.4 Q374.297,236.4 373.3345,235.925 Q372.5595,235.55 372.0095,234.7375 Q371.472,233.925 371.472,232.9625 L371.472,232.0875 Q371.472,231.0875 371.947,230.2125 Q372.4345,229.3375 373.272,228.875 Q374.122,228.4 375.072,228.4 Q375.647,228.4 376.147,228.6 Q376.647,228.8 377.072,229.2 Z " fill="#000000"/><text fill="#000000" font-family="sans-serif" font-size="9.6" lengthAdjust="spacing" textLength="148.8" x="386.672" y="235.9281">ClinicalAnalysisLaboratoryMapper</text><line style="stroke:#A80036;stroke-width:1.2000000000000002;" x1="364.272" x2="537.072" y1="244.8" y2="244.8"/><line style="stroke:#A80036;stroke-width:1.2000000000000002;" x1="364.272" x2="537.072" y1="251.2" y2="251.2"/><text fill="#000000" font-family="sans-serif" font-size="8.8" lengthAdjust="spacing" textLength="81.6" x="368.272" y="263.5352">+toDTO(listTestType)</text><!--MD5=[724ead17d3ca940995455a91cefd1e12]
class TestTypeMapper--><rect codeLine="49" fill="#FEFECE" filter="url(#f1qta3ln90cpxk)" height="49.4688" id="TestTypeMapper" style="stroke:#A80036;stroke-width:1.2000000000000002;" width="98.4" x="688.672" y="219.2"/><ellipse cx="700.672" cy="232" fill="#ADD1B2" rx="8.8" ry="8.8" style="stroke:#A80036;stroke-width:0.8;"/><path d="M702.272,229.2 Q702.4345,228.8 702.622,228.6 Q702.8095,228.4 703.022,228.4 Q703.397,228.4 703.6345,228.625 Q703.872,228.85 703.872,229.375 L703.872,230.625 Q703.872,231.15 703.647,231.375 Q703.422,231.6 703.072,231.6 Q702.7595,231.6 702.5595,231.4625 Q702.3595,231.325 702.272,230.9625 Q702.2345,230.7125 702.097,230.575 Q701.847,230.3125 701.397,230.1625 Q700.947,230 700.497,230 Q699.9345,230 699.4595,230.225 Q698.997,230.45 698.6345,230.95 Q698.272,231.45 698.272,232.1375 L698.272,232.875 Q698.272,233.7 698.947,234.25 Q699.622,234.8 700.822,234.8 Q701.5345,234.8 702.0345,234.6375 Q702.322,234.55 702.647,234.2625 Q702.8595,234.1 702.972,234.05 Q703.0845,234 703.222,234 Q703.4845,234 703.672,234.2125 Q703.872,234.4125 703.872,234.7 Q703.872,234.975 703.597,235.3 Q703.197,235.775 702.5595,236.0375 Q701.722,236.4 700.697,236.4 Q699.497,236.4 698.5345,235.925 Q697.7595,235.55 697.2095,234.7375 Q696.672,233.925 696.672,232.9625 L696.672,232.0875 Q696.672,231.0875 697.147,230.2125 Q697.6345,229.3375 698.472,228.875 Q699.322,228.4 700.272,228.4 Q700.847,228.4 701.347,228.6 Q701.847,228.8 702.272,229.2 Z " fill="#000000"/><text fill="#000000" font-family="sans-serif" font-size="9.6" lengthAdjust="spacing" textLength="72.8" x="711.872" y="235.9281">TestTypeMapper</text><line style="stroke:#A80036;stroke-width:1.2000000000000002;" x1="689.472" x2="786.272" y1="244.8" y2="244.8"/><line style="stroke:#A80036;stroke-width:1.2000000000000002;" x1="689.472" x2="786.272" y1="251.2" y2="251.2"/><text fill="#000000" font-family="sans-serif" font-size="8.8" lengthAdjust="spacing" textLength="81.6" x="693.472" y="263.5352">+toDTO(listTestType)</text><!--MD5=[f2ede7b09882d90d79047a5fe779fb67]
class ClinicalAnalysisLaboratoryDTO--><rect codeLine="54" fill="#FEFECE" filter="url(#f1qta3ln90cpxk)" height="104.8125" id="ClinicalAnalysisLaboratoryDTO" style="stroke:#A80036;stroke-width:1.2000000000000002;" width="161.6" x="499.472" y="336.8"/><ellipse cx="511.472" cy="349.6" fill="#ADD1B2" rx="8.8" ry="8.8" style="stroke:#A80036;stroke-width:0.8;"/><path d="M513.072,346.8 Q513.2345,346.4 513.422,346.2 Q513.6095,346 513.822,346 Q514.197,346 514.4345,346.225 Q514.672,346.45 514.672,346.975 L514.672,348.225 Q514.672,348.75 514.447,348.975 Q514.222,349.2 513.872,349.2 Q513.5595,349.2 513.3595,349.0625 Q513.1595,348.925 513.072,348.5625 Q513.0345,348.3125 512.897,348.175 Q512.647,347.9125 512.197,347.7625 Q511.747,347.6 511.297,347.6 Q510.7345,347.6 510.2595,347.825 Q509.797,348.05 509.4345,348.55 Q509.072,349.05 509.072,349.7375 L509.072,350.475 Q509.072,351.3 509.747,351.85 Q510.422,352.4 511.622,352.4 Q512.3345,352.4 512.8345,352.2375 Q513.122,352.15 513.447,351.8625 Q513.6595,351.7 513.772,351.65 Q513.8845,351.6 514.022,351.6 Q514.2845,351.6 514.472,351.8125 Q514.672,352.0125 514.672,352.3 Q514.672,352.575 514.397,352.9 Q513.997,353.375 513.3595,353.6375 Q512.522,354 511.497,354 Q510.297,354 509.3345,353.525 Q508.5595,353.15 508.0095,352.3375 Q507.472,351.525 507.472,350.5625 L507.472,349.6875 Q507.472,348.6875 507.947,347.8125 Q508.4345,346.9375 509.272,346.475 Q510.122,346 511.072,346 Q511.647,346 512.147,346.2 Q512.647,346.4 513.072,346.8 Z " fill="#000000"/><text fill="#000000" font-family="sans-serif" font-size="9.6" lengthAdjust="spacing" textLength="136" x="522.672" y="353.5281">ClinicalAnalysisLaboratoryDTO</text><line style="stroke:#A80036;stroke-width:1.2000000000000002;" x1="500.272" x2="660.272" y1="362.4" y2="362.4"/><text fill="#000000" font-family="sans-serif" font-size="8.8" lengthAdjust="spacing" textLength="48.8" x="504.272" y="374.7352">-String name</text><text fill="#000000" font-family="sans-serif" font-size="8.8" lengthAdjust="spacing" textLength="60" x="504.272" y="385.8039">-String address</text><text fill="#000000" font-family="sans-serif" font-size="8.8" lengthAdjust="spacing" textLength="68" x="504.272" y="396.8727">-int phoneNumber</text><text fill="#000000" font-family="sans-serif" font-size="8.8" lengthAdjust="spacing" textLength="23.2" x="504.272" y="407.9414">-int tin</text><text fill="#000000" font-family="sans-serif" font-size="8.8" lengthAdjust="spacing" textLength="73.6" x="504.272" y="419.0102">-String laboratoryId</text><text fill="#000000" font-family="sans-serif" font-size="8.8" lengthAdjust="spacing" textLength="125.6" x="504.272" y="430.0789">-List&lt;TestType&gt; listOfTestTypes</text><line style="stroke:#A80036;stroke-width:1.2000000000000002;" x1="500.272" x2="660.272" y1="435.2125" y2="435.2125"/><!--MD5=[aeb3272166074d8737a70b61b1e71682]
class TestType--><rect codeLine="63" fill="#FEFECE" filter="url(#f1qta3ln90cpxk)" height="82.675" id="TestType" style="stroke:#A80036;stroke-width:1.2000000000000002;" width="220" x="279.072" y="698.4"/><ellipse cx="365.672" cy="711.2" fill="#ADD1B2" rx="8.8" ry="8.8" style="stroke:#A80036;stroke-width:0.8;"/><path d="M367.272,708.4 Q367.4345,708 367.622,707.8 Q367.8095,707.6 368.022,707.6 Q368.397,707.6 368.6345,707.825 Q368.872,708.05 368.872,708.575 L368.872,709.825 Q368.872,710.35 368.647,710.575 Q368.422,710.8 368.072,710.8 Q367.7595,710.8 367.5595,710.6625 Q367.3595,710.525 367.272,710.1625 Q367.2345,709.9125 367.097,709.775 Q366.847,709.5125 366.397,709.3625 Q365.947,709.2 365.497,709.2 Q364.9345,709.2 364.4595,709.425 Q363.997,709.65 363.6345,710.15 Q363.272,710.65 363.272,711.3375 L363.272,712.075 Q363.272,712.9 363.947,713.45 Q364.622,714 365.822,714 Q366.5345,714 367.0345,713.8375 Q367.322,713.75 367.647,713.4625 Q367.8595,713.3 367.972,713.25 Q368.0845,713.2 368.222,713.2 Q368.4845,713.2 368.672,713.4125 Q368.872,713.6125 368.872,713.9 Q368.872,714.175 368.597,714.5 Q368.197,714.975 367.5595,715.2375 Q366.722,715.6 365.697,715.6 Q364.497,715.6 363.5345,715.125 Q362.7595,714.75 362.2095,713.9375 Q361.672,713.125 361.672,712.1625 L361.672,711.2875 Q361.672,710.2875 362.147,709.4125 Q362.6345,708.5375 363.472,708.075 Q364.322,707.6 365.272,707.6 Q365.847,707.6 366.347,707.8 Q366.847,708 367.272,708.4 Z " fill="#000000"/><text fill="#000000" font-family="sans-serif" font-size="9.6" lengthAdjust="spacing" textLength="40" x="382.072" y="715.1281">TestType</text><line style="stroke:#A80036;stroke-width:1.2000000000000002;" x1="279.872" x2="498.272" y1="724" y2="724"/><text fill="#000000" font-family="sans-serif" font-size="8.8" lengthAdjust="spacing" textLength="47.2" x="283.872" y="736.3352">-String code</text><text fill="#000000" font-family="sans-serif" font-size="8.8" lengthAdjust="spacing" textLength="70.4" x="283.872" y="747.4039">-String description</text><text fill="#000000" font-family="sans-serif" font-size="8.8" lengthAdjust="spacing" textLength="92" x="283.872" y="758.4727">-String collectingMethod</text><text fill="#000000" font-family="sans-serif" font-size="8.8" lengthAdjust="spacing" textLength="210.4" x="283.872" y="769.5414">-List&lt;ParameterCategories&gt; listOfParameterCategories</text><line style="stroke:#A80036;stroke-width:1.2000000000000002;" x1="279.872" x2="498.272" y1="774.675" y2="774.675"/><!--MD5=[d0024740988d3925690046e9afae9c9c]
class TestTypeDTO--><rect codeLine="70" fill="#FEFECE" filter="url(#f1qta3ln90cpxk)" height="82.675" id="TestTypeDTO" style="stroke:#A80036;stroke-width:1.2000000000000002;" width="220" x="746.272" y="348"/><ellipse cx="822.872" cy="360.8" fill="#ADD1B2" rx="8.8" ry="8.8" style="stroke:#A80036;stroke-width:0.8;"/><path d="M824.472,358 Q824.6345,357.6 824.822,357.4 Q825.0095,357.2 825.222,357.2 Q825.597,357.2 825.8345,357.425 Q826.072,357.65 826.072,358.175 L826.072,359.425 Q826.072,359.95 825.847,360.175 Q825.622,360.4 825.272,360.4 Q824.9595,360.4 824.7595,360.2625 Q824.5595,360.125 824.472,359.7625 Q824.4345,359.5125 824.297,359.375 Q824.047,359.1125 823.597,358.9625 Q823.147,358.8 822.697,358.8 Q822.1345,358.8 821.6595,359.025 Q821.197,359.25 820.8345,359.75 Q820.472,360.25 820.472,360.9375 L820.472,361.675 Q820.472,362.5 821.147,363.05 Q821.822,363.6 823.022,363.6 Q823.7345,363.6 824.2345,363.4375 Q824.522,363.35 824.847,363.0625 Q825.0595,362.9 825.172,362.85 Q825.2845,362.8 825.422,362.8 Q825.6845,362.8 825.872,363.0125 Q826.072,363.2125 826.072,363.5 Q826.072,363.775 825.797,364.1 Q825.397,364.575 824.7595,364.8375 Q823.922,365.2 822.897,365.2 Q821.697,365.2 820.7345,364.725 Q819.9595,364.35 819.4095,363.5375 Q818.872,362.725 818.872,361.7625 L818.872,360.8875 Q818.872,359.8875 819.347,359.0125 Q819.8345,358.1375 820.672,357.675 Q821.522,357.2 822.472,357.2 Q823.047,357.2 823.547,357.4 Q824.047,357.6 824.472,358 Z " fill="#000000"/><text fill="#000000" font-family="sans-serif" font-size="9.6" lengthAdjust="spacing" textLength="60" x="839.272" y="364.7281">TestTypeDTO</text><line style="stroke:#A80036;stroke-width:1.2000000000000002;" x1="747.072" x2="965.472" y1="373.6" y2="373.6"/><text fill="#000000" font-family="sans-serif" font-size="8.8" lengthAdjust="spacing" textLength="47.2" x="751.072" y="385.9352">-String code</text><text fill="#000000" font-family="sans-serif" font-size="8.8" lengthAdjust="spacing" textLength="70.4" x="751.072" y="397.0039">-String description</text><text fill="#000000" font-family="sans-serif" font-size="8.8" lengthAdjust="spacing" textLength="92" x="751.072" y="408.0727">-String collectingMethod</text><text fill="#000000" font-family="sans-serif" font-size="8.8" lengthAdjust="spacing" textLength="210.4" x="751.072" y="419.1414">-List&lt;ParameterCategories&gt; listOfParameterCategories</text><line style="stroke:#A80036;stroke-width:1.2000000000000002;" x1="747.072" x2="965.472" y1="424.275" y2="424.275"/><!--MD5=[7f27f858498b73faf6020cfd30bff5b2]
link CreateClinicalAnalysisLaboratoryUI to CreateClinicalAnalysisLaboratoryController--><path codeLine="82" d="M594.768,44.024 C558.344,57.16 508.144,75.264 463.672,91.296 " fill="none" id="CreateClinicalAnalysisLaboratoryUI-to-CreateClinicalAnalysisLaboratoryController" style="stroke:#A80036;stroke-width:0.8;stroke-dasharray:7.0,7.0;"/><polygon fill="#A80036" points="459.664,92.736,467.5226,93.3038,463.4268,91.3791,465.3516,87.2833,459.664,92.736" style="stroke:#A80036;stroke-width:0.8;"/><!--MD5=[2bd3c658c63a30a0f3413ac5831e9b35]
link CreateClinicalAnalysisLaboratoryUI to ClinicalAnalysisLaboratoryDTO--><path codeLine="83" d="M644.104,44.256 C639.536,90.28 626.072,212.752 603.472,312.8 C602.016,319.232 600.296,325.912 598.448,332.52 " fill="none" id="CreateClinicalAnalysisLaboratoryUI-to-ClinicalAnalysisLaboratoryDTO" style="stroke:#A80036;stroke-width:0.8;stroke-dasharray:7.0,7.0;"/><polygon fill="#A80036" points="597.288,336.624,602.3215,330.5623,598.3733,332.774,596.1616,328.8258,597.288,336.624" style="stroke:#A80036;stroke-width:0.8;"/><!--MD5=[8bc37d60e48a0f8ca80a59740d5a27b7]
link CreateClinicalAnalysisLaboratoryUI to TestTypeDTO--><path codeLine="84" d="M665.376,44.056 C697.88,75.8 763.264,144.064 801.072,213.6 C823.656,255.144 838.624,307.352 847.2,343.848 " fill="none" id="CreateClinicalAnalysisLaboratoryUI-to-TestTypeDTO" style="stroke:#A80036;stroke-width:0.8;stroke-dasharray:7.0,7.0;"/><polygon fill="#A80036" points="848.112,347.768,849.6044,340.0316,847.2092,343.8712,843.3696,341.476,848.112,347.768" style="stroke:#A80036;stroke-width:0.8;"/><!--MD5=[65adc60f3fa6e02aaadab8d72bd65ef9]
link CreateClinicalAnalysisLaboratoryController to ClinicalAnalysisLaboratoryDTO--><path codeLine="85" d="M469.192,155.632 C500.344,168.24 531.528,186.712 552.272,213.6 C578.176,247.176 584.288,295.336 584.424,332.608 " fill="none" id="CreateClinicalAnalysisLaboratoryController-to-ClinicalAnalysisLaboratoryDTO" style="stroke:#A80036;stroke-width:0.8;stroke-dasharray:7.0,7.0;"/><polygon fill="#A80036" points="584.416,336.632,587.6366,329.4412,584.4274,332.632,581.2366,329.4229,584.416,336.632" style="stroke:#A80036;stroke-width:0.8;"/><!--MD5=[a9680a0d2232c0a37b6721baa8733a0b]
link CreateClinicalAnalysisLaboratoryController to Company--><path codeLine="86" d="M280.44,164.944 C263.608,172.576 246.08,180.776 229.872,188.8 C215.584,195.88 200.376,203.896 186.24,211.56 " fill="none" id="CreateClinicalAnalysisLaboratoryController-to-Company" style="stroke:#A80036;stroke-width:0.8;stroke-dasharray:7.0,7.0;"/><polygon fill="#A80036" points="182.672,213.496,190.5243,212.8468,186.181,211.5758,187.452,207.2325,182.672,213.496" style="stroke:#A80036;stroke-width:0.8;"/><!--MD5=[09926c1a9fb0a07a44c53a2bf1628286]
link CreateClinicalAnalysisLaboratoryController to TestTypeStore--><path codeLine="87" d="M254.528,143.216 C170.84,156.296 64.496,179.192 37.872,213.6 C4.8,256.336 30.04,322.904 49.056,360.352 " fill="none" id="CreateClinicalAnalysisLaboratoryController-to-TestTypeStore" style="stroke:#A80036;stroke-width:0.8;stroke-dasharray:7.0,7.0;"/><polygon fill="#A80036" points="50.992,364.112,50.5539,356.2451,49.1667,360.5527,44.8591,359.1655,50.992,364.112" style="stroke:#A80036;stroke-width:0.8;"/><!--MD5=[70095366c829f4ac12adfdb0b11a15fb]
link CreateClinicalAnalysisLaboratoryController to ClinicalAnalysisLaboratoryMapper--><path codeLine="88" d="M389.48,164.92 C402.264,181.272 417.216,200.4 429.144,215.664 " fill="none" id="CreateClinicalAnalysisLaboratoryController-to-ClinicalAnalysisLaboratoryMapper" style="stroke:#A80036;stroke-width:0.8;stroke-dasharray:7.0,7.0;"/><polygon fill="#A80036" points="431.8,219.056,429.8826,211.4138,429.3348,215.906,424.8426,215.3582,431.8,219.056" style="stroke:#A80036;stroke-width:0.8;"/><!--MD5=[32ed6f3568757b51f8568a41374af776]
link CreateClinicalAnalysisLaboratoryController to ClinicalAnalysisLaboratoryStore--><path codeLine="89" d="M356.296,164.928 C353.984,179.92 351.312,197.6 349.072,213.6 C342.568,259.984 335.832,313.408 331.464,348.864 " fill="none" id="CreateClinicalAnalysisLaboratoryController-to-ClinicalAnalysisLaboratoryStore" style="stroke:#A80036;stroke-width:0.8;stroke-dasharray:7.0,7.0;"/><polygon fill="#A80036" points="330.976,352.88,335.0372,346.1282,331.4679,348.9104,328.6857,345.3411,330.976,352.88" style="stroke:#A80036;stroke-width:0.8;"/><!--MD5=[4c80101412f9622c67d2b06c2311558b]
link CreateClinicalAnalysisLaboratoryController to ClinicalAnalysisLaboratory--><path codeLine="90" d="M325.16,164.952 C268.936,223.568 173.12,344.088 224.272,441.6 C238.72,469.144 264.264,490.76 290.152,506.92 " fill="none" id="CreateClinicalAnalysisLaboratoryController-to-ClinicalAnalysisLaboratory" style="stroke:#A80036;stroke-width:0.8;stroke-dasharray:7.0,7.0;"/><polygon fill="#A80036" points="293.64,509.056,289.1791,502.5614,290.2314,506.9628,285.83,508.0151,293.64,509.056" style="stroke:#A80036;stroke-width:0.8;"/><!--MD5=[4f1bb0742f4cdb049ce2667d1c8828c9]
link CreateClinicalAnalysisLaboratoryController to TestTypeMapper--><path codeLine="91" d="M469.312,154.04 C509.216,163.848 554.688,175.888 595.472,188.8 C625.416,198.28 658.192,210.656 684.744,221.208 " fill="none" id="CreateClinicalAnalysisLaboratoryController-to-TestTypeMapper" style="stroke:#A80036;stroke-width:0.8;stroke-dasharray:7.0,7.0;"/><polygon fill="#A80036" points="688.616,222.752,683.1194,217.1069,684.9021,221.2664,680.7425,223.0491,688.616,222.752" style="stroke:#A80036;stroke-width:0.8;"/><!--MD5=[2dad08ae384f93453eb1ba4eb26732f1]
link ClinicalAnalysisLaboratoryStore to ClinicalAnalysisLaboratory--><path codeLine="92" d="M337.32,425.424 C344.48,449.256 353.928,480.688 361.312,505.256 " fill="none" id="ClinicalAnalysisLaboratoryStore-to-ClinicalAnalysisLaboratory" style="stroke:#A80036;stroke-width:0.8;"/><polygon fill="#A80036" points="362.48,509.144,363.4868,501.3295,361.3359,505.3111,357.3542,503.1601,362.48,509.144" style="stroke:#A80036;stroke-width:0.8;"/><text fill="#000000" font-family="sans-serif" font-size="10.4" lengthAdjust="spacing" textLength="42.4" x="353.872" y="477.1961">conducts</text><text fill="#000000" font-family="sans-serif" font-size="10.4" lengthAdjust="spacing" textLength="5.6" x="332.7746" y="441.993">1</text><text fill="#000000" font-family="sans-serif" font-size="10.4" lengthAdjust="spacing" textLength="5.6" x="354.7457" y="500.4275">1</text><!--MD5=[e284e91db30362f23fd6ce34ffcc83e7]
reverse link Laboratory to ClinicalAnalysisLaboratory--><path codeLine="93" d="M201.664,545.2 C205.704,545.2 209.744,545.2 213.784,545.2 " fill="none" id="Laboratory-backto-ClinicalAnalysisLaboratory" style="stroke:#A80036;stroke-width:0.8;"/><polygon fill="none" points="201.584,550.8,185.584,545.2,201.584,539.6,201.584,550.8" style="stroke:#A80036;stroke-width:0.8;"/><!--MD5=[0883f0204777d2b70d64271e12381109]
link ClinicalAnalysisLaboratoryMapper to ClinicalAnalysisLaboratoryDTO--><path codeLine="94" d="M472.368,268.832 C488.296,286.488 510.584,311.184 530.776,333.56 " fill="none" id="ClinicalAnalysisLaboratoryMapper-to-ClinicalAnalysisLaboratoryDTO" style="stroke:#A80036;stroke-width:0.8;stroke-dasharray:7.0,7.0;"/><polygon fill="#A80036" points="533.48,336.552,531.042,329.0596,530.8041,333.5788,526.2849,333.341,533.48,336.552" style="stroke:#A80036;stroke-width:0.8;"/><!--MD5=[9b3c5737575fe452b44ed997296ffd7a]
link ClinicalAnalysisLaboratoryMapper to ClinicalAnalysisLaboratory--><path codeLine="95" d="M451,269.04 C450.848,306.808 447.904,381.584 429.072,441.6 C422.088,463.872 410.096,486.848 399,505.416 " fill="none" id="ClinicalAnalysisLaboratoryMapper-to-ClinicalAnalysisLaboratory" style="stroke:#A80036;stroke-width:0.8;stroke-dasharray:7.0,7.0;"/><polygon fill="#A80036" points="396.792,509.072,403.2514,504.5602,398.8584,505.6471,397.7715,501.254,396.792,509.072" style="stroke:#A80036;stroke-width:0.8;"/><!--MD5=[141c3afa12b2b3c0a39ffce56dbd5f19]
link Company to TestTypeStore--><path codeLine="96" d="M114.92,274.432 C111.104,282.192 107.064,290.576 103.472,298.4 C94.008,319.008 83.968,342.6 76.536,360.456 " fill="none" id="Company-to-TestTypeStore" style="stroke:#A80036;stroke-width:0.8;"/><polygon fill="#A80036" points="74.984,364.176,80.713,358.7669,76.5265,360.4854,74.808,356.2989,74.984,364.176" style="stroke:#A80036;stroke-width:0.8;"/><text fill="#000000" font-family="sans-serif" font-size="10.4" lengthAdjust="spacing" textLength="22.4" x="104.272" y="309.9961">uses</text><text fill="#000000" font-family="sans-serif" font-size="10.4" lengthAdjust="spacing" textLength="5.6" x="106.3798" y="291.3734">1</text><text fill="#000000" font-family="sans-serif" font-size="10.4" lengthAdjust="spacing" textLength="5.6" x="70.8509" y="355.7334">1</text><!--MD5=[f379172a0573607dd0ae1a4ea50b9294]
link Company to ClinicalAnalysisLaboratoryStore--><path codeLine="97" d="M170.648,274.552 C200.848,296.592 242.224,326.784 274.784,350.536 " fill="none" id="Company-to-ClinicalAnalysisLaboratoryStore" style="stroke:#A80036;stroke-width:0.8;"/><polygon fill="#A80036" points="278.304,353.104,274.3661,346.2796,275.07,350.75,270.5996,351.4539,278.304,353.104" style="stroke:#A80036;stroke-width:0.8;"/><text fill="#000000" font-family="sans-serif" font-size="10.4" lengthAdjust="spacing" textLength="22.4" x="223.472" y="309.9961">uses</text><text fill="#000000" font-family="sans-serif" font-size="10.4" lengthAdjust="spacing" textLength="5.6" x="171.1004" y="291.2806">1</text><text fill="#000000" font-family="sans-serif" font-size="10.4" lengthAdjust="spacing" textLength="5.6" x="264.8689" y="344.6446">1</text><!--MD5=[3eebf0e5f359806b77b30e9524c37676]
link TestTypeStore to TestType--><path codeLine="98" d="M62,414.32 C58.304,454.192 56.632,534.224 93.872,586.4 C137.072,646.928 211.64,685.144 275.016,708.168 " fill="none" id="TestTypeStore-to-TestType" style="stroke:#A80036;stroke-width:0.8;"/><polygon fill="#A80036" points="278.792,709.528,273.0951,704.0851,275.0268,708.1776,270.9344,710.1094,278.792,709.528" style="stroke:#A80036;stroke-width:0.8;"/><text fill="#000000" font-family="sans-serif" font-size="10.4" lengthAdjust="spacing" textLength="42.4" x="129.072" y="621.9961">conducts</text><text fill="#000000" font-family="sans-serif" font-size="10.4" lengthAdjust="spacing" textLength="5.6" x="55.2806" y="431.1639">1</text><text fill="#000000" font-family="sans-serif" font-size="10.4" lengthAdjust="spacing" textLength="4" x="268.6517" y="705.5297">*</text><!--MD5=[a3b705e4e3f391aa28b18ef9a5fd28a9]
link TestTypeMapper to TestType--><path codeLine="99" d="M728.384,269.024 C718.2,297.232 703.472,345.456 703.472,388.4 C703.472,388.4 703.472,388.4 703.472,649.6 C703.472,692.616 593.184,715.968 503.248,727.856 " fill="none" id="TestTypeMapper-to-TestType" style="stroke:#A80036;stroke-width:0.8;stroke-dasharray:7.0,7.0;"/><polygon fill="#A80036" points="499.256,728.384,506.8077,730.6315,503.2228,727.8696,505.9847,724.2846,499.256,728.384" style="stroke:#A80036;stroke-width:0.8;"/><!--MD5=[a866f4e758874d18eed8ecae1602bb43]
link TestTypeMapper to TestTypeDTO--><path codeLine="100" d="M757.688,268.832 C774.704,289.464 799.648,319.728 820.192,344.64 " fill="none" id="TestTypeMapper-to-TestTypeDTO" style="stroke:#A80036;stroke-width:0.8;stroke-dasharray:7.0,7.0;"/><polygon fill="#A80036" points="822.936,347.968,820.8488,340.3704,820.4012,344.8737,815.8979,344.4261,822.936,347.968" style="stroke:#A80036;stroke-width:0.8;"/><!--MD5=[4d916ad1d6ee599b00a3c525d49b050d]
@startuml
skinparam classAttributeIconSize 0

class CreateClinicalAnalysisLaboratoryUI{
}

class CreateClinicalAnalysisLaboratoryController{
  +createClinicalAnalysisLaboratory(calDTO))
  +getTestTypeList()
  +saveClinicalAnalysisLaboratory(cal)
}

class Company{
  +getClinicalAnalysisLaboratoryStore()
  +getTestTypeStore()
}


class ClinicalAnalysisLaboratory {
  -String laboratoryId
  -List<TestType> listOfTestTypes
  create (name, address, phoneNumber , TIN ,laboratoryId,selectedTestTypesList)


}

class Laboratory {
  -String name
  -String address
  -int phoneNumber
  -int tin

}

class TestTypeStore{
+getTestTypeList()
}

class ClinicalAnalysisLaboratoryStore{
  +createClinicalAnalysisLaboratory(calDTO)
  +validateClinicalAnalysisLaboratory(cal)
  +addClinicalAnalysisLaboratory(cal)
}

class ClinicalAnalysisLaboratoryMapper {
   +toDTO(listTestType)

}

class TestTypeMapper {
   +toDTO(listTestType)
}


class ClinicalAnalysisLaboratoryDTO {
  -String name
  -String address
  -int phoneNumber
  -int tin
  -String laboratoryId
  -List<TestType> listOfTestTypes
}

class TestType{
  -String code
  -String description
  -String collectingMethod
  -List<ParameterCategories> listOfParameterCategories
}

class TestTypeDTO{
  -String code
  -String description
  -String collectingMethod
  -List<ParameterCategories> listOfParameterCategories
}






CreateClinicalAnalysisLaboratoryUI ..> CreateClinicalAnalysisLaboratoryController
CreateClinicalAnalysisLaboratoryUI ..> ClinicalAnalysisLaboratoryDTO
CreateClinicalAnalysisLaboratoryUI ..> TestTypeDTO
CreateClinicalAnalysisLaboratoryController ..> ClinicalAnalysisLaboratoryDTO
CreateClinicalAnalysisLaboratoryController ..> Company
CreateClinicalAnalysisLaboratoryController ...> TestTypeStore
CreateClinicalAnalysisLaboratoryController ..> ClinicalAnalysisLaboratoryMapper
CreateClinicalAnalysisLaboratoryController ..> ClinicalAnalysisLaboratoryStore
CreateClinicalAnalysisLaboratoryController ..> ClinicalAnalysisLaboratory
CreateClinicalAnalysisLaboratoryController ..> TestTypeMapper
ClinicalAnalysisLaboratoryStore"1" - -> "1" ClinicalAnalysisLaboratory : conducts
Laboratory  <|- ClinicalAnalysisLaboratory
ClinicalAnalysisLaboratoryMapper ..> ClinicalAnalysisLaboratoryDTO
ClinicalAnalysisLaboratoryMapper ...> ClinicalAnalysisLaboratory
Company "1" - -> "1" TestTypeStore : uses
Company "1" - -> "1" ClinicalAnalysisLaboratoryStore : uses
TestTypeStore "1" - -> "*" TestType : conducts
TestTypeMapper .....> TestType
TestTypeMapper ..> TestTypeDTO
@enduml

PlantUML version 1.2021.00(Sun Jan 10 10:25:05 GMT 2021)
(GPL source distribution)
Java Runtime: OpenJDK Runtime Environment
JVM: OpenJDK 64-Bit Server VM
Default Encoding: Cp1252
Language: pt
Country: PT
--></g></svg>