<?xml version="1.0" encoding="UTF-8" standalone="no"?><svg xmlns="http://www.w3.org/2000/svg" xmlns:xlink="http://www.w3.org/1999/xlink" contentScriptType="application/ecmascript" contentStyleType="text/css" height="278.4px" preserveAspectRatio="none" style="width:700px;height:278px;" version="1.1" viewBox="0 0 700 278" width="700px" zoomAndPan="magnify"><defs><filter height="300%" id="f6qgeeapyv92z" width="300%" x="-1" y="-1"><feGaussianBlur result="blurOut" stdDeviation="1.6"/><feColorMatrix in="blurOut" result="blurOut2" type="matrix" values="0 0 0 0 0 0 0 0 0 0 0 0 0 0 0 0 0 0 .4 0"/><feOffset dx="3.2" dy="3.2" in="blurOut2" result="blurOut3"/><feBlend in="SourceGraphic" in2="blurOut3" mode="normal"/></filter></defs><g><!--MD5=[02e4b9b7573f1156f41e60aa5b4e25a4]
class Company--><rect codeLine="7" fill="#FEFECE" filter="url(#f6qgeeapyv92z)" height="87.3438" id="Company" style="stroke:#A80036;stroke-width:1.2000000000000002;" width="68" x="263.2" y="66"/><ellipse cx="275.2" cy="78.8" fill="#ADD1B2" rx="8.8" ry="8.8" style="stroke:#A80036;stroke-width:0.8;"/><path d="M276.8,76 Q276.9625,75.6 277.15,75.4 Q277.3375,75.2 277.55,75.2 Q277.925,75.2 278.1625,75.425 Q278.4,75.65 278.4,76.175 L278.4,77.425 Q278.4,77.95 278.175,78.175 Q277.95,78.4 277.6,78.4 Q277.2875,78.4 277.0875,78.2625 Q276.8875,78.125 276.8,77.7625 Q276.7625,77.5125 276.625,77.375 Q276.375,77.1125 275.925,76.9625 Q275.475,76.8 275.025,76.8 Q274.4625,76.8 273.9875,77.025 Q273.525,77.25 273.1625,77.75 Q272.8,78.25 272.8,78.9375 L272.8,79.675 Q272.8,80.5 273.475,81.05 Q274.15,81.6 275.35,81.6 Q276.0625,81.6 276.5625,81.4375 Q276.85,81.35 277.175,81.0625 Q277.3875,80.9 277.5,80.85 Q277.6125,80.8 277.75,80.8 Q278.0125,80.8 278.2,81.0125 Q278.4,81.2125 278.4,81.5 Q278.4,81.775 278.125,82.1 Q277.725,82.575 277.0875,82.8375 Q276.25,83.2 275.225,83.2 Q274.025,83.2 273.0625,82.725 Q272.2875,82.35 271.7375,81.5375 Q271.2,80.725 271.2,79.7625 L271.2,78.8875 Q271.2,77.8875 271.675,77.0125 Q272.1625,76.1375 273,75.675 Q273.85,75.2 274.8,75.2 Q275.375,75.2 275.875,75.4 Q276.375,75.6 276.8,76 Z " fill="#000000"/><text fill="#000000" font-family="sans-serif" font-size="9.6" lengthAdjust="spacing" textLength="42.4" x="286.4" y="82.7281">Company</text><line style="stroke:#A80036;stroke-width:1.2000000000000002;" x1="264" x2="330.4" y1="91.6" y2="91.6"/><text fill="#000000" font-family="sans-serif" font-size="8.8" lengthAdjust="spacing" textLength="24" x="268" y="103.9352">-name</text><text fill="#000000" font-family="sans-serif" font-size="8.8" lengthAdjust="spacing" textLength="47.2" x="268" y="115.0039">-designation</text><text fill="#000000" font-family="sans-serif" font-size="8.8" lengthAdjust="spacing" textLength="37.6" x="268" y="126.0727">-category</text><text fill="#000000" font-family="sans-serif" font-size="8.8" lengthAdjust="spacing" textLength="35.2" x="268" y="137.1414">-address</text><text fill="#000000" font-family="sans-serif" font-size="8.8" lengthAdjust="spacing" textLength="55.2" x="268" y="148.2102">-headquarters</text><!--MD5=[0caf3a413731a0de34fc6162fe213ed9]
class Laboratory--><rect codeLine="15" fill="#FEFECE" filter="url(#f6qgeeapyv92z)" height="76.275" id="Laboratory" style="stroke:#A80036;stroke-width:1.2000000000000002;" width="72" x="592" y="71.6"/><ellipse cx="604" cy="84.4" fill="#ADD1B2" rx="8.8" ry="8.8" style="stroke:#A80036;stroke-width:0.8;"/><path d="M605.6,81.6 Q605.7625,81.2 605.95,81 Q606.1375,80.8 606.35,80.8 Q606.725,80.8 606.9625,81.025 Q607.2,81.25 607.2,81.775 L607.2,83.025 Q607.2,83.55 606.975,83.775 Q606.75,84 606.4,84 Q606.0875,84 605.8875,83.8625 Q605.6875,83.725 605.6,83.3625 Q605.5625,83.1125 605.425,82.975 Q605.175,82.7125 604.725,82.5625 Q604.275,82.4 603.825,82.4 Q603.2625,82.4 602.7875,82.625 Q602.325,82.85 601.9625,83.35 Q601.6,83.85 601.6,84.5375 L601.6,85.275 Q601.6,86.1 602.275,86.65 Q602.95,87.2 604.15,87.2 Q604.8625,87.2 605.3625,87.0375 Q605.65,86.95 605.975,86.6625 Q606.1875,86.5 606.3,86.45 Q606.4125,86.4 606.55,86.4 Q606.8125,86.4 607,86.6125 Q607.2,86.8125 607.2,87.1 Q607.2,87.375 606.925,87.7 Q606.525,88.175 605.8875,88.4375 Q605.05,88.8 604.025,88.8 Q602.825,88.8 601.8625,88.325 Q601.0875,87.95 600.5375,87.1375 Q600,86.325 600,85.3625 L600,84.4875 Q600,83.4875 600.475,82.6125 Q600.9625,81.7375 601.8,81.275 Q602.65,80.8 603.6,80.8 Q604.175,80.8 604.675,81 Q605.175,81.2 605.6,81.6 Z " fill="#000000"/><text fill="#000000" font-family="sans-serif" font-size="9.6" lengthAdjust="spacing" textLength="46.4" x="615.2" y="88.3281">Laboratory</text><line style="stroke:#A80036;stroke-width:1.2000000000000002;" x1="592.8" x2="663.2" y1="97.2" y2="97.2"/><text fill="#000000" font-family="sans-serif" font-size="8.8" lengthAdjust="spacing" textLength="24" x="596.8" y="109.5352">-name</text><text fill="#000000" font-family="sans-serif" font-size="8.8" lengthAdjust="spacing" textLength="35.2" x="596.8" y="120.6039">-address</text><text fill="#000000" font-family="sans-serif" font-size="8.8" lengthAdjust="spacing" textLength="56.8" x="596.8" y="131.6727">-phoneNumber</text><text fill="#000000" font-family="sans-serif" font-size="8.8" lengthAdjust="spacing" textLength="12" x="596.8" y="142.7414">-tin</text><!--MD5=[1934a092c0e7d4da7dc7075b6f4b6b03]
class ClinicalAnalysisLaboratory--><rect codeLine="22" fill="#FEFECE" filter="url(#f6qgeeapyv92z)" height="43.0688" id="ClinicalAnalysisLaboratory" style="stroke:#A80036;stroke-width:1.2000000000000002;" width="141.6" x="226.4" y="191.2"/><ellipse cx="238.4" cy="204" fill="#ADD1B2" rx="8.8" ry="8.8" style="stroke:#A80036;stroke-width:0.8;"/><path d="M240,201.2 Q240.1625,200.8 240.35,200.6 Q240.5375,200.4 240.75,200.4 Q241.125,200.4 241.3625,200.625 Q241.6,200.85 241.6,201.375 L241.6,202.625 Q241.6,203.15 241.375,203.375 Q241.15,203.6 240.8,203.6 Q240.4875,203.6 240.2875,203.4625 Q240.0875,203.325 240,202.9625 Q239.9625,202.7125 239.825,202.575 Q239.575,202.3125 239.125,202.1625 Q238.675,202 238.225,202 Q237.6625,202 237.1875,202.225 Q236.725,202.45 236.3625,202.95 Q236,203.45 236,204.1375 L236,204.875 Q236,205.7 236.675,206.25 Q237.35,206.8 238.55,206.8 Q239.2625,206.8 239.7625,206.6375 Q240.05,206.55 240.375,206.2625 Q240.5875,206.1 240.7,206.05 Q240.8125,206 240.95,206 Q241.2125,206 241.4,206.2125 Q241.6,206.4125 241.6,206.7 Q241.6,206.975 241.325,207.3 Q240.925,207.775 240.2875,208.0375 Q239.45,208.4 238.425,208.4 Q237.225,208.4 236.2625,207.925 Q235.4875,207.55 234.9375,206.7375 Q234.4,205.925 234.4,204.9625 L234.4,204.0875 Q234.4,203.0875 234.875,202.2125 Q235.3625,201.3375 236.2,200.875 Q237.05,200.4 238,200.4 Q238.575,200.4 239.075,200.6 Q239.575,200.8 240,201.2 Z " fill="#000000"/><text fill="#000000" font-family="sans-serif" font-size="9.6" lengthAdjust="spacing" textLength="116" x="249.6" y="207.9281">ClinicalAnalysisLaboratory</text><line style="stroke:#A80036;stroke-width:1.2000000000000002;" x1="227.2" x2="367.2" y1="216.8" y2="216.8"/><text fill="#000000" font-family="sans-serif" font-size="8.8" lengthAdjust="spacing" textLength="48.8" x="231.2" y="229.1352">-laboratoryId</text><!--MD5=[df38be88ccee13e832d6fafd6288a4ca]
class Test--><rect codeLine="26" fill="#FEFECE" filter="url(#f6qgeeapyv92z)" height="87.3438" id="Test" style="stroke:#A80036;stroke-width:1.2000000000000002;" width="121.6" x="567.2" y="179.6"/><ellipse cx="615" cy="192.4" fill="#ADD1B2" rx="8.8" ry="8.8" style="stroke:#A80036;stroke-width:0.8;"/><path d="M616.6,189.6 Q616.7625,189.2 616.95,189 Q617.1375,188.8 617.35,188.8 Q617.725,188.8 617.9625,189.025 Q618.2,189.25 618.2,189.775 L618.2,191.025 Q618.2,191.55 617.975,191.775 Q617.75,192 617.4,192 Q617.0875,192 616.8875,191.8625 Q616.6875,191.725 616.6,191.3625 Q616.5625,191.1125 616.425,190.975 Q616.175,190.7125 615.725,190.5625 Q615.275,190.4 614.825,190.4 Q614.2625,190.4 613.7875,190.625 Q613.325,190.85 612.9625,191.35 Q612.6,191.85 612.6,192.5375 L612.6,193.275 Q612.6,194.1 613.275,194.65 Q613.95,195.2 615.15,195.2 Q615.8625,195.2 616.3625,195.0375 Q616.65,194.95 616.975,194.6625 Q617.1875,194.5 617.3,194.45 Q617.4125,194.4 617.55,194.4 Q617.8125,194.4 618,194.6125 Q618.2,194.8125 618.2,195.1 Q618.2,195.375 617.925,195.7 Q617.525,196.175 616.8875,196.4375 Q616.05,196.8 615.025,196.8 Q613.825,196.8 612.8625,196.325 Q612.0875,195.95 611.5375,195.1375 Q611,194.325 611,193.3625 L611,192.4875 Q611,191.4875 611.475,190.6125 Q611.9625,189.7375 612.8,189.275 Q613.65,188.8 614.6,188.8 Q615.175,188.8 615.675,189 Q616.175,189.2 616.6,189.6 Z " fill="#000000"/><text fill="#000000" font-family="sans-serif" font-size="9.6" lengthAdjust="spacing" textLength="19.2" x="631.4" y="196.3281">Test</text><line style="stroke:#A80036;stroke-width:1.2000000000000002;" x1="568" x2="688" y1="205.2" y2="205.2"/><text fill="#000000" font-family="sans-serif" font-size="8.8" lengthAdjust="spacing" textLength="51.2" x="572" y="217.5352">-internalCode</text><text fill="#000000" font-family="sans-serif" font-size="8.8" lengthAdjust="spacing" textLength="37.6" x="572" y="228.6039">-nhsCode</text><text fill="#000000" font-family="sans-serif" font-size="8.8" lengthAdjust="spacing" textLength="45.6" x="572" y="239.6727">-description</text><text fill="#000000" font-family="sans-serif" font-size="8.8" lengthAdjust="spacing" textLength="112" x="572" y="250.7414">-dateValidationLabCordinator</text><text fill="#000000" font-family="sans-serif" font-size="8.8" lengthAdjust="spacing" textLength="110.4" x="572" y="261.8102">-timeValidationLabCordinator</text><!--MD5=[a64badb107d3691f2dc6af242cdbeb21]
class ChemicalLaboratory--><rect codeLine="34" fill="#FEFECE" filter="url(#f6qgeeapyv92z)" height="32" id="ChemicalLaboratory" style="stroke:#A80036;stroke-width:1.2000000000000002;" width="114.4" x="240" y="5.6"/><ellipse cx="252" cy="18.4" fill="#ADD1B2" rx="8.8" ry="8.8" style="stroke:#A80036;stroke-width:0.8;"/><path d="M253.6,15.6 Q253.7625,15.2 253.95,15 Q254.1375,14.8 254.35,14.8 Q254.725,14.8 254.9625,15.025 Q255.2,15.25 255.2,15.775 L255.2,17.025 Q255.2,17.55 254.975,17.775 Q254.75,18 254.4,18 Q254.0875,18 253.8875,17.8625 Q253.6875,17.725 253.6,17.3625 Q253.5625,17.1125 253.425,16.975 Q253.175,16.7125 252.725,16.5625 Q252.275,16.4 251.825,16.4 Q251.2625,16.4 250.7875,16.625 Q250.325,16.85 249.9625,17.35 Q249.6,17.85 249.6,18.5375 L249.6,19.275 Q249.6,20.1 250.275,20.65 Q250.95,21.2 252.15,21.2 Q252.8625,21.2 253.3625,21.0375 Q253.65,20.95 253.975,20.6625 Q254.1875,20.5 254.3,20.45 Q254.4125,20.4 254.55,20.4 Q254.8125,20.4 255,20.6125 Q255.2,20.8125 255.2,21.1 Q255.2,21.375 254.925,21.7 Q254.525,22.175 253.8875,22.4375 Q253.05,22.8 252.025,22.8 Q250.825,22.8 249.8625,22.325 Q249.0875,21.95 248.5375,21.1375 Q248,20.325 248,19.3625 L248,18.4875 Q248,17.4875 248.475,16.6125 Q248.9625,15.7375 249.8,15.275 Q250.65,14.8 251.6,14.8 Q252.175,14.8 252.675,15 Q253.175,15.2 253.6,15.6 Z " fill="#000000"/><text fill="#000000" font-family="sans-serif" font-size="9.6" lengthAdjust="spacing" textLength="88.8" x="263.2" y="22.3281">ChemicalLaboratory</text><line style="stroke:#A80036;stroke-width:1.2000000000000002;" x1="240.8" x2="353.6" y1="31.2" y2="31.2"/><!--MD5=[7421f545a0d8420c5bec41e74b387d9c]
class Employee--><rect codeLine="38" fill="#FEFECE" filter="url(#f6qgeeapyv92z)" height="109.4813" id="Employee" style="stroke:#A80036;stroke-width:1.2000000000000002;" width="76.8" x="5.6" y="158"/><ellipse cx="20.84" cy="170.8" fill="#ADD1B2" rx="8.8" ry="8.8" style="stroke:#A80036;stroke-width:0.8;"/><path d="M22.44,168 Q22.6025,167.6 22.79,167.4 Q22.9775,167.2 23.19,167.2 Q23.565,167.2 23.8025,167.425 Q24.04,167.65 24.04,168.175 L24.04,169.425 Q24.04,169.95 23.815,170.175 Q23.59,170.4 23.24,170.4 Q22.9275,170.4 22.7275,170.2625 Q22.5275,170.125 22.44,169.7625 Q22.4025,169.5125 22.265,169.375 Q22.015,169.1125 21.565,168.9625 Q21.115,168.8 20.665,168.8 Q20.1025,168.8 19.6275,169.025 Q19.165,169.25 18.8025,169.75 Q18.44,170.25 18.44,170.9375 L18.44,171.675 Q18.44,172.5 19.115,173.05 Q19.79,173.6 20.99,173.6 Q21.7025,173.6 22.2025,173.4375 Q22.49,173.35 22.815,173.0625 Q23.0275,172.9 23.14,172.85 Q23.2525,172.8 23.39,172.8 Q23.6525,172.8 23.84,173.0125 Q24.04,173.2125 24.04,173.5 Q24.04,173.775 23.765,174.1 Q23.365,174.575 22.7275,174.8375 Q21.89,175.2 20.865,175.2 Q19.665,175.2 18.7025,174.725 Q17.9275,174.35 17.3775,173.5375 Q16.84,172.725 16.84,171.7625 L16.84,170.8875 Q16.84,169.8875 17.315,169.0125 Q17.8025,168.1375 18.64,167.675 Q19.49,167.2 20.44,167.2 Q21.015,167.2 21.515,167.4 Q22.015,167.6 22.44,168 Z " fill="#000000"/><text fill="#000000" font-family="sans-serif" font-size="9.6" lengthAdjust="spacing" textLength="44" x="32.76" y="174.7281">Employee</text><line style="stroke:#A80036;stroke-width:1.2000000000000002;" x1="6.4" x2="81.6" y1="183.6" y2="183.6"/><text fill="#000000" font-family="sans-serif" font-size="8.8" lengthAdjust="spacing" textLength="24" x="10.4" y="195.9352">-name</text><text fill="#000000" font-family="sans-serif" font-size="8.8" lengthAdjust="spacing" textLength="35.2" x="10.4" y="207.0039">-address</text><text fill="#000000" font-family="sans-serif" font-size="8.8" lengthAdjust="spacing" textLength="56.8" x="10.4" y="218.0727">-phoneNumber</text><text fill="#000000" font-family="sans-serif" font-size="8.8" lengthAdjust="spacing" textLength="22.4" x="10.4" y="229.1414">-email</text><text fill="#000000" font-family="sans-serif" font-size="8.8" lengthAdjust="spacing" textLength="46.4" x="10.4" y="240.2102">-employeeId</text><text fill="#000000" font-family="sans-serif" font-size="8.8" lengthAdjust="spacing" textLength="67.2" x="10.4" y="251.2789">-organizationRole</text><text fill="#000000" font-family="sans-serif" font-size="8.8" lengthAdjust="spacing" textLength="37.6" x="10.4" y="262.3477">-socCode</text><!--MD5=[b921f878c1b19577ef94d929b3e93a58]
link Company to Laboratory--><path codeLine="48" d="M331.376,109.6 C393.904,109.6 528.112,109.6 592,109.6 " fill="none" id="Company-Laboratory" style="stroke:#A80036;stroke-width:0.8;"/><polygon fill="#000000" points="457.6,102.5406,450.3639,100.1895,450.3639,104.8918,457.6,102.5406" style="stroke:#000000;stroke-width:0.8;"/><text fill="#000000" font-family="sans-serif" font-size="10.4" lengthAdjust="spacing" textLength="24" x="460.8" y="106.7961">owns</text><text fill="#000000" font-family="sans-serif" font-size="10.4" lengthAdjust="spacing" textLength="5.6" x="337.5002" y="121.4675">1</text><text fill="#000000" font-family="sans-serif" font-size="10.4" lengthAdjust="spacing" textLength="16" x="569.5375" y="121.3366">1..*</text><!--MD5=[6d0dfcacb99e5b6ea3de933623cb0bd1]
link ClinicalAnalysisLaboratory to Laboratory--><path codeLine="49" d="M367.008,191.168 C429.56,171.56 520.288,143.112 576.416,125.52 " fill="none" id="ClinicalAnalysisLaboratory-to-Laboratory" style="stroke:#A80036;stroke-width:0.8;"/><polygon fill="none" points="575.024,120.088,591.968,120.648,578.376,130.776,575.024,120.088" style="stroke:#A80036;stroke-width:0.8;"/><!--MD5=[d480452e7d21fe720ba0207568bc7434]
link ClinicalAnalysisLaboratory to Test--><path codeLine="50" d="M368.016,215.008 C427.104,216.88 510.816,219.52 566.952,221.296 " fill="none" id="ClinicalAnalysisLaboratory-Test" style="stroke:#A80036;stroke-width:0.8;"/><polygon fill="#000000" points="449.598,209.867,442.4398,207.2884,442.2913,211.9884,449.598,209.867" style="stroke:#000000;stroke-width:0.8;"/><text fill="#000000" font-family="sans-serif" font-size="10.4" lengthAdjust="spacing" textLength="40" x="452.8" y="213.9961">performs</text><text fill="#000000" font-family="sans-serif" font-size="10.4" lengthAdjust="spacing" textLength="16" x="374.2967" y="226.5065">1..*</text><text fill="#000000" font-family="sans-serif" font-size="10.4" lengthAdjust="spacing" textLength="4" x="556.7457" y="232.5414">*</text><!--MD5=[63451f9551014685060fb7e73cd3ce2b]
link Employee to ClinicalAnalysisLaboratory--><path codeLine="51" d="M82.464,212.8 C120.368,212.8 179.728,212.8 226.312,212.8 " fill="none" id="Employee-ClinicalAnalysisLaboratory" style="stroke:#A80036;stroke-width:0.8;"/><polygon fill="#000000" points="139.2,205.7406,131.9639,203.3895,131.9639,208.0918,139.2,205.7406" style="stroke:#000000;stroke-width:0.8;"/><text fill="#000000" font-family="sans-serif" font-size="10.4" lengthAdjust="spacing" textLength="34.4" x="142.4" y="209.9961">creates</text><text fill="#000000" font-family="sans-serif" font-size="10.4" lengthAdjust="spacing" textLength="5.6" x="88.7826" y="224.6067">1</text><text fill="#000000" font-family="sans-serif" font-size="10.4" lengthAdjust="spacing" textLength="16" x="204.0256" y="224.1225">1..*</text><!--MD5=[ca241da2d6b7ba1ad04f00d8baddcc83]
link ChemicalLaboratory to Laboratory--><path codeLine="52" d="M354.592,36.728 C416.848,53.368 516.016,79.88 576.024,95.92 " fill="none" id="ChemicalLaboratory-to-Laboratory" style="stroke:#A80036;stroke-width:0.8;"/><polygon fill="none" points="577.84,90.608,591.848,100.152,574.944,101.432,577.84,90.608" style="stroke:#A80036;stroke-width:0.8;"/><!--MD5=[0005c5d147ebe21b820fba47e0d7102d]
@startuml
hide methods
left to right direction
skinparam classAttributeIconSize 0



class Company{
-name
-designation
-category
-address
-headquarters
}

class Laboratory {
  -name
  -address
  -phoneNumber
  -tin
}

class ClinicalAnalysisLaboratory {
  -laboratoryId
}

class Test{
-internalCode
-nhsCode
-description
-dateValidationLabCordinator
-timeValidationLabCordinator
}

class ChemicalLaboratory{

}

class Employee{
-name
-address
-phoneNumber
-email
-employeeId
-organizationRole
-socCode
}

Company "1"- - - - "1..*" Laboratory : owns >
ClinicalAnalysisLaboratory - - - -|> Laboratory
ClinicalAnalysisLaboratory "1..*"- - - -"*" Test : performs >
Employee "1"- - -"1..*"ClinicalAnalysisLaboratory : creates >
ChemicalLaboratory - - - -|> Laboratory



@enduml

PlantUML version 1.2021.00(Sun Jan 10 10:25:05 GMT 2021)
(GPL source distribution)
Java Runtime: OpenJDK Runtime Environment
JVM: OpenJDK 64-Bit Server VM
Default Encoding: Cp1252
Language: pt
Country: PT
--></g></svg>