<?xml version="1.0" encoding="UTF-8" standalone="no"?><svg xmlns="http://www.w3.org/2000/svg" xmlns:xlink="http://www.w3.org/1999/xlink" contentScriptType="application/ecmascript" contentStyleType="text/css" height="988.5px" preserveAspectRatio="none" style="width:3423px;height:988px;" version="1.1" viewBox="0 0 3423 988" width="3423px" zoomAndPan="magnify"><defs><filter height="300%" id="ffgi50ifmp133" width="300%" x="-1" y="-1"><feGaussianBlur result="blurOut" stdDeviation="3.0"/><feColorMatrix in="blurOut" result="blurOut2" type="matrix" values="0 0 0 0 0 0 0 0 0 0 0 0 0 0 0 0 0 0 .4 0"/><feOffset dx="6.0" dy="6.0" in="blurOut2" result="blurOut3"/><feBlend in="SourceGraphic" in2="blurOut3" mode="normal"/></filter></defs><g><!--MD5=[02e4b9b7573f1156f41e60aa5b4e25a4]
class Company--><rect codeLine="7" fill="#FEFECE" filter="url(#ffgi50ifmp133)" height="60" id="Company" style="stroke:#A80036;stroke-width:2.25;" width="127.5" x="2341.5" y="328.5"/><ellipse cx="2364" cy="352.5" fill="#ADD1B2" rx="16.5" ry="16.5" style="stroke:#A80036;stroke-width:1.5;"/><path d="M2367,347.25 Q2367.3047,346.5 2367.6563,346.125 Q2368.0078,345.75 2368.4063,345.75 Q2369.1094,345.75 2369.5547,346.1719 Q2370,346.5938 2370,347.5781 L2370,349.9219 Q2370,350.9063 2369.5781,351.3281 Q2369.1563,351.75 2368.5,351.75 Q2367.9141,351.75 2367.5391,351.4922 Q2367.1641,351.2344 2367,350.5547 Q2366.9297,350.0859 2366.6719,349.8281 Q2366.2031,349.3359 2365.3594,349.0547 Q2364.5156,348.75 2363.6719,348.75 Q2362.6172,348.75 2361.7266,349.1719 Q2360.8594,349.5938 2360.1797,350.5313 Q2359.5,351.4688 2359.5,352.7578 L2359.5,354.1406 Q2359.5,355.6875 2360.7656,356.7188 Q2362.0313,357.75 2364.2813,357.75 Q2365.6172,357.75 2366.5547,357.4453 Q2367.0938,357.2813 2367.7031,356.7422 Q2368.1016,356.4375 2368.3125,356.3438 Q2368.5234,356.25 2368.7813,356.25 Q2369.2734,356.25 2369.625,356.6484 Q2370,357.0234 2370,357.5625 Q2370,358.0781 2369.4844,358.6875 Q2368.7344,359.5781 2367.5391,360.0703 Q2365.9688,360.75 2364.0469,360.75 Q2361.7969,360.75 2359.9922,359.8594 Q2358.5391,359.1563 2357.5078,357.6328 Q2356.5,356.1094 2356.5,354.3047 L2356.5,352.6641 Q2356.5,350.7891 2357.3906,349.1484 Q2358.3047,347.5078 2359.875,346.6406 Q2361.4688,345.75 2363.25,345.75 Q2364.3281,345.75 2365.2656,346.125 Q2366.2031,346.5 2367,347.25 Z " fill="#000000"/><text fill="#000000" font-family="sans-serif" font-size="18" lengthAdjust="spacing" textLength="79.5" x="2385" y="359.8652">Company</text><line style="stroke:#A80036;stroke-width:2.25;" x1="2343" x2="2467.5" y1="376.5" y2="376.5"/><!--MD5=[03960189e81aa2c066c762ffabbee709]
class Receptionist--><rect codeLine="11" fill="#FEFECE" filter="url(#ffgi50ifmp133)" height="60" id="Receptionist" style="stroke:#A80036;stroke-width:2.25;" width="151.5" x="1206" y="684"/><ellipse cx="1228.5" cy="708" fill="#ADD1B2" rx="16.5" ry="16.5" style="stroke:#A80036;stroke-width:1.5;"/><path d="M1231.5,702.75 Q1231.8047,702 1232.1563,701.625 Q1232.5078,701.25 1232.9063,701.25 Q1233.6094,701.25 1234.0547,701.6719 Q1234.5,702.0938 1234.5,703.0781 L1234.5,705.4219 Q1234.5,706.4063 1234.0781,706.8281 Q1233.6563,707.25 1233,707.25 Q1232.4141,707.25 1232.0391,706.9922 Q1231.6641,706.7344 1231.5,706.0547 Q1231.4297,705.5859 1231.1719,705.3281 Q1230.7031,704.8359 1229.8594,704.5547 Q1229.0156,704.25 1228.1719,704.25 Q1227.1172,704.25 1226.2266,704.6719 Q1225.3594,705.0938 1224.6797,706.0313 Q1224,706.9688 1224,708.2578 L1224,709.6406 Q1224,711.1875 1225.2656,712.2188 Q1226.5313,713.25 1228.7813,713.25 Q1230.1172,713.25 1231.0547,712.9453 Q1231.5938,712.7813 1232.2031,712.2422 Q1232.6016,711.9375 1232.8125,711.8438 Q1233.0234,711.75 1233.2813,711.75 Q1233.7734,711.75 1234.125,712.1484 Q1234.5,712.5234 1234.5,713.0625 Q1234.5,713.5781 1233.9844,714.1875 Q1233.2344,715.0781 1232.0391,715.5703 Q1230.4688,716.25 1228.5469,716.25 Q1226.2969,716.25 1224.4922,715.3594 Q1223.0391,714.6563 1222.0078,713.1328 Q1221,711.6094 1221,709.8047 L1221,708.1641 Q1221,706.2891 1221.8906,704.6484 Q1222.8047,703.0078 1224.375,702.1406 Q1225.9688,701.25 1227.75,701.25 Q1228.8281,701.25 1229.7656,701.625 Q1230.7031,702 1231.5,702.75 Z " fill="#000000"/><text fill="#000000" font-family="sans-serif" font-size="18" lengthAdjust="spacing" textLength="103.5" x="1249.5" y="715.3652">Receptionist</text><line style="stroke:#A80036;stroke-width:2.25;" x1="1207.5" x2="1356" y1="732" y2="732"/><!--MD5=[ed6624c6556d5e7b1bd23032162d20b7]
class Client--><rect codeLine="15" fill="#FEFECE" filter="url(#ffgi50ifmp133)" height="226.0313" id="Client" style="stroke:#A80036;stroke-width:2.25;" width="171" x="639" y="437.25"/><ellipse cx="695.25" cy="461.25" fill="#ADD1B2" rx="16.5" ry="16.5" style="stroke:#A80036;stroke-width:1.5;"/><path d="M698.25,456 Q698.5547,455.25 698.9063,454.875 Q699.2578,454.5 699.6563,454.5 Q700.3594,454.5 700.8047,454.9219 Q701.25,455.3438 701.25,456.3281 L701.25,458.6719 Q701.25,459.6563 700.8281,460.0781 Q700.4063,460.5 699.75,460.5 Q699.1641,460.5 698.7891,460.2422 Q698.4141,459.9844 698.25,459.3047 Q698.1797,458.8359 697.9219,458.5781 Q697.4531,458.0859 696.6094,457.8047 Q695.7656,457.5 694.9219,457.5 Q693.8672,457.5 692.9766,457.9219 Q692.1094,458.3438 691.4297,459.2813 Q690.75,460.2188 690.75,461.5078 L690.75,462.8906 Q690.75,464.4375 692.0156,465.4688 Q693.2813,466.5 695.5313,466.5 Q696.8672,466.5 697.8047,466.1953 Q698.3438,466.0313 698.9531,465.4922 Q699.3516,465.1875 699.5625,465.0938 Q699.7734,465 700.0313,465 Q700.5234,465 700.875,465.3984 Q701.25,465.7734 701.25,466.3125 Q701.25,466.8281 700.7344,467.4375 Q699.9844,468.3281 698.7891,468.8203 Q697.2188,469.5 695.2969,469.5 Q693.0469,469.5 691.2422,468.6094 Q689.7891,467.9063 688.7578,466.3828 Q687.75,464.8594 687.75,463.0547 L687.75,461.4141 Q687.75,459.5391 688.6406,457.8984 Q689.5547,456.2578 691.125,455.3906 Q692.7188,454.5 694.5,454.5 Q695.5781,454.5 696.5156,454.875 Q697.4531,455.25 698.25,456 Z " fill="#000000"/><text fill="#000000" font-family="sans-serif" font-size="18" lengthAdjust="spacing" textLength="48" x="723.75" y="468.6152">Client</text><line style="stroke:#A80036;stroke-width:2.25;" x1="640.5" x2="808.5" y1="485.25" y2="485.25"/><text fill="#000000" font-family="sans-serif" font-size="16.5" lengthAdjust="spacing" textLength="46.5" x="648" y="508.3784">-Name</text><text fill="#000000" font-family="sans-serif" font-size="16.5" lengthAdjust="spacing" textLength="42" x="648" y="529.1323">-Email</text><text fill="#000000" font-family="sans-serif" font-size="16.5" lengthAdjust="spacing" textLength="111" x="648" y="549.8862">-Phone Number</text><text fill="#000000" font-family="sans-serif" font-size="16.5" lengthAdjust="spacing" textLength="34.5" x="648" y="570.6401">-Sex</text><text fill="#000000" font-family="sans-serif" font-size="16.5" lengthAdjust="spacing" textLength="27" x="648" y="591.394">-TIF</text><text fill="#000000" font-family="sans-serif" font-size="16.5" lengthAdjust="spacing" textLength="76.5" x="648" y="612.1479">-Birth Date</text><text fill="#000000" font-family="sans-serif" font-size="16.5" lengthAdjust="spacing" textLength="97.5" x="648" y="632.9019">-NHS Number</text><text fill="#000000" font-family="sans-serif" font-size="16.5" lengthAdjust="spacing" textLength="153" x="648" y="653.6558">-Citizen Card Number</text><!--MD5=[5a42d898e2a5d299cc26761d1eaa7d84]
class Doctor--><rect codeLine="27" fill="#FEFECE" filter="url(#ffgi50ifmp133)" height="60" id="Doctor" style="stroke:#A80036;stroke-width:2.25;" width="102" x="1458.75" y="348"/><ellipse cx="1481.25" cy="372" fill="#ADD1B2" rx="16.5" ry="16.5" style="stroke:#A80036;stroke-width:1.5;"/><path d="M1484.25,366.75 Q1484.5547,366 1484.9063,365.625 Q1485.2578,365.25 1485.6563,365.25 Q1486.3594,365.25 1486.8047,365.6719 Q1487.25,366.0938 1487.25,367.0781 L1487.25,369.4219 Q1487.25,370.4063 1486.8281,370.8281 Q1486.4063,371.25 1485.75,371.25 Q1485.1641,371.25 1484.7891,370.9922 Q1484.4141,370.7344 1484.25,370.0547 Q1484.1797,369.5859 1483.9219,369.3281 Q1483.4531,368.8359 1482.6094,368.5547 Q1481.7656,368.25 1480.9219,368.25 Q1479.8672,368.25 1478.9766,368.6719 Q1478.1094,369.0938 1477.4297,370.0313 Q1476.75,370.9688 1476.75,372.2578 L1476.75,373.6406 Q1476.75,375.1875 1478.0156,376.2188 Q1479.2813,377.25 1481.5313,377.25 Q1482.8672,377.25 1483.8047,376.9453 Q1484.3438,376.7813 1484.9531,376.2422 Q1485.3516,375.9375 1485.5625,375.8438 Q1485.7734,375.75 1486.0313,375.75 Q1486.5234,375.75 1486.875,376.1484 Q1487.25,376.5234 1487.25,377.0625 Q1487.25,377.5781 1486.7344,378.1875 Q1485.9844,379.0781 1484.7891,379.5703 Q1483.2188,380.25 1481.2969,380.25 Q1479.0469,380.25 1477.2422,379.3594 Q1475.7891,378.6563 1474.7578,377.1328 Q1473.75,375.6094 1473.75,373.8047 L1473.75,372.1641 Q1473.75,370.2891 1474.6406,368.6484 Q1475.5547,367.0078 1477.125,366.1406 Q1478.7188,365.25 1480.5,365.25 Q1481.5781,365.25 1482.5156,365.625 Q1483.4531,366 1484.25,366.75 Z " fill="#000000"/><text fill="#000000" font-family="sans-serif" font-size="18" lengthAdjust="spacing" textLength="54" x="1502.25" y="379.3652">Doctor</text><line style="stroke:#A80036;stroke-width:2.25;" x1="1460.25" x2="1559.25" y1="396" y2="396"/><!--MD5=[da547346deef918ea16944ba046651ef]
class Administrator--><rect codeLine="31" fill="#FEFECE" filter="url(#ffgi50ifmp133)" height="60" id="Administrator" style="stroke:#A80036;stroke-width:2.25;" width="157.5" x="2326.5" y="460.5"/><ellipse cx="2349" cy="484.5" fill="#ADD1B2" rx="16.5" ry="16.5" style="stroke:#A80036;stroke-width:1.5;"/><path d="M2352,479.25 Q2352.3047,478.5 2352.6563,478.125 Q2353.0078,477.75 2353.4063,477.75 Q2354.1094,477.75 2354.5547,478.1719 Q2355,478.5938 2355,479.5781 L2355,481.9219 Q2355,482.9063 2354.5781,483.3281 Q2354.1563,483.75 2353.5,483.75 Q2352.9141,483.75 2352.5391,483.4922 Q2352.1641,483.2344 2352,482.5547 Q2351.9297,482.0859 2351.6719,481.8281 Q2351.2031,481.3359 2350.3594,481.0547 Q2349.5156,480.75 2348.6719,480.75 Q2347.6172,480.75 2346.7266,481.1719 Q2345.8594,481.5938 2345.1797,482.5313 Q2344.5,483.4688 2344.5,484.7578 L2344.5,486.1406 Q2344.5,487.6875 2345.7656,488.7188 Q2347.0313,489.75 2349.2813,489.75 Q2350.6172,489.75 2351.5547,489.4453 Q2352.0938,489.2813 2352.7031,488.7422 Q2353.1016,488.4375 2353.3125,488.3438 Q2353.5234,488.25 2353.7813,488.25 Q2354.2734,488.25 2354.625,488.6484 Q2355,489.0234 2355,489.5625 Q2355,490.0781 2354.4844,490.6875 Q2353.7344,491.5781 2352.5391,492.0703 Q2350.9688,492.75 2349.0469,492.75 Q2346.7969,492.75 2344.9922,491.8594 Q2343.5391,491.1563 2342.5078,489.6328 Q2341.5,488.1094 2341.5,486.3047 L2341.5,484.6641 Q2341.5,482.7891 2342.3906,481.1484 Q2343.3047,479.5078 2344.875,478.6406 Q2346.4688,477.75 2348.25,477.75 Q2349.3281,477.75 2350.2656,478.125 Q2351.2031,478.5 2352,479.25 Z " fill="#000000"/><text fill="#000000" font-family="sans-serif" font-size="18" lengthAdjust="spacing" textLength="109.5" x="2370" y="491.8652">Administrator</text><line style="stroke:#A80036;stroke-width:2.25;" x1="2328" x2="2482.5" y1="508.5" y2="508.5"/><!--MD5=[c886e9f626b1f684543f4c5ec86b9c7b]
class LabCoordinator--><rect codeLine="34" fill="#FEFECE" filter="url(#ffgi50ifmp133)" height="60" id="LabCoordinator" style="stroke:#A80036;stroke-width:2.25;" width="177" x="1421.25" y="123"/><ellipse cx="1443.75" cy="147" fill="#ADD1B2" rx="16.5" ry="16.5" style="stroke:#A80036;stroke-width:1.5;"/><path d="M1446.75,141.75 Q1447.0547,141 1447.4063,140.625 Q1447.7578,140.25 1448.1563,140.25 Q1448.8594,140.25 1449.3047,140.6719 Q1449.75,141.0938 1449.75,142.0781 L1449.75,144.4219 Q1449.75,145.4063 1449.3281,145.8281 Q1448.9063,146.25 1448.25,146.25 Q1447.6641,146.25 1447.2891,145.9922 Q1446.9141,145.7344 1446.75,145.0547 Q1446.6797,144.5859 1446.4219,144.3281 Q1445.9531,143.8359 1445.1094,143.5547 Q1444.2656,143.25 1443.4219,143.25 Q1442.3672,143.25 1441.4766,143.6719 Q1440.6094,144.0938 1439.9297,145.0313 Q1439.25,145.9688 1439.25,147.2578 L1439.25,148.6406 Q1439.25,150.1875 1440.5156,151.2188 Q1441.7813,152.25 1444.0313,152.25 Q1445.3672,152.25 1446.3047,151.9453 Q1446.8438,151.7813 1447.4531,151.2422 Q1447.8516,150.9375 1448.0625,150.8438 Q1448.2734,150.75 1448.5313,150.75 Q1449.0234,150.75 1449.375,151.1484 Q1449.75,151.5234 1449.75,152.0625 Q1449.75,152.5781 1449.2344,153.1875 Q1448.4844,154.0781 1447.2891,154.5703 Q1445.7188,155.25 1443.7969,155.25 Q1441.5469,155.25 1439.7422,154.3594 Q1438.2891,153.6563 1437.2578,152.1328 Q1436.25,150.6094 1436.25,148.8047 L1436.25,147.1641 Q1436.25,145.2891 1437.1406,143.6484 Q1438.0547,142.0078 1439.625,141.1406 Q1441.2188,140.25 1443,140.25 Q1444.0781,140.25 1445.0156,140.625 Q1445.9531,141 1446.75,141.75 Z " fill="#000000"/><text fill="#000000" font-family="sans-serif" font-size="18" lengthAdjust="spacing" textLength="129" x="1464.75" y="154.3652">LabCoordinator</text><line style="stroke:#A80036;stroke-width:2.25;" x1="1422.75" x2="1596.75" y1="171" y2="171"/><!--MD5=[a999c1570c205a2156b04a15307bc1ff]
class LabOrder--><rect codeLine="38" fill="#FEFECE" filter="url(#ffgi50ifmp133)" height="60" id="LabOrder" style="stroke:#A80036;stroke-width:2.25;" width="126" x="1032.75" y="520.5"/><ellipse cx="1055.25" cy="544.5" fill="#ADD1B2" rx="16.5" ry="16.5" style="stroke:#A80036;stroke-width:1.5;"/><path d="M1058.25,539.25 Q1058.5547,538.5 1058.9063,538.125 Q1059.2578,537.75 1059.6563,537.75 Q1060.3594,537.75 1060.8047,538.1719 Q1061.25,538.5938 1061.25,539.5781 L1061.25,541.9219 Q1061.25,542.9063 1060.8281,543.3281 Q1060.4063,543.75 1059.75,543.75 Q1059.1641,543.75 1058.7891,543.4922 Q1058.4141,543.2344 1058.25,542.5547 Q1058.1797,542.0859 1057.9219,541.8281 Q1057.4531,541.3359 1056.6094,541.0547 Q1055.7656,540.75 1054.9219,540.75 Q1053.8672,540.75 1052.9766,541.1719 Q1052.1094,541.5938 1051.4297,542.5313 Q1050.75,543.4688 1050.75,544.7578 L1050.75,546.1406 Q1050.75,547.6875 1052.0156,548.7188 Q1053.2813,549.75 1055.5313,549.75 Q1056.8672,549.75 1057.8047,549.4453 Q1058.3438,549.2813 1058.9531,548.7422 Q1059.3516,548.4375 1059.5625,548.3438 Q1059.7734,548.25 1060.0313,548.25 Q1060.5234,548.25 1060.875,548.6484 Q1061.25,549.0234 1061.25,549.5625 Q1061.25,550.0781 1060.7344,550.6875 Q1059.9844,551.5781 1058.7891,552.0703 Q1057.2188,552.75 1055.2969,552.75 Q1053.0469,552.75 1051.2422,551.8594 Q1049.7891,551.1563 1048.7578,549.6328 Q1047.75,548.1094 1047.75,546.3047 L1047.75,544.6641 Q1047.75,542.7891 1048.6406,541.1484 Q1049.5547,539.5078 1051.125,538.6406 Q1052.7188,537.75 1054.5,537.75 Q1055.5781,537.75 1056.5156,538.125 Q1057.4531,538.5 1058.25,539.25 Z " fill="#000000"/><text fill="#000000" font-family="sans-serif" font-size="18" lengthAdjust="spacing" textLength="78" x="1076.25" y="551.8652">LabOrder</text><line style="stroke:#A80036;stroke-width:2.25;" x1="1034.25" x2="1157.25" y1="568.5" y2="568.5"/><!--MD5=[a96594a83e2ecdc78cbf17c2ddf01934]
class Category--><rect codeLine="42" fill="#FEFECE" filter="url(#ffgi50ifmp133)" height="60" id="Category" style="stroke:#A80036;stroke-width:2.25;" width="121.5" x="1963.5" y="460.5"/><ellipse cx="1986" cy="484.5" fill="#ADD1B2" rx="16.5" ry="16.5" style="stroke:#A80036;stroke-width:1.5;"/><path d="M1989,479.25 Q1989.3047,478.5 1989.6563,478.125 Q1990.0078,477.75 1990.4063,477.75 Q1991.1094,477.75 1991.5547,478.1719 Q1992,478.5938 1992,479.5781 L1992,481.9219 Q1992,482.9063 1991.5781,483.3281 Q1991.1563,483.75 1990.5,483.75 Q1989.9141,483.75 1989.5391,483.4922 Q1989.1641,483.2344 1989,482.5547 Q1988.9297,482.0859 1988.6719,481.8281 Q1988.2031,481.3359 1987.3594,481.0547 Q1986.5156,480.75 1985.6719,480.75 Q1984.6172,480.75 1983.7266,481.1719 Q1982.8594,481.5938 1982.1797,482.5313 Q1981.5,483.4688 1981.5,484.7578 L1981.5,486.1406 Q1981.5,487.6875 1982.7656,488.7188 Q1984.0313,489.75 1986.2813,489.75 Q1987.6172,489.75 1988.5547,489.4453 Q1989.0938,489.2813 1989.7031,488.7422 Q1990.1016,488.4375 1990.3125,488.3438 Q1990.5234,488.25 1990.7813,488.25 Q1991.2734,488.25 1991.625,488.6484 Q1992,489.0234 1992,489.5625 Q1992,490.0781 1991.4844,490.6875 Q1990.7344,491.5781 1989.5391,492.0703 Q1987.9688,492.75 1986.0469,492.75 Q1983.7969,492.75 1981.9922,491.8594 Q1980.5391,491.1563 1979.5078,489.6328 Q1978.5,488.1094 1978.5,486.3047 L1978.5,484.6641 Q1978.5,482.7891 1979.3906,481.1484 Q1980.3047,479.5078 1981.875,478.6406 Q1983.4688,477.75 1985.25,477.75 Q1986.3281,477.75 1987.2656,478.125 Q1988.2031,478.5 1989,479.25 Z " fill="#000000"/><text fill="#000000" font-family="sans-serif" font-size="18" lengthAdjust="spacing" textLength="73.5" x="2007" y="491.8652">Category</text><line style="stroke:#A80036;stroke-width:2.25;" x1="1965" x2="2083.5" y1="508.5" y2="508.5"/><!--MD5=[aeb3272166074d8737a70b61b1e71682]
class TestType--><rect codeLine="46" fill="#FEFECE" filter="url(#ffgi50ifmp133)" height="101.5078" id="TestType" style="stroke:#A80036;stroke-width:2.25;" width="123" x="3279" y="549"/><ellipse cx="3301.5" cy="573" fill="#ADD1B2" rx="16.5" ry="16.5" style="stroke:#A80036;stroke-width:1.5;"/><path d="M3304.5,567.75 Q3304.8047,567 3305.1563,566.625 Q3305.5078,566.25 3305.9063,566.25 Q3306.6094,566.25 3307.0547,566.6719 Q3307.5,567.0938 3307.5,568.0781 L3307.5,570.4219 Q3307.5,571.4063 3307.0781,571.8281 Q3306.6563,572.25 3306,572.25 Q3305.4141,572.25 3305.0391,571.9922 Q3304.6641,571.7344 3304.5,571.0547 Q3304.4297,570.5859 3304.1719,570.3281 Q3303.7031,569.8359 3302.8594,569.5547 Q3302.0156,569.25 3301.1719,569.25 Q3300.1172,569.25 3299.2266,569.6719 Q3298.3594,570.0938 3297.6797,571.0313 Q3297,571.9688 3297,573.2578 L3297,574.6406 Q3297,576.1875 3298.2656,577.2188 Q3299.5313,578.25 3301.7813,578.25 Q3303.1172,578.25 3304.0547,577.9453 Q3304.5938,577.7813 3305.2031,577.2422 Q3305.6016,576.9375 3305.8125,576.8438 Q3306.0234,576.75 3306.2813,576.75 Q3306.7734,576.75 3307.125,577.1484 Q3307.5,577.5234 3307.5,578.0625 Q3307.5,578.5781 3306.9844,579.1875 Q3306.2344,580.0781 3305.0391,580.5703 Q3303.4688,581.25 3301.5469,581.25 Q3299.2969,581.25 3297.4922,580.3594 Q3296.0391,579.6563 3295.0078,578.1328 Q3294,576.6094 3294,574.8047 L3294,573.1641 Q3294,571.2891 3294.8906,569.6484 Q3295.8047,568.0078 3297.375,567.1406 Q3298.9688,566.25 3300.75,566.25 Q3301.8281,566.25 3302.7656,566.625 Q3303.7031,567 3304.5,567.75 Z " fill="#000000"/><text fill="#000000" font-family="sans-serif" font-size="18" lengthAdjust="spacing" textLength="75" x="3322.5" y="580.3652">TestType</text><line style="stroke:#A80036;stroke-width:2.25;" x1="3280.5" x2="3400.5" y1="597" y2="597"/><text fill="#000000" font-family="sans-serif" font-size="16.5" lengthAdjust="spacing" textLength="46.5" x="3288" y="620.1284">-Blood</text><text fill="#000000" font-family="sans-serif" font-size="16.5" lengthAdjust="spacing" textLength="69" x="3288" y="640.8823">-Covid 19</text><!--MD5=[9681492165142af2a4a3a169d90ee8d4]
class Sample--><rect codeLine="51" fill="#FEFECE" filter="url(#ffgi50ifmp133)" height="80.7539" id="Sample" style="stroke:#A80036;stroke-width:2.25;" width="112.5" x="668.25" y="297"/><ellipse cx="690.75" cy="321" fill="#ADD1B2" rx="16.5" ry="16.5" style="stroke:#A80036;stroke-width:1.5;"/><path d="M693.75,315.75 Q694.0547,315 694.4063,314.625 Q694.7578,314.25 695.1563,314.25 Q695.8594,314.25 696.3047,314.6719 Q696.75,315.0938 696.75,316.0781 L696.75,318.4219 Q696.75,319.4063 696.3281,319.8281 Q695.9063,320.25 695.25,320.25 Q694.6641,320.25 694.2891,319.9922 Q693.9141,319.7344 693.75,319.0547 Q693.6797,318.5859 693.4219,318.3281 Q692.9531,317.8359 692.1094,317.5547 Q691.2656,317.25 690.4219,317.25 Q689.3672,317.25 688.4766,317.6719 Q687.6094,318.0938 686.9297,319.0313 Q686.25,319.9688 686.25,321.2578 L686.25,322.6406 Q686.25,324.1875 687.5156,325.2188 Q688.7813,326.25 691.0313,326.25 Q692.3672,326.25 693.3047,325.9453 Q693.8438,325.7813 694.4531,325.2422 Q694.8516,324.9375 695.0625,324.8438 Q695.2734,324.75 695.5313,324.75 Q696.0234,324.75 696.375,325.1484 Q696.75,325.5234 696.75,326.0625 Q696.75,326.5781 696.2344,327.1875 Q695.4844,328.0781 694.2891,328.5703 Q692.7188,329.25 690.7969,329.25 Q688.5469,329.25 686.7422,328.3594 Q685.2891,327.6563 684.2578,326.1328 Q683.25,324.6094 683.25,322.8047 L683.25,321.1641 Q683.25,319.2891 684.1406,317.6484 Q685.0547,316.0078 686.625,315.1406 Q688.2188,314.25 690,314.25 Q691.0781,314.25 692.0156,314.625 Q692.9531,315 693.75,315.75 Z " fill="#000000"/><text fill="#000000" font-family="sans-serif" font-size="18" lengthAdjust="spacing" textLength="64.5" x="711.75" y="328.3652">Sample</text><line style="stroke:#A80036;stroke-width:2.25;" x1="669.75" x2="779.25" y1="345" y2="345"/><text fill="#000000" font-family="sans-serif" font-size="16.5" lengthAdjust="spacing" textLength="67.5" x="677.25" y="368.1284">-Barcode</text><!--MD5=[a64badb107d3691f2dc6af242cdbeb21]
class ChemicalLaboratory--><rect codeLine="55" fill="#FEFECE" filter="url(#ffgi50ifmp133)" height="60" id="ChemicalLaboratory" style="stroke:#A80036;stroke-width:2.25;" width="214.5" x="1402.5" y="10.5"/><ellipse cx="1425" cy="34.5" fill="#ADD1B2" rx="16.5" ry="16.5" style="stroke:#A80036;stroke-width:1.5;"/><path d="M1428,29.25 Q1428.3047,28.5 1428.6563,28.125 Q1429.0078,27.75 1429.4063,27.75 Q1430.1094,27.75 1430.5547,28.1719 Q1431,28.5938 1431,29.5781 L1431,31.9219 Q1431,32.9063 1430.5781,33.3281 Q1430.1563,33.75 1429.5,33.75 Q1428.9141,33.75 1428.5391,33.4922 Q1428.1641,33.2344 1428,32.5547 Q1427.9297,32.0859 1427.6719,31.8281 Q1427.2031,31.3359 1426.3594,31.0547 Q1425.5156,30.75 1424.6719,30.75 Q1423.6172,30.75 1422.7266,31.1719 Q1421.8594,31.5938 1421.1797,32.5313 Q1420.5,33.4688 1420.5,34.7578 L1420.5,36.1406 Q1420.5,37.6875 1421.7656,38.7188 Q1423.0313,39.75 1425.2813,39.75 Q1426.6172,39.75 1427.5547,39.4453 Q1428.0938,39.2813 1428.7031,38.7422 Q1429.1016,38.4375 1429.3125,38.3438 Q1429.5234,38.25 1429.7813,38.25 Q1430.2734,38.25 1430.625,38.6484 Q1431,39.0234 1431,39.5625 Q1431,40.0781 1430.4844,40.6875 Q1429.7344,41.5781 1428.5391,42.0703 Q1426.9688,42.75 1425.0469,42.75 Q1422.7969,42.75 1420.9922,41.8594 Q1419.5391,41.1563 1418.5078,39.6328 Q1417.5,38.1094 1417.5,36.3047 L1417.5,34.6641 Q1417.5,32.7891 1418.3906,31.1484 Q1419.3047,29.5078 1420.875,28.6406 Q1422.4688,27.75 1424.25,27.75 Q1425.3281,27.75 1426.2656,28.125 Q1427.2031,28.5 1428,29.25 Z " fill="#000000"/><text fill="#000000" font-family="sans-serif" font-size="18" lengthAdjust="spacing" textLength="166.5" x="1446" y="41.8652">ChemicalLaboratory</text><line style="stroke:#A80036;stroke-width:2.25;" x1="1404" x2="1615.5" y1="58.5" y2="58.5"/><!--MD5=[f00dbe8c0302c6aec2cb26b3c659c8fc]
class Report--><rect codeLine="59" fill="#FEFECE" filter="url(#ffgi50ifmp133)" height="80.7539" id="Report" style="stroke:#A80036;stroke-width:2.25;" width="103.5" x="1044" y="270"/><ellipse cx="1066.5" cy="294" fill="#ADD1B2" rx="16.5" ry="16.5" style="stroke:#A80036;stroke-width:1.5;"/><path d="M1069.5,288.75 Q1069.8047,288 1070.1563,287.625 Q1070.5078,287.25 1070.9063,287.25 Q1071.6094,287.25 1072.0547,287.6719 Q1072.5,288.0938 1072.5,289.0781 L1072.5,291.4219 Q1072.5,292.4063 1072.0781,292.8281 Q1071.6563,293.25 1071,293.25 Q1070.4141,293.25 1070.0391,292.9922 Q1069.6641,292.7344 1069.5,292.0547 Q1069.4297,291.5859 1069.1719,291.3281 Q1068.7031,290.8359 1067.8594,290.5547 Q1067.0156,290.25 1066.1719,290.25 Q1065.1172,290.25 1064.2266,290.6719 Q1063.3594,291.0938 1062.6797,292.0313 Q1062,292.9688 1062,294.2578 L1062,295.6406 Q1062,297.1875 1063.2656,298.2188 Q1064.5313,299.25 1066.7813,299.25 Q1068.1172,299.25 1069.0547,298.9453 Q1069.5938,298.7813 1070.2031,298.2422 Q1070.6016,297.9375 1070.8125,297.8438 Q1071.0234,297.75 1071.2813,297.75 Q1071.7734,297.75 1072.125,298.1484 Q1072.5,298.5234 1072.5,299.0625 Q1072.5,299.5781 1071.9844,300.1875 Q1071.2344,301.0781 1070.0391,301.5703 Q1068.4688,302.25 1066.5469,302.25 Q1064.2969,302.25 1062.4922,301.3594 Q1061.0391,300.6563 1060.0078,299.1328 Q1059,297.6094 1059,295.8047 L1059,294.1641 Q1059,292.2891 1059.8906,290.6484 Q1060.8047,289.0078 1062.375,288.1406 Q1063.9688,287.25 1065.75,287.25 Q1066.8281,287.25 1067.7656,287.625 Q1068.7031,288 1069.5,288.75 Z " fill="#000000"/><text fill="#000000" font-family="sans-serif" font-size="18" lengthAdjust="spacing" textLength="55.5" x="1087.5" y="301.3652">Report</text><line style="stroke:#A80036;stroke-width:2.25;" x1="1045.5" x2="1146" y1="318" y2="318"/><text fill="#000000" font-family="sans-serif" font-size="16.5" lengthAdjust="spacing" textLength="76.5" x="1053" y="341.1284">-Diagnosis</text><!--MD5=[df38be88ccee13e832d6fafd6288a4ca]
class Test--><rect codeLine="64" fill="#FEFECE" filter="url(#ffgi50ifmp133)" height="288.293" id="Test" style="stroke:#A80036;stroke-width:2.25;" width="189" x="2709.75" y="679.5"/><ellipse cx="2779.875" cy="703.5" fill="#ADD1B2" rx="16.5" ry="16.5" style="stroke:#A80036;stroke-width:1.5;"/><path d="M2782.875,698.25 Q2783.1797,697.5 2783.5313,697.125 Q2783.8828,696.75 2784.2813,696.75 Q2784.9844,696.75 2785.4297,697.1719 Q2785.875,697.5938 2785.875,698.5781 L2785.875,700.9219 Q2785.875,701.9063 2785.4531,702.3281 Q2785.0313,702.75 2784.375,702.75 Q2783.7891,702.75 2783.4141,702.4922 Q2783.0391,702.2344 2782.875,701.5547 Q2782.8047,701.0859 2782.5469,700.8281 Q2782.0781,700.3359 2781.2344,700.0547 Q2780.3906,699.75 2779.5469,699.75 Q2778.4922,699.75 2777.6016,700.1719 Q2776.7344,700.5938 2776.0547,701.5313 Q2775.375,702.4688 2775.375,703.7578 L2775.375,705.1406 Q2775.375,706.6875 2776.6406,707.7188 Q2777.9063,708.75 2780.1563,708.75 Q2781.4922,708.75 2782.4297,708.4453 Q2782.9688,708.2813 2783.5781,707.7422 Q2783.9766,707.4375 2784.1875,707.3438 Q2784.3984,707.25 2784.6563,707.25 Q2785.1484,707.25 2785.5,707.6484 Q2785.875,708.0234 2785.875,708.5625 Q2785.875,709.0781 2785.3594,709.6875 Q2784.6094,710.5781 2783.4141,711.0703 Q2781.8438,711.75 2779.9219,711.75 Q2777.6719,711.75 2775.8672,710.8594 Q2774.4141,710.1563 2773.3828,708.6328 Q2772.375,707.1094 2772.375,705.3047 L2772.375,703.6641 Q2772.375,701.7891 2773.2656,700.1484 Q2774.1797,698.5078 2775.75,697.6406 Q2777.3438,696.75 2779.125,696.75 Q2780.2031,696.75 2781.1406,697.125 Q2782.0781,697.5 2782.875,698.25 Z " fill="#000000"/><text fill="#000000" font-family="sans-serif" font-size="18" lengthAdjust="spacing" textLength="36" x="2810.625" y="710.8652">Test</text><line style="stroke:#A80036;stroke-width:2.25;" x1="2711.25" x2="2897.25" y1="727.5" y2="727.5"/><text fill="#000000" font-family="sans-serif" font-size="16.5" lengthAdjust="spacing" textLength="99" x="2718.75" y="750.6284">-internal code</text><text fill="#000000" font-family="sans-serif" font-size="16.5" lengthAdjust="spacing" textLength="78" x="2718.75" y="771.3823">-NHS code</text><text fill="#000000" font-family="sans-serif" font-size="16.5" lengthAdjust="spacing" textLength="85.5" x="2718.75" y="792.1362">-description</text><text fill="#000000" font-family="sans-serif" font-size="16.5" lengthAdjust="spacing" textLength="171" x="2718.75" y="812.8901">-date samples collected</text><text fill="#000000" font-family="sans-serif" font-size="16.5" lengthAdjust="spacing" textLength="168" x="2718.75" y="833.644">-time samples collected</text><text fill="#000000" font-family="sans-serif" font-size="16.5" lengthAdjust="spacing" textLength="169.5" x="2718.75" y="854.3979">-date chemical analysis</text><text fill="#000000" font-family="sans-serif" font-size="16.5" lengthAdjust="spacing" textLength="166.5" x="2718.75" y="875.1519">-time chemical analysis</text><text fill="#000000" font-family="sans-serif" font-size="16.5" lengthAdjust="spacing" textLength="154.5" x="2718.75" y="895.9058">-date diagnosis made</text><text fill="#000000" font-family="sans-serif" font-size="16.5" lengthAdjust="spacing" textLength="151.5" x="2718.75" y="916.6597">-time diagnosis made</text><text fill="#000000" font-family="sans-serif" font-size="16.5" lengthAdjust="spacing" textLength="129" x="2718.75" y="937.4136">-date of validation</text><text fill="#000000" font-family="sans-serif" font-size="16.5" lengthAdjust="spacing" textLength="126" x="2718.75" y="958.1675">-time of validation</text><!--MD5=[1f6362a5c8f21d8d6a0fce68f3a92a4e]
class Parameter--><rect codeLine="77" fill="#FEFECE" filter="url(#ffgi50ifmp133)" height="60" id="Parameter" style="stroke:#A80036;stroke-width:2.25;" width="135" x="1442.25" y="460.5"/><ellipse cx="1464.75" cy="484.5" fill="#ADD1B2" rx="16.5" ry="16.5" style="stroke:#A80036;stroke-width:1.5;"/><path d="M1467.75,479.25 Q1468.0547,478.5 1468.4063,478.125 Q1468.7578,477.75 1469.1563,477.75 Q1469.8594,477.75 1470.3047,478.1719 Q1470.75,478.5938 1470.75,479.5781 L1470.75,481.9219 Q1470.75,482.9063 1470.3281,483.3281 Q1469.9063,483.75 1469.25,483.75 Q1468.6641,483.75 1468.2891,483.4922 Q1467.9141,483.2344 1467.75,482.5547 Q1467.6797,482.0859 1467.4219,481.8281 Q1466.9531,481.3359 1466.1094,481.0547 Q1465.2656,480.75 1464.4219,480.75 Q1463.3672,480.75 1462.4766,481.1719 Q1461.6094,481.5938 1460.9297,482.5313 Q1460.25,483.4688 1460.25,484.7578 L1460.25,486.1406 Q1460.25,487.6875 1461.5156,488.7188 Q1462.7813,489.75 1465.0313,489.75 Q1466.3672,489.75 1467.3047,489.4453 Q1467.8438,489.2813 1468.4531,488.7422 Q1468.8516,488.4375 1469.0625,488.3438 Q1469.2734,488.25 1469.5313,488.25 Q1470.0234,488.25 1470.375,488.6484 Q1470.75,489.0234 1470.75,489.5625 Q1470.75,490.0781 1470.2344,490.6875 Q1469.4844,491.5781 1468.2891,492.0703 Q1466.7188,492.75 1464.7969,492.75 Q1462.5469,492.75 1460.7422,491.8594 Q1459.2891,491.1563 1458.2578,489.6328 Q1457.25,488.1094 1457.25,486.3047 L1457.25,484.6641 Q1457.25,482.7891 1458.1406,481.1484 Q1459.0547,479.5078 1460.625,478.6406 Q1462.2188,477.75 1464,477.75 Q1465.0781,477.75 1466.0156,478.125 Q1466.9531,478.5 1467.75,479.25 Z " fill="#000000"/><text fill="#000000" font-family="sans-serif" font-size="18" lengthAdjust="spacing" textLength="87" x="1485.75" y="491.8652">Parameter</text><line style="stroke:#A80036;stroke-width:2.25;" x1="1443.75" x2="1575.75" y1="508.5" y2="508.5"/><!--MD5=[01931d41e78f8996acd44f6f0fd8de28]
class MedicalLabTechnician--><rect codeLine="83" fill="#FEFECE" filter="url(#ffgi50ifmp133)" height="60" id="MedicalLabTechnician" style="stroke:#A80036;stroke-width:2.25;" width="232.5" x="10.5" y="468"/><ellipse cx="33" cy="492" fill="#ADD1B2" rx="16.5" ry="16.5" style="stroke:#A80036;stroke-width:1.5;"/><path d="M36,486.75 Q36.3047,486 36.6563,485.625 Q37.0078,485.25 37.4063,485.25 Q38.1094,485.25 38.5547,485.6719 Q39,486.0938 39,487.0781 L39,489.4219 Q39,490.4063 38.5781,490.8281 Q38.1563,491.25 37.5,491.25 Q36.9141,491.25 36.5391,490.9922 Q36.1641,490.7344 36,490.0547 Q35.9297,489.5859 35.6719,489.3281 Q35.2031,488.8359 34.3594,488.5547 Q33.5156,488.25 32.6719,488.25 Q31.6172,488.25 30.7266,488.6719 Q29.8594,489.0938 29.1797,490.0313 Q28.5,490.9688 28.5,492.2578 L28.5,493.6406 Q28.5,495.1875 29.7656,496.2188 Q31.0313,497.25 33.2813,497.25 Q34.6172,497.25 35.5547,496.9453 Q36.0938,496.7813 36.7031,496.2422 Q37.1016,495.9375 37.3125,495.8438 Q37.5234,495.75 37.7813,495.75 Q38.2734,495.75 38.625,496.1484 Q39,496.5234 39,497.0625 Q39,497.5781 38.4844,498.1875 Q37.7344,499.0781 36.5391,499.5703 Q34.9688,500.25 33.0469,500.25 Q30.7969,500.25 28.9922,499.3594 Q27.5391,498.6563 26.5078,497.1328 Q25.5,495.6094 25.5,493.8047 L25.5,492.1641 Q25.5,490.2891 26.3906,488.6484 Q27.3047,487.0078 28.875,486.1406 Q30.4688,485.25 32.25,485.25 Q33.3281,485.25 34.2656,485.625 Q35.2031,486 36,486.75 Z " fill="#000000"/><text fill="#000000" font-family="sans-serif" font-size="18" lengthAdjust="spacing" textLength="184.5" x="54" y="499.3652">MedicalLabTechnician</text><line style="stroke:#A80036;stroke-width:2.25;" x1="12" x2="241.5" y1="516" y2="516"/><!--MD5=[a05769ccb6ff68467d0f03d44782bb8a]
class ChemicalAnalysis--><rect codeLine="87" fill="#FEFECE" filter="url(#ffgi50ifmp133)" height="60" id="ChemicalAnalysis" style="stroke:#A80036;stroke-width:2.25;" width="196.5" x="1926" y="180"/><ellipse cx="1948.5" cy="204" fill="#ADD1B2" rx="16.5" ry="16.5" style="stroke:#A80036;stroke-width:1.5;"/><path d="M1951.5,198.75 Q1951.8047,198 1952.1563,197.625 Q1952.5078,197.25 1952.9063,197.25 Q1953.6094,197.25 1954.0547,197.6719 Q1954.5,198.0938 1954.5,199.0781 L1954.5,201.4219 Q1954.5,202.4063 1954.0781,202.8281 Q1953.6563,203.25 1953,203.25 Q1952.4141,203.25 1952.0391,202.9922 Q1951.6641,202.7344 1951.5,202.0547 Q1951.4297,201.5859 1951.1719,201.3281 Q1950.7031,200.8359 1949.8594,200.5547 Q1949.0156,200.25 1948.1719,200.25 Q1947.1172,200.25 1946.2266,200.6719 Q1945.3594,201.0938 1944.6797,202.0313 Q1944,202.9688 1944,204.2578 L1944,205.6406 Q1944,207.1875 1945.2656,208.2188 Q1946.5313,209.25 1948.7813,209.25 Q1950.1172,209.25 1951.0547,208.9453 Q1951.5938,208.7813 1952.2031,208.2422 Q1952.6016,207.9375 1952.8125,207.8438 Q1953.0234,207.75 1953.2813,207.75 Q1953.7734,207.75 1954.125,208.1484 Q1954.5,208.5234 1954.5,209.0625 Q1954.5,209.5781 1953.9844,210.1875 Q1953.2344,211.0781 1952.0391,211.5703 Q1950.4688,212.25 1948.5469,212.25 Q1946.2969,212.25 1944.4922,211.3594 Q1943.0391,210.6563 1942.0078,209.1328 Q1941,207.6094 1941,205.8047 L1941,204.1641 Q1941,202.2891 1941.8906,200.6484 Q1942.8047,199.0078 1944.375,198.1406 Q1945.9688,197.25 1947.75,197.25 Q1948.8281,197.25 1949.7656,197.625 Q1950.7031,198 1951.5,198.75 Z " fill="#000000"/><text fill="#000000" font-family="sans-serif" font-size="18" lengthAdjust="spacing" textLength="148.5" x="1969.5" y="211.3652">ChemicalAnalysis</text><line style="stroke:#A80036;stroke-width:2.25;" x1="1927.5" x2="2121" y1="228" y2="228"/><!--MD5=[1934a092c0e7d4da7dc7075b6f4b6b03]
class ClinicalAnalysisLaboratory--><rect codeLine="91" fill="#FEFECE" filter="url(#ffgi50ifmp133)" height="60" id="ClinicalAnalysisLaboratory" style="stroke:#A80036;stroke-width:2.25;" width="265.5" x="2671.5" y="420"/><ellipse cx="2694" cy="444" fill="#ADD1B2" rx="16.5" ry="16.5" style="stroke:#A80036;stroke-width:1.5;"/><path d="M2697,438.75 Q2697.3047,438 2697.6563,437.625 Q2698.0078,437.25 2698.4063,437.25 Q2699.1094,437.25 2699.5547,437.6719 Q2700,438.0938 2700,439.0781 L2700,441.4219 Q2700,442.4063 2699.5781,442.8281 Q2699.1563,443.25 2698.5,443.25 Q2697.9141,443.25 2697.5391,442.9922 Q2697.1641,442.7344 2697,442.0547 Q2696.9297,441.5859 2696.6719,441.3281 Q2696.2031,440.8359 2695.3594,440.5547 Q2694.5156,440.25 2693.6719,440.25 Q2692.6172,440.25 2691.7266,440.6719 Q2690.8594,441.0938 2690.1797,442.0313 Q2689.5,442.9688 2689.5,444.2578 L2689.5,445.6406 Q2689.5,447.1875 2690.7656,448.2188 Q2692.0313,449.25 2694.2813,449.25 Q2695.6172,449.25 2696.5547,448.9453 Q2697.0938,448.7813 2697.7031,448.2422 Q2698.1016,447.9375 2698.3125,447.8438 Q2698.5234,447.75 2698.7813,447.75 Q2699.2734,447.75 2699.625,448.1484 Q2700,448.5234 2700,449.0625 Q2700,449.5781 2699.4844,450.1875 Q2698.7344,451.0781 2697.5391,451.5703 Q2695.9688,452.25 2694.0469,452.25 Q2691.7969,452.25 2689.9922,451.3594 Q2688.5391,450.6563 2687.5078,449.1328 Q2686.5,447.6094 2686.5,445.8047 L2686.5,444.1641 Q2686.5,442.2891 2687.3906,440.6484 Q2688.3047,439.0078 2689.875,438.1406 Q2691.4688,437.25 2693.25,437.25 Q2694.3281,437.25 2695.2656,437.625 Q2696.2031,438 2697,438.75 Z " fill="#000000"/><text fill="#000000" font-family="sans-serif" font-size="18" lengthAdjust="spacing" textLength="217.5" x="2715" y="451.3652">ClinicalAnalysisLaboratory</text><line style="stroke:#A80036;stroke-width:2.25;" x1="2673" x2="2935.5" y1="468" y2="468"/><!--MD5=[68767c78be08caa96780c014af9fbeaa]
class API--><rect fill="#FEFECE" filter="url(#ffgi50ifmp133)" height="60" id="API" style="stroke:#A80036;stroke-width:2.25;" width="75" x="1472.25" y="235.5"/><ellipse cx="1494.75" cy="259.5" fill="#ADD1B2" rx="16.5" ry="16.5" style="stroke:#A80036;stroke-width:1.5;"/><path d="M1497.75,254.25 Q1498.0547,253.5 1498.4063,253.125 Q1498.7578,252.75 1499.1563,252.75 Q1499.8594,252.75 1500.3047,253.1719 Q1500.75,253.5938 1500.75,254.5781 L1500.75,256.9219 Q1500.75,257.9063 1500.3281,258.3281 Q1499.9063,258.75 1499.25,258.75 Q1498.6641,258.75 1498.2891,258.4922 Q1497.9141,258.2344 1497.75,257.5547 Q1497.6797,257.0859 1497.4219,256.8281 Q1496.9531,256.3359 1496.1094,256.0547 Q1495.2656,255.75 1494.4219,255.75 Q1493.3672,255.75 1492.4766,256.1719 Q1491.6094,256.5938 1490.9297,257.5313 Q1490.25,258.4688 1490.25,259.7578 L1490.25,261.1406 Q1490.25,262.6875 1491.5156,263.7188 Q1492.7813,264.75 1495.0313,264.75 Q1496.3672,264.75 1497.3047,264.4453 Q1497.8438,264.2813 1498.4531,263.7422 Q1498.8516,263.4375 1499.0625,263.3438 Q1499.2734,263.25 1499.5313,263.25 Q1500.0234,263.25 1500.375,263.6484 Q1500.75,264.0234 1500.75,264.5625 Q1500.75,265.0781 1500.2344,265.6875 Q1499.4844,266.5781 1498.2891,267.0703 Q1496.7188,267.75 1494.7969,267.75 Q1492.5469,267.75 1490.7422,266.8594 Q1489.2891,266.1563 1488.2578,264.6328 Q1487.25,263.1094 1487.25,261.3047 L1487.25,259.6641 Q1487.25,257.7891 1488.1406,256.1484 Q1489.0547,254.5078 1490.625,253.6406 Q1492.2188,252.75 1494,252.75 Q1495.0781,252.75 1496.0156,253.125 Q1496.9531,253.5 1497.75,254.25 Z " fill="#000000"/><text fill="#000000" font-family="sans-serif" font-size="18" lengthAdjust="spacing" textLength="27" x="1515.75" y="266.8652">API</text><line style="stroke:#A80036;stroke-width:2.25;" x1="1473.75" x2="1545.75" y1="283.5" y2="283.5"/><!--MD5=[de3aa179ee7f21b344f648244b25a961]
link ChemicalLaboratory to Company--><path codeLine="95" d="M1617.345,44.91 C1742.925,53.475 1955.955,78.72 2122.5,153 C2223.015,197.835 2322.765,282.78 2372.025,328.155 " fill="none" id="ChemicalLaboratory-Company" style="stroke:#A80036;stroke-width:1.5;"/><polygon fill="#000000" points="1990.9783,75.6283,2002.1317,84.523,2005.2297,76.2685,1990.9783,75.6283" style="stroke:#000000;stroke-width:1.5;"/><text fill="#000000" font-family="sans-serif" font-size="19.5" lengthAdjust="spacing" textLength="45" x="2011.5" y="86.2427">owns</text><text fill="#000000" font-family="sans-serif" font-size="19.5" lengthAdjust="spacing" textLength="7.5" x="1628.8275" y="66.8721">*</text><text fill="#000000" font-family="sans-serif" font-size="19.5" lengthAdjust="spacing" textLength="10.5" x="2350.223" y="312.0363">1</text><!--MD5=[aafc5d8a5829a6a8d6dc892cb1ff5d24]
link Company to ClinicalAnalysisLaboratory--><path codeLine="96" d="M2469.315,386.07 C2488.215,393.57 2509.2,401.115 2529,406.5 C2574.735,418.95 2625.81,428.265 2671.335,435 " fill="none" id="Company-ClinicalAnalysisLaboratory" style="stroke:#A80036;stroke-width:1.5;"/><polygon fill="#000000" points="2558.7892,395.0292,2546.6406,387.5509,2544.5652,396.1199,2558.7892,395.0292" style="stroke:#000000;stroke-width:1.5;"/><text fill="#000000" font-family="sans-serif" font-size="19.5" lengthAdjust="spacing" textLength="45" x="2565" y="401.2427">owns</text><text fill="#000000" font-family="sans-serif" font-size="19.5" lengthAdjust="spacing" textLength="10.5" x="2480.7953" y="412.9101">1</text><text fill="#000000" font-family="sans-serif" font-size="19.5" lengthAdjust="spacing" textLength="7.5" x="2652.0904" y="455.0075">*</text><!--MD5=[7e4bc624457760b649895ff2ead938fa]
link Company to Test--><path codeLine="97" d="M2439.525,388.71 C2453.58,402.09 2469.975,418.215 2484,433.5 C2563.68,520.305 2647.8,623.775 2709.6,702.33 " fill="none" id="Company-Test" style="stroke:#A80036;stroke-width:1.5;"/><polygon fill="#000000" points="2541.3941,476.9468,2535.8811,463.7893,2529.2002,469.5426,2541.3941,476.9468" style="stroke:#000000;stroke-width:1.5;"/><text fill="#000000" font-family="sans-serif" font-size="19.5" lengthAdjust="spacing" textLength="75" x="2550" y="479.2427">performs</text><text fill="#000000" font-family="sans-serif" font-size="19.5" lengthAdjust="spacing" textLength="10.5" x="2437.1883" y="420.8984">1</text><text fill="#000000" font-family="sans-serif" font-size="19.5" lengthAdjust="spacing" textLength="7.5" x="2690.1075" y="709.2819">*</text><!--MD5=[742a261f27a3dcd734c626287d811acd]
link Company to TestType--><path codeLine="98" d="M2469.345,354.435 C2569.95,349.695 2772.975,347.565 2937,393 C3066.75,428.94 3203.07,509.625 3278.925,558.975 " fill="none" id="Company-TestType" style="stroke:#A80036;stroke-width:1.5;"/><polygon fill="#000000" points="2996.7715,396.6008,2984.6971,389.0033,2982.5374,397.5515,2996.7715,396.6008" style="stroke:#000000;stroke-width:1.5;"/><text fill="#000000" font-family="sans-serif" font-size="19.5" lengthAdjust="spacing" textLength="79.5" x="3003" y="402.7427">conducts</text><text fill="#000000" font-family="sans-serif" font-size="19.5" lengthAdjust="spacing" textLength="10.5" x="2480.8303" y="376.0356">1</text><text fill="#000000" font-family="sans-serif" font-size="19.5" lengthAdjust="spacing" textLength="7.5" x="3259.3807" y="573.9602">*</text><!--MD5=[e981d4f96c4342412d1e68160b30cf70]
link Test to TestType--><path codeLine="99" d="M2898.915,785.655 C2976.345,754.065 3089.31,707.64 3187.5,666 C3217.605,653.235 3250.95,638.745 3278.67,626.61 " fill="none" id="Test-TestType" style="stroke:#A80036;stroke-width:1.5;"/><polygon fill="#000000" points="3143.4178,649.8664,3129.2004,651.0414,3132.6063,659.1738,3143.4178,649.8664" style="stroke:#000000;stroke-width:1.5;"/><text fill="#000000" font-family="sans-serif" font-size="19.5" lengthAdjust="spacing" textLength="36" x="3150" y="660.7427">is of</text><text fill="#000000" font-family="sans-serif" font-size="19.5" lengthAdjust="spacing" textLength="7.5" x="2910.9093" y="802.7621">*</text><text fill="#000000" font-family="sans-serif" font-size="19.5" lengthAdjust="spacing" textLength="10.5" x="3256.6406" y="653.5764">1</text><!--MD5=[e8b34c2e6517a986175307f5599f058a]
link Receptionist to Test--><path codeLine="100" d="M1357.845,718.47 C1453.335,723.81 1623.915,732 1770,732 C1770,732 1770,732 2406.75,732 C2512.59,732 2630.355,763.41 2709.735,789.435 " fill="none" id="Receptionist-Test" style="stroke:#A80036;stroke-width:1.5;"/><polygon fill="#000000" points="1973.9897,719.1568,1960.6718,714.0433,1960.2096,722.8479,1973.9897,719.1568" style="stroke:#000000;stroke-width:1.5;"/><text fill="#000000" font-family="sans-serif" font-size="19.5" lengthAdjust="spacing" textLength="108" x="1980" y="726.7427">registers the</text><text fill="#000000" font-family="sans-serif" font-size="19.5" lengthAdjust="spacing" textLength="7.5" x="1369.5722" y="741.1704">*</text><text fill="#000000" font-family="sans-serif" font-size="19.5" lengthAdjust="spacing" textLength="7.5" x="2690.259" y="807.0028">*</text><!--MD5=[fba3ac294f3c76c431d275cef443fef8]
link LabOrder to TestType--><path codeLine="101" d="M1158.945,562.605 C1239.105,577.26 1383.555,600 1508.25,600 C1508.25,600 1508.25,600 3159.75,600 C3199.425,600 3244.05,600 3278.835,600 " fill="none" id="LabOrder-TestType" style="stroke:#A80036;stroke-width:1.5;"/><polygon fill="#000000" points="2360.9988,586.896,2347.5111,582.249,2347.3556,591.0644,2360.9988,586.896" style="stroke:#000000;stroke-width:1.5;"/><text fill="#000000" font-family="sans-serif" font-size="19.5" lengthAdjust="spacing" textLength="96" x="2367" y="594.7427">contain the</text><text fill="#000000" font-family="sans-serif" font-size="19.5" lengthAdjust="spacing" textLength="7.5" x="1170.8696" y="587.1883">*</text><text fill="#000000" font-family="sans-serif" font-size="19.5" lengthAdjust="spacing" textLength="10.5" x="3256.4158" y="622.471">1</text><!--MD5=[4d919ce9634ce3b6a19089589632ad48]
link MedicalLabTechnician to Test--><path codeLine="102" d="M130.935,528.57 C140.475,616.545 180.975,864 334.5,864 C334.5,864 334.5,864 2406.75,864 C2510.76,864 2629.335,850.005 2709.405,838.47 " fill="none" id="MedicalLabTechnician-Test" style="stroke:#A80036;stroke-width:1.5;"/><polygon fill="#000000" points="1045.4464,851.6586,1032.5018,845.6627,1031.4497,854.4165,1045.4464,851.6586" style="stroke:#000000;stroke-width:1.5;"/><text fill="#000000" font-family="sans-serif" font-size="19.5" lengthAdjust="spacing" textLength="108" x="1051.5" y="858.7427">registers the</text><text fill="#000000" font-family="sans-serif" font-size="19.5" lengthAdjust="spacing" textLength="10.5" x="120.1488" y="560.3242">1</text><text fill="#000000" font-family="sans-serif" font-size="19.5" lengthAdjust="spacing" textLength="7.5" x="2690.505" y="861.8446">*</text><!--MD5=[0bde84c484199f8c429a86e32cc6847f]
link Client to LabOrder--><path codeLine="103" d="M810.015,550.5 C877.74,550.5 971.415,550.5 1032.405,550.5 " fill="none" id="Client-LabOrder" style="stroke:#A80036;stroke-width:1.5;"/><polygon fill="#000000" points="900,537.2637,886.4324,532.8553,886.4324,541.6721,900,537.2637" style="stroke:#000000;stroke-width:1.5;"/><text fill="#000000" font-family="sans-serif" font-size="19.5" lengthAdjust="spacing" textLength="48" x="906" y="545.2427">has a</text><text fill="#000000" font-family="sans-serif" font-size="19.5" lengthAdjust="spacing" textLength="10.5" x="822.2115" y="572.4221">1</text><text fill="#000000" font-family="sans-serif" font-size="19.5" lengthAdjust="spacing" textLength="7.5" x="1013.373" y="572.8505">*</text><!--MD5=[ce196d60179d4c6ae847449fc07f987f]
link LabOrder to Parameter--><path codeLine="104" d="M1158.78,541.515 C1234.92,530.4 1364.04,511.545 1442.205,500.145 " fill="none" id="LabOrder-Parameter" style="stroke:#A80036;stroke-width:1.5;"/><polygon fill="#000000" points="1237.4214,500.1804,1223.3593,497.7779,1224.6327,506.5022,1237.4214,500.1804" style="stroke:#000000;stroke-width:1.5;"/><text fill="#000000" font-family="sans-serif" font-size="19.5" lengthAdjust="spacing" textLength="96" x="1243.5" y="509.2427">contain the</text><text fill="#000000" font-family="sans-serif" font-size="19.5" lengthAdjust="spacing" textLength="7.5" x="1170.6752" y="534.0667">*</text><text fill="#000000" font-family="sans-serif" font-size="19.5" lengthAdjust="spacing" textLength="7.5" x="1422.8968" y="524.0163">*</text><!--MD5=[7048eb257bae2750d747ca61a113ed73]
link Client to Receptionist--><path codeLine="105" d="M810.63,576.195 C825.405,580.65 840.645,585.225 855,589.5 C977.76,626.025 1120.725,667.71 1205.685,692.385 " fill="none" id="Client-Receptionist" style="stroke:#A80036;stroke-width:1.5;"/><polygon fill="#000000" points="855.3047,574.1475,867.0772,582.205,869.565,573.7465,855.3047,574.1475" style="stroke:#000000;stroke-width:1.5;"/><text fill="#000000" font-family="sans-serif" font-size="19.5" lengthAdjust="spacing" textLength="108" x="876" y="584.2427">registers the</text><text fill="#000000" font-family="sans-serif" font-size="19.5" lengthAdjust="spacing" textLength="7.5" x="822.1459" y="601.3312">*</text><text fill="#000000" font-family="sans-serif" font-size="19.5" lengthAdjust="spacing" textLength="10.5" x="1183.7501" y="711.3126">1</text><!--MD5=[0df1d3af52a892d58b409f9a19bfdcc8]
link MedicalLabTechnician to Client--><path codeLine="106" d="M243.075,517.605 C286.2,524.28 335.745,531.165 381,535.5 C468.555,543.9 569.19,547.59 638.505,549.225 " fill="none" id="MedicalLabTechnician-Client" style="stroke:#A80036;stroke-width:1.5;"/><polygon fill="#000000" points="424.4761,522.8615,411.3031,517.3857,410.6003,526.1744,424.4761,522.8615" style="stroke:#000000;stroke-width:1.5;"/><text fill="#000000" font-family="sans-serif" font-size="19.5" lengthAdjust="spacing" textLength="40.5" x="430.5" y="530.2427">calls</text><text fill="#000000" font-family="sans-serif" font-size="19.5" lengthAdjust="spacing" textLength="10.5" x="255.0425" y="540.9847">1</text><text fill="#000000" font-family="sans-serif" font-size="19.5" lengthAdjust="spacing" textLength="7.5" x="619.5064" y="570.9056">*</text><!--MD5=[f998978c7e0615044d5eedbb865ec126]
link Client to Report--><path codeLine="107" d="M810.015,495.735 C881.985,448.845 983.25,382.845 1043.475,343.59 " fill="none" id="Client-Report" style="stroke:#A80036;stroke-width:1.5;"/><polygon fill="#000000" points="861.4665,373.3586,875.2403,369.6441,870.4265,362.2575,861.4665,373.3586" style="stroke:#000000;stroke-width:1.5;"/><text fill="#000000" font-family="sans-serif" font-size="19.5" lengthAdjust="spacing" textLength="97.5" x="881.25" y="377.2427">delivered to</text><text fill="#000000" font-family="sans-serif" font-size="19.5" lengthAdjust="spacing" textLength="7.5" x="822.01" y="510.2981">*</text><text fill="#000000" font-family="sans-serif" font-size="19.5" lengthAdjust="spacing" textLength="10.5" x="1021.6498" y="372.7859">1</text><!--MD5=[255635bb54591641b09039a972b4bbe7]
link Report to Doctor--><path codeLine="108" d="M1147.89,324.3 C1166.115,328.95 1186.89,333.855 1206,337.5 C1294.155,354.3 1398.075,366.6 1458.24,373.005 " fill="none" id="Report-Doctor" style="stroke:#A80036;stroke-width:1.5;"/><polygon fill="#000000" points="1242.0907,323.1009,1254.8108,329.5595,1256.1777,320.8493,1242.0907,323.1009" style="stroke:#000000;stroke-width:1.5;"/><text fill="#000000" font-family="sans-serif" font-size="19.5" lengthAdjust="spacing" textLength="57" x="1263" y="332.2427">write a</text><text fill="#000000" font-family="sans-serif" font-size="19.5" lengthAdjust="spacing" textLength="10.5" x="1159.7267" y="349.9437">1</text><text fill="#000000" font-family="sans-serif" font-size="19.5" lengthAdjust="spacing" textLength="7.5" x="1439.3426" y="394.7468">*</text><!--MD5=[e9272e316dbd1dc7bfa250988117d2d3]
link Report to API--><path codeLine="109" d="M1147.65,304.98 C1231.68,295.785 1398.42,277.53 1471.95,269.475 " fill="none" id="Report-API" style="stroke:#A80036;stroke-width:1.5;"/><polygon fill="#000000" points="1242.7055,269.4474,1228.7386,266.5418,1229.6982,275.3062,1242.7055,269.4474" style="stroke:#000000;stroke-width:1.5;"/><text fill="#000000" font-family="sans-serif" font-size="19.5" lengthAdjust="spacing" textLength="85.5" x="1248.75" y="278.2427">verified by</text><text fill="#000000" font-family="sans-serif" font-size="19.5" lengthAdjust="spacing" textLength="7.5" x="1159.8234" y="319.4123">*</text><text fill="#000000" font-family="sans-serif" font-size="19.5" lengthAdjust="spacing" textLength="10.5" x="1449.8803" y="294.0818">1</text><!--MD5=[1fd94cbb1796fbc3f58126591d0a7efb]
link Report to LabCoordinator--><path codeLine="110" d="M1147.8,276.195 C1165.665,265.065 1186.23,253.32 1206,244.5 C1275.84,213.33 1359.315,188.97 1420.83,173.235 " fill="none" id="Report-LabCoordinator" style="stroke:#A80036;stroke-width:1.5;"/><polygon fill="#000000" points="1242.2676,177.6173,1228.0171,178.2798,1231.1281,186.5295,1242.2676,177.6173" style="stroke:#000000;stroke-width:1.5;"/><text fill="#000000" font-family="sans-serif" font-size="19.5" lengthAdjust="spacing" textLength="85.5" x="1248.75" y="188.2427">verified by</text><text fill="#000000" font-family="sans-serif" font-size="19.5" lengthAdjust="spacing" textLength="10.5" x="1159.6181" y="291.917">1</text><text fill="#000000" font-family="sans-serif" font-size="19.5" lengthAdjust="spacing" textLength="10.5" x="1398.853" y="197.4385">1</text><!--MD5=[852f3a1b1bcfc6074ebcba484562eac0]
link Parameter to Category--><path codeLine="111" d="M1577.595,490.5 C1678.02,490.5 1867.065,490.5 1963.275,490.5 " fill="none" id="Parameter-Category" style="stroke:#A80036;stroke-width:1.5;"/><polygon fill="#000000" points="1716,477.2637,1702.4324,472.8553,1702.4324,481.6721,1716,477.2637" style="stroke:#000000;stroke-width:1.5;"/><text fill="#000000" font-family="sans-serif" font-size="19.5" lengthAdjust="spacing" textLength="118.5" x="1722" y="485.2427">present under</text><text fill="#000000" font-family="sans-serif" font-size="19.5" lengthAdjust="spacing" textLength="7.5" x="1589.4529" y="512.7738">*</text><text fill="#000000" font-family="sans-serif" font-size="19.5" lengthAdjust="spacing" textLength="10.5" x="1940.9787" y="512.9271">1</text><!--MD5=[2c46651aa9ea3a6d986170fabc83ad48]
link Category to Administrator--><path codeLine="112" d="M2085.225,490.5 C2150.31,490.5 2254.86,490.5 2326.29,490.5 " fill="none" id="Category-Administrator" style="stroke:#A80036;stroke-width:1.5;"/><polygon fill="#000000" points="2182.5,477.2637,2168.9324,472.8553,2168.9324,481.6721,2182.5,477.2637" style="stroke:#000000;stroke-width:1.5;"/><text fill="#000000" font-family="sans-serif" font-size="19.5" lengthAdjust="spacing" textLength="91.5" x="2188.5" y="485.2427">created by</text><text fill="#000000" font-family="sans-serif" font-size="19.5" lengthAdjust="spacing" textLength="7.5" x="2097.1587" y="513.0038">*</text><text fill="#000000" font-family="sans-serif" font-size="19.5" lengthAdjust="spacing" textLength="10.5" x="2303.948" y="512.4673">1</text><!--MD5=[c0dabe38e409519cc8dec5fcb7808cb3]
link Doctor to ChemicalAnalysis--><path codeLine="113" d="M1561.095,362.91 C1632.3,341.175 1767.15,299.475 1881,261 C1900.32,254.475 1921.035,247.185 1940.49,240.21 " fill="none" id="Doctor-ChemicalAnalysis" style="stroke:#A80036;stroke-width:1.5;"/><polygon fill="#000000" points="1676.6361,245.4558,1662.3702,245.4363,1665.0833,253.8253,1676.6361,245.4558" style="stroke:#000000;stroke-width:1.5;"/><text fill="#000000" font-family="sans-serif" font-size="19.5" lengthAdjust="spacing" textLength="196.5" x="1683" y="255.7427">analyzes the results of</text><text fill="#000000" font-family="sans-serif" font-size="19.5" lengthAdjust="spacing" textLength="10.5" x="1572.7677" y="382.5697">1</text><text fill="#000000" font-family="sans-serif" font-size="19.5" lengthAdjust="spacing" textLength="7.5" x="1908.3778" y="272.3984">*</text><!--MD5=[0e88ba9f0b8aeb4a6e3525d528d15e9e]
link ChemicalLaboratory to ChemicalAnalysis--><path codeLine="114" d="M1574.715,70.755 C1588.995,78.39 1603.815,87 1617,96 C1638.87,110.91 1638.285,123.255 1662,135 C1745.415,176.28 1850.55,194.865 1925.76,203.22 " fill="none" id="ChemicalLaboratory-ChemicalAnalysis" style="stroke:#A80036;stroke-width:1.5;"/><polygon fill="#000000" points="1720.767,124.4115,1709.6295,115.497,1706.5167,123.746,1720.767,124.4115" style="stroke:#000000;stroke-width:1.5;"/><text fill="#000000" font-family="sans-serif" font-size="19.5" lengthAdjust="spacing" textLength="108" x="1727.25" y="129.7427">performs the</text><text fill="#000000" font-family="sans-serif" font-size="19.5" lengthAdjust="spacing" textLength="10.5" x="1581.0098" y="102.9561">1</text><text fill="#000000" font-family="sans-serif" font-size="19.5" lengthAdjust="spacing" textLength="7.5" x="1906.4385" y="224.0967">*</text><!--MD5=[0a29b4543c1af9e8341b856b8b8ec05c]
link MedicalLabTechnician to Sample--><path codeLine="115" d="M170.175,467.715 C201.225,446.79 245.355,420.12 288,405 C419.1,358.545 583.65,344.025 667.83,339.51 " fill="none" id="MedicalLabTechnician-Sample" style="stroke:#A80036;stroke-width:1.5;"/><polygon fill="#000000" points="395.7629,341.8926,381.5244,341.0084,383.724,349.5464,395.7629,341.8926" style="stroke:#000000;stroke-width:1.5;"/><text fill="#000000" font-family="sans-serif" font-size="19.5" lengthAdjust="spacing" textLength="97.5" x="402" y="351.7427">records the</text><text fill="#000000" font-family="sans-serif" font-size="19.5" lengthAdjust="spacing" textLength="10.5" x="170.8889" y="451.6139">1</text><text fill="#000000" font-family="sans-serif" font-size="19.5" lengthAdjust="spacing" textLength="7.5" x="648.8124" y="362.4971">*</text><!--MD5=[0a29b4543c1af9e8341b856b8b8ec05c]
link MedicalLabTechnician to Sample--><path codeLine="116" d="M243.06,477.81 C317.28,463.71 415.62,443.055 501,418.5 C558.96,401.835 623.55,377.595 668.055,359.985 " fill="none" id="MedicalLabTechnician-Sample-1" style="stroke:#A80036;stroke-width:1.5;"/><polygon fill="#000000" points="399.4774,403.26,385.2252,402.6366,387.5807,411.1329,399.4774,403.26" style="stroke:#000000;stroke-width:1.5;"/><text fill="#000000" font-family="sans-serif" font-size="19.5" lengthAdjust="spacing" textLength="90" x="405.75" y="413.2427">collect the</text><text fill="#000000" font-family="sans-serif" font-size="19.5" lengthAdjust="spacing" textLength="10.5" x="255.0261" y="497.2724">1</text><text fill="#000000" font-family="sans-serif" font-size="19.5" lengthAdjust="spacing" textLength="7.5" x="648.7041" y="387.093">*</text><!--MD5=[7dcd581d20c87a53331ad083603da507]
link Sample to ChemicalLaboratory--><path codeLine="117" d="M781.41,316.305 C870.735,282.15 1052.145,212.85 1206,154.5 C1281.255,125.97 1367.115,93.6 1428.045,70.665 " fill="none" id="Sample-ChemicalLaboratory" style="stroke:#A80036;stroke-width:1.5;"/><polygon fill="#000000" points="1069.0112,158.1003,1054.7624,158.7973,1057.8933,167.0394,1069.0112,158.1003" style="stroke:#000000;stroke-width:1.5;"/><text fill="#000000" font-family="sans-serif" font-size="19.5" lengthAdjust="spacing" textLength="60" x="1075.5" y="168.7427">sent to</text><text fill="#000000" font-family="sans-serif" font-size="19.5" lengthAdjust="spacing" textLength="7.5" x="792.5942" y="334.9236">*</text><text fill="#000000" font-family="sans-serif" font-size="19.5" lengthAdjust="spacing" textLength="10.5" x="1393.0889" y="102.8407">1</text><!--MD5=[80158d004ed0222324740e07a85274c7]
@startuml
'https://plantuml.com/class-diagram

hide methods
left to right direction
skinparam classAttributeIconSize 0

class Company {

}

class Receptionist {

}

class Client {
 - Name
 - Email
 - Phone Number
 - Sex
 - TIF
 - Birth Date
 - NHS Number
 - Citizen Card Number

}

class Doctor {

}

class Administrator{

}
class LabCoordinator{
}


class LabOrder {

}

class Category {

}

class TestType {
- Blood
- Covid 19
}

class Sample {
- Barcode
}

class ChemicalLaboratory{

}

class Report {
-Diagnosis

}

class Test {
- internal code
- NHS code
- description
- date samples collected
- time samples collected
- date chemical analysis
- time chemical analysis
- date diagnosis made
- time diagnosis made
- date of validation
- time of validation
}
class Parameter {


}


class MedicalLabTechnician {

}

class ChemicalAnalysis {

}

class ClinicalAnalysisLaboratory{

}

ChemicalLaboratory "*" - - - "1" Company: owns <
Company "1" - - "*" ClinicalAnalysisLaboratory: owns >
Company "1" - - "*" Test: performs >
Company "1" - - "*" TestType: conducts >
Test "*" - - - "1" TestType: is of >
Receptionist "*" - - "*" Test: registers the >
LabOrder "*" - - - - - - "1" TestType: contain the >
MedicalLabTechnician "1" - - "*" Test: registers the >
Client "1" - - "*" LabOrder: has a >
LabOrder "*" - - "*" Parameter: contain the >
Client "*" - - "1" Receptionist: registers the <
MedicalLabTechnician "1" - - - "*" Client: calls >
Client "*" - - "1" Report: delivered to <
Report "1" - - "*" Doctor: write a <
Report "*" - - "1" API: verified by >
Report "1" - - "1" LabCoordinator : verified by >
Parameter "*" - - "1" Category: present under >
Category "*" - - "1" Administrator: created by >
Doctor "1" - - "*" ChemicalAnalysis: analyzes the results of >
ChemicalLaboratory "1" - - "*" ChemicalAnalysis: performs the >
MedicalLabTechnician "1" - - "*" Sample: records the >
MedicalLabTechnician "1" - - - - "*" Sample: collect the >
Sample "*" - - - "1" ChemicalLaboratory: sent to >


@enduml

@startuml

hide methods
left to right direction
skinparam classAttributeIconSize 0

class Company {

}

class Receptionist {

}

class Client {
 - Name
 - Email
 - Phone Number
 - Sex
 - TIF
 - Birth Date
 - NHS Number
 - Citizen Card Number

}

class Doctor {

}

class Administrator{

}
class LabCoordinator{
}


class LabOrder {

}

class Category {

}

class TestType {
- Blood
- Covid 19
}

class Sample {
- Barcode
}

class ChemicalLaboratory{

}

class Report {
-Diagnosis

}

class Test {
- internal code
- NHS code
- description
- date samples collected
- time samples collected
- date chemical analysis
- time chemical analysis
- date diagnosis made
- time diagnosis made
- date of validation
- time of validation
}
class Parameter {


}


class MedicalLabTechnician {

}

class ChemicalAnalysis {

}

class ClinicalAnalysisLaboratory{

}

ChemicalLaboratory "*" - - - "1" Company: owns <
Company "1" - - "*" ClinicalAnalysisLaboratory: owns >
Company "1" - - "*" Test: performs >
Company "1" - - "*" TestType: conducts >
Test "*" - - - "1" TestType: is of >
Receptionist "*" - - "*" Test: registers the >
LabOrder "*" - - - - - - "1" TestType: contain the >
MedicalLabTechnician "1" - - "*" Test: registers the >
Client "1" - - "*" LabOrder: has a >
LabOrder "*" - - "*" Parameter: contain the >
Client "*" - - "1" Receptionist: registers the <
MedicalLabTechnician "1" - - - "*" Client: calls >
Client "*" - - "1" Report: delivered to <
Report "1" - - "*" Doctor: write a <
Report "*" - - "1" API: verified by >
Report "1" - - "1" LabCoordinator : verified by >
Parameter "*" - - "1" Category: present under >
Category "*" - - "1" Administrator: created by >
Doctor "1" - - "*" ChemicalAnalysis: analyzes the results of >
ChemicalLaboratory "1" - - "*" ChemicalAnalysis: performs the >
MedicalLabTechnician "1" - - "*" Sample: records the >
MedicalLabTechnician "1" - - - - "*" Sample: collect the >
Sample "*" - - - "1" ChemicalLaboratory: sent to >


@enduml

PlantUML version 1.2021.2(Sun Mar 07 11:10:27 GMT 2021)
(GPL source distribution)
Java Runtime: OpenJDK Runtime Environment
JVM: OpenJDK 64-Bit Server VM
Default Encoding: Cp1252
Language: pt
Country: PT
--></g></svg>