<?xml version="1.0" encoding="UTF-8" standalone="no"?><svg xmlns="http://www.w3.org/2000/svg" xmlns:xlink="http://www.w3.org/1999/xlink" contentScriptType="application/ecmascript" contentStyleType="text/css" height="1606.5px" preserveAspectRatio="none" style="width:1251px;height:1606px;" version="1.1" viewBox="0 0 1251 1606" width="1251px" zoomAndPan="magnify"><defs><filter height="300%" id="f1jrflzu6wfv2h" width="300%" x="-1" y="-1"><feGaussianBlur result="blurOut" stdDeviation="3.0"/><feColorMatrix in="blurOut" result="blurOut2" type="matrix" values="0 0 0 0 0 0 0 0 0 0 0 0 0 0 0 0 0 0 .4 0"/><feOffset dx="6.0" dy="6.0" in="blurOut2" result="blurOut3"/><feBlend in="SourceGraphic" in2="blurOut3" mode="normal"/></filter></defs><g><!--MD5=[99b31deea5d7419a569cd5090bf83263]
cluster System--><rect fill="#FFFFFF" filter="url(#f1jrflzu6wfv2h)" height="1576.5" style="stroke:#000000;stroke-width:2.25;" width="502.5" x="358.5" y="10.5"/><text fill="#000000" font-family="sans-serif" font-size="21" font-weight="bold" lengthAdjust="spacing" textLength="75" x="572.25" y="35.2998">System</text><ellipse cx="609.6992" cy="94.1898" fill="#FEFECE" filter="url(#f1jrflzu6wfv2h)" rx="130.4492" ry="29.6898" style="stroke:#A80036;stroke-width:2.25;"/><text fill="#000000" font-family="sans-serif" font-size="21" lengthAdjust="spacing" textLength="196.5" x="511.4492" y="99.7826">Register a new client</text><ellipse cx="610.0014" cy="226.8503" fill="#FEFECE" filter="url(#f1jrflzu6wfv2h)" rx="227.5014" ry="49.1003" style="stroke:#A80036;stroke-width:2.25;"/><text fill="#000000" font-family="sans-serif" font-size="21" lengthAdjust="spacing" textLength="408" x="406.0014" y="232.4431">Check if a client already exist in the System</text><ellipse cx="609.5918" cy="366.2684" fill="#FEFECE" filter="url(#f1jrflzu6wfv2h)" rx="174.5918" ry="38.5184" style="stroke:#A80036;stroke-width:2.25;"/><text fill="#000000" font-family="sans-serif" font-size="21" lengthAdjust="spacing" textLength="295.5" x="461.8418" y="371.8611">Register a test to be performed</text><ellipse cx="609.5204" cy="493.7541" fill="#FEFECE" filter="url(#f1jrflzu6wfv2h)" rx="167.0204" ry="37.0041" style="stroke:#A80036;stroke-width:2.25;"/><text fill="#000000" font-family="sans-serif" font-size="21" lengthAdjust="spacing" textLength="279" x="470.0204" y="499.3469">Record the samples collected</text><ellipse cx="609.6622" cy="628.1824" fill="#FEFECE" filter="url(#f1jrflzu6wfv2h)" rx="205.4122" ry="44.6824" style="stroke:#A80036;stroke-width:2.25;"/><text fill="#000000" font-family="sans-serif" font-size="21" lengthAdjust="spacing" textLength="361.5" x="428.9122" y="633.7752">Associate a barcode with each sample</text><ellipse cx="609.5385" cy="771.1077" fill="#FEFECE" filter="url(#f1jrflzu6wfv2h)" rx="207.5385" ry="45.1077" style="stroke:#A80036;stroke-width:2.25;"/><text fill="#000000" font-family="sans-serif" font-size="21" lengthAdjust="spacing" textLength="366" x="426.5385" y="776.7005">Record the result of chemistry analysis</text><ellipse cx="609.8374" cy="902.8675" fill="#FEFECE" filter="url(#f1jrflzu6wfv2h)" rx="150.0874" ry="33.6175" style="stroke:#A80036;stroke-width:2.25;"/><text fill="#000000" font-family="sans-serif" font-size="21" lengthAdjust="spacing" textLength="241.5" x="489.0874" y="908.4603">Specify a new type of test</text><ellipse cx="609.7171" cy="1025.8434" fill="#FEFECE" filter="url(#f1jrflzu6wfv2h)" rx="164.9671" ry="36.5934" style="stroke:#A80036;stroke-width:2.25;"/><text fill="#000000" font-family="sans-serif" font-size="21" lengthAdjust="spacing" textLength="274.5" x="472.4671" y="1031.4362">Specify a new test parameter</text><ellipse cx="610.1081" cy="1156.2716" fill="#FEFECE" filter="url(#f1jrflzu6wfv2h)" rx="187.1081" ry="41.0216" style="stroke:#A80036;stroke-width:2.25;"/><text fill="#000000" font-family="sans-serif" font-size="21" lengthAdjust="spacing" textLength="322.5" x="448.8581" y="1161.8644">Specify a new parameter category</text><ellipse cx="609.4561" cy="1412.7912" fill="#FEFECE" filter="url(#f1jrflzu6wfv2h)" rx="104.7061" ry="24.5412" style="stroke:#A80036;stroke-width:2.25;"/><text fill="#000000" font-family="sans-serif" font-size="21" lengthAdjust="spacing" textLength="130.5" x="539.7061" y="1419.5661">Write a report</text><ellipse cx="609.9878" cy="1527.0476" fill="#FEFECE" filter="url(#f1jrflzu6wfv2h)" rx="162.2378" ry="36.0476" style="stroke:#A80036;stroke-width:2.25;"/><text fill="#000000" font-family="sans-serif" font-size="21" lengthAdjust="spacing" textLength="268.5" x="475.7378" y="1532.6403">Validation of clinical analysis</text><ellipse cx="609.5267" cy="1292.9553" fill="#FEFECE" filter="url(#f1jrflzu6wfv2h)" rx="195.5267" ry="42.7053" style="stroke:#A80036;stroke-width:2.25;"/><text fill="#000000" font-family="sans-serif" font-size="21" lengthAdjust="spacing" textLength="340.5" x="439.2767" y="1298.5481">Access a internal process of a client</text><!--MD5=[dadd680571e2ee7a6b53223d26ce7e08]
entity Adm--><ellipse cx="1129.5" cy="1044" fill="#FEFECE" filter="url(#f1jrflzu6wfv2h)" rx="12" ry="12" style="stroke:#A80036;stroke-width:2.25;"/><path d="M1129.5,1056 L1129.5,1096.5 M1110,1068 L1149,1068 M1129.5,1096.5 L1110,1119 M1129.5,1096.5 L1149,1119 " fill="none" filter="url(#f1jrflzu6wfv2h)" style="stroke:#A80036;stroke-width:2.25;"/><text fill="#000000" font-family="sans-serif" font-size="21" lengthAdjust="spacing" textLength="124.5" x="1067.25" y="1149.0498">Administrator</text><!--MD5=[2ea11ae4ce5c16c166fd50507fbf8cc8]
entity Recp--><ellipse cx="150.75" cy="178.5" fill="#FEFECE" filter="url(#f1jrflzu6wfv2h)" rx="12" ry="12" style="stroke:#A80036;stroke-width:2.25;"/><path d="M150.75,190.5 L150.75,231 M131.25,202.5 L170.25,202.5 M150.75,231 L131.25,253.5 M150.75,231 L170.25,253.5 " fill="none" filter="url(#f1jrflzu6wfv2h)" style="stroke:#A80036;stroke-width:2.25;"/><text fill="#000000" font-family="sans-serif" font-size="21" lengthAdjust="spacing" textLength="121.5" x="90" y="283.5498">Recepcionist</text><!--MD5=[55accfb37448cdfd161546e1b52567fc]
entity MedLab--><ellipse cx="150.75" cy="495" fill="#FEFECE" filter="url(#f1jrflzu6wfv2h)" rx="12" ry="12" style="stroke:#A80036;stroke-width:2.25;"/><path d="M150.75,507 L150.75,547.5 M131.25,519 L170.25,519 M150.75,547.5 L131.25,570 M150.75,547.5 L170.25,570 " fill="none" filter="url(#f1jrflzu6wfv2h)" style="stroke:#A80036;stroke-width:2.25;"/><text fill="#000000" font-family="sans-serif" font-size="21" lengthAdjust="spacing" textLength="177" x="62.25" y="600.0498">Med lab technician</text><!--MD5=[cba89c66b8afe94abf191ea3442b3e28]
entity ClinTec--><ellipse cx="150.75" cy="723" fill="#FEFECE" filter="url(#f1jrflzu6wfv2h)" rx="12" ry="12" style="stroke:#A80036;stroke-width:2.25;"/><path d="M150.75,735 L150.75,775.5 M131.25,747 L170.25,747 M150.75,775.5 L131.25,798 M150.75,775.5 L170.25,798 " fill="none" filter="url(#f1jrflzu6wfv2h)" style="stroke:#A80036;stroke-width:2.25;"/><text fill="#000000" font-family="sans-serif" font-size="21" lengthAdjust="spacing" textLength="283.5" x="9" y="828.0498">Clinical chemistry technologist</text><!--MD5=[f138531b5c7ec98bcba2d29a7db668a7]
entity Doc--><ellipse cx="1129.5" cy="1312.5" fill="#FEFECE" filter="url(#f1jrflzu6wfv2h)" rx="12" ry="12" style="stroke:#A80036;stroke-width:2.25;"/><path d="M1129.5,1324.5 L1129.5,1365 M1110,1336.5 L1149,1336.5 M1129.5,1365 L1110,1387.5 M1129.5,1365 L1149,1387.5 " fill="none" filter="url(#f1jrflzu6wfv2h)" style="stroke:#A80036;stroke-width:2.25;"/><text fill="#000000" font-family="sans-serif" font-size="21" lengthAdjust="spacing" textLength="63" x="1098" y="1417.5498">Doctor</text><!--MD5=[8658c2df0a90172a5e5afb4523fad7ef]
entity LabCod--><ellipse cx="1129.5" cy="1489.5" fill="#FEFECE" filter="url(#f1jrflzu6wfv2h)" rx="12" ry="12" style="stroke:#A80036;stroke-width:2.25;"/><path d="M1129.5,1501.5 L1129.5,1542 M1110,1513.5 L1149,1513.5 M1129.5,1542 L1110,1564.5 M1129.5,1542 L1149,1564.5 " fill="none" filter="url(#f1jrflzu6wfv2h)" style="stroke:#A80036;stroke-width:2.25;"/><text fill="#000000" font-family="sans-serif" font-size="21" lengthAdjust="spacing" textLength="222" x="1018.5" y="1594.5498">Laboratory Coordinator</text><!--MD5=[e9932c564dd83838e58413d99c1498cf]
link Recp to UC1--><path d="M211.8,200.76 C249.81,185.025 300.45,165.315 346.5,151.5 C398.4,135.93 457.26,122.73 506.01,112.965 " fill="none" id="Recp-UC1" style="stroke:#A80036;stroke-width:1.5;"/><!--MD5=[f2d300dfe1197d7e06e651a80a0a9d47]
link Recp to UC2--><path d="M211.86,226.5 C256.05,226.5 319.275,226.5 382.305,226.5 " fill="none" id="Recp-UC2" style="stroke:#A80036;stroke-width:1.5;"/><!--MD5=[68509ddf1369aa040157949f310629ca]
link Recp to UC3--><path d="M211.92,251.805 C250.005,267.375 300.645,287.055 346.5,301.5 C391.14,315.555 440.85,328.47 484.845,339 " fill="none" id="Recp-UC3" style="stroke:#A80036;stroke-width:1.5;"/><!--MD5=[16449f63211c141f44d31497dda81844]
link MedLab to UC5--><path d="M239.625,533.52 C301.695,526.77 386.565,517.56 459.24,509.67 " fill="none" id="MedLab-UC5" style="stroke:#A80036;stroke-width:1.5;"/><!--MD5=[c979d2e2c5b3751b61054ac9da656de0]
link MedLab to UC6--><path d="M239.625,559.38 C299.88,570.675 381.645,586.005 452.85,599.355 " fill="none" id="MedLab-UC6" style="stroke:#A80036;stroke-width:1.5;"/><!--MD5=[cf8881f965b65888afdea54cd7c3d8a4]
link ClinTec to UC7--><path d="M292.785,771 C327.33,771 365.025,771 401.955,771 " fill="none" id="ClinTec-UC7" style="stroke:#A80036;stroke-width:1.5;"/><!--MD5=[fffe6a2bb5afa75fb07c87fe3aea20b1]
link UC9 to Adm--><path d="M728.97,923.625 C774.66,933.27 826.965,946.365 873,963 C942.06,987.96 1016.49,1027.17 1067.01,1055.82 " fill="none" id="UC9-Adm" style="stroke:#A80036;stroke-width:1.5;"/><!--MD5=[23123a33b00b822e3bf4c0e0c14ab9af]
link UC10 to Adm--><path d="M753.825,1044.21 C856.59,1057.335 990.18,1074.39 1066.77,1084.185 " fill="none" id="UC10-Adm" style="stroke:#A80036;stroke-width:1.5;"/><!--MD5=[5aac09697fb824f9866b5be33762b3ed]
link UC11 to Adm--><path d="M773.34,1136.265 C873.09,1123.815 995.175,1108.575 1066.98,1099.62 " fill="none" id="UC11-Adm" style="stroke:#A80036;stroke-width:1.5;"/><!--MD5=[71c85ea856a48a59dff8b6e5991522f8]
link UC16 to Adm--><path d="M748.905,1262.76 C789.465,1252.245 833.535,1239.21 873,1224 C941.85,1197.48 1016.325,1157.505 1066.905,1128.495 " fill="none" id="UC16-Adm" style="stroke:#A80036;stroke-width:1.5;"/><!--MD5=[5caf6ff7cd4f60a445838b2cadf8eaf8]
link UC12 to Doc--><path d="M706.635,1403.31 C825.615,1391.22 1022.535,1371.21 1097.64,1363.59 " fill="none" id="UC12-Doc" style="stroke:#A80036;stroke-width:1.5;"/><!--MD5=[cecf7b7aa912f740ca8d438768f74bf9]
link UC13 to LabCod--><path d="M771.21,1530.255 C851.4,1531.875 946.44,1533.81 1018.26,1535.265 " fill="none" id="UC13-LabCod" style="stroke:#A80036;stroke-width:1.5;"/><!--MD5=[ad35d837ef7e2efcd9baf896e0abea56]
@startuml
'https://plantuml.com/use-case-diagram
left to right direction
actor "Administrator" as Adm
actor "Recepcionist" as Recp
actor "Med lab technician" as MedLab
actor "Clinical chemistry technologist" as ClinTec
actor "Doctor" as Doc
actor "Laboratory Coordinator" as LabCod


rectangle System{

usecase "Register a new client" as UC1
usecase "Check if a client already exist in the System" as UC2
usecase "Register a test to be performed" as UC3
usecase "Record the samples collected" as UC5
usecase "Associate a barcode with each sample" as UC6
usecase "Record the result of chemistry analysis" as UC7
usecase "Specify a new type of test" as UC9
usecase "Specify a new test parameter" as UC10
usecase "Specify a new parameter category" as UC11
usecase "Write a report" as UC12
usecase "Validation of clinical analysis" as UC13
usecase "Access a internal process of a client" as UC16

}

Recp - - UC1
Recp - - UC2
Recp - - UC3
MedLab - - UC5
MedLab - - UC6
ClinTec - - UC7
UC9 - - - Adm
UC10 - - - Adm
UC11 - - - Adm
UC16 - - - Adm
UC12 - - - Doc
UC13 - - - LabCod







@enduml

@startuml
left to right direction
actor "Administrator" as Adm
actor "Recepcionist" as Recp
actor "Med lab technician" as MedLab
actor "Clinical chemistry technologist" as ClinTec
actor "Doctor" as Doc
actor "Laboratory Coordinator" as LabCod


rectangle System{

usecase "Register a new client" as UC1
usecase "Check if a client already exist in the System" as UC2
usecase "Register a test to be performed" as UC3
usecase "Record the samples collected" as UC5
usecase "Associate a barcode with each sample" as UC6
usecase "Record the result of chemistry analysis" as UC7
usecase "Specify a new type of test" as UC9
usecase "Specify a new test parameter" as UC10
usecase "Specify a new parameter category" as UC11
usecase "Write a report" as UC12
usecase "Validation of clinical analysis" as UC13
usecase "Access a internal process of a client" as UC16

}

Recp - - UC1
Recp - - UC2
Recp - - UC3
MedLab - - UC5
MedLab - - UC6
ClinTec - - UC7
UC9 - - - Adm
UC10 - - - Adm
UC11 - - - Adm
UC16 - - - Adm
UC12 - - - Doc
UC13 - - - LabCod







@enduml

PlantUML version 1.2021.2(Sun Mar 07 11:10:27 GMT 2021)
(GPL source distribution)
Java Runtime: OpenJDK Runtime Environment
JVM: Dynamic Code Evolution 64-Bit Server VM
Default Encoding: Cp1252
Language: pt
Country: PT
--></g></svg>