<?xml version="1.0" encoding="UTF-8" standalone="no"?><svg xmlns="http://www.w3.org/2000/svg" xmlns:xlink="http://www.w3.org/1999/xlink" contentScriptType="application/ecmascript" contentStyleType="text/css" height="2701.5px" preserveAspectRatio="none" style="width:1878px;height:2701px;" version="1.1" viewBox="0 0 1878 2701" width="1878px" zoomAndPan="magnify"><defs><filter height="300%" id="f1oogcesk0odf8" width="300%" x="-1" y="-1"><feGaussianBlur result="blurOut" stdDeviation="3.0"/><feColorMatrix in="blurOut" result="blurOut2" type="matrix" values="0 0 0 0 0 0 0 0 0 0 0 0 0 0 0 0 0 0 .4 0"/><feOffset dx="6.0" dy="6.0" in="blurOut2" result="blurOut3"/><feBlend in="SourceGraphic" in2="blurOut3" mode="normal"/></filter></defs><g><!--MD5=[cf1651d31d5f33993ae35e66637ebfa8]
cluster ManyLabs--><rect fill="#FFFFFF" filter="url(#f1oogcesk0odf8)" height="2673" style="stroke:#000000;stroke-width:2.25;" width="922.5" x="565.5" y="10.5"/><text fill="#000000" font-family="sans-serif" font-size="21" font-weight="bold" lengthAdjust="spacing" textLength="105" x="974.25" y="35.2998">ManyLabs</text><ellipse cx="1026.5902" cy="100.618" fill="#FEFECE" filter="url(#f1oogcesk0odf8)" rx="158.8402" ry="35.368" style="stroke:#A80036;stroke-width:2.25;"/><text fill="#000000" font-family="sans-serif" font-size="21" lengthAdjust="spacing" textLength="261" x="896.0902" y="106.2108">UC03: Register a new client</text><ellipse cx="1026.67" cy="931.184" fill="#FEFECE" filter="url(#f1oogcesk0odf8)" rx="182.92" ry="40.184" style="stroke:#A80036;stroke-width:2.25;"/><text fill="#000000" font-family="sans-serif" font-size="21" lengthAdjust="spacing" textLength="313.5" x="869.92" y="936.7768">UC20: View the results of the test</text><ellipse cx="1026.7047" cy="251.9909" fill="#FEFECE" filter="url(#f1oogcesk0odf8)" rx="300.7047" ry="63.7409" style="stroke:#A80036;stroke-width:2.25;"/><text fill="#000000" font-family="sans-serif" font-size="21" lengthAdjust="spacing" textLength="559.5" x="746.9547" y="257.5837">UC04: Register a test to be performed to a registered client</text><ellipse cx="1026.6115" cy="619.4723" fill="#FEFECE" filter="url(#f1oogcesk0odf8)" rx="304.3615" ry="64.4723" style="stroke:#A80036;stroke-width:2.25;"/><text fill="#000000" font-family="sans-serif" font-size="21" lengthAdjust="spacing" textLength="567" x="743.1115" y="625.0651">UC14: Make the diagnosis and write a report for a given test</text><ellipse cx="1026.5206" cy="1818.2541" fill="#FEFECE" filter="url(#f1oogcesk0odf8)" rx="238.2706" ry="51.2541" style="stroke:#A80036;stroke-width:2.25;"/><text fill="#000000" font-family="sans-serif" font-size="21" lengthAdjust="spacing" textLength="430.5" x="811.2706" y="1823.8469">UC17: Record the result of chemistry analysis</text><ellipse cx="1026.7426" cy="1481.6985" fill="#FEFECE" filter="url(#f1oogcesk0odf8)" rx="299.2426" ry="63.4485" style="stroke:#A80036;stroke-width:2.25;"/><text fill="#000000" font-family="sans-serif" font-size="21" lengthAdjust="spacing" textLength="556.5" x="748.4926" y="1487.2913">UC09: Specify a new type of test and its collecting methods</text><ellipse cx="1026.7702" cy="1656.304" fill="#FEFECE" filter="url(#f1oogcesk0odf8)" rx="272.2702" ry="58.054" style="stroke:#A80036;stroke-width:2.25;"/><text fill="#000000" font-family="sans-serif" font-size="21" lengthAdjust="spacing" textLength="501" x="776.2702" y="1661.8968">UC10: Specify a new test parameter and categorize it</text><ellipse cx="1026.7451" cy="2114.849" fill="#FEFECE" filter="url(#f1oogcesk0odf8)" rx="217.4951" ry="47.099" style="stroke:#A80036;stroke-width:2.25;"/><text fill="#000000" font-family="sans-serif" font-size="21" lengthAdjust="spacing" textLength="387" x="833.2451" y="2120.4418">UC11: Specify a new parameter category</text><ellipse cx="1026.6758" cy="787.7852" fill="#FEFECE" filter="url(#f1oogcesk0odf8)" rx="234.6758" ry="50.5352" style="stroke:#A80036;stroke-width:2.25;"/><text fill="#000000" font-family="sans-serif" font-size="21" lengthAdjust="spacing" textLength="423" x="815.1758" y="793.3779">UC06: Access the internal process of a client</text><ellipse cx="1026.9174" cy="1078.2335" fill="#FEFECE" filter="url(#f1oogcesk0odf8)" rx="246.9174" ry="52.9835" style="stroke:#A80036;stroke-width:2.25;"/><text fill="#000000" font-family="sans-serif" font-size="21" lengthAdjust="spacing" textLength="448.5" x="802.6674" y="1083.8263">UC02: Access the company response efficiency</text><ellipse cx="1027.0442" cy="435.3588" fill="#FEFECE" filter="url(#f1oogcesk0odf8)" rx="317.5442" ry="67.1088" style="stroke:#A80036;stroke-width:2.25;"/><text fill="#000000" font-family="sans-serif" font-size="21" lengthAdjust="spacing" textLength="594" x="730.0442" y="440.9516">UC05: Record the samples collected in a scope of a given Test</text><ellipse cx="1027.0537" cy="2385.2107" fill="#FEFECE" filter="url(#f1oogcesk0odf8)" rx="178.0537" ry="39.2107" style="stroke:#A80036;stroke-width:2.25;"/><text fill="#000000" font-family="sans-serif" font-size="21" lengthAdjust="spacing" textLength="303" x="875.5537" y="2390.8035">UC19: Send daily Covid-19 data</text><ellipse cx="1027.0537" cy="2254.7107" fill="#FEFECE" filter="url(#f1oogcesk0odf8)" rx="178.0537" ry="39.2107" style="stroke:#A80036;stroke-width:2.25;"/><text fill="#000000" font-family="sans-serif" font-size="21" lengthAdjust="spacing" textLength="303" x="875.5537" y="2260.3035">UC07: Register a new employee</text><ellipse cx="1026.5877" cy="2567.9675" fill="#FEFECE" filter="url(#f1oogcesk0odf8)" rx="435.5877" ry="90.7175" style="stroke:#A80036;stroke-width:2.25;"/><text fill="#000000" font-family="sans-serif" font-size="21" lengthAdjust="spacing" textLength="834" x="609.5877" y="2573.5603">UC08: Register a new clinical analysis laboratory stating which kind of test(s) it operates.</text><ellipse cx="1026.9714" cy="1967.7443" fill="#FEFECE" filter="url(#f1oogcesk0odf8)" rx="213.2214" ry="46.2443" style="stroke:#A80036;stroke-width:2.25;"/><text fill="#000000" font-family="sans-serif" font-size="21" lengthAdjust="spacing" textLength="378" x="837.9714" y="1973.3371">UC12: Record the results of a given test</text><ellipse cx="1026.5701" cy="1275.264" fill="#FEFECE" filter="url(#f1oogcesk0odf8)" rx="437.0701" ry="91.014" style="stroke:#A80036;stroke-width:2.25;"/><text fill="#000000" font-family="sans-serif" font-size="21" lengthAdjust="spacing" textLength="837" x="608.0701" y="1280.8568">UC15: Validate the work done by the clinical chemistry technologist and specialist doctor.</text><!--MD5=[dadd680571e2ee7a6b53223d26ce7e08]
entity Adm--><ellipse cx="1756.5" cy="2067" fill="#FEFECE" filter="url(#f1oogcesk0odf8)" rx="12" ry="12" style="stroke:#A80036;stroke-width:2.25;"/><path d="M1756.5,2079 L1756.5,2119.5 M1737,2091 L1776,2091 M1756.5,2119.5 L1737,2142 M1756.5,2119.5 L1776,2142 " fill="none" filter="url(#f1oogcesk0odf8)" style="stroke:#A80036;stroke-width:2.25;"/><text fill="#000000" font-family="sans-serif" font-size="21" lengthAdjust="spacing" textLength="124.5" x="1694.25" y="2172.0498">Administrator</text><!--MD5=[2ea11ae4ce5c16c166fd50507fbf8cc8]
entity Recp--><ellipse cx="441" cy="129" fill="#FEFECE" filter="url(#f1oogcesk0odf8)" rx="12" ry="12" style="stroke:#A80036;stroke-width:2.25;"/><path d="M441,141 L441,181.5 M421.5,153 L460.5,153 M441,181.5 L421.5,204 M441,181.5 L460.5,204 " fill="none" filter="url(#f1oogcesk0odf8)" style="stroke:#A80036;stroke-width:2.25;"/><text fill="#000000" font-family="sans-serif" font-size="21" lengthAdjust="spacing" textLength="117" x="382.5" y="234.0498">Receptionist</text><!--MD5=[55accfb37448cdfd161546e1b52567fc]
entity MedLab--><ellipse cx="150.75" cy="654" fill="#FEFECE" filter="url(#f1oogcesk0odf8)" rx="12" ry="12" style="stroke:#A80036;stroke-width:2.25;"/><path d="M150.75,666 L150.75,706.5 M131.25,678 L170.25,678 M150.75,706.5 L131.25,729 M150.75,706.5 L170.25,729 " fill="none" filter="url(#f1oogcesk0odf8)" style="stroke:#A80036;stroke-width:2.25;"/><text fill="#000000" font-family="sans-serif" font-size="21" lengthAdjust="spacing" textLength="177" x="62.25" y="759.0498">Med lab technician</text><!--MD5=[cba89c66b8afe94abf191ea3442b3e28]
entity ClinTec--><ellipse cx="150.75" cy="1770" fill="#FEFECE" filter="url(#f1oogcesk0odf8)" rx="12" ry="12" style="stroke:#A80036;stroke-width:2.25;"/><path d="M150.75,1782 L150.75,1822.5 M131.25,1794 L170.25,1794 M150.75,1822.5 L131.25,1845 M150.75,1822.5 L170.25,1845 " fill="none" filter="url(#f1oogcesk0odf8)" style="stroke:#A80036;stroke-width:2.25;"/><text fill="#000000" font-family="sans-serif" font-size="21" lengthAdjust="spacing" textLength="283.5" x="9" y="1875.0498">Clinical chemistry technologist</text><!--MD5=[f138531b5c7ec98bcba2d29a7db668a7]
entity Doc--><ellipse cx="1756.5" cy="726" fill="#FEFECE" filter="url(#f1oogcesk0odf8)" rx="12" ry="12" style="stroke:#A80036;stroke-width:2.25;"/><path d="M1756.5,738 L1756.5,778.5 M1737,750 L1776,750 M1756.5,778.5 L1737,801 M1756.5,778.5 L1776,801 " fill="none" filter="url(#f1oogcesk0odf8)" style="stroke:#A80036;stroke-width:2.25;"/><text fill="#000000" font-family="sans-serif" font-size="21" lengthAdjust="spacing" textLength="159" x="1677" y="831.0498">Specialist Doctor</text><!--MD5=[8658c2df0a90172a5e5afb4523fad7ef]
entity LabCod--><ellipse cx="1756.5" cy="1045.5" fill="#FEFECE" filter="url(#f1oogcesk0odf8)" rx="12" ry="12" style="stroke:#A80036;stroke-width:2.25;"/><path d="M1756.5,1057.5 L1756.5,1098 M1737,1069.5 L1776,1069.5 M1756.5,1098 L1737,1120.5 M1756.5,1098 L1776,1120.5 " fill="none" filter="url(#f1oogcesk0odf8)" style="stroke:#A80036;stroke-width:2.25;"/><text fill="#000000" font-family="sans-serif" font-size="21" lengthAdjust="spacing" textLength="222" x="1645.5" y="1150.5498">Laboratory Coordinator</text><!--MD5=[1bfc463d4b7b2bceea9aef8616727621]
entity Timer--><ellipse cx="441" cy="2337" fill="#FEFECE" filter="url(#f1oogcesk0odf8)" rx="12" ry="12" style="stroke:#A80036;stroke-width:2.25;"/><path d="M441,2349 L441,2389.5 M421.5,2361 L460.5,2361 M441,2389.5 L421.5,2412 M441,2389.5 L460.5,2412 " fill="none" filter="url(#f1oogcesk0odf8)" style="stroke:#A80036;stroke-width:2.25;"/><text fill="#000000" font-family="sans-serif" font-size="21" lengthAdjust="spacing" textLength="54" x="414" y="2442.0498">Timer</text><!--MD5=[0ba5ee7700168656dc1b457c6fe9fdac]
entity Client--><ellipse cx="150.75" cy="883.5" fill="#FEFECE" filter="url(#f1oogcesk0odf8)" rx="12" ry="12" style="stroke:#A80036;stroke-width:2.25;"/><path d="M150.75,895.5 L150.75,936 M131.25,907.5 L170.25,907.5 M150.75,936 L131.25,958.5 M150.75,936 L170.25,958.5 " fill="none" filter="url(#f1oogcesk0odf8)" style="stroke:#A80036;stroke-width:2.25;"/><text fill="#000000" font-family="sans-serif" font-size="21" lengthAdjust="spacing" textLength="54" x="123.75" y="988.5498">Client</text><!--MD5=[47c651df76582352f6f708c2cea9a95d]
link Recp to UC03--><path d="M499.53,169.245 C516.855,166.89 535.965,164.325 553.5,162 C666.285,147.03 794.28,130.365 888.465,118.155 " fill="none" id="Recp-UC03" style="stroke:#A80036;stroke-width:1.5;"/><!--MD5=[0f559b412adc8294a9195663bf9995d1]
link Recp to UC04--><path d="M499.965,184.395 C563.145,192.525 669.015,206.145 769.215,219.045 " fill="none" id="Recp-UC04" style="stroke:#A80036;stroke-width:1.5;"/><!--MD5=[52d515158f0150ad1ed5dd94b4d44b20]
link Client to UC20--><path d="M177.9,931.5 C274.935,931.5 625.005,931.5 843.675,931.5 " fill="none" id="Client-UC20" style="stroke:#A80036;stroke-width:1.5;"/><!--MD5=[0a71078f026958c6267cb0fccbd56f71]
link UC14 to Doc--><path d="M1257.885,661.62 C1335,676.41 1421.385,693.675 1500,711 C1559.445,724.095 1626.24,740.67 1676.55,753.525 " fill="none" id="UC14-Doc" style="stroke:#A80036;stroke-width:1.5;"/><!--MD5=[8f8b5a931174b46d2959ea2517c1f7c4]
link MedLab to UC20--><path d="M239.385,744.345 C319.275,781.41 441.78,833.925 553.5,864 C651.765,890.445 764.505,907.065 855.135,917.19 " fill="none" id="MedLab-UC20" style="stroke:#A80036;stroke-width:1.5;"/><!--MD5=[0f9f481ef9cec4609c810b67cc9e94ea]
link ClinTec to UC12--><path d="M292.695,1845.99 C369.615,1861.005 466.68,1879.47 553.5,1894.5 C651.3,1911.435 760.83,1928.61 849.72,1942.095 " fill="none" id="ClinTec-UC12" style="stroke:#A80036;stroke-width:1.5;"/><!--MD5=[b96aabcf98785b7e7067925c9fe2a396]
link ClinTec to UC20--><path d="M162.525,1755.6 C191.835,1599.24 291.3,1189.65 553.5,999 C638.985,936.84 756.63,919.92 853.05,918.555 " fill="none" id="ClinTec-UC20" style="stroke:#A80036;stroke-width:1.5;"/><!--MD5=[f7a43284c38ba382e153af7aea5f6845]
link ClinTec to UC17--><path d="M292.515,1818 C426.03,1818 629.535,1818 788.235,1818 " fill="none" id="ClinTec-UC17" style="stroke:#A80036;stroke-width:1.5;"/><!--MD5=[bc99a29a871b08f910f9f176f44eb02e]
link UC07 to Adm--><path d="M1188.09,2237.835 C1279.905,2226.855 1397.07,2210.415 1500,2188.5 C1567.14,2174.205 1642.515,2151.645 1693.785,2135.295 " fill="none" id="UC07-Adm" style="stroke:#A80036;stroke-width:1.5;"/><!--MD5=[7de9a4cf86b0d77fa4a5be267a1f0b31]
link UC08 to Adm--><path d="M1371.735,2512.305 C1416.96,2496.66 1461.06,2476.635 1500,2451 C1605.195,2381.73 1684.14,2253.855 1724.625,2177.415 " fill="none" id="UC08-Adm" style="stroke:#A80036;stroke-width:1.5;"/><!--MD5=[273d6e302cb43ec969b5a5f2253a8d1a]
link UC09 to Adm--><path d="M1320.795,1494.18 C1384.77,1508.19 1448.625,1532.115 1500,1572 C1657.755,1694.46 1722.24,1938.12 1744.68,2052.705 " fill="none" id="UC09-Adm" style="stroke:#A80036;stroke-width:1.5;"/><!--MD5=[5aac09697fb824f9866b5be33762b3ed]
link UC11 to Adm--><path d="M1244.325,2115 C1398.72,2115 1595.82,2115 1693.875,2115 " fill="none" id="UC11-Adm" style="stroke:#A80036;stroke-width:1.5;"/><!--MD5=[23123a33b00b822e3bf4c0e0c14ab9af]
link UC10 to Adm--><path d="M1294.785,1666.14 C1365.75,1678.47 1439.43,1700.76 1500,1740 C1617.285,1815.99 1694.52,1966.89 1730.85,2052.285 " fill="none" id="UC10-Adm" style="stroke:#A80036;stroke-width:1.5;"/><!--MD5=[d6fc1b750354dffbab86d2b257047788]
link UC05 to MedLab--><path d="M771.195,474.72 C699.975,488.64 623.04,506.34 553.5,528 C441.855,562.77 319.335,618.675 239.415,657.705 " fill="none" id="UC05-MedLab" style="stroke:#A80036;stroke-width:1.5;"/><!--MD5=[ac4564d9e2bafaff1976d49cea13716d]
link UC06 to Doc--><path d="M1260.69,783.18 C1403.76,780.525 1578.09,777.285 1676.835,775.455 " fill="none" id="UC06-Doc" style="stroke:#A80036;stroke-width:1.5;"/><!--MD5=[a1275690e1c44c4fef238ceb1b9eba17]
link UC20 to Doc--><path d="M1195.71,915.675 C1286.565,905.055 1400.37,888.45 1500,864 C1560.645,849.12 1627.095,825.405 1676.97,806.055 " fill="none" id="UC20-Doc" style="stroke:#A80036;stroke-width:1.5;"/><!--MD5=[0c42e0649cb66b5bb2b021ebc896ce4b]
link UC02 to LabCod--><path d="M1272.78,1083.54 C1399.125,1086.15 1547.01,1089.21 1645.365,1091.235 " fill="none" id="UC02-LabCod" style="stroke:#A80036;stroke-width:1.5;"/><!--MD5=[21050dba6da5845432e84d45139045f6]
link UC20 to LabCod--><path d="M1196.415,946.77 C1287.225,957.21 1400.76,973.815 1500,999 C1548.51,1011.315 1600.56,1029.63 1644.915,1046.865 " fill="none" id="UC20-LabCod" style="stroke:#A80036;stroke-width:1.5;"/><!--MD5=[6d8ad9024ad05a05f19d41afce349105]
link UC15 to LabCod--><path d="M1308.945,1205.61 C1371.825,1190.01 1438.2,1173.48 1500,1158 C1547.625,1146.075 1600.215,1132.785 1645.2,1121.385 " fill="none" id="UC15-LabCod" style="stroke:#A80036;stroke-width:1.5;"/><!--MD5=[5a9545a91e02d528352c4a5bc5b83e1f]
link Timer to UC19--><path d="M468.285,2385 C533.82,2385 711.24,2385 848.4,2385 " fill="none" id="Timer-UC19" style="stroke:#A80036;stroke-width:1.5;"/><!--MD5=[51e5b04cfeef76b9428ba9b4ba0012d1]
@startuml
'https://plantuml.com/use-case-diagram
left to right direction
actor "Administrator" as Adm
actor "Receptionist" as Recp
actor "Med lab technician" as MedLab
actor "Clinical chemistry technologist" as ClinTec
actor "Specialist Doctor" as Doc
actor "Laboratory Coordinator" as LabCod
actor "Timer" as Timer
actor "Client" as Client


rectangle ManyLabs{

usecase "UC03: Register a new client" as UC03
usecase "UC20: View the results of the test" as UC20
usecase "UC04: Register a test to be performed to a registered client" as UC04
usecase "UC14: Make the diagnosis and write a report for a given test" as UC14
usecase "UC17: Record the result of chemistry analysis" as UC17
usecase "UC09: Specify a new type of test and its collecting methods" as UC09
usecase "UC10: Specify a new test parameter and categorize it" as UC10
usecase "UC11: Specify a new parameter category" as UC11
usecase "UC06: Access the internal process of a client" as UC06
usecase "UC02: Access the company response efficiency" as UC02
usecase "UC05: Record the samples collected in a scope of a given Test" as UC05
usecase "UC19: Send daily Covid-19 data" as UC19
usecase "UC07: Register a new employee" as UC07
usecase "UC08: Register a new clinical analysis laboratory stating which kind of test(s) it operates." as UC08
usecase "UC12: Record the results of a given test" as UC12
usecase "UC15: Validate the work done by the clinical chemistry technologist and specialist doctor." as UC15
}

Recp - - UC03
Recp - - UC04
Client - - - UC20
UC14 - - Doc
MedLab - - - UC20
ClinTec - - UC12
ClinTec - - - UC20
ClinTec - - UC17
UC07 - - - Adm
UC08 - - - Adm
UC09 - - - Adm
UC11 - - - Adm
UC10 - - - Adm
UC05 - - - MedLab
UC06 - - - Doc
UC20 - - - Doc
UC02 - - - LabCod
UC20 - - LabCod
UC15 - - LabCod
Timer - - UC19







@enduml

@startuml
left to right direction
actor "Administrator" as Adm
actor "Receptionist" as Recp
actor "Med lab technician" as MedLab
actor "Clinical chemistry technologist" as ClinTec
actor "Specialist Doctor" as Doc
actor "Laboratory Coordinator" as LabCod
actor "Timer" as Timer
actor "Client" as Client


rectangle ManyLabs{

usecase "UC03: Register a new client" as UC03
usecase "UC20: View the results of the test" as UC20
usecase "UC04: Register a test to be performed to a registered client" as UC04
usecase "UC14: Make the diagnosis and write a report for a given test" as UC14
usecase "UC17: Record the result of chemistry analysis" as UC17
usecase "UC09: Specify a new type of test and its collecting methods" as UC09
usecase "UC10: Specify a new test parameter and categorize it" as UC10
usecase "UC11: Specify a new parameter category" as UC11
usecase "UC06: Access the internal process of a client" as UC06
usecase "UC02: Access the company response efficiency" as UC02
usecase "UC05: Record the samples collected in a scope of a given Test" as UC05
usecase "UC19: Send daily Covid-19 data" as UC19
usecase "UC07: Register a new employee" as UC07
usecase "UC08: Register a new clinical analysis laboratory stating which kind of test(s) it operates." as UC08
usecase "UC12: Record the results of a given test" as UC12
usecase "UC15: Validate the work done by the clinical chemistry technologist and specialist doctor." as UC15
}

Recp - - UC03
Recp - - UC04
Client - - - UC20
UC14 - - Doc
MedLab - - - UC20
ClinTec - - UC12
ClinTec - - - UC20
ClinTec - - UC17
UC07 - - - Adm
UC08 - - - Adm
UC09 - - - Adm
UC11 - - - Adm
UC10 - - - Adm
UC05 - - - MedLab
UC06 - - - Doc
UC20 - - - Doc
UC02 - - - LabCod
UC20 - - LabCod
UC15 - - LabCod
Timer - - UC19







@enduml

PlantUML version 1.2021.5(Sun Apr 25 12:20:28 BST 2021)
(GPL source distribution)
Java Runtime: OpenJDK Runtime Environment
JVM: Dynamic Code Evolution 64-Bit Server VM
Default Encoding: Cp1252
Language: pt
Country: PT
--></g></svg>