<?xml version="1.0" encoding="UTF-8" standalone="no"?><svg xmlns="http://www.w3.org/2000/svg" xmlns:xlink="http://www.w3.org/1999/xlink" contentScriptType="application/ecmascript" contentStyleType="text/css" height="1488px" preserveAspectRatio="none" style="width:1125px;height:1488px;" version="1.1" viewBox="0 0 1125 1488" width="1125px" zoomAndPan="magnify"><defs><filter height="300%" id="fk36b4e9eor8d" width="300%" x="-1" y="-1"><feGaussianBlur result="blurOut" stdDeviation="2.0"/><feColorMatrix in="blurOut" result="blurOut2" type="matrix" values="0 0 0 0 0 0 0 0 0 0 0 0 0 0 0 0 0 0 .4 0"/><feOffset dx="4.0" dy="4.0" in="blurOut2" result="blurOut3"/><feBlend in="SourceGraphic" in2="blurOut3" mode="normal"/></filter></defs><g><!--MD5=[d5ac3844f66b12d9e08170e47495e096]
cluster app--><polygon fill="#FFFFFF" filter="url(#fk36b4e9eor8d)" points="16,6,48,6,55,29.6094,764,29.6094,764,1481,16,1481,16,6" style="stroke:#000000;stroke-width:1.5;"/><line style="stroke:#000000;stroke-width:1.5;" x1="16" x2="55" y1="29.6094" y2="29.6094"/><text fill="#000000" font-family="sans-serif" font-size="14" font-weight="bold" lengthAdjust="spacing" textLength="26" x="20" y="22.5332">app</text><!--MD5=[64e2e010ba86d7988e5cd73bd64f61f9]
cluster ui--><polygon fill="#FFFFFF" filter="url(#fk36b4e9eor8d)" points="438,50,457,50,464,73.6094,628,73.6094,628,218,438,218,438,50" style="stroke:#000000;stroke-width:1.5;"/><line style="stroke:#000000;stroke-width:1.5;" x1="438" x2="464" y1="73.6094" y2="73.6094"/><text fill="#000000" font-family="sans-serif" font-size="14" font-weight="bold" lengthAdjust="spacing" textLength="13" x="442" y="66.5332">ui</text><!--MD5=[11b63f87f9efce6fda9831b98bfa73ba]
cluster gui--><polygon fill="#FFFFFF" filter="url(#fk36b4e9eor8d)" points="462,94,490,94,497,117.6094,604,117.6094,604,194,462,194,462,94" style="stroke:#000000;stroke-width:1.5;"/><line style="stroke:#000000;stroke-width:1.5;" x1="462" x2="497" y1="117.6094" y2="117.6094"/><text fill="#000000" font-family="sans-serif" font-size="14" font-weight="bold" lengthAdjust="spacing" textLength="22" x="466" y="110.5332">gui</text><!--MD5=[10ea673caf457862023e152271927b45]
cluster controller--><polygon fill="#FFFFFF" filter="url(#fk36b4e9eor8d)" points="401,364,476,364,483,387.6094,665,387.6094,665,547,401,547,401,364" style="stroke:#000000;stroke-width:1.5;"/><line style="stroke:#000000;stroke-width:1.5;" x1="401" x2="483" y1="387.6094" y2="387.6094"/><text fill="#000000" font-family="sans-serif" font-size="14" font-weight="bold" lengthAdjust="spacing" textLength="69" x="405" y="380.5332">controller</text><!--MD5=[27f772719433d509ddbc20ff768eba08]
cluster domain--><polygon fill="#FFFFFF" filter="url(#fk36b4e9eor8d)" points="376,649,433,649,440,672.6094,740,672.6094,740,1457,376,1457,376,649" style="stroke:#000000;stroke-width:1.5;"/><line style="stroke:#000000;stroke-width:1.5;" x1="376" x2="440" y1="672.6094" y2="672.6094"/><text fill="#000000" font-family="sans-serif" font-size="14" font-weight="bold" lengthAdjust="spacing" textLength="51" x="380" y="665.5332">domain</text><!--MD5=[5d4cd377749310b66bf14896f5cd8d9b]
cluster model--><polygon fill="#FFFFFF" filter="url(#fk36b4e9eor8d)" points="400,693,449,693,456,716.6094,716,716.6094,716,1433,400,1433,400,693" style="stroke:#000000;stroke-width:1.5;"/><line style="stroke:#000000;stroke-width:1.5;" x1="400" x2="456" y1="716.6094" y2="716.6094"/><text fill="#000000" font-family="sans-serif" font-size="14" font-weight="bold" lengthAdjust="spacing" textLength="43" x="404" y="709.5332">model</text><!--MD5=[c23849cc5f4a85746a20de4317c530fc]
cluster store--><polygon fill="#FFFFFF" filter="url(#fk36b4e9eor8d)" points="424,896,467,896,474,919.6094,692,919.6094,692,1079,424,1079,424,896" style="stroke:#000000;stroke-width:1.5;"/><line style="stroke:#000000;stroke-width:1.5;" x1="424" x2="474" y1="919.6094" y2="919.6094"/><text fill="#000000" font-family="sans-serif" font-size="14" font-weight="bold" lengthAdjust="spacing" textLength="37" x="428" y="912.5332">store</text><!--MD5=[3063470ff00343f127a4682df62b6479]
cluster users--><polygon fill="#FFFFFF" filter="url(#fk36b4e9eor8d)" points="450,1129,496,1129,503,1152.6094,666,1152.6094,666,1409,450,1409,450,1129" style="stroke:#000000;stroke-width:1.5;"/><line style="stroke:#000000;stroke-width:1.5;" x1="450" x2="503" y1="1152.6094" y2="1152.6094"/><text fill="#000000" font-family="sans-serif" font-size="14" font-weight="bold" lengthAdjust="spacing" textLength="40" x="454" y="1145.5332">users</text><!--MD5=[e484dff12bc7e3f9ae9e3c87a060152b]
cluster mappers--><polygon fill="#FFFFFF" filter="url(#fk36b4e9eor8d)" points="40,251,107,251,114,274.6094,352,274.6094,352,827.5,40,827.5,40,251" style="stroke:#000000;stroke-width:1.5;"/><line style="stroke:#000000;stroke-width:1.5;" x1="40" x2="114" y1="274.6094" y2="274.6094"/><text fill="#000000" font-family="sans-serif" font-size="14" font-weight="bold" lengthAdjust="spacing" textLength="61" x="44" y="267.5332">mappers</text><!--MD5=[e6eced616a98d47334dd1aaaa829ffd5]
cluster dto--><polygon fill="#FFFFFF" filter="url(#fk36b4e9eor8d)" points="64,295,93,295,100,318.6094,328,318.6094,328,616,64,616,64,295" style="stroke:#000000;stroke-width:1.5;"/><line style="stroke:#000000;stroke-width:1.5;" x1="64" x2="100" y1="318.6094" y2="318.6094"/><text fill="#000000" font-family="sans-serif" font-size="14" font-weight="bold" lengthAdjust="spacing" textLength="23" x="68" y="311.5332">dto</text><!--MD5=[0c4a738b3201a23a254af68352446157]
cluster auth--><polygon fill="#FFFFFF" filter="url(#fk36b4e9eor8d)" points="788,713.5,825,713.5,832,737.1094,1108,737.1094,1108,827.5,788,827.5,788,713.5" style="stroke:#000000;stroke-width:1.5;"/><line style="stroke:#000000;stroke-width:1.5;" x1="788" x2="832" y1="737.1094" y2="737.1094"/><text fill="#000000" font-family="sans-serif" font-size="14" font-weight="bold" lengthAdjust="spacing" textLength="31" x="792" y="730.0332">auth</text><!--MD5=[9344dd62f18af20e47d5d875b1db9d87]
class UpdateDataUI--><rect codeLine="5" fill="#FEFECE" filter="url(#fk36b4e9eor8d)" height="48" id="UpdateDataUI" style="stroke:#A80036;stroke-width:1.5;" width="110" x="478" y="130"/><ellipse cx="493" cy="146" fill="#ADD1B2" rx="11" ry="11" style="stroke:#A80036;stroke-width:1.0;"/><path d="M495,142.5 Q495.2031,142 495.4375,141.75 Q495.6719,141.5 495.9375,141.5 Q496.4063,141.5 496.7031,141.7813 Q497,142.0625 497,142.7188 L497,144.2813 Q497,144.9375 496.7188,145.2188 Q496.4375,145.5 496,145.5 Q495.6094,145.5 495.3594,145.3281 Q495.1094,145.1563 495,144.7031 Q494.9531,144.3906 494.7813,144.2188 Q494.4688,143.8906 493.9063,143.7031 Q493.3438,143.5 492.7813,143.5 Q492.0781,143.5 491.4844,143.7813 Q490.9063,144.0625 490.4531,144.6875 Q490,145.3125 490,146.1719 L490,147.0938 Q490,148.125 490.8438,148.8125 Q491.6875,149.5 493.1875,149.5 Q494.0781,149.5 494.7031,149.2969 Q495.0625,149.1875 495.4688,148.8281 Q495.7344,148.625 495.875,148.5625 Q496.0156,148.5 496.1875,148.5 Q496.5156,148.5 496.75,148.7656 Q497,149.0156 497,149.375 Q497,149.7188 496.6563,150.125 Q496.1563,150.7188 495.3594,151.0469 Q494.3125,151.5 493.0313,151.5 Q491.5313,151.5 490.3281,150.9063 Q489.3594,150.4375 488.6719,149.4219 Q488,148.4063 488,147.2031 L488,146.1094 Q488,144.8594 488.5938,143.7656 Q489.2031,142.6719 490.25,142.0938 Q491.3125,141.5 492.5,141.5 Q493.2188,141.5 493.8438,141.75 Q494.4688,142 495,142.5 Z " fill="#000000"/><text fill="#000000" font-family="sans-serif" font-size="12" lengthAdjust="spacing" textLength="78" x="507" y="150.9102">UpdateDataUI</text><line style="stroke:#A80036;stroke-width:1.5;" x1="479" x2="587" y1="162" y2="162"/><line style="stroke:#A80036;stroke-width:1.5;" x1="479" x2="587" y1="170" y2="170"/><!--MD5=[7269f33d8b4d395c7530af605f37310e]
class UpdateDataController--><rect codeLine="104" fill="#FEFECE" filter="url(#fk36b4e9eor8d)" height="131.0156" id="UpdateDataController" style="stroke:#A80036;stroke-width:1.5;" width="232" x="417" y="400"/><ellipse cx="468.75" cy="416" fill="#ADD1B2" rx="11" ry="11" style="stroke:#A80036;stroke-width:1.0;"/><path d="M470.75,412.5 Q470.9531,412 471.1875,411.75 Q471.4219,411.5 471.6875,411.5 Q472.1563,411.5 472.4531,411.7813 Q472.75,412.0625 472.75,412.7188 L472.75,414.2813 Q472.75,414.9375 472.4688,415.2188 Q472.1875,415.5 471.75,415.5 Q471.3594,415.5 471.1094,415.3281 Q470.8594,415.1563 470.75,414.7031 Q470.7031,414.3906 470.5313,414.2188 Q470.2188,413.8906 469.6563,413.7031 Q469.0938,413.5 468.5313,413.5 Q467.8281,413.5 467.2344,413.7813 Q466.6563,414.0625 466.2031,414.6875 Q465.75,415.3125 465.75,416.1719 L465.75,417.0938 Q465.75,418.125 466.5938,418.8125 Q467.4375,419.5 468.9375,419.5 Q469.8281,419.5 470.4531,419.2969 Q470.8125,419.1875 471.2188,418.8281 Q471.4844,418.625 471.625,418.5625 Q471.7656,418.5 471.9375,418.5 Q472.2656,418.5 472.5,418.7656 Q472.75,419.0156 472.75,419.375 Q472.75,419.7188 472.4063,420.125 Q471.9063,420.7188 471.1094,421.0469 Q470.0625,421.5 468.7813,421.5 Q467.2813,421.5 466.0781,420.9063 Q465.1094,420.4375 464.4219,419.4219 Q463.75,418.4063 463.75,417.2031 L463.75,416.1094 Q463.75,414.8594 464.3438,413.7656 Q464.9531,412.6719 466,412.0938 Q467.0625,411.5 468.25,411.5 Q468.9688,411.5 469.5938,411.75 Q470.2188,412 470.75,412.5 Z " fill="#000000"/><text fill="#000000" font-family="sans-serif" font-size="12" lengthAdjust="spacing" textLength="120" x="489.25" y="420.9102">UpdateDataController</text><line style="stroke:#A80036;stroke-width:1.5;" x1="418" x2="648" y1="432" y2="432"/><line style="stroke:#A80036;stroke-width:1.5;" x1="418" x2="648" y1="440" y2="440"/><ellipse cx="428" cy="451" fill="#84BE84" rx="3" ry="3" style="stroke:#038048;stroke-width:1.0;"/><text fill="#000000" font-family="sans-serif" font-size="11" lengthAdjust="spacing" textLength="85" x="437" y="455.4189">getUserSession()</text><ellipse cx="428" cy="464.8359" fill="#84BE84" rx="3" ry="3" style="stroke:#038048;stroke-width:1.0;"/><text fill="#000000" font-family="sans-serif" font-size="11" lengthAdjust="spacing" textLength="185" x="437" y="469.2549">updateName(Client client, String name)</text><ellipse cx="428" cy="478.6719" fill="#84BE84" rx="3" ry="3" style="stroke:#038048;stroke-width:1.0;"/><text fill="#000000" font-family="sans-serif" font-size="11" lengthAdjust="spacing" textLength="154" x="437" y="483.0908">updateAddress (client,address)</text><ellipse cx="428" cy="492.5078" fill="#84BE84" rx="3" ry="3" style="stroke:#038048;stroke-width:1.0;"/><text fill="#000000" font-family="sans-serif" font-size="11" lengthAdjust="spacing" textLength="169" x="437" y="496.9268">updateSex(Client client, String sex)</text><ellipse cx="428" cy="506.3438" fill="#84BE84" rx="3" ry="3" style="stroke:#038048;stroke-width:1.0;"/><text fill="#000000" font-family="sans-serif" font-size="11" lengthAdjust="spacing" textLength="206" x="437" y="510.7627">updatePhoneNumber (client,phoneNumber)</text><ellipse cx="428" cy="520.1797" fill="#84BE84" rx="3" ry="3" style="stroke:#038048;stroke-width:1.0;"/><text fill="#000000" font-family="sans-serif" font-size="11" lengthAdjust="spacing" textLength="110" x="437" y="524.5986">getClientByEmail(email)</text><!--MD5=[02e4b9b7573f1156f41e60aa5b4e25a4]
class Company--><rect codeLine="38" fill="#FEFECE" filter="url(#fk36b4e9eor8d)" height="103.3438" id="Company" style="stroke:#A80036;stroke-width:1.5;" width="108" x="504" y="729"/><ellipse cx="529.35" cy="745" fill="#ADD1B2" rx="11" ry="11" style="stroke:#A80036;stroke-width:1.0;"/><path d="M531.35,741.5 Q531.5531,741 531.7875,740.75 Q532.0219,740.5 532.2875,740.5 Q532.7563,740.5 533.0531,740.7813 Q533.35,741.0625 533.35,741.7188 L533.35,743.2813 Q533.35,743.9375 533.0688,744.2188 Q532.7875,744.5 532.35,744.5 Q531.9594,744.5 531.7094,744.3281 Q531.4594,744.1563 531.35,743.7031 Q531.3031,743.3906 531.1313,743.2188 Q530.8188,742.8906 530.2563,742.7031 Q529.6938,742.5 529.1313,742.5 Q528.4281,742.5 527.8344,742.7813 Q527.2563,743.0625 526.8031,743.6875 Q526.35,744.3125 526.35,745.1719 L526.35,746.0938 Q526.35,747.125 527.1938,747.8125 Q528.0375,748.5 529.5375,748.5 Q530.4281,748.5 531.0531,748.2969 Q531.4125,748.1875 531.8188,747.8281 Q532.0844,747.625 532.225,747.5625 Q532.3656,747.5 532.5375,747.5 Q532.8656,747.5 533.1,747.7656 Q533.35,748.0156 533.35,748.375 Q533.35,748.7188 533.0063,749.125 Q532.5063,749.7188 531.7094,750.0469 Q530.6625,750.5 529.3813,750.5 Q527.8813,750.5 526.6781,749.9063 Q525.7094,749.4375 525.0219,748.4219 Q524.35,747.4063 524.35,746.2031 L524.35,745.1094 Q524.35,743.8594 524.9438,742.7656 Q525.5531,741.6719 526.6,741.0938 Q527.6625,740.5 528.85,740.5 Q529.5688,740.5 530.1938,740.75 Q530.8188,741 531.35,741.5 Z " fill="#000000"/><text fill="#000000" font-family="sans-serif" font-size="12" lengthAdjust="spacing" textLength="53" x="545.65" y="749.9102">Company</text><line style="stroke:#A80036;stroke-width:1.5;" x1="505" x2="611" y1="761" y2="761"/><rect fill="none" height="6" style="stroke:#C82930;stroke-width:1.0;" width="6" x="512" y="769"/><text fill="#000000" font-family="sans-serif" font-size="11" lengthAdjust="spacing" textLength="57" x="524" y="776.4189">authFacade</text><rect fill="none" height="6" style="stroke:#C82930;stroke-width:1.0;" width="6" x="512" y="782.8359"/><text fill="#000000" font-family="sans-serif" font-size="11" lengthAdjust="spacing" textLength="51" x="524" y="790.2549">clientStore</text><line style="stroke:#A80036;stroke-width:1.5;" x1="505" x2="611" y1="796.6719" y2="796.6719"/><ellipse cx="515" cy="807.6719" fill="#84BE84" rx="3" ry="3" style="stroke:#038048;stroke-width:1.0;"/><text fill="#000000" font-family="sans-serif" font-size="11" lengthAdjust="spacing" textLength="82" x="524" y="812.0908">getAuthFacade()</text><ellipse cx="515" cy="821.5078" fill="#84BE84" rx="3" ry="3" style="stroke:#038048;stroke-width:1.0;"/><text fill="#000000" font-family="sans-serif" font-size="11" lengthAdjust="spacing" textLength="75" x="524" y="825.9268">getClientStore()</text><!--MD5=[55cb992be19579b505cea3c5691093cb]
class ClientStore--><rect codeLine="53" fill="#FEFECE" filter="url(#fk36b4e9eor8d)" height="131.0156" id="ClientStore" style="stroke:#A80036;stroke-width:1.5;" width="235" x="440.5" y="932"/><ellipse cx="523.25" cy="948" fill="#ADD1B2" rx="11" ry="11" style="stroke:#A80036;stroke-width:1.0;"/><path d="M525.25,944.5 Q525.4531,944 525.6875,943.75 Q525.9219,943.5 526.1875,943.5 Q526.6563,943.5 526.9531,943.7813 Q527.25,944.0625 527.25,944.7188 L527.25,946.2813 Q527.25,946.9375 526.9688,947.2188 Q526.6875,947.5 526.25,947.5 Q525.8594,947.5 525.6094,947.3281 Q525.3594,947.1563 525.25,946.7031 Q525.2031,946.3906 525.0313,946.2188 Q524.7188,945.8906 524.1563,945.7031 Q523.5938,945.5 523.0313,945.5 Q522.3281,945.5 521.7344,945.7813 Q521.1563,946.0625 520.7031,946.6875 Q520.25,947.3125 520.25,948.1719 L520.25,949.0938 Q520.25,950.125 521.0938,950.8125 Q521.9375,951.5 523.4375,951.5 Q524.3281,951.5 524.9531,951.2969 Q525.3125,951.1875 525.7188,950.8281 Q525.9844,950.625 526.125,950.5625 Q526.2656,950.5 526.4375,950.5 Q526.7656,950.5 527,950.7656 Q527.25,951.0156 527.25,951.375 Q527.25,951.7188 526.9063,952.125 Q526.4063,952.7188 525.6094,953.0469 Q524.5625,953.5 523.2813,953.5 Q521.7813,953.5 520.5781,952.9063 Q519.6094,952.4375 518.9219,951.4219 Q518.25,950.4063 518.25,949.2031 L518.25,948.1094 Q518.25,946.8594 518.8438,945.7656 Q519.4531,944.6719 520.5,944.0938 Q521.5625,943.5 522.75,943.5 Q523.4688,943.5 524.0938,943.75 Q524.7188,944 525.25,944.5 Z " fill="#000000"/><text fill="#000000" font-family="sans-serif" font-size="12" lengthAdjust="spacing" textLength="61" x="543.75" y="952.9102">ClientStore</text><line style="stroke:#A80036;stroke-width:1.5;" x1="441.5" x2="674.5" y1="964" y2="964"/><line style="stroke:#A80036;stroke-width:1.5;" x1="441.5" x2="674.5" y1="972" y2="972"/><rect fill="#F24D5C" height="6" style="stroke:#C82930;stroke-width:1.0;" width="6" x="448.5" y="980"/><text fill="#000000" font-family="sans-serif" font-size="11" lengthAdjust="spacing" textLength="87" x="460.5" y="987.4189">clientExists(client)</text><ellipse cx="451.5" cy="996.8359" fill="#84BE84" rx="3" ry="3" style="stroke:#038048;stroke-width:1.0;"/><text fill="#000000" font-family="sans-serif" font-size="11" lengthAdjust="spacing" textLength="86" x="460.5" y="1001.2549">getClientByEmail()</text><ellipse cx="451.5" cy="1010.6719" fill="#84BE84" rx="3" ry="3" style="stroke:#038048;stroke-width:1.0;"/><text fill="#000000" font-family="sans-serif" font-size="11" lengthAdjust="spacing" textLength="154" x="460.5" y="1015.0908">updateAddress(client, address)</text><ellipse cx="451.5" cy="1024.5078" fill="#84BE84" rx="3" ry="3" style="stroke:#038048;stroke-width:1.0;"/><text fill="#000000" font-family="sans-serif" font-size="11" lengthAdjust="spacing" textLength="125" x="460.5" y="1028.9268">updateName(client, name)</text><ellipse cx="451.5" cy="1038.3438" fill="#84BE84" rx="3" ry="3" style="stroke:#038048;stroke-width:1.0;"/><text fill="#000000" font-family="sans-serif" font-size="11" lengthAdjust="spacing" textLength="109" x="460.5" y="1042.7627">updateSex(client, sex)</text><ellipse cx="451.5" cy="1052.1797" fill="#84BE84" rx="3" ry="3" style="stroke:#038048;stroke-width:1.0;"/><text fill="#000000" font-family="sans-serif" font-size="11" lengthAdjust="spacing" textLength="209" x="460.5" y="1056.5986">updatePhoneNumber (client, phoneNumber)</text><!--MD5=[ed6624c6556d5e7b1bd23032162d20b7]
class Client--><rect codeLine="62" fill="#FEFECE" filter="url(#fk36b4e9eor8d)" height="227.8672" id="Client" style="stroke:#A80036;stroke-width:1.5;" width="183" x="466.5" y="1165"/><ellipse cx="537.75" cy="1181" fill="#ADD1B2" rx="11" ry="11" style="stroke:#A80036;stroke-width:1.0;"/><path d="M539.75,1177.5 Q539.9531,1177 540.1875,1176.75 Q540.4219,1176.5 540.6875,1176.5 Q541.1563,1176.5 541.4531,1176.7813 Q541.75,1177.0625 541.75,1177.7188 L541.75,1179.2813 Q541.75,1179.9375 541.4688,1180.2188 Q541.1875,1180.5 540.75,1180.5 Q540.3594,1180.5 540.1094,1180.3281 Q539.8594,1180.1563 539.75,1179.7031 Q539.7031,1179.3906 539.5313,1179.2188 Q539.2188,1178.8906 538.6563,1178.7031 Q538.0938,1178.5 537.5313,1178.5 Q536.8281,1178.5 536.2344,1178.7813 Q535.6563,1179.0625 535.2031,1179.6875 Q534.75,1180.3125 534.75,1181.1719 L534.75,1182.0938 Q534.75,1183.125 535.5938,1183.8125 Q536.4375,1184.5 537.9375,1184.5 Q538.8281,1184.5 539.4531,1184.2969 Q539.8125,1184.1875 540.2188,1183.8281 Q540.4844,1183.625 540.625,1183.5625 Q540.7656,1183.5 540.9375,1183.5 Q541.2656,1183.5 541.5,1183.7656 Q541.75,1184.0156 541.75,1184.375 Q541.75,1184.7188 541.4063,1185.125 Q540.9063,1185.7188 540.1094,1186.0469 Q539.0625,1186.5 537.7813,1186.5 Q536.2813,1186.5 535.0781,1185.9063 Q534.1094,1185.4375 533.4219,1184.4219 Q532.75,1183.4063 532.75,1182.2031 L532.75,1181.1094 Q532.75,1179.8594 533.3438,1178.7656 Q533.9531,1177.6719 535,1177.0938 Q536.0625,1176.5 537.25,1176.5 Q537.9688,1176.5 538.5938,1176.75 Q539.2188,1177 539.75,1177.5 Z " fill="#000000"/><text fill="#000000" font-family="sans-serif" font-size="12" lengthAdjust="spacing" textLength="32" x="558.25" y="1185.9102">Client</text><line style="stroke:#A80036;stroke-width:1.5;" x1="467.5" x2="648.5" y1="1197" y2="1197"/><rect fill="none" height="6" style="stroke:#C82930;stroke-width:1.0;" width="6" x="474.5" y="1205"/><text fill="#000000" font-family="sans-serif" font-size="11" lengthAdjust="spacing" textLength="91" x="486.5" y="1212.4189">citizenCardNumber</text><rect fill="none" height="6" style="stroke:#C82930;stroke-width:1.0;" width="6" x="474.5" y="1218.8359"/><text fill="#000000" font-family="sans-serif" font-size="11" lengthAdjust="spacing" textLength="43" x="486.5" y="1226.2549">nhsCode</text><rect fill="none" height="6" style="stroke:#C82930;stroke-width:1.0;" width="6" x="474.5" y="1232.6719"/><text fill="#000000" font-family="sans-serif" font-size="11" lengthAdjust="spacing" textLength="43" x="486.5" y="1240.0908">birthDate</text><rect fill="none" height="6" style="stroke:#C82930;stroke-width:1.0;" width="6" x="474.5" y="1246.5078"/><text fill="#000000" font-family="sans-serif" font-size="11" lengthAdjust="spacing" textLength="18" x="486.5" y="1253.9268">sex</text><rect fill="none" height="6" style="stroke:#C82930;stroke-width:1.0;" width="6" x="474.5" y="1260.3438"/><text fill="#000000" font-family="sans-serif" font-size="11" lengthAdjust="spacing" textLength="9" x="486.5" y="1267.7627">tif</text><rect fill="none" height="6" style="stroke:#C82930;stroke-width:1.0;" width="6" x="474.5" y="1274.1797"/><text fill="#000000" font-family="sans-serif" font-size="11" lengthAdjust="spacing" textLength="67" x="486.5" y="1281.5986">phoneNumber</text><rect fill="none" height="6" style="stroke:#C82930;stroke-width:1.0;" width="6" x="474.5" y="1288.0156"/><text fill="#000000" font-family="sans-serif" font-size="11" lengthAdjust="spacing" textLength="28" x="486.5" y="1295.4346">e-mail</text><rect fill="none" height="6" style="stroke:#C82930;stroke-width:1.0;" width="6" x="474.5" y="1301.8516"/><text fill="#000000" font-family="sans-serif" font-size="11" lengthAdjust="spacing" textLength="26" x="486.5" y="1309.2705">name</text><rect fill="none" height="6" style="stroke:#C82930;stroke-width:1.0;" width="6" x="474.5" y="1315.6875"/><text fill="#000000" font-family="sans-serif" font-size="11" lengthAdjust="spacing" textLength="40" x="486.5" y="1323.1064">address</text><line style="stroke:#A80036;stroke-width:1.5;" x1="467.5" x2="648.5" y1="1329.5234" y2="1329.5234"/><ellipse cx="477.5" cy="1340.5234" fill="#84BE84" rx="3" ry="3" style="stroke:#038048;stroke-width:1.0;"/><text fill="#000000" font-family="sans-serif" font-size="11" lengthAdjust="spacing" textLength="76" x="486.5" y="1344.9424">setName(name)</text><ellipse cx="477.5" cy="1354.3594" fill="#84BE84" rx="3" ry="3" style="stroke:#038048;stroke-width:1.0;"/><text fill="#000000" font-family="sans-serif" font-size="11" lengthAdjust="spacing" textLength="105" x="486.5" y="1358.7783">setAddress(address)</text><ellipse cx="477.5" cy="1368.1953" fill="#84BE84" rx="3" ry="3" style="stroke:#038048;stroke-width:1.0;"/><text fill="#000000" font-family="sans-serif" font-size="11" lengthAdjust="spacing" textLength="157" x="486.5" y="1372.6143">setPhoneNumber(phoneNumber)</text><ellipse cx="477.5" cy="1382.0313" fill="#84BE84" rx="3" ry="3" style="stroke:#038048;stroke-width:1.0;"/><text fill="#000000" font-family="sans-serif" font-size="11" lengthAdjust="spacing" textLength="60" x="486.5" y="1386.4502">setSex(sex)</text><!--MD5=[d9af5e34e5bc78cd5a2caff02363fedd]
class ClientMapper--><rect codeLine="79" fill="#FEFECE" filter="url(#fk36b4e9eor8d)" height="61.8359" id="ClientMapper" style="stroke:#A80036;stroke-width:1.5;" width="105" x="187.5" y="749.5"/><ellipse cx="202.5" cy="765.5" fill="#ADD1B2" rx="11" ry="11" style="stroke:#A80036;stroke-width:1.0;"/><path d="M204.5,762 Q204.7031,761.5 204.9375,761.25 Q205.1719,761 205.4375,761 Q205.9063,761 206.2031,761.2813 Q206.5,761.5625 206.5,762.2188 L206.5,763.7813 Q206.5,764.4375 206.2188,764.7188 Q205.9375,765 205.5,765 Q205.1094,765 204.8594,764.8281 Q204.6094,764.6563 204.5,764.2031 Q204.4531,763.8906 204.2813,763.7188 Q203.9688,763.3906 203.4063,763.2031 Q202.8438,763 202.2813,763 Q201.5781,763 200.9844,763.2813 Q200.4063,763.5625 199.9531,764.1875 Q199.5,764.8125 199.5,765.6719 L199.5,766.5938 Q199.5,767.625 200.3438,768.3125 Q201.1875,769 202.6875,769 Q203.5781,769 204.2031,768.7969 Q204.5625,768.6875 204.9688,768.3281 Q205.2344,768.125 205.375,768.0625 Q205.5156,768 205.6875,768 Q206.0156,768 206.25,768.2656 Q206.5,768.5156 206.5,768.875 Q206.5,769.2188 206.1563,769.625 Q205.6563,770.2188 204.8594,770.5469 Q203.8125,771 202.5313,771 Q201.0313,771 199.8281,770.4063 Q198.8594,769.9375 198.1719,768.9219 Q197.5,767.9063 197.5,766.7031 L197.5,765.6094 Q197.5,764.3594 198.0938,763.2656 Q198.7031,762.1719 199.75,761.5938 Q200.8125,761 202,761 Q202.7188,761 203.3438,761.25 Q203.9688,761.5 204.5,762 Z " fill="#000000"/><text fill="#000000" font-family="sans-serif" font-size="12" lengthAdjust="spacing" textLength="73" x="216.5" y="770.4102">ClientMapper</text><line style="stroke:#A80036;stroke-width:1.5;" x1="188.5" x2="291.5" y1="781.5" y2="781.5"/><line style="stroke:#A80036;stroke-width:1.5;" x1="188.5" x2="291.5" y1="789.5" y2="789.5"/><ellipse cx="198.5" cy="800.5" fill="#84BE84" rx="3" ry="3" style="stroke:#038048;stroke-width:1.0;"/><text fill="#000000" font-family="sans-serif" font-size="11" lengthAdjust="spacing" textLength="58" x="207.5" y="804.9189">toDto(client)</text><!--MD5=[687b2867e958f9e5343032874922dbed]
class ClientDto--><rect codeLine="83" fill="#FEFECE" filter="url(#fk36b4e9eor8d)" height="269.375" id="ClientDto" style="stroke:#A80036;stroke-width:1.5;" width="232" x="80" y="331"/><ellipse cx="166.25" cy="347" fill="#ADD1B2" rx="11" ry="11" style="stroke:#A80036;stroke-width:1.0;"/><path d="M168.25,343.5 Q168.4531,343 168.6875,342.75 Q168.9219,342.5 169.1875,342.5 Q169.6563,342.5 169.9531,342.7813 Q170.25,343.0625 170.25,343.7188 L170.25,345.2813 Q170.25,345.9375 169.9688,346.2188 Q169.6875,346.5 169.25,346.5 Q168.8594,346.5 168.6094,346.3281 Q168.3594,346.1563 168.25,345.7031 Q168.2031,345.3906 168.0313,345.2188 Q167.7188,344.8906 167.1563,344.7031 Q166.5938,344.5 166.0313,344.5 Q165.3281,344.5 164.7344,344.7813 Q164.1563,345.0625 163.7031,345.6875 Q163.25,346.3125 163.25,347.1719 L163.25,348.0938 Q163.25,349.125 164.0938,349.8125 Q164.9375,350.5 166.4375,350.5 Q167.3281,350.5 167.9531,350.2969 Q168.3125,350.1875 168.7188,349.8281 Q168.9844,349.625 169.125,349.5625 Q169.2656,349.5 169.4375,349.5 Q169.7656,349.5 170,349.7656 Q170.25,350.0156 170.25,350.375 Q170.25,350.7188 169.9063,351.125 Q169.4063,351.7188 168.6094,352.0469 Q167.5625,352.5 166.2813,352.5 Q164.7813,352.5 163.5781,351.9063 Q162.6094,351.4375 161.9219,350.4219 Q161.25,349.4063 161.25,348.2031 L161.25,347.1094 Q161.25,345.8594 161.8438,344.7656 Q162.4531,343.6719 163.5,343.0938 Q164.5625,342.5 165.75,342.5 Q166.4688,342.5 167.0938,342.75 Q167.7188,343 168.25,343.5 Z " fill="#000000"/><text fill="#000000" font-family="sans-serif" font-size="12" lengthAdjust="spacing" textLength="51" x="186.75" y="351.9102">ClientDto</text><line style="stroke:#A80036;stroke-width:1.5;" x1="81" x2="311" y1="363" y2="363"/><rect fill="none" height="6" style="stroke:#C82930;stroke-width:1.0;" width="6" x="88" y="371"/><text fill="#000000" font-family="sans-serif" font-size="11" lengthAdjust="spacing" textLength="91" x="100" y="378.4189">citizenCardNumber</text><rect fill="none" height="6" style="stroke:#C82930;stroke-width:1.0;" width="6" x="88" y="384.8359"/><text fill="#000000" font-family="sans-serif" font-size="11" lengthAdjust="spacing" textLength="43" x="100" y="392.2549">nhsCode</text><rect fill="none" height="6" style="stroke:#C82930;stroke-width:1.0;" width="6" x="88" y="398.6719"/><text fill="#000000" font-family="sans-serif" font-size="11" lengthAdjust="spacing" textLength="43" x="100" y="406.0908">birthDate</text><rect fill="none" height="6" style="stroke:#C82930;stroke-width:1.0;" width="6" x="88" y="412.5078"/><text fill="#000000" font-family="sans-serif" font-size="11" lengthAdjust="spacing" textLength="18" x="100" y="419.9268">sex</text><rect fill="none" height="6" style="stroke:#C82930;stroke-width:1.0;" width="6" x="88" y="426.3438"/><text fill="#000000" font-family="sans-serif" font-size="11" lengthAdjust="spacing" textLength="9" x="100" y="433.7627">tif</text><rect fill="none" height="6" style="stroke:#C82930;stroke-width:1.0;" width="6" x="88" y="440.1797"/><text fill="#000000" font-family="sans-serif" font-size="11" lengthAdjust="spacing" textLength="67" x="100" y="447.5986">phoneNumber</text><rect fill="none" height="6" style="stroke:#C82930;stroke-width:1.0;" width="6" x="88" y="454.0156"/><text fill="#000000" font-family="sans-serif" font-size="11" lengthAdjust="spacing" textLength="28" x="100" y="461.4346">e-mail</text><rect fill="none" height="6" style="stroke:#C82930;stroke-width:1.0;" width="6" x="88" y="467.8516"/><text fill="#000000" font-family="sans-serif" font-size="11" lengthAdjust="spacing" textLength="26" x="100" y="475.2705">name</text><line style="stroke:#A80036;stroke-width:1.5;" x1="81" x2="311" y1="481.6875" y2="481.6875"/><ellipse cx="91" cy="492.6875" fill="#84BE84" rx="3" ry="3" style="stroke:#038048;stroke-width:1.0;"/><text fill="#000000" font-family="sans-serif" font-size="11" lengthAdjust="spacing" textLength="76" x="100" y="497.1064">getName(name)</text><ellipse cx="91" cy="506.5234" fill="#84BE84" rx="3" ry="3" style="stroke:#038048;stroke-width:1.0;"/><text fill="#000000" font-family="sans-serif" font-size="11" lengthAdjust="spacing" textLength="206" x="100" y="510.9424">getCitizenCardNumber(citizenCardNumber)</text><ellipse cx="91" cy="520.3594" fill="#84BE84" rx="3" ry="3" style="stroke:#038048;stroke-width:1.0;"/><text fill="#000000" font-family="sans-serif" font-size="11" lengthAdjust="spacing" textLength="110" x="100" y="524.7783">getNhsCode(nhsCode)</text><ellipse cx="91" cy="534.1953" fill="#84BE84" rx="3" ry="3" style="stroke:#038048;stroke-width:1.0;"/><text fill="#000000" font-family="sans-serif" font-size="11" lengthAdjust="spacing" textLength="134" x="100" y="538.6143">getDateOfBirth(dateOfBirth)</text><ellipse cx="91" cy="548.0313" fill="#84BE84" rx="3" ry="3" style="stroke:#038048;stroke-width:1.0;"/><text fill="#000000" font-family="sans-serif" font-size="11" lengthAdjust="spacing" textLength="71" x="100" y="552.4502">getEmail(email)</text><ellipse cx="91" cy="561.8672" fill="#84BE84" rx="3" ry="3" style="stroke:#038048;stroke-width:1.0;"/><text fill="#000000" font-family="sans-serif" font-size="11" lengthAdjust="spacing" textLength="157" x="100" y="566.2861">getPhoneNumber(phoneNumber)</text><ellipse cx="91" cy="575.7031" fill="#84BE84" rx="3" ry="3" style="stroke:#038048;stroke-width:1.0;"/><text fill="#000000" font-family="sans-serif" font-size="11" lengthAdjust="spacing" textLength="82" x="100" y="580.1221">getDateOfTin(tin)</text><ellipse cx="91" cy="589.5391" fill="#84BE84" rx="3" ry="3" style="stroke:#038048;stroke-width:1.0;"/><text fill="#000000" font-family="sans-serif" font-size="11" lengthAdjust="spacing" textLength="60" x="100" y="593.958">getSex(sex)</text><!--MD5=[8ae808d068a8995f06b9b3ec51357f0b]
class AuthFacade--><rect codeLine="45" fill="#FEFECE" filter="url(#fk36b4e9eor8d)" height="61.8359" id="AuthFacade" style="stroke:#A80036;stroke-width:1.5;" width="147" x="804.5" y="749.5"/><ellipse cx="842" cy="765.5" fill="#ADD1B2" rx="11" ry="11" style="stroke:#A80036;stroke-width:1.0;"/><path d="M844,762 Q844.2031,761.5 844.4375,761.25 Q844.6719,761 844.9375,761 Q845.4063,761 845.7031,761.2813 Q846,761.5625 846,762.2188 L846,763.7813 Q846,764.4375 845.7188,764.7188 Q845.4375,765 845,765 Q844.6094,765 844.3594,764.8281 Q844.1094,764.6563 844,764.2031 Q843.9531,763.8906 843.7813,763.7188 Q843.4688,763.3906 842.9063,763.2031 Q842.3438,763 841.7813,763 Q841.0781,763 840.4844,763.2813 Q839.9063,763.5625 839.4531,764.1875 Q839,764.8125 839,765.6719 L839,766.5938 Q839,767.625 839.8438,768.3125 Q840.6875,769 842.1875,769 Q843.0781,769 843.7031,768.7969 Q844.0625,768.6875 844.4688,768.3281 Q844.7344,768.125 844.875,768.0625 Q845.0156,768 845.1875,768 Q845.5156,768 845.75,768.2656 Q846,768.5156 846,768.875 Q846,769.2188 845.6563,769.625 Q845.1563,770.2188 844.3594,770.5469 Q843.3125,771 842.0313,771 Q840.5313,771 839.3281,770.4063 Q838.3594,769.9375 837.6719,768.9219 Q837,767.9063 837,766.7031 L837,765.6094 Q837,764.3594 837.5938,763.2656 Q838.2031,762.1719 839.25,761.5938 Q840.3125,761 841.5,761 Q842.2188,761 842.8438,761.25 Q843.4688,761.5 844,762 Z " fill="#000000"/><text fill="#000000" font-family="sans-serif" font-size="12" lengthAdjust="spacing" textLength="65" x="861" y="770.4102">AuthFacade</text><line style="stroke:#A80036;stroke-width:1.5;" x1="805.5" x2="950.5" y1="781.5" y2="781.5"/><line style="stroke:#A80036;stroke-width:1.5;" x1="805.5" x2="950.5" y1="789.5" y2="789.5"/><ellipse cx="815.5" cy="800.5" fill="#84BE84" rx="3" ry="3" style="stroke:#038048;stroke-width:1.0;"/><text fill="#000000" font-family="sans-serif" font-size="11" lengthAdjust="spacing" textLength="121" x="824.5" y="804.9189">getCurrentUserSession()</text><!--MD5=[c5b08e60048ef1bcd788d24cf324082e]
class UserSession--><rect codeLine="49" fill="#FEFECE" filter="url(#fk36b4e9eor8d)" height="61.8359" id="UserSession" style="stroke:#A80036;stroke-width:1.5;" width="105" x="986.5" y="749.5"/><ellipse cx="1001.5" cy="765.5" fill="#ADD1B2" rx="11" ry="11" style="stroke:#A80036;stroke-width:1.0;"/><path d="M1003.5,762 Q1003.7031,761.5 1003.9375,761.25 Q1004.1719,761 1004.4375,761 Q1004.9063,761 1005.2031,761.2813 Q1005.5,761.5625 1005.5,762.2188 L1005.5,763.7813 Q1005.5,764.4375 1005.2188,764.7188 Q1004.9375,765 1004.5,765 Q1004.1094,765 1003.8594,764.8281 Q1003.6094,764.6563 1003.5,764.2031 Q1003.4531,763.8906 1003.2813,763.7188 Q1002.9688,763.3906 1002.4063,763.2031 Q1001.8438,763 1001.2813,763 Q1000.5781,763 999.9844,763.2813 Q999.4063,763.5625 998.9531,764.1875 Q998.5,764.8125 998.5,765.6719 L998.5,766.5938 Q998.5,767.625 999.3438,768.3125 Q1000.1875,769 1001.6875,769 Q1002.5781,769 1003.2031,768.7969 Q1003.5625,768.6875 1003.9688,768.3281 Q1004.2344,768.125 1004.375,768.0625 Q1004.5156,768 1004.6875,768 Q1005.0156,768 1005.25,768.2656 Q1005.5,768.5156 1005.5,768.875 Q1005.5,769.2188 1005.1563,769.625 Q1004.6563,770.2188 1003.8594,770.5469 Q1002.8125,771 1001.5313,771 Q1000.0313,771 998.8281,770.4063 Q997.8594,769.9375 997.1719,768.9219 Q996.5,767.9063 996.5,766.7031 L996.5,765.6094 Q996.5,764.3594 997.0938,763.2656 Q997.7031,762.1719 998.75,761.5938 Q999.8125,761 1001,761 Q1001.7188,761 1002.3438,761.25 Q1002.9688,761.5 1003.5,762 Z " fill="#000000"/><text fill="#000000" font-family="sans-serif" font-size="12" lengthAdjust="spacing" textLength="73" x="1015.5" y="770.4102">UserSession</text><line style="stroke:#A80036;stroke-width:1.5;" x1="987.5" x2="1090.5" y1="781.5" y2="781.5"/><line style="stroke:#A80036;stroke-width:1.5;" x1="987.5" x2="1090.5" y1="789.5" y2="789.5"/><ellipse cx="997.5" cy="800.5" fill="#84BE84" rx="3" ry="3" style="stroke:#038048;stroke-width:1.0;"/><text fill="#000000" font-family="sans-serif" font-size="11" lengthAdjust="spacing" textLength="47" x="1006.5" y="804.9189">getEmail()</text><!--MD5=[a908d3e5d6f768131978c6f37277c7c7]
link UpdateDataUI to UpdateDataController--><path codeLine="114" d="M533,178.01 C533,223.2 533,325.18 533,394.44 " fill="none" id="UpdateDataUI-to-UpdateDataController" style="stroke:#A80036;stroke-width:1.0;stroke-dasharray:7.0,7.0;"/><polygon fill="#A80036" points="533,399.79,537,390.79,533,394.79,529,390.79,533,399.79" style="stroke:#A80036;stroke-width:1.0;"/><!--MD5=[07d19df788f2334fc50c33ea40de1765]
link UpdateDataController to ClientMapper--><path codeLine="115" d="M472.29,531.35 C411.36,596.45 319.85,694.2 271.9,745.42 " fill="none" id="UpdateDataController-to-ClientMapper" style="stroke:#A80036;stroke-width:1.0;stroke-dasharray:7.0,7.0;"/><polygon fill="#A80036" points="268.24,749.33,277.3136,745.4999,271.6597,745.6823,271.4773,740.0284,268.24,749.33" style="stroke:#A80036;stroke-width:1.0;"/><!--MD5=[bb7262cecaada1754a4086a293e36bf2]
link ClientDto to ClientMapper--><path codeLine="116" d="M214.79,600.15 C222.2,652.88 230.11,709.16 235.05,744.32 " fill="none" id="ClientDto-to-ClientMapper" style="stroke:#A80036;stroke-width:1.0;stroke-dasharray:7.0,7.0;"/><polygon fill="#A80036" points="235.76,749.35,238.4891,739.8868,235.0749,744.3972,230.5645,740.983,235.76,749.35" style="stroke:#A80036;stroke-width:1.0;"/><!--MD5=[20c513207abcd36a4add6704b85d0584]
link UpdateDataController to Company--><path codeLine="117" d="M538.18,531.35 C542.71,588.08 549.22,669.6 553.53,723.52 " fill="none" id="UpdateDataController-to-Company" style="stroke:#A80036;stroke-width:1.0;stroke-dasharray:7.0,7.0;"/><polygon fill="#A80036" points="553.94,728.65,557.2074,719.3589,553.5401,723.666,549.2331,719.9987,553.94,728.65" style="stroke:#A80036;stroke-width:1.0;"/><!--MD5=[a11230341c8e65219708844feaa40162]
link Company to ClientStore--><path codeLine="118" d="M558,832.18 C558,860.35 558,895.81 558,926.58 " fill="none" id="Company-to-ClientStore" style="stroke:#A80036;stroke-width:1.0;"/><polygon fill="#A80036" points="558,931.87,562,922.87,558,926.87,554,922.87,558,931.87" style="stroke:#A80036;stroke-width:1.0;"/><text fill="#000000" font-family="sans-serif" font-size="13" lengthAdjust="spacing" textLength="28" x="559" y="876.4951">uses</text><text fill="#000000" font-family="sans-serif" font-size="13" lengthAdjust="spacing" textLength="7" x="550.5297" y="853.6951">1</text><text fill="#000000" font-family="sans-serif" font-size="13" lengthAdjust="spacing" textLength="7" x="550.6172" y="921.3302">1</text><!--MD5=[1d934105a045dbf126514c6917bd5072]
link ClientStore to Client--><path codeLine="119" d="M558,1063.33 C558,1091.95 558,1126.53 558,1159.49 " fill="none" id="ClientStore-to-Client" style="stroke:#A80036;stroke-width:1.0;"/><polygon fill="#A80036" points="558,1164.77,562,1155.77,558,1159.77,554,1155.77,558,1164.77" style="stroke:#A80036;stroke-width:1.0;"/><text fill="#000000" font-family="sans-serif" font-size="13" lengthAdjust="spacing" textLength="37" x="559" y="1109.4951">knows</text><text fill="#000000" font-family="sans-serif" font-size="13" lengthAdjust="spacing" textLength="7" x="550.6391" y="1084.4562">1</text><text fill="#000000" font-family="sans-serif" font-size="13" lengthAdjust="spacing" textLength="5" x="552.832" y="1154.0691">*</text><!--MD5=[717d4b03d3c4372f4eafe5e342a0a7dd]
link Company to AuthFacade--><path codeLine="120" d="M612.06,780.5 C674.37,780.5 736.68,780.5 798.99,780.5 " fill="none" id="Company-to-AuthFacade" style="stroke:#A80036;stroke-width:1.0;stroke-dasharray:7.0,7.0;"/><polygon fill="#A80036" points="804.24,780.5,795.24,776.5,799.24,780.5,795.24,784.5,804.24,780.5" style="stroke:#A80036;stroke-width:1.0;"/><!--MD5=[434feadd2b6df9bf2f29d4ac96be7aa9]
link AuthFacade to UserSession--><path codeLine="121" d="M951.58,780.5 C961.47,780.5 971.36,780.5 981.24,780.5 " fill="none" id="AuthFacade-to-UserSession" style="stroke:#A80036;stroke-width:1.0;stroke-dasharray:7.0,7.0;"/><polygon fill="#A80036" points="986.41,780.5,977.41,776.5,981.41,780.5,977.41,784.5,986.41,780.5" style="stroke:#A80036;stroke-width:1.0;"/><!--MD5=[476915145f1553e704f9e1f2580c9e8a]
@startuml
'https://plantuml.com/class-diagram
package app {
package ui {
package gui {
class UpdateDataUI
}
}
package controller {
class UpdateDataController
}

package domain {
package model {
package store {
class ClientStore
}
package users {
class Client
}
class Company
}

}
package mappers {
class ClientMapper
package dto {
class ClientDto
}
}
}


package auth {
class AuthFacade
class UserSession
}

class Company {
-authFacade
-clientStore
+getAuthFacade()
+getClientStore()
}

class AuthFacade {
+getCurrentUserSession()
}

class UserSession {
+getEmail()
}

class ClientStore {
-clientExists(client)
+getClientByEmail()
+updateAddress(client, address)
+updateName(client, name)
+updateSex(client, sex)
+updatePhoneNumber (client, phoneNumber)
}

class Client {
-citizenCardNumber
-nhsCode
-birthDate
-sex
-tif
-phoneNumber
-e-mail
-name
-address

+setName(name)
+setAddress(address)
+setPhoneNumber(phoneNumber)
+setSex(sex)
}

class ClientMapper {
+toDto(client)
}

class ClientDto {
-citizenCardNumber
-nhsCode
-birthDate
-sex
-tif
-phoneNumber
-e-mail
-name

+getName(name)
+getCitizenCardNumber(citizenCardNumber)
+getNhsCode(nhsCode)
+getDateOfBirth(dateOfBirth)
+getEmail(email)
+getPhoneNumber(phoneNumber)
+getDateOfTin(tin)
+getSex(sex)

}

class UpdateDataController {
+getUserSession()
+updateName(Client client, String name)
+updateAddress (client,address)
+updateSex(Client client, String sex)
+updatePhoneNumber (client,phoneNumber)
+getClientByEmail(email)

}

UpdateDataUI..>UpdateDataController
UpdateDataController..>ClientMapper
ClientDto..>ClientMapper
UpdateDataController..>Company
Company"1"- ->"1"ClientStore : uses
ClientStore"1"- ->"*"Client : knows
Company .> AuthFacade
AuthFacade.>UserSession

@enduml

@startuml
package app {
package ui {
package gui {
class UpdateDataUI
}
}
package controller {
class UpdateDataController
}

package domain {
package model {
package store {
class ClientStore
}
package users {
class Client
}
class Company
}

}
package mappers {
class ClientMapper
package dto {
class ClientDto
}
}
}


package auth {
class AuthFacade
class UserSession
}

class Company {
-authFacade
-clientStore
+getAuthFacade()
+getClientStore()
}

class AuthFacade {
+getCurrentUserSession()
}

class UserSession {
+getEmail()
}

class ClientStore {
-clientExists(client)
+getClientByEmail()
+updateAddress(client, address)
+updateName(client, name)
+updateSex(client, sex)
+updatePhoneNumber (client, phoneNumber)
}

class Client {
-citizenCardNumber
-nhsCode
-birthDate
-sex
-tif
-phoneNumber
-e-mail
-name
-address

+setName(name)
+setAddress(address)
+setPhoneNumber(phoneNumber)
+setSex(sex)
}

class ClientMapper {
+toDto(client)
}

class ClientDto {
-citizenCardNumber
-nhsCode
-birthDate
-sex
-tif
-phoneNumber
-e-mail
-name

+getName(name)
+getCitizenCardNumber(citizenCardNumber)
+getNhsCode(nhsCode)
+getDateOfBirth(dateOfBirth)
+getEmail(email)
+getPhoneNumber(phoneNumber)
+getDateOfTin(tin)
+getSex(sex)

}

class UpdateDataController {
+getUserSession()
+updateName(Client client, String name)
+updateAddress (client,address)
+updateSex(Client client, String sex)
+updatePhoneNumber (client,phoneNumber)
+getClientByEmail(email)

}

UpdateDataUI..>UpdateDataController
UpdateDataController..>ClientMapper
ClientDto..>ClientMapper
UpdateDataController..>Company
Company"1"- ->"1"ClientStore : uses
ClientStore"1"- ->"*"Client : knows
Company .> AuthFacade
AuthFacade.>UserSession

@enduml

PlantUML version 1.2021.00(Sun Jan 10 10:25:05 GMT 2021)
(GPL source distribution)
Java Runtime: OpenJDK Runtime Environment
JVM: OpenJDK 64-Bit Server VM
Default Encoding: Cp1252
Language: pt
Country: PT
--></g></svg>