<?xml version="1.0" encoding="UTF-8" standalone="no"?><svg xmlns="http://www.w3.org/2000/svg" xmlns:xlink="http://www.w3.org/1999/xlink" contentScriptType="application/ecmascript" contentStyleType="text/css" height="2376px" preserveAspectRatio="none" style="width:1687px;height:2376px;background:#FFFFFF;" version="1.1" viewBox="0 0 1687 2376" width="1687.5px" zoomAndPan="magnify"><defs><filter height="300%" id="f151pa0bxvg2j1" width="300%" x="-1" y="-1"><feGaussianBlur result="blurOut" stdDeviation="3.0"/><feColorMatrix in="blurOut" result="blurOut2" type="matrix" values="0 0 0 0 0 0 0 0 0 0 0 0 0 0 0 0 0 0 .4 0"/><feOffset dx="6.0" dy="6.0" in="blurOut2" result="blurOut3"/><feBlend in="SourceGraphic" in2="blurOut3" mode="normal"/></filter></defs><g><!--MD5=[d5ac3844f66b12d9e08170e47495e096]
cluster app--><polygon fill="#FFFFFF" filter="url(#f151pa0bxvg2j1)" points="24,9,72,9,82.5,44.4141,1146,44.4141,1146,2365.5,24,2365.5,24,9" style="stroke:#000000;stroke-width:2.25;"/><line style="stroke:#000000;stroke-width:2.25;" x1="24" x2="82.5" y1="44.4141" y2="44.4141"/><text fill="#000000" font-family="sans-serif" font-size="21" font-weight="bold" lengthAdjust="spacing" textLength="39" x="30" y="33.7998">app</text><!--MD5=[64e2e010ba86d7988e5cd73bd64f61f9]
cluster ui--><polygon fill="#FFFFFF" filter="url(#f151pa0bxvg2j1)" points="646.5,75,675,75,685.5,110.4141,931.5,110.4141,931.5,327,646.5,327,646.5,75" style="stroke:#000000;stroke-width:2.25;"/><line style="stroke:#000000;stroke-width:2.25;" x1="646.5" x2="685.5" y1="110.4141" y2="110.4141"/><text fill="#000000" font-family="sans-serif" font-size="21" font-weight="bold" lengthAdjust="spacing" textLength="19.5" x="652.5" y="99.7998">ui</text><!--MD5=[11b63f87f9efce6fda9831b98bfa73ba]
cluster gui--><polygon fill="#FFFFFF" filter="url(#f151pa0bxvg2j1)" points="682.5,141,724.5,141,735,176.4141,895.5,176.4141,895.5,291,682.5,291,682.5,141" style="stroke:#000000;stroke-width:2.25;"/><line style="stroke:#000000;stroke-width:2.25;" x1="682.5" x2="735" y1="176.4141" y2="176.4141"/><text fill="#000000" font-family="sans-serif" font-size="21" font-weight="bold" lengthAdjust="spacing" textLength="33" x="688.5" y="165.7998">gui</text><!--MD5=[10ea673caf457862023e152271927b45]
cluster controller--><polygon fill="#FFFFFF" filter="url(#f151pa0bxvg2j1)" points="612,514.5,724.5,514.5,735,549.9141,966,549.9141,966,852,612,852,612,514.5" style="stroke:#000000;stroke-width:2.25;"/><line style="stroke:#000000;stroke-width:2.25;" x1="612" x2="735" y1="549.9141" y2="549.9141"/><text fill="#000000" font-family="sans-serif" font-size="21" font-weight="bold" lengthAdjust="spacing" textLength="103.5" x="618" y="539.2998">controller</text><!--MD5=[27f772719433d509ddbc20ff768eba08]
cluster domain--><polygon fill="#FFFFFF" filter="url(#f151pa0bxvg2j1)" points="564,973.5,649.5,973.5,660,1008.9141,1110,1008.9141,1110,2329.5,564,2329.5,564,973.5" style="stroke:#000000;stroke-width:2.25;"/><line style="stroke:#000000;stroke-width:2.25;" x1="564" x2="660" y1="1008.9141" y2="1008.9141"/><text fill="#000000" font-family="sans-serif" font-size="21" font-weight="bold" lengthAdjust="spacing" textLength="76.5" x="570" y="998.2998">domain</text><!--MD5=[5d4cd377749310b66bf14896f5cd8d9b]
cluster model--><polygon fill="#FFFFFF" filter="url(#f151pa0bxvg2j1)" points="600,1039.5,673.5,1039.5,684,1074.9141,1074,1074.9141,1074,2293.5,600,2293.5,600,1039.5" style="stroke:#000000;stroke-width:2.25;"/><line style="stroke:#000000;stroke-width:2.25;" x1="600" x2="684" y1="1074.9141" y2="1074.9141"/><text fill="#000000" font-family="sans-serif" font-size="21" font-weight="bold" lengthAdjust="spacing" textLength="64.5" x="606" y="1064.2998">model</text><!--MD5=[c23849cc5f4a85746a20de4317c530fc]
cluster store--><polygon fill="#FFFFFF" filter="url(#f151pa0bxvg2j1)" points="636,1344,700.5,1344,711,1379.4141,1038,1379.4141,1038,1701,636,1701,636,1344" style="stroke:#000000;stroke-width:2.25;"/><line style="stroke:#000000;stroke-width:2.25;" x1="636" x2="711" y1="1379.4141" y2="1379.4141"/><text fill="#000000" font-family="sans-serif" font-size="21" font-weight="bold" lengthAdjust="spacing" textLength="55.5" x="642" y="1368.7998">store</text><!--MD5=[3063470ff00343f127a4682df62b6479]
cluster users--><polygon fill="#FFFFFF" filter="url(#f151pa0bxvg2j1)" points="639,1776,708,1776,718.5,1811.4141,1035,1811.4141,1035,2257.5,639,2257.5,639,1776" style="stroke:#000000;stroke-width:2.25;"/><line style="stroke:#000000;stroke-width:2.25;" x1="639" x2="718.5" y1="1811.4141" y2="1811.4141"/><text fill="#000000" font-family="sans-serif" font-size="21" font-weight="bold" lengthAdjust="spacing" textLength="60" x="645" y="1800.7998">users</text><!--MD5=[e484dff12bc7e3f9ae9e3c87a060152b]
cluster mappers--><polygon fill="#FFFFFF" filter="url(#f151pa0bxvg2j1)" points="60,376.5,160.5,376.5,171,411.9141,528,411.9141,528,1241.25,60,1241.25,60,376.5" style="stroke:#000000;stroke-width:2.25;"/><line style="stroke:#000000;stroke-width:2.25;" x1="60" x2="171" y1="411.9141" y2="411.9141"/><text fill="#000000" font-family="sans-serif" font-size="21" font-weight="bold" lengthAdjust="spacing" textLength="91.5" x="66" y="401.2998">mappers</text><!--MD5=[e6eced616a98d47334dd1aaaa829ffd5]
cluster dto--><polygon fill="#FFFFFF" filter="url(#f151pa0bxvg2j1)" points="96,442.5,139.5,442.5,150,477.9141,492,477.9141,492,924,96,924,96,442.5" style="stroke:#000000;stroke-width:2.25;"/><line style="stroke:#000000;stroke-width:2.25;" x1="96" x2="150" y1="477.9141" y2="477.9141"/><text fill="#000000" font-family="sans-serif" font-size="21" font-weight="bold" lengthAdjust="spacing" textLength="34.5" x="102" y="467.2998">dto</text><!--MD5=[0c4a738b3201a23a254af68352446157]
cluster auth--><polygon fill="#FFFFFF" filter="url(#f151pa0bxvg2j1)" points="1182,1070.25,1237.5,1070.25,1248,1105.6641,1662,1105.6641,1662,1241.25,1182,1241.25,1182,1070.25" style="stroke:#000000;stroke-width:2.25;"/><line style="stroke:#000000;stroke-width:2.25;" x1="1182" x2="1248" y1="1105.6641" y2="1105.6641"/><text fill="#000000" font-family="sans-serif" font-size="21" font-weight="bold" lengthAdjust="spacing" textLength="46.5" x="1188" y="1095.0498">auth</text><!--MD5=[9344dd62f18af20e47d5d875b1db9d87]
class UpdateDataUI--><rect codeLine="5" fill="#FEFECE" filter="url(#f151pa0bxvg2j1)" height="72" id="UpdateDataUI" style="stroke:#A80036;stroke-width:2.25;" width="165" x="706.5" y="195"/><ellipse cx="729" cy="219" fill="#ADD1B2" rx="16.5" ry="16.5" style="stroke:#A80036;stroke-width:1.5;"/><path d="M732,213.75 Q732.3047,213 732.6563,212.625 Q733.0078,212.25 733.4063,212.25 Q734.1094,212.25 734.5547,212.6719 Q735,213.0938 735,214.0781 L735,216.4219 Q735,217.4063 734.5781,217.8281 Q734.1563,218.25 733.5,218.25 Q732.9141,218.25 732.5391,217.9922 Q732.1641,217.7344 732,217.0547 Q731.9297,216.5859 731.6719,216.3281 Q731.2031,215.8359 730.3594,215.5547 Q729.5156,215.25 728.6719,215.25 Q727.6172,215.25 726.7266,215.6719 Q725.8594,216.0938 725.1797,217.0313 Q724.5,217.9688 724.5,219.2578 L724.5,220.6406 Q724.5,222.1875 725.7656,223.2188 Q727.0313,224.25 729.2813,224.25 Q730.6172,224.25 731.5547,223.9453 Q732.0938,223.7813 732.7031,223.2422 Q733.1016,222.9375 733.3125,222.8438 Q733.5234,222.75 733.7813,222.75 Q734.2734,222.75 734.625,223.1484 Q735,223.5234 735,224.0625 Q735,224.5781 734.4844,225.1875 Q733.7344,226.0781 732.5391,226.5703 Q730.9688,227.25 729.0469,227.25 Q726.7969,227.25 724.9922,226.3594 Q723.5391,225.6563 722.5078,224.1328 Q721.5,222.6094 721.5,220.8047 L721.5,219.1641 Q721.5,217.2891 722.3906,215.6484 Q723.3047,214.0078 724.875,213.1406 Q726.4688,212.25 728.25,212.25 Q729.3281,212.25 730.2656,212.625 Q731.2031,213 732,213.75 Z " fill="#000000"/><text fill="#000000" font-family="sans-serif" font-size="18" lengthAdjust="spacing" textLength="117" x="750" y="226.3652">UpdateDataUI</text><line style="stroke:#A80036;stroke-width:2.25;" x1="708" x2="870" y1="243" y2="243"/><line style="stroke:#A80036;stroke-width:2.25;" x1="708" x2="870" y1="255" y2="255"/><!--MD5=[7269f33d8b4d395c7530af605f37310e]
class UpdateDataController--><rect codeLine="111" fill="#FEFECE" filter="url(#f151pa0bxvg2j1)" height="258.7852" id="UpdateDataController" style="stroke:#A80036;stroke-width:2.25;" width="306" x="636" y="568.5"/><ellipse cx="693.6" cy="592.5" fill="#ADD1B2" rx="16.5" ry="16.5" style="stroke:#A80036;stroke-width:1.5;"/><path d="M696.6,587.25 Q696.9047,586.5 697.2562,586.125 Q697.6078,585.75 698.0062,585.75 Q698.7094,585.75 699.1547,586.1719 Q699.6,586.5938 699.6,587.5781 L699.6,589.9219 Q699.6,590.9063 699.1781,591.3281 Q698.7562,591.75 698.1,591.75 Q697.5141,591.75 697.1391,591.4922 Q696.7641,591.2344 696.6,590.5547 Q696.5297,590.0859 696.2719,589.8281 Q695.8031,589.3359 694.9594,589.0547 Q694.1156,588.75 693.2719,588.75 Q692.2172,588.75 691.3266,589.1719 Q690.4594,589.5938 689.7797,590.5313 Q689.1,591.4688 689.1,592.7578 L689.1,594.1406 Q689.1,595.6875 690.3656,596.7188 Q691.6312,597.75 693.8812,597.75 Q695.2172,597.75 696.1547,597.4453 Q696.6937,597.2813 697.3031,596.7422 Q697.7016,596.4375 697.9125,596.3438 Q698.1234,596.25 698.3812,596.25 Q698.8734,596.25 699.225,596.6484 Q699.6,597.0234 699.6,597.5625 Q699.6,598.0781 699.0844,598.6875 Q698.3344,599.5781 697.1391,600.0703 Q695.5687,600.75 693.6469,600.75 Q691.3969,600.75 689.5922,599.8594 Q688.1391,599.1563 687.1078,597.6328 Q686.1,596.1094 686.1,594.3047 L686.1,592.6641 Q686.1,590.7891 686.9906,589.1484 Q687.9047,587.5078 689.475,586.6406 Q691.0687,585.75 692.85,585.75 Q693.9281,585.75 694.8656,586.125 Q695.8031,586.5 696.6,587.25 Z " fill="#000000"/><text fill="#000000" font-family="sans-serif" font-size="18" lengthAdjust="spacing" textLength="180" x="722.4" y="599.8652">UpdateDataController</text><line style="stroke:#A80036;stroke-width:2.25;" x1="637.5" x2="940.5" y1="616.5" y2="616.5"/><line style="stroke:#A80036;stroke-width:2.25;" x1="637.5" x2="940.5" y1="628.5" y2="628.5"/><ellipse cx="652.5" cy="645" fill="#84BE84" rx="4.5" ry="4.5" style="stroke:#038048;stroke-width:1.5;"/><text fill="#000000" font-family="sans-serif" font-size="16.5" lengthAdjust="spacing" textLength="127.5" x="666" y="651.6284">getUserSession()</text><ellipse cx="652.5" cy="665.7539" fill="#84BE84" rx="4.5" ry="4.5" style="stroke:#038048;stroke-width:1.5;"/><text fill="#000000" font-family="sans-serif" font-size="16.5" lengthAdjust="spacing" textLength="192" x="666" y="672.3823">updateBirthDate(birthDate)</text><ellipse cx="652.5" cy="686.5078" fill="#84BE84" rx="4.5" ry="4.5" style="stroke:#038048;stroke-width:1.5;"/><text fill="#000000" font-family="sans-serif" font-size="16.5" lengthAdjust="spacing" textLength="225" x="666" y="693.1362">updateCitizenCard(citizenCard)</text><ellipse cx="652.5" cy="707.2617" fill="#84BE84" rx="4.5" ry="4.5" style="stroke:#038048;stroke-width:1.5;"/><text fill="#000000" font-family="sans-serif" font-size="16.5" lengthAdjust="spacing" textLength="133.5" x="666" y="713.8901">updateEmail(email)</text><ellipse cx="652.5" cy="728.0156" fill="#84BE84" rx="4.5" ry="4.5" style="stroke:#038048;stroke-width:1.5;"/><text fill="#000000" font-family="sans-serif" font-size="16.5" lengthAdjust="spacing" textLength="141" x="666" y="734.644">updateName(name)</text><ellipse cx="652.5" cy="748.7695" fill="#84BE84" rx="4.5" ry="4.5" style="stroke:#038048;stroke-width:1.5;"/><text fill="#000000" font-family="sans-serif" font-size="16.5" lengthAdjust="spacing" textLength="192" x="666" y="755.3979">updateNhsCode(nhsCode)</text><ellipse cx="652.5" cy="769.5234" fill="#84BE84" rx="4.5" ry="4.5" style="stroke:#038048;stroke-width:1.5;"/><text fill="#000000" font-family="sans-serif" font-size="16.5" lengthAdjust="spacing" textLength="117" x="666" y="776.1519">updateSex(sex)</text><ellipse cx="652.5" cy="790.2773" fill="#84BE84" rx="4.5" ry="4.5" style="stroke:#038048;stroke-width:1.5;"/><text fill="#000000" font-family="sans-serif" font-size="16.5" lengthAdjust="spacing" textLength="99" x="666" y="796.9058">updateTin(tin)</text><ellipse cx="652.5" cy="811.0313" fill="#84BE84" rx="4.5" ry="4.5" style="stroke:#038048;stroke-width:1.5;"/><text fill="#000000" font-family="sans-serif" font-size="16.5" lengthAdjust="spacing" textLength="267" x="666" y="817.6597">updatePhoneNumber (phoneNumber)</text><!--MD5=[02e4b9b7573f1156f41e60aa5b4e25a4]
class Company--><rect codeLine="38" fill="#FEFECE" filter="url(#f151pa0bxvg2j1)" height="155.0156" id="Company" style="stroke:#A80036;stroke-width:2.25;" width="162" x="756" y="1093.5"/><ellipse cx="794.025" cy="1117.5" fill="#ADD1B2" rx="16.5" ry="16.5" style="stroke:#A80036;stroke-width:1.5;"/><path d="M797.025,1112.25 Q797.3297,1111.5 797.6813,1111.125 Q798.0328,1110.75 798.4313,1110.75 Q799.1344,1110.75 799.5797,1111.1719 Q800.025,1111.5938 800.025,1112.5781 L800.025,1114.9219 Q800.025,1115.9063 799.6031,1116.3281 Q799.1813,1116.75 798.525,1116.75 Q797.9391,1116.75 797.5641,1116.4922 Q797.1891,1116.2344 797.025,1115.5547 Q796.9547,1115.0859 796.6969,1114.8281 Q796.2281,1114.3359 795.3844,1114.0547 Q794.5406,1113.75 793.6969,1113.75 Q792.6422,1113.75 791.7516,1114.1719 Q790.8844,1114.5938 790.2047,1115.5313 Q789.525,1116.4688 789.525,1117.7578 L789.525,1119.1406 Q789.525,1120.6875 790.7906,1121.7188 Q792.0563,1122.75 794.3063,1122.75 Q795.6422,1122.75 796.5797,1122.4453 Q797.1188,1122.2813 797.7281,1121.7422 Q798.1266,1121.4375 798.3375,1121.3438 Q798.5484,1121.25 798.8063,1121.25 Q799.2984,1121.25 799.65,1121.6484 Q800.025,1122.0234 800.025,1122.5625 Q800.025,1123.0781 799.5094,1123.6875 Q798.7594,1124.5781 797.5641,1125.0703 Q795.9938,1125.75 794.0719,1125.75 Q791.8219,1125.75 790.0172,1124.8594 Q788.5641,1124.1563 787.5328,1122.6328 Q786.525,1121.1094 786.525,1119.3047 L786.525,1117.6641 Q786.525,1115.7891 787.4156,1114.1484 Q788.3297,1112.5078 789.9,1111.6406 Q791.4938,1110.75 793.275,1110.75 Q794.3531,1110.75 795.2906,1111.125 Q796.2281,1111.5 797.025,1112.25 Z " fill="#000000"/><text fill="#000000" font-family="sans-serif" font-size="18" lengthAdjust="spacing" textLength="79.5" x="818.475" y="1124.8652">Company</text><line style="stroke:#A80036;stroke-width:2.25;" x1="757.5" x2="916.5" y1="1141.5" y2="1141.5"/><rect fill="none" height="9" style="stroke:#C82930;stroke-width:1.5;" width="9" x="768" y="1153.5"/><text fill="#000000" font-family="sans-serif" font-size="16.5" lengthAdjust="spacing" textLength="85.5" x="786" y="1164.6284">authFacade</text><rect fill="none" height="9" style="stroke:#C82930;stroke-width:1.5;" width="9" x="768" y="1174.2539"/><text fill="#000000" font-family="sans-serif" font-size="16.5" lengthAdjust="spacing" textLength="76.5" x="786" y="1185.3823">clientStore</text><line style="stroke:#A80036;stroke-width:2.25;" x1="757.5" x2="916.5" y1="1195.0078" y2="1195.0078"/><ellipse cx="772.5" cy="1211.5078" fill="#84BE84" rx="4.5" ry="4.5" style="stroke:#038048;stroke-width:1.5;"/><text fill="#000000" font-family="sans-serif" font-size="16.5" lengthAdjust="spacing" textLength="123" x="786" y="1218.1362">getAuthFacade()</text><ellipse cx="772.5" cy="1232.2617" fill="#84BE84" rx="4.5" ry="4.5" style="stroke:#038048;stroke-width:1.5;"/><text fill="#000000" font-family="sans-serif" font-size="16.5" lengthAdjust="spacing" textLength="112.5" x="786" y="1238.8901">getClientStore()</text><!--MD5=[55cb992be19579b505cea3c5691093cb]
class ClientStore--><rect codeLine="53" fill="#FEFECE" filter="url(#f151pa0bxvg2j1)" height="279.5391" id="ClientStore" style="stroke:#A80036;stroke-width:2.25;" width="352.5" x="660.75" y="1398"/><ellipse cx="784.875" cy="1422" fill="#ADD1B2" rx="16.5" ry="16.5" style="stroke:#A80036;stroke-width:1.5;"/><path d="M787.875,1416.75 Q788.1797,1416 788.5313,1415.625 Q788.8828,1415.25 789.2813,1415.25 Q789.9844,1415.25 790.4297,1415.6719 Q790.875,1416.0938 790.875,1417.0781 L790.875,1419.4219 Q790.875,1420.4063 790.4531,1420.8281 Q790.0313,1421.25 789.375,1421.25 Q788.7891,1421.25 788.4141,1420.9922 Q788.0391,1420.7344 787.875,1420.0547 Q787.8047,1419.5859 787.5469,1419.3281 Q787.0781,1418.8359 786.2344,1418.5547 Q785.3906,1418.25 784.5469,1418.25 Q783.4922,1418.25 782.6016,1418.6719 Q781.7344,1419.0938 781.0547,1420.0313 Q780.375,1420.9688 780.375,1422.2578 L780.375,1423.6406 Q780.375,1425.1875 781.6406,1426.2188 Q782.9063,1427.25 785.1563,1427.25 Q786.4922,1427.25 787.4297,1426.9453 Q787.9688,1426.7813 788.5781,1426.2422 Q788.9766,1425.9375 789.1875,1425.8438 Q789.3984,1425.75 789.6563,1425.75 Q790.1484,1425.75 790.5,1426.1484 Q790.875,1426.5234 790.875,1427.0625 Q790.875,1427.5781 790.3594,1428.1875 Q789.6094,1429.0781 788.4141,1429.5703 Q786.8438,1430.25 784.9219,1430.25 Q782.6719,1430.25 780.8672,1429.3594 Q779.4141,1428.6563 778.3828,1427.1328 Q777.375,1425.6094 777.375,1423.8047 L777.375,1422.1641 Q777.375,1420.2891 778.2656,1418.6484 Q779.1797,1417.0078 780.75,1416.1406 Q782.3438,1415.25 784.125,1415.25 Q785.2031,1415.25 786.1406,1415.625 Q787.0781,1416 787.875,1416.75 Z " fill="#000000"/><text fill="#000000" font-family="sans-serif" font-size="18" lengthAdjust="spacing" textLength="91.5" x="815.625" y="1429.3652">ClientStore</text><line style="stroke:#A80036;stroke-width:2.25;" x1="662.25" x2="1011.75" y1="1446" y2="1446"/><line style="stroke:#A80036;stroke-width:2.25;" x1="662.25" x2="1011.75" y1="1458" y2="1458"/><rect fill="#F24D5C" height="9" style="stroke:#C82930;stroke-width:1.5;" width="9" x="672.75" y="1470"/><text fill="#000000" font-family="sans-serif" font-size="16.5" lengthAdjust="spacing" textLength="130.5" x="690.75" y="1481.1284">clientExists(client)</text><ellipse cx="677.25" cy="1495.2539" fill="#84BE84" rx="4.5" ry="4.5" style="stroke:#038048;stroke-width:1.5;"/><text fill="#000000" font-family="sans-serif" font-size="16.5" lengthAdjust="spacing" textLength="129" x="690.75" y="1501.8823">getClientByEmail()</text><ellipse cx="677.25" cy="1516.0078" fill="#84BE84" rx="4.5" ry="4.5" style="stroke:#038048;stroke-width:1.5;"/><text fill="#000000" font-family="sans-serif" font-size="16.5" lengthAdjust="spacing" textLength="238.5" x="690.75" y="1522.6362">updateBirthDate(client, birthDate)</text><ellipse cx="677.25" cy="1536.7617" fill="#84BE84" rx="4.5" ry="4.5" style="stroke:#038048;stroke-width:1.5;"/><text fill="#000000" font-family="sans-serif" font-size="16.5" lengthAdjust="spacing" textLength="271.5" x="690.75" y="1543.3901">updateCitizenCard(client, citizenCard)</text><ellipse cx="677.25" cy="1557.5156" fill="#84BE84" rx="4.5" ry="4.5" style="stroke:#038048;stroke-width:1.5;"/><text fill="#000000" font-family="sans-serif" font-size="16.5" lengthAdjust="spacing" textLength="180" x="690.75" y="1564.144">updateEmail(client, email)</text><ellipse cx="677.25" cy="1578.2695" fill="#84BE84" rx="4.5" ry="4.5" style="stroke:#038048;stroke-width:1.5;"/><text fill="#000000" font-family="sans-serif" font-size="16.5" lengthAdjust="spacing" textLength="187.5" x="690.75" y="1584.8979">updateName(client, name)</text><ellipse cx="677.25" cy="1599.0234" fill="#84BE84" rx="4.5" ry="4.5" style="stroke:#038048;stroke-width:1.5;"/><text fill="#000000" font-family="sans-serif" font-size="16.5" lengthAdjust="spacing" textLength="238.5" x="690.75" y="1605.6519">updateNhsCode(client, nhsCode)</text><ellipse cx="677.25" cy="1619.7773" fill="#84BE84" rx="4.5" ry="4.5" style="stroke:#038048;stroke-width:1.5;"/><text fill="#000000" font-family="sans-serif" font-size="16.5" lengthAdjust="spacing" textLength="163.5" x="690.75" y="1626.4058">updateSex(client, sex)</text><ellipse cx="677.25" cy="1640.5313" fill="#84BE84" rx="4.5" ry="4.5" style="stroke:#038048;stroke-width:1.5;"/><text fill="#000000" font-family="sans-serif" font-size="16.5" lengthAdjust="spacing" textLength="145.5" x="690.75" y="1647.1597">updateTin(client, tin)</text><ellipse cx="677.25" cy="1661.2852" fill="#84BE84" rx="4.5" ry="4.5" style="stroke:#038048;stroke-width:1.5;"/><text fill="#000000" font-family="sans-serif" font-size="16.5" lengthAdjust="spacing" textLength="313.5" x="690.75" y="1667.9136">updatePhoneNumber (client, phoneNumber)</text><!--MD5=[ed6624c6556d5e7b1bd23032162d20b7]
class Client--><rect codeLine="66" fill="#FEFECE" filter="url(#f151pa0bxvg2j1)" height="404.0625" id="Client" style="stroke:#A80036;stroke-width:2.25;" width="348" x="663" y="1830"/><ellipse cx="806.625" cy="1854" fill="#ADD1B2" rx="16.5" ry="16.5" style="stroke:#A80036;stroke-width:1.5;"/><path d="M809.625,1848.75 Q809.9297,1848 810.2813,1847.625 Q810.6328,1847.25 811.0313,1847.25 Q811.7344,1847.25 812.1797,1847.6719 Q812.625,1848.0938 812.625,1849.0781 L812.625,1851.4219 Q812.625,1852.4063 812.2031,1852.8281 Q811.7813,1853.25 811.125,1853.25 Q810.5391,1853.25 810.1641,1852.9922 Q809.7891,1852.7344 809.625,1852.0547 Q809.5547,1851.5859 809.2969,1851.3281 Q808.8281,1850.8359 807.9844,1850.5547 Q807.1406,1850.25 806.2969,1850.25 Q805.2422,1850.25 804.3516,1850.6719 Q803.4844,1851.0938 802.8047,1852.0313 Q802.125,1852.9688 802.125,1854.2578 L802.125,1855.6406 Q802.125,1857.1875 803.3906,1858.2188 Q804.6563,1859.25 806.9063,1859.25 Q808.2422,1859.25 809.1797,1858.9453 Q809.7188,1858.7813 810.3281,1858.2422 Q810.7266,1857.9375 810.9375,1857.8438 Q811.1484,1857.75 811.4063,1857.75 Q811.8984,1857.75 812.25,1858.1484 Q812.625,1858.5234 812.625,1859.0625 Q812.625,1859.5781 812.1094,1860.1875 Q811.3594,1861.0781 810.1641,1861.5703 Q808.5938,1862.25 806.6719,1862.25 Q804.4219,1862.25 802.6172,1861.3594 Q801.1641,1860.6563 800.1328,1859.1328 Q799.125,1857.6094 799.125,1855.8047 L799.125,1854.1641 Q799.125,1852.2891 800.0156,1850.6484 Q800.9297,1849.0078 802.5,1848.1406 Q804.0938,1847.25 805.875,1847.25 Q806.9531,1847.25 807.8906,1847.625 Q808.8281,1848 809.625,1848.75 Z " fill="#000000"/><text fill="#000000" font-family="sans-serif" font-size="18" lengthAdjust="spacing" textLength="48" x="837.375" y="1861.3652">Client</text><line style="stroke:#A80036;stroke-width:2.25;" x1="664.5" x2="1009.5" y1="1878" y2="1878"/><rect fill="none" height="9" style="stroke:#C82930;stroke-width:1.5;" width="9" x="675" y="1890"/><text fill="#000000" font-family="sans-serif" font-size="16.5" lengthAdjust="spacing" textLength="136.5" x="693" y="1901.1284">citizenCardNumber</text><rect fill="none" height="9" style="stroke:#C82930;stroke-width:1.5;" width="9" x="675" y="1910.7539"/><text fill="#000000" font-family="sans-serif" font-size="16.5" lengthAdjust="spacing" textLength="64.5" x="693" y="1921.8823">nhsCode</text><rect fill="none" height="9" style="stroke:#C82930;stroke-width:1.5;" width="9" x="675" y="1931.5078"/><text fill="#000000" font-family="sans-serif" font-size="16.5" lengthAdjust="spacing" textLength="64.5" x="693" y="1942.6362">birthDate</text><rect fill="none" height="9" style="stroke:#C82930;stroke-width:1.5;" width="9" x="675" y="1952.2617"/><text fill="#000000" font-family="sans-serif" font-size="16.5" lengthAdjust="spacing" textLength="27" x="693" y="1963.3901">sex</text><rect fill="none" height="9" style="stroke:#C82930;stroke-width:1.5;" width="9" x="675" y="1973.0156"/><text fill="#000000" font-family="sans-serif" font-size="16.5" lengthAdjust="spacing" textLength="13.5" x="693" y="1984.144">tif</text><rect fill="none" height="9" style="stroke:#C82930;stroke-width:1.5;" width="9" x="675" y="1993.7695"/><text fill="#000000" font-family="sans-serif" font-size="16.5" lengthAdjust="spacing" textLength="100.5" x="693" y="2004.8979">phoneNumber</text><rect fill="none" height="9" style="stroke:#C82930;stroke-width:1.5;" width="9" x="675" y="2014.5234"/><text fill="#000000" font-family="sans-serif" font-size="16.5" lengthAdjust="spacing" textLength="42" x="693" y="2025.6519">e-mail</text><rect fill="none" height="9" style="stroke:#C82930;stroke-width:1.5;" width="9" x="675" y="2035.2773"/><text fill="#000000" font-family="sans-serif" font-size="16.5" lengthAdjust="spacing" textLength="39" x="693" y="2046.4058">name</text><line style="stroke:#A80036;stroke-width:2.25;" x1="664.5" x2="1009.5" y1="2056.0313" y2="2056.0313"/><ellipse cx="679.5" cy="2072.5313" fill="#84BE84" rx="4.5" ry="4.5" style="stroke:#038048;stroke-width:1.5;"/><text fill="#000000" font-family="sans-serif" font-size="16.5" lengthAdjust="spacing" textLength="114" x="693" y="2079.1597">setName(name)</text><ellipse cx="679.5" cy="2093.2852" fill="#84BE84" rx="4.5" ry="4.5" style="stroke:#038048;stroke-width:1.5;"/><text fill="#000000" font-family="sans-serif" font-size="16.5" lengthAdjust="spacing" textLength="309" x="693" y="2099.9136">setCitizenCardNumber(citizenCardNumber)</text><ellipse cx="679.5" cy="2114.0391" fill="#84BE84" rx="4.5" ry="4.5" style="stroke:#038048;stroke-width:1.5;"/><text fill="#000000" font-family="sans-serif" font-size="16.5" lengthAdjust="spacing" textLength="165" x="693" y="2120.6675">setNhsCode(nhsCode)</text><ellipse cx="679.5" cy="2134.793" fill="#84BE84" rx="4.5" ry="4.5" style="stroke:#038048;stroke-width:1.5;"/><text fill="#000000" font-family="sans-serif" font-size="16.5" lengthAdjust="spacing" textLength="201" x="693" y="2141.4214">setDateOfBirth(dateOfBirth)</text><ellipse cx="679.5" cy="2155.5469" fill="#84BE84" rx="4.5" ry="4.5" style="stroke:#038048;stroke-width:1.5;"/><text fill="#000000" font-family="sans-serif" font-size="16.5" lengthAdjust="spacing" textLength="106.5" x="693" y="2162.1753">setEmail(email)</text><ellipse cx="679.5" cy="2176.3008" fill="#84BE84" rx="4.5" ry="4.5" style="stroke:#038048;stroke-width:1.5;"/><text fill="#000000" font-family="sans-serif" font-size="16.5" lengthAdjust="spacing" textLength="235.5" x="693" y="2182.9292">setPhoneNumber(phoneNumber)</text><ellipse cx="679.5" cy="2197.0547" fill="#84BE84" rx="4.5" ry="4.5" style="stroke:#038048;stroke-width:1.5;"/><text fill="#000000" font-family="sans-serif" font-size="16.5" lengthAdjust="spacing" textLength="123" x="693" y="2203.6831">setDateOfTin(tin)</text><ellipse cx="679.5" cy="2217.8086" fill="#84BE84" rx="4.5" ry="4.5" style="stroke:#038048;stroke-width:1.5;"/><text fill="#000000" font-family="sans-serif" font-size="16.5" lengthAdjust="spacing" textLength="90" x="693" y="2224.437">setSex(sex)</text><!--MD5=[d9af5e34e5bc78cd5a2caff02363fedd]
class ClientMapper--><rect codeLine="86" fill="#FEFECE" filter="url(#f151pa0bxvg2j1)" height="92.7539" id="ClientMapper" style="stroke:#A80036;stroke-width:2.25;" width="157.5" x="281.25" y="1124.25"/><ellipse cx="303.75" cy="1148.25" fill="#ADD1B2" rx="16.5" ry="16.5" style="stroke:#A80036;stroke-width:1.5;"/><path d="M306.75,1143 Q307.0547,1142.25 307.4063,1141.875 Q307.7578,1141.5 308.1563,1141.5 Q308.8594,1141.5 309.3047,1141.9219 Q309.75,1142.3438 309.75,1143.3281 L309.75,1145.6719 Q309.75,1146.6563 309.3281,1147.0781 Q308.9063,1147.5 308.25,1147.5 Q307.6641,1147.5 307.2891,1147.2422 Q306.9141,1146.9844 306.75,1146.3047 Q306.6797,1145.8359 306.4219,1145.5781 Q305.9531,1145.0859 305.1094,1144.8047 Q304.2656,1144.5 303.4219,1144.5 Q302.3672,1144.5 301.4766,1144.9219 Q300.6094,1145.3438 299.9297,1146.2813 Q299.25,1147.2188 299.25,1148.5078 L299.25,1149.8906 Q299.25,1151.4375 300.5156,1152.4688 Q301.7813,1153.5 304.0313,1153.5 Q305.3672,1153.5 306.3047,1153.1953 Q306.8438,1153.0313 307.4531,1152.4922 Q307.8516,1152.1875 308.0625,1152.0938 Q308.2734,1152 308.5313,1152 Q309.0234,1152 309.375,1152.3984 Q309.75,1152.7734 309.75,1153.3125 Q309.75,1153.8281 309.2344,1154.4375 Q308.4844,1155.3281 307.2891,1155.8203 Q305.7188,1156.5 303.7969,1156.5 Q301.5469,1156.5 299.7422,1155.6094 Q298.2891,1154.9063 297.2578,1153.3828 Q296.25,1151.8594 296.25,1150.0547 L296.25,1148.4141 Q296.25,1146.5391 297.1406,1144.8984 Q298.0547,1143.2578 299.625,1142.3906 Q301.2188,1141.5 303,1141.5 Q304.0781,1141.5 305.0156,1141.875 Q305.9531,1142.25 306.75,1143 Z " fill="#000000"/><text fill="#000000" font-family="sans-serif" font-size="18" lengthAdjust="spacing" textLength="109.5" x="324.75" y="1155.6152">ClientMapper</text><line style="stroke:#A80036;stroke-width:2.25;" x1="282.75" x2="437.25" y1="1172.25" y2="1172.25"/><line style="stroke:#A80036;stroke-width:2.25;" x1="282.75" x2="437.25" y1="1184.25" y2="1184.25"/><ellipse cx="297.75" cy="1200.75" fill="#84BE84" rx="4.5" ry="4.5" style="stroke:#038048;stroke-width:1.5;"/><text fill="#000000" font-family="sans-serif" font-size="16.5" lengthAdjust="spacing" textLength="87" x="311.25" y="1207.3784">toDto(client)</text><!--MD5=[687b2867e958f9e5343032874922dbed]
class ClientDto--><rect codeLine="90" fill="#FEFECE" filter="url(#f151pa0bxvg2j1)" height="404.0625" id="ClientDto" style="stroke:#A80036;stroke-width:2.25;" width="348" x="120" y="496.5"/><ellipse cx="249.375" cy="520.5" fill="#ADD1B2" rx="16.5" ry="16.5" style="stroke:#A80036;stroke-width:1.5;"/><path d="M252.375,515.25 Q252.6797,514.5 253.0313,514.125 Q253.3828,513.75 253.7813,513.75 Q254.4844,513.75 254.9297,514.1719 Q255.375,514.5938 255.375,515.5781 L255.375,517.9219 Q255.375,518.9063 254.9531,519.3281 Q254.5313,519.75 253.875,519.75 Q253.2891,519.75 252.9141,519.4922 Q252.5391,519.2344 252.375,518.5547 Q252.3047,518.0859 252.0469,517.8281 Q251.5781,517.3359 250.7344,517.0547 Q249.8906,516.75 249.0469,516.75 Q247.9922,516.75 247.1016,517.1719 Q246.2344,517.5938 245.5547,518.5313 Q244.875,519.4688 244.875,520.7578 L244.875,522.1406 Q244.875,523.6875 246.1406,524.7188 Q247.4063,525.75 249.6563,525.75 Q250.9922,525.75 251.9297,525.4453 Q252.4688,525.2813 253.0781,524.7422 Q253.4766,524.4375 253.6875,524.3438 Q253.8984,524.25 254.1563,524.25 Q254.6484,524.25 255,524.6484 Q255.375,525.0234 255.375,525.5625 Q255.375,526.0781 254.8594,526.6875 Q254.1094,527.5781 252.9141,528.0703 Q251.3438,528.75 249.4219,528.75 Q247.1719,528.75 245.3672,527.8594 Q243.9141,527.1563 242.8828,525.6328 Q241.875,524.1094 241.875,522.3047 L241.875,520.6641 Q241.875,518.7891 242.7656,517.1484 Q243.6797,515.5078 245.25,514.6406 Q246.8438,513.75 248.625,513.75 Q249.7031,513.75 250.6406,514.125 Q251.5781,514.5 252.375,515.25 Z " fill="#000000"/><text fill="#000000" font-family="sans-serif" font-size="18" lengthAdjust="spacing" textLength="76.5" x="280.125" y="527.8652">ClientDto</text><line style="stroke:#A80036;stroke-width:2.25;" x1="121.5" x2="466.5" y1="544.5" y2="544.5"/><rect fill="none" height="9" style="stroke:#C82930;stroke-width:1.5;" width="9" x="132" y="556.5"/><text fill="#000000" font-family="sans-serif" font-size="16.5" lengthAdjust="spacing" textLength="136.5" x="150" y="567.6284">citizenCardNumber</text><rect fill="none" height="9" style="stroke:#C82930;stroke-width:1.5;" width="9" x="132" y="577.2539"/><text fill="#000000" font-family="sans-serif" font-size="16.5" lengthAdjust="spacing" textLength="64.5" x="150" y="588.3823">nhsCode</text><rect fill="none" height="9" style="stroke:#C82930;stroke-width:1.5;" width="9" x="132" y="598.0078"/><text fill="#000000" font-family="sans-serif" font-size="16.5" lengthAdjust="spacing" textLength="64.5" x="150" y="609.1362">birthDate</text><rect fill="none" height="9" style="stroke:#C82930;stroke-width:1.5;" width="9" x="132" y="618.7617"/><text fill="#000000" font-family="sans-serif" font-size="16.5" lengthAdjust="spacing" textLength="27" x="150" y="629.8901">sex</text><rect fill="none" height="9" style="stroke:#C82930;stroke-width:1.5;" width="9" x="132" y="639.5156"/><text fill="#000000" font-family="sans-serif" font-size="16.5" lengthAdjust="spacing" textLength="13.5" x="150" y="650.644">tif</text><rect fill="none" height="9" style="stroke:#C82930;stroke-width:1.5;" width="9" x="132" y="660.2695"/><text fill="#000000" font-family="sans-serif" font-size="16.5" lengthAdjust="spacing" textLength="100.5" x="150" y="671.3979">phoneNumber</text><rect fill="none" height="9" style="stroke:#C82930;stroke-width:1.5;" width="9" x="132" y="681.0234"/><text fill="#000000" font-family="sans-serif" font-size="16.5" lengthAdjust="spacing" textLength="42" x="150" y="692.1519">e-mail</text><rect fill="none" height="9" style="stroke:#C82930;stroke-width:1.5;" width="9" x="132" y="701.7773"/><text fill="#000000" font-family="sans-serif" font-size="16.5" lengthAdjust="spacing" textLength="39" x="150" y="712.9058">name</text><line style="stroke:#A80036;stroke-width:2.25;" x1="121.5" x2="466.5" y1="722.5313" y2="722.5313"/><ellipse cx="136.5" cy="739.0313" fill="#84BE84" rx="4.5" ry="4.5" style="stroke:#038048;stroke-width:1.5;"/><text fill="#000000" font-family="sans-serif" font-size="16.5" lengthAdjust="spacing" textLength="114" x="150" y="745.6597">getName(name)</text><ellipse cx="136.5" cy="759.7852" fill="#84BE84" rx="4.5" ry="4.5" style="stroke:#038048;stroke-width:1.5;"/><text fill="#000000" font-family="sans-serif" font-size="16.5" lengthAdjust="spacing" textLength="309" x="150" y="766.4136">getCitizenCardNumber(citizenCardNumber)</text><ellipse cx="136.5" cy="780.5391" fill="#84BE84" rx="4.5" ry="4.5" style="stroke:#038048;stroke-width:1.5;"/><text fill="#000000" font-family="sans-serif" font-size="16.5" lengthAdjust="spacing" textLength="165" x="150" y="787.1675">getNhsCode(nhsCode)</text><ellipse cx="136.5" cy="801.293" fill="#84BE84" rx="4.5" ry="4.5" style="stroke:#038048;stroke-width:1.5;"/><text fill="#000000" font-family="sans-serif" font-size="16.5" lengthAdjust="spacing" textLength="201" x="150" y="807.9214">getDateOfBirth(dateOfBirth)</text><ellipse cx="136.5" cy="822.0469" fill="#84BE84" rx="4.5" ry="4.5" style="stroke:#038048;stroke-width:1.5;"/><text fill="#000000" font-family="sans-serif" font-size="16.5" lengthAdjust="spacing" textLength="106.5" x="150" y="828.6753">getEmail(email)</text><ellipse cx="136.5" cy="842.8008" fill="#84BE84" rx="4.5" ry="4.5" style="stroke:#038048;stroke-width:1.5;"/><text fill="#000000" font-family="sans-serif" font-size="16.5" lengthAdjust="spacing" textLength="235.5" x="150" y="849.4292">getPhoneNumber(phoneNumber)</text><ellipse cx="136.5" cy="863.5547" fill="#84BE84" rx="4.5" ry="4.5" style="stroke:#038048;stroke-width:1.5;"/><text fill="#000000" font-family="sans-serif" font-size="16.5" lengthAdjust="spacing" textLength="123" x="150" y="870.1831">getDateOfTin(tin)</text><ellipse cx="136.5" cy="884.3086" fill="#84BE84" rx="4.5" ry="4.5" style="stroke:#038048;stroke-width:1.5;"/><text fill="#000000" font-family="sans-serif" font-size="16.5" lengthAdjust="spacing" textLength="90" x="150" y="890.937">getSex(sex)</text><!--MD5=[8ae808d068a8995f06b9b3ec51357f0b]
class AuthFacade--><rect codeLine="45" fill="#FEFECE" filter="url(#f151pa0bxvg2j1)" height="92.7539" id="AuthFacade" style="stroke:#A80036;stroke-width:2.25;" width="220.5" x="1206.75" y="1124.25"/><ellipse cx="1263" cy="1148.25" fill="#ADD1B2" rx="16.5" ry="16.5" style="stroke:#A80036;stroke-width:1.5;"/><path d="M1266,1143 Q1266.3047,1142.25 1266.6563,1141.875 Q1267.0078,1141.5 1267.4063,1141.5 Q1268.1094,1141.5 1268.5547,1141.9219 Q1269,1142.3438 1269,1143.3281 L1269,1145.6719 Q1269,1146.6563 1268.5781,1147.0781 Q1268.1563,1147.5 1267.5,1147.5 Q1266.9141,1147.5 1266.5391,1147.2422 Q1266.1641,1146.9844 1266,1146.3047 Q1265.9297,1145.8359 1265.6719,1145.5781 Q1265.2031,1145.0859 1264.3594,1144.8047 Q1263.5156,1144.5 1262.6719,1144.5 Q1261.6172,1144.5 1260.7266,1144.9219 Q1259.8594,1145.3438 1259.1797,1146.2813 Q1258.5,1147.2188 1258.5,1148.5078 L1258.5,1149.8906 Q1258.5,1151.4375 1259.7656,1152.4688 Q1261.0313,1153.5 1263.2813,1153.5 Q1264.6172,1153.5 1265.5547,1153.1953 Q1266.0938,1153.0313 1266.7031,1152.4922 Q1267.1016,1152.1875 1267.3125,1152.0938 Q1267.5234,1152 1267.7813,1152 Q1268.2734,1152 1268.625,1152.3984 Q1269,1152.7734 1269,1153.3125 Q1269,1153.8281 1268.4844,1154.4375 Q1267.7344,1155.3281 1266.5391,1155.8203 Q1264.9688,1156.5 1263.0469,1156.5 Q1260.7969,1156.5 1258.9922,1155.6094 Q1257.5391,1154.9063 1256.5078,1153.3828 Q1255.5,1151.8594 1255.5,1150.0547 L1255.5,1148.4141 Q1255.5,1146.5391 1256.3906,1144.8984 Q1257.3047,1143.2578 1258.875,1142.3906 Q1260.4688,1141.5 1262.25,1141.5 Q1263.3281,1141.5 1264.2656,1141.875 Q1265.2031,1142.25 1266,1143 Z " fill="#000000"/><text fill="#000000" font-family="sans-serif" font-size="18" lengthAdjust="spacing" textLength="97.5" x="1291.5" y="1155.6152">AuthFacade</text><line style="stroke:#A80036;stroke-width:2.25;" x1="1208.25" x2="1425.75" y1="1172.25" y2="1172.25"/><line style="stroke:#A80036;stroke-width:2.25;" x1="1208.25" x2="1425.75" y1="1184.25" y2="1184.25"/><ellipse cx="1223.25" cy="1200.75" fill="#84BE84" rx="4.5" ry="4.5" style="stroke:#038048;stroke-width:1.5;"/><text fill="#000000" font-family="sans-serif" font-size="16.5" lengthAdjust="spacing" textLength="181.5" x="1236.75" y="1207.3784">getCurrentUserSession()</text><!--MD5=[c5b08e60048ef1bcd788d24cf324082e]
class UserSession--><rect codeLine="49" fill="#FEFECE" filter="url(#f151pa0bxvg2j1)" height="92.7539" id="UserSession" style="stroke:#A80036;stroke-width:2.25;" width="157.5" x="1479.75" y="1124.25"/><ellipse cx="1502.25" cy="1148.25" fill="#ADD1B2" rx="16.5" ry="16.5" style="stroke:#A80036;stroke-width:1.5;"/><path d="M1505.25,1143 Q1505.5547,1142.25 1505.9063,1141.875 Q1506.2578,1141.5 1506.6563,1141.5 Q1507.3594,1141.5 1507.8047,1141.9219 Q1508.25,1142.3438 1508.25,1143.3281 L1508.25,1145.6719 Q1508.25,1146.6563 1507.8281,1147.0781 Q1507.4063,1147.5 1506.75,1147.5 Q1506.1641,1147.5 1505.7891,1147.2422 Q1505.4141,1146.9844 1505.25,1146.3047 Q1505.1797,1145.8359 1504.9219,1145.5781 Q1504.4531,1145.0859 1503.6094,1144.8047 Q1502.7656,1144.5 1501.9219,1144.5 Q1500.8672,1144.5 1499.9766,1144.9219 Q1499.1094,1145.3438 1498.4297,1146.2813 Q1497.75,1147.2188 1497.75,1148.5078 L1497.75,1149.8906 Q1497.75,1151.4375 1499.0156,1152.4688 Q1500.2813,1153.5 1502.5313,1153.5 Q1503.8672,1153.5 1504.8047,1153.1953 Q1505.3438,1153.0313 1505.9531,1152.4922 Q1506.3516,1152.1875 1506.5625,1152.0938 Q1506.7734,1152 1507.0313,1152 Q1507.5234,1152 1507.875,1152.3984 Q1508.25,1152.7734 1508.25,1153.3125 Q1508.25,1153.8281 1507.7344,1154.4375 Q1506.9844,1155.3281 1505.7891,1155.8203 Q1504.2188,1156.5 1502.2969,1156.5 Q1500.0469,1156.5 1498.2422,1155.6094 Q1496.7891,1154.9063 1495.7578,1153.3828 Q1494.75,1151.8594 1494.75,1150.0547 L1494.75,1148.4141 Q1494.75,1146.5391 1495.6406,1144.8984 Q1496.5547,1143.2578 1498.125,1142.3906 Q1499.7188,1141.5 1501.5,1141.5 Q1502.5781,1141.5 1503.5156,1141.875 Q1504.4531,1142.25 1505.25,1143 Z " fill="#000000"/><text fill="#000000" font-family="sans-serif" font-size="18" lengthAdjust="spacing" textLength="109.5" x="1523.25" y="1155.6152">UserSession</text><line style="stroke:#A80036;stroke-width:2.25;" x1="1481.25" x2="1635.75" y1="1172.25" y2="1172.25"/><line style="stroke:#A80036;stroke-width:2.25;" x1="1481.25" x2="1635.75" y1="1184.25" y2="1184.25"/><ellipse cx="1496.25" cy="1200.75" fill="#84BE84" rx="4.5" ry="4.5" style="stroke:#038048;stroke-width:1.5;"/><text fill="#000000" font-family="sans-serif" font-size="16.5" lengthAdjust="spacing" textLength="70.5" x="1509.75" y="1207.3784">getEmail()</text><!--MD5=[a908d3e5d6f768131978c6f37277c7c7]
link UpdateDataUI to UpdateDataController--><path codeLine="124" d="M789,267.015 C789,328.245 789,458.985 789,560.28 " fill="none" id="UpdateDataUI-to-UpdateDataController" style="stroke:#A80036;stroke-width:1.5;stroke-dasharray:7.0,7.0;"/><polygon fill="#A80036" points="789,568.125,795,554.625,789,560.625,783,554.625,789,568.125" style="stroke:#A80036;stroke-width:1.5;"/><!--MD5=[07d19df788f2334fc50c33ea40de1765]
link UpdateDataController to ClientMapper--><path codeLine="125" d="M671.775,828.045 C584.43,923.64 469.77,1049.115 406.68,1118.175 " fill="none" id="UpdateDataController-to-ClientMapper" style="stroke:#A80036;stroke-width:1.5;stroke-dasharray:7.0,7.0;"/><polygon fill="#A80036" points="401.475,1123.86,415.014,1117.9485,406.5371,1118.326,406.1596,1109.8491,401.475,1123.86" style="stroke:#A80036;stroke-width:1.5;"/><!--MD5=[bb7262cecaada1754a4086a293e36bf2]
link ClientDto to ClientMapper--><path codeLine="126" d="M322.185,900.225 C333.3,979.32 345.165,1063.74 352.575,1116.48 " fill="none" id="ClientDto-to-ClientMapper" style="stroke:#A80036;stroke-width:1.5;stroke-dasharray:7.0,7.0;"/><polygon fill="#A80036" points="353.64,1124.025,357.7336,1109.8302,352.6123,1116.5957,345.8468,1111.4745,353.64,1124.025" style="stroke:#A80036;stroke-width:1.5;"/><!--MD5=[20c513207abcd36a4add6704b85d0584]
link UpdateDataController to Company--><path codeLine="127" d="M802.11,828.045 C810.495,910.035 821.13,1014.015 828.435,1085.52 " fill="none" id="UpdateDataController-to-Company" style="stroke:#A80036;stroke-width:1.5;stroke-dasharray:7.0,7.0;"/><polygon fill="#A80036" points="829.23,1093.2,833.8489,1079.1673,828.4795,1085.7376,821.9092,1080.3682,829.23,1093.2" style="stroke:#A80036;stroke-width:1.5;"/><!--MD5=[a11230341c8e65219708844feaa40162]
link Company to ClientStore--><path codeLine="128" d="M837,1248.06 C837,1289.175 837,1341.39 837,1390.035 " fill="none" id="Company-to-ClientStore" style="stroke:#A80036;stroke-width:1.5;"/><polygon fill="#A80036" points="837,1397.82,843,1384.32,837,1390.32,831,1384.32,837,1397.82" style="stroke:#A80036;stroke-width:1.5;"/><text fill="#000000" font-family="sans-serif" font-size="19.5" lengthAdjust="spacing" textLength="42" x="838.5" y="1314.7427">uses</text><text fill="#000000" font-family="sans-serif" font-size="19.5" lengthAdjust="spacing" textLength="10.5" x="825.7617" y="1280.8627">1</text><text fill="#000000" font-family="sans-serif" font-size="19.5" lengthAdjust="spacing" textLength="10.5" x="826.0652" y="1381.5012">1</text><!--MD5=[1d934105a045dbf126514c6917bd5072]
link ClientStore to Client--><path codeLine="129" d="M837,1677.15 C837,1722.135 837,1773.105 837,1822.065 " fill="none" id="ClientStore-to-Client" style="stroke:#A80036;stroke-width:1.5;"/><polygon fill="#A80036" points="837,1829.895,843,1816.395,837,1822.395,831,1816.395,837,1829.895" style="stroke:#A80036;stroke-width:1.5;"/><text fill="#000000" font-family="sans-serif" font-size="19.5" lengthAdjust="spacing" textLength="55.5" x="838.5" y="1746.7427">knows</text><text fill="#000000" font-family="sans-serif" font-size="19.5" lengthAdjust="spacing" textLength="10.5" x="826.0652" y="1709.9507">1</text><text fill="#000000" font-family="sans-serif" font-size="19.5" lengthAdjust="spacing" textLength="7.5" x="829.2832" y="1813.7732">*</text><!--MD5=[717d4b03d3c4372f4eafe5e342a0a7dd]
link Company to AuthFacade--><path codeLine="130" d="M918.09,1170.75 C1011.555,1170.75 1105.02,1170.75 1198.485,1170.75 " fill="none" id="Company-to-AuthFacade" style="stroke:#A80036;stroke-width:1.5;stroke-dasharray:7.0,7.0;"/><polygon fill="#A80036" points="1206.36,1170.75,1192.86,1164.75,1198.86,1170.75,1192.86,1176.75,1206.36,1170.75" style="stroke:#A80036;stroke-width:1.5;"/><!--MD5=[434feadd2b6df9bf2f29d4ac96be7aa9]
link AuthFacade to UserSession--><path codeLine="131" d="M1427.37,1170.75 C1442.205,1170.75 1457.04,1170.75 1471.86,1170.75 " fill="none" id="AuthFacade-to-UserSession" style="stroke:#A80036;stroke-width:1.5;stroke-dasharray:7.0,7.0;"/><polygon fill="#A80036" points="1479.615,1170.75,1466.115,1164.75,1472.115,1170.75,1466.115,1176.75,1479.615,1170.75" style="stroke:#A80036;stroke-width:1.5;"/><!--MD5=[b3149b8d2c14cf6c139272f0ca2f0b97]
@startuml
'https://plantuml.com/class-diagram
package app {
package ui {
package gui {
class UpdateDataUI
}
}
package controller {
class UpdateDataController
}

package domain {
package model {
package store {
class ClientStore
}
package users {
class Client
}
class Company
}

}
package mappers {
class ClientMapper
package dto {
class ClientDto
}
}
}


package auth {
class AuthFacade
class UserSession
}

class Company {
-authFacade
-clientStore
+getAuthFacade()
+getClientStore()
}

class AuthFacade {
+getCurrentUserSession()
}

class UserSession {
+getEmail()
}

class ClientStore {
-clientExists(client)
+getClientByEmail()
+updateBirthDate(client, birthDate)
+updateCitizenCard(client, citizenCard)
+updateEmail(client, email)
+updateName(client, name)
+updateNhsCode(client, nhsCode)
+updateSex(client, sex)
+updateTin(client, tin)
+updatePhoneNumber (client, phoneNumber)
}

class Client {
-citizenCardNumber
-nhsCode
-birthDate
-sex
-tif
-phoneNumber
-e-mail
-name

+setName(name)
+setCitizenCardNumber(citizenCardNumber)
+setNhsCode(nhsCode)
+setDateOfBirth(dateOfBirth)
+setEmail(email)
+setPhoneNumber(phoneNumber)
+setDateOfTin(tin)
+setSex(sex)
}

class ClientMapper {
+toDto(client)
}

class ClientDto {
-citizenCardNumber
-nhsCode
-birthDate
-sex
-tif
-phoneNumber
-e-mail
-name

+getName(name)
+getCitizenCardNumber(citizenCardNumber)
+getNhsCode(nhsCode)
+getDateOfBirth(dateOfBirth)
+getEmail(email)
+getPhoneNumber(phoneNumber)
+getDateOfTin(tin)
+getSex(sex)

}

class UpdateDataController {
+getUserSession()
+updateBirthDate(birthDate)
+updateCitizenCard(citizenCard)
+updateEmail(email)
+updateName(name)
+updateNhsCode(nhsCode)
+updateSex(sex)
+updateTin(tin)
+updatePhoneNumber (phoneNumber)

}

UpdateDataUI..>UpdateDataController
UpdateDataController..>ClientMapper
ClientDto..>ClientMapper
UpdateDataController..>Company
Company"1"- ->"1"ClientStore : uses
ClientStore"1"- ->"*"Client : knows
Company .> AuthFacade
AuthFacade.>UserSession

@enduml

@startuml
package app {
package ui {
package gui {
class UpdateDataUI
}
}
package controller {
class UpdateDataController
}

package domain {
package model {
package store {
class ClientStore
}
package users {
class Client
}
class Company
}

}
package mappers {
class ClientMapper
package dto {
class ClientDto
}
}
}


package auth {
class AuthFacade
class UserSession
}

class Company {
-authFacade
-clientStore
+getAuthFacade()
+getClientStore()
}

class AuthFacade {
+getCurrentUserSession()
}

class UserSession {
+getEmail()
}

class ClientStore {
-clientExists(client)
+getClientByEmail()
+updateBirthDate(client, birthDate)
+updateCitizenCard(client, citizenCard)
+updateEmail(client, email)
+updateName(client, name)
+updateNhsCode(client, nhsCode)
+updateSex(client, sex)
+updateTin(client, tin)
+updatePhoneNumber (client, phoneNumber)
}

class Client {
-citizenCardNumber
-nhsCode
-birthDate
-sex
-tif
-phoneNumber
-e-mail
-name

+setName(name)
+setCitizenCardNumber(citizenCardNumber)
+setNhsCode(nhsCode)
+setDateOfBirth(dateOfBirth)
+setEmail(email)
+setPhoneNumber(phoneNumber)
+setDateOfTin(tin)
+setSex(sex)
}

class ClientMapper {
+toDto(client)
}

class ClientDto {
-citizenCardNumber
-nhsCode
-birthDate
-sex
-tif
-phoneNumber
-e-mail
-name

+getName(name)
+getCitizenCardNumber(citizenCardNumber)
+getNhsCode(nhsCode)
+getDateOfBirth(dateOfBirth)
+getEmail(email)
+getPhoneNumber(phoneNumber)
+getDateOfTin(tin)
+getSex(sex)

}

class UpdateDataController {
+getUserSession()
+updateBirthDate(birthDate)
+updateCitizenCard(citizenCard)
+updateEmail(email)
+updateName(name)
+updateNhsCode(nhsCode)
+updateSex(sex)
+updateTin(tin)
+updatePhoneNumber (phoneNumber)

}

UpdateDataUI..>UpdateDataController
UpdateDataController..>ClientMapper
ClientDto..>ClientMapper
UpdateDataController..>Company
Company"1"- ->"1"ClientStore : uses
ClientStore"1"- ->"*"Client : knows
Company .> AuthFacade
AuthFacade.>UserSession

@enduml

PlantUML version 1.2021.7(Sun May 23 13:40:07 BST 2021)
(GPL source distribution)
Java Runtime: OpenJDK Runtime Environment
JVM: Dynamic Code Evolution 64-Bit Server VM
Default Encoding: Cp1252
Language: pt
Country: PT
--></g></svg>