<?xml version="1.0" encoding="UTF-8" standalone="no"?><svg xmlns="http://www.w3.org/2000/svg" xmlns:xlink="http://www.w3.org/1999/xlink" contentScriptType="application/ecmascript" contentStyleType="text/css" height="673.5px" preserveAspectRatio="none" style="width:658px;height:673px;" version="1.1" viewBox="0 0 658 673" width="658.5px" zoomAndPan="magnify"><defs><filter height="300%" id="f1parvarzo9hvg" width="300%" x="-1" y="-1"><feGaussianBlur result="blurOut" stdDeviation="3.0"/><feColorMatrix in="blurOut" result="blurOut2" type="matrix" values="0 0 0 0 0 0 0 0 0 0 0 0 0 0 0 0 0 0 .4 0"/><feOffset dx="6.0" dy="6.0" in="blurOut2" result="blurOut3"/><feBlend in="SourceGraphic" in2="blurOut3" mode="normal"/></filter></defs><g><!--MD5=[02e4b9b7573f1156f41e60aa5b4e25a4]
class Company--><rect codeLine="5" fill="#FEFECE" filter="url(#f1parvarzo9hvg)" height="80.7539" id="Company" style="stroke:#A80036;stroke-width:2.25;" width="127.5" x="117" y="10.5"/><ellipse cx="139.5" cy="34.5" fill="#ADD1B2" rx="16.5" ry="16.5" style="stroke:#A80036;stroke-width:1.5;"/><path d="M142.5,29.25 Q142.8047,28.5 143.1563,28.125 Q143.5078,27.75 143.9063,27.75 Q144.6094,27.75 145.0547,28.1719 Q145.5,28.5938 145.5,29.5781 L145.5,31.9219 Q145.5,32.9063 145.0781,33.3281 Q144.6563,33.75 144,33.75 Q143.4141,33.75 143.0391,33.4922 Q142.6641,33.2344 142.5,32.5547 Q142.4297,32.0859 142.1719,31.8281 Q141.7031,31.3359 140.8594,31.0547 Q140.0156,30.75 139.1719,30.75 Q138.1172,30.75 137.2266,31.1719 Q136.3594,31.5938 135.6797,32.5313 Q135,33.4688 135,34.7578 L135,36.1406 Q135,37.6875 136.2656,38.7188 Q137.5313,39.75 139.7813,39.75 Q141.1172,39.75 142.0547,39.4453 Q142.5938,39.2813 143.2031,38.7422 Q143.6016,38.4375 143.8125,38.3438 Q144.0234,38.25 144.2813,38.25 Q144.7734,38.25 145.125,38.6484 Q145.5,39.0234 145.5,39.5625 Q145.5,40.0781 144.9844,40.6875 Q144.2344,41.5781 143.0391,42.0703 Q141.4688,42.75 139.5469,42.75 Q137.2969,42.75 135.4922,41.8594 Q134.0391,41.1563 133.0078,39.6328 Q132,38.1094 132,36.3047 L132,34.6641 Q132,32.7891 132.8906,31.1484 Q133.8047,29.5078 135.375,28.6406 Q136.9688,27.75 138.75,27.75 Q139.8281,27.75 140.7656,28.125 Q141.7031,28.5 142.5,29.25 Z " fill="#000000"/><text fill="#000000" font-family="sans-serif" font-size="18" lengthAdjust="spacing" textLength="79.5" x="160.5" y="41.8652">Company</text><line style="stroke:#A80036;stroke-width:2.25;" x1="118.5" x2="243" y1="58.5" y2="58.5"/><text fill="#000000" font-family="sans-serif" font-size="16.5" lengthAdjust="spacing" textLength="45" x="126" y="81.6284">-name</text><!--MD5=[da547346deef918ea16944ba046651ef]
class Administrator--><rect codeLine="10" fill="#FEFECE" filter="url(#f1parvarzo9hvg)" height="205.2773" id="Administrator" style="stroke:#A80036;stroke-width:2.25;" width="157.5" x="10.5" y="208.5"/><ellipse cx="33" cy="232.5" fill="#ADD1B2" rx="16.5" ry="16.5" style="stroke:#A80036;stroke-width:1.5;"/><path d="M36,227.25 Q36.3047,226.5 36.6563,226.125 Q37.0078,225.75 37.4063,225.75 Q38.1094,225.75 38.5547,226.1719 Q39,226.5938 39,227.5781 L39,229.9219 Q39,230.9063 38.5781,231.3281 Q38.1563,231.75 37.5,231.75 Q36.9141,231.75 36.5391,231.4922 Q36.1641,231.2344 36,230.5547 Q35.9297,230.0859 35.6719,229.8281 Q35.2031,229.3359 34.3594,229.0547 Q33.5156,228.75 32.6719,228.75 Q31.6172,228.75 30.7266,229.1719 Q29.8594,229.5938 29.1797,230.5313 Q28.5,231.4688 28.5,232.7578 L28.5,234.1406 Q28.5,235.6875 29.7656,236.7188 Q31.0313,237.75 33.2813,237.75 Q34.6172,237.75 35.5547,237.4453 Q36.0938,237.2813 36.7031,236.7422 Q37.1016,236.4375 37.3125,236.3438 Q37.5234,236.25 37.7813,236.25 Q38.2734,236.25 38.625,236.6484 Q39,237.0234 39,237.5625 Q39,238.0781 38.4844,238.6875 Q37.7344,239.5781 36.5391,240.0703 Q34.9688,240.75 33.0469,240.75 Q30.7969,240.75 28.9922,239.8594 Q27.5391,239.1563 26.5078,237.6328 Q25.5,236.1094 25.5,234.3047 L25.5,232.6641 Q25.5,230.7891 26.3906,229.1484 Q27.3047,227.5078 28.875,226.6406 Q30.4688,225.75 32.25,225.75 Q33.3281,225.75 34.2656,226.125 Q35.2031,226.5 36,227.25 Z " fill="#000000"/><text fill="#000000" font-family="sans-serif" font-size="18" lengthAdjust="spacing" textLength="109.5" x="54" y="239.8652">Administrator</text><line style="stroke:#A80036;stroke-width:2.25;" x1="12" x2="166.5" y1="256.5" y2="256.5"/><text fill="#000000" font-family="sans-serif" font-size="16.5" lengthAdjust="spacing" textLength="45" x="19.5" y="279.6284">-name</text><text fill="#000000" font-family="sans-serif" font-size="16.5" lengthAdjust="spacing" textLength="66" x="19.5" y="300.3823">-address</text><text fill="#000000" font-family="sans-serif" font-size="16.5" lengthAdjust="spacing" textLength="106.5" x="19.5" y="321.1362">-phoneNumber</text><text fill="#000000" font-family="sans-serif" font-size="16.5" lengthAdjust="spacing" textLength="42" x="19.5" y="341.8901">-email</text><text fill="#000000" font-family="sans-serif" font-size="16.5" lengthAdjust="spacing" textLength="87" x="19.5" y="362.644">-employeeId</text><text fill="#000000" font-family="sans-serif" font-size="16.5" lengthAdjust="spacing" textLength="126" x="19.5" y="383.3979">-organizationRole</text><text fill="#000000" font-family="sans-serif" font-size="16.5" lengthAdjust="spacing" textLength="70.5" x="19.5" y="404.1519">-socCode</text><!--MD5=[aeb3272166074d8737a70b61b1e71682]
class TestType--><rect codeLine="20" fill="#FEFECE" filter="url(#f1parvarzo9hvg)" height="122.2617" id="TestType" style="stroke:#A80036;stroke-width:2.25;" width="144" x="201.75" y="531"/><ellipse cx="233.7" cy="555" fill="#ADD1B2" rx="16.5" ry="16.5" style="stroke:#A80036;stroke-width:1.5;"/><path d="M236.7,549.75 Q237.0047,549 237.3563,548.625 Q237.7078,548.25 238.1063,548.25 Q238.8094,548.25 239.2547,548.6719 Q239.7,549.0938 239.7,550.0781 L239.7,552.4219 Q239.7,553.4063 239.2781,553.8281 Q238.8563,554.25 238.2,554.25 Q237.6141,554.25 237.2391,553.9922 Q236.8641,553.7344 236.7,553.0547 Q236.6297,552.5859 236.3719,552.3281 Q235.9031,551.8359 235.0594,551.5547 Q234.2156,551.25 233.3719,551.25 Q232.3172,551.25 231.4266,551.6719 Q230.5594,552.0938 229.8797,553.0313 Q229.2,553.9688 229.2,555.2578 L229.2,556.6406 Q229.2,558.1875 230.4656,559.2188 Q231.7313,560.25 233.9813,560.25 Q235.3172,560.25 236.2547,559.9453 Q236.7938,559.7813 237.4031,559.2422 Q237.8016,558.9375 238.0125,558.8438 Q238.2234,558.75 238.4813,558.75 Q238.9734,558.75 239.325,559.1484 Q239.7,559.5234 239.7,560.0625 Q239.7,560.5781 239.1844,561.1875 Q238.4344,562.0781 237.2391,562.5703 Q235.6688,563.25 233.7469,563.25 Q231.4969,563.25 229.6922,562.3594 Q228.2391,561.6563 227.2078,560.1328 Q226.2,558.6094 226.2,556.8047 L226.2,555.1641 Q226.2,553.2891 227.0906,551.6484 Q228.0047,550.0078 229.575,549.1406 Q231.1688,548.25 232.95,548.25 Q234.0281,548.25 234.9656,548.625 Q235.9031,549 236.7,549.75 Z " fill="#000000"/><text fill="#000000" font-family="sans-serif" font-size="18" lengthAdjust="spacing" textLength="75" x="256.8" y="562.3652">TestType</text><line style="stroke:#A80036;stroke-width:2.25;" x1="203.25" x2="344.25" y1="579" y2="579"/><text fill="#000000" font-family="sans-serif" font-size="16.5" lengthAdjust="spacing" textLength="42" x="210.75" y="602.1284">-code</text><text fill="#000000" font-family="sans-serif" font-size="16.5" lengthAdjust="spacing" textLength="85.5" x="210.75" y="622.8823">-description</text><text fill="#000000" font-family="sans-serif" font-size="16.5" lengthAdjust="spacing" textLength="126" x="210.75" y="643.6362">-collectingMethod</text><!--MD5=[36afb6bbd95a8ac778c4537c55a683d5]
class ParameterCategory--><rect codeLine="27" fill="#FEFECE" filter="url(#f1parvarzo9hvg)" height="101.5078" id="ParameterCategory" style="stroke:#A80036;stroke-width:2.25;" width="208.5" x="429" y="260.25"/><ellipse cx="451.5" cy="284.25" fill="#ADD1B2" rx="16.5" ry="16.5" style="stroke:#A80036;stroke-width:1.5;"/><path d="M454.5,279 Q454.8047,278.25 455.1563,277.875 Q455.5078,277.5 455.9063,277.5 Q456.6094,277.5 457.0547,277.9219 Q457.5,278.3438 457.5,279.3281 L457.5,281.6719 Q457.5,282.6563 457.0781,283.0781 Q456.6563,283.5 456,283.5 Q455.4141,283.5 455.0391,283.2422 Q454.6641,282.9844 454.5,282.3047 Q454.4297,281.8359 454.1719,281.5781 Q453.7031,281.0859 452.8594,280.8047 Q452.0156,280.5 451.1719,280.5 Q450.1172,280.5 449.2266,280.9219 Q448.3594,281.3438 447.6797,282.2813 Q447,283.2188 447,284.5078 L447,285.8906 Q447,287.4375 448.2656,288.4688 Q449.5313,289.5 451.7813,289.5 Q453.1172,289.5 454.0547,289.1953 Q454.5938,289.0313 455.2031,288.4922 Q455.6016,288.1875 455.8125,288.0938 Q456.0234,288 456.2813,288 Q456.7734,288 457.125,288.3984 Q457.5,288.7734 457.5,289.3125 Q457.5,289.8281 456.9844,290.4375 Q456.2344,291.3281 455.0391,291.8203 Q453.4688,292.5 451.5469,292.5 Q449.2969,292.5 447.4922,291.6094 Q446.0391,290.9063 445.0078,289.3828 Q444,287.8594 444,286.0547 L444,284.4141 Q444,282.5391 444.8906,280.8984 Q445.8047,279.2578 447.375,278.3906 Q448.9688,277.5 450.75,277.5 Q451.8281,277.5 452.7656,277.875 Q453.7031,278.25 454.5,279 Z " fill="#000000"/><text fill="#000000" font-family="sans-serif" font-size="18" lengthAdjust="spacing" textLength="160.5" x="472.5" y="291.6152">ParameterCategory</text><line style="stroke:#A80036;stroke-width:2.25;" x1="430.5" x2="636" y1="308.25" y2="308.25"/><text fill="#000000" font-family="sans-serif" font-size="16.5" lengthAdjust="spacing" textLength="45" x="438" y="331.3784">-name</text><text fill="#000000" font-family="sans-serif" font-size="16.5" lengthAdjust="spacing" textLength="42" x="438" y="352.1323">-code</text><!--MD5=[eaea43e34e45c5b9d20b595fc78f1f20]
link Company to Administrator--><path codeLine="33" d="M166.86,91.575 C155.85,122.49 139.98,167.13 125.445,207.975 " fill="none" id="Company-Administrator" style="stroke:#A80036;stroke-width:1.5;"/><polygon fill="#000000" points="154.2359,157.3297,162.9373,146.0249,154.6306,143.0694,154.2359,157.3297" style="stroke:#000000;stroke-width:1.5;"/><text fill="#000000" font-family="sans-serif" font-size="19.5" lengthAdjust="spacing" textLength="31.5" x="170.25" y="158.2427">has</text><text fill="#000000" font-family="sans-serif" font-size="19.5" lengthAdjust="spacing" textLength="10.5" x="152.1731" y="123.4031">1</text><text fill="#000000" font-family="sans-serif" font-size="19.5" lengthAdjust="spacing" textLength="30" x="97.6307" y="192.3686">1..*</text><!--MD5=[742a261f27a3dcd734c626287d811acd]
link Company to TestType--><path codeLine="34" d="M199.26,91.5 C205.185,105.435 211.26,121.41 215.25,136.5 C251.805,274.545 265.86,442.455 270.99,530.475 " fill="none" id="Company-TestType" style="stroke:#A80036;stroke-width:1.5;"/><polygon fill="#000000" points="270.4595,318.9155,272.6222,304.8145,263.9208,306.2364,270.4595,318.9155" style="stroke:#000000;stroke-width:1.5;"/><text fill="#000000" font-family="sans-serif" font-size="19.5" lengthAdjust="spacing" textLength="79.5" x="282.75" y="319.4927">conducts</text><text fill="#000000" font-family="sans-serif" font-size="19.5" lengthAdjust="spacing" textLength="10.5" x="191.6606" y="123.3116">1</text><text fill="#000000" font-family="sans-serif" font-size="19.5" lengthAdjust="spacing" textLength="7.5" x="262.4118" y="514.5621">*</text><!--MD5=[71159b3869b6d7a411768e18bcaa697a]
link Administrator to TestType--><path codeLine="35" d="M81.555,414.36 C83.745,439.23 89.76,464.76 102.75,486 C125.115,522.555 165.45,548.22 201.345,565.02 " fill="none" id="Administrator-TestType" style="stroke:#A80036;stroke-width:1.5;"/><polygon fill="#000000" points="114.9177,478.6342,109.9244,465.2707,103.0232,470.7579,114.9177,478.6342" style="stroke:#000000;stroke-width:1.5;"/><text fill="#000000" font-family="sans-serif" font-size="19.5" lengthAdjust="spacing" textLength="109.5" x="123.75" y="480.7427">specifies the</text><text fill="#000000" font-family="sans-serif" font-size="19.5" lengthAdjust="spacing" textLength="7.5" x="72.9284" y="445.9707">*</text><text fill="#000000" font-family="sans-serif" font-size="19.5" lengthAdjust="spacing" textLength="7.5" x="182.1838" y="555.3142">*</text><!--MD5=[bfdd49e1270b51783f8854e231a98fbd]
link ParameterCategory to TestType--><path codeLine="36" d="M486.855,362.49 C442.98,409.545 377.04,480.255 330.135,530.535 " fill="none" id="ParameterCategory-TestType" style="stroke:#A80036;stroke-width:1.5;"/><polygon fill="#000000" points="407.8653,467.2788,395.3877,474.1944,401.8356,480.2077,407.8653,467.2788" style="stroke:#000000;stroke-width:1.5;"/><text fill="#000000" font-family="sans-serif" font-size="19.5" lengthAdjust="spacing" textLength="102" x="416.25" y="480.7427">has a set of</text><text fill="#000000" font-family="sans-serif" font-size="19.5" lengthAdjust="spacing" textLength="7.5" x="470.4229" y="394.0881">*</text><text fill="#000000" font-family="sans-serif" font-size="19.5" lengthAdjust="spacing" textLength="7.5" x="331.3527" y="514.632">*</text><!--MD5=[0602a7c06430f4321bf3e9451e1cc848]
@startuml
hide methods
'left to right direction
skinparam classAttributeIconSize 0

class Company{
-name
}


class Administrator{
-name
-address
-phoneNumber
-email
-employeeId
-organizationRole
-socCode
}

class TestType{
-code
-description
-collectingMethod
}


class ParameterCategory{
-name
-code
}


Company "1"- -"1..*" Administrator : has >
Company "1"- -"*" TestType : conducts >
Administrator "*"- -"*" TestType : specifies the >
ParameterCategory "*"- -"*" TestType : has a set of <

@enduml

@startuml
hide methods
skinparam classAttributeIconSize 0

class Company{
-name
}


class Administrator{
-name
-address
-phoneNumber
-email
-employeeId
-organizationRole
-socCode
}

class TestType{
-code
-description
-collectingMethod
}


class ParameterCategory{
-name
-code
}


Company "1"- -"1..*" Administrator : has >
Company "1"- -"*" TestType : conducts >
Administrator "*"- -"*" TestType : specifies the >
ParameterCategory "*"- -"*" TestType : has a set of <

@enduml

PlantUML version 1.2021.4(Sun Apr 04 09:49:39 BST 2021)
(GPL source distribution)
Java Runtime: OpenJDK Runtime Environment
JVM: OpenJDK 64-Bit Server VM
Default Encoding: Cp1252
Language: pt
Country: PT
--></g></svg>