<?xml version="1.0" encoding="UTF-8" standalone="no"?><svg xmlns="http://www.w3.org/2000/svg" xmlns:xlink="http://www.w3.org/1999/xlink" contentScriptType="application/ecmascript" contentStyleType="text/css" height="659.7px" preserveAspectRatio="none" style="width:937px;height:659px;" version="1.1" viewBox="0 0 937 659" width="937.8px" zoomAndPan="magnify"><defs><filter height="300%" id="fbh2g533tlpeb" width="300%" x="-1" y="-1"><feGaussianBlur result="blurOut" stdDeviation="1.8"/><feColorMatrix in="blurOut" result="blurOut2" type="matrix" values="0 0 0 0 0 0 0 0 0 0 0 0 0 0 0 0 0 0 .4 0"/><feOffset dx="3.6" dy="3.6" in="blurOut2" result="blurOut3"/><feBlend in="SourceGraphic" in2="blurOut3" mode="normal"/></filter></defs><g><!--MD5=[02e4b9b7573f1156f41e60aa5b4e25a4]
class Company--><rect codeLine="2" fill="#FEFECE" filter="url(#fbh2g533tlpeb)" height="68.1047" id="Company" style="stroke:#A80036;stroke-width:1.35;" width="151.2" x="355.5" y="240.3"/><ellipse cx="403.425" cy="254.7" fill="#ADD1B2" rx="9.9" ry="9.9" style="stroke:#A80036;stroke-width:0.9;"/><path d="M405.225,251.55 Q405.4078,251.1 405.6188,250.875 Q405.8297,250.65 406.0688,250.65 Q406.4906,250.65 406.7578,250.9031 Q407.025,251.1563 407.025,251.7469 L407.025,253.1531 Q407.025,253.7438 406.7719,253.9969 Q406.5188,254.25 406.125,254.25 Q405.7734,254.25 405.5484,254.0953 Q405.3234,253.9406 405.225,253.5328 Q405.1828,253.2516 405.0281,253.0969 Q404.7469,252.8016 404.2406,252.6328 Q403.7344,252.45 403.2281,252.45 Q402.5953,252.45 402.0609,252.7031 Q401.5406,252.9563 401.1328,253.5188 Q400.725,254.0813 400.725,254.8547 L400.725,255.6844 Q400.725,256.6125 401.4844,257.2313 Q402.2438,257.85 403.5938,257.85 Q404.3953,257.85 404.9578,257.6672 Q405.2813,257.5688 405.6469,257.2453 Q405.8859,257.0625 406.0125,257.0063 Q406.1391,256.95 406.2938,256.95 Q406.5891,256.95 406.8,257.1891 Q407.025,257.4141 407.025,257.7375 Q407.025,258.0469 406.7156,258.4125 Q406.2656,258.9469 405.5484,259.2422 Q404.6063,259.65 403.4531,259.65 Q402.1031,259.65 401.0203,259.1156 Q400.1484,258.6938 399.5297,257.7797 Q398.925,256.8656 398.925,255.7828 L398.925,254.7984 Q398.925,253.6734 399.4594,252.6891 Q400.0078,251.7047 400.95,251.1844 Q401.9063,250.65 402.975,250.65 Q403.6219,250.65 404.1844,250.875 Q404.7469,251.1 405.225,251.55 Z " fill="#000000"/><text fill="#000000" font-family="sans-serif" font-size="10.8" lengthAdjust="spacing" textLength="47.7" x="421.875" y="259.1191">Company</text><line style="stroke:#A80036;stroke-width:1.35;" x1="356.4" x2="505.8" y1="269.1" y2="269.1"/><line style="stroke:#A80036;stroke-width:1.35;" x1="356.4" x2="505.8" y1="276.3" y2="276.3"/><ellipse cx="365.4" cy="286.2" fill="#84BE84" rx="2.7" ry="2.7" style="stroke:#038048;stroke-width:0.9;"/><text fill="#000000" font-family="sans-serif" font-size="9.9" lengthAdjust="spacing" textLength="84.6" x="373.5" y="290.1771">getTypeTestStore()</text><ellipse cx="365.4" cy="298.6523" fill="#84BE84" rx="2.7" ry="2.7" style="stroke:#038048;stroke-width:0.9;"/><text fill="#000000" font-family="sans-serif" font-size="9.9" lengthAdjust="spacing" textLength="127.8" x="373.5" y="302.6294">getParameterCategoryStore()</text><!--MD5=[bebdcc43ebcb1534ee764d1f430c03ae]
class CreateTestTypeUI--><rect codeLine="7" fill="#FEFECE" filter="url(#fbh2g533tlpeb)" height="43.2" id="CreateTestTypeUI" style="stroke:#A80036;stroke-width:1.35;" width="117.9" x="590.85" y="6.3"/><ellipse cx="604.35" cy="20.7" fill="#ADD1B2" rx="9.9" ry="9.9" style="stroke:#A80036;stroke-width:0.9;"/><path d="M606.15,17.55 Q606.3328,17.1 606.5438,16.875 Q606.7547,16.65 606.9938,16.65 Q607.4156,16.65 607.6828,16.9031 Q607.95,17.1563 607.95,17.7469 L607.95,19.1531 Q607.95,19.7438 607.6969,19.9969 Q607.4438,20.25 607.05,20.25 Q606.6984,20.25 606.4734,20.0953 Q606.2484,19.9406 606.15,19.5328 Q606.1078,19.2516 605.9531,19.0969 Q605.6719,18.8016 605.1656,18.6328 Q604.6594,18.45 604.1531,18.45 Q603.5203,18.45 602.9859,18.7031 Q602.4656,18.9563 602.0578,19.5188 Q601.65,20.0813 601.65,20.8547 L601.65,21.6844 Q601.65,22.6125 602.4094,23.2313 Q603.1688,23.85 604.5188,23.85 Q605.3203,23.85 605.8828,23.6672 Q606.2063,23.5688 606.5719,23.2453 Q606.8109,23.0625 606.9375,23.0063 Q607.0641,22.95 607.2188,22.95 Q607.5141,22.95 607.725,23.1891 Q607.95,23.4141 607.95,23.7375 Q607.95,24.0469 607.6406,24.4125 Q607.1906,24.9469 606.4734,25.2422 Q605.5313,25.65 604.3781,25.65 Q603.0281,25.65 601.9453,25.1156 Q601.0734,24.6938 600.4547,23.7797 Q599.85,22.8656 599.85,21.7828 L599.85,20.7984 Q599.85,19.6734 600.3844,18.6891 Q600.9328,17.7047 601.875,17.1844 Q602.8313,16.65 603.9,16.65 Q604.5469,16.65 605.1094,16.875 Q605.6719,17.1 606.15,17.55 Z " fill="#000000"/><text fill="#000000" font-family="sans-serif" font-size="10.8" lengthAdjust="spacing" textLength="89.1" x="616.95" y="25.1191">CreateTestTypeUI</text><line style="stroke:#A80036;stroke-width:1.35;" x1="591.75" x2="707.85" y1="35.1" y2="35.1"/><line style="stroke:#A80036;stroke-width:1.35;" x1="591.75" x2="707.85" y1="42.3" y2="42.3"/><!--MD5=[2c845ebea24388d268f5a9acbeca4fd9]
class CreateTestTypeController--><rect codeLine="10" fill="#FEFECE" filter="url(#fbh2g533tlpeb)" height="80.557" id="CreateTestTypeController" style="stroke:#A80036;stroke-width:1.35;" width="394.2" x="234" y="104.4"/><ellipse cx="363.825" cy="118.8" fill="#ADD1B2" rx="9.9" ry="9.9" style="stroke:#A80036;stroke-width:0.9;"/><path d="M365.625,115.65 Q365.8078,115.2 366.0188,114.975 Q366.2297,114.75 366.4688,114.75 Q366.8906,114.75 367.1578,115.0031 Q367.425,115.2563 367.425,115.8469 L367.425,117.2531 Q367.425,117.8438 367.1719,118.0969 Q366.9188,118.35 366.525,118.35 Q366.1734,118.35 365.9484,118.1953 Q365.7234,118.0406 365.625,117.6328 Q365.5828,117.3516 365.4281,117.1969 Q365.1469,116.9016 364.6406,116.7328 Q364.1344,116.55 363.6281,116.55 Q362.9953,116.55 362.4609,116.8031 Q361.9406,117.0563 361.5328,117.6188 Q361.125,118.1813 361.125,118.9547 L361.125,119.7844 Q361.125,120.7125 361.8844,121.3313 Q362.6438,121.95 363.9938,121.95 Q364.7953,121.95 365.3578,121.7672 Q365.6813,121.6688 366.0469,121.3453 Q366.2859,121.1625 366.4125,121.1063 Q366.5391,121.05 366.6938,121.05 Q366.9891,121.05 367.2,121.2891 Q367.425,121.5141 367.425,121.8375 Q367.425,122.1469 367.1156,122.5125 Q366.6656,123.0469 365.9484,123.3422 Q365.0063,123.75 363.8531,123.75 Q362.5031,123.75 361.4203,123.2156 Q360.5484,122.7938 359.9297,121.8797 Q359.325,120.9656 359.325,119.8828 L359.325,118.8984 Q359.325,117.7734 359.8594,116.7891 Q360.4078,115.8047 361.35,115.2844 Q362.3063,114.75 363.375,114.75 Q364.0219,114.75 364.5844,114.975 Q365.1469,115.2 365.625,115.65 Z " fill="#000000"/><text fill="#000000" font-family="sans-serif" font-size="10.8" lengthAdjust="spacing" textLength="126.9" x="382.275" y="123.2191">CreateTestTypeController</text><line style="stroke:#A80036;stroke-width:1.35;" x1="234.9" x2="627.3" y1="133.2" y2="133.2"/><line style="stroke:#A80036;stroke-width:1.35;" x1="234.9" x2="627.3" y1="140.4" y2="140.4"/><ellipse cx="243.9" cy="150.3" fill="#84BE84" rx="2.7" ry="2.7" style="stroke:#038048;stroke-width:0.9;"/><text fill="#000000" font-family="sans-serif" font-size="9.9" lengthAdjust="spacing" textLength="370.8" x="252" y="154.2771">createTestType(code,description,collecting method,selectedParameterCategoriesList)</text><ellipse cx="243.9" cy="162.7523" fill="#84BE84" rx="2.7" ry="2.7" style="stroke:#038048;stroke-width:0.9;"/><text fill="#000000" font-family="sans-serif" font-size="9.9" lengthAdjust="spacing" textLength="69.3" x="252" y="166.7294">saveTestType()</text><ellipse cx="243.9" cy="175.2047" fill="#84BE84" rx="2.7" ry="2.7" style="stroke:#038048;stroke-width:0.9;"/><text fill="#000000" font-family="sans-serif" font-size="9.9" lengthAdjust="spacing" textLength="238.5" x="252" y="179.1817">List&lt;ParameterCategoryDto&gt; getParameterCategories()</text><!--MD5=[aeb3272166074d8737a70b61b1e71682]
class TestType--><rect codeLine="16" fill="#FEFECE" filter="url(#fbh2g533tlpeb)" height="105.4617" id="TestType" style="stroke:#A80036;stroke-width:1.35;" width="333.9" x="36.45" y="541.8"/><ellipse cx="177.075" cy="556.2" fill="#ADD1B2" rx="9.9" ry="9.9" style="stroke:#A80036;stroke-width:0.9;"/><path d="M178.875,553.05 Q179.0578,552.6 179.2688,552.375 Q179.4797,552.15 179.7188,552.15 Q180.1406,552.15 180.4078,552.4031 Q180.675,552.6563 180.675,553.2469 L180.675,554.6531 Q180.675,555.2438 180.4219,555.4969 Q180.1688,555.75 179.775,555.75 Q179.4234,555.75 179.1984,555.5953 Q178.9734,555.4406 178.875,555.0328 Q178.8328,554.7516 178.6781,554.5969 Q178.3969,554.3016 177.8906,554.1328 Q177.3844,553.95 176.8781,553.95 Q176.2453,553.95 175.7109,554.2031 Q175.1906,554.4563 174.7828,555.0188 Q174.375,555.5813 174.375,556.3547 L174.375,557.1844 Q174.375,558.1125 175.1344,558.7313 Q175.8938,559.35 177.2438,559.35 Q178.0453,559.35 178.6078,559.1672 Q178.9313,559.0688 179.2969,558.7453 Q179.5359,558.5625 179.6625,558.5063 Q179.7891,558.45 179.9438,558.45 Q180.2391,558.45 180.45,558.6891 Q180.675,558.9141 180.675,559.2375 Q180.675,559.5469 180.3656,559.9125 Q179.9156,560.4469 179.1984,560.7422 Q178.2563,561.15 177.1031,561.15 Q175.7531,561.15 174.6703,560.6156 Q173.7984,560.1938 173.1797,559.2797 Q172.575,558.3656 172.575,557.2828 L172.575,556.2984 Q172.575,555.1734 173.1094,554.1891 Q173.6578,553.2047 174.6,552.6844 Q175.5563,552.15 176.625,552.15 Q177.2719,552.15 177.8344,552.375 Q178.3969,552.6 178.875,553.05 Z " fill="#000000"/><text fill="#000000" font-family="sans-serif" font-size="10.8" lengthAdjust="spacing" textLength="45" x="195.525" y="560.6191">TestType</text><line style="stroke:#A80036;stroke-width:1.35;" x1="37.35" x2="369.45" y1="570.6" y2="570.6"/><rect fill="none" height="5.4" style="stroke:#C82930;stroke-width:0.9;" width="5.4" x="43.65" y="577.8"/><text fill="#000000" font-family="sans-serif" font-size="9.9" lengthAdjust="spacing" textLength="49.5" x="54.45" y="584.4771">String code</text><rect fill="none" height="5.4" style="stroke:#C82930;stroke-width:0.9;" width="5.4" x="43.65" y="590.2523"/><text fill="#000000" font-family="sans-serif" font-size="9.9" lengthAdjust="spacing" textLength="75.6" x="54.45" y="596.9294">String description</text><rect fill="none" height="5.4" style="stroke:#C82930;stroke-width:0.9;" width="5.4" x="43.65" y="602.7047"/><text fill="#000000" font-family="sans-serif" font-size="9.9" lengthAdjust="spacing" textLength="99.9" x="54.45" y="609.3817">String collectingMethod</text><rect fill="none" height="5.4" style="stroke:#C82930;stroke-width:0.9;" width="5.4" x="43.65" y="615.157"/><text fill="#000000" font-family="sans-serif" font-size="9.9" lengthAdjust="spacing" textLength="233.1" x="54.45" y="621.8341">List&lt;ParameterCategories&gt; listOfParameterCategories</text><line style="stroke:#A80036;stroke-width:1.35;" x1="37.35" x2="369.45" y1="627.6094" y2="627.6094"/><ellipse cx="46.35" cy="637.5094" fill="#84BE84" rx="2.7" ry="2.7" style="stroke:#038048;stroke-width:0.9;"/><text fill="#000000" font-family="sans-serif" font-size="9.9" lengthAdjust="spacing" textLength="310.5" x="54.45" y="641.4864">TestType(code,description,collectingMethod,listOfParameterCategories)</text><!--MD5=[6ba72ddf03822b91e8d41ca71de58ed3]
class TestTypeStore--><rect codeLine="24" fill="#FEFECE" filter="url(#fbh2g533tlpeb)" height="93.0094" id="TestTypeStore" style="stroke:#A80036;stroke-width:1.35;" width="394.2" x="6.3" y="378.9"/><ellipse cx="164.025" cy="393.3" fill="#ADD1B2" rx="9.9" ry="9.9" style="stroke:#A80036;stroke-width:0.9;"/><path d="M165.825,390.15 Q166.0078,389.7 166.2188,389.475 Q166.4297,389.25 166.6688,389.25 Q167.0906,389.25 167.3578,389.5031 Q167.625,389.7563 167.625,390.3469 L167.625,391.7531 Q167.625,392.3438 167.3719,392.5969 Q167.1188,392.85 166.725,392.85 Q166.3734,392.85 166.1484,392.6953 Q165.9234,392.5406 165.825,392.1328 Q165.7828,391.8516 165.6281,391.6969 Q165.3469,391.4016 164.8406,391.2328 Q164.3344,391.05 163.8281,391.05 Q163.1953,391.05 162.6609,391.3031 Q162.1406,391.5563 161.7328,392.1188 Q161.325,392.6813 161.325,393.4547 L161.325,394.2844 Q161.325,395.2125 162.0844,395.8313 Q162.8438,396.45 164.1938,396.45 Q164.9953,396.45 165.5578,396.2672 Q165.8813,396.1688 166.2469,395.8453 Q166.4859,395.6625 166.6125,395.6063 Q166.7391,395.55 166.8938,395.55 Q167.1891,395.55 167.4,395.7891 Q167.625,396.0141 167.625,396.3375 Q167.625,396.6469 167.3156,397.0125 Q166.8656,397.5469 166.1484,397.8422 Q165.2063,398.25 164.0531,398.25 Q162.7031,398.25 161.6203,397.7156 Q160.7484,397.2938 160.1297,396.3797 Q159.525,395.4656 159.525,394.3828 L159.525,393.3984 Q159.525,392.2734 160.0594,391.2891 Q160.6078,390.3047 161.55,389.7844 Q162.5063,389.25 163.575,389.25 Q164.2219,389.25 164.7844,389.475 Q165.3469,389.7 165.825,390.15 Z " fill="#000000"/><text fill="#000000" font-family="sans-serif" font-size="10.8" lengthAdjust="spacing" textLength="71.1" x="182.475" y="397.7191">TestTypeStore</text><line style="stroke:#A80036;stroke-width:1.35;" x1="7.2" x2="399.6" y1="407.7" y2="407.7"/><line style="stroke:#A80036;stroke-width:1.35;" x1="7.2" x2="399.6" y1="414.9" y2="414.9"/><ellipse cx="16.2" cy="424.8" fill="#84BE84" rx="2.7" ry="2.7" style="stroke:#038048;stroke-width:0.9;"/><text fill="#000000" font-family="sans-serif" font-size="9.9" lengthAdjust="spacing" textLength="370.8" x="24.3" y="428.7771">createTestType(code,description,collecting method,selectedParameterCategoriesList)</text><ellipse cx="16.2" cy="437.2523" fill="#84BE84" rx="2.7" ry="2.7" style="stroke:#038048;stroke-width:0.9;"/><text fill="#000000" font-family="sans-serif" font-size="9.9" lengthAdjust="spacing" textLength="118.8" x="24.3" y="441.2294">validateTestType(testType)</text><ellipse cx="16.2" cy="449.7047" fill="#84BE84" rx="2.7" ry="2.7" style="stroke:#038048;stroke-width:0.9;"/><text fill="#000000" font-family="sans-serif" font-size="9.9" lengthAdjust="spacing" textLength="101.7" x="24.3" y="453.6817">addTestType(testType)</text><ellipse cx="16.2" cy="462.157" fill="#84BE84" rx="2.7" ry="2.7" style="stroke:#038048;stroke-width:0.9;"/><text fill="#000000" font-family="sans-serif" font-size="9.9" lengthAdjust="spacing" textLength="110.7" x="24.3" y="466.1341">saveTestType((testType)</text><!--MD5=[d802db621b5b215a6f0466f93cefcb42]
class ParameterCategoryStore--><rect codeLine="31" fill="#FEFECE" filter="url(#fbh2g533tlpeb)" height="68.1047" id="ParameterCategoryStore" style="stroke:#A80036;stroke-width:1.35;" width="255.6" x="432" y="391.05"/><ellipse cx="494.775" cy="405.45" fill="#ADD1B2" rx="9.9" ry="9.9" style="stroke:#A80036;stroke-width:0.9;"/><path d="M496.575,402.3 Q496.7578,401.85 496.9688,401.625 Q497.1797,401.4 497.4188,401.4 Q497.8406,401.4 498.1078,401.6531 Q498.375,401.9063 498.375,402.4969 L498.375,403.9031 Q498.375,404.4938 498.1219,404.7469 Q497.8688,405 497.475,405 Q497.1234,405 496.8984,404.8453 Q496.6734,404.6906 496.575,404.2828 Q496.5328,404.0016 496.3781,403.8469 Q496.0969,403.5516 495.5906,403.3828 Q495.0844,403.2 494.5781,403.2 Q493.9453,403.2 493.4109,403.4531 Q492.8906,403.7063 492.4828,404.2688 Q492.075,404.8313 492.075,405.6047 L492.075,406.4344 Q492.075,407.3625 492.8344,407.9813 Q493.5938,408.6 494.9438,408.6 Q495.7453,408.6 496.3078,408.4172 Q496.6313,408.3188 496.9969,407.9953 Q497.2359,407.8125 497.3625,407.7563 Q497.4891,407.7 497.6438,407.7 Q497.9391,407.7 498.15,407.9391 Q498.375,408.1641 498.375,408.4875 Q498.375,408.7969 498.0656,409.1625 Q497.6156,409.6969 496.8984,409.9922 Q495.9563,410.4 494.8031,410.4 Q493.4531,410.4 492.3703,409.8656 Q491.4984,409.4438 490.8797,408.5297 Q490.275,407.6156 490.275,406.5328 L490.275,405.5484 Q490.275,404.4234 490.8094,403.4391 Q491.3578,402.4547 492.3,401.9344 Q493.2563,401.4 494.325,401.4 Q494.9719,401.4 495.5344,401.625 Q496.0969,401.85 496.575,402.3 Z " fill="#000000"/><text fill="#000000" font-family="sans-serif" font-size="10.8" lengthAdjust="spacing" textLength="122.4" x="513.225" y="409.8691">ParameterCategoryStore</text><line style="stroke:#A80036;stroke-width:1.35;" x1="432.9" x2="686.7" y1="419.85" y2="419.85"/><line style="stroke:#A80036;stroke-width:1.35;" x1="432.9" x2="686.7" y1="427.05" y2="427.05"/><ellipse cx="441.9" cy="436.95" fill="#84BE84" rx="2.7" ry="2.7" style="stroke:#038048;stroke-width:0.9;"/><text fill="#000000" font-family="sans-serif" font-size="9.9" lengthAdjust="spacing" textLength="232.2" x="450" y="440.9271">List&lt;ParameterCategory&gt; getParameterCategoryList()</text><ellipse cx="441.9" cy="449.4023" fill="#84BE84" rx="2.7" ry="2.7" style="stroke:#038048;stroke-width:0.9;"/><text fill="#000000" font-family="sans-serif" font-size="9.9" lengthAdjust="spacing" textLength="224.1" x="450" y="453.3794">ParameterCategory getParameterCategorybyCode()</text><!--MD5=[fab6cba0d8a30102bb3e071a5ce00b91]
class ParameterCategoryMapper--><rect codeLine="36" fill="#FEFECE" filter="url(#fbh2g533tlpeb)" height="43.2" id="ParameterCategoryMapper" style="stroke:#A80036;stroke-width:1.35;" width="162" x="659.7" y="123.3"/><ellipse cx="673.2" cy="137.7" fill="#ADD1B2" rx="9.9" ry="9.9" style="stroke:#A80036;stroke-width:0.9;"/><path d="M675,134.55 Q675.1828,134.1 675.3938,133.875 Q675.6047,133.65 675.8438,133.65 Q676.2656,133.65 676.5328,133.9031 Q676.8,134.1563 676.8,134.7469 L676.8,136.1531 Q676.8,136.7438 676.5469,136.9969 Q676.2938,137.25 675.9,137.25 Q675.5484,137.25 675.3234,137.0953 Q675.0984,136.9406 675,136.5328 Q674.9578,136.2516 674.8031,136.0969 Q674.5219,135.8016 674.0156,135.6328 Q673.5094,135.45 673.0031,135.45 Q672.3703,135.45 671.8359,135.7031 Q671.3156,135.9563 670.9078,136.5188 Q670.5,137.0813 670.5,137.8547 L670.5,138.6844 Q670.5,139.6125 671.2594,140.2313 Q672.0188,140.85 673.3688,140.85 Q674.1703,140.85 674.7328,140.6672 Q675.0563,140.5688 675.4219,140.2453 Q675.6609,140.0625 675.7875,140.0063 Q675.9141,139.95 676.0688,139.95 Q676.3641,139.95 676.575,140.1891 Q676.8,140.4141 676.8,140.7375 Q676.8,141.0469 676.4906,141.4125 Q676.0406,141.9469 675.3234,142.2422 Q674.3813,142.65 673.2281,142.65 Q671.8781,142.65 670.7953,142.1156 Q669.9234,141.6938 669.3047,140.7797 Q668.7,139.8656 668.7,138.7828 L668.7,137.7984 Q668.7,136.6734 669.2344,135.6891 Q669.7828,134.7047 670.725,134.1844 Q671.6813,133.65 672.75,133.65 Q673.3969,133.65 673.9594,133.875 Q674.5219,134.1 675,134.55 Z " fill="#000000"/><text fill="#000000" font-family="sans-serif" font-size="10.8" lengthAdjust="spacing" textLength="133.2" x="685.8" y="142.1191">ParameterCategoryMapper</text><line style="stroke:#A80036;stroke-width:1.35;" x1="660.6" x2="820.8" y1="152.1" y2="152.1"/><line style="stroke:#A80036;stroke-width:1.35;" x1="660.6" x2="820.8" y1="159.3" y2="159.3"/><!--MD5=[ae4ce8b9e36cc829775f8966335bc94b]
class ParameterCategoryDto--><rect codeLine="40" fill="#FEFECE" filter="url(#fbh2g533tlpeb)" height="68.1047" id="ParameterCategoryDto" style="stroke:#A80036;stroke-width:1.35;" width="142.2" x="783" y="240.3"/><ellipse cx="796.5" cy="254.7" fill="#ADD1B2" rx="9.9" ry="9.9" style="stroke:#A80036;stroke-width:0.9;"/><path d="M798.3,251.55 Q798.4828,251.1 798.6938,250.875 Q798.9047,250.65 799.1438,250.65 Q799.5656,250.65 799.8328,250.9031 Q800.1,251.1563 800.1,251.7469 L800.1,253.1531 Q800.1,253.7438 799.8469,253.9969 Q799.5938,254.25 799.2,254.25 Q798.8484,254.25 798.6234,254.0953 Q798.3984,253.9406 798.3,253.5328 Q798.2578,253.2516 798.1031,253.0969 Q797.8219,252.8016 797.3156,252.6328 Q796.8094,252.45 796.3031,252.45 Q795.6703,252.45 795.1359,252.7031 Q794.6156,252.9563 794.2078,253.5188 Q793.8,254.0813 793.8,254.8547 L793.8,255.6844 Q793.8,256.6125 794.5594,257.2313 Q795.3188,257.85 796.6688,257.85 Q797.4703,257.85 798.0328,257.6672 Q798.3563,257.5688 798.7219,257.2453 Q798.9609,257.0625 799.0875,257.0063 Q799.2141,256.95 799.3688,256.95 Q799.6641,256.95 799.875,257.1891 Q800.1,257.4141 800.1,257.7375 Q800.1,258.0469 799.7906,258.4125 Q799.3406,258.9469 798.6234,259.2422 Q797.6813,259.65 796.5281,259.65 Q795.1781,259.65 794.0953,259.1156 Q793.2234,258.6938 792.6047,257.7797 Q792,256.8656 792,255.7828 L792,254.7984 Q792,253.6734 792.5344,252.6891 Q793.0828,251.7047 794.025,251.1844 Q794.9813,250.65 796.05,250.65 Q796.6969,250.65 797.2594,250.875 Q797.8219,251.1 798.3,251.55 Z " fill="#000000"/><text fill="#000000" font-family="sans-serif" font-size="10.8" lengthAdjust="spacing" textLength="113.4" x="809.1" y="259.1191">ParameterCategoryDto</text><line style="stroke:#A80036;stroke-width:1.35;" x1="783.9" x2="924.3" y1="269.1" y2="269.1"/><ellipse cx="792.9" cy="279" rx="2.7" ry="2.7" style="stroke:#038048;stroke-width:0.9;fill:none;"/><text fill="#000000" font-family="sans-serif" font-size="9.9" lengthAdjust="spacing" textLength="51.3" x="801" y="282.9771">String name</text><ellipse cx="792.9" cy="291.4523" rx="2.7" ry="2.7" style="stroke:#038048;stroke-width:0.9;fill:none;"/><text fill="#000000" font-family="sans-serif" font-size="9.9" lengthAdjust="spacing" textLength="49.5" x="801" y="295.4294">String code</text><line style="stroke:#A80036;stroke-width:1.35;" x1="783.9" x2="924.3" y1="301.2047" y2="301.2047"/><!--MD5=[36afb6bbd95a8ac778c4537c55a683d5]
class ParameterCategory--><rect codeLine="45" fill="#FEFECE" filter="url(#fbh2g533tlpeb)" height="68.1047" id="ParameterCategory" style="stroke:#A80036;stroke-width:1.35;" width="125.1" x="612.45" y="560.25"/><ellipse cx="625.95" cy="574.65" fill="#ADD1B2" rx="9.9" ry="9.9" style="stroke:#A80036;stroke-width:0.9;"/><path d="M627.75,571.5 Q627.9328,571.05 628.1438,570.825 Q628.3547,570.6 628.5938,570.6 Q629.0156,570.6 629.2828,570.8531 Q629.55,571.1063 629.55,571.6969 L629.55,573.1031 Q629.55,573.6938 629.2969,573.9469 Q629.0438,574.2 628.65,574.2 Q628.2984,574.2 628.0734,574.0453 Q627.8484,573.8906 627.75,573.4828 Q627.7078,573.2016 627.5531,573.0469 Q627.2719,572.7516 626.7656,572.5828 Q626.2594,572.4 625.7531,572.4 Q625.1203,572.4 624.5859,572.6531 Q624.0656,572.9063 623.6578,573.4688 Q623.25,574.0313 623.25,574.8047 L623.25,575.6344 Q623.25,576.5625 624.0094,577.1813 Q624.7688,577.8 626.1188,577.8 Q626.9203,577.8 627.4828,577.6172 Q627.8063,577.5188 628.1719,577.1953 Q628.4109,577.0125 628.5375,576.9563 Q628.6641,576.9 628.8188,576.9 Q629.1141,576.9 629.325,577.1391 Q629.55,577.3641 629.55,577.6875 Q629.55,577.9969 629.2406,578.3625 Q628.7906,578.8969 628.0734,579.1922 Q627.1313,579.6 625.9781,579.6 Q624.6281,579.6 623.5453,579.0656 Q622.6734,578.6438 622.0547,577.7297 Q621.45,576.8156 621.45,575.7328 L621.45,574.7484 Q621.45,573.6234 621.9844,572.6391 Q622.5328,571.6547 623.475,571.1344 Q624.4313,570.6 625.5,570.6 Q626.1469,570.6 626.7094,570.825 Q627.2719,571.05 627.75,571.5 Z " fill="#000000"/><text fill="#000000" font-family="sans-serif" font-size="10.8" lengthAdjust="spacing" textLength="96.3" x="638.55" y="579.0691">ParameterCategory</text><line style="stroke:#A80036;stroke-width:1.35;" x1="613.35" x2="736.65" y1="589.05" y2="589.05"/><ellipse cx="622.35" cy="598.95" rx="2.7" ry="2.7" style="stroke:#038048;stroke-width:0.9;fill:none;"/><text fill="#000000" font-family="sans-serif" font-size="9.9" lengthAdjust="spacing" textLength="51.3" x="630.45" y="602.9271">String name</text><ellipse cx="622.35" cy="611.4023" rx="2.7" ry="2.7" style="stroke:#038048;stroke-width:0.9;fill:none;"/><text fill="#000000" font-family="sans-serif" font-size="9.9" lengthAdjust="spacing" textLength="49.5" x="630.45" y="615.3794">String code</text><line style="stroke:#A80036;stroke-width:1.35;" x1="613.35" x2="736.65" y1="621.1547" y2="621.1547"/><!--MD5=[69134a8957932d955e1f822b15ec4b1c]
link CreateTestTypeUI to CreateTestTypeController--><path codeLine="50" d="M610.452,49.527 C582.678,64.161 544.518,84.258 510.525,102.159 " fill="none" id="CreateTestTypeUI-to-CreateTestTypeController" style="stroke:#A80036;stroke-width:0.9;stroke-dasharray:7.0,7.0;"/><polygon fill="#A80036" points="506.403,104.328,515.247,103.7329,510.3832,102.2284,511.8877,97.3646,506.403,104.328" style="stroke:#A80036;stroke-width:0.9;"/><!--MD5=[a0c08eca13bfc06260ed3890b790a8bb]
link CreateTestTypeUI to ParameterCategoryDto--><path codeLine="51" d="M708.876,36.243 C751.824,44.964 807.552,63.81 837.9,104.4 C866.034,142.02 865.44,198.279 860.967,235.449 " fill="none" id="CreateTestTypeUI-to-ParameterCategoryDto" style="stroke:#A80036;stroke-width:0.9;stroke-dasharray:7.0,7.0;"/><polygon fill="#A80036" points="860.382,240.111,864.9723,232.5282,860.9481,235.6467,857.8295,231.6225,860.382,240.111" style="stroke:#A80036;stroke-width:0.9;"/><!--MD5=[812ef8251b528d1a64980212cceda9f5]
link CreateTestTypeController to Company--><path codeLine="52" d="M431.1,185.535 C431.1,201.339 431.1,219.456 431.1,235.134 " fill="none" id="CreateTestTypeController-to-Company" style="stroke:#A80036;stroke-width:0.9;stroke-dasharray:7.0,7.0;"/><polygon fill="#A80036" points="431.1,239.913,434.7,231.813,431.1,235.413,427.5,231.813,431.1,239.913" style="stroke:#A80036;stroke-width:0.9;"/><!--MD5=[97f86ea091f10acfb6befc2251259947]
link CreateTestTypeController to TestTypeStore--><path codeLine="53" d="M390.096,185.607 C373.77,202.068 355.131,221.634 339.3,240.3 C302.166,284.085 263.637,337.095 237.132,374.958 " fill="none" id="CreateTestTypeController-to-TestTypeStore" style="stroke:#A80036;stroke-width:0.9;stroke-dasharray:7.0,7.0;"/><polygon fill="#A80036" points="234.45,378.801,242.0453,374.2315,237.0314,375.1151,236.1478,370.1012,234.45,378.801" style="stroke:#A80036;stroke-width:0.9;"/><!--MD5=[f4bf28669fe4ba1101395c8fda9b28f2]
link CreateTestTypeController to ParameterCategoryStore--><path codeLine="54" d="M479.718,185.526 C495.747,201.024 512.199,219.96 522.9,240.3 C547.326,286.722 555.624,347.526 558.423,386.28 " fill="none" id="CreateTestTypeController-to-ParameterCategoryStore" style="stroke:#A80036;stroke-width:0.9;stroke-dasharray:7.0,7.0;"/><polygon fill="#A80036" points="558.729,390.888,561.7648,382.5601,558.4203,386.3986,554.5818,383.0541,558.729,390.888" style="stroke:#A80036;stroke-width:0.9;"/><!--MD5=[d826292dd1c3de1d289673c07e4766db]
link CreateTestTypeController to ParameterCategoryDto--><path codeLine="55" d="M562.329,185.445 C633.258,206.874 718.326,232.578 778.257,250.686 " fill="none" id="CreateTestTypeController-to-ParameterCategoryDto" style="stroke:#A80036;stroke-width:0.9;stroke-dasharray:7.0,7.0;"/><polygon fill="#A80036" points="782.883,252.081,776.167,246.2961,778.5746,250.782,774.0886,253.1896,782.883,252.081" style="stroke:#A80036;stroke-width:0.9;"/><!--MD5=[141c3afa12b2b3c0a39ffce56dbd5f19]
link Company to TestTypeStore--><path codeLine="56" d="M379.998,308.826 C349.632,328.689 310.608,354.222 276.966,376.227 " fill="none" id="Company-to-TestTypeStore" style="stroke:#A80036;stroke-width:0.9;"/><polygon fill="#A80036" points="272.889,378.891,281.6371,377.4625,276.6529,376.4246,277.6908,371.4403,272.889,378.891" style="stroke:#A80036;stroke-width:0.9;"/><text fill="#000000" font-family="sans-serif" font-size="11.7" lengthAdjust="spacing" textLength="25.2" x="339.3" y="348.7456">uses</text><text fill="#000000" font-family="sans-serif" font-size="11.7" lengthAdjust="spacing" textLength="6.3" x="365.0516" y="327.6386">1</text><text fill="#000000" font-family="sans-serif" font-size="11.7" lengthAdjust="spacing" textLength="6.3" x="275.9179" y="369.1054">1</text><!--MD5=[d53d7490e5836ca5709858d7326f212b]
link Company to ParameterCategoryStore--><path codeLine="57" d="M459.981,308.826 C480.186,332.208 507.168,363.438 527.985,387.531 " fill="none" id="Company-to-ParameterCategoryStore" style="stroke:#A80036;stroke-width:0.9;"/><polygon fill="#A80036" points="531.018,391.032,528.4641,382.5439,528.0831,387.6208,523.0062,387.2398,531.018,391.032" style="stroke:#A80036;stroke-width:0.9;"/><text fill="#000000" font-family="sans-serif" font-size="11.7" lengthAdjust="spacing" textLength="25.2" x="495.9" y="348.7456">uses</text><text fill="#000000" font-family="sans-serif" font-size="11.7" lengthAdjust="spacing" textLength="6.3" x="457.7819" y="327.6386">1</text><text fill="#000000" font-family="sans-serif" font-size="11.7" lengthAdjust="spacing" textLength="6.3" x="518.8305" y="381.1976">1</text><!--MD5=[3eebf0e5f359806b77b30e9524c37676]
link TestTypeStore to TestType--><path codeLine="58" d="M203.4,471.897 C203.4,491.958 203.4,515.727 203.4,536.904 " fill="none" id="TestTypeStore-to-TestType" style="stroke:#A80036;stroke-width:0.9;"/><polygon fill="#A80036" points="203.4,541.656,207,533.556,203.4,537.156,199.8,533.556,203.4,541.656" style="stroke:#A80036;stroke-width:0.9;"/><text fill="#000000" font-family="sans-serif" font-size="11.7" lengthAdjust="spacing" textLength="44.1" x="204.3" y="511.6456">contains</text><text fill="#000000" font-family="sans-serif" font-size="11.7" lengthAdjust="spacing" textLength="6.3" x="196.6767" y="491.2788">1</text><text fill="#000000" font-family="sans-serif" font-size="11.7" lengthAdjust="spacing" textLength="4.5" x="198.6258" y="532.0993">*</text><!--MD5=[58fac5310c1666a6e65c137533900c90]
link ParameterCategoryMapper to ParameterCategoryDto--><path codeLine="59" d="M759.168,166.617 C775.908,185.481 800.973,213.723 821.142,236.457 " fill="none" id="ParameterCategoryMapper-to-ParameterCategoryDto" style="stroke:#A80036;stroke-width:0.9;stroke-dasharray:7.0,7.0;"/><polygon fill="#A80036" points="824.337,240.057,821.6624,231.6062,821.3538,236.688,816.2719,236.3794,824.337,240.057" style="stroke:#A80036;stroke-width:0.9;"/><!--MD5=[19765d4468597c595e89fcbff5e25b10]
link ParameterCategoryMapper to ParameterCategory--><path codeLine="60" d="M739.215,166.509 C735.318,218.241 723.717,357.192 703.8,471.6 C698.85,500.049 691.29,531.783 685.161,555.741 " fill="none" id="ParameterCategoryMapper-to-ParameterCategory" style="stroke:#A80036;stroke-width:0.9;stroke-dasharray:7.0,7.0;"/><polygon fill="#A80036" points="684.027,560.124,689.5467,553.1884,685.1577,555.7684,682.5777,551.3793,684.027,560.124" style="stroke:#A80036;stroke-width:0.9;"/><!--MD5=[d6274e3b73b5bc8f467c6cfbf5bf003e]
link ParameterCategoryStore to ParameterCategory--><path codeLine="61" d="M582.84,459.621 C602.064,487.566 629.451,527.355 649.368,556.299 " fill="none" id="ParameterCategoryStore-to-ParameterCategory" style="stroke:#A80036;stroke-width:0.9;"/><polygon fill="#A80036" points="652.005,560.133,650.3968,551.4161,649.4616,556.4207,644.4571,555.4856,652.005,560.133" style="stroke:#A80036;stroke-width:0.9;"/><text fill="#000000" font-family="sans-serif" font-size="11.7" lengthAdjust="spacing" textLength="44.1" x="618.3" y="511.6456">contains</text><text fill="#000000" font-family="sans-serif" font-size="11.7" lengthAdjust="spacing" textLength="6.3" x="579.71" y="478.4407">1</text><text fill="#000000" font-family="sans-serif" font-size="11.7" lengthAdjust="spacing" textLength="18" x="628.3059" y="550.5379">1..*</text><!--MD5=[c45f457de5a2920fc569136228c1e729]
@startuml

class Company{
+getTypeTestStore()
+getParameterCategoryStore()
}

class CreateTestTypeUI{
}

class CreateTestTypeController{
+createTestType(code,description,collecting method,selectedParameterCategoriesList)
+saveTestType()
+List<ParameterCategoryDto> getParameterCategories()
}

class TestType{
-String code
-String description
-String collectingMethod
-List<ParameterCategories> listOfParameterCategories
+TestType(code,description,collectingMethod,listOfParameterCategories)
}

class TestTypeStore{
+createTestType(code,description,collecting method,selectedParameterCategoriesList)
+validateTestType(testType)
+addTestType(testType)
+saveTestType((testType)
}

class ParameterCategoryStore{
+List<ParameterCategory> getParameterCategoryList()
+ParameterCategory getParameterCategorybyCode()
}

class ParameterCategoryMapper{
}


class ParameterCategoryDto{
+ String name
+ String code
}

class ParameterCategory{
+ String name
+ String code
}

CreateTestTypeUI ..> CreateTestTypeController
CreateTestTypeUI ..> ParameterCategoryDto
CreateTestTypeController ..> Company
CreateTestTypeController ..> TestTypeStore
CreateTestTypeController ..> ParameterCategoryStore
CreateTestTypeController ..> ParameterCategoryDto
Company"1"- -> "1" TestTypeStore : uses
Company"1"- -> "1" ParameterCategoryStore : uses
TestTypeStore "1"- ->"*" TestType : contains
ParameterCategoryMapper ..> ParameterCategoryDto
ParameterCategoryMapper ..> ParameterCategory
ParameterCategoryStore "1"- -> "1..*"ParameterCategory : contains

@enduml

PlantUML version 1.2021.5(Sun Apr 25 12:20:28 BST 2021)
(GPL source distribution)
Java Runtime: OpenJDK Runtime Environment
JVM: OpenJDK 64-Bit Server VM
Default Encoding: Cp1252
Language: pt
Country: PT
--></g></svg>