<?xml version="1.0" encoding="UTF-8" standalone="no"?><svg xmlns="http://www.w3.org/2000/svg" xmlns:xlink="http://www.w3.org/1999/xlink" contentScriptType="application/ecmascript" contentStyleType="text/css" height="456px" preserveAspectRatio="none" style="width:1249px;height:456px;" version="1.1" viewBox="0 0 1249 456" width="1249.5px" zoomAndPan="magnify"><defs><filter height="300%" id="f11lqri7yedr7x" width="300%" x="-1" y="-1"><feGaussianBlur result="blurOut" stdDeviation="3.0"/><feColorMatrix in="blurOut" result="blurOut2" type="matrix" values="0 0 0 0 0 0 0 0 0 0 0 0 0 0 0 0 0 0 .4 0"/><feOffset dx="6.0" dy="6.0" in="blurOut2" result="blurOut3"/><feBlend in="SourceGraphic" in2="blurOut3" mode="normal"/></filter></defs><g><!--MD5=[02e4b9b7573f1156f41e60aa5b4e25a4]
class Company--><rect codeLine="5" fill="#FEFECE" filter="url(#f11lqri7yedr7x)" height="80.7539" id="Company" style="stroke:#A80036;stroke-width:2.25;" width="127.5" x="10.5" y="255.75"/><ellipse cx="33" cy="279.75" fill="#ADD1B2" rx="16.5" ry="16.5" style="stroke:#A80036;stroke-width:1.5;"/><path d="M36,274.5 Q36.3047,273.75 36.6563,273.375 Q37.0078,273 37.4063,273 Q38.1094,273 38.5547,273.4219 Q39,273.8438 39,274.8281 L39,277.1719 Q39,278.1563 38.5781,278.5781 Q38.1563,279 37.5,279 Q36.9141,279 36.5391,278.7422 Q36.1641,278.4844 36,277.8047 Q35.9297,277.3359 35.6719,277.0781 Q35.2031,276.5859 34.3594,276.3047 Q33.5156,276 32.6719,276 Q31.6172,276 30.7266,276.4219 Q29.8594,276.8438 29.1797,277.7813 Q28.5,278.7188 28.5,280.0078 L28.5,281.3906 Q28.5,282.9375 29.7656,283.9688 Q31.0313,285 33.2813,285 Q34.6172,285 35.5547,284.6953 Q36.0938,284.5313 36.7031,283.9922 Q37.1016,283.6875 37.3125,283.5938 Q37.5234,283.5 37.7813,283.5 Q38.2734,283.5 38.625,283.8984 Q39,284.2734 39,284.8125 Q39,285.3281 38.4844,285.9375 Q37.7344,286.8281 36.5391,287.3203 Q34.9688,288 33.0469,288 Q30.7969,288 28.9922,287.1094 Q27.5391,286.4063 26.5078,284.8828 Q25.5,283.3594 25.5,281.5547 L25.5,279.9141 Q25.5,278.0391 26.3906,276.3984 Q27.3047,274.7578 28.875,273.8906 Q30.4688,273 32.25,273 Q33.3281,273 34.2656,273.375 Q35.2031,273.75 36,274.5 Z " fill="#000000"/><text fill="#000000" font-family="sans-serif" font-size="18" lengthAdjust="spacing" textLength="79.5" x="54" y="287.1152">Company</text><line style="stroke:#A80036;stroke-width:2.25;" x1="12" x2="136.5" y1="303.75" y2="303.75"/><text fill="#000000" font-family="sans-serif" font-size="16.5" lengthAdjust="spacing" textLength="88.5" x="19.5" y="326.8784">-designation</text><!--MD5=[da547346deef918ea16944ba046651ef]
class Administrator--><rect codeLine="10" fill="#FEFECE" filter="url(#f11lqri7yedr7x)" height="205.2773" id="Administrator" style="stroke:#A80036;stroke-width:2.25;" width="157.5" x="282" y="10.5"/><ellipse cx="304.5" cy="34.5" fill="#ADD1B2" rx="16.5" ry="16.5" style="stroke:#A80036;stroke-width:1.5;"/><path d="M307.5,29.25 Q307.8047,28.5 308.1563,28.125 Q308.5078,27.75 308.9063,27.75 Q309.6094,27.75 310.0547,28.1719 Q310.5,28.5938 310.5,29.5781 L310.5,31.9219 Q310.5,32.9063 310.0781,33.3281 Q309.6563,33.75 309,33.75 Q308.4141,33.75 308.0391,33.4922 Q307.6641,33.2344 307.5,32.5547 Q307.4297,32.0859 307.1719,31.8281 Q306.7031,31.3359 305.8594,31.0547 Q305.0156,30.75 304.1719,30.75 Q303.1172,30.75 302.2266,31.1719 Q301.3594,31.5938 300.6797,32.5313 Q300,33.4688 300,34.7578 L300,36.1406 Q300,37.6875 301.2656,38.7188 Q302.5313,39.75 304.7813,39.75 Q306.1172,39.75 307.0547,39.4453 Q307.5938,39.2813 308.2031,38.7422 Q308.6016,38.4375 308.8125,38.3438 Q309.0234,38.25 309.2813,38.25 Q309.7734,38.25 310.125,38.6484 Q310.5,39.0234 310.5,39.5625 Q310.5,40.0781 309.9844,40.6875 Q309.2344,41.5781 308.0391,42.0703 Q306.4688,42.75 304.5469,42.75 Q302.2969,42.75 300.4922,41.8594 Q299.0391,41.1563 298.0078,39.6328 Q297,38.1094 297,36.3047 L297,34.6641 Q297,32.7891 297.8906,31.1484 Q298.8047,29.5078 300.375,28.6406 Q301.9688,27.75 303.75,27.75 Q304.8281,27.75 305.7656,28.125 Q306.7031,28.5 307.5,29.25 Z " fill="#000000"/><text fill="#000000" font-family="sans-serif" font-size="18" lengthAdjust="spacing" textLength="109.5" x="325.5" y="41.8652">Administrator</text><line style="stroke:#A80036;stroke-width:2.25;" x1="283.5" x2="438" y1="58.5" y2="58.5"/><text fill="#000000" font-family="sans-serif" font-size="16.5" lengthAdjust="spacing" textLength="45" x="291" y="81.6284">-name</text><text fill="#000000" font-family="sans-serif" font-size="16.5" lengthAdjust="spacing" textLength="66" x="291" y="102.3823">-address</text><text fill="#000000" font-family="sans-serif" font-size="16.5" lengthAdjust="spacing" textLength="106.5" x="291" y="123.1362">-phoneNumber</text><text fill="#000000" font-family="sans-serif" font-size="16.5" lengthAdjust="spacing" textLength="42" x="291" y="143.8901">-email</text><text fill="#000000" font-family="sans-serif" font-size="16.5" lengthAdjust="spacing" textLength="87" x="291" y="164.644">-employeeId</text><text fill="#000000" font-family="sans-serif" font-size="16.5" lengthAdjust="spacing" textLength="126" x="291" y="185.3979">-organizationRole</text><text fill="#000000" font-family="sans-serif" font-size="16.5" lengthAdjust="spacing" textLength="70.5" x="291" y="206.1519">-socCode</text><!--MD5=[aeb3272166074d8737a70b61b1e71682]
class TestType--><rect codeLine="20" fill="#FEFECE" filter="url(#f11lqri7yedr7x)" height="122.2617" id="TestType" style="stroke:#A80036;stroke-width:2.25;" width="144" x="661.5" y="225.75"/><ellipse cx="693.45" cy="249.75" fill="#ADD1B2" rx="16.5" ry="16.5" style="stroke:#A80036;stroke-width:1.5;"/><path d="M696.45,244.5 Q696.7547,243.75 697.1063,243.375 Q697.4578,243 697.8563,243 Q698.5594,243 699.0047,243.4219 Q699.45,243.8438 699.45,244.8281 L699.45,247.1719 Q699.45,248.1563 699.0281,248.5781 Q698.6063,249 697.95,249 Q697.3641,249 696.9891,248.7422 Q696.6141,248.4844 696.45,247.8047 Q696.3797,247.3359 696.1219,247.0781 Q695.6531,246.5859 694.8094,246.3047 Q693.9656,246 693.1219,246 Q692.0672,246 691.1766,246.4219 Q690.3094,246.8438 689.6297,247.7813 Q688.95,248.7188 688.95,250.0078 L688.95,251.3906 Q688.95,252.9375 690.2156,253.9688 Q691.4813,255 693.7313,255 Q695.0672,255 696.0047,254.6953 Q696.5438,254.5313 697.1531,253.9922 Q697.5516,253.6875 697.7625,253.5938 Q697.9734,253.5 698.2313,253.5 Q698.7234,253.5 699.075,253.8984 Q699.45,254.2734 699.45,254.8125 Q699.45,255.3281 698.9344,255.9375 Q698.1844,256.8281 696.9891,257.3203 Q695.4188,258 693.4969,258 Q691.2469,258 689.4422,257.1094 Q687.9891,256.4063 686.9578,254.8828 Q685.95,253.3594 685.95,251.5547 L685.95,249.9141 Q685.95,248.0391 686.8406,246.3984 Q687.7547,244.7578 689.325,243.8906 Q690.9188,243 692.7,243 Q693.7781,243 694.7156,243.375 Q695.6531,243.75 696.45,244.5 Z " fill="#000000"/><text fill="#000000" font-family="sans-serif" font-size="18" lengthAdjust="spacing" textLength="75" x="716.55" y="257.1152">TestType</text><line style="stroke:#A80036;stroke-width:2.25;" x1="663" x2="804" y1="273.75" y2="273.75"/><text fill="#000000" font-family="sans-serif" font-size="16.5" lengthAdjust="spacing" textLength="42" x="670.5" y="296.8784">-code</text><text fill="#000000" font-family="sans-serif" font-size="16.5" lengthAdjust="spacing" textLength="85.5" x="670.5" y="317.6323">-description</text><text fill="#000000" font-family="sans-serif" font-size="16.5" lengthAdjust="spacing" textLength="126" x="670.5" y="338.3862">-collectingMethod</text><!--MD5=[36afb6bbd95a8ac778c4537c55a683d5]
class ParameterCategory--><rect codeLine="27" fill="#FEFECE" filter="url(#f11lqri7yedr7x)" height="101.5078" id="ParameterCategory" style="stroke:#A80036;stroke-width:2.25;" width="208.5" x="1020" y="333.75"/><ellipse cx="1042.5" cy="357.75" fill="#ADD1B2" rx="16.5" ry="16.5" style="stroke:#A80036;stroke-width:1.5;"/><path d="M1045.5,352.5 Q1045.8047,351.75 1046.1563,351.375 Q1046.5078,351 1046.9063,351 Q1047.6094,351 1048.0547,351.4219 Q1048.5,351.8438 1048.5,352.8281 L1048.5,355.1719 Q1048.5,356.1563 1048.0781,356.5781 Q1047.6563,357 1047,357 Q1046.4141,357 1046.0391,356.7422 Q1045.6641,356.4844 1045.5,355.8047 Q1045.4297,355.3359 1045.1719,355.0781 Q1044.7031,354.5859 1043.8594,354.3047 Q1043.0156,354 1042.1719,354 Q1041.1172,354 1040.2266,354.4219 Q1039.3594,354.8438 1038.6797,355.7813 Q1038,356.7188 1038,358.0078 L1038,359.3906 Q1038,360.9375 1039.2656,361.9688 Q1040.5313,363 1042.7813,363 Q1044.1172,363 1045.0547,362.6953 Q1045.5938,362.5313 1046.2031,361.9922 Q1046.6016,361.6875 1046.8125,361.5938 Q1047.0234,361.5 1047.2813,361.5 Q1047.7734,361.5 1048.125,361.8984 Q1048.5,362.2734 1048.5,362.8125 Q1048.5,363.3281 1047.9844,363.9375 Q1047.2344,364.8281 1046.0391,365.3203 Q1044.4688,366 1042.5469,366 Q1040.2969,366 1038.4922,365.1094 Q1037.0391,364.4063 1036.0078,362.8828 Q1035,361.3594 1035,359.5547 L1035,357.9141 Q1035,356.0391 1035.8906,354.3984 Q1036.8047,352.7578 1038.375,351.8906 Q1039.9688,351 1041.75,351 Q1042.8281,351 1043.7656,351.375 Q1044.7031,351.75 1045.5,352.5 Z " fill="#000000"/><text fill="#000000" font-family="sans-serif" font-size="18" lengthAdjust="spacing" textLength="160.5" x="1063.5" y="365.1152">ParameterCategory</text><line style="stroke:#A80036;stroke-width:2.25;" x1="1021.5" x2="1227" y1="381.75" y2="381.75"/><text fill="#000000" font-family="sans-serif" font-size="16.5" lengthAdjust="spacing" textLength="45" x="1029" y="404.8784">-name</text><text fill="#000000" font-family="sans-serif" font-size="16.5" lengthAdjust="spacing" textLength="42" x="1029" y="425.6323">-code</text><!--MD5=[eaea43e34e45c5b9d20b595fc78f1f20]
link Company to Administrator--><path codeLine="33" d="M138.675,255.63 C180.915,228.36 236.865,192.255 281.85,163.215 " fill="none" id="Company-Administrator" style="stroke:#A80036;stroke-width:1.5;"/><polygon fill="#000000" points="196.8013,176.9464,183.0114,180.6004,187.7928,188.008,196.8013,176.9464" style="stroke:#000000;stroke-width:1.5;"/><text fill="#000000" font-family="sans-serif" font-size="19.5" lengthAdjust="spacing" textLength="31.5" x="204" y="188.9927">has</text><text fill="#000000" font-family="sans-serif" font-size="19.5" lengthAdjust="spacing" textLength="10.5" x="150.2149" y="271.1965">1</text><text fill="#000000" font-family="sans-serif" font-size="19.5" lengthAdjust="spacing" textLength="30" x="239.8191" y="191.445">1..*</text><!--MD5=[742a261f27a3dcd734c626287d811acd]
link Company to TestType--><path codeLine="34" d="M138.075,295.395 C260.625,293.715 532.17,289.995 661.23,288.225 " fill="none" id="Company-TestType" style="stroke:#A80036;stroke-width:1.5;"/><polygon fill="#000000" points="324.7493,278.4109,311.1225,274.1888,311.2434,283.0048,324.7493,278.4109" style="stroke:#000000;stroke-width:1.5;"/><text fill="#000000" font-family="sans-serif" font-size="19.5" lengthAdjust="spacing" textLength="79.5" x="330.75" y="286.4927">conducts</text><text fill="#000000" font-family="sans-serif" font-size="19.5" lengthAdjust="spacing" textLength="10.5" x="149.9473" y="317.6197">1</text><text fill="#000000" font-family="sans-serif" font-size="19.5" lengthAdjust="spacing" textLength="30" x="619.5031" y="310.2962">1..*</text><!--MD5=[93b4f25fb503a8e0e9a46b1d30ff3f44]
link Company to ParameterCategory--><path codeLine="35" d="M138.345,307.17 C245.205,325.26 469.905,360.93 661.5,375.75 C784.47,385.26 926.415,386.595 1020,386.13 " fill="none" id="Company-ParameterCategory" style="stroke:#A80036;stroke-width:1.5;"/><polygon fill="#000000" points="524.9701,345.1827,511.8498,339.5816,511.0633,348.3632,524.9701,345.1827" style="stroke:#000000;stroke-width:1.5;"/><text fill="#000000" font-family="sans-serif" font-size="19.5" lengthAdjust="spacing" textLength="58.5" x="531" y="352.4927">adopts</text><text fill="#000000" font-family="sans-serif" font-size="19.5" lengthAdjust="spacing" textLength="10.5" x="149.8303" y="303.2979">1</text><text fill="#000000" font-family="sans-serif" font-size="19.5" lengthAdjust="spacing" textLength="30" x="977.7023" y="407.8051">1..*</text><!--MD5=[71159b3869b6d7a411768e18bcaa697a]
link Administrator to TestType--><path codeLine="36" d="M439.755,149.73 C505.2,180.525 598.095,224.235 661.47,254.055 " fill="none" id="Administrator-TestType" style="stroke:#A80036;stroke-width:1.5;"/><polygon fill="#000000" points="498.7863,164.7069,488.3867,154.9415,484.6329,162.9192,498.7863,164.7069" style="stroke:#000000;stroke-width:1.5;"/><text fill="#000000" font-family="sans-serif" font-size="19.5" lengthAdjust="spacing" textLength="109.5" x="505.5" y="169.4927">specifies the</text><text fill="#000000" font-family="sans-serif" font-size="19.5" lengthAdjust="spacing" textLength="10.5" x="451.6034" y="176.8429">1</text><text fill="#000000" font-family="sans-serif" font-size="19.5" lengthAdjust="spacing" textLength="7.5" x="641.8926" y="271.0206">*</text><!--MD5=[8aaf0efd5e2f3824be7ea3e488dcc283]
link TestType to ParameterCategory--><path codeLine="37" d="M805.665,305.025 C865.515,320.07 952.125,341.85 1019.7,358.845 " fill="none" id="TestType-ParameterCategory" style="stroke:#A80036;stroke-width:1.5;"/><polygon fill="#000000" points="865.2736,307.3426,853.1906,299.7587,851.0405,308.3093,865.2736,307.3426" style="stroke:#000000;stroke-width:1.5;"/><text fill="#000000" font-family="sans-serif" font-size="19.5" lengthAdjust="spacing" textLength="102" x="871.5" y="313.4927">has a set of</text><text fill="#000000" font-family="sans-serif" font-size="19.5" lengthAdjust="spacing" textLength="7.5" x="817.2895" y="329.9239">*</text><text fill="#000000" font-family="sans-serif" font-size="19.5" lengthAdjust="spacing" textLength="30" x="977.9318" y="377.7691">1..*</text><!--MD5=[39ca6d544a63c2ba7866ea164ddc1458]
@startuml
hide methods
left to right direction
skinparam classAttributeIconSize 0

class Company{
-designation
}


class Administrator{
-name
-address
-phoneNumber
-email
-employeeId
-organizationRole
-socCode
}

class TestType{
-code
-description
-collectingMethod
}


class ParameterCategory{
-name
-code
}


Company "1"- -"1..*" Administrator : has >
Company "1"- -"1..*" TestType : conducts >
Company "1"- -"1..*" ParameterCategory : adopts >
Administrator "1"- -"*" TestType : specifies the >
TestType "*"- -"1..*" ParameterCategory : has a set of >

@enduml

PlantUML version 1.2021.5(Sun Apr 25 12:20:28 BST 2021)
(GPL source distribution)
Java Runtime: OpenJDK Runtime Environment
JVM: OpenJDK 64-Bit Server VM
Default Encoding: Cp1252
Language: pt
Country: PT
--></g></svg>