<?xml version="1.0" encoding="UTF-8" standalone="no"?><svg xmlns="http://www.w3.org/2000/svg" xmlns:xlink="http://www.w3.org/1999/xlink" contentScriptType="application/ecmascript" contentStyleType="text/css" height="540px" preserveAspectRatio="none" style="width:718px;height:540px;" version="1.1" viewBox="0 0 718 540" width="718.2px" zoomAndPan="magnify"><defs><filter height="300%" id="f1r6nqcbu66nk9" width="300%" x="-1" y="-1"><feGaussianBlur result="blurOut" stdDeviation="1.2"/><feColorMatrix in="blurOut" result="blurOut2" type="matrix" values="0 0 0 0 0 0 0 0 0 0 0 0 0 0 0 0 0 0 .4 0"/><feOffset dx="2.4" dy="2.4" in="blurOut2" result="blurOut3"/><feBlend in="SourceGraphic" in2="blurOut3" mode="normal"/></filter></defs><g><!--MD5=[02e4b9b7573f1156f41e60aa5b4e25a4]
class Company--><rect codeLine="2" fill="#FEFECE" filter="url(#f1r6nqcbu66nk9)" height="53.7047" id="Company" style="stroke:#A80036;stroke-width:0.8999999999999999;" width="100.8" x="196.8" y="160.2"/><ellipse cx="228.75" cy="169.8" fill="#ADD1B2" rx="6.6" ry="6.6" style="stroke:#A80036;stroke-width:0.6;"/><path d="M229.95,167.7 Q230.0719,167.4 230.2125,167.25 Q230.3531,167.1 230.5125,167.1 Q230.7938,167.1 230.9719,167.2687 Q231.15,167.4375 231.15,167.8312 L231.15,168.7687 Q231.15,169.1625 230.9813,169.3312 Q230.8125,169.5 230.55,169.5 Q230.3156,169.5 230.1656,169.3969 Q230.0156,169.2938 229.95,169.0219 Q229.9219,168.8344 229.8188,168.7313 Q229.6313,168.5344 229.2938,168.4219 Q228.9562,168.3 228.6188,168.3 Q228.1969,168.3 227.8406,168.4688 Q227.4938,168.6375 227.2219,169.0125 Q226.95,169.3875 226.95,169.9031 L226.95,170.4562 Q226.95,171.075 227.4562,171.4875 Q227.9625,171.9 228.8625,171.9 Q229.3969,171.9 229.7719,171.7781 Q229.9875,171.7125 230.2313,171.4969 Q230.3906,171.375 230.475,171.3375 Q230.5594,171.3 230.6625,171.3 Q230.8594,171.3 231,171.4594 Q231.15,171.6094 231.15,171.825 Q231.15,172.0313 230.9438,172.275 Q230.6437,172.6313 230.1656,172.8281 Q229.5375,173.1 228.7687,173.1 Q227.8688,173.1 227.1469,172.7438 Q226.5656,172.4625 226.1531,171.8531 Q225.75,171.2438 225.75,170.5219 L225.75,169.8656 Q225.75,169.1156 226.1063,168.4594 Q226.4719,167.8031 227.1,167.4562 Q227.7375,167.1 228.45,167.1 Q228.8813,167.1 229.2563,167.25 Q229.6313,167.4 229.95,167.7 Z " fill="#000000"/><text fill="#000000" font-family="sans-serif" font-size="7.2" lengthAdjust="spacing" textLength="31.8" x="241.05" y="172.7461">Company</text><line style="stroke:#A80036;stroke-width:0.8999999999999999;" x1="197.4" x2="297" y1="179.4" y2="179.4"/><rect fill="none" height="3.6" style="stroke:#C82930;stroke-width:0.6;" width="3.6" x="201.6" y="184.2"/><text fill="#000000" font-family="sans-serif" font-size="6.6" lengthAdjust="spacing" textLength="51.6" x="208.8" y="188.6514">String designation</text><line style="stroke:#A80036;stroke-width:0.8999999999999999;" x1="197.4" x2="297" y1="192.5016" y2="192.5016"/><ellipse cx="203.4" cy="199.1016" fill="#84BE84" rx="1.8" ry="1.8" style="stroke:#038048;stroke-width:0.6;"/><text fill="#000000" font-family="sans-serif" font-size="6.6" lengthAdjust="spacing" textLength="56.4" x="208.8" y="201.7529">getTestTypeStore()</text><ellipse cx="203.4" cy="207.4031" fill="#84BE84" rx="1.8" ry="1.8" style="stroke:#038048;stroke-width:0.6;"/><text fill="#000000" font-family="sans-serif" font-size="6.6" lengthAdjust="spacing" textLength="85.2" x="208.8" y="210.0545">getParameterCategoryStore()</text><!--MD5=[bebdcc43ebcb1534ee764d1f430c03ae]
class CreateTestTypeUI--><rect codeLine="8" fill="#FEFECE" filter="url(#f1r6nqcbu66nk9)" height="28.8" id="CreateTestTypeUI" style="stroke:#A80036;stroke-width:0.8999999999999999;" width="78.6" x="518.7" y="4.2"/><ellipse cx="527.7" cy="13.8" fill="#ADD1B2" rx="6.6" ry="6.6" style="stroke:#A80036;stroke-width:0.6;"/><path d="M528.9,11.7 Q529.0219,11.4 529.1625,11.25 Q529.3031,11.1 529.4625,11.1 Q529.7438,11.1 529.9219,11.2687 Q530.1,11.4375 530.1,11.8312 L530.1,12.7687 Q530.1,13.1625 529.9313,13.3312 Q529.7625,13.5 529.5,13.5 Q529.2656,13.5 529.1156,13.3969 Q528.9656,13.2938 528.9,13.0219 Q528.8719,12.8344 528.7688,12.7313 Q528.5813,12.5344 528.2438,12.4219 Q527.9063,12.3 527.5688,12.3 Q527.1469,12.3 526.7906,12.4688 Q526.4438,12.6375 526.1719,13.0125 Q525.9,13.3875 525.9,13.9031 L525.9,14.4562 Q525.9,15.075 526.4063,15.4875 Q526.9125,15.9 527.8125,15.9 Q528.3469,15.9 528.7219,15.7781 Q528.9375,15.7125 529.1813,15.4969 Q529.3406,15.375 529.425,15.3375 Q529.5094,15.3 529.6125,15.3 Q529.8094,15.3 529.95,15.4594 Q530.1,15.6094 530.1,15.825 Q530.1,16.0313 529.8938,16.275 Q529.5938,16.6312 529.1156,16.8281 Q528.4875,17.1 527.7188,17.1 Q526.8188,17.1 526.0969,16.7438 Q525.5156,16.4625 525.1031,15.8531 Q524.7,15.2437 524.7,14.5219 L524.7,13.8656 Q524.7,13.1156 525.0563,12.4594 Q525.4219,11.8031 526.05,11.4562 Q526.6875,11.1 527.4,11.1 Q527.8313,11.1 528.2063,11.25 Q528.5813,11.4 528.9,11.7 Z " fill="#000000"/><text fill="#000000" font-family="sans-serif" font-size="7.2" lengthAdjust="spacing" textLength="59.4" x="536.1" y="16.7461">CreateTestTypeUI</text><line style="stroke:#A80036;stroke-width:0.8999999999999999;" x1="519.3" x2="596.7" y1="23.4" y2="23.4"/><line style="stroke:#A80036;stroke-width:0.8999999999999999;" x1="519.3" x2="596.7" y1="28.2" y2="28.2"/><!--MD5=[2c845ebea24388d268f5a9acbeca4fd9]
class CreateTestTypeController--><rect codeLine="11" fill="#FEFECE" filter="url(#f1r6nqcbu66nk9)" height="53.7047" id="CreateTestTypeController" style="stroke:#A80036;stroke-width:0.8999999999999999;" width="287.4" x="232.5" y="69.6"/><ellipse cx="331.35" cy="79.2" fill="#ADD1B2" rx="6.6" ry="6.6" style="stroke:#A80036;stroke-width:0.6;"/><path d="M332.55,77.1 Q332.6719,76.8 332.8125,76.65 Q332.9531,76.5 333.1125,76.5 Q333.3938,76.5 333.5719,76.6688 Q333.75,76.8375 333.75,77.2313 L333.75,78.1688 Q333.75,78.5625 333.5813,78.7313 Q333.4125,78.9 333.15,78.9 Q332.9156,78.9 332.7656,78.7969 Q332.6156,78.6938 332.55,78.4219 Q332.5219,78.2344 332.4188,78.1313 Q332.2313,77.9344 331.8938,77.8219 Q331.5563,77.7 331.2188,77.7 Q330.7969,77.7 330.4406,77.8687 Q330.0938,78.0375 329.8219,78.4125 Q329.55,78.7875 329.55,79.3031 L329.55,79.8563 Q329.55,80.475 330.0563,80.8875 Q330.5625,81.3 331.4625,81.3 Q331.9969,81.3 332.3719,81.1781 Q332.5875,81.1125 332.8313,80.8969 Q332.9906,80.775 333.075,80.7375 Q333.1594,80.7 333.2625,80.7 Q333.4594,80.7 333.6,80.8594 Q333.75,81.0094 333.75,81.225 Q333.75,81.4312 333.5438,81.675 Q333.2438,82.0313 332.7656,82.2281 Q332.1375,82.5 331.3688,82.5 Q330.4688,82.5 329.7469,82.1438 Q329.1656,81.8625 328.7531,81.2531 Q328.35,80.6438 328.35,79.9219 L328.35,79.2656 Q328.35,78.5156 328.7063,77.8594 Q329.0719,77.2031 329.7,76.8563 Q330.3375,76.5 331.05,76.5 Q331.4813,76.5 331.8563,76.65 Q332.2313,76.8 332.55,77.1 Z " fill="#000000"/><text fill="#000000" font-family="sans-serif" font-size="7.2" lengthAdjust="spacing" textLength="84.6" x="343.65" y="82.1461">CreateTestTypeController</text><line style="stroke:#A80036;stroke-width:0.8999999999999999;" x1="233.1" x2="519.3" y1="88.8" y2="88.8"/><line style="stroke:#A80036;stroke-width:0.8999999999999999;" x1="233.1" x2="519.3" y1="93.6" y2="93.6"/><ellipse cx="239.1" cy="100.2" fill="#84BE84" rx="1.8" ry="1.8" style="stroke:#038048;stroke-width:0.6;"/><text fill="#000000" font-family="sans-serif" font-size="6.6" lengthAdjust="spacing" textLength="271.8" x="244.5" y="102.8514">boolean createTestType(code,description,collecting method,selectedParameterCategoriesList)</text><ellipse cx="239.1" cy="108.5016" fill="#84BE84" rx="1.8" ry="1.8" style="stroke:#038048;stroke-width:0.6;"/><text fill="#000000" font-family="sans-serif" font-size="6.6" lengthAdjust="spacing" textLength="70.8" x="244.5" y="111.1529">boolean saveTestType()</text><ellipse cx="239.1" cy="116.8031" fill="#84BE84" rx="1.8" ry="1.8" style="stroke:#038048;stroke-width:0.6;"/><text fill="#000000" font-family="sans-serif" font-size="6.6" lengthAdjust="spacing" textLength="159" x="244.5" y="119.4545">List&lt;ParameterCategoryDto&gt; getParameterCategories()</text><!--MD5=[aeb3272166074d8737a70b61b1e71682]
class TestType--><rect codeLine="17" fill="#FEFECE" filter="url(#f1r6nqcbu66nk9)" height="70.3078" id="TestType" style="stroke:#A80036;stroke-width:0.8999999999999999;" width="222.6" x="87.3" y="369.6"/><ellipse cx="181.05" cy="379.2" fill="#ADD1B2" rx="6.6" ry="6.6" style="stroke:#A80036;stroke-width:0.6;"/><path d="M182.25,377.1 Q182.3719,376.8 182.5125,376.65 Q182.6531,376.5 182.8125,376.5 Q183.0938,376.5 183.2719,376.6688 Q183.45,376.8375 183.45,377.2313 L183.45,378.1688 Q183.45,378.5625 183.2813,378.7313 Q183.1125,378.9 182.85,378.9 Q182.6156,378.9 182.4656,378.7969 Q182.3156,378.6937 182.25,378.4219 Q182.2219,378.2344 182.1188,378.1312 Q181.9313,377.9344 181.5938,377.8219 Q181.2563,377.7 180.9188,377.7 Q180.4969,377.7 180.1406,377.8688 Q179.7938,378.0375 179.5219,378.4125 Q179.25,378.7875 179.25,379.3031 L179.25,379.8563 Q179.25,380.475 179.7563,380.8875 Q180.2625,381.3 181.1625,381.3 Q181.6969,381.3 182.0719,381.1781 Q182.2875,381.1125 182.5313,380.8969 Q182.6906,380.775 182.775,380.7375 Q182.8594,380.7 182.9625,380.7 Q183.1594,380.7 183.3,380.8594 Q183.45,381.0094 183.45,381.225 Q183.45,381.4313 183.2438,381.675 Q182.9438,382.0313 182.4656,382.2281 Q181.8375,382.5 181.0688,382.5 Q180.1688,382.5 179.4469,382.1438 Q178.8656,381.8625 178.4531,381.2531 Q178.05,380.6438 178.05,379.9219 L178.05,379.2656 Q178.05,378.5156 178.4063,377.8594 Q178.7719,377.2031 179.4,376.8563 Q180.0375,376.5 180.75,376.5 Q181.1813,376.5 181.5563,376.65 Q181.9313,376.8 182.25,377.1 Z " fill="#000000"/><text fill="#000000" font-family="sans-serif" font-size="7.2" lengthAdjust="spacing" textLength="30" x="193.35" y="382.1461">TestType</text><line style="stroke:#A80036;stroke-width:0.8999999999999999;" x1="87.9" x2="309.3" y1="388.8" y2="388.8"/><rect fill="none" height="3.6" style="stroke:#C82930;stroke-width:0.6;" width="3.6" x="92.1" y="393.6"/><text fill="#000000" font-family="sans-serif" font-size="6.6" lengthAdjust="spacing" textLength="33" x="99.3" y="398.0514">String code</text><rect fill="none" height="3.6" style="stroke:#C82930;stroke-width:0.6;" width="3.6" x="92.1" y="401.9016"/><text fill="#000000" font-family="sans-serif" font-size="6.6" lengthAdjust="spacing" textLength="50.4" x="99.3" y="406.3529">String description</text><rect fill="none" height="3.6" style="stroke:#C82930;stroke-width:0.6;" width="3.6" x="92.1" y="410.2031"/><text fill="#000000" font-family="sans-serif" font-size="6.6" lengthAdjust="spacing" textLength="66.6" x="99.3" y="414.6545">String collectingMethod</text><rect fill="none" height="3.6" style="stroke:#C82930;stroke-width:0.6;" width="3.6" x="92.1" y="418.5047"/><text fill="#000000" font-family="sans-serif" font-size="6.6" lengthAdjust="spacing" textLength="155.4" x="99.3" y="422.9561">List&lt;ParameterCategories&gt; listOfParameterCategories</text><line style="stroke:#A80036;stroke-width:0.8999999999999999;" x1="87.9" x2="309.3" y1="426.8063" y2="426.8063"/><ellipse cx="93.9" cy="433.4063" fill="#84BE84" rx="1.8" ry="1.8" style="stroke:#038048;stroke-width:0.6;"/><text fill="#000000" font-family="sans-serif" font-size="6.6" lengthAdjust="spacing" textLength="207" x="99.3" y="436.0576">TestType(code,description,collectingMethod,listOfParameterCategories)</text><!--MD5=[6ba72ddf03822b91e8d41ca71de58ed3]
class TestTypeStore--><rect codeLine="25" fill="#FEFECE" filter="url(#f1r6nqcbu66nk9)" height="62.0062" id="TestTypeStore" style="stroke:#A80036;stroke-width:0.8999999999999999;" width="262.8" x="4.2" y="261"/><ellipse cx="109.35" cy="270.6" fill="#ADD1B2" rx="6.6" ry="6.6" style="stroke:#A80036;stroke-width:0.6;"/><path d="M110.55,268.5 Q110.6719,268.2 110.8125,268.05 Q110.9531,267.9 111.1125,267.9 Q111.3938,267.9 111.5719,268.0687 Q111.75,268.2375 111.75,268.6312 L111.75,269.5687 Q111.75,269.9625 111.5813,270.1312 Q111.4125,270.3 111.15,270.3 Q110.9156,270.3 110.7656,270.1969 Q110.6156,270.0938 110.55,269.8219 Q110.5219,269.6344 110.4188,269.5313 Q110.2313,269.3344 109.8938,269.2219 Q109.5562,269.1 109.2188,269.1 Q108.7969,269.1 108.4406,269.2688 Q108.0938,269.4375 107.8219,269.8125 Q107.55,270.1875 107.55,270.7031 L107.55,271.2562 Q107.55,271.875 108.0562,272.2875 Q108.5625,272.7 109.4625,272.7 Q109.9969,272.7 110.3719,272.5781 Q110.5875,272.5125 110.8313,272.2969 Q110.9906,272.175 111.075,272.1375 Q111.1594,272.1 111.2625,272.1 Q111.4594,272.1 111.6,272.2594 Q111.75,272.4094 111.75,272.625 Q111.75,272.8313 111.5438,273.075 Q111.2437,273.4313 110.7656,273.6281 Q110.1375,273.9 109.3687,273.9 Q108.4688,273.9 107.7469,273.5438 Q107.1656,273.2625 106.7531,272.6531 Q106.35,272.0438 106.35,271.3219 L106.35,270.6656 Q106.35,269.9156 106.7063,269.2594 Q107.0719,268.6031 107.7,268.2562 Q108.3375,267.9 109.05,267.9 Q109.4813,267.9 109.8563,268.05 Q110.2313,268.2 110.55,268.5 Z " fill="#000000"/><text fill="#000000" font-family="sans-serif" font-size="7.2" lengthAdjust="spacing" textLength="47.4" x="121.65" y="273.5461">TestTypeStore</text><line style="stroke:#A80036;stroke-width:0.8999999999999999;" x1="4.8" x2="266.4" y1="280.2" y2="280.2"/><line style="stroke:#A80036;stroke-width:0.8999999999999999;" x1="4.8" x2="266.4" y1="285" y2="285"/><ellipse cx="10.8" cy="291.6" fill="#84BE84" rx="1.8" ry="1.8" style="stroke:#038048;stroke-width:0.6;"/><text fill="#000000" font-family="sans-serif" font-size="6.6" lengthAdjust="spacing" textLength="247.2" x="16.2" y="294.2514">createTestType(code,description,collecting method,selectedParameterCategoriesList)</text><ellipse cx="10.8" cy="299.9016" fill="#84BE84" rx="1.8" ry="1.8" style="stroke:#038048;stroke-width:0.6;"/><text fill="#000000" font-family="sans-serif" font-size="6.6" lengthAdjust="spacing" textLength="79.2" x="16.2" y="302.5529">validateTestType(testType)</text><ellipse cx="10.8" cy="308.2031" fill="#84BE84" rx="1.8" ry="1.8" style="stroke:#038048;stroke-width:0.6;"/><text fill="#000000" font-family="sans-serif" font-size="6.6" lengthAdjust="spacing" textLength="67.8" x="16.2" y="310.8545">addTestType(testType)</text><ellipse cx="10.8" cy="316.5047" fill="#84BE84" rx="1.8" ry="1.8" style="stroke:#038048;stroke-width:0.6;"/><text fill="#000000" font-family="sans-serif" font-size="6.6" lengthAdjust="spacing" textLength="73.8" x="16.2" y="319.1561">saveTestType((testType)</text><!--MD5=[d802db621b5b215a6f0466f93cefcb42]
class ParameterCategoryStore--><rect codeLine="32" fill="#FEFECE" filter="url(#f1r6nqcbu66nk9)" height="45.4031" id="ParameterCategoryStore" style="stroke:#A80036;stroke-width:0.8999999999999999;" width="170.4" x="288" y="269.1"/><ellipse cx="329.85" cy="278.7" fill="#ADD1B2" rx="6.6" ry="6.6" style="stroke:#A80036;stroke-width:0.6;"/><path d="M331.05,276.6 Q331.1719,276.3 331.3125,276.15 Q331.4531,276 331.6125,276 Q331.8938,276 332.0719,276.1688 Q332.25,276.3375 332.25,276.7313 L332.25,277.6688 Q332.25,278.0625 332.0813,278.2313 Q331.9125,278.4 331.65,278.4 Q331.4156,278.4 331.2656,278.2969 Q331.1156,278.1937 331.05,277.9219 Q331.0219,277.7344 330.9188,277.6312 Q330.7313,277.4344 330.3938,277.3219 Q330.0563,277.2 329.7188,277.2 Q329.2969,277.2 328.9406,277.3688 Q328.5938,277.5375 328.3219,277.9125 Q328.05,278.2875 328.05,278.8031 L328.05,279.3563 Q328.05,279.975 328.5563,280.3875 Q329.0625,280.8 329.9625,280.8 Q330.4969,280.8 330.8719,280.6781 Q331.0875,280.6125 331.3313,280.3969 Q331.4906,280.275 331.575,280.2375 Q331.6594,280.2 331.7625,280.2 Q331.9594,280.2 332.1,280.3594 Q332.25,280.5094 332.25,280.725 Q332.25,280.9313 332.0438,281.175 Q331.7438,281.5313 331.2656,281.7281 Q330.6375,282 329.8688,282 Q328.9688,282 328.2469,281.6438 Q327.6656,281.3625 327.2531,280.7531 Q326.85,280.1438 326.85,279.4219 L326.85,278.7656 Q326.85,278.0156 327.2063,277.3594 Q327.5719,276.7031 328.2,276.3563 Q328.8375,276 329.55,276 Q329.9813,276 330.3563,276.15 Q330.7313,276.3 331.05,276.6 Z " fill="#000000"/><text fill="#000000" font-family="sans-serif" font-size="7.2" lengthAdjust="spacing" textLength="81.6" x="342.15" y="281.6461">ParameterCategoryStore</text><line style="stroke:#A80036;stroke-width:0.8999999999999999;" x1="288.6" x2="457.8" y1="288.3" y2="288.3"/><line style="stroke:#A80036;stroke-width:0.8999999999999999;" x1="288.6" x2="457.8" y1="293.1" y2="293.1"/><ellipse cx="294.6" cy="299.7" fill="#84BE84" rx="1.8" ry="1.8" style="stroke:#038048;stroke-width:0.6;"/><text fill="#000000" font-family="sans-serif" font-size="6.6" lengthAdjust="spacing" textLength="154.8" x="300" y="302.3514">List&lt;ParameterCategory&gt; getParameterCategoryList()</text><ellipse cx="294.6" cy="308.0016" fill="#84BE84" rx="1.8" ry="1.8" style="stroke:#038048;stroke-width:0.6;"/><text fill="#000000" font-family="sans-serif" font-size="6.6" lengthAdjust="spacing" textLength="149.4" x="300" y="310.6529">ParameterCategory getParameterCategorybyCode()</text><!--MD5=[fab6cba0d8a30102bb3e071a5ce00b91]
class ParameterCategoryMapper--><rect codeLine="37" fill="#FEFECE" filter="url(#f1r6nqcbu66nk9)" height="45.4031" id="ParameterCategoryMapper" style="stroke:#A80036;stroke-width:0.8999999999999999;" width="257.4" x="361.5" y="164.4"/><ellipse cx="443.25" cy="174" fill="#ADD1B2" rx="6.6" ry="6.6" style="stroke:#A80036;stroke-width:0.6;"/><path d="M444.45,171.9 Q444.5719,171.6 444.7125,171.45 Q444.8531,171.3 445.0125,171.3 Q445.2938,171.3 445.4719,171.4688 Q445.65,171.6375 445.65,172.0313 L445.65,172.9688 Q445.65,173.3625 445.4813,173.5313 Q445.3125,173.7 445.05,173.7 Q444.8156,173.7 444.6656,173.5969 Q444.5156,173.4938 444.45,173.2219 Q444.4219,173.0344 444.3187,172.9313 Q444.1312,172.7344 443.7938,172.6219 Q443.4563,172.5 443.1188,172.5 Q442.6969,172.5 442.3406,172.6688 Q441.9938,172.8375 441.7219,173.2125 Q441.45,173.5875 441.45,174.1031 L441.45,174.6563 Q441.45,175.275 441.9563,175.6875 Q442.4625,176.1 443.3625,176.1 Q443.8969,176.1 444.2719,175.9781 Q444.4875,175.9125 444.7313,175.6969 Q444.8906,175.575 444.975,175.5375 Q445.0594,175.5 445.1625,175.5 Q445.3594,175.5 445.5,175.6594 Q445.65,175.8094 445.65,176.025 Q445.65,176.2313 445.4437,176.475 Q445.1438,176.8312 444.6656,177.0281 Q444.0375,177.3 443.2688,177.3 Q442.3688,177.3 441.6469,176.9438 Q441.0656,176.6625 440.6531,176.0531 Q440.25,175.4438 440.25,174.7219 L440.25,174.0656 Q440.25,173.3156 440.6063,172.6594 Q440.9719,172.0031 441.6,171.6563 Q442.2375,171.3 442.95,171.3 Q443.3812,171.3 443.7562,171.45 Q444.1312,171.6 444.45,171.9 Z " fill="#000000"/><text fill="#000000" font-family="sans-serif" font-size="7.2" lengthAdjust="spacing" textLength="88.8" x="455.55" y="176.9461">ParameterCategoryMapper</text><line style="stroke:#A80036;stroke-width:0.8999999999999999;" x1="362.1" x2="618.3" y1="183.6" y2="183.6"/><line style="stroke:#A80036;stroke-width:0.8999999999999999;" x1="362.1" x2="618.3" y1="188.4" y2="188.4"/><ellipse cx="368.1" cy="195" fill="#84BE84" rx="1.8" ry="1.8" style="stroke:#038048;stroke-width:0.6;"/><text fill="#000000" font-family="sans-serif" font-size="6.6" lengthAdjust="spacing" textLength="241.8" x="373.5" y="197.6514">List&lt;ParameterCategoryDto&gt; toDto (List&lt;ParameterCategory&gt; parameterCategories)</text><ellipse cx="368.1" cy="203.3016" fill="#84BE84" rx="1.8" ry="1.8" style="stroke:#038048;stroke-width:0.6;"/><text fill="#000000" font-family="sans-serif" font-size="6.6" lengthAdjust="spacing" textLength="198" x="373.5" y="205.9529">ParameterCategoryDto toDto(ParameterCategory parameterCategory</text><!--MD5=[ae4ce8b9e36cc829775f8966335bc94b]
class ParameterCategoryDto--><rect codeLine="43" fill="#FEFECE" filter="url(#f1r6nqcbu66nk9)" height="53.7047" id="ParameterCategoryDto" style="stroke:#A80036;stroke-width:0.8999999999999999;" width="117.6" x="592.2" y="264.9"/><ellipse cx="611.46" cy="274.5" fill="#ADD1B2" rx="6.6" ry="6.6" style="stroke:#A80036;stroke-width:0.6;"/><path d="M612.66,272.4 Q612.7819,272.1 612.9225,271.95 Q613.0631,271.8 613.2225,271.8 Q613.5038,271.8 613.6819,271.9688 Q613.86,272.1375 613.86,272.5313 L613.86,273.4688 Q613.86,273.8625 613.6913,274.0313 Q613.5225,274.2 613.26,274.2 Q613.0256,274.2 612.8756,274.0969 Q612.7256,273.9938 612.66,273.7219 Q612.6319,273.5344 612.5288,273.4313 Q612.3413,273.2344 612.0038,273.1219 Q611.6663,273 611.3288,273 Q610.9069,273 610.5506,273.1688 Q610.2038,273.3375 609.9319,273.7125 Q609.66,274.0875 609.66,274.6031 L609.66,275.1563 Q609.66,275.775 610.1663,276.1875 Q610.6725,276.6 611.5725,276.6 Q612.1069,276.6 612.4819,276.4781 Q612.6975,276.4125 612.9413,276.1969 Q613.1006,276.075 613.185,276.0375 Q613.2694,276 613.3725,276 Q613.5694,276 613.71,276.1594 Q613.86,276.3094 613.86,276.525 Q613.86,276.7313 613.6538,276.975 Q613.3538,277.3313 612.8756,277.5281 Q612.2475,277.8 611.4788,277.8 Q610.5788,277.8 609.8569,277.4437 Q609.2756,277.1625 608.8631,276.5531 Q608.46,275.9437 608.46,275.2219 L608.46,274.5656 Q608.46,273.8156 608.8163,273.1594 Q609.1819,272.5031 609.81,272.1563 Q610.4475,271.8 611.16,271.8 Q611.5913,271.8 611.9663,271.95 Q612.3413,272.1 612.66,272.4 Z " fill="#000000"/><text fill="#000000" font-family="sans-serif" font-size="7.2" lengthAdjust="spacing" textLength="75.6" x="622.14" y="277.4461">ParameterCategoryDto</text><line style="stroke:#A80036;stroke-width:0.8999999999999999;" x1="592.8" x2="709.2" y1="284.1" y2="284.1"/><ellipse cx="598.8" cy="290.7" rx="1.8" ry="1.8" style="stroke:#038048;stroke-width:0.6;fill:none;"/><text fill="#000000" font-family="sans-serif" font-size="6.6" lengthAdjust="spacing" textLength="34.2" x="604.2" y="293.3514">String name</text><ellipse cx="598.8" cy="299.0016" rx="1.8" ry="1.8" style="stroke:#038048;stroke-width:0.6;fill:none;"/><text fill="#000000" font-family="sans-serif" font-size="6.6" lengthAdjust="spacing" textLength="33" x="604.2" y="301.6529">String code</text><line style="stroke:#A80036;stroke-width:0.8999999999999999;" x1="592.8" x2="709.2" y1="305.5031" y2="305.5031"/><ellipse cx="598.8" cy="312.1031" fill="#84BE84" rx="1.8" ry="1.8" style="stroke:#038048;stroke-width:0.6;"/><text fill="#000000" font-family="sans-serif" font-size="6.6" lengthAdjust="spacing" textLength="102" x="604.2" y="314.7545">ParameterCategoryDto(code,name)</text><!--MD5=[36afb6bbd95a8ac778c4537c55a683d5]
class ParameterCategory--><rect codeLine="49" fill="#FEFECE" filter="url(#f1r6nqcbu66nk9)" height="45.4031" id="ParameterCategory" style="stroke:#A80036;stroke-width:0.8999999999999999;" width="83.4" x="331.5" y="486.6"/><ellipse cx="340.5" cy="496.2" fill="#ADD1B2" rx="6.6" ry="6.6" style="stroke:#A80036;stroke-width:0.6;"/><path d="M341.7,494.1 Q341.8219,493.8 341.9625,493.65 Q342.1031,493.5 342.2625,493.5 Q342.5438,493.5 342.7219,493.6688 Q342.9,493.8375 342.9,494.2313 L342.9,495.1688 Q342.9,495.5625 342.7313,495.7313 Q342.5625,495.9 342.3,495.9 Q342.0656,495.9 341.9156,495.7969 Q341.7656,495.6937 341.7,495.4219 Q341.6719,495.2344 341.5687,495.1312 Q341.3812,494.9344 341.0438,494.8219 Q340.7063,494.7 340.3688,494.7 Q339.9469,494.7 339.5906,494.8688 Q339.2438,495.0375 338.9719,495.4125 Q338.7,495.7875 338.7,496.3031 L338.7,496.8563 Q338.7,497.475 339.2063,497.8875 Q339.7125,498.3 340.6125,498.3 Q341.1469,498.3 341.5219,498.1781 Q341.7375,498.1125 341.9813,497.8969 Q342.1406,497.775 342.225,497.7375 Q342.3094,497.7 342.4125,497.7 Q342.6094,497.7 342.75,497.8594 Q342.9,498.0094 342.9,498.225 Q342.9,498.4313 342.6937,498.675 Q342.3938,499.0313 341.9156,499.2281 Q341.2875,499.5 340.5188,499.5 Q339.6188,499.5 338.8969,499.1437 Q338.3156,498.8625 337.9031,498.2531 Q337.5,497.6437 337.5,496.9219 L337.5,496.2656 Q337.5,495.5156 337.8563,494.8594 Q338.2219,494.2031 338.85,493.8563 Q339.4875,493.5 340.2,493.5 Q340.6312,493.5 341.0062,493.65 Q341.3812,493.8 341.7,494.1 Z " fill="#000000"/><text fill="#000000" font-family="sans-serif" font-size="7.2" lengthAdjust="spacing" textLength="64.2" x="348.9" y="499.1461">ParameterCategory</text><line style="stroke:#A80036;stroke-width:0.8999999999999999;" x1="332.1" x2="414.3" y1="505.8" y2="505.8"/><ellipse cx="338.1" cy="512.4" rx="1.8" ry="1.8" style="stroke:#038048;stroke-width:0.6;fill:none;"/><text fill="#000000" font-family="sans-serif" font-size="6.6" lengthAdjust="spacing" textLength="34.2" x="343.5" y="515.0514">String name</text><ellipse cx="338.1" cy="520.7016" rx="1.8" ry="1.8" style="stroke:#038048;stroke-width:0.6;fill:none;"/><text fill="#000000" font-family="sans-serif" font-size="6.6" lengthAdjust="spacing" textLength="33" x="343.5" y="523.3529">String code</text><line style="stroke:#A80036;stroke-width:0.8999999999999999;" x1="332.1" x2="414.3" y1="527.2031" y2="527.2031"/><!--MD5=[69134a8957932d955e1f822b15ec4b1c]
link CreateTestTypeUI to CreateTestTypeController--><path codeLine="54" d="M525.288,33.018 C502.062,42.828 470.094,56.334 441.714,68.328 " fill="none" id="CreateTestTypeUI-to-CreateTestTypeController" style="stroke:#A80036;stroke-width:0.6;stroke-dasharray:7.0,7.0;"/><polygon fill="#A80036" points="438.798,69.552,444.7063,69.6619,441.5616,68.3848,442.8387,65.2401,438.798,69.552" style="stroke:#A80036;stroke-width:0.6;"/><!--MD5=[a0c08eca13bfc06260ed3890b790a8bb]
link CreateTestTypeUI to ParameterCategoryDto--><path codeLine="55" d="M570.69,33.006 C591.966,56.964 634.638,108.636 656.4,160.2 C670.908,194.574 677.214,206.358 670.2,243 C669.006,249.246 667.014,255.714 664.752,261.804 " fill="none" id="CreateTestTypeUI-to-ParameterCategoryDto" style="stroke:#A80036;stroke-width:0.6;stroke-dasharray:7.0,7.0;"/><polygon fill="#A80036" points="663.624,264.762,667.7939,260.5749,664.6952,261.9598,663.3104,258.861,663.624,264.762" style="stroke:#A80036;stroke-width:0.6;"/><!--MD5=[812ef8251b528d1a64980212cceda9f5]
link CreateTestTypeController to Company--><path codeLine="56" d="M338.022,123.66 C322.29,134.556 304.044,147.204 288.054,158.286 " fill="none" id="CreateTestTypeController-to-Company" style="stroke:#A80036;stroke-width:0.6;stroke-dasharray:7.0,7.0;"/><polygon fill="#A80036" points="285.504,160.056,291.3109,158.9608,287.9721,158.3506,288.5823,155.0118,285.504,160.056" style="stroke:#A80036;stroke-width:0.6;"/><!--MD5=[97f86ea091f10acfb6befc2251259947]
link CreateTestTypeController to TestTypeStore--><path codeLine="57" d="M244.86,123.612 C223.302,132.492 202.614,144.354 186,160.2 C158.79,186.156 146.076,228.408 140.262,257.91 " fill="none" id="CreateTestTypeController-to-TestTypeStore" style="stroke:#A80036;stroke-width:0.6;stroke-dasharray:7.0,7.0;"/><polygon fill="#A80036" points="139.686,260.904,143.0605,256.0529,140.2513,257.9577,138.3465,255.1485,139.686,260.904" style="stroke:#A80036;stroke-width:0.6;"/><!--MD5=[f4bf28669fe4ba1101395c8fda9b28f2]
link CreateTestTypeController to ParameterCategoryStore--><path codeLine="58" d="M363.018,123.648 C358.224,134.664 353.394,147.762 351,160.2 C343.938,196.866 354.666,239.544 363.522,265.992 " fill="none" id="CreateTestTypeController-to-ParameterCategoryStore" style="stroke:#A80036;stroke-width:0.6;stroke-dasharray:7.0,7.0;"/><polygon fill="#A80036" points="364.536,268.974,365.0786,263.0896,363.5744,266.1323,360.5318,264.6281,364.536,268.974" style="stroke:#A80036;stroke-width:0.6;"/><!--MD5=[d826292dd1c3de1d289673c07e4766db]
link CreateTestTypeController to ParameterCategoryDto--><path codeLine="59" d="M520.068,118.926 C567.996,129.048 613.314,142.764 629.4,160.2 C654.528,187.44 656.622,232.116 654.702,261.618 " fill="none" id="CreateTestTypeController-to-ParameterCategoryDto" style="stroke:#A80036;stroke-width:0.6;stroke-dasharray:7.0,7.0;"/><polygon fill="#A80036" points="654.474,264.786,657.2537,259.5713,654.6884,261.7937,652.466,259.2283,654.474,264.786" style="stroke:#A80036;stroke-width:0.6;"/><!--MD5=[f615245dec7c9eb6d64eb1284a82148a]
link CreateTestTypeController to ParameterCategoryMapper--><path codeLine="60" d="M409.944,123.66 C425.586,135.93 444.048,150.408 459.318,162.384 " fill="none" id="CreateTestTypeController-to-ParameterCategoryMapper" style="stroke:#A80036;stroke-width:0.6;stroke-dasharray:7.0,7.0;"/><polygon fill="#A80036" points="461.742,164.286,458.9686,159.0679,459.3795,162.4371,456.0103,162.8479,461.742,164.286" style="stroke:#A80036;stroke-width:0.6;"/><!--MD5=[141c3afa12b2b3c0a39ffce56dbd5f19]
link Company to TestTypeStore--><path codeLine="61" d="M218.46,214.452 C203.874,227.982 186.024,244.536 170.64,258.804 " fill="none" id="Company-to-TestTypeStore" style="stroke:#A80036;stroke-width:0.6;"/><polygon fill="#A80036" points="168.39,260.892,173.979,258.9729,170.5872,258.8493,170.7107,255.4575,168.39,260.892" style="stroke:#A80036;stroke-width:0.6;"/><text fill="#000000" font-family="sans-serif" font-size="7.8" lengthAdjust="spacing" textLength="16.8" x="199.2" y="240.8971">uses</text><text fill="#000000" font-family="sans-serif" font-size="7.8" lengthAdjust="spacing" textLength="4.2" x="210.1159" y="226.8901">1</text><text fill="#000000" font-family="sans-serif" font-size="7.8" lengthAdjust="spacing" textLength="4.2" x="168.314" y="254.5777">1</text><!--MD5=[d53d7490e5836ca5709858d7326f212b]
link Company to ParameterCategoryStore--><path codeLine="62" d="M267.78,214.266 C275.946,223.896 285.768,234.492 295.8,243 C306.246,251.856 318.462,260.244 330.066,267.462 " fill="none" id="Company-to-ParameterCategoryStore" style="stroke:#A80036;stroke-width:0.6;"/><polygon fill="#A80036" points="332.688,269.082,329.3542,264.2029,330.1354,267.5059,326.8324,268.2871,332.688,269.082" style="stroke:#A80036;stroke-width:0.6;"/><text fill="#000000" font-family="sans-serif" font-size="7.8" lengthAdjust="spacing" textLength="16.8" x="296.4" y="240.8971">uses</text><text fill="#000000" font-family="sans-serif" font-size="7.8" lengthAdjust="spacing" textLength="4.2" x="266.1788" y="226.8798">1</text><text fill="#000000" font-family="sans-serif" font-size="7.8" lengthAdjust="spacing" textLength="4.2" x="320.6314" y="262.5246">1</text><!--MD5=[3eebf0e5f359806b77b30e9524c37676]
link TestTypeStore to TestType--><path codeLine="63" d="M152.814,322.998 C160.464,336.546 169.536,352.62 177.582,366.87 " fill="none" id="TestTypeStore-to-TestType" style="stroke:#A80036;stroke-width:0.6;"/><polygon fill="#A80036" points="179.07,369.504,178.508,363.6215,177.5964,366.8909,174.327,365.9793,179.07,369.504" style="stroke:#A80036;stroke-width:0.6;"/><text fill="#000000" font-family="sans-serif" font-size="7.8" lengthAdjust="spacing" textLength="31.8" x="168" y="349.4971">conducts</text><text fill="#000000" font-family="sans-serif" font-size="7.8" lengthAdjust="spacing" textLength="4.2" x="150.6449" y="335.9192">1</text><text fill="#000000" font-family="sans-serif" font-size="7.8" lengthAdjust="spacing" textLength="3" x="173.507" y="363.1328">*</text><!--MD5=[58fac5310c1666a6e65c137533900c90]
link ParameterCategoryMapper to ParameterCategoryDto--><path codeLine="64" d="M524.694,210.006 C548.784,225.51 581.142,246.336 607.074,263.028 " fill="none" id="ParameterCategoryMapper-to-ParameterCategoryDto" style="stroke:#A80036;stroke-width:0.6;stroke-dasharray:7.0,7.0;"/><polygon fill="#A80036" points="609.72,264.732,606.4873,259.7853,607.2004,263.1037,603.882,263.8167,609.72,264.732" style="stroke:#A80036;stroke-width:0.6;"/><!--MD5=[19765d4468597c595e89fcbff5e25b10]
link ParameterCategoryMapper to ParameterCategory--><path codeLine="65" d="M488.934,210.054 C486.894,237.234 481.746,284.352 469.2,322.8 C449.316,383.742 411.252,449.016 389.502,483.714 " fill="none" id="ParameterCategoryMapper-to-ParameterCategory" style="stroke:#A80036;stroke-width:0.6;stroke-dasharray:7.0,7.0;"/><polygon fill="#A80036" points="387.84,486.36,392.7452,483.0647,389.4362,483.8199,388.681,480.5108,387.84,486.36" style="stroke:#A80036;stroke-width:0.6;"/><!--MD5=[d6274e3b73b5bc8f467c6cfbf5bf003e]
link ParameterCategoryStore to ParameterCategory--><path codeLine="66" d="M373.2,314.832 C373.2,355.332 373.2,440.646 373.2,483.342 " fill="none" id="ParameterCategoryStore-to-ParameterCategory" style="stroke:#A80036;stroke-width:0.6;"/><polygon fill="#A80036" points="373.2,486.588,375.6,481.188,373.2,483.588,370.8,481.188,373.2,486.588" style="stroke:#A80036;stroke-width:0.6;"/><text fill="#000000" font-family="sans-serif" font-size="7.8" lengthAdjust="spacing" textLength="23.4" x="373.8" y="407.9971">adopts</text><text fill="#000000" font-family="sans-serif" font-size="7.8" lengthAdjust="spacing" textLength="4.2" x="368.6653" y="327.3814">1</text><text fill="#000000" font-family="sans-serif" font-size="7.8" lengthAdjust="spacing" textLength="3" x="369.9234" y="480.0317">*</text><!--MD5=[8aaf0efd5e2f3824be7ea3e488dcc283]
link TestType to ParameterCategory--><path codeLine="67" d="M256.98,439.908 C282.954,455.304 312.78,472.986 335.712,486.576 " fill="none" id="TestType-ParameterCategory" style="stroke:#A80036;stroke-width:0.6;"/><polygon fill="#000000" points="307.3807,464.8352,303.6113,460.551,301.813,463.5848,307.3807,464.8352" style="stroke:#000000;stroke-width:0.6;"/><text fill="#000000" font-family="sans-serif" font-size="7.8" lengthAdjust="spacing" textLength="40.8" x="310.2" y="466.4971">has a set of</text><text fill="#000000" font-family="sans-serif" font-size="7.8" lengthAdjust="spacing" textLength="3" x="260.9123" y="452.8873">*</text><text fill="#000000" font-family="sans-serif" font-size="7.8" lengthAdjust="spacing" textLength="12" x="315.6939" y="480.0175">1..*</text><!--MD5=[2843672928d4fd719d1f2468b5680654]
@startuml

class Company{
-String designation
+getTestTypeStore()
+getParameterCategoryStore()
}

class CreateTestTypeUI{
}

class CreateTestTypeController{
+boolean createTestType(code,description,collecting method,selectedParameterCategoriesList)
+boolean saveTestType()
+List<ParameterCategoryDto> getParameterCategories()
}

class TestType{
-String code
-String description
-String collectingMethod
-List<ParameterCategories> listOfParameterCategories
+TestType(code,description,collectingMethod,listOfParameterCategories)
}

class TestTypeStore{
+createTestType(code,description,collecting method,selectedParameterCategoriesList)
+validateTestType(testType)
+addTestType(testType)
+saveTestType((testType)
}

class ParameterCategoryStore{
+List<ParameterCategory> getParameterCategoryList()
+ParameterCategory getParameterCategorybyCode()
}

class ParameterCategoryMapper{
+List<ParameterCategoryDto> toDto (List<ParameterCategory> parameterCategories)
+ParameterCategoryDto toDto(ParameterCategory parameterCategory
}


class ParameterCategoryDto{
+ String name
+ String code
+ ParameterCategoryDto(code,name)
}

class ParameterCategory{
+ String name
+ String code
}

CreateTestTypeUI ..> CreateTestTypeController
CreateTestTypeUI ..> ParameterCategoryDto
CreateTestTypeController ..> Company
CreateTestTypeController ..> TestTypeStore
CreateTestTypeController ..> ParameterCategoryStore
CreateTestTypeController ..> ParameterCategoryDto
CreateTestTypeController ..> ParameterCategoryMapper
Company"1"- -> "1" TestTypeStore : uses
Company"1"- -> "1" ParameterCategoryStore : uses
TestTypeStore "1"- ->"*" TestType : conducts
ParameterCategoryMapper ..> ParameterCategoryDto
ParameterCategoryMapper ..> ParameterCategory
ParameterCategoryStore "1"- -> "*"ParameterCategory : adopts
TestType "*"- -"1..*" ParameterCategory : has a set of >
@enduml

PlantUML version 1.2021.5(Sun Apr 25 12:20:28 BST 2021)
(GPL source distribution)
Java Runtime: OpenJDK Runtime Environment
JVM: OpenJDK 64-Bit Server VM
Default Encoding: Cp1252
Language: pt
Country: PT
--></g></svg>