<?xml version="1.0" encoding="UTF-8" standalone="no"?><svg xmlns="http://www.w3.org/2000/svg" xmlns:xlink="http://www.w3.org/1999/xlink" contentScriptType="application/ecmascript" contentStyleType="text/css" height="1038px" preserveAspectRatio="none" style="width:676px;height:1038px;" version="1.1" viewBox="0 0 676 1038" width="676.5px" zoomAndPan="magnify"><defs><filter height="300%" id="f67ahs2vzkvf8" width="300%" x="-1" y="-1"><feGaussianBlur result="blurOut" stdDeviation="3.0"/><feColorMatrix in="blurOut" result="blurOut2" type="matrix" values="0 0 0 0 0 0 0 0 0 0 0 0 0 0 0 0 0 0 .4 0"/><feOffset dx="6.0" dy="6.0" in="blurOut2" result="blurOut3"/><feBlend in="SourceGraphic" in2="blurOut3" mode="normal"/></filter></defs><g><!--MD5=[02e4b9b7573f1156f41e60aa5b4e25a4]
class Company--><rect codeLine="3" fill="#FEFECE" filter="url(#f67ahs2vzkvf8)" height="92.7539" id="Company" style="stroke:#A80036;stroke-width:2.25;" width="168" x="168" y="400.5"/><ellipse cx="208.725" cy="424.5" fill="#ADD1B2" rx="16.5" ry="16.5" style="stroke:#A80036;stroke-width:1.5;"/><path d="M211.725,419.25 Q212.0297,418.5 212.3813,418.125 Q212.7328,417.75 213.1313,417.75 Q213.8344,417.75 214.2797,418.1719 Q214.725,418.5938 214.725,419.5781 L214.725,421.9219 Q214.725,422.9063 214.3031,423.3281 Q213.8813,423.75 213.225,423.75 Q212.6391,423.75 212.2641,423.4922 Q211.8891,423.2344 211.725,422.5547 Q211.6547,422.0859 211.3969,421.8281 Q210.9281,421.3359 210.0844,421.0547 Q209.2406,420.75 208.3969,420.75 Q207.3422,420.75 206.4516,421.1719 Q205.5844,421.5938 204.9047,422.5313 Q204.225,423.4688 204.225,424.7578 L204.225,426.1406 Q204.225,427.6875 205.4906,428.7188 Q206.7563,429.75 209.0063,429.75 Q210.3422,429.75 211.2797,429.4453 Q211.8188,429.2813 212.4281,428.7422 Q212.8266,428.4375 213.0375,428.3438 Q213.2484,428.25 213.5063,428.25 Q213.9984,428.25 214.35,428.6484 Q214.725,429.0234 214.725,429.5625 Q214.725,430.0781 214.2094,430.6875 Q213.4594,431.5781 212.2641,432.0703 Q210.6938,432.75 208.7719,432.75 Q206.5219,432.75 204.7172,431.8594 Q203.2641,431.1563 202.2328,429.6328 Q201.225,428.1094 201.225,426.3047 L201.225,424.6641 Q201.225,422.7891 202.1156,421.1484 Q203.0297,419.5078 204.6,418.6406 Q206.1938,417.75 207.975,417.75 Q209.0531,417.75 209.9906,418.125 Q210.9281,418.5 211.725,419.25 Z " fill="#000000"/><text fill="#000000" font-family="sans-serif" font-size="18" lengthAdjust="spacing" textLength="79.5" x="233.775" y="431.8652">Company</text><line style="stroke:#A80036;stroke-width:2.25;" x1="169.5" x2="334.5" y1="448.5" y2="448.5"/><line style="stroke:#A80036;stroke-width:2.25;" x1="169.5" x2="334.5" y1="460.5" y2="460.5"/><text fill="#000000" font-family="sans-serif" font-size="16.5" lengthAdjust="spacing" textLength="150" x="177" y="483.6284">+getTypeTestStore()</text><!--MD5=[bebdcc43ebcb1534ee764d1f430c03ae]
class CreateTestTypeUI--><rect codeLine="7" fill="#FEFECE" filter="url(#f67ahs2vzkvf8)" height="72" id="CreateTestTypeUI" style="stroke:#A80036;stroke-width:2.25;" width="196.5" x="234.75" y="10.5"/><ellipse cx="257.25" cy="34.5" fill="#ADD1B2" rx="16.5" ry="16.5" style="stroke:#A80036;stroke-width:1.5;"/><path d="M260.25,29.25 Q260.5547,28.5 260.9063,28.125 Q261.2578,27.75 261.6563,27.75 Q262.3594,27.75 262.8047,28.1719 Q263.25,28.5938 263.25,29.5781 L263.25,31.9219 Q263.25,32.9063 262.8281,33.3281 Q262.4063,33.75 261.75,33.75 Q261.1641,33.75 260.7891,33.4922 Q260.4141,33.2344 260.25,32.5547 Q260.1797,32.0859 259.9219,31.8281 Q259.4531,31.3359 258.6094,31.0547 Q257.7656,30.75 256.9219,30.75 Q255.8672,30.75 254.9766,31.1719 Q254.1094,31.5938 253.4297,32.5313 Q252.75,33.4688 252.75,34.7578 L252.75,36.1406 Q252.75,37.6875 254.0156,38.7188 Q255.2813,39.75 257.5313,39.75 Q258.8672,39.75 259.8047,39.4453 Q260.3438,39.2813 260.9531,38.7422 Q261.3516,38.4375 261.5625,38.3438 Q261.7734,38.25 262.0313,38.25 Q262.5234,38.25 262.875,38.6484 Q263.25,39.0234 263.25,39.5625 Q263.25,40.0781 262.7344,40.6875 Q261.9844,41.5781 260.7891,42.0703 Q259.2188,42.75 257.2969,42.75 Q255.0469,42.75 253.2422,41.8594 Q251.7891,41.1563 250.7578,39.6328 Q249.75,38.1094 249.75,36.3047 L249.75,34.6641 Q249.75,32.7891 250.6406,31.1484 Q251.5547,29.5078 253.125,28.6406 Q254.7188,27.75 256.5,27.75 Q257.5781,27.75 258.5156,28.125 Q259.4531,28.5 260.25,29.25 Z " fill="#000000"/><text fill="#000000" font-family="sans-serif" font-size="18" lengthAdjust="spacing" textLength="148.5" x="278.25" y="41.8652">CreateTestTypeUI</text><line style="stroke:#A80036;stroke-width:2.25;" x1="236.25" x2="429.75" y1="58.5" y2="58.5"/><line style="stroke:#A80036;stroke-width:2.25;" x1="236.25" x2="429.75" y1="70.5" y2="70.5"/><!--MD5=[2c845ebea24388d268f5a9acbeca4fd9]
class CreateTestTypeController--><rect codeLine="10" fill="#FEFECE" filter="url(#f67ahs2vzkvf8)" height="134.2617" id="CreateTestTypeController" style="stroke:#A80036;stroke-width:2.25;" width="645" x="10.5" y="174"/><ellipse cx="220.875" cy="198" fill="#ADD1B2" rx="16.5" ry="16.5" style="stroke:#A80036;stroke-width:1.5;"/><path d="M223.875,192.75 Q224.1797,192 224.5313,191.625 Q224.8828,191.25 225.2813,191.25 Q225.9844,191.25 226.4297,191.6719 Q226.875,192.0938 226.875,193.0781 L226.875,195.4219 Q226.875,196.4063 226.4531,196.8281 Q226.0313,197.25 225.375,197.25 Q224.7891,197.25 224.4141,196.9922 Q224.0391,196.7344 223.875,196.0547 Q223.8047,195.5859 223.5469,195.3281 Q223.0781,194.8359 222.2344,194.5547 Q221.3906,194.25 220.5469,194.25 Q219.4922,194.25 218.6016,194.6719 Q217.7344,195.0938 217.0547,196.0313 Q216.375,196.9688 216.375,198.2578 L216.375,199.6406 Q216.375,201.1875 217.6406,202.2188 Q218.9063,203.25 221.1563,203.25 Q222.4922,203.25 223.4297,202.9453 Q223.9688,202.7813 224.5781,202.2422 Q224.9766,201.9375 225.1875,201.8438 Q225.3984,201.75 225.6563,201.75 Q226.1484,201.75 226.5,202.1484 Q226.875,202.5234 226.875,203.0625 Q226.875,203.5781 226.3594,204.1875 Q225.6094,205.0781 224.4141,205.5703 Q222.8438,206.25 220.9219,206.25 Q218.6719,206.25 216.8672,205.3594 Q215.4141,204.6563 214.3828,203.1328 Q213.375,201.6094 213.375,199.8047 L213.375,198.1641 Q213.375,196.2891 214.2656,194.6484 Q215.1797,193.0078 216.75,192.1406 Q218.3438,191.25 220.125,191.25 Q221.2031,191.25 222.1406,191.625 Q223.0781,192 223.875,192.75 Z " fill="#000000"/><text fill="#000000" font-family="sans-serif" font-size="18" lengthAdjust="spacing" textLength="211.5" x="251.625" y="205.3652">CreateTestTypeController</text><line style="stroke:#A80036;stroke-width:2.25;" x1="12" x2="654" y1="222" y2="222"/><line style="stroke:#A80036;stroke-width:2.25;" x1="12" x2="654" y1="234" y2="234"/><text fill="#000000" font-family="sans-serif" font-size="16.5" lengthAdjust="spacing" textLength="195" x="19.5" y="257.1284">+getParameterCategories()</text><text fill="#000000" font-family="sans-serif" font-size="16.5" lengthAdjust="spacing" textLength="627" x="19.5" y="277.8823">+createTestType(code,description,collecting method,selectedParameterCategoriesList)</text><text fill="#000000" font-family="sans-serif" font-size="16.5" lengthAdjust="spacing" textLength="124.5" x="19.5" y="298.6362">+saveTestType()</text><!--MD5=[aeb3272166074d8737a70b61b1e71682]
class TestType--><rect codeLine="16" fill="#FEFECE" filter="url(#f67ahs2vzkvf8)" height="155.0156" id="TestType" style="stroke:#A80036;stroke-width:2.25;" width="577.5" x="44.25" y="862.5"/><ellipse cx="289.125" cy="886.5" fill="#ADD1B2" rx="16.5" ry="16.5" style="stroke:#A80036;stroke-width:1.5;"/><path d="M292.125,881.25 Q292.4297,880.5 292.7813,880.125 Q293.1328,879.75 293.5313,879.75 Q294.2344,879.75 294.6797,880.1719 Q295.125,880.5938 295.125,881.5781 L295.125,883.9219 Q295.125,884.9063 294.7031,885.3281 Q294.2813,885.75 293.625,885.75 Q293.0391,885.75 292.6641,885.4922 Q292.2891,885.2344 292.125,884.5547 Q292.0547,884.0859 291.7969,883.8281 Q291.3281,883.3359 290.4844,883.0547 Q289.6406,882.75 288.7969,882.75 Q287.7422,882.75 286.8516,883.1719 Q285.9844,883.5938 285.3047,884.5313 Q284.625,885.4688 284.625,886.7578 L284.625,888.1406 Q284.625,889.6875 285.8906,890.7188 Q287.1563,891.75 289.4063,891.75 Q290.7422,891.75 291.6797,891.4453 Q292.2188,891.2813 292.8281,890.7422 Q293.2266,890.4375 293.4375,890.3438 Q293.6484,890.25 293.9063,890.25 Q294.3984,890.25 294.75,890.6484 Q295.125,891.0234 295.125,891.5625 Q295.125,892.0781 294.6094,892.6875 Q293.8594,893.5781 292.6641,894.0703 Q291.0938,894.75 289.1719,894.75 Q286.9219,894.75 285.1172,893.8594 Q283.6641,893.1563 282.6328,891.6328 Q281.625,890.1094 281.625,888.3047 L281.625,886.6641 Q281.625,884.7891 282.5156,883.1484 Q283.4297,881.5078 285,880.6406 Q286.5938,879.75 288.375,879.75 Q289.4531,879.75 290.3906,880.125 Q291.3281,880.5 292.125,881.25 Z " fill="#000000"/><text fill="#000000" font-family="sans-serif" font-size="18" lengthAdjust="spacing" textLength="75" x="319.875" y="893.8652">TestType</text><line style="stroke:#A80036;stroke-width:2.25;" x1="45.75" x2="620.25" y1="910.5" y2="910.5"/><text fill="#000000" font-family="sans-serif" font-size="16.5" lengthAdjust="spacing" textLength="63" x="53.25" y="933.6284">-int code</text><text fill="#000000" font-family="sans-serif" font-size="16.5" lengthAdjust="spacing" textLength="181.5" x="53.25" y="954.3823">-String collectingMethods</text><text fill="#000000" font-family="sans-serif" font-size="16.5" lengthAdjust="spacing" textLength="132" x="53.25" y="975.1362">-String description</text><line style="stroke:#A80036;stroke-width:2.25;" x1="45.75" x2="620.25" y1="984.7617" y2="984.7617"/><text fill="#000000" font-family="sans-serif" font-size="16.5" lengthAdjust="spacing" textLength="559.5" x="53.25" y="1007.8901">+create(code,description,collecting method,selectedParameterCategoriesList)</text><!--MD5=[6ba72ddf03822b91e8d41ca71de58ed3]
class TestTypeStore--><rect codeLine="23" fill="#FEFECE" filter="url(#f67ahs2vzkvf8)" height="134.2617" id="TestTypeStore" style="stroke:#A80036;stroke-width:2.25;" width="645" x="10.5" y="610.5"/><ellipse cx="267.375" cy="634.5" fill="#ADD1B2" rx="16.5" ry="16.5" style="stroke:#A80036;stroke-width:1.5;"/><path d="M270.375,629.25 Q270.6797,628.5 271.0313,628.125 Q271.3828,627.75 271.7813,627.75 Q272.4844,627.75 272.9297,628.1719 Q273.375,628.5938 273.375,629.5781 L273.375,631.9219 Q273.375,632.9063 272.9531,633.3281 Q272.5313,633.75 271.875,633.75 Q271.2891,633.75 270.9141,633.4922 Q270.5391,633.2344 270.375,632.5547 Q270.3047,632.0859 270.0469,631.8281 Q269.5781,631.3359 268.7344,631.0547 Q267.8906,630.75 267.0469,630.75 Q265.9922,630.75 265.1016,631.1719 Q264.2344,631.5938 263.5547,632.5313 Q262.875,633.4688 262.875,634.7578 L262.875,636.1406 Q262.875,637.6875 264.1406,638.7188 Q265.4063,639.75 267.6563,639.75 Q268.9922,639.75 269.9297,639.4453 Q270.4688,639.2813 271.0781,638.7422 Q271.4766,638.4375 271.6875,638.3438 Q271.8984,638.25 272.1563,638.25 Q272.6484,638.25 273,638.6484 Q273.375,639.0234 273.375,639.5625 Q273.375,640.0781 272.8594,640.6875 Q272.1094,641.5781 270.9141,642.0703 Q269.3438,642.75 267.4219,642.75 Q265.1719,642.75 263.3672,641.8594 Q261.9141,641.1563 260.8828,639.6328 Q259.875,638.1094 259.875,636.3047 L259.875,634.6641 Q259.875,632.7891 260.7656,631.1484 Q261.6797,629.5078 263.25,628.6406 Q264.8438,627.75 266.625,627.75 Q267.7031,627.75 268.6406,628.125 Q269.5781,628.5 270.375,629.25 Z " fill="#000000"/><text fill="#000000" font-family="sans-serif" font-size="18" lengthAdjust="spacing" textLength="118.5" x="298.125" y="641.8652">TestTypeStore</text><line style="stroke:#A80036;stroke-width:2.25;" x1="12" x2="654" y1="658.5" y2="658.5"/><line style="stroke:#A80036;stroke-width:2.25;" x1="12" x2="654" y1="670.5" y2="670.5"/><text fill="#000000" font-family="sans-serif" font-size="16.5" lengthAdjust="spacing" textLength="627" x="19.5" y="693.6284">+createTestType(code,description,collecting method,selectedParameterCategoriesList)</text><text fill="#000000" font-family="sans-serif" font-size="16.5" lengthAdjust="spacing" textLength="148.5" x="19.5" y="714.3823">+validateTestType(t)</text><text fill="#000000" font-family="sans-serif" font-size="16.5" lengthAdjust="spacing" textLength="120" x="19.5" y="735.1362">+addTestType(t)</text><!--MD5=[69134a8957932d955e1f822b15ec4b1c]
link CreateTestTypeUI to CreateTestTypeController--><path codeLine="29" d="M333,82.77 C333,105.885 333,137.13 333,165.675 " fill="none" id="CreateTestTypeUI-to-CreateTestTypeController" style="stroke:#A80036;stroke-width:1.5;stroke-dasharray:7.0,7.0;"/><polygon fill="#A80036" points="333,173.64,339,160.14,333,166.14,327,160.14,333,173.64" style="stroke:#A80036;stroke-width:1.5;"/><!--MD5=[812ef8251b528d1a64980212cceda9f5]
link CreateTestTypeController to Company--><path codeLine="30" d="M306.48,309.3 C295.59,336.51 283.185,367.545 272.955,393.12 " fill="none" id="CreateTestTypeController-to-Company" style="stroke:#A80036;stroke-width:1.5;stroke-dasharray:7.0,7.0;"/><polygon fill="#A80036" points="270.135,400.17,280.7196,389.8639,272.9204,393.2064,269.5779,385.4072,270.135,400.17" style="stroke:#A80036;stroke-width:1.5;"/><!--MD5=[97f86ea091f10acfb6befc2251259947]
link CreateTestTypeController to TestTypeStore--><path codeLine="31" d="M348.495,309.27 C354.285,337.26 360.15,370.29 363,400.5 C369.45,468.87 359.43,546.645 349.275,602.16 " fill="none" id="CreateTestTypeController-to-TestTypeStore" style="stroke:#A80036;stroke-width:1.5;stroke-dasharray:7.0,7.0;"/><polygon fill="#A80036" points="347.775,610.185,356.143,598.0102,349.1468,602.8115,344.3455,595.8153,347.775,610.185" style="stroke:#A80036;stroke-width:1.5;"/><!--MD5=[141c3afa12b2b3c0a39ffce56dbd5f19]
link Company to TestTypeStore--><path codeLine="32" d="M268.005,493.545 C279.105,524.82 294.165,567.165 306.975,603.255 " fill="none" id="Company-to-TestTypeStore" style="stroke:#A80036;stroke-width:1.5;"/><polygon fill="#A80036" points="309.51,610.38,310.6398,595.65,306.997,603.3135,299.3334,599.6708,309.51,610.38" style="stroke:#A80036;stroke-width:1.5;"/><text fill="#000000" font-family="sans-serif" font-size="19.5" lengthAdjust="spacing" textLength="42" x="294" y="560.2427">uses</text><text fill="#000000" font-family="sans-serif" font-size="19.5" lengthAdjust="spacing" textLength="10.5" x="259.6224" y="525.3899">1</text><text fill="#000000" font-family="sans-serif" font-size="19.5" lengthAdjust="spacing" textLength="10.5" x="294.4296" y="594.0341">1</text><!--MD5=[3eebf0e5f359806b77b30e9524c37676]
link TestTypeStore to TestType--><path codeLine="33" d="M333,746.13 C333,779.13 333,819.3 333,854.37 " fill="none" id="TestTypeStore-to-TestType" style="stroke:#A80036;stroke-width:1.5;"/><polygon fill="#A80036" points="333,862.23,339,848.73,333,854.73,327,848.73,333,862.23" style="stroke:#A80036;stroke-width:1.5;"/><text fill="#000000" font-family="sans-serif" font-size="19.5" lengthAdjust="spacing" textLength="79.5" x="334.5" y="812.2427">conducts</text><text fill="#000000" font-family="sans-serif" font-size="19.5" lengthAdjust="spacing" textLength="10.5" x="321.7945" y="777.2252">1</text><text fill="#000000" font-family="sans-serif" font-size="19.5" lengthAdjust="spacing" textLength="7.5" x="324.9961" y="846.4442">*</text><!--MD5=[7e946534062b6eaf9eb3cc4cfaf255fa]
@startuml
skinparam classAttributeIconSize 0

class Company{
+getTypeTestStore()
}

class CreateTestTypeUI{
}

class CreateTestTypeController{
+getParameterCategories()
+createTestType(code,description,collecting method,selectedParameterCategoriesList)
+saveTestType()
}

class TestType{
-int code
-String collectingMethods
-String description
+create(code,description,collecting method,selectedParameterCategoriesList)
}

class TestTypeStore{
+createTestType(code,description,collecting method,selectedParameterCategoriesList)
+validateTestType(t)
+addTestType(t)
}

CreateTestTypeUI ..> CreateTestTypeController
CreateTestTypeController ..> Company
CreateTestTypeController ..> TestTypeStore
Company"1"- -> "1" TestTypeStore : uses
TestTypeStore "1"- ->"*" TestType : conducts

@enduml

PlantUML version 1.2021.4(Sun Apr 04 09:49:39 BST 2021)
(GPL source distribution)
Java Runtime: OpenJDK Runtime Environment
JVM: OpenJDK 64-Bit Server VM
Default Encoding: Cp1252
Language: pt
Country: PT
--></g></svg>