<?xml version="1.0" encoding="UTF-8" standalone="no"?><svg xmlns="http://www.w3.org/2000/svg" xmlns:xlink="http://www.w3.org/1999/xlink" contentScriptType="application/ecmascript" contentStyleType="text/css" height="1099.5px" preserveAspectRatio="none" style="width:1252px;height:1099px;" version="1.1" viewBox="0 0 1252 1099" width="1252.5px" zoomAndPan="magnify"><defs><filter height="300%" id="f82yhis633qdt" width="300%" x="-1" y="-1"><feGaussianBlur result="blurOut" stdDeviation="3.0"/><feColorMatrix in="blurOut" result="blurOut2" type="matrix" values="0 0 0 0 0 0 0 0 0 0 0 0 0 0 0 0 0 0 .4 0"/><feOffset dx="6.0" dy="6.0" in="blurOut2" result="blurOut3"/><feBlend in="SourceGraphic" in2="blurOut3" mode="normal"/></filter></defs><g><!--MD5=[02e4b9b7573f1156f41e60aa5b4e25a4]
class Company--><rect codeLine="2" fill="#FEFECE" filter="url(#f82yhis633qdt)" height="113.5078" id="Company" style="stroke:#A80036;stroke-width:2.25;" width="252" x="46.5" y="400.5"/><ellipse cx="126.375" cy="424.5" fill="#ADD1B2" rx="16.5" ry="16.5" style="stroke:#A80036;stroke-width:1.5;"/><path d="M129.375,419.25 Q129.6797,418.5 130.0313,418.125 Q130.3828,417.75 130.7813,417.75 Q131.4844,417.75 131.9297,418.1719 Q132.375,418.5938 132.375,419.5781 L132.375,421.9219 Q132.375,422.9063 131.9531,423.3281 Q131.5313,423.75 130.875,423.75 Q130.2891,423.75 129.9141,423.4922 Q129.5391,423.2344 129.375,422.5547 Q129.3047,422.0859 129.0469,421.8281 Q128.5781,421.3359 127.7344,421.0547 Q126.8906,420.75 126.0469,420.75 Q124.9922,420.75 124.1016,421.1719 Q123.2344,421.5938 122.5547,422.5313 Q121.875,423.4688 121.875,424.7578 L121.875,426.1406 Q121.875,427.6875 123.1406,428.7188 Q124.4063,429.75 126.6563,429.75 Q127.9922,429.75 128.9297,429.4453 Q129.4688,429.2813 130.0781,428.7422 Q130.4766,428.4375 130.6875,428.3438 Q130.8984,428.25 131.1563,428.25 Q131.6484,428.25 132,428.6484 Q132.375,429.0234 132.375,429.5625 Q132.375,430.0781 131.8594,430.6875 Q131.1094,431.5781 129.9141,432.0703 Q128.3438,432.75 126.4219,432.75 Q124.1719,432.75 122.3672,431.8594 Q120.9141,431.1563 119.8828,429.6328 Q118.875,428.1094 118.875,426.3047 L118.875,424.6641 Q118.875,422.7891 119.7656,421.1484 Q120.6797,419.5078 122.25,418.6406 Q123.8438,417.75 125.625,417.75 Q126.7031,417.75 127.6406,418.125 Q128.5781,418.5 129.375,419.25 Z " fill="#000000"/><text fill="#000000" font-family="sans-serif" font-size="18" lengthAdjust="spacing" textLength="79.5" x="157.125" y="431.8652">Company</text><line style="stroke:#A80036;stroke-width:2.25;" x1="48" x2="297" y1="448.5" y2="448.5"/><line style="stroke:#A80036;stroke-width:2.25;" x1="48" x2="297" y1="460.5" y2="460.5"/><ellipse cx="63" cy="477" fill="#84BE84" rx="4.5" ry="4.5" style="stroke:#038048;stroke-width:1.5;"/><text fill="#000000" font-family="sans-serif" font-size="16.5" lengthAdjust="spacing" textLength="141" x="76.5" y="483.6284">getTypeTestStore()</text><ellipse cx="63" cy="497.7539" fill="#84BE84" rx="4.5" ry="4.5" style="stroke:#038048;stroke-width:1.5;"/><text fill="#000000" font-family="sans-serif" font-size="16.5" lengthAdjust="spacing" textLength="213" x="76.5" y="504.3823">getParameterCategoryStore()</text><!--MD5=[bebdcc43ebcb1534ee764d1f430c03ae]
class CreateTestTypeUI--><rect codeLine="7" fill="#FEFECE" filter="url(#f82yhis633qdt)" height="72" id="CreateTestTypeUI" style="stroke:#A80036;stroke-width:2.25;" width="196.5" x="579.75" y="10.5"/><ellipse cx="602.25" cy="34.5" fill="#ADD1B2" rx="16.5" ry="16.5" style="stroke:#A80036;stroke-width:1.5;"/><path d="M605.25,29.25 Q605.5547,28.5 605.9063,28.125 Q606.2578,27.75 606.6563,27.75 Q607.3594,27.75 607.8047,28.1719 Q608.25,28.5938 608.25,29.5781 L608.25,31.9219 Q608.25,32.9063 607.8281,33.3281 Q607.4063,33.75 606.75,33.75 Q606.1641,33.75 605.7891,33.4922 Q605.4141,33.2344 605.25,32.5547 Q605.1797,32.0859 604.9219,31.8281 Q604.4531,31.3359 603.6094,31.0547 Q602.7656,30.75 601.9219,30.75 Q600.8672,30.75 599.9766,31.1719 Q599.1094,31.5938 598.4297,32.5313 Q597.75,33.4688 597.75,34.7578 L597.75,36.1406 Q597.75,37.6875 599.0156,38.7188 Q600.2813,39.75 602.5313,39.75 Q603.8672,39.75 604.8047,39.4453 Q605.3438,39.2813 605.9531,38.7422 Q606.3516,38.4375 606.5625,38.3438 Q606.7734,38.25 607.0313,38.25 Q607.5234,38.25 607.875,38.6484 Q608.25,39.0234 608.25,39.5625 Q608.25,40.0781 607.7344,40.6875 Q606.9844,41.5781 605.7891,42.0703 Q604.2188,42.75 602.2969,42.75 Q600.0469,42.75 598.2422,41.8594 Q596.7891,41.1563 595.7578,39.6328 Q594.75,38.1094 594.75,36.3047 L594.75,34.6641 Q594.75,32.7891 595.6406,31.1484 Q596.5547,29.5078 598.125,28.6406 Q599.7188,27.75 601.5,27.75 Q602.5781,27.75 603.5156,28.125 Q604.4531,28.5 605.25,29.25 Z " fill="#000000"/><text fill="#000000" font-family="sans-serif" font-size="18" lengthAdjust="spacing" textLength="148.5" x="623.25" y="41.8652">CreateTestTypeUI</text><line style="stroke:#A80036;stroke-width:2.25;" x1="581.25" x2="774.75" y1="58.5" y2="58.5"/><line style="stroke:#A80036;stroke-width:2.25;" x1="581.25" x2="774.75" y1="70.5" y2="70.5"/><!--MD5=[2c845ebea24388d268f5a9acbeca4fd9]
class CreateTestTypeController--><rect codeLine="10" fill="#FEFECE" filter="url(#f82yhis633qdt)" height="134.2617" id="CreateTestTypeController" style="stroke:#A80036;stroke-width:2.25;" width="657" x="145.5" y="174"/><ellipse cx="361.875" cy="198" fill="#ADD1B2" rx="16.5" ry="16.5" style="stroke:#A80036;stroke-width:1.5;"/><path d="M364.875,192.75 Q365.1797,192 365.5313,191.625 Q365.8828,191.25 366.2813,191.25 Q366.9844,191.25 367.4297,191.6719 Q367.875,192.0938 367.875,193.0781 L367.875,195.4219 Q367.875,196.4063 367.4531,196.8281 Q367.0313,197.25 366.375,197.25 Q365.7891,197.25 365.4141,196.9922 Q365.0391,196.7344 364.875,196.0547 Q364.8047,195.5859 364.5469,195.3281 Q364.0781,194.8359 363.2344,194.5547 Q362.3906,194.25 361.5469,194.25 Q360.4922,194.25 359.6016,194.6719 Q358.7344,195.0938 358.0547,196.0313 Q357.375,196.9688 357.375,198.2578 L357.375,199.6406 Q357.375,201.1875 358.6406,202.2188 Q359.9063,203.25 362.1563,203.25 Q363.4922,203.25 364.4297,202.9453 Q364.9688,202.7813 365.5781,202.2422 Q365.9766,201.9375 366.1875,201.8438 Q366.3984,201.75 366.6563,201.75 Q367.1484,201.75 367.5,202.1484 Q367.875,202.5234 367.875,203.0625 Q367.875,203.5781 367.3594,204.1875 Q366.6094,205.0781 365.4141,205.5703 Q363.8438,206.25 361.9219,206.25 Q359.6719,206.25 357.8672,205.3594 Q356.4141,204.6563 355.3828,203.1328 Q354.375,201.6094 354.375,199.8047 L354.375,198.1641 Q354.375,196.2891 355.2656,194.6484 Q356.1797,193.0078 357.75,192.1406 Q359.3438,191.25 361.125,191.25 Q362.2031,191.25 363.1406,191.625 Q364.0781,192 364.875,192.75 Z " fill="#000000"/><text fill="#000000" font-family="sans-serif" font-size="18" lengthAdjust="spacing" textLength="211.5" x="392.625" y="205.3652">CreateTestTypeController</text><line style="stroke:#A80036;stroke-width:2.25;" x1="147" x2="801" y1="222" y2="222"/><line style="stroke:#A80036;stroke-width:2.25;" x1="147" x2="801" y1="234" y2="234"/><ellipse cx="162" cy="250.5" fill="#84BE84" rx="4.5" ry="4.5" style="stroke:#038048;stroke-width:1.5;"/><text fill="#000000" font-family="sans-serif" font-size="16.5" lengthAdjust="spacing" textLength="618" x="175.5" y="257.1284">createTestType(code,description,collecting method,selectedParameterCategoriesList)</text><ellipse cx="162" cy="271.2539" fill="#84BE84" rx="4.5" ry="4.5" style="stroke:#038048;stroke-width:1.5;"/><text fill="#000000" font-family="sans-serif" font-size="16.5" lengthAdjust="spacing" textLength="115.5" x="175.5" y="277.8823">saveTestType()</text><ellipse cx="162" cy="292.0078" fill="#84BE84" rx="4.5" ry="4.5" style="stroke:#038048;stroke-width:1.5;"/><text fill="#000000" font-family="sans-serif" font-size="16.5" lengthAdjust="spacing" textLength="397.5" x="175.5" y="298.6362">List&lt;ParameterCategoryDto&gt; getParameterCategories()</text><!--MD5=[aeb3272166074d8737a70b61b1e71682]
class TestType--><rect codeLine="16" fill="#FEFECE" filter="url(#f82yhis633qdt)" height="175.7695" id="TestType" style="stroke:#A80036;stroke-width:2.25;" width="556.5" x="60.75" y="903"/><ellipse cx="295.125" cy="927" fill="#ADD1B2" rx="16.5" ry="16.5" style="stroke:#A80036;stroke-width:1.5;"/><path d="M298.125,921.75 Q298.4297,921 298.7813,920.625 Q299.1328,920.25 299.5313,920.25 Q300.2344,920.25 300.6797,920.6719 Q301.125,921.0938 301.125,922.0781 L301.125,924.4219 Q301.125,925.4063 300.7031,925.8281 Q300.2813,926.25 299.625,926.25 Q299.0391,926.25 298.6641,925.9922 Q298.2891,925.7344 298.125,925.0547 Q298.0547,924.5859 297.7969,924.3281 Q297.3281,923.8359 296.4844,923.5547 Q295.6406,923.25 294.7969,923.25 Q293.7422,923.25 292.8516,923.6719 Q291.9844,924.0938 291.3047,925.0313 Q290.625,925.9688 290.625,927.2578 L290.625,928.6406 Q290.625,930.1875 291.8906,931.2188 Q293.1563,932.25 295.4063,932.25 Q296.7422,932.25 297.6797,931.9453 Q298.2188,931.7813 298.8281,931.2422 Q299.2266,930.9375 299.4375,930.8438 Q299.6484,930.75 299.9063,930.75 Q300.3984,930.75 300.75,931.1484 Q301.125,931.5234 301.125,932.0625 Q301.125,932.5781 300.6094,933.1875 Q299.8594,934.0781 298.6641,934.5703 Q297.0938,935.25 295.1719,935.25 Q292.9219,935.25 291.1172,934.3594 Q289.6641,933.6563 288.6328,932.1328 Q287.625,930.6094 287.625,928.8047 L287.625,927.1641 Q287.625,925.2891 288.5156,923.6484 Q289.4297,922.0078 291,921.1406 Q292.5938,920.25 294.375,920.25 Q295.4531,920.25 296.3906,920.625 Q297.3281,921 298.125,921.75 Z " fill="#000000"/><text fill="#000000" font-family="sans-serif" font-size="18" lengthAdjust="spacing" textLength="75" x="325.875" y="934.3652">TestType</text><line style="stroke:#A80036;stroke-width:2.25;" x1="62.25" x2="615.75" y1="951" y2="951"/><rect fill="none" height="9" style="stroke:#C82930;stroke-width:1.5;" width="9" x="72.75" y="963"/><text fill="#000000" font-family="sans-serif" font-size="16.5" lengthAdjust="spacing" textLength="82.5" x="90.75" y="974.1284">String code</text><rect fill="none" height="9" style="stroke:#C82930;stroke-width:1.5;" width="9" x="72.75" y="983.7539"/><text fill="#000000" font-family="sans-serif" font-size="16.5" lengthAdjust="spacing" textLength="126" x="90.75" y="994.8823">String description</text><rect fill="none" height="9" style="stroke:#C82930;stroke-width:1.5;" width="9" x="72.75" y="1004.5078"/><text fill="#000000" font-family="sans-serif" font-size="16.5" lengthAdjust="spacing" textLength="166.5" x="90.75" y="1015.6362">String collectingMethod</text><rect fill="none" height="9" style="stroke:#C82930;stroke-width:1.5;" width="9" x="72.75" y="1025.2617"/><text fill="#000000" font-family="sans-serif" font-size="16.5" lengthAdjust="spacing" textLength="388.5" x="90.75" y="1036.3901">List&lt;ParameterCategories&gt; listOfParameterCategories</text><line style="stroke:#A80036;stroke-width:2.25;" x1="62.25" x2="615.75" y1="1046.0156" y2="1046.0156"/><ellipse cx="77.25" cy="1062.5156" fill="#84BE84" rx="4.5" ry="4.5" style="stroke:#038048;stroke-width:1.5;"/><text fill="#000000" font-family="sans-serif" font-size="16.5" lengthAdjust="spacing" textLength="517.5" x="90.75" y="1069.144">TestType(code,description,collectingMethod,listOfParameterCategories)</text><!--MD5=[6ba72ddf03822b91e8d41ca71de58ed3]
class TestTypeStore--><rect codeLine="24" fill="#FEFECE" filter="url(#f82yhis633qdt)" height="155.0156" id="TestTypeStore" style="stroke:#A80036;stroke-width:2.25;" width="657" x="10.5" y="631.5"/><ellipse cx="273.375" cy="655.5" fill="#ADD1B2" rx="16.5" ry="16.5" style="stroke:#A80036;stroke-width:1.5;"/><path d="M276.375,650.25 Q276.6797,649.5 277.0313,649.125 Q277.3828,648.75 277.7813,648.75 Q278.4844,648.75 278.9297,649.1719 Q279.375,649.5938 279.375,650.5781 L279.375,652.9219 Q279.375,653.9063 278.9531,654.3281 Q278.5313,654.75 277.875,654.75 Q277.2891,654.75 276.9141,654.4922 Q276.5391,654.2344 276.375,653.5547 Q276.3047,653.0859 276.0469,652.8281 Q275.5781,652.3359 274.7344,652.0547 Q273.8906,651.75 273.0469,651.75 Q271.9922,651.75 271.1016,652.1719 Q270.2344,652.5938 269.5547,653.5313 Q268.875,654.4688 268.875,655.7578 L268.875,657.1406 Q268.875,658.6875 270.1406,659.7188 Q271.4063,660.75 273.6563,660.75 Q274.9922,660.75 275.9297,660.4453 Q276.4688,660.2813 277.0781,659.7422 Q277.4766,659.4375 277.6875,659.3438 Q277.8984,659.25 278.1563,659.25 Q278.6484,659.25 279,659.6484 Q279.375,660.0234 279.375,660.5625 Q279.375,661.0781 278.8594,661.6875 Q278.1094,662.5781 276.9141,663.0703 Q275.3438,663.75 273.4219,663.75 Q271.1719,663.75 269.3672,662.8594 Q267.9141,662.1563 266.8828,660.6328 Q265.875,659.1094 265.875,657.3047 L265.875,655.6641 Q265.875,653.7891 266.7656,652.1484 Q267.6797,650.5078 269.25,649.6406 Q270.8438,648.75 272.625,648.75 Q273.7031,648.75 274.6406,649.125 Q275.5781,649.5 276.375,650.25 Z " fill="#000000"/><text fill="#000000" font-family="sans-serif" font-size="18" lengthAdjust="spacing" textLength="118.5" x="304.125" y="662.8652">TestTypeStore</text><line style="stroke:#A80036;stroke-width:2.25;" x1="12" x2="666" y1="679.5" y2="679.5"/><line style="stroke:#A80036;stroke-width:2.25;" x1="12" x2="666" y1="691.5" y2="691.5"/><ellipse cx="27" cy="708" fill="#84BE84" rx="4.5" ry="4.5" style="stroke:#038048;stroke-width:1.5;"/><text fill="#000000" font-family="sans-serif" font-size="16.5" lengthAdjust="spacing" textLength="618" x="40.5" y="714.6284">createTestType(code,description,collecting method,selectedParameterCategoriesList)</text><ellipse cx="27" cy="728.7539" fill="#84BE84" rx="4.5" ry="4.5" style="stroke:#038048;stroke-width:1.5;"/><text fill="#000000" font-family="sans-serif" font-size="16.5" lengthAdjust="spacing" textLength="198" x="40.5" y="735.3823">validateTestType(testType)</text><ellipse cx="27" cy="749.5078" fill="#84BE84" rx="4.5" ry="4.5" style="stroke:#038048;stroke-width:1.5;"/><text fill="#000000" font-family="sans-serif" font-size="16.5" lengthAdjust="spacing" textLength="169.5" x="40.5" y="756.1362">addTestType(testType)</text><ellipse cx="27" cy="770.2617" fill="#84BE84" rx="4.5" ry="4.5" style="stroke:#038048;stroke-width:1.5;"/><text fill="#000000" font-family="sans-serif" font-size="16.5" lengthAdjust="spacing" textLength="184.5" x="40.5" y="776.8901">saveTestType((testType)</text><!--MD5=[d802db621b5b215a6f0466f93cefcb42]
class ParameterCategoryStore--><rect codeLine="31" fill="#FEFECE" filter="url(#f82yhis633qdt)" height="113.5078" id="ParameterCategoryStore" style="stroke:#A80036;stroke-width:2.25;" width="268.5" x="458.25" y="400.5"/><ellipse cx="488.175" cy="424.5" fill="#ADD1B2" rx="16.5" ry="16.5" style="stroke:#A80036;stroke-width:1.5;"/><path d="M491.175,419.25 Q491.4797,418.5 491.8312,418.125 Q492.1828,417.75 492.5812,417.75 Q493.2844,417.75 493.7297,418.1719 Q494.175,418.5938 494.175,419.5781 L494.175,421.9219 Q494.175,422.9063 493.7531,423.3281 Q493.3312,423.75 492.675,423.75 Q492.0891,423.75 491.7141,423.4922 Q491.3391,423.2344 491.175,422.5547 Q491.1047,422.0859 490.8469,421.8281 Q490.3781,421.3359 489.5344,421.0547 Q488.6906,420.75 487.8469,420.75 Q486.7922,420.75 485.9016,421.1719 Q485.0344,421.5938 484.3547,422.5313 Q483.675,423.4688 483.675,424.7578 L483.675,426.1406 Q483.675,427.6875 484.9406,428.7188 Q486.2062,429.75 488.4562,429.75 Q489.7922,429.75 490.7297,429.4453 Q491.2687,429.2813 491.8781,428.7422 Q492.2766,428.4375 492.4875,428.3438 Q492.6984,428.25 492.9562,428.25 Q493.4484,428.25 493.8,428.6484 Q494.175,429.0234 494.175,429.5625 Q494.175,430.0781 493.6594,430.6875 Q492.9094,431.5781 491.7141,432.0703 Q490.1437,432.75 488.2219,432.75 Q485.9719,432.75 484.1672,431.8594 Q482.7141,431.1563 481.6828,429.6328 Q480.675,428.1094 480.675,426.3047 L480.675,424.6641 Q480.675,422.7891 481.5656,421.1484 Q482.4797,419.5078 484.05,418.6406 Q485.6437,417.75 487.425,417.75 Q488.5031,417.75 489.4406,418.125 Q490.3781,418.5 491.175,419.25 Z " fill="#000000"/><text fill="#000000" font-family="sans-serif" font-size="18" lengthAdjust="spacing" textLength="204" x="510.825" y="431.8652">ParameterCategoryStore</text><line style="stroke:#A80036;stroke-width:2.25;" x1="459.75" x2="725.25" y1="448.5" y2="448.5"/><line style="stroke:#A80036;stroke-width:2.25;" x1="459.75" x2="725.25" y1="460.5" y2="460.5"/><ellipse cx="474.75" cy="477" fill="#84BE84" rx="4.5" ry="4.5" style="stroke:#038048;stroke-width:1.5;"/><text fill="#000000" font-family="sans-serif" font-size="16.5" lengthAdjust="spacing" textLength="186" x="488.25" y="483.6284">getParameterCategories()</text><ellipse cx="474.75" cy="497.7539" fill="#84BE84" rx="4.5" ry="4.5" style="stroke:#038048;stroke-width:1.5;"/><text fill="#000000" font-family="sans-serif" font-size="16.5" lengthAdjust="spacing" textLength="229.5" x="488.25" y="504.3823">getParameterCategorybyCode()</text><!--MD5=[fab6cba0d8a30102bb3e071a5ce00b91]
class ParameterCategoryMapper--><rect codeLine="36" fill="#FEFECE" filter="url(#f82yhis633qdt)" height="72" id="ParameterCategoryMapper" style="stroke:#A80036;stroke-width:2.25;" width="270" x="961.5" y="205.5"/><ellipse cx="984" cy="229.5" fill="#ADD1B2" rx="16.5" ry="16.5" style="stroke:#A80036;stroke-width:1.5;"/><path d="M987,224.25 Q987.3047,223.5 987.6563,223.125 Q988.0078,222.75 988.4063,222.75 Q989.1094,222.75 989.5547,223.1719 Q990,223.5938 990,224.5781 L990,226.9219 Q990,227.9063 989.5781,228.3281 Q989.1563,228.75 988.5,228.75 Q987.9141,228.75 987.5391,228.4922 Q987.1641,228.2344 987,227.5547 Q986.9297,227.0859 986.6719,226.8281 Q986.2031,226.3359 985.3594,226.0547 Q984.5156,225.75 983.6719,225.75 Q982.6172,225.75 981.7266,226.1719 Q980.8594,226.5938 980.1797,227.5313 Q979.5,228.4688 979.5,229.7578 L979.5,231.1406 Q979.5,232.6875 980.7656,233.7188 Q982.0313,234.75 984.2813,234.75 Q985.6172,234.75 986.5547,234.4453 Q987.0938,234.2813 987.7031,233.7422 Q988.1016,233.4375 988.3125,233.3438 Q988.5234,233.25 988.7813,233.25 Q989.2734,233.25 989.625,233.6484 Q990,234.0234 990,234.5625 Q990,235.0781 989.4844,235.6875 Q988.7344,236.5781 987.5391,237.0703 Q985.9688,237.75 984.0469,237.75 Q981.7969,237.75 979.9922,236.8594 Q978.5391,236.1563 977.5078,234.6328 Q976.5,233.1094 976.5,231.3047 L976.5,229.6641 Q976.5,227.7891 977.3906,226.1484 Q978.3047,224.5078 979.875,223.6406 Q981.4688,222.75 983.25,222.75 Q984.3281,222.75 985.2656,223.125 Q986.2031,223.5 987,224.25 Z " fill="#000000"/><text fill="#000000" font-family="sans-serif" font-size="18" lengthAdjust="spacing" textLength="222" x="1005" y="236.8652">ParameterCategoryMapper</text><line style="stroke:#A80036;stroke-width:2.25;" x1="963" x2="1230" y1="253.5" y2="253.5"/><line style="stroke:#A80036;stroke-width:2.25;" x1="963" x2="1230" y1="265.5" y2="265.5"/><!--MD5=[ae4ce8b9e36cc829775f8966335bc94b]
class ParameterCategoryDto--><rect codeLine="40" fill="#FEFECE" filter="url(#f82yhis633qdt)" height="92.7539" id="ParameterCategoryDto" style="stroke:#A80036;stroke-width:2.25;" width="237" x="780" y="411"/><ellipse cx="802.5" cy="435" fill="#ADD1B2" rx="16.5" ry="16.5" style="stroke:#A80036;stroke-width:1.5;"/><path d="M805.5,429.75 Q805.8047,429 806.1563,428.625 Q806.5078,428.25 806.9063,428.25 Q807.6094,428.25 808.0547,428.6719 Q808.5,429.0938 808.5,430.0781 L808.5,432.4219 Q808.5,433.4063 808.0781,433.8281 Q807.6563,434.25 807,434.25 Q806.4141,434.25 806.0391,433.9922 Q805.6641,433.7344 805.5,433.0547 Q805.4297,432.5859 805.1719,432.3281 Q804.7031,431.8359 803.8594,431.5547 Q803.0156,431.25 802.1719,431.25 Q801.1172,431.25 800.2266,431.6719 Q799.3594,432.0938 798.6797,433.0313 Q798,433.9688 798,435.2578 L798,436.6406 Q798,438.1875 799.2656,439.2188 Q800.5313,440.25 802.7813,440.25 Q804.1172,440.25 805.0547,439.9453 Q805.5938,439.7813 806.2031,439.2422 Q806.6016,438.9375 806.8125,438.8438 Q807.0234,438.75 807.2813,438.75 Q807.7734,438.75 808.125,439.1484 Q808.5,439.5234 808.5,440.0625 Q808.5,440.5781 807.9844,441.1875 Q807.2344,442.0781 806.0391,442.5703 Q804.4688,443.25 802.5469,443.25 Q800.2969,443.25 798.4922,442.3594 Q797.0391,441.6563 796.0078,440.1328 Q795,438.6094 795,436.8047 L795,435.1641 Q795,433.2891 795.8906,431.6484 Q796.8047,430.0078 798.375,429.1406 Q799.9688,428.25 801.75,428.25 Q802.8281,428.25 803.7656,428.625 Q804.7031,429 805.5,429.75 Z " fill="#000000"/><text fill="#000000" font-family="sans-serif" font-size="18" lengthAdjust="spacing" textLength="189" x="823.5" y="442.3652">ParameterCategoryDto</text><line style="stroke:#A80036;stroke-width:2.25;" x1="781.5" x2="1015.5" y1="459" y2="459"/><ellipse cx="796.5" cy="475.5" rx="4.5" ry="4.5" style="stroke:#038048;stroke-width:1.5;fill:none;"/><text fill="#000000" font-family="sans-serif" font-size="16.5" lengthAdjust="spacing" textLength="85.5" x="810" y="482.1284">String name</text><line style="stroke:#A80036;stroke-width:2.25;" x1="781.5" x2="1015.5" y1="491.7539" y2="491.7539"/><!--MD5=[36afb6bbd95a8ac778c4537c55a683d5]
class ParameterCategory--><rect codeLine="44" fill="#FEFECE" filter="url(#f82yhis633qdt)" height="113.5078" id="ParameterCategory" style="stroke:#A80036;stroke-width:2.25;" width="208.5" x="857.25" y="651.75"/><ellipse cx="879.75" cy="675.75" fill="#ADD1B2" rx="16.5" ry="16.5" style="stroke:#A80036;stroke-width:1.5;"/><path d="M882.75,670.5 Q883.0547,669.75 883.4063,669.375 Q883.7578,669 884.1563,669 Q884.8594,669 885.3047,669.4219 Q885.75,669.8438 885.75,670.8281 L885.75,673.1719 Q885.75,674.1563 885.3281,674.5781 Q884.9063,675 884.25,675 Q883.6641,675 883.2891,674.7422 Q882.9141,674.4844 882.75,673.8047 Q882.6797,673.3359 882.4219,673.0781 Q881.9531,672.5859 881.1094,672.3047 Q880.2656,672 879.4219,672 Q878.3672,672 877.4766,672.4219 Q876.6094,672.8438 875.9297,673.7813 Q875.25,674.7188 875.25,676.0078 L875.25,677.3906 Q875.25,678.9375 876.5156,679.9688 Q877.7813,681 880.0313,681 Q881.3672,681 882.3047,680.6953 Q882.8438,680.5313 883.4531,679.9922 Q883.8516,679.6875 884.0625,679.5938 Q884.2734,679.5 884.5313,679.5 Q885.0234,679.5 885.375,679.8984 Q885.75,680.2734 885.75,680.8125 Q885.75,681.3281 885.2344,681.9375 Q884.4844,682.8281 883.2891,683.3203 Q881.7188,684 879.7969,684 Q877.5469,684 875.7422,683.1094 Q874.2891,682.4063 873.2578,680.8828 Q872.25,679.3594 872.25,677.5547 L872.25,675.9141 Q872.25,674.0391 873.1406,672.3984 Q874.0547,670.7578 875.625,669.8906 Q877.2188,669 879,669 Q880.0781,669 881.0156,669.375 Q881.9531,669.75 882.75,670.5 Z " fill="#000000"/><text fill="#000000" font-family="sans-serif" font-size="18" lengthAdjust="spacing" textLength="160.5" x="900.75" y="683.1152">ParameterCategory</text><line style="stroke:#A80036;stroke-width:2.25;" x1="858.75" x2="1064.25" y1="699.75" y2="699.75"/><ellipse cx="873.75" cy="716.25" rx="4.5" ry="4.5" style="stroke:#038048;stroke-width:1.5;fill:none;"/><text fill="#000000" font-family="sans-serif" font-size="16.5" lengthAdjust="spacing" textLength="85.5" x="887.25" y="722.8784">String name</text><ellipse cx="873.75" cy="737.0039" rx="4.5" ry="4.5" style="stroke:#038048;stroke-width:1.5;fill:none;"/><text fill="#000000" font-family="sans-serif" font-size="16.5" lengthAdjust="spacing" textLength="82.5" x="887.25" y="743.6323">String code</text><line style="stroke:#A80036;stroke-width:2.25;" x1="858.75" x2="1064.25" y1="753.2578" y2="753.2578"/><!--MD5=[69134a8957932d955e1f822b15ec4b1c]
link CreateTestTypeUI to CreateTestTypeController--><path codeLine="49" d="M641.055,82.77 C615.765,106.575 581.31,139.005 550.26,168.225 " fill="none" id="CreateTestTypeUI-to-CreateTestTypeController" style="stroke:#A80036;stroke-width:1.5;stroke-dasharray:7.0,7.0;"/><polygon fill="#A80036" points="544.5,173.64,558.453,168.7858,549.9722,168.5112,550.2469,160.0303,544.5,173.64" style="stroke:#A80036;stroke-width:1.5;"/><!--MD5=[a0c08eca13bfc06260ed3890b790a8bb]
link CreateTestTypeUI to ParameterCategoryDto--><path codeLine="50" d="M735.6,82.635 C767.835,104.88 806.115,136.575 829.5,174 C873.975,245.175 889.785,343.08 895.41,402.825 " fill="none" id="CreateTestTypeUI-to-ParameterCategoryDto" style="stroke:#A80036;stroke-width:1.5;stroke-dasharray:7.0,7.0;"/><polygon fill="#A80036" points="896.1,410.625,900.882,396.6471,895.4364,403.1544,888.9291,397.7088,896.1,410.625" style="stroke:#A80036;stroke-width:1.5;"/><!--MD5=[812ef8251b528d1a64980212cceda9f5]
link CreateTestTypeController to Company--><path codeLine="51" d="M380.25,309.225 C341.205,336.825 296.16,368.64 258.015,395.58 " fill="none" id="CreateTestTypeController-to-Company" style="stroke:#A80036;stroke-width:1.5;stroke-dasharray:7.0,7.0;"/><polygon fill="#A80036" points="251.475,400.215,265.9634,397.3276,257.6011,395.8882,259.0405,387.5259,251.475,400.215" style="stroke:#A80036;stroke-width:1.5;"/><!--MD5=[97f86ea091f10acfb6befc2251259947]
link CreateTestTypeController to TestTypeStore--><path codeLine="52" d="M454.8,309.03 C430.725,391.815 389.445,533.79 363.225,623.955 " fill="none" id="CreateTestTypeController-to-TestTypeStore" style="stroke:#A80036;stroke-width:1.5;stroke-dasharray:7.0,7.0;"/><polygon fill="#A80036" points="361.05,631.44,370.59,620.16,363.15,624.24,359.07,616.8,361.05,631.44" style="stroke:#A80036;stroke-width:1.5;"/><!--MD5=[f4bf28669fe4ba1101395c8fda9b28f2]
link CreateTestTypeController to ParameterCategoryStore--><path codeLine="53" d="M510.84,309.225 C525.75,336.015 542.88,366.81 557.58,393.24 " fill="none" id="CreateTestTypeController-to-ParameterCategoryStore" style="stroke:#A80036;stroke-width:1.5;stroke-dasharray:7.0,7.0;"/><polygon fill="#A80036" points="561.27,399.855,559.9588,385.14,557.6277,393.2988,549.4689,390.9677,561.27,399.855" style="stroke:#A80036;stroke-width:1.5;"/><!--MD5=[d826292dd1c3de1d289673c07e4766db]
link CreateTestTypeController to ParameterCategoryDto--><path codeLine="54" d="M605.985,309.225 C669.135,340.905 743.4,378.18 801.3,407.22 " fill="none" id="CreateTestTypeController-to-ParameterCategoryDto" style="stroke:#A80036;stroke-width:1.5;stroke-dasharray:7.0,7.0;"/><polygon fill="#A80036" points="808.275,410.73,798.8981,399.3141,801.5711,407.3673,793.5178,410.0403,808.275,410.73" style="stroke:#A80036;stroke-width:1.5;"/><!--MD5=[141c3afa12b2b3c0a39ffce56dbd5f19]
link Company to TestTypeStore--><path codeLine="55" d="M209.865,514.71 C231.705,547.275 259.68,588.99 283.995,625.245 " fill="none" id="Company-to-TestTypeStore" style="stroke:#A80036;stroke-width:1.5;"/><polygon fill="#A80036" points="288.18,631.485,285.6493,616.9301,284.0049,625.2545,275.6805,623.6102,288.18,631.485" style="stroke:#A80036;stroke-width:1.5;"/><text fill="#000000" font-family="sans-serif" font-size="19.5" lengthAdjust="spacing" textLength="42" x="258" y="581.2427">uses</text><text fill="#000000" font-family="sans-serif" font-size="19.5" lengthAdjust="spacing" textLength="10.5" x="204.4833" y="546.0643">1</text><text fill="#000000" font-family="sans-serif" font-size="19.5" lengthAdjust="spacing" textLength="10.5" x="269.7952" y="615.1756">1</text><!--MD5=[3eebf0e5f359806b77b30e9524c37676]
link TestTypeStore to TestType--><path codeLine="56" d="M339,786.495 C339,819.93 339,859.545 339,894.84 " fill="none" id="TestTypeStore-to-TestType" style="stroke:#A80036;stroke-width:1.5;"/><polygon fill="#A80036" points="339,902.76,345,889.26,339,895.26,333,889.26,339,902.76" style="stroke:#A80036;stroke-width:1.5;"/><text fill="#000000" font-family="sans-serif" font-size="19.5" lengthAdjust="spacing" textLength="79.5" x="340.5" y="852.7427">conducts</text><text fill="#000000" font-family="sans-serif" font-size="19.5" lengthAdjust="spacing" textLength="10.5" x="327.7945" y="818.7979">1</text><text fill="#000000" font-family="sans-serif" font-size="19.5" lengthAdjust="spacing" textLength="7.5" x="331.043" y="886.8321">*</text><!--MD5=[58fac5310c1666a6e65c137533900c90]
link ParameterCategoryMapper to ParameterCategoryDto--><path codeLine="57" d="M1064.25,277.695 C1032.075,312.3 982.305,365.835 945.705,405.225 " fill="none" id="ParameterCategoryMapper-to-ParameterCategoryDto" style="stroke:#A80036;stroke-width:1.5;stroke-dasharray:7.0,7.0;"/><polygon fill="#A80036" points="940.395,410.925,953.97,405.0967,945.491,405.4222,945.1655,396.9432,940.395,410.925" style="stroke:#A80036;stroke-width:1.5;"/><!--MD5=[19765d4468597c595e89fcbff5e25b10]
link ParameterCategoryMapper to ParameterCategory--><path codeLine="58" d="M1092.18,277.86 C1085.175,330.105 1069.485,431.43 1044,514.5 C1030.275,559.215 1009.545,607.605 992.295,644.715 " fill="none" id="ParameterCategoryMapper-to-ParameterCategory" style="stroke:#A80036;stroke-width:1.5;stroke-dasharray:7.0,7.0;"/><polygon fill="#A80036" points="989.115,651.51,1000.2627,641.8158,992.2878,644.7142,989.3894,636.7393,989.115,651.51" style="stroke:#A80036;stroke-width:1.5;"/><!--MD5=[d6274e3b73b5bc8f467c6cfbf5bf003e]
link ParameterCategoryStore to ParameterCategory--><path codeLine="59" d="M675.315,514.71 C733.95,554.16 812.505,607.02 872.49,647.37 " fill="none" id="ParameterCategoryStore-to-ParameterCategory" style="stroke:#A80036;stroke-width:1.5;"/><polygon fill="#A80036" points="878.97,651.72,871.1448,639.1894,872.7561,647.5203,864.4252,649.1316,878.97,651.72" style="stroke:#A80036;stroke-width:1.5;"/><text fill="#000000" font-family="sans-serif" font-size="19.5" lengthAdjust="spacing" textLength="73.5" x="778.5" y="581.2427">contains</text><text fill="#000000" font-family="sans-serif" font-size="19.5" lengthAdjust="spacing" textLength="10.5" x="677.1769" y="546.0643">1</text><text fill="#000000" font-family="sans-serif" font-size="19.5" lengthAdjust="spacing" textLength="30" x="830.9879" y="635.3293">1..*</text><!--MD5=[fb2100aaa064579cd2aef44e94c5320d]
@startuml

class Company{
+getTypeTestStore()
+getParameterCategoryStore()
}

class CreateTestTypeUI{
}

class CreateTestTypeController{
+createTestType(code,description,collecting method,selectedParameterCategoriesList)
+saveTestType()
+List<ParameterCategoryDto> getParameterCategories()
}

class TestType{
-String code
-String description
-String collectingMethod
-List<ParameterCategories> listOfParameterCategories
+TestType(code,description,collectingMethod,listOfParameterCategories)
}

class TestTypeStore{
+createTestType(code,description,collecting method,selectedParameterCategoriesList)
+validateTestType(testType)
+addTestType(testType)
+saveTestType((testType)
}

class ParameterCategoryStore{
+getParameterCategories()
+getParameterCategorybyCode()
}

class ParameterCategoryMapper{
}


class ParameterCategoryDto{
+ String name
}

class ParameterCategory{
+ String name
+ String code
}

CreateTestTypeUI ..> CreateTestTypeController
CreateTestTypeUI ..> ParameterCategoryDto
CreateTestTypeController ..> Company
CreateTestTypeController ..> TestTypeStore
CreateTestTypeController ..> ParameterCategoryStore
CreateTestTypeController ..> ParameterCategoryDto
Company"1"- -> "1" TestTypeStore : uses
TestTypeStore "1"- ->"*" TestType : conducts
ParameterCategoryMapper ..> ParameterCategoryDto
ParameterCategoryMapper ..> ParameterCategory
ParameterCategoryStore "1"- -> "1..*"ParameterCategory : contains

@enduml

PlantUML version 1.2021.5(Sun Apr 25 12:20:28 BST 2021)
(GPL source distribution)
Java Runtime: OpenJDK Runtime Environment
JVM: OpenJDK 64-Bit Server VM
Default Encoding: Cp1252
Language: pt
Country: PT
--></g></svg>