<?xml version="1.0" encoding="UTF-8" standalone="no"?><svg xmlns="http://www.w3.org/2000/svg" xmlns:xlink="http://www.w3.org/1999/xlink" contentScriptType="application/ecmascript" contentStyleType="text/css" height="810px" preserveAspectRatio="none" style="width:1006px;height:810px;" version="1.1" viewBox="0 0 1006 810" width="1006.2px" zoomAndPan="magnify"><defs><filter height="300%" id="f1jvs45uy2ncsl" width="300%" x="-1" y="-1"><feGaussianBlur result="blurOut" stdDeviation="1.8"/><feColorMatrix in="blurOut" result="blurOut2" type="matrix" values="0 0 0 0 0 0 0 0 0 0 0 0 0 0 0 0 0 0 .4 0"/><feOffset dx="3.6" dy="3.6" in="blurOut2" result="blurOut3"/><feBlend in="SourceGraphic" in2="blurOut3" mode="normal"/></filter></defs><g><!--MD5=[02e4b9b7573f1156f41e60aa5b4e25a4]
class Company--><rect codeLine="2" fill="#FEFECE" filter="url(#f1jvs45uy2ncsl)" height="80.557" id="Company" style="stroke:#A80036;stroke-width:1.35;" width="151.2" x="250.2" y="240.3"/><ellipse cx="298.125" cy="254.7" fill="#ADD1B2" rx="9.9" ry="9.9" style="stroke:#A80036;stroke-width:0.9;"/><path d="M299.925,251.55 Q300.1078,251.1 300.3188,250.875 Q300.5297,250.65 300.7688,250.65 Q301.1906,250.65 301.4578,250.9031 Q301.725,251.1563 301.725,251.7469 L301.725,253.1531 Q301.725,253.7438 301.4719,253.9969 Q301.2188,254.25 300.825,254.25 Q300.4734,254.25 300.2484,254.0953 Q300.0234,253.9406 299.925,253.5328 Q299.8828,253.2516 299.7281,253.0969 Q299.4469,252.8016 298.9406,252.6328 Q298.4344,252.45 297.9281,252.45 Q297.2953,252.45 296.7609,252.7031 Q296.2406,252.9563 295.8328,253.5188 Q295.425,254.0813 295.425,254.8547 L295.425,255.6844 Q295.425,256.6125 296.1844,257.2313 Q296.9438,257.85 298.2938,257.85 Q299.0953,257.85 299.6578,257.6672 Q299.9813,257.5688 300.3469,257.2453 Q300.5859,257.0625 300.7125,257.0063 Q300.8391,256.95 300.9938,256.95 Q301.2891,256.95 301.5,257.1891 Q301.725,257.4141 301.725,257.7375 Q301.725,258.0469 301.4156,258.4125 Q300.9656,258.9469 300.2484,259.2422 Q299.3063,259.65 298.1531,259.65 Q296.8031,259.65 295.7203,259.1156 Q294.8484,258.6938 294.2297,257.7797 Q293.625,256.8656 293.625,255.7828 L293.625,254.7984 Q293.625,253.6734 294.1594,252.6891 Q294.7078,251.7047 295.65,251.1844 Q296.6063,250.65 297.675,250.65 Q298.3219,250.65 298.8844,250.875 Q299.4469,251.1 299.925,251.55 Z " fill="#000000"/><text fill="#000000" font-family="sans-serif" font-size="10.8" lengthAdjust="spacing" textLength="47.7" x="316.575" y="259.1191">Company</text><line style="stroke:#A80036;stroke-width:1.35;" x1="251.1" x2="400.5" y1="269.1" y2="269.1"/><rect fill="none" height="5.4" style="stroke:#C82930;stroke-width:0.9;" width="5.4" x="257.4" y="276.3"/><text fill="#000000" font-family="sans-serif" font-size="9.9" lengthAdjust="spacing" textLength="77.4" x="268.2" y="282.9771">String designation</text><line style="stroke:#A80036;stroke-width:1.35;" x1="251.1" x2="400.5" y1="288.7523" y2="288.7523"/><ellipse cx="260.1" cy="298.6523" fill="#84BE84" rx="2.7" ry="2.7" style="stroke:#038048;stroke-width:0.9;"/><text fill="#000000" font-family="sans-serif" font-size="9.9" lengthAdjust="spacing" textLength="84.6" x="268.2" y="302.6294">getTestTypeStore()</text><ellipse cx="260.1" cy="311.1047" fill="#84BE84" rx="2.7" ry="2.7" style="stroke:#038048;stroke-width:0.9;"/><text fill="#000000" font-family="sans-serif" font-size="9.9" lengthAdjust="spacing" textLength="127.8" x="268.2" y="315.0817">getParameterCategoryStore()</text><!--MD5=[bebdcc43ebcb1534ee764d1f430c03ae]
class CreateTestTypeUI--><rect codeLine="8" fill="#FEFECE" filter="url(#f1jvs45uy2ncsl)" height="43.2" id="CreateTestTypeUI" style="stroke:#A80036;stroke-width:1.35;" width="117.9" x="745.65" y="6.3"/><ellipse cx="759.15" cy="20.7" fill="#ADD1B2" rx="9.9" ry="9.9" style="stroke:#A80036;stroke-width:0.9;"/><path d="M760.95,17.55 Q761.1328,17.1 761.3438,16.875 Q761.5547,16.65 761.7938,16.65 Q762.2156,16.65 762.4828,16.9031 Q762.75,17.1563 762.75,17.7469 L762.75,19.1531 Q762.75,19.7438 762.4969,19.9969 Q762.2438,20.25 761.85,20.25 Q761.4984,20.25 761.2734,20.0953 Q761.0484,19.9406 760.95,19.5328 Q760.9078,19.2516 760.7531,19.0969 Q760.4719,18.8016 759.9656,18.6328 Q759.4594,18.45 758.9531,18.45 Q758.3203,18.45 757.7859,18.7031 Q757.2656,18.9563 756.8578,19.5188 Q756.45,20.0813 756.45,20.8547 L756.45,21.6844 Q756.45,22.6125 757.2094,23.2313 Q757.9688,23.85 759.3188,23.85 Q760.1203,23.85 760.6828,23.6672 Q761.0063,23.5688 761.3719,23.2453 Q761.6109,23.0625 761.7375,23.0063 Q761.8641,22.95 762.0188,22.95 Q762.3141,22.95 762.525,23.1891 Q762.75,23.4141 762.75,23.7375 Q762.75,24.0469 762.4406,24.4125 Q761.9906,24.9469 761.2734,25.2422 Q760.3313,25.65 759.1781,25.65 Q757.8281,25.65 756.7453,25.1156 Q755.8734,24.6938 755.2547,23.7797 Q754.65,22.8656 754.65,21.7828 L754.65,20.7984 Q754.65,19.6734 755.1844,18.6891 Q755.7328,17.7047 756.675,17.1844 Q757.6313,16.65 758.7,16.65 Q759.3469,16.65 759.9094,16.875 Q760.4719,17.1 760.95,17.55 Z " fill="#000000"/><text fill="#000000" font-family="sans-serif" font-size="10.8" lengthAdjust="spacing" textLength="89.1" x="771.75" y="25.1191">CreateTestTypeUI</text><line style="stroke:#A80036;stroke-width:1.35;" x1="746.55" x2="862.65" y1="35.1" y2="35.1"/><line style="stroke:#A80036;stroke-width:1.35;" x1="746.55" x2="862.65" y1="42.3" y2="42.3"/><!--MD5=[2c845ebea24388d268f5a9acbeca4fd9]
class CreateTestTypeController--><rect codeLine="11" fill="#FEFECE" filter="url(#f1jvs45uy2ncsl)" height="80.557" id="CreateTestTypeController" style="stroke:#A80036;stroke-width:1.35;" width="394.2" x="415.8" y="104.4"/><ellipse cx="545.625" cy="118.8" fill="#ADD1B2" rx="9.9" ry="9.9" style="stroke:#A80036;stroke-width:0.9;"/><path d="M547.425,115.65 Q547.6078,115.2 547.8188,114.975 Q548.0297,114.75 548.2688,114.75 Q548.6906,114.75 548.9578,115.0031 Q549.225,115.2563 549.225,115.8469 L549.225,117.2531 Q549.225,117.8438 548.9719,118.0969 Q548.7188,118.35 548.325,118.35 Q547.9734,118.35 547.7484,118.1953 Q547.5234,118.0406 547.425,117.6328 Q547.3828,117.3516 547.2281,117.1969 Q546.9469,116.9016 546.4406,116.7328 Q545.9344,116.55 545.4281,116.55 Q544.7953,116.55 544.2609,116.8031 Q543.7406,117.0563 543.3328,117.6188 Q542.925,118.1813 542.925,118.9547 L542.925,119.7844 Q542.925,120.7125 543.6844,121.3313 Q544.4438,121.95 545.7938,121.95 Q546.5953,121.95 547.1578,121.7672 Q547.4813,121.6688 547.8469,121.3453 Q548.0859,121.1625 548.2125,121.1063 Q548.3391,121.05 548.4938,121.05 Q548.7891,121.05 549,121.2891 Q549.225,121.5141 549.225,121.8375 Q549.225,122.1469 548.9156,122.5125 Q548.4656,123.0469 547.7484,123.3422 Q546.8063,123.75 545.6531,123.75 Q544.3031,123.75 543.2203,123.2156 Q542.3484,122.7938 541.7297,121.8797 Q541.125,120.9656 541.125,119.8828 L541.125,118.8984 Q541.125,117.7734 541.6594,116.7891 Q542.2078,115.8047 543.15,115.2844 Q544.1063,114.75 545.175,114.75 Q545.8219,114.75 546.3844,114.975 Q546.9469,115.2 547.425,115.65 Z " fill="#000000"/><text fill="#000000" font-family="sans-serif" font-size="10.8" lengthAdjust="spacing" textLength="126.9" x="564.075" y="123.2191">CreateTestTypeController</text><line style="stroke:#A80036;stroke-width:1.35;" x1="416.7" x2="809.1" y1="133.2" y2="133.2"/><line style="stroke:#A80036;stroke-width:1.35;" x1="416.7" x2="809.1" y1="140.4" y2="140.4"/><ellipse cx="425.7" cy="150.3" fill="#84BE84" rx="2.7" ry="2.7" style="stroke:#038048;stroke-width:0.9;"/><text fill="#000000" font-family="sans-serif" font-size="9.9" lengthAdjust="spacing" textLength="370.8" x="433.8" y="154.2771">createTestType(code,description,collecting method,selectedParameterCategoriesList)</text><ellipse cx="425.7" cy="162.7523" fill="#84BE84" rx="2.7" ry="2.7" style="stroke:#038048;stroke-width:0.9;"/><text fill="#000000" font-family="sans-serif" font-size="9.9" lengthAdjust="spacing" textLength="69.3" x="433.8" y="166.7294">saveTestType()</text><ellipse cx="425.7" cy="175.2047" fill="#84BE84" rx="2.7" ry="2.7" style="stroke:#038048;stroke-width:0.9;"/><text fill="#000000" font-family="sans-serif" font-size="9.9" lengthAdjust="spacing" textLength="111.6" x="433.8" y="179.1817">getParameterCategories()</text><!--MD5=[aeb3272166074d8737a70b61b1e71682]
class TestType--><rect codeLine="17" fill="#FEFECE" filter="url(#f1jvs45uy2ncsl)" height="105.4617" id="TestType" style="stroke:#A80036;stroke-width:1.35;" width="333.9" x="223.65" y="554.4"/><ellipse cx="364.275" cy="568.8" fill="#ADD1B2" rx="9.9" ry="9.9" style="stroke:#A80036;stroke-width:0.9;"/><path d="M366.075,565.65 Q366.2578,565.2 366.4688,564.975 Q366.6797,564.75 366.9188,564.75 Q367.3406,564.75 367.6078,565.0031 Q367.875,565.2563 367.875,565.8469 L367.875,567.2531 Q367.875,567.8438 367.6219,568.0969 Q367.3688,568.35 366.975,568.35 Q366.6234,568.35 366.3984,568.1953 Q366.1734,568.0406 366.075,567.6328 Q366.0328,567.3516 365.8781,567.1969 Q365.5969,566.9016 365.0906,566.7328 Q364.5844,566.55 364.0781,566.55 Q363.4453,566.55 362.9109,566.8031 Q362.3906,567.0563 361.9828,567.6188 Q361.575,568.1813 361.575,568.9547 L361.575,569.7844 Q361.575,570.7125 362.3344,571.3313 Q363.0938,571.95 364.4438,571.95 Q365.2453,571.95 365.8078,571.7672 Q366.1313,571.6688 366.4969,571.3453 Q366.7359,571.1625 366.8625,571.1063 Q366.9891,571.05 367.1438,571.05 Q367.4391,571.05 367.65,571.2891 Q367.875,571.5141 367.875,571.8375 Q367.875,572.1469 367.5656,572.5125 Q367.1156,573.0469 366.3984,573.3422 Q365.4563,573.75 364.3031,573.75 Q362.9531,573.75 361.8703,573.2156 Q360.9984,572.7938 360.3797,571.8797 Q359.775,570.9656 359.775,569.8828 L359.775,568.8984 Q359.775,567.7734 360.3094,566.7891 Q360.8578,565.8047 361.8,565.2844 Q362.7563,564.75 363.825,564.75 Q364.4719,564.75 365.0344,564.975 Q365.5969,565.2 366.075,565.65 Z " fill="#000000"/><text fill="#000000" font-family="sans-serif" font-size="10.8" lengthAdjust="spacing" textLength="45" x="382.725" y="573.2191">TestType</text><line style="stroke:#A80036;stroke-width:1.35;" x1="224.55" x2="556.65" y1="583.2" y2="583.2"/><rect fill="none" height="5.4" style="stroke:#C82930;stroke-width:0.9;" width="5.4" x="230.85" y="590.4"/><text fill="#000000" font-family="sans-serif" font-size="9.9" lengthAdjust="spacing" textLength="49.5" x="241.65" y="597.0771">String code</text><rect fill="none" height="5.4" style="stroke:#C82930;stroke-width:0.9;" width="5.4" x="230.85" y="602.8523"/><text fill="#000000" font-family="sans-serif" font-size="9.9" lengthAdjust="spacing" textLength="75.6" x="241.65" y="609.5294">String description</text><rect fill="none" height="5.4" style="stroke:#C82930;stroke-width:0.9;" width="5.4" x="230.85" y="615.3047"/><text fill="#000000" font-family="sans-serif" font-size="9.9" lengthAdjust="spacing" textLength="99.9" x="241.65" y="621.9817">String collectingMethod</text><rect fill="none" height="5.4" style="stroke:#C82930;stroke-width:0.9;" width="5.4" x="230.85" y="627.757"/><text fill="#000000" font-family="sans-serif" font-size="9.9" lengthAdjust="spacing" textLength="233.1" x="241.65" y="634.4341">List&lt;ParameterCategories&gt; listOfParameterCategories</text><line style="stroke:#A80036;stroke-width:1.35;" x1="224.55" x2="556.65" y1="640.2094" y2="640.2094"/><ellipse cx="233.55" cy="650.1094" fill="#84BE84" rx="2.7" ry="2.7" style="stroke:#038048;stroke-width:0.9;"/><text fill="#000000" font-family="sans-serif" font-size="9.9" lengthAdjust="spacing" textLength="310.5" x="241.65" y="654.0864">TestType(code,description,collectingMethod,listOfParameterCategories)</text><!--MD5=[6ba72ddf03822b91e8d41ca71de58ed3]
class TestTypeStore--><rect codeLine="25" fill="#FEFECE" filter="url(#f1jvs45uy2ncsl)" height="93.0094" id="TestTypeStore" style="stroke:#A80036;stroke-width:1.35;" width="394.2" x="6.3" y="391.5"/><ellipse cx="164.025" cy="405.9" fill="#ADD1B2" rx="9.9" ry="9.9" style="stroke:#A80036;stroke-width:0.9;"/><path d="M165.825,402.75 Q166.0078,402.3 166.2188,402.075 Q166.4297,401.85 166.6688,401.85 Q167.0906,401.85 167.3578,402.1031 Q167.625,402.3563 167.625,402.9469 L167.625,404.3531 Q167.625,404.9438 167.3719,405.1969 Q167.1188,405.45 166.725,405.45 Q166.3734,405.45 166.1484,405.2953 Q165.9234,405.1406 165.825,404.7328 Q165.7828,404.4516 165.6281,404.2969 Q165.3469,404.0016 164.8406,403.8328 Q164.3344,403.65 163.8281,403.65 Q163.1953,403.65 162.6609,403.9031 Q162.1406,404.1563 161.7328,404.7188 Q161.325,405.2813 161.325,406.0547 L161.325,406.8844 Q161.325,407.8125 162.0844,408.4313 Q162.8438,409.05 164.1938,409.05 Q164.9953,409.05 165.5578,408.8672 Q165.8813,408.7688 166.2469,408.4453 Q166.4859,408.2625 166.6125,408.2063 Q166.7391,408.15 166.8938,408.15 Q167.1891,408.15 167.4,408.3891 Q167.625,408.6141 167.625,408.9375 Q167.625,409.2469 167.3156,409.6125 Q166.8656,410.1469 166.1484,410.4422 Q165.2063,410.85 164.0531,410.85 Q162.7031,410.85 161.6203,410.3156 Q160.7484,409.8938 160.1297,408.9797 Q159.525,408.0656 159.525,406.9828 L159.525,405.9984 Q159.525,404.8734 160.0594,403.8891 Q160.6078,402.9047 161.55,402.3844 Q162.5063,401.85 163.575,401.85 Q164.2219,401.85 164.7844,402.075 Q165.3469,402.3 165.825,402.75 Z " fill="#000000"/><text fill="#000000" font-family="sans-serif" font-size="10.8" lengthAdjust="spacing" textLength="71.1" x="182.475" y="410.3191">TestTypeStore</text><line style="stroke:#A80036;stroke-width:1.35;" x1="7.2" x2="399.6" y1="420.3" y2="420.3"/><line style="stroke:#A80036;stroke-width:1.35;" x1="7.2" x2="399.6" y1="427.5" y2="427.5"/><ellipse cx="16.2" cy="437.4" fill="#84BE84" rx="2.7" ry="2.7" style="stroke:#038048;stroke-width:0.9;"/><text fill="#000000" font-family="sans-serif" font-size="9.9" lengthAdjust="spacing" textLength="370.8" x="24.3" y="441.3771">createTestType(code,description,collecting method,selectedParameterCategoriesList)</text><ellipse cx="16.2" cy="449.8523" fill="#84BE84" rx="2.7" ry="2.7" style="stroke:#038048;stroke-width:0.9;"/><text fill="#000000" font-family="sans-serif" font-size="9.9" lengthAdjust="spacing" textLength="118.8" x="24.3" y="453.8294">validateTestType(testType)</text><ellipse cx="16.2" cy="462.3047" fill="#84BE84" rx="2.7" ry="2.7" style="stroke:#038048;stroke-width:0.9;"/><text fill="#000000" font-family="sans-serif" font-size="9.9" lengthAdjust="spacing" textLength="101.7" x="24.3" y="466.2817">addTestType(testType)</text><ellipse cx="16.2" cy="474.757" fill="#84BE84" rx="2.7" ry="2.7" style="stroke:#038048;stroke-width:0.9;"/><text fill="#000000" font-family="sans-serif" font-size="9.9" lengthAdjust="spacing" textLength="110.7" x="24.3" y="478.7341">saveTestType((testType)</text><!--MD5=[d802db621b5b215a6f0466f93cefcb42]
class ParameterCategoryStore--><rect codeLine="32" fill="#FEFECE" filter="url(#f1jvs45uy2ncsl)" height="68.1047" id="ParameterCategoryStore" style="stroke:#A80036;stroke-width:1.35;" width="161.1" x="496.35" y="403.65"/><ellipse cx="514.305" cy="418.05" fill="#ADD1B2" rx="9.9" ry="9.9" style="stroke:#A80036;stroke-width:0.9;"/><path d="M516.105,414.9 Q516.2878,414.45 516.4988,414.225 Q516.7097,414 516.9488,414 Q517.3706,414 517.6378,414.2531 Q517.905,414.5063 517.905,415.0969 L517.905,416.5031 Q517.905,417.0938 517.6519,417.3469 Q517.3988,417.6 517.005,417.6 Q516.6534,417.6 516.4284,417.4453 Q516.2034,417.2906 516.105,416.8828 Q516.0628,416.6016 515.9081,416.4469 Q515.6269,416.1516 515.1206,415.9828 Q514.6144,415.8 514.1081,415.8 Q513.4753,415.8 512.9409,416.0531 Q512.4206,416.3063 512.0128,416.8688 Q511.605,417.4313 511.605,418.2047 L511.605,419.0344 Q511.605,419.9625 512.3644,420.5813 Q513.1238,421.2 514.4738,421.2 Q515.2753,421.2 515.8378,421.0172 Q516.1613,420.9188 516.5269,420.5953 Q516.7659,420.4125 516.8925,420.3563 Q517.0191,420.3 517.1738,420.3 Q517.4691,420.3 517.68,420.5391 Q517.905,420.7641 517.905,421.0875 Q517.905,421.3969 517.5956,421.7625 Q517.1456,422.2969 516.4284,422.5922 Q515.4863,423 514.3331,423 Q512.9831,423 511.9003,422.4656 Q511.0284,422.0438 510.4097,421.1297 Q509.805,420.2156 509.805,419.1328 L509.805,418.1484 Q509.805,417.0234 510.3394,416.0391 Q510.8878,415.0547 511.83,414.5344 Q512.7863,414 513.855,414 Q514.5019,414 515.0644,414.225 Q515.6269,414.45 516.105,414.9 Z " fill="#000000"/><text fill="#000000" font-family="sans-serif" font-size="10.8" lengthAdjust="spacing" textLength="122.4" x="527.895" y="422.4691">ParameterCategoryStore</text><line style="stroke:#A80036;stroke-width:1.35;" x1="497.25" x2="656.55" y1="432.45" y2="432.45"/><line style="stroke:#A80036;stroke-width:1.35;" x1="497.25" x2="656.55" y1="439.65" y2="439.65"/><ellipse cx="506.25" cy="449.55" fill="#84BE84" rx="2.7" ry="2.7" style="stroke:#038048;stroke-width:0.9;"/><text fill="#000000" font-family="sans-serif" font-size="9.9" lengthAdjust="spacing" textLength="119.7" x="514.35" y="453.5271">getParameterCategoryList()</text><ellipse cx="506.25" cy="462.0023" fill="#84BE84" rx="2.7" ry="2.7" style="stroke:#038048;stroke-width:0.9;"/><text fill="#000000" font-family="sans-serif" font-size="9.9" lengthAdjust="spacing" textLength="137.7" x="514.35" y="465.9794">getParameterCategorybyCode()</text><!--MD5=[fab6cba0d8a30102bb3e071a5ce00b91]
class ParameterCategoryMapper--><rect codeLine="37" fill="#FEFECE" filter="url(#f1jvs45uy2ncsl)" height="68.1047" id="ParameterCategoryMapper" style="stroke:#A80036;stroke-width:1.35;" width="162" x="692.1" y="246.6"/><ellipse cx="705.6" cy="261" fill="#ADD1B2" rx="9.9" ry="9.9" style="stroke:#A80036;stroke-width:0.9;"/><path d="M707.4,257.85 Q707.5828,257.4 707.7938,257.175 Q708.0047,256.95 708.2438,256.95 Q708.6656,256.95 708.9328,257.2031 Q709.2,257.4563 709.2,258.0469 L709.2,259.4531 Q709.2,260.0438 708.9469,260.2969 Q708.6938,260.55 708.3,260.55 Q707.9484,260.55 707.7234,260.3953 Q707.4984,260.2406 707.4,259.8328 Q707.3578,259.5516 707.2031,259.3969 Q706.9219,259.1016 706.4156,258.9328 Q705.9094,258.75 705.4031,258.75 Q704.7703,258.75 704.2359,259.0031 Q703.7156,259.2563 703.3078,259.8188 Q702.9,260.3813 702.9,261.1547 L702.9,261.9844 Q702.9,262.9125 703.6594,263.5313 Q704.4188,264.15 705.7688,264.15 Q706.5703,264.15 707.1328,263.9672 Q707.4563,263.8688 707.8219,263.5453 Q708.0609,263.3625 708.1875,263.3063 Q708.3141,263.25 708.4688,263.25 Q708.7641,263.25 708.975,263.4891 Q709.2,263.7141 709.2,264.0375 Q709.2,264.3469 708.8906,264.7125 Q708.4406,265.2469 707.7234,265.5422 Q706.7813,265.95 705.6281,265.95 Q704.2781,265.95 703.1953,265.4156 Q702.3234,264.9938 701.7047,264.0797 Q701.1,263.1656 701.1,262.0828 L701.1,261.0984 Q701.1,259.9734 701.6344,258.9891 Q702.1828,258.0047 703.125,257.4844 Q704.0813,256.95 705.15,256.95 Q705.7969,256.95 706.3594,257.175 Q706.9219,257.4 707.4,257.85 Z " fill="#000000"/><text fill="#000000" font-family="sans-serif" font-size="10.8" lengthAdjust="spacing" textLength="133.2" x="718.2" y="265.4191">ParameterCategoryMapper</text><line style="stroke:#A80036;stroke-width:1.35;" x1="693" x2="853.2" y1="275.4" y2="275.4"/><line style="stroke:#A80036;stroke-width:1.35;" x1="693" x2="853.2" y1="282.6" y2="282.6"/><ellipse cx="702" cy="292.5" fill="#84BE84" rx="2.7" ry="2.7" style="stroke:#038048;stroke-width:0.9;"/><text fill="#000000" font-family="sans-serif" font-size="9.9" lengthAdjust="spacing" textLength="120.6" x="710.1" y="296.4771">toDto(parameterCategories)</text><ellipse cx="702" cy="304.9523" fill="#84BE84" rx="2.7" ry="2.7" style="stroke:#038048;stroke-width:0.9;"/><text fill="#000000" font-family="sans-serif" font-size="9.9" lengthAdjust="spacing" textLength="113.4" x="710.1" y="308.9294">toDto(parameterCategory)</text><!--MD5=[ae4ce8b9e36cc829775f8966335bc94b]
class ParameterCategoryDto--><rect codeLine="43" fill="#FEFECE" filter="url(#f1jvs45uy2ncsl)" height="80.557" id="ParameterCategoryDto" style="stroke:#A80036;stroke-width:1.35;" width="176.4" x="817.2" y="397.35"/><ellipse cx="846.09" cy="411.75" fill="#ADD1B2" rx="9.9" ry="9.9" style="stroke:#A80036;stroke-width:0.9;"/><path d="M847.89,408.6 Q848.0728,408.15 848.2838,407.925 Q848.4947,407.7 848.7338,407.7 Q849.1556,407.7 849.4228,407.9531 Q849.69,408.2063 849.69,408.7969 L849.69,410.2031 Q849.69,410.7938 849.4369,411.0469 Q849.1838,411.3 848.79,411.3 Q848.4384,411.3 848.2134,411.1453 Q847.9884,410.9906 847.89,410.5828 Q847.8478,410.3016 847.6931,410.1469 Q847.4119,409.8516 846.9056,409.6828 Q846.3994,409.5 845.8931,409.5 Q845.2603,409.5 844.7259,409.7531 Q844.2056,410.0063 843.7978,410.5688 Q843.39,411.1313 843.39,411.9047 L843.39,412.7344 Q843.39,413.6625 844.1494,414.2813 Q844.9088,414.9 846.2588,414.9 Q847.0603,414.9 847.6228,414.7172 Q847.9463,414.6188 848.3119,414.2953 Q848.5509,414.1125 848.6775,414.0563 Q848.8041,414 848.9588,414 Q849.2541,414 849.465,414.2391 Q849.69,414.4641 849.69,414.7875 Q849.69,415.0969 849.3806,415.4625 Q848.9306,415.9969 848.2134,416.2922 Q847.2713,416.7 846.1181,416.7 Q844.7681,416.7 843.6853,416.1656 Q842.8134,415.7438 842.1947,414.8297 Q841.59,413.9156 841.59,412.8328 L841.59,411.8484 Q841.59,410.7234 842.1244,409.7391 Q842.6728,408.7547 843.615,408.2344 Q844.5713,407.7 845.64,407.7 Q846.2869,407.7 846.8494,407.925 Q847.4119,408.15 847.89,408.6 Z " fill="#000000"/><text fill="#000000" font-family="sans-serif" font-size="10.8" lengthAdjust="spacing" textLength="113.4" x="862.11" y="416.1691">ParameterCategoryDto</text><line style="stroke:#A80036;stroke-width:1.35;" x1="818.1" x2="992.7" y1="426.15" y2="426.15"/><ellipse cx="827.1" cy="436.05" rx="2.7" ry="2.7" style="stroke:#038048;stroke-width:0.9;fill:none;"/><text fill="#000000" font-family="sans-serif" font-size="9.9" lengthAdjust="spacing" textLength="51.3" x="835.2" y="440.0271">String name</text><ellipse cx="827.1" cy="448.5023" rx="2.7" ry="2.7" style="stroke:#038048;stroke-width:0.9;fill:none;"/><text fill="#000000" font-family="sans-serif" font-size="9.9" lengthAdjust="spacing" textLength="49.5" x="835.2" y="452.4794">String code</text><line style="stroke:#A80036;stroke-width:1.35;" x1="818.1" x2="992.7" y1="458.2547" y2="458.2547"/><ellipse cx="827.1" cy="468.1547" fill="#84BE84" rx="2.7" ry="2.7" style="stroke:#038048;stroke-width:0.9;"/><text fill="#000000" font-family="sans-serif" font-size="9.9" lengthAdjust="spacing" textLength="153" x="835.2" y="472.1317">ParameterCategoryDto(code,name)</text><!--MD5=[36afb6bbd95a8ac778c4537c55a683d5]
class ParameterCategory--><rect codeLine="49" fill="#FEFECE" filter="url(#f1jvs45uy2ncsl)" height="68.1047" id="ParameterCategory" style="stroke:#A80036;stroke-width:1.35;" width="125.1" x="600.75" y="729.9"/><ellipse cx="614.25" cy="744.3" fill="#ADD1B2" rx="9.9" ry="9.9" style="stroke:#A80036;stroke-width:0.9;"/><path d="M616.05,741.15 Q616.2328,740.7 616.4438,740.475 Q616.6547,740.25 616.8938,740.25 Q617.3156,740.25 617.5828,740.5031 Q617.85,740.7563 617.85,741.3469 L617.85,742.7531 Q617.85,743.3438 617.5969,743.5969 Q617.3438,743.85 616.95,743.85 Q616.5984,743.85 616.3734,743.6953 Q616.1484,743.5406 616.05,743.1328 Q616.0078,742.8516 615.8531,742.6969 Q615.5719,742.4016 615.0656,742.2328 Q614.5594,742.05 614.0531,742.05 Q613.4203,742.05 612.8859,742.3031 Q612.3656,742.5563 611.9578,743.1188 Q611.55,743.6813 611.55,744.4547 L611.55,745.2844 Q611.55,746.2125 612.3094,746.8313 Q613.0688,747.45 614.4188,747.45 Q615.2203,747.45 615.7828,747.2672 Q616.1063,747.1688 616.4719,746.8453 Q616.7109,746.6625 616.8375,746.6063 Q616.9641,746.55 617.1188,746.55 Q617.4141,746.55 617.625,746.7891 Q617.85,747.0141 617.85,747.3375 Q617.85,747.6469 617.5406,748.0125 Q617.0906,748.5469 616.3734,748.8422 Q615.4313,749.25 614.2781,749.25 Q612.9281,749.25 611.8453,748.7156 Q610.9734,748.2938 610.3547,747.3797 Q609.75,746.4656 609.75,745.3828 L609.75,744.3984 Q609.75,743.2734 610.2844,742.2891 Q610.8328,741.3047 611.775,740.7844 Q612.7313,740.25 613.8,740.25 Q614.4469,740.25 615.0094,740.475 Q615.5719,740.7 616.05,741.15 Z " fill="#000000"/><text fill="#000000" font-family="sans-serif" font-size="10.8" lengthAdjust="spacing" textLength="96.3" x="626.85" y="748.7191">ParameterCategory</text><line style="stroke:#A80036;stroke-width:1.35;" x1="601.65" x2="724.95" y1="758.7" y2="758.7"/><ellipse cx="610.65" cy="768.6" rx="2.7" ry="2.7" style="stroke:#038048;stroke-width:0.9;fill:none;"/><text fill="#000000" font-family="sans-serif" font-size="9.9" lengthAdjust="spacing" textLength="51.3" x="618.75" y="772.5771">String name</text><ellipse cx="610.65" cy="781.0523" rx="2.7" ry="2.7" style="stroke:#038048;stroke-width:0.9;fill:none;"/><text fill="#000000" font-family="sans-serif" font-size="9.9" lengthAdjust="spacing" textLength="49.5" x="618.75" y="785.0294">String code</text><line style="stroke:#A80036;stroke-width:1.35;" x1="601.65" x2="724.95" y1="790.8047" y2="790.8047"/><!--MD5=[69134a8957932d955e1f822b15ec4b1c]
link CreateTestTypeUI to CreateTestTypeController--><path codeLine="54" d="M769.887,49.662 C745.722,64.179 712.665,84.051 683.109,101.808 " fill="none" id="CreateTestTypeUI-to-CreateTestTypeController" style="stroke:#A80036;stroke-width:0.9;stroke-dasharray:7.0,7.0;"/><polygon fill="#A80036" points="679.158,104.184,687.9559,103.1036,683.0167,101.8688,684.2515,96.9296,679.158,104.184" style="stroke:#A80036;stroke-width:0.9;"/><!--MD5=[a0c08eca13bfc06260ed3890b790a8bb]
link CreateTestTypeUI to ParameterCategoryDto--><path codeLine="55" d="M817.308,49.608 C839.367,86.625 884.799,166.95 909.9,240.3 C925.749,286.614 926.676,299.592 931.5,348.3 C932.211,355.464 932.742,357.408 931.5,364.5 C929.88,373.779 927.171,383.445 924.102,392.571 " fill="none" id="CreateTestTypeUI-to-ParameterCategoryDto" style="stroke:#A80036;stroke-width:0.9;stroke-dasharray:7.0,7.0;"/><polygon fill="#A80036" points="922.572,397.008,928.6195,390.5274,924.0413,392.7546,921.8141,388.1765,922.572,397.008" style="stroke:#A80036;stroke-width:0.9;"/><!--MD5=[812ef8251b528d1a64980212cceda9f5]
link CreateTestTypeController to Company--><path codeLine="56" d="M487.449,185.472 C466.452,193.509 445.176,202.554 425.7,212.4 C411.354,219.654 396.63,228.627 383.04,237.636 " fill="none" id="CreateTestTypeController-to-Company" style="stroke:#A80036;stroke-width:0.9;stroke-dasharray:7.0,7.0;"/><polygon fill="#A80036" points="379.242,240.174,387.9749,238.6556,382.9803,237.669,383.9669,232.6743,379.242,240.174" style="stroke:#A80036;stroke-width:0.9;"/><!--MD5=[97f86ea091f10acfb6befc2251259947]
link CreateTestTypeController to TestTypeStore--><path codeLine="57" d="M415.782,174.591 C337.545,190.053 259.983,211.869 234,240.3 C198.243,279.432 194.355,342.279 196.974,386.37 " fill="none" id="CreateTestTypeController-to-TestTypeStore" style="stroke:#A80036;stroke-width:0.9;stroke-dasharray:7.0,7.0;"/><polygon fill="#A80036" points="197.289,391.113,200.3486,382.7938,196.9931,386.6227,193.1641,383.2673,197.289,391.113" style="stroke:#A80036;stroke-width:0.9;"/><!--MD5=[f4bf28669fe4ba1101395c8fda9b28f2]
link CreateTestTypeController to ParameterCategoryStore--><path codeLine="58" d="M607.968,185.67 C601.02,241.875 588.438,343.674 581.607,398.88 " fill="none" id="CreateTestTypeController-to-ParameterCategoryStore" style="stroke:#A80036;stroke-width:0.9;stroke-dasharray:7.0,7.0;"/><polygon fill="#A80036" points="581.049,403.425,585.6151,395.8276,581.6008,398.959,578.4695,394.9447,581.049,403.425" style="stroke:#A80036;stroke-width:0.9;"/><!--MD5=[d826292dd1c3de1d289673c07e4766db]
link CreateTestTypeController to ParameterCategoryDto--><path codeLine="59" d="M795.744,185.526 C824.04,198.828 850.419,216.594 870.3,240.3 C905.886,282.735 910.728,348.741 909.342,392.409 " fill="none" id="CreateTestTypeController-to-ParameterCategoryDto" style="stroke:#A80036;stroke-width:0.9;stroke-dasharray:7.0,7.0;"/><polygon fill="#A80036" points="909.171,397.089,913.07,389.1286,909.3385,392.5921,905.875,388.8606,909.171,397.089" style="stroke:#A80036;stroke-width:0.9;"/><!--MD5=[0d186a01f8b69d8cc7b2dd47a3c43692]
link CreateTestTypeController to ParameterCategory--><path codeLine="60" d="M625.284,185.76 C639.621,233.991 662.634,317.808 673.2,391.5 C690.129,509.535 690.147,540.855 680.4,659.7 C678.609,681.543 674.721,705.726 671.103,725.22 " fill="none" id="CreateTestTypeController-to-ParameterCategory" style="stroke:#A80036;stroke-width:0.9;stroke-dasharray:7.0,7.0;"/><polygon fill="#A80036" points="670.239,729.81,675.2803,722.5192,671.0745,725.3882,668.2055,721.1824,670.239,729.81" style="stroke:#A80036;stroke-width:0.9;"/><!--MD5=[5a82a387146907254b130c6b1980ca8f]
link CreateTestTypeController to TestType--><path codeLine="61" d="M589.914,185.616 C562.509,233.712 515.988,317.394 480.6,391.5 C455.346,444.384 429.822,506.232 412.443,549.918 " fill="none" id="CreateTestTypeController-to-TestType" style="stroke:#A80036;stroke-width:0.9;stroke-dasharray:7.0,7.0;"/><polygon fill="#A80036" points="410.679,554.355,417.0133,548.1545,412.3392,550.1724,410.3212,545.4983,410.679,554.355" style="stroke:#A80036;stroke-width:0.9;"/><!--MD5=[f615245dec7c9eb6d64eb1284a82148a]
link CreateTestTypeController to ParameterCategoryMapper--><path codeLine="62" d="M660.528,185.67 C682.416,203.994 708.192,225.567 729.549,243.45 " fill="none" id="CreateTestTypeController-to-ParameterCategoryMapper" style="stroke:#A80036;stroke-width:0.9;stroke-dasharray:7.0,7.0;"/><polygon fill="#A80036" points="733.212,246.51,729.2912,238.5603,729.754,243.6304,724.6839,244.0932,733.212,246.51" style="stroke:#A80036;stroke-width:0.9;"/><!--MD5=[141c3afa12b2b3c0a39ffce56dbd5f19]
link Company to TestTypeStore--><path codeLine="63" d="M294.282,321.678 C278.406,341.811 259.029,366.39 242.244,387.675 " fill="none" id="Company-to-TestTypeStore" style="stroke:#A80036;stroke-width:0.9;"/><polygon fill="#A80036" points="239.364,391.338,247.2077,387.2093,242.1516,387.8054,241.5555,382.7492,239.364,391.338" style="stroke:#A80036;stroke-width:0.9;"/><text fill="#000000" font-family="sans-serif" font-size="11.7" lengthAdjust="spacing" textLength="25.2" x="273.6" y="361.3456">uses</text><text fill="#000000" font-family="sans-serif" font-size="11.7" lengthAdjust="spacing" textLength="6.3" x="283.3235" y="340.3351">1</text><text fill="#000000" font-family="sans-serif" font-size="11.7" lengthAdjust="spacing" textLength="6.3" x="237.4734" y="381.8665">1</text><!--MD5=[d53d7490e5836ca5709858d7326f212b]
link Company to ParameterCategoryStore--><path codeLine="64" d="M390.141,321.48 C429.894,346.059 480.492,377.343 518.994,401.148 " fill="none" id="Company-to-ParameterCategoryStore" style="stroke:#A80036;stroke-width:0.9;"/><polygon fill="#A80036" points="522.918,403.569,517.9283,396.2428,519.0926,401.1991,514.1364,402.3634,522.918,403.569" style="stroke:#A80036;stroke-width:0.9;"/><text fill="#000000" font-family="sans-serif" font-size="11.7" lengthAdjust="spacing" textLength="25.2" x="459.9" y="361.3456">uses</text><text fill="#000000" font-family="sans-serif" font-size="11.7" lengthAdjust="spacing" textLength="6.3" x="392.0635" y="340.1105">1</text><text fill="#000000" font-family="sans-serif" font-size="11.7" lengthAdjust="spacing" textLength="6.3" x="506.4414" y="393.9803">1</text><!--MD5=[3eebf0e5f359806b77b30e9524c37676]
link TestTypeStore to TestType--><path codeLine="65" d="M254.304,484.272 C277.317,504.846 304.713,529.344 328.887,550.962 " fill="none" id="TestTypeStore-to-TestType" style="stroke:#A80036;stroke-width:0.9;"/><polygon fill="#A80036" points="332.424,554.13,328.7789,546.0502,329.0671,551.1332,323.984,551.4213,332.424,554.13" style="stroke:#A80036;stroke-width:0.9;"/><text fill="#000000" font-family="sans-serif" font-size="11.7" lengthAdjust="spacing" textLength="47.7" x="297.9" y="524.2456">conducts</text><text fill="#000000" font-family="sans-serif" font-size="11.7" lengthAdjust="spacing" textLength="6.3" x="254.7194" y="503.9587">1</text><text fill="#000000" font-family="sans-serif" font-size="11.7" lengthAdjust="spacing" textLength="4.5" x="320.5596" y="544.5579">*</text><!--MD5=[58fac5310c1666a6e65c137533900c90]
link ParameterCategoryMapper to ParameterCategoryDto--><path codeLine="66" d="M801.486,315.009 C821.025,337.932 847.17,368.622 868.347,393.471 " fill="none" id="ParameterCategoryMapper-to-ParameterCategoryDto" style="stroke:#A80036;stroke-width:0.9;stroke-dasharray:7.0,7.0;"/><polygon fill="#A80036" points="871.434,397.098,868.9144,388.5997,868.5129,393.675,863.4376,393.2735,871.434,397.098" style="stroke:#A80036;stroke-width:0.9;"/><!--MD5=[19765d4468597c595e89fcbff5e25b10]
link ParameterCategoryMapper to ParameterCategory--><path codeLine="67" d="M777.24,315.045 C784.89,389.268 794.943,571.878 729,702.9 C724.752,711.342 718.803,719.181 712.188,726.228 " fill="none" id="ParameterCategoryMapper-to-ParameterCategory" style="stroke:#A80036;stroke-width:0.9;stroke-dasharray:7.0,7.0;"/><polygon fill="#A80036" points="708.903,729.621,717.1235,726.3055,712.033,726.3879,711.9506,721.2974,708.903,729.621" style="stroke:#A80036;stroke-width:0.9;"/><!--MD5=[d6274e3b73b5bc8f467c6cfbf5bf003e]
link ParameterCategoryStore to ParameterCategory--><path codeLine="68" d="M585.819,472.248 C602.028,533.124 636.21,661.482 653.229,725.391 " fill="none" id="ParameterCategoryStore-to-ParameterCategory" style="stroke:#A80036;stroke-width:0.9;"/><polygon fill="#A80036" points="654.426,729.882,655.827,721.1294,653.2713,725.5327,648.8681,722.977,654.426,729.882" style="stroke:#A80036;stroke-width:0.9;"/><text fill="#000000" font-family="sans-serif" font-size="11.7" lengthAdjust="spacing" textLength="35.1" x="637.2" y="611.9956">adopts</text><text fill="#000000" font-family="sans-serif" font-size="11.7" lengthAdjust="spacing" textLength="6.3" x="580.4384" y="491.072">1</text><text fill="#000000" font-family="sans-serif" font-size="11.7" lengthAdjust="spacing" textLength="4.5" x="647.875" y="720.0476">*</text><!--MD5=[8aaf0efd5e2f3824be7ea3e488dcc283]
link TestType to ParameterCategory--><path codeLine="69" d="M457.056,659.916 C477.558,674.766 500.625,690.318 522.9,702.9 C547.497,716.796 575.928,729.558 600.75,739.737 " fill="none" id="TestType-ParameterCategory" style="stroke:#A80036;stroke-width:0.9;"/><polygon fill="#000000" points="531.3338,697.1434,525.5019,690.8781,522.933,695.5026,531.3338,697.1434" style="stroke:#000000;stroke-width:0.9;"/><text fill="#000000" font-family="sans-serif" font-size="11.7" lengthAdjust="spacing" textLength="61.2" x="535.5" y="699.7456">has a set of</text><text fill="#000000" font-family="sans-serif" font-size="11.7" lengthAdjust="spacing" textLength="4.5" x="460.3811" y="679.3916">*</text><text fill="#000000" font-family="sans-serif" font-size="11.7" lengthAdjust="spacing" textLength="18" x="575.3714" y="734.2592">1..*</text><!--MD5=[4192ba87f22e94c6da8a023c41019288]
@startuml

class Company{
-String designation
+getTestTypeStore()
+getParameterCategoryStore()
}

class CreateTestTypeUI{
}

class CreateTestTypeController{
+createTestType(code,description,collecting method,selectedParameterCategoriesList)
+saveTestType()
+getParameterCategories()
}

class TestType{
-String code
-String description
-String collectingMethod
-List<ParameterCategories> listOfParameterCategories
+TestType(code,description,collectingMethod,listOfParameterCategories)
}

class TestTypeStore{
+createTestType(code,description,collecting method,selectedParameterCategoriesList)
+validateTestType(testType)
+addTestType(testType)
+saveTestType((testType)
}

class ParameterCategoryStore{
+getParameterCategoryList()
+getParameterCategorybyCode()
}

class ParameterCategoryMapper{
+toDto(parameterCategories)
+toDto(parameterCategory)
}


class ParameterCategoryDto{
+ String name
+ String code
+ ParameterCategoryDto(code,name)
}

class ParameterCategory{
+ String name
+ String code
}

CreateTestTypeUI ..> CreateTestTypeController
CreateTestTypeUI ..> ParameterCategoryDto
CreateTestTypeController ..> Company
CreateTestTypeController ..> TestTypeStore
CreateTestTypeController ..> ParameterCategoryStore
CreateTestTypeController ..> ParameterCategoryDto
CreateTestTypeController ..> ParameterCategory
CreateTestTypeController ..> TestType
CreateTestTypeController ..> ParameterCategoryMapper
Company"1"- -> "1" TestTypeStore : uses
Company"1"- -> "1" ParameterCategoryStore : uses
TestTypeStore "1"- ->"*" TestType : conducts
ParameterCategoryMapper ..> ParameterCategoryDto
ParameterCategoryMapper ..> ParameterCategory
ParameterCategoryStore "1"- -> "*"ParameterCategory : adopts
TestType "*"- -"1..*" ParameterCategory : has a set of >
@enduml

PlantUML version 1.2021.5(Sun Apr 25 12:20:28 BST 2021)
(GPL source distribution)
Java Runtime: OpenJDK Runtime Environment
JVM: OpenJDK 64-Bit Server VM
Default Encoding: Cp1252
Language: pt
Country: PT
--></g></svg>