<?xml version="1.0" encoding="UTF-8" standalone="no"?><svg xmlns="http://www.w3.org/2000/svg" xmlns:xlink="http://www.w3.org/1999/xlink" contentScriptType="application/ecmascript" contentStyleType="text/css" height="810px" preserveAspectRatio="none" style="width:1034px;height:810px;" version="1.1" viewBox="0 0 1034 810" width="1034.1px" zoomAndPan="magnify"><defs><filter height="300%" id="f4vd5200pqw5e" width="300%" x="-1" y="-1"><feGaussianBlur result="blurOut" stdDeviation="1.8"/><feColorMatrix in="blurOut" result="blurOut2" type="matrix" values="0 0 0 0 0 0 0 0 0 0 0 0 0 0 0 0 0 0 .4 0"/><feOffset dx="3.6" dy="3.6" in="blurOut2" result="blurOut3"/><feBlend in="SourceGraphic" in2="blurOut3" mode="normal"/></filter></defs><g><!--MD5=[02e4b9b7573f1156f41e60aa5b4e25a4]
class Company--><rect codeLine="2" fill="#FEFECE" filter="url(#f4vd5200pqw5e)" height="80.557" id="Company" style="stroke:#A80036;stroke-width:1.35;" width="151.2" x="251.1" y="240.3"/><ellipse cx="299.025" cy="254.7" fill="#ADD1B2" rx="9.9" ry="9.9" style="stroke:#A80036;stroke-width:0.9;"/><path d="M300.825,251.55 Q301.0078,251.1 301.2188,250.875 Q301.4297,250.65 301.6688,250.65 Q302.0906,250.65 302.3578,250.9031 Q302.625,251.1563 302.625,251.7469 L302.625,253.1531 Q302.625,253.7438 302.3719,253.9969 Q302.1188,254.25 301.725,254.25 Q301.3734,254.25 301.1484,254.0953 Q300.9234,253.9406 300.825,253.5328 Q300.7828,253.2516 300.6281,253.0969 Q300.3469,252.8016 299.8406,252.6328 Q299.3344,252.45 298.8281,252.45 Q298.1953,252.45 297.6609,252.7031 Q297.1406,252.9563 296.7328,253.5188 Q296.325,254.0813 296.325,254.8547 L296.325,255.6844 Q296.325,256.6125 297.0844,257.2313 Q297.8438,257.85 299.1938,257.85 Q299.9953,257.85 300.5578,257.6672 Q300.8813,257.5688 301.2469,257.2453 Q301.4859,257.0625 301.6125,257.0063 Q301.7391,256.95 301.8938,256.95 Q302.1891,256.95 302.4,257.1891 Q302.625,257.4141 302.625,257.7375 Q302.625,258.0469 302.3156,258.4125 Q301.8656,258.9469 301.1484,259.2422 Q300.2063,259.65 299.0531,259.65 Q297.7031,259.65 296.6203,259.1156 Q295.7484,258.6938 295.1297,257.7797 Q294.525,256.8656 294.525,255.7828 L294.525,254.7984 Q294.525,253.6734 295.0594,252.6891 Q295.6078,251.7047 296.55,251.1844 Q297.5063,250.65 298.575,250.65 Q299.2219,250.65 299.7844,250.875 Q300.3469,251.1 300.825,251.55 Z " fill="#000000"/><text fill="#000000" font-family="sans-serif" font-size="10.8" lengthAdjust="spacing" textLength="47.7" x="317.475" y="259.1191">Company</text><line style="stroke:#A80036;stroke-width:1.35;" x1="252" x2="401.4" y1="269.1" y2="269.1"/><rect fill="none" height="5.4" style="stroke:#C82930;stroke-width:0.9;" width="5.4" x="258.3" y="276.3"/><text fill="#000000" font-family="sans-serif" font-size="9.9" lengthAdjust="spacing" textLength="77.4" x="269.1" y="282.9771">String designation</text><line style="stroke:#A80036;stroke-width:1.35;" x1="252" x2="401.4" y1="288.7523" y2="288.7523"/><ellipse cx="261" cy="298.6523" fill="#84BE84" rx="2.7" ry="2.7" style="stroke:#038048;stroke-width:0.9;"/><text fill="#000000" font-family="sans-serif" font-size="9.9" lengthAdjust="spacing" textLength="84.6" x="269.1" y="302.6294">getTestTypeStore()</text><ellipse cx="261" cy="311.1047" fill="#84BE84" rx="2.7" ry="2.7" style="stroke:#038048;stroke-width:0.9;"/><text fill="#000000" font-family="sans-serif" font-size="9.9" lengthAdjust="spacing" textLength="127.8" x="269.1" y="315.0817">getParameterCategoryStore()</text><!--MD5=[bebdcc43ebcb1534ee764d1f430c03ae]
class CreateTestTypeUI--><rect codeLine="8" fill="#FEFECE" filter="url(#f4vd5200pqw5e)" height="43.2" id="CreateTestTypeUI" style="stroke:#A80036;stroke-width:1.35;" width="117.9" x="396.45" y="6.3"/><ellipse cx="409.95" cy="20.7" fill="#ADD1B2" rx="9.9" ry="9.9" style="stroke:#A80036;stroke-width:0.9;"/><path d="M411.75,17.55 Q411.9328,17.1 412.1438,16.875 Q412.3547,16.65 412.5938,16.65 Q413.0156,16.65 413.2828,16.9031 Q413.55,17.1563 413.55,17.7469 L413.55,19.1531 Q413.55,19.7438 413.2969,19.9969 Q413.0438,20.25 412.65,20.25 Q412.2984,20.25 412.0734,20.0953 Q411.8484,19.9406 411.75,19.5328 Q411.7078,19.2516 411.5531,19.0969 Q411.2719,18.8016 410.7656,18.6328 Q410.2594,18.45 409.7531,18.45 Q409.1203,18.45 408.5859,18.7031 Q408.0656,18.9563 407.6578,19.5188 Q407.25,20.0813 407.25,20.8547 L407.25,21.6844 Q407.25,22.6125 408.0094,23.2313 Q408.7688,23.85 410.1188,23.85 Q410.9203,23.85 411.4828,23.6672 Q411.8063,23.5688 412.1719,23.2453 Q412.4109,23.0625 412.5375,23.0063 Q412.6641,22.95 412.8188,22.95 Q413.1141,22.95 413.325,23.1891 Q413.55,23.4141 413.55,23.7375 Q413.55,24.0469 413.2406,24.4125 Q412.7906,24.9469 412.0734,25.2422 Q411.1313,25.65 409.9781,25.65 Q408.6281,25.65 407.5453,25.1156 Q406.6734,24.6938 406.0547,23.7797 Q405.45,22.8656 405.45,21.7828 L405.45,20.7984 Q405.45,19.6734 405.9844,18.6891 Q406.5328,17.7047 407.475,17.1844 Q408.4313,16.65 409.5,16.65 Q410.1469,16.65 410.7094,16.875 Q411.2719,17.1 411.75,17.55 Z " fill="#000000"/><text fill="#000000" font-family="sans-serif" font-size="10.8" lengthAdjust="spacing" textLength="89.1" x="422.55" y="25.1191">CreateTestTypeUI</text><line style="stroke:#A80036;stroke-width:1.35;" x1="397.35" x2="513.45" y1="35.1" y2="35.1"/><line style="stroke:#A80036;stroke-width:1.35;" x1="397.35" x2="513.45" y1="42.3" y2="42.3"/><!--MD5=[2c845ebea24388d268f5a9acbeca4fd9]
class CreateTestTypeController--><rect codeLine="11" fill="#FEFECE" filter="url(#f4vd5200pqw5e)" height="80.557" id="CreateTestTypeController" style="stroke:#A80036;stroke-width:1.35;" width="431.1" x="108.45" y="104.4"/><ellipse cx="256.725" cy="118.8" fill="#ADD1B2" rx="9.9" ry="9.9" style="stroke:#A80036;stroke-width:0.9;"/><path d="M258.525,115.65 Q258.7078,115.2 258.9188,114.975 Q259.1297,114.75 259.3688,114.75 Q259.7906,114.75 260.0578,115.0031 Q260.325,115.2563 260.325,115.8469 L260.325,117.2531 Q260.325,117.8438 260.0719,118.0969 Q259.8188,118.35 259.425,118.35 Q259.0734,118.35 258.8484,118.1953 Q258.6234,118.0406 258.525,117.6328 Q258.4828,117.3516 258.3281,117.1969 Q258.0469,116.9016 257.5406,116.7328 Q257.0344,116.55 256.5281,116.55 Q255.8953,116.55 255.3609,116.8031 Q254.8406,117.0563 254.4328,117.6188 Q254.025,118.1813 254.025,118.9547 L254.025,119.7844 Q254.025,120.7125 254.7844,121.3313 Q255.5438,121.95 256.8938,121.95 Q257.6953,121.95 258.2578,121.7672 Q258.5813,121.6688 258.9469,121.3453 Q259.1859,121.1625 259.3125,121.1063 Q259.4391,121.05 259.5938,121.05 Q259.8891,121.05 260.1,121.2891 Q260.325,121.5141 260.325,121.8375 Q260.325,122.1469 260.0156,122.5125 Q259.5656,123.0469 258.8484,123.3422 Q257.9063,123.75 256.7531,123.75 Q255.4031,123.75 254.3203,123.2156 Q253.4484,122.7938 252.8297,121.8797 Q252.225,120.9656 252.225,119.8828 L252.225,118.8984 Q252.225,117.7734 252.7594,116.7891 Q253.3078,115.8047 254.25,115.2844 Q255.2063,114.75 256.275,114.75 Q256.9219,114.75 257.4844,114.975 Q258.0469,115.2 258.525,115.65 Z " fill="#000000"/><text fill="#000000" font-family="sans-serif" font-size="10.8" lengthAdjust="spacing" textLength="126.9" x="275.175" y="123.2191">CreateTestTypeController</text><line style="stroke:#A80036;stroke-width:1.35;" x1="109.35" x2="538.65" y1="133.2" y2="133.2"/><line style="stroke:#A80036;stroke-width:1.35;" x1="109.35" x2="538.65" y1="140.4" y2="140.4"/><ellipse cx="118.35" cy="150.3" fill="#84BE84" rx="2.7" ry="2.7" style="stroke:#038048;stroke-width:0.9;"/><text fill="#000000" font-family="sans-serif" font-size="9.9" lengthAdjust="spacing" textLength="407.7" x="126.45" y="154.2771">boolean createTestType(code,description,collecting method,selectedParameterCategoriesList)</text><ellipse cx="118.35" cy="162.7523" fill="#84BE84" rx="2.7" ry="2.7" style="stroke:#038048;stroke-width:0.9;"/><text fill="#000000" font-family="sans-serif" font-size="9.9" lengthAdjust="spacing" textLength="106.2" x="126.45" y="166.7294">boolean saveTestType()</text><ellipse cx="118.35" cy="175.2047" fill="#84BE84" rx="2.7" ry="2.7" style="stroke:#038048;stroke-width:0.9;"/><text fill="#000000" font-family="sans-serif" font-size="9.9" lengthAdjust="spacing" textLength="238.5" x="126.45" y="179.1817">List&lt;ParameterCategoryDto&gt; getParameterCategories()</text><!--MD5=[aeb3272166074d8737a70b61b1e71682]
class TestType--><rect codeLine="17" fill="#FEFECE" filter="url(#f4vd5200pqw5e)" height="105.4617" id="TestType" style="stroke:#A80036;stroke-width:1.35;" width="333.9" x="130.95" y="554.4"/><ellipse cx="271.575" cy="568.8" fill="#ADD1B2" rx="9.9" ry="9.9" style="stroke:#A80036;stroke-width:0.9;"/><path d="M273.375,565.65 Q273.5578,565.2 273.7688,564.975 Q273.9797,564.75 274.2188,564.75 Q274.6406,564.75 274.9078,565.0031 Q275.175,565.2563 275.175,565.8469 L275.175,567.2531 Q275.175,567.8438 274.9219,568.0969 Q274.6688,568.35 274.275,568.35 Q273.9234,568.35 273.6984,568.1953 Q273.4734,568.0406 273.375,567.6328 Q273.3328,567.3516 273.1781,567.1969 Q272.8969,566.9016 272.3906,566.7328 Q271.8844,566.55 271.3781,566.55 Q270.7453,566.55 270.2109,566.8031 Q269.6906,567.0563 269.2828,567.6188 Q268.875,568.1813 268.875,568.9547 L268.875,569.7844 Q268.875,570.7125 269.6344,571.3313 Q270.3938,571.95 271.7438,571.95 Q272.5453,571.95 273.1078,571.7672 Q273.4313,571.6688 273.7969,571.3453 Q274.0359,571.1625 274.1625,571.1063 Q274.2891,571.05 274.4438,571.05 Q274.7391,571.05 274.95,571.2891 Q275.175,571.5141 275.175,571.8375 Q275.175,572.1469 274.8656,572.5125 Q274.4156,573.0469 273.6984,573.3422 Q272.7563,573.75 271.6031,573.75 Q270.2531,573.75 269.1703,573.2156 Q268.2984,572.7938 267.6797,571.8797 Q267.075,570.9656 267.075,569.8828 L267.075,568.8984 Q267.075,567.7734 267.6094,566.7891 Q268.1578,565.8047 269.1,565.2844 Q270.0563,564.75 271.125,564.75 Q271.7719,564.75 272.3344,564.975 Q272.8969,565.2 273.375,565.65 Z " fill="#000000"/><text fill="#000000" font-family="sans-serif" font-size="10.8" lengthAdjust="spacing" textLength="45" x="290.025" y="573.2191">TestType</text><line style="stroke:#A80036;stroke-width:1.35;" x1="131.85" x2="463.95" y1="583.2" y2="583.2"/><rect fill="none" height="5.4" style="stroke:#C82930;stroke-width:0.9;" width="5.4" x="138.15" y="590.4"/><text fill="#000000" font-family="sans-serif" font-size="9.9" lengthAdjust="spacing" textLength="49.5" x="148.95" y="597.0771">String code</text><rect fill="none" height="5.4" style="stroke:#C82930;stroke-width:0.9;" width="5.4" x="138.15" y="602.8523"/><text fill="#000000" font-family="sans-serif" font-size="9.9" lengthAdjust="spacing" textLength="75.6" x="148.95" y="609.5294">String description</text><rect fill="none" height="5.4" style="stroke:#C82930;stroke-width:0.9;" width="5.4" x="138.15" y="615.3047"/><text fill="#000000" font-family="sans-serif" font-size="9.9" lengthAdjust="spacing" textLength="99.9" x="148.95" y="621.9817">String collectingMethod</text><rect fill="none" height="5.4" style="stroke:#C82930;stroke-width:0.9;" width="5.4" x="138.15" y="627.757"/><text fill="#000000" font-family="sans-serif" font-size="9.9" lengthAdjust="spacing" textLength="233.1" x="148.95" y="634.4341">List&lt;ParameterCategories&gt; listOfParameterCategories</text><line style="stroke:#A80036;stroke-width:1.35;" x1="131.85" x2="463.95" y1="640.2094" y2="640.2094"/><ellipse cx="140.85" cy="650.1094" fill="#84BE84" rx="2.7" ry="2.7" style="stroke:#038048;stroke-width:0.9;"/><text fill="#000000" font-family="sans-serif" font-size="9.9" lengthAdjust="spacing" textLength="310.5" x="148.95" y="654.0864">TestType(code,description,collectingMethod,listOfParameterCategories)</text><!--MD5=[6ba72ddf03822b91e8d41ca71de58ed3]
class TestTypeStore--><rect codeLine="25" fill="#FEFECE" filter="url(#f4vd5200pqw5e)" height="93.0094" id="TestTypeStore" style="stroke:#A80036;stroke-width:1.35;" width="394.2" x="6.3" y="391.5"/><ellipse cx="164.025" cy="405.9" fill="#ADD1B2" rx="9.9" ry="9.9" style="stroke:#A80036;stroke-width:0.9;"/><path d="M165.825,402.75 Q166.0078,402.3 166.2188,402.075 Q166.4297,401.85 166.6688,401.85 Q167.0906,401.85 167.3578,402.1031 Q167.625,402.3563 167.625,402.9469 L167.625,404.3531 Q167.625,404.9438 167.3719,405.1969 Q167.1188,405.45 166.725,405.45 Q166.3734,405.45 166.1484,405.2953 Q165.9234,405.1406 165.825,404.7328 Q165.7828,404.4516 165.6281,404.2969 Q165.3469,404.0016 164.8406,403.8328 Q164.3344,403.65 163.8281,403.65 Q163.1953,403.65 162.6609,403.9031 Q162.1406,404.1563 161.7328,404.7188 Q161.325,405.2813 161.325,406.0547 L161.325,406.8844 Q161.325,407.8125 162.0844,408.4313 Q162.8438,409.05 164.1938,409.05 Q164.9953,409.05 165.5578,408.8672 Q165.8813,408.7688 166.2469,408.4453 Q166.4859,408.2625 166.6125,408.2063 Q166.7391,408.15 166.8938,408.15 Q167.1891,408.15 167.4,408.3891 Q167.625,408.6141 167.625,408.9375 Q167.625,409.2469 167.3156,409.6125 Q166.8656,410.1469 166.1484,410.4422 Q165.2063,410.85 164.0531,410.85 Q162.7031,410.85 161.6203,410.3156 Q160.7484,409.8938 160.1297,408.9797 Q159.525,408.0656 159.525,406.9828 L159.525,405.9984 Q159.525,404.8734 160.0594,403.8891 Q160.6078,402.9047 161.55,402.3844 Q162.5063,401.85 163.575,401.85 Q164.2219,401.85 164.7844,402.075 Q165.3469,402.3 165.825,402.75 Z " fill="#000000"/><text fill="#000000" font-family="sans-serif" font-size="10.8" lengthAdjust="spacing" textLength="71.1" x="182.475" y="410.3191">TestTypeStore</text><line style="stroke:#A80036;stroke-width:1.35;" x1="7.2" x2="399.6" y1="420.3" y2="420.3"/><line style="stroke:#A80036;stroke-width:1.35;" x1="7.2" x2="399.6" y1="427.5" y2="427.5"/><ellipse cx="16.2" cy="437.4" fill="#84BE84" rx="2.7" ry="2.7" style="stroke:#038048;stroke-width:0.9;"/><text fill="#000000" font-family="sans-serif" font-size="9.9" lengthAdjust="spacing" textLength="370.8" x="24.3" y="441.3771">createTestType(code,description,collecting method,selectedParameterCategoriesList)</text><ellipse cx="16.2" cy="449.8523" fill="#84BE84" rx="2.7" ry="2.7" style="stroke:#038048;stroke-width:0.9;"/><text fill="#000000" font-family="sans-serif" font-size="9.9" lengthAdjust="spacing" textLength="118.8" x="24.3" y="453.8294">validateTestType(testType)</text><ellipse cx="16.2" cy="462.3047" fill="#84BE84" rx="2.7" ry="2.7" style="stroke:#038048;stroke-width:0.9;"/><text fill="#000000" font-family="sans-serif" font-size="9.9" lengthAdjust="spacing" textLength="101.7" x="24.3" y="466.2817">addTestType(testType)</text><ellipse cx="16.2" cy="474.757" fill="#84BE84" rx="2.7" ry="2.7" style="stroke:#038048;stroke-width:0.9;"/><text fill="#000000" font-family="sans-serif" font-size="9.9" lengthAdjust="spacing" textLength="110.7" x="24.3" y="478.7341">saveTestType((testType)</text><!--MD5=[d802db621b5b215a6f0466f93cefcb42]
class ParameterCategoryStore--><rect codeLine="32" fill="#FEFECE" filter="url(#f4vd5200pqw5e)" height="68.1047" id="ParameterCategoryStore" style="stroke:#A80036;stroke-width:1.35;" width="255.6" x="432" y="403.65"/><ellipse cx="494.775" cy="418.05" fill="#ADD1B2" rx="9.9" ry="9.9" style="stroke:#A80036;stroke-width:0.9;"/><path d="M496.575,414.9 Q496.7578,414.45 496.9688,414.225 Q497.1797,414 497.4188,414 Q497.8406,414 498.1078,414.2531 Q498.375,414.5063 498.375,415.0969 L498.375,416.5031 Q498.375,417.0938 498.1219,417.3469 Q497.8688,417.6 497.475,417.6 Q497.1234,417.6 496.8984,417.4453 Q496.6734,417.2906 496.575,416.8828 Q496.5328,416.6016 496.3781,416.4469 Q496.0969,416.1516 495.5906,415.9828 Q495.0844,415.8 494.5781,415.8 Q493.9453,415.8 493.4109,416.0531 Q492.8906,416.3063 492.4828,416.8688 Q492.075,417.4313 492.075,418.2047 L492.075,419.0344 Q492.075,419.9625 492.8344,420.5813 Q493.5938,421.2 494.9438,421.2 Q495.7453,421.2 496.3078,421.0172 Q496.6313,420.9188 496.9969,420.5953 Q497.2359,420.4125 497.3625,420.3563 Q497.4891,420.3 497.6438,420.3 Q497.9391,420.3 498.15,420.5391 Q498.375,420.7641 498.375,421.0875 Q498.375,421.3969 498.0656,421.7625 Q497.6156,422.2969 496.8984,422.5922 Q495.9563,423 494.8031,423 Q493.4531,423 492.3703,422.4656 Q491.4984,422.0438 490.8797,421.1297 Q490.275,420.2156 490.275,419.1328 L490.275,418.1484 Q490.275,417.0234 490.8094,416.0391 Q491.3578,415.0547 492.3,414.5344 Q493.2563,414 494.325,414 Q494.9719,414 495.5344,414.225 Q496.0969,414.45 496.575,414.9 Z " fill="#000000"/><text fill="#000000" font-family="sans-serif" font-size="10.8" lengthAdjust="spacing" textLength="122.4" x="513.225" y="422.4691">ParameterCategoryStore</text><line style="stroke:#A80036;stroke-width:1.35;" x1="432.9" x2="686.7" y1="432.45" y2="432.45"/><line style="stroke:#A80036;stroke-width:1.35;" x1="432.9" x2="686.7" y1="439.65" y2="439.65"/><ellipse cx="441.9" cy="449.55" fill="#84BE84" rx="2.7" ry="2.7" style="stroke:#038048;stroke-width:0.9;"/><text fill="#000000" font-family="sans-serif" font-size="9.9" lengthAdjust="spacing" textLength="232.2" x="450" y="453.5271">List&lt;ParameterCategory&gt; getParameterCategoryList()</text><ellipse cx="441.9" cy="462.0023" fill="#84BE84" rx="2.7" ry="2.7" style="stroke:#038048;stroke-width:0.9;"/><text fill="#000000" font-family="sans-serif" font-size="9.9" lengthAdjust="spacing" textLength="224.1" x="450" y="465.9794">ParameterCategory getParameterCategorybyCode()</text><!--MD5=[fab6cba0d8a30102bb3e071a5ce00b91]
class ParameterCategoryMapper--><rect codeLine="37" fill="#FEFECE" filter="url(#f4vd5200pqw5e)" height="68.1047" id="ParameterCategoryMapper" style="stroke:#A80036;stroke-width:1.35;" width="386.1" x="635.85" y="110.7"/><ellipse cx="758.475" cy="125.1" fill="#ADD1B2" rx="9.9" ry="9.9" style="stroke:#A80036;stroke-width:0.9;"/><path d="M760.275,121.95 Q760.4578,121.5 760.6688,121.275 Q760.8797,121.05 761.1188,121.05 Q761.5406,121.05 761.8078,121.3031 Q762.075,121.5563 762.075,122.1469 L762.075,123.5531 Q762.075,124.1438 761.8219,124.3969 Q761.5688,124.65 761.175,124.65 Q760.8234,124.65 760.5984,124.4953 Q760.3734,124.3406 760.275,123.9328 Q760.2328,123.6516 760.0781,123.4969 Q759.7969,123.2016 759.2906,123.0328 Q758.7844,122.85 758.2781,122.85 Q757.6453,122.85 757.1109,123.1031 Q756.5906,123.3563 756.1828,123.9188 Q755.775,124.4813 755.775,125.2547 L755.775,126.0844 Q755.775,127.0125 756.5344,127.6313 Q757.2938,128.25 758.6438,128.25 Q759.4453,128.25 760.0078,128.0672 Q760.3313,127.9688 760.6969,127.6453 Q760.9359,127.4625 761.0625,127.4063 Q761.1891,127.35 761.3438,127.35 Q761.6391,127.35 761.85,127.5891 Q762.075,127.8141 762.075,128.1375 Q762.075,128.4469 761.7656,128.8125 Q761.3156,129.3469 760.5984,129.6422 Q759.6563,130.05 758.5031,130.05 Q757.1531,130.05 756.0703,129.5156 Q755.1984,129.0938 754.5797,128.1797 Q753.975,127.2656 753.975,126.1828 L753.975,125.1984 Q753.975,124.0734 754.5094,123.0891 Q755.0578,122.1047 756,121.5844 Q756.9563,121.05 758.025,121.05 Q758.6719,121.05 759.2344,121.275 Q759.7969,121.5 760.275,121.95 Z " fill="#000000"/><text fill="#000000" font-family="sans-serif" font-size="10.8" lengthAdjust="spacing" textLength="133.2" x="776.925" y="129.5191">ParameterCategoryMapper</text><line style="stroke:#A80036;stroke-width:1.35;" x1="636.75" x2="1021.05" y1="139.5" y2="139.5"/><line style="stroke:#A80036;stroke-width:1.35;" x1="636.75" x2="1021.05" y1="146.7" y2="146.7"/><ellipse cx="645.75" cy="156.6" fill="#84BE84" rx="2.7" ry="2.7" style="stroke:#038048;stroke-width:0.9;"/><text fill="#000000" font-family="sans-serif" font-size="9.9" lengthAdjust="spacing" textLength="362.7" x="653.85" y="160.5771">List&lt;ParameterCategoryDto&gt; toDto (List&lt;ParameterCategory&gt; parameterCategories)</text><ellipse cx="645.75" cy="169.0523" fill="#84BE84" rx="2.7" ry="2.7" style="stroke:#038048;stroke-width:0.9;"/><text fill="#000000" font-family="sans-serif" font-size="9.9" lengthAdjust="spacing" textLength="297" x="653.85" y="173.0294">ParameterCategoryDto toDto(ParameterCategory parameterCategory</text><!--MD5=[ae4ce8b9e36cc829775f8966335bc94b]
class ParameterCategoryDto--><rect codeLine="43" fill="#FEFECE" filter="url(#f4vd5200pqw5e)" height="80.557" id="ParameterCategoryDto" style="stroke:#A80036;stroke-width:1.35;" width="176.4" x="499.5" y="240.3"/><ellipse cx="528.39" cy="254.7" fill="#ADD1B2" rx="9.9" ry="9.9" style="stroke:#A80036;stroke-width:0.9;"/><path d="M530.19,251.55 Q530.3728,251.1 530.5838,250.875 Q530.7947,250.65 531.0338,250.65 Q531.4556,250.65 531.7228,250.9031 Q531.99,251.1563 531.99,251.7469 L531.99,253.1531 Q531.99,253.7438 531.7369,253.9969 Q531.4838,254.25 531.09,254.25 Q530.7384,254.25 530.5134,254.0953 Q530.2884,253.9406 530.19,253.5328 Q530.1478,253.2516 529.9931,253.0969 Q529.7119,252.8016 529.2056,252.6328 Q528.6994,252.45 528.1931,252.45 Q527.5603,252.45 527.0259,252.7031 Q526.5056,252.9563 526.0978,253.5188 Q525.69,254.0813 525.69,254.8547 L525.69,255.6844 Q525.69,256.6125 526.4494,257.2313 Q527.2088,257.85 528.5588,257.85 Q529.3603,257.85 529.9228,257.6672 Q530.2463,257.5688 530.6119,257.2453 Q530.8509,257.0625 530.9775,257.0063 Q531.1041,256.95 531.2588,256.95 Q531.5541,256.95 531.765,257.1891 Q531.99,257.4141 531.99,257.7375 Q531.99,258.0469 531.6806,258.4125 Q531.2306,258.9469 530.5134,259.2422 Q529.5713,259.65 528.4181,259.65 Q527.0681,259.65 525.9853,259.1156 Q525.1134,258.6938 524.4947,257.7797 Q523.89,256.8656 523.89,255.7828 L523.89,254.7984 Q523.89,253.6734 524.4244,252.6891 Q524.9728,251.7047 525.915,251.1844 Q526.8713,250.65 527.94,250.65 Q528.5869,250.65 529.1494,250.875 Q529.7119,251.1 530.19,251.55 Z " fill="#000000"/><text fill="#000000" font-family="sans-serif" font-size="10.8" lengthAdjust="spacing" textLength="113.4" x="544.41" y="259.1191">ParameterCategoryDto</text><line style="stroke:#A80036;stroke-width:1.35;" x1="500.4" x2="675" y1="269.1" y2="269.1"/><ellipse cx="509.4" cy="279" rx="2.7" ry="2.7" style="stroke:#038048;stroke-width:0.9;fill:none;"/><text fill="#000000" font-family="sans-serif" font-size="9.9" lengthAdjust="spacing" textLength="51.3" x="517.5" y="282.9771">String name</text><ellipse cx="509.4" cy="291.4523" rx="2.7" ry="2.7" style="stroke:#038048;stroke-width:0.9;fill:none;"/><text fill="#000000" font-family="sans-serif" font-size="9.9" lengthAdjust="spacing" textLength="49.5" x="517.5" y="295.4294">String code</text><line style="stroke:#A80036;stroke-width:1.35;" x1="500.4" x2="675" y1="301.2047" y2="301.2047"/><ellipse cx="509.4" cy="311.1047" fill="#84BE84" rx="2.7" ry="2.7" style="stroke:#038048;stroke-width:0.9;"/><text fill="#000000" font-family="sans-serif" font-size="9.9" lengthAdjust="spacing" textLength="153" x="517.5" y="315.0817">ParameterCategoryDto(code,name)</text><!--MD5=[36afb6bbd95a8ac778c4537c55a683d5]
class ParameterCategory--><rect codeLine="49" fill="#FEFECE" filter="url(#f4vd5200pqw5e)" height="68.1047" id="ParameterCategory" style="stroke:#A80036;stroke-width:1.35;" width="125.1" x="497.25" y="729.9"/><ellipse cx="510.75" cy="744.3" fill="#ADD1B2" rx="9.9" ry="9.9" style="stroke:#A80036;stroke-width:0.9;"/><path d="M512.55,741.15 Q512.7328,740.7 512.9438,740.475 Q513.1547,740.25 513.3938,740.25 Q513.8156,740.25 514.0828,740.5031 Q514.35,740.7563 514.35,741.3469 L514.35,742.7531 Q514.35,743.3438 514.0969,743.5969 Q513.8438,743.85 513.45,743.85 Q513.0984,743.85 512.8734,743.6953 Q512.6484,743.5406 512.55,743.1328 Q512.5078,742.8516 512.3531,742.6969 Q512.0719,742.4016 511.5656,742.2328 Q511.0594,742.05 510.5531,742.05 Q509.9203,742.05 509.3859,742.3031 Q508.8656,742.5563 508.4578,743.1188 Q508.05,743.6813 508.05,744.4547 L508.05,745.2844 Q508.05,746.2125 508.8094,746.8313 Q509.5688,747.45 510.9188,747.45 Q511.7203,747.45 512.2828,747.2672 Q512.6063,747.1688 512.9719,746.8453 Q513.2109,746.6625 513.3375,746.6063 Q513.4641,746.55 513.6188,746.55 Q513.9141,746.55 514.125,746.7891 Q514.35,747.0141 514.35,747.3375 Q514.35,747.6469 514.0406,748.0125 Q513.5906,748.5469 512.8734,748.8422 Q511.9313,749.25 510.7781,749.25 Q509.4281,749.25 508.3453,748.7156 Q507.4734,748.2938 506.8547,747.3797 Q506.25,746.4656 506.25,745.3828 L506.25,744.3984 Q506.25,743.2734 506.7844,742.2891 Q507.3328,741.3047 508.275,740.7844 Q509.2313,740.25 510.3,740.25 Q510.9469,740.25 511.5094,740.475 Q512.0719,740.7 512.55,741.15 Z " fill="#000000"/><text fill="#000000" font-family="sans-serif" font-size="10.8" lengthAdjust="spacing" textLength="96.3" x="523.35" y="748.7191">ParameterCategory</text><line style="stroke:#A80036;stroke-width:1.35;" x1="498.15" x2="621.45" y1="758.7" y2="758.7"/><ellipse cx="507.15" cy="768.6" rx="2.7" ry="2.7" style="stroke:#038048;stroke-width:0.9;fill:none;"/><text fill="#000000" font-family="sans-serif" font-size="9.9" lengthAdjust="spacing" textLength="51.3" x="515.25" y="772.5771">String name</text><ellipse cx="507.15" cy="781.0523" rx="2.7" ry="2.7" style="stroke:#038048;stroke-width:0.9;fill:none;"/><text fill="#000000" font-family="sans-serif" font-size="9.9" lengthAdjust="spacing" textLength="49.5" x="515.25" y="785.0294">String code</text><line style="stroke:#A80036;stroke-width:1.35;" x1="498.15" x2="621.45" y1="790.8047" y2="790.8047"/><!--MD5=[69134a8957932d955e1f822b15ec4b1c]
link CreateTestTypeUI to CreateTestTypeController--><path codeLine="54" d="M431.604,49.662 C415.242,64.008 392.94,83.565 372.87,101.151 " fill="none" id="CreateTestTypeUI-to-CreateTestTypeController" style="stroke:#A80036;stroke-width:0.9;stroke-dasharray:7.0,7.0;"/><polygon fill="#A80036" points="369.414,104.184,377.8812,101.5617,372.8014,101.2216,373.1414,96.1418,369.414,104.184" style="stroke:#A80036;stroke-width:0.9;"/><!--MD5=[a0c08eca13bfc06260ed3890b790a8bb]
link CreateTestTypeUI to ParameterCategoryDto--><path codeLine="55" d="M495.639,49.599 C516.681,62.55 540.972,81.171 555.3,104.4 C579.789,144.099 586.683,197.811 588.204,235.314 " fill="none" id="CreateTestTypeUI-to-ParameterCategoryDto" style="stroke:#A80036;stroke-width:0.9;stroke-dasharray:7.0,7.0;"/><polygon fill="#A80036" points="588.366,240.039,591.6863,231.8204,588.2118,235.5416,584.4906,232.0671,588.366,240.039" style="stroke:#A80036;stroke-width:0.9;"/><!--MD5=[812ef8251b528d1a64980212cceda9f5]
link CreateTestTypeController to Company--><path codeLine="56" d="M324.801,185.67 C325.116,201.276 325.476,219.24 325.8,235.269 " fill="none" id="CreateTestTypeController-to-Company" style="stroke:#A80036;stroke-width:0.9;stroke-dasharray:7.0,7.0;"/><polygon fill="#A80036" points="325.899,240.183,329.313,232.0029,325.7962,235.6842,322.1148,232.1674,325.899,240.183" style="stroke:#A80036;stroke-width:0.9;"/><!--MD5=[97f86ea091f10acfb6befc2251259947]
link CreateTestTypeController to TestTypeStore--><path codeLine="57" d="M276.39,185.535 C260.793,201.033 244.908,219.969 234.9,240.3 C212.184,286.452 205.236,345.375 203.391,386.64 " fill="none" id="CreateTestTypeController-to-TestTypeStore" style="stroke:#A80036;stroke-width:0.9;stroke-dasharray:7.0,7.0;"/><polygon fill="#A80036" points="203.202,391.329,207.1238,383.3798,203.3824,386.8326,199.9296,383.0912,203.202,391.329" style="stroke:#A80036;stroke-width:0.9;"/><!--MD5=[f4bf28669fe4ba1101395c8fda9b28f2]
link CreateTestTypeController to ParameterCategoryStore--><path codeLine="58" d="M365.976,185.418 C382.644,201.852 401.616,221.454 417.6,240.3 C462.348,293.067 508.194,359.046 535.32,399.582 " fill="none" id="CreateTestTypeController-to-ParameterCategoryStore" style="stroke:#A80036;stroke-width:0.9;stroke-dasharray:7.0,7.0;"/><polygon fill="#A80036" points="537.885,403.425,536.3873,394.6885,535.3888,399.6808,530.3965,398.6823,537.885,403.425" style="stroke:#A80036;stroke-width:0.9;"/><!--MD5=[d826292dd1c3de1d289673c07e4766db]
link CreateTestTypeController to ParameterCategoryDto--><path codeLine="59" d="M418.221,185.481 C436.995,193.959 456.426,203.166 474.3,212.4 C489.276,220.14 505.017,229.005 519.831,237.717 " fill="none" id="CreateTestTypeController-to-ParameterCategoryDto" style="stroke:#A80036;stroke-width:0.9;stroke-dasharray:7.0,7.0;"/><polygon fill="#A80036" points="523.989,240.165,518.8389,232.9507,520.1123,237.88,515.1829,239.1535,523.989,240.165" style="stroke:#A80036;stroke-width:0.9;"/><!--MD5=[141c3afa12b2b3c0a39ffce56dbd5f19]
link Company to TestTypeStore--><path codeLine="60" d="M294.948,321.678 C278.964,341.811 259.434,366.39 242.532,387.675 " fill="none" id="Company-to-TestTypeStore" style="stroke:#A80036;stroke-width:0.9;"/><polygon fill="#A80036" points="239.625,391.338,247.476,387.2232,242.4188,387.8103,241.8317,382.7531,239.625,391.338" style="stroke:#A80036;stroke-width:0.9;"/><text fill="#000000" font-family="sans-serif" font-size="11.7" lengthAdjust="spacing" textLength="25.2" x="273.6" y="361.3456">uses</text><text fill="#000000" font-family="sans-serif" font-size="11.7" lengthAdjust="spacing" textLength="6.3" x="283.958" y="340.3351">1</text><text fill="#000000" font-family="sans-serif" font-size="11.7" lengthAdjust="spacing" textLength="6.3" x="237.7695" y="381.8665">1</text><!--MD5=[d53d7490e5836ca5709858d7326f212b]
link Company to ParameterCategoryStore--><path codeLine="61" d="M356.445,321.624 C368.883,336.429 384.219,352.512 400.5,364.5 C419.958,378.837 442.71,391.257 464.823,401.571 " fill="none" id="Company-to-ParameterCategoryStore" style="stroke:#A80036;stroke-width:0.9;"/><polygon fill="#A80036" points="468.945,403.47,463.1031,396.8035,464.8603,401.5818,460.082,403.339,468.945,403.47" style="stroke:#A80036;stroke-width:0.9;"/><text fill="#000000" font-family="sans-serif" font-size="11.7" lengthAdjust="spacing" textLength="25.2" x="401.4" y="361.3456">uses</text><text fill="#000000" font-family="sans-serif" font-size="11.7" lengthAdjust="spacing" textLength="6.3" x="353.7187" y="340.2739">1</text><text fill="#000000" font-family="sans-serif" font-size="11.7" lengthAdjust="spacing" textLength="6.3" x="445.9004" y="393.8636">1</text><!--MD5=[3eebf0e5f359806b77b30e9524c37676]
link TestTypeStore to TestType--><path codeLine="62" d="M229.221,484.497 C240.696,504.819 254.304,528.93 266.373,550.305 " fill="none" id="TestTypeStore-to-TestType" style="stroke:#A80036;stroke-width:0.9;"/><polygon fill="#A80036" points="268.605,554.256,267.7619,545.4322,266.3946,550.3363,261.4905,548.9689,268.605,554.256" style="stroke:#A80036;stroke-width:0.9;"/><text fill="#000000" font-family="sans-serif" font-size="11.7" lengthAdjust="spacing" textLength="47.7" x="252" y="524.2456">conducts</text><text fill="#000000" font-family="sans-serif" font-size="11.7" lengthAdjust="spacing" textLength="6.3" x="225.9674" y="503.8788">1</text><text fill="#000000" font-family="sans-serif" font-size="11.7" lengthAdjust="spacing" textLength="4.5" x="260.2605" y="544.6993">*</text><!--MD5=[58fac5310c1666a6e65c137533900c90]
link ParameterCategoryMapper to ParameterCategoryDto--><path codeLine="63" d="M768.969,179.118 C737.055,196.857 697.491,218.862 663.471,237.771 " fill="none" id="ParameterCategoryMapper-to-ParameterCategoryDto" style="stroke:#A80036;stroke-width:0.9;stroke-dasharray:7.0,7.0;"/><polygon fill="#A80036" points="659.349,240.066,668.178,239.2793,663.2827,237.8806,664.6814,232.9853,659.349,240.066" style="stroke:#A80036;stroke-width:0.9;"/><!--MD5=[19765d4468597c595e89fcbff5e25b10]
link ParameterCategoryMapper to ParameterCategory--><path codeLine="64" d="M810.27,179.136 C797.22,205.605 782.1,244.026 782.1,279.9 C782.1,279.9 782.1,279.9 782.1,607.95 C782.1,684.378 692.694,726.309 627.282,746.757 " fill="none" id="ParameterCategoryMapper-to-ParameterCategory" style="stroke:#A80036;stroke-width:0.9;stroke-dasharray:7.0,7.0;"/><polygon fill="#A80036" points="622.611,748.188,631.4113,749.2486,626.9123,746.8655,629.2953,742.3665,622.611,748.188" style="stroke:#A80036;stroke-width:0.9;"/><!--MD5=[d6274e3b73b5bc8f467c6cfbf5bf003e]
link ParameterCategoryStore to ParameterCategory--><path codeLine="65" d="M559.8,472.248 C559.8,532.998 559.8,660.969 559.8,725.013 " fill="none" id="ParameterCategoryStore-to-ParameterCategory" style="stroke:#A80036;stroke-width:0.9;"/><polygon fill="#A80036" points="559.8,729.882,563.4,721.782,559.8,725.382,556.2,721.782,559.8,729.882" style="stroke:#A80036;stroke-width:0.9;"/><text fill="#000000" font-family="sans-serif" font-size="11.7" lengthAdjust="spacing" textLength="35.1" x="560.7" y="611.9956">adopts</text><text fill="#000000" font-family="sans-serif" font-size="11.7" lengthAdjust="spacing" textLength="6.3" x="552.998" y="491.072">1</text><text fill="#000000" font-family="sans-serif" font-size="11.7" lengthAdjust="spacing" textLength="4.5" x="554.8852" y="720.0476">*</text><!--MD5=[8aaf0efd5e2f3824be7ea3e488dcc283]
link TestType to ParameterCategory--><path codeLine="66" d="M385.47,659.862 C424.431,682.956 469.17,709.479 503.568,729.864 " fill="none" id="TestType-ParameterCategory" style="stroke:#A80036;stroke-width:0.9;"/><polygon fill="#000000" points="461.0711,697.2528,455.417,690.8265,452.7196,695.3772,461.0711,697.2528" style="stroke:#000000;stroke-width:0.9;"/><text fill="#000000" font-family="sans-serif" font-size="11.7" lengthAdjust="spacing" textLength="61.2" x="465.3" y="699.7456">has a set of</text><text fill="#000000" font-family="sans-serif" font-size="11.7" lengthAdjust="spacing" textLength="4.5" x="391.3684" y="679.331">*</text><text fill="#000000" font-family="sans-serif" font-size="11.7" lengthAdjust="spacing" textLength="18" x="473.5409" y="720.0262">1..*</text><!--MD5=[46d23453ca3bae699fe0e192d4ce8259]
@startuml

class Company{
-String designation
+getTestTypeStore()
+getParameterCategoryStore()
}

class CreateTestTypeUI{
}

class CreateTestTypeController{
+boolean createTestType(code,description,collecting method,selectedParameterCategoriesList)
+boolean saveTestType()
+List<ParameterCategoryDto> getParameterCategories()
}

class TestType{
-String code
-String description
-String collectingMethod
-List<ParameterCategories> listOfParameterCategories
+TestType(code,description,collectingMethod,listOfParameterCategories)
}

class TestTypeStore{
+createTestType(code,description,collecting method,selectedParameterCategoriesList)
+validateTestType(testType)
+addTestType(testType)
+saveTestType((testType)
}

class ParameterCategoryStore{
+List<ParameterCategory> getParameterCategoryList()
+ParameterCategory getParameterCategorybyCode()
}

class ParameterCategoryMapper{
+List<ParameterCategoryDto> toDto (List<ParameterCategory> parameterCategories)
+ParameterCategoryDto toDto(ParameterCategory parameterCategory
}


class ParameterCategoryDto{
+ String name
+ String code
+ ParameterCategoryDto(code,name)
}

class ParameterCategory{
+ String name
+ String code
}

CreateTestTypeUI ..> CreateTestTypeController
CreateTestTypeUI ..> ParameterCategoryDto
CreateTestTypeController ..> Company
CreateTestTypeController ..> TestTypeStore
CreateTestTypeController ..> ParameterCategoryStore
CreateTestTypeController ..> ParameterCategoryDto
Company"1"- -> "1" TestTypeStore : uses
Company"1"- -> "1" ParameterCategoryStore : uses
TestTypeStore "1"- ->"*" TestType : conducts
ParameterCategoryMapper ..> ParameterCategoryDto
ParameterCategoryMapper ..> ParameterCategory
ParameterCategoryStore "1"- -> "*"ParameterCategory : adopts
TestType "*"- -"1..*" ParameterCategory : has a set of >
@enduml

PlantUML version 1.2021.5(Sun Apr 25 12:20:28 BST 2021)
(GPL source distribution)
Java Runtime: OpenJDK Runtime Environment
JVM: OpenJDK 64-Bit Server VM
Default Encoding: Cp1252
Language: pt
Country: PT
--></g></svg>