<?xml version="1.0" encoding="UTF-8" standalone="no"?><svg xmlns="http://www.w3.org/2000/svg" xmlns:xlink="http://www.w3.org/1999/xlink" contentScriptType="application/ecmascript" contentStyleType="text/css" height="1099.5px" preserveAspectRatio="none" style="width:811px;height:1099px;" version="1.1" viewBox="0 0 811 1099" width="811.5px" zoomAndPan="magnify"><defs><filter height="300%" id="f5denrhskjla2" width="300%" x="-1" y="-1"><feGaussianBlur result="blurOut" stdDeviation="3.0"/><feColorMatrix in="blurOut" result="blurOut2" type="matrix" values="0 0 0 0 0 0 0 0 0 0 0 0 0 0 0 0 0 0 .4 0"/><feOffset dx="6.0" dy="6.0" in="blurOut2" result="blurOut3"/><feBlend in="SourceGraphic" in2="blurOut3" mode="normal"/></filter></defs><g><!--MD5=[02e4b9b7573f1156f41e60aa5b4e25a4]
class Company--><rect codeLine="2" fill="#FEFECE" filter="url(#f5denrhskjla2)" height="113.5078" id="Company" style="stroke:#A80036;stroke-width:2.25;" width="252" x="111" y="400.5"/><ellipse cx="190.875" cy="424.5" fill="#ADD1B2" rx="16.5" ry="16.5" style="stroke:#A80036;stroke-width:1.5;"/><path d="M193.875,419.25 Q194.1797,418.5 194.5313,418.125 Q194.8828,417.75 195.2813,417.75 Q195.9844,417.75 196.4297,418.1719 Q196.875,418.5938 196.875,419.5781 L196.875,421.9219 Q196.875,422.9063 196.4531,423.3281 Q196.0313,423.75 195.375,423.75 Q194.7891,423.75 194.4141,423.4922 Q194.0391,423.2344 193.875,422.5547 Q193.8047,422.0859 193.5469,421.8281 Q193.0781,421.3359 192.2344,421.0547 Q191.3906,420.75 190.5469,420.75 Q189.4922,420.75 188.6016,421.1719 Q187.7344,421.5938 187.0547,422.5313 Q186.375,423.4688 186.375,424.7578 L186.375,426.1406 Q186.375,427.6875 187.6406,428.7188 Q188.9063,429.75 191.1563,429.75 Q192.4922,429.75 193.4297,429.4453 Q193.9688,429.2813 194.5781,428.7422 Q194.9766,428.4375 195.1875,428.3438 Q195.3984,428.25 195.6563,428.25 Q196.1484,428.25 196.5,428.6484 Q196.875,429.0234 196.875,429.5625 Q196.875,430.0781 196.3594,430.6875 Q195.6094,431.5781 194.4141,432.0703 Q192.8438,432.75 190.9219,432.75 Q188.6719,432.75 186.8672,431.8594 Q185.4141,431.1563 184.3828,429.6328 Q183.375,428.1094 183.375,426.3047 L183.375,424.6641 Q183.375,422.7891 184.2656,421.1484 Q185.1797,419.5078 186.75,418.6406 Q188.3438,417.75 190.125,417.75 Q191.2031,417.75 192.1406,418.125 Q193.0781,418.5 193.875,419.25 Z " fill="#000000"/><text fill="#000000" font-family="sans-serif" font-size="18" lengthAdjust="spacing" textLength="79.5" x="221.625" y="431.8652">Company</text><line style="stroke:#A80036;stroke-width:2.25;" x1="112.5" x2="361.5" y1="448.5" y2="448.5"/><line style="stroke:#A80036;stroke-width:2.25;" x1="112.5" x2="361.5" y1="460.5" y2="460.5"/><ellipse cx="127.5" cy="477" fill="#84BE84" rx="4.5" ry="4.5" style="stroke:#038048;stroke-width:1.5;"/><text fill="#000000" font-family="sans-serif" font-size="16.5" lengthAdjust="spacing" textLength="141" x="141" y="483.6284">getTypeTestStore()</text><ellipse cx="127.5" cy="497.7539" fill="#84BE84" rx="4.5" ry="4.5" style="stroke:#038048;stroke-width:1.5;"/><text fill="#000000" font-family="sans-serif" font-size="16.5" lengthAdjust="spacing" textLength="213" x="141" y="504.3823">getParameterCategoryStore()</text><!--MD5=[bebdcc43ebcb1534ee764d1f430c03ae]
class CreateTestTypeUI--><rect codeLine="7" fill="#FEFECE" filter="url(#f5denrhskjla2)" height="72" id="CreateTestTypeUI" style="stroke:#A80036;stroke-width:2.25;" width="196.5" x="344.25" y="10.5"/><ellipse cx="366.75" cy="34.5" fill="#ADD1B2" rx="16.5" ry="16.5" style="stroke:#A80036;stroke-width:1.5;"/><path d="M369.75,29.25 Q370.0547,28.5 370.4063,28.125 Q370.7578,27.75 371.1563,27.75 Q371.8594,27.75 372.3047,28.1719 Q372.75,28.5938 372.75,29.5781 L372.75,31.9219 Q372.75,32.9063 372.3281,33.3281 Q371.9063,33.75 371.25,33.75 Q370.6641,33.75 370.2891,33.4922 Q369.9141,33.2344 369.75,32.5547 Q369.6797,32.0859 369.4219,31.8281 Q368.9531,31.3359 368.1094,31.0547 Q367.2656,30.75 366.4219,30.75 Q365.3672,30.75 364.4766,31.1719 Q363.6094,31.5938 362.9297,32.5313 Q362.25,33.4688 362.25,34.7578 L362.25,36.1406 Q362.25,37.6875 363.5156,38.7188 Q364.7813,39.75 367.0313,39.75 Q368.3672,39.75 369.3047,39.4453 Q369.8438,39.2813 370.4531,38.7422 Q370.8516,38.4375 371.0625,38.3438 Q371.2734,38.25 371.5313,38.25 Q372.0234,38.25 372.375,38.6484 Q372.75,39.0234 372.75,39.5625 Q372.75,40.0781 372.2344,40.6875 Q371.4844,41.5781 370.2891,42.0703 Q368.7188,42.75 366.7969,42.75 Q364.5469,42.75 362.7422,41.8594 Q361.2891,41.1563 360.2578,39.6328 Q359.25,38.1094 359.25,36.3047 L359.25,34.6641 Q359.25,32.7891 360.1406,31.1484 Q361.0547,29.5078 362.625,28.6406 Q364.2188,27.75 366,27.75 Q367.0781,27.75 368.0156,28.125 Q368.9531,28.5 369.75,29.25 Z " fill="#000000"/><text fill="#000000" font-family="sans-serif" font-size="18" lengthAdjust="spacing" textLength="148.5" x="387.75" y="41.8652">CreateTestTypeUI</text><line style="stroke:#A80036;stroke-width:2.25;" x1="345.75" x2="539.25" y1="58.5" y2="58.5"/><line style="stroke:#A80036;stroke-width:2.25;" x1="345.75" x2="539.25" y1="70.5" y2="70.5"/><!--MD5=[2c845ebea24388d268f5a9acbeca4fd9]
class CreateTestTypeController--><rect codeLine="10" fill="#FEFECE" filter="url(#f5denrhskjla2)" height="134.2617" id="CreateTestTypeController" style="stroke:#A80036;stroke-width:2.25;" width="657" x="114" y="174"/><ellipse cx="330.375" cy="198" fill="#ADD1B2" rx="16.5" ry="16.5" style="stroke:#A80036;stroke-width:1.5;"/><path d="M333.375,192.75 Q333.6797,192 334.0313,191.625 Q334.3828,191.25 334.7813,191.25 Q335.4844,191.25 335.9297,191.6719 Q336.375,192.0938 336.375,193.0781 L336.375,195.4219 Q336.375,196.4063 335.9531,196.8281 Q335.5313,197.25 334.875,197.25 Q334.2891,197.25 333.9141,196.9922 Q333.5391,196.7344 333.375,196.0547 Q333.3047,195.5859 333.0469,195.3281 Q332.5781,194.8359 331.7344,194.5547 Q330.8906,194.25 330.0469,194.25 Q328.9922,194.25 328.1016,194.6719 Q327.2344,195.0938 326.5547,196.0313 Q325.875,196.9688 325.875,198.2578 L325.875,199.6406 Q325.875,201.1875 327.1406,202.2188 Q328.4063,203.25 330.6563,203.25 Q331.9922,203.25 332.9297,202.9453 Q333.4688,202.7813 334.0781,202.2422 Q334.4766,201.9375 334.6875,201.8438 Q334.8984,201.75 335.1563,201.75 Q335.6484,201.75 336,202.1484 Q336.375,202.5234 336.375,203.0625 Q336.375,203.5781 335.8594,204.1875 Q335.1094,205.0781 333.9141,205.5703 Q332.3438,206.25 330.4219,206.25 Q328.1719,206.25 326.3672,205.3594 Q324.9141,204.6563 323.8828,203.1328 Q322.875,201.6094 322.875,199.8047 L322.875,198.1641 Q322.875,196.2891 323.7656,194.6484 Q324.6797,193.0078 326.25,192.1406 Q327.8438,191.25 329.625,191.25 Q330.7031,191.25 331.6406,191.625 Q332.5781,192 333.375,192.75 Z " fill="#000000"/><text fill="#000000" font-family="sans-serif" font-size="18" lengthAdjust="spacing" textLength="211.5" x="361.125" y="205.3652">CreateTestTypeController</text><line style="stroke:#A80036;stroke-width:2.25;" x1="115.5" x2="769.5" y1="222" y2="222"/><line style="stroke:#A80036;stroke-width:2.25;" x1="115.5" x2="769.5" y1="234" y2="234"/><ellipse cx="130.5" cy="250.5" fill="#84BE84" rx="4.5" ry="4.5" style="stroke:#038048;stroke-width:1.5;"/><text fill="#000000" font-family="sans-serif" font-size="16.5" lengthAdjust="spacing" textLength="186" x="144" y="257.1284">getParameterCategories()</text><ellipse cx="130.5" cy="271.2539" fill="#84BE84" rx="4.5" ry="4.5" style="stroke:#038048;stroke-width:1.5;"/><text fill="#000000" font-family="sans-serif" font-size="16.5" lengthAdjust="spacing" textLength="618" x="144" y="277.8823">createTestType(code,description,collecting method,selectedParameterCategoriesList)</text><ellipse cx="130.5" cy="292.0078" fill="#84BE84" rx="4.5" ry="4.5" style="stroke:#038048;stroke-width:1.5;"/><text fill="#000000" font-family="sans-serif" font-size="16.5" lengthAdjust="spacing" textLength="115.5" x="144" y="298.6362">saveTestType()</text><!--MD5=[aeb3272166074d8737a70b61b1e71682]
class TestType--><rect codeLine="16" fill="#FEFECE" filter="url(#f5denrhskjla2)" height="175.7695" id="TestType" style="stroke:#A80036;stroke-width:2.25;" width="556.5" x="60.75" y="903"/><ellipse cx="295.125" cy="927" fill="#ADD1B2" rx="16.5" ry="16.5" style="stroke:#A80036;stroke-width:1.5;"/><path d="M298.125,921.75 Q298.4297,921 298.7813,920.625 Q299.1328,920.25 299.5313,920.25 Q300.2344,920.25 300.6797,920.6719 Q301.125,921.0938 301.125,922.0781 L301.125,924.4219 Q301.125,925.4063 300.7031,925.8281 Q300.2813,926.25 299.625,926.25 Q299.0391,926.25 298.6641,925.9922 Q298.2891,925.7344 298.125,925.0547 Q298.0547,924.5859 297.7969,924.3281 Q297.3281,923.8359 296.4844,923.5547 Q295.6406,923.25 294.7969,923.25 Q293.7422,923.25 292.8516,923.6719 Q291.9844,924.0938 291.3047,925.0313 Q290.625,925.9688 290.625,927.2578 L290.625,928.6406 Q290.625,930.1875 291.8906,931.2188 Q293.1563,932.25 295.4063,932.25 Q296.7422,932.25 297.6797,931.9453 Q298.2188,931.7813 298.8281,931.2422 Q299.2266,930.9375 299.4375,930.8438 Q299.6484,930.75 299.9063,930.75 Q300.3984,930.75 300.75,931.1484 Q301.125,931.5234 301.125,932.0625 Q301.125,932.5781 300.6094,933.1875 Q299.8594,934.0781 298.6641,934.5703 Q297.0938,935.25 295.1719,935.25 Q292.9219,935.25 291.1172,934.3594 Q289.6641,933.6563 288.6328,932.1328 Q287.625,930.6094 287.625,928.8047 L287.625,927.1641 Q287.625,925.2891 288.5156,923.6484 Q289.4297,922.0078 291,921.1406 Q292.5938,920.25 294.375,920.25 Q295.4531,920.25 296.3906,920.625 Q297.3281,921 298.125,921.75 Z " fill="#000000"/><text fill="#000000" font-family="sans-serif" font-size="18" lengthAdjust="spacing" textLength="75" x="325.875" y="934.3652">TestType</text><line style="stroke:#A80036;stroke-width:2.25;" x1="62.25" x2="615.75" y1="951" y2="951"/><rect fill="none" height="9" style="stroke:#C82930;stroke-width:1.5;" width="9" x="72.75" y="963"/><text fill="#000000" font-family="sans-serif" font-size="16.5" lengthAdjust="spacing" textLength="82.5" x="90.75" y="974.1284">String code</text><rect fill="none" height="9" style="stroke:#C82930;stroke-width:1.5;" width="9" x="72.75" y="983.7539"/><text fill="#000000" font-family="sans-serif" font-size="16.5" lengthAdjust="spacing" textLength="126" x="90.75" y="994.8823">String description</text><rect fill="none" height="9" style="stroke:#C82930;stroke-width:1.5;" width="9" x="72.75" y="1004.5078"/><text fill="#000000" font-family="sans-serif" font-size="16.5" lengthAdjust="spacing" textLength="166.5" x="90.75" y="1015.6362">String collectingMethod</text><rect fill="none" height="9" style="stroke:#C82930;stroke-width:1.5;" width="9" x="72.75" y="1025.2617"/><text fill="#000000" font-family="sans-serif" font-size="16.5" lengthAdjust="spacing" textLength="388.5" x="90.75" y="1036.3901">List&lt;ParameterCategories&gt; listOfParameterCategories</text><line style="stroke:#A80036;stroke-width:2.25;" x1="62.25" x2="615.75" y1="1046.0156" y2="1046.0156"/><ellipse cx="77.25" cy="1062.5156" fill="#84BE84" rx="4.5" ry="4.5" style="stroke:#038048;stroke-width:1.5;"/><text fill="#000000" font-family="sans-serif" font-size="16.5" lengthAdjust="spacing" textLength="517.5" x="90.75" y="1069.144">TestType(code,description,collectingMethod,listOfParameterCategories)</text><!--MD5=[6ba72ddf03822b91e8d41ca71de58ed3]
class TestTypeStore--><rect codeLine="24" fill="#FEFECE" filter="url(#f5denrhskjla2)" height="155.0156" id="TestTypeStore" style="stroke:#A80036;stroke-width:2.25;" width="657" x="10.5" y="631.5"/><ellipse cx="273.375" cy="655.5" fill="#ADD1B2" rx="16.5" ry="16.5" style="stroke:#A80036;stroke-width:1.5;"/><path d="M276.375,650.25 Q276.6797,649.5 277.0313,649.125 Q277.3828,648.75 277.7813,648.75 Q278.4844,648.75 278.9297,649.1719 Q279.375,649.5938 279.375,650.5781 L279.375,652.9219 Q279.375,653.9063 278.9531,654.3281 Q278.5313,654.75 277.875,654.75 Q277.2891,654.75 276.9141,654.4922 Q276.5391,654.2344 276.375,653.5547 Q276.3047,653.0859 276.0469,652.8281 Q275.5781,652.3359 274.7344,652.0547 Q273.8906,651.75 273.0469,651.75 Q271.9922,651.75 271.1016,652.1719 Q270.2344,652.5938 269.5547,653.5313 Q268.875,654.4688 268.875,655.7578 L268.875,657.1406 Q268.875,658.6875 270.1406,659.7188 Q271.4063,660.75 273.6563,660.75 Q274.9922,660.75 275.9297,660.4453 Q276.4688,660.2813 277.0781,659.7422 Q277.4766,659.4375 277.6875,659.3438 Q277.8984,659.25 278.1563,659.25 Q278.6484,659.25 279,659.6484 Q279.375,660.0234 279.375,660.5625 Q279.375,661.0781 278.8594,661.6875 Q278.1094,662.5781 276.9141,663.0703 Q275.3438,663.75 273.4219,663.75 Q271.1719,663.75 269.3672,662.8594 Q267.9141,662.1563 266.8828,660.6328 Q265.875,659.1094 265.875,657.3047 L265.875,655.6641 Q265.875,653.7891 266.7656,652.1484 Q267.6797,650.5078 269.25,649.6406 Q270.8438,648.75 272.625,648.75 Q273.7031,648.75 274.6406,649.125 Q275.5781,649.5 276.375,650.25 Z " fill="#000000"/><text fill="#000000" font-family="sans-serif" font-size="18" lengthAdjust="spacing" textLength="118.5" x="304.125" y="662.8652">TestTypeStore</text><line style="stroke:#A80036;stroke-width:2.25;" x1="12" x2="666" y1="679.5" y2="679.5"/><line style="stroke:#A80036;stroke-width:2.25;" x1="12" x2="666" y1="691.5" y2="691.5"/><ellipse cx="27" cy="708" fill="#84BE84" rx="4.5" ry="4.5" style="stroke:#038048;stroke-width:1.5;"/><text fill="#000000" font-family="sans-serif" font-size="16.5" lengthAdjust="spacing" textLength="618" x="40.5" y="714.6284">createTestType(code,description,collecting method,selectedParameterCategoriesList)</text><ellipse cx="27" cy="728.7539" fill="#84BE84" rx="4.5" ry="4.5" style="stroke:#038048;stroke-width:1.5;"/><text fill="#000000" font-family="sans-serif" font-size="16.5" lengthAdjust="spacing" textLength="198" x="40.5" y="735.3823">validateTestType(testType)</text><ellipse cx="27" cy="749.5078" fill="#84BE84" rx="4.5" ry="4.5" style="stroke:#038048;stroke-width:1.5;"/><text fill="#000000" font-family="sans-serif" font-size="16.5" lengthAdjust="spacing" textLength="169.5" x="40.5" y="756.1362">addTestType(testType)</text><ellipse cx="27" cy="770.2617" fill="#84BE84" rx="4.5" ry="4.5" style="stroke:#038048;stroke-width:1.5;"/><text fill="#000000" font-family="sans-serif" font-size="16.5" lengthAdjust="spacing" textLength="184.5" x="40.5" y="776.8901">saveTestType((testType)</text><!--MD5=[d802db621b5b215a6f0466f93cefcb42]
class ParameterCategoryStore--><rect codeLine="31" fill="#FEFECE" filter="url(#f5denrhskjla2)" height="113.5078" id="ParameterCategoryStore" style="stroke:#A80036;stroke-width:2.25;" width="268.5" x="522.75" y="400.5"/><ellipse cx="552.675" cy="424.5" fill="#ADD1B2" rx="16.5" ry="16.5" style="stroke:#A80036;stroke-width:1.5;"/><path d="M555.675,419.25 Q555.9797,418.5 556.3313,418.125 Q556.6828,417.75 557.0813,417.75 Q557.7844,417.75 558.2297,418.1719 Q558.675,418.5938 558.675,419.5781 L558.675,421.9219 Q558.675,422.9063 558.2531,423.3281 Q557.8313,423.75 557.175,423.75 Q556.5891,423.75 556.2141,423.4922 Q555.8391,423.2344 555.675,422.5547 Q555.6047,422.0859 555.3469,421.8281 Q554.8781,421.3359 554.0344,421.0547 Q553.1906,420.75 552.3469,420.75 Q551.2922,420.75 550.4016,421.1719 Q549.5344,421.5938 548.8547,422.5313 Q548.175,423.4688 548.175,424.7578 L548.175,426.1406 Q548.175,427.6875 549.4406,428.7188 Q550.7063,429.75 552.9563,429.75 Q554.2922,429.75 555.2297,429.4453 Q555.7688,429.2813 556.3781,428.7422 Q556.7766,428.4375 556.9875,428.3438 Q557.1984,428.25 557.4563,428.25 Q557.9484,428.25 558.3,428.6484 Q558.675,429.0234 558.675,429.5625 Q558.675,430.0781 558.1594,430.6875 Q557.4094,431.5781 556.2141,432.0703 Q554.6438,432.75 552.7219,432.75 Q550.4719,432.75 548.6672,431.8594 Q547.2141,431.1563 546.1828,429.6328 Q545.175,428.1094 545.175,426.3047 L545.175,424.6641 Q545.175,422.7891 546.0656,421.1484 Q546.9797,419.5078 548.55,418.6406 Q550.1438,417.75 551.925,417.75 Q553.0031,417.75 553.9406,418.125 Q554.8781,418.5 555.675,419.25 Z " fill="#000000"/><text fill="#000000" font-family="sans-serif" font-size="18" lengthAdjust="spacing" textLength="204" x="575.325" y="431.8652">ParameterCategoryStore</text><line style="stroke:#A80036;stroke-width:2.25;" x1="524.25" x2="789.75" y1="448.5" y2="448.5"/><line style="stroke:#A80036;stroke-width:2.25;" x1="524.25" x2="789.75" y1="460.5" y2="460.5"/><ellipse cx="539.25" cy="477" fill="#84BE84" rx="4.5" ry="4.5" style="stroke:#038048;stroke-width:1.5;"/><text fill="#000000" font-family="sans-serif" font-size="16.5" lengthAdjust="spacing" textLength="186" x="552.75" y="483.6284">getParameterCategories()</text><ellipse cx="539.25" cy="497.7539" fill="#84BE84" rx="4.5" ry="4.5" style="stroke:#038048;stroke-width:1.5;"/><text fill="#000000" font-family="sans-serif" font-size="16.5" lengthAdjust="spacing" textLength="229.5" x="552.75" y="504.3823">getParameterCategorybyCode()</text><!--MD5=[69134a8957932d955e1f822b15ec4b1c]
link CreateTestTypeUI to CreateTestTypeController--><path codeLine="36" d="M442.5,82.77 C442.5,105.885 442.5,137.13 442.5,165.675 " fill="none" id="CreateTestTypeUI-to-CreateTestTypeController" style="stroke:#A80036;stroke-width:1.5;stroke-dasharray:7.0,7.0;"/><polygon fill="#A80036" points="442.5,173.64,448.5,160.14,442.5,166.14,436.5,160.14,442.5,173.64" style="stroke:#A80036;stroke-width:1.5;"/><!--MD5=[812ef8251b528d1a64980212cceda9f5]
link CreateTestTypeController to Company--><path codeLine="37" d="M378.6,309.225 C352.53,336.255 322.545,367.32 296.91,393.915 " fill="none" id="CreateTestTypeController-to-Company" style="stroke:#A80036;stroke-width:1.5;stroke-dasharray:7.0,7.0;"/><polygon fill="#A80036" points="291.165,399.855,304.8549,394.3019,296.371,394.4562,296.2168,385.9723,291.165,399.855" style="stroke:#A80036;stroke-width:1.5;"/><!--MD5=[97f86ea091f10acfb6befc2251259947]
link CreateTestTypeController to TestTypeStore--><path codeLine="38" d="M430.41,309.045 C420.075,364.155 404.4,444.675 388.5,514.5 C380.34,550.365 370.395,589.725 361.59,623.475 " fill="none" id="CreateTestTypeController-to-TestTypeStore" style="stroke:#A80036;stroke-width:1.5;stroke-dasharray:7.0,7.0;"/><polygon fill="#A80036" points="359.595,631.035,368.8264,619.5011,361.4995,623.7808,357.2197,616.4539,359.595,631.035" style="stroke:#A80036;stroke-width:1.5;"/><!--MD5=[f4bf28669fe4ba1101395c8fda9b28f2]
link CreateTestTypeController to ParameterCategoryStore--><path codeLine="39" d="M509.19,309.225 C536.4,336.255 567.705,367.32 594.465,393.915 " fill="none" id="CreateTestTypeController-to-ParameterCategoryStore" style="stroke:#A80036;stroke-width:1.5;stroke-dasharray:7.0,7.0;"/><polygon fill="#A80036" points="600.465,399.855,595.1059,386.088,595.1403,394.5732,586.6551,394.6076,600.465,399.855" style="stroke:#A80036;stroke-width:1.5;"/><!--MD5=[141c3afa12b2b3c0a39ffce56dbd5f19]
link Company to TestTypeStore--><path codeLine="40" d="M259.89,514.71 C273.165,547.005 290.13,588.3 304.935,624.345 " fill="none" id="Company-to-TestTypeStore" style="stroke:#A80036;stroke-width:1.5;"/><polygon fill="#A80036" points="307.875,631.485,308.299,616.7178,305.0269,624.5468,297.1979,621.2747,307.875,631.485" style="stroke:#A80036;stroke-width:1.5;"/><text fill="#000000" font-family="sans-serif" font-size="19.5" lengthAdjust="spacing" textLength="42" x="289.5" y="581.2427">uses</text><text fill="#000000" font-family="sans-serif" font-size="19.5" lengthAdjust="spacing" textLength="10.5" x="252.2014" y="546.0643">1</text><text fill="#000000" font-family="sans-serif" font-size="19.5" lengthAdjust="spacing" textLength="10.5" x="292.2598" y="615.1756">1</text><!--MD5=[3eebf0e5f359806b77b30e9524c37676]
link TestTypeStore to TestType--><path codeLine="41" d="M339,786.495 C339,819.93 339,859.545 339,894.84 " fill="none" id="TestTypeStore-to-TestType" style="stroke:#A80036;stroke-width:1.5;"/><polygon fill="#A80036" points="339,902.76,345,889.26,339,895.26,333,889.26,339,902.76" style="stroke:#A80036;stroke-width:1.5;"/><text fill="#000000" font-family="sans-serif" font-size="19.5" lengthAdjust="spacing" textLength="79.5" x="340.5" y="852.7427">conducts</text><text fill="#000000" font-family="sans-serif" font-size="19.5" lengthAdjust="spacing" textLength="10.5" x="327.7945" y="818.7979">1</text><text fill="#000000" font-family="sans-serif" font-size="19.5" lengthAdjust="spacing" textLength="7.5" x="331.043" y="886.8321">*</text><!--MD5=[631005a19f1c85b6d8f4c2812edd4618]
@startuml

class Company{
+getTypeTestStore()
+getParameterCategoryStore()
}

class CreateTestTypeUI{
}

class CreateTestTypeController{
+getParameterCategories()
+createTestType(code,description,collecting method,selectedParameterCategoriesList)
+saveTestType()
}

class TestType{
-String code
-String description
-String collectingMethod
-List<ParameterCategories> listOfParameterCategories
+TestType(code,description,collectingMethod,listOfParameterCategories)
}

class TestTypeStore{
+createTestType(code,description,collecting method,selectedParameterCategoriesList)
+validateTestType(testType)
+addTestType(testType)
+saveTestType((testType)
}

class ParameterCategoryStore{
+getParameterCategories()
+getParameterCategorybyCode()
}

CreateTestTypeUI ..> CreateTestTypeController
CreateTestTypeController ..> Company
CreateTestTypeController ..> TestTypeStore
CreateTestTypeController ..> ParameterCategoryStore
Company"1"- -> "1" TestTypeStore : uses
TestTypeStore "1"- ->"*" TestType : conducts

@enduml

PlantUML version 1.2021.5(Sun Apr 25 12:20:28 BST 2021)
(GPL source distribution)
Java Runtime: OpenJDK Runtime Environment
JVM: OpenJDK 64-Bit Server VM
Default Encoding: Cp1252
Language: pt
Country: PT
--></g></svg>