<?xml version="1.0" encoding="UTF-8" standalone="no"?><svg xmlns="http://www.w3.org/2000/svg" xmlns:xlink="http://www.w3.org/1999/xlink" contentScriptType="application/ecmascript" contentStyleType="text/css" height="975px" preserveAspectRatio="none" style="width:360px;height:975px;" version="1.1" viewBox="0 0 360 975" width="360px" zoomAndPan="magnify"><defs><filter height="300%" id="ffow9gt5vbvg3" width="300%" x="-1" y="-1"><feGaussianBlur result="blurOut" stdDeviation="3.0"/><feColorMatrix in="blurOut" result="blurOut2" type="matrix" values="0 0 0 0 0 0 0 0 0 0 0 0 0 0 0 0 0 0 .4 0"/><feOffset dx="6.0" dy="6.0" in="blurOut2" result="blurOut3"/><feBlend in="SourceGraphic" in2="blurOut3" mode="normal"/></filter></defs><g><!--MD5=[02e4b9b7573f1156f41e60aa5b4e25a4]
class Company--><rect codeLine="5" fill="#FEFECE" filter="url(#ffow9gt5vbvg3)" height="163.7695" id="Company" style="stroke:#A80036;stroke-width:2.25;" width="127.5" x="117" y="10.5"/><ellipse cx="139.5" cy="34.5" fill="#ADD1B2" rx="16.5" ry="16.5" style="stroke:#A80036;stroke-width:1.5;"/><path d="M142.5,29.25 Q142.8047,28.5 143.1563,28.125 Q143.5078,27.75 143.9063,27.75 Q144.6094,27.75 145.0547,28.1719 Q145.5,28.5938 145.5,29.5781 L145.5,31.9219 Q145.5,32.9063 145.0781,33.3281 Q144.6563,33.75 144,33.75 Q143.4141,33.75 143.0391,33.4922 Q142.6641,33.2344 142.5,32.5547 Q142.4297,32.0859 142.1719,31.8281 Q141.7031,31.3359 140.8594,31.0547 Q140.0156,30.75 139.1719,30.75 Q138.1172,30.75 137.2266,31.1719 Q136.3594,31.5938 135.6797,32.5313 Q135,33.4688 135,34.7578 L135,36.1406 Q135,37.6875 136.2656,38.7188 Q137.5313,39.75 139.7813,39.75 Q141.1172,39.75 142.0547,39.4453 Q142.5938,39.2813 143.2031,38.7422 Q143.6016,38.4375 143.8125,38.3438 Q144.0234,38.25 144.2813,38.25 Q144.7734,38.25 145.125,38.6484 Q145.5,39.0234 145.5,39.5625 Q145.5,40.0781 144.9844,40.6875 Q144.2344,41.5781 143.0391,42.0703 Q141.4688,42.75 139.5469,42.75 Q137.2969,42.75 135.4922,41.8594 Q134.0391,41.1563 133.0078,39.6328 Q132,38.1094 132,36.3047 L132,34.6641 Q132,32.7891 132.8906,31.1484 Q133.8047,29.5078 135.375,28.6406 Q136.9688,27.75 138.75,27.75 Q139.8281,27.75 140.7656,28.125 Q141.7031,28.5 142.5,29.25 Z " fill="#000000"/><text fill="#000000" font-family="sans-serif" font-size="18" lengthAdjust="spacing" textLength="79.5" x="160.5" y="41.8652">Company</text><line style="stroke:#A80036;stroke-width:2.25;" x1="118.5" x2="243" y1="58.5" y2="58.5"/><text fill="#000000" font-family="sans-serif" font-size="16.5" lengthAdjust="spacing" textLength="45" x="126" y="81.6284">-name</text><text fill="#000000" font-family="sans-serif" font-size="16.5" lengthAdjust="spacing" textLength="88.5" x="126" y="102.3823">-designation</text><text fill="#000000" font-family="sans-serif" font-size="16.5" lengthAdjust="spacing" textLength="70.5" x="126" y="123.1362">-category</text><text fill="#000000" font-family="sans-serif" font-size="16.5" lengthAdjust="spacing" textLength="66" x="126" y="143.8901">-address</text><text fill="#000000" font-family="sans-serif" font-size="16.5" lengthAdjust="spacing" textLength="103.5" x="126" y="164.644">-headquarters</text><!--MD5=[da547346deef918ea16944ba046651ef]
class Administrator--><rect codeLine="14" fill="#FEFECE" filter="url(#ffow9gt5vbvg3)" height="205.2773" id="Administrator" style="stroke:#A80036;stroke-width:2.25;" width="157.5" x="10.5" y="291"/><ellipse cx="33" cy="315" fill="#ADD1B2" rx="16.5" ry="16.5" style="stroke:#A80036;stroke-width:1.5;"/><path d="M36,309.75 Q36.3047,309 36.6563,308.625 Q37.0078,308.25 37.4063,308.25 Q38.1094,308.25 38.5547,308.6719 Q39,309.0938 39,310.0781 L39,312.4219 Q39,313.4063 38.5781,313.8281 Q38.1563,314.25 37.5,314.25 Q36.9141,314.25 36.5391,313.9922 Q36.1641,313.7344 36,313.0547 Q35.9297,312.5859 35.6719,312.3281 Q35.2031,311.8359 34.3594,311.5547 Q33.5156,311.25 32.6719,311.25 Q31.6172,311.25 30.7266,311.6719 Q29.8594,312.0938 29.1797,313.0313 Q28.5,313.9688 28.5,315.2578 L28.5,316.6406 Q28.5,318.1875 29.7656,319.2188 Q31.0313,320.25 33.2813,320.25 Q34.6172,320.25 35.5547,319.9453 Q36.0938,319.7813 36.7031,319.2422 Q37.1016,318.9375 37.3125,318.8438 Q37.5234,318.75 37.7813,318.75 Q38.2734,318.75 38.625,319.1484 Q39,319.5234 39,320.0625 Q39,320.5781 38.4844,321.1875 Q37.7344,322.0781 36.5391,322.5703 Q34.9688,323.25 33.0469,323.25 Q30.7969,323.25 28.9922,322.3594 Q27.5391,321.6563 26.5078,320.1328 Q25.5,318.6094 25.5,316.8047 L25.5,315.1641 Q25.5,313.2891 26.3906,311.6484 Q27.3047,310.0078 28.875,309.1406 Q30.4688,308.25 32.25,308.25 Q33.3281,308.25 34.2656,308.625 Q35.2031,309 36,309.75 Z " fill="#000000"/><text fill="#000000" font-family="sans-serif" font-size="18" lengthAdjust="spacing" textLength="109.5" x="54" y="322.3652">Administrator</text><line style="stroke:#A80036;stroke-width:2.25;" x1="12" x2="166.5" y1="339" y2="339"/><text fill="#000000" font-family="sans-serif" font-size="16.5" lengthAdjust="spacing" textLength="45" x="19.5" y="362.1284">-name</text><text fill="#000000" font-family="sans-serif" font-size="16.5" lengthAdjust="spacing" textLength="66" x="19.5" y="382.8823">-address</text><text fill="#000000" font-family="sans-serif" font-size="16.5" lengthAdjust="spacing" textLength="106.5" x="19.5" y="403.6362">-phoneNumber</text><text fill="#000000" font-family="sans-serif" font-size="16.5" lengthAdjust="spacing" textLength="42" x="19.5" y="424.3901">-email</text><text fill="#000000" font-family="sans-serif" font-size="16.5" lengthAdjust="spacing" textLength="87" x="19.5" y="445.144">-employeeId</text><text fill="#000000" font-family="sans-serif" font-size="16.5" lengthAdjust="spacing" textLength="126" x="19.5" y="465.8979">-organizationRole</text><text fill="#000000" font-family="sans-serif" font-size="16.5" lengthAdjust="spacing" textLength="70.5" x="19.5" y="486.6519">-socCode</text><!--MD5=[aeb3272166074d8737a70b61b1e71682]
class TestType--><rect codeLine="24" fill="#FEFECE" filter="url(#ffow9gt5vbvg3)" height="122.2617" id="TestType" style="stroke:#A80036;stroke-width:2.25;" width="144" x="110.25" y="613.5"/><ellipse cx="142.2" cy="637.5" fill="#ADD1B2" rx="16.5" ry="16.5" style="stroke:#A80036;stroke-width:1.5;"/><path d="M145.2,632.25 Q145.5047,631.5 145.8563,631.125 Q146.2078,630.75 146.6063,630.75 Q147.3094,630.75 147.7547,631.1719 Q148.2,631.5938 148.2,632.5781 L148.2,634.9219 Q148.2,635.9063 147.7781,636.3281 Q147.3563,636.75 146.7,636.75 Q146.1141,636.75 145.7391,636.4922 Q145.3641,636.2344 145.2,635.5547 Q145.1297,635.0859 144.8719,634.8281 Q144.4031,634.3359 143.5594,634.0547 Q142.7156,633.75 141.8719,633.75 Q140.8172,633.75 139.9266,634.1719 Q139.0594,634.5938 138.3797,635.5313 Q137.7,636.4688 137.7,637.7578 L137.7,639.1406 Q137.7,640.6875 138.9656,641.7188 Q140.2313,642.75 142.4813,642.75 Q143.8172,642.75 144.7547,642.4453 Q145.2938,642.2813 145.9031,641.7422 Q146.3016,641.4375 146.5125,641.3438 Q146.7234,641.25 146.9813,641.25 Q147.4734,641.25 147.825,641.6484 Q148.2,642.0234 148.2,642.5625 Q148.2,643.0781 147.6844,643.6875 Q146.9344,644.5781 145.7391,645.0703 Q144.1688,645.75 142.2469,645.75 Q139.9969,645.75 138.1922,644.8594 Q136.7391,644.1563 135.7078,642.6328 Q134.7,641.1094 134.7,639.3047 L134.7,637.6641 Q134.7,635.7891 135.5906,634.1484 Q136.5047,632.5078 138.075,631.6406 Q139.6688,630.75 141.45,630.75 Q142.5281,630.75 143.4656,631.125 Q144.4031,631.5 145.2,632.25 Z " fill="#000000"/><text fill="#000000" font-family="sans-serif" font-size="18" lengthAdjust="spacing" textLength="75" x="165.3" y="644.8652">TestType</text><line style="stroke:#A80036;stroke-width:2.25;" x1="111.75" x2="252.75" y1="661.5" y2="661.5"/><text fill="#000000" font-family="sans-serif" font-size="16.5" lengthAdjust="spacing" textLength="42" x="119.25" y="684.6284">-code</text><text fill="#000000" font-family="sans-serif" font-size="16.5" lengthAdjust="spacing" textLength="85.5" x="119.25" y="705.3823">-description</text><text fill="#000000" font-family="sans-serif" font-size="16.5" lengthAdjust="spacing" textLength="126" x="119.25" y="726.1362">-collectingMethod</text><!--MD5=[a96594a83e2ecdc78cbf17c2ddf01934]
class Category--><rect codeLine="31" fill="#FEFECE" filter="url(#ffow9gt5vbvg3)" height="101.5078" id="Category" style="stroke:#A80036;stroke-width:2.25;" width="121.5" x="121.5" y="853.5"/><ellipse cx="144" cy="877.5" fill="#ADD1B2" rx="16.5" ry="16.5" style="stroke:#A80036;stroke-width:1.5;"/><path d="M147,872.25 Q147.3047,871.5 147.6563,871.125 Q148.0078,870.75 148.4063,870.75 Q149.1094,870.75 149.5547,871.1719 Q150,871.5938 150,872.5781 L150,874.9219 Q150,875.9063 149.5781,876.3281 Q149.1563,876.75 148.5,876.75 Q147.9141,876.75 147.5391,876.4922 Q147.1641,876.2344 147,875.5547 Q146.9297,875.0859 146.6719,874.8281 Q146.2031,874.3359 145.3594,874.0547 Q144.5156,873.75 143.6719,873.75 Q142.6172,873.75 141.7266,874.1719 Q140.8594,874.5938 140.1797,875.5313 Q139.5,876.4688 139.5,877.7578 L139.5,879.1406 Q139.5,880.6875 140.7656,881.7188 Q142.0313,882.75 144.2813,882.75 Q145.6172,882.75 146.5547,882.4453 Q147.0938,882.2813 147.7031,881.7422 Q148.1016,881.4375 148.3125,881.3438 Q148.5234,881.25 148.7813,881.25 Q149.2734,881.25 149.625,881.6484 Q150,882.0234 150,882.5625 Q150,883.0781 149.4844,883.6875 Q148.7344,884.5781 147.5391,885.0703 Q145.9688,885.75 144.0469,885.75 Q141.7969,885.75 139.9922,884.8594 Q138.5391,884.1563 137.5078,882.6328 Q136.5,881.1094 136.5,879.3047 L136.5,877.6641 Q136.5,875.7891 137.3906,874.1484 Q138.3047,872.5078 139.875,871.6406 Q141.4688,870.75 143.25,870.75 Q144.3281,870.75 145.2656,871.125 Q146.2031,871.5 147,872.25 Z " fill="#000000"/><text fill="#000000" font-family="sans-serif" font-size="18" lengthAdjust="spacing" textLength="73.5" x="165" y="884.8652">Category</text><line style="stroke:#A80036;stroke-width:2.25;" x1="123" x2="241.5" y1="901.5" y2="901.5"/><text fill="#000000" font-family="sans-serif" font-size="16.5" lengthAdjust="spacing" textLength="45" x="130.5" y="924.6284">-name</text><text fill="#000000" font-family="sans-serif" font-size="16.5" lengthAdjust="spacing" textLength="42" x="130.5" y="945.3823">-code</text><!--MD5=[eaea43e34e45c5b9d20b595fc78f1f20]
link Company to Administrator--><path codeLine="37" d="M156.105,174.135 C145.095,210.045 132,252.78 120.33,290.865 " fill="none" id="Company-Administrator" style="stroke:#A80036;stroke-width:1.5;"/><polygon fill="#000000" points="147.0523,239.9345,155.2428,228.2541,146.8131,225.6706,147.0523,239.9345" style="stroke:#000000;stroke-width:1.5;"/><text fill="#000000" font-family="sans-serif" font-size="19.5" lengthAdjust="spacing" textLength="55.5" x="162.75" y="240.7427">knows</text><text fill="#000000" font-family="sans-serif" font-size="19.5" lengthAdjust="spacing" textLength="10.5" x="141.7747" y="206.4232">1</text><text fill="#000000" font-family="sans-serif" font-size="19.5" lengthAdjust="spacing" textLength="7.5" x="115.8192" y="274.5831">*</text><!--MD5=[742a261f27a3dcd734c626287d811acd]
link Company to TestType--><path codeLine="38" d="M218.565,174.615 C223.92,189.12 228.66,204.3 231.75,219 C261.255,359.325 238.755,398.13 240.75,541.5 C240.915,553.5 243.765,556.89 240.75,568.5 C236.82,583.65 230.16,598.935 222.735,612.975 " fill="none" id="Company-TestType" style="stroke:#A80036;stroke-width:1.5;"/><polygon fill="#000000" points="255.8213,401.5133,260.1005,387.9044,251.2841,387.9883,255.8213,401.5133" style="stroke:#000000;stroke-width:1.5;"/><text fill="#000000" font-family="sans-serif" font-size="19.5" lengthAdjust="spacing" textLength="79.5" x="269.25" y="401.9927">conducts</text><text fill="#000000" font-family="sans-serif" font-size="19.5" lengthAdjust="spacing" textLength="10.5" x="212.0339" y="206.3741">1</text><text fill="#000000" font-family="sans-serif" font-size="19.5" lengthAdjust="spacing" textLength="7.5" x="221.3192" y="597.0621">*</text><!--MD5=[71159b3869b6d7a411768e18bcaa697a]
link Administrator to TestType--><path codeLine="39" d="M112.485,496.92 C118.785,520.65 126.135,545.655 134.25,568.5 C139.485,583.23 145.98,598.74 152.49,613.17 " fill="none" id="Administrator-TestType" style="stroke:#A80036;stroke-width:1.5;"/><polygon fill="#000000" points="144.1905,562.3555,143.9441,548.0918,135.6071,550.9608,144.1905,562.3555" style="stroke:#000000;stroke-width:1.5;"/><text fill="#000000" font-family="sans-serif" font-size="19.5" lengthAdjust="spacing" textLength="78" x="155.25" y="563.2427">specify a</text><text fill="#000000" font-family="sans-serif" font-size="19.5" lengthAdjust="spacing" textLength="10.5" x="103.7554" y="528.5366">1</text><text fill="#000000" font-family="sans-serif" font-size="19.5" lengthAdjust="spacing" textLength="7.5" x="139.4399" y="597.2894">*</text><!--MD5=[2148a3300dad30af455fcbe81ca204c2]
link TestType to Category--><path codeLine="40" d="M182.25,736.605 C182.25,773.04 182.25,818.97 182.25,853.335 " fill="none" id="TestType-Category" style="stroke:#A80036;stroke-width:1.5;"/><polygon fill="#000000" points="189.75,802.7637,194.1584,789.196,185.3416,789.196,189.75,802.7637" style="stroke:#000000;stroke-width:1.5;"/><text fill="#000000" font-family="sans-serif" font-size="19.5" lengthAdjust="spacing" textLength="55.5" x="203.25" y="803.2427">have a</text><text fill="#000000" font-family="sans-serif" font-size="19.5" lengthAdjust="spacing" textLength="7.5" x="174.1758" y="768.2153">*</text><text fill="#000000" font-family="sans-serif" font-size="19.5" lengthAdjust="spacing" textLength="7.5" x="174.0117" y="837.2424">*</text><!--MD5=[b1ef6269138ef78c0107b880ce835f46]
@startuml
hide methods
'left to right direction
skinparam classAttributeIconSize 0

class Company{
-name
-designation
-category
-address
-headquarters
}


class Administrator{
-name
-address
-phoneNumber
-email
-employeeId
-organizationRole
-socCode
}

class TestType{
-code
-description
-collectingMethod
}


class Category{
-name
-code
}


Company "1"- -"*" Administrator : knows >
Company "1"- -"*" TestType : conducts >
Administrator "1"- -"*" TestType : specify a >
TestType "*"- -"*" Category : have a >

@enduml

@startuml
hide methods
skinparam classAttributeIconSize 0

class Company{
-name
-designation
-category
-address
-headquarters
}


class Administrator{
-name
-address
-phoneNumber
-email
-employeeId
-organizationRole
-socCode
}

class TestType{
-code
-description
-collectingMethod
}


class Category{
-name
-code
}


Company "1"- -"*" Administrator : knows >
Company "1"- -"*" TestType : conducts >
Administrator "1"- -"*" TestType : specify a >
TestType "*"- -"*" Category : have a >

@enduml

PlantUML version 1.2021.4(Sun Apr 04 09:49:39 BST 2021)
(GPL source distribution)
Java Runtime: OpenJDK Runtime Environment
JVM: OpenJDK 64-Bit Server VM
Default Encoding: Cp1252
Language: pt
Country: PT
--></g></svg>