<?xml version="1.0" encoding="UTF-8" standalone="no"?><svg xmlns="http://www.w3.org/2000/svg" xmlns:xlink="http://www.w3.org/1999/xlink" contentScriptType="application/ecmascript" contentStyleType="text/css" height="417.5px" preserveAspectRatio="none" style="width:755px;height:417px;" version="1.1" viewBox="0 0 755 417" width="755px" zoomAndPan="magnify"><defs><filter height="300%" id="f158sy5p9tboy1" width="300%" x="-1" y="-1"><feGaussianBlur result="blurOut" stdDeviation="2.5"/><feColorMatrix in="blurOut" result="blurOut2" type="matrix" values="0 0 0 0 0 0 0 0 0 0 0 0 0 0 0 0 0 0 .4 0"/><feOffset dx="5.0" dy="5.0" in="blurOut2" result="blurOut3"/><feBlend in="SourceGraphic" in2="blurOut3" mode="normal"/></filter></defs><g><!--MD5=[df38be88ccee13e832d6fafd6288a4ca]
class Test--><rect codeLine="6" fill="#FEFECE" filter="url(#f158sy5p9tboy1)" height="188.3594" id="Test" style="stroke:#A80036;stroke-width:1.875;" width="160" x="8.75" y="170"/><ellipse cx="68.4375" cy="190" fill="#ADD1B2" rx="13.75" ry="13.75" style="stroke:#A80036;stroke-width:1.25;"/><path d="M70.9375,185.625 Q71.1914,185 71.4844,184.6875 Q71.7773,184.375 72.1094,184.375 Q72.6953,184.375 73.0664,184.7266 Q73.4375,185.0781 73.4375,185.8984 L73.4375,187.8516 Q73.4375,188.6719 73.0859,189.0234 Q72.7344,189.375 72.1875,189.375 Q71.6992,189.375 71.3867,189.1602 Q71.0742,188.9453 70.9375,188.3789 Q70.8789,187.9883 70.6641,187.7734 Q70.2734,187.3633 69.5703,187.1289 Q68.8672,186.875 68.1641,186.875 Q67.2852,186.875 66.543,187.2266 Q65.8203,187.5781 65.2539,188.3594 Q64.6875,189.1406 64.6875,190.2148 L64.6875,191.3672 Q64.6875,192.6563 65.7422,193.5156 Q66.7969,194.375 68.6719,194.375 Q69.7852,194.375 70.5664,194.1211 Q71.0156,193.9844 71.5234,193.5352 Q71.8555,193.2813 72.0313,193.2031 Q72.207,193.125 72.4219,193.125 Q72.832,193.125 73.125,193.457 Q73.4375,193.7695 73.4375,194.2188 Q73.4375,194.6484 73.0078,195.1563 Q72.3828,195.8984 71.3867,196.3086 Q70.0781,196.875 68.4766,196.875 Q66.6016,196.875 65.0977,196.1328 Q63.8867,195.5469 63.0273,194.2773 Q62.1875,193.0078 62.1875,191.5039 L62.1875,190.1367 Q62.1875,188.5742 62.9297,187.207 Q63.6914,185.8398 65,185.1172 Q66.3281,184.375 67.8125,184.375 Q68.7109,184.375 69.4922,184.6875 Q70.2734,185 70.9375,185.625 Z " fill="#000000"/><text fill="#000000" font-family="sans-serif" font-size="15" lengthAdjust="spacing" textLength="30" x="94.0625" y="196.1377">Test</text><line style="stroke:#A80036;stroke-width:1.875;" x1="10" x2="167.5" y1="210" y2="210"/><text fill="#000000" font-family="sans-serif" font-size="13.75" lengthAdjust="spacing" textLength="80" x="16.25" y="229.2737">-internalCode</text><text fill="#000000" font-family="sans-serif" font-size="13.75" lengthAdjust="spacing" textLength="58.75" x="16.25" y="246.5686">-nhsCode</text><text fill="#000000" font-family="sans-serif" font-size="13.75" lengthAdjust="spacing" textLength="71.25" x="16.25" y="263.8635">-description</text><text fill="#000000" font-family="sans-serif" font-size="13.75" lengthAdjust="spacing" textLength="145" x="16.25" y="281.1584">-dateOfSampleCollected</text><text fill="#000000" font-family="sans-serif" font-size="13.75" lengthAdjust="spacing" textLength="142.5" x="16.25" y="298.4534">-timeOfSampleCollected</text><text fill="#000000" font-family="sans-serif" font-size="13.75" lengthAdjust="spacing" textLength="142.5" x="16.25" y="315.7483">-dateOfSampleAnalysis</text><text fill="#000000" font-family="sans-serif" font-size="13.75" lengthAdjust="spacing" textLength="140" x="16.25" y="333.0432">-timeOfSampleAnalysis</text><text fill="#000000" font-family="sans-serif" font-size="13.75" lengthAdjust="spacing" textLength="35" x="16.25" y="350.3381">-state</text><!--MD5=[ed6624c6556d5e7b1bd23032162d20b7]
class Client--><rect codeLine="17" fill="#FEFECE" filter="url(#f158sy5p9tboy1)" height="188.3594" id="Client" style="stroke:#A80036;stroke-width:1.875;" width="133.75" x="370" y="8.75"/><ellipse cx="412.9375" cy="28.75" fill="#ADD1B2" rx="13.75" ry="13.75" style="stroke:#A80036;stroke-width:1.25;"/><path d="M415.4375,24.375 Q415.6914,23.75 415.9844,23.4375 Q416.2773,23.125 416.6094,23.125 Q417.1953,23.125 417.5664,23.4766 Q417.9375,23.8281 417.9375,24.6484 L417.9375,26.6016 Q417.9375,27.4219 417.5859,27.7734 Q417.2344,28.125 416.6875,28.125 Q416.1992,28.125 415.8867,27.9102 Q415.5742,27.6953 415.4375,27.1289 Q415.3789,26.7383 415.1641,26.5234 Q414.7734,26.1133 414.0703,25.8789 Q413.3672,25.625 412.6641,25.625 Q411.7852,25.625 411.043,25.9766 Q410.3203,26.3281 409.7539,27.1094 Q409.1875,27.8906 409.1875,28.9648 L409.1875,30.1172 Q409.1875,31.4063 410.2422,32.2656 Q411.2969,33.125 413.1719,33.125 Q414.2852,33.125 415.0664,32.8711 Q415.5156,32.7344 416.0234,32.2852 Q416.3555,32.0313 416.5313,31.9531 Q416.707,31.875 416.9219,31.875 Q417.332,31.875 417.625,32.207 Q417.9375,32.5195 417.9375,32.9688 Q417.9375,33.3984 417.5078,33.9063 Q416.8828,34.6484 415.8867,35.0586 Q414.5781,35.625 412.9766,35.625 Q411.1016,35.625 409.5977,34.8828 Q408.3867,34.2969 407.5273,33.0273 Q406.6875,31.7578 406.6875,30.2539 L406.6875,28.8867 Q406.6875,27.3242 407.4297,25.957 Q408.1914,24.5898 409.5,23.8672 Q410.8281,23.125 412.3125,23.125 Q413.2109,23.125 413.9922,23.4375 Q414.7734,23.75 415.4375,24.375 Z " fill="#000000"/><text fill="#000000" font-family="sans-serif" font-size="15" lengthAdjust="spacing" textLength="40" x="435.8125" y="34.8877">Client</text><line style="stroke:#A80036;stroke-width:1.875;" x1="371.25" x2="502.5" y1="48.75" y2="48.75"/><text fill="#000000" font-family="sans-serif" font-size="13.75" lengthAdjust="spacing" textLength="37.5" x="377.5" y="68.0237">-name</text><text fill="#000000" font-family="sans-serif" font-size="13.75" lengthAdjust="spacing" textLength="35" x="377.5" y="85.3186">-email</text><text fill="#000000" font-family="sans-serif" font-size="13.75" lengthAdjust="spacing" textLength="88.75" x="377.5" y="102.6135">-phoneNumber</text><text fill="#000000" font-family="sans-serif" font-size="13.75" lengthAdjust="spacing" textLength="27.5" x="377.5" y="119.9084">-sex</text><text fill="#000000" font-family="sans-serif" font-size="13.75" lengthAdjust="spacing" textLength="18.75" x="377.5" y="137.2034">-tin</text><text fill="#000000" font-family="sans-serif" font-size="13.75" lengthAdjust="spacing" textLength="58.75" x="377.5" y="154.4983">-birthDate</text><text fill="#000000" font-family="sans-serif" font-size="13.75" lengthAdjust="spacing" textLength="73.75" x="377.5" y="171.7932">-nhsNumber</text><text fill="#000000" font-family="sans-serif" font-size="13.75" lengthAdjust="spacing" textLength="118.75" x="377.5" y="189.0881">-citizenCardNumber</text><!--MD5=[b2d1f399f1909a0bb241ed0598ba126f]
class MedicalReport--><rect codeLine="29" fill="#FEFECE" filter="url(#f158sy5p9tboy1)" height="84.5898" id="MedicalReport" style="stroke:#A80036;stroke-width:1.875;" width="138.75" x="596.875" y="221.875"/><ellipse cx="615.625" cy="241.875" fill="#ADD1B2" rx="13.75" ry="13.75" style="stroke:#A80036;stroke-width:1.25;"/><path d="M618.125,237.5 Q618.3789,236.875 618.6719,236.5625 Q618.9648,236.25 619.2969,236.25 Q619.8828,236.25 620.2539,236.6016 Q620.625,236.9531 620.625,237.7734 L620.625,239.7266 Q620.625,240.5469 620.2734,240.8984 Q619.9219,241.25 619.375,241.25 Q618.8867,241.25 618.5742,241.0352 Q618.2617,240.8203 618.125,240.2539 Q618.0664,239.8633 617.8516,239.6484 Q617.4609,239.2383 616.7578,239.0039 Q616.0547,238.75 615.3516,238.75 Q614.4727,238.75 613.7305,239.1016 Q613.0078,239.4531 612.4414,240.2344 Q611.875,241.0156 611.875,242.0898 L611.875,243.2422 Q611.875,244.5313 612.9297,245.3906 Q613.9844,246.25 615.8594,246.25 Q616.9727,246.25 617.7539,245.9961 Q618.2031,245.8594 618.7109,245.4102 Q619.043,245.1563 619.2188,245.0781 Q619.3945,245 619.6094,245 Q620.0195,245 620.3125,245.332 Q620.625,245.6445 620.625,246.0938 Q620.625,246.5234 620.1953,247.0313 Q619.5703,247.7734 618.5742,248.1836 Q617.2656,248.75 615.6641,248.75 Q613.7891,248.75 612.2852,248.0078 Q611.0742,247.4219 610.2148,246.1523 Q609.375,244.8828 609.375,243.3789 L609.375,242.0117 Q609.375,240.4492 610.1172,239.082 Q610.8789,237.7148 612.1875,236.9922 Q613.5156,236.25 615,236.25 Q615.8984,236.25 616.6797,236.5625 Q617.4609,236.875 618.125,237.5 Z " fill="#000000"/><text fill="#000000" font-family="sans-serif" font-size="15" lengthAdjust="spacing" textLength="98.75" x="633.125" y="248.0127">MedicalReport</text><line style="stroke:#A80036;stroke-width:1.875;" x1="598.125" x2="734.375" y1="261.875" y2="261.875"/><text fill="#000000" font-family="sans-serif" font-size="13.75" lengthAdjust="spacing" textLength="62.5" x="604.375" y="281.1487">-diagnosis</text><text fill="#000000" font-family="sans-serif" font-size="13.75" lengthAdjust="spacing" textLength="83.75" x="604.375" y="298.4436">-dateAndTime</text><!--MD5=[0f07739f46effee96e095e9c408da841]
class TestParameter--><rect fill="#FEFECE" filter="url(#f158sy5p9tboy1)" height="50" id="TestParameter" style="stroke:#A80036;stroke-width:1.875;" width="142.5" x="595" y="350.625"/><ellipse cx="613.75" cy="370.625" fill="#ADD1B2" rx="13.75" ry="13.75" style="stroke:#A80036;stroke-width:1.25;"/><path d="M616.25,366.25 Q616.5039,365.625 616.7969,365.3125 Q617.0898,365 617.4219,365 Q618.0078,365 618.3789,365.3516 Q618.75,365.7031 618.75,366.5234 L618.75,368.4766 Q618.75,369.2969 618.3984,369.6484 Q618.0469,370 617.5,370 Q617.0117,370 616.6992,369.7852 Q616.3867,369.5703 616.25,369.0039 Q616.1914,368.6133 615.9766,368.3984 Q615.5859,367.9883 614.8828,367.7539 Q614.1797,367.5 613.4766,367.5 Q612.5977,367.5 611.8555,367.8516 Q611.1328,368.2031 610.5664,368.9844 Q610,369.7656 610,370.8398 L610,371.9922 Q610,373.2813 611.0547,374.1406 Q612.1094,375 613.9844,375 Q615.0977,375 615.8789,374.7461 Q616.3281,374.6094 616.8359,374.1602 Q617.168,373.9063 617.3438,373.8281 Q617.5195,373.75 617.7344,373.75 Q618.1445,373.75 618.4375,374.082 Q618.75,374.3945 618.75,374.8438 Q618.75,375.2734 618.3203,375.7813 Q617.6953,376.5234 616.6992,376.9336 Q615.3906,377.5 613.7891,377.5 Q611.9141,377.5 610.4102,376.7578 Q609.1992,376.1719 608.3398,374.9023 Q607.5,373.6328 607.5,372.1289 L607.5,370.7617 Q607.5,369.1992 608.2422,367.832 Q609.0039,366.4648 610.3125,365.7422 Q611.6406,365 613.125,365 Q614.0234,365 614.8047,365.3125 Q615.5859,365.625 616.25,366.25 Z " fill="#000000"/><text fill="#000000" font-family="sans-serif" font-size="15" lengthAdjust="spacing" textLength="102.5" x="631.25" y="376.7627">TestParameter</text><line style="stroke:#A80036;stroke-width:1.875;" x1="596.25" x2="736.25" y1="390.625" y2="390.625"/><!--MD5=[3994f36c72829dbcddd1cf7021dddf61]
link Test to Client--><path codeLine="34" d="M168.8625,227.5875 C229.625,199.2375 312.6625,160.4875 369.8625,133.8 " fill="none" id="Test-Client" style="stroke:#A80036;stroke-width:1.25;"/><polygon fill="#000000" points="218.1638,146.952,206.3645,148.4037,209.4713,155.0618,218.1638,146.952" style="stroke:#000000;stroke-width:1.25;"/><text fill="#000000" font-family="sans-serif" font-size="16.25" lengthAdjust="spacing" textLength="92.5" x="223.75" y="156.2439">associated a</text><text fill="#000000" font-family="sans-serif" font-size="16.25" lengthAdjust="spacing" textLength="25" x="178.992" y="241.5719">1..*</text><text fill="#000000" font-family="sans-serif" font-size="16.25" lengthAdjust="spacing" textLength="8.75" x="351.0736" y="156.4472">1</text><!--MD5=[c3238c64a9072feb51e313e35a850213]
link Test to MedicalReport--><path codeLine="35" d="M169.35,264.375 C282.875,264.375 489.7375,264.375 596.775,264.375 " fill="none" id="Test-MedicalReport" style="stroke:#A80036;stroke-width:1.25;"/><polygon fill="#000000" points="413.125,253.3447,401.8186,249.6711,401.8186,257.0184,413.125,253.3447" style="stroke:#000000;stroke-width:1.25;"/><text fill="#000000" font-family="sans-serif" font-size="16.25" lengthAdjust="spacing" textLength="53.75" x="418.125" y="259.9939">request</text><text fill="#000000" font-family="sans-serif" font-size="16.25" lengthAdjust="spacing" textLength="8.75" x="178.6441" y="282.383">1</text><text fill="#000000" font-family="sans-serif" font-size="16.25" lengthAdjust="spacing" textLength="8.75" x="578.1014" y="282.6447">1</text><!--MD5=[f24c888dadeb846430474fe80a58922b]
link Test to TestParameter--><path codeLine="36" d="M169.35,279.725 C282.1,301.5375 486.9375,341.175 594.5875,362 " fill="none" id="Test-TestParameter" style="stroke:#A80036;stroke-width:1.25;"/><polygon fill="#000000" points="367.3862,307.032,356.9835,301.2775,355.5879,308.491,367.3862,307.032" style="stroke:#000000;stroke-width:1.25;"/><text fill="#000000" font-family="sans-serif" font-size="16.25" lengthAdjust="spacing" textLength="145" x="372.5" y="312.4939">requests analysis of</text><text fill="#000000" font-family="sans-serif" font-size="16.25" lengthAdjust="spacing" textLength="8.75" x="178.6441" y="299.4119">1</text><text fill="#000000" font-family="sans-serif" font-size="16.25" lengthAdjust="spacing" textLength="25" x="559.8562" y="378.4752">1..*</text><!--MD5=[e4016493e57fcde3f4d4e73f3287229a]
@startuml
hide methods
left to right direction
skinparam classAttributeIconSize 0


class Test {
-internalCode
-nhsCode
-description
-dateOfSampleCollected
-timeOfSampleCollected
-dateOfSampleAnalysis
-timeOfSampleAnalysis
-state
}

class Client {
   - name
   - email
   - phoneNumber
   - sex
   - tin
   - birthDate
   - nhsNumber
   - citizenCardNumber
}


class MedicalReport{
-diagnosis
-dateAndTime
}

Test "1..*" - - "1" Client : associated a >
Test "1" - - -"1" MedicalReport : request >
Test "1" - - -"1..*" TestParameter : requests analysis of >



@enduml

PlantUML version 1.2021.4(Sun Apr 04 09:49:39 BST 2021)
(GPL source distribution)
Java Runtime: OpenJDK Runtime Environment
JVM: OpenJDK 64-Bit Server VM
Default Encoding: Cp1252
Language: pt
Country: PT
--></g></svg>