<?xml version="1.0" encoding="UTF-8" standalone="no"?><svg xmlns="http://www.w3.org/2000/svg" xmlns:xlink="http://www.w3.org/1999/xlink" contentScriptType="application/ecmascript" contentStyleType="text/css" height="861px" preserveAspectRatio="none" style="width:2665px;height:861px;" version="1.1" viewBox="0 0 2665 861" width="2665.5px" zoomAndPan="magnify"><defs><filter height="300%" id="febn30suqo3qk" width="300%" x="-1" y="-1"><feGaussianBlur result="blurOut" stdDeviation="3.0"/><feColorMatrix in="blurOut" result="blurOut2" type="matrix" values="0 0 0 0 0 0 0 0 0 0 0 0 0 0 0 0 0 0 .4 0"/><feOffset dx="6.0" dy="6.0" in="blurOut2" result="blurOut3"/><feBlend in="SourceGraphic" in2="blurOut3" mode="normal"/></filter></defs><g><!--MD5=[64e2e010ba86d7988e5cd73bd64f61f9]
cluster ui--><polygon fill="#FFFFFF" filter="url(#febn30suqo3qk)" points="507,40.5,535.5,40.5,546,75.9141,726,75.9141,726,190.5,507,190.5,507,40.5" style="stroke:#000000;stroke-width:2.25;"/><line style="stroke:#000000;stroke-width:2.25;" x1="507" x2="546" y1="75.9141" y2="75.9141"/><text fill="#000000" font-family="sans-serif" font-size="21" font-weight="bold" lengthAdjust="spacing" textLength="19.5" x="513" y="65.2998">ui</text><!--MD5=[1f2cfc53d9d308f53762fd0fcbaa4873]
cluster Controller--><polygon fill="#FFFFFF" filter="url(#febn30suqo3qk)" points="762,9,877.5,9,888,44.4141,1083,44.4141,1083,222,762,222,762,9" style="stroke:#000000;stroke-width:2.25;"/><line style="stroke:#000000;stroke-width:2.25;" x1="762" x2="888" y1="44.4141" y2="44.4141"/><text fill="#000000" font-family="sans-serif" font-size="21" font-weight="bold" lengthAdjust="spacing" textLength="106.5" x="768" y="33.7998">Controller</text><!--MD5=[5d4cd377749310b66bf14896f5cd8d9b]
cluster model--><polygon fill="#FFFFFF" filter="url(#febn30suqo3qk)" points="1119,9,1192.5,9,1203,44.4141,1756.5,44.4141,1756.5,850.5,1119,850.5,1119,9" style="stroke:#000000;stroke-width:2.25;"/><line style="stroke:#000000;stroke-width:2.25;" x1="1119" x2="1203" y1="44.4141" y2="44.4141"/><text fill="#000000" font-family="sans-serif" font-size="21" font-weight="bold" lengthAdjust="spacing" textLength="64.5" x="1125" y="33.7998">model</text><!--MD5=[c23849cc5f4a85746a20de4317c530fc]
cluster store--><polygon fill="#FFFFFF" filter="url(#febn30suqo3qk)" points="1792.5,9,1857,9,1867.5,44.4141,2149.5,44.4141,2149.5,222,1792.5,222,1792.5,9" style="stroke:#000000;stroke-width:2.25;"/><line style="stroke:#000000;stroke-width:2.25;" x1="1792.5" x2="1867.5" y1="44.4141" y2="44.4141"/><text fill="#000000" font-family="sans-serif" font-size="21" font-weight="bold" lengthAdjust="spacing" textLength="55.5" x="1798.5" y="33.7998">store</text><!--MD5=[e484dff12bc7e3f9ae9e3c87a060152b]
cluster mappers--><polygon fill="#FFFFFF" filter="url(#febn30suqo3qk)" points="24,30,124.5,30,135,65.4141,471,65.4141,471,435,24,435,24,30" style="stroke:#000000;stroke-width:2.25;"/><line style="stroke:#000000;stroke-width:2.25;" x1="24" x2="135" y1="65.4141" y2="65.4141"/><text fill="#000000" font-family="sans-serif" font-size="21" font-weight="bold" lengthAdjust="spacing" textLength="91.5" x="30" y="54.7998">mappers</text><!--MD5=[e6eced616a98d47334dd1aaaa829ffd5]
cluster dto--><polygon fill="#FFFFFF" filter="url(#febn30suqo3qk)" points="2185.5,19.5,2229,19.5,2239.5,54.9141,2640,54.9141,2640,211.5,2185.5,211.5,2185.5,19.5" style="stroke:#000000;stroke-width:2.25;"/><line style="stroke:#000000;stroke-width:2.25;" x1="2185.5" x2="2239.5" y1="54.9141" y2="54.9141"/><text fill="#000000" font-family="sans-serif" font-size="21" font-weight="bold" lengthAdjust="spacing" textLength="34.5" x="2191.5" y="44.2998">dto</text><!--MD5=[49bee9bf9dd204cc1ce7570ba2c9409a]
class ViewResultsUI--><rect codeLine="4" fill="#FEFECE" filter="url(#febn30suqo3qk)" height="72" id="ViewResultsUI" style="stroke:#A80036;stroke-width:2.25;" width="169.5" x="531.75" y="94.5"/><ellipse cx="554.25" cy="118.5" fill="#ADD1B2" rx="16.5" ry="16.5" style="stroke:#A80036;stroke-width:1.5;"/><path d="M557.25,113.25 Q557.5547,112.5 557.9063,112.125 Q558.2578,111.75 558.6563,111.75 Q559.3594,111.75 559.8047,112.1719 Q560.25,112.5938 560.25,113.5781 L560.25,115.9219 Q560.25,116.9063 559.8281,117.3281 Q559.4063,117.75 558.75,117.75 Q558.1641,117.75 557.7891,117.4922 Q557.4141,117.2344 557.25,116.5547 Q557.1797,116.0859 556.9219,115.8281 Q556.4531,115.3359 555.6094,115.0547 Q554.7656,114.75 553.9219,114.75 Q552.8672,114.75 551.9766,115.1719 Q551.1094,115.5938 550.4297,116.5313 Q549.75,117.4688 549.75,118.7578 L549.75,120.1406 Q549.75,121.6875 551.0156,122.7188 Q552.2813,123.75 554.5313,123.75 Q555.8672,123.75 556.8047,123.4453 Q557.3438,123.2813 557.9531,122.7422 Q558.3516,122.4375 558.5625,122.3438 Q558.7734,122.25 559.0313,122.25 Q559.5234,122.25 559.875,122.6484 Q560.25,123.0234 560.25,123.5625 Q560.25,124.0781 559.7344,124.6875 Q558.9844,125.5781 557.7891,126.0703 Q556.2188,126.75 554.2969,126.75 Q552.0469,126.75 550.2422,125.8594 Q548.7891,125.1563 547.7578,123.6328 Q546.75,122.1094 546.75,120.3047 L546.75,118.6641 Q546.75,116.7891 547.6406,115.1484 Q548.5547,113.5078 550.125,112.6406 Q551.7188,111.75 553.5,111.75 Q554.5781,111.75 555.5156,112.125 Q556.4531,112.5 557.25,113.25 Z " fill="#000000"/><text fill="#000000" font-family="sans-serif" font-size="18" lengthAdjust="spacing" textLength="121.5" x="575.25" y="125.8652">ViewResultsUI</text><line style="stroke:#A80036;stroke-width:2.25;" x1="533.25" x2="699.75" y1="142.5" y2="142.5"/><line style="stroke:#A80036;stroke-width:2.25;" x1="533.25" x2="699.75" y1="154.5" y2="154.5"/><!--MD5=[db458dcce179ed92c8ae610b38e47717]
class ViewResultsController--><rect codeLine="8" fill="#FEFECE" filter="url(#febn30suqo3qk)" height="134.2617" id="ViewResultsController" style="stroke:#A80036;stroke-width:2.25;" width="271.5" x="786.75" y="63"/><ellipse cx="826.8" cy="87" fill="#ADD1B2" rx="16.5" ry="16.5" style="stroke:#A80036;stroke-width:1.5;"/><path d="M829.8,81.75 Q830.1047,81 830.4563,80.625 Q830.8078,80.25 831.2063,80.25 Q831.9094,80.25 832.3547,80.6719 Q832.8,81.0938 832.8,82.0781 L832.8,84.4219 Q832.8,85.4063 832.3781,85.8281 Q831.9563,86.25 831.3,86.25 Q830.7141,86.25 830.3391,85.9922 Q829.9641,85.7344 829.8,85.0547 Q829.7297,84.5859 829.4719,84.3281 Q829.0031,83.8359 828.1594,83.5547 Q827.3156,83.25 826.4719,83.25 Q825.4172,83.25 824.5266,83.6719 Q823.6594,84.0938 822.9797,85.0313 Q822.3,85.9688 822.3,87.2578 L822.3,88.6406 Q822.3,90.1875 823.5656,91.2188 Q824.8313,92.25 827.0813,92.25 Q828.4172,92.25 829.3547,91.9453 Q829.8938,91.7813 830.5031,91.2422 Q830.9016,90.9375 831.1125,90.8438 Q831.3234,90.75 831.5813,90.75 Q832.0734,90.75 832.425,91.1484 Q832.8,91.5234 832.8,92.0625 Q832.8,92.5781 832.2844,93.1875 Q831.5344,94.0781 830.3391,94.5703 Q828.7688,95.25 826.8469,95.25 Q824.5969,95.25 822.7922,94.3594 Q821.3391,93.6563 820.3078,92.1328 Q819.3,90.6094 819.3,88.8047 L819.3,87.1641 Q819.3,85.2891 820.1906,83.6484 Q821.1047,82.0078 822.675,81.1406 Q824.2688,80.25 826.05,80.25 Q827.1281,80.25 828.0656,80.625 Q829.0031,81 829.8,81.75 Z " fill="#000000"/><text fill="#000000" font-family="sans-serif" font-size="18" lengthAdjust="spacing" textLength="184.5" x="851.7" y="94.3652">ViewResultsController</text><line style="stroke:#A80036;stroke-width:2.25;" x1="788.25" x2="1056.75" y1="111" y2="111"/><line style="stroke:#A80036;stroke-width:2.25;" x1="788.25" x2="1056.75" y1="123" y2="123"/><ellipse cx="803.25" cy="139.5" fill="#84BE84" rx="4.5" ry="4.5" style="stroke:#038048;stroke-width:1.5;"/><text fill="#000000" font-family="sans-serif" font-size="16.5" lengthAdjust="spacing" textLength="91.5" x="816.75" y="146.1284">getTestList()</text><ellipse cx="803.25" cy="160.2539" fill="#84BE84" rx="4.5" ry="4.5" style="stroke:#038048;stroke-width:1.5;"/><text fill="#000000" font-family="sans-serif" font-size="16.5" lengthAdjust="spacing" textLength="127.5" x="816.75" y="166.8823">getUserSession()</text><ellipse cx="803.25" cy="181.0078" fill="#84BE84" rx="4.5" ry="4.5" style="stroke:#038048;stroke-width:1.5;"/><text fill="#000000" font-family="sans-serif" font-size="16.5" lengthAdjust="spacing" textLength="232.5" x="816.75" y="187.6362">showTestResults(selectedTest)</text><!--MD5=[02e4b9b7573f1156f41e60aa5b4e25a4]
class Company--><rect codeLine="16" fill="#FEFECE" filter="url(#febn30suqo3qk)" height="92.7539" id="Company" style="stroke:#A80036;stroke-width:2.25;" width="144" x="1588.5" y="84"/><ellipse cx="1618.425" cy="108" fill="#ADD1B2" rx="16.5" ry="16.5" style="stroke:#A80036;stroke-width:1.5;"/><path d="M1621.425,102.75 Q1621.7297,102 1622.0813,101.625 Q1622.4328,101.25 1622.8313,101.25 Q1623.5344,101.25 1623.9797,101.6719 Q1624.425,102.0938 1624.425,103.0781 L1624.425,105.4219 Q1624.425,106.4063 1624.0031,106.8281 Q1623.5813,107.25 1622.925,107.25 Q1622.3391,107.25 1621.9641,106.9922 Q1621.5891,106.7344 1621.425,106.0547 Q1621.3547,105.5859 1621.0969,105.3281 Q1620.6281,104.8359 1619.7844,104.5547 Q1618.9406,104.25 1618.0969,104.25 Q1617.0422,104.25 1616.1516,104.6719 Q1615.2844,105.0938 1614.6047,106.0313 Q1613.925,106.9688 1613.925,108.2578 L1613.925,109.6406 Q1613.925,111.1875 1615.1906,112.2188 Q1616.4563,113.25 1618.7063,113.25 Q1620.0422,113.25 1620.9797,112.9453 Q1621.5188,112.7813 1622.1281,112.2422 Q1622.5266,111.9375 1622.7375,111.8438 Q1622.9484,111.75 1623.2063,111.75 Q1623.6984,111.75 1624.05,112.1484 Q1624.425,112.5234 1624.425,113.0625 Q1624.425,113.5781 1623.9094,114.1875 Q1623.1594,115.0781 1621.9641,115.5703 Q1620.3938,116.25 1618.4719,116.25 Q1616.2219,116.25 1614.4172,115.3594 Q1612.9641,114.6563 1611.9328,113.1328 Q1610.925,111.6094 1610.925,109.8047 L1610.925,108.1641 Q1610.925,106.2891 1611.8156,104.6484 Q1612.7297,103.0078 1614.3,102.1406 Q1615.8938,101.25 1617.675,101.25 Q1618.7531,101.25 1619.6906,101.625 Q1620.6281,102 1621.425,102.75 Z " fill="#000000"/><text fill="#000000" font-family="sans-serif" font-size="18" lengthAdjust="spacing" textLength="79.5" x="1641.075" y="115.3652">Company</text><line style="stroke:#A80036;stroke-width:2.25;" x1="1590" x2="1731" y1="132" y2="132"/><line style="stroke:#A80036;stroke-width:2.25;" x1="1590" x2="1731" y1="144" y2="144"/><ellipse cx="1605" cy="160.5" fill="#84BE84" rx="4.5" ry="4.5" style="stroke:#038048;stroke-width:1.5;"/><text fill="#000000" font-family="sans-serif" font-size="16.5" lengthAdjust="spacing" textLength="105" x="1618.5" y="167.1284">getTestStore()</text><!--MD5=[df38be88ccee13e832d6fafd6288a4ca]
class Test--><rect codeLine="19" fill="#FEFECE" filter="url(#febn30suqo3qk)" height="134.2617" id="Test" style="stroke:#A80036;stroke-width:2.25;" width="204" x="1332" y="63"/><ellipse cx="1409.625" cy="87" fill="#ADD1B2" rx="16.5" ry="16.5" style="stroke:#A80036;stroke-width:1.5;"/><path d="M1412.625,81.75 Q1412.9297,81 1413.2813,80.625 Q1413.6328,80.25 1414.0313,80.25 Q1414.7344,80.25 1415.1797,80.6719 Q1415.625,81.0938 1415.625,82.0781 L1415.625,84.4219 Q1415.625,85.4063 1415.2031,85.8281 Q1414.7813,86.25 1414.125,86.25 Q1413.5391,86.25 1413.1641,85.9922 Q1412.7891,85.7344 1412.625,85.0547 Q1412.5547,84.5859 1412.2969,84.3281 Q1411.8281,83.8359 1410.9844,83.5547 Q1410.1406,83.25 1409.2969,83.25 Q1408.2422,83.25 1407.3516,83.6719 Q1406.4844,84.0938 1405.8047,85.0313 Q1405.125,85.9688 1405.125,87.2578 L1405.125,88.6406 Q1405.125,90.1875 1406.3906,91.2188 Q1407.6563,92.25 1409.9063,92.25 Q1411.2422,92.25 1412.1797,91.9453 Q1412.7188,91.7813 1413.3281,91.2422 Q1413.7266,90.9375 1413.9375,90.8438 Q1414.1484,90.75 1414.4063,90.75 Q1414.8984,90.75 1415.25,91.1484 Q1415.625,91.5234 1415.625,92.0625 Q1415.625,92.5781 1415.1094,93.1875 Q1414.3594,94.0781 1413.1641,94.5703 Q1411.5938,95.25 1409.6719,95.25 Q1407.4219,95.25 1405.6172,94.3594 Q1404.1641,93.6563 1403.1328,92.1328 Q1402.125,90.6094 1402.125,88.8047 L1402.125,87.1641 Q1402.125,85.2891 1403.0156,83.6484 Q1403.9297,82.0078 1405.5,81.1406 Q1407.0938,80.25 1408.875,80.25 Q1409.9531,80.25 1410.8906,80.625 Q1411.8281,81 1412.625,81.75 Z " fill="#000000"/><text fill="#000000" font-family="sans-serif" font-size="18" lengthAdjust="spacing" textLength="36" x="1440.375" y="94.3652">Test</text><line style="stroke:#A80036;stroke-width:2.25;" x1="1333.5" x2="1534.5" y1="111" y2="111"/><line style="stroke:#A80036;stroke-width:2.25;" x1="1333.5" x2="1534.5" y1="123" y2="123"/><ellipse cx="1348.5" cy="139.5" fill="#84BE84" rx="4.5" ry="4.5" style="stroke:#038048;stroke-width:1.5;"/><text fill="#000000" font-family="sans-serif" font-size="16.5" lengthAdjust="spacing" textLength="124.5" x="1362" y="146.1284">getInternalCode()</text><ellipse cx="1348.5" cy="160.2539" fill="#84BE84" rx="4.5" ry="4.5" style="stroke:#038048;stroke-width:1.5;"/><text fill="#000000" font-family="sans-serif" font-size="16.5" lengthAdjust="spacing" textLength="115.5" x="1362" y="166.8823">getDescription()</text><ellipse cx="1348.5" cy="181.0078" fill="#84BE84" rx="4.5" ry="4.5" style="stroke:#038048;stroke-width:1.5;"/><text fill="#000000" font-family="sans-serif" font-size="16.5" lengthAdjust="spacing" textLength="165" x="1362" y="187.6362">getTestParameterList()</text><!--MD5=[0f07739f46effee96e095e9c408da841]
class TestParameter--><rect codeLine="24" fill="#FEFECE" filter="url(#febn30suqo3qk)" height="321.0469" id="TestParameter" style="stroke:#A80036;stroke-width:2.25;" width="244.5" x="1143.75" y="505.5"/><ellipse cx="1199.325" cy="529.5" fill="#ADD1B2" rx="16.5" ry="16.5" style="stroke:#A80036;stroke-width:1.5;"/><path d="M1202.325,524.25 Q1202.6297,523.5 1202.9812,523.125 Q1203.3328,522.75 1203.7312,522.75 Q1204.4344,522.75 1204.8797,523.1719 Q1205.325,523.5938 1205.325,524.5781 L1205.325,526.9219 Q1205.325,527.9063 1204.9031,528.3281 Q1204.4812,528.75 1203.825,528.75 Q1203.2391,528.75 1202.8641,528.4922 Q1202.4891,528.2344 1202.325,527.5547 Q1202.2547,527.0859 1201.9969,526.8281 Q1201.5281,526.3359 1200.6844,526.0547 Q1199.8406,525.75 1198.9969,525.75 Q1197.9422,525.75 1197.0516,526.1719 Q1196.1844,526.5938 1195.5047,527.5313 Q1194.825,528.4688 1194.825,529.7578 L1194.825,531.1406 Q1194.825,532.6875 1196.0906,533.7188 Q1197.3562,534.75 1199.6062,534.75 Q1200.9422,534.75 1201.8797,534.4453 Q1202.4187,534.2813 1203.0281,533.7422 Q1203.4266,533.4375 1203.6375,533.3438 Q1203.8484,533.25 1204.1062,533.25 Q1204.5984,533.25 1204.95,533.6484 Q1205.325,534.0234 1205.325,534.5625 Q1205.325,535.0781 1204.8094,535.6875 Q1204.0594,536.5781 1202.8641,537.0703 Q1201.2937,537.75 1199.3719,537.75 Q1197.1219,537.75 1195.3172,536.8594 Q1193.8641,536.1563 1192.8328,534.6328 Q1191.825,533.1094 1191.825,531.3047 L1191.825,529.6641 Q1191.825,527.7891 1192.7156,526.1484 Q1193.6297,524.5078 1195.2,523.6406 Q1196.7937,522.75 1198.575,522.75 Q1199.6531,522.75 1200.5906,523.125 Q1201.5281,523.5 1202.325,524.25 Z " fill="#000000"/><text fill="#000000" font-family="sans-serif" font-size="18" lengthAdjust="spacing" textLength="123" x="1227.675" y="536.8652">TestParameter</text><line style="stroke:#A80036;stroke-width:2.25;" x1="1145.25" x2="1386.75" y1="553.5" y2="553.5"/><rect fill="none" height="9" style="stroke:#C82930;stroke-width:1.5;" width="9" x="1155.75" y="565.5"/><text fill="#000000" font-family="sans-serif" font-size="16.5" lengthAdjust="spacing" textLength="114" x="1173.75" y="576.6284">parameterName</text><rect fill="none" height="9" style="stroke:#C82930;stroke-width:1.5;" width="9" x="1155.75" y="586.2539"/><text fill="#000000" font-family="sans-serif" font-size="16.5" lengthAdjust="spacing" textLength="145.5" x="1173.75" y="597.3823">testParameterResult</text><rect fill="none" height="9" style="stroke:#C82930;stroke-width:1.5;" width="9" x="1155.75" y="607.0078"/><text fill="#000000" font-family="sans-serif" font-size="16.5" lengthAdjust="spacing" textLength="144" x="1173.75" y="618.1362">testParameterMetric</text><rect fill="none" height="9" style="stroke:#C82930;stroke-width:1.5;" width="9" x="1155.75" y="627.7617"/><text fill="#000000" font-family="sans-serif" font-size="16.5" lengthAdjust="spacing" textLength="192" x="1173.75" y="638.8901">testParameterMinRefValue</text><rect fill="none" height="9" style="stroke:#C82930;stroke-width:1.5;" width="9" x="1155.75" y="648.5156"/><text fill="#000000" font-family="sans-serif" font-size="16.5" lengthAdjust="spacing" textLength="198" x="1173.75" y="659.644">testParameterMaxRefValue</text><rect fill="none" height="9" style="stroke:#C82930;stroke-width:1.5;" width="9" x="1155.75" y="669.2695"/><text fill="#000000" font-family="sans-serif" font-size="16.5" lengthAdjust="spacing" textLength="106.5" x="1173.75" y="680.3979">refValueMetric</text><line style="stroke:#A80036;stroke-width:1.5;" x1="1145.25" x2="1386.75" y1="690.0234" y2="690.0234"/><ellipse cx="1160.25" cy="706.5234" fill="#84BE84" rx="4.5" ry="4.5" style="stroke:#038048;stroke-width:1.5;"/><text fill="#000000" font-family="sans-serif" font-size="16.5" lengthAdjust="spacing" textLength="148.5" x="1173.75" y="713.1519">getParameterName()</text><ellipse cx="1160.25" cy="727.2773" fill="#84BE84" rx="4.5" ry="4.5" style="stroke:#038048;stroke-width:1.5;"/><text fill="#000000" font-family="sans-serif" font-size="16.5" lengthAdjust="spacing" textLength="153" x="1173.75" y="733.9058">getParameterResult()</text><ellipse cx="1160.25" cy="748.0313" fill="#84BE84" rx="4.5" ry="4.5" style="stroke:#038048;stroke-width:1.5;"/><text fill="#000000" font-family="sans-serif" font-size="16.5" lengthAdjust="spacing" textLength="151.5" x="1173.75" y="754.6597">getParameterMetric()</text><ellipse cx="1160.25" cy="768.7852" fill="#84BE84" rx="4.5" ry="4.5" style="stroke:#038048;stroke-width:1.5;"/><text fill="#000000" font-family="sans-serif" font-size="16.5" lengthAdjust="spacing" textLength="199.5" x="1173.75" y="775.4136">getParameterMinRefValue()</text><ellipse cx="1160.25" cy="789.5391" fill="#84BE84" rx="4.5" ry="4.5" style="stroke:#038048;stroke-width:1.5;"/><text fill="#000000" font-family="sans-serif" font-size="16.5" lengthAdjust="spacing" textLength="205.5" x="1173.75" y="796.1675">getParameterMaxRefValue()</text><ellipse cx="1160.25" cy="810.293" fill="#84BE84" rx="4.5" ry="4.5" style="stroke:#038048;stroke-width:1.5;"/><text fill="#000000" font-family="sans-serif" font-size="16.5" lengthAdjust="spacing" textLength="145.5" x="1173.75" y="816.9214">getRefValueMetric()</text><!--MD5=[b2d1f399f1909a0bb241ed0598ba126f]
class MedicalReport--><rect codeLine="39" fill="#FEFECE" filter="url(#febn30suqo3qk)" height="72" id="MedicalReport" style="stroke:#A80036;stroke-width:2.25;" width="166.5" x="1440.75" y="630"/><ellipse cx="1463.25" cy="654" fill="#ADD1B2" rx="16.5" ry="16.5" style="stroke:#A80036;stroke-width:1.5;"/><path d="M1466.25,648.75 Q1466.5547,648 1466.9063,647.625 Q1467.2578,647.25 1467.6563,647.25 Q1468.3594,647.25 1468.8047,647.6719 Q1469.25,648.0938 1469.25,649.0781 L1469.25,651.4219 Q1469.25,652.4063 1468.8281,652.8281 Q1468.4063,653.25 1467.75,653.25 Q1467.1641,653.25 1466.7891,652.9922 Q1466.4141,652.7344 1466.25,652.0547 Q1466.1797,651.5859 1465.9219,651.3281 Q1465.4531,650.8359 1464.6094,650.5547 Q1463.7656,650.25 1462.9219,650.25 Q1461.8672,650.25 1460.9766,650.6719 Q1460.1094,651.0938 1459.4297,652.0313 Q1458.75,652.9688 1458.75,654.2578 L1458.75,655.6406 Q1458.75,657.1875 1460.0156,658.2188 Q1461.2813,659.25 1463.5313,659.25 Q1464.8672,659.25 1465.8047,658.9453 Q1466.3438,658.7813 1466.9531,658.2422 Q1467.3516,657.9375 1467.5625,657.8438 Q1467.7734,657.75 1468.0313,657.75 Q1468.5234,657.75 1468.875,658.1484 Q1469.25,658.5234 1469.25,659.0625 Q1469.25,659.5781 1468.7344,660.1875 Q1467.9844,661.0781 1466.7891,661.5703 Q1465.2188,662.25 1463.2969,662.25 Q1461.0469,662.25 1459.2422,661.3594 Q1457.7891,660.6563 1456.7578,659.1328 Q1455.75,657.6094 1455.75,655.8047 L1455.75,654.1641 Q1455.75,652.2891 1456.6406,650.6484 Q1457.5547,649.0078 1459.125,648.1406 Q1460.7188,647.25 1462.5,647.25 Q1463.5781,647.25 1464.5156,647.625 Q1465.4531,648 1466.25,648.75 Z " fill="#000000"/><text fill="#000000" font-family="sans-serif" font-size="18" lengthAdjust="spacing" textLength="118.5" x="1484.25" y="661.3652">MedicalReport</text><line style="stroke:#A80036;stroke-width:2.25;" x1="1442.25" x2="1605.75" y1="678" y2="678"/><line style="stroke:#A80036;stroke-width:2.25;" x1="1442.25" x2="1605.75" y1="690" y2="690"/><!--MD5=[ed6624c6556d5e7b1bd23032162d20b7]
class Client--><rect codeLine="40" fill="#FEFECE" filter="url(#febn30suqo3qk)" height="72" id="Client" style="stroke:#A80036;stroke-width:2.25;" width="96" x="1636.5" y="328.5"/><ellipse cx="1659" cy="352.5" fill="#ADD1B2" rx="16.5" ry="16.5" style="stroke:#A80036;stroke-width:1.5;"/><path d="M1662,347.25 Q1662.3047,346.5 1662.6563,346.125 Q1663.0078,345.75 1663.4063,345.75 Q1664.1094,345.75 1664.5547,346.1719 Q1665,346.5938 1665,347.5781 L1665,349.9219 Q1665,350.9063 1664.5781,351.3281 Q1664.1563,351.75 1663.5,351.75 Q1662.9141,351.75 1662.5391,351.4922 Q1662.1641,351.2344 1662,350.5547 Q1661.9297,350.0859 1661.6719,349.8281 Q1661.2031,349.3359 1660.3594,349.0547 Q1659.5156,348.75 1658.6719,348.75 Q1657.6172,348.75 1656.7266,349.1719 Q1655.8594,349.5938 1655.1797,350.5313 Q1654.5,351.4688 1654.5,352.7578 L1654.5,354.1406 Q1654.5,355.6875 1655.7656,356.7188 Q1657.0313,357.75 1659.2813,357.75 Q1660.6172,357.75 1661.5547,357.4453 Q1662.0938,357.2813 1662.7031,356.7422 Q1663.1016,356.4375 1663.3125,356.3438 Q1663.5234,356.25 1663.7813,356.25 Q1664.2734,356.25 1664.625,356.6484 Q1665,357.0234 1665,357.5625 Q1665,358.0781 1664.4844,358.6875 Q1663.7344,359.5781 1662.5391,360.0703 Q1660.9688,360.75 1659.0469,360.75 Q1656.7969,360.75 1654.9922,359.8594 Q1653.5391,359.1563 1652.5078,357.6328 Q1651.5,356.1094 1651.5,354.3047 L1651.5,352.6641 Q1651.5,350.7891 1652.3906,349.1484 Q1653.3047,347.5078 1654.875,346.6406 Q1656.4688,345.75 1658.25,345.75 Q1659.3281,345.75 1660.2656,346.125 Q1661.2031,346.5 1662,347.25 Z " fill="#000000"/><text fill="#000000" font-family="sans-serif" font-size="18" lengthAdjust="spacing" textLength="48" x="1680" y="359.8652">Client</text><line style="stroke:#A80036;stroke-width:2.25;" x1="1638" x2="1731" y1="376.5" y2="376.5"/><line style="stroke:#A80036;stroke-width:2.25;" x1="1638" x2="1731" y1="388.5" y2="388.5"/><!--MD5=[0f6f7964b844a64b0496af0dda7914bd]
class TestStore--><rect codeLine="46" fill="#FEFECE" filter="url(#febn30suqo3qk)" height="134.2617" id="TestStore" style="stroke:#A80036;stroke-width:2.25;" width="307.5" x="1817.25" y="63"/><ellipse cx="1924.875" cy="87" fill="#ADD1B2" rx="16.5" ry="16.5" style="stroke:#A80036;stroke-width:1.5;"/><path d="M1927.875,81.75 Q1928.1797,81 1928.5313,80.625 Q1928.8828,80.25 1929.2813,80.25 Q1929.9844,80.25 1930.4297,80.6719 Q1930.875,81.0938 1930.875,82.0781 L1930.875,84.4219 Q1930.875,85.4063 1930.4531,85.8281 Q1930.0313,86.25 1929.375,86.25 Q1928.7891,86.25 1928.4141,85.9922 Q1928.0391,85.7344 1927.875,85.0547 Q1927.8047,84.5859 1927.5469,84.3281 Q1927.0781,83.8359 1926.2344,83.5547 Q1925.3906,83.25 1924.5469,83.25 Q1923.4922,83.25 1922.6016,83.6719 Q1921.7344,84.0938 1921.0547,85.0313 Q1920.375,85.9688 1920.375,87.2578 L1920.375,88.6406 Q1920.375,90.1875 1921.6406,91.2188 Q1922.9063,92.25 1925.1563,92.25 Q1926.4922,92.25 1927.4297,91.9453 Q1927.9688,91.7813 1928.5781,91.2422 Q1928.9766,90.9375 1929.1875,90.8438 Q1929.3984,90.75 1929.6563,90.75 Q1930.1484,90.75 1930.5,91.1484 Q1930.875,91.5234 1930.875,92.0625 Q1930.875,92.5781 1930.3594,93.1875 Q1929.6094,94.0781 1928.4141,94.5703 Q1926.8438,95.25 1924.9219,95.25 Q1922.6719,95.25 1920.8672,94.3594 Q1919.4141,93.6563 1918.3828,92.1328 Q1917.375,90.6094 1917.375,88.8047 L1917.375,87.1641 Q1917.375,85.2891 1918.2656,83.6484 Q1919.1797,82.0078 1920.75,81.1406 Q1922.3438,80.25 1924.125,80.25 Q1925.2031,80.25 1926.1406,80.625 Q1927.0781,81 1927.875,81.75 Z " fill="#000000"/><text fill="#000000" font-family="sans-serif" font-size="18" lengthAdjust="spacing" textLength="79.5" x="1955.625" y="94.3652">TestStore</text><line style="stroke:#A80036;stroke-width:2.25;" x1="1818.75" x2="2123.25" y1="111" y2="111"/><line style="stroke:#A80036;stroke-width:2.25;" x1="1818.75" x2="2123.25" y1="123" y2="123"/><ellipse cx="1833.75" cy="139.5" fill="#84BE84" rx="4.5" ry="4.5" style="stroke:#038048;stroke-width:1.5;"/><text fill="#000000" font-family="sans-serif" font-size="16.5" lengthAdjust="spacing" textLength="139.5" x="1847.25" y="146.1284">getClientTestsList()</text><ellipse cx="1833.75" cy="160.2539" fill="#84BE84" rx="4.5" ry="4.5" style="stroke:#038048;stroke-width:1.5;"/><text fill="#000000" font-family="sans-serif" font-size="16.5" lengthAdjust="spacing" textLength="268.5" x="1847.25" y="166.8823">orderClientTestsByRegistrationDate()</text><ellipse cx="1833.75" cy="181.0078" fill="#84BE84" rx="4.5" ry="4.5" style="stroke:#038048;stroke-width:1.5;"/><text fill="#000000" font-family="sans-serif" font-size="16.5" lengthAdjust="spacing" textLength="211.5" x="1847.25" y="187.6362">getTestByInternalCode(code)</text><!--MD5=[144698ec4d0188f6929a3b58a3eeb1f6]
class TestMapper--><rect codeLine="54" fill="#FEFECE" filter="url(#febn30suqo3qk)" height="92.7539" id="TestMapper" style="stroke:#A80036;stroke-width:2.25;" width="145.5" x="48.75" y="84"/><ellipse cx="71.25" cy="108" fill="#ADD1B2" rx="16.5" ry="16.5" style="stroke:#A80036;stroke-width:1.5;"/><path d="M74.25,102.75 Q74.5547,102 74.9063,101.625 Q75.2578,101.25 75.6563,101.25 Q76.3594,101.25 76.8047,101.6719 Q77.25,102.0938 77.25,103.0781 L77.25,105.4219 Q77.25,106.4063 76.8281,106.8281 Q76.4063,107.25 75.75,107.25 Q75.1641,107.25 74.7891,106.9922 Q74.4141,106.7344 74.25,106.0547 Q74.1797,105.5859 73.9219,105.3281 Q73.4531,104.8359 72.6094,104.5547 Q71.7656,104.25 70.9219,104.25 Q69.8672,104.25 68.9766,104.6719 Q68.1094,105.0938 67.4297,106.0313 Q66.75,106.9688 66.75,108.2578 L66.75,109.6406 Q66.75,111.1875 68.0156,112.2188 Q69.2813,113.25 71.5313,113.25 Q72.8672,113.25 73.8047,112.9453 Q74.3438,112.7813 74.9531,112.2422 Q75.3516,111.9375 75.5625,111.8438 Q75.7734,111.75 76.0313,111.75 Q76.5234,111.75 76.875,112.1484 Q77.25,112.5234 77.25,113.0625 Q77.25,113.5781 76.7344,114.1875 Q75.9844,115.0781 74.7891,115.5703 Q73.2188,116.25 71.2969,116.25 Q69.0469,116.25 67.2422,115.3594 Q65.7891,114.6563 64.7578,113.1328 Q63.75,111.6094 63.75,109.8047 L63.75,108.1641 Q63.75,106.2891 64.6406,104.6484 Q65.5547,103.0078 67.125,102.1406 Q68.7188,101.25 70.5,101.25 Q71.5781,101.25 72.5156,101.625 Q73.4531,102 74.25,102.75 Z " fill="#000000"/><text fill="#000000" font-family="sans-serif" font-size="18" lengthAdjust="spacing" textLength="97.5" x="92.25" y="115.3652">TestMapper</text><line style="stroke:#A80036;stroke-width:2.25;" x1="50.25" x2="192.75" y1="132" y2="132"/><line style="stroke:#A80036;stroke-width:2.25;" x1="50.25" x2="192.75" y1="144" y2="144"/><ellipse cx="65.25" cy="160.5" fill="#84BE84" rx="4.5" ry="4.5" style="stroke:#038048;stroke-width:1.5;"/><text fill="#000000" font-family="sans-serif" font-size="16.5" lengthAdjust="spacing" textLength="102" x="78.75" y="167.1284">toDto(testList)</text><!--MD5=[48955766ef36e69e082958abc6703871]
class TestResultMapper--><rect codeLine="57" fill="#FEFECE" filter="url(#febn30suqo3qk)" height="92.7539" id="TestResultMapper" style="stroke:#A80036;stroke-width:2.25;" width="199.5" x="246.75" y="84"/><ellipse cx="269.25" cy="108" fill="#ADD1B2" rx="16.5" ry="16.5" style="stroke:#A80036;stroke-width:1.5;"/><path d="M272.25,102.75 Q272.5547,102 272.9063,101.625 Q273.2578,101.25 273.6563,101.25 Q274.3594,101.25 274.8047,101.6719 Q275.25,102.0938 275.25,103.0781 L275.25,105.4219 Q275.25,106.4063 274.8281,106.8281 Q274.4063,107.25 273.75,107.25 Q273.1641,107.25 272.7891,106.9922 Q272.4141,106.7344 272.25,106.0547 Q272.1797,105.5859 271.9219,105.3281 Q271.4531,104.8359 270.6094,104.5547 Q269.7656,104.25 268.9219,104.25 Q267.8672,104.25 266.9766,104.6719 Q266.1094,105.0938 265.4297,106.0313 Q264.75,106.9688 264.75,108.2578 L264.75,109.6406 Q264.75,111.1875 266.0156,112.2188 Q267.2813,113.25 269.5313,113.25 Q270.8672,113.25 271.8047,112.9453 Q272.3438,112.7813 272.9531,112.2422 Q273.3516,111.9375 273.5625,111.8438 Q273.7734,111.75 274.0313,111.75 Q274.5234,111.75 274.875,112.1484 Q275.25,112.5234 275.25,113.0625 Q275.25,113.5781 274.7344,114.1875 Q273.9844,115.0781 272.7891,115.5703 Q271.2188,116.25 269.2969,116.25 Q267.0469,116.25 265.2422,115.3594 Q263.7891,114.6563 262.7578,113.1328 Q261.75,111.6094 261.75,109.8047 L261.75,108.1641 Q261.75,106.2891 262.6406,104.6484 Q263.5547,103.0078 265.125,102.1406 Q266.7188,101.25 268.5,101.25 Q269.5781,101.25 270.5156,101.625 Q271.4531,102 272.25,102.75 Z " fill="#000000"/><text fill="#000000" font-family="sans-serif" font-size="18" lengthAdjust="spacing" textLength="151.5" x="290.25" y="115.3652">TestResultMapper</text><line style="stroke:#A80036;stroke-width:2.25;" x1="248.25" x2="444.75" y1="132" y2="132"/><line style="stroke:#A80036;stroke-width:2.25;" x1="248.25" x2="444.75" y1="144" y2="144"/><ellipse cx="263.25" cy="160.5" fill="#84BE84" rx="4.5" ry="4.5" style="stroke:#038048;stroke-width:1.5;"/><text fill="#000000" font-family="sans-serif" font-size="16.5" lengthAdjust="spacing" textLength="76.5" x="276.75" y="167.1284">toDto(test)</text><!--MD5=[a82d32c079496d6dca2681dc0633feb0]
class TestParameterMapper--><rect codeLine="60" fill="#FEFECE" filter="url(#febn30suqo3qk)" height="92.7539" id="TestParameterMapper" style="stroke:#A80036;stroke-width:2.25;" width="232.5" x="48.75" y="318"/><ellipse cx="71.25" cy="342" fill="#ADD1B2" rx="16.5" ry="16.5" style="stroke:#A80036;stroke-width:1.5;"/><path d="M74.25,336.75 Q74.5547,336 74.9063,335.625 Q75.2578,335.25 75.6563,335.25 Q76.3594,335.25 76.8047,335.6719 Q77.25,336.0938 77.25,337.0781 L77.25,339.4219 Q77.25,340.4063 76.8281,340.8281 Q76.4063,341.25 75.75,341.25 Q75.1641,341.25 74.7891,340.9922 Q74.4141,340.7344 74.25,340.0547 Q74.1797,339.5859 73.9219,339.3281 Q73.4531,338.8359 72.6094,338.5547 Q71.7656,338.25 70.9219,338.25 Q69.8672,338.25 68.9766,338.6719 Q68.1094,339.0938 67.4297,340.0313 Q66.75,340.9688 66.75,342.2578 L66.75,343.6406 Q66.75,345.1875 68.0156,346.2188 Q69.2813,347.25 71.5313,347.25 Q72.8672,347.25 73.8047,346.9453 Q74.3438,346.7813 74.9531,346.2422 Q75.3516,345.9375 75.5625,345.8438 Q75.7734,345.75 76.0313,345.75 Q76.5234,345.75 76.875,346.1484 Q77.25,346.5234 77.25,347.0625 Q77.25,347.5781 76.7344,348.1875 Q75.9844,349.0781 74.7891,349.5703 Q73.2188,350.25 71.2969,350.25 Q69.0469,350.25 67.2422,349.3594 Q65.7891,348.6563 64.7578,347.1328 Q63.75,345.6094 63.75,343.8047 L63.75,342.1641 Q63.75,340.2891 64.6406,338.6484 Q65.5547,337.0078 67.125,336.1406 Q68.7188,335.25 70.5,335.25 Q71.5781,335.25 72.5156,335.625 Q73.4531,336 74.25,336.75 Z " fill="#000000"/><text fill="#000000" font-family="sans-serif" font-size="18" lengthAdjust="spacing" textLength="184.5" x="92.25" y="349.3652">TestParameterMapper</text><line style="stroke:#A80036;stroke-width:2.25;" x1="50.25" x2="279.75" y1="366" y2="366"/><line style="stroke:#A80036;stroke-width:2.25;" x1="50.25" x2="279.75" y1="378" y2="378"/><ellipse cx="65.25" cy="394.5" fill="#84BE84" rx="4.5" ry="4.5" style="stroke:#038048;stroke-width:1.5;"/><text fill="#000000" font-family="sans-serif" font-size="16.5" lengthAdjust="spacing" textLength="192" x="78.75" y="401.1284">toDTO(testParametersList)</text><!--MD5=[1c38f6084f2098752e2974895ca67f4c]
class TestDto--><rect codeLine="67" fill="#FEFECE" filter="url(#febn30suqo3qk)" height="113.5078" id="TestDto" style="stroke:#A80036;stroke-width:2.25;" width="156" x="2460" y="73.5"/><ellipse cx="2502.075" cy="97.5" fill="#ADD1B2" rx="16.5" ry="16.5" style="stroke:#A80036;stroke-width:1.5;"/><path d="M2505.075,92.25 Q2505.3797,91.5 2505.7313,91.125 Q2506.0828,90.75 2506.4813,90.75 Q2507.1844,90.75 2507.6297,91.1719 Q2508.075,91.5938 2508.075,92.5781 L2508.075,94.9219 Q2508.075,95.9063 2507.6531,96.3281 Q2507.2313,96.75 2506.575,96.75 Q2505.9891,96.75 2505.6141,96.4922 Q2505.2391,96.2344 2505.075,95.5547 Q2505.0047,95.0859 2504.7469,94.8281 Q2504.2781,94.3359 2503.4344,94.0547 Q2502.5906,93.75 2501.7469,93.75 Q2500.6922,93.75 2499.8016,94.1719 Q2498.9344,94.5938 2498.2547,95.5313 Q2497.575,96.4688 2497.575,97.7578 L2497.575,99.1406 Q2497.575,100.6875 2498.8406,101.7188 Q2500.1063,102.75 2502.3563,102.75 Q2503.6922,102.75 2504.6297,102.4453 Q2505.1688,102.2813 2505.7781,101.7422 Q2506.1766,101.4375 2506.3875,101.3438 Q2506.5984,101.25 2506.8563,101.25 Q2507.3484,101.25 2507.7,101.6484 Q2508.075,102.0234 2508.075,102.5625 Q2508.075,103.0781 2507.5594,103.6875 Q2506.8094,104.5781 2505.6141,105.0703 Q2504.0438,105.75 2502.1219,105.75 Q2499.8719,105.75 2498.0672,104.8594 Q2496.6141,104.1563 2495.5828,102.6328 Q2494.575,101.1094 2494.575,99.3047 L2494.575,97.6641 Q2494.575,95.7891 2495.4656,94.1484 Q2496.3797,92.5078 2497.95,91.6406 Q2499.5438,90.75 2501.325,90.75 Q2502.4031,90.75 2503.3406,91.125 Q2504.2781,91.5 2505.075,92.25 Z " fill="#000000"/><text fill="#000000" font-family="sans-serif" font-size="18" lengthAdjust="spacing" textLength="64.5" x="2527.425" y="104.8652">TestDto</text><line style="stroke:#A80036;stroke-width:2.25;" x1="2461.5" x2="2614.5" y1="121.5" y2="121.5"/><rect fill="none" height="9" style="stroke:#C82930;stroke-width:1.5;" width="9" x="2472" y="133.5"/><text fill="#000000" font-family="sans-serif" font-size="16.5" lengthAdjust="spacing" textLength="117" x="2490" y="144.6284">testInternalCode</text><rect fill="none" height="9" style="stroke:#C82930;stroke-width:1.5;" width="9" x="2472" y="154.2539"/><text fill="#000000" font-family="sans-serif" font-size="16.5" lengthAdjust="spacing" textLength="108" x="2490" y="165.3823">testDescription</text><line style="stroke:#A80036;stroke-width:2.25;" x1="2461.5" x2="2614.5" y1="175.0078" y2="175.0078"/><!--MD5=[ac976734434c5552a2abaad0a734408b]
class TestResultDto--><rect codeLine="71" fill="#FEFECE" filter="url(#febn30suqo3qk)" height="113.5078" id="TestResultDto" style="stroke:#A80036;stroke-width:2.25;" width="198" x="2209.5" y="73.5"/><ellipse cx="2246.175" cy="97.5" fill="#ADD1B2" rx="16.5" ry="16.5" style="stroke:#A80036;stroke-width:1.5;"/><path d="M2249.175,92.25 Q2249.4797,91.5 2249.8313,91.125 Q2250.1828,90.75 2250.5813,90.75 Q2251.2844,90.75 2251.7297,91.1719 Q2252.175,91.5938 2252.175,92.5781 L2252.175,94.9219 Q2252.175,95.9063 2251.7531,96.3281 Q2251.3313,96.75 2250.675,96.75 Q2250.0891,96.75 2249.7141,96.4922 Q2249.3391,96.2344 2249.175,95.5547 Q2249.1047,95.0859 2248.8469,94.8281 Q2248.3781,94.3359 2247.5344,94.0547 Q2246.6906,93.75 2245.8469,93.75 Q2244.7922,93.75 2243.9016,94.1719 Q2243.0344,94.5938 2242.3547,95.5313 Q2241.675,96.4688 2241.675,97.7578 L2241.675,99.1406 Q2241.675,100.6875 2242.9406,101.7188 Q2244.2063,102.75 2246.4563,102.75 Q2247.7922,102.75 2248.7297,102.4453 Q2249.2688,102.2813 2249.8781,101.7422 Q2250.2766,101.4375 2250.4875,101.3438 Q2250.6984,101.25 2250.9563,101.25 Q2251.4484,101.25 2251.8,101.6484 Q2252.175,102.0234 2252.175,102.5625 Q2252.175,103.0781 2251.6594,103.6875 Q2250.9094,104.5781 2249.7141,105.0703 Q2248.1438,105.75 2246.2219,105.75 Q2243.9719,105.75 2242.1672,104.8594 Q2240.7141,104.1563 2239.6828,102.6328 Q2238.675,101.1094 2238.675,99.3047 L2238.675,97.6641 Q2238.675,95.7891 2239.5656,94.1484 Q2240.4797,92.5078 2242.05,91.6406 Q2243.6438,90.75 2245.425,90.75 Q2246.5031,90.75 2247.4406,91.125 Q2248.3781,91.5 2249.175,92.25 Z " fill="#000000"/><text fill="#000000" font-family="sans-serif" font-size="18" lengthAdjust="spacing" textLength="118.5" x="2270.325" y="104.8652">TestResultDto</text><line style="stroke:#A80036;stroke-width:2.25;" x1="2211" x2="2406" y1="121.5" y2="121.5"/><rect fill="none" height="9" style="stroke:#C82930;stroke-width:1.5;" width="9" x="2221.5" y="133.5"/><text fill="#000000" font-family="sans-serif" font-size="16.5" lengthAdjust="spacing" textLength="159" x="2239.5" y="144.6284">testParametersListDto</text><rect fill="none" height="9" style="stroke:#C82930;stroke-width:1.5;" width="9" x="2221.5" y="154.2539"/><text fill="#000000" font-family="sans-serif" font-size="16.5" lengthAdjust="spacing" textLength="102" x="2239.5" y="165.3823">medicalReport</text><line style="stroke:#A80036;stroke-width:2.25;" x1="2211" x2="2406" y1="175.0078" y2="175.0078"/><!--MD5=[3994f36c72829dbcddd1cf7021dddf61]
link Test to Client--><path codeLine="78" d="M1505.79,198.195 C1551.765,240.585 1609.56,293.895 1646.775,328.215 " fill="none" id="Test-Client" style="stroke:#A80036;stroke-width:1.5;"/><polygon fill="#000000" points="1594.0134,264.8482,1587.0282,252.4095,1581.051,258.8908,1594.0134,264.8482" style="stroke:#000000;stroke-width:1.5;"/><text fill="#000000" font-family="sans-serif" font-size="19.5" lengthAdjust="spacing" textLength="111" x="1602" y="267.7427">associated a</text><text fill="#000000" font-family="sans-serif" font-size="19.5" lengthAdjust="spacing" textLength="30" x="1483.7761" y="229.7338">1..*</text><text fill="#000000" font-family="sans-serif" font-size="19.5" lengthAdjust="spacing" textLength="10.5" x="1625.2627" y="312.1522">1</text><!--MD5=[c3238c64a9072feb51e313e35a850213]
link Test to MedicalReport--><path codeLine="79" d="M1445.22,198.36 C1464.54,312.675 1503.435,542.82 1518.165,629.985 " fill="none" id="Test-MedicalReport" style="stroke:#A80036;stroke-width:1.5;"/><polygon fill="#000000" points="1493.7498,372.1588,1495.8357,358.0463,1487.1422,359.5155,1493.7498,372.1588" style="stroke:#000000;stroke-width:1.5;"/><text fill="#000000" font-family="sans-serif" font-size="19.5" lengthAdjust="spacing" textLength="64.5" x="1506" y="372.7427">request</text><text fill="#000000" font-family="sans-serif" font-size="19.5" lengthAdjust="spacing" textLength="10.5" x="1435.5222" y="229.4189">1</text><text fill="#000000" font-family="sans-serif" font-size="19.5" lengthAdjust="spacing" textLength="10.5" x="1504.8245" y="613.9914">1</text><!--MD5=[f24c888dadeb846430474fe80a58922b]
link Test to TestParameter--><path codeLine="80" d="M1346.58,198.345 C1311.735,230.25 1275.525,271.635 1257,318 C1233.66,376.395 1230.87,444.855 1235.745,505.425 " fill="none" id="Test-TestParameter" style="stroke:#A80036;stroke-width:1.5;"/><polygon fill="#000000" points="1261.9538,371.8182,1270.7065,360.553,1262.4134,357.5598,1261.9538,371.8182" style="stroke:#000000;stroke-width:1.5;"/><text fill="#000000" font-family="sans-serif" font-size="19.5" lengthAdjust="spacing" textLength="174" x="1278" y="372.7427">requests analysis of</text><text fill="#000000" font-family="sans-serif" font-size="19.5" lengthAdjust="spacing" textLength="10.5" x="1323.6275" y="229.4019">1</text><text fill="#000000" font-family="sans-serif" font-size="19.5" lengthAdjust="spacing" textLength="30" x="1202.4216" y="489.0118">1..*</text><!--MD5=[a2cb112ec531c15b446418fae0286050]
link TestMapper to TestResultMapper--><!--MD5=[ca650287dd4757cc282cb40de6f9c37c]
link TestMapper to TestParameterMapper--><!--MD5=[d8e94a1130358711e79ffd9eed3ab9ae]
@startuml


package ui {
class ViewResultsUI{}
}

package Controller{
class ViewResultsController{
+getTestList()
+getUserSession()
+showTestResults(selectedTest)
}
}

package model{
class Company{
+getTestStore()
}
class Test{
+getInternalCode()
+getDescription()
+getTestParameterList()
}
class TestParameter{
-parameterName
-testParameterResult
-testParameterMetric
-testParameterMinRefValue
-testParameterMaxRefValue
-refValueMetric
- -
+getParameterName()
+getParameterResult()
+getParameterMetric()
+getParameterMinRefValue()
+getParameterMaxRefValue()
+getRefValueMetric()
}
class MedicalReport{}
class Client{}
}



package store{
class TestStore{
+getClientTestsList()
+orderClientTestsByRegistrationDate()
+getTestByInternalCode(code)
}
}

package mappers{
class TestMapper{
+toDto(testList)
}
class TestResultMapper{
+toDto(test)
}
class TestParameterMapper {
+toDTO(testParametersList)
}
}


package dto{
class TestDto{
-testInternalCode
-testDescription
}
class TestResultDto{
-testParametersListDto
-medicalReport
}
}


Test "1..*" - - "1" Client : associated a >
Test "1" - - -"1" MedicalReport : request >
Test "1" - - -"1..*" TestParameter : requests analysis of >





@enduml

PlantUML version 1.2021.5(Sun Apr 25 12:20:28 BST 2021)
(GPL source distribution)
Java Runtime: OpenJDK Runtime Environment
JVM: Dynamic Code Evolution 64-Bit Server VM
Default Encoding: Cp1252
Language: pt
Country: PT
--></g></svg>