<?xml version="1.0" encoding="UTF-8" standalone="no"?><svg xmlns="http://www.w3.org/2000/svg" xmlns:xlink="http://www.w3.org/1999/xlink" contentScriptType="application/ecmascript" contentStyleType="text/css" height="933px" preserveAspectRatio="none" style="width:1445px;height:933px;" version="1.1" viewBox="0 0 1445 933" width="1445.25px" zoomAndPan="magnify"><defs><filter height="300%" id="f1214sk03mtw3l" width="300%" x="-1" y="-1"><feGaussianBlur result="blurOut" stdDeviation="1.5"/><feColorMatrix in="blurOut" result="blurOut2" type="matrix" values="0 0 0 0 0 0 0 0 0 0 0 0 0 0 0 0 0 0 .4 0"/><feOffset dx="3.0" dy="3.0" in="blurOut2" result="blurOut3"/><feBlend in="SourceGraphic" in2="blurOut3" mode="normal"/></filter></defs><g><!--MD5=[64e2e010ba86d7988e5cd73bd64f61f9]
cluster ui--><polygon fill="#FFFFFF" filter="url(#f1214sk03mtw3l)" points="316.5,4.5,330.75,4.5,336,22.207,426,22.207,426,79.5,316.5,79.5,316.5,4.5" style="stroke:#000000;stroke-width:1.125;"/><line style="stroke:#000000;stroke-width:1.125;" x1="316.5" x2="336" y1="22.207" y2="22.207"/><text fill="#000000" font-family="sans-serif" font-size="10.5" font-weight="bold" lengthAdjust="spacing" textLength="9.75" x="319.5" y="16.8999">ui</text><!--MD5=[acb0c8402f85a957a6e5910fb75f4576]
cluster Auth--><polygon fill="#FFFFFF" filter="url(#f1214sk03mtw3l)" points="1200.75,599.625,1229.25,599.625,1234.5,617.332,1304.25,617.332,1304.25,685.125,1200.75,685.125,1200.75,599.625" style="stroke:#000000;stroke-width:1.125;"/><line style="stroke:#000000;stroke-width:1.125;" x1="1200.75" x2="1234.5" y1="617.332" y2="617.332"/><text fill="#000000" font-family="sans-serif" font-size="10.5" font-weight="bold" lengthAdjust="spacing" textLength="24" x="1203.75" y="612.0249">Auth</text><!--MD5=[1f2cfc53d9d308f53762fd0fcbaa4873]
cluster Controller--><polygon fill="#FFFFFF" filter="url(#f1214sk03mtw3l)" points="1154.25,104.25,1212,104.25,1217.25,121.957,1314.75,121.957,1314.75,497.25,1154.25,497.25,1154.25,104.25" style="stroke:#000000;stroke-width:1.125;"/><line style="stroke:#000000;stroke-width:1.125;" x1="1154.25" x2="1217.25" y1="121.957" y2="121.957"/><text fill="#000000" font-family="sans-serif" font-size="10.5" font-weight="bold" lengthAdjust="spacing" textLength="53.25" x="1157.25" y="116.6499">Controller</text><!--MD5=[5d4cd377749310b66bf14896f5cd8d9b]
cluster model--><polygon fill="#FFFFFF" filter="url(#f1214sk03mtw3l)" points="421.5,344.25,458.25,344.25,463.5,361.957,803.25,361.957,803.25,927.75,421.5,927.75,421.5,344.25" style="stroke:#000000;stroke-width:1.125;"/><line style="stroke:#000000;stroke-width:1.125;" x1="421.5" x2="463.5" y1="361.957" y2="361.957"/><text fill="#000000" font-family="sans-serif" font-size="10.5" font-weight="bold" lengthAdjust="spacing" textLength="32.25" x="424.5" y="356.6499">model</text><!--MD5=[c23849cc5f4a85746a20de4317c530fc]
cluster store--><polygon fill="#FFFFFF" filter="url(#f1214sk03mtw3l)" points="829.5,390.75,861.75,390.75,867,408.457,1136.25,408.457,1136.25,497.25,829.5,497.25,829.5,390.75" style="stroke:#000000;stroke-width:1.125;"/><line style="stroke:#000000;stroke-width:1.125;" x1="829.5" x2="867" y1="408.457" y2="408.457"/><text fill="#000000" font-family="sans-serif" font-size="10.5" font-weight="bold" lengthAdjust="spacing" textLength="27.75" x="832.5" y="403.1499">store</text><!--MD5=[e484dff12bc7e3f9ae9e3c87a060152b]
cluster mappers--><polygon fill="#FFFFFF" filter="url(#f1214sk03mtw3l)" points="216,234,266.25,234,271.5,251.707,692.25,251.707,692.25,319.5,216,319.5,216,234" style="stroke:#000000;stroke-width:1.125;"/><line style="stroke:#000000;stroke-width:1.125;" x1="216" x2="271.5" y1="251.707" y2="251.707"/><text fill="#000000" font-family="sans-serif" font-size="10.5" font-weight="bold" lengthAdjust="spacing" textLength="45.75" x="219" y="246.3999">mappers</text><!--MD5=[e6eced616a98d47334dd1aaaa829ffd5]
cluster dto--><polygon fill="#FFFFFF" filter="url(#f1214sk03mtw3l)" points="12,396,33.75,396,39,413.707,366,413.707,366,492,12,492,12,396" style="stroke:#000000;stroke-width:1.125;"/><line style="stroke:#000000;stroke-width:1.125;" x1="12" x2="39" y1="413.707" y2="413.707"/><text fill="#000000" font-family="sans-serif" font-size="10.5" font-weight="bold" lengthAdjust="spacing" textLength="17.25" x="15" y="408.3999">dto</text><!--MD5=[49bee9bf9dd204cc1ce7570ba2c9409a]
class ViewResultsUI--><rect codeLine="4" fill="#FEFECE" filter="url(#f1214sk03mtw3l)" height="36" id="ViewResultsUI" style="stroke:#A80036;stroke-width:1.125;" width="84.75" x="328.875" y="31.5"/><ellipse cx="340.125" cy="43.5" fill="#ADD1B2" rx="8.25" ry="8.25" style="stroke:#A80036;stroke-width:0.75;"/><path d="M341.625,40.875 Q341.7773,40.5 341.9531,40.3125 Q342.1289,40.125 342.3281,40.125 Q342.6797,40.125 342.9023,40.3359 Q343.125,40.5469 343.125,41.0391 L343.125,42.2109 Q343.125,42.7031 342.9141,42.9141 Q342.7031,43.125 342.375,43.125 Q342.082,43.125 341.8945,42.9961 Q341.707,42.8672 341.625,42.5273 Q341.5898,42.293 341.4609,42.1641 Q341.2266,41.918 340.8047,41.7773 Q340.3828,41.625 339.9609,41.625 Q339.4336,41.625 338.9883,41.8359 Q338.5547,42.0469 338.2148,42.5156 Q337.875,42.9844 337.875,43.6289 L337.875,44.3203 Q337.875,45.0938 338.5078,45.6094 Q339.1406,46.125 340.2656,46.125 Q340.9336,46.125 341.4023,45.9727 Q341.6719,45.8906 341.9766,45.6211 Q342.1758,45.4688 342.2813,45.4219 Q342.3867,45.375 342.5156,45.375 Q342.7617,45.375 342.9375,45.5742 Q343.125,45.7617 343.125,46.0313 Q343.125,46.2891 342.8672,46.5938 Q342.4922,47.0391 341.8945,47.2852 Q341.1094,47.625 340.1484,47.625 Q339.0234,47.625 338.1211,47.1797 Q337.3945,46.8281 336.8789,46.0664 Q336.375,45.3047 336.375,44.4023 L336.375,43.582 Q336.375,42.6445 336.8203,41.8242 Q337.2773,41.0039 338.0625,40.5703 Q338.8594,40.125 339.75,40.125 Q340.2891,40.125 340.7578,40.3125 Q341.2266,40.5 341.625,40.875 Z " fill="#000000"/><text fill="#000000" font-family="sans-serif" font-size="9" lengthAdjust="spacing" textLength="60.75" x="350.625" y="47.1826">ViewResultsUI</text><line style="stroke:#A80036;stroke-width:1.125;" x1="329.625" x2="412.875" y1="55.5" y2="55.5"/><line style="stroke:#A80036;stroke-width:1.125;" x1="329.625" x2="412.875" y1="61.5" y2="61.5"/><!--MD5=[c5b08e60048ef1bcd788d24cf324082e]
class UserSession--><rect codeLine="8" fill="#FEFECE" filter="url(#f1214sk03mtw3l)" height="46.377" id="UserSession" style="stroke:#A80036;stroke-width:1.125;" width="78.75" x="1213.125" y="626.625"/><ellipse cx="1224.375" cy="638.625" fill="#ADD1B2" rx="8.25" ry="8.25" style="stroke:#A80036;stroke-width:0.75;"/><path d="M1225.875,636 Q1226.0273,635.625 1226.2031,635.4375 Q1226.3789,635.25 1226.5781,635.25 Q1226.9297,635.25 1227.1523,635.4609 Q1227.375,635.6719 1227.375,636.1641 L1227.375,637.3359 Q1227.375,637.8281 1227.1641,638.0391 Q1226.9531,638.25 1226.625,638.25 Q1226.332,638.25 1226.1445,638.1211 Q1225.957,637.9922 1225.875,637.6523 Q1225.8398,637.418 1225.7109,637.2891 Q1225.4766,637.043 1225.0547,636.9023 Q1224.6328,636.75 1224.2109,636.75 Q1223.6836,636.75 1223.2383,636.9609 Q1222.8047,637.1719 1222.4648,637.6406 Q1222.125,638.1094 1222.125,638.7539 L1222.125,639.4453 Q1222.125,640.2188 1222.7578,640.7344 Q1223.3906,641.25 1224.5156,641.25 Q1225.1836,641.25 1225.6523,641.0977 Q1225.9219,641.0156 1226.2266,640.7461 Q1226.4258,640.5938 1226.5313,640.5469 Q1226.6367,640.5 1226.7656,640.5 Q1227.0117,640.5 1227.1875,640.6992 Q1227.375,640.8867 1227.375,641.1563 Q1227.375,641.4141 1227.1172,641.7188 Q1226.7422,642.1641 1226.1445,642.4102 Q1225.3594,642.75 1224.3984,642.75 Q1223.2734,642.75 1222.3711,642.3047 Q1221.6445,641.9531 1221.1289,641.1914 Q1220.625,640.4297 1220.625,639.5273 L1220.625,638.707 Q1220.625,637.7695 1221.0703,636.9492 Q1221.5273,636.1289 1222.3125,635.6953 Q1223.1094,635.25 1224,635.25 Q1224.5391,635.25 1225.0078,635.4375 Q1225.4766,635.625 1225.875,636 Z " fill="#000000"/><text fill="#000000" font-family="sans-serif" font-size="9" lengthAdjust="spacing" textLength="54.75" x="1234.875" y="642.3076">UserSession</text><line style="stroke:#A80036;stroke-width:1.125;" x1="1213.875" x2="1291.125" y1="650.625" y2="650.625"/><line style="stroke:#A80036;stroke-width:1.125;" x1="1213.875" x2="1291.125" y1="656.625" y2="656.625"/><ellipse cx="1221.375" cy="664.875" fill="#84BE84" rx="2.25" ry="2.25" style="stroke:#038048;stroke-width:0.75;"/><text fill="#000000" font-family="sans-serif" font-size="8.25" lengthAdjust="spacing" textLength="40.5" x="1228.125" y="668.1892">getUserId()</text><!--MD5=[335f4d9be48430461c68bf6d6fdba145]
class App--><rect codeLine="15" fill="#FEFECE" filter="url(#f1214sk03mtw3l)" height="67.1309" id="App" style="stroke:#A80036;stroke-width:1.125;" width="110.25" x="1166.625" y="417.75"/><ellipse cx="1210.6875" cy="429.75" fill="#ADD1B2" rx="8.25" ry="8.25" style="stroke:#A80036;stroke-width:0.75;"/><path d="M1212.1875,427.125 Q1212.3398,426.75 1212.5156,426.5625 Q1212.6914,426.375 1212.8906,426.375 Q1213.2422,426.375 1213.4648,426.5859 Q1213.6875,426.7969 1213.6875,427.2891 L1213.6875,428.4609 Q1213.6875,428.9531 1213.4766,429.1641 Q1213.2656,429.375 1212.9375,429.375 Q1212.6445,429.375 1212.457,429.2461 Q1212.2695,429.1172 1212.1875,428.7773 Q1212.1523,428.543 1212.0234,428.4141 Q1211.7891,428.168 1211.3672,428.0273 Q1210.9453,427.875 1210.5234,427.875 Q1209.9961,427.875 1209.5508,428.0859 Q1209.1172,428.2969 1208.7773,428.7656 Q1208.4375,429.2344 1208.4375,429.8789 L1208.4375,430.5703 Q1208.4375,431.3438 1209.0703,431.8594 Q1209.7031,432.375 1210.8281,432.375 Q1211.4961,432.375 1211.9648,432.2227 Q1212.2344,432.1406 1212.5391,431.8711 Q1212.7383,431.7188 1212.8438,431.6719 Q1212.9492,431.625 1213.0781,431.625 Q1213.3242,431.625 1213.5,431.8242 Q1213.6875,432.0117 1213.6875,432.2813 Q1213.6875,432.5391 1213.4297,432.8438 Q1213.0547,433.2891 1212.457,433.5352 Q1211.6719,433.875 1210.7109,433.875 Q1209.5859,433.875 1208.6836,433.4297 Q1207.957,433.0781 1207.4414,432.3164 Q1206.9375,431.5547 1206.9375,430.6523 L1206.9375,429.832 Q1206.9375,428.8945 1207.3828,428.0742 Q1207.8398,427.2539 1208.625,426.8203 Q1209.4219,426.375 1210.3125,426.375 Q1210.8516,426.375 1211.3203,426.5625 Q1211.7891,426.75 1212.1875,427.125 Z " fill="#000000"/><text fill="#000000" font-family="sans-serif" font-size="9" lengthAdjust="spacing" textLength="15.75" x="1226.0625" y="433.4326">App</text><line style="stroke:#A80036;stroke-width:1.125;" x1="1167.375" x2="1276.125" y1="441.75" y2="441.75"/><line style="stroke:#A80036;stroke-width:1.125;" x1="1167.375" x2="1276.125" y1="447.75" y2="447.75"/><ellipse cx="1174.875" cy="456" fill="#84BE84" rx="2.25" ry="2.25" style="stroke:#038048;stroke-width:0.75;"/><text fill="#000000" font-family="sans-serif" font-size="8.25" lengthAdjust="spacing" textLength="48" x="1181.625" y="459.3142">getInstance()</text><ellipse cx="1174.875" cy="466.377" fill="#84BE84" rx="2.25" ry="2.25" style="stroke:#038048;stroke-width:0.75;"/><text fill="#000000" font-family="sans-serif" font-size="8.25" lengthAdjust="spacing" textLength="90.75" x="1181.625" y="469.6912">getCurrentUserSession()</text><ellipse cx="1174.875" cy="476.7539" fill="#84BE84" rx="2.25" ry="2.25" style="stroke:#038048;stroke-width:0.75;"/><text fill="#000000" font-family="sans-serif" font-size="8.25" lengthAdjust="spacing" textLength="51" x="1181.625" y="480.0681">getCompany()</text><!--MD5=[db458dcce179ed92c8ae610b38e47717]
class ViewResultsController--><rect codeLine="20" fill="#FEFECE" filter="url(#f1214sk03mtw3l)" height="67.1309" id="ViewResultsController" style="stroke:#A80036;stroke-width:1.125;" width="135.75" x="1166.625" y="131.25"/><ellipse cx="1186.65" cy="143.25" fill="#ADD1B2" rx="8.25" ry="8.25" style="stroke:#A80036;stroke-width:0.75;"/><path d="M1188.15,140.625 Q1188.3023,140.25 1188.4781,140.0625 Q1188.6539,139.875 1188.8531,139.875 Q1189.2047,139.875 1189.4273,140.0859 Q1189.65,140.2969 1189.65,140.7891 L1189.65,141.9609 Q1189.65,142.4531 1189.4391,142.6641 Q1189.2281,142.875 1188.9,142.875 Q1188.607,142.875 1188.4195,142.7461 Q1188.232,142.6172 1188.15,142.2773 Q1188.1148,142.043 1187.9859,141.9141 Q1187.7516,141.668 1187.3297,141.5273 Q1186.9078,141.375 1186.4859,141.375 Q1185.9586,141.375 1185.5133,141.5859 Q1185.0797,141.7969 1184.7398,142.2656 Q1184.4,142.7344 1184.4,143.3789 L1184.4,144.0703 Q1184.4,144.8438 1185.0328,145.3594 Q1185.6656,145.875 1186.7906,145.875 Q1187.4586,145.875 1187.9273,145.7227 Q1188.1969,145.6406 1188.5016,145.3711 Q1188.7008,145.2188 1188.8063,145.1719 Q1188.9117,145.125 1189.0406,145.125 Q1189.2867,145.125 1189.4625,145.3242 Q1189.65,145.5117 1189.65,145.7813 Q1189.65,146.0391 1189.3922,146.3438 Q1189.0172,146.7891 1188.4195,147.0352 Q1187.6344,147.375 1186.6734,147.375 Q1185.5484,147.375 1184.6461,146.9297 Q1183.9195,146.5781 1183.4039,145.8164 Q1182.9,145.0547 1182.9,144.1523 L1182.9,143.332 Q1182.9,142.3945 1183.3453,141.5742 Q1183.8023,140.7539 1184.5875,140.3203 Q1185.3844,139.875 1186.275,139.875 Q1186.8141,139.875 1187.2828,140.0625 Q1187.7516,140.25 1188.15,140.625 Z " fill="#000000"/><text fill="#000000" font-family="sans-serif" font-size="9" lengthAdjust="spacing" textLength="92.25" x="1199.1" y="146.9326">ViewResultsController</text><line style="stroke:#A80036;stroke-width:1.125;" x1="1167.375" x2="1301.625" y1="155.25" y2="155.25"/><line style="stroke:#A80036;stroke-width:1.125;" x1="1167.375" x2="1301.625" y1="161.25" y2="161.25"/><ellipse cx="1174.875" cy="169.5" fill="#84BE84" rx="2.25" ry="2.25" style="stroke:#038048;stroke-width:0.75;"/><text fill="#000000" font-family="sans-serif" font-size="8.25" lengthAdjust="spacing" textLength="45.75" x="1181.625" y="172.8142">getTestList()</text><ellipse cx="1174.875" cy="179.877" fill="#84BE84" rx="2.25" ry="2.25" style="stroke:#038048;stroke-width:0.75;"/><text fill="#000000" font-family="sans-serif" font-size="8.25" lengthAdjust="spacing" textLength="63.75" x="1181.625" y="183.1912">getUserSession()</text><ellipse cx="1174.875" cy="190.2539" fill="#84BE84" rx="2.25" ry="2.25" style="stroke:#038048;stroke-width:0.75;"/><text fill="#000000" font-family="sans-serif" font-size="8.25" lengthAdjust="spacing" textLength="116.25" x="1181.625" y="193.5681">showTestResults(selectedTest)</text><!--MD5=[02e4b9b7573f1156f41e60aa5b4e25a4]
class Company--><rect codeLine="29" fill="#FEFECE" filter="url(#f1214sk03mtw3l)" height="67.1309" id="Company" style="stroke:#A80036;stroke-width:1.125;" width="84" x="678" y="417.75"/><ellipse cx="698.3625" cy="429.75" fill="#ADD1B2" rx="8.25" ry="8.25" style="stroke:#A80036;stroke-width:0.75;"/><path d="M699.8625,427.125 Q700.0148,426.75 700.1906,426.5625 Q700.3664,426.375 700.5656,426.375 Q700.9172,426.375 701.1398,426.5859 Q701.3625,426.7969 701.3625,427.2891 L701.3625,428.4609 Q701.3625,428.9531 701.1516,429.1641 Q700.9406,429.375 700.6125,429.375 Q700.3195,429.375 700.132,429.2461 Q699.9445,429.1172 699.8625,428.7773 Q699.8273,428.543 699.6984,428.4141 Q699.4641,428.168 699.0422,428.0273 Q698.6203,427.875 698.1984,427.875 Q697.6711,427.875 697.2258,428.0859 Q696.7922,428.2969 696.4523,428.7656 Q696.1125,429.2344 696.1125,429.8789 L696.1125,430.5703 Q696.1125,431.3438 696.7453,431.8594 Q697.3781,432.375 698.5031,432.375 Q699.1711,432.375 699.6398,432.2227 Q699.9094,432.1406 700.2141,431.8711 Q700.4133,431.7188 700.5188,431.6719 Q700.6242,431.625 700.7531,431.625 Q700.9992,431.625 701.175,431.8242 Q701.3625,432.0117 701.3625,432.2813 Q701.3625,432.5391 701.1047,432.8438 Q700.7297,433.2891 700.132,433.5352 Q699.3469,433.875 698.3859,433.875 Q697.2609,433.875 696.3586,433.4297 Q695.632,433.0781 695.1164,432.3164 Q694.6125,431.5547 694.6125,430.6523 L694.6125,429.832 Q694.6125,428.8945 695.0578,428.0742 Q695.5148,427.2539 696.3,426.8203 Q697.0969,426.375 697.9875,426.375 Q698.5266,426.375 698.9953,426.5625 Q699.4641,426.75 699.8625,427.125 Z " fill="#000000"/><text fill="#000000" font-family="sans-serif" font-size="9" lengthAdjust="spacing" textLength="39.75" x="710.8875" y="433.4326">Company</text><line style="stroke:#A80036;stroke-width:1.125;" x1="678.75" x2="761.25" y1="441.75" y2="441.75"/><rect fill="none" height="4.5" style="stroke:#C82930;stroke-width:0.75;" width="4.5" x="684" y="447.75"/><text fill="#000000" font-family="sans-serif" font-size="8.25" lengthAdjust="spacing" textLength="64.5" x="693" y="453.3142">String designation</text><line style="stroke:#A80036;stroke-width:1.125;" x1="678.75" x2="761.25" y1="458.127" y2="458.127"/><ellipse cx="686.25" cy="466.377" fill="#84BE84" rx="2.25" ry="2.25" style="stroke:#038048;stroke-width:0.75;"/><text fill="#000000" font-family="sans-serif" font-size="8.25" lengthAdjust="spacing" textLength="56.25" x="693" y="469.6912">getClientStore()</text><ellipse cx="686.25" cy="476.7539" fill="#84BE84" rx="2.25" ry="2.25" style="stroke:#038048;stroke-width:0.75;"/><text fill="#000000" font-family="sans-serif" font-size="8.25" lengthAdjust="spacing" textLength="52.5" x="693" y="480.0681">getTestStore()</text><!--MD5=[df38be88ccee13e832d6fafd6288a4ca]
class Test--><rect codeLine="34" fill="#FEFECE" filter="url(#f1214sk03mtw3l)" height="160.5234" id="Test" style="stroke:#A80036;stroke-width:1.125;" width="122.25" x="529.125" y="371.25"/><ellipse cx="578.0625" cy="383.25" fill="#ADD1B2" rx="8.25" ry="8.25" style="stroke:#A80036;stroke-width:0.75;"/><path d="M579.5625,380.625 Q579.7148,380.25 579.8906,380.0625 Q580.0664,379.875 580.2656,379.875 Q580.6172,379.875 580.8398,380.0859 Q581.0625,380.2969 581.0625,380.7891 L581.0625,381.9609 Q581.0625,382.4531 580.8516,382.6641 Q580.6406,382.875 580.3125,382.875 Q580.0195,382.875 579.832,382.7461 Q579.6445,382.6172 579.5625,382.2773 Q579.5273,382.043 579.3984,381.9141 Q579.1641,381.668 578.7422,381.5273 Q578.3203,381.375 577.8984,381.375 Q577.3711,381.375 576.9258,381.5859 Q576.4922,381.7969 576.1523,382.2656 Q575.8125,382.7344 575.8125,383.3789 L575.8125,384.0703 Q575.8125,384.8438 576.4453,385.3594 Q577.0781,385.875 578.2031,385.875 Q578.8711,385.875 579.3398,385.7227 Q579.6094,385.6406 579.9141,385.3711 Q580.1133,385.2188 580.2188,385.1719 Q580.3242,385.125 580.4531,385.125 Q580.6992,385.125 580.875,385.3242 Q581.0625,385.5117 581.0625,385.7813 Q581.0625,386.0391 580.8047,386.3438 Q580.4297,386.7891 579.832,387.0352 Q579.0469,387.375 578.0859,387.375 Q576.9609,387.375 576.0586,386.9297 Q575.332,386.5781 574.8164,385.8164 Q574.3125,385.0547 574.3125,384.1523 L574.3125,383.332 Q574.3125,382.3945 574.7578,381.5742 Q575.2148,380.7539 576,380.3203 Q576.7969,379.875 577.6875,379.875 Q578.2266,379.875 578.6953,380.0625 Q579.1641,380.25 579.5625,380.625 Z " fill="#000000"/><text fill="#000000" font-family="sans-serif" font-size="9" lengthAdjust="spacing" textLength="18" x="593.4375" y="386.9326">Test</text><line style="stroke:#A80036;stroke-width:1.125;" x1="529.875" x2="650.625" y1="395.25" y2="395.25"/><rect fill="none" height="4.5" style="stroke:#C82930;stroke-width:0.75;" width="4.5" x="535.125" y="401.25"/><text fill="#000000" font-family="sans-serif" font-size="8.25" lengthAdjust="spacing" textLength="68.25" x="544.125" y="406.8142">String internalCode</text><rect fill="none" height="4.5" style="stroke:#C82930;stroke-width:0.75;" width="4.5" x="535.125" y="411.627"/><text fill="#000000" font-family="sans-serif" font-size="8.25" lengthAdjust="spacing" textLength="55.5" x="544.125" y="417.1912">String nhsCode</text><rect fill="none" height="4.5" style="stroke:#C82930;stroke-width:0.75;" width="4.5" x="535.125" y="422.0039"/><text fill="#000000" font-family="sans-serif" font-size="8.25" lengthAdjust="spacing" textLength="63" x="544.125" y="427.5681">String description</text><rect fill="none" height="4.5" style="stroke:#C82930;stroke-width:0.75;" width="4.5" x="535.125" y="432.3809"/><text fill="#000000" font-family="sans-serif" font-size="8.25" lengthAdjust="spacing" textLength="102.75" x="544.125" y="437.9451">Date dateOfSampleCollected</text><rect fill="none" height="4.5" style="stroke:#C82930;stroke-width:0.75;" width="4.5" x="535.125" y="442.7578"/><text fill="#000000" font-family="sans-serif" font-size="8.25" lengthAdjust="spacing" textLength="101.25" x="544.125" y="448.322">Date timeOfSampleCollected</text><rect fill="none" height="4.5" style="stroke:#C82930;stroke-width:0.75;" width="4.5" x="535.125" y="453.1348"/><text fill="#000000" font-family="sans-serif" font-size="8.25" lengthAdjust="spacing" textLength="101.25" x="544.125" y="458.699">Date dateOfSampleAnalysis</text><rect fill="none" height="4.5" style="stroke:#C82930;stroke-width:0.75;" width="4.5" x="535.125" y="463.5117"/><text fill="#000000" font-family="sans-serif" font-size="8.25" lengthAdjust="spacing" textLength="99.75" x="544.125" y="469.0759">Date timeOfSampleAnalysis</text><rect fill="none" height="4.5" style="stroke:#C82930;stroke-width:0.75;" width="4.5" x="535.125" y="473.8887"/><text fill="#000000" font-family="sans-serif" font-size="8.25" lengthAdjust="spacing" textLength="39.75" x="544.125" y="479.4529">Enum state</text><line style="stroke:#A80036;stroke-width:0.75;" x1="529.875" x2="650.625" y1="484.2656" y2="484.2656"/><ellipse cx="537.375" cy="492.5156" fill="#84BE84" rx="2.25" ry="2.25" style="stroke:#038048;stroke-width:0.75;"/><text fill="#000000" font-family="sans-serif" font-size="8.25" lengthAdjust="spacing" textLength="62.25" x="544.125" y="495.8298">getInternalCode()</text><ellipse cx="537.375" cy="502.8926" fill="#84BE84" rx="2.25" ry="2.25" style="stroke:#038048;stroke-width:0.75;"/><text fill="#000000" font-family="sans-serif" font-size="8.25" lengthAdjust="spacing" textLength="57.75" x="544.125" y="506.2068">getDescription()</text><ellipse cx="537.375" cy="513.2695" fill="#84BE84" rx="2.25" ry="2.25" style="stroke:#038048;stroke-width:0.75;"/><text fill="#000000" font-family="sans-serif" font-size="8.25" lengthAdjust="spacing" textLength="82.5" x="544.125" y="516.5837">getTestParameterList()</text><ellipse cx="537.375" cy="523.6465" fill="#84BE84" rx="2.25" ry="2.25" style="stroke:#038048;stroke-width:0.75;"/><text fill="#000000" font-family="sans-serif" font-size="8.25" lengthAdjust="spacing" textLength="68.25" x="544.125" y="526.9607">getMedicalReport()</text><!--MD5=[e27cb01a39563223b22d42504ec96d07]
class TestResult--><rect codeLine="49" fill="#FEFECE" filter="url(#f1214sk03mtw3l)" height="36" id="TestResult" style="stroke:#A80036;stroke-width:1.125;" width="69" x="433.5" y="433.5"/><ellipse cx="444.75" cy="445.5" fill="#ADD1B2" rx="8.25" ry="8.25" style="stroke:#A80036;stroke-width:0.75;"/><path d="M446.25,442.875 Q446.4023,442.5 446.5781,442.3125 Q446.7539,442.125 446.9531,442.125 Q447.3047,442.125 447.5273,442.3359 Q447.75,442.5469 447.75,443.0391 L447.75,444.2109 Q447.75,444.7031 447.5391,444.9141 Q447.3281,445.125 447,445.125 Q446.707,445.125 446.5195,444.9961 Q446.332,444.8672 446.25,444.5273 Q446.2148,444.293 446.0859,444.1641 Q445.8516,443.918 445.4297,443.7773 Q445.0078,443.625 444.5859,443.625 Q444.0586,443.625 443.6133,443.8359 Q443.1797,444.0469 442.8398,444.5156 Q442.5,444.9844 442.5,445.6289 L442.5,446.3203 Q442.5,447.0938 443.1328,447.6094 Q443.7656,448.125 444.8906,448.125 Q445.5586,448.125 446.0273,447.9727 Q446.2969,447.8906 446.6016,447.6211 Q446.8008,447.4688 446.9063,447.4219 Q447.0117,447.375 447.1406,447.375 Q447.3867,447.375 447.5625,447.5742 Q447.75,447.7617 447.75,448.0313 Q447.75,448.2891 447.4922,448.5938 Q447.1172,449.0391 446.5195,449.2852 Q445.7344,449.625 444.7734,449.625 Q443.6484,449.625 442.7461,449.1797 Q442.0195,448.8281 441.5039,448.0664 Q441,447.3047 441,446.4023 L441,445.582 Q441,444.6445 441.4453,443.8242 Q441.9023,443.0039 442.6875,442.5703 Q443.4844,442.125 444.375,442.125 Q444.9141,442.125 445.3828,442.3125 Q445.8516,442.5 446.25,442.875 Z " fill="#000000"/><text fill="#000000" font-family="sans-serif" font-size="9" lengthAdjust="spacing" textLength="45" x="455.25" y="449.1826">TestResult</text><line style="stroke:#A80036;stroke-width:1.125;" x1="434.25" x2="501.75" y1="457.5" y2="457.5"/><line style="stroke:#A80036;stroke-width:1.125;" x1="434.25" x2="501.75" y1="463.5" y2="463.5"/><!--MD5=[0f07739f46effee96e095e9c408da841]
class TestParameter--><rect codeLine="50" fill="#FEFECE" filter="url(#f1214sk03mtw3l)" height="160.5234" id="TestParameter" style="stroke:#A80036;stroke-width:1.125;" width="122.25" x="433.875" y="755.25"/><ellipse cx="461.6625" cy="767.25" fill="#ADD1B2" rx="8.25" ry="8.25" style="stroke:#A80036;stroke-width:0.75;"/><path d="M463.1625,764.625 Q463.3148,764.25 463.4906,764.0625 Q463.6664,763.875 463.8656,763.875 Q464.2172,763.875 464.4398,764.0859 Q464.6625,764.2969 464.6625,764.7891 L464.6625,765.9609 Q464.6625,766.4531 464.4516,766.6641 Q464.2406,766.875 463.9125,766.875 Q463.6195,766.875 463.432,766.7461 Q463.2445,766.6172 463.1625,766.2773 Q463.1273,766.043 462.9984,765.9141 Q462.7641,765.668 462.3422,765.5273 Q461.9203,765.375 461.4984,765.375 Q460.9711,765.375 460.5258,765.5859 Q460.0922,765.7969 459.7523,766.2656 Q459.4125,766.7344 459.4125,767.3789 L459.4125,768.0703 Q459.4125,768.8438 460.0453,769.3594 Q460.6781,769.875 461.8031,769.875 Q462.4711,769.875 462.9398,769.7227 Q463.2094,769.6406 463.5141,769.3711 Q463.7133,769.2188 463.8187,769.1719 Q463.9242,769.125 464.0531,769.125 Q464.2992,769.125 464.475,769.3242 Q464.6625,769.5117 464.6625,769.7813 Q464.6625,770.0391 464.4047,770.3438 Q464.0297,770.7891 463.432,771.0352 Q462.6469,771.375 461.6859,771.375 Q460.5609,771.375 459.6586,770.9297 Q458.932,770.5781 458.4164,769.8164 Q457.9125,769.0547 457.9125,768.1523 L457.9125,767.332 Q457.9125,766.3945 458.3578,765.5742 Q458.8148,764.7539 459.6,764.3203 Q460.3969,763.875 461.2875,763.875 Q461.8266,763.875 462.2953,764.0625 Q462.7641,764.25 463.1625,764.625 Z " fill="#000000"/><text fill="#000000" font-family="sans-serif" font-size="9" lengthAdjust="spacing" textLength="61.5" x="475.8375" y="770.9326">TestParameter</text><line style="stroke:#A80036;stroke-width:1.125;" x1="434.625" x2="555.375" y1="779.25" y2="779.25"/><rect fill="none" height="4.5" style="stroke:#C82930;stroke-width:0.75;" width="4.5" x="439.875" y="785.25"/><text fill="#000000" font-family="sans-serif" font-size="8.25" lengthAdjust="spacing" textLength="57" x="448.875" y="790.8142">parameterName</text><rect fill="none" height="4.5" style="stroke:#C82930;stroke-width:0.75;" width="4.5" x="439.875" y="795.627"/><text fill="#000000" font-family="sans-serif" font-size="8.25" lengthAdjust="spacing" textLength="72.75" x="448.875" y="801.1912">testParameterResult</text><rect fill="none" height="4.5" style="stroke:#C82930;stroke-width:0.75;" width="4.5" x="439.875" y="806.0039"/><text fill="#000000" font-family="sans-serif" font-size="8.25" lengthAdjust="spacing" textLength="72" x="448.875" y="811.5681">testParameterMetric</text><rect fill="none" height="4.5" style="stroke:#C82930;stroke-width:0.75;" width="4.5" x="439.875" y="816.3809"/><text fill="#000000" font-family="sans-serif" font-size="8.25" lengthAdjust="spacing" textLength="96" x="448.875" y="821.9451">testParameterMinRefValue</text><rect fill="none" height="4.5" style="stroke:#C82930;stroke-width:0.75;" width="4.5" x="439.875" y="826.7578"/><text fill="#000000" font-family="sans-serif" font-size="8.25" lengthAdjust="spacing" textLength="99" x="448.875" y="832.322">testParameterMaxRefValue</text><rect fill="none" height="4.5" style="stroke:#C82930;stroke-width:0.75;" width="4.5" x="439.875" y="837.1348"/><text fill="#000000" font-family="sans-serif" font-size="8.25" lengthAdjust="spacing" textLength="53.25" x="448.875" y="842.699">refValueMetric</text><line style="stroke:#A80036;stroke-width:0.75;" x1="434.625" x2="555.375" y1="847.5117" y2="847.5117"/><ellipse cx="442.125" cy="855.7617" fill="#84BE84" rx="2.25" ry="2.25" style="stroke:#038048;stroke-width:0.75;"/><text fill="#000000" font-family="sans-serif" font-size="8.25" lengthAdjust="spacing" textLength="74.25" x="448.875" y="859.0759">getParameterName()</text><ellipse cx="442.125" cy="866.1387" fill="#84BE84" rx="2.25" ry="2.25" style="stroke:#038048;stroke-width:0.75;"/><text fill="#000000" font-family="sans-serif" font-size="8.25" lengthAdjust="spacing" textLength="76.5" x="448.875" y="869.4529">getParameterResult()</text><ellipse cx="442.125" cy="876.5156" fill="#84BE84" rx="2.25" ry="2.25" style="stroke:#038048;stroke-width:0.75;"/><text fill="#000000" font-family="sans-serif" font-size="8.25" lengthAdjust="spacing" textLength="75.75" x="448.875" y="879.8298">getParameterMetric()</text><ellipse cx="442.125" cy="886.8926" fill="#84BE84" rx="2.25" ry="2.25" style="stroke:#038048;stroke-width:0.75;"/><text fill="#000000" font-family="sans-serif" font-size="8.25" lengthAdjust="spacing" textLength="99.75" x="448.875" y="890.2068">getParameterMinRefValue()</text><ellipse cx="442.125" cy="897.2695" fill="#84BE84" rx="2.25" ry="2.25" style="stroke:#038048;stroke-width:0.75;"/><text fill="#000000" font-family="sans-serif" font-size="8.25" lengthAdjust="spacing" textLength="102.75" x="448.875" y="900.5837">getParameterMaxRefValue()</text><ellipse cx="442.125" cy="907.6465" fill="#84BE84" rx="2.25" ry="2.25" style="stroke:#038048;stroke-width:0.75;"/><text fill="#000000" font-family="sans-serif" font-size="8.25" lengthAdjust="spacing" textLength="72.75" x="448.875" y="910.9607">getRefValueMetric()</text><!--MD5=[b2d1f399f1909a0bb241ed0598ba126f]
class MedicalReport--><rect codeLine="65" fill="#FEFECE" filter="url(#f1214sk03mtw3l)" height="56.7539" id="MedicalReport" style="stroke:#A80036;stroke-width:1.125;" width="83.25" x="645.375" y="807"/><ellipse cx="656.625" cy="819" fill="#ADD1B2" rx="8.25" ry="8.25" style="stroke:#A80036;stroke-width:0.75;"/><path d="M658.125,816.375 Q658.2773,816 658.4531,815.8125 Q658.6289,815.625 658.8281,815.625 Q659.1797,815.625 659.4023,815.8359 Q659.625,816.0469 659.625,816.5391 L659.625,817.7109 Q659.625,818.2031 659.4141,818.4141 Q659.2031,818.625 658.875,818.625 Q658.582,818.625 658.3945,818.4961 Q658.207,818.3672 658.125,818.0273 Q658.0898,817.793 657.9609,817.6641 Q657.7266,817.418 657.3047,817.2773 Q656.8828,817.125 656.4609,817.125 Q655.9336,817.125 655.4883,817.3359 Q655.0547,817.5469 654.7148,818.0156 Q654.375,818.4844 654.375,819.1289 L654.375,819.8203 Q654.375,820.5938 655.0078,821.1094 Q655.6406,821.625 656.7656,821.625 Q657.4336,821.625 657.9023,821.4727 Q658.1719,821.3906 658.4766,821.1211 Q658.6758,820.9688 658.7813,820.9219 Q658.8867,820.875 659.0156,820.875 Q659.2617,820.875 659.4375,821.0742 Q659.625,821.2617 659.625,821.5313 Q659.625,821.7891 659.3672,822.0938 Q658.9922,822.5391 658.3945,822.7852 Q657.6094,823.125 656.6484,823.125 Q655.5234,823.125 654.6211,822.6797 Q653.8945,822.3281 653.3789,821.5664 Q652.875,820.8047 652.875,819.9023 L652.875,819.082 Q652.875,818.1445 653.3203,817.3242 Q653.7773,816.5039 654.5625,816.0703 Q655.3594,815.625 656.25,815.625 Q656.7891,815.625 657.2578,815.8125 Q657.7266,816 658.125,816.375 Z " fill="#000000"/><text fill="#000000" font-family="sans-serif" font-size="9" lengthAdjust="spacing" textLength="59.25" x="667.125" y="822.6826">MedicalReport</text><line style="stroke:#A80036;stroke-width:1.125;" x1="646.125" x2="727.875" y1="831" y2="831"/><rect fill="none" height="4.5" style="stroke:#C82930;stroke-width:0.75;" width="4.5" x="651.375" y="837"/><text fill="#000000" font-family="sans-serif" font-size="8.25" lengthAdjust="spacing" textLength="57.75" x="660.375" y="842.5642">String diagnosis</text><rect fill="none" height="4.5" style="stroke:#C82930;stroke-width:0.75;" width="4.5" x="651.375" y="847.377"/><text fill="#000000" font-family="sans-serif" font-size="8.25" lengthAdjust="spacing" textLength="54.75" x="660.375" y="852.9412">Date createdAt</text><line style="stroke:#A80036;stroke-width:1.125;" x1="646.125" x2="727.875" y1="857.7539" y2="857.7539"/><!--MD5=[ed6624c6556d5e7b1bd23032162d20b7]
class Client--><rect codeLine="69" fill="#FEFECE" filter="url(#f1214sk03mtw3l)" height="119.0156" id="Client" style="stroke:#A80036;stroke-width:1.125;" width="111" x="680.25" y="590.25"/><ellipse cx="720.5625" cy="602.25" fill="#ADD1B2" rx="8.25" ry="8.25" style="stroke:#A80036;stroke-width:0.75;"/><path d="M722.0625,599.625 Q722.2148,599.25 722.3906,599.0625 Q722.5664,598.875 722.7656,598.875 Q723.1172,598.875 723.3398,599.0859 Q723.5625,599.2969 723.5625,599.7891 L723.5625,600.9609 Q723.5625,601.4531 723.3516,601.6641 Q723.1406,601.875 722.8125,601.875 Q722.5195,601.875 722.332,601.7461 Q722.1445,601.6172 722.0625,601.2773 Q722.0273,601.043 721.8984,600.9141 Q721.6641,600.668 721.2422,600.5273 Q720.8203,600.375 720.3984,600.375 Q719.8711,600.375 719.4258,600.5859 Q718.9922,600.7969 718.6523,601.2656 Q718.3125,601.7344 718.3125,602.3789 L718.3125,603.0703 Q718.3125,603.8438 718.9453,604.3594 Q719.5781,604.875 720.7031,604.875 Q721.3711,604.875 721.8398,604.7227 Q722.1094,604.6406 722.4141,604.3711 Q722.6133,604.2188 722.7188,604.1719 Q722.8242,604.125 722.9531,604.125 Q723.1992,604.125 723.375,604.3242 Q723.5625,604.5117 723.5625,604.7813 Q723.5625,605.0391 723.3047,605.3438 Q722.9297,605.7891 722.332,606.0352 Q721.5469,606.375 720.5859,606.375 Q719.4609,606.375 718.5586,605.9297 Q717.832,605.5781 717.3164,604.8164 Q716.8125,604.0547 716.8125,603.1523 L716.8125,602.332 Q716.8125,601.3945 717.2578,600.5742 Q717.7148,599.7539 718.5,599.3203 Q719.2969,598.875 720.1875,598.875 Q720.7266,598.875 721.1953,599.0625 Q721.6641,599.25 722.0625,599.625 Z " fill="#000000"/><text fill="#000000" font-family="sans-serif" font-size="9" lengthAdjust="spacing" textLength="24" x="735.9375" y="605.9326">Client</text><line style="stroke:#A80036;stroke-width:1.125;" x1="681" x2="790.5" y1="614.25" y2="614.25"/><rect fill="none" height="4.5" style="stroke:#C82930;stroke-width:0.75;" width="4.5" x="686.25" y="620.25"/><text fill="#000000" font-family="sans-serif" font-size="8.25" lengthAdjust="spacing" textLength="42.75" x="695.25" y="625.8142">String name</text><rect fill="none" height="4.5" style="stroke:#C82930;stroke-width:0.75;" width="4.5" x="686.25" y="630.627"/><text fill="#000000" font-family="sans-serif" font-size="8.25" lengthAdjust="spacing" textLength="41.25" x="695.25" y="636.1912">String email</text><rect fill="none" height="4.5" style="stroke:#C82930;stroke-width:0.75;" width="4.5" x="686.25" y="641.0039"/><text fill="#000000" font-family="sans-serif" font-size="8.25" lengthAdjust="spacing" textLength="73.5" x="695.25" y="646.5681">String phoneNumber</text><rect fill="none" height="4.5" style="stroke:#C82930;stroke-width:0.75;" width="4.5" x="686.25" y="651.3809"/><text fill="#000000" font-family="sans-serif" font-size="8.25" lengthAdjust="spacing" textLength="36.75" x="695.25" y="656.9451">String sex</text><rect fill="none" height="4.5" style="stroke:#C82930;stroke-width:0.75;" width="4.5" x="686.25" y="661.7578"/><text fill="#000000" font-family="sans-serif" font-size="8.25" lengthAdjust="spacing" textLength="31.5" x="695.25" y="667.322">String tin</text><rect fill="none" height="4.5" style="stroke:#C82930;stroke-width:0.75;" width="4.5" x="686.25" y="672.1348"/><text fill="#000000" font-family="sans-serif" font-size="8.25" lengthAdjust="spacing" textLength="55.5" x="695.25" y="677.699">String birthDate</text><rect fill="none" height="4.5" style="stroke:#C82930;stroke-width:0.75;" width="4.5" x="686.25" y="682.5117"/><text fill="#000000" font-family="sans-serif" font-size="8.25" lengthAdjust="spacing" textLength="64.5" x="695.25" y="688.0759">String nhsNumber</text><rect fill="none" height="4.5" style="stroke:#C82930;stroke-width:0.75;" width="4.5" x="686.25" y="692.8887"/><text fill="#000000" font-family="sans-serif" font-size="8.25" lengthAdjust="spacing" textLength="91.5" x="695.25" y="698.4529">String citizenCardNumber</text><line style="stroke:#A80036;stroke-width:1.125;" x1="681" x2="790.5" y1="703.2656" y2="703.2656"/><!--MD5=[0f6f7964b844a64b0496af0dda7914bd]
class TestStore--><rect codeLine="83" fill="#FEFECE" filter="url(#f1214sk03mtw3l)" height="67.1309" id="TestStore" style="stroke:#A80036;stroke-width:1.125;" width="153.75" x="841.875" y="417.75"/><ellipse cx="895.6875" cy="429.75" fill="#ADD1B2" rx="8.25" ry="8.25" style="stroke:#A80036;stroke-width:0.75;"/><path d="M897.1875,427.125 Q897.3398,426.75 897.5156,426.5625 Q897.6914,426.375 897.8906,426.375 Q898.2422,426.375 898.4648,426.5859 Q898.6875,426.7969 898.6875,427.2891 L898.6875,428.4609 Q898.6875,428.9531 898.4766,429.1641 Q898.2656,429.375 897.9375,429.375 Q897.6445,429.375 897.457,429.2461 Q897.2695,429.1172 897.1875,428.7773 Q897.1523,428.543 897.0234,428.4141 Q896.7891,428.168 896.3672,428.0273 Q895.9453,427.875 895.5234,427.875 Q894.9961,427.875 894.5508,428.0859 Q894.1172,428.2969 893.7773,428.7656 Q893.4375,429.2344 893.4375,429.8789 L893.4375,430.5703 Q893.4375,431.3438 894.0703,431.8594 Q894.7031,432.375 895.8281,432.375 Q896.4961,432.375 896.9648,432.2227 Q897.2344,432.1406 897.5391,431.8711 Q897.7383,431.7188 897.8438,431.6719 Q897.9492,431.625 898.0781,431.625 Q898.3242,431.625 898.5,431.8242 Q898.6875,432.0117 898.6875,432.2813 Q898.6875,432.5391 898.4297,432.8438 Q898.0547,433.2891 897.457,433.5352 Q896.6719,433.875 895.7109,433.875 Q894.5859,433.875 893.6836,433.4297 Q892.957,433.0781 892.4414,432.3164 Q891.9375,431.5547 891.9375,430.6523 L891.9375,429.832 Q891.9375,428.8945 892.3828,428.0742 Q892.8398,427.2539 893.625,426.8203 Q894.4219,426.375 895.3125,426.375 Q895.8516,426.375 896.3203,426.5625 Q896.7891,426.75 897.1875,427.125 Z " fill="#000000"/><text fill="#000000" font-family="sans-serif" font-size="9" lengthAdjust="spacing" textLength="39.75" x="911.0625" y="433.4326">TestStore</text><line style="stroke:#A80036;stroke-width:1.125;" x1="842.625" x2="994.875" y1="441.75" y2="441.75"/><line style="stroke:#A80036;stroke-width:1.125;" x1="842.625" x2="994.875" y1="447.75" y2="447.75"/><ellipse cx="850.125" cy="456" fill="#84BE84" rx="2.25" ry="2.25" style="stroke:#038048;stroke-width:0.75;"/><text fill="#000000" font-family="sans-serif" font-size="8.25" lengthAdjust="spacing" textLength="122.25" x="856.875" y="459.3142">getTestListAssociatedWithClient()</text><ellipse cx="850.125" cy="466.377" fill="#84BE84" rx="2.25" ry="2.25" style="stroke:#038048;stroke-width:0.75;"/><text fill="#000000" font-family="sans-serif" font-size="8.25" lengthAdjust="spacing" textLength="134.25" x="856.875" y="469.6912">orderClientTestsByRegistrationDate()</text><ellipse cx="850.125" cy="476.7539" fill="#84BE84" rx="2.25" ry="2.25" style="stroke:#038048;stroke-width:0.75;"/><text fill="#000000" font-family="sans-serif" font-size="8.25" lengthAdjust="spacing" textLength="105.75" x="856.875" y="480.0681">getTestByInternalCode(code)</text><!--MD5=[55cb992be19579b505cea3c5691093cb]
class ClientStore--><rect codeLine="88" fill="#FEFECE" filter="url(#f1214sk03mtw3l)" height="46.377" id="ClientStore" style="stroke:#A80036;stroke-width:1.125;" width="102" x="1022.25" y="428.25"/><ellipse cx="1048.0125" cy="440.25" fill="#ADD1B2" rx="8.25" ry="8.25" style="stroke:#A80036;stroke-width:0.75;"/><path d="M1049.5125,437.625 Q1049.6648,437.25 1049.8406,437.0625 Q1050.0164,436.875 1050.2156,436.875 Q1050.5672,436.875 1050.7898,437.0859 Q1051.0125,437.2969 1051.0125,437.7891 L1051.0125,438.9609 Q1051.0125,439.4531 1050.8016,439.6641 Q1050.5906,439.875 1050.2625,439.875 Q1049.9695,439.875 1049.782,439.7461 Q1049.5945,439.6172 1049.5125,439.2773 Q1049.4773,439.043 1049.3484,438.9141 Q1049.1141,438.668 1048.6922,438.5273 Q1048.2703,438.375 1047.8484,438.375 Q1047.3211,438.375 1046.8758,438.5859 Q1046.4422,438.7969 1046.1023,439.2656 Q1045.7625,439.7344 1045.7625,440.3789 L1045.7625,441.0703 Q1045.7625,441.8438 1046.3953,442.3594 Q1047.0281,442.875 1048.1531,442.875 Q1048.8211,442.875 1049.2898,442.7227 Q1049.5594,442.6406 1049.8641,442.3711 Q1050.0633,442.2188 1050.1687,442.1719 Q1050.2742,442.125 1050.4031,442.125 Q1050.6492,442.125 1050.825,442.3242 Q1051.0125,442.5117 1051.0125,442.7813 Q1051.0125,443.0391 1050.7547,443.3438 Q1050.3797,443.7891 1049.782,444.0352 Q1048.9969,444.375 1048.0359,444.375 Q1046.9109,444.375 1046.0086,443.9297 Q1045.282,443.5781 1044.7664,442.8164 Q1044.2625,442.0547 1044.2625,441.1523 L1044.2625,440.332 Q1044.2625,439.3945 1044.7078,438.5742 Q1045.1648,437.7539 1045.95,437.3203 Q1046.7469,436.875 1047.6375,436.875 Q1048.1766,436.875 1048.6453,437.0625 Q1049.1141,437.25 1049.5125,437.625 Z " fill="#000000"/><text fill="#000000" font-family="sans-serif" font-size="9" lengthAdjust="spacing" textLength="45.75" x="1061.7375" y="443.9326">ClientStore</text><line style="stroke:#A80036;stroke-width:1.125;" x1="1023" x2="1123.5" y1="452.25" y2="452.25"/><line style="stroke:#A80036;stroke-width:1.125;" x1="1023" x2="1123.5" y1="458.25" y2="458.25"/><ellipse cx="1030.5" cy="466.5" fill="#84BE84" rx="2.25" ry="2.25" style="stroke:#038048;stroke-width:0.75;"/><text fill="#000000" font-family="sans-serif" font-size="8.25" lengthAdjust="spacing" textLength="82.5" x="1037.25" y="469.8142">getClientByEmail(email)</text><!--MD5=[144698ec4d0188f6929a3b58a3eeb1f6]
class TestMapper--><rect codeLine="95" fill="#FEFECE" filter="url(#f1214sk03mtw3l)" height="46.377" id="TestMapper" style="stroke:#A80036;stroke-width:1.125;" width="72.75" x="502.125" y="261"/><ellipse cx="513.375" cy="273" fill="#ADD1B2" rx="8.25" ry="8.25" style="stroke:#A80036;stroke-width:0.75;"/><path d="M514.875,270.375 Q515.0273,270 515.2031,269.8125 Q515.3789,269.625 515.5781,269.625 Q515.9297,269.625 516.1523,269.8359 Q516.375,270.0469 516.375,270.5391 L516.375,271.7109 Q516.375,272.2031 516.1641,272.4141 Q515.9531,272.625 515.625,272.625 Q515.332,272.625 515.1445,272.4961 Q514.957,272.3672 514.875,272.0273 Q514.8398,271.793 514.7109,271.6641 Q514.4766,271.418 514.0547,271.2773 Q513.6328,271.125 513.2109,271.125 Q512.6836,271.125 512.2383,271.3359 Q511.8047,271.5469 511.4648,272.0156 Q511.125,272.4844 511.125,273.1289 L511.125,273.8203 Q511.125,274.5938 511.7578,275.1094 Q512.3906,275.625 513.5156,275.625 Q514.1836,275.625 514.6523,275.4727 Q514.9219,275.3906 515.2266,275.1211 Q515.4258,274.9688 515.5313,274.9219 Q515.6367,274.875 515.7656,274.875 Q516.0117,274.875 516.1875,275.0742 Q516.375,275.2617 516.375,275.5313 Q516.375,275.7891 516.1172,276.0938 Q515.7422,276.5391 515.1445,276.7852 Q514.3594,277.125 513.3984,277.125 Q512.2734,277.125 511.3711,276.6797 Q510.6445,276.3281 510.1289,275.5664 Q509.625,274.8047 509.625,273.9023 L509.625,273.082 Q509.625,272.1445 510.0703,271.3242 Q510.5273,270.5039 511.3125,270.0703 Q512.1094,269.625 513,269.625 Q513.5391,269.625 514.0078,269.8125 Q514.4766,270 514.875,270.375 Z " fill="#000000"/><text fill="#000000" font-family="sans-serif" font-size="9" lengthAdjust="spacing" textLength="48.75" x="523.875" y="276.6826">TestMapper</text><line style="stroke:#A80036;stroke-width:1.125;" x1="502.875" x2="574.125" y1="285" y2="285"/><line style="stroke:#A80036;stroke-width:1.125;" x1="502.875" x2="574.125" y1="291" y2="291"/><ellipse cx="510.375" cy="299.25" fill="#84BE84" rx="2.25" ry="2.25" style="stroke:#038048;stroke-width:0.75;"/><text fill="#000000" font-family="sans-serif" font-size="8.25" lengthAdjust="spacing" textLength="51" x="517.125" y="302.5642">toDto(testList)</text><!--MD5=[7301aa9517ef937f4fbafc6fd10bb780]
class TestResultsMapper--><rect codeLine="98" fill="#FEFECE" filter="url(#f1214sk03mtw3l)" height="46.377" id="TestResultsMapper" style="stroke:#A80036;stroke-width:1.125;" width="105" x="228" y="261"/><ellipse cx="239.25" cy="273" fill="#ADD1B2" rx="8.25" ry="8.25" style="stroke:#A80036;stroke-width:0.75;"/><path d="M240.75,270.375 Q240.9023,270 241.0781,269.8125 Q241.2539,269.625 241.4531,269.625 Q241.8047,269.625 242.0273,269.8359 Q242.25,270.0469 242.25,270.5391 L242.25,271.7109 Q242.25,272.2031 242.0391,272.4141 Q241.8281,272.625 241.5,272.625 Q241.207,272.625 241.0195,272.4961 Q240.832,272.3672 240.75,272.0273 Q240.7148,271.793 240.5859,271.6641 Q240.3516,271.418 239.9297,271.2773 Q239.5078,271.125 239.0859,271.125 Q238.5586,271.125 238.1133,271.3359 Q237.6797,271.5469 237.3398,272.0156 Q237,272.4844 237,273.1289 L237,273.8203 Q237,274.5938 237.6328,275.1094 Q238.2656,275.625 239.3906,275.625 Q240.0586,275.625 240.5273,275.4727 Q240.7969,275.3906 241.1016,275.1211 Q241.3008,274.9688 241.4063,274.9219 Q241.5117,274.875 241.6406,274.875 Q241.8867,274.875 242.0625,275.0742 Q242.25,275.2617 242.25,275.5313 Q242.25,275.7891 241.9922,276.0938 Q241.6172,276.5391 241.0195,276.7852 Q240.2344,277.125 239.2734,277.125 Q238.1484,277.125 237.2461,276.6797 Q236.5195,276.3281 236.0039,275.5664 Q235.5,274.8047 235.5,273.9023 L235.5,273.082 Q235.5,272.1445 235.9453,271.3242 Q236.4023,270.5039 237.1875,270.0703 Q237.9844,269.625 238.875,269.625 Q239.4141,269.625 239.8828,269.8125 Q240.3516,270 240.75,270.375 Z " fill="#000000"/><text fill="#000000" font-family="sans-serif" font-size="9" lengthAdjust="spacing" textLength="81" x="249.75" y="276.6826">TestResultsMapper</text><line style="stroke:#A80036;stroke-width:1.125;" x1="228.75" x2="332.25" y1="285" y2="285"/><line style="stroke:#A80036;stroke-width:1.125;" x1="228.75" x2="332.25" y1="291" y2="291"/><ellipse cx="236.25" cy="299.25" fill="#84BE84" rx="2.25" ry="2.25" style="stroke:#038048;stroke-width:0.75;"/><text fill="#000000" font-family="sans-serif" font-size="8.25" lengthAdjust="spacing" textLength="38.25" x="243" y="302.5642">toDto(test)</text><!--MD5=[a82d32c079496d6dca2681dc0633feb0]
class TestParameterMapper--><rect codeLine="101" fill="#FEFECE" filter="url(#f1214sk03mtw3l)" height="46.377" id="TestParameterMapper" style="stroke:#A80036;stroke-width:1.125;" width="116.25" x="359.625" y="261"/><ellipse cx="370.875" cy="273" fill="#ADD1B2" rx="8.25" ry="8.25" style="stroke:#A80036;stroke-width:0.75;"/><path d="M372.375,270.375 Q372.5273,270 372.7031,269.8125 Q372.8789,269.625 373.0781,269.625 Q373.4297,269.625 373.6523,269.8359 Q373.875,270.0469 373.875,270.5391 L373.875,271.7109 Q373.875,272.2031 373.6641,272.4141 Q373.4531,272.625 373.125,272.625 Q372.832,272.625 372.6445,272.4961 Q372.457,272.3672 372.375,272.0273 Q372.3398,271.793 372.2109,271.6641 Q371.9766,271.418 371.5547,271.2773 Q371.1328,271.125 370.7109,271.125 Q370.1836,271.125 369.7383,271.3359 Q369.3047,271.5469 368.9648,272.0156 Q368.625,272.4844 368.625,273.1289 L368.625,273.8203 Q368.625,274.5938 369.2578,275.1094 Q369.8906,275.625 371.0156,275.625 Q371.6836,275.625 372.1523,275.4727 Q372.4219,275.3906 372.7266,275.1211 Q372.9258,274.9688 373.0313,274.9219 Q373.1367,274.875 373.2656,274.875 Q373.5117,274.875 373.6875,275.0742 Q373.875,275.2617 373.875,275.5313 Q373.875,275.7891 373.6172,276.0938 Q373.2422,276.5391 372.6445,276.7852 Q371.8594,277.125 370.8984,277.125 Q369.7734,277.125 368.8711,276.6797 Q368.1445,276.3281 367.6289,275.5664 Q367.125,274.8047 367.125,273.9023 L367.125,273.082 Q367.125,272.1445 367.5703,271.3242 Q368.0273,270.5039 368.8125,270.0703 Q369.6094,269.625 370.5,269.625 Q371.0391,269.625 371.5078,269.8125 Q371.9766,270 372.375,270.375 Z " fill="#000000"/><text fill="#000000" font-family="sans-serif" font-size="9" lengthAdjust="spacing" textLength="92.25" x="381.375" y="276.6826">TestParameterMapper</text><line style="stroke:#A80036;stroke-width:1.125;" x1="360.375" x2="475.125" y1="285" y2="285"/><line style="stroke:#A80036;stroke-width:1.125;" x1="360.375" x2="475.125" y1="291" y2="291"/><ellipse cx="367.875" cy="299.25" fill="#84BE84" rx="2.25" ry="2.25" style="stroke:#038048;stroke-width:0.75;"/><text fill="#000000" font-family="sans-serif" font-size="8.25" lengthAdjust="spacing" textLength="96" x="374.625" y="302.5642">toDTO(testParametersList)</text><!--MD5=[d9af5e34e5bc78cd5a2caff02363fedd]
class ClientMapper--><rect codeLine="104" fill="#FEFECE" filter="url(#f1214sk03mtw3l)" height="46.377" id="ClientMapper" style="stroke:#A80036;stroke-width:1.125;" width="78.75" x="601.125" y="261"/><ellipse cx="612.375" cy="273" fill="#ADD1B2" rx="8.25" ry="8.25" style="stroke:#A80036;stroke-width:0.75;"/><path d="M613.875,270.375 Q614.0273,270 614.2031,269.8125 Q614.3789,269.625 614.5781,269.625 Q614.9297,269.625 615.1523,269.8359 Q615.375,270.0469 615.375,270.5391 L615.375,271.7109 Q615.375,272.2031 615.1641,272.4141 Q614.9531,272.625 614.625,272.625 Q614.332,272.625 614.1445,272.4961 Q613.957,272.3672 613.875,272.0273 Q613.8398,271.793 613.7109,271.6641 Q613.4766,271.418 613.0547,271.2773 Q612.6328,271.125 612.2109,271.125 Q611.6836,271.125 611.2383,271.3359 Q610.8047,271.5469 610.4648,272.0156 Q610.125,272.4844 610.125,273.1289 L610.125,273.8203 Q610.125,274.5938 610.7578,275.1094 Q611.3906,275.625 612.5156,275.625 Q613.1836,275.625 613.6523,275.4727 Q613.9219,275.3906 614.2266,275.1211 Q614.4258,274.9688 614.5313,274.9219 Q614.6367,274.875 614.7656,274.875 Q615.0117,274.875 615.1875,275.0742 Q615.375,275.2617 615.375,275.5313 Q615.375,275.7891 615.1172,276.0938 Q614.7422,276.5391 614.1445,276.7852 Q613.3594,277.125 612.3984,277.125 Q611.2734,277.125 610.3711,276.6797 Q609.6445,276.3281 609.1289,275.5664 Q608.625,274.8047 608.625,273.9023 L608.625,273.082 Q608.625,272.1445 609.0703,271.3242 Q609.5273,270.5039 610.3125,270.0703 Q611.1094,269.625 612,269.625 Q612.5391,269.625 613.0078,269.8125 Q613.4766,270 613.875,270.375 Z " fill="#000000"/><text fill="#000000" font-family="sans-serif" font-size="9" lengthAdjust="spacing" textLength="54.75" x="622.875" y="276.6826">ClientMapper</text><line style="stroke:#A80036;stroke-width:1.125;" x1="601.875" x2="679.125" y1="285" y2="285"/><line style="stroke:#A80036;stroke-width:1.125;" x1="601.875" x2="679.125" y1="291" y2="291"/><ellipse cx="609.375" cy="299.25" fill="#84BE84" rx="2.25" ry="2.25" style="stroke:#038048;stroke-width:0.75;"/><text fill="#000000" font-family="sans-serif" font-size="8.25" lengthAdjust="spacing" textLength="43.5" x="616.125" y="302.5642">toDto(client)</text><!--MD5=[1c38f6084f2098752e2974895ca67f4c]
class TestDto--><rect codeLine="111" fill="#FEFECE" filter="url(#f1214sk03mtw3l)" height="56.7539" id="TestDto" style="stroke:#A80036;stroke-width:1.125;" width="78" x="149.25" y="423"/><ellipse cx="170.2875" cy="435" fill="#ADD1B2" rx="8.25" ry="8.25" style="stroke:#A80036;stroke-width:0.75;"/><path d="M171.7875,432.375 Q171.9398,432 172.1156,431.8125 Q172.2914,431.625 172.4906,431.625 Q172.8422,431.625 173.0648,431.8359 Q173.2875,432.0469 173.2875,432.5391 L173.2875,433.7109 Q173.2875,434.2031 173.0766,434.4141 Q172.8656,434.625 172.5375,434.625 Q172.2445,434.625 172.057,434.4961 Q171.8695,434.3672 171.7875,434.0273 Q171.7523,433.793 171.6234,433.6641 Q171.3891,433.418 170.9672,433.2773 Q170.5453,433.125 170.1234,433.125 Q169.5961,433.125 169.1508,433.3359 Q168.7172,433.5469 168.3773,434.0156 Q168.0375,434.4844 168.0375,435.1289 L168.0375,435.8203 Q168.0375,436.5938 168.6703,437.1094 Q169.3031,437.625 170.4281,437.625 Q171.0961,437.625 171.5648,437.4727 Q171.8344,437.3906 172.1391,437.1211 Q172.3383,436.9688 172.4438,436.9219 Q172.5492,436.875 172.6781,436.875 Q172.9242,436.875 173.1,437.0742 Q173.2875,437.2617 173.2875,437.5313 Q173.2875,437.7891 173.0297,438.0938 Q172.6547,438.5391 172.057,438.7852 Q171.2719,439.125 170.3109,439.125 Q169.1859,439.125 168.2836,438.6797 Q167.557,438.3281 167.0414,437.5664 Q166.5375,436.8047 166.5375,435.9023 L166.5375,435.082 Q166.5375,434.1445 166.9828,433.3242 Q167.4398,432.5039 168.225,432.0703 Q169.0219,431.625 169.9125,431.625 Q170.4516,431.625 170.9203,431.8125 Q171.3891,432 171.7875,432.375 Z " fill="#000000"/><text fill="#000000" font-family="sans-serif" font-size="9" lengthAdjust="spacing" textLength="32.25" x="182.9625" y="438.6826">TestDto</text><line style="stroke:#A80036;stroke-width:1.125;" x1="150" x2="226.5" y1="447" y2="447"/><rect fill="none" height="4.5" style="stroke:#C82930;stroke-width:0.75;" width="4.5" x="155.25" y="453"/><text fill="#000000" font-family="sans-serif" font-size="8.25" lengthAdjust="spacing" textLength="58.5" x="164.25" y="458.5642">testInternalCode</text><rect fill="none" height="4.5" style="stroke:#C82930;stroke-width:0.75;" width="4.5" x="155.25" y="463.377"/><text fill="#000000" font-family="sans-serif" font-size="8.25" lengthAdjust="spacing" textLength="54" x="164.25" y="468.9412">testDescription</text><line style="stroke:#A80036;stroke-width:1.125;" x1="150" x2="226.5" y1="473.7539" y2="473.7539"/><!--MD5=[ac976734434c5552a2abaad0a734408b]
class TestResultDto--><rect codeLine="115" fill="#FEFECE" filter="url(#f1214sk03mtw3l)" height="56.7539" id="TestResultDto" style="stroke:#A80036;stroke-width:1.125;" width="99" x="24" y="423"/><ellipse cx="42.3375" cy="435" fill="#ADD1B2" rx="8.25" ry="8.25" style="stroke:#A80036;stroke-width:0.75;"/><path d="M43.8375,432.375 Q43.9898,432 44.1656,431.8125 Q44.3414,431.625 44.5406,431.625 Q44.8922,431.625 45.1148,431.8359 Q45.3375,432.0469 45.3375,432.5391 L45.3375,433.7109 Q45.3375,434.2031 45.1266,434.4141 Q44.9156,434.625 44.5875,434.625 Q44.2945,434.625 44.107,434.4961 Q43.9195,434.3672 43.8375,434.0273 Q43.8023,433.793 43.6734,433.6641 Q43.4391,433.418 43.0172,433.2773 Q42.5953,433.125 42.1734,433.125 Q41.6461,433.125 41.2008,433.3359 Q40.7672,433.5469 40.4273,434.0156 Q40.0875,434.4844 40.0875,435.1289 L40.0875,435.8203 Q40.0875,436.5938 40.7203,437.1094 Q41.3531,437.625 42.4781,437.625 Q43.1461,437.625 43.6148,437.4727 Q43.8844,437.3906 44.1891,437.1211 Q44.3883,436.9688 44.4938,436.9219 Q44.5992,436.875 44.7281,436.875 Q44.9742,436.875 45.15,437.0742 Q45.3375,437.2617 45.3375,437.5313 Q45.3375,437.7891 45.0797,438.0938 Q44.7047,438.5391 44.107,438.7852 Q43.3219,439.125 42.3609,439.125 Q41.2359,439.125 40.3336,438.6797 Q39.607,438.3281 39.0914,437.5664 Q38.5875,436.8047 38.5875,435.9023 L38.5875,435.082 Q38.5875,434.1445 39.0328,433.3242 Q39.4898,432.5039 40.275,432.0703 Q41.0719,431.625 41.9625,431.625 Q42.5016,431.625 42.9703,431.8125 Q43.4391,432 43.8375,432.375 Z " fill="#000000"/><text fill="#000000" font-family="sans-serif" font-size="9" lengthAdjust="spacing" textLength="59.25" x="54.4125" y="438.6826">TestResultDto</text><line style="stroke:#A80036;stroke-width:1.125;" x1="24.75" x2="122.25" y1="447" y2="447"/><rect fill="none" height="4.5" style="stroke:#C82930;stroke-width:0.75;" width="4.5" x="30" y="453"/><text fill="#000000" font-family="sans-serif" font-size="8.25" lengthAdjust="spacing" textLength="79.5" x="39" y="458.5642">testParametersListDto</text><rect fill="none" height="4.5" style="stroke:#C82930;stroke-width:0.75;" width="4.5" x="30" y="463.377"/><text fill="#000000" font-family="sans-serif" font-size="8.25" lengthAdjust="spacing" textLength="51" x="39" y="468.9412">medicalReport</text><line style="stroke:#A80036;stroke-width:1.125;" x1="24.75" x2="122.25" y1="473.7539" y2="473.7539"/><!--MD5=[fa2f44d2bdbb0499bd765719ad83ddd6]
class TestParameterDto--><rect codeLine="119" fill="#FEFECE" filter="url(#f1214sk03mtw3l)" height="36" id="TestParameterDto" style="stroke:#A80036;stroke-width:1.125;" width="99.75" x="253.875" y="433.5"/><ellipse cx="265.125" cy="445.5" fill="#ADD1B2" rx="8.25" ry="8.25" style="stroke:#A80036;stroke-width:0.75;"/><path d="M266.625,442.875 Q266.7773,442.5 266.9531,442.3125 Q267.1289,442.125 267.3281,442.125 Q267.6797,442.125 267.9023,442.3359 Q268.125,442.5469 268.125,443.0391 L268.125,444.2109 Q268.125,444.7031 267.9141,444.9141 Q267.7031,445.125 267.375,445.125 Q267.082,445.125 266.8945,444.9961 Q266.707,444.8672 266.625,444.5273 Q266.5898,444.293 266.4609,444.1641 Q266.2266,443.918 265.8047,443.7773 Q265.3828,443.625 264.9609,443.625 Q264.4336,443.625 263.9883,443.8359 Q263.5547,444.0469 263.2148,444.5156 Q262.875,444.9844 262.875,445.6289 L262.875,446.3203 Q262.875,447.0938 263.5078,447.6094 Q264.1406,448.125 265.2656,448.125 Q265.9336,448.125 266.4023,447.9727 Q266.6719,447.8906 266.9766,447.6211 Q267.1758,447.4688 267.2813,447.4219 Q267.3867,447.375 267.5156,447.375 Q267.7617,447.375 267.9375,447.5742 Q268.125,447.7617 268.125,448.0313 Q268.125,448.2891 267.8672,448.5938 Q267.4922,449.0391 266.8945,449.2852 Q266.1094,449.625 265.1484,449.625 Q264.0234,449.625 263.1211,449.1797 Q262.3945,448.8281 261.8789,448.0664 Q261.375,447.3047 261.375,446.4023 L261.375,445.582 Q261.375,444.6445 261.8203,443.8242 Q262.2773,443.0039 263.0625,442.5703 Q263.8594,442.125 264.75,442.125 Q265.2891,442.125 265.7578,442.3125 Q266.2266,442.5 266.625,442.875 Z " fill="#000000"/><text fill="#000000" font-family="sans-serif" font-size="9" lengthAdjust="spacing" textLength="75.75" x="275.625" y="449.1826">TestParameterDto</text><line style="stroke:#A80036;stroke-width:1.125;" x1="254.625" x2="352.875" y1="457.5" y2="457.5"/><line style="stroke:#A80036;stroke-width:1.125;" x1="254.625" x2="352.875" y1="463.5" y2="463.5"/><!--MD5=[3994f36c72829dbcddd1cf7021dddf61]
link Test to Client--><path codeLine="123" d="M649.0125,531.7575 C663.4425,551.2875 678.6375,571.8525 692.2125,590.2125 " fill="none" id="Test-Client" style="stroke:#A80036;stroke-width:0.75;"/><polygon fill="#000000" points="677.2288,564.1476,674.9695,557.382,671.4242,560.002,677.2288,564.1476" style="stroke:#000000;stroke-width:0.75;"/><text fill="#000000" font-family="sans-serif" font-size="9.75" lengthAdjust="spacing" textLength="55.5" x="681.75" y="565.1213">associated a</text><text fill="#000000" font-family="sans-serif" font-size="9.75" lengthAdjust="spacing" textLength="15" x="637.6169" y="547.9523">1..*</text><text fill="#000000" font-family="sans-serif" font-size="9.75" lengthAdjust="spacing" textLength="5.25" x="682.5626" y="582.0991">1</text><!--MD5=[c3238c64a9072feb51e313e35a850213]
link Test to MedicalReport--><path codeLine="124" d="M593.8125,531.9525 C597.7875,583.5225 606.195,651.5925 624,709.5 C634.8375,744.75 654.9075,782.145 669.495,806.7975 " fill="none" id="Test-MedicalReport" style="stroke:#A80036;stroke-width:0.75;"/><polygon fill="#000000" points="628.7456,653.6223,629.0697,646.4967,624.8195,647.6671,628.7456,653.6223" style="stroke:#000000;stroke-width:0.75;"/><text fill="#000000" font-family="sans-serif" font-size="9.75" lengthAdjust="spacing" textLength="32.25" x="634.5" y="653.9963">request</text><text fill="#000000" font-family="sans-serif" font-size="9.75" lengthAdjust="spacing" textLength="5.25" x="588.6255" y="547.8904">1</text><text fill="#000000" font-family="sans-serif" font-size="9.75" lengthAdjust="spacing" textLength="5.25" x="660.6593" y="798.7829">1</text><!--MD5=[f24c888dadeb846430474fe80a58922b]
link Test to TestParameter--><path codeLine="125" d="M529.0125,520.1775 C506.715,546.615 485.58,574.335 480,590.25 C461.4675,643.125 465.99,706.335 474.735,755.2425 " fill="none" id="Test-TestParameter" style="stroke:#A80036;stroke-width:0.75;"/><polygon fill="#000000" points="482.9063,653.6607,486.5802,647.5467,482.2849,646.5549,482.9063,653.6607" style="stroke:#000000;stroke-width:0.75;"/><text fill="#000000" font-family="sans-serif" font-size="9.75" lengthAdjust="spacing" textLength="87" x="490.5" y="653.9963">requests analysis of</text><text fill="#000000" font-family="sans-serif" font-size="9.75" lengthAdjust="spacing" textLength="5.25" x="517.8752" y="524.088">1</text><text fill="#000000" font-family="sans-serif" font-size="9.75" lengthAdjust="spacing" textLength="15" x="457.696" y="747.0381">1..*</text><!--MD5=[37c638f274989fd2ff1f9f9e14db4974]
link ViewResultsUI to ViewResultsController--><path codeLine="127" d="M413.7675,55.8675 C551.88,74.1075 989.0325,131.835 1162.53,154.7475 " fill="none" id="ViewResultsUI-to-ViewResultsController" style="stroke:#A80036;stroke-width:0.75;stroke-dasharray:7.0,7.0;"/><polygon fill="#A80036" points="1166.325,155.25,1160.0278,151.389,1162.6075,154.7572,1159.2393,157.3369,1166.325,155.25" style="stroke:#A80036;stroke-width:0.75;"/><!--MD5=[b54267d64ea8966f9bfe406cf2a9b146]
link ViewResultsUI to TestResultDto--><path codeLine="128" d="M328.68,64.1175 C265.6725,87.1125 149.2125,139.5825 95.25,228 C58.92,287.52 62.835,373.05 68.43,418.8825 " fill="none" id="ViewResultsUI-to-TestResultDto" style="stroke:#A80036;stroke-width:0.75;stroke-dasharray:7.0,7.0;"/><polygon fill="#A80036" points="68.9025,422.6475,71.0296,415.5737,68.4308,418.9273,65.0772,416.3285,68.9025,422.6475" style="stroke:#A80036;stroke-width:0.75;"/><!--MD5=[7fe959bc6e6573af25d689ff0af6628a]
link App to UserSession--><path codeLine="130" d="M1226.9325,485.4225 C1232.9775,524.1225 1242.8475,587.31 1248.39,622.8 " fill="none" id="App-to-UserSession" style="stroke:#A80036;stroke-width:0.75;stroke-dasharray:7.0,7.0;"/><polygon fill="#A80036" points="1248.975,626.565,1250.8982,619.4331,1248.3967,622.8599,1244.97,620.3583,1248.975,626.565" style="stroke:#A80036;stroke-width:0.75;"/><!--MD5=[1d563a6ab1f72eec6e2cdbd165653687]
link ViewResultsController to TestMapper--><path codeLine="132" d="M1166.415,166.1025 C1021.5375,167.8425 687.8175,177.39 588,228 C574.74,234.7275 563.3925,246.63 554.9175,257.7 " fill="none" id="ViewResultsController-to-TestMapper" style="stroke:#A80036;stroke-width:0.75;stroke-dasharray:7.0,7.0;"/><polygon fill="#A80036" points="552.6075,260.79,559.0492,257.1752,554.8506,257.7849,554.241,253.5862,552.6075,260.79" style="stroke:#A80036;stroke-width:0.75;"/><!--MD5=[6eeffc2936929e77439a3966f5fc8ed9]
link ViewResultsController to TestResultsMapper--><path codeLine="133" d="M1166.31,165.1275 C985.035,164.3175 494.9475,167.9175 346.5,228 C330.255,234.5775 315.06,246.7425 303.36,258.015 " fill="none" id="ViewResultsController-to-TestResultsMapper" style="stroke:#A80036;stroke-width:0.75;stroke-dasharray:7.0,7.0;"/><polygon fill="#A80036" points="300.4575,260.8575,307.3782,258.2756,303.1358,258.2328,303.1787,253.9903,300.4575,260.8575" style="stroke:#A80036;stroke-width:0.75;"/><!--MD5=[e43daab4c0ae7af5707270bfa79c6bd7]
link ViewResultsController to TestParameterMapper--><path codeLine="134" d="M1166.475,166.5 C1006.6575,169.0425 611.4825,180.135 489,228 C471.7575,234.735 455.265,247.065 442.4925,258.3975 " fill="none" id="ViewResultsController-to-TestParameterMapper" style="stroke:#A80036;stroke-width:0.75;stroke-dasharray:7.0,7.0;"/><polygon fill="#A80036" points="439.665,260.9475,446.6891,258.6619,442.4524,258.4389,442.6753,254.2021,439.665,260.9475" style="stroke:#A80036;stroke-width:0.75;"/><!--MD5=[399979d7e2a4ff1b7c8ce104a6913b84]
link ViewResultsController to ClientMapper--><path codeLine="135" d="M1166.385,167.0625 C1041.4275,170.4075 780.9825,182.01 700.5,221.25 C683.565,229.5075 668.8125,244.6275 658.1775,257.9025 " fill="none" id="ViewResultsController-to-ClientMapper" style="stroke:#A80036;stroke-width:0.75;stroke-dasharray:7.0,7.0;"/><polygon fill="#A80036" points="655.8375,260.88,662.3662,257.4248,658.1539,257.9309,657.6477,253.7186,655.8375,260.88" style="stroke:#A80036;stroke-width:0.75;"/><!--MD5=[9fee3abfbac3d80a41d2d62992df500c]
link ViewResultsController to TestDto--><path codeLine="136" d="M1166.5875,167.535 C944.295,173.6925 250.68,195.435 216,228 C163.8075,277.005 172.2375,370.395 181.155,419.22 " fill="none" id="ViewResultsController-to-TestDto" style="stroke:#A80036;stroke-width:0.75;stroke-dasharray:7.0,7.0;"/><polygon fill="#A80036" points="181.8525,422.9475,183.5471,415.7579,181.1562,419.2627,177.6514,416.8719,181.8525,422.9475" style="stroke:#A80036;stroke-width:0.75;"/><!--MD5=[b682c904f4429813952e8841dddbc911]
link ViewResultsController to TestResultDto--><path codeLine="137" d="M1166.4525,165.4275 C944.16,164.955 248.985,168.3075 169.5,228 C107.3925,274.6425 84.945,369.705 77.25,419.205 " fill="none" id="ViewResultsController-to-TestResultDto" style="stroke:#A80036;stroke-width:0.75;stroke-dasharray:7.0,7.0;"/><polygon fill="#A80036" points="76.68,422.9775,80.6675,416.7596,77.2478,419.2707,74.7366,415.8511,76.68,422.9775" style="stroke:#A80036;stroke-width:0.75;"/><!--MD5=[0834b52bd1383a4ffd545238d9edb63e]
link ViewResultsController to TestStore--><path codeLine="138" d="M1180.125,198.87 C1166.055,207.9375 1151.115,218.025 1137.75,228 C1077.5025,272.94 1061.8125,284.2725 1009.5,338.25 C986.1825,362.31 962.505,391.8675 945.1875,414.6525 " fill="none" id="ViewResultsController-to-TestStore" style="stroke:#A80036;stroke-width:0.75;stroke-dasharray:7.0,7.0;"/><polygon fill="#A80036" points="942.8925,417.675,949.365,414.1156,945.1613,414.6892,944.5877,410.4855,942.8925,417.675" style="stroke:#A80036;stroke-width:0.75;"/><!--MD5=[ddad428d7011c41afa8bf25776574070]
link ViewResultsController to ClientStore--><path codeLine="139" d="M1215.69,198.9975 C1183.2075,256.4025 1117.29,372.9075 1087.935,424.8 " fill="none" id="ViewResultsController-to-ClientStore" style="stroke:#A80036;stroke-width:0.75;stroke-dasharray:7.0,7.0;"/><polygon fill="#A80036" points="1086.0525,428.1225,1091.9875,423.7249,1087.8991,424.8587,1086.7654,420.7703,1086.0525,428.1225" style="stroke:#A80036;stroke-width:0.75;"/><!--MD5=[bbe44ca4c3525267139fe4ee98b8432a]
link ViewResultsController to Company--><path codeLine="140" d="M1166.625,166.2825 C1060.38,168.4575 861.315,178.3275 807,221.25 C775.965,245.775 744.18,355.455 729.06,413.8575 " fill="none" id="ViewResultsController-to-Company" style="stroke:#A80036;stroke-width:0.75;stroke-dasharray:7.0,7.0;"/><polygon fill="#A80036" points="728.0925,417.63,732.6923,411.8503,729.0347,414.0003,726.8847,410.3428,728.0925,417.63" style="stroke:#A80036;stroke-width:0.75;"/><!--MD5=[359dc37a28b51676e4b2257229d802a3]
link ViewResultsController to Test--><path codeLine="141" d="M1166.49,167.115 C1049.3175,170.655 815.49,183.2775 748.5,228 C706.89,255.7725 729.045,291.6075 692.25,325.5 C682.4925,334.4925 675.3,329.58 665.25,338.25 C655.1775,346.9425 645.8925,357.3 637.53,368.16 " fill="none" id="ViewResultsController-to-Test" style="stroke:#A80036;stroke-width:0.75;stroke-dasharray:7.0,7.0;"/><polygon fill="#A80036" points="635.1975,371.235,641.67,367.6756,637.4663,368.2492,636.8927,364.0455,635.1975,371.235" style="stroke:#A80036;stroke-width:0.75;"/><!--MD5=[548efb859cbf90c31ff5d459527ad5e2]
link ViewResultsController to TestParameter--><path codeLine="142" d="M1254.2325,198.9675 C1307.3025,293.0625 1440.2025,563.9775 1304.25,709.5 C1253.16,764.19 703.8225,733.3875 632.25,755.25 C607.1475,762.915 581.715,775.8975 559.6725,789.165 " fill="none" id="ViewResultsController-to-TestParameter" style="stroke:#A80036;stroke-width:0.75;stroke-dasharray:7.0,7.0;"/><polygon fill="#A80036" points="556.4475,791.13,563.7732,790.183,559.6507,789.1802,560.6535,785.0578,556.4475,791.13" style="stroke:#A80036;stroke-width:0.75;"/><!--MD5=[eaba9f3f87f2fb1f92eb3da7b515b24d]
link ViewResultsController to MedicalReport--><path codeLine="143" d="M1302.465,179.0925 C1356.6525,194.145 1423.5,224.64 1423.5,283.5 C1423.5,283.5 1423.5,283.5 1423.5,650.625 C1423.5,690.09 1420.8675,708.48 1389.75,732.75 C1286.5875,813.2325 871.365,830.3775 732.495,833.88 " fill="none" id="ViewResultsController-to-MedicalReport" style="stroke:#A80036;stroke-width:0.75;stroke-dasharray:7.0,7.0;"/><polygon fill="#A80036" points="728.67,833.9775,735.4949,836.803,732.4188,833.8811,735.3407,830.805,728.67,833.9775" style="stroke:#A80036;stroke-width:0.75;"/><!--MD5=[48361cfcc27f7dcb8b5e092179bd64c1]
link ViewResultsController to Client--><path codeLine="144" d="M1166.5275,174.1725 C1074.4125,189.45 912,230.805 829.5,338.25 C775.125,409.065 801.8325,446.4375 775.5,531.75 C769.995,549.6 763.65,568.845 757.665,586.4775 " fill="none" id="ViewResultsController-to-Client" style="stroke:#A80036;stroke-width:0.75;stroke-dasharray:7.0,7.0;"/><polygon fill="#A80036" points="756.3975,590.22,761.4124,584.7966,757.6058,586.67,755.7324,582.8634,756.3975,590.22" style="stroke:#A80036;stroke-width:0.75;"/><!--MD5=[a45f56eb0f08e939a7371fd17a7a80ab]
link ViewResultsController to UserSession--><path codeLine="145" d="M1269.6525,198.8325 C1275.0975,205.71 1279.9875,213.3 1283.25,221.25 C1299.465,260.79 1293.735,507.7875 1290,531.75 C1284.9825,563.955 1272.6525,599.4 1263.495,622.815 " fill="none" id="ViewResultsController-to-UserSession" style="stroke:#A80036;stroke-width:0.75;stroke-dasharray:7.0,7.0;"/><polygon fill="#A80036" points="1262.055,626.475,1267.3336,621.3079,1263.4385,622.9895,1261.7569,619.0944,1262.055,626.475" style="stroke:#A80036;stroke-width:0.75;"/><!--MD5=[f9d35468b630cdccdc785eb6a27462c2]
link ViewResultsController to App--><path codeLine="146" d="M1233.015,198.9975 C1230.615,252.63 1225.905,357.855 1223.4075,413.775 " fill="none" id="ViewResultsController-to-App" style="stroke:#A80036;stroke-width:0.75;stroke-dasharray:7.0,7.0;"/><polygon fill="#A80036" points="1223.2275,417.7125,1226.5335,411.107,1223.3992,413.9664,1220.5398,410.8322,1223.2275,417.7125" style="stroke:#A80036;stroke-width:0.75;"/><!--MD5=[7e4bc624457760b649895ff2ead938fa]
link Company to Test--><path codeLine="149" d="M677.7675,451.5 C670.335,451.5 662.9025,451.5 655.4625,451.5 " fill="none" id="Company-to-Test" style="stroke:#A80036;stroke-width:0.75;"/><polygon fill="#A80036" points="651.5775,451.5,658.3275,454.5,655.3275,451.5,658.3275,448.5,651.5775,451.5" style="stroke:#A80036;stroke-width:0.75;"/><!--MD5=[7f6cf7f175eae0af66201860de5de971]
link Company to TestStore--><path codeLine="150" d="M762.12,468.4125 C787.2825,475.8 812.4525,478.3125 837.615,475.9575 " fill="none" id="Company-to-TestStore" style="stroke:#A80036;stroke-width:0.75;"/><polygon fill="#A80036" points="841.6575,475.5375,834.6346,473.248,837.9274,475.9234,835.252,479.2161,841.6575,475.5375" style="stroke:#A80036;stroke-width:0.75;"/><!--MD5=[34b2fed5845bf5a187f4983fcf3f57bc]
link TestMapper to TestDto--><path codeLine="152" d="M517.05,307.545 C508.98,314.5875 499.2525,321.54 489,325.5 C437.4675,345.3975 286.5675,307.3875 240.75,338.25 C213.66,356.4975 200.2425,392.565 193.8075,418.9575 " fill="none" id="TestMapper-to-TestDto" style="stroke:#A80036;stroke-width:0.75;stroke-dasharray:7.0,7.0;"/><polygon fill="#A80036" points="192.9075,422.7825,197.3699,416.8961,193.764,419.1316,191.5285,415.5257,192.9075,422.7825" style="stroke:#A80036;stroke-width:0.75;"/><!--MD5=[8d9a2c3ea1bf73d8d45b939465e53fff]
link TestMapper to Test--><path codeLine="153" d="M545.5875,307.7025 C550.4775,323.37 557.3175,345.2775 564.1725,367.2375 " fill="none" id="TestMapper-to-Test" style="stroke:#A80036;stroke-width:0.75;stroke-dasharray:7.0,7.0;"/><polygon fill="#A80036" points="565.365,371.0475,566.2226,363.7108,564.2501,367.4671,560.4939,365.4946,565.365,371.0475" style="stroke:#A80036;stroke-width:0.75;"/><!--MD5=[68c2af83282cf75bacf63871b1e5e75e]
link TestResultsMapper to TestResultDto--><path codeLine="155" d="M227.9475,294.9975 C198.435,302.7675 162.435,316.08 136.5,338.25 C111.2775,359.805 94.1475,394.11 84.1875,419.175 " fill="none" id="TestResultsMapper-to-TestResultDto" style="stroke:#A80036;stroke-width:0.75;stroke-dasharray:7.0,7.0;"/><polygon fill="#A80036" points="82.77,422.805,88.0156,417.6044,84.1312,419.3108,82.4249,415.4264,82.77,422.805" style="stroke:#A80036;stroke-width:0.75;"/><!--MD5=[97362d789e8f1c40f3c5df91e5d043dd]
link TestResultsMapper to TestResult--><path codeLine="156" d="M317.2575,307.575 C339.375,321.2175 363.6975,336.33 366,338.25 C400.0875,366.7125 433.4775,406.425 452.325,430.26 " fill="none" id="TestResultsMapper-to-TestResult" style="stroke:#A80036;stroke-width:0.75;stroke-dasharray:7.0,7.0;"/><polygon fill="#A80036" points="454.7775,433.3725,452.9673,426.2111,452.4611,430.4234,448.2488,429.9173,454.7775,433.3725" style="stroke:#A80036;stroke-width:0.75;"/><!--MD5=[0d2deb453e4521a8ecd45cf39c488e89]
link TestParameterMapper to TestParameterDto--><path codeLine="158" d="M394.8,307.545 C387.84,314.8875 380.415,323.2725 374.25,331.5 C349.92,363.975 327.045,405.435 314.265,429.9375 " fill="none" id="TestParameterMapper-to-TestParameterDto" style="stroke:#A80036;stroke-width:0.75;stroke-dasharray:7.0,7.0;"/><polygon fill="#A80036" points="312.4575,433.425,318.2426,428.8321,314.1943,430.1015,312.9249,426.0532,312.4575,433.425" style="stroke:#A80036;stroke-width:0.75;"/><!--MD5=[886f81fd36c1ffd754dcf922ff388f49]
link TestParameterMapper to TestParameter--><path codeLine="159" d="M416.49,307.5525 C414.3975,351.075 411.3075,449.6025 420.75,531.75 C431.1975,622.6275 442.245,644.1525 465,732.75 C466.5375,738.7425 468.1875,744.9225 469.8975,751.125 " fill="none" id="TestParameterMapper-to-TestParameter" style="stroke:#A80036;stroke-width:0.75;stroke-dasharray:7.0,7.0;"/><polygon fill="#A80036" points="470.97,754.995,472.0461,747.6872,469.9625,751.3829,466.2667,749.2992,470.97,754.995" style="stroke:#A80036;stroke-width:0.75;"/><!--MD5=[c7526f0a7e4780de9131b10ec3355106]
@startuml


package ui {
class ViewResultsUI{}
}

package Auth{
class UserSession{
+getUserId()
}
}


package Controller{
class App{
+getInstance()
+getCurrentUserSession()
+getCompany()
}
class ViewResultsController{
+getTestList()
+getUserSession()
+showTestResults(selectedTest)
}
}


package model{
class Company{
- String designation
+getClientStore()
+getTestStore()
}
class Test{
-String internalCode
-String nhsCode
-String description
-Date dateOfSampleCollected
-Date timeOfSampleCollected
-Date dateOfSampleAnalysis
-Date timeOfSampleAnalysis
-Enum state
- -
+getInternalCode()
+getDescription()
+getTestParameterList()
+getMedicalReport()
}
class TestResult{}
class TestParameter{
-parameterName
-testParameterResult
-testParameterMetric
-testParameterMinRefValue
-testParameterMaxRefValue
-refValueMetric
- -
+getParameterName()
+getParameterResult()
+getParameterMetric()
+getParameterMinRefValue()
+getParameterMaxRefValue()
+getRefValueMetric()
}
class MedicalReport{
-String diagnosis
-Date createdAt
}
class Client{
- String name
- String email
- String phoneNumber
- String sex
- String tin
- String birthDate
- String nhsNumber
- String citizenCardNumber
}
}


package store{
class TestStore{
+getTestListAssociatedWithClient()
+orderClientTestsByRegistrationDate()
+getTestByInternalCode(code)
}
class ClientStore{
+getClientByEmail(email)
}
}


package mappers{
class TestMapper{
+toDto(testList)
}
class TestResultsMapper{
+toDto(test)
}
class TestParameterMapper {
+toDTO(testParametersList)
}
class ClientMapper{
+toDto(client)
}
}


package dto{
class TestDto{
-testInternalCode
-testDescription
}
class TestResultDto{
-testParametersListDto
-medicalReport
}
class TestParameterDto{}
}


Test "1..*" - - "1" Client : associated a >
Test "1" - - -"1" MedicalReport : request >
Test "1" - - -"1..*" TestParameter : requests analysis of >

ViewResultsUI ..> ViewResultsController
ViewResultsUI ..> TestResultDto

App ..> UserSession

ViewResultsController ..> TestMapper
ViewResultsController ..> TestResultsMapper
ViewResultsController ..> TestParameterMapper
ViewResultsController ..> ClientMapper
ViewResultsController ..> TestDto
ViewResultsController ..> TestResultDto
ViewResultsController ..> TestStore
ViewResultsController ..> ClientStore
ViewResultsController ..> Company
ViewResultsController ..> Test
ViewResultsController ...> TestParameter
ViewResultsController ...> MedicalReport
ViewResultsController ...> Client
ViewResultsController ...> UserSession
ViewResultsController ...> App


Company -> Test
Company -> TestStore

TestMapper ..> TestDto
TestMapper ..> Test

TestResultsMapper ..> TestResultDto
TestResultsMapper ..> TestResult

TestParameterMapper ..> TestParameterDto
TestParameterMapper ..> TestParameter






@enduml

PlantUML version 1.2021.4(Sun Apr 04 09:49:39 BST 2021)
(GPL source distribution)
Java Runtime: OpenJDK Runtime Environment
JVM: OpenJDK 64-Bit Server VM
Default Encoding: Cp1252
Language: pt
Country: PT
--></g></svg>