<?xml version="1.0" encoding="UTF-8" standalone="no"?><svg xmlns="http://www.w3.org/2000/svg" xmlns:xlink="http://www.w3.org/1999/xlink" contentScriptType="application/ecmascript" contentStyleType="text/css" height="1246px" preserveAspectRatio="none" style="width:1637px;height:1246px;" version="1.1" viewBox="0 0 1637 1246" width="1637px" zoomAndPan="magnify"><defs><filter height="300%" id="fkvk7lomwqunt" width="300%" x="-1" y="-1"><feGaussianBlur result="blurOut" stdDeviation="2.0"/><feColorMatrix in="blurOut" result="blurOut2" type="matrix" values="0 0 0 0 0 0 0 0 0 0 0 0 0 0 0 0 0 0 .4 0"/><feOffset dx="4.0" dy="4.0" in="blurOut2" result="blurOut3"/><feBlend in="SourceGraphic" in2="blurOut3" mode="normal"/></filter></defs><g><!--MD5=[64e2e010ba86d7988e5cd73bd64f61f9]
cluster ui--><polygon fill="#FFFFFF" filter="url(#fkvk7lomwqunt)" points="1474,6,1493,6,1500,29.6094,1620,29.6094,1620,106,1474,106,1474,6" style="stroke:#000000;stroke-width:1.5;"/><line style="stroke:#000000;stroke-width:1.5;" x1="1474" x2="1500" y1="29.6094" y2="29.6094"/><text fill="#000000" font-family="sans-serif" font-size="14" font-weight="bold" lengthAdjust="spacing" textLength="13" x="1478" y="22.5332">ui</text><!--MD5=[1f2cfc53d9d308f53762fd0fcbaa4873]
cluster Controller--><polygon fill="#FFFFFF" filter="url(#fkvk7lomwqunt)" points="631,139,708,139,715,162.6094,1167,162.6094,1167,281,631,281,631,139" style="stroke:#000000;stroke-width:1.5;"/><line style="stroke:#000000;stroke-width:1.5;" x1="631" x2="715" y1="162.6094" y2="162.6094"/><text fill="#000000" font-family="sans-serif" font-size="14" font-weight="bold" lengthAdjust="spacing" textLength="71" x="635" y="155.5332">Controller</text><!--MD5=[5d4cd377749310b66bf14896f5cd8d9b]
cluster model--><polygon fill="#FFFFFF" filter="url(#fkvk7lomwqunt)" points="558,461,607,461,614,484.6094,1067,484.6094,1067,1239,558,1239,558,461" style="stroke:#000000;stroke-width:1.5;"/><line style="stroke:#000000;stroke-width:1.5;" x1="558" x2="614" y1="484.6094" y2="484.6094"/><text fill="#000000" font-family="sans-serif" font-size="14" font-weight="bold" lengthAdjust="spacing" textLength="43" x="562" y="477.5332">model</text><!--MD5=[c23849cc5f4a85746a20de4317c530fc]
cluster store--><polygon fill="#FFFFFF" filter="url(#fkvk7lomwqunt)" points="43,523,86,523,93,546.6094,452,546.6094,452,665,43,665,43,523" style="stroke:#000000;stroke-width:1.5;"/><line style="stroke:#000000;stroke-width:1.5;" x1="43" x2="93" y1="546.6094" y2="546.6094"/><text fill="#000000" font-family="sans-serif" font-size="14" font-weight="bold" lengthAdjust="spacing" textLength="37" x="47" y="539.5332">store</text><!--MD5=[e484dff12bc7e3f9ae9e3c87a060152b]
cluster mappers--><polygon fill="#FFFFFF" filter="url(#fkvk7lomwqunt)" points="810,314,877,314,884,337.6094,1445,337.6094,1445,428,810,428,810,314" style="stroke:#000000;stroke-width:1.5;"/><line style="stroke:#000000;stroke-width:1.5;" x1="810" x2="884" y1="337.6094" y2="337.6094"/><text fill="#000000" font-family="sans-serif" font-size="14" font-weight="bold" lengthAdjust="spacing" textLength="61" x="814" y="330.5332">mappers</text><!--MD5=[e6eced616a98d47334dd1aaaa829ffd5]
cluster dto--><polygon fill="#FFFFFF" filter="url(#fkvk7lomwqunt)" points="1141,530,1170,530,1177,553.6094,1613,553.6094,1613,658,1141,658,1141,530" style="stroke:#000000;stroke-width:1.5;"/><line style="stroke:#000000;stroke-width:1.5;" x1="1141" x2="1177" y1="553.6094" y2="553.6094"/><text fill="#000000" font-family="sans-serif" font-size="14" font-weight="bold" lengthAdjust="spacing" textLength="23" x="1145" y="546.5332">dto</text><!--MD5=[49bee9bf9dd204cc1ce7570ba2c9409a]
class ViewResultsUI--><rect codeLine="4" fill="#FEFECE" filter="url(#fkvk7lomwqunt)" height="48" id="ViewResultsUI" style="stroke:#A80036;stroke-width:1.5;" width="113" x="1490.5" y="42"/><ellipse cx="1505.5" cy="58" fill="#ADD1B2" rx="11" ry="11" style="stroke:#A80036;stroke-width:1.0;"/><path d="M1507.5,54.5 Q1507.7031,54 1507.9375,53.75 Q1508.1719,53.5 1508.4375,53.5 Q1508.9063,53.5 1509.2031,53.7813 Q1509.5,54.0625 1509.5,54.7188 L1509.5,56.2813 Q1509.5,56.9375 1509.2188,57.2188 Q1508.9375,57.5 1508.5,57.5 Q1508.1094,57.5 1507.8594,57.3281 Q1507.6094,57.1563 1507.5,56.7031 Q1507.4531,56.3906 1507.2813,56.2188 Q1506.9688,55.8906 1506.4063,55.7031 Q1505.8438,55.5 1505.2813,55.5 Q1504.5781,55.5 1503.9844,55.7813 Q1503.4063,56.0625 1502.9531,56.6875 Q1502.5,57.3125 1502.5,58.1719 L1502.5,59.0938 Q1502.5,60.125 1503.3438,60.8125 Q1504.1875,61.5 1505.6875,61.5 Q1506.5781,61.5 1507.2031,61.2969 Q1507.5625,61.1875 1507.9688,60.8281 Q1508.2344,60.625 1508.375,60.5625 Q1508.5156,60.5 1508.6875,60.5 Q1509.0156,60.5 1509.25,60.7656 Q1509.5,61.0156 1509.5,61.375 Q1509.5,61.7188 1509.1563,62.125 Q1508.6563,62.7188 1507.8594,63.0469 Q1506.8125,63.5 1505.5313,63.5 Q1504.0313,63.5 1502.8281,62.9063 Q1501.8594,62.4375 1501.1719,61.4219 Q1500.5,60.4063 1500.5,59.2031 L1500.5,58.1094 Q1500.5,56.8594 1501.0938,55.7656 Q1501.7031,54.6719 1502.75,54.0938 Q1503.8125,53.5 1505,53.5 Q1505.7188,53.5 1506.3438,53.75 Q1506.9688,54 1507.5,54.5 Z " fill="#000000"/><text fill="#000000" font-family="sans-serif" font-size="12" lengthAdjust="spacing" textLength="81" x="1519.5" y="62.9102">ViewResultsUI</text><line style="stroke:#A80036;stroke-width:1.5;" x1="1491.5" x2="1602.5" y1="74" y2="74"/><line style="stroke:#A80036;stroke-width:1.5;" x1="1491.5" x2="1602.5" y1="82" y2="82"/><!--MD5=[335f4d9be48430461c68bf6d6fdba145]
class App--><rect codeLine="9" fill="#FEFECE" filter="url(#fkvk7lomwqunt)" height="89.5078" id="App" style="stroke:#A80036;stroke-width:1.5;" width="147" x="1003.5" y="175"/><ellipse cx="1062.25" cy="191" fill="#ADD1B2" rx="11" ry="11" style="stroke:#A80036;stroke-width:1.0;"/><path d="M1064.25,187.5 Q1064.4531,187 1064.6875,186.75 Q1064.9219,186.5 1065.1875,186.5 Q1065.6563,186.5 1065.9531,186.7813 Q1066.25,187.0625 1066.25,187.7188 L1066.25,189.2813 Q1066.25,189.9375 1065.9688,190.2188 Q1065.6875,190.5 1065.25,190.5 Q1064.8594,190.5 1064.6094,190.3281 Q1064.3594,190.1563 1064.25,189.7031 Q1064.2031,189.3906 1064.0313,189.2188 Q1063.7188,188.8906 1063.1563,188.7031 Q1062.5938,188.5 1062.0313,188.5 Q1061.3281,188.5 1060.7344,188.7813 Q1060.1563,189.0625 1059.7031,189.6875 Q1059.25,190.3125 1059.25,191.1719 L1059.25,192.0938 Q1059.25,193.125 1060.0938,193.8125 Q1060.9375,194.5 1062.4375,194.5 Q1063.3281,194.5 1063.9531,194.2969 Q1064.3125,194.1875 1064.7188,193.8281 Q1064.9844,193.625 1065.125,193.5625 Q1065.2656,193.5 1065.4375,193.5 Q1065.7656,193.5 1066,193.7656 Q1066.25,194.0156 1066.25,194.375 Q1066.25,194.7188 1065.9063,195.125 Q1065.4063,195.7188 1064.6094,196.0469 Q1063.5625,196.5 1062.2813,196.5 Q1060.7813,196.5 1059.5781,195.9063 Q1058.6094,195.4375 1057.9219,194.4219 Q1057.25,193.4063 1057.25,192.2031 L1057.25,191.1094 Q1057.25,189.8594 1057.8438,188.7656 Q1058.4531,187.6719 1059.5,187.0938 Q1060.5625,186.5 1061.75,186.5 Q1062.4688,186.5 1063.0938,186.75 Q1063.7188,187 1064.25,187.5 Z " fill="#000000"/><text fill="#000000" font-family="sans-serif" font-size="12" lengthAdjust="spacing" textLength="21" x="1082.75" y="195.9102">App</text><line style="stroke:#A80036;stroke-width:1.5;" x1="1004.5" x2="1149.5" y1="207" y2="207"/><line style="stroke:#A80036;stroke-width:1.5;" x1="1004.5" x2="1149.5" y1="215" y2="215"/><ellipse cx="1014.5" cy="226" fill="#84BE84" rx="3" ry="3" style="stroke:#038048;stroke-width:1.0;"/><text fill="#000000" font-family="sans-serif" font-size="11" lengthAdjust="spacing" textLength="64" x="1023.5" y="230.4189">getInstance()</text><ellipse cx="1014.5" cy="239.8359" fill="#84BE84" rx="3" ry="3" style="stroke:#038048;stroke-width:1.0;"/><text fill="#000000" font-family="sans-serif" font-size="11" lengthAdjust="spacing" textLength="121" x="1023.5" y="244.2549">getCurrentUserSession()</text><ellipse cx="1014.5" cy="253.6719" fill="#84BE84" rx="3" ry="3" style="stroke:#038048;stroke-width:1.0;"/><text fill="#000000" font-family="sans-serif" font-size="11" lengthAdjust="spacing" textLength="68" x="1023.5" y="258.0908">getCompany()</text><!--MD5=[c5b08e60048ef1bcd788d24cf324082e]
class UserSession--><rect codeLine="14" fill="#FEFECE" filter="url(#fkvk7lomwqunt)" height="61.8359" id="UserSession" style="stroke:#A80036;stroke-width:1.5;" width="105" x="863.5" y="189"/><ellipse cx="878.5" cy="205" fill="#ADD1B2" rx="11" ry="11" style="stroke:#A80036;stroke-width:1.0;"/><path d="M880.5,201.5 Q880.7031,201 880.9375,200.75 Q881.1719,200.5 881.4375,200.5 Q881.9063,200.5 882.2031,200.7813 Q882.5,201.0625 882.5,201.7188 L882.5,203.2813 Q882.5,203.9375 882.2188,204.2188 Q881.9375,204.5 881.5,204.5 Q881.1094,204.5 880.8594,204.3281 Q880.6094,204.1563 880.5,203.7031 Q880.4531,203.3906 880.2813,203.2188 Q879.9688,202.8906 879.4063,202.7031 Q878.8438,202.5 878.2813,202.5 Q877.5781,202.5 876.9844,202.7813 Q876.4063,203.0625 875.9531,203.6875 Q875.5,204.3125 875.5,205.1719 L875.5,206.0938 Q875.5,207.125 876.3438,207.8125 Q877.1875,208.5 878.6875,208.5 Q879.5781,208.5 880.2031,208.2969 Q880.5625,208.1875 880.9688,207.8281 Q881.2344,207.625 881.375,207.5625 Q881.5156,207.5 881.6875,207.5 Q882.0156,207.5 882.25,207.7656 Q882.5,208.0156 882.5,208.375 Q882.5,208.7188 882.1563,209.125 Q881.6563,209.7188 880.8594,210.0469 Q879.8125,210.5 878.5313,210.5 Q877.0313,210.5 875.8281,209.9063 Q874.8594,209.4375 874.1719,208.4219 Q873.5,207.4063 873.5,206.2031 L873.5,205.1094 Q873.5,203.8594 874.0938,202.7656 Q874.7031,201.6719 875.75,201.0938 Q876.8125,200.5 878,200.5 Q878.7188,200.5 879.3438,200.75 Q879.9688,201 880.5,201.5 Z " fill="#000000"/><text fill="#000000" font-family="sans-serif" font-size="12" lengthAdjust="spacing" textLength="73" x="892.5" y="209.9102">UserSession</text><line style="stroke:#A80036;stroke-width:1.5;" x1="864.5" x2="967.5" y1="221" y2="221"/><line style="stroke:#A80036;stroke-width:1.5;" x1="864.5" x2="967.5" y1="229" y2="229"/><ellipse cx="874.5" cy="240" fill="#84BE84" rx="3" ry="3" style="stroke:#038048;stroke-width:1.0;"/><text fill="#000000" font-family="sans-serif" font-size="11" lengthAdjust="spacing" textLength="54" x="883.5" y="244.4189">getUserId()</text><!--MD5=[db458dcce179ed92c8ae610b38e47717]
class ViewResultsController--><rect codeLine="17" fill="#FEFECE" filter="url(#fkvk7lomwqunt)" height="89.5078" id="ViewResultsController" style="stroke:#A80036;stroke-width:1.5;" width="181" x="647.5" y="175"/><ellipse cx="674.2" cy="191" fill="#ADD1B2" rx="11" ry="11" style="stroke:#A80036;stroke-width:1.0;"/><path d="M676.2,187.5 Q676.4031,187 676.6375,186.75 Q676.8719,186.5 677.1375,186.5 Q677.6063,186.5 677.9031,186.7813 Q678.2,187.0625 678.2,187.7188 L678.2,189.2813 Q678.2,189.9375 677.9188,190.2188 Q677.6375,190.5 677.2,190.5 Q676.8094,190.5 676.5594,190.3281 Q676.3094,190.1563 676.2,189.7031 Q676.1531,189.3906 675.9813,189.2188 Q675.6688,188.8906 675.1063,188.7031 Q674.5438,188.5 673.9813,188.5 Q673.2781,188.5 672.6844,188.7813 Q672.1063,189.0625 671.6531,189.6875 Q671.2,190.3125 671.2,191.1719 L671.2,192.0938 Q671.2,193.125 672.0438,193.8125 Q672.8875,194.5 674.3875,194.5 Q675.2781,194.5 675.9031,194.2969 Q676.2625,194.1875 676.6688,193.8281 Q676.9344,193.625 677.075,193.5625 Q677.2156,193.5 677.3875,193.5 Q677.7156,193.5 677.95,193.7656 Q678.2,194.0156 678.2,194.375 Q678.2,194.7188 677.8563,195.125 Q677.3563,195.7188 676.5594,196.0469 Q675.5125,196.5 674.2313,196.5 Q672.7313,196.5 671.5281,195.9063 Q670.5594,195.4375 669.8719,194.4219 Q669.2,193.4063 669.2,192.2031 L669.2,191.1094 Q669.2,189.8594 669.7938,188.7656 Q670.4031,187.6719 671.45,187.0938 Q672.5125,186.5 673.7,186.5 Q674.4188,186.5 675.0438,186.75 Q675.6688,187 676.2,187.5 Z " fill="#000000"/><text fill="#000000" font-family="sans-serif" font-size="12" lengthAdjust="spacing" textLength="123" x="690.8" y="195.9102">ViewResultsController</text><line style="stroke:#A80036;stroke-width:1.5;" x1="648.5" x2="827.5" y1="207" y2="207"/><line style="stroke:#A80036;stroke-width:1.5;" x1="648.5" x2="827.5" y1="215" y2="215"/><ellipse cx="658.5" cy="226" fill="#84BE84" rx="3" ry="3" style="stroke:#038048;stroke-width:1.0;"/><text fill="#000000" font-family="sans-serif" font-size="11" lengthAdjust="spacing" textLength="61" x="667.5" y="230.4189">getTestList()</text><ellipse cx="658.5" cy="239.8359" fill="#84BE84" rx="3" ry="3" style="stroke:#038048;stroke-width:1.0;"/><text fill="#000000" font-family="sans-serif" font-size="11" lengthAdjust="spacing" textLength="85" x="667.5" y="244.2549">getUserSession()</text><ellipse cx="658.5" cy="253.6719" fill="#84BE84" rx="3" ry="3" style="stroke:#038048;stroke-width:1.0;"/><text fill="#000000" font-family="sans-serif" font-size="11" lengthAdjust="spacing" textLength="155" x="667.5" y="258.0908">showTestResults(selectedTest)</text><!--MD5=[02e4b9b7573f1156f41e60aa5b4e25a4]
class Company--><rect codeLine="26" fill="#FEFECE" filter="url(#fkvk7lomwqunt)" height="89.5078" id="Company" style="stroke:#A80036;stroke-width:1.5;" width="112" x="613" y="559"/><ellipse cx="640.15" cy="575" fill="#ADD1B2" rx="11" ry="11" style="stroke:#A80036;stroke-width:1.0;"/><path d="M642.15,571.5 Q642.3531,571 642.5875,570.75 Q642.8219,570.5 643.0875,570.5 Q643.5563,570.5 643.8531,570.7813 Q644.15,571.0625 644.15,571.7188 L644.15,573.2813 Q644.15,573.9375 643.8688,574.2188 Q643.5875,574.5 643.15,574.5 Q642.7594,574.5 642.5094,574.3281 Q642.2594,574.1563 642.15,573.7031 Q642.1031,573.3906 641.9313,573.2188 Q641.6188,572.8906 641.0563,572.7031 Q640.4938,572.5 639.9313,572.5 Q639.2281,572.5 638.6344,572.7813 Q638.0563,573.0625 637.6031,573.6875 Q637.15,574.3125 637.15,575.1719 L637.15,576.0938 Q637.15,577.125 637.9938,577.8125 Q638.8375,578.5 640.3375,578.5 Q641.2281,578.5 641.8531,578.2969 Q642.2125,578.1875 642.6188,577.8281 Q642.8844,577.625 643.025,577.5625 Q643.1656,577.5 643.3375,577.5 Q643.6656,577.5 643.9,577.7656 Q644.15,578.0156 644.15,578.375 Q644.15,578.7188 643.8063,579.125 Q643.3063,579.7188 642.5094,580.0469 Q641.4625,580.5 640.1813,580.5 Q638.6813,580.5 637.4781,579.9063 Q636.5094,579.4375 635.8219,578.4219 Q635.15,577.4063 635.15,576.2031 L635.15,575.1094 Q635.15,573.8594 635.7438,572.7656 Q636.3531,571.6719 637.4,571.0938 Q638.4625,570.5 639.65,570.5 Q640.3688,570.5 640.9938,570.75 Q641.6188,571 642.15,571.5 Z " fill="#000000"/><text fill="#000000" font-family="sans-serif" font-size="12" lengthAdjust="spacing" textLength="53" x="656.85" y="579.9102">Company</text><line style="stroke:#A80036;stroke-width:1.5;" x1="614" x2="724" y1="591" y2="591"/><rect fill="none" height="6" style="stroke:#C82930;stroke-width:1.0;" width="6" x="621" y="599"/><text fill="#000000" font-family="sans-serif" font-size="11" lengthAdjust="spacing" textLength="86" x="633" y="606.4189">String designation</text><line style="stroke:#A80036;stroke-width:1.5;" x1="614" x2="724" y1="612.8359" y2="612.8359"/><ellipse cx="624" cy="623.8359" fill="#84BE84" rx="3" ry="3" style="stroke:#038048;stroke-width:1.0;"/><text fill="#000000" font-family="sans-serif" font-size="11" lengthAdjust="spacing" textLength="75" x="633" y="628.2549">getClientStore()</text><ellipse cx="624" cy="637.6719" fill="#84BE84" rx="3" ry="3" style="stroke:#038048;stroke-width:1.0;"/><text fill="#000000" font-family="sans-serif" font-size="11" lengthAdjust="spacing" textLength="70" x="633" y="642.0908">getTestStore()</text><!--MD5=[df38be88ccee13e832d6fafd6288a4ca]
class Test--><rect codeLine="31" fill="#FEFECE" filter="url(#fkvk7lomwqunt)" height="214.0313" id="Test" style="stroke:#A80036;stroke-width:1.5;" width="163" x="760.5" y="497"/><ellipse cx="825.75" cy="513" fill="#ADD1B2" rx="11" ry="11" style="stroke:#A80036;stroke-width:1.0;"/><path d="M827.75,509.5 Q827.9531,509 828.1875,508.75 Q828.4219,508.5 828.6875,508.5 Q829.1563,508.5 829.4531,508.7813 Q829.75,509.0625 829.75,509.7188 L829.75,511.2813 Q829.75,511.9375 829.4688,512.2188 Q829.1875,512.5 828.75,512.5 Q828.3594,512.5 828.1094,512.3281 Q827.8594,512.1563 827.75,511.7031 Q827.7031,511.3906 827.5313,511.2188 Q827.2188,510.8906 826.6563,510.7031 Q826.0938,510.5 825.5313,510.5 Q824.8281,510.5 824.2344,510.7813 Q823.6563,511.0625 823.2031,511.6875 Q822.75,512.3125 822.75,513.1719 L822.75,514.0938 Q822.75,515.125 823.5938,515.8125 Q824.4375,516.5 825.9375,516.5 Q826.8281,516.5 827.4531,516.2969 Q827.8125,516.1875 828.2188,515.8281 Q828.4844,515.625 828.625,515.5625 Q828.7656,515.5 828.9375,515.5 Q829.2656,515.5 829.5,515.7656 Q829.75,516.0156 829.75,516.375 Q829.75,516.7188 829.4063,517.125 Q828.9063,517.7188 828.1094,518.0469 Q827.0625,518.5 825.7813,518.5 Q824.2813,518.5 823.0781,517.9063 Q822.1094,517.4375 821.4219,516.4219 Q820.75,515.4063 820.75,514.2031 L820.75,513.1094 Q820.75,511.8594 821.3438,510.7656 Q821.9531,509.6719 823,509.0938 Q824.0625,508.5 825.25,508.5 Q825.9688,508.5 826.5938,508.75 Q827.2188,509 827.75,509.5 Z " fill="#000000"/><text fill="#000000" font-family="sans-serif" font-size="12" lengthAdjust="spacing" textLength="24" x="846.25" y="517.9102">Test</text><line style="stroke:#A80036;stroke-width:1.5;" x1="761.5" x2="922.5" y1="529" y2="529"/><rect fill="none" height="6" style="stroke:#C82930;stroke-width:1.0;" width="6" x="768.5" y="537"/><text fill="#000000" font-family="sans-serif" font-size="11" lengthAdjust="spacing" textLength="91" x="780.5" y="544.4189">String internalCode</text><rect fill="none" height="6" style="stroke:#C82930;stroke-width:1.0;" width="6" x="768.5" y="550.8359"/><text fill="#000000" font-family="sans-serif" font-size="11" lengthAdjust="spacing" textLength="74" x="780.5" y="558.2549">String nhsCode</text><rect fill="none" height="6" style="stroke:#C82930;stroke-width:1.0;" width="6" x="768.5" y="564.6719"/><text fill="#000000" font-family="sans-serif" font-size="11" lengthAdjust="spacing" textLength="84" x="780.5" y="572.0908">String description</text><rect fill="none" height="6" style="stroke:#C82930;stroke-width:1.0;" width="6" x="768.5" y="578.5078"/><text fill="#000000" font-family="sans-serif" font-size="11" lengthAdjust="spacing" textLength="137" x="780.5" y="585.9268">Date dateOfSampleCollected</text><rect fill="none" height="6" style="stroke:#C82930;stroke-width:1.0;" width="6" x="768.5" y="592.3438"/><text fill="#000000" font-family="sans-serif" font-size="11" lengthAdjust="spacing" textLength="135" x="780.5" y="599.7627">Date timeOfSampleCollected</text><rect fill="none" height="6" style="stroke:#C82930;stroke-width:1.0;" width="6" x="768.5" y="606.1797"/><text fill="#000000" font-family="sans-serif" font-size="11" lengthAdjust="spacing" textLength="135" x="780.5" y="613.5986">Date dateOfSampleAnalysis</text><rect fill="none" height="6" style="stroke:#C82930;stroke-width:1.0;" width="6" x="768.5" y="620.0156"/><text fill="#000000" font-family="sans-serif" font-size="11" lengthAdjust="spacing" textLength="133" x="780.5" y="627.4346">Date timeOfSampleAnalysis</text><rect fill="none" height="6" style="stroke:#C82930;stroke-width:1.0;" width="6" x="768.5" y="633.8516"/><text fill="#000000" font-family="sans-serif" font-size="11" lengthAdjust="spacing" textLength="53" x="780.5" y="641.2705">Enum state</text><line style="stroke:#A80036;stroke-width:1.0;" x1="761.5" x2="922.5" y1="647.6875" y2="647.6875"/><ellipse cx="771.5" cy="658.6875" fill="#84BE84" rx="3" ry="3" style="stroke:#038048;stroke-width:1.0;"/><text fill="#000000" font-family="sans-serif" font-size="11" lengthAdjust="spacing" textLength="83" x="780.5" y="663.1064">getInternalCode()</text><ellipse cx="771.5" cy="672.5234" fill="#84BE84" rx="3" ry="3" style="stroke:#038048;stroke-width:1.0;"/><text fill="#000000" font-family="sans-serif" font-size="11" lengthAdjust="spacing" textLength="77" x="780.5" y="676.9424">getDescription()</text><ellipse cx="771.5" cy="686.3594" fill="#84BE84" rx="3" ry="3" style="stroke:#038048;stroke-width:1.0;"/><text fill="#000000" font-family="sans-serif" font-size="11" lengthAdjust="spacing" textLength="110" x="780.5" y="690.7783">getTestParameterList()</text><ellipse cx="771.5" cy="700.1953" fill="#84BE84" rx="3" ry="3" style="stroke:#038048;stroke-width:1.0;"/><text fill="#000000" font-family="sans-serif" font-size="11" lengthAdjust="spacing" textLength="91" x="780.5" y="704.6143">getMedicalReport()</text><!--MD5=[e27cb01a39563223b22d42504ec96d07]
class TestResult--><rect codeLine="46" fill="#FEFECE" filter="url(#fkvk7lomwqunt)" height="48" id="TestResult" style="stroke:#A80036;stroke-width:1.5;" width="92" x="959" y="580"/><ellipse cx="974" cy="596" fill="#ADD1B2" rx="11" ry="11" style="stroke:#A80036;stroke-width:1.0;"/><path d="M976,592.5 Q976.2031,592 976.4375,591.75 Q976.6719,591.5 976.9375,591.5 Q977.4063,591.5 977.7031,591.7813 Q978,592.0625 978,592.7188 L978,594.2813 Q978,594.9375 977.7188,595.2188 Q977.4375,595.5 977,595.5 Q976.6094,595.5 976.3594,595.3281 Q976.1094,595.1563 976,594.7031 Q975.9531,594.3906 975.7813,594.2188 Q975.4688,593.8906 974.9063,593.7031 Q974.3438,593.5 973.7813,593.5 Q973.0781,593.5 972.4844,593.7813 Q971.9063,594.0625 971.4531,594.6875 Q971,595.3125 971,596.1719 L971,597.0938 Q971,598.125 971.8438,598.8125 Q972.6875,599.5 974.1875,599.5 Q975.0781,599.5 975.7031,599.2969 Q976.0625,599.1875 976.4688,598.8281 Q976.7344,598.625 976.875,598.5625 Q977.0156,598.5 977.1875,598.5 Q977.5156,598.5 977.75,598.7656 Q978,599.0156 978,599.375 Q978,599.7188 977.6563,600.125 Q977.1563,600.7188 976.3594,601.0469 Q975.3125,601.5 974.0313,601.5 Q972.5313,601.5 971.3281,600.9063 Q970.3594,600.4375 969.6719,599.4219 Q969,598.4063 969,597.2031 L969,596.1094 Q969,594.8594 969.5938,593.7656 Q970.2031,592.6719 971.25,592.0938 Q972.3125,591.5 973.5,591.5 Q974.2188,591.5 974.8438,591.75 Q975.4688,592 976,592.5 Z " fill="#000000"/><text fill="#000000" font-family="sans-serif" font-size="12" lengthAdjust="spacing" textLength="60" x="988" y="600.9102">TestResult</text><line style="stroke:#A80036;stroke-width:1.5;" x1="960" x2="1050" y1="612" y2="612"/><line style="stroke:#A80036;stroke-width:1.5;" x1="960" x2="1050" y1="620" y2="620"/><!--MD5=[0f07739f46effee96e095e9c408da841]
class TestParameter--><rect codeLine="47" fill="#FEFECE" filter="url(#fkvk7lomwqunt)" height="214.0313" id="TestParameter" style="stroke:#A80036;stroke-width:1.5;" width="163" x="838.5" y="1009"/><ellipse cx="875.55" cy="1025" fill="#ADD1B2" rx="11" ry="11" style="stroke:#A80036;stroke-width:1.0;"/><path d="M877.55,1021.5 Q877.7531,1021 877.9875,1020.75 Q878.2219,1020.5 878.4875,1020.5 Q878.9563,1020.5 879.2531,1020.7813 Q879.55,1021.0625 879.55,1021.7188 L879.55,1023.2813 Q879.55,1023.9375 879.2688,1024.2188 Q878.9875,1024.5 878.55,1024.5 Q878.1594,1024.5 877.9094,1024.3281 Q877.6594,1024.1563 877.55,1023.7031 Q877.5031,1023.3906 877.3313,1023.2188 Q877.0188,1022.8906 876.4563,1022.7031 Q875.8938,1022.5 875.3313,1022.5 Q874.6281,1022.5 874.0344,1022.7813 Q873.4563,1023.0625 873.0031,1023.6875 Q872.55,1024.3125 872.55,1025.1719 L872.55,1026.0938 Q872.55,1027.125 873.3938,1027.8125 Q874.2375,1028.5 875.7375,1028.5 Q876.6281,1028.5 877.2531,1028.2969 Q877.6125,1028.1875 878.0188,1027.8281 Q878.2844,1027.625 878.425,1027.5625 Q878.5656,1027.5 878.7375,1027.5 Q879.0656,1027.5 879.3,1027.7656 Q879.55,1028.0156 879.55,1028.375 Q879.55,1028.7188 879.2063,1029.125 Q878.7063,1029.7188 877.9094,1030.0469 Q876.8625,1030.5 875.5813,1030.5 Q874.0813,1030.5 872.8781,1029.9063 Q871.9094,1029.4375 871.2219,1028.4219 Q870.55,1027.4063 870.55,1026.2031 L870.55,1025.1094 Q870.55,1023.8594 871.1438,1022.7656 Q871.7531,1021.6719 872.8,1021.0938 Q873.8625,1020.5 875.05,1020.5 Q875.7688,1020.5 876.3938,1020.75 Q877.0188,1021 877.55,1021.5 Z " fill="#000000"/><text fill="#000000" font-family="sans-serif" font-size="12" lengthAdjust="spacing" textLength="82" x="894.45" y="1029.9102">TestParameter</text><line style="stroke:#A80036;stroke-width:1.5;" x1="839.5" x2="1000.5" y1="1041" y2="1041"/><rect fill="none" height="6" style="stroke:#C82930;stroke-width:1.0;" width="6" x="846.5" y="1049"/><text fill="#000000" font-family="sans-serif" font-size="11" lengthAdjust="spacing" textLength="76" x="858.5" y="1056.4189">parameterName</text><rect fill="none" height="6" style="stroke:#C82930;stroke-width:1.0;" width="6" x="846.5" y="1062.8359"/><text fill="#000000" font-family="sans-serif" font-size="11" lengthAdjust="spacing" textLength="97" x="858.5" y="1070.2549">testParameterResult</text><rect fill="none" height="6" style="stroke:#C82930;stroke-width:1.0;" width="6" x="846.5" y="1076.6719"/><text fill="#000000" font-family="sans-serif" font-size="11" lengthAdjust="spacing" textLength="96" x="858.5" y="1084.0908">testParameterMetric</text><rect fill="none" height="6" style="stroke:#C82930;stroke-width:1.0;" width="6" x="846.5" y="1090.5078"/><text fill="#000000" font-family="sans-serif" font-size="11" lengthAdjust="spacing" textLength="128" x="858.5" y="1097.9268">testParameterMinRefValue</text><rect fill="none" height="6" style="stroke:#C82930;stroke-width:1.0;" width="6" x="846.5" y="1104.3438"/><text fill="#000000" font-family="sans-serif" font-size="11" lengthAdjust="spacing" textLength="132" x="858.5" y="1111.7627">testParameterMaxRefValue</text><rect fill="none" height="6" style="stroke:#C82930;stroke-width:1.0;" width="6" x="846.5" y="1118.1797"/><text fill="#000000" font-family="sans-serif" font-size="11" lengthAdjust="spacing" textLength="71" x="858.5" y="1125.5986">refValueMetric</text><line style="stroke:#A80036;stroke-width:1.0;" x1="839.5" x2="1000.5" y1="1132.0156" y2="1132.0156"/><ellipse cx="849.5" cy="1143.0156" fill="#84BE84" rx="3" ry="3" style="stroke:#038048;stroke-width:1.0;"/><text fill="#000000" font-family="sans-serif" font-size="11" lengthAdjust="spacing" textLength="99" x="858.5" y="1147.4346">getParameterName()</text><ellipse cx="849.5" cy="1156.8516" fill="#84BE84" rx="3" ry="3" style="stroke:#038048;stroke-width:1.0;"/><text fill="#000000" font-family="sans-serif" font-size="11" lengthAdjust="spacing" textLength="102" x="858.5" y="1161.2705">getParameterResult()</text><ellipse cx="849.5" cy="1170.6875" fill="#84BE84" rx="3" ry="3" style="stroke:#038048;stroke-width:1.0;"/><text fill="#000000" font-family="sans-serif" font-size="11" lengthAdjust="spacing" textLength="101" x="858.5" y="1175.1064">getParameterMetric()</text><ellipse cx="849.5" cy="1184.5234" fill="#84BE84" rx="3" ry="3" style="stroke:#038048;stroke-width:1.0;"/><text fill="#000000" font-family="sans-serif" font-size="11" lengthAdjust="spacing" textLength="133" x="858.5" y="1188.9424">getParameterMinRefValue()</text><ellipse cx="849.5" cy="1198.3594" fill="#84BE84" rx="3" ry="3" style="stroke:#038048;stroke-width:1.0;"/><text fill="#000000" font-family="sans-serif" font-size="11" lengthAdjust="spacing" textLength="137" x="858.5" y="1202.7783">getParameterMaxRefValue()</text><ellipse cx="849.5" cy="1212.1953" fill="#84BE84" rx="3" ry="3" style="stroke:#038048;stroke-width:1.0;"/><text fill="#000000" font-family="sans-serif" font-size="11" lengthAdjust="spacing" textLength="97" x="858.5" y="1216.6143">getRefValueMetric()</text><!--MD5=[b2d1f399f1909a0bb241ed0598ba126f]
class MedicalReport--><rect codeLine="62" fill="#FEFECE" filter="url(#fkvk7lomwqunt)" height="75.6719" id="MedicalReport" style="stroke:#A80036;stroke-width:1.5;" width="111" x="633.5" y="1078"/><ellipse cx="648.5" cy="1094" fill="#ADD1B2" rx="11" ry="11" style="stroke:#A80036;stroke-width:1.0;"/><path d="M650.5,1090.5 Q650.7031,1090 650.9375,1089.75 Q651.1719,1089.5 651.4375,1089.5 Q651.9063,1089.5 652.2031,1089.7813 Q652.5,1090.0625 652.5,1090.7188 L652.5,1092.2813 Q652.5,1092.9375 652.2188,1093.2188 Q651.9375,1093.5 651.5,1093.5 Q651.1094,1093.5 650.8594,1093.3281 Q650.6094,1093.1563 650.5,1092.7031 Q650.4531,1092.3906 650.2813,1092.2188 Q649.9688,1091.8906 649.4063,1091.7031 Q648.8438,1091.5 648.2813,1091.5 Q647.5781,1091.5 646.9844,1091.7813 Q646.4063,1092.0625 645.9531,1092.6875 Q645.5,1093.3125 645.5,1094.1719 L645.5,1095.0938 Q645.5,1096.125 646.3438,1096.8125 Q647.1875,1097.5 648.6875,1097.5 Q649.5781,1097.5 650.2031,1097.2969 Q650.5625,1097.1875 650.9688,1096.8281 Q651.2344,1096.625 651.375,1096.5625 Q651.5156,1096.5 651.6875,1096.5 Q652.0156,1096.5 652.25,1096.7656 Q652.5,1097.0156 652.5,1097.375 Q652.5,1097.7188 652.1563,1098.125 Q651.6563,1098.7188 650.8594,1099.0469 Q649.8125,1099.5 648.5313,1099.5 Q647.0313,1099.5 645.8281,1098.9063 Q644.8594,1098.4375 644.1719,1097.4219 Q643.5,1096.4063 643.5,1095.2031 L643.5,1094.1094 Q643.5,1092.8594 644.0938,1091.7656 Q644.7031,1090.6719 645.75,1090.0938 Q646.8125,1089.5 648,1089.5 Q648.7188,1089.5 649.3438,1089.75 Q649.9688,1090 650.5,1090.5 Z " fill="#000000"/><text fill="#000000" font-family="sans-serif" font-size="12" lengthAdjust="spacing" textLength="79" x="662.5" y="1098.9102">MedicalReport</text><line style="stroke:#A80036;stroke-width:1.5;" x1="634.5" x2="743.5" y1="1110" y2="1110"/><rect fill="none" height="6" style="stroke:#C82930;stroke-width:1.0;" width="6" x="641.5" y="1118"/><text fill="#000000" font-family="sans-serif" font-size="11" lengthAdjust="spacing" textLength="77" x="653.5" y="1125.4189">String diagnosis</text><rect fill="none" height="6" style="stroke:#C82930;stroke-width:1.0;" width="6" x="641.5" y="1131.8359"/><text fill="#000000" font-family="sans-serif" font-size="11" lengthAdjust="spacing" textLength="73" x="653.5" y="1139.2549">Date createdAt</text><line style="stroke:#A80036;stroke-width:1.5;" x1="634.5" x2="743.5" y1="1145.6719" y2="1145.6719"/><!--MD5=[ed6624c6556d5e7b1bd23032162d20b7]
class Client--><rect codeLine="66" fill="#FEFECE" filter="url(#fkvk7lomwqunt)" height="158.6875" id="Client" style="stroke:#A80036;stroke-width:1.5;" width="148" x="574" y="789"/><ellipse cx="627.75" cy="805" fill="#ADD1B2" rx="11" ry="11" style="stroke:#A80036;stroke-width:1.0;"/><path d="M629.75,801.5 Q629.9531,801 630.1875,800.75 Q630.4219,800.5 630.6875,800.5 Q631.1563,800.5 631.4531,800.7813 Q631.75,801.0625 631.75,801.7188 L631.75,803.2813 Q631.75,803.9375 631.4688,804.2188 Q631.1875,804.5 630.75,804.5 Q630.3594,804.5 630.1094,804.3281 Q629.8594,804.1563 629.75,803.7031 Q629.7031,803.3906 629.5313,803.2188 Q629.2188,802.8906 628.6563,802.7031 Q628.0938,802.5 627.5313,802.5 Q626.8281,802.5 626.2344,802.7813 Q625.6563,803.0625 625.2031,803.6875 Q624.75,804.3125 624.75,805.1719 L624.75,806.0938 Q624.75,807.125 625.5938,807.8125 Q626.4375,808.5 627.9375,808.5 Q628.8281,808.5 629.4531,808.2969 Q629.8125,808.1875 630.2188,807.8281 Q630.4844,807.625 630.625,807.5625 Q630.7656,807.5 630.9375,807.5 Q631.2656,807.5 631.5,807.7656 Q631.75,808.0156 631.75,808.375 Q631.75,808.7188 631.4063,809.125 Q630.9063,809.7188 630.1094,810.0469 Q629.0625,810.5 627.7813,810.5 Q626.2813,810.5 625.0781,809.9063 Q624.1094,809.4375 623.4219,808.4219 Q622.75,807.4063 622.75,806.2031 L622.75,805.1094 Q622.75,803.8594 623.3438,802.7656 Q623.9531,801.6719 625,801.0938 Q626.0625,800.5 627.25,800.5 Q627.9688,800.5 628.5938,800.75 Q629.2188,801 629.75,801.5 Z " fill="#000000"/><text fill="#000000" font-family="sans-serif" font-size="12" lengthAdjust="spacing" textLength="32" x="648.25" y="809.9102">Client</text><line style="stroke:#A80036;stroke-width:1.5;" x1="575" x2="721" y1="821" y2="821"/><rect fill="none" height="6" style="stroke:#C82930;stroke-width:1.0;" width="6" x="582" y="829"/><text fill="#000000" font-family="sans-serif" font-size="11" lengthAdjust="spacing" textLength="57" x="594" y="836.4189">String name</text><rect fill="none" height="6" style="stroke:#C82930;stroke-width:1.0;" width="6" x="582" y="842.8359"/><text fill="#000000" font-family="sans-serif" font-size="11" lengthAdjust="spacing" textLength="55" x="594" y="850.2549">String email</text><rect fill="none" height="6" style="stroke:#C82930;stroke-width:1.0;" width="6" x="582" y="856.6719"/><text fill="#000000" font-family="sans-serif" font-size="11" lengthAdjust="spacing" textLength="98" x="594" y="864.0908">String phoneNumber</text><rect fill="none" height="6" style="stroke:#C82930;stroke-width:1.0;" width="6" x="582" y="870.5078"/><text fill="#000000" font-family="sans-serif" font-size="11" lengthAdjust="spacing" textLength="49" x="594" y="877.9268">String sex</text><rect fill="none" height="6" style="stroke:#C82930;stroke-width:1.0;" width="6" x="582" y="884.3438"/><text fill="#000000" font-family="sans-serif" font-size="11" lengthAdjust="spacing" textLength="42" x="594" y="891.7627">String tin</text><rect fill="none" height="6" style="stroke:#C82930;stroke-width:1.0;" width="6" x="582" y="898.1797"/><text fill="#000000" font-family="sans-serif" font-size="11" lengthAdjust="spacing" textLength="74" x="594" y="905.5986">String birthDate</text><rect fill="none" height="6" style="stroke:#C82930;stroke-width:1.0;" width="6" x="582" y="912.0156"/><text fill="#000000" font-family="sans-serif" font-size="11" lengthAdjust="spacing" textLength="86" x="594" y="919.4346">String nhsNumber</text><rect fill="none" height="6" style="stroke:#C82930;stroke-width:1.0;" width="6" x="582" y="925.8516"/><text fill="#000000" font-family="sans-serif" font-size="11" lengthAdjust="spacing" textLength="122" x="594" y="933.2705">String citizenCardNumber</text><line style="stroke:#A80036;stroke-width:1.5;" x1="575" x2="721" y1="939.6875" y2="939.6875"/><!--MD5=[0f6f7964b844a64b0496af0dda7914bd]
class TestStore--><rect codeLine="80" fill="#FEFECE" filter="url(#fkvk7lomwqunt)" height="89.5078" id="TestStore" style="stroke:#A80036;stroke-width:1.5;" width="205" x="230.5" y="559"/><ellipse cx="302.25" cy="575" fill="#ADD1B2" rx="11" ry="11" style="stroke:#A80036;stroke-width:1.0;"/><path d="M304.25,571.5 Q304.4531,571 304.6875,570.75 Q304.9219,570.5 305.1875,570.5 Q305.6563,570.5 305.9531,570.7813 Q306.25,571.0625 306.25,571.7188 L306.25,573.2813 Q306.25,573.9375 305.9688,574.2188 Q305.6875,574.5 305.25,574.5 Q304.8594,574.5 304.6094,574.3281 Q304.3594,574.1563 304.25,573.7031 Q304.2031,573.3906 304.0313,573.2188 Q303.7188,572.8906 303.1563,572.7031 Q302.5938,572.5 302.0313,572.5 Q301.3281,572.5 300.7344,572.7813 Q300.1563,573.0625 299.7031,573.6875 Q299.25,574.3125 299.25,575.1719 L299.25,576.0938 Q299.25,577.125 300.0938,577.8125 Q300.9375,578.5 302.4375,578.5 Q303.3281,578.5 303.9531,578.2969 Q304.3125,578.1875 304.7188,577.8281 Q304.9844,577.625 305.125,577.5625 Q305.2656,577.5 305.4375,577.5 Q305.7656,577.5 306,577.7656 Q306.25,578.0156 306.25,578.375 Q306.25,578.7188 305.9063,579.125 Q305.4063,579.7188 304.6094,580.0469 Q303.5625,580.5 302.2813,580.5 Q300.7813,580.5 299.5781,579.9063 Q298.6094,579.4375 297.9219,578.4219 Q297.25,577.4063 297.25,576.2031 L297.25,575.1094 Q297.25,573.8594 297.8438,572.7656 Q298.4531,571.6719 299.5,571.0938 Q300.5625,570.5 301.75,570.5 Q302.4688,570.5 303.0938,570.75 Q303.7188,571 304.25,571.5 Z " fill="#000000"/><text fill="#000000" font-family="sans-serif" font-size="12" lengthAdjust="spacing" textLength="53" x="322.75" y="579.9102">TestStore</text><line style="stroke:#A80036;stroke-width:1.5;" x1="231.5" x2="434.5" y1="591" y2="591"/><line style="stroke:#A80036;stroke-width:1.5;" x1="231.5" x2="434.5" y1="599" y2="599"/><ellipse cx="241.5" cy="610" fill="#84BE84" rx="3" ry="3" style="stroke:#038048;stroke-width:1.0;"/><text fill="#000000" font-family="sans-serif" font-size="11" lengthAdjust="spacing" textLength="163" x="250.5" y="614.4189">getTestListAssociatedWithClient()</text><ellipse cx="241.5" cy="623.8359" fill="#84BE84" rx="3" ry="3" style="stroke:#038048;stroke-width:1.0;"/><text fill="#000000" font-family="sans-serif" font-size="11" lengthAdjust="spacing" textLength="179" x="250.5" y="628.2549">orderClientTestsByRegistrationDate()</text><ellipse cx="241.5" cy="637.6719" fill="#84BE84" rx="3" ry="3" style="stroke:#038048;stroke-width:1.0;"/><text fill="#000000" font-family="sans-serif" font-size="11" lengthAdjust="spacing" textLength="141" x="250.5" y="642.0908">getTestByInternalCode(code)</text><!--MD5=[55cb992be19579b505cea3c5691093cb]
class ClientStore--><rect codeLine="85" fill="#FEFECE" filter="url(#fkvk7lomwqunt)" height="61.8359" id="ClientStore" style="stroke:#A80036;stroke-width:1.5;" width="136" x="59" y="573"/><ellipse cx="93.35" cy="589" fill="#ADD1B2" rx="11" ry="11" style="stroke:#A80036;stroke-width:1.0;"/><path d="M95.35,585.5 Q95.5531,585 95.7875,584.75 Q96.0219,584.5 96.2875,584.5 Q96.7563,584.5 97.0531,584.7813 Q97.35,585.0625 97.35,585.7188 L97.35,587.2813 Q97.35,587.9375 97.0688,588.2188 Q96.7875,588.5 96.35,588.5 Q95.9594,588.5 95.7094,588.3281 Q95.4594,588.1563 95.35,587.7031 Q95.3031,587.3906 95.1313,587.2188 Q94.8188,586.8906 94.2563,586.7031 Q93.6938,586.5 93.1313,586.5 Q92.4281,586.5 91.8344,586.7813 Q91.2563,587.0625 90.8031,587.6875 Q90.35,588.3125 90.35,589.1719 L90.35,590.0938 Q90.35,591.125 91.1938,591.8125 Q92.0375,592.5 93.5375,592.5 Q94.4281,592.5 95.0531,592.2969 Q95.4125,592.1875 95.8188,591.8281 Q96.0844,591.625 96.225,591.5625 Q96.3656,591.5 96.5375,591.5 Q96.8656,591.5 97.1,591.7656 Q97.35,592.0156 97.35,592.375 Q97.35,592.7188 97.0063,593.125 Q96.5063,593.7188 95.7094,594.0469 Q94.6625,594.5 93.3813,594.5 Q91.8813,594.5 90.6781,593.9063 Q89.7094,593.4375 89.0219,592.4219 Q88.35,591.4063 88.35,590.2031 L88.35,589.1094 Q88.35,587.8594 88.9438,586.7656 Q89.5531,585.6719 90.6,585.0938 Q91.6625,584.5 92.85,584.5 Q93.5688,584.5 94.1938,584.75 Q94.8188,585 95.35,585.5 Z " fill="#000000"/><text fill="#000000" font-family="sans-serif" font-size="12" lengthAdjust="spacing" textLength="61" x="111.65" y="593.9102">ClientStore</text><line style="stroke:#A80036;stroke-width:1.5;" x1="60" x2="194" y1="605" y2="605"/><line style="stroke:#A80036;stroke-width:1.5;" x1="60" x2="194" y1="613" y2="613"/><ellipse cx="70" cy="624" fill="#84BE84" rx="3" ry="3" style="stroke:#038048;stroke-width:1.0;"/><text fill="#000000" font-family="sans-serif" font-size="11" lengthAdjust="spacing" textLength="110" x="79" y="628.4189">getClientByEmail(email)</text><!--MD5=[144698ec4d0188f6929a3b58a3eeb1f6]
class TestMapper--><rect codeLine="92" fill="#FEFECE" filter="url(#fkvk7lomwqunt)" height="61.8359" id="TestMapper" style="stroke:#A80036;stroke-width:1.5;" width="97" x="1156.5" y="350"/><ellipse cx="1171.5" cy="366" fill="#ADD1B2" rx="11" ry="11" style="stroke:#A80036;stroke-width:1.0;"/><path d="M1173.5,362.5 Q1173.7031,362 1173.9375,361.75 Q1174.1719,361.5 1174.4375,361.5 Q1174.9063,361.5 1175.2031,361.7813 Q1175.5,362.0625 1175.5,362.7188 L1175.5,364.2813 Q1175.5,364.9375 1175.2188,365.2188 Q1174.9375,365.5 1174.5,365.5 Q1174.1094,365.5 1173.8594,365.3281 Q1173.6094,365.1563 1173.5,364.7031 Q1173.4531,364.3906 1173.2813,364.2188 Q1172.9688,363.8906 1172.4063,363.7031 Q1171.8438,363.5 1171.2813,363.5 Q1170.5781,363.5 1169.9844,363.7813 Q1169.4063,364.0625 1168.9531,364.6875 Q1168.5,365.3125 1168.5,366.1719 L1168.5,367.0938 Q1168.5,368.125 1169.3438,368.8125 Q1170.1875,369.5 1171.6875,369.5 Q1172.5781,369.5 1173.2031,369.2969 Q1173.5625,369.1875 1173.9688,368.8281 Q1174.2344,368.625 1174.375,368.5625 Q1174.5156,368.5 1174.6875,368.5 Q1175.0156,368.5 1175.25,368.7656 Q1175.5,369.0156 1175.5,369.375 Q1175.5,369.7188 1175.1563,370.125 Q1174.6563,370.7188 1173.8594,371.0469 Q1172.8125,371.5 1171.5313,371.5 Q1170.0313,371.5 1168.8281,370.9063 Q1167.8594,370.4375 1167.1719,369.4219 Q1166.5,368.4063 1166.5,367.2031 L1166.5,366.1094 Q1166.5,364.8594 1167.0938,363.7656 Q1167.7031,362.6719 1168.75,362.0938 Q1169.8125,361.5 1171,361.5 Q1171.7188,361.5 1172.3438,361.75 Q1172.9688,362 1173.5,362.5 Z " fill="#000000"/><text fill="#000000" font-family="sans-serif" font-size="12" lengthAdjust="spacing" textLength="65" x="1185.5" y="370.9102">TestMapper</text><line style="stroke:#A80036;stroke-width:1.5;" x1="1157.5" x2="1252.5" y1="382" y2="382"/><line style="stroke:#A80036;stroke-width:1.5;" x1="1157.5" x2="1252.5" y1="390" y2="390"/><ellipse cx="1167.5" cy="401" fill="#84BE84" rx="3" ry="3" style="stroke:#038048;stroke-width:1.0;"/><text fill="#000000" font-family="sans-serif" font-size="11" lengthAdjust="spacing" textLength="68" x="1176.5" y="405.4189">toDto(testList)</text><!--MD5=[7301aa9517ef937f4fbafc6fd10bb780]
class TestResultsMapper--><rect codeLine="95" fill="#FEFECE" filter="url(#fkvk7lomwqunt)" height="61.8359" id="TestResultsMapper" style="stroke:#A80036;stroke-width:1.5;" width="140" x="1289" y="350"/><ellipse cx="1304" cy="366" fill="#ADD1B2" rx="11" ry="11" style="stroke:#A80036;stroke-width:1.0;"/><path d="M1306,362.5 Q1306.2031,362 1306.4375,361.75 Q1306.6719,361.5 1306.9375,361.5 Q1307.4063,361.5 1307.7031,361.7813 Q1308,362.0625 1308,362.7188 L1308,364.2813 Q1308,364.9375 1307.7188,365.2188 Q1307.4375,365.5 1307,365.5 Q1306.6094,365.5 1306.3594,365.3281 Q1306.1094,365.1563 1306,364.7031 Q1305.9531,364.3906 1305.7813,364.2188 Q1305.4688,363.8906 1304.9063,363.7031 Q1304.3438,363.5 1303.7813,363.5 Q1303.0781,363.5 1302.4844,363.7813 Q1301.9063,364.0625 1301.4531,364.6875 Q1301,365.3125 1301,366.1719 L1301,367.0938 Q1301,368.125 1301.8438,368.8125 Q1302.6875,369.5 1304.1875,369.5 Q1305.0781,369.5 1305.7031,369.2969 Q1306.0625,369.1875 1306.4688,368.8281 Q1306.7344,368.625 1306.875,368.5625 Q1307.0156,368.5 1307.1875,368.5 Q1307.5156,368.5 1307.75,368.7656 Q1308,369.0156 1308,369.375 Q1308,369.7188 1307.6563,370.125 Q1307.1563,370.7188 1306.3594,371.0469 Q1305.3125,371.5 1304.0313,371.5 Q1302.5313,371.5 1301.3281,370.9063 Q1300.3594,370.4375 1299.6719,369.4219 Q1299,368.4063 1299,367.2031 L1299,366.1094 Q1299,364.8594 1299.5938,363.7656 Q1300.2031,362.6719 1301.25,362.0938 Q1302.3125,361.5 1303.5,361.5 Q1304.2188,361.5 1304.8438,361.75 Q1305.4688,362 1306,362.5 Z " fill="#000000"/><text fill="#000000" font-family="sans-serif" font-size="12" lengthAdjust="spacing" textLength="108" x="1318" y="370.9102">TestResultsMapper</text><line style="stroke:#A80036;stroke-width:1.5;" x1="1290" x2="1428" y1="382" y2="382"/><line style="stroke:#A80036;stroke-width:1.5;" x1="1290" x2="1428" y1="390" y2="390"/><ellipse cx="1300" cy="401" fill="#84BE84" rx="3" ry="3" style="stroke:#038048;stroke-width:1.0;"/><text fill="#000000" font-family="sans-serif" font-size="11" lengthAdjust="spacing" textLength="51" x="1309" y="405.4189">toDto(test)</text><!--MD5=[a82d32c079496d6dca2681dc0633feb0]
class TestParameterMapper--><rect codeLine="98" fill="#FEFECE" filter="url(#fkvk7lomwqunt)" height="61.8359" id="TestParameterMapper" style="stroke:#A80036;stroke-width:1.5;" width="155" x="826.5" y="350"/><ellipse cx="841.5" cy="366" fill="#ADD1B2" rx="11" ry="11" style="stroke:#A80036;stroke-width:1.0;"/><path d="M843.5,362.5 Q843.7031,362 843.9375,361.75 Q844.1719,361.5 844.4375,361.5 Q844.9063,361.5 845.2031,361.7813 Q845.5,362.0625 845.5,362.7188 L845.5,364.2813 Q845.5,364.9375 845.2188,365.2188 Q844.9375,365.5 844.5,365.5 Q844.1094,365.5 843.8594,365.3281 Q843.6094,365.1563 843.5,364.7031 Q843.4531,364.3906 843.2813,364.2188 Q842.9688,363.8906 842.4063,363.7031 Q841.8438,363.5 841.2813,363.5 Q840.5781,363.5 839.9844,363.7813 Q839.4063,364.0625 838.9531,364.6875 Q838.5,365.3125 838.5,366.1719 L838.5,367.0938 Q838.5,368.125 839.3438,368.8125 Q840.1875,369.5 841.6875,369.5 Q842.5781,369.5 843.2031,369.2969 Q843.5625,369.1875 843.9688,368.8281 Q844.2344,368.625 844.375,368.5625 Q844.5156,368.5 844.6875,368.5 Q845.0156,368.5 845.25,368.7656 Q845.5,369.0156 845.5,369.375 Q845.5,369.7188 845.1563,370.125 Q844.6563,370.7188 843.8594,371.0469 Q842.8125,371.5 841.5313,371.5 Q840.0313,371.5 838.8281,370.9063 Q837.8594,370.4375 837.1719,369.4219 Q836.5,368.4063 836.5,367.2031 L836.5,366.1094 Q836.5,364.8594 837.0938,363.7656 Q837.7031,362.6719 838.75,362.0938 Q839.8125,361.5 841,361.5 Q841.7188,361.5 842.3438,361.75 Q842.9688,362 843.5,362.5 Z " fill="#000000"/><text fill="#000000" font-family="sans-serif" font-size="12" lengthAdjust="spacing" textLength="123" x="855.5" y="370.9102">TestParameterMapper</text><line style="stroke:#A80036;stroke-width:1.5;" x1="827.5" x2="980.5" y1="382" y2="382"/><line style="stroke:#A80036;stroke-width:1.5;" x1="827.5" x2="980.5" y1="390" y2="390"/><ellipse cx="837.5" cy="401" fill="#84BE84" rx="3" ry="3" style="stroke:#038048;stroke-width:1.0;"/><text fill="#000000" font-family="sans-serif" font-size="11" lengthAdjust="spacing" textLength="128" x="846.5" y="405.4189">toDTO(testParametersList)</text><!--MD5=[d9af5e34e5bc78cd5a2caff02363fedd]
class ClientMapper--><rect codeLine="101" fill="#FEFECE" filter="url(#fkvk7lomwqunt)" height="61.8359" id="ClientMapper" style="stroke:#A80036;stroke-width:1.5;" width="105" x="1016.5" y="350"/><ellipse cx="1031.5" cy="366" fill="#ADD1B2" rx="11" ry="11" style="stroke:#A80036;stroke-width:1.0;"/><path d="M1033.5,362.5 Q1033.7031,362 1033.9375,361.75 Q1034.1719,361.5 1034.4375,361.5 Q1034.9063,361.5 1035.2031,361.7813 Q1035.5,362.0625 1035.5,362.7188 L1035.5,364.2813 Q1035.5,364.9375 1035.2188,365.2188 Q1034.9375,365.5 1034.5,365.5 Q1034.1094,365.5 1033.8594,365.3281 Q1033.6094,365.1563 1033.5,364.7031 Q1033.4531,364.3906 1033.2813,364.2188 Q1032.9688,363.8906 1032.4063,363.7031 Q1031.8438,363.5 1031.2813,363.5 Q1030.5781,363.5 1029.9844,363.7813 Q1029.4063,364.0625 1028.9531,364.6875 Q1028.5,365.3125 1028.5,366.1719 L1028.5,367.0938 Q1028.5,368.125 1029.3438,368.8125 Q1030.1875,369.5 1031.6875,369.5 Q1032.5781,369.5 1033.2031,369.2969 Q1033.5625,369.1875 1033.9688,368.8281 Q1034.2344,368.625 1034.375,368.5625 Q1034.5156,368.5 1034.6875,368.5 Q1035.0156,368.5 1035.25,368.7656 Q1035.5,369.0156 1035.5,369.375 Q1035.5,369.7188 1035.1563,370.125 Q1034.6563,370.7188 1033.8594,371.0469 Q1032.8125,371.5 1031.5313,371.5 Q1030.0313,371.5 1028.8281,370.9063 Q1027.8594,370.4375 1027.1719,369.4219 Q1026.5,368.4063 1026.5,367.2031 L1026.5,366.1094 Q1026.5,364.8594 1027.0938,363.7656 Q1027.7031,362.6719 1028.75,362.0938 Q1029.8125,361.5 1031,361.5 Q1031.7188,361.5 1032.3438,361.75 Q1032.9688,362 1033.5,362.5 Z " fill="#000000"/><text fill="#000000" font-family="sans-serif" font-size="12" lengthAdjust="spacing" textLength="73" x="1045.5" y="370.9102">ClientMapper</text><line style="stroke:#A80036;stroke-width:1.5;" x1="1017.5" x2="1120.5" y1="382" y2="382"/><line style="stroke:#A80036;stroke-width:1.5;" x1="1017.5" x2="1120.5" y1="390" y2="390"/><ellipse cx="1027.5" cy="401" fill="#84BE84" rx="3" ry="3" style="stroke:#038048;stroke-width:1.0;"/><text fill="#000000" font-family="sans-serif" font-size="11" lengthAdjust="spacing" textLength="58" x="1036.5" y="405.4189">toDto(client)</text><!--MD5=[1c38f6084f2098752e2974895ca67f4c]
class TestDto--><rect codeLine="108" fill="#FEFECE" filter="url(#fkvk7lomwqunt)" height="75.6719" id="TestDto" style="stroke:#A80036;stroke-width:1.5;" width="104" x="1326" y="566"/><ellipse cx="1354.05" cy="582" fill="#ADD1B2" rx="11" ry="11" style="stroke:#A80036;stroke-width:1.0;"/><path d="M1356.05,578.5 Q1356.2531,578 1356.4875,577.75 Q1356.7219,577.5 1356.9875,577.5 Q1357.4563,577.5 1357.7531,577.7813 Q1358.05,578.0625 1358.05,578.7188 L1358.05,580.2813 Q1358.05,580.9375 1357.7688,581.2188 Q1357.4875,581.5 1357.05,581.5 Q1356.6594,581.5 1356.4094,581.3281 Q1356.1594,581.1563 1356.05,580.7031 Q1356.0031,580.3906 1355.8313,580.2188 Q1355.5188,579.8906 1354.9563,579.7031 Q1354.3938,579.5 1353.8313,579.5 Q1353.1281,579.5 1352.5344,579.7813 Q1351.9563,580.0625 1351.5031,580.6875 Q1351.05,581.3125 1351.05,582.1719 L1351.05,583.0938 Q1351.05,584.125 1351.8938,584.8125 Q1352.7375,585.5 1354.2375,585.5 Q1355.1281,585.5 1355.7531,585.2969 Q1356.1125,585.1875 1356.5188,584.8281 Q1356.7844,584.625 1356.925,584.5625 Q1357.0656,584.5 1357.2375,584.5 Q1357.5656,584.5 1357.8,584.7656 Q1358.05,585.0156 1358.05,585.375 Q1358.05,585.7188 1357.7063,586.125 Q1357.2063,586.7188 1356.4094,587.0469 Q1355.3625,587.5 1354.0813,587.5 Q1352.5813,587.5 1351.3781,586.9063 Q1350.4094,586.4375 1349.7219,585.4219 Q1349.05,584.4063 1349.05,583.2031 L1349.05,582.1094 Q1349.05,580.8594 1349.6438,579.7656 Q1350.2531,578.6719 1351.3,578.0938 Q1352.3625,577.5 1353.55,577.5 Q1354.2688,577.5 1354.8938,577.75 Q1355.5188,578 1356.05,578.5 Z " fill="#000000"/><text fill="#000000" font-family="sans-serif" font-size="12" lengthAdjust="spacing" textLength="43" x="1370.95" y="586.9102">TestDto</text><line style="stroke:#A80036;stroke-width:1.5;" x1="1327" x2="1429" y1="598" y2="598"/><rect fill="none" height="6" style="stroke:#C82930;stroke-width:1.0;" width="6" x="1334" y="606"/><text fill="#000000" font-family="sans-serif" font-size="11" lengthAdjust="spacing" textLength="78" x="1346" y="613.4189">testInternalCode</text><rect fill="none" height="6" style="stroke:#C82930;stroke-width:1.0;" width="6" x="1334" y="619.8359"/><text fill="#000000" font-family="sans-serif" font-size="11" lengthAdjust="spacing" textLength="72" x="1346" y="627.2549">testDescription</text><line style="stroke:#A80036;stroke-width:1.5;" x1="1327" x2="1429" y1="633.6719" y2="633.6719"/><!--MD5=[ac976734434c5552a2abaad0a734408b]
class TestResultDto--><rect codeLine="112" fill="#FEFECE" filter="url(#fkvk7lomwqunt)" height="75.6719" id="TestResultDto" style="stroke:#A80036;stroke-width:1.5;" width="132" x="1465" y="566"/><ellipse cx="1489.45" cy="582" fill="#ADD1B2" rx="11" ry="11" style="stroke:#A80036;stroke-width:1.0;"/><path d="M1491.45,578.5 Q1491.6531,578 1491.8875,577.75 Q1492.1219,577.5 1492.3875,577.5 Q1492.8563,577.5 1493.1531,577.7813 Q1493.45,578.0625 1493.45,578.7188 L1493.45,580.2813 Q1493.45,580.9375 1493.1688,581.2188 Q1492.8875,581.5 1492.45,581.5 Q1492.0594,581.5 1491.8094,581.3281 Q1491.5594,581.1563 1491.45,580.7031 Q1491.4031,580.3906 1491.2313,580.2188 Q1490.9188,579.8906 1490.3563,579.7031 Q1489.7938,579.5 1489.2313,579.5 Q1488.5281,579.5 1487.9344,579.7813 Q1487.3563,580.0625 1486.9031,580.6875 Q1486.45,581.3125 1486.45,582.1719 L1486.45,583.0938 Q1486.45,584.125 1487.2938,584.8125 Q1488.1375,585.5 1489.6375,585.5 Q1490.5281,585.5 1491.1531,585.2969 Q1491.5125,585.1875 1491.9188,584.8281 Q1492.1844,584.625 1492.325,584.5625 Q1492.4656,584.5 1492.6375,584.5 Q1492.9656,584.5 1493.2,584.7656 Q1493.45,585.0156 1493.45,585.375 Q1493.45,585.7188 1493.1063,586.125 Q1492.6063,586.7188 1491.8094,587.0469 Q1490.7625,587.5 1489.4813,587.5 Q1487.9813,587.5 1486.7781,586.9063 Q1485.8094,586.4375 1485.1219,585.4219 Q1484.45,584.4063 1484.45,583.2031 L1484.45,582.1094 Q1484.45,580.8594 1485.0438,579.7656 Q1485.6531,578.6719 1486.7,578.0938 Q1487.7625,577.5 1488.95,577.5 Q1489.6688,577.5 1490.2938,577.75 Q1490.9188,578 1491.45,578.5 Z " fill="#000000"/><text fill="#000000" font-family="sans-serif" font-size="12" lengthAdjust="spacing" textLength="79" x="1505.55" y="586.9102">TestResultDto</text><line style="stroke:#A80036;stroke-width:1.5;" x1="1466" x2="1596" y1="598" y2="598"/><rect fill="none" height="6" style="stroke:#C82930;stroke-width:1.0;" width="6" x="1473" y="606"/><text fill="#000000" font-family="sans-serif" font-size="11" lengthAdjust="spacing" textLength="106" x="1485" y="613.4189">testParametersListDto</text><rect fill="none" height="6" style="stroke:#C82930;stroke-width:1.0;" width="6" x="1473" y="619.8359"/><text fill="#000000" font-family="sans-serif" font-size="11" lengthAdjust="spacing" textLength="68" x="1485" y="627.2549">medicalReport</text><line style="stroke:#A80036;stroke-width:1.5;" x1="1466" x2="1596" y1="633.6719" y2="633.6719"/><!--MD5=[fa2f44d2bdbb0499bd765719ad83ddd6]
class TestParameterDto--><rect codeLine="116" fill="#FEFECE" filter="url(#fkvk7lomwqunt)" height="48" id="TestParameterDto" style="stroke:#A80036;stroke-width:1.5;" width="133" x="1157.5" y="580"/><ellipse cx="1172.5" cy="596" fill="#ADD1B2" rx="11" ry="11" style="stroke:#A80036;stroke-width:1.0;"/><path d="M1174.5,592.5 Q1174.7031,592 1174.9375,591.75 Q1175.1719,591.5 1175.4375,591.5 Q1175.9063,591.5 1176.2031,591.7813 Q1176.5,592.0625 1176.5,592.7188 L1176.5,594.2813 Q1176.5,594.9375 1176.2188,595.2188 Q1175.9375,595.5 1175.5,595.5 Q1175.1094,595.5 1174.8594,595.3281 Q1174.6094,595.1563 1174.5,594.7031 Q1174.4531,594.3906 1174.2813,594.2188 Q1173.9688,593.8906 1173.4063,593.7031 Q1172.8438,593.5 1172.2813,593.5 Q1171.5781,593.5 1170.9844,593.7813 Q1170.4063,594.0625 1169.9531,594.6875 Q1169.5,595.3125 1169.5,596.1719 L1169.5,597.0938 Q1169.5,598.125 1170.3438,598.8125 Q1171.1875,599.5 1172.6875,599.5 Q1173.5781,599.5 1174.2031,599.2969 Q1174.5625,599.1875 1174.9688,598.8281 Q1175.2344,598.625 1175.375,598.5625 Q1175.5156,598.5 1175.6875,598.5 Q1176.0156,598.5 1176.25,598.7656 Q1176.5,599.0156 1176.5,599.375 Q1176.5,599.7188 1176.1563,600.125 Q1175.6563,600.7188 1174.8594,601.0469 Q1173.8125,601.5 1172.5313,601.5 Q1171.0313,601.5 1169.8281,600.9063 Q1168.8594,600.4375 1168.1719,599.4219 Q1167.5,598.4063 1167.5,597.2031 L1167.5,596.1094 Q1167.5,594.8594 1168.0938,593.7656 Q1168.7031,592.6719 1169.75,592.0938 Q1170.8125,591.5 1172,591.5 Q1172.7188,591.5 1173.3438,591.75 Q1173.9688,592 1174.5,592.5 Z " fill="#000000"/><text fill="#000000" font-family="sans-serif" font-size="12" lengthAdjust="spacing" textLength="101" x="1186.5" y="600.9102">TestParameterDto</text><line style="stroke:#A80036;stroke-width:1.5;" x1="1158.5" x2="1289.5" y1="612" y2="612"/><line style="stroke:#A80036;stroke-width:1.5;" x1="1158.5" x2="1289.5" y1="620" y2="620"/><!--MD5=[3994f36c72829dbcddd1cf7021dddf61]
link Test to Client--><path codeLine="120" d="M760.44,695.81 C754.69,701.11 748.85,706.22 743,711 C723.22,727.14 710.16,721.23 694,741 C682.61,754.93 673.92,771.93 667.32,788.89 " fill="none" id="Test-Client" style="stroke:#A80036;stroke-width:1.0;"/><polygon fill="#000000" points="695.4637,753.7106,703.9386,749.3947,699.7832,745.2375,695.4637,753.7106" style="stroke:#000000;stroke-width:1.0;"/><text fill="#000000" font-family="sans-serif" font-size="13" lengthAdjust="spacing" textLength="74" x="708" y="755.4951">associated a</text><text fill="#000000" font-family="sans-serif" font-size="13" lengthAdjust="spacing" textLength="20" x="732.5716" y="700.5213">1..*</text><text fill="#000000" font-family="sans-serif" font-size="13" lengthAdjust="spacing" textLength="7" x="661.8278" y="778.0664">1</text><!--MD5=[c3238c64a9072feb51e313e35a850213]
link Test to MedicalReport--><path codeLine="121" d="M810.61,711.29 C790.54,779.06 763.89,868.74 740,948 C726.53,992.7 710.81,1044.05 700.42,1077.88 " fill="none" id="Test-MedicalReport" style="stroke:#A80036;stroke-width:1.0;"/><polygon fill="#000000" points="789.5607,873.4641,794.9789,865.6479,789.3499,863.9559,789.5607,873.4641" style="stroke:#000000;stroke-width:1.0;"/><text fill="#000000" font-family="sans-serif" font-size="13" lengthAdjust="spacing" textLength="43" x="800" y="873.9951">request</text><text fill="#000000" font-family="sans-serif" font-size="13" lengthAdjust="spacing" textLength="7" x="801.2658" y="732.5419">1</text><text fill="#000000" font-family="sans-serif" font-size="13" lengthAdjust="spacing" textLength="7" x="694.8308" y="1067.2205">1</text><!--MD5=[f24c888dadeb846430474fe80a58922b]
link Test to TestParameter--><path codeLine="122" d="M858.26,711.29 C871.61,798.58 890.42,921.6 903.76,1008.84 " fill="none" id="Test-TestParameter" style="stroke:#A80036;stroke-width:1.0;"/><polygon fill="#000000" points="899.7558,873.6183,901.2937,864.2329,895.4834,865.1214,899.7558,873.6183" style="stroke:#000000;stroke-width:1.0;"/><text fill="#000000" font-family="sans-serif" font-size="13" lengthAdjust="spacing" textLength="116" x="908" y="873.9951">requests analysis of</text><text fill="#000000" font-family="sans-serif" font-size="13" lengthAdjust="spacing" textLength="7" x="852.1173" y="732.5419">1</text><text fill="#000000" font-family="sans-serif" font-size="13" lengthAdjust="spacing" textLength="20" x="881.915" y="998.2492">1..*</text><!--MD5=[37c638f274989fd2ff1f9f9e14db4974]
link ViewResultsUI to ViewResultsController--><path codeLine="124" d="M1490.3,67.93 C1344.97,71 962.48,83.48 846,131 C823.41,140.22 801.86,155.83 784.03,171.37 " fill="none" id="ViewResultsUI-to-ViewResultsController" style="stroke:#A80036;stroke-width:1.0;stroke-dasharray:7.0,7.0;"/><polygon fill="#A80036" points="780.05,174.9,789.4398,171.9282,783.7933,171.5853,784.1362,165.9388,780.05,174.9" style="stroke:#A80036;stroke-width:1.0;"/><!--MD5=[b54267d64ea8966f9bfe406cf2a9b146]
link ViewResultsUI to TestResultDto--><path codeLine="125" d="M1546.31,90.03 C1543.85,172.4 1535.47,453.15 1532.26,560.65 " fill="none" id="ViewResultsUI-to-TestResultDto" style="stroke:#A80036;stroke-width:1.0;stroke-dasharray:7.0,7.0;"/><polygon fill="#A80036" points="1532.11,565.95,1536.3661,557.0683,1532.2532,560.9521,1528.3694,556.8391,1532.11,565.95" style="stroke:#A80036;stroke-width:1.0;"/><!--MD5=[1d563a6ab1f72eec6e2cdbd165653687]
link ViewResultsController to TestMapper--><path codeLine="127" d="M796.13,265.12 C811.58,274.69 828.78,283.56 846,289 C908.19,308.66 1080.4,277.37 1139,306 C1156.95,314.77 1172.2,330.81 1183.5,345.71 " fill="none" id="ViewResultsController-to-TestMapper" style="stroke:#A80036;stroke-width:1.0;stroke-dasharray:7.0,7.0;"/><polygon fill="#A80036" points="1186.58,349.88,1184.4405,340.2663,1183.6052,345.8612,1178.0104,345.026,1186.58,349.88" style="stroke:#A80036;stroke-width:1.0;"/><!--MD5=[6eeffc2936929e77439a3966f5fc8ed9]
link ViewResultsController to TestResultsMapper--><path codeLine="128" d="M795.48,265.05 C811.08,274.74 828.51,283.69 846,289 C891.22,302.73 1227.15,288.37 1271,306 C1292.68,314.72 1312.94,330.94 1328.54,345.98 " fill="none" id="ViewResultsController-to-TestResultsMapper" style="stroke:#A80036;stroke-width:1.0;stroke-dasharray:7.0,7.0;"/><polygon fill="#A80036" points="1332.4,349.77,1328.7718,340.6138,1328.8289,346.2704,1323.1724,346.3275,1332.4,349.77" style="stroke:#A80036;stroke-width:1.0;"/><!--MD5=[e43daab4c0ae7af5707270bfa79c6bd7]
link ViewResultsController to TestParameterMapper--><path codeLine="129" d="M784.24,265.29 C810.92,290.85 843.95,322.49 868.56,346.06 " fill="none" id="ViewResultsController-to-TestParameterMapper" style="stroke:#A80036;stroke-width:1.0;stroke-dasharray:7.0,7.0;"/><polygon fill="#A80036" points="872.44,349.77,868.7011,340.6584,868.8268,346.3139,863.1713,346.4396,872.44,349.77" style="stroke:#A80036;stroke-width:1.0;"/><!--MD5=[399979d7e2a4ff1b7c8ce104a6913b84]
link ViewResultsController to ClientMapper--><path codeLine="130" d="M797.51,265.11 C812.66,274.43 829.37,283.19 846,289 C910.59,311.58 937.75,275.51 999,306 C1017.23,315.08 1033.23,330.96 1045.31,345.7 " fill="none" id="ViewResultsController-to-ClientMapper" style="stroke:#A80036;stroke-width:1.0;stroke-dasharray:7.0,7.0;"/><polygon fill="#A80036" points="1048.61,349.82,1046.0985,340.2968,1045.4813,345.9198,1039.8582,345.3027,1048.61,349.82" style="stroke:#A80036;stroke-width:1.0;"/><!--MD5=[9fee3abfbac3d80a41d2d62992df500c]
link ViewResultsController to TestDto--><path codeLine="131" d="M795.46,265.11 C811.06,274.8 828.49,283.74 846,289 C877.88,298.59 1421.9,282.02 1445,306 C1485.09,347.61 1455.96,379.27 1445,436 C1436.42,480.44 1416.09,528.06 1400.06,561.04 " fill="none" id="ViewResultsController-to-TestDto" style="stroke:#A80036;stroke-width:1.0;stroke-dasharray:7.0,7.0;"/><polygon fill="#A80036" points="1397.73,565.79,1405.2844,559.4709,1399.9317,561.3008,1398.1017,555.9482,1397.73,565.79" style="stroke:#A80036;stroke-width:1.0;"/><!--MD5=[b682c904f4429813952e8841dddbc911]
link ViewResultsController to TestResultDto--><path codeLine="132" d="M746.64,265.31 C758.7,322.03 782.24,415.45 810,436 C867,478.19 1387.4,416.18 1448,453 C1486.79,476.57 1508.82,525.29 1520.29,560.83 " fill="none" id="ViewResultsController-to-TestResultDto" style="stroke:#A80036;stroke-width:1.0;stroke-dasharray:7.0,7.0;"/><polygon fill="#A80036" points="1521.91,565.97,1523.0268,556.1847,1520.4105,561.2001,1515.395,558.5839,1521.91,565.97" style="stroke:#A80036;stroke-width:1.0;"/><!--MD5=[0834b52bd1383a4ffd545238d9edb63e]
link ViewResultsController to TestStore--><path codeLine="133" d="M647.42,226.1 C588.67,233.8 513.86,252.45 463,297 C385.77,364.65 353.1,486.01 340.36,553.79 " fill="none" id="ViewResultsController-to-TestStore" style="stroke:#A80036;stroke-width:1.0;stroke-dasharray:7.0,7.0;"/><polygon fill="#A80036" points="339.4,558.98,344.9745,550.8606,340.312,554.0639,337.1087,549.4014,339.4,558.98" style="stroke:#A80036;stroke-width:1.0;"/><!--MD5=[ddad428d7011c41afa8bf25776574070]
link ViewResultsController to ClientStore--><path codeLine="134" d="M647.29,227.88 C568.62,236.97 453.77,257.92 365,306 C253.22,366.54 175.04,503.82 143.08,568.31 " fill="none" id="ViewResultsController-to-ClientStore" style="stroke:#A80036;stroke-width:1.0;stroke-dasharray:7.0,7.0;"/><polygon fill="#A80036" points="140.86,572.82,148.4305,566.5203,143.0732,568.3365,141.2569,562.9791,140.86,572.82" style="stroke:#A80036;stroke-width:1.0;"/><!--MD5=[bbe44ca4c3525267139fe4ee98b8432a]
link ViewResultsController to Company--><path codeLine="135" d="M693.91,265.35 C686.63,275.07 680.13,285.82 676,297 C644.32,382.82 652.09,491.61 660.57,553.65 " fill="none" id="ViewResultsController-to-Company" style="stroke:#A80036;stroke-width:1.0;stroke-dasharray:7.0,7.0;"/><polygon fill="#A80036" points="661.28,558.77,664.0053,549.3057,660.5929,553.8174,656.0812,550.405,661.28,558.77" style="stroke:#A80036;stroke-width:1.0;"/><!--MD5=[359dc37a28b51676e4b2257229d802a3]
link ViewResultsController to Test--><path codeLine="136" d="M733.86,265.2 C731.11,309.36 730.56,378.73 747,436 C752.43,454.92 760.4,473.98 769.46,492.13 " fill="none" id="ViewResultsController-to-Test" style="stroke:#A80036;stroke-width:1.0;stroke-dasharray:7.0,7.0;"/><polygon fill="#A80036" points="771.78,496.72,771.2951,486.8831,769.5268,492.2565,764.1535,490.4881,771.78,496.72" style="stroke:#A80036;stroke-width:1.0;"/><!--MD5=[548efb859cbf90c31ff5d459527ad5e2]
link ViewResultsController to TestParameter--><path codeLine="137" d="M647.14,221.85 C451.1,226.15 6,250.2 6,380 C6,380 6,380 6,869.5 C6,1040.34 603.78,944.57 762,1009 C786.77,1019.09 811.67,1033.39 834.15,1048.24 " fill="none" id="ViewResultsController-to-TestParameter" style="stroke:#A80036;stroke-width:1.0;stroke-dasharray:7.0,7.0;"/><polygon fill="#A80036" points="838.32,1051.02,833.0372,1042.7078,834.1554,1048.2531,828.6101,1049.3713,838.32,1051.02" style="stroke:#A80036;stroke-width:1.0;"/><!--MD5=[eaba9f3f87f2fb1f92eb3da7b515b24d]
link ViewResultsController to MedicalReport--><path codeLine="138" d="M647.4,240.01 C576.21,260.88 489,302.29 489,380 C489,380 489,380 489,869.5 C489,959.16 570.17,1034.21 629.09,1076.89 " fill="none" id="ViewResultsController-to-MedicalReport" style="stroke:#A80036;stroke-width:1.0;stroke-dasharray:7.0,7.0;"/><polygon fill="#A80036" points="633.29,1079.9,628.3139,1071.4007,629.2291,1076.983,623.6467,1077.8981,633.29,1079.9" style="stroke:#A80036;stroke-width:1.0;"/><!--MD5=[48361cfcc27f7dcb8b5e092179bd64c1]
link ViewResultsController to Client--><path codeLine="139" d="M680.57,265.03 C667.5,277.18 654.65,291.14 645,306 C607.49,363.75 607.03,385.02 596,453 C577.63,566.19 577.69,597.81 596,711 C599.91,735.14 607,760.6 614.71,783.81 " fill="none" id="ViewResultsController-to-Client" style="stroke:#A80036;stroke-width:1.0;stroke-dasharray:7.0,7.0;"/><polygon fill="#A80036" points="616.36,788.72,617.2733,778.9136,614.7617,783.9823,609.693,781.4708,616.36,788.72" style="stroke:#A80036;stroke-width:1.0;"/><!--MD5=[7e4bc624457760b649895ff2ead938fa]
link Company to Test--><path codeLine="141" d="M725.09,604 C735.07,604 745.05,604 755.03,604 " fill="none" id="Company-to-Test" style="stroke:#A80036;stroke-width:1.0;"/><polygon fill="#A80036" points="760.25,604,751.25,600,755.25,604,751.25,608,760.25,604" style="stroke:#A80036;stroke-width:1.0;"/><!--MD5=[7f6cf7f175eae0af66201860de5de971]
link Company to TestStore--><path codeLine="142" d="M612.95,585.24 C555.6,569.88 498.25,566.33 440.9,574.57 " fill="none" id="Company-to-TestStore" style="stroke:#A80036;stroke-width:1.0;"/><polygon fill="#A80036" points="435.7,575.35,445.1945,577.968,440.6445,574.6069,444.0056,570.0568,435.7,575.35" style="stroke:#A80036;stroke-width:1.0;"/><!--MD5=[34b2fed5845bf5a187f4983fcf3f57bc]
link TestMapper to TestDto--><path codeLine="144" d="M1239.3,412.22 C1249.46,420.46 1260.86,429.02 1272,436 C1286.99,445.4 1295.52,440.46 1308,453 C1337.73,482.87 1356.37,527.74 1366.87,560.63 " fill="none" id="TestMapper-to-TestDto" style="stroke:#A80036;stroke-width:1.0;stroke-dasharray:7.0,7.0;"/><polygon fill="#A80036" points="1368.49,565.8,1369.6151,556.0156,1366.9946,561.0289,1361.9813,558.4083,1368.49,565.8" style="stroke:#A80036;stroke-width:1.0;"/><!--MD5=[8d9a2c3ea1bf73d8d45b939465e53fff]
link TestMapper to Test--><path codeLine="145" d="M1175.97,412.08 C1165.26,421.35 1152.44,430.54 1139,436 C1098.29,452.54 979.81,430.62 942,453 C925.12,462.99 910.5,477.09 898.06,492.67 " fill="none" id="TestMapper-to-Test" style="stroke:#A80036;stroke-width:1.0;stroke-dasharray:7.0,7.0;"/><polygon fill="#A80036" points="894.95,496.67,903.6445,492.0434,898.0296,492.731,897.3421,487.116,894.95,496.67" style="stroke:#A80036;stroke-width:1.0;"/><!--MD5=[68c2af83282cf75bacf63871b1e5e75e]
link TestResultsMapper to TestResultDto--><path codeLine="147" d="M1403.66,412.14 C1418.87,423.76 1435.25,437.9 1448,453 C1475.82,485.94 1498.74,529.64 1513.39,561.37 " fill="none" id="TestResultsMapper-to-TestResultDto" style="stroke:#A80036;stroke-width:1.0;stroke-dasharray:7.0,7.0;"/><polygon fill="#A80036" points="1515.49,565.96,1515.37,556.1119,1513.4038,561.416,1508.0996,559.4498,1515.49,565.96" style="stroke:#A80036;stroke-width:1.0;"/><!--MD5=[97362d789e8f1c40f3c5df91e5d043dd]
link TestResultsMapper to TestResult--><path codeLine="148" d="M1317.85,412.19 C1303.65,421.23 1287.22,430.26 1271,436 C1216.07,455.44 1192.63,425.98 1141,453 C1086.9,481.31 1043.6,540.26 1021.36,575.24 " fill="none" id="TestResultsMapper-to-TestResult" style="stroke:#A80036;stroke-width:1.0;stroke-dasharray:7.0,7.0;"/><polygon fill="#A80036" points="1018.49,579.8,1026.6653,574.3078,1021.1503,575.5664,1019.8916,570.0514,1018.49,579.8" style="stroke:#A80036;stroke-width:1.0;"/><!--MD5=[0d2deb453e4521a8ecd45cf39c488e89]
link TestParameterMapper to TestParameterDto--><path codeLine="150" d="M947.54,412.23 C963.09,421.51 981.19,430.67 999,436 C1025.45,443.91 1098.6,431.08 1123,444 C1174.3,471.17 1203.02,537.12 1215.81,575 " fill="none" id="TestParameterMapper-to-TestParameterDto" style="stroke:#A80036;stroke-width:1.0;stroke-dasharray:7.0,7.0;"/><polygon fill="#A80036" points="1217.44,579.93,1218.4064,570.1287,1215.8674,575.1837,1210.8124,572.6448,1217.44,579.93" style="stroke:#A80036;stroke-width:1.0;"/><!--MD5=[886f81fd36c1ffd754dcf922ff388f49]
link TestParameterMapper to TestParameter--><path codeLine="151" d="M951.04,412.17 C965.94,420.78 982.78,429.57 999,436 C1028.76,447.8 1049.21,427.83 1069,453 C1205.33,626.41 1113.34,742.57 1033,948 C1025.48,967.24 1015.42,986.47 1004.4,1004.69 " fill="none" id="TestParameterMapper-to-TestParameter" style="stroke:#A80036;stroke-width:1.0;stroke-dasharray:7.0,7.0;"/><polygon fill="#A80036" points="1001.57,1009.3,1009.6663,1003.692,1004.1697,1005.029,1002.8327,999.5324,1001.57,1009.3" style="stroke:#A80036;stroke-width:1.0;"/><!--MD5=[e3d7ce1cfbc1a868500bf7c9bfab845b]
@startuml


package ui {
class ViewResultsUI{}
}


package Controller{
class App{
+getInstance()
+getCurrentUserSession()
+getCompany()
}
class UserSession{
+getUserId()
}
class ViewResultsController{
+getTestList()
+getUserSession()
+showTestResults(selectedTest)
}
}


package model{
class Company{
- String designation
+getClientStore()
+getTestStore()
}
class Test{
-String internalCode
-String nhsCode
-String description
-Date dateOfSampleCollected
-Date timeOfSampleCollected
-Date dateOfSampleAnalysis
-Date timeOfSampleAnalysis
-Enum state
- -
+getInternalCode()
+getDescription()
+getTestParameterList()
+getMedicalReport()
}
class TestResult{}
class TestParameter{
-parameterName
-testParameterResult
-testParameterMetric
-testParameterMinRefValue
-testParameterMaxRefValue
-refValueMetric
- -
+getParameterName()
+getParameterResult()
+getParameterMetric()
+getParameterMinRefValue()
+getParameterMaxRefValue()
+getRefValueMetric()
}
class MedicalReport{
-String diagnosis
-Date createdAt
}
class Client{
- String name
- String email
- String phoneNumber
- String sex
- String tin
- String birthDate
- String nhsNumber
- String citizenCardNumber
}
}


package store{
class TestStore{
+getTestListAssociatedWithClient()
+orderClientTestsByRegistrationDate()
+getTestByInternalCode(code)
}
class ClientStore{
+getClientByEmail(email)
}
}


package mappers{
class TestMapper{
+toDto(testList)
}
class TestResultsMapper{
+toDto(test)
}
class TestParameterMapper {
+toDTO(testParametersList)
}
class ClientMapper{
+toDto(client)
}
}


package dto{
class TestDto{
-testInternalCode
-testDescription
}
class TestResultDto{
-testParametersListDto
-medicalReport
}
class TestParameterDto{}
}


Test "1..*" - - "1" Client : associated a >
Test "1" - - -"1" MedicalReport : request >
Test "1" - - -"1..*" TestParameter : requests analysis of >

ViewResultsUI ..> ViewResultsController
ViewResultsUI ..> TestResultDto

ViewResultsController ..> TestMapper
ViewResultsController ..> TestResultsMapper
ViewResultsController ..> TestParameterMapper
ViewResultsController ..> ClientMapper
ViewResultsController ..> TestDto
ViewResultsController ..> TestResultDto
ViewResultsController ..> TestStore
ViewResultsController ..> ClientStore
ViewResultsController ..> Company
ViewResultsController ..> Test
ViewResultsController ..> TestParameter
ViewResultsController ..> MedicalReport
ViewResultsController ..> Client

Company -> Test
Company -> TestStore

TestMapper ..> TestDto
TestMapper ..> Test

TestResultsMapper ..> TestResultDto
TestResultsMapper ..> TestResult

TestParameterMapper ..> TestParameterDto
TestParameterMapper ..> TestParameter






@enduml

PlantUML version 1.2021.5(Sun Apr 25 12:20:28 BST 2021)
(GPL source distribution)
Java Runtime: OpenJDK Runtime Environment
JVM: OpenJDK 64-Bit Server VM
Default Encoding: Cp1252
Language: pt
Country: PT
--></g></svg>