<?xml version="1.0" encoding="UTF-8" standalone="no"?><svg xmlns="http://www.w3.org/2000/svg" xmlns:xlink="http://www.w3.org/1999/xlink" contentScriptType="application/ecmascript" contentStyleType="text/css" height="171px" preserveAspectRatio="none" style="width:497px;height:171px;" version="1.1" viewBox="0 0 497 171" width="497px" zoomAndPan="magnify"><defs><filter height="300%" id="f103v731gomjqq" width="300%" x="-1" y="-1"><feGaussianBlur result="blurOut" stdDeviation="2.0"/><feColorMatrix in="blurOut" result="blurOut2" type="matrix" values="0 0 0 0 0 0 0 0 0 0 0 0 0 0 0 0 0 0 .4 0"/><feOffset dx="4.0" dy="4.0" in="blurOut2" result="blurOut3"/><feBlend in="SourceGraphic" in2="blurOut3" mode="normal"/></filter></defs><g><!--MD5=[02e4b9b7573f1156f41e60aa5b4e25a4]
class Company--><rect codeLine="6" fill="#FEFECE" filter="url(#f103v731gomjqq)" height="53.8359" id="Company" style="stroke:#A80036;stroke-width:1.5;" width="85" x="7" y="55.5"/><ellipse cx="22" cy="71.5" fill="#ADD1B2" rx="11" ry="11" style="stroke:#A80036;stroke-width:1.0;"/><path d="M24,68 Q24.2031,67.5 24.4375,67.25 Q24.6719,67 24.9375,67 Q25.4063,67 25.7031,67.2813 Q26,67.5625 26,68.2188 L26,69.7813 Q26,70.4375 25.7188,70.7188 Q25.4375,71 25,71 Q24.6094,71 24.3594,70.8281 Q24.1094,70.6563 24,70.2031 Q23.9531,69.8906 23.7813,69.7188 Q23.4688,69.3906 22.9063,69.2031 Q22.3438,69 21.7813,69 Q21.0781,69 20.4844,69.2813 Q19.9063,69.5625 19.4531,70.1875 Q19,70.8125 19,71.6719 L19,72.5938 Q19,73.625 19.8438,74.3125 Q20.6875,75 22.1875,75 Q23.0781,75 23.7031,74.7969 Q24.0625,74.6875 24.4688,74.3281 Q24.7344,74.125 24.875,74.0625 Q25.0156,74 25.1875,74 Q25.5156,74 25.75,74.2656 Q26,74.5156 26,74.875 Q26,75.2188 25.6563,75.625 Q25.1563,76.2188 24.3594,76.5469 Q23.3125,77 22.0313,77 Q20.5313,77 19.3281,76.4063 Q18.3594,75.9375 17.6719,74.9219 Q17,73.9063 17,72.7031 L17,71.6094 Q17,70.3594 17.5938,69.2656 Q18.2031,68.1719 19.25,67.5938 Q20.3125,67 21.5,67 Q22.2188,67 22.8438,67.25 Q23.4688,67.5 24,68 Z " fill="#000000"/><text fill="#000000" font-family="sans-serif" font-size="12" lengthAdjust="spacing" textLength="53" x="36" y="76.4102">Company</text><line style="stroke:#A80036;stroke-width:1.5;" x1="8" x2="91" y1="87.5" y2="87.5"/><text fill="#000000" font-family="sans-serif" font-size="11" lengthAdjust="spacing" textLength="59" x="13" y="102.9189">-designation</text><!--MD5=[ed6624c6556d5e7b1bd23032162d20b7]
class Client--><rect codeLine="10" fill="#FEFECE" filter="url(#f103v731gomjqq)" height="150.6875" id="Client" style="stroke:#A80036;stroke-width:1.5;" width="105" x="204" y="7"/><ellipse cx="237.45" cy="23" fill="#ADD1B2" rx="11" ry="11" style="stroke:#A80036;stroke-width:1.0;"/><path d="M239.45,19.5 Q239.6531,19 239.8875,18.75 Q240.1219,18.5 240.3875,18.5 Q240.8563,18.5 241.1531,18.7813 Q241.45,19.0625 241.45,19.7188 L241.45,21.2813 Q241.45,21.9375 241.1688,22.2188 Q240.8875,22.5 240.45,22.5 Q240.0594,22.5 239.8094,22.3281 Q239.5594,22.1563 239.45,21.7031 Q239.4031,21.3906 239.2313,21.2188 Q238.9188,20.8906 238.3563,20.7031 Q237.7938,20.5 237.2313,20.5 Q236.5281,20.5 235.9344,20.7813 Q235.3563,21.0625 234.9031,21.6875 Q234.45,22.3125 234.45,23.1719 L234.45,24.0938 Q234.45,25.125 235.2938,25.8125 Q236.1375,26.5 237.6375,26.5 Q238.5281,26.5 239.1531,26.2969 Q239.5125,26.1875 239.9188,25.8281 Q240.1844,25.625 240.325,25.5625 Q240.4656,25.5 240.6375,25.5 Q240.9656,25.5 241.2,25.7656 Q241.45,26.0156 241.45,26.375 Q241.45,26.7188 241.1063,27.125 Q240.6063,27.7188 239.8094,28.0469 Q238.7625,28.5 237.4813,28.5 Q235.9813,28.5 234.7781,27.9063 Q233.8094,27.4375 233.1219,26.4219 Q232.45,25.4063 232.45,24.2031 L232.45,23.1094 Q232.45,21.8594 233.0438,20.7656 Q233.6531,19.6719 234.7,19.0938 Q235.7625,18.5 236.95,18.5 Q237.6688,18.5 238.2938,18.75 Q238.9188,19 239.45,19.5 Z " fill="#000000"/><text fill="#000000" font-family="sans-serif" font-size="12" lengthAdjust="spacing" textLength="32" x="255.55" y="27.9102">Client</text><line style="stroke:#A80036;stroke-width:1.5;" x1="205" x2="308" y1="39" y2="39"/><text fill="#000000" font-family="sans-serif" font-size="11" lengthAdjust="spacing" textLength="30" x="210" y="54.4189">-name</text><text fill="#000000" font-family="sans-serif" font-size="11" lengthAdjust="spacing" textLength="93" x="210" y="68.2549">-citizencardnumber</text><text fill="#000000" font-family="sans-serif" font-size="11" lengthAdjust="spacing" textLength="22" x="210" y="82.0908">-nhs</text><text fill="#000000" font-family="sans-serif" font-size="11" lengthAdjust="spacing" textLength="25" x="210" y="95.9268">-date</text><text fill="#000000" font-family="sans-serif" font-size="11" lengthAdjust="spacing" textLength="22" x="210" y="109.7627">-sex</text><text fill="#000000" font-family="sans-serif" font-size="11" lengthAdjust="spacing" textLength="15" x="210" y="123.5986">-tin</text><text fill="#000000" font-family="sans-serif" font-size="11" lengthAdjust="spacing" textLength="70" x="210" y="137.4346">-phonenumber</text><text fill="#000000" font-family="sans-serif" font-size="11" lengthAdjust="spacing" textLength="28" x="210" y="151.2705">-email</text><!--MD5=[3fd616f346a44cd59a91eb10b19e157c]
class User--><rect fill="#FEFECE" filter="url(#f103v731gomjqq)" height="40" id="User" style="stroke:#A80036;stroke-width:1.5;" width="59" x="424" y="62.5"/><ellipse cx="439" cy="78.5" fill="#ADD1B2" rx="11" ry="11" style="stroke:#A80036;stroke-width:1.0;"/><path d="M441,75 Q441.2031,74.5 441.4375,74.25 Q441.6719,74 441.9375,74 Q442.4063,74 442.7031,74.2813 Q443,74.5625 443,75.2188 L443,76.7813 Q443,77.4375 442.7188,77.7188 Q442.4375,78 442,78 Q441.6094,78 441.3594,77.8281 Q441.1094,77.6563 441,77.2031 Q440.9531,76.8906 440.7813,76.7188 Q440.4688,76.3906 439.9063,76.2031 Q439.3438,76 438.7813,76 Q438.0781,76 437.4844,76.2813 Q436.9063,76.5625 436.4531,77.1875 Q436,77.8125 436,78.6719 L436,79.5938 Q436,80.625 436.8438,81.3125 Q437.6875,82 439.1875,82 Q440.0781,82 440.7031,81.7969 Q441.0625,81.6875 441.4688,81.3281 Q441.7344,81.125 441.875,81.0625 Q442.0156,81 442.1875,81 Q442.5156,81 442.75,81.2656 Q443,81.5156 443,81.875 Q443,82.2188 442.6563,82.625 Q442.1563,83.2188 441.3594,83.5469 Q440.3125,84 439.0313,84 Q437.5313,84 436.3281,83.4063 Q435.3594,82.9375 434.6719,81.9219 Q434,80.9063 434,79.7031 L434,78.6094 Q434,77.3594 434.5938,76.2656 Q435.2031,75.1719 436.25,74.5938 Q437.3125,74 438.5,74 Q439.2188,74 439.8438,74.25 Q440.4688,74.5 441,75 Z " fill="#000000"/><text fill="#000000" font-family="sans-serif" font-size="12" lengthAdjust="spacing" textLength="27" x="453" y="83.4102">User</text><line style="stroke:#A80036;stroke-width:1.5;" x1="425" x2="482" y1="94.5" y2="94.5"/><!--MD5=[6eee883fdf517d3604e8bd0f2058e9aa]
link Company to Client--><path codeLine="21" d="M92.48,82.5 C124.69,82.5 169.33,82.5 203.75,82.5 " fill="none" id="Company-Client" style="stroke:#A80036;stroke-width:1.0;"/><polygon fill="#000000" points="132,73.6758,122.9549,70.7369,122.9549,76.6147,132,73.6758" style="stroke:#000000;stroke-width:1.0;"/><text fill="#000000" font-family="sans-serif" font-size="13" lengthAdjust="spacing" textLength="37" x="136" y="78.9951">knows</text><text fill="#000000" font-family="sans-serif" font-size="13" lengthAdjust="spacing" textLength="7" x="99.8878" y="97.3112">1</text><text fill="#000000" font-family="sans-serif" font-size="13" lengthAdjust="spacing" textLength="5" x="190.9805" y="97.1668">*</text><!--MD5=[9a8dc34b38f85b9f3fcdb440f4bffc6a]
link Client to User--><path codeLine="22" d="M309.24,82.5 C345.91,82.5 393.75,82.5 423.8,82.5 " fill="none" id="Client-User" style="stroke:#A80036;stroke-width:1.0;"/><text fill="#000000" font-family="sans-serif" font-size="13" lengthAdjust="spacing" textLength="53" x="340" y="78.9951">becomes</text><text fill="#000000" font-family="sans-serif" font-size="13" lengthAdjust="spacing" textLength="7" x="409.1225" y="97.8858">1</text><!--MD5=[b586dba2199b34a3f7b3eff1c720ccb4]
@startuml
hide methods
left to right direction
skinparam classAttributeIconSize 0


class Company {
-designation
}

class Client {
  -name
  -citizencardnumber
  -nhs
  -date
  -sex
  -tin
  -phonenumber
  -email
}

Company "1" - - "*" Client : knows >
Client - - "1" User: becomes


@enduml

PlantUML version 1.2021.5(Sun Apr 25 12:20:28 BST 2021)
(GPL source distribution)
Java Runtime: OpenJDK Runtime Environment
JVM: OpenJDK 64-Bit Server VM
Default Encoding: Cp1252
Language: pt
Country: PT
--></g></svg>