<?xml version="1.0" encoding="UTF-8" standalone="no"?><svg xmlns="http://www.w3.org/2000/svg" xmlns:xlink="http://www.w3.org/1999/xlink" contentScriptType="application/ecmascript" contentStyleType="text/css" height="892.5px" preserveAspectRatio="none" style="width:511px;height:892px;" version="1.1" viewBox="0 0 511 892" width="511.5px" zoomAndPan="magnify"><defs><filter height="300%" id="f4d8kwwyr3s3z" width="300%" x="-1" y="-1"><feGaussianBlur result="blurOut" stdDeviation="3.0"/><feColorMatrix in="blurOut" result="blurOut2" type="matrix" values="0 0 0 0 0 0 0 0 0 0 0 0 0 0 0 0 0 0 .4 0"/><feOffset dx="6.0" dy="6.0" in="blurOut2" result="blurOut3"/><feBlend in="SourceGraphic" in2="blurOut3" mode="normal"/></filter></defs><g><!--MD5=[02e4b9b7573f1156f41e60aa5b4e25a4]
class Company--><rect codeLine="6" fill="#FEFECE" filter="url(#f4d8kwwyr3s3z)" height="80.7539" id="Company" style="stroke:#A80036;stroke-width:2.25;" width="127.5" x="230.25" y="10.5"/><ellipse cx="252.75" cy="34.5" fill="#ADD1B2" rx="16.5" ry="16.5" style="stroke:#A80036;stroke-width:1.5;"/><path d="M255.75,29.25 Q256.0547,28.5 256.4063,28.125 Q256.7578,27.75 257.1563,27.75 Q257.8594,27.75 258.3047,28.1719 Q258.75,28.5938 258.75,29.5781 L258.75,31.9219 Q258.75,32.9063 258.3281,33.3281 Q257.9063,33.75 257.25,33.75 Q256.6641,33.75 256.2891,33.4922 Q255.9141,33.2344 255.75,32.5547 Q255.6797,32.0859 255.4219,31.8281 Q254.9531,31.3359 254.1094,31.0547 Q253.2656,30.75 252.4219,30.75 Q251.3672,30.75 250.4766,31.1719 Q249.6094,31.5938 248.9297,32.5313 Q248.25,33.4688 248.25,34.7578 L248.25,36.1406 Q248.25,37.6875 249.5156,38.7188 Q250.7813,39.75 253.0313,39.75 Q254.3672,39.75 255.3047,39.4453 Q255.8438,39.2813 256.4531,38.7422 Q256.8516,38.4375 257.0625,38.3438 Q257.2734,38.25 257.5313,38.25 Q258.0234,38.25 258.375,38.6484 Q258.75,39.0234 258.75,39.5625 Q258.75,40.0781 258.2344,40.6875 Q257.4844,41.5781 256.2891,42.0703 Q254.7188,42.75 252.7969,42.75 Q250.5469,42.75 248.7422,41.8594 Q247.2891,41.1563 246.2578,39.6328 Q245.25,38.1094 245.25,36.3047 L245.25,34.6641 Q245.25,32.7891 246.1406,31.1484 Q247.0547,29.5078 248.625,28.6406 Q250.2188,27.75 252,27.75 Q253.0781,27.75 254.0156,28.125 Q254.9531,28.5 255.75,29.25 Z " fill="#000000"/><text fill="#000000" font-family="sans-serif" font-size="18" lengthAdjust="spacing" textLength="79.5" x="273.75" y="41.8652">Company</text><line style="stroke:#A80036;stroke-width:2.25;" x1="231.75" x2="356.25" y1="58.5" y2="58.5"/><text fill="#000000" font-family="sans-serif" font-size="16.5" lengthAdjust="spacing" textLength="45" x="239.25" y="81.6284">-name</text><!--MD5=[1f6362a5c8f21d8d6a0fce68f3a92a4e]
class Parameter--><rect codeLine="10" fill="#FEFECE" filter="url(#f4d8kwwyr3s3z)" height="122.2617" id="Parameter" style="stroke:#A80036;stroke-width:2.25;" width="135" x="10.5" y="208.5"/><ellipse cx="33" cy="232.5" fill="#ADD1B2" rx="16.5" ry="16.5" style="stroke:#A80036;stroke-width:1.5;"/><path d="M36,227.25 Q36.3047,226.5 36.6563,226.125 Q37.0078,225.75 37.4063,225.75 Q38.1094,225.75 38.5547,226.1719 Q39,226.5938 39,227.5781 L39,229.9219 Q39,230.9063 38.5781,231.3281 Q38.1563,231.75 37.5,231.75 Q36.9141,231.75 36.5391,231.4922 Q36.1641,231.2344 36,230.5547 Q35.9297,230.0859 35.6719,229.8281 Q35.2031,229.3359 34.3594,229.0547 Q33.5156,228.75 32.6719,228.75 Q31.6172,228.75 30.7266,229.1719 Q29.8594,229.5938 29.1797,230.5313 Q28.5,231.4688 28.5,232.7578 L28.5,234.1406 Q28.5,235.6875 29.7656,236.7188 Q31.0313,237.75 33.2813,237.75 Q34.6172,237.75 35.5547,237.4453 Q36.0938,237.2813 36.7031,236.7422 Q37.1016,236.4375 37.3125,236.3438 Q37.5234,236.25 37.7813,236.25 Q38.2734,236.25 38.625,236.6484 Q39,237.0234 39,237.5625 Q39,238.0781 38.4844,238.6875 Q37.7344,239.5781 36.5391,240.0703 Q34.9688,240.75 33.0469,240.75 Q30.7969,240.75 28.9922,239.8594 Q27.5391,239.1563 26.5078,237.6328 Q25.5,236.1094 25.5,234.3047 L25.5,232.6641 Q25.5,230.7891 26.3906,229.1484 Q27.3047,227.5078 28.875,226.6406 Q30.4688,225.75 32.25,225.75 Q33.3281,225.75 34.2656,226.125 Q35.2031,226.5 36,227.25 Z " fill="#000000"/><text fill="#000000" font-family="sans-serif" font-size="18" lengthAdjust="spacing" textLength="87" x="54" y="239.8652">Parameter</text><line style="stroke:#A80036;stroke-width:2.25;" x1="12" x2="144" y1="256.5" y2="256.5"/><text fill="#000000" font-family="sans-serif" font-size="16.5" lengthAdjust="spacing" textLength="42" x="19.5" y="279.6284">-code</text><text fill="#000000" font-family="sans-serif" font-size="16.5" lengthAdjust="spacing" textLength="84" x="19.5" y="300.3823">-shortName</text><text fill="#000000" font-family="sans-serif" font-size="16.5" lengthAdjust="spacing" textLength="85.5" x="19.5" y="321.1362">-description</text><!--MD5=[36afb6bbd95a8ac778c4537c55a683d5]
class ParameterCategory--><rect codeLine="16" fill="#FEFECE" filter="url(#f4d8kwwyr3s3z)" height="101.5078" id="ParameterCategory" style="stroke:#A80036;stroke-width:2.25;" width="208.5" x="165.75" y="448.5"/><ellipse cx="188.25" cy="472.5" fill="#ADD1B2" rx="16.5" ry="16.5" style="stroke:#A80036;stroke-width:1.5;"/><path d="M191.25,467.25 Q191.5547,466.5 191.9063,466.125 Q192.2578,465.75 192.6563,465.75 Q193.3594,465.75 193.8047,466.1719 Q194.25,466.5938 194.25,467.5781 L194.25,469.9219 Q194.25,470.9063 193.8281,471.3281 Q193.4063,471.75 192.75,471.75 Q192.1641,471.75 191.7891,471.4922 Q191.4141,471.2344 191.25,470.5547 Q191.1797,470.0859 190.9219,469.8281 Q190.4531,469.3359 189.6094,469.0547 Q188.7656,468.75 187.9219,468.75 Q186.8672,468.75 185.9766,469.1719 Q185.1094,469.5938 184.4297,470.5313 Q183.75,471.4688 183.75,472.7578 L183.75,474.1406 Q183.75,475.6875 185.0156,476.7188 Q186.2813,477.75 188.5313,477.75 Q189.8672,477.75 190.8047,477.4453 Q191.3438,477.2813 191.9531,476.7422 Q192.3516,476.4375 192.5625,476.3438 Q192.7734,476.25 193.0313,476.25 Q193.5234,476.25 193.875,476.6484 Q194.25,477.0234 194.25,477.5625 Q194.25,478.0781 193.7344,478.6875 Q192.9844,479.5781 191.7891,480.0703 Q190.2188,480.75 188.2969,480.75 Q186.0469,480.75 184.2422,479.8594 Q182.7891,479.1563 181.7578,477.6328 Q180.75,476.1094 180.75,474.3047 L180.75,472.6641 Q180.75,470.7891 181.6406,469.1484 Q182.5547,467.5078 184.125,466.6406 Q185.7188,465.75 187.5,465.75 Q188.5781,465.75 189.5156,466.125 Q190.4531,466.5 191.25,467.25 Z " fill="#000000"/><text fill="#000000" font-family="sans-serif" font-size="18" lengthAdjust="spacing" textLength="160.5" x="209.25" y="479.8652">ParameterCategory</text><line style="stroke:#A80036;stroke-width:2.25;" x1="167.25" x2="372.75" y1="496.5" y2="496.5"/><text fill="#000000" font-family="sans-serif" font-size="16.5" lengthAdjust="spacing" textLength="45" x="174.75" y="519.6284">-name</text><text fill="#000000" font-family="sans-serif" font-size="16.5" lengthAdjust="spacing" textLength="42" x="174.75" y="540.3823">-code</text><!--MD5=[7421f545a0d8420c5bec41e74b387d9c]
class Employee--><rect codeLine="21" fill="#FEFECE" filter="url(#f4d8kwwyr3s3z)" height="205.2773" id="Employee" style="stroke:#A80036;stroke-width:2.25;" width="144" x="289.5" y="667.5"/><ellipse cx="318.075" cy="691.5" fill="#ADD1B2" rx="16.5" ry="16.5" style="stroke:#A80036;stroke-width:1.5;"/><path d="M321.075,686.25 Q321.3797,685.5 321.7313,685.125 Q322.0828,684.75 322.4813,684.75 Q323.1844,684.75 323.6297,685.1719 Q324.075,685.5938 324.075,686.5781 L324.075,688.9219 Q324.075,689.9063 323.6531,690.3281 Q323.2313,690.75 322.575,690.75 Q321.9891,690.75 321.6141,690.4922 Q321.2391,690.2344 321.075,689.5547 Q321.0047,689.0859 320.7469,688.8281 Q320.2781,688.3359 319.4344,688.0547 Q318.5906,687.75 317.7469,687.75 Q316.6922,687.75 315.8016,688.1719 Q314.9344,688.5938 314.2547,689.5313 Q313.575,690.4688 313.575,691.7578 L313.575,693.1406 Q313.575,694.6875 314.8406,695.7188 Q316.1063,696.75 318.3563,696.75 Q319.6922,696.75 320.6297,696.4453 Q321.1688,696.2813 321.7781,695.7422 Q322.1766,695.4375 322.3875,695.3438 Q322.5984,695.25 322.8563,695.25 Q323.3484,695.25 323.7,695.6484 Q324.075,696.0234 324.075,696.5625 Q324.075,697.0781 323.5594,697.6875 Q322.8094,698.5781 321.6141,699.0703 Q320.0438,699.75 318.1219,699.75 Q315.8719,699.75 314.0672,698.8594 Q312.6141,698.1563 311.5828,696.6328 Q310.575,695.1094 310.575,693.3047 L310.575,691.6641 Q310.575,689.7891 311.4656,688.1484 Q312.3797,686.5078 313.95,685.6406 Q315.5438,684.75 317.325,684.75 Q318.4031,684.75 319.3406,685.125 Q320.2781,685.5 321.075,686.25 Z " fill="#000000"/><text fill="#000000" font-family="sans-serif" font-size="18" lengthAdjust="spacing" textLength="82.5" x="340.425" y="698.8652">Employee</text><line style="stroke:#A80036;stroke-width:2.25;" x1="291" x2="432" y1="715.5" y2="715.5"/><text fill="#000000" font-family="sans-serif" font-size="16.5" lengthAdjust="spacing" textLength="45" x="298.5" y="738.6284">-name</text><text fill="#000000" font-family="sans-serif" font-size="16.5" lengthAdjust="spacing" textLength="66" x="298.5" y="759.3823">-address</text><text fill="#000000" font-family="sans-serif" font-size="16.5" lengthAdjust="spacing" textLength="106.5" x="298.5" y="780.1362">-phoneNumber</text><text fill="#000000" font-family="sans-serif" font-size="16.5" lengthAdjust="spacing" textLength="42" x="298.5" y="800.8901">-email</text><text fill="#000000" font-family="sans-serif" font-size="16.5" lengthAdjust="spacing" textLength="87" x="298.5" y="821.644">-employeeId</text><text fill="#000000" font-family="sans-serif" font-size="16.5" lengthAdjust="spacing" textLength="126" x="298.5" y="842.3979">-organizationRole</text><text fill="#000000" font-family="sans-serif" font-size="16.5" lengthAdjust="spacing" textLength="70.5" x="298.5" y="863.1519">-socCode</text><!--MD5=[12d76240d3c3c66074d4ec2ea8bf469c]
link Company to Parameter--><path codeLine="31" d="M229.74,55.545 C173.445,62.01 94.695,81.15 55.5,136.5 C40.86,157.185 42.765,184.185 49.785,208.365 " fill="none" id="Company-Parameter" style="stroke:#A80036;stroke-width:1.5;"/><polygon fill="#000000" points="57.2832,155.1184,70.4785,149.6963,64.7714,142.9759,57.2832,155.1184" style="stroke:#000000;stroke-width:1.5;"/><text fill="#000000" font-family="sans-serif" font-size="19.5" lengthAdjust="spacing" textLength="177" x="76.5" y="158.2427">capable of analyzing</text><text fill="#000000" font-family="sans-serif" font-size="19.5" lengthAdjust="spacing" textLength="10.5" x="207.7274" y="50.617">1</text><text fill="#000000" font-family="sans-serif" font-size="19.5" lengthAdjust="spacing" textLength="7.5" x="36.791" y="192.0604">*</text><!--MD5=[93b4f25fb503a8e0e9a46b1d30ff3f44]
link Company to ParameterCategory--><path codeLine="32" d="M291.885,91.65 C287.52,172.755 277.485,359.025 272.67,448.395 " fill="none" id="Company-ParameterCategory" style="stroke:#A80036;stroke-width:1.5;"/><polygon fill="#000000" points="293.5966,277.7528,298.7284,264.4419,289.9243,263.9677,293.5966,277.7528" style="stroke:#000000;stroke-width:1.5;"/><text fill="#000000" font-family="sans-serif" font-size="19.5" lengthAdjust="spacing" textLength="58.5" x="307.5" y="278.2427">adopts</text><text fill="#000000" font-family="sans-serif" font-size="19.5" lengthAdjust="spacing" textLength="10.5" x="279.7739" y="123.4945">1</text><text fill="#000000" font-family="sans-serif" font-size="19.5" lengthAdjust="spacing" textLength="7.5" x="264.9574" y="432.3142">*</text><!--MD5=[09366576ee87d48d594df10cacc83f45]
link Company to Employee--><path codeLine="33" d="M321.12,91.59 C340.77,122.025 366.15,166.08 379.5,208.5 C431.415,373.545 412.155,422.745 421.5,595.5 C422.145,607.485 423.825,610.725 421.5,622.5 C418.575,637.305 414.15,652.5 408.975,667.245 " fill="none" id="Company-Employee" style="stroke:#A80036;stroke-width:1.5;"/><polygon fill="#000000" points="424.1315,397.6778,426.4425,383.6004,417.7266,384.9306,424.1315,397.6778" style="stroke:#000000;stroke-width:1.5;"/><text fill="#000000" font-family="sans-serif" font-size="19.5" lengthAdjust="spacing" textLength="63" x="436.5" y="398.2427">employ</text><text fill="#000000" font-family="sans-serif" font-size="19.5" lengthAdjust="spacing" textLength="10.5" x="315.4041" y="123.4213">1</text><text fill="#000000" font-family="sans-serif" font-size="19.5" lengthAdjust="spacing" textLength="30" x="382.527" y="650.95">1..*</text><!--MD5=[6df8849671cb880f6936e94aa30db6f9]
link Parameter to ParameterCategory--><path codeLine="34" d="M73.185,331.515 C74.055,355.695 78.87,382.71 93,403.5 C110.625,429.435 137.73,448.815 165.465,463.035 " fill="none" id="Parameter-ParameterCategory" style="stroke:#A80036;stroke-width:1.5;"/><polygon fill="#000000" points="104.8077,396.4032,100.6237,382.7647,93.4063,387.8287,104.8077,396.4032" style="stroke:#000000;stroke-width:1.5;"/><text fill="#000000" font-family="sans-serif" font-size="19.5" lengthAdjust="spacing" textLength="139.5" x="114" y="398.2427">presented under</text><text fill="#000000" font-family="sans-serif" font-size="19.5" lengthAdjust="spacing" textLength="7.5" x="64.3735" y="363.1116">*</text><text fill="#000000" font-family="sans-serif" font-size="19.5" lengthAdjust="spacing" textLength="10.5" x="142.9573" y="454.0326">1</text><!--MD5=[cc1a75f270ec5dea376783c3cac802b7]
link ParameterCategory to Employee--><path codeLine="35" d="M274.605,550.845 C277.515,573.135 282.18,599.49 289.5,622.5 C294.225,637.335 300.24,652.545 306.78,667.275 " fill="none" id="ParameterCategory-Employee" style="stroke:#A80036;stroke-width:1.5;"/><polygon fill="#000000" points="298.9977,616.4927,299.6329,602.241,291.1347,604.5895,298.9977,616.4927" style="stroke:#000000;stroke-width:1.5;"/><text fill="#000000" font-family="sans-serif" font-size="19.5" lengthAdjust="spacing" textLength="103.5" x="310.5" y="617.2427">specified by</text><text fill="#000000" font-family="sans-serif" font-size="19.5" lengthAdjust="spacing" textLength="7.5" x="267.252" y="582.0627">*</text><text fill="#000000" font-family="sans-serif" font-size="19.5" lengthAdjust="spacing" textLength="10.5" x="289.7208" y="650.9833">1</text><!--MD5=[2aa907ac56583eba2a6b414845e9f416]
@startuml
hide methods
'left to right direction
skinparam classAttributeIconSize 0


class Company{
-name
}

class Parameter{
-code
-shortName
-description
}

class ParameterCategory{
-name
-code
}

class Employee{
-name
-address
-phoneNumber
-email
-employeeId
-organizationRole
-socCode
}

Company "1"- -"*" Parameter : capable of analyzing >
Company "1"- -"*" ParameterCategory : adopts >
Company "1"- - -"1..*" Employee : employ >
Parameter "*"- -"1" ParameterCategory : presented under >
ParameterCategory "*"- -"1" Employee : specified by >





@enduml

@startuml
hide methods
skinparam classAttributeIconSize 0


class Company{
-name
}

class Parameter{
-code
-shortName
-description
}

class ParameterCategory{
-name
-code
}

class Employee{
-name
-address
-phoneNumber
-email
-employeeId
-organizationRole
-socCode
}

Company "1"- -"*" Parameter : capable of analyzing >
Company "1"- -"*" ParameterCategory : adopts >
Company "1"- - -"1..*" Employee : employ >
Parameter "*"- -"1" ParameterCategory : presented under >
ParameterCategory "*"- -"1" Employee : specified by >





@enduml

PlantUML version 1.2021.5(Sun Apr 25 12:20:28 BST 2021)
(GPL source distribution)
Java Runtime: OpenJDK Runtime Environment
JVM: OpenJDK 64-Bit Server VM
Default Encoding: Cp1252
Language: pt
Country: PT
--></g></svg>