<?xml version="1.0" encoding="UTF-8" standalone="no"?><svg xmlns="http://www.w3.org/2000/svg" xmlns:xlink="http://www.w3.org/1999/xlink" contentScriptType="application/ecmascript" contentStyleType="text/css" height="925.5px" preserveAspectRatio="none" style="width:1348px;height:925px;background:#FFFFFF;" version="1.1" viewBox="0 0 1348 925" width="1348.5px" zoomAndPan="magnify"><defs><filter height="300%" id="f1bkuwq9upe07y" width="300%" x="-1" y="-1"><feGaussianBlur result="blurOut" stdDeviation="3.0"/><feColorMatrix in="blurOut" result="blurOut2" type="matrix" values="0 0 0 0 0 0 0 0 0 0 0 0 0 0 0 0 0 0 .4 0"/><feOffset dx="6.0" dy="6.0" in="blurOut2" result="blurOut3"/><feBlend in="SourceGraphic" in2="blurOut3" mode="normal"/></filter></defs><g><!--MD5=[ed6624c6556d5e7b1bd23032162d20b7]
class Client--><rect codeLine="4" fill="#FEFECE" filter="url(#f1bkuwq9upe07y)" height="238.0313" id="Client" style="stroke:#A80036;stroke-width:2.25;" width="160.5" x="63" y="146.25"/><ellipse cx="114.525" cy="170.25" fill="#ADD1B2" rx="16.5" ry="16.5" style="stroke:#A80036;stroke-width:1.5;"/><path d="M117.525,165 Q117.8297,164.25 118.1812,163.875 Q118.5328,163.5 118.9312,163.5 Q119.6344,163.5 120.0797,163.9219 Q120.525,164.3438 120.525,165.3281 L120.525,167.6719 Q120.525,168.6563 120.1031,169.0781 Q119.6812,169.5 119.025,169.5 Q118.4391,169.5 118.0641,169.2422 Q117.6891,168.9844 117.525,168.3047 Q117.4547,167.8359 117.1969,167.5781 Q116.7281,167.0859 115.8844,166.8047 Q115.0406,166.5 114.1969,166.5 Q113.1422,166.5 112.2516,166.9219 Q111.3844,167.3438 110.7047,168.2813 Q110.025,169.2188 110.025,170.5078 L110.025,171.8906 Q110.025,173.4375 111.2906,174.4688 Q112.5562,175.5 114.8062,175.5 Q116.1422,175.5 117.0797,175.1953 Q117.6187,175.0313 118.2281,174.4922 Q118.6266,174.1875 118.8375,174.0938 Q119.0484,174 119.3062,174 Q119.7984,174 120.15,174.3984 Q120.525,174.7734 120.525,175.3125 Q120.525,175.8281 120.0094,176.4375 Q119.2594,177.3281 118.0641,177.8203 Q116.4937,178.5 114.5719,178.5 Q112.3219,178.5 110.5172,177.6094 Q109.0641,176.9063 108.0328,175.3828 Q107.025,173.8594 107.025,172.0547 L107.025,170.4141 Q107.025,168.5391 107.9156,166.8984 Q108.8297,165.2578 110.4,164.3906 Q111.9937,163.5 113.775,163.5 Q114.8531,163.5 115.7906,163.875 Q116.7281,164.25 117.525,165 Z " fill="#000000"/><text fill="#000000" font-family="sans-serif" font-size="18" lengthAdjust="spacing" textLength="48" x="141.975" y="177.6152">Client</text><line style="stroke:#A80036;stroke-width:2.25;" x1="64.5" x2="222" y1="194.25" y2="194.25"/><text fill="#000000" font-family="sans-serif" font-size="16.5" lengthAdjust="spacing" textLength="45" x="72" y="217.3784">-name</text><text fill="#000000" font-family="sans-serif" font-size="16.5" lengthAdjust="spacing" textLength="42" x="72" y="238.1323">-email</text><text fill="#000000" font-family="sans-serif" font-size="16.5" lengthAdjust="spacing" textLength="106.5" x="72" y="258.8862">-phoneNumber</text><text fill="#000000" font-family="sans-serif" font-size="16.5" lengthAdjust="spacing" textLength="33" x="72" y="279.6401">-sex</text><text fill="#000000" font-family="sans-serif" font-size="16.5" lengthAdjust="spacing" textLength="22.5" x="72" y="300.394">-tin</text><text fill="#000000" font-family="sans-serif" font-size="16.5" lengthAdjust="spacing" textLength="70.5" x="72" y="321.1479">-birthDate</text><text fill="#000000" font-family="sans-serif" font-size="16.5" lengthAdjust="spacing" textLength="88.5" x="72" y="341.9019">-nhsNumber</text><text fill="#000000" font-family="sans-serif" font-size="16.5" lengthAdjust="spacing" textLength="142.5" x="72" y="362.6558">-citizenCardNumber</text><line style="stroke:#A80036;stroke-width:2.25;" x1="64.5" x2="222" y1="372.2813" y2="372.2813"/><!--MD5=[9681492165142af2a4a3a169d90ee8d4]
class Sample--><rect codeLine="15" fill="#FEFECE" filter="url(#f1bkuwq9upe07y)" height="72" id="Sample" style="stroke:#A80036;stroke-width:2.25;" width="112.5" x="470.25" y="229.5"/><ellipse cx="492.75" cy="253.5" fill="#ADD1B2" rx="16.5" ry="16.5" style="stroke:#A80036;stroke-width:1.5;"/><path d="M495.75,248.25 Q496.0547,247.5 496.4063,247.125 Q496.7578,246.75 497.1563,246.75 Q497.8594,246.75 498.3047,247.1719 Q498.75,247.5938 498.75,248.5781 L498.75,250.9219 Q498.75,251.9063 498.3281,252.3281 Q497.9063,252.75 497.25,252.75 Q496.6641,252.75 496.2891,252.4922 Q495.9141,252.2344 495.75,251.5547 Q495.6797,251.0859 495.4219,250.8281 Q494.9531,250.3359 494.1094,250.0547 Q493.2656,249.75 492.4219,249.75 Q491.3672,249.75 490.4766,250.1719 Q489.6094,250.5938 488.9297,251.5313 Q488.25,252.4688 488.25,253.7578 L488.25,255.1406 Q488.25,256.6875 489.5156,257.7188 Q490.7813,258.75 493.0313,258.75 Q494.3672,258.75 495.3047,258.4453 Q495.8438,258.2813 496.4531,257.7422 Q496.8516,257.4375 497.0625,257.3438 Q497.2734,257.25 497.5313,257.25 Q498.0234,257.25 498.375,257.6484 Q498.75,258.0234 498.75,258.5625 Q498.75,259.0781 498.2344,259.6875 Q497.4844,260.5781 496.2891,261.0703 Q494.7188,261.75 492.7969,261.75 Q490.5469,261.75 488.7422,260.8594 Q487.2891,260.1563 486.2578,258.6328 Q485.25,257.1094 485.25,255.3047 L485.25,253.6641 Q485.25,251.7891 486.1406,250.1484 Q487.0547,248.5078 488.625,247.6406 Q490.2188,246.75 492,246.75 Q493.0781,246.75 494.0156,247.125 Q494.9531,247.5 495.75,248.25 Z " fill="#000000"/><text fill="#000000" font-family="sans-serif" font-size="18" lengthAdjust="spacing" textLength="64.5" x="513.75" y="260.8652">Sample</text><line style="stroke:#A80036;stroke-width:2.25;" x1="471.75" x2="581.25" y1="277.5" y2="277.5"/><line style="stroke:#A80036;stroke-width:2.25;" x1="471.75" x2="581.25" y1="289.5" y2="289.5"/><!--MD5=[df38be88ccee13e832d6fafd6288a4ca]
class Test--><rect codeLine="18" fill="#FEFECE" filter="url(#f1bkuwq9upe07y)" height="134.2617" id="Test" style="stroke:#A80036;stroke-width:2.25;" width="114" x="834" y="427.5"/><ellipse cx="870" cy="451.5" fill="#ADD1B2" rx="16.5" ry="16.5" style="stroke:#A80036;stroke-width:1.5;"/><path d="M873,446.25 Q873.3047,445.5 873.6563,445.125 Q874.0078,444.75 874.4063,444.75 Q875.1094,444.75 875.5547,445.1719 Q876,445.5938 876,446.5781 L876,448.9219 Q876,449.9063 875.5781,450.3281 Q875.1563,450.75 874.5,450.75 Q873.9141,450.75 873.5391,450.4922 Q873.1641,450.2344 873,449.5547 Q872.9297,449.0859 872.6719,448.8281 Q872.2031,448.3359 871.3594,448.0547 Q870.5156,447.75 869.6719,447.75 Q868.6172,447.75 867.7266,448.1719 Q866.8594,448.5938 866.1797,449.5313 Q865.5,450.4688 865.5,451.7578 L865.5,453.1406 Q865.5,454.6875 866.7656,455.7188 Q868.0313,456.75 870.2813,456.75 Q871.6172,456.75 872.5547,456.4453 Q873.0938,456.2813 873.7031,455.7422 Q874.1016,455.4375 874.3125,455.3438 Q874.5234,455.25 874.7813,455.25 Q875.2734,455.25 875.625,455.6484 Q876,456.0234 876,456.5625 Q876,457.0781 875.4844,457.6875 Q874.7344,458.5781 873.5391,459.0703 Q871.9688,459.75 870.0469,459.75 Q867.7969,459.75 865.9922,458.8594 Q864.5391,458.1563 863.5078,456.6328 Q862.5,455.1094 862.5,453.3047 L862.5,451.6641 Q862.5,449.7891 863.3906,448.1484 Q864.3047,446.5078 865.875,445.6406 Q867.4688,444.75 869.25,444.75 Q870.3281,444.75 871.2656,445.125 Q872.2031,445.5 873,446.25 Z " fill="#000000"/><text fill="#000000" font-family="sans-serif" font-size="18" lengthAdjust="spacing" textLength="36" x="894" y="458.8652">Test</text><line style="stroke:#A80036;stroke-width:2.25;" x1="835.5" x2="946.5" y1="475.5" y2="475.5"/><text fill="#000000" font-family="sans-serif" font-size="16.5" lengthAdjust="spacing" textLength="96" x="843" y="498.6284">-internalCode</text><text fill="#000000" font-family="sans-serif" font-size="16.5" lengthAdjust="spacing" textLength="70.5" x="843" y="519.3823">-nhsCode</text><text fill="#000000" font-family="sans-serif" font-size="16.5" lengthAdjust="spacing" textLength="85.5" x="843" y="540.1362">-description</text><line style="stroke:#A80036;stroke-width:2.25;" x1="835.5" x2="946.5" y1="549.7617" y2="549.7617"/><!--MD5=[e59bda2572a266093cda22ac34510ea0]
class Barcode--><rect codeLine="24" fill="#FEFECE" filter="url(#f1bkuwq9upe07y)" height="92.7539" id="Barcode" style="stroke:#A80036;stroke-width:2.25;" width="117" x="832.5" y="10.5"/><ellipse cx="855" cy="34.5" fill="#ADD1B2" rx="16.5" ry="16.5" style="stroke:#A80036;stroke-width:1.5;"/><path d="M858,29.25 Q858.3047,28.5 858.6563,28.125 Q859.0078,27.75 859.4063,27.75 Q860.1094,27.75 860.5547,28.1719 Q861,28.5938 861,29.5781 L861,31.9219 Q861,32.9063 860.5781,33.3281 Q860.1563,33.75 859.5,33.75 Q858.9141,33.75 858.5391,33.4922 Q858.1641,33.2344 858,32.5547 Q857.9297,32.0859 857.6719,31.8281 Q857.2031,31.3359 856.3594,31.0547 Q855.5156,30.75 854.6719,30.75 Q853.6172,30.75 852.7266,31.1719 Q851.8594,31.5938 851.1797,32.5313 Q850.5,33.4688 850.5,34.7578 L850.5,36.1406 Q850.5,37.6875 851.7656,38.7188 Q853.0313,39.75 855.2813,39.75 Q856.6172,39.75 857.5547,39.4453 Q858.0938,39.2813 858.7031,38.7422 Q859.1016,38.4375 859.3125,38.3438 Q859.5234,38.25 859.7813,38.25 Q860.2734,38.25 860.625,38.6484 Q861,39.0234 861,39.5625 Q861,40.0781 860.4844,40.6875 Q859.7344,41.5781 858.5391,42.0703 Q856.9688,42.75 855.0469,42.75 Q852.7969,42.75 850.9922,41.8594 Q849.5391,41.1563 848.5078,39.6328 Q847.5,38.1094 847.5,36.3047 L847.5,34.6641 Q847.5,32.7891 848.3906,31.1484 Q849.3047,29.5078 850.875,28.6406 Q852.4688,27.75 854.25,27.75 Q855.3281,27.75 856.2656,28.125 Q857.2031,28.5 858,29.25 Z " fill="#000000"/><text fill="#000000" font-family="sans-serif" font-size="18" lengthAdjust="spacing" textLength="69" x="876" y="41.8652">Barcode</text><line style="stroke:#A80036;stroke-width:2.25;" x1="834" x2="948" y1="58.5" y2="58.5"/><text fill="#000000" font-family="sans-serif" font-size="16.5" lengthAdjust="spacing" textLength="42" x="841.5" y="81.6284">-code</text><line style="stroke:#A80036;stroke-width:2.25;" x1="834" x2="948" y1="91.2539" y2="91.2539"/><!--MD5=[7421f545a0d8420c5bec41e74b387d9c]
class Employee--><rect codeLine="28" fill="#FEFECE" filter="url(#f1bkuwq9upe07y)" height="217.2773" id="Employee" style="stroke:#A80036;stroke-width:2.25;" width="144" x="819" y="156.75"/><ellipse cx="847.575" cy="180.75" fill="#ADD1B2" rx="16.5" ry="16.5" style="stroke:#A80036;stroke-width:1.5;"/><path d="M850.575,175.5 Q850.8797,174.75 851.2312,174.375 Q851.5828,174 851.9812,174 Q852.6844,174 853.1297,174.4219 Q853.575,174.8438 853.575,175.8281 L853.575,178.1719 Q853.575,179.1563 853.1531,179.5781 Q852.7312,180 852.075,180 Q851.4891,180 851.1141,179.7422 Q850.7391,179.4844 850.575,178.8047 Q850.5047,178.3359 850.2469,178.0781 Q849.7781,177.5859 848.9344,177.3047 Q848.0906,177 847.2469,177 Q846.1922,177 845.3016,177.4219 Q844.4344,177.8438 843.7547,178.7813 Q843.075,179.7188 843.075,181.0078 L843.075,182.3906 Q843.075,183.9375 844.3406,184.9688 Q845.6062,186 847.8562,186 Q849.1922,186 850.1297,185.6953 Q850.6687,185.5313 851.2781,184.9922 Q851.6766,184.6875 851.8875,184.5938 Q852.0984,184.5 852.3562,184.5 Q852.8484,184.5 853.2,184.8984 Q853.575,185.2734 853.575,185.8125 Q853.575,186.3281 853.0594,186.9375 Q852.3094,187.8281 851.1141,188.3203 Q849.5437,189 847.6219,189 Q845.3719,189 843.5672,188.1094 Q842.1141,187.4063 841.0828,185.8828 Q840.075,184.3594 840.075,182.5547 L840.075,180.9141 Q840.075,179.0391 840.9656,177.3984 Q841.8797,175.7578 843.45,174.8906 Q845.0437,174 846.825,174 Q847.9031,174 848.8406,174.375 Q849.7781,174.75 850.575,175.5 Z " fill="#000000"/><text fill="#000000" font-family="sans-serif" font-size="18" lengthAdjust="spacing" textLength="82.5" x="869.925" y="188.1152">Employee</text><line style="stroke:#A80036;stroke-width:2.25;" x1="820.5" x2="961.5" y1="204.75" y2="204.75"/><text fill="#000000" font-family="sans-serif" font-size="16.5" lengthAdjust="spacing" textLength="45" x="828" y="227.8784">-name</text><text fill="#000000" font-family="sans-serif" font-size="16.5" lengthAdjust="spacing" textLength="66" x="828" y="248.6323">-address</text><text fill="#000000" font-family="sans-serif" font-size="16.5" lengthAdjust="spacing" textLength="106.5" x="828" y="269.3862">-phoneNumber</text><text fill="#000000" font-family="sans-serif" font-size="16.5" lengthAdjust="spacing" textLength="42" x="828" y="290.1401">-email</text><text fill="#000000" font-family="sans-serif" font-size="16.5" lengthAdjust="spacing" textLength="87" x="828" y="310.894">-employeeId</text><text fill="#000000" font-family="sans-serif" font-size="16.5" lengthAdjust="spacing" textLength="126" x="828" y="331.6479">-organizationRole</text><text fill="#000000" font-family="sans-serif" font-size="16.5" lengthAdjust="spacing" textLength="70.5" x="828" y="352.4019">-socCode</text><line style="stroke:#A80036;stroke-width:2.25;" x1="820.5" x2="961.5" y1="362.0273" y2="362.0273"/><!--MD5=[0caf3a413731a0de34fc6162fe213ed9]
class Laboratory--><rect codeLine="37" fill="#FEFECE" filter="url(#f1bkuwq9upe07y)" height="155.0156" id="Laboratory" style="stroke:#A80036;stroke-width:2.25;" width="135" x="459" y="545.25"/><ellipse cx="481.5" cy="569.25" fill="#ADD1B2" rx="16.5" ry="16.5" style="stroke:#A80036;stroke-width:1.5;"/><path d="M484.5,564 Q484.8047,563.25 485.1563,562.875 Q485.5078,562.5 485.9063,562.5 Q486.6094,562.5 487.0547,562.9219 Q487.5,563.3438 487.5,564.3281 L487.5,566.6719 Q487.5,567.6563 487.0781,568.0781 Q486.6563,568.5 486,568.5 Q485.4141,568.5 485.0391,568.2422 Q484.6641,567.9844 484.5,567.3047 Q484.4297,566.8359 484.1719,566.5781 Q483.7031,566.0859 482.8594,565.8047 Q482.0156,565.5 481.1719,565.5 Q480.1172,565.5 479.2266,565.9219 Q478.3594,566.3438 477.6797,567.2813 Q477,568.2188 477,569.5078 L477,570.8906 Q477,572.4375 478.2656,573.4688 Q479.5313,574.5 481.7813,574.5 Q483.1172,574.5 484.0547,574.1953 Q484.5938,574.0313 485.2031,573.4922 Q485.6016,573.1875 485.8125,573.0938 Q486.0234,573 486.2813,573 Q486.7734,573 487.125,573.3984 Q487.5,573.7734 487.5,574.3125 Q487.5,574.8281 486.9844,575.4375 Q486.2344,576.3281 485.0391,576.8203 Q483.4688,577.5 481.5469,577.5 Q479.2969,577.5 477.4922,576.6094 Q476.0391,575.9063 475.0078,574.3828 Q474,572.8594 474,571.0547 L474,569.4141 Q474,567.5391 474.8906,565.8984 Q475.8047,564.2578 477.375,563.3906 Q478.9688,562.5 480.75,562.5 Q481.8281,562.5 482.7656,562.875 Q483.7031,563.25 484.5,564 Z " fill="#000000"/><text fill="#000000" font-family="sans-serif" font-size="18" lengthAdjust="spacing" textLength="87" x="502.5" y="576.6152">Laboratory</text><line style="stroke:#A80036;stroke-width:2.25;" x1="460.5" x2="592.5" y1="593.25" y2="593.25"/><text fill="#000000" font-family="sans-serif" font-size="16.5" lengthAdjust="spacing" textLength="45" x="468" y="616.3784">-name</text><text fill="#000000" font-family="sans-serif" font-size="16.5" lengthAdjust="spacing" textLength="66" x="468" y="637.1323">-address</text><text fill="#000000" font-family="sans-serif" font-size="16.5" lengthAdjust="spacing" textLength="106.5" x="468" y="657.8862">-phoneNumber</text><text fill="#000000" font-family="sans-serif" font-size="16.5" lengthAdjust="spacing" textLength="22.5" x="468" y="678.6401">-tin</text><line style="stroke:#A80036;stroke-width:2.25;" x1="460.5" x2="592.5" y1="688.2656" y2="688.2656"/><!--MD5=[1934a092c0e7d4da7dc7075b6f4b6b03]
class ClinicalAnalysisLaboratory--><rect codeLine="44" fill="#FEFECE" filter="url(#f1bkuwq9upe07y)" height="92.7539" id="ClinicalAnalysisLaboratory" style="stroke:#A80036;stroke-width:2.25;" width="265.5" x="10.5" y="474"/><ellipse cx="33" cy="498" fill="#ADD1B2" rx="16.5" ry="16.5" style="stroke:#A80036;stroke-width:1.5;"/><path d="M36,492.75 Q36.3047,492 36.6563,491.625 Q37.0078,491.25 37.4063,491.25 Q38.1094,491.25 38.5547,491.6719 Q39,492.0938 39,493.0781 L39,495.4219 Q39,496.4063 38.5781,496.8281 Q38.1563,497.25 37.5,497.25 Q36.9141,497.25 36.5391,496.9922 Q36.1641,496.7344 36,496.0547 Q35.9297,495.5859 35.6719,495.3281 Q35.2031,494.8359 34.3594,494.5547 Q33.5156,494.25 32.6719,494.25 Q31.6172,494.25 30.7266,494.6719 Q29.8594,495.0938 29.1797,496.0313 Q28.5,496.9688 28.5,498.2578 L28.5,499.6406 Q28.5,501.1875 29.7656,502.2188 Q31.0313,503.25 33.2813,503.25 Q34.6172,503.25 35.5547,502.9453 Q36.0938,502.7813 36.7031,502.2422 Q37.1016,501.9375 37.3125,501.8438 Q37.5234,501.75 37.7813,501.75 Q38.2734,501.75 38.625,502.1484 Q39,502.5234 39,503.0625 Q39,503.5781 38.4844,504.1875 Q37.7344,505.0781 36.5391,505.5703 Q34.9688,506.25 33.0469,506.25 Q30.7969,506.25 28.9922,505.3594 Q27.5391,504.6563 26.5078,503.1328 Q25.5,501.6094 25.5,499.8047 L25.5,498.1641 Q25.5,496.2891 26.3906,494.6484 Q27.3047,493.0078 28.875,492.1406 Q30.4688,491.25 32.25,491.25 Q33.3281,491.25 34.2656,491.625 Q35.2031,492 36,492.75 Z " fill="#000000"/><text fill="#000000" font-family="sans-serif" font-size="18" lengthAdjust="spacing" textLength="217.5" x="54" y="505.3652">ClinicalAnalysisLaboratory</text><line style="stroke:#A80036;stroke-width:2.25;" x1="12" x2="274.5" y1="522" y2="522"/><text fill="#000000" font-family="sans-serif" font-size="16.5" lengthAdjust="spacing" textLength="91.5" x="19.5" y="545.1284">-laboratoryId</text><line style="stroke:#A80036;stroke-width:2.25;" x1="12" x2="274.5" y1="554.7539" y2="554.7539"/><!--MD5=[02e4b9b7573f1156f41e60aa5b4e25a4]
class Company--><rect codeLine="47" fill="#FEFECE" filter="url(#f1bkuwq9upe07y)" height="92.7539" id="Company" style="stroke:#A80036;stroke-width:2.25;" width="127.5" x="79.5" y="733.5"/><ellipse cx="102" cy="757.5" fill="#ADD1B2" rx="16.5" ry="16.5" style="stroke:#A80036;stroke-width:1.5;"/><path d="M105,752.25 Q105.3047,751.5 105.6563,751.125 Q106.0078,750.75 106.4063,750.75 Q107.1094,750.75 107.5547,751.1719 Q108,751.5938 108,752.5781 L108,754.9219 Q108,755.9063 107.5781,756.3281 Q107.1563,756.75 106.5,756.75 Q105.9141,756.75 105.5391,756.4922 Q105.1641,756.2344 105,755.5547 Q104.9297,755.0859 104.6719,754.8281 Q104.2031,754.3359 103.3594,754.0547 Q102.5156,753.75 101.6719,753.75 Q100.6172,753.75 99.7266,754.1719 Q98.8594,754.5938 98.1797,755.5313 Q97.5,756.4688 97.5,757.7578 L97.5,759.1406 Q97.5,760.6875 98.7656,761.7188 Q100.0313,762.75 102.2813,762.75 Q103.6172,762.75 104.5547,762.4453 Q105.0938,762.2813 105.7031,761.7422 Q106.1016,761.4375 106.3125,761.3438 Q106.5234,761.25 106.7813,761.25 Q107.2734,761.25 107.625,761.6484 Q108,762.0234 108,762.5625 Q108,763.0781 107.4844,763.6875 Q106.7344,764.5781 105.5391,765.0703 Q103.9688,765.75 102.0469,765.75 Q99.7969,765.75 97.9922,764.8594 Q96.5391,764.1563 95.5078,762.6328 Q94.5,761.1094 94.5,759.3047 L94.5,757.6641 Q94.5,755.7891 95.3906,754.1484 Q96.3047,752.5078 97.875,751.6406 Q99.4688,750.75 101.25,750.75 Q102.3281,750.75 103.2656,751.125 Q104.2031,751.5 105,752.25 Z " fill="#000000"/><text fill="#000000" font-family="sans-serif" font-size="18" lengthAdjust="spacing" textLength="79.5" x="123" y="764.8652">Company</text><line style="stroke:#A80036;stroke-width:2.25;" x1="81" x2="205.5" y1="781.5" y2="781.5"/><text fill="#000000" font-family="sans-serif" font-size="16.5" lengthAdjust="spacing" textLength="85.5" x="88.5" y="804.6284">-description</text><line style="stroke:#A80036;stroke-width:2.25;" x1="81" x2="205.5" y1="814.2539" y2="814.2539"/><!--MD5=[e77fb403852d7bfa027acc725a23446c]
class ExternalApi--><rect fill="#FEFECE" filter="url(#f1bkuwq9upe07y)" height="72" id="ExternalApi" style="stroke:#A80036;stroke-width:2.25;" width="139.5" x="1188" y="832.5"/><ellipse cx="1210.5" cy="856.5" fill="#ADD1B2" rx="16.5" ry="16.5" style="stroke:#A80036;stroke-width:1.5;"/><path d="M1213.5,851.25 Q1213.8047,850.5 1214.1563,850.125 Q1214.5078,849.75 1214.9063,849.75 Q1215.6094,849.75 1216.0547,850.1719 Q1216.5,850.5938 1216.5,851.5781 L1216.5,853.9219 Q1216.5,854.9063 1216.0781,855.3281 Q1215.6563,855.75 1215,855.75 Q1214.4141,855.75 1214.0391,855.4922 Q1213.6641,855.2344 1213.5,854.5547 Q1213.4297,854.0859 1213.1719,853.8281 Q1212.7031,853.3359 1211.8594,853.0547 Q1211.0156,852.75 1210.1719,852.75 Q1209.1172,852.75 1208.2266,853.1719 Q1207.3594,853.5938 1206.6797,854.5313 Q1206,855.4688 1206,856.7578 L1206,858.1406 Q1206,859.6875 1207.2656,860.7188 Q1208.5313,861.75 1210.7813,861.75 Q1212.1172,861.75 1213.0547,861.4453 Q1213.5938,861.2813 1214.2031,860.7422 Q1214.6016,860.4375 1214.8125,860.3438 Q1215.0234,860.25 1215.2813,860.25 Q1215.7734,860.25 1216.125,860.6484 Q1216.5,861.0234 1216.5,861.5625 Q1216.5,862.0781 1215.9844,862.6875 Q1215.2344,863.5781 1214.0391,864.0703 Q1212.4688,864.75 1210.5469,864.75 Q1208.2969,864.75 1206.4922,863.8594 Q1205.0391,863.1563 1204.0078,861.6328 Q1203,860.1094 1203,858.3047 L1203,856.6641 Q1203,854.7891 1203.8906,853.1484 Q1204.8047,851.5078 1206.375,850.6406 Q1207.9688,849.75 1209.75,849.75 Q1210.8281,849.75 1211.7656,850.125 Q1212.7031,850.5 1213.5,851.25 Z " fill="#000000"/><text fill="#000000" font-family="sans-serif" font-size="18" lengthAdjust="spacing" textLength="91.5" x="1231.5" y="863.8652">ExternalApi</text><line style="stroke:#A80036;stroke-width:2.25;" x1="1189.5" x2="1326" y1="880.5" y2="880.5"/><line style="stroke:#A80036;stroke-width:2.25;" x1="1189.5" x2="1326" y1="892.5" y2="892.5"/><!--MD5=[6d0dfcacb99e5b6ea3de933623cb0bd1]
link ClinicalAnalysisLaboratory to Laboratory--><path codeLine="52" d="M276.15,555.75 C326.445,569.235 382.815,584.355 429.18,596.79 " fill="none" id="ClinicalAnalysisLaboratory-to-Laboratory" style="stroke:#A80036;stroke-width:1.5;"/><polygon fill="none" points="432.495,586.815,458.76,604.725,427.065,607.095,432.495,586.815" style="stroke:#A80036;stroke-width:1.5;"/><!--MD5=[d480452e7d21fe720ba0207568bc7434]
link ClinicalAnalysisLaboratory to Test--><path codeLine="53" d="M276.18,516 C441.135,510.345 716.61,500.925 833.895,496.905 " fill="none" id="ClinicalAnalysisLaboratory-Test" style="stroke:#A80036;stroke-width:1.5;"/><polygon fill="#000000" points="497.9956,490.507,484.2851,486.5655,484.5868,495.3771,497.9956,490.507" style="stroke:#000000;stroke-width:1.5;"/><text fill="#000000" font-family="sans-serif" font-size="19.5" lengthAdjust="spacing" textLength="64.5" x="504" y="498.7427">perform</text><text fill="#000000" font-family="sans-serif" font-size="19.5" lengthAdjust="spacing" textLength="30" x="287.9682" y="536.8711">1..*</text><text fill="#000000" font-family="sans-serif" font-size="19.5" lengthAdjust="spacing" textLength="30" x="791.9526" y="519.5555">1..*</text><!--MD5=[b921f878c1b19577ef94d929b3e93a58]
link Company to Laboratory--><path codeLine="54" d="M207.12,754.17 C276.435,725.46 387.93,679.275 458.76,649.935 " fill="none" id="Company-Laboratory" style="stroke:#A80036;stroke-width:1.5;"/><polygon fill="#000000" points="354.9291,652.8935,340.7072,654.0129,344.0813,662.1585,354.9291,652.8935" style="stroke:#000000;stroke-width:1.5;"/><text fill="#000000" font-family="sans-serif" font-size="19.5" lengthAdjust="spacing" textLength="31.5" x="361.5" y="663.7427">has</text><text fill="#000000" font-family="sans-serif" font-size="19.5" lengthAdjust="spacing" textLength="10.5" x="219" y="743.9771">1</text><text fill="#000000" font-family="sans-serif" font-size="19.5" lengthAdjust="spacing" textLength="30" x="417.1247" y="675.724">1..*</text><!--MD5=[1ae83efc6d1967ce5bc17dfe294d00c2]
link Sample to Test--><path codeLine="55" d="M583.14,296.13 C633.6,324.615 709.935,368.895 774,411 C793.89,424.08 815.1,439.155 833.85,452.895 " fill="none" id="Sample-Test" style="stroke:#A80036;stroke-width:1.5;"/><polygon fill="#000000" points="661.8592,319.24,652.6925,308.309,648.0181,315.7846,661.8592,319.24" style="stroke:#000000;stroke-width:1.5;"/><text fill="#000000" font-family="sans-serif" font-size="19.5" lengthAdjust="spacing" textLength="94.5" x="669" y="323.2427">associated</text><text fill="#000000" font-family="sans-serif" font-size="19.5" lengthAdjust="spacing" textLength="30" x="594.5576" y="323.2089">1..*</text><text fill="#000000" font-family="sans-serif" font-size="19.5" lengthAdjust="spacing" textLength="10.5" x="811.455" y="467.5195">1</text><!--MD5=[327391d6abe62f0446af3ffbf41cf7ec]
link Sample to Barcode--><path codeLine="56" d="M582.9,233.835 C650.25,194.985 763.89,129.45 832.29,90 " fill="none" id="Sample-Barcode" style="stroke:#A80036;stroke-width:1.5;"/><polygon fill="#000000" points="657.4969,107.5166,643.5414,110.4763,647.9464,118.1139,657.4969,107.5166" style="stroke:#000000;stroke-width:1.5;"/><text fill="#000000" font-family="sans-serif" font-size="19.5" lengthAdjust="spacing" textLength="103.5" x="664.5" y="119.2427">identified by</text><text fill="#000000" font-family="sans-serif" font-size="19.5" lengthAdjust="spacing" textLength="10.5" x="594.652" y="250.3793">1</text><text fill="#000000" font-family="sans-serif" font-size="19.5" lengthAdjust="spacing" textLength="10.5" x="809.9974" y="118.6109">1</text><!--MD5=[c550c0fb93424651c0337773082e9cc5]
link Sample to Employee--><path codeLine="57" d="M582.9,265.5 C645.915,265.5 749.43,265.5 818.505,265.5 " fill="none" id="Sample-Employee" style="stroke:#A80036;stroke-width:1.5;"/><polygon fill="#000000" points="654,252.2637,640.4324,247.8553,640.4324,256.6721,654,252.2637" style="stroke:#000000;stroke-width:1.5;"/><text fill="#000000" font-family="sans-serif" font-size="19.5" lengthAdjust="spacing" textLength="112.5" x="660" y="260.2427">registered by</text><text fill="#000000" font-family="sans-serif" font-size="19.5" lengthAdjust="spacing" textLength="7.5" x="594.742" y="288.1571">*</text><text fill="#000000" font-family="sans-serif" font-size="19.5" lengthAdjust="spacing" textLength="10.5" x="796.5862" y="287.5603">1</text><!--MD5=[a1757db4d0ea5a43511b1008de7427d7]
link Client to Sample--><path codeLine="58" d="M223.545,265.5 C297.06,265.5 404.895,265.5 469.695,265.5 " fill="none" id="Client-Sample" style="stroke:#A80036;stroke-width:1.5;"/><polygon fill="#000000" points="336,252.2637,322.4324,247.8553,322.4324,256.6721,336,252.2637" style="stroke:#000000;stroke-width:1.5;"/><text fill="#000000" font-family="sans-serif" font-size="19.5" lengthAdjust="spacing" textLength="70.5" x="342" y="260.2427">provides</text><text fill="#000000" font-family="sans-serif" font-size="19.5" lengthAdjust="spacing" textLength="10.5" x="235.5748" y="287.5002">1</text><text fill="#000000" font-family="sans-serif" font-size="19.5" lengthAdjust="spacing" textLength="30" x="428.2511" y="287.6972">1..*</text><!--MD5=[067a849d4635bb787732bfc6f8c631d4]
link Barcode to ExternalApi--><path codeLine="59" d="M942.39,103.77 C949.875,112.215 957.075,121.275 963,130.5 C1121.07,376.35 1218.45,721.125 1247.25,832.38 " fill="none" id="Barcode-ExternalApi" style="stroke:#A80036;stroke-width:1.5;"/><polygon fill="#000000" points="1018.3949,215.6825,1017.2247,201.4647,1009.0912,204.8678,1018.3949,215.6825" style="stroke:#000000;stroke-width:1.5;"/><text fill="#000000" font-family="sans-serif" font-size="19.5" lengthAdjust="spacing" textLength="112.5" x="1029" y="216.7427">generated by</text><text fill="#000000" font-family="sans-serif" font-size="19.5" lengthAdjust="spacing" textLength="7.5" x="944.2691" y="135.6592">*</text><text fill="#000000" font-family="sans-serif" font-size="19.5" lengthAdjust="spacing" textLength="10.5" x="1232.7141" y="816.3595">1</text><!--MD5=[143cf99554a1f0e3bdcbff35535d69e0]
link Company to ExternalApi--><path codeLine="60" d="M207.39,790.935 C240.99,796.47 283.155,802.86 321,807 C644.115,842.31 1032.39,859.965 1187.43,866.01 " fill="none" id="Company-ExternalApi" style="stroke:#A80036;stroke-width:1.5;"/><polygon fill="#000000" points="674.2281,822.8365,661.0368,817.4047,660.3634,826.1957,674.2281,822.8365" style="stroke:#000000;stroke-width:1.5;"/><text fill="#000000" font-family="sans-serif" font-size="19.5" lengthAdjust="spacing" textLength="72" x="680.25" y="830.2427">resort to</text><text fill="#000000" font-family="sans-serif" font-size="19.5" lengthAdjust="spacing" textLength="10.5" x="218.8827" y="815.0403">1</text><text fill="#000000" font-family="sans-serif" font-size="19.5" lengthAdjust="spacing" textLength="10.5" x="1165.3583" y="887.7493">1</text><!--MD5=[7e4bc624457760b649895ff2ead938fa]
link Company to Test--><path codeLine="61" d="M207.105,788.535 C296.505,798.105 464.58,806.025 594,753 C692.94,712.455 781.665,624.6 835.5,562.725 " fill="none" id="Company-Test" style="stroke:#A80036;stroke-width:1.5;"/><polygon fill="#000000" points="492.3081,737.2274,478.0491,737.6669,481.0307,745.9642,492.3081,737.2274" style="stroke:#000000;stroke-width:1.5;"/><text fill="#000000" font-family="sans-serif" font-size="19.5" lengthAdjust="spacing" textLength="75" x="498.75" y="747.7427">performs</text><text fill="#000000" font-family="sans-serif" font-size="19.5" lengthAdjust="spacing" textLength="10.5" x="218.9824" y="784.2486">1</text><text fill="#000000" font-family="sans-serif" font-size="19.5" lengthAdjust="spacing" textLength="30" x="796.0266" y="593.7658">1..*</text><!--MD5=[6145bf394d3bc87bd3a67bd6a5e68478]
@startuml
'https://plantuml.com/class-diagram
skinparam classAttributeIconSize 0
left to right direction
class Client{
 - name
 - email
 - phoneNumber
 - sex
 - tin
 - birthDate
 - nhsNumber
 - citizenCardNumber
}

class Sample{
}

class Test{
-internalCode
-nhsCode
-description
}

class Barcode{
-code
}

class Employee{
-name
-address
-phoneNumber
-email
-employeeId
-organizationRole
-socCode
}
class Laboratory{
-name
-address
-phoneNumber
-tin
}

class ClinicalAnalysisLaboratory{
-laboratoryId
}
class Company{
-description
}


ClinicalAnalysisLaboratory - -|> Laboratory
ClinicalAnalysisLaboratory "1..*"- - -"1..*" Test : perform >
Company "1"- -"1..*" Laboratory : has >
Sample "1..*"- -"1" Test : associated >
Sample "1"- -"1" Barcode : identified by >
Sample "*"- -"1" Employee : registered by >
Client "1"- -"1..*" Sample : provides >
Barcode "*"- -"1" ExternalApi : generated by >
Company "1"- - -"1" ExternalApi : resort to >
Company "1"- - -"1..*" Test : performs >

@enduml

@startuml
skinparam classAttributeIconSize 0
left to right direction
class Client{
 - name
 - email
 - phoneNumber
 - sex
 - tin
 - birthDate
 - nhsNumber
 - citizenCardNumber
}

class Sample{
}

class Test{
-internalCode
-nhsCode
-description
}

class Barcode{
-code
}

class Employee{
-name
-address
-phoneNumber
-email
-employeeId
-organizationRole
-socCode
}
class Laboratory{
-name
-address
-phoneNumber
-tin
}

class ClinicalAnalysisLaboratory{
-laboratoryId
}
class Company{
-description
}


ClinicalAnalysisLaboratory - -|> Laboratory
ClinicalAnalysisLaboratory "1..*"- - -"1..*" Test : perform >
Company "1"- -"1..*" Laboratory : has >
Sample "1..*"- -"1" Test : associated >
Sample "1"- -"1" Barcode : identified by >
Sample "*"- -"1" Employee : registered by >
Client "1"- -"1..*" Sample : provides >
Barcode "*"- -"1" ExternalApi : generated by >
Company "1"- - -"1" ExternalApi : resort to >
Company "1"- - -"1..*" Test : performs >

@enduml

PlantUML version 1.2021.7(Sun May 23 13:40:07 BST 2021)
(GPL source distribution)
Java Runtime: OpenJDK Runtime Environment
JVM: Dynamic Code Evolution 64-Bit Server VM
Default Encoding: Cp1252
Language: pt
Country: PT
--></g></svg>