<?xml version="1.0" encoding="UTF-8" standalone="no"?><svg xmlns="http://www.w3.org/2000/svg" xmlns:xlink="http://www.w3.org/1999/xlink" contentScriptType="application/ecmascript" contentStyleType="text/css" height="1354px" preserveAspectRatio="none" style="width:2736px;height:1354px;" version="1.1" viewBox="0 0 2736 1354" width="2736px" zoomAndPan="magnify"><defs><filter height="300%" id="f3vi8oc2uysew" width="300%" x="-1" y="-1"><feGaussianBlur result="blurOut" stdDeviation="2.0"/><feColorMatrix in="blurOut" result="blurOut2" type="matrix" values="0 0 0 0 0 0 0 0 0 0 0 0 0 0 0 0 0 0 .4 0"/><feOffset dx="4.0" dy="4.0" in="blurOut2" result="blurOut3"/><feBlend in="SourceGraphic" in2="blurOut3" mode="normal"/></filter></defs><g><rect fill="#FFFFFF" filter="url(#f3vi8oc2uysew)" height="1151.1563" style="stroke:#A80036;stroke-width:1.0;" width="10" x="59.5" y="99.6094"/><rect fill="#FFFFFF" filter="url(#f3vi8oc2uysew)" height="417.4766" style="stroke:#A80036;stroke-width:1.0;" width="10" x="482.5" y="121.9609"/><rect fill="#FFFFFF" filter="url(#f3vi8oc2uysew)" height="37.3516" style="stroke:#A80036;stroke-width:1.0;" width="10" x="482.5" y="569.7891"/><rect fill="#FFFFFF" filter="url(#f3vi8oc2uysew)" height="314.8125" style="stroke:#A80036;stroke-width:1.0;" width="10" x="482.5" y="637.4922"/><rect fill="#FFFFFF" filter="url(#f3vi8oc2uysew)" height="268.1094" style="stroke:#A80036;stroke-width:1.0;" width="10" x="482.5" y="982.6563"/><rect fill="#FFFFFF" filter="url(#f3vi8oc2uysew)" height="331.4219" style="stroke:#A80036;stroke-width:1.0;" width="10" x="769.5" y="152.3125"/><rect fill="#FFFFFF" filter="url(#f3vi8oc2uysew)" height="254.1094" style="stroke:#A80036;stroke-width:1.0;" width="10" x="769.5" y="667.8438"/><rect fill="#FFFFFF" filter="url(#f3vi8oc2uysew)" height="237.7578" style="stroke:#A80036;stroke-width:1.0;" width="10" x="769.5" y="1013.0078"/><rect fill="#FFFFFF" filter="url(#f3vi8oc2uysew)" height="30" style="stroke:#A80036;stroke-width:1.0;" width="10" x="1071.5" y="182.6641"/><rect fill="#FFFFFF" filter="url(#f3vi8oc2uysew)" height="30" style="stroke:#A80036;stroke-width:1.0;" width="10" x="1071.5" y="698.1953"/><rect fill="#FFFFFF" filter="url(#f3vi8oc2uysew)" height="101.9609" style="stroke:#A80036;stroke-width:1.0;" width="10" x="1200.5" y="243.0156"/><rect fill="#FFFFFF" filter="url(#f3vi8oc2uysew)" height="78.0547" style="stroke:#A80036;stroke-width:1.0;" width="10" x="1351.5" y="375.3281"/><rect fill="#FFFFFF" filter="url(#f3vi8oc2uysew)" height="30.3516" style="stroke:#A80036;stroke-width:1.0;" width="10" x="1555.5" y="783.5469"/><rect fill="#FFFFFF" filter="url(#f3vi8oc2uysew)" height="30" style="stroke:#A80036;stroke-width:1.0;" width="10" x="1555.5" y="891.9531"/><rect fill="#FFFFFF" filter="url(#f3vi8oc2uysew)" height="139.7031" style="stroke:#A80036;stroke-width:1.0;" width="10" x="1555.5" y="1043.3594"/><rect fill="#FFFFFF" filter="url(#f3vi8oc2uysew)" height="28" style="stroke:#A80036;stroke-width:1.0;" width="10" x="1560.5" y="1081.7109"/><rect fill="#FFFFFF" filter="url(#f3vi8oc2uysew)" height="28" style="stroke:#A80036;stroke-width:1.0;" width="10" x="1560.5" y="1155.0625"/><rect fill="#FFFFFF" filter="url(#f3vi8oc2uysew)" height="79.0547" style="stroke:#000000;stroke-width:2.0;" width="609" x="10" y="498.7344"/><line style="stroke:#A80036;stroke-width:1.0;stroke-dasharray:5.0,5.0;" x1="64" x2="64" y1="89.6094" y2="1268.7656"/><line style="stroke:#A80036;stroke-width:1.0;stroke-dasharray:5.0,5.0;" x1="487" x2="487" y1="89.6094" y2="1268.7656"/><line style="stroke:#A80036;stroke-width:1.0;stroke-dasharray:5.0,5.0;" x1="774" x2="774" y1="89.6094" y2="1268.7656"/><line style="stroke:#A80036;stroke-width:1.0;stroke-dasharray:5.0,5.0;" x1="1076.5" x2="1076.5" y1="89.6094" y2="1268.7656"/><line style="stroke:#A80036;stroke-width:1.0;stroke-dasharray:5.0,5.0;" x1="1205.5" x2="1205.5" y1="89.6094" y2="1268.7656"/><line style="stroke:#A80036;stroke-width:1.0;stroke-dasharray:5.0,5.0;" x1="1356.5" x2="1356.5" y1="89.6094" y2="1268.7656"/><line style="stroke:#A80036;stroke-width:1.0;stroke-dasharray:5.0,5.0;" x1="1560.5" x2="1560.5" y1="89.6094" y2="1268.7656"/><line style="stroke:#A80036;stroke-width:1.0;stroke-dasharray:5.0,5.0;" x1="1823.5" x2="1823.5" y1="89.6094" y2="1268.7656"/><line style="stroke:#A80036;stroke-width:1.0;stroke-dasharray:5.0,5.0;" x1="2075.5" x2="2075.5" y1="89.6094" y2="1268.7656"/><line style="stroke:#A80036;stroke-width:1.0;stroke-dasharray:5.0,5.0;" x1="2314.5" x2="2314.5" y1="89.6094" y2="1268.7656"/><line style="stroke:#A80036;stroke-width:1.0;stroke-dasharray:5.0,5.0;" x1="2474.5" x2="2474.5" y1="89.6094" y2="1268.7656"/><line style="stroke:#A80036;stroke-width:1.0;stroke-dasharray:5.0,5.0;" x1="2627.5" x2="2627.5" y1="284.3203" y2="1268.7656"/><text fill="#000000" font-family="sans-serif" font-size="14" lengthAdjust="spacing" textLength="83" x="20" y="86.5332">Administrator</text><ellipse cx="64.5" cy="15" fill="#FEFECE" filter="url(#f3vi8oc2uysew)" rx="8" ry="8" style="stroke:#A80036;stroke-width:2.0;"/><path d="M64.5,23 L64.5,50 M51.5,31 L77.5,31 M64.5,50 L51.5,65 M64.5,50 L77.5,65 " fill="none" filter="url(#f3vi8oc2uysew)" style="stroke:#A80036;stroke-width:2.0;"/><text fill="#000000" font-family="sans-serif" font-size="14" lengthAdjust="spacing" textLength="83" x="20" y="1282.2988">Administrator</text><ellipse cx="64.5" cy="1295.375" fill="#FEFECE" filter="url(#f3vi8oc2uysew)" rx="8" ry="8" style="stroke:#A80036;stroke-width:2.0;"/><path d="M64.5,1303.375 L64.5,1330.375 M51.5,1311.375 L77.5,1311.375 M64.5,1330.375 L51.5,1345.375 M64.5,1330.375 L77.5,1345.375 " fill="none" filter="url(#f3vi8oc2uysew)" style="stroke:#A80036;stroke-width:2.0;"/><rect fill="#FEFECE" filter="url(#f3vi8oc2uysew)" height="31.6094" style="stroke:#A80036;stroke-width:1.5;" width="239" x="366" y="53"/><text fill="#000000" font-family="sans-serif" font-size="14" lengthAdjust="spacing" textLength="225" x="373" y="74.5332">:CreateClinicalAnalysisLaboratoryUI</text><rect fill="#FEFECE" filter="url(#f3vi8oc2uysew)" height="31.6094" style="stroke:#A80036;stroke-width:1.5;" width="239" x="366" y="1267.7656"/><text fill="#000000" font-family="sans-serif" font-size="14" lengthAdjust="spacing" textLength="225" x="373" y="1289.2988">:CreateClinicalAnalysisLaboratoryUI</text><rect fill="#FEFECE" filter="url(#f3vi8oc2uysew)" height="31.6094" style="stroke:#A80036;stroke-width:1.5;" width="289" x="628" y="53"/><text fill="#000000" font-family="sans-serif" font-size="14" lengthAdjust="spacing" textLength="275" x="635" y="74.5332">:CreateClinicalAnalysisLaboratoryController</text><rect fill="#FEFECE" filter="url(#f3vi8oc2uysew)" height="31.6094" style="stroke:#A80036;stroke-width:1.5;" width="289" x="628" y="1267.7656"/><text fill="#000000" font-family="sans-serif" font-size="14" lengthAdjust="spacing" textLength="275" x="635" y="1289.2988">:CreateClinicalAnalysisLaboratoryController</text><rect fill="#FEFECE" filter="url(#f3vi8oc2uysew)" height="31.6094" style="stroke:#A80036;stroke-width:1.5;" width="82" x="1033.5" y="53"/><text fill="#000000" font-family="sans-serif" font-size="14" lengthAdjust="spacing" textLength="68" x="1040.5" y="74.5332">: Company</text><rect fill="#FEFECE" filter="url(#f3vi8oc2uysew)" height="31.6094" style="stroke:#A80036;stroke-width:1.5;" width="82" x="1033.5" y="1267.7656"/><text fill="#000000" font-family="sans-serif" font-size="14" lengthAdjust="spacing" textLength="68" x="1040.5" y="1289.2988">: Company</text><rect fill="#FEFECE" filter="url(#f3vi8oc2uysew)" height="31.6094" style="stroke:#A80036;stroke-width:1.5;" width="148" x="1129.5" y="53"/><text fill="#000000" font-family="sans-serif" font-size="14" lengthAdjust="spacing" textLength="134" x="1136.5" y="74.5332">store: TestTypeStore</text><rect fill="#FEFECE" filter="url(#f3vi8oc2uysew)" height="31.6094" style="stroke:#A80036;stroke-width:1.5;" width="148" x="1129.5" y="1267.7656"/><text fill="#000000" font-family="sans-serif" font-size="14" lengthAdjust="spacing" textLength="134" x="1136.5" y="1289.2988">store: TestTypeStore</text><rect fill="#FEFECE" filter="url(#f3vi8oc2uysew)" height="31.6094" style="stroke:#A80036;stroke-width:1.5;" width="126" x="1291.5" y="53"/><text fill="#000000" font-family="sans-serif" font-size="14" lengthAdjust="spacing" textLength="112" x="1298.5" y="74.5332">:TestTypeMapper</text><rect fill="#FEFECE" filter="url(#f3vi8oc2uysew)" height="31.6094" style="stroke:#A80036;stroke-width:1.5;" width="126" x="1291.5" y="1267.7656"/><text fill="#000000" font-family="sans-serif" font-size="14" lengthAdjust="spacing" textLength="112" x="1298.5" y="1289.2988">:TestTypeMapper</text><rect fill="#FEFECE" filter="url(#f3vi8oc2uysew)" height="31.6094" style="stroke:#A80036;stroke-width:1.5;" width="254" x="1431.5" y="53"/><text fill="#000000" font-family="sans-serif" font-size="14" lengthAdjust="spacing" textLength="240" x="1438.5" y="74.5332">store: ClinicalAnalysisLaboratoryStore</text><rect fill="#FEFECE" filter="url(#f3vi8oc2uysew)" height="31.6094" style="stroke:#A80036;stroke-width:1.5;" width="254" x="1431.5" y="1267.7656"/><text fill="#000000" font-family="sans-serif" font-size="14" lengthAdjust="spacing" textLength="240" x="1438.5" y="1289.2988">store: ClinicalAnalysisLaboratoryStore</text><rect fill="#FEFECE" filter="url(#f3vi8oc2uysew)" height="31.6094" style="stroke:#A80036;stroke-width:1.5;" width="232" x="1705.5" y="53"/><text fill="#000000" font-family="sans-serif" font-size="14" lengthAdjust="spacing" textLength="218" x="1712.5" y="74.5332">:ClinicalAnalysisLaboratoryMapper</text><rect fill="#FEFECE" filter="url(#f3vi8oc2uysew)" height="31.6094" style="stroke:#A80036;stroke-width:1.5;" width="232" x="1705.5" y="1267.7656"/><text fill="#000000" font-family="sans-serif" font-size="14" lengthAdjust="spacing" textLength="218" x="1712.5" y="1289.2988">:ClinicalAnalysisLaboratoryMapper</text><rect fill="#FEFECE" filter="url(#f3vi8oc2uysew)" height="31.6094" style="stroke:#A80036;stroke-width:1.5;" width="244" x="1951.5" y="53"/><text fill="#000000" font-family="sans-serif" font-size="14" lengthAdjust="spacing" textLength="230" x="1958.5" y="74.5332">DTO:ClinicalAnalysisLaboratoryDTO</text><rect fill="#FEFECE" filter="url(#f3vi8oc2uysew)" height="31.6094" style="stroke:#A80036;stroke-width:1.5;" width="244" x="1951.5" y="1267.7656"/><text fill="#000000" font-family="sans-serif" font-size="14" lengthAdjust="spacing" textLength="230" x="1958.5" y="1289.2988">DTO:ClinicalAnalysisLaboratoryDTO</text><rect fill="#FEFECE" filter="url(#f3vi8oc2uysew)" height="31.6094" style="stroke:#A80036;stroke-width:1.5;" width="206" x="2209.5" y="53"/><text fill="#000000" font-family="sans-serif" font-size="14" lengthAdjust="spacing" textLength="192" x="2216.5" y="74.5332">cal: ClinicalAnalysisLaboratory</text><rect fill="#FEFECE" filter="url(#f3vi8oc2uysew)" height="31.6094" style="stroke:#A80036;stroke-width:1.5;" width="206" x="2209.5" y="1267.7656"/><text fill="#000000" font-family="sans-serif" font-size="14" lengthAdjust="spacing" textLength="192" x="2216.5" y="1289.2988">cal: ClinicalAnalysisLaboratory</text><rect fill="#FEFECE" filter="url(#f3vi8oc2uysew)" height="31.6094" style="stroke:#A80036;stroke-width:1.5;" width="86" x="2429.5" y="53"/><text fill="#000000" font-family="sans-serif" font-size="14" lengthAdjust="spacing" textLength="72" x="2436.5" y="74.5332">t: TestType</text><rect fill="#FEFECE" filter="url(#f3vi8oc2uysew)" height="31.6094" style="stroke:#A80036;stroke-width:1.5;" width="86" x="2429.5" y="1267.7656"/><text fill="#000000" font-family="sans-serif" font-size="14" lengthAdjust="spacing" textLength="72" x="2436.5" y="1289.2988">t: TestType</text><rect fill="#FEFECE" filter="url(#f3vi8oc2uysew)" height="31.6094" style="stroke:#A80036;stroke-width:1.5;" width="193" x="2529.5" y="1267.7656"/><text fill="#000000" font-family="sans-serif" font-size="14" lengthAdjust="spacing" textLength="179" x="2536.5" y="1289.2988">listTestType:List&lt;TestType&gt;</text><rect fill="#FFFFFF" filter="url(#f3vi8oc2uysew)" height="1151.1563" style="stroke:#A80036;stroke-width:1.0;" width="10" x="59.5" y="99.6094"/><rect fill="#FFFFFF" filter="url(#f3vi8oc2uysew)" height="417.4766" style="stroke:#A80036;stroke-width:1.0;" width="10" x="482.5" y="121.9609"/><rect fill="#FFFFFF" filter="url(#f3vi8oc2uysew)" height="37.3516" style="stroke:#A80036;stroke-width:1.0;" width="10" x="482.5" y="569.7891"/><rect fill="#FFFFFF" filter="url(#f3vi8oc2uysew)" height="314.8125" style="stroke:#A80036;stroke-width:1.0;" width="10" x="482.5" y="637.4922"/><rect fill="#FFFFFF" filter="url(#f3vi8oc2uysew)" height="268.1094" style="stroke:#A80036;stroke-width:1.0;" width="10" x="482.5" y="982.6563"/><rect fill="#FFFFFF" filter="url(#f3vi8oc2uysew)" height="331.4219" style="stroke:#A80036;stroke-width:1.0;" width="10" x="769.5" y="152.3125"/><rect fill="#FFFFFF" filter="url(#f3vi8oc2uysew)" height="254.1094" style="stroke:#A80036;stroke-width:1.0;" width="10" x="769.5" y="667.8438"/><rect fill="#FFFFFF" filter="url(#f3vi8oc2uysew)" height="237.7578" style="stroke:#A80036;stroke-width:1.0;" width="10" x="769.5" y="1013.0078"/><rect fill="#FFFFFF" filter="url(#f3vi8oc2uysew)" height="30" style="stroke:#A80036;stroke-width:1.0;" width="10" x="1071.5" y="182.6641"/><rect fill="#FFFFFF" filter="url(#f3vi8oc2uysew)" height="30" style="stroke:#A80036;stroke-width:1.0;" width="10" x="1071.5" y="698.1953"/><rect fill="#FFFFFF" filter="url(#f3vi8oc2uysew)" height="101.9609" style="stroke:#A80036;stroke-width:1.0;" width="10" x="1200.5" y="243.0156"/><rect fill="#FFFFFF" filter="url(#f3vi8oc2uysew)" height="78.0547" style="stroke:#A80036;stroke-width:1.0;" width="10" x="1351.5" y="375.3281"/><rect fill="#FFFFFF" filter="url(#f3vi8oc2uysew)" height="30.3516" style="stroke:#A80036;stroke-width:1.0;" width="10" x="1555.5" y="783.5469"/><rect fill="#FFFFFF" filter="url(#f3vi8oc2uysew)" height="30" style="stroke:#A80036;stroke-width:1.0;" width="10" x="1555.5" y="891.9531"/><rect fill="#FFFFFF" filter="url(#f3vi8oc2uysew)" height="139.7031" style="stroke:#A80036;stroke-width:1.0;" width="10" x="1555.5" y="1043.3594"/><rect fill="#FFFFFF" filter="url(#f3vi8oc2uysew)" height="28" style="stroke:#A80036;stroke-width:1.0;" width="10" x="1560.5" y="1081.7109"/><rect fill="#FFFFFF" filter="url(#f3vi8oc2uysew)" height="28" style="stroke:#A80036;stroke-width:1.0;" width="10" x="1560.5" y="1155.0625"/><polygon fill="#A80036" points="470.5,117.9609,480.5,121.9609,470.5,125.9609,474.5,121.9609" style="stroke:#A80036;stroke-width:1.0;"/><line style="stroke:#A80036;stroke-width:1.0;" x1="69.5" x2="476.5" y1="121.9609" y2="121.9609"/><text fill="#000000" font-family="sans-serif" font-size="13" font-weight="bold" lengthAdjust="spacing" textLength="7" x="76.5" y="117.1045">1</text><text fill="#000000" font-family="sans-serif" font-size="13" lengthAdjust="spacing" textLength="286" x="87.5" y="117.1045">asks to create a new Clinical Analysis Laboratory</text><polygon fill="#A80036" points="757.5,148.3125,767.5,152.3125,757.5,156.3125,761.5,152.3125" style="stroke:#A80036;stroke-width:1.0;"/><line style="stroke:#A80036;stroke-width:1.0;" x1="492.5" x2="763.5" y1="152.3125" y2="152.3125"/><text fill="#000000" font-family="sans-serif" font-size="13" font-weight="bold" lengthAdjust="spacing" textLength="7" x="499.5" y="147.4561">2</text><text fill="#000000" font-family="sans-serif" font-size="13" lengthAdjust="spacing" textLength="100" x="510.5" y="147.4561">getTestTypeList()</text><polygon fill="#A80036" points="1059.5,178.6641,1069.5,182.6641,1059.5,186.6641,1063.5,182.6641" style="stroke:#A80036;stroke-width:1.0;"/><line style="stroke:#A80036;stroke-width:1.0;" x1="779.5" x2="1065.5" y1="182.6641" y2="182.6641"/><text fill="#000000" font-family="sans-serif" font-size="13" font-weight="bold" lengthAdjust="spacing" textLength="7" x="786.5" y="177.8076">3</text><text fill="#000000" font-family="sans-serif" font-size="13" lengthAdjust="spacing" textLength="147" x="797.5" y="177.8076">store=getTestTypeStore()</text><polygon fill="#A80036" points="1188.5,239.0156,1198.5,243.0156,1188.5,247.0156,1192.5,243.0156" style="stroke:#A80036;stroke-width:1.0;"/><line style="stroke:#A80036;stroke-width:1.0;" x1="779.5" x2="1194.5" y1="243.0156" y2="243.0156"/><text fill="#000000" font-family="sans-serif" font-size="13" font-weight="bold" lengthAdjust="spacing" textLength="7" x="786.5" y="238.1592">4</text><text fill="#000000" font-family="sans-serif" font-size="13" lengthAdjust="spacing" textLength="100" x="797.5" y="238.1592">getTestTypeList()</text><polygon fill="#A80036" points="2517.5,269.3672,2527.5,273.3672,2517.5,277.3672,2521.5,273.3672" style="stroke:#A80036;stroke-width:1.0;"/><line style="stroke:#A80036;stroke-width:1.0;" x1="1210.5" x2="2523.5" y1="273.3672" y2="273.3672"/><text fill="#000000" font-family="sans-serif" font-size="13" font-weight="bold" lengthAdjust="spacing" textLength="7" x="1217.5" y="268.5107">5</text><text fill="#000000" font-family="sans-serif" font-size="13" lengthAdjust="spacing" textLength="26" x="1228.5" y="268.5107">get()</text><rect fill="#FEFECE" filter="url(#f3vi8oc2uysew)" height="31.6094" style="stroke:#A80036;stroke-width:1.5;" width="193" x="2529.5" y="251.0156"/><text fill="#000000" font-family="sans-serif" font-size="14" lengthAdjust="spacing" textLength="179" x="2536.5" y="272.5488">listTestType:List&lt;TestType&gt;</text><polygon fill="#A80036" points="790.5,340.9766,780.5,344.9766,790.5,348.9766,786.5,344.9766" style="stroke:#A80036;stroke-width:1.0;"/><line style="stroke:#A80036;stroke-width:1.0;stroke-dasharray:2.0,2.0;" x1="784.5" x2="1204.5" y1="344.9766" y2="344.9766"/><text fill="#000000" font-family="sans-serif" font-size="13" font-weight="bold" lengthAdjust="spacing" textLength="7" x="796.5" y="340.1201">6</text><text fill="#000000" font-family="sans-serif" font-size="13" lengthAdjust="spacing" textLength="70" x="807.5" y="340.1201">listTestType</text><polygon fill="#A80036" points="1339.5,371.3281,1349.5,375.3281,1339.5,379.3281,1343.5,375.3281" style="stroke:#A80036;stroke-width:1.0;"/><line style="stroke:#A80036;stroke-width:1.0;" x1="779.5" x2="1345.5" y1="375.3281" y2="375.3281"/><text fill="#000000" font-family="sans-serif" font-size="13" font-weight="bold" lengthAdjust="spacing" textLength="7" x="786.5" y="370.4717">7</text><text fill="#000000" font-family="sans-serif" font-size="13" lengthAdjust="spacing" textLength="115" x="797.5" y="370.4717">toDTO(listTestType)</text><rect fill="#FFFFFF" filter="url(#f3vi8oc2uysew)" height="42.7031" style="stroke:#000000;stroke-width:2.0;" width="132" x="1288.5" y="383.3281"/><polygon fill="#EEEEEE" points="1288.5,383.3281,1350.5,383.3281,1350.5,391.3281,1340.5,401.3281,1288.5,401.3281,1288.5,383.3281" style="stroke:#000000;stroke-width:2.0;"/><text fill="#000000" font-family="sans-serif" font-size="13" font-weight="bold" lengthAdjust="spacing" textLength="17" x="1301.5" y="398.8232">ref</text><text fill="#000000" font-family="sans-serif" font-size="13" lengthAdjust="spacing" textLength="95" x="1309" y="418.8232">SD_populateList</text><polygon fill="#A80036" points="790.5,449.3828,780.5,453.3828,790.5,457.3828,786.5,453.3828" style="stroke:#A80036;stroke-width:1.0;"/><line style="stroke:#A80036;stroke-width:1.0;stroke-dasharray:2.0,2.0;" x1="784.5" x2="1355.5" y1="453.3828" y2="453.3828"/><text fill="#000000" font-family="sans-serif" font-size="13" font-weight="bold" lengthAdjust="spacing" textLength="7" x="796.5" y="448.5264">8</text><text fill="#000000" font-family="sans-serif" font-size="13" lengthAdjust="spacing" textLength="100" x="807.5" y="448.5264">TestTypeListDTO</text><polygon fill="#A80036" points="503.5,479.7344,493.5,483.7344,503.5,487.7344,499.5,483.7344" style="stroke:#A80036;stroke-width:1.0;"/><line style="stroke:#A80036;stroke-width:1.0;stroke-dasharray:2.0,2.0;" x1="497.5" x2="773.5" y1="483.7344" y2="483.7344"/><text fill="#000000" font-family="sans-serif" font-size="13" font-weight="bold" lengthAdjust="spacing" textLength="7" x="509.5" y="478.8779">9</text><text fill="#000000" font-family="sans-serif" font-size="13" lengthAdjust="spacing" textLength="100" x="520.5" y="478.8779">TestTypeListDTO</text><path d="M10,498.7344 L83,498.7344 L83,506.7344 L73,516.7344 L10,516.7344 L10,498.7344 " fill="#EEEEEE" style="stroke:#000000;stroke-width:1.0;"/><rect fill="none" height="79.0547" style="stroke:#000000;stroke-width:2.0;" width="609" x="10" y="498.7344"/><text fill="#000000" font-family="sans-serif" font-size="13" font-weight="bold" lengthAdjust="spacing" textLength="28" x="25" y="513.2295">loop</text><text fill="#000000" font-family="sans-serif" font-size="11" font-weight="bold" lengthAdjust="spacing" textLength="173" x="98" y="512.1533">[while user selects TestTypes]</text><polygon fill="#A80036" points="80.5,535.4375,70.5,539.4375,80.5,543.4375,76.5,539.4375" style="stroke:#A80036;stroke-width:1.0;"/><line style="stroke:#A80036;stroke-width:1.0;stroke-dasharray:2.0,2.0;" x1="74.5" x2="486.5" y1="539.4375" y2="539.4375"/><text fill="#000000" font-family="sans-serif" font-size="13" font-weight="bold" lengthAdjust="spacing" textLength="14" x="86.5" y="534.5811">10</text><text fill="#000000" font-family="sans-serif" font-size="13" lengthAdjust="spacing" textLength="344" x="104.5" y="534.5811">shows a TestType list and ask to choose the ones intended</text><polygon fill="#A80036" points="470.5,565.7891,480.5,569.7891,470.5,573.7891,474.5,569.7891" style="stroke:#A80036;stroke-width:1.0;"/><line style="stroke:#A80036;stroke-width:1.0;" x1="69.5" x2="476.5" y1="569.7891" y2="569.7891"/><text fill="#000000" font-family="sans-serif" font-size="13" font-weight="bold" lengthAdjust="spacing" textLength="14" x="76.5" y="564.9326">11</text><text fill="#000000" font-family="sans-serif" font-size="13" lengthAdjust="spacing" textLength="103" x="94.5" y="564.9326">select a TestType</text><polygon fill="#A80036" points="80.5,603.1406,70.5,607.1406,80.5,611.1406,76.5,607.1406" style="stroke:#A80036;stroke-width:1.0;"/><line style="stroke:#A80036;stroke-width:1.0;stroke-dasharray:2.0,2.0;" x1="74.5" x2="486.5" y1="607.1406" y2="607.1406"/><text fill="#000000" font-family="sans-serif" font-size="13" font-weight="bold" lengthAdjust="spacing" textLength="14" x="86.5" y="602.2842">12</text><text fill="#000000" font-family="sans-serif" font-size="13" lengthAdjust="spacing" textLength="371" x="104.5" y="602.2842">requests data (name, address, phoneNumber , TIN, laboratoryId)</text><polygon fill="#A80036" points="470.5,633.4922,480.5,637.4922,470.5,641.4922,474.5,637.4922" style="stroke:#A80036;stroke-width:1.0;"/><line style="stroke:#A80036;stroke-width:1.0;" x1="69.5" x2="476.5" y1="637.4922" y2="637.4922"/><text fill="#000000" font-family="sans-serif" font-size="13" font-weight="bold" lengthAdjust="spacing" textLength="14" x="76.5" y="632.6357">13</text><text fill="#000000" font-family="sans-serif" font-size="13" lengthAdjust="spacing" textLength="122" x="94.5" y="632.6357">types requested data</text><polygon fill="#A80036" points="757.5,663.8438,767.5,667.8438,757.5,671.8438,761.5,667.8438" style="stroke:#A80036;stroke-width:1.0;"/><line style="stroke:#A80036;stroke-width:1.0;" x1="492.5" x2="763.5" y1="667.8438" y2="667.8438"/><text fill="#000000" font-family="sans-serif" font-size="13" font-weight="bold" lengthAdjust="spacing" textLength="14" x="499.5" y="662.9873">14</text><text fill="#000000" font-family="sans-serif" font-size="13" lengthAdjust="spacing" textLength="240" x="517.5" y="662.9873">createClinicalAnalysisLaboratory(calDTO)</text><polygon fill="#A80036" points="1059.5,694.1953,1069.5,698.1953,1059.5,702.1953,1063.5,698.1953" style="stroke:#A80036;stroke-width:1.0;"/><line style="stroke:#A80036;stroke-width:1.0;" x1="779.5" x2="1065.5" y1="698.1953" y2="698.1953"/><text fill="#000000" font-family="sans-serif" font-size="13" font-weight="bold" lengthAdjust="spacing" textLength="14" x="786.5" y="693.3389">15</text><text fill="#000000" font-family="sans-serif" font-size="13" lengthAdjust="spacing" textLength="255" x="804.5" y="693.3389">store = getClinicalAnalysisLaboratoryStore()</text><polygon fill="#A80036" points="1543.5,779.5469,1553.5,783.5469,1543.5,787.5469,1547.5,783.5469" style="stroke:#A80036;stroke-width:1.0;"/><line style="stroke:#A80036;stroke-width:1.0;" x1="779.5" x2="1549.5" y1="783.5469" y2="783.5469"/><text fill="#000000" font-family="sans-serif" font-size="13" font-weight="bold" lengthAdjust="spacing" textLength="14" x="786.5" y="778.6904">16</text><text fill="#000000" font-family="sans-serif" font-size="13" lengthAdjust="spacing" textLength="273" x="804.5" y="778.6904">cal = createClinicalAnalysisLaboratory(calDTO)</text><polygon fill="#A80036" points="1811.5,809.8984,1821.5,813.8984,1811.5,817.8984,1815.5,813.8984" style="stroke:#A80036;stroke-width:1.0;"/><line style="stroke:#A80036;stroke-width:1.0;" x1="1560.5" x2="1817.5" y1="813.8984" y2="813.8984"/><text fill="#000000" font-family="sans-serif" font-size="13" font-weight="bold" lengthAdjust="spacing" textLength="14" x="1567.5" y="809.042">17</text><text fill="#000000" font-family="sans-serif" font-size="13" lengthAdjust="spacing" textLength="100" x="1585.5" y="809.042">ToModel(calDTO)</text><rect fill="#FFFFFF" filter="url(#f3vi8oc2uysew)" height="42.7031" style="stroke:#000000;stroke-width:2.0;" width="238" x="1702.5" y="821.8984"/><polygon fill="#EEEEEE" points="1702.5,821.8984,1764.5,821.8984,1764.5,829.8984,1754.5,839.8984,1702.5,839.8984,1702.5,821.8984" style="stroke:#000000;stroke-width:2.0;"/><text fill="#000000" font-family="sans-serif" font-size="13" font-weight="bold" lengthAdjust="spacing" textLength="17" x="1715.5" y="837.3936">ref</text><text fill="#000000" font-family="sans-serif" font-size="13" lengthAdjust="spacing" textLength="74" x="1786.5" y="857.3936">SD_ToModel</text><polygon fill="#A80036" points="1543.5,887.9531,1553.5,891.9531,1543.5,895.9531,1547.5,891.9531" style="stroke:#A80036;stroke-width:1.0;"/><line style="stroke:#A80036;stroke-width:1.0;" x1="779.5" x2="1549.5" y1="891.9531" y2="891.9531"/><text fill="#000000" font-family="sans-serif" font-size="13" font-weight="bold" lengthAdjust="spacing" textLength="14" x="786.5" y="887.0967">18</text><text fill="#000000" font-family="sans-serif" font-size="13" lengthAdjust="spacing" textLength="255" x="804.5" y="887.0967">validateClinicalAnalysisLaboratoryglobal(cal)</text><polygon fill="#A80036" points="80.5,948.3047,70.5,952.3047,80.5,956.3047,76.5,952.3047" style="stroke:#A80036;stroke-width:1.0;"/><line style="stroke:#A80036;stroke-width:1.0;stroke-dasharray:2.0,2.0;" x1="74.5" x2="486.5" y1="952.3047" y2="952.3047"/><text fill="#000000" font-family="sans-serif" font-size="13" font-weight="bold" lengthAdjust="spacing" textLength="14" x="86.5" y="947.4482">19</text><text fill="#000000" font-family="sans-serif" font-size="13" lengthAdjust="spacing" textLength="236" x="104.5" y="947.4482">shows all data and requests confirmation</text><polygon fill="#A80036" points="470.5,978.6563,480.5,982.6563,470.5,986.6563,474.5,982.6563" style="stroke:#A80036;stroke-width:1.0;"/><line style="stroke:#A80036;stroke-width:1.0;" x1="69.5" x2="476.5" y1="982.6563" y2="982.6563"/><text fill="#000000" font-family="sans-serif" font-size="13" font-weight="bold" lengthAdjust="spacing" textLength="14" x="76.5" y="977.7998">20</text><text fill="#000000" font-family="sans-serif" font-size="13" lengthAdjust="spacing" textLength="100" x="94.5" y="977.7998">confirms the data</text><polygon fill="#A80036" points="757.5,1009.0078,767.5,1013.0078,757.5,1017.0078,761.5,1013.0078" style="stroke:#A80036;stroke-width:1.0;"/><line style="stroke:#A80036;stroke-width:1.0;" x1="492.5" x2="763.5" y1="1013.0078" y2="1013.0078"/><text fill="#000000" font-family="sans-serif" font-size="13" font-weight="bold" lengthAdjust="spacing" textLength="14" x="499.5" y="1008.1514">21</text><text fill="#000000" font-family="sans-serif" font-size="13" lengthAdjust="spacing" textLength="187" x="517.5" y="1008.1514">saveClinicalAnalysisLaboratory()</text><polygon fill="#A80036" points="1543.5,1039.3594,1553.5,1043.3594,1543.5,1047.3594,1547.5,1043.3594" style="stroke:#A80036;stroke-width:1.0;"/><line style="stroke:#A80036;stroke-width:1.0;" x1="779.5" x2="1549.5" y1="1043.3594" y2="1043.3594"/><text fill="#000000" font-family="sans-serif" font-size="13" font-weight="bold" lengthAdjust="spacing" textLength="14" x="786.5" y="1038.5029">22</text><text fill="#000000" font-family="sans-serif" font-size="13" lengthAdjust="spacing" textLength="204" x="804.5" y="1038.5029">saveClinicalAnalysisLaboratory(cal)</text><line style="stroke:#A80036;stroke-width:1.0;" x1="1570.5" x2="1612.5" y1="1073.7109" y2="1073.7109"/><line style="stroke:#A80036;stroke-width:1.0;" x1="1612.5" x2="1612.5" y1="1073.7109" y2="1086.7109"/><line style="stroke:#A80036;stroke-width:1.0;" x1="1571.5" x2="1612.5" y1="1086.7109" y2="1086.7109"/><polygon fill="#A80036" points="1581.5,1082.7109,1571.5,1086.7109,1581.5,1090.7109,1577.5,1086.7109" style="stroke:#A80036;stroke-width:1.0;"/><text fill="#000000" font-family="sans-serif" font-size="13" font-weight="bold" lengthAdjust="spacing" textLength="14" x="1577.5" y="1068.8545">23</text><text fill="#000000" font-family="sans-serif" font-size="13" lengthAdjust="spacing" textLength="221" x="1595.5" y="1068.8545">validateClinicalAnalysisLaboratory(cal)</text><line style="stroke:#A80036;stroke-width:1.0;" x1="1570.5" x2="1612.5" y1="1147.0625" y2="1147.0625"/><line style="stroke:#A80036;stroke-width:1.0;" x1="1612.5" x2="1612.5" y1="1147.0625" y2="1160.0625"/><line style="stroke:#A80036;stroke-width:1.0;" x1="1571.5" x2="1612.5" y1="1160.0625" y2="1160.0625"/><polygon fill="#A80036" points="1581.5,1156.0625,1571.5,1160.0625,1581.5,1164.0625,1577.5,1160.0625" style="stroke:#A80036;stroke-width:1.0;"/><text fill="#000000" font-family="sans-serif" font-size="13" font-weight="bold" lengthAdjust="spacing" textLength="14" x="1577.5" y="1142.2061">24</text><text fill="#000000" font-family="sans-serif" font-size="13" lengthAdjust="spacing" textLength="199" x="1595.5" y="1142.2061">addClinicalAnalysisLaboratory(cal)</text><polygon fill="#A80036" points="503.5,1216.4141,493.5,1220.4141,503.5,1224.4141,499.5,1220.4141" style="stroke:#A80036;stroke-width:1.0;"/><line style="stroke:#A80036;stroke-width:1.0;stroke-dasharray:2.0,2.0;" x1="497.5" x2="768.5" y1="1220.4141" y2="1220.4141"/><text fill="#000000" font-family="sans-serif" font-size="13" font-weight="bold" lengthAdjust="spacing" textLength="14" x="509.5" y="1215.5576">25</text><text fill="#000000" font-family="sans-serif" font-size="13" lengthAdjust="spacing" textLength="32" x="527.5" y="1215.5576">result</text><polygon fill="#A80036" points="75.5,1246.7656,65.5,1250.7656,75.5,1254.7656,71.5,1250.7656" style="stroke:#A80036;stroke-width:1.0;"/><line style="stroke:#A80036;stroke-width:1.0;stroke-dasharray:2.0,2.0;" x1="69.5" x2="486.5" y1="1250.7656" y2="1250.7656"/><text fill="#000000" font-family="sans-serif" font-size="13" font-weight="bold" lengthAdjust="spacing" textLength="14" x="81.5" y="1245.9092">26</text><text fill="#000000" font-family="sans-serif" font-size="13" lengthAdjust="spacing" textLength="152" x="99.5" y="1245.9092">informs operation success</text><!--MD5=[911996471b405f786cdf051e78c61a0f]
@startuml
autonumber
actor "Administrator" as ADM

participant ":CreateClinicalAnalysisLaboratoryUI" as UI
participant ":CreateClinicalAnalysisLaboratoryController" as CTRL
participant ": Company" as Comp
participant "store: TestTypeStore" as TTS
participant ":TestTypeMapper" as MapperTT
participant "store: ClinicalAnalysisLaboratoryStore" as CALStore
participant ":ClinicalAnalysisLaboratoryMapper" as MapperCal
participant "DTO:ClinicalAnalysisLaboratoryDTO" as CALDTO
participant "cal: ClinicalAnalysisLaboratory" as CAL
participant "t: TestType" as TT

activate ADM
ADM -> UI : asks to create a new Clinical Analysis Laboratory
activate UI
UI -> CTRL : getTestTypeList()
activate CTRL

CTRL -> Comp : store=getTestTypeStore()
activate Comp
deactivate Comp
CTRL -> TTS : getTestTypeList()
activate TTS
TTS -> "listTestType:List<TestType>"** : get()

|||

TTS - -> CTRL : listTestType
deactivate TTS

CTRL -> MapperTT :toDTO(listTestType)
activate MapperTT
ref over MapperTT
SD_populateList
end ref
MapperTT - -> CTRL : TestTypeListDTO
deactivate MapperTT
CTRL - -> UI : TestTypeListDTO
deactivate CTRL
loop while user selects TestTypes
UI - -> ADM : shows a TestType list and ask to choose the ones intended
deactivate UI

ADM -> UI : select a TestType
activate UI
end
UI - -> ADM : requests data (name, address, phoneNumber , TIN, laboratoryId)
deactivate UI

ADM -> UI : types requested data
activate UI

UI -> CTRL : createClinicalAnalysisLaboratory(calDTO)
activate CTRL



CTRL -> Comp : store = getClinicalAnalysisLaboratoryStore()
activate Comp
|||
deactivate Comp
CTRL -> CALStore: cal = createClinicalAnalysisLaboratory(calDTO)
activate CALStore
CALStore -> MapperCal : ToModel(calDTO)
deactivate CALStore
deactivate Comp


ref over MapperCal
SD_ToModel
end ref

CTRL -> CALStore : validateClinicalAnalysisLaboratoryglobal(cal)
activate CALStore
deactivate CALStore
deactivate CTRL

UI - -> ADM: shows all data and requests confirmation
deactivate CTRL
deactivate UI

ADM -> UI : confirms the data
activate UI
UI -> CTRL : saveClinicalAnalysisLaboratory()
activate CTRL

CTRL -> CALStore : saveClinicalAnalysisLaboratory(cal)
activate CALStore

CALStore -> CALStore: validateClinicalAnalysisLaboratory(cal)
activate CALStore
deactivate CALStore

CALStore -> CALStore: addClinicalAnalysisLaboratory(cal)
activate CALStore
deactivate CALStore
deactivate CALStore

CTRL - -> UI : result

UI - -> ADM : informs operation success
deactivate CTRL
deactivate UI

deactivate ADM

@enduml

PlantUML version 1.2021.00(Sun Jan 10 10:25:05 GMT 2021)
(GPL source distribution)
Java Runtime: OpenJDK Runtime Environment
JVM: OpenJDK 64-Bit Server VM
Default Encoding: Cp1252
Language: pt
Country: PT
--></g></svg>