<?xml version="1.0" encoding="UTF-8" standalone="no"?><svg xmlns="http://www.w3.org/2000/svg" xmlns:xlink="http://www.w3.org/1999/xlink" contentScriptType="application/ecmascript" contentStyleType="text/css" height="376px" preserveAspectRatio="none" style="width:433px;height:376px;" version="1.1" viewBox="0 0 433 376" width="433.6px" zoomAndPan="magnify"><defs><filter height="300%" id="f1x2eegw0ich0h" width="300%" x="-1" y="-1"><feGaussianBlur result="blurOut" stdDeviation="1.6"/><feColorMatrix in="blurOut" result="blurOut2" type="matrix" values="0 0 0 0 0 0 0 0 0 0 0 0 0 0 0 0 0 0 .4 0"/><feOffset dx="3.2" dy="3.2" in="blurOut2" result="blurOut3"/><feBlend in="SourceGraphic" in2="blurOut3" mode="normal"/></filter></defs><g><rect fill="#FFFFFF" filter="url(#f1x2eegw0ich0h)" height="213.7313" style="stroke:#A80036;stroke-width:0.8;" width="8" x="47.6" y="79.6875"/><rect fill="#FFFFFF" filter="url(#f1x2eegw0ich0h)" height="24.2813" style="stroke:#A80036;stroke-width:0.8;" width="8" x="383.6" y="97.5688"/><rect fill="#FFFFFF" filter="url(#f1x2eegw0ich0h)" height="24.2813" style="stroke:#A80036;stroke-width:0.8;" width="8" x="383.6" y="146.1313"/><rect fill="#FFFFFF" filter="url(#f1x2eegw0ich0h)" height="29.8813" style="stroke:#A80036;stroke-width:0.8;" width="8" x="383.6" y="214.975"/><rect fill="#FFFFFF" filter="url(#f1x2eegw0ich0h)" height="24.2813" style="stroke:#A80036;stroke-width:0.8;" width="8" x="383.6" y="269.1375"/><rect fill="#FFFFFF" filter="url(#f1x2eegw0ich0h)" height="38.9625" style="stroke:#000000;stroke-width:1.6;" width="414.8" x="8" y="182.4125"/><line style="stroke:#A80036;stroke-width:0.8;stroke-dasharray:5.0,5.0;" x1="51.2" x2="51.2" y1="71.6875" y2="307.8188"/><line style="stroke:#A80036;stroke-width:0.8;stroke-dasharray:5.0,5.0;" x1="387.6" x2="387.6" y1="71.6875" y2="307.8188"/><text fill="#000000" font-family="sans-serif" font-size="11.2" lengthAdjust="spacing" textLength="66.4" x="16" y="69.2266">Administrator</text><ellipse cx="51.6" cy="12" fill="#FEFECE" filter="url(#f1x2eegw0ich0h)" rx="6.4" ry="6.4" style="stroke:#A80036;stroke-width:1.6;"/><path d="M51.6,18.4 L51.6,40 M41.2,24.8 L62,24.8 M51.6,40 L41.2,52 M51.6,40 L62,52 " fill="none" filter="url(#f1x2eegw0ich0h)" style="stroke:#A80036;stroke-width:1.6;"/><text fill="#000000" font-family="sans-serif" font-size="11.2" lengthAdjust="spacing" textLength="66.4" x="16" y="318.6453">Administrator</text><ellipse cx="51.6" cy="329.1063" fill="#FEFECE" filter="url(#f1x2eegw0ich0h)" rx="6.4" ry="6.4" style="stroke:#A80036;stroke-width:1.6;"/><path d="M51.6,335.5063 L51.6,357.1063 M41.2,341.9063 L62,341.9063 M51.6,357.1063 L41.2,369.1063 M51.6,357.1063 L62,369.1063 " fill="none" filter="url(#f1x2eegw0ich0h)" style="stroke:#A80036;stroke-width:1.6;"/><rect fill="#FEFECE" filter="url(#f1x2eegw0ich0h)" height="25.2875" style="stroke:#A80036;stroke-width:1.2000000000000002;" width="51.2" x="360.4" y="42.4"/><text fill="#000000" font-family="sans-serif" font-size="11.2" lengthAdjust="spacing" textLength="40" x="366" y="59.6266">:System</text><rect fill="#FEFECE" filter="url(#f1x2eegw0ich0h)" height="25.2875" style="stroke:#A80036;stroke-width:1.2000000000000002;" width="51.2" x="360.4" y="307.0188"/><text fill="#000000" font-family="sans-serif" font-size="11.2" lengthAdjust="spacing" textLength="40" x="366" y="324.2453">:System</text><rect fill="#FFFFFF" filter="url(#f1x2eegw0ich0h)" height="213.7313" style="stroke:#A80036;stroke-width:0.8;" width="8" x="47.6" y="79.6875"/><rect fill="#FFFFFF" filter="url(#f1x2eegw0ich0h)" height="24.2813" style="stroke:#A80036;stroke-width:0.8;" width="8" x="383.6" y="97.5688"/><rect fill="#FFFFFF" filter="url(#f1x2eegw0ich0h)" height="24.2813" style="stroke:#A80036;stroke-width:0.8;" width="8" x="383.6" y="146.1313"/><rect fill="#FFFFFF" filter="url(#f1x2eegw0ich0h)" height="29.8813" style="stroke:#A80036;stroke-width:0.8;" width="8" x="383.6" y="214.975"/><rect fill="#FFFFFF" filter="url(#f1x2eegw0ich0h)" height="24.2813" style="stroke:#A80036;stroke-width:0.8;" width="8" x="383.6" y="269.1375"/><polygon fill="#A80036" points="374,94.3688,382,97.5688,374,100.7688,377.2,97.5688" style="stroke:#A80036;stroke-width:0.8;"/><line style="stroke:#A80036;stroke-width:0.8;" x1="55.6" x2="378.8" y1="97.5688" y2="97.5688"/><text fill="#000000" font-family="sans-serif" font-size="10.4" font-weight="bold" lengthAdjust="spacing" textLength="5.6" x="61.2" y="93.6836">1</text><text fill="#000000" font-family="sans-serif" font-size="10.4" lengthAdjust="spacing" textLength="228.8" x="70" y="93.6836">asks to create a new Clinical Analysis Laboratory</text><polygon fill="#A80036" points="64.4,118.65,56.4,121.85,64.4,125.05,61.2,121.85" style="stroke:#A80036;stroke-width:0.8;"/><line style="stroke:#A80036;stroke-width:0.8;stroke-dasharray:2.0,2.0;" x1="59.6" x2="386.8" y1="121.85" y2="121.85"/><text fill="#000000" font-family="sans-serif" font-size="10.4" font-weight="bold" lengthAdjust="spacing" textLength="5.6" x="69.2" y="117.9648">2</text><text fill="#000000" font-family="sans-serif" font-size="10.4" lengthAdjust="spacing" textLength="300" x="78" y="117.9648">requests data (name, address, phoneNumber , TIN, laboratoryId )</text><polygon fill="#A80036" points="374,142.9313,382,146.1313,374,149.3313,377.2,146.1313" style="stroke:#A80036;stroke-width:0.8;"/><line style="stroke:#A80036;stroke-width:0.8;" x1="55.6" x2="378.8" y1="146.1313" y2="146.1313"/><text fill="#000000" font-family="sans-serif" font-size="10.4" font-weight="bold" lengthAdjust="spacing" textLength="5.6" x="61.2" y="142.2461">3</text><text fill="#000000" font-family="sans-serif" font-size="10.4" lengthAdjust="spacing" textLength="97.6" x="70" y="142.2461">types requested data</text><polygon fill="#A80036" points="64.4,167.2125,56.4,170.4125,64.4,173.6125,61.2,170.4125" style="stroke:#A80036;stroke-width:0.8;"/><line style="stroke:#A80036;stroke-width:0.8;stroke-dasharray:2.0,2.0;" x1="59.6" x2="386.8" y1="170.4125" y2="170.4125"/><text fill="#000000" font-family="sans-serif" font-size="10.4" font-weight="bold" lengthAdjust="spacing" textLength="5.6" x="69.2" y="166.5273">4</text><text fill="#000000" font-family="sans-serif" font-size="10.4" lengthAdjust="spacing" textLength="275.2" x="78" y="166.5273">shows a TestType list and ask to choose the ones intended</text><path d="M8,182.4125 L66.4,182.4125 L66.4,188.8125 L58.4,196.8125 L8,196.8125 L8,182.4125 " fill="#EEEEEE" style="stroke:#000000;stroke-width:0.8;"/><rect fill="none" height="38.9625" style="stroke:#000000;stroke-width:1.6;" width="414.8" x="8" y="182.4125"/><text fill="#000000" font-family="sans-serif" font-size="10.4" font-weight="bold" lengthAdjust="spacing" textLength="22.4" x="20" y="194.0086">loop</text><text fill="#000000" font-family="sans-serif" font-size="8.8" font-weight="bold" lengthAdjust="spacing" textLength="219.2" x="78.4" y="193.1477">[* while the user selects the TestTypes intended]</text><polygon fill="#A80036" points="374,211.775,382,214.975,374,218.175,377.2,214.975" style="stroke:#A80036;stroke-width:0.8;"/><line style="stroke:#A80036;stroke-width:0.8;" x1="55.6" x2="378.8" y1="214.975" y2="214.975"/><text fill="#000000" font-family="sans-serif" font-size="10.4" font-weight="bold" lengthAdjust="spacing" textLength="5.6" x="61.2" y="211.0898">5</text><text fill="#000000" font-family="sans-serif" font-size="10.4" lengthAdjust="spacing" textLength="144.8" x="70" y="211.0898">selects the TestTypes intended</text><polygon fill="#A80036" points="64.4,241.6563,56.4,244.8563,64.4,248.0563,61.2,244.8563" style="stroke:#A80036;stroke-width:0.8;"/><line style="stroke:#A80036;stroke-width:0.8;stroke-dasharray:2.0,2.0;" x1="59.6" x2="386.8" y1="244.8563" y2="244.8563"/><text fill="#000000" font-family="sans-serif" font-size="10.4" font-weight="bold" lengthAdjust="spacing" textLength="5.6" x="69.2" y="240.9711">6</text><text fill="#000000" font-family="sans-serif" font-size="10.4" lengthAdjust="spacing" textLength="188.8" x="78" y="240.9711">shows all data and requests confirmation</text><polygon fill="#A80036" points="374,265.9375,382,269.1375,374,272.3375,377.2,269.1375" style="stroke:#A80036;stroke-width:0.8;"/><line style="stroke:#A80036;stroke-width:0.8;" x1="55.6" x2="378.8" y1="269.1375" y2="269.1375"/><text fill="#000000" font-family="sans-serif" font-size="10.4" font-weight="bold" lengthAdjust="spacing" textLength="5.6" x="61.2" y="265.2523">7</text><text fill="#000000" font-family="sans-serif" font-size="10.4" lengthAdjust="spacing" textLength="80" x="70" y="265.2523">confirms the data</text><polygon fill="#A80036" points="60.4,290.2188,52.4,293.4188,60.4,296.6188,57.2,293.4188" style="stroke:#A80036;stroke-width:0.8;"/><line style="stroke:#A80036;stroke-width:0.8;stroke-dasharray:2.0,2.0;" x1="55.6" x2="386.8" y1="293.4188" y2="293.4188"/><text fill="#000000" font-family="sans-serif" font-size="10.4" font-weight="bold" lengthAdjust="spacing" textLength="5.6" x="65.2" y="289.5336">8</text><text fill="#000000" font-family="sans-serif" font-size="10.4" lengthAdjust="spacing" textLength="139.2" x="74" y="289.5336">informs the operation success</text><!--MD5=[cd5bbe22b0f3a253e43afdf71028a7fc]
@startuml
autonumber
actor "Administrator" as Adm

activate Adm
Adm -> ":System" : asks to create a new Clinical Analysis Laboratory
activate ":System"
":System" - -> Adm : requests data (name, address, phoneNumber , TIN, laboratoryId )

deactivate ":System"

Adm -> ":System" : types requested data
activate ":System"
":System" - -> Adm : shows a TestType list and ask to choose the ones intended
deactivate ":System"
loop * while the user selects the TestTypes intended
Adm -> ":System" : selects the TestTypes intended
activate ":System"
end
":System" - -> Adm : shows all data and requests confirmation
deactivate ":System"


Adm -> ":System" : confirms the data
activate ":System"
":System" - -> Adm : informs the operation success
deactivate ":System"

deactivate Adm

@enduml

PlantUML version 1.2021.00(Sun Jan 10 10:25:05 GMT 2021)
(GPL source distribution)
Java Runtime: OpenJDK Runtime Environment
JVM: OpenJDK 64-Bit Server VM
Default Encoding: Cp1252
Language: pt
Country: PT
--></g></svg>