<?xml version="1.0" encoding="UTF-8" standalone="no"?><svg xmlns="http://www.w3.org/2000/svg" xmlns:xlink="http://www.w3.org/1999/xlink" contentScriptType="application/ecmascript" contentStyleType="text/css" height="470px" preserveAspectRatio="none" style="width:542px;height:470px;" version="1.1" viewBox="0 0 542 470" width="542px" zoomAndPan="magnify"><defs><filter height="300%" id="fuwfjn3v6ch1" width="300%" x="-1" y="-1"><feGaussianBlur result="blurOut" stdDeviation="2.0"/><feColorMatrix in="blurOut" result="blurOut2" type="matrix" values="0 0 0 0 0 0 0 0 0 0 0 0 0 0 0 0 0 0 .4 0"/><feOffset dx="4.0" dy="4.0" in="blurOut2" result="blurOut3"/><feBlend in="SourceGraphic" in2="blurOut3" mode="normal"/></filter></defs><g><rect fill="#FFFFFF" filter="url(#fuwfjn3v6ch1)" height="267.1641" style="stroke:#A80036;stroke-width:1.0;" width="10" x="59.5" y="99.6094"/><rect fill="#FFFFFF" filter="url(#fuwfjn3v6ch1)" height="30.3516" style="stroke:#A80036;stroke-width:1.0;" width="10" x="479.5" y="121.9609"/><rect fill="#FFFFFF" filter="url(#fuwfjn3v6ch1)" height="55.7031" style="stroke:#A80036;stroke-width:1.0;" width="10" x="479.5" y="182.6641"/><rect fill="#FFFFFF" filter="url(#fuwfjn3v6ch1)" height="37.3516" style="stroke:#A80036;stroke-width:1.0;" width="10" x="479.5" y="268.7188"/><rect fill="#FFFFFF" filter="url(#fuwfjn3v6ch1)" height="30.3516" style="stroke:#A80036;stroke-width:1.0;" width="10" x="479.5" y="336.4219"/><rect fill="#FFFFFF" filter="url(#fuwfjn3v6ch1)" height="79.0547" style="stroke:#000000;stroke-width:2.0;" width="518.5" x="10" y="197.6641"/><line style="stroke:#A80036;stroke-width:1.0;stroke-dasharray:5.0,5.0;" x1="64" x2="64" y1="89.6094" y2="384.7734"/><line style="stroke:#A80036;stroke-width:1.0;stroke-dasharray:5.0,5.0;" x1="484.5" x2="484.5" y1="89.6094" y2="384.7734"/><text fill="#000000" font-family="sans-serif" font-size="14" lengthAdjust="spacing" textLength="83" x="20" y="86.5332">Administrator</text><ellipse cx="64.5" cy="15" fill="#FEFECE" filter="url(#fuwfjn3v6ch1)" rx="8" ry="8" style="stroke:#A80036;stroke-width:2.0;"/><path d="M64.5,23 L64.5,50 M51.5,31 L77.5,31 M64.5,50 L51.5,65 M64.5,50 L77.5,65 " fill="none" filter="url(#fuwfjn3v6ch1)" style="stroke:#A80036;stroke-width:2.0;"/><text fill="#000000" font-family="sans-serif" font-size="14" lengthAdjust="spacing" textLength="83" x="20" y="398.3066">Administrator</text><ellipse cx="64.5" cy="411.3828" fill="#FEFECE" filter="url(#fuwfjn3v6ch1)" rx="8" ry="8" style="stroke:#A80036;stroke-width:2.0;"/><path d="M64.5,419.3828 L64.5,446.3828 M51.5,427.3828 L77.5,427.3828 M64.5,446.3828 L51.5,461.3828 M64.5,446.3828 L77.5,461.3828 " fill="none" filter="url(#fuwfjn3v6ch1)" style="stroke:#A80036;stroke-width:2.0;"/><rect fill="#FEFECE" filter="url(#fuwfjn3v6ch1)" height="31.6094" style="stroke:#A80036;stroke-width:1.5;" width="64" x="450.5" y="53"/><text fill="#000000" font-family="sans-serif" font-size="14" lengthAdjust="spacing" textLength="50" x="457.5" y="74.5332">:System</text><rect fill="#FEFECE" filter="url(#fuwfjn3v6ch1)" height="31.6094" style="stroke:#A80036;stroke-width:1.5;" width="64" x="450.5" y="383.7734"/><text fill="#000000" font-family="sans-serif" font-size="14" lengthAdjust="spacing" textLength="50" x="457.5" y="405.3066">:System</text><rect fill="#FFFFFF" filter="url(#fuwfjn3v6ch1)" height="267.1641" style="stroke:#A80036;stroke-width:1.0;" width="10" x="59.5" y="99.6094"/><rect fill="#FFFFFF" filter="url(#fuwfjn3v6ch1)" height="30.3516" style="stroke:#A80036;stroke-width:1.0;" width="10" x="479.5" y="121.9609"/><rect fill="#FFFFFF" filter="url(#fuwfjn3v6ch1)" height="55.7031" style="stroke:#A80036;stroke-width:1.0;" width="10" x="479.5" y="182.6641"/><rect fill="#FFFFFF" filter="url(#fuwfjn3v6ch1)" height="37.3516" style="stroke:#A80036;stroke-width:1.0;" width="10" x="479.5" y="268.7188"/><rect fill="#FFFFFF" filter="url(#fuwfjn3v6ch1)" height="30.3516" style="stroke:#A80036;stroke-width:1.0;" width="10" x="479.5" y="336.4219"/><polygon fill="#A80036" points="467.5,117.9609,477.5,121.9609,467.5,125.9609,471.5,121.9609" style="stroke:#A80036;stroke-width:1.0;"/><line style="stroke:#A80036;stroke-width:1.0;" x1="69.5" x2="473.5" y1="121.9609" y2="121.9609"/><text fill="#000000" font-family="sans-serif" font-size="13" font-weight="bold" lengthAdjust="spacing" textLength="7" x="76.5" y="117.1045">1</text><text fill="#000000" font-family="sans-serif" font-size="13" lengthAdjust="spacing" textLength="286" x="87.5" y="117.1045">asks to create a new Clinical Analysis Laboratory</text><polygon fill="#A80036" points="80.5,148.3125,70.5,152.3125,80.5,156.3125,76.5,152.3125" style="stroke:#A80036;stroke-width:1.0;"/><line style="stroke:#A80036;stroke-width:1.0;stroke-dasharray:2.0,2.0;" x1="74.5" x2="483.5" y1="152.3125" y2="152.3125"/><text fill="#000000" font-family="sans-serif" font-size="13" font-weight="bold" lengthAdjust="spacing" textLength="7" x="86.5" y="147.4561">2</text><text fill="#000000" font-family="sans-serif" font-size="13" lengthAdjust="spacing" textLength="375" x="97.5" y="147.4561">requests data (name, address, phoneNumber , TIN, laboratoryId )</text><polygon fill="#A80036" points="467.5,178.6641,477.5,182.6641,467.5,186.6641,471.5,182.6641" style="stroke:#A80036;stroke-width:1.0;"/><line style="stroke:#A80036;stroke-width:1.0;" x1="69.5" x2="473.5" y1="182.6641" y2="182.6641"/><text fill="#000000" font-family="sans-serif" font-size="13" font-weight="bold" lengthAdjust="spacing" textLength="7" x="76.5" y="177.8076">3</text><text fill="#000000" font-family="sans-serif" font-size="13" lengthAdjust="spacing" textLength="122" x="87.5" y="177.8076">types requested data</text><path d="M10,197.6641 L83,197.6641 L83,205.6641 L73,215.6641 L10,215.6641 L10,197.6641 " fill="#EEEEEE" style="stroke:#000000;stroke-width:1.0;"/><rect fill="none" height="79.0547" style="stroke:#000000;stroke-width:2.0;" width="518.5" x="10" y="197.6641"/><text fill="#000000" font-family="sans-serif" font-size="13" font-weight="bold" lengthAdjust="spacing" textLength="28" x="25" y="212.1592">loop</text><text fill="#000000" font-family="sans-serif" font-size="11" font-weight="bold" lengthAdjust="spacing" textLength="274" x="98" y="211.083">[* while the user selects the TestTypes intended]</text><polygon fill="#A80036" points="80.5,234.3672,70.5,238.3672,80.5,242.3672,76.5,238.3672" style="stroke:#A80036;stroke-width:1.0;"/><line style="stroke:#A80036;stroke-width:1.0;stroke-dasharray:2.0,2.0;" x1="74.5" x2="483.5" y1="238.3672" y2="238.3672"/><text fill="#000000" font-family="sans-serif" font-size="13" font-weight="bold" lengthAdjust="spacing" textLength="7" x="86.5" y="233.5107">4</text><text fill="#000000" font-family="sans-serif" font-size="13" lengthAdjust="spacing" textLength="344" x="97.5" y="233.5107">shows a TestType list and ask to choose the ones intended</text><polygon fill="#A80036" points="467.5,264.7188,477.5,268.7188,467.5,272.7188,471.5,268.7188" style="stroke:#A80036;stroke-width:1.0;"/><line style="stroke:#A80036;stroke-width:1.0;" x1="69.5" x2="473.5" y1="268.7188" y2="268.7188"/><text fill="#000000" font-family="sans-serif" font-size="13" font-weight="bold" lengthAdjust="spacing" textLength="7" x="76.5" y="263.8623">5</text><text fill="#000000" font-family="sans-serif" font-size="13" lengthAdjust="spacing" textLength="181" x="87.5" y="263.8623">selects the TestTypes intended</text><polygon fill="#A80036" points="80.5,302.0703,70.5,306.0703,80.5,310.0703,76.5,306.0703" style="stroke:#A80036;stroke-width:1.0;"/><line style="stroke:#A80036;stroke-width:1.0;stroke-dasharray:2.0,2.0;" x1="74.5" x2="483.5" y1="306.0703" y2="306.0703"/><text fill="#000000" font-family="sans-serif" font-size="13" font-weight="bold" lengthAdjust="spacing" textLength="7" x="86.5" y="301.2139">6</text><text fill="#000000" font-family="sans-serif" font-size="13" lengthAdjust="spacing" textLength="236" x="97.5" y="301.2139">shows all data and requests confirmation</text><polygon fill="#A80036" points="467.5,332.4219,477.5,336.4219,467.5,340.4219,471.5,336.4219" style="stroke:#A80036;stroke-width:1.0;"/><line style="stroke:#A80036;stroke-width:1.0;" x1="69.5" x2="473.5" y1="336.4219" y2="336.4219"/><text fill="#000000" font-family="sans-serif" font-size="13" font-weight="bold" lengthAdjust="spacing" textLength="7" x="76.5" y="331.5654">7</text><text fill="#000000" font-family="sans-serif" font-size="13" lengthAdjust="spacing" textLength="100" x="87.5" y="331.5654">confirms the data</text><polygon fill="#A80036" points="75.5,362.7734,65.5,366.7734,75.5,370.7734,71.5,366.7734" style="stroke:#A80036;stroke-width:1.0;"/><line style="stroke:#A80036;stroke-width:1.0;stroke-dasharray:2.0,2.0;" x1="69.5" x2="483.5" y1="366.7734" y2="366.7734"/><text fill="#000000" font-family="sans-serif" font-size="13" font-weight="bold" lengthAdjust="spacing" textLength="7" x="81.5" y="361.917">8</text><text fill="#000000" font-family="sans-serif" font-size="13" lengthAdjust="spacing" textLength="174" x="92.5" y="361.917">informs the operation success</text><!--MD5=[2dea0c164264c4b0806acf722f02679c]
@startuml
autonumber
actor "Administrator" as Adm

activate Adm
Adm -> ":System" : asks to create a new Clinical Analysis Laboratory
activate ":System"
":System" - -> Adm : requests data (name, address, phoneNumber , TIN, laboratoryId )

deactivate ":System"

Adm -> ":System" : types requested data
activate ":System"
loop * while the user selects the TestTypes intended
":System" - -> Adm : shows a TestType list and ask to choose the ones intended
deactivate ":System"
Adm -> ":System" : selects the TestTypes intended
activate ":System"
end
":System" - -> Adm : shows all data and requests confirmation
deactivate ":System"


Adm -> ":System" : confirms the data
activate ":System"
":System" - -> Adm : informs the operation success
deactivate ":System"

deactivate Adm

@enduml

PlantUML version 1.2021.00(Sun Jan 10 10:25:05 GMT 2021)
(GPL source distribution)
Java Runtime: OpenJDK Runtime Environment
JVM: OpenJDK 64-Bit Server VM
Default Encoding: Cp1252
Language: pt
Country: PT
--></g></svg>