<?xml version="1.0" encoding="UTF-8" standalone="no"?><svg xmlns="http://www.w3.org/2000/svg" xmlns:xlink="http://www.w3.org/1999/xlink" contentScriptType="application/ecmascript" contentStyleType="text/css" height="298px" preserveAspectRatio="none" style="width:214px;height:298px;" version="1.1" viewBox="0 0 214 298" width="214px" zoomAndPan="magnify"><defs><filter height="300%" id="f1bv6ssz69gjzr" width="300%" x="-1" y="-1"><feGaussianBlur result="blurOut" stdDeviation="2.0"/><feColorMatrix in="blurOut" result="blurOut2" type="matrix" values="0 0 0 0 0 0 0 0 0 0 0 0 0 0 0 0 0 0 .4 0"/><feOffset dx="4.0" dy="4.0" in="blurOut2" result="blurOut3"/><feBlend in="SourceGraphic" in2="blurOut3" mode="normal"/></filter></defs><g><!--MD5=[02e4b9b7573f1156f41e60aa5b4e25a4]
class Company--><rect codeLine="2" fill="#FEFECE" filter="url(#f1bv6ssz69gjzr)" height="61.8359" id="Company" style="stroke:#A80036;stroke-width:1.5;" width="112" x="47.5" y="223"/><ellipse cx="74.65" cy="239" fill="#ADD1B2" rx="11" ry="11" style="stroke:#A80036;stroke-width:1.0;"/><path d="M76.65,235.5 Q76.8531,235 77.0875,234.75 Q77.3219,234.5 77.5875,234.5 Q78.0563,234.5 78.3531,234.7813 Q78.65,235.0625 78.65,235.7188 L78.65,237.2813 Q78.65,237.9375 78.3688,238.2188 Q78.0875,238.5 77.65,238.5 Q77.2594,238.5 77.0094,238.3281 Q76.7594,238.1563 76.65,237.7031 Q76.6031,237.3906 76.4313,237.2188 Q76.1188,236.8906 75.5563,236.7031 Q74.9938,236.5 74.4313,236.5 Q73.7281,236.5 73.1344,236.7813 Q72.5563,237.0625 72.1031,237.6875 Q71.65,238.3125 71.65,239.1719 L71.65,240.0938 Q71.65,241.125 72.4938,241.8125 Q73.3375,242.5 74.8375,242.5 Q75.7281,242.5 76.3531,242.2969 Q76.7125,242.1875 77.1188,241.8281 Q77.3844,241.625 77.525,241.5625 Q77.6656,241.5 77.8375,241.5 Q78.1656,241.5 78.4,241.7656 Q78.65,242.0156 78.65,242.375 Q78.65,242.7188 78.3063,243.125 Q77.8063,243.7188 77.0094,244.0469 Q75.9625,244.5 74.6813,244.5 Q73.1813,244.5 71.9781,243.9063 Q71.0094,243.4375 70.3219,242.4219 Q69.65,241.4063 69.65,240.2031 L69.65,239.1094 Q69.65,237.8594 70.2438,236.7656 Q70.8531,235.6719 71.9,235.0938 Q72.9625,234.5 74.15,234.5 Q74.8688,234.5 75.4938,234.75 Q76.1188,235 76.65,235.5 Z " fill="#000000"/><text fill="#000000" font-family="sans-serif" font-size="12" lengthAdjust="spacing" textLength="53" x="91.35" y="243.9102">Company</text><line style="stroke:#A80036;stroke-width:1.5;" x1="48.5" x2="158.5" y1="255" y2="255"/><rect fill="none" height="6" style="stroke:#C82930;stroke-width:1.0;" width="6" x="55.5" y="263"/><text fill="#000000" font-family="sans-serif" font-size="11" lengthAdjust="spacing" textLength="86" x="67.5" y="270.4189">String designation</text><line style="stroke:#A80036;stroke-width:1.5;" x1="48.5" x2="158.5" y1="276.8359" y2="276.8359"/><!--MD5=[7662c5fd155993a14047774d1377f6a6]
class RecordTestResultsUI--><rect codeLine="7" fill="#FEFECE" filter="url(#f1bv6ssz69gjzr)" height="48" id="RecordTestResultsUI" style="stroke:#A80036;stroke-width:1.5;" width="151" x="28" y="7"/><ellipse cx="43" cy="23" fill="#ADD1B2" rx="11" ry="11" style="stroke:#A80036;stroke-width:1.0;"/><path d="M45,19.5 Q45.2031,19 45.4375,18.75 Q45.6719,18.5 45.9375,18.5 Q46.4063,18.5 46.7031,18.7813 Q47,19.0625 47,19.7188 L47,21.2813 Q47,21.9375 46.7188,22.2188 Q46.4375,22.5 46,22.5 Q45.6094,22.5 45.3594,22.3281 Q45.1094,22.1563 45,21.7031 Q44.9531,21.3906 44.7813,21.2188 Q44.4688,20.8906 43.9063,20.7031 Q43.3438,20.5 42.7813,20.5 Q42.0781,20.5 41.4844,20.7813 Q40.9063,21.0625 40.4531,21.6875 Q40,22.3125 40,23.1719 L40,24.0938 Q40,25.125 40.8438,25.8125 Q41.6875,26.5 43.1875,26.5 Q44.0781,26.5 44.7031,26.2969 Q45.0625,26.1875 45.4688,25.8281 Q45.7344,25.625 45.875,25.5625 Q46.0156,25.5 46.1875,25.5 Q46.5156,25.5 46.75,25.7656 Q47,26.0156 47,26.375 Q47,26.7188 46.6563,27.125 Q46.1563,27.7188 45.3594,28.0469 Q44.3125,28.5 43.0313,28.5 Q41.5313,28.5 40.3281,27.9063 Q39.3594,27.4375 38.6719,26.4219 Q38,25.4063 38,24.2031 L38,23.1094 Q38,21.8594 38.5938,20.7656 Q39.2031,19.6719 40.25,19.0938 Q41.3125,18.5 42.5,18.5 Q43.2188,18.5 43.8438,18.75 Q44.4688,19 45,19.5 Z " fill="#000000"/><text fill="#000000" font-family="sans-serif" font-size="12" lengthAdjust="spacing" textLength="119" x="57" y="27.9102">RecordTestResultsUI</text><line style="stroke:#A80036;stroke-width:1.5;" x1="29" x2="178" y1="39" y2="39"/><line style="stroke:#A80036;stroke-width:1.5;" x1="29" x2="178" y1="47" y2="47"/><!--MD5=[d20e7d866bec050b13344ce20ec82e27]
class RecordTestResultsController--><rect codeLine="11" fill="#FEFECE" filter="url(#f1bv6ssz69gjzr)" height="48" id="RecordTestResultsController" style="stroke:#A80036;stroke-width:1.5;" width="193" x="7" y="115"/><ellipse cx="22" cy="131" fill="#ADD1B2" rx="11" ry="11" style="stroke:#A80036;stroke-width:1.0;"/><path d="M24,127.5 Q24.2031,127 24.4375,126.75 Q24.6719,126.5 24.9375,126.5 Q25.4063,126.5 25.7031,126.7813 Q26,127.0625 26,127.7188 L26,129.2813 Q26,129.9375 25.7188,130.2188 Q25.4375,130.5 25,130.5 Q24.6094,130.5 24.3594,130.3281 Q24.1094,130.1563 24,129.7031 Q23.9531,129.3906 23.7813,129.2188 Q23.4688,128.8906 22.9063,128.7031 Q22.3438,128.5 21.7813,128.5 Q21.0781,128.5 20.4844,128.7813 Q19.9063,129.0625 19.4531,129.6875 Q19,130.3125 19,131.1719 L19,132.0938 Q19,133.125 19.8438,133.8125 Q20.6875,134.5 22.1875,134.5 Q23.0781,134.5 23.7031,134.2969 Q24.0625,134.1875 24.4688,133.8281 Q24.7344,133.625 24.875,133.5625 Q25.0156,133.5 25.1875,133.5 Q25.5156,133.5 25.75,133.7656 Q26,134.0156 26,134.375 Q26,134.7188 25.6563,135.125 Q25.1563,135.7188 24.3594,136.0469 Q23.3125,136.5 22.0313,136.5 Q20.5313,136.5 19.3281,135.9063 Q18.3594,135.4375 17.6719,134.4219 Q17,133.4063 17,132.2031 L17,131.1094 Q17,129.8594 17.5938,128.7656 Q18.2031,127.6719 19.25,127.0938 Q20.3125,126.5 21.5,126.5 Q22.2188,126.5 22.8438,126.75 Q23.4688,127 24,127.5 Z " fill="#000000"/><text fill="#000000" font-family="sans-serif" font-size="12" lengthAdjust="spacing" textLength="161" x="36" y="135.9102">RecordTestResultsController</text><line style="stroke:#A80036;stroke-width:1.5;" x1="8" x2="199" y1="147" y2="147"/><line style="stroke:#A80036;stroke-width:1.5;" x1="8" x2="199" y1="155" y2="155"/><!--MD5=[918ff0bafb324676d34f49d1c4f6d382]
link RecordTestResultsUI to RecordTestResultsController--><path codeLine="15" d="M103.5,55 C103.5,71 103.5,92.45 103.5,109.53 " fill="none" id="RecordTestResultsUI-to-RecordTestResultsController" style="stroke:#A80036;stroke-width:1.0;stroke-dasharray:7.0,7.0;"/><polygon fill="#A80036" points="103.5,114.68,107.5,105.68,103.5,109.68,99.5,105.68,103.5,114.68" style="stroke:#A80036;stroke-width:1.0;"/><!--MD5=[bbdbfbd552a64162bc88e159246271c7]
link RecordTestResultsController to Company--><path codeLine="16" d="M103.5,163.14 C103.5,178.71 103.5,199.53 103.5,217.22 " fill="none" id="RecordTestResultsController-to-Company" style="stroke:#A80036;stroke-width:1.0;stroke-dasharray:7.0,7.0;"/><polygon fill="#A80036" points="103.5,222.6,107.5,213.6,103.5,217.6,99.5,213.6,103.5,222.6" style="stroke:#A80036;stroke-width:1.0;"/><!--MD5=[749b5dbe7f2d8a1d7a5c3e3e1030486f]
@startuml

class Company{
-String designation

}

class RecordTestResultsUI{

}

class RecordTestResultsController{

}

RecordTestResultsUI ..> RecordTestResultsController
RecordTestResultsController ..> Company

@enduml

PlantUML version 1.2021.00(Sun Jan 10 10:25:05 GMT 2021)
(GPL source distribution)
Java Runtime: OpenJDK Runtime Environment
JVM: OpenJDK 64-Bit Server VM
Default Encoding: Cp1252
Language: pt
Country: PT
--></g></svg>