<?xml version="1.0" encoding="UTF-8" standalone="no"?><svg xmlns="http://www.w3.org/2000/svg" xmlns:xlink="http://www.w3.org/1999/xlink" contentScriptType="application/ecmascript" contentStyleType="text/css" height="474px" preserveAspectRatio="none" style="width:292px;height:474px;" version="1.1" viewBox="0 0 292 474" width="292.2px" zoomAndPan="magnify"><defs><filter height="300%" id="f1hu5pcp224rg4" width="300%" x="-1" y="-1"><feGaussianBlur result="blurOut" stdDeviation="1.2"/><feColorMatrix in="blurOut" result="blurOut2" type="matrix" values="0 0 0 0 0 0 0 0 0 0 0 0 0 0 0 0 0 0 .4 0"/><feOffset dx="2.4" dy="2.4" in="blurOut2" result="blurOut3"/><feBlend in="SourceGraphic" in2="blurOut3" mode="normal"/></filter></defs><g><!--MD5=[02e4b9b7573f1156f41e60aa5b4e25a4]
class Company--><rect codeLine="5" fill="#FEFECE" filter="url(#f1hu5pcp224rg4)" height="32.3016" id="Company" style="stroke:#A80036;stroke-width:0.8999999999999999;" width="51" x="81.9" y="4.2"/><ellipse cx="90.9" cy="13.8" fill="#ADD1B2" rx="6.6" ry="6.6" style="stroke:#A80036;stroke-width:0.6;"/><path d="M92.1,11.7 Q92.2219,11.4 92.3625,11.25 Q92.5031,11.1 92.6625,11.1 Q92.9438,11.1 93.1219,11.2687 Q93.3,11.4375 93.3,11.8312 L93.3,12.7687 Q93.3,13.1625 93.1313,13.3312 Q92.9625,13.5 92.7,13.5 Q92.4656,13.5 92.3156,13.3969 Q92.1656,13.2938 92.1,13.0219 Q92.0719,12.8344 91.9688,12.7313 Q91.7813,12.5344 91.4438,12.4219 Q91.1063,12.3 90.7688,12.3 Q90.3469,12.3 89.9906,12.4688 Q89.6438,12.6375 89.3719,13.0125 Q89.1,13.3875 89.1,13.9031 L89.1,14.4562 Q89.1,15.075 89.6063,15.4875 Q90.1125,15.9 91.0125,15.9 Q91.5469,15.9 91.9219,15.7781 Q92.1375,15.7125 92.3813,15.4969 Q92.5406,15.375 92.625,15.3375 Q92.7094,15.3 92.8125,15.3 Q93.0094,15.3 93.15,15.4594 Q93.3,15.6094 93.3,15.825 Q93.3,16.0313 93.0938,16.275 Q92.7938,16.6312 92.3156,16.8281 Q91.6875,17.1 90.9188,17.1 Q90.0188,17.1 89.2969,16.7438 Q88.7156,16.4625 88.3031,15.8531 Q87.9,15.2437 87.9,14.5219 L87.9,13.8656 Q87.9,13.1156 88.2563,12.4594 Q88.6219,11.8031 89.25,11.4562 Q89.8875,11.1 90.6,11.1 Q91.0313,11.1 91.4063,11.25 Q91.7813,11.4 92.1,11.7 Z " fill="#000000"/><text fill="#000000" font-family="sans-serif" font-size="7.2" lengthAdjust="spacing" textLength="31.8" x="99.3" y="16.7461">Company</text><line style="stroke:#A80036;stroke-width:0.8999999999999999;" x1="82.5" x2="132.3" y1="23.4" y2="23.4"/><text fill="#000000" font-family="sans-serif" font-size="6.6" lengthAdjust="spacing" textLength="35.4" x="85.5" y="32.6514">-designation</text><!--MD5=[df38be88ccee13e832d6fafd6288a4ca]
class Test--><rect codeLine="10" fill="#FEFECE" filter="url(#f1hu5pcp224rg4)" height="48.9047" id="Test" style="stroke:#A80036;stroke-width:0.8999999999999999;" width="45.6" x="4.2" y="83.4"/><ellipse cx="18.6" cy="93" fill="#ADD1B2" rx="6.6" ry="6.6" style="stroke:#A80036;stroke-width:0.6;"/><path d="M19.8,90.9 Q19.9219,90.6 20.0625,90.45 Q20.2031,90.3 20.3625,90.3 Q20.6438,90.3 20.8219,90.4688 Q21,90.6375 21,91.0313 L21,91.9688 Q21,92.3625 20.8313,92.5313 Q20.6625,92.7 20.4,92.7 Q20.1656,92.7 20.0156,92.5969 Q19.8656,92.4937 19.8,92.2219 Q19.7719,92.0344 19.6688,91.9312 Q19.4813,91.7344 19.1438,91.6219 Q18.8063,91.5 18.4688,91.5 Q18.0469,91.5 17.6906,91.6688 Q17.3438,91.8375 17.0719,92.2125 Q16.8,92.5875 16.8,93.1031 L16.8,93.6563 Q16.8,94.275 17.3063,94.6875 Q17.8125,95.1 18.7125,95.1 Q19.2469,95.1 19.6219,94.9781 Q19.8375,94.9125 20.0813,94.6969 Q20.2406,94.575 20.325,94.5375 Q20.4094,94.5 20.5125,94.5 Q20.7094,94.5 20.85,94.6594 Q21,94.8094 21,95.025 Q21,95.2313 20.7938,95.475 Q20.4938,95.8313 20.0156,96.0281 Q19.3875,96.3 18.6188,96.3 Q17.7188,96.3 16.9969,95.9438 Q16.4156,95.6625 16.0031,95.0531 Q15.6,94.4438 15.6,93.7219 L15.6,93.0656 Q15.6,92.3156 15.9562,91.6594 Q16.3219,91.0031 16.95,90.6563 Q17.5875,90.3 18.3,90.3 Q18.7313,90.3 19.1063,90.45 Q19.4813,90.6 19.8,90.9 Z " fill="#000000"/><text fill="#000000" font-family="sans-serif" font-size="7.2" lengthAdjust="spacing" textLength="14.4" x="28.2" y="95.9461">Test</text><line style="stroke:#A80036;stroke-width:0.8999999999999999;" x1="4.8" x2="49.2" y1="102.6" y2="102.6"/><text fill="#000000" font-family="sans-serif" font-size="6.6" lengthAdjust="spacing" textLength="38.4" x="7.8" y="111.8514">-internalCode</text><text fill="#000000" font-family="sans-serif" font-size="6.6" lengthAdjust="spacing" textLength="28.2" x="7.8" y="120.1529">-nhsCode</text><text fill="#000000" font-family="sans-serif" font-size="6.6" lengthAdjust="spacing" textLength="34.2" x="7.8" y="128.4545">-description</text><!--MD5=[aeb3272166074d8737a70b61b1e71682]
class TestType--><rect codeLine="16" fill="#FEFECE" filter="url(#f1hu5pcp224rg4)" height="48.9047" id="TestType" style="stroke:#A80036;stroke-width:0.8999999999999999;" width="57.6" x="167.4" y="83.4"/><ellipse cx="180.18" cy="93" fill="#ADD1B2" rx="6.6" ry="6.6" style="stroke:#A80036;stroke-width:0.6;"/><path d="M181.38,90.9 Q181.5019,90.6 181.6425,90.45 Q181.7831,90.3 181.9425,90.3 Q182.2238,90.3 182.4019,90.4688 Q182.58,90.6375 182.58,91.0313 L182.58,91.9688 Q182.58,92.3625 182.4113,92.5313 Q182.2425,92.7 181.98,92.7 Q181.7456,92.7 181.5956,92.5969 Q181.4456,92.4937 181.38,92.2219 Q181.3519,92.0344 181.2488,91.9312 Q181.0613,91.7344 180.7238,91.6219 Q180.3863,91.5 180.0488,91.5 Q179.6269,91.5 179.2706,91.6688 Q178.9238,91.8375 178.6519,92.2125 Q178.38,92.5875 178.38,93.1031 L178.38,93.6563 Q178.38,94.275 178.8863,94.6875 Q179.3925,95.1 180.2925,95.1 Q180.8269,95.1 181.2019,94.9781 Q181.4175,94.9125 181.6613,94.6969 Q181.8206,94.575 181.905,94.5375 Q181.9894,94.5 182.0925,94.5 Q182.2894,94.5 182.43,94.6594 Q182.58,94.8094 182.58,95.025 Q182.58,95.2313 182.3738,95.475 Q182.0738,95.8313 181.5956,96.0281 Q180.9675,96.3 180.1988,96.3 Q179.2988,96.3 178.5769,95.9438 Q177.9956,95.6625 177.5831,95.0531 Q177.18,94.4438 177.18,93.7219 L177.18,93.0656 Q177.18,92.3156 177.5363,91.6594 Q177.9019,91.0031 178.53,90.6563 Q179.1675,90.3 179.88,90.3 Q180.3113,90.3 180.6863,90.45 Q181.0613,90.6 181.38,90.9 Z " fill="#000000"/><text fill="#000000" font-family="sans-serif" font-size="7.2" lengthAdjust="spacing" textLength="30" x="189.42" y="95.9461">TestType</text><line style="stroke:#A80036;stroke-width:0.8999999999999999;" x1="168" x2="224.4" y1="102.6" y2="102.6"/><text fill="#000000" font-family="sans-serif" font-size="6.6" lengthAdjust="spacing" textLength="16.8" x="171" y="111.8514">-code</text><text fill="#000000" font-family="sans-serif" font-size="6.6" lengthAdjust="spacing" textLength="34.2" x="171" y="120.1529">-description</text><text fill="#000000" font-family="sans-serif" font-size="6.6" lengthAdjust="spacing" textLength="50.4" x="171" y="128.4545">-collectingMethod</text><!--MD5=[8f188b89eff49accb0f38c057b38a9f2]
class ExternalModule--><rect codeLine="22" fill="#FEFECE" filter="url(#f1hu5pcp224rg4)" height="24" id="ExternalModule" style="stroke:#A80036;stroke-width:0.8999999999999999;" width="69.6" x="208.2" y="208.2"/><ellipse cx="217.2" cy="217.8" fill="#ADD1B2" rx="6.6" ry="6.6" style="stroke:#A80036;stroke-width:0.6;"/><path d="M218.4,215.7 Q218.5219,215.4 218.6625,215.25 Q218.8031,215.1 218.9625,215.1 Q219.2438,215.1 219.4219,215.2687 Q219.6,215.4375 219.6,215.8312 L219.6,216.7687 Q219.6,217.1625 219.4313,217.3312 Q219.2625,217.5 219,217.5 Q218.7656,217.5 218.6156,217.3969 Q218.4656,217.2938 218.4,217.0219 Q218.3719,216.8344 218.2687,216.7313 Q218.0812,216.5344 217.7438,216.4219 Q217.4063,216.3 217.0688,216.3 Q216.6469,216.3 216.2906,216.4688 Q215.9438,216.6375 215.6719,217.0125 Q215.4,217.3875 215.4,217.9031 L215.4,218.4562 Q215.4,219.075 215.9063,219.4875 Q216.4125,219.9 217.3125,219.9 Q217.8469,219.9 218.2219,219.7781 Q218.4375,219.7125 218.6813,219.4969 Q218.8406,219.375 218.925,219.3375 Q219.0094,219.3 219.1125,219.3 Q219.3094,219.3 219.45,219.4594 Q219.6,219.6094 219.6,219.825 Q219.6,220.0313 219.3937,220.275 Q219.0938,220.6313 218.6156,220.8281 Q217.9875,221.1 217.2188,221.1 Q216.3188,221.1 215.5969,220.7438 Q215.0156,220.4625 214.6031,219.8531 Q214.2,219.2438 214.2,218.5219 L214.2,217.8656 Q214.2,217.1156 214.5563,216.4594 Q214.9219,215.8031 215.55,215.4562 Q216.1875,215.1 216.9,215.1 Q217.3312,215.1 217.7062,215.25 Q218.0812,215.4 218.4,215.7 Z " fill="#000000"/><text fill="#000000" font-family="sans-serif" font-size="7.2" lengthAdjust="spacing" textLength="50.4" x="225.6" y="220.7461">ExternalModule</text><line style="stroke:#A80036;stroke-width:0.8999999999999999;" x1="208.8" x2="277.2" y1="227.4" y2="227.4"/><!--MD5=[994c02a919d6e46d631536f75464fa30]
class ReferenceValues--><rect codeLine="25" fill="#FEFECE" filter="url(#f1hu5pcp224rg4)" height="24" id="ReferenceValues" style="stroke:#A80036;stroke-width:0.8999999999999999;" width="76.2" x="165.3" y="429.6"/><ellipse cx="174.3" cy="439.2" fill="#ADD1B2" rx="6.6" ry="6.6" style="stroke:#A80036;stroke-width:0.6;"/><path d="M175.5,437.1 Q175.6219,436.8 175.7625,436.65 Q175.9031,436.5 176.0625,436.5 Q176.3438,436.5 176.5219,436.6688 Q176.7,436.8375 176.7,437.2313 L176.7,438.1688 Q176.7,438.5625 176.5313,438.7313 Q176.3625,438.9 176.1,438.9 Q175.8656,438.9 175.7156,438.7969 Q175.5656,438.6937 175.5,438.4219 Q175.4719,438.2344 175.3688,438.1312 Q175.1813,437.9344 174.8438,437.8219 Q174.5063,437.7 174.1688,437.7 Q173.7469,437.7 173.3906,437.8688 Q173.0438,438.0375 172.7719,438.4125 Q172.5,438.7875 172.5,439.3031 L172.5,439.8563 Q172.5,440.475 173.0063,440.8875 Q173.5125,441.3 174.4125,441.3 Q174.9469,441.3 175.3219,441.1781 Q175.5375,441.1125 175.7813,440.8969 Q175.9406,440.775 176.025,440.7375 Q176.1094,440.7 176.2125,440.7 Q176.4094,440.7 176.55,440.8594 Q176.7,441.0094 176.7,441.225 Q176.7,441.4313 176.4938,441.675 Q176.1938,442.0313 175.7156,442.2281 Q175.0875,442.5 174.3188,442.5 Q173.4188,442.5 172.6969,442.1438 Q172.1156,441.8625 171.7031,441.2531 Q171.3,440.6438 171.3,439.9219 L171.3,439.2656 Q171.3,438.5156 171.6563,437.8594 Q172.0219,437.2031 172.65,436.8563 Q173.2875,436.5 174,436.5 Q174.4313,436.5 174.8063,436.65 Q175.1813,436.8 175.5,437.1 Z " fill="#000000"/><text fill="#000000" font-family="sans-serif" font-size="7.2" lengthAdjust="spacing" textLength="57" x="182.7" y="442.1461">ReferenceValues</text><line style="stroke:#A80036;stroke-width:0.8999999999999999;" x1="165.9" x2="240.9" y1="448.8" y2="448.8"/><!--MD5=[1f6362a5c8f21d8d6a0fce68f3a92a4e]
class Parameter--><rect codeLine="28" fill="#FEFECE" filter="url(#f1hu5pcp224rg4)" height="48.9047" id="Parameter" style="stroke:#A80036;stroke-width:0.8999999999999999;" width="54" x="73.8" y="417"/><ellipse cx="82.8" cy="426.6" fill="#ADD1B2" rx="6.6" ry="6.6" style="stroke:#A80036;stroke-width:0.6;"/><path d="M84,424.5 Q84.1219,424.2 84.2625,424.05 Q84.4031,423.9 84.5625,423.9 Q84.8438,423.9 85.0219,424.0687 Q85.2,424.2375 85.2,424.6312 L85.2,425.5687 Q85.2,425.9625 85.0313,426.1312 Q84.8625,426.3 84.6,426.3 Q84.3656,426.3 84.2156,426.1969 Q84.0656,426.0938 84,425.8219 Q83.9719,425.6344 83.8687,425.5313 Q83.6812,425.3344 83.3438,425.2219 Q83.0063,425.1 82.6688,425.1 Q82.2469,425.1 81.8906,425.2688 Q81.5438,425.4375 81.2719,425.8125 Q81,426.1875 81,426.7031 L81,427.2562 Q81,427.875 81.5063,428.2875 Q82.0125,428.7 82.9125,428.7 Q83.4469,428.7 83.8219,428.5781 Q84.0375,428.5125 84.2813,428.2969 Q84.4406,428.175 84.525,428.1375 Q84.6094,428.1 84.7125,428.1 Q84.9094,428.1 85.05,428.2594 Q85.2,428.4094 85.2,428.625 Q85.2,428.8313 84.9937,429.075 Q84.6938,429.4313 84.2156,429.6281 Q83.5875,429.9 82.8188,429.9 Q81.9188,429.9 81.1969,429.5438 Q80.6156,429.2625 80.2031,428.6531 Q79.8,428.0438 79.8,427.3219 L79.8,426.6656 Q79.8,425.9156 80.1563,425.2594 Q80.5219,424.6031 81.15,424.2562 Q81.7875,423.9 82.5,423.9 Q82.9312,423.9 83.3062,424.05 Q83.6812,424.2 84,424.5 Z " fill="#000000"/><text fill="#000000" font-family="sans-serif" font-size="7.2" lengthAdjust="spacing" textLength="34.8" x="91.2" y="429.5461">Parameter</text><line style="stroke:#A80036;stroke-width:0.8999999999999999;" x1="74.4" x2="127.2" y1="436.2" y2="436.2"/><text fill="#000000" font-family="sans-serif" font-size="6.6" lengthAdjust="spacing" textLength="16.8" x="77.4" y="445.4514">-code</text><text fill="#000000" font-family="sans-serif" font-size="6.6" lengthAdjust="spacing" textLength="35.4" x="77.4" y="453.7529">-designation</text><text fill="#000000" font-family="sans-serif" font-size="6.6" lengthAdjust="spacing" textLength="34.2" x="77.4" y="462.0545">-description</text><!--MD5=[4e608140b854dae633589343bce77383]
class TestParameterResult--><rect codeLine="34" fill="#FEFECE" filter="url(#f1hu5pcp224rg4)" height="48.9047" id="TestParameterResult" style="stroke:#A80036;stroke-width:0.8999999999999999;" width="90" x="139.2" y="321"/><ellipse cx="148.2" cy="330.6" fill="#ADD1B2" rx="6.6" ry="6.6" style="stroke:#A80036;stroke-width:0.6;"/><path d="M149.4,328.5 Q149.5219,328.2 149.6625,328.05 Q149.8031,327.9 149.9625,327.9 Q150.2438,327.9 150.4219,328.0687 Q150.6,328.2375 150.6,328.6312 L150.6,329.5687 Q150.6,329.9625 150.4313,330.1312 Q150.2625,330.3 150,330.3 Q149.7656,330.3 149.6156,330.1969 Q149.4656,330.0938 149.4,329.8219 Q149.3719,329.6344 149.2687,329.5313 Q149.0812,329.3344 148.7438,329.2219 Q148.4063,329.1 148.0688,329.1 Q147.6469,329.1 147.2906,329.2688 Q146.9438,329.4375 146.6719,329.8125 Q146.4,330.1875 146.4,330.7031 L146.4,331.2562 Q146.4,331.875 146.9063,332.2875 Q147.4125,332.7 148.3125,332.7 Q148.8469,332.7 149.2219,332.5781 Q149.4375,332.5125 149.6813,332.2969 Q149.8406,332.175 149.925,332.1375 Q150.0094,332.1 150.1125,332.1 Q150.3094,332.1 150.45,332.2594 Q150.6,332.4094 150.6,332.625 Q150.6,332.8313 150.3937,333.075 Q150.0938,333.4313 149.6156,333.6281 Q148.9875,333.9 148.2188,333.9 Q147.3188,333.9 146.5969,333.5438 Q146.0156,333.2625 145.6031,332.6531 Q145.2,332.0438 145.2,331.3219 L145.2,330.6656 Q145.2,329.9156 145.5563,329.2594 Q145.9219,328.6031 146.55,328.2562 Q147.1875,327.9 147.9,327.9 Q148.3312,327.9 148.7062,328.05 Q149.0812,328.2 149.4,328.5 Z " fill="#000000"/><text fill="#000000" font-family="sans-serif" font-size="7.2" lengthAdjust="spacing" textLength="70.8" x="156.6" y="333.5461">TestParameterResult</text><line style="stroke:#A80036;stroke-width:0.8999999999999999;" x1="139.8" x2="228.6" y1="340.2" y2="340.2"/><text fill="#000000" font-family="sans-serif" font-size="6.6" lengthAdjust="spacing" textLength="31.2" x="142.8" y="349.4514">-createdAt</text><text fill="#000000" font-family="sans-serif" font-size="6.6" lengthAdjust="spacing" textLength="48.6" x="142.8" y="357.7529">-parameterValue</text><text fill="#000000" font-family="sans-serif" font-size="6.6" lengthAdjust="spacing" textLength="19.8" x="142.8" y="366.0545">-metric</text><!--MD5=[0f07739f46effee96e095e9c408da841]
class TestParameter--><rect codeLine="40" fill="#FEFECE" filter="url(#f1hu5pcp224rg4)" height="24" id="TestParameter" style="stroke:#A80036;stroke-width:0.8999999999999999;" width="68.4" x="144.6" y="250.2"/><ellipse cx="153.6" cy="259.8" fill="#ADD1B2" rx="6.6" ry="6.6" style="stroke:#A80036;stroke-width:0.6;"/><path d="M154.8,257.7 Q154.9219,257.4 155.0625,257.25 Q155.2031,257.1 155.3625,257.1 Q155.6437,257.1 155.8219,257.2688 Q156,257.4375 156,257.8313 L156,258.7688 Q156,259.1625 155.8312,259.3313 Q155.6625,259.5 155.4,259.5 Q155.1656,259.5 155.0156,259.3969 Q154.8656,259.2938 154.8,259.0219 Q154.7719,258.8344 154.6688,258.7313 Q154.4813,258.5344 154.1437,258.4219 Q153.8063,258.3 153.4688,258.3 Q153.0469,258.3 152.6906,258.4688 Q152.3438,258.6375 152.0719,259.0125 Q151.8,259.3875 151.8,259.9031 L151.8,260.4563 Q151.8,261.075 152.3063,261.4875 Q152.8125,261.9 153.7125,261.9 Q154.2469,261.9 154.6219,261.7781 Q154.8375,261.7125 155.0812,261.4969 Q155.2406,261.375 155.325,261.3375 Q155.4094,261.3 155.5125,261.3 Q155.7094,261.3 155.85,261.4594 Q156,261.6094 156,261.825 Q156,262.0313 155.7938,262.275 Q155.4938,262.6312 155.0156,262.8281 Q154.3875,263.1 153.6188,263.1 Q152.7188,263.1 151.9969,262.7438 Q151.4156,262.4625 151.0031,261.8531 Q150.6,261.2438 150.6,260.5219 L150.6,259.8656 Q150.6,259.1156 150.9562,258.4594 Q151.3219,257.8031 151.95,257.4563 Q152.5875,257.1 153.3,257.1 Q153.7313,257.1 154.1063,257.25 Q154.4813,257.4 154.8,257.7 Z " fill="#000000"/><text fill="#000000" font-family="sans-serif" font-size="7.2" lengthAdjust="spacing" textLength="49.2" x="162" y="262.7461">TestParameter</text><line style="stroke:#A80036;stroke-width:0.8999999999999999;" x1="145.2" x2="212.4" y1="269.4" y2="269.4"/><ellipse cx="64.8" cy="262.2" fill="#000000" rx="1.2" ry="1.2" style="stroke:none;stroke-width:0.6;"/><!--MD5=[7e4bc624457760b649895ff2ead938fa]
link Company to Test--><path codeLine="44" d="M81.852,32.778 C71.856,38.328 60.876,45.696 52.8,54.6 C45.33,62.838 39.54,73.632 35.358,83.31 " fill="none" id="Company-Test" style="stroke:#A80036;stroke-width:0.6;"/><polygon fill="#000000" points="53.7687,62.3132,58.741,59.5134,56.1457,57.1255,53.7687,62.3132" style="stroke:#000000;stroke-width:0.6;"/><text fill="#000000" font-family="sans-serif" font-size="7.8" lengthAdjust="spacing" textLength="30" x="61.2" y="63.2971">performs</text><text fill="#000000" font-family="sans-serif" font-size="7.8" lengthAdjust="spacing" textLength="4.2" x="72.9" y="32.6041">1</text><text fill="#000000" font-family="sans-serif" font-size="7.8" lengthAdjust="spacing" textLength="3" x="33.4939" y="76.9647">*</text><!--MD5=[742a261f27a3dcd734c626287d811acd]
link Company to TestType--><path codeLine="45" d="M123.48,36.648 C136.878,49.68 156.174,68.454 171.522,83.388 " fill="none" id="Company-TestType" style="stroke:#A80036;stroke-width:0.6;"/><polygon fill="#000000" points="156.9503,62.1975,154.29,57.1491,151.8308,59.6769,156.9503,62.1975" style="stroke:#000000;stroke-width:0.6;"/><text fill="#000000" font-family="sans-serif" font-size="7.8" lengthAdjust="spacing" textLength="31.8" x="160.2" y="63.2971">conducts</text><text fill="#000000" font-family="sans-serif" font-size="7.8" lengthAdjust="spacing" textLength="4.2" x="122.3381" y="49.3832">1</text><text fill="#000000" font-family="sans-serif" font-size="7.8" lengthAdjust="spacing" textLength="3" x="164.0227" y="76.8734">*</text><!--MD5=[12d76240d3c3c66074d4ec2ea8bf469c]
link Company to Parameter--><path codeLine="46" d="M107.4,36.606 C107.4,53.91 107.4,82.65 107.4,107.4 C107.4,107.4 107.4,107.4 107.4,346.2 C107.4,370.29 105.252,397.734 103.41,416.874 " fill="none" id="Company-Parameter" style="stroke:#A80036;stroke-width:0.6;"/><polygon fill="#000000" points="110.3685,223.3053,112.1887,217.8971,108.6622,217.8601,110.3685,223.3053" style="stroke:#000000;stroke-width:0.6;"/><text fill="#000000" font-family="sans-serif" font-size="7.8" lengthAdjust="spacing" textLength="70.8" x="115.8" y="223.4971">capable of analysing</text><text fill="#000000" font-family="sans-serif" font-size="7.8" lengthAdjust="spacing" textLength="4.2" x="102.7406" y="49.332">1</text><text fill="#000000" font-family="sans-serif" font-size="7.8" lengthAdjust="spacing" textLength="3" x="100.5938" y="410.5228">*</text><!--MD5=[71e6920dcc27afae8f25537cd5357b5f]
link TestType to ExternalModule--><path codeLine="48" d="M206.352,132.684 C216.192,156.024 230.694,190.41 238.158,208.122 " fill="none" id="TestType-ExternalModule" style="stroke:#A80036;stroke-width:0.6;"/><polygon fill="#000000" points="221.3655,158.8698,220.8819,153.184,217.6323,154.5541,221.3655,158.8698" style="stroke:#000000;stroke-width:0.6;"/><text fill="#000000" font-family="sans-serif" font-size="7.8" lengthAdjust="spacing" textLength="28.8" x="225.6" y="159.2971">resort to</text><text fill="#000000" font-family="sans-serif" font-size="7.8" lengthAdjust="spacing" textLength="3" x="204.6228" y="145.1487">*</text><text fill="#000000" font-family="sans-serif" font-size="7.8" lengthAdjust="spacing" textLength="4.2" x="231.9188" y="201.6921">1</text><!--MD5=[1e014eb69070571625337ce9aa0fb0d5]
link ExternalModule to ReferenceValues--><path codeLine="49" d="M245.112,232.302 C249.936,261.648 259.458,341.076 233.4,399 C228.366,410.196 220.128,421.434 213.558,429.468 " fill="none" id="ExternalModule-ReferenceValues" style="stroke:#A80036;stroke-width:0.6;"/><polygon fill="#000000" points="253.3259,300.6678,255.9247,295.5876,252.4423,295.0303,253.3259,300.6678" style="stroke:#000000;stroke-width:0.6;"/><text fill="#000000" font-family="sans-serif" font-size="7.8" lengthAdjust="spacing" textLength="28.2" x="259.2" y="300.8971">provides</text><text fill="#000000" font-family="sans-serif" font-size="7.8" lengthAdjust="spacing" textLength="4.2" x="240.9154" y="245.1824">1</text><text fill="#000000" font-family="sans-serif" font-size="7.8" lengthAdjust="spacing" textLength="3" x="213.1013" y="423.0223">*</text><!--MD5=[34595777c7e7630030d5d927dd8458a1]
link TestParameterResult to ReferenceValues--><path codeLine="50" d="M189.096,370.368 C192.936,389.346 198.12,414.93 201.078,429.528 " fill="none" id="TestParameterResult-ReferenceValues" style="stroke:#A80036;stroke-width:0.6;"/><polygon fill="#000000" points="197.3955,396.6458,198.0465,390.9767,194.59,391.6768,197.3955,396.6458" style="stroke:#000000;stroke-width:0.6;"/><text fill="#000000" font-family="sans-serif" font-size="7.8" lengthAdjust="spacing" textLength="25.8" x="202.2" y="396.8971">records</text><text fill="#000000" font-family="sans-serif" font-size="7.8" lengthAdjust="spacing" textLength="4.2" x="185.3067" y="382.845">1</text><text fill="#000000" font-family="sans-serif" font-size="7.8" lengthAdjust="spacing" textLength="4.2" x="195.579" y="423.0999">1</text><!--MD5=[31e4818a6fced936ef6cfb11330cf224]
link Test to apoint3672--><path d="M19.14,132.618 C14.946,149.112 11.712,171.354 17.4,190.2 C27.54,223.818 59.268,256.134 64.164,260.976 " fill="none" id="Test-apoint3672" style="stroke:#A80036;stroke-width:0.6;"/><polygon fill="#000000" points="21.393,187.7364,21.2606,182.0316,17.9327,183.1989,21.393,187.7364" style="stroke:#000000;stroke-width:0.6;"/><text fill="#000000" font-family="sans-serif" font-size="7.8" lengthAdjust="spacing" textLength="65.4" x="25.8" y="188.0971">request analysis of</text><text fill="#000000" font-family="sans-serif" font-size="7.8" lengthAdjust="spacing" textLength="3" x="14.7067" y="145.2585">*</text><!--MD5=[3346ddd48cfcca4e2998ef3c63051688]
link apoint3672 to Parameter--><path d="M64.968,263.664 C66.606,272.208 80.112,342.336 91.8,399 C92.988,404.772 94.302,410.976 95.55,416.808 " fill="none" id="apoint3672-Parameter" style="stroke:#A80036;stroke-width:0.6;"/><text fill="#000000" font-family="sans-serif" font-size="7.8" lengthAdjust="spacing" textLength="12" x="81.6867" y="410.4458">1..*</text><!--MD5=[5c02e4e590bc5f865de25f30de3249de]
link apoint3672 to TestParameter--><path d="M66.138,262.2 C92.25,262.2 118.362,262.2 144.474,262.2 " fill="none" id="apoint3672-TestParameter" style="stroke:#A80036;stroke-width:0.6;stroke-dasharray:7.0,7.0;"/><!--MD5=[0e00e25ac6b8c14659aaff2cf7e5df08]
link TestParameter to TestParameterResult--><path codeLine="52" d="M179.55,274.23 C180.342,286.23 181.602,305.454 182.61,320.838 " fill="none" id="TestParameter-TestParameterResult" style="stroke:#A80036;stroke-width:0.6;"/><polygon fill="#000000" points="184.3965,300.699,185.8006,295.1681,182.2814,295.3992,184.3965,300.699" style="stroke:#000000;stroke-width:0.6;"/><text fill="#000000" font-family="sans-serif" font-size="7.8" lengthAdjust="spacing" textLength="29.4" x="189.6" y="300.8971">contains</text><text fill="#000000" font-family="sans-serif" font-size="7.8" lengthAdjust="spacing" textLength="4.2" x="174.9703" y="287.0902">1</text><text fill="#000000" font-family="sans-serif" font-size="7.8" lengthAdjust="spacing" textLength="13.2" x="168.0535" y="314.4808">0..1</text><!--MD5=[1ab37891a46c38a1bea3715512a91f1d]
@startuml
hide methods
'left to right direction
skinparam classAttributeIconSize 0

class Company{
-designation
}


class Test{
-internalCode
-nhsCode
-description
}

class TestType{
-code
-description
-collectingMethod
}

class ExternalModule{
}

class ReferenceValues{
}

class Parameter{
-code
-designation
-description
}

class TestParameterResult{
-createdAt
-parameterValue
-metric
}

class TestParameter{

}

Company "1" - - "*" Test : performs >
Company "1" - - "*" TestType : conducts >
Company "1" - - - - "*" Parameter : capable of analysing >
Test "*" - - - "1..*" Parameter : request analysis of >
TestType "*" - - "1" ExternalModule : resort to >
ExternalModule "1" - - - "*" ReferenceValues : provides >
TestParameterResult "1" - - "1" ReferenceValues : records >
(Test,Parameter) . TestParameter
TestParameter "1" - - "0..1" TestParameterResult : contains >

@enduml

@startuml
hide methods
skinparam classAttributeIconSize 0

class Company{
-designation
}


class Test{
-internalCode
-nhsCode
-description
}

class TestType{
-code
-description
-collectingMethod
}

class ExternalModule{
}

class ReferenceValues{
}

class Parameter{
-code
-designation
-description
}

class TestParameterResult{
-createdAt
-parameterValue
-metric
}

class TestParameter{

}

Company "1" - - "*" Test : performs >
Company "1" - - "*" TestType : conducts >
Company "1" - - - - "*" Parameter : capable of analysing >
Test "*" - - - "1..*" Parameter : request analysis of >
TestType "*" - - "1" ExternalModule : resort to >
ExternalModule "1" - - - "*" ReferenceValues : provides >
TestParameterResult "1" - - "1" ReferenceValues : records >
(Test,Parameter) . TestParameter
TestParameter "1" - - "0..1" TestParameterResult : contains >

@enduml

PlantUML version 1.2021.00(Sun Jan 10 10:25:05 GMT 2021)
(GPL source distribution)
Java Runtime: OpenJDK Runtime Environment
JVM: OpenJDK 64-Bit Server VM
Default Encoding: Cp1252
Language: pt
Country: PT
--></g></svg>