<?xml version="1.0" encoding="UTF-8" standalone="no"?><svg xmlns="http://www.w3.org/2000/svg" xmlns:xlink="http://www.w3.org/1999/xlink" contentScriptType="application/ecmascript" contentStyleType="text/css" height="318.6px" preserveAspectRatio="none" style="width:268px;height:318px;" version="1.1" viewBox="0 0 268 318" width="268.8px" zoomAndPan="magnify"><defs><filter height="300%" id="f7jza1yqpcl0x" width="300%" x="-1" y="-1"><feGaussianBlur result="blurOut" stdDeviation="1.2"/><feColorMatrix in="blurOut" result="blurOut2" type="matrix" values="0 0 0 0 0 0 0 0 0 0 0 0 0 0 0 0 0 0 .4 0"/><feOffset dx="2.4" dy="2.4" in="blurOut2" result="blurOut3"/><feBlend in="SourceGraphic" in2="blurOut3" mode="normal"/></filter></defs><g><rect fill="#FFFFFF" filter="url(#f7jza1yqpcl0x)" height="201.5203" style="stroke:#A80036;stroke-width:0.6;" width="6" x="69.9" y="59.7656"/><rect fill="#FFFFFF" filter="url(#f7jza1yqpcl0x)" height="18.2109" style="stroke:#A80036;stroke-width:0.6;" width="6" x="231.3" y="73.1766"/><rect fill="#FFFFFF" filter="url(#f7jza1yqpcl0x)" height="33.4219" style="stroke:#A80036;stroke-width:0.6;" width="6" x="231.3" y="109.5984"/><rect fill="#FFFFFF" filter="url(#f7jza1yqpcl0x)" height="18.2109" style="stroke:#A80036;stroke-width:0.6;" width="6" x="231.3" y="161.2313"/><rect fill="#FFFFFF" filter="url(#f7jza1yqpcl0x)" height="18.2109" style="stroke:#A80036;stroke-width:0.6;" width="6" x="231.3" y="197.6531"/><rect fill="#FFFFFF" filter="url(#f7jza1yqpcl0x)" height="18.2109" style="stroke:#A80036;stroke-width:0.6;" width="6" x="231.3" y="234.075"/><rect fill="#FFFFFF" filter="url(#f7jza1yqpcl0x)" height="138.4875" style="stroke:#000000;stroke-width:1.2;" width="254.7" x="6" y="118.5984"/><line style="stroke:#A80036;stroke-width:0.6;stroke-dasharray:5.0,5.0;" x1="72.6" x2="72.6" y1="53.7656" y2="267.2859"/><line style="stroke:#A80036;stroke-width:0.6;stroke-dasharray:5.0,5.0;" x1="234.3" x2="234.3" y1="53.7656" y2="267.2859"/><text fill="#000000" font-family="sans-serif" font-size="8.4" lengthAdjust="spacing" textLength="118.2" x="12" y="51.9199">Clinical Chemistry Technologist</text><ellipse cx="72.9" cy="9" fill="#FEFECE" filter="url(#f7jza1yqpcl0x)" rx="4.8" ry="4.8" style="stroke:#A80036;stroke-width:1.2;"/><path d="M72.9,13.8 L72.9,30 M65.1,18.6 L80.7,18.6 M72.9,30 L65.1,39 M72.9,30 L80.7,39 " fill="none" filter="url(#f7jza1yqpcl0x)" style="stroke:#A80036;stroke-width:1.2;"/><text fill="#000000" font-family="sans-serif" font-size="8.4" lengthAdjust="spacing" textLength="118.2" x="12" y="275.4059">Clinical Chemistry Technologist</text><ellipse cx="72.9" cy="283.2516" fill="#FEFECE" filter="url(#f7jza1yqpcl0x)" rx="4.8" ry="4.8" style="stroke:#A80036;stroke-width:1.2;"/><path d="M72.9,288.0516 L72.9,304.2516 M65.1,292.8516 L80.7,292.8516 M72.9,304.2516 L65.1,313.2516 M72.9,304.2516 L80.7,313.2516 " fill="none" filter="url(#f7jza1yqpcl0x)" style="stroke:#A80036;stroke-width:1.2;"/><rect fill="#FEFECE" filter="url(#f7jza1yqpcl0x)" height="18.9656" style="stroke:#A80036;stroke-width:0.8999999999999999;" width="38.4" x="213.9" y="31.8"/><text fill="#000000" font-family="sans-serif" font-size="8.4" lengthAdjust="spacing" textLength="30" x="218.1" y="44.7199">:System</text><rect fill="#FEFECE" filter="url(#f7jza1yqpcl0x)" height="18.9656" style="stroke:#A80036;stroke-width:0.8999999999999999;" width="38.4" x="213.9" y="266.6859"/><text fill="#000000" font-family="sans-serif" font-size="8.4" lengthAdjust="spacing" textLength="30" x="218.1" y="279.6059">:System</text><rect fill="#FFFFFF" filter="url(#f7jza1yqpcl0x)" height="201.5203" style="stroke:#A80036;stroke-width:0.6;" width="6" x="69.9" y="59.7656"/><rect fill="#FFFFFF" filter="url(#f7jza1yqpcl0x)" height="18.2109" style="stroke:#A80036;stroke-width:0.6;" width="6" x="231.3" y="73.1766"/><rect fill="#FFFFFF" filter="url(#f7jza1yqpcl0x)" height="33.4219" style="stroke:#A80036;stroke-width:0.6;" width="6" x="231.3" y="109.5984"/><rect fill="#FFFFFF" filter="url(#f7jza1yqpcl0x)" height="18.2109" style="stroke:#A80036;stroke-width:0.6;" width="6" x="231.3" y="161.2313"/><rect fill="#FFFFFF" filter="url(#f7jza1yqpcl0x)" height="18.2109" style="stroke:#A80036;stroke-width:0.6;" width="6" x="231.3" y="197.6531"/><rect fill="#FFFFFF" filter="url(#f7jza1yqpcl0x)" height="18.2109" style="stroke:#A80036;stroke-width:0.6;" width="6" x="231.3" y="234.075"/><polygon fill="#A80036" points="224.1,70.7766,230.1,73.1766,224.1,75.5766,226.5,73.1766" style="stroke:#A80036;stroke-width:0.6;"/><line style="stroke:#A80036;stroke-width:0.6;" x1="75.9" x2="227.7" y1="73.1766" y2="73.1766"/><text fill="#000000" font-family="sans-serif" font-size="7.8" font-weight="bold" lengthAdjust="spacing" textLength="4.2" x="80.1" y="70.2627">1</text><text fill="#000000" font-family="sans-serif" font-size="7.8" lengthAdjust="spacing" textLength="108.6" x="86.7" y="70.2627">asks to register the test results</text><polygon fill="#A80036" points="82.5,88.9875,76.5,91.3875,82.5,93.7875,80.1,91.3875" style="stroke:#A80036;stroke-width:0.6;"/><line style="stroke:#A80036;stroke-width:0.6;stroke-dasharray:2.0,2.0;" x1="78.9" x2="233.7" y1="91.3875" y2="91.3875"/><text fill="#000000" font-family="sans-serif" font-size="7.8" font-weight="bold" lengthAdjust="spacing" textLength="4.2" x="86.1" y="88.4736">2</text><text fill="#000000" font-family="sans-serif" font-size="7.8" lengthAdjust="spacing" textLength="97.2" x="92.7" y="88.4736">request the barcode number</text><polygon fill="#A80036" points="224.1,107.1984,230.1,109.5984,224.1,111.9984,226.5,109.5984" style="stroke:#A80036;stroke-width:0.6;"/><line style="stroke:#A80036;stroke-width:0.6;" x1="75.9" x2="227.7" y1="109.5984" y2="109.5984"/><text fill="#000000" font-family="sans-serif" font-size="7.8" font-weight="bold" lengthAdjust="spacing" textLength="4.2" x="80.1" y="106.6846">3</text><text fill="#000000" font-family="sans-serif" font-size="7.8" lengthAdjust="spacing" textLength="73.2" x="86.7" y="106.6846">types requested data</text><path d="M6,118.5984 L49.8,118.5984 L49.8,123.3984 L43.8,129.3984 L6,129.3984 L6,118.5984 " fill="#EEEEEE" style="stroke:#000000;stroke-width:0.6;"/><rect fill="none" height="138.4875" style="stroke:#000000;stroke-width:1.2;" width="254.7" x="6" y="118.5984"/><text fill="#000000" font-family="sans-serif" font-size="7.8" font-weight="bold" lengthAdjust="spacing" textLength="16.8" x="15" y="127.2955">loop</text><text fill="#000000" font-family="sans-serif" font-size="6.6" font-weight="bold" lengthAdjust="spacing" textLength="137.4" x="58.8" y="126.6498">[*for each test parameter being analysed]</text><polygon fill="#A80036" points="82.5,140.6203,76.5,143.0203,82.5,145.4203,80.1,143.0203" style="stroke:#A80036;stroke-width:0.6;"/><line style="stroke:#A80036;stroke-width:0.6;" x1="78.9" x2="233.7" y1="143.0203" y2="143.0203"/><text fill="#000000" font-family="sans-serif" font-size="7.8" font-weight="bold" lengthAdjust="spacing" textLength="4.2" x="86.1" y="140.1064">4</text><text fill="#000000" font-family="sans-serif" font-size="7.8" lengthAdjust="spacing" textLength="97.2" x="92.7" y="140.1064">Show list of test parameters</text><polygon fill="#A80036" points="224.1,158.8312,230.1,161.2313,224.1,163.6313,226.5,161.2313" style="stroke:#A80036;stroke-width:0.6;"/><line style="stroke:#A80036;stroke-width:0.6;" x1="75.9" x2="227.7" y1="161.2313" y2="161.2313"/><text fill="#000000" font-family="sans-serif" font-size="7.8" font-weight="bold" lengthAdjust="spacing" textLength="4.2" x="80.1" y="158.3174">5</text><text fill="#000000" font-family="sans-serif" font-size="7.8" lengthAdjust="spacing" textLength="78" x="86.7" y="158.3174">selects test parameter</text><polygon fill="#A80036" points="82.5,177.0422,76.5,179.4422,82.5,181.8422,80.1,179.4422" style="stroke:#A80036;stroke-width:0.6;"/><line style="stroke:#A80036;stroke-width:0.6;" x1="78.9" x2="233.7" y1="179.4422" y2="179.4422"/><text fill="#000000" font-family="sans-serif" font-size="7.8" font-weight="bold" lengthAdjust="spacing" textLength="4.2" x="86.1" y="176.5283">6</text><text fill="#000000" font-family="sans-serif" font-size="7.8" lengthAdjust="spacing" textLength="99.6" x="92.7" y="176.5283">request the result and metric</text><polygon fill="#A80036" points="224.1,195.2531,230.1,197.6531,224.1,200.0531,226.5,197.6531" style="stroke:#A80036;stroke-width:0.6;"/><line style="stroke:#A80036;stroke-width:0.6;" x1="75.9" x2="227.7" y1="197.6531" y2="197.6531"/><text fill="#000000" font-family="sans-serif" font-size="7.8" font-weight="bold" lengthAdjust="spacing" textLength="4.2" x="80.1" y="194.7393">7</text><text fill="#000000" font-family="sans-serif" font-size="7.8" lengthAdjust="spacing" textLength="73.2" x="86.7" y="194.7393">types requested data</text><polygon fill="#A80036" points="82.5,213.4641,76.5,215.8641,82.5,218.2641,80.1,215.8641" style="stroke:#A80036;stroke-width:0.6;"/><line style="stroke:#A80036;stroke-width:0.6;" x1="78.9" x2="233.7" y1="215.8641" y2="215.8641"/><text fill="#000000" font-family="sans-serif" font-size="7.8" font-weight="bold" lengthAdjust="spacing" textLength="4.2" x="86.1" y="212.9502">8</text><text fill="#000000" font-family="sans-serif" font-size="7.8" lengthAdjust="spacing" textLength="134.4" x="92.7" y="212.9502">Show all data and request confirmation</text><polygon fill="#A80036" points="224.1,231.675,230.1,234.075,224.1,236.475,226.5,234.075" style="stroke:#A80036;stroke-width:0.6;"/><line style="stroke:#A80036;stroke-width:0.6;" x1="75.9" x2="227.7" y1="234.075" y2="234.075"/><text fill="#000000" font-family="sans-serif" font-size="7.8" font-weight="bold" lengthAdjust="spacing" textLength="4.2" x="80.1" y="231.1611">9</text><text fill="#000000" font-family="sans-serif" font-size="7.8" lengthAdjust="spacing" textLength="60" x="86.7" y="231.1611">confirms the data</text><polygon fill="#A80036" points="82.5,249.8859,76.5,252.2859,82.5,254.6859,80.1,252.2859" style="stroke:#A80036;stroke-width:0.6;"/><line style="stroke:#A80036;stroke-width:0.6;stroke-dasharray:2.0,2.0;" x1="78.9" x2="233.7" y1="252.2859" y2="252.2859"/><text fill="#000000" font-family="sans-serif" font-size="7.8" font-weight="bold" lengthAdjust="spacing" textLength="8.4" x="86.1" y="249.3721">10</text><text fill="#000000" font-family="sans-serif" font-size="7.8" lengthAdjust="spacing" textLength="104.4" x="96.9" y="249.3721">informs the operation success</text><!--MD5=[85795bfa2e92f7797592f6c572bb2b58]
@startuml
autonumber
actor "Clinical Chemistry Technologist" as CCT

activate CCT
CCT -> ":System" : asks to register the test results
activate ":System"
":System" - -> CCT : request the barcode number
deactivate ":System"
CCT -> ":System" : types requested data
activate ":System"
loop *for each test parameter being analysed
":System" -> CCT : Show list of test parameters
deactivate ":System"
CCT -> ":System" : selects test parameter
activate ":System"
":System" -> CCT : request the result and metric
deactivate ":System"
CCT -> ":System" : types requested data
activate ":System"
":System" -> CCT : Show all data and request confirmation
deactivate ":System"
CCT -> ":System" : confirms the data
activate ":System"
":System" - -> CCT : informs the operation success
deactivate ":System"
end


deactivate CCT

@enduml

PlantUML version 1.2021.00(Sun Jan 10 10:25:05 GMT 2021)
(GPL source distribution)
Java Runtime: OpenJDK Runtime Environment
JVM: OpenJDK 64-Bit Server VM
Default Encoding: Cp1252
Language: pt
Country: PT
--></g></svg>