<?xml version="1.0" encoding="UTF-8" standalone="no"?><svg xmlns="http://www.w3.org/2000/svg" xmlns:xlink="http://www.w3.org/1999/xlink" contentScriptType="application/ecmascript" contentStyleType="text/css" height="819px" preserveAspectRatio="none" style="width:1408px;height:819px;" version="1.1" viewBox="0 0 1408 819" width="1408.8px" zoomAndPan="magnify"><defs><filter height="300%" id="f16c65x3htzhgq" width="300%" x="-1" y="-1"><feGaussianBlur result="blurOut" stdDeviation="1.2"/><feColorMatrix in="blurOut" result="blurOut2" type="matrix" values="0 0 0 0 0 0 0 0 0 0 0 0 0 0 0 0 0 0 .4 0"/><feOffset dx="2.4" dy="2.4" in="blurOut2" result="blurOut3"/><feBlend in="SourceGraphic" in2="blurOut3" mode="normal"/></filter></defs><g><!--MD5=[a0bb257923b4feabbc8c8a837db65c88]
cluster adapter--><polygon fill="#FFFFFF" filter="url(#f16c65x3htzhgq)" points="754.8,480.3,790.8,480.3,795,494.4656,1341.6,494.4656,1341.6,689.4,754.8,689.4,754.8,480.3" style="stroke:#000000;stroke-width:0.8999999999999999;"/><line style="stroke:#000000;stroke-width:0.8999999999999999;" x1="754.8" x2="795" y1="494.4656" y2="494.4656"/><text fill="#000000" font-family="sans-serif" font-size="8.4" font-weight="bold" lengthAdjust="spacing" textLength="32.4" x="757.2" y="490.2199">adapter</text><!--MD5=[a59c1d05a8f6fb54290705d41e67acbe]
cluster interface--><polygon fill="#FFFFFF" filter="url(#f16c65x3htzhgq)" points="877.8,606.6,919.2,606.6,923.4,620.7656,1023,620.7656,1023,675,877.8,675,877.8,606.6" style="stroke:#000000;stroke-width:0.8999999999999999;"/><line style="stroke:#000000;stroke-width:0.8999999999999999;" x1="877.8" x2="923.4" y1="620.7656" y2="620.7656"/><text fill="#000000" font-family="sans-serif" font-size="8.4" font-weight="bold" lengthAdjust="spacing" textLength="37.8" x="880.2" y="616.5199">interface</text><!--MD5=[e484dff12bc7e3f9ae9e3c87a060152b]
cluster mappers--><polygon fill="#FFFFFF" filter="url(#f16c65x3htzhgq)" points="959.4,180,999.6,180,1003.8,194.1656,1091.4,194.1656,1091.4,341.4,959.4,341.4,959.4,180" style="stroke:#000000;stroke-width:0.8999999999999999;"/><line style="stroke:#000000;stroke-width:0.8999999999999999;" x1="959.4" x2="1003.8" y1="194.1656" y2="194.1656"/><text fill="#000000" font-family="sans-serif" font-size="8.4" font-weight="bold" lengthAdjust="spacing" textLength="36.6" x="961.8" y="189.9199">mappers</text><!--MD5=[e6eced616a98d47334dd1aaaa829ffd5]
cluster dto--><polygon fill="#FFFFFF" filter="url(#f16c65x3htzhgq)" points="973.8,267,991.2,267,995.4,281.1656,1077,281.1656,1077,327,973.8,327,973.8,267" style="stroke:#000000;stroke-width:0.8999999999999999;"/><line style="stroke:#000000;stroke-width:0.8999999999999999;" x1="973.8" x2="995.4" y1="281.1656" y2="281.1656"/><text fill="#000000" font-family="sans-serif" font-size="8.4" font-weight="bold" lengthAdjust="spacing" textLength="13.8" x="976.2" y="276.9199">dto</text><!--MD5=[27f772719433d509ddbc20ff768eba08]
cluster domain--><polygon fill="#FFFFFF" filter="url(#f16c65x3htzhgq)" points="9.6,398.4,43.8,398.4,48,412.5656,740.4,412.5656,740.4,814.8,9.6,814.8,9.6,398.4" style="stroke:#000000;stroke-width:0.8999999999999999;"/><line style="stroke:#000000;stroke-width:0.8999999999999999;" x1="9.6" x2="48" y1="412.5656" y2="412.5656"/><text fill="#000000" font-family="sans-serif" font-size="8.4" font-weight="bold" lengthAdjust="spacing" textLength="30.6" x="12" y="408.3199">domain</text><!--MD5=[5d4cd377749310b66bf14896f5cd8d9b]
cluster model--><polygon fill="#FFFFFF" filter="url(#f16c65x3htzhgq)" points="24,424.8,53.4,424.8,57.6,438.9656,622.8,438.9656,622.8,800.4,24,800.4,24,424.8" style="stroke:#000000;stroke-width:0.8999999999999999;"/><line style="stroke:#000000;stroke-width:0.8999999999999999;" x1="24" x2="57.6" y1="438.9656" y2="438.9656"/><text fill="#000000" font-family="sans-serif" font-size="8.4" font-weight="bold" lengthAdjust="spacing" textLength="25.8" x="26.4" y="434.7199">model</text><!--MD5=[9cb952c600f30fcf95dcf5211f69cce1]
cluster testRelated--><polygon fill="#FFFFFF" filter="url(#f16c65x3htzhgq)" points="38.4,451.2,90.6,451.2,94.8,465.3656,536.4,465.3656,536.4,786,38.4,786,38.4,451.2" style="stroke:#000000;stroke-width:0.8999999999999999;"/><line style="stroke:#000000;stroke-width:0.8999999999999999;" x1="38.4" x2="94.8" y1="465.3656" y2="465.3656"/><text fill="#000000" font-family="sans-serif" font-size="8.4" font-weight="bold" lengthAdjust="spacing" textLength="48.6" x="40.8" y="461.1199">testRelated</text><!--MD5=[c23849cc5f4a85746a20de4317c530fc]
cluster store--><polygon fill="#FFFFFF" filter="url(#f16c65x3htzhgq)" points="637.2,709.2,663,709.2,667.2,723.3656,726,723.3656,726,777.6,637.2,777.6,637.2,709.2" style="stroke:#000000;stroke-width:0.8999999999999999;"/><line style="stroke:#000000;stroke-width:0.8999999999999999;" x1="637.2" x2="667.2" y1="723.3656" y2="723.3656"/><text fill="#000000" font-family="sans-serif" font-size="8.4" font-weight="bold" lengthAdjust="spacing" textLength="22.2" x="639.6" y="719.1199">store</text><!--MD5=[10ea673caf457862023e152271927b45]
cluster controller--><polygon fill="#FFFFFF" filter="url(#f16c65x3htzhgq)" points="937.2,83.4,982.2,83.4,986.4,97.5656,1099.2,97.5656,1099.2,160.2,937.2,160.2,937.2,83.4" style="stroke:#000000;stroke-width:0.8999999999999999;"/><line style="stroke:#000000;stroke-width:0.8999999999999999;" x1="937.2" x2="986.4" y1="97.5656" y2="97.5656"/><text fill="#000000" font-family="sans-serif" font-size="8.4" font-weight="bold" lengthAdjust="spacing" textLength="41.4" x="939.6" y="93.3199">controller</text><!--MD5=[64e2e010ba86d7988e5cd73bd64f61f9]
cluster ui--><polygon fill="#FFFFFF" filter="url(#f16c65x3htzhgq)" points="1302,3.6,1313.4,3.6,1317.6,17.7656,1398,17.7656,1398,63.6,1302,63.6,1302,3.6" style="stroke:#000000;stroke-width:0.8999999999999999;"/><line style="stroke:#000000;stroke-width:0.8999999999999999;" x1="1302" x2="1317.6" y1="17.7656" y2="17.7656"/><text fill="#000000" font-family="sans-serif" font-size="8.4" font-weight="bold" lengthAdjust="spacing" textLength="7.8" x="1304.4" y="13.5199">ui</text><!--MD5=[9e79a15defc04663f36ad34442e5fa10]
class CovidReferenceValues1APIAdapter--><rect codeLine="121" fill="#FEFECE" filter="url(#f16c65x3htzhgq)" height="37.1016" id="CovidReferenceValues1APIAdapter" style="stroke:#A80036;stroke-width:0.8999999999999999;" width="175.2" x="1156.8" y="501.9"/><ellipse cx="1183.95" cy="511.5" fill="#ADD1B2" rx="6.6" ry="6.6" style="stroke:#A80036;stroke-width:0.6;"/><path d="M1185.15,509.4 Q1185.2719,509.1 1185.4125,508.95 Q1185.5531,508.8 1185.7125,508.8 Q1185.9937,508.8 1186.1719,508.9688 Q1186.35,509.1375 1186.35,509.5313 L1186.35,510.4688 Q1186.35,510.8625 1186.1812,511.0313 Q1186.0125,511.2 1185.75,511.2 Q1185.5156,511.2 1185.3656,511.0969 Q1185.2156,510.9938 1185.15,510.7219 Q1185.1219,510.5344 1185.0188,510.4313 Q1184.8313,510.2344 1184.4937,510.1219 Q1184.1563,510 1183.8188,510 Q1183.3969,510 1183.0406,510.1688 Q1182.6938,510.3375 1182.4219,510.7125 Q1182.15,511.0875 1182.15,511.6031 L1182.15,512.1563 Q1182.15,512.775 1182.6563,513.1875 Q1183.1625,513.6 1184.0625,513.6 Q1184.5969,513.6 1184.9719,513.4781 Q1185.1875,513.4125 1185.4312,513.1969 Q1185.5906,513.075 1185.675,513.0375 Q1185.7594,513 1185.8625,513 Q1186.0594,513 1186.2,513.1594 Q1186.35,513.3094 1186.35,513.525 Q1186.35,513.7312 1186.1438,513.975 Q1185.8438,514.3313 1185.3656,514.5281 Q1184.7375,514.8 1183.9688,514.8 Q1183.0688,514.8 1182.3469,514.4438 Q1181.7656,514.1625 1181.3531,513.5531 Q1180.95,512.9438 1180.95,512.2219 L1180.95,511.5656 Q1180.95,510.8156 1181.3062,510.1594 Q1181.6719,509.5031 1182.3,509.1563 Q1182.9375,508.8 1183.65,508.8 Q1184.0813,508.8 1184.4563,508.95 Q1184.8313,509.1 1185.15,509.4 Z " fill="#000000"/><text fill="#000000" font-family="sans-serif" font-size="7.2" lengthAdjust="spacing" textLength="115.8" x="1196.25" y="514.4461">CovidReferenceValues1APIAdapter</text><line style="stroke:#A80036;stroke-width:0.8999999999999999;" x1="1157.4" x2="1331.4" y1="521.1" y2="521.1"/><line style="stroke:#A80036;stroke-width:0.8999999999999999;" x1="1157.4" x2="1331.4" y1="525.9" y2="525.9"/><ellipse cx="1163.4" cy="532.5" fill="#84BE84" rx="1.8" ry="1.8" style="stroke:#038048;stroke-width:0.6;"/><text fill="#000000" font-family="sans-serif" font-size="6.6" lengthAdjust="spacing" textLength="159.6" x="1168.8" y="535.1514">ReferenceValue getReferenceValue(Parameter param)</text><!--MD5=[bf202dd950ceaf4f26879676f3c29ba5]
class ExternalModule2APIAdapter--><rect codeLine="113" fill="#FEFECE" filter="url(#f16c65x3htzhgq)" height="37.1016" id="ExternalModule2APIAdapter" style="stroke:#A80036;stroke-width:0.8999999999999999;" width="175.2" x="960.6" y="501.9"/><ellipse cx="1000.35" cy="511.5" fill="#ADD1B2" rx="6.6" ry="6.6" style="stroke:#A80036;stroke-width:0.6;"/><path d="M1001.55,509.4 Q1001.6719,509.1 1001.8125,508.95 Q1001.9531,508.8 1002.1125,508.8 Q1002.3938,508.8 1002.5719,508.9688 Q1002.75,509.1375 1002.75,509.5313 L1002.75,510.4688 Q1002.75,510.8625 1002.5813,511.0313 Q1002.4125,511.2 1002.15,511.2 Q1001.9156,511.2 1001.7656,511.0969 Q1001.6156,510.9938 1001.55,510.7219 Q1001.5219,510.5344 1001.4187,510.4313 Q1001.2312,510.2344 1000.8938,510.1219 Q1000.5563,510 1000.2188,510 Q999.7969,510 999.4406,510.1688 Q999.0938,510.3375 998.8219,510.7125 Q998.55,511.0875 998.55,511.6031 L998.55,512.1563 Q998.55,512.775 999.0563,513.1875 Q999.5625,513.6 1000.4625,513.6 Q1000.9969,513.6 1001.3719,513.4781 Q1001.5875,513.4125 1001.8313,513.1969 Q1001.9906,513.075 1002.075,513.0375 Q1002.1594,513 1002.2625,513 Q1002.4594,513 1002.6,513.1594 Q1002.75,513.3094 1002.75,513.525 Q1002.75,513.7312 1002.5437,513.975 Q1002.2438,514.3313 1001.7656,514.5281 Q1001.1375,514.8 1000.3688,514.8 Q999.4688,514.8 998.7469,514.4438 Q998.1656,514.1625 997.7531,513.5531 Q997.35,512.9438 997.35,512.2219 L997.35,511.5656 Q997.35,510.8156 997.7063,510.1594 Q998.0719,509.5031 998.7,509.1563 Q999.3375,508.8 1000.05,508.8 Q1000.4812,508.8 1000.8562,508.95 Q1001.2312,509.1 1001.55,509.4 Z " fill="#000000"/><text fill="#000000" font-family="sans-serif" font-size="7.2" lengthAdjust="spacing" textLength="90.6" x="1012.65" y="514.4461">ExternalModule2APIAdapter</text><line style="stroke:#A80036;stroke-width:0.8999999999999999;" x1="961.2" x2="1135.2" y1="521.1" y2="521.1"/><line style="stroke:#A80036;stroke-width:0.8999999999999999;" x1="961.2" x2="1135.2" y1="525.9" y2="525.9"/><ellipse cx="967.2" cy="532.5" fill="#84BE84" rx="1.8" ry="1.8" style="stroke:#038048;stroke-width:0.6;"/><text fill="#000000" font-family="sans-serif" font-size="6.6" lengthAdjust="spacing" textLength="159.6" x="972.6" y="535.1514">ReferenceValue getReferenceValue(Parameter param)</text><!--MD5=[35c27d149b939a19a05414d761c02afa]
class ExternalModule3APIAdapter--><rect codeLine="117" fill="#FEFECE" filter="url(#f16c65x3htzhgq)" height="37.1016" id="ExternalModule3APIAdapter" style="stroke:#A80036;stroke-width:0.8999999999999999;" width="175.2" x="764.4" y="501.9"/><ellipse cx="804.15" cy="511.5" fill="#ADD1B2" rx="6.6" ry="6.6" style="stroke:#A80036;stroke-width:0.6;"/><path d="M805.35,509.4 Q805.4719,509.1 805.6125,508.95 Q805.7531,508.8 805.9125,508.8 Q806.1938,508.8 806.3719,508.9688 Q806.55,509.1375 806.55,509.5313 L806.55,510.4688 Q806.55,510.8625 806.3813,511.0313 Q806.2125,511.2 805.95,511.2 Q805.7156,511.2 805.5656,511.0969 Q805.4156,510.9938 805.35,510.7219 Q805.3219,510.5344 805.2188,510.4313 Q805.0313,510.2344 804.6938,510.1219 Q804.3562,510 804.0188,510 Q803.5969,510 803.2406,510.1688 Q802.8938,510.3375 802.6219,510.7125 Q802.35,511.0875 802.35,511.6031 L802.35,512.1563 Q802.35,512.775 802.8562,513.1875 Q803.3625,513.6 804.2625,513.6 Q804.7969,513.6 805.1719,513.4781 Q805.3875,513.4125 805.6313,513.1969 Q805.7906,513.075 805.875,513.0375 Q805.9594,513 806.0625,513 Q806.2594,513 806.4,513.1594 Q806.55,513.3094 806.55,513.525 Q806.55,513.7312 806.3438,513.975 Q806.0437,514.3313 805.5656,514.5281 Q804.9375,514.8 804.1687,514.8 Q803.2688,514.8 802.5469,514.4438 Q801.9656,514.1625 801.5531,513.5531 Q801.15,512.9438 801.15,512.2219 L801.15,511.5656 Q801.15,510.8156 801.5063,510.1594 Q801.8719,509.5031 802.5,509.1563 Q803.1375,508.8 803.85,508.8 Q804.2813,508.8 804.6563,508.95 Q805.0313,509.1 805.35,509.4 Z " fill="#000000"/><text fill="#000000" font-family="sans-serif" font-size="7.2" lengthAdjust="spacing" textLength="90.6" x="816.45" y="514.4461">ExternalModule3APIAdapter</text><line style="stroke:#A80036;stroke-width:0.8999999999999999;" x1="765" x2="939" y1="521.1" y2="521.1"/><line style="stroke:#A80036;stroke-width:0.8999999999999999;" x1="765" x2="939" y1="525.9" y2="525.9"/><ellipse cx="771" cy="532.5" fill="#84BE84" rx="1.8" ry="1.8" style="stroke:#038048;stroke-width:0.6;"/><text fill="#000000" font-family="sans-serif" font-size="6.6" lengthAdjust="spacing" textLength="159.6" x="776.4" y="535.1514">ReferenceValue getReferenceValue(Parameter param)</text><!--MD5=[8f188b89eff49accb0f38c057b38a9f2]
class ExternalModule--><rect codeLine="126" fill="#FEFECE" filter="url(#f16c65x3htzhgq)" height="37.1016" id="ExternalModule" style="stroke:#A80036;stroke-width:0.8999999999999999;" width="126" x="887.4" y="628.2"/><ellipse cx="922.35" cy="637.8" fill="#B4A7E5" rx="6.6" ry="6.6" style="stroke:#A80036;stroke-width:0.6;"/><path d="M922.95,636 L922.95,639.6 L924.15,639.6 L924.4406,639.6 L924.75,639.975 L924.75,640.2 L924.75,640.425 L924.4406,640.8 L924.15,640.8 L920.55,640.8 L920.2594,640.8 L919.95,640.425 L919.95,640.2 L919.95,639.975 L920.2594,639.6 L920.55,639.6 L921.75,639.6 L921.75,636 L920.55,636 L920.2594,636 L919.95,635.625 L919.95,635.4 L919.95,635.175 L920.2594,634.8 L920.55,634.8 L924.15,634.8 L924.4406,634.8 L924.75,635.175 L924.75,635.4 L924.75,635.625 L924.4406,636 L924.15,636 L922.95,636 Z " fill="#000000"/><text fill="#000000" font-family="sans-serif" font-size="7.2" font-style="italic" lengthAdjust="spacing" textLength="51" x="934.65" y="640.7461">ExternalModule</text><line style="stroke:#A80036;stroke-width:0.8999999999999999;" x1="888" x2="1012.8" y1="647.4" y2="647.4"/><line style="stroke:#A80036;stroke-width:0.8999999999999999;" x1="888" x2="1012.8" y1="652.2" y2="652.2"/><ellipse cx="894" cy="658.8" fill="#84BE84" rx="1.8" ry="1.8" style="stroke:#038048;stroke-width:0.6;"/><text fill="#000000" font-family="sans-serif" font-size="6.6" lengthAdjust="spacing" textLength="110.4" x="899.4" y="661.4514">getReferenceValue(Parameter param)</text><!--MD5=[a82d32c079496d6dca2681dc0633feb0]
class TestParameterMapper--><rect codeLine="60" fill="#FEFECE" filter="url(#f16c65x3htzhgq)" height="37.1016" id="TestParameterMapper" style="stroke:#A80036;stroke-width:0.8999999999999999;" width="93" x="971.7" y="201.6"/><ellipse cx="980.7" cy="211.2" fill="#ADD1B2" rx="6.6" ry="6.6" style="stroke:#A80036;stroke-width:0.6;"/><path d="M981.9,209.1 Q982.0219,208.8 982.1625,208.65 Q982.3031,208.5 982.4625,208.5 Q982.7438,208.5 982.9219,208.6688 Q983.1,208.8375 983.1,209.2313 L983.1,210.1688 Q983.1,210.5625 982.9313,210.7313 Q982.7625,210.9 982.5,210.9 Q982.2656,210.9 982.1156,210.7969 Q981.9656,210.6938 981.9,210.4219 Q981.8719,210.2344 981.7688,210.1313 Q981.5813,209.9344 981.2438,209.8219 Q980.9063,209.7 980.5687,209.7 Q980.1469,209.7 979.7906,209.8688 Q979.4437,210.0375 979.1719,210.4125 Q978.9,210.7875 978.9,211.3031 L978.9,211.8563 Q978.9,212.475 979.4063,212.8875 Q979.9125,213.3 980.8125,213.3 Q981.3469,213.3 981.7219,213.1781 Q981.9375,213.1125 982.1813,212.8969 Q982.3406,212.775 982.425,212.7375 Q982.5094,212.7 982.6125,212.7 Q982.8094,212.7 982.95,212.8594 Q983.1,213.0094 983.1,213.225 Q983.1,213.4313 982.8938,213.675 Q982.5938,214.0313 982.1156,214.2281 Q981.4875,214.5 980.7188,214.5 Q979.8187,214.5 979.0969,214.1437 Q978.5156,213.8625 978.1031,213.2531 Q977.7,212.6437 977.7,211.9219 L977.7,211.2656 Q977.7,210.5156 978.0563,209.8594 Q978.4219,209.2031 979.05,208.8563 Q979.6875,208.5 980.4,208.5 Q980.8313,208.5 981.2063,208.65 Q981.5813,208.8 981.9,209.1 Z " fill="#000000"/><text fill="#000000" font-family="sans-serif" font-size="7.2" lengthAdjust="spacing" textLength="73.8" x="989.1" y="214.1461">TestParameterMapper</text><line style="stroke:#A80036;stroke-width:0.8999999999999999;" x1="972.3" x2="1064.1" y1="220.8" y2="220.8"/><line style="stroke:#A80036;stroke-width:0.8999999999999999;" x1="972.3" x2="1064.1" y1="225.6" y2="225.6"/><ellipse cx="978.3" cy="232.2" fill="#84BE84" rx="1.8" ry="1.8" style="stroke:#038048;stroke-width:0.6;"/><text fill="#000000" font-family="sans-serif" font-size="6.6" lengthAdjust="spacing" textLength="76.8" x="983.7" y="234.8514">ToDTO(TestParameterList)</text><!--MD5=[16358064a951ae5dfdda1035a51b763d]
class TestParameterDTO--><rect codeLine="96" fill="#FEFECE" filter="url(#f16c65x3htzhgq)" height="28.8" id="TestParameterDTO" style="stroke:#A80036;stroke-width:0.8999999999999999;" width="83.4" x="983.7" y="288.6"/><ellipse cx="992.7" cy="298.2" fill="#ADD1B2" rx="6.6" ry="6.6" style="stroke:#A80036;stroke-width:0.6;"/><path d="M993.9,296.1 Q994.0219,295.8 994.1625,295.65 Q994.3031,295.5 994.4625,295.5 Q994.7438,295.5 994.9219,295.6688 Q995.1,295.8375 995.1,296.2313 L995.1,297.1688 Q995.1,297.5625 994.9313,297.7313 Q994.7625,297.9 994.5,297.9 Q994.2656,297.9 994.1156,297.7969 Q993.9656,297.6937 993.9,297.4219 Q993.8719,297.2344 993.7688,297.1312 Q993.5813,296.9344 993.2438,296.8219 Q992.9063,296.7 992.5687,296.7 Q992.1469,296.7 991.7906,296.8688 Q991.4437,297.0375 991.1719,297.4125 Q990.9,297.7875 990.9,298.3031 L990.9,298.8563 Q990.9,299.475 991.4063,299.8875 Q991.9125,300.3 992.8125,300.3 Q993.3469,300.3 993.7219,300.1781 Q993.9375,300.1125 994.1813,299.8969 Q994.3406,299.775 994.425,299.7375 Q994.5094,299.7 994.6125,299.7 Q994.8094,299.7 994.95,299.8594 Q995.1,300.0094 995.1,300.225 Q995.1,300.4313 994.8938,300.675 Q994.5938,301.0313 994.1156,301.2281 Q993.4875,301.5 992.7188,301.5 Q991.8187,301.5 991.0969,301.1438 Q990.5156,300.8625 990.1031,300.2531 Q989.7,299.6438 989.7,298.9219 L989.7,298.2656 Q989.7,297.5156 990.0563,296.8594 Q990.4219,296.2031 991.05,295.8563 Q991.6875,295.5 992.4,295.5 Q992.8313,295.5 993.2063,295.65 Q993.5813,295.8 993.9,296.1 Z " fill="#000000"/><text fill="#000000" font-family="sans-serif" font-size="7.2" lengthAdjust="spacing" textLength="64.2" x="1001.1" y="301.1461">TestParameterDTO</text><line style="stroke:#A80036;stroke-width:0.8999999999999999;" x1="984.3" x2="1066.5" y1="307.8" y2="307.8"/><line style="stroke:#A80036;stroke-width:0.8999999999999999;" x1="984.3" x2="1066.5" y1="312.6" y2="312.6"/><!--MD5=[02e4b9b7573f1156f41e60aa5b4e25a4]
class Company--><rect codeLine="46" fill="#FEFECE" filter="url(#f16c65x3htzhgq)" height="45.4031" id="Company" style="stroke:#A80036;stroke-width:0.8999999999999999;" width="67.2" x="546" y="497.7"/><ellipse cx="562.29" cy="507.3" fill="#ADD1B2" rx="6.6" ry="6.6" style="stroke:#A80036;stroke-width:0.6;"/><path d="M563.49,505.2 Q563.6119,504.9 563.7525,504.75 Q563.8931,504.6 564.0525,504.6 Q564.3338,504.6 564.5119,504.7687 Q564.69,504.9375 564.69,505.3312 L564.69,506.2687 Q564.69,506.6625 564.5213,506.8312 Q564.3525,507 564.09,507 Q563.8556,507 563.7056,506.8969 Q563.5556,506.7938 563.49,506.5219 Q563.4619,506.3344 563.3588,506.2313 Q563.1713,506.0344 562.8338,505.9219 Q562.4962,505.8 562.1587,505.8 Q561.7369,505.8 561.3806,505.9688 Q561.0337,506.1375 560.7619,506.5125 Q560.49,506.8875 560.49,507.4031 L560.49,507.9562 Q560.49,508.575 560.9962,508.9875 Q561.5025,509.4 562.4025,509.4 Q562.9369,509.4 563.3119,509.2781 Q563.5275,509.2125 563.7713,508.9969 Q563.9306,508.875 564.015,508.8375 Q564.0994,508.8 564.2025,508.8 Q564.3994,508.8 564.54,508.9594 Q564.69,509.1094 564.69,509.325 Q564.69,509.5313 564.4838,509.775 Q564.1837,510.1312 563.7056,510.3281 Q563.0775,510.6 562.3087,510.6 Q561.4087,510.6 560.6869,510.2438 Q560.1056,509.9625 559.6931,509.3531 Q559.29,508.7438 559.29,508.0219 L559.29,507.3656 Q559.29,506.6156 559.6463,505.9594 Q560.0119,505.3031 560.64,504.9562 Q561.2775,504.6 561.99,504.6 Q562.4213,504.6 562.7963,504.75 Q563.1713,504.9 563.49,505.2 Z " fill="#000000"/><text fill="#000000" font-family="sans-serif" font-size="7.2" lengthAdjust="spacing" textLength="31.8" x="572.31" y="510.2461">Company</text><line style="stroke:#A80036;stroke-width:0.8999999999999999;" x1="546.6" x2="612.6" y1="516.9" y2="516.9"/><rect fill="none" height="3.6" style="stroke:#C82930;stroke-width:0.6;" width="3.6" x="550.8" y="521.7"/><text fill="#000000" font-family="sans-serif" font-size="6.6" lengthAdjust="spacing" textLength="51.6" x="558" y="526.1514">String designation</text><line style="stroke:#A80036;stroke-width:0.8999999999999999;" x1="546.6" x2="612.6" y1="530.0016" y2="530.0016"/><ellipse cx="552.6" cy="536.6016" fill="#84BE84" rx="1.8" ry="1.8" style="stroke:#038048;stroke-width:0.6;"/><text fill="#000000" font-family="sans-serif" font-size="6.6" lengthAdjust="spacing" textLength="42" x="558" y="539.2529">getTestStore()</text><!--MD5=[aeb3272166074d8737a70b61b1e71682]
class TestType--><rect codeLine="103" fill="#FEFECE" filter="url(#f16c65x3htzhgq)" height="78.6094" id="TestType" style="stroke:#A80036;stroke-width:0.8999999999999999;" width="171" x="353.7" y="481.2"/><ellipse cx="421.65" cy="490.8" fill="#ADD1B2" rx="6.6" ry="6.6" style="stroke:#A80036;stroke-width:0.6;"/><path d="M422.85,488.7 Q422.9719,488.4 423.1125,488.25 Q423.2531,488.1 423.4125,488.1 Q423.6937,488.1 423.8719,488.2687 Q424.05,488.4375 424.05,488.8312 L424.05,489.7687 Q424.05,490.1625 423.8812,490.3312 Q423.7125,490.5 423.45,490.5 Q423.2156,490.5 423.0656,490.3969 Q422.9156,490.2938 422.85,490.0219 Q422.8219,489.8344 422.7188,489.7313 Q422.5313,489.5344 422.1937,489.4219 Q421.8563,489.3 421.5188,489.3 Q421.0969,489.3 420.7406,489.4688 Q420.3938,489.6375 420.1219,490.0125 Q419.85,490.3875 419.85,490.9031 L419.85,491.4562 Q419.85,492.075 420.3563,492.4875 Q420.8625,492.9 421.7625,492.9 Q422.2969,492.9 422.6719,492.7781 Q422.8875,492.7125 423.1312,492.4969 Q423.2906,492.375 423.375,492.3375 Q423.4594,492.3 423.5625,492.3 Q423.7594,492.3 423.9,492.4594 Q424.05,492.6094 424.05,492.825 Q424.05,493.0313 423.8438,493.275 Q423.5438,493.6312 423.0656,493.8281 Q422.4375,494.1 421.6688,494.1 Q420.7688,494.1 420.0469,493.7438 Q419.4656,493.4625 419.0531,492.8531 Q418.65,492.2438 418.65,491.5219 L418.65,490.8656 Q418.65,490.1156 419.0062,489.4594 Q419.3719,488.8031 420,488.4562 Q420.6375,488.1 421.35,488.1 Q421.7813,488.1 422.1563,488.25 Q422.5313,488.4 422.85,488.7 Z " fill="#000000"/><text fill="#000000" font-family="sans-serif" font-size="7.2" lengthAdjust="spacing" textLength="30" x="433.95" y="493.7461">TestType</text><line style="stroke:#A80036;stroke-width:0.8999999999999999;" x1="354.3" x2="524.1" y1="500.4" y2="500.4"/><rect fill="none" height="3.6" style="stroke:#C82930;stroke-width:0.6;" width="3.6" x="358.5" y="505.2"/><text fill="#000000" font-family="sans-serif" font-size="6.6" lengthAdjust="spacing" textLength="33" x="365.7" y="509.6514">String code</text><rect fill="none" height="3.6" style="stroke:#C82930;stroke-width:0.6;" width="3.6" x="358.5" y="513.5016"/><text fill="#000000" font-family="sans-serif" font-size="6.6" lengthAdjust="spacing" textLength="50.4" x="365.7" y="517.9529">String description</text><rect fill="none" height="3.6" style="stroke:#C82930;stroke-width:0.6;" width="3.6" x="358.5" y="521.8031"/><text fill="#000000" font-family="sans-serif" font-size="6.6" lengthAdjust="spacing" textLength="66.6" x="365.7" y="526.2545">String collectingMethod</text><rect fill="none" height="3.6" style="stroke:#C82930;stroke-width:0.6;" width="3.6" x="358.5" y="530.1047"/><text fill="#000000" font-family="sans-serif" font-size="6.6" lengthAdjust="spacing" textLength="155.4" x="365.7" y="534.5561">List&lt;ParameterCategories&gt; listOfParameterCategories</text><rect fill="none" height="3.6" style="stroke:#C82930;stroke-width:0.6;" width="3.6" x="358.5" y="538.4063"/><text fill="#000000" font-family="sans-serif" font-size="6.6" lengthAdjust="spacing" textLength="70.8" x="365.7" y="542.8576">String referenceAdapter</text><line style="stroke:#A80036;stroke-width:0.8999999999999999;" x1="354.3" x2="524.1" y1="546.7078" y2="546.7078"/><ellipse cx="360.3" cy="553.3078" fill="#84BE84" rx="1.8" ry="1.8" style="stroke:#038048;stroke-width:0.6;"/><text fill="#000000" font-family="sans-serif" font-size="6.6" lengthAdjust="spacing" textLength="57.6" x="365.7" y="555.9592">getExternalModule()</text><!--MD5=[0f07739f46effee96e095e9c408da841]
class TestParameter--><rect codeLine="79" fill="#FEFECE" filter="url(#f16c65x3htzhgq)" height="37.1016" id="TestParameter" style="stroke:#A80036;stroke-width:0.8999999999999999;" width="112.8" x="152.4" y="730.8"/><ellipse cx="181.65" cy="740.4" fill="#ADD1B2" rx="6.6" ry="6.6" style="stroke:#A80036;stroke-width:0.6;"/><path d="M182.85,738.3 Q182.9719,738 183.1125,737.85 Q183.2531,737.7 183.4125,737.7 Q183.6938,737.7 183.8719,737.8688 Q184.05,738.0375 184.05,738.4313 L184.05,739.3688 Q184.05,739.7625 183.8813,739.9313 Q183.7125,740.1 183.45,740.1 Q183.2156,740.1 183.0656,739.9969 Q182.9156,739.8938 182.85,739.6219 Q182.8219,739.4344 182.7188,739.3313 Q182.5313,739.1344 182.1938,739.0219 Q181.8563,738.9 181.5187,738.9 Q181.0969,738.9 180.7406,739.0688 Q180.3937,739.2375 180.1219,739.6125 Q179.85,739.9875 179.85,740.5031 L179.85,741.0563 Q179.85,741.675 180.3563,742.0875 Q180.8625,742.5 181.7625,742.5 Q182.2969,742.5 182.6719,742.3781 Q182.8875,742.3125 183.1313,742.0969 Q183.2906,741.975 183.375,741.9375 Q183.4594,741.9 183.5625,741.9 Q183.7594,741.9 183.9,742.0594 Q184.05,742.2094 184.05,742.425 Q184.05,742.6313 183.8438,742.875 Q183.5438,743.2312 183.0656,743.4281 Q182.4375,743.7 181.6688,743.7 Q180.7687,743.7 180.0469,743.3438 Q179.4656,743.0625 179.0531,742.4531 Q178.65,741.8438 178.65,741.1219 L178.65,740.4656 Q178.65,739.7156 179.0063,739.0594 Q179.3719,738.4031 180,738.0563 Q180.6375,737.7 181.35,737.7 Q181.7813,737.7 182.1563,737.85 Q182.5313,738 182.85,738.3 Z " fill="#000000"/><text fill="#000000" font-family="sans-serif" font-size="7.2" lengthAdjust="spacing" textLength="49.2" x="193.95" y="743.3461">TestParameter</text><line style="stroke:#A80036;stroke-width:0.8999999999999999;" x1="153" x2="264.6" y1="750" y2="750"/><line style="stroke:#A80036;stroke-width:0.8999999999999999;" x1="153" x2="264.6" y1="754.8" y2="754.8"/><ellipse cx="159" cy="761.4" fill="#84BE84" rx="1.8" ry="1.8" style="stroke:#038048;stroke-width:0.6;"/><text fill="#000000" font-family="sans-serif" font-size="6.6" lengthAdjust="spacing" textLength="97.2" x="164.4" y="764.0514">AddResult(refValue,result,metric)</text><!--MD5=[4e608140b854dae633589343bce77383]
class TestParameterResult--><rect codeLine="84" fill="#FEFECE" filter="url(#f16c65x3htzhgq)" height="53.7047" id="TestParameterResult" style="stroke:#A80036;stroke-width:0.8999999999999999;" width="90" x="316.8" y="722.4"/><ellipse cx="325.8" cy="732" fill="#ADD1B2" rx="6.6" ry="6.6" style="stroke:#A80036;stroke-width:0.6;"/><path d="M327,729.9 Q327.1219,729.6 327.2625,729.45 Q327.4031,729.3 327.5625,729.3 Q327.8438,729.3 328.0219,729.4688 Q328.2,729.6375 328.2,730.0313 L328.2,730.9688 Q328.2,731.3625 328.0313,731.5313 Q327.8625,731.7 327.6,731.7 Q327.3656,731.7 327.2156,731.5969 Q327.0656,731.4938 327,731.2219 Q326.9719,731.0344 326.8688,730.9313 Q326.6813,730.7344 326.3438,730.6219 Q326.0062,730.5 325.6688,730.5 Q325.2469,730.5 324.8906,730.6687 Q324.5438,730.8375 324.2719,731.2125 Q324,731.5875 324,732.1031 L324,732.6563 Q324,733.275 324.5062,733.6875 Q325.0125,734.1 325.9125,734.1 Q326.4469,734.1 326.8219,733.9781 Q327.0375,733.9125 327.2813,733.6969 Q327.4406,733.575 327.525,733.5375 Q327.6094,733.5 327.7125,733.5 Q327.9094,733.5 328.05,733.6594 Q328.2,733.8094 328.2,734.025 Q328.2,734.2312 327.9938,734.475 Q327.6937,734.8313 327.2156,735.0281 Q326.5875,735.3 325.8187,735.3 Q324.9188,735.3 324.1969,734.9438 Q323.6156,734.6625 323.2031,734.0531 Q322.8,733.4438 322.8,732.7219 L322.8,732.0656 Q322.8,731.3156 323.1563,730.6594 Q323.5219,730.0031 324.15,729.6563 Q324.7875,729.3 325.5,729.3 Q325.9313,729.3 326.3063,729.45 Q326.6813,729.6 327,729.9 Z " fill="#000000"/><text fill="#000000" font-family="sans-serif" font-size="7.2" lengthAdjust="spacing" textLength="70.8" x="334.2" y="734.9461">TestParameterResult</text><line style="stroke:#A80036;stroke-width:0.8999999999999999;" x1="317.4" x2="406.2" y1="741.6" y2="741.6"/><rect fill="none" height="3.6" style="stroke:#C82930;stroke-width:0.6;" width="3.6" x="321.6" y="746.4"/><text fill="#000000" font-family="sans-serif" font-size="6.6" lengthAdjust="spacing" textLength="28.8" x="328.8" y="750.8514">createdAt</text><rect fill="none" height="3.6" style="stroke:#C82930;stroke-width:0.6;" width="3.6" x="321.6" y="754.7016"/><text fill="#000000" font-family="sans-serif" font-size="6.6" lengthAdjust="spacing" textLength="15.6" x="328.8" y="759.1529">value</text><rect fill="none" height="3.6" style="stroke:#C82930;stroke-width:0.6;" width="3.6" x="321.6" y="763.0031"/><text fill="#000000" font-family="sans-serif" font-size="6.6" lengthAdjust="spacing" textLength="17.4" x="328.8" y="767.4545">metric</text><line style="stroke:#A80036;stroke-width:0.8999999999999999;" x1="317.4" x2="406.2" y1="771.3047" y2="771.3047"/><!--MD5=[df38be88ccee13e832d6fafd6288a4ca]
class Test--><rect codeLine="64" fill="#FEFECE" filter="url(#f16c65x3htzhgq)" height="95.2125" id="Test" style="stroke:#A80036;stroke-width:0.8999999999999999;" width="112.8" x="204.6" y="472.8"/><ellipse cx="251.25" cy="482.4" fill="#ADD1B2" rx="6.6" ry="6.6" style="stroke:#A80036;stroke-width:0.6;"/><path d="M252.45,480.3 Q252.5719,480 252.7125,479.85 Q252.8531,479.7 253.0125,479.7 Q253.2938,479.7 253.4719,479.8688 Q253.65,480.0375 253.65,480.4313 L253.65,481.3688 Q253.65,481.7625 253.4813,481.9313 Q253.3125,482.1 253.05,482.1 Q252.8156,482.1 252.6656,481.9969 Q252.5156,481.8937 252.45,481.6219 Q252.4219,481.4344 252.3188,481.3312 Q252.1313,481.1344 251.7938,481.0219 Q251.4562,480.9 251.1187,480.9 Q250.6969,480.9 250.3406,481.0687 Q249.9937,481.2375 249.7219,481.6125 Q249.45,481.9875 249.45,482.5031 L249.45,483.0563 Q249.45,483.675 249.9562,484.0875 Q250.4625,484.5 251.3625,484.5 Q251.8969,484.5 252.2719,484.3781 Q252.4875,484.3125 252.7313,484.0969 Q252.8906,483.975 252.975,483.9375 Q253.0594,483.9 253.1625,483.9 Q253.3594,483.9 253.5,484.0594 Q253.65,484.2094 253.65,484.425 Q253.65,484.6312 253.4438,484.875 Q253.1437,485.2313 252.6656,485.4281 Q252.0375,485.7 251.2687,485.7 Q250.3687,485.7 249.6469,485.3438 Q249.0656,485.0625 248.6531,484.4531 Q248.25,483.8438 248.25,483.1219 L248.25,482.4656 Q248.25,481.7156 248.6063,481.0594 Q248.9719,480.4031 249.6,480.0563 Q250.2375,479.7 250.95,479.7 Q251.3813,479.7 251.7563,479.85 Q252.1313,480 252.45,480.3 Z " fill="#000000"/><text fill="#000000" font-family="sans-serif" font-size="7.2" lengthAdjust="spacing" textLength="14.4" x="263.55" y="485.3461">Test</text><line style="stroke:#A80036;stroke-width:0.8999999999999999;" x1="205.2" x2="316.8" y1="492" y2="492"/><rect fill="none" height="3.6" style="stroke:#C82930;stroke-width:0.6;" width="3.6" x="209.4" y="496.8"/><text fill="#000000" font-family="sans-serif" font-size="6.6" lengthAdjust="spacing" textLength="15" x="216.6" y="501.2514">client</text><rect fill="none" height="3.6" style="stroke:#C82930;stroke-width:0.6;" width="3.6" x="209.4" y="505.1016"/><text fill="#000000" font-family="sans-serif" font-size="6.6" lengthAdjust="spacing" textLength="25.2" x="216.6" y="509.5529">nhscode</text><rect fill="none" height="3.6" style="stroke:#C82930;stroke-width:0.6;" width="3.6" x="209.4" y="513.4031"/><text fill="#000000" font-family="sans-serif" font-size="6.6" lengthAdjust="spacing" textLength="50.4" x="216.6" y="517.8545">testParameterList</text><rect fill="none" height="3.6" style="stroke:#C82930;stroke-width:0.6;" width="3.6" x="209.4" y="521.7047"/><text fill="#000000" font-family="sans-serif" font-size="6.6" lengthAdjust="spacing" textLength="34.2" x="216.6" y="526.1561">stateOfTest</text><rect fill="none" height="3.6" style="stroke:#C82930;stroke-width:0.6;" width="3.6" x="209.4" y="530.0063"/><text fill="#000000" font-family="sans-serif" font-size="6.6" lengthAdjust="spacing" textLength="36" x="216.6" y="534.4576">internalCode</text><rect fill="none" height="3.6" style="stroke:#C82930;stroke-width:0.6;" width="3.6" x="209.4" y="538.3078"/><text fill="#000000" font-family="sans-serif" font-size="6.6" lengthAdjust="spacing" textLength="28.8" x="216.6" y="542.7592">createdAt</text><line style="stroke:#A80036;stroke-width:0.8999999999999999;" x1="205.2" x2="316.8" y1="546.6094" y2="546.6094"/><ellipse cx="211.2" cy="553.2094" fill="#84BE84" rx="1.8" ry="1.8" style="stroke:#038048;stroke-width:0.6;"/><text fill="#000000" font-family="sans-serif" font-size="6.6" lengthAdjust="spacing" textLength="97.2" x="216.6" y="555.8607">AddResult(refValue,result,metric)</text><ellipse cx="211.2" cy="561.5109" fill="#84BE84" rx="1.8" ry="1.8" style="stroke:#038048;stroke-width:0.6;"/><text fill="#000000" font-family="sans-serif" font-size="6.6" lengthAdjust="spacing" textLength="53.4" x="216.6" y="564.1623">getParameterList()</text><!--MD5=[1f6362a5c8f21d8d6a0fce68f3a92a4e]
class Parameter--><rect codeLine="90" fill="#FEFECE" filter="url(#f16c65x3htzhgq)" height="53.7047" id="Parameter" style="stroke:#A80036;stroke-width:0.8999999999999999;" width="54" x="48" y="722.4"/><ellipse cx="57" cy="732" fill="#ADD1B2" rx="6.6" ry="6.6" style="stroke:#A80036;stroke-width:0.6;"/><path d="M58.2,729.9 Q58.3219,729.6 58.4625,729.45 Q58.6031,729.3 58.7625,729.3 Q59.0437,729.3 59.2219,729.4688 Q59.4,729.6375 59.4,730.0313 L59.4,730.9688 Q59.4,731.3625 59.2312,731.5313 Q59.0625,731.7 58.8,731.7 Q58.5656,731.7 58.4156,731.5969 Q58.2656,731.4938 58.2,731.2219 Q58.1719,731.0344 58.0687,730.9313 Q57.8812,730.7344 57.5437,730.6219 Q57.2063,730.5 56.8688,730.5 Q56.4469,730.5 56.0906,730.6687 Q55.7438,730.8375 55.4719,731.2125 Q55.2,731.5875 55.2,732.1031 L55.2,732.6563 Q55.2,733.275 55.7063,733.6875 Q56.2125,734.1 57.1125,734.1 Q57.6469,734.1 58.0219,733.9781 Q58.2375,733.9125 58.4812,733.6969 Q58.6406,733.575 58.725,733.5375 Q58.8094,733.5 58.9125,733.5 Q59.1094,733.5 59.25,733.6594 Q59.4,733.8094 59.4,734.025 Q59.4,734.2312 59.1937,734.475 Q58.8938,734.8313 58.4156,735.0281 Q57.7875,735.3 57.0188,735.3 Q56.1188,735.3 55.3969,734.9438 Q54.8156,734.6625 54.4031,734.0531 Q54,733.4438 54,732.7219 L54,732.0656 Q54,731.3156 54.3562,730.6594 Q54.7219,730.0031 55.35,729.6563 Q55.9875,729.3 56.7,729.3 Q57.1313,729.3 57.5063,729.45 Q57.8812,729.6 58.2,729.9 Z " fill="#000000"/><text fill="#000000" font-family="sans-serif" font-size="7.2" lengthAdjust="spacing" textLength="34.8" x="65.4" y="734.9461">Parameter</text><line style="stroke:#A80036;stroke-width:0.8999999999999999;" x1="48.6" x2="101.4" y1="741.6" y2="741.6"/><rect fill="none" height="3.6" style="stroke:#C82930;stroke-width:0.6;" width="3.6" x="52.8" y="746.4"/><text fill="#000000" font-family="sans-serif" font-size="6.6" lengthAdjust="spacing" textLength="14.4" x="60" y="750.8514">code</text><rect fill="none" height="3.6" style="stroke:#C82930;stroke-width:0.6;" width="3.6" x="52.8" y="754.7016"/><text fill="#000000" font-family="sans-serif" font-size="6.6" lengthAdjust="spacing" textLength="31.2" x="60" y="759.1529">shortName</text><rect fill="none" height="3.6" style="stroke:#C82930;stroke-width:0.6;" width="3.6" x="52.8" y="763.0031"/><text fill="#000000" font-family="sans-serif" font-size="6.6" lengthAdjust="spacing" textLength="31.8" x="60" y="767.4545">description</text><line style="stroke:#A80036;stroke-width:0.8999999999999999;" x1="48.6" x2="101.4" y1="771.3047" y2="771.3047"/><!--MD5=[1c357e7e7fdba398bcadd6e61afe49f5]
class ReferenceValue--><rect codeLine="99" fill="#FEFECE" filter="url(#f16c65x3htzhgq)" height="28.8" id="ReferenceValue" style="stroke:#A80036;stroke-width:0.8999999999999999;" width="72" x="454.8" y="735"/><ellipse cx="463.8" cy="744.6" fill="#ADD1B2" rx="6.6" ry="6.6" style="stroke:#A80036;stroke-width:0.6;"/><path d="M465,742.5 Q465.1219,742.2 465.2625,742.05 Q465.4031,741.9 465.5625,741.9 Q465.8438,741.9 466.0219,742.0688 Q466.2,742.2375 466.2,742.6313 L466.2,743.5688 Q466.2,743.9625 466.0313,744.1313 Q465.8625,744.3 465.6,744.3 Q465.3656,744.3 465.2156,744.1969 Q465.0656,744.0938 465,743.8219 Q464.9719,743.6344 464.8688,743.5313 Q464.6813,743.3344 464.3438,743.2219 Q464.0062,743.1 463.6688,743.1 Q463.2469,743.1 462.8906,743.2688 Q462.5438,743.4375 462.2719,743.8125 Q462,744.1875 462,744.7031 L462,745.2563 Q462,745.875 462.5062,746.2875 Q463.0125,746.7 463.9125,746.7 Q464.4469,746.7 464.8219,746.5781 Q465.0375,746.5125 465.2813,746.2969 Q465.4406,746.175 465.525,746.1375 Q465.6094,746.1 465.7125,746.1 Q465.9094,746.1 466.05,746.2594 Q466.2,746.4094 466.2,746.625 Q466.2,746.8313 465.9938,747.075 Q465.6937,747.4313 465.2156,747.6281 Q464.5875,747.9 463.8187,747.9 Q462.9188,747.9 462.1969,747.5437 Q461.6156,747.2625 461.2031,746.6531 Q460.8,746.0437 460.8,745.3219 L460.8,744.6656 Q460.8,743.9156 461.1563,743.2594 Q461.5219,742.6031 462.15,742.2563 Q462.7875,741.9 463.5,741.9 Q463.9313,741.9 464.3063,742.05 Q464.6813,742.2 465,742.5 Z " fill="#000000"/><text fill="#000000" font-family="sans-serif" font-size="7.2" lengthAdjust="spacing" textLength="52.8" x="472.2" y="747.5461">ReferenceValue</text><line style="stroke:#A80036;stroke-width:0.8999999999999999;" x1="455.4" x2="526.2" y1="754.2" y2="754.2"/><line style="stroke:#A80036;stroke-width:0.8999999999999999;" x1="455.4" x2="526.2" y1="759" y2="759"/><!--MD5=[0f6f7964b844a64b0496af0dda7914bd]
class TestStore--><rect codeLine="75" fill="#FEFECE" filter="url(#f16c65x3htzhgq)" height="37.1016" id="TestStore" style="stroke:#A80036;stroke-width:0.8999999999999999;" width="69.6" x="646.8" y="730.8"/><ellipse cx="664.17" cy="740.4" fill="#ADD1B2" rx="6.6" ry="6.6" style="stroke:#A80036;stroke-width:0.6;"/><path d="M665.37,738.3 Q665.4919,738 665.6325,737.85 Q665.7731,737.7 665.9325,737.7 Q666.2138,737.7 666.3919,737.8688 Q666.57,738.0375 666.57,738.4313 L666.57,739.3688 Q666.57,739.7625 666.4013,739.9313 Q666.2325,740.1 665.97,740.1 Q665.7356,740.1 665.5856,739.9969 Q665.4356,739.8938 665.37,739.6219 Q665.3419,739.4344 665.2388,739.3313 Q665.0513,739.1344 664.7138,739.0219 Q664.3763,738.9 664.0388,738.9 Q663.6169,738.9 663.2606,739.0688 Q662.9138,739.2375 662.6419,739.6125 Q662.37,739.9875 662.37,740.5031 L662.37,741.0563 Q662.37,741.675 662.8763,742.0875 Q663.3825,742.5 664.2825,742.5 Q664.8169,742.5 665.1919,742.3781 Q665.4075,742.3125 665.6513,742.0969 Q665.8106,741.975 665.895,741.9375 Q665.9794,741.9 666.0825,741.9 Q666.2794,741.9 666.42,742.0594 Q666.57,742.2094 666.57,742.425 Q666.57,742.6313 666.3638,742.875 Q666.0638,743.2312 665.5856,743.4281 Q664.9575,743.7 664.1888,743.7 Q663.2888,743.7 662.5669,743.3438 Q661.9856,743.0625 661.5731,742.4531 Q661.17,741.8438 661.17,741.1219 L661.17,740.4656 Q661.17,739.7156 661.5263,739.0594 Q661.8919,738.4031 662.52,738.0563 Q663.1575,737.7 663.87,737.7 Q664.3013,737.7 664.6763,737.85 Q665.0513,738 665.37,738.3 Z " fill="#000000"/><text fill="#000000" font-family="sans-serif" font-size="7.2" lengthAdjust="spacing" textLength="31.8" x="674.43" y="743.3461">TestStore</text><line style="stroke:#A80036;stroke-width:0.8999999999999999;" x1="647.4" x2="715.8" y1="750" y2="750"/><ellipse cx="653.4" cy="756.6" fill="none" rx="1.8" ry="1.8" style="stroke:#038048;stroke-width:0.6;"/><text fill="#000000" font-family="sans-serif" font-size="6.6" lengthAdjust="spacing" textLength="54" x="658.8" y="759.2514">getTestByBarcode</text><line style="stroke:#A80036;stroke-width:0.8999999999999999;" x1="647.4" x2="715.8" y1="763.1016" y2="763.1016"/><!--MD5=[ab6fcce6d49d940c28db8ba495cfa0ae]
class RecordResultsController--><rect codeLine="55" fill="#FEFECE" filter="url(#f16c65x3htzhgq)" height="45.4031" id="RecordResultsController" style="stroke:#A80036;stroke-width:0.8999999999999999;" width="142.2" x="947.1" y="105"/><ellipse cx="974.55" cy="114.6" fill="#ADD1B2" rx="6.6" ry="6.6" style="stroke:#A80036;stroke-width:0.6;"/><path d="M975.75,112.5 Q975.8719,112.2 976.0125,112.05 Q976.1531,111.9 976.3125,111.9 Q976.5938,111.9 976.7719,112.0688 Q976.95,112.2375 976.95,112.6313 L976.95,113.5688 Q976.95,113.9625 976.7813,114.1313 Q976.6125,114.3 976.35,114.3 Q976.1156,114.3 975.9656,114.1969 Q975.8156,114.0938 975.75,113.8219 Q975.7219,113.6344 975.6188,113.5313 Q975.4313,113.3344 975.0938,113.2219 Q974.7562,113.1 974.4187,113.1 Q973.9969,113.1 973.6406,113.2688 Q973.2937,113.4375 973.0219,113.8125 Q972.75,114.1875 972.75,114.7031 L972.75,115.2563 Q972.75,115.875 973.2562,116.2875 Q973.7625,116.7 974.6625,116.7 Q975.1969,116.7 975.5719,116.5781 Q975.7875,116.5125 976.0313,116.2969 Q976.1906,116.175 976.275,116.1375 Q976.3594,116.1 976.4625,116.1 Q976.6594,116.1 976.8,116.2594 Q976.95,116.4094 976.95,116.625 Q976.95,116.8313 976.7438,117.075 Q976.4437,117.4312 975.9656,117.6281 Q975.3375,117.9 974.5687,117.9 Q973.6687,117.9 972.9469,117.5437 Q972.3656,117.2625 971.9531,116.6531 Q971.55,116.0437 971.55,115.3219 L971.55,114.6656 Q971.55,113.9156 971.9063,113.2594 Q972.2719,112.6031 972.9,112.2563 Q973.5375,111.9 974.25,111.9 Q974.6813,111.9 975.0563,112.05 Q975.4313,112.2 975.75,112.5 Z " fill="#000000"/><text fill="#000000" font-family="sans-serif" font-size="7.2" lengthAdjust="spacing" textLength="82.2" x="986.85" y="117.5461">RecordResultsController</text><line style="stroke:#A80036;stroke-width:0.8999999999999999;" x1="947.7" x2="1088.7" y1="124.2" y2="124.2"/><line style="stroke:#A80036;stroke-width:0.8999999999999999;" x1="947.7" x2="1088.7" y1="129" y2="129"/><ellipse cx="953.7" cy="135.6" fill="#84BE84" rx="1.8" ry="1.8" style="stroke:#038048;stroke-width:0.6;"/><text fill="#000000" font-family="sans-serif" font-size="6.6" lengthAdjust="spacing" textLength="66" x="959.1" y="138.2514">getTestParameterList()</text><ellipse cx="953.7" cy="143.9016" fill="#84BE84" rx="1.8" ry="1.8" style="stroke:#038048;stroke-width:0.6;"/><text fill="#000000" font-family="sans-serif" font-size="6.6" lengthAdjust="spacing" textLength="126.6" x="959.1" y="146.5529">AddResult(parameterSelected,result,metric)</text><!--MD5=[050b4c4f5a6f983888d2a8b4ff566d24]
class RecordResultsUI--><rect codeLine="51" fill="#FEFECE" filter="url(#f16c65x3htzhgq)" height="28.8" id="RecordResultsUI" style="stroke:#A80036;stroke-width:0.8999999999999999;" width="76.2" x="1311.9" y="25.2"/><ellipse cx="1320.9" cy="34.8" fill="#ADD1B2" rx="6.6" ry="6.6" style="stroke:#A80036;stroke-width:0.6;"/><path d="M1322.1,32.7 Q1322.2219,32.4 1322.3625,32.25 Q1322.5031,32.1 1322.6625,32.1 Q1322.9438,32.1 1323.1219,32.2688 Q1323.3,32.4375 1323.3,32.8313 L1323.3,33.7688 Q1323.3,34.1625 1323.1313,34.3313 Q1322.9625,34.5 1322.7,34.5 Q1322.4656,34.5 1322.3156,34.3969 Q1322.1656,34.2937 1322.1,34.0219 Q1322.0719,33.8344 1321.9688,33.7312 Q1321.7813,33.5344 1321.4438,33.4219 Q1321.1063,33.3 1320.7688,33.3 Q1320.3469,33.3 1319.9906,33.4688 Q1319.6438,33.6375 1319.3719,34.0125 Q1319.1,34.3875 1319.1,34.9031 L1319.1,35.4563 Q1319.1,36.075 1319.6063,36.4875 Q1320.1125,36.9 1321.0125,36.9 Q1321.5469,36.9 1321.9219,36.7781 Q1322.1375,36.7125 1322.3813,36.4969 Q1322.5406,36.375 1322.625,36.3375 Q1322.7094,36.3 1322.8125,36.3 Q1323.0094,36.3 1323.15,36.4594 Q1323.3,36.6094 1323.3,36.825 Q1323.3,37.0313 1323.0938,37.275 Q1322.7938,37.6313 1322.3156,37.8281 Q1321.6875,38.1 1320.9188,38.1 Q1320.0188,38.1 1319.2969,37.7438 Q1318.7156,37.4625 1318.3031,36.8531 Q1317.9,36.2438 1317.9,35.5219 L1317.9,34.8656 Q1317.9,34.1156 1318.2563,33.4594 Q1318.6219,32.8031 1319.25,32.4563 Q1319.8875,32.1 1320.6,32.1 Q1321.0313,32.1 1321.4063,32.25 Q1321.7813,32.4 1322.1,32.7 Z " fill="#000000"/><text fill="#000000" font-family="sans-serif" font-size="7.2" lengthAdjust="spacing" textLength="57" x="1329.3" y="37.7461">RecordResultsUI</text><line style="stroke:#A80036;stroke-width:0.8999999999999999;" x1="1312.5" x2="1387.5" y1="44.4" y2="44.4"/><line style="stroke:#A80036;stroke-width:0.8999999999999999;" x1="1312.5" x2="1387.5" y1="49.2" y2="49.2"/><!--MD5=[3658f24f54b6913ac92069b502cb15eb]
link RecordResultsUI to RecordResultsController--><path codeLine="132" d="M1311.774,50.22 C1258.38,64.224 1160.388,89.916 1092.378,107.748 " fill="none" id="RecordResultsUI-to-RecordResultsController" style="stroke:#A80036;stroke-width:0.6;stroke-dasharray:7.0,7.0;"/><polygon fill="#A80036" points="1089.366,108.54,1095.1991,109.4859,1092.2671,107.7761,1093.9769,104.8441,1089.366,108.54" style="stroke:#A80036;stroke-width:0.6;"/><!--MD5=[2d6b833a27debd45e4fa1ed68d23b74c]
link RecordResultsUI to TestParameterDTO--><path codeLine="133" d="M1359.606,54.09 C1375.854,79.464 1404.642,134.046 1379.4,170.4 C1308.552,272.43 1148.808,295.74 1070.454,300.966 " fill="none" id="RecordResultsUI-to-TestParameterDTO" style="stroke:#A80036;stroke-width:0.6;stroke-dasharray:7.0,7.0;"/><polygon fill="#A80036" points="1067.244,301.17,1072.7839,303.2265,1070.2381,300.9818,1072.4828,298.436,1067.244,301.17" style="stroke:#A80036;stroke-width:0.6;"/><!--MD5=[d684bc00c1ddfb53475dc496608bab12]
link RecordResultsController to Company--><path codeLine="134" d="M946.992,130.194 C832.104,135.048 618.6,153.024 618.6,219.6 C618.6,219.6 618.6,219.6 618.6,370.2 C618.6,415.122 601.95,465.246 590.412,494.598 " fill="none" id="RecordResultsController-to-Company" style="stroke:#A80036;stroke-width:0.6;stroke-dasharray:7.0,7.0;"/><polygon fill="#A80036" points="589.242,497.55,593.4605,493.4119,590.3458,494.7605,588.9973,491.6458,589.242,497.55" style="stroke:#A80036;stroke-width:0.6;"/><!--MD5=[9a4cf5053e8a49c90f5c97ee16a1f640]
link RecordResultsController to TestParameterMapper--><path codeLine="135" d="M1018.2,150.708 C1018.2,165.222 1018.2,184.032 1018.2,198.336 " fill="none" id="RecordResultsController-to-TestParameterMapper" style="stroke:#A80036;stroke-width:0.6;stroke-dasharray:7.0,7.0;"/><polygon fill="#A80036" points="1018.2,201.498,1020.6,196.098,1018.2,198.498,1015.8,196.098,1018.2,201.498" style="stroke:#A80036;stroke-width:0.6;"/><!--MD5=[618a5f472619b17b01cf55c6072cef5f]
link RecordResultsController to Test--><path codeLine="136" d="M947.088,131.55 C784.512,139.704 399.6,164.796 399.6,219.6 C399.6,219.6 399.6,219.6 399.6,370.2 C399.6,397.338 364.068,376.248 343.2,393.6 C318.402,414.216 298.428,444.258 284.382,469.872 " fill="none" id="RecordResultsController-to-Test" style="stroke:#A80036;stroke-width:0.6;stroke-dasharray:7.0,7.0;"/><polygon fill="#A80036" points="282.87,472.65,287.5677,469.065,284.3102,470.0183,283.3569,466.7608,282.87,472.65" style="stroke:#A80036;stroke-width:0.6;"/><!--MD5=[dc41caf219a17b0a23cdf29d9b1d1469]
link RecordResultsController to TestStore--><path codeLine="137" d="M1089.39,132.804 C1190.562,141.042 1363.8,163.362 1363.8,219.6 C1363.8,219.6 1363.8,219.6 1363.8,647.4 C1363.8,713.034 863.376,740.622 719.724,747.192 " fill="none" id="RecordResultsController-to-TestStore" style="stroke:#A80036;stroke-width:0.6;stroke-dasharray:7.0,7.0;"/><polygon fill="#A80036" points="716.604,747.33,722.1082,749.4802,719.6009,747.1926,721.8884,744.6852,716.604,747.33" style="stroke:#A80036;stroke-width:0.6;"/><!--MD5=[7f6cf7f175eae0af66201860de5de971]
link Company to TestStore--><path codeLine="138" d="M580.674,543.408 C581.958,558.834 584.784,579.624 591,597 C609.114,647.634 644.874,700.062 665.64,728.118 " fill="none" id="Company-to-TestStore" style="stroke:#A80036;stroke-width:0.6;"/><polygon fill="#A80036" points="667.476,730.59,666.179,724.8248,665.6856,728.1828,662.3276,727.6894,667.476,730.59" style="stroke:#A80036;stroke-width:0.6;"/><text fill="#000000" font-family="sans-serif" font-size="7.8" lengthAdjust="spacing" textLength="16.8" x="642" y="650.0971">uses</text><!--MD5=[886f81fd36c1ffd754dcf922ff388f49]
link TestParameterMapper to TestParameter--><path codeLine="139" d="M971.532,223.074 C883.038,228.666 699.6,246.942 699.6,302.4 C699.6,302.4 699.6,302.4 699.6,647.4 C699.6,673.482 687.384,682.254 664.2,694.2 C628.866,712.41 345.324,695.442 306.6,704.4 C284.352,709.548 261.006,719.934 242.706,729.366 " fill="none" id="TestParameterMapper-to-TestParameter" style="stroke:#A80036;stroke-width:0.6;stroke-dasharray:7.0,7.0;"/><polygon fill="#A80036" points="240.042,730.746,245.9404,730.387,242.7044,729.3633,243.7281,726.1272,240.042,730.746" style="stroke:#A80036;stroke-width:0.6;"/><!--MD5=[6f2bb5e90fbe30ae2ed765a858b518f3]
link TestParameterMapper to TestParameterDTO--><path codeLine="140" d="M1019.796,238.908 C1021.02,252.732 1022.688,271.65 1023.888,285.234 " fill="none" id="TestParameterMapper-to-TestParameterDTO" style="stroke:#A80036;stroke-width:0.6;stroke-dasharray:7.0,7.0;"/><polygon fill="#A80036" points="1024.164,288.39,1026.0754,282.7983,1023.8978,285.4018,1021.2943,283.2242,1024.164,288.39" style="stroke:#A80036;stroke-width:0.6;"/><!--MD5=[71e6920dcc27afae8f25537cd5357b5f]
link TestType to ExternalModule--><path codeLine="141" d="M506.874,559.878 C513.684,562.98 520.602,565.824 527.4,568.2 C649.278,610.824 799.482,631.452 884.148,640.35 " fill="none" id="TestType-to-ExternalModule" style="stroke:#A80036;stroke-width:0.6;"/><polygon fill="#A80036" points="887.382,640.692,882.2576,637.7491,884.3979,640.3833,881.7637,642.5236,887.382,640.692" style="stroke:#A80036;stroke-width:0.6;"/><text fill="#000000" font-family="sans-serif" font-size="7.8" lengthAdjust="spacing" textLength="46.8" x="618" y="594.8971">makes use of</text><text fill="#000000" font-family="sans-serif" font-size="7.8" lengthAdjust="spacing" textLength="3" x="511.1118" y="572.8181">*</text><text fill="#000000" font-family="sans-serif" font-size="7.8" lengthAdjust="spacing" textLength="4.2" x="878.3999" y="638.3994">1</text><!--MD5=[b0f4f6db8206580012ef9cd998ed01c5]
link TestStore to Test--><path codeLine="142" d="M646.674,735.114 C620.946,724.698 585.312,709.584 555,694.2 C471.336,651.738 378.654,595.554 320.136,558.882 " fill="none" id="TestStore-to-Test" style="stroke:#A80036;stroke-width:0.6;"/><polygon fill="#A80036" points="317.55,557.262,320.8527,562.1622,320.0926,558.8543,323.4004,558.0941,317.55,557.262" style="stroke:#A80036;stroke-width:0.6;"/><text fill="#000000" font-family="sans-serif" font-size="7.8" lengthAdjust="spacing" textLength="31.8" x="555.6" y="650.0971">conducts</text><text fill="#000000" font-family="sans-serif" font-size="7.8" lengthAdjust="spacing" textLength="4.2" x="637.73" y="731.1855">1</text><text fill="#000000" font-family="sans-serif" font-size="7.8" lengthAdjust="spacing" textLength="3" x="322.1759" y="558.3219">*</text><!--MD5=[e981d4f96c4342412d1e68160b30cf70]
link Test to TestType--><path codeLine="143" d="M317.628,520.5 C328.11,520.5 339.282,520.5 350.448,520.5 " fill="none" id="Test-to-TestType" style="stroke:#A80036;stroke-width:0.6;"/><polygon fill="#A80036" points="353.598,520.5,348.198,518.1,350.598,520.5,348.198,522.9,353.598,520.5" style="stroke:#A80036;stroke-width:0.6;"/><text fill="#000000" font-family="sans-serif" font-size="7.8" lengthAdjust="spacing" textLength="14.4" x="328.35" y="516.5971">is of</text><text fill="#000000" font-family="sans-serif" font-size="7.8" lengthAdjust="spacing" textLength="3" x="322.2601" y="518.6304">*</text><text fill="#000000" font-family="sans-serif" font-size="7.8" lengthAdjust="spacing" textLength="4.2" x="344.6018" y="518.7401">1</text><!--MD5=[f24c888dadeb846430474fe80a58922b]
link Test to TestParameter--><path codeLine="144" d="M250.182,568.278 C238.944,617.31 221.862,691.818 213.606,727.842 " fill="none" id="Test-to-TestParameter" style="stroke:#A80036;stroke-width:0.6;"/><polygon fill="#A80036" points="212.928,730.788,216.4717,726.0591,213.5969,727.8635,211.7925,724.9888,212.928,730.788" style="stroke:#A80036;stroke-width:0.6;"/><text fill="#000000" font-family="sans-serif" font-size="7.8" lengthAdjust="spacing" textLength="69.6" x="243" y="650.0971">requests analysis of</text><text fill="#000000" font-family="sans-serif" font-size="7.8" lengthAdjust="spacing" textLength="4.2" x="244.8719" y="580.9106">1</text><text fill="#000000" font-family="sans-serif" font-size="7.8" lengthAdjust="spacing" textLength="12" x="200.5185" y="724.1975">1..*</text><!--MD5=[ad334d1782af96659f761ffdd3e3c1a7]
reverse link Parameter to TestParameter--><path codeLine="145" d="M105.174,749.4 C119.082,749.4 136.05,749.4 152.202,749.4 " fill="none" id="Parameter-backto-TestParameter" style="stroke:#A80036;stroke-width:0.6;"/><polygon fill="#A80036" points="102.078,749.4,107.478,751.8,105.078,749.4,107.478,747,102.078,749.4" style="stroke:#A80036;stroke-width:0.6;"/><text fill="#000000" font-family="sans-serif" font-size="7.8" lengthAdjust="spacing" textLength="28.2" x="113.1" y="745.4971">refers to</text><text fill="#000000" font-family="sans-serif" font-size="7.8" lengthAdjust="spacing" textLength="4.2" x="106.7282" y="747.1724">1</text><text fill="#000000" font-family="sans-serif" font-size="7.8" lengthAdjust="spacing" textLength="3" x="144.5723" y="747.5269">*</text><!--MD5=[0e00e25ac6b8c14659aaff2cf7e5df08]
link TestParameter to TestParameterResult--><path codeLine="146" d="M265.338,749.4 C281.22,749.4 298.332,749.4 313.674,749.4 " fill="none" id="TestParameter-to-TestParameterResult" style="stroke:#A80036;stroke-width:0.6;"/><polygon fill="#A80036" points="316.716,749.4,311.316,747,313.716,749.4,311.316,751.8,316.716,749.4" style="stroke:#A80036;stroke-width:0.6;"/><text fill="#000000" font-family="sans-serif" font-size="7.8" lengthAdjust="spacing" textLength="29.4" x="276.3" y="745.4971">contains</text><text fill="#000000" font-family="sans-serif" font-size="7.8" lengthAdjust="spacing" textLength="4.2" x="270.0107" y="747.5269">1</text><text fill="#000000" font-family="sans-serif" font-size="7.8" lengthAdjust="spacing" textLength="13.2" x="298.7514" y="757.9629">0..1</text><!--MD5=[52200cc2361fa0ac0481dd6ffcdb824b]
link TestParameterResult to ReferenceValue--><path codeLine="147" d="M406.92,749.4 C421.44,749.4 437.406,749.4 451.482,749.4 " fill="none" id="TestParameterResult-to-ReferenceValue" style="stroke:#A80036;stroke-width:0.6;"/><polygon fill="#A80036" points="454.638,749.4,449.238,747,451.638,749.4,449.238,751.8,454.638,749.4" style="stroke:#A80036;stroke-width:0.6;"/><text fill="#000000" font-family="sans-serif" font-size="7.8" lengthAdjust="spacing" textLength="25.8" x="417.9" y="745.4971">records</text><text fill="#000000" font-family="sans-serif" font-size="7.8" lengthAdjust="spacing" textLength="4.2" x="411.5682" y="747.4495">1</text><text fill="#000000" font-family="sans-serif" font-size="7.8" lengthAdjust="spacing" textLength="4.2" x="445.7748" y="747.3249">1</text><!--MD5=[1969cf158af301a795793022589ae6a7]
link CovidReferenceValues1APIAdapter to ExternalModule--><path codeLine="148" d="M1208.454,539.16 C1190.094,548.196 1167.306,559.11 1146.6,568.2 C1101.258,588.102 1049.13,608.724 1010.01,623.76 " fill="none" id="CovidReferenceValues1APIAdapter-to-ExternalModule" style="stroke:#A80036;stroke-width:0.6;stroke-dasharray:7.0,7.0;"/><polygon fill="none" points="1011.276,627.768,998.568,628.14,1008.27,619.926,1011.276,627.768" style="stroke:#A80036;stroke-width:0.6;"/><!--MD5=[9a6bef74363d2f0953277aeba5ec4cf6]
link ExternalModule2APIAdapter to ExternalModule--><path codeLine="149" d="M1033.98,539.292 C1017.672,560.148 990.762,594.57 971.898,618.702 " fill="none" id="ExternalModule2APIAdapter-to-ExternalModule" style="stroke:#A80036;stroke-width:0.6;stroke-dasharray:7.0,7.0;"/><polygon fill="none" points="975.18,621.324,964.482,628.188,968.562,616.152,975.18,621.324" style="stroke:#A80036;stroke-width:0.6;"/><!--MD5=[0264bf6bfbf3b8dca394df376ee13808]
link ExternalModule3APIAdapter to ExternalModule--><path codeLine="150" d="M866.31,539.292 C882.714,560.148 909.786,594.57 928.77,618.702 " fill="none" id="ExternalModule3APIAdapter-to-ExternalModule" style="stroke:#A80036;stroke-width:0.6;stroke-dasharray:7.0,7.0;"/><polygon fill="none" points="932.118,616.164,936.234,628.188,925.512,621.354,932.118,616.164" style="stroke:#A80036;stroke-width:0.6;"/><!--MD5=[f9b06ca2d286bd38a2dc2ba3024f1763]
@startuml


package adapter{
class CovidReferenceValues1APIAdapter
class ExternalModule2APIAdapter
class ExternalModule3APIAdapter
package interface{
class ExternalModule
}
}
package mappers{
class TestParameterMapper
package dto{
class TestParameterDTO
}
}

package domain{
package model{
class Company
package testRelated {
class TestType
class TestParameter
class TestParameterResult
class Test
class Parameter
class ReferenceValue
}
}
package store{
class TestStore
}
}


package controller{
class RecordResultsController
}
package ui{
class RecordResultsUI
}




class Company{
-String designation
+getTestStore()
}

class RecordResultsUI{

}

class RecordResultsController{
+getTestParameterList()
+AddResult(parameterSelected,result,metric)
}

class TestParameterMapper{
+ToDTO(TestParameterList)
}

class Test {
-client
-nhscode
-testParameterList
-stateOfTest
-internalCode
-createdAt
+AddResult(refValue,result,metric)
+getParameterList()
}

class TestStore{
+getTestByBarcode
}

class TestParameter{
+AddResult(refValue,result,metric)
}


class TestParameterResult{
-createdAt
-value
-metric
}

class Parameter{
-code
-shortName
-description
}

class TestParameterDTO{
}

class ReferenceValue{

}

class TestType{
  -String code
  -String description
  -String collectingMethod
  -List<ParameterCategories> listOfParameterCategories
  -String referenceAdapter
  +getExternalModule()

}

class ExternalModule2APIAdapter{
 +ReferenceValue getReferenceValue(Parameter param)
}

class ExternalModule3APIAdapter{
 +ReferenceValue getReferenceValue(Parameter param)
}

class CovidReferenceValues1APIAdapter{
 +ReferenceValue getReferenceValue(Parameter param)
}


interface ExternalModule{
+getReferenceValue(Parameter param)
}



RecordResultsUI ..> RecordResultsController
RecordResultsUI ..> TestParameterDTO
RecordResultsController ..> Company
RecordResultsController ..> TestParameterMapper
RecordResultsController ..> Test
RecordResultsController ..> TestStore
Company - - -> TestStore : uses
TestParameterMapper ......> TestParameter
TestParameterMapper ..> TestParameterDTO
TestType"*" - -> "1" ExternalModule : makes use of
TestStore "1" -> "*" Test : conducts
Test "*" -> "1" TestType : is of
Test "1" - - -> "1..*" TestParameter : requests analysis of
Parameter "1" <- "*" TestParameter : refers to
TestParameter "1" -> "0..1" TestParameterResult : contains
TestParameterResult "1" -> "1" ReferenceValue :records
CovidReferenceValues1APIAdapter ..|> ExternalModule
ExternalModule2APIAdapter ..|> ExternalModule
ExternalModule3APIAdapter ..|> ExternalModule



@enduml

PlantUML version 1.2021.00(Sun Jan 10 10:25:05 GMT 2021)
(GPL source distribution)
Java Runtime: OpenJDK Runtime Environment
JVM: OpenJDK 64-Bit Server VM
Default Encoding: Cp1252
Language: pt
Country: PT
--></g></svg>