<?xml version="1.0" encoding="UTF-8" standalone="no"?><svg xmlns="http://www.w3.org/2000/svg" xmlns:xlink="http://www.w3.org/1999/xlink" contentScriptType="application/ecmascript" contentStyleType="text/css" height="684.6px" preserveAspectRatio="none" style="width:818px;height:684px;" version="1.1" viewBox="0 0 818 684" width="818.4px" zoomAndPan="magnify"><defs><filter height="300%" id="f134jis4xe2t38" width="300%" x="-1" y="-1"><feGaussianBlur result="blurOut" stdDeviation="1.2"/><feColorMatrix in="blurOut" result="blurOut2" type="matrix" values="0 0 0 0 0 0 0 0 0 0 0 0 0 0 0 0 0 0 .4 0"/><feOffset dx="2.4" dy="2.4" in="blurOut2" result="blurOut3"/><feBlend in="SourceGraphic" in2="blurOut3" mode="normal"/></filter></defs><g><!--MD5=[9681dc6e01e10c6b4fe06895ae94f592]
cluster UI--><polygon fill="#FFFFFF" filter="url(#f134jis4xe2t38)" points="637.2,3.6,649.2,3.6,653.4,17.7656,747.6,17.7656,747.6,63.6,637.2,63.6,637.2,3.6" style="stroke:#000000;stroke-width:0.8999999999999999;"/><line style="stroke:#000000;stroke-width:0.8999999999999999;" x1="637.2" x2="653.4" y1="17.7656" y2="17.7656"/><text fill="#000000" font-family="sans-serif" font-size="8.4" font-weight="bold" lengthAdjust="spacing" textLength="8.4" x="639.6" y="13.5199">UI</text><!--MD5=[1f2cfc53d9d308f53762fd0fcbaa4873]
cluster Controller--><polygon fill="#FFFFFF" filter="url(#f134jis4xe2t38)" points="361.2,83.4,407.4,83.4,411.6,97.5656,499.2,97.5656,499.2,168.6,361.2,168.6,361.2,83.4" style="stroke:#000000;stroke-width:0.8999999999999999;"/><line style="stroke:#000000;stroke-width:0.8999999999999999;" x1="361.2" x2="411.6" y1="97.5656" y2="97.5656"/><text fill="#000000" font-family="sans-serif" font-size="8.4" font-weight="bold" lengthAdjust="spacing" textLength="42.6" x="363.6" y="93.3199">Controller</text><!--MD5=[15636c1ca4a123c16a2a1a8e90aca7a9]
cluster Model--><polygon fill="#FFFFFF" filter="url(#f134jis4xe2t38)" points="159.6,297.6,189.6,297.6,193.8,311.7656,365.4,311.7656,365.4,680.4,159.6,680.4,159.6,297.6" style="stroke:#000000;stroke-width:0.8999999999999999;"/><line style="stroke:#000000;stroke-width:0.8999999999999999;" x1="159.6" x2="193.8" y1="311.7656" y2="311.7656"/><text fill="#000000" font-family="sans-serif" font-size="8.4" font-weight="bold" lengthAdjust="spacing" textLength="26.4" x="162" y="307.5199">Model</text><!--MD5=[7ce1723ddb6e6233854253973eae5a71]
cluster Store--><polygon fill="#FFFFFF" filter="url(#f134jis4xe2t38)" points="9.6,465.9,36,465.9,40.2,480.0656,145.2,480.0656,145.2,542.7,9.6,542.7,9.6,465.9" style="stroke:#000000;stroke-width:0.8999999999999999;"/><line style="stroke:#000000;stroke-width:0.8999999999999999;" x1="9.6" x2="40.2" y1="480.0656" y2="480.0656"/><text fill="#000000" font-family="sans-serif" font-size="8.4" font-weight="bold" lengthAdjust="spacing" textLength="22.8" x="12" y="475.8199">Store</text><!--MD5=[701152d03fbf85133a1de050cfdbc7fd]
cluster Mappers--><polygon fill="#FFFFFF" filter="url(#f134jis4xe2t38)" points="391.2,188.4,432,188.4,436.2,202.5656,583.2,202.5656,583.2,265.2,391.2,265.2,391.2,188.4" style="stroke:#000000;stroke-width:0.8999999999999999;"/><line style="stroke:#000000;stroke-width:0.8999999999999999;" x1="391.2" x2="436.2" y1="202.5656" y2="202.5656"/><text fill="#000000" font-family="sans-serif" font-size="8.4" font-weight="bold" lengthAdjust="spacing" textLength="37.2" x="393.6" y="198.3199">Mappers</text><!--MD5=[7b8bc9ee8bb84b99fb3a3f9477c19238]
cluster DTO--><polygon fill="#FFFFFF" filter="url(#f134jis4xe2t38)" points="478.2,285,499.2,285,503.4,299.1656,808.2,299.1656,808.2,420,478.2,420,478.2,285" style="stroke:#000000;stroke-width:0.8999999999999999;"/><line style="stroke:#000000;stroke-width:0.8999999999999999;" x1="478.2" x2="503.4" y1="299.1656" y2="299.1656"/><text fill="#000000" font-family="sans-serif" font-size="8.4" font-weight="bold" lengthAdjust="spacing" textLength="17.4" x="480.6" y="294.9199">DTO</text><!--MD5=[e4ec2e7ae8016ed7f2a23175278300b9]
class WriteMedicalReportUI--><rect codeLine="3" fill="#FEFECE" filter="url(#f134jis4xe2t38)" height="28.8" id="WriteMedicalReportUI" style="stroke:#A80036;stroke-width:0.8999999999999999;" width="90.6" x="647.1" y="25.2"/><ellipse cx="656.1" cy="34.8" fill="#ADD1B2" rx="6.6" ry="6.6" style="stroke:#A80036;stroke-width:0.6;"/><path d="M657.3,32.7 Q657.4219,32.4 657.5625,32.25 Q657.7031,32.1 657.8625,32.1 Q658.1438,32.1 658.3219,32.2688 Q658.5,32.4375 658.5,32.8313 L658.5,33.7688 Q658.5,34.1625 658.3313,34.3313 Q658.1625,34.5 657.9,34.5 Q657.6656,34.5 657.5156,34.3969 Q657.3656,34.2937 657.3,34.0219 Q657.2719,33.8344 657.1687,33.7312 Q656.9812,33.5344 656.6438,33.4219 Q656.3063,33.3 655.9688,33.3 Q655.5469,33.3 655.1906,33.4688 Q654.8438,33.6375 654.5719,34.0125 Q654.3,34.3875 654.3,34.9031 L654.3,35.4563 Q654.3,36.075 654.8063,36.4875 Q655.3125,36.9 656.2125,36.9 Q656.7469,36.9 657.1219,36.7781 Q657.3375,36.7125 657.5813,36.4969 Q657.7406,36.375 657.825,36.3375 Q657.9094,36.3 658.0125,36.3 Q658.2094,36.3 658.35,36.4594 Q658.5,36.6094 658.5,36.825 Q658.5,37.0313 658.2937,37.275 Q657.9938,37.6313 657.5156,37.8281 Q656.8875,38.1 656.1188,38.1 Q655.2188,38.1 654.4969,37.7438 Q653.9156,37.4625 653.5031,36.8531 Q653.1,36.2438 653.1,35.5219 L653.1,34.8656 Q653.1,34.1156 653.4563,33.4594 Q653.8219,32.8031 654.45,32.4563 Q655.0875,32.1 655.8,32.1 Q656.2312,32.1 656.6062,32.25 Q656.9812,32.4 657.3,32.7 Z " fill="#000000"/><text fill="#000000" font-family="sans-serif" font-size="7.2" lengthAdjust="spacing" textLength="71.4" x="664.5" y="37.7461">WriteMedicalReportUI</text><line style="stroke:#A80036;stroke-width:0.8999999999999999;" x1="647.7" x2="737.1" y1="44.4" y2="44.4"/><line style="stroke:#A80036;stroke-width:0.8999999999999999;" x1="647.7" x2="737.1" y1="49.2" y2="49.2"/><!--MD5=[4304a37fa14ad02974e6bd4bd1961bd7]
class WriteMedicalReportController--><rect codeLine="8" fill="#FEFECE" filter="url(#f134jis4xe2t38)" height="53.7047" id="WriteMedicalReportController" style="stroke:#A80036;stroke-width:0.8999999999999999;" width="118.8" x="370.8" y="105"/><ellipse cx="381.15" cy="114.6" fill="#ADD1B2" rx="6.6" ry="6.6" style="stroke:#A80036;stroke-width:0.6;"/><path d="M382.35,112.5 Q382.4719,112.2 382.6125,112.05 Q382.7531,111.9 382.9125,111.9 Q383.1937,111.9 383.3719,112.0688 Q383.55,112.2375 383.55,112.6313 L383.55,113.5688 Q383.55,113.9625 383.3812,114.1313 Q383.2125,114.3 382.95,114.3 Q382.7156,114.3 382.5656,114.1969 Q382.4156,114.0938 382.35,113.8219 Q382.3219,113.6344 382.2188,113.5313 Q382.0313,113.3344 381.6937,113.2219 Q381.3563,113.1 381.0188,113.1 Q380.5969,113.1 380.2406,113.2688 Q379.8938,113.4375 379.6219,113.8125 Q379.35,114.1875 379.35,114.7031 L379.35,115.2563 Q379.35,115.875 379.8563,116.2875 Q380.3625,116.7 381.2625,116.7 Q381.7969,116.7 382.1719,116.5781 Q382.3875,116.5125 382.6312,116.2969 Q382.7906,116.175 382.875,116.1375 Q382.9594,116.1 383.0625,116.1 Q383.2594,116.1 383.4,116.2594 Q383.55,116.4094 383.55,116.625 Q383.55,116.8313 383.3438,117.075 Q383.0438,117.4312 382.5656,117.6281 Q381.9375,117.9 381.1688,117.9 Q380.2688,117.9 379.5469,117.5437 Q378.9656,117.2625 378.5531,116.6531 Q378.15,116.0437 378.15,115.3219 L378.15,114.6656 Q378.15,113.9156 378.5062,113.2594 Q378.8719,112.6031 379.5,112.2563 Q380.1375,111.9 380.85,111.9 Q381.2813,111.9 381.6563,112.05 Q382.0313,112.2 382.35,112.5 Z " fill="#000000"/><text fill="#000000" font-family="sans-serif" font-size="7.2" lengthAdjust="spacing" textLength="96.6" x="389.85" y="117.5461">WriteMedicalReportController</text><line style="stroke:#A80036;stroke-width:0.8999999999999999;" x1="371.4" x2="489" y1="124.2" y2="124.2"/><line style="stroke:#A80036;stroke-width:0.8999999999999999;" x1="371.4" x2="489" y1="129" y2="129"/><ellipse cx="377.4" cy="135.6" fill="#84BE84" rx="1.8" ry="1.8" style="stroke:#038048;stroke-width:0.6;"/><text fill="#000000" font-family="sans-serif" font-size="6.6" lengthAdjust="spacing" textLength="100.2" x="382.8" y="138.2514">getTestHasSamplesAnalyzedList()</text><ellipse cx="377.4" cy="143.9016" fill="#84BE84" rx="1.8" ry="1.8" style="stroke:#038048;stroke-width:0.6;"/><text fill="#000000" font-family="sans-serif" font-size="6.6" lengthAdjust="spacing" textLength="103.2" x="382.8" y="146.5529">getTestParameterList(selectedTest)</text><ellipse cx="377.4" cy="152.2031" fill="#84BE84" rx="1.8" ry="1.8" style="stroke:#038048;stroke-width:0.6;"/><text fill="#000000" font-family="sans-serif" font-size="6.6" lengthAdjust="spacing" textLength="84" x="382.8" y="154.8545">addMedicalReport(diagnosis)</text><!--MD5=[02e4b9b7573f1156f41e60aa5b4e25a4]
class Company--><rect codeLine="16" fill="#FEFECE" filter="url(#f134jis4xe2t38)" height="45.4031" id="Company" style="stroke:#A80036;stroke-width:0.8999999999999999;" width="67.2" x="169.2" y="335.7"/><ellipse cx="185.49" cy="345.3" fill="#ADD1B2" rx="6.6" ry="6.6" style="stroke:#A80036;stroke-width:0.6;"/><path d="M186.69,343.2 Q186.8119,342.9 186.9525,342.75 Q187.0931,342.6 187.2525,342.6 Q187.5337,342.6 187.7119,342.7688 Q187.89,342.9375 187.89,343.3313 L187.89,344.2688 Q187.89,344.6625 187.7212,344.8313 Q187.5525,345 187.29,345 Q187.0556,345 186.9056,344.8969 Q186.7556,344.7938 186.69,344.5219 Q186.6619,344.3344 186.5587,344.2313 Q186.3712,344.0344 186.0337,343.9219 Q185.6963,343.8 185.3588,343.8 Q184.9369,343.8 184.5806,343.9688 Q184.2338,344.1375 183.9619,344.5125 Q183.69,344.8875 183.69,345.4031 L183.69,345.9563 Q183.69,346.575 184.1963,346.9875 Q184.7025,347.4 185.6025,347.4 Q186.1369,347.4 186.5119,347.2781 Q186.7275,347.2125 186.9712,346.9969 Q187.1306,346.875 187.215,346.8375 Q187.2994,346.8 187.4025,346.8 Q187.5994,346.8 187.74,346.9594 Q187.89,347.1094 187.89,347.325 Q187.89,347.5313 187.6837,347.775 Q187.3838,348.1312 186.9056,348.3281 Q186.2775,348.6 185.5088,348.6 Q184.6088,348.6 183.8869,348.2438 Q183.3056,347.9625 182.8931,347.3531 Q182.49,346.7438 182.49,346.0219 L182.49,345.3656 Q182.49,344.6156 182.8462,343.9594 Q183.2119,343.3031 183.84,342.9563 Q184.4775,342.6 185.19,342.6 Q185.6212,342.6 185.9962,342.75 Q186.3712,342.9 186.69,343.2 Z " fill="#000000"/><text fill="#000000" font-family="sans-serif" font-size="7.2" lengthAdjust="spacing" textLength="31.8" x="195.51" y="348.2461">Company</text><line style="stroke:#A80036;stroke-width:0.8999999999999999;" x1="169.8" x2="235.8" y1="354.9" y2="354.9"/><rect fill="none" height="3.6" style="stroke:#C82930;stroke-width:0.6;" width="3.6" x="174" y="359.7"/><text fill="#000000" font-family="sans-serif" font-size="6.6" lengthAdjust="spacing" textLength="51.6" x="181.2" y="364.1514">String designation</text><line style="stroke:#A80036;stroke-width:0.8999999999999999;" x1="169.8" x2="235.8" y1="368.0016" y2="368.0016"/><ellipse cx="175.8" cy="374.6016" fill="#84BE84" rx="1.8" ry="1.8" style="stroke:#038048;stroke-width:0.6;"/><text fill="#000000" font-family="sans-serif" font-size="6.6" lengthAdjust="spacing" textLength="42" x="181.2" y="377.2529">getTestStore()</text><!--MD5=[df38be88ccee13e832d6fafd6288a4ca]
class Test--><rect codeLine="21" fill="#FEFECE" filter="url(#f134jis4xe2t38)" height="103.5141" id="Test" style="stroke:#A80036;stroke-width:0.8999999999999999;" width="106.2" x="236.7" y="458.4"/><ellipse cx="280.05" cy="468" fill="#ADD1B2" rx="6.6" ry="6.6" style="stroke:#A80036;stroke-width:0.6;"/><path d="M281.25,465.9 Q281.3719,465.6 281.5125,465.45 Q281.6531,465.3 281.8125,465.3 Q282.0938,465.3 282.2719,465.4688 Q282.45,465.6375 282.45,466.0313 L282.45,466.9688 Q282.45,467.3625 282.2813,467.5313 Q282.1125,467.7 281.85,467.7 Q281.6156,467.7 281.4656,467.5969 Q281.3156,467.4938 281.25,467.2219 Q281.2219,467.0344 281.1188,466.9313 Q280.9313,466.7344 280.5938,466.6219 Q280.2562,466.5 279.9188,466.5 Q279.4969,466.5 279.1406,466.6688 Q278.7938,466.8375 278.5219,467.2125 Q278.25,467.5875 278.25,468.1031 L278.25,468.6563 Q278.25,469.275 278.7562,469.6875 Q279.2625,470.1 280.1625,470.1 Q280.6969,470.1 281.0719,469.9781 Q281.2875,469.9125 281.5313,469.6969 Q281.6906,469.575 281.775,469.5375 Q281.8594,469.5 281.9625,469.5 Q282.1594,469.5 282.3,469.6594 Q282.45,469.8094 282.45,470.025 Q282.45,470.2313 282.2438,470.475 Q281.9437,470.8312 281.4656,471.0281 Q280.8375,471.3 280.0687,471.3 Q279.1688,471.3 278.4469,470.9437 Q277.8656,470.6625 277.4531,470.0531 Q277.05,469.4437 277.05,468.7219 L277.05,468.0656 Q277.05,467.3156 277.4063,466.6594 Q277.7719,466.0031 278.4,465.6563 Q279.0375,465.3 279.75,465.3 Q280.1813,465.3 280.5563,465.45 Q280.9313,465.6 281.25,465.9 Z " fill="#000000"/><text fill="#000000" font-family="sans-serif" font-size="7.2" lengthAdjust="spacing" textLength="14.4" x="292.35" y="470.9461">Test</text><line style="stroke:#A80036;stroke-width:0.8999999999999999;" x1="237.3" x2="342.3" y1="477.6" y2="477.6"/><rect fill="none" height="3.6" style="stroke:#C82930;stroke-width:0.6;" width="3.6" x="241.5" y="482.4"/><text fill="#000000" font-family="sans-serif" font-size="6.6" lengthAdjust="spacing" textLength="54.6" x="248.7" y="486.8514">String internalCode</text><rect fill="none" height="3.6" style="stroke:#C82930;stroke-width:0.6;" width="3.6" x="241.5" y="490.7016"/><text fill="#000000" font-family="sans-serif" font-size="6.6" lengthAdjust="spacing" textLength="44.4" x="248.7" y="495.1529">String nhsCode</text><rect fill="none" height="3.6" style="stroke:#C82930;stroke-width:0.6;" width="3.6" x="241.5" y="499.0031"/><text fill="#000000" font-family="sans-serif" font-size="6.6" lengthAdjust="spacing" textLength="50.4" x="248.7" y="503.4545">String description</text><line style="stroke:#A80036;stroke-width:0.8999999999999999;" x1="237.3" x2="342.3" y1="507.3047" y2="507.3047"/><ellipse cx="243.3" cy="513.9047" fill="#84BE84" rx="1.8" ry="1.8" style="stroke:#038048;stroke-width:0.6;"/><text fill="#000000" font-family="sans-serif" font-size="6.6" lengthAdjust="spacing" textLength="66" x="248.7" y="516.5561">getTestParameterList()</text><ellipse cx="243.3" cy="522.2063" fill="#84BE84" rx="1.8" ry="1.8" style="stroke:#038048;stroke-width:0.6;"/><text fill="#000000" font-family="sans-serif" font-size="6.6" lengthAdjust="spacing" textLength="46.2" x="248.7" y="524.8576">getDescription()</text><ellipse cx="243.3" cy="530.5078" fill="#84BE84" rx="1.8" ry="1.8" style="stroke:#038048;stroke-width:0.6;"/><text fill="#000000" font-family="sans-serif" font-size="6.6" lengthAdjust="spacing" textLength="49.8" x="248.7" y="533.1592">getInternalCode()</text><ellipse cx="243.3" cy="538.8094" fill="#84BE84" rx="1.8" ry="1.8" style="stroke:#038048;stroke-width:0.6;"/><text fill="#000000" font-family="sans-serif" font-size="6.6" lengthAdjust="spacing" textLength="84" x="248.7" y="541.4607">addMedicalReport(diagnosis)</text><ellipse cx="243.3" cy="547.1109" fill="#84BE84" rx="1.8" ry="1.8" style="stroke:#038048;stroke-width:0.6;"/><text fill="#000000" font-family="sans-serif" font-size="6.6" lengthAdjust="spacing" textLength="67.8" x="248.7" y="549.7623">validateMedicalReport()</text><rect fill="#F24D5C" height="3.6" style="stroke:#C82930;stroke-width:0.6;" width="3.6" x="241.5" y="553.6125"/><text fill="#000000" font-family="sans-serif" font-size="6.6" lengthAdjust="spacing" textLength="90.6" x="248.7" y="558.0639">updateStateToDiagnosisMade()</text><!--MD5=[b2d1f399f1909a0bb241ed0598ba126f]
class MedicalReport--><rect codeLine="33" fill="#FEFECE" filter="url(#f134jis4xe2t38)" height="62.0062" id="MedicalReport" style="stroke:#A80036;stroke-width:0.8999999999999999;" width="88.8" x="245.4" y="609"/><ellipse cx="264.39" cy="618.6" fill="#ADD1B2" rx="6.6" ry="6.6" style="stroke:#A80036;stroke-width:0.6;"/><path d="M265.59,616.5 Q265.7119,616.2 265.8525,616.05 Q265.9931,615.9 266.1525,615.9 Q266.4338,615.9 266.6119,616.0688 Q266.79,616.2375 266.79,616.6313 L266.79,617.5688 Q266.79,617.9625 266.6213,618.1313 Q266.4525,618.3 266.19,618.3 Q265.9556,618.3 265.8056,618.1969 Q265.6556,618.0938 265.59,617.8219 Q265.5619,617.6344 265.4587,617.5313 Q265.2712,617.3344 264.9338,617.2219 Q264.5963,617.1 264.2587,617.1 Q263.8369,617.1 263.4806,617.2688 Q263.1337,617.4375 262.8619,617.8125 Q262.59,618.1875 262.59,618.7031 L262.59,619.2563 Q262.59,619.875 263.0963,620.2875 Q263.6025,620.7 264.5025,620.7 Q265.0369,620.7 265.4119,620.5781 Q265.6275,620.5125 265.8713,620.2969 Q266.0306,620.175 266.115,620.1375 Q266.1994,620.1 266.3025,620.1 Q266.4994,620.1 266.64,620.2594 Q266.79,620.4094 266.79,620.625 Q266.79,620.8313 266.5837,621.075 Q266.2838,621.4313 265.8056,621.6281 Q265.1775,621.9 264.4088,621.9 Q263.5087,621.9 262.7869,621.5437 Q262.2056,621.2625 261.7931,620.6531 Q261.39,620.0437 261.39,619.3219 L261.39,618.6656 Q261.39,617.9156 261.7463,617.2594 Q262.1119,616.6031 262.74,616.2563 Q263.3775,615.9 264.09,615.9 Q264.5212,615.9 264.8962,616.05 Q265.2712,616.2 265.59,616.5 Z " fill="#000000"/><text fill="#000000" font-family="sans-serif" font-size="7.2" lengthAdjust="spacing" textLength="47.4" x="275.01" y="621.5461">MedicalReport</text><line style="stroke:#A80036;stroke-width:0.8999999999999999;" x1="246" x2="333.6" y1="628.2" y2="628.2"/><rect fill="none" height="3.6" style="stroke:#C82930;stroke-width:0.6;" width="3.6" x="250.2" y="633"/><text fill="#000000" font-family="sans-serif" font-size="6.6" lengthAdjust="spacing" textLength="46.2" x="257.4" y="637.4514">String diagnosis</text><rect fill="none" height="3.6" style="stroke:#C82930;stroke-width:0.6;" width="3.6" x="250.2" y="641.3016"/><text fill="#000000" font-family="sans-serif" font-size="6.6" lengthAdjust="spacing" textLength="43.8" x="257.4" y="645.7529">Date createdAt</text><line style="stroke:#A80036;stroke-width:0.8999999999999999;" x1="246" x2="333.6" y1="649.6031" y2="649.6031"/><ellipse cx="252" cy="656.2031" fill="#84BE84" rx="1.8" ry="1.8" style="stroke:#038048;stroke-width:0.6;"/><text fill="#000000" font-family="sans-serif" font-size="6.6" lengthAdjust="spacing" textLength="73.2" x="257.4" y="658.8545">MedicalReport(diagnosis)</text><ellipse cx="252" cy="664.5047" fill="#84BE84" rx="1.8" ry="1.8" style="stroke:#038048;stroke-width:0.6;"/><text fill="#000000" font-family="sans-serif" font-size="6.6" lengthAdjust="spacing" textLength="52.8" x="257.4" y="667.1561">addCreationDate()</text><!--MD5=[0f07739f46effee96e095e9c408da841]
class TestParameter--><rect codeLine="40" fill="#FEFECE" filter="url(#f134jis4xe2t38)" height="78.6094" id="TestParameter" style="stroke:#A80036;stroke-width:0.8999999999999999;" width="97.8" x="257.7" y="319.2"/><ellipse cx="279.93" cy="328.8" fill="#ADD1B2" rx="6.6" ry="6.6" style="stroke:#A80036;stroke-width:0.6;"/><path d="M281.13,326.7 Q281.2519,326.4 281.3925,326.25 Q281.5331,326.1 281.6925,326.1 Q281.9738,326.1 282.1519,326.2688 Q282.33,326.4375 282.33,326.8313 L282.33,327.7688 Q282.33,328.1625 282.1613,328.3313 Q281.9925,328.5 281.73,328.5 Q281.4956,328.5 281.3456,328.3969 Q281.1956,328.2938 281.13,328.0219 Q281.1019,327.8344 280.9988,327.7313 Q280.8113,327.5344 280.4738,327.4219 Q280.1363,327.3 279.7988,327.3 Q279.3769,327.3 279.0206,327.4688 Q278.6738,327.6375 278.4019,328.0125 Q278.13,328.3875 278.13,328.9031 L278.13,329.4563 Q278.13,330.075 278.6363,330.4875 Q279.1425,330.9 280.0425,330.9 Q280.5769,330.9 280.9519,330.7781 Q281.1675,330.7125 281.4113,330.4969 Q281.5706,330.375 281.655,330.3375 Q281.7394,330.3 281.8425,330.3 Q282.0394,330.3 282.18,330.4594 Q282.33,330.6094 282.33,330.825 Q282.33,331.0313 282.1238,331.275 Q281.8238,331.6312 281.3456,331.8281 Q280.7175,332.1 279.9488,332.1 Q279.0488,332.1 278.3269,331.7438 Q277.7456,331.4625 277.3331,330.8531 Q276.93,330.2438 276.93,329.5219 L276.93,328.8656 Q276.93,328.1156 277.2863,327.4594 Q277.6519,326.8031 278.28,326.4563 Q278.9175,326.1 279.63,326.1 Q280.0613,326.1 280.4363,326.25 Q280.8113,326.4 281.13,326.7 Z " fill="#000000"/><text fill="#000000" font-family="sans-serif" font-size="7.2" lengthAdjust="spacing" textLength="49.2" x="291.27" y="331.7461">TestParameter</text><line style="stroke:#A80036;stroke-width:0.8999999999999999;" x1="258.3" x2="354.9" y1="338.4" y2="338.4"/><line style="stroke:#A80036;stroke-width:0.8999999999999999;" x1="258.3" x2="354.9" y1="343.2" y2="343.2"/><ellipse cx="264.3" cy="349.8" fill="#84BE84" rx="1.8" ry="1.8" style="stroke:#038048;stroke-width:0.6;"/><text fill="#000000" font-family="sans-serif" font-size="6.6" lengthAdjust="spacing" textLength="59.4" x="269.7" y="352.4514">getParameterName()</text><ellipse cx="264.3" cy="358.1016" fill="#84BE84" rx="1.8" ry="1.8" style="stroke:#038048;stroke-width:0.6;"/><text fill="#000000" font-family="sans-serif" font-size="6.6" lengthAdjust="spacing" textLength="61.2" x="269.7" y="360.7529">getParameterResult()</text><ellipse cx="264.3" cy="366.4031" fill="#84BE84" rx="1.8" ry="1.8" style="stroke:#038048;stroke-width:0.6;"/><text fill="#000000" font-family="sans-serif" font-size="6.6" lengthAdjust="spacing" textLength="60.6" x="269.7" y="369.0545">getParameterMetric()</text><ellipse cx="264.3" cy="374.7047" fill="#84BE84" rx="1.8" ry="1.8" style="stroke:#038048;stroke-width:0.6;"/><text fill="#000000" font-family="sans-serif" font-size="6.6" lengthAdjust="spacing" textLength="79.8" x="269.7" y="377.3561">getParameterMinRefValue()</text><ellipse cx="264.3" cy="383.0062" fill="#84BE84" rx="1.8" ry="1.8" style="stroke:#038048;stroke-width:0.6;"/><text fill="#000000" font-family="sans-serif" font-size="6.6" lengthAdjust="spacing" textLength="82.2" x="269.7" y="385.6576">getParameterMaxRefValue()</text><ellipse cx="264.3" cy="391.3078" fill="#84BE84" rx="1.8" ry="1.8" style="stroke:#038048;stroke-width:0.6;"/><text fill="#000000" font-family="sans-serif" font-size="6.6" lengthAdjust="spacing" textLength="58.2" x="269.7" y="393.9592">getRefValueMetric()</text><!--MD5=[0f6f7964b844a64b0496af0dda7914bd]
class TestStore--><rect codeLine="51" fill="#FEFECE" filter="url(#f134jis4xe2t38)" height="45.4031" id="TestStore" style="stroke:#A80036;stroke-width:0.8999999999999999;" width="115.8" x="19.5" y="487.5"/><ellipse cx="58.95" cy="497.1" fill="#ADD1B2" rx="6.6" ry="6.6" style="stroke:#A80036;stroke-width:0.6;"/><path d="M60.15,495 Q60.2719,494.7 60.4125,494.55 Q60.5531,494.4 60.7125,494.4 Q60.9938,494.4 61.1719,494.5687 Q61.35,494.7375 61.35,495.1312 L61.35,496.0687 Q61.35,496.4625 61.1813,496.6312 Q61.0125,496.8 60.75,496.8 Q60.5156,496.8 60.3656,496.6969 Q60.2156,496.5938 60.15,496.3219 Q60.1219,496.1344 60.0188,496.0313 Q59.8313,495.8344 59.4938,495.7219 Q59.1563,495.6 58.8187,495.6 Q58.3969,495.6 58.0406,495.7687 Q57.6937,495.9375 57.4219,496.3125 Q57.15,496.6875 57.15,497.2031 L57.15,497.7562 Q57.15,498.375 57.6563,498.7875 Q58.1625,499.2 59.0625,499.2 Q59.5969,499.2 59.9719,499.0781 Q60.1875,499.0125 60.4313,498.7969 Q60.5906,498.675 60.675,498.6375 Q60.7594,498.6 60.8625,498.6 Q61.0594,498.6 61.2,498.7594 Q61.35,498.9094 61.35,499.125 Q61.35,499.3312 61.1438,499.575 Q60.8438,499.9313 60.3656,500.1281 Q59.7375,500.4 58.9688,500.4 Q58.0687,500.4 57.3469,500.0438 Q56.7656,499.7625 56.3531,499.1531 Q55.95,498.5438 55.95,497.8219 L55.95,497.1656 Q55.95,496.4156 56.3063,495.7594 Q56.6719,495.1031 57.3,494.7562 Q57.9375,494.4 58.65,494.4 Q59.0813,494.4 59.4563,494.55 Q59.8313,494.7 60.15,495 Z " fill="#000000"/><text fill="#000000" font-family="sans-serif" font-size="7.2" lengthAdjust="spacing" textLength="31.8" x="71.25" y="500.0461">TestStore</text><line style="stroke:#A80036;stroke-width:0.8999999999999999;" x1="20.1" x2="134.7" y1="506.7" y2="506.7"/><line style="stroke:#A80036;stroke-width:0.8999999999999999;" x1="20.1" x2="134.7" y1="511.5" y2="511.5"/><ellipse cx="26.1" cy="518.1" fill="#84BE84" rx="1.8" ry="1.8" style="stroke:#038048;stroke-width:0.6;"/><text fill="#000000" font-family="sans-serif" font-size="6.6" lengthAdjust="spacing" textLength="100.2" x="31.5" y="520.7514">getTestHasSamplesAnalyzedList()</text><ellipse cx="26.1" cy="526.4016" fill="#84BE84" rx="1.8" ry="1.8" style="stroke:#038048;stroke-width:0.6;"/><text fill="#000000" font-family="sans-serif" font-size="6.6" lengthAdjust="spacing" textLength="84.6" x="31.5" y="529.0529">getTestByInternalCode(code)</text><!--MD5=[144698ec4d0188f6929a3b58a3eeb1f6]
class TestMapper--><rect codeLine="58" fill="#FEFECE" filter="url(#f134jis4xe2t38)" height="45.4031" id="TestMapper" style="stroke:#A80036;stroke-width:0.8999999999999999;" width="58.2" x="401.1" y="210"/><ellipse cx="410.1" cy="219.6" fill="#ADD1B2" rx="6.6" ry="6.6" style="stroke:#A80036;stroke-width:0.6;"/><path d="M411.3,217.5 Q411.4219,217.2 411.5625,217.05 Q411.7031,216.9 411.8625,216.9 Q412.1438,216.9 412.3219,217.0688 Q412.5,217.2375 412.5,217.6313 L412.5,218.5688 Q412.5,218.9625 412.3313,219.1313 Q412.1625,219.3 411.9,219.3 Q411.6656,219.3 411.5156,219.1969 Q411.3656,219.0938 411.3,218.8219 Q411.2719,218.6344 411.1688,218.5313 Q410.9813,218.3344 410.6438,218.2219 Q410.3063,218.1 409.9688,218.1 Q409.5469,218.1 409.1906,218.2687 Q408.8438,218.4375 408.5719,218.8125 Q408.3,219.1875 408.3,219.7031 L408.3,220.2563 Q408.3,220.875 408.8063,221.2875 Q409.3125,221.7 410.2125,221.7 Q410.7469,221.7 411.1219,221.5781 Q411.3375,221.5125 411.5813,221.2969 Q411.7406,221.175 411.825,221.1375 Q411.9094,221.1 412.0125,221.1 Q412.2094,221.1 412.35,221.2594 Q412.5,221.4094 412.5,221.625 Q412.5,221.8312 412.2938,222.075 Q411.9938,222.4313 411.5156,222.6281 Q410.8875,222.9 410.1188,222.9 Q409.2188,222.9 408.4969,222.5438 Q407.9156,222.2625 407.5031,221.6531 Q407.1,221.0438 407.1,220.3219 L407.1,219.6656 Q407.1,218.9156 407.4563,218.2594 Q407.8219,217.6031 408.45,217.2563 Q409.0875,216.9 409.8,216.9 Q410.2313,216.9 410.6063,217.05 Q410.9813,217.2 411.3,217.5 Z " fill="#000000"/><text fill="#000000" font-family="sans-serif" font-size="7.2" lengthAdjust="spacing" textLength="39" x="418.5" y="222.5461">TestMapper</text><line style="stroke:#A80036;stroke-width:0.8999999999999999;" x1="401.7" x2="458.7" y1="229.2" y2="229.2"/><line style="stroke:#A80036;stroke-width:0.8999999999999999;" x1="401.7" x2="458.7" y1="234" y2="234"/><ellipse cx="407.7" cy="240.6" fill="#84BE84" rx="1.8" ry="1.8" style="stroke:#038048;stroke-width:0.6;"/><text fill="#000000" font-family="sans-serif" font-size="6.6" lengthAdjust="spacing" textLength="30.6" x="413.1" y="243.2514">toDto(test)</text><ellipse cx="407.7" cy="248.9016" fill="#84BE84" rx="1.8" ry="1.8" style="stroke:#038048;stroke-width:0.6;"/><text fill="#000000" font-family="sans-serif" font-size="6.6" lengthAdjust="spacing" textLength="40.8" x="413.1" y="251.5529">toDto(testList)</text><!--MD5=[a82d32c079496d6dca2681dc0633feb0]
class TestParameterMapper--><rect codeLine="63" fill="#FEFECE" filter="url(#f134jis4xe2t38)" height="45.4031" id="TestParameterMapper" style="stroke:#A80036;stroke-width:0.8999999999999999;" width="93" x="480.3" y="210"/><ellipse cx="489.3" cy="219.6" fill="#ADD1B2" rx="6.6" ry="6.6" style="stroke:#A80036;stroke-width:0.6;"/><path d="M490.5,217.5 Q490.6219,217.2 490.7625,217.05 Q490.9031,216.9 491.0625,216.9 Q491.3438,216.9 491.5219,217.0688 Q491.7,217.2375 491.7,217.6313 L491.7,218.5688 Q491.7,218.9625 491.5313,219.1313 Q491.3625,219.3 491.1,219.3 Q490.8656,219.3 490.7156,219.1969 Q490.5656,219.0938 490.5,218.8219 Q490.4719,218.6344 490.3688,218.5313 Q490.1813,218.3344 489.8438,218.2219 Q489.5062,218.1 489.1688,218.1 Q488.7469,218.1 488.3906,218.2687 Q488.0438,218.4375 487.7719,218.8125 Q487.5,219.1875 487.5,219.7031 L487.5,220.2563 Q487.5,220.875 488.0062,221.2875 Q488.5125,221.7 489.4125,221.7 Q489.9469,221.7 490.3219,221.5781 Q490.5375,221.5125 490.7813,221.2969 Q490.9406,221.175 491.025,221.1375 Q491.1094,221.1 491.2125,221.1 Q491.4094,221.1 491.55,221.2594 Q491.7,221.4094 491.7,221.625 Q491.7,221.8312 491.4938,222.075 Q491.1937,222.4313 490.7156,222.6281 Q490.0875,222.9 489.3187,222.9 Q488.4188,222.9 487.6969,222.5438 Q487.1156,222.2625 486.7031,221.6531 Q486.3,221.0438 486.3,220.3219 L486.3,219.6656 Q486.3,218.9156 486.6563,218.2594 Q487.0219,217.6031 487.65,217.2563 Q488.2875,216.9 489,216.9 Q489.4313,216.9 489.8063,217.05 Q490.1813,217.2 490.5,217.5 Z " fill="#000000"/><text fill="#000000" font-family="sans-serif" font-size="7.2" lengthAdjust="spacing" textLength="73.8" x="497.7" y="222.5461">TestParameterMapper</text><line style="stroke:#A80036;stroke-width:0.8999999999999999;" x1="480.9" x2="572.7" y1="229.2" y2="229.2"/><line style="stroke:#A80036;stroke-width:0.8999999999999999;" x1="480.9" x2="572.7" y1="234" y2="234"/><ellipse cx="486.9" cy="240.6" fill="#84BE84" rx="1.8" ry="1.8" style="stroke:#038048;stroke-width:0.6;"/><text fill="#000000" font-family="sans-serif" font-size="6.6" lengthAdjust="spacing" textLength="76.8" x="492.3" y="243.2514">toDTO(testParametersList)</text><ellipse cx="486.9" cy="248.9016" fill="#84BE84" rx="1.8" ry="1.8" style="stroke:#038048;stroke-width:0.6;"/><text fill="#000000" font-family="sans-serif" font-size="6.6" lengthAdjust="spacing" textLength="63" x="492.3" y="251.5529">toDTO(testParameter)</text><!--MD5=[1c38f6084f2098752e2974895ca67f4c]
class TestDto--><rect codeLine="70" fill="#FEFECE" filter="url(#f134jis4xe2t38)" height="53.7047" id="TestDto" style="stroke:#A80036;stroke-width:0.8999999999999999;" width="112.2" x="488.1" y="331.5"/><ellipse cx="528.75" cy="341.1" fill="#ADD1B2" rx="6.6" ry="6.6" style="stroke:#A80036;stroke-width:0.6;"/><path d="M529.95,339 Q530.0719,338.7 530.2125,338.55 Q530.3531,338.4 530.5125,338.4 Q530.7937,338.4 530.9719,338.5687 Q531.15,338.7375 531.15,339.1312 L531.15,340.0687 Q531.15,340.4625 530.9812,340.6312 Q530.8125,340.8 530.55,340.8 Q530.3156,340.8 530.1656,340.6969 Q530.0156,340.5938 529.95,340.3219 Q529.9219,340.1344 529.8188,340.0313 Q529.6313,339.8344 529.2937,339.7219 Q528.9563,339.6 528.6188,339.6 Q528.1969,339.6 527.8406,339.7688 Q527.4938,339.9375 527.2219,340.3125 Q526.95,340.6875 526.95,341.2031 L526.95,341.7562 Q526.95,342.375 527.4563,342.7875 Q527.9625,343.2 528.8625,343.2 Q529.3969,343.2 529.7719,343.0781 Q529.9875,343.0125 530.2312,342.7969 Q530.3906,342.675 530.475,342.6375 Q530.5594,342.6 530.6625,342.6 Q530.8594,342.6 531,342.7594 Q531.15,342.9094 531.15,343.125 Q531.15,343.3313 530.9438,343.575 Q530.6438,343.9313 530.1656,344.1281 Q529.5375,344.4 528.7688,344.4 Q527.8688,344.4 527.1469,344.0438 Q526.5656,343.7625 526.1531,343.1531 Q525.75,342.5438 525.75,341.8219 L525.75,341.1656 Q525.75,340.4156 526.1062,339.7594 Q526.4719,339.1031 527.1,338.7562 Q527.7375,338.4 528.45,338.4 Q528.8813,338.4 529.2563,338.55 Q529.6313,338.7 529.95,339 Z " fill="#000000"/><text fill="#000000" font-family="sans-serif" font-size="7.2" lengthAdjust="spacing" textLength="25.8" x="541.05" y="344.0461">TestDto</text><line style="stroke:#A80036;stroke-width:0.8999999999999999;" x1="488.7" x2="599.7" y1="350.7" y2="350.7"/><rect fill="none" height="3.6" style="stroke:#C82930;stroke-width:0.6;" width="3.6" x="492.9" y="355.5"/><text fill="#000000" font-family="sans-serif" font-size="6.6" lengthAdjust="spacing" textLength="54.6" x="500.1" y="359.9514">String internalCode</text><rect fill="none" height="3.6" style="stroke:#C82930;stroke-width:0.6;" width="3.6" x="492.9" y="363.8016"/><text fill="#000000" font-family="sans-serif" font-size="6.6" lengthAdjust="spacing" textLength="50.4" x="500.1" y="368.2529">String description</text><line style="stroke:#A80036;stroke-width:0.8999999999999999;" x1="488.7" x2="599.7" y1="372.1031" y2="372.1031"/><ellipse cx="494.7" cy="378.7031" fill="#84BE84" rx="1.8" ry="1.8" style="stroke:#038048;stroke-width:0.6;"/><text fill="#000000" font-family="sans-serif" font-size="6.6" lengthAdjust="spacing" textLength="96.6" x="500.1" y="381.3545">TestDto(internalCode,description)</text><!--MD5=[fa2f44d2bdbb0499bd765719ad83ddd6]
class TestParameterDto--><rect codeLine="76" fill="#FEFECE" filter="url(#f134jis4xe2t38)" height="103.5141" id="TestParameterDto" style="stroke:#A80036;stroke-width:0.8999999999999999;" width="177" x="621.3" y="306.6"/><ellipse cx="676.95" cy="316.2" fill="#ADD1B2" rx="6.6" ry="6.6" style="stroke:#A80036;stroke-width:0.6;"/><path d="M678.15,314.1 Q678.2719,313.8 678.4125,313.65 Q678.5531,313.5 678.7125,313.5 Q678.9938,313.5 679.1719,313.6688 Q679.35,313.8375 679.35,314.2313 L679.35,315.1688 Q679.35,315.5625 679.1813,315.7313 Q679.0125,315.9 678.75,315.9 Q678.5156,315.9 678.3656,315.7969 Q678.2156,315.6937 678.15,315.4219 Q678.1219,315.2344 678.0188,315.1312 Q677.8313,314.9344 677.4938,314.8219 Q677.1563,314.7 676.8188,314.7 Q676.3969,314.7 676.0406,314.8688 Q675.6938,315.0375 675.4219,315.4125 Q675.15,315.7875 675.15,316.3031 L675.15,316.8563 Q675.15,317.475 675.6563,317.8875 Q676.1625,318.3 677.0625,318.3 Q677.5969,318.3 677.9719,318.1781 Q678.1875,318.1125 678.4313,317.8969 Q678.5906,317.775 678.675,317.7375 Q678.7594,317.7 678.8625,317.7 Q679.0594,317.7 679.2,317.8594 Q679.35,318.0094 679.35,318.225 Q679.35,318.4313 679.1438,318.675 Q678.8438,319.0313 678.3656,319.2281 Q677.7375,319.5 676.9688,319.5 Q676.0688,319.5 675.3469,319.1438 Q674.7656,318.8625 674.3531,318.2531 Q673.95,317.6438 673.95,316.9219 L673.95,316.2656 Q673.95,315.5156 674.3063,314.8594 Q674.6719,314.2031 675.3,313.8563 Q675.9375,313.5 676.65,313.5 Q677.0813,313.5 677.4563,313.65 Q677.8313,313.8 678.15,314.1 Z " fill="#000000"/><text fill="#000000" font-family="sans-serif" font-size="7.2" lengthAdjust="spacing" textLength="60.6" x="689.25" y="319.1461">TestParameterDto</text><line style="stroke:#A80036;stroke-width:0.8999999999999999;" x1="621.9" x2="797.7" y1="325.8" y2="325.8"/><rect fill="none" height="3.6" style="stroke:#C82930;stroke-width:0.6;" width="3.6" x="626.1" y="330.6"/><text fill="#000000" font-family="sans-serif" font-size="6.6" lengthAdjust="spacing" textLength="64.2" x="633.3" y="335.0514">String parameterName</text><rect fill="none" height="3.6" style="stroke:#C82930;stroke-width:0.6;" width="3.6" x="626.1" y="338.9016"/><text fill="#000000" font-family="sans-serif" font-size="6.6" lengthAdjust="spacing" textLength="76.8" x="633.3" y="343.3529">String testParameterResult</text><rect fill="none" height="3.6" style="stroke:#C82930;stroke-width:0.6;" width="3.6" x="626.1" y="347.2031"/><text fill="#000000" font-family="sans-serif" font-size="6.6" lengthAdjust="spacing" textLength="76.2" x="633.3" y="351.6545">String testParameterMetric</text><rect fill="none" height="3.6" style="stroke:#C82930;stroke-width:0.6;" width="3.6" x="626.1" y="355.5047"/><text fill="#000000" font-family="sans-serif" font-size="6.6" lengthAdjust="spacing" textLength="97.8" x="633.3" y="359.9561">double testParameterMinRefValue</text><rect fill="none" height="3.6" style="stroke:#C82930;stroke-width:0.6;" width="3.6" x="626.1" y="363.8063"/><text fill="#000000" font-family="sans-serif" font-size="6.6" lengthAdjust="spacing" textLength="100.2" x="633.3" y="368.2576">double testParameterMaxRefValue</text><rect fill="none" height="3.6" style="stroke:#C82930;stroke-width:0.6;" width="3.6" x="626.1" y="372.1078"/><text fill="#000000" font-family="sans-serif" font-size="6.6" lengthAdjust="spacing" textLength="61.2" x="633.3" y="376.5592">String refValueMetric</text><line style="stroke:#A80036;stroke-width:0.8999999999999999;" x1="621.9" x2="797.7" y1="380.4094" y2="380.4094"/><ellipse cx="627.9" cy="387.0094" fill="#84BE84" rx="1.8" ry="1.8" style="stroke:#038048;stroke-width:0.6;"/><text fill="#000000" font-family="sans-serif" font-size="6.6" lengthAdjust="spacing" textLength="161.4" x="633.3" y="389.6607">TestParameterDto(parameterName,testParameterResult,</text><text fill="#000000" font-family="sans-serif" font-size="6.6" lengthAdjust="spacing" textLength="138" x="633.3" y="397.9623">testParameterMetric,testParameterMinRefValue,</text><text fill="#000000" font-family="sans-serif" font-size="6.6" lengthAdjust="spacing" textLength="126" x="633.3" y="406.2639">testParameterMaxRefValue,refValueMetric)</text><!--MD5=[bbc66458f6440b7390e5e54a12cdf2f1]
link WriteMedicalReportUI to WriteMedicalReportController--><path codeLine="88" d="M652.578,54.054 C610.086,68.832 542.202,92.442 492.6,109.692 " fill="none" id="WriteMedicalReportUI-to-WriteMedicalReportController" style="stroke:#A80036;stroke-width:0.6;stroke-dasharray:7.0,7.0;"/><polygon fill="#A80036" points="489.66,110.718,495.5486,111.2129,492.4938,109.7334,493.9733,106.6787,489.66,110.718" style="stroke:#A80036;stroke-width:0.6;"/><!--MD5=[adbc032425c7e51ba2ad24017d53629a]
link WriteMedicalReportUI to TestDto--><path codeLine="89" d="M688.644,54.018 C678.246,91.194 646.986,195.912 604.2,275.4 C594.042,294.276 580.08,313.74 568.176,329.022 " fill="none" id="WriteMedicalReportUI-to-TestDto" style="stroke:#A80036;stroke-width:0.6;stroke-dasharray:7.0,7.0;"/><polygon fill="#A80036" points="566.286,331.44,571.5041,328.6666,568.1349,329.0775,567.7241,325.7083,566.286,331.44" style="stroke:#A80036;stroke-width:0.6;"/><!--MD5=[01734996bc336a4e5d2ed8719592e27f]
link WriteMedicalReportUI to TestParameterDto--><path codeLine="90" d="M700.572,54.006 C703.524,59.736 706.494,66.588 708,73.2 C725.874,151.674 721.74,245.508 716.358,303.408 " fill="none" id="WriteMedicalReportUI-to-TestParameterDto" style="stroke:#A80036;stroke-width:0.6;stroke-dasharray:7.0,7.0;"/><polygon fill="#A80036" points="716.07,306.48,718.9691,301.3307,716.3532,303.4934,714.1905,300.8775,716.07,306.48" style="stroke:#A80036;stroke-width:0.6;"/><!--MD5=[b787b54ee1aef98cad412d2a644aa045]
link WriteMedicalReportController to Company--><path codeLine="91" d="M370.77,149.898 C350.1,157.884 327.726,168.918 310.2,183.6 C260.808,224.982 227.514,295.152 212.286,332.598 " fill="none" id="WriteMedicalReportController-to-Company" style="stroke:#A80036;stroke-width:0.6;stroke-dasharray:7.0,7.0;"/><polygon fill="#A80036" points="211.134,335.454,215.3788,331.3428,212.2555,332.6715,210.9268,329.5483,211.134,335.454" style="stroke:#A80036;stroke-width:0.6;"/><!--MD5=[0a4b7f6f2e1052e6554456fc8aa21a03]
link WriteMedicalReportController to TestStore--><path codeLine="92" d="M370.686,138.81 C330.816,145.182 278.55,157.998 238.8,183.6 C130.044,253.65 92.004,420.312 81.138,484.188 " fill="none" id="WriteMedicalReportController-to-TestStore" style="stroke:#A80036;stroke-width:0.6;stroke-dasharray:7.0,7.0;"/><polygon fill="#A80036" points="80.61,487.332,83.872,482.4046,81.1074,484.3735,79.1385,481.6088,80.61,487.332" style="stroke:#A80036;stroke-width:0.6;"/><!--MD5=[d59dafcd53f8ba979ac3ce89e293f269]
link WriteMedicalReportController to TestMapper--><path codeLine="93" d="M430.2,159.03 C430.2,173.826 430.2,192.18 430.2,206.808 " fill="none" id="WriteMedicalReportController-to-TestMapper" style="stroke:#A80036;stroke-width:0.6;stroke-dasharray:7.0,7.0;"/><polygon fill="#A80036" points="430.2,209.868,432.6,204.468,430.2,206.868,427.8,204.468,430.2,209.868" style="stroke:#A80036;stroke-width:0.6;"/><!--MD5=[0cd9019ce07d4cbb96eb84fb6d9e22ee]
link WriteMedicalReportController to TestParameterDto--><path codeLine="94" d="M489.804,136.56 C527.202,141.984 574.092,154.584 605.4,183.6 C641.586,217.134 669.39,266.046 687.174,303.528 " fill="none" id="WriteMedicalReportController-to-TestParameterDto" style="stroke:#A80036;stroke-width:0.6;stroke-dasharray:7.0,7.0;"/><polygon fill="#A80036" points="688.542,306.438,688.417,300.53,687.2658,303.723,684.0729,302.5719,688.542,306.438" style="stroke:#A80036;stroke-width:0.6;"/><!--MD5=[ba75a4db94b946b551daa943cd9720f8]
link WriteMedicalReportController to TestDto--><path codeLine="95" d="M489.63,136.074 C522.948,141.432 561.96,154.128 583.2,183.6 C614.628,227.202 585.618,291.672 563.604,328.758 " fill="none" id="WriteMedicalReportController-to-TestDto" style="stroke:#A80036;stroke-width:0.6;stroke-dasharray:7.0,7.0;"/><polygon fill="#A80036" points="562.032,331.38,566.8683,327.9843,563.5755,328.8075,562.7523,325.5147,562.032,331.38" style="stroke:#A80036;stroke-width:0.6;"/><!--MD5=[d3614dad8e7ab28fcc7b8ffd0e053a84]
link WriteMedicalReportController to TestParameter--><path codeLine="96" d="M373.53,159.06 C365.946,164.526 358.902,170.886 353.4,178.2 C322.992,218.628 312.276,277.008 308.538,316.146 " fill="none" id="WriteMedicalReportController-to-TestParameter" style="stroke:#A80036;stroke-width:0.6;stroke-dasharray:7.0,7.0;"/><polygon fill="#A80036" points="308.262,319.164,311.1464,314.0064,308.5367,316.1766,306.3665,313.5669,308.262,319.164" style="stroke:#A80036;stroke-width:0.6;"/><!--MD5=[eaabf2cc0e7c429fc49065438c9fd520]
link WriteMedicalReportController to Test--><path codeLine="97" d="M405.294,159.126 C399.696,166.53 394.452,174.936 391.2,183.6 C351.006,290.682 426.702,338.682 374.4,440.4 C367.524,453.774 356.802,465.51 345.27,475.338 " fill="none" id="WriteMedicalReportController-to-Test" style="stroke:#A80036;stroke-width:0.6;stroke-dasharray:7.0,7.0;"/><polygon fill="#A80036" points="342.954,477.276,348.6329,475.6419,345.2516,475.347,345.5465,471.9658,342.954,477.276" style="stroke:#A80036;stroke-width:0.6;"/><!--MD5=[29a1b506a2116fd5358dcc26b4aac099]
link WriteMedicalReportController to TestParameterMapper--><path codeLine="98" d="M455.832,159.03 C470.424,174.072 488.586,192.798 502.878,207.54 " fill="none" id="WriteMedicalReportController-to-TestParameterMapper" style="stroke:#A80036;stroke-width:0.6;stroke-dasharray:7.0,7.0;"/><polygon fill="#A80036" points="505.14,209.868,503.1079,204.3191,503.0532,207.7127,499.6595,207.658,505.14,209.868" style="stroke:#A80036;stroke-width:0.6;"/><!--MD5=[0d2deb453e4521a8ecd45cf39c488e89]
link TestParameterMapper to TestParameterDto--><path codeLine="99" d="M569.874,255.702 C583.254,263.076 597.87,271.602 610.8,280.2 C622.05,287.682 633.636,296.082 644.748,304.518 " fill="none" id="TestParameterMapper-to-TestParameterDto" style="stroke:#A80036;stroke-width:0.6;stroke-dasharray:7.0,7.0;"/><polygon fill="#A80036" points="647.256,306.432,644.4174,301.2491,644.8705,304.6128,641.5068,305.0659,647.256,306.432" style="stroke:#A80036;stroke-width:0.6;"/><!--MD5=[886f81fd36c1ffd754dcf922ff388f49]
link TestParameterMapper to TestParameter--><path codeLine="100" d="M493.158,255.606 C485.544,260.46 477.45,265.494 469.8,270 C433.056,291.648 390.618,314.442 358.23,331.386 " fill="none" id="TestParameterMapper-to-TestParameter" style="stroke:#A80036;stroke-width:0.6;stroke-dasharray:7.0,7.0;"/><polygon fill="#A80036" points="355.524,332.802,361.4215,332.428,358.1828,331.4125,359.1983,328.1739,355.524,332.802" style="stroke:#A80036;stroke-width:0.6;"/><!--MD5=[34b2fed5845bf5a187f4983fcf3f57bc]
link TestMapper to TestDto--><path codeLine="101" d="M450.582,255.66 C469.302,276.108 497.166,306.534 517.632,328.884 " fill="none" id="TestMapper-to-TestDto" style="stroke:#A80036;stroke-width:0.6;stroke-dasharray:7.0,7.0;"/><polygon fill="#A80036" points="519.84,331.296,517.9662,325.6917,517.8152,329.0824,514.4244,328.9314,519.84,331.296" style="stroke:#A80036;stroke-width:0.6;"/><!--MD5=[8d9a2c3ea1bf73d8d45b939465e53fff]
link TestMapper to Test--><path codeLine="102" d="M433.188,255.75 C437.394,296.148 440.802,382.5 403.2,440.4 C389.61,461.328 367.266,476.94 345.99,487.992 " fill="none" id="TestMapper-to-Test" style="stroke:#A80036;stroke-width:0.6;stroke-dasharray:7.0,7.0;"/><polygon fill="#A80036" points="343.128,489.456,349.029,489.1424,345.8009,488.0938,346.8495,484.8658,343.128,489.456" style="stroke:#A80036;stroke-width:0.6;"/><!--MD5=[7e4bc624457760b649895ff2ead938fa]
link Company to Test--><path codeLine="103" d="M215.118,381.45 C224.202,397.836 236.928,420.582 248.4,440.4 C251.772,446.22 255.33,452.298 258.894,458.322 " fill="none" id="Company-Test" style="stroke:#A80036;stroke-width:0.6;"/><polygon fill="#000000" points="252.8846,437.7124,251.7313,432.1238,248.6667,433.869,252.8846,437.7124" style="stroke:#000000;stroke-width:0.6;"/><text fill="#000000" font-family="sans-serif" font-size="7.8" lengthAdjust="spacing" textLength="30" x="256.8" y="438.2971">performs</text><text fill="#000000" font-family="sans-serif" font-size="7.8" lengthAdjust="spacing" textLength="4.2" x="212.5465" y="394.0022">1</text><text fill="#000000" font-family="sans-serif" font-size="7.8" lengthAdjust="spacing" textLength="12" x="243.7224" y="451.9611">1..*</text><!--MD5=[7d615427424eb1e9d8965c4eb17ecbf5]
link TestParameter to Test--><path codeLine="104" d="M298.32,397.92 C296.412,408.18 294.594,419.274 293.4,429.6 C292.332,438.864 291.576,448.764 291.042,458.34 " fill="none" id="TestParameter-Test" style="stroke:#A80036;stroke-width:0.6;"/><polygon fill="#000000" points="296.7588,432.127,294.359,437.3042,297.8604,437.726,296.7588,432.127" style="stroke:#000000;stroke-width:0.6;"/><text fill="#000000" font-family="sans-serif" font-size="7.8" lengthAdjust="spacing" textLength="69.6" x="301.8" y="438.2971">requests analysis of</text><text fill="#000000" font-family="sans-serif" font-size="7.8" lengthAdjust="spacing" textLength="12" x="284.8474" y="410.5877">1..*</text><text fill="#000000" font-family="sans-serif" font-size="7.8" lengthAdjust="spacing" textLength="4.2" x="286.7656" y="451.804">1</text><!--MD5=[c3238c64a9072feb51e313e35a850213]
link Test to MedicalReport--><path codeLine="105" d="M289.8,562.2 C289.8,578.058 289.8,595.008 289.8,608.97 " fill="none" id="Test-MedicalReport" style="stroke:#A80036;stroke-width:0.6;"/><polygon fill="#000000" points="292.8,588.7055,294.5634,583.2784,291.0366,583.2784,292.8,588.7055" style="stroke:#000000;stroke-width:0.6;"/><text fill="#000000" font-family="sans-serif" font-size="7.8" lengthAdjust="spacing" textLength="25.8" x="298.2" y="588.8971">request</text><text fill="#000000" font-family="sans-serif" font-size="7.8" lengthAdjust="spacing" textLength="4.2" x="285.4327" y="574.8351">1</text><text fill="#000000" font-family="sans-serif" font-size="7.8" lengthAdjust="spacing" textLength="4.2" x="285.3047" y="602.4429">1</text><!--MD5=[7f6cf7f175eae0af66201860de5de971]
link Company to TestStore--><path codeLine="106" d="M184.296,381.324 C161.238,409.014 121.944,456.204 97.962,485.004 " fill="none" id="Company-to-TestStore" style="stroke:#A80036;stroke-width:0.6;"/><polygon fill="#A80036" points="95.982,487.386,101.2818,484.7721,97.9017,485.0806,97.5932,481.7006,95.982,487.386" style="stroke:#A80036;stroke-width:0.6;"/><text fill="#000000" font-family="sans-serif" font-size="7.8" lengthAdjust="spacing" textLength="16.8" x="144" y="438.2971">uses</text><text fill="#000000" font-family="sans-serif" font-size="7.8" lengthAdjust="spacing" textLength="4.2" x="176.6835" y="394.0301">1</text><text fill="#000000" font-family="sans-serif" font-size="7.8" lengthAdjust="spacing" textLength="4.2" x="94.7179" y="480.9828">1</text><!--MD5=[5904f61db38d466b70e7011ea39a3701]
@startuml

package UI{
class WriteMedicalReportUI{
}
}

package Controller{
class WriteMedicalReportController{
+getTestHasSamplesAnalyzedList()
+getTestParameterList(selectedTest)
+addMedicalReport(diagnosis)
}
}

package Model{
class Company{
-String designation
+getTestStore()
}

class Test{
-String internalCode
-String nhsCode
-String description
+getTestParameterList()
+getDescription()
+getInternalCode()
+addMedicalReport(diagnosis)
+validateMedicalReport()
-updateStateToDiagnosisMade()
}

class MedicalReport{
-String diagnosis
-Date createdAt
+ MedicalReport(diagnosis)
+ addCreationDate()
}

class TestParameter{
+ getParameterName()
+ getParameterResult()
+ getParameterMetric()
+ getParameterMinRefValue()
+ getParameterMaxRefValue()
+ getRefValueMetric()
}
}

package Store{
class TestStore{
+getTestHasSamplesAnalyzedList()
+getTestByInternalCode(code)
}
}

package Mappers{
class TestMapper{
+toDto(test)
+toDto(testList)
}

class TestParameterMapper{
+toDTO(testParametersList)
+toDTO(testParameter)
}
}

package DTO{
class TestDto{
-String internalCode
-String description
+TestDto(internalCode,description)
}

class TestParameterDto{
-String parameterName
-String testParameterResult
-String testParameterMetric
-double testParameterMinRefValue
-double testParameterMaxRefValue
-String refValueMetric
+TestParameterDto(parameterName,testParameterResult,\ntestParameterMetric,testParameterMinRefValue,\ntestParameterMaxRefValue,refValueMetric)
}
}


WriteMedicalReportUI ..> WriteMedicalReportController
WriteMedicalReportUI ..> TestDto
WriteMedicalReportUI ..> TestParameterDto
WriteMedicalReportController ..> Company
WriteMedicalReportController ..> TestStore
WriteMedicalReportController ..> TestMapper
WriteMedicalReportController ...> TestParameterDto
WriteMedicalReportController ...> TestDto
WriteMedicalReportController ...> TestParameter
WriteMedicalReportController ...> Test
WriteMedicalReportController ..> TestParameterMapper
TestParameterMapper ..> TestParameterDto
TestParameterMapper ..> TestParameter
TestMapper ..> TestDto
TestMapper ..> Test
Company "1"- -"1..*" Test : performs >
TestParameter "1..*" - -"1" Test : requests analysis of <
Test "1"- -"1" MedicalReport : request >
Company"1"- -> "1" TestStore : uses

@enduml

PlantUML version 1.2021.5(Sun Apr 25 12:20:28 BST 2021)
(GPL source distribution)
Java Runtime: OpenJDK Runtime Environment
JVM: Dynamic Code Evolution 64-Bit Server VM
Default Encoding: Cp1252
Language: pt
Country: PT
--></g></svg>