<?xml version="1.0" encoding="UTF-8" standalone="no"?><svg xmlns="http://www.w3.org/2000/svg" xmlns:xlink="http://www.w3.org/1999/xlink" contentScriptType="application/ecmascript" contentStyleType="text/css" height="1014.3px" preserveAspectRatio="none" style="width:1125px;height:1014px;" version="1.1" viewBox="0 0 1125 1014" width="1125px" zoomAndPan="magnify"><defs><filter height="300%" id="f1azkh4bzxc6k9" width="300%" x="-1" y="-1"><feGaussianBlur result="blurOut" stdDeviation="1.8"/><feColorMatrix in="blurOut" result="blurOut2" type="matrix" values="0 0 0 0 0 0 0 0 0 0 0 0 0 0 0 0 0 0 .4 0"/><feOffset dx="3.6" dy="3.6" in="blurOut2" result="blurOut3"/><feBlend in="SourceGraphic" in2="blurOut3" mode="normal"/></filter></defs><g><!--MD5=[9681dc6e01e10c6b4fe06895ae94f592]
cluster UI--><polygon fill="#FFFFFF" filter="url(#f1azkh4bzxc6k9)" points="151.2,5.4,169.2,5.4,175.5,26.6484,316.8,26.6484,316.8,95.4,151.2,95.4,151.2,5.4" style="stroke:#000000;stroke-width:1.35;"/><line style="stroke:#000000;stroke-width:1.35;" x1="151.2" x2="175.5" y1="26.6484" y2="26.6484"/><text fill="#000000" font-family="sans-serif" font-size="12.6" font-weight="bold" lengthAdjust="spacing" textLength="12.6" x="154.8" y="20.2799">UI</text><!--MD5=[1f2cfc53d9d308f53762fd0fcbaa4873]
cluster Controller--><polygon fill="#FFFFFF" filter="url(#f1azkh4bzxc6k9)" points="396,125.1,465.3,125.1,471.6,146.3484,603,146.3484,603,252.9,396,252.9,396,125.1" style="stroke:#000000;stroke-width:1.35;"/><line style="stroke:#000000;stroke-width:1.35;" x1="396" x2="471.6" y1="146.3484" y2="146.3484"/><text fill="#000000" font-family="sans-serif" font-size="12.6" font-weight="bold" lengthAdjust="spacing" textLength="63.9" x="399.6" y="139.9799">Controller</text><!--MD5=[15636c1ca4a123c16a2a1a8e90aca7a9]
cluster Model--><polygon fill="#FFFFFF" filter="url(#f1azkh4bzxc6k9)" points="576,446.4,621,446.4,627.3,467.6484,884.7,467.6484,884.7,1008,576,1008,576,446.4" style="stroke:#000000;stroke-width:1.35;"/><line style="stroke:#000000;stroke-width:1.35;" x1="576" x2="627.3" y1="467.6484" y2="467.6484"/><text fill="#000000" font-family="sans-serif" font-size="12.6" font-weight="bold" lengthAdjust="spacing" textLength="39.6" x="579.6" y="461.2799">Model</text><!--MD5=[7ce1723ddb6e6233854253973eae5a71]
cluster Store--><polygon fill="#FFFFFF" filter="url(#f1azkh4bzxc6k9)" points="906.3,692.55,945.9,692.55,952.2,713.7984,1109.7,713.7984,1109.7,807.75,906.3,807.75,906.3,692.55" style="stroke:#000000;stroke-width:1.35;"/><line style="stroke:#000000;stroke-width:1.35;" x1="906.3" x2="952.2" y1="713.7984" y2="713.7984"/><text fill="#000000" font-family="sans-serif" font-size="12.6" font-weight="bold" lengthAdjust="spacing" textLength="34.2" x="909.9" y="707.4299">Store</text><!--MD5=[701152d03fbf85133a1de050cfdbc7fd]
cluster Mappers--><polygon fill="#FFFFFF" filter="url(#f1azkh4bzxc6k9)" points="395.1,282.6,456.3,282.6,462.6,303.8484,683.1,303.8484,683.1,397.8,395.1,397.8,395.1,282.6" style="stroke:#000000;stroke-width:1.35;"/><line style="stroke:#000000;stroke-width:1.35;" x1="395.1" x2="462.6" y1="303.8484" y2="303.8484"/><text fill="#000000" font-family="sans-serif" font-size="12.6" font-weight="bold" lengthAdjust="spacing" textLength="55.8" x="398.7" y="297.4799">Mappers</text><!--MD5=[7b8bc9ee8bb84b99fb3a3f9477c19238]
cluster DTO--><polygon fill="#FFFFFF" filter="url(#f1azkh4bzxc6k9)" points="14.4,427.5,45.9,427.5,52.2,448.7484,509.4,448.7484,509.4,630,14.4,630,14.4,427.5" style="stroke:#000000;stroke-width:1.35;"/><line style="stroke:#000000;stroke-width:1.35;" x1="14.4" x2="52.2" y1="448.7484" y2="448.7484"/><text fill="#000000" font-family="sans-serif" font-size="12.6" font-weight="bold" lengthAdjust="spacing" textLength="26.1" x="18" y="442.3799">DTO</text><!--MD5=[e4ec2e7ae8016ed7f2a23175278300b9]
class WriteMedicalReportUI--><rect codeLine="3" fill="#FEFECE" filter="url(#f1azkh4bzxc6k9)" height="43.2" id="WriteMedicalReportUI" style="stroke:#A80036;stroke-width:1.35;" width="135.9" x="166.05" y="37.8"/><ellipse cx="179.55" cy="52.2" fill="#ADD1B2" rx="9.9" ry="9.9" style="stroke:#A80036;stroke-width:0.9;"/><path d="M181.35,49.05 Q181.5328,48.6 181.7438,48.375 Q181.9547,48.15 182.1938,48.15 Q182.6156,48.15 182.8828,48.4031 Q183.15,48.6563 183.15,49.2469 L183.15,50.6531 Q183.15,51.2438 182.8969,51.4969 Q182.6438,51.75 182.25,51.75 Q181.8984,51.75 181.6734,51.5953 Q181.4484,51.4406 181.35,51.0328 Q181.3078,50.7516 181.1531,50.5969 Q180.8719,50.3016 180.3656,50.1328 Q179.8594,49.95 179.3531,49.95 Q178.7203,49.95 178.1859,50.2031 Q177.6656,50.4563 177.2578,51.0188 Q176.85,51.5813 176.85,52.3547 L176.85,53.1844 Q176.85,54.1125 177.6094,54.7313 Q178.3688,55.35 179.7188,55.35 Q180.5203,55.35 181.0828,55.1672 Q181.4063,55.0688 181.7719,54.7453 Q182.0109,54.5625 182.1375,54.5063 Q182.2641,54.45 182.4188,54.45 Q182.7141,54.45 182.925,54.6891 Q183.15,54.9141 183.15,55.2375 Q183.15,55.5469 182.8406,55.9125 Q182.3906,56.4469 181.6734,56.7422 Q180.7313,57.15 179.5781,57.15 Q178.2281,57.15 177.1453,56.6156 Q176.2734,56.1938 175.6547,55.2797 Q175.05,54.3656 175.05,53.2828 L175.05,52.2984 Q175.05,51.1734 175.5844,50.1891 Q176.1328,49.2047 177.075,48.6844 Q178.0313,48.15 179.1,48.15 Q179.7469,48.15 180.3094,48.375 Q180.8719,48.6 181.35,49.05 Z " fill="#000000"/><text fill="#000000" font-family="sans-serif" font-size="10.8" lengthAdjust="spacing" textLength="107.1" x="192.15" y="56.6191">WriteMedicalReportUI</text><line style="stroke:#A80036;stroke-width:1.35;" x1="166.95" x2="301.05" y1="66.6" y2="66.6"/><line style="stroke:#A80036;stroke-width:1.35;" x1="166.95" x2="301.05" y1="73.8" y2="73.8"/><!--MD5=[4304a37fa14ad02974e6bd4bd1961bd7]
class WriteMedicalReportController--><rect codeLine="8" fill="#FEFECE" filter="url(#f1azkh4bzxc6k9)" height="80.557" id="WriteMedicalReportController" style="stroke:#A80036;stroke-width:1.35;" width="178.2" x="410.4" y="157.5"/><ellipse cx="425.925" cy="171.9" fill="#ADD1B2" rx="9.9" ry="9.9" style="stroke:#A80036;stroke-width:0.9;"/><path d="M427.725,168.75 Q427.9078,168.3 428.1188,168.075 Q428.3297,167.85 428.5688,167.85 Q428.9906,167.85 429.2578,168.1031 Q429.525,168.3563 429.525,168.9469 L429.525,170.3531 Q429.525,170.9438 429.2719,171.1969 Q429.0188,171.45 428.625,171.45 Q428.2734,171.45 428.0484,171.2953 Q427.8234,171.1406 427.725,170.7328 Q427.6828,170.4516 427.5281,170.2969 Q427.2469,170.0016 426.7406,169.8328 Q426.2344,169.65 425.7281,169.65 Q425.0953,169.65 424.5609,169.9031 Q424.0406,170.1563 423.6328,170.7188 Q423.225,171.2813 423.225,172.0547 L423.225,172.8844 Q423.225,173.8125 423.9844,174.4313 Q424.7438,175.05 426.0938,175.05 Q426.8953,175.05 427.4578,174.8672 Q427.7813,174.7688 428.1469,174.4453 Q428.3859,174.2625 428.5125,174.2063 Q428.6391,174.15 428.7938,174.15 Q429.0891,174.15 429.3,174.3891 Q429.525,174.6141 429.525,174.9375 Q429.525,175.2469 429.2156,175.6125 Q428.7656,176.1469 428.0484,176.4422 Q427.1063,176.85 425.9531,176.85 Q424.6031,176.85 423.5203,176.3156 Q422.6484,175.8938 422.0297,174.9797 Q421.425,174.0656 421.425,172.9828 L421.425,171.9984 Q421.425,170.8734 421.9594,169.8891 Q422.5078,168.9047 423.45,168.3844 Q424.4063,167.85 425.475,167.85 Q426.1219,167.85 426.6844,168.075 Q427.2469,168.3 427.725,168.75 Z " fill="#000000"/><text fill="#000000" font-family="sans-serif" font-size="10.8" lengthAdjust="spacing" textLength="144.9" x="438.975" y="176.3191">WriteMedicalReportController</text><line style="stroke:#A80036;stroke-width:1.35;" x1="411.3" x2="587.7" y1="186.3" y2="186.3"/><line style="stroke:#A80036;stroke-width:1.35;" x1="411.3" x2="587.7" y1="193.5" y2="193.5"/><ellipse cx="420.3" cy="203.4" fill="#84BE84" rx="2.7" ry="2.7" style="stroke:#038048;stroke-width:0.9;"/><text fill="#000000" font-family="sans-serif" font-size="9.9" lengthAdjust="spacing" textLength="150.3" x="428.4" y="207.3771">getTestHasSamplesAnalyzedList()</text><ellipse cx="420.3" cy="215.8523" fill="#84BE84" rx="2.7" ry="2.7" style="stroke:#038048;stroke-width:0.9;"/><text fill="#000000" font-family="sans-serif" font-size="9.9" lengthAdjust="spacing" textLength="154.8" x="428.4" y="219.8294">getTestParameterList(selectedTest)</text><ellipse cx="420.3" cy="228.3047" fill="#84BE84" rx="2.7" ry="2.7" style="stroke:#038048;stroke-width:0.9;"/><text fill="#000000" font-family="sans-serif" font-size="9.9" lengthAdjust="spacing" textLength="126" x="428.4" y="232.2817">addMedicalReport(diagnosis)</text><!--MD5=[02e4b9b7573f1156f41e60aa5b4e25a4]
class Company--><rect codeLine="16" fill="#FEFECE" filter="url(#f1azkh4bzxc6k9)" height="68.1047" id="Company" style="stroke:#A80036;stroke-width:1.35;" width="100.8" x="769.5" y="503.55"/><ellipse cx="793.935" cy="517.95" fill="#ADD1B2" rx="9.9" ry="9.9" style="stroke:#A80036;stroke-width:0.9;"/><path d="M795.735,514.8 Q795.9178,514.35 796.1288,514.125 Q796.3397,513.9 796.5788,513.9 Q797.0006,513.9 797.2678,514.1531 Q797.535,514.4063 797.535,514.9969 L797.535,516.4031 Q797.535,516.9938 797.2819,517.2469 Q797.0288,517.5 796.635,517.5 Q796.2834,517.5 796.0584,517.3453 Q795.8334,517.1906 795.735,516.7828 Q795.6928,516.5016 795.5381,516.3469 Q795.2569,516.0516 794.7506,515.8828 Q794.2444,515.7 793.7381,515.7 Q793.1053,515.7 792.5709,515.9531 Q792.0506,516.2063 791.6428,516.7688 Q791.235,517.3313 791.235,518.1047 L791.235,518.9344 Q791.235,519.8625 791.9944,520.4813 Q792.7538,521.1 794.1038,521.1 Q794.9053,521.1 795.4678,520.9172 Q795.7913,520.8188 796.1569,520.4953 Q796.3959,520.3125 796.5225,520.2563 Q796.6491,520.2 796.8038,520.2 Q797.0991,520.2 797.31,520.4391 Q797.535,520.6641 797.535,520.9875 Q797.535,521.2969 797.2256,521.6625 Q796.7756,522.1969 796.0584,522.4922 Q795.1163,522.9 793.9631,522.9 Q792.6131,522.9 791.5303,522.3656 Q790.6584,521.9438 790.0397,521.0297 Q789.435,520.1156 789.435,519.0328 L789.435,518.0484 Q789.435,516.9234 789.9694,515.9391 Q790.5178,514.9547 791.46,514.4344 Q792.4163,513.9 793.485,513.9 Q794.1319,513.9 794.6944,514.125 Q795.2569,514.35 795.735,514.8 Z " fill="#000000"/><text fill="#000000" font-family="sans-serif" font-size="10.8" lengthAdjust="spacing" textLength="47.7" x="808.965" y="522.3691">Company</text><line style="stroke:#A80036;stroke-width:1.35;" x1="770.4" x2="869.4" y1="532.35" y2="532.35"/><rect fill="none" height="5.4" style="stroke:#C82930;stroke-width:0.9;" width="5.4" x="776.7" y="539.55"/><text fill="#000000" font-family="sans-serif" font-size="9.9" lengthAdjust="spacing" textLength="77.4" x="787.5" y="546.2271">String designation</text><line style="stroke:#A80036;stroke-width:1.35;" x1="770.4" x2="869.4" y1="552.0023" y2="552.0023"/><ellipse cx="779.4" cy="561.9023" fill="#84BE84" rx="2.7" ry="2.7" style="stroke:#038048;stroke-width:0.9;"/><text fill="#000000" font-family="sans-serif" font-size="9.9" lengthAdjust="spacing" textLength="63" x="787.5" y="565.8794">getTestStore()</text><!--MD5=[df38be88ccee13e832d6fafd6288a4ca]
class Test--><rect codeLine="21" fill="#FEFECE" filter="url(#f1azkh4bzxc6k9)" height="142.8188" id="Test" style="stroke:#A80036;stroke-width:1.35;" width="149.4" x="655.2" y="687.6"/><ellipse cx="715.275" cy="702" fill="#ADD1B2" rx="9.9" ry="9.9" style="stroke:#A80036;stroke-width:0.9;"/><path d="M717.075,698.85 Q717.2578,698.4 717.4688,698.175 Q717.6797,697.95 717.9188,697.95 Q718.3406,697.95 718.6078,698.2031 Q718.875,698.4563 718.875,699.0469 L718.875,700.4531 Q718.875,701.0438 718.6219,701.2969 Q718.3688,701.55 717.975,701.55 Q717.6234,701.55 717.3984,701.3953 Q717.1734,701.2406 717.075,700.8328 Q717.0328,700.5516 716.8781,700.3969 Q716.5969,700.1016 716.0906,699.9328 Q715.5844,699.75 715.0781,699.75 Q714.4453,699.75 713.9109,700.0031 Q713.3906,700.2563 712.9828,700.8188 Q712.575,701.3813 712.575,702.1547 L712.575,702.9844 Q712.575,703.9125 713.3344,704.5313 Q714.0938,705.15 715.4438,705.15 Q716.2453,705.15 716.8078,704.9672 Q717.1313,704.8688 717.4969,704.5453 Q717.7359,704.3625 717.8625,704.3063 Q717.9891,704.25 718.1438,704.25 Q718.4391,704.25 718.65,704.4891 Q718.875,704.7141 718.875,705.0375 Q718.875,705.3469 718.5656,705.7125 Q718.1156,706.2469 717.3984,706.5422 Q716.4563,706.95 715.3031,706.95 Q713.9531,706.95 712.8703,706.4156 Q711.9984,705.9938 711.3797,705.0797 Q710.775,704.1656 710.775,703.0828 L710.775,702.0984 Q710.775,700.9734 711.3094,699.9891 Q711.8578,699.0047 712.8,698.4844 Q713.7563,697.95 714.825,697.95 Q715.4719,697.95 716.0344,698.175 Q716.5969,698.4 717.075,698.85 Z " fill="#000000"/><text fill="#000000" font-family="sans-serif" font-size="10.8" lengthAdjust="spacing" textLength="21.6" x="733.725" y="706.4191">Test</text><line style="stroke:#A80036;stroke-width:1.35;" x1="656.1" x2="803.7" y1="716.4" y2="716.4"/><rect fill="none" height="5.4" style="stroke:#C82930;stroke-width:0.9;" width="5.4" x="662.4" y="723.6"/><text fill="#000000" font-family="sans-serif" font-size="9.9" lengthAdjust="spacing" textLength="81.9" x="673.2" y="730.2771">String internalCode</text><rect fill="none" height="5.4" style="stroke:#C82930;stroke-width:0.9;" width="5.4" x="662.4" y="736.0523"/><text fill="#000000" font-family="sans-serif" font-size="9.9" lengthAdjust="spacing" textLength="66.6" x="673.2" y="742.7294">String nhsCode</text><rect fill="none" height="5.4" style="stroke:#C82930;stroke-width:0.9;" width="5.4" x="662.4" y="748.5047"/><text fill="#000000" font-family="sans-serif" font-size="9.9" lengthAdjust="spacing" textLength="75.6" x="673.2" y="755.1817">String description</text><line style="stroke:#A80036;stroke-width:1.35;" x1="656.1" x2="803.7" y1="760.957" y2="760.957"/><ellipse cx="665.1" cy="770.857" fill="#84BE84" rx="2.7" ry="2.7" style="stroke:#038048;stroke-width:0.9;"/><text fill="#000000" font-family="sans-serif" font-size="9.9" lengthAdjust="spacing" textLength="109.8" x="673.2" y="774.8341">getParametersResulList()</text><ellipse cx="665.1" cy="783.3094" fill="#84BE84" rx="2.7" ry="2.7" style="stroke:#038048;stroke-width:0.9;"/><text fill="#000000" font-family="sans-serif" font-size="9.9" lengthAdjust="spacing" textLength="69.3" x="673.2" y="787.2864">getDescription()</text><ellipse cx="665.1" cy="795.7617" fill="#84BE84" rx="2.7" ry="2.7" style="stroke:#038048;stroke-width:0.9;"/><text fill="#000000" font-family="sans-serif" font-size="9.9" lengthAdjust="spacing" textLength="74.7" x="673.2" y="799.7388">getInternalCode()</text><ellipse cx="665.1" cy="808.2141" fill="#84BE84" rx="2.7" ry="2.7" style="stroke:#038048;stroke-width:0.9;"/><text fill="#000000" font-family="sans-serif" font-size="9.9" lengthAdjust="spacing" textLength="126" x="673.2" y="812.1911">addMedicalReport(diagnosis)</text><ellipse cx="665.1" cy="820.6664" fill="#84BE84" rx="2.7" ry="2.7" style="stroke:#038048;stroke-width:0.9;"/><text fill="#000000" font-family="sans-serif" font-size="9.9" lengthAdjust="spacing" textLength="101.7" x="673.2" y="824.6435">validateMedicalReport()</text><!--MD5=[b2d1f399f1909a0bb241ed0598ba126f]
class MedicalReport--><rect codeLine="32" fill="#FEFECE" filter="url(#f1azkh4bzxc6k9)" height="93.0094" id="MedicalReport" style="stroke:#A80036;stroke-width:1.35;" width="133.2" x="663.3" y="900.9"/><ellipse cx="691.785" cy="915.3" fill="#ADD1B2" rx="9.9" ry="9.9" style="stroke:#A80036;stroke-width:0.9;"/><path d="M693.585,912.15 Q693.7678,911.7 693.9788,911.475 Q694.1897,911.25 694.4288,911.25 Q694.8506,911.25 695.1178,911.5031 Q695.385,911.7563 695.385,912.3469 L695.385,913.7531 Q695.385,914.3438 695.1319,914.5969 Q694.8788,914.85 694.485,914.85 Q694.1334,914.85 693.9084,914.6953 Q693.6834,914.5406 693.585,914.1328 Q693.5428,913.8516 693.3881,913.6969 Q693.1069,913.4016 692.6006,913.2328 Q692.0944,913.05 691.5881,913.05 Q690.9553,913.05 690.4209,913.3031 Q689.9006,913.5563 689.4928,914.1188 Q689.085,914.6813 689.085,915.4547 L689.085,916.2844 Q689.085,917.2125 689.8444,917.8313 Q690.6038,918.45 691.9538,918.45 Q692.7553,918.45 693.3178,918.2672 Q693.6413,918.1688 694.0069,917.8453 Q694.2459,917.6625 694.3725,917.6063 Q694.4991,917.55 694.6538,917.55 Q694.9491,917.55 695.16,917.7891 Q695.385,918.0141 695.385,918.3375 Q695.385,918.6469 695.0756,919.0125 Q694.6256,919.5469 693.9084,919.8422 Q692.9663,920.25 691.8131,920.25 Q690.4631,920.25 689.3803,919.7156 Q688.5084,919.2938 687.8897,918.3797 Q687.285,917.4656 687.285,916.3828 L687.285,915.3984 Q687.285,914.2734 687.8194,913.2891 Q688.3678,912.3047 689.31,911.7844 Q690.2663,911.25 691.335,911.25 Q691.9819,911.25 692.5444,911.475 Q693.1069,911.7 693.585,912.15 Z " fill="#000000"/><text fill="#000000" font-family="sans-serif" font-size="10.8" lengthAdjust="spacing" textLength="71.1" x="707.715" y="919.7191">MedicalReport</text><line style="stroke:#A80036;stroke-width:1.35;" x1="664.2" x2="795.6" y1="929.7" y2="929.7"/><rect fill="none" height="5.4" style="stroke:#C82930;stroke-width:0.9;" width="5.4" x="670.5" y="936.9"/><text fill="#000000" font-family="sans-serif" font-size="9.9" lengthAdjust="spacing" textLength="69.3" x="681.3" y="943.5771">String diagnosis</text><rect fill="none" height="5.4" style="stroke:#C82930;stroke-width:0.9;" width="5.4" x="670.5" y="949.3523"/><text fill="#000000" font-family="sans-serif" font-size="9.9" lengthAdjust="spacing" textLength="65.7" x="681.3" y="956.0294">Date createdAt</text><line style="stroke:#A80036;stroke-width:1.35;" x1="664.2" x2="795.6" y1="961.8047" y2="961.8047"/><ellipse cx="673.2" cy="971.7047" fill="#84BE84" rx="2.7" ry="2.7" style="stroke:#038048;stroke-width:0.9;"/><text fill="#000000" font-family="sans-serif" font-size="9.9" lengthAdjust="spacing" textLength="109.8" x="681.3" y="975.6817">MedicalReport(diagnosis)</text><ellipse cx="673.2" cy="984.157" fill="#84BE84" rx="2.7" ry="2.7" style="stroke:#038048;stroke-width:0.9;"/><text fill="#000000" font-family="sans-serif" font-size="9.9" lengthAdjust="spacing" textLength="79.2" x="681.3" y="988.1341">addCreationDate()</text><!--MD5=[0f07739f46effee96e095e9c408da841]
class TestParameter--><rect codeLine="39" fill="#FEFECE" filter="url(#f1azkh4bzxc6k9)" height="117.9141" id="TestParameter" style="stroke:#A80036;stroke-width:1.35;" width="146.7" x="590.85" y="478.8"/><ellipse cx="624.195" cy="493.2" fill="#ADD1B2" rx="9.9" ry="9.9" style="stroke:#A80036;stroke-width:0.9;"/><path d="M625.995,490.05 Q626.1778,489.6 626.3888,489.375 Q626.5997,489.15 626.8388,489.15 Q627.2606,489.15 627.5278,489.4031 Q627.795,489.6563 627.795,490.2469 L627.795,491.6531 Q627.795,492.2438 627.5419,492.4969 Q627.2887,492.75 626.895,492.75 Q626.5434,492.75 626.3184,492.5953 Q626.0934,492.4406 625.995,492.0328 Q625.9528,491.7516 625.7981,491.5969 Q625.5169,491.3016 625.0106,491.1328 Q624.5044,490.95 623.9981,490.95 Q623.3653,490.95 622.8309,491.2031 Q622.3106,491.4563 621.9028,492.0188 Q621.495,492.5813 621.495,493.3547 L621.495,494.1844 Q621.495,495.1125 622.2544,495.7313 Q623.0138,496.35 624.3638,496.35 Q625.1653,496.35 625.7278,496.1672 Q626.0513,496.0688 626.4169,495.7453 Q626.6559,495.5625 626.7825,495.5063 Q626.9091,495.45 627.0638,495.45 Q627.3591,495.45 627.57,495.6891 Q627.795,495.9141 627.795,496.2375 Q627.795,496.5469 627.4856,496.9125 Q627.0356,497.4469 626.3184,497.7422 Q625.3763,498.15 624.2231,498.15 Q622.8731,498.15 621.7903,497.6156 Q620.9184,497.1938 620.2997,496.2797 Q619.695,495.3656 619.695,494.2828 L619.695,493.2984 Q619.695,492.1734 620.2294,491.1891 Q620.7778,490.2047 621.72,489.6844 Q622.6763,489.15 623.745,489.15 Q624.3919,489.15 624.9544,489.375 Q625.5169,489.6 625.995,490.05 Z " fill="#000000"/><text fill="#000000" font-family="sans-serif" font-size="10.8" lengthAdjust="spacing" textLength="73.8" x="641.205" y="497.6191">TestParameter</text><line style="stroke:#A80036;stroke-width:1.35;" x1="591.75" x2="736.65" y1="507.6" y2="507.6"/><line style="stroke:#A80036;stroke-width:1.35;" x1="591.75" x2="736.65" y1="514.8" y2="514.8"/><ellipse cx="600.75" cy="524.7" fill="#84BE84" rx="2.7" ry="2.7" style="stroke:#038048;stroke-width:0.9;"/><text fill="#000000" font-family="sans-serif" font-size="9.9" lengthAdjust="spacing" textLength="89.1" x="608.85" y="528.6771">getParameterName()</text><ellipse cx="600.75" cy="537.1523" fill="#84BE84" rx="2.7" ry="2.7" style="stroke:#038048;stroke-width:0.9;"/><text fill="#000000" font-family="sans-serif" font-size="9.9" lengthAdjust="spacing" textLength="91.8" x="608.85" y="541.1294">getParameterResult()</text><ellipse cx="600.75" cy="549.6047" fill="#84BE84" rx="2.7" ry="2.7" style="stroke:#038048;stroke-width:0.9;"/><text fill="#000000" font-family="sans-serif" font-size="9.9" lengthAdjust="spacing" textLength="90.9" x="608.85" y="553.5817">getParameterMetric()</text><ellipse cx="600.75" cy="562.057" fill="#84BE84" rx="2.7" ry="2.7" style="stroke:#038048;stroke-width:0.9;"/><text fill="#000000" font-family="sans-serif" font-size="9.9" lengthAdjust="spacing" textLength="119.7" x="608.85" y="566.0341">getParameterMinRefValue()</text><ellipse cx="600.75" cy="574.5094" fill="#84BE84" rx="2.7" ry="2.7" style="stroke:#038048;stroke-width:0.9;"/><text fill="#000000" font-family="sans-serif" font-size="9.9" lengthAdjust="spacing" textLength="123.3" x="608.85" y="578.4864">getParameterMaxRefValue()</text><ellipse cx="600.75" cy="586.9617" fill="#84BE84" rx="2.7" ry="2.7" style="stroke:#038048;stroke-width:0.9;"/><text fill="#000000" font-family="sans-serif" font-size="9.9" lengthAdjust="spacing" textLength="87.3" x="608.85" y="590.9388">getRefValueMetric()</text><!--MD5=[0f6f7964b844a64b0496af0dda7914bd]
class TestStore--><rect codeLine="50" fill="#FEFECE" filter="url(#f1azkh4bzxc6k9)" height="68.1047" id="TestStore" style="stroke:#A80036;stroke-width:1.35;" width="173.7" x="921.15" y="724.95"/><ellipse cx="980.325" cy="739.35" fill="#ADD1B2" rx="9.9" ry="9.9" style="stroke:#A80036;stroke-width:0.9;"/><path d="M982.125,736.2 Q982.3078,735.75 982.5188,735.525 Q982.7297,735.3 982.9688,735.3 Q983.3906,735.3 983.6578,735.5531 Q983.925,735.8063 983.925,736.3969 L983.925,737.8031 Q983.925,738.3938 983.6719,738.6469 Q983.4188,738.9 983.025,738.9 Q982.6734,738.9 982.4484,738.7453 Q982.2234,738.5906 982.125,738.1828 Q982.0828,737.9016 981.9281,737.7469 Q981.6469,737.4516 981.1406,737.2828 Q980.6344,737.1 980.1281,737.1 Q979.4953,737.1 978.9609,737.3531 Q978.4406,737.6063 978.0328,738.1688 Q977.625,738.7313 977.625,739.5047 L977.625,740.3344 Q977.625,741.2625 978.3844,741.8813 Q979.1438,742.5 980.4938,742.5 Q981.2953,742.5 981.8578,742.3172 Q982.1813,742.2188 982.5469,741.8953 Q982.7859,741.7125 982.9125,741.6563 Q983.0391,741.6 983.1938,741.6 Q983.4891,741.6 983.7,741.8391 Q983.925,742.0641 983.925,742.3875 Q983.925,742.6969 983.6156,743.0625 Q983.1656,743.5969 982.4484,743.8922 Q981.5063,744.3 980.3531,744.3 Q979.0031,744.3 977.9203,743.7656 Q977.0484,743.3438 976.4297,742.4297 Q975.825,741.5156 975.825,740.4328 L975.825,739.4484 Q975.825,738.3234 976.3594,737.3391 Q976.9078,736.3547 977.85,735.8344 Q978.8063,735.3 979.875,735.3 Q980.5219,735.3 981.0844,735.525 Q981.6469,735.75 982.125,736.2 Z " fill="#000000"/><text fill="#000000" font-family="sans-serif" font-size="10.8" lengthAdjust="spacing" textLength="47.7" x="998.775" y="743.7691">TestStore</text><line style="stroke:#A80036;stroke-width:1.35;" x1="922.05" x2="1093.95" y1="753.75" y2="753.75"/><line style="stroke:#A80036;stroke-width:1.35;" x1="922.05" x2="1093.95" y1="760.95" y2="760.95"/><ellipse cx="931.05" cy="770.85" fill="#84BE84" rx="2.7" ry="2.7" style="stroke:#038048;stroke-width:0.9;"/><text fill="#000000" font-family="sans-serif" font-size="9.9" lengthAdjust="spacing" textLength="150.3" x="939.15" y="774.8271">getTestHasSamplesAnalyzedList()</text><ellipse cx="931.05" cy="783.3023" fill="#84BE84" rx="2.7" ry="2.7" style="stroke:#038048;stroke-width:0.9;"/><text fill="#000000" font-family="sans-serif" font-size="9.9" lengthAdjust="spacing" textLength="126.9" x="939.15" y="787.2794">getTestByInternalCode(code)</text><!--MD5=[144698ec4d0188f6929a3b58a3eeb1f6]
class TestMapper--><rect codeLine="57" fill="#FEFECE" filter="url(#f1azkh4bzxc6k9)" height="68.1047" id="TestMapper" style="stroke:#A80036;stroke-width:1.35;" width="87.3" x="409.95" y="315"/><ellipse cx="423.45" cy="329.4" fill="#ADD1B2" rx="9.9" ry="9.9" style="stroke:#A80036;stroke-width:0.9;"/><path d="M425.25,326.25 Q425.4328,325.8 425.6438,325.575 Q425.8547,325.35 426.0938,325.35 Q426.5156,325.35 426.7828,325.6031 Q427.05,325.8563 427.05,326.4469 L427.05,327.8531 Q427.05,328.4438 426.7969,328.6969 Q426.5438,328.95 426.15,328.95 Q425.7984,328.95 425.5734,328.7953 Q425.3484,328.6406 425.25,328.2328 Q425.2078,327.9516 425.0531,327.7969 Q424.7719,327.5016 424.2656,327.3328 Q423.7594,327.15 423.2531,327.15 Q422.6203,327.15 422.0859,327.4031 Q421.5656,327.6563 421.1578,328.2188 Q420.75,328.7813 420.75,329.5547 L420.75,330.3844 Q420.75,331.3125 421.5094,331.9313 Q422.2688,332.55 423.6188,332.55 Q424.4203,332.55 424.9828,332.3672 Q425.3063,332.2688 425.6719,331.9453 Q425.9109,331.7625 426.0375,331.7063 Q426.1641,331.65 426.3188,331.65 Q426.6141,331.65 426.825,331.8891 Q427.05,332.1141 427.05,332.4375 Q427.05,332.7469 426.7406,333.1125 Q426.2906,333.6469 425.5734,333.9422 Q424.6313,334.35 423.4781,334.35 Q422.1281,334.35 421.0453,333.8156 Q420.1734,333.3938 419.5547,332.4797 Q418.95,331.5656 418.95,330.4828 L418.95,329.4984 Q418.95,328.3734 419.4844,327.3891 Q420.0328,326.4047 420.975,325.8844 Q421.9313,325.35 423,325.35 Q423.6469,325.35 424.2094,325.575 Q424.7719,325.8 425.25,326.25 Z " fill="#000000"/><text fill="#000000" font-family="sans-serif" font-size="10.8" lengthAdjust="spacing" textLength="58.5" x="436.05" y="333.8191">TestMapper</text><line style="stroke:#A80036;stroke-width:1.35;" x1="410.85" x2="496.35" y1="343.8" y2="343.8"/><line style="stroke:#A80036;stroke-width:1.35;" x1="410.85" x2="496.35" y1="351" y2="351"/><ellipse cx="419.85" cy="360.9" fill="#84BE84" rx="2.7" ry="2.7" style="stroke:#038048;stroke-width:0.9;"/><text fill="#000000" font-family="sans-serif" font-size="9.9" lengthAdjust="spacing" textLength="45.9" x="427.95" y="364.8771">toDto(test)</text><ellipse cx="419.85" cy="373.3523" fill="#84BE84" rx="2.7" ry="2.7" style="stroke:#038048;stroke-width:0.9;"/><text fill="#000000" font-family="sans-serif" font-size="9.9" lengthAdjust="spacing" textLength="61.2" x="427.95" y="377.3294">toDto(testList)</text><!--MD5=[a82d32c079496d6dca2681dc0633feb0]
class TestParameterMapper--><rect codeLine="62" fill="#FEFECE" filter="url(#f1azkh4bzxc6k9)" height="68.1047" id="TestParameterMapper" style="stroke:#A80036;stroke-width:1.35;" width="139.5" x="528.75" y="315"/><ellipse cx="542.25" cy="329.4" fill="#ADD1B2" rx="9.9" ry="9.9" style="stroke:#A80036;stroke-width:0.9;"/><path d="M544.05,326.25 Q544.2328,325.8 544.4438,325.575 Q544.6547,325.35 544.8938,325.35 Q545.3156,325.35 545.5828,325.6031 Q545.85,325.8563 545.85,326.4469 L545.85,327.8531 Q545.85,328.4438 545.5969,328.6969 Q545.3438,328.95 544.95,328.95 Q544.5984,328.95 544.3734,328.7953 Q544.1484,328.6406 544.05,328.2328 Q544.0078,327.9516 543.8531,327.7969 Q543.5719,327.5016 543.0656,327.3328 Q542.5594,327.15 542.0531,327.15 Q541.4203,327.15 540.8859,327.4031 Q540.3656,327.6563 539.9578,328.2188 Q539.55,328.7813 539.55,329.5547 L539.55,330.3844 Q539.55,331.3125 540.3094,331.9313 Q541.0688,332.55 542.4188,332.55 Q543.2203,332.55 543.7828,332.3672 Q544.1063,332.2688 544.4719,331.9453 Q544.7109,331.7625 544.8375,331.7063 Q544.9641,331.65 545.1188,331.65 Q545.4141,331.65 545.625,331.8891 Q545.85,332.1141 545.85,332.4375 Q545.85,332.7469 545.5406,333.1125 Q545.0906,333.6469 544.3734,333.9422 Q543.4313,334.35 542.2781,334.35 Q540.9281,334.35 539.8453,333.8156 Q538.9734,333.3938 538.3547,332.4797 Q537.75,331.5656 537.75,330.4828 L537.75,329.4984 Q537.75,328.3734 538.2844,327.3891 Q538.8328,326.4047 539.775,325.8844 Q540.7313,325.35 541.8,325.35 Q542.4469,325.35 543.0094,325.575 Q543.5719,325.8 544.05,326.25 Z " fill="#000000"/><text fill="#000000" font-family="sans-serif" font-size="10.8" lengthAdjust="spacing" textLength="110.7" x="554.85" y="333.8191">TestParameterMapper</text><line style="stroke:#A80036;stroke-width:1.35;" x1="529.65" x2="667.35" y1="343.8" y2="343.8"/><line style="stroke:#A80036;stroke-width:1.35;" x1="529.65" x2="667.35" y1="351" y2="351"/><ellipse cx="538.65" cy="360.9" fill="#84BE84" rx="2.7" ry="2.7" style="stroke:#038048;stroke-width:0.9;"/><text fill="#000000" font-family="sans-serif" font-size="9.9" lengthAdjust="spacing" textLength="110.7" x="546.75" y="364.8771">toDto(testParametersList)</text><ellipse cx="538.65" cy="373.3523" fill="#84BE84" rx="2.7" ry="2.7" style="stroke:#038048;stroke-width:0.9;"/><text fill="#000000" font-family="sans-serif" font-size="9.9" lengthAdjust="spacing" textLength="90" x="546.75" y="377.3294">toDto(testParameter)</text><!--MD5=[1c38f6084f2098752e2974895ca67f4c]
class TestDto--><rect codeLine="69" fill="#FEFECE" filter="url(#f1azkh4bzxc6k9)" height="80.557" id="TestDto" style="stroke:#A80036;stroke-width:1.35;" width="168.3" x="29.25" y="497.25"/><ellipse cx="90.225" cy="511.65" fill="#ADD1B2" rx="9.9" ry="9.9" style="stroke:#A80036;stroke-width:0.9;"/><path d="M92.025,508.5 Q92.2078,508.05 92.4188,507.825 Q92.6297,507.6 92.8688,507.6 Q93.2906,507.6 93.5578,507.8531 Q93.825,508.1063 93.825,508.6969 L93.825,510.1031 Q93.825,510.6938 93.5719,510.9469 Q93.3188,511.2 92.925,511.2 Q92.5734,511.2 92.3484,511.0453 Q92.1234,510.8906 92.025,510.4828 Q91.9828,510.2016 91.8281,510.0469 Q91.5469,509.7516 91.0406,509.5828 Q90.5344,509.4 90.0281,509.4 Q89.3953,509.4 88.8609,509.6531 Q88.3406,509.9063 87.9328,510.4688 Q87.525,511.0313 87.525,511.8047 L87.525,512.6344 Q87.525,513.5625 88.2844,514.1813 Q89.0438,514.8 90.3938,514.8 Q91.1953,514.8 91.7578,514.6172 Q92.0813,514.5188 92.4469,514.1953 Q92.6859,514.0125 92.8125,513.9563 Q92.9391,513.9 93.0938,513.9 Q93.3891,513.9 93.6,514.1391 Q93.825,514.3641 93.825,514.6875 Q93.825,514.9969 93.5156,515.3625 Q93.0656,515.8969 92.3484,516.1922 Q91.4063,516.6 90.2531,516.6 Q88.9031,516.6 87.8203,516.0656 Q86.9484,515.6438 86.3297,514.7297 Q85.725,513.8156 85.725,512.7328 L85.725,511.7484 Q85.725,510.6234 86.2594,509.6391 Q86.8078,508.6547 87.75,508.1344 Q88.7063,507.6 89.775,507.6 Q90.4219,507.6 90.9844,507.825 Q91.5469,508.05 92.025,508.5 Z " fill="#000000"/><text fill="#000000" font-family="sans-serif" font-size="10.8" lengthAdjust="spacing" textLength="38.7" x="108.675" y="516.0691">TestDto</text><line style="stroke:#A80036;stroke-width:1.35;" x1="30.15" x2="196.65" y1="526.05" y2="526.05"/><rect fill="none" height="5.4" style="stroke:#C82930;stroke-width:0.9;" width="5.4" x="36.45" y="533.25"/><text fill="#000000" font-family="sans-serif" font-size="9.9" lengthAdjust="spacing" textLength="81.9" x="47.25" y="539.9271">String internalCode</text><rect fill="none" height="5.4" style="stroke:#C82930;stroke-width:0.9;" width="5.4" x="36.45" y="545.7023"/><text fill="#000000" font-family="sans-serif" font-size="9.9" lengthAdjust="spacing" textLength="75.6" x="47.25" y="552.3794">String description</text><line style="stroke:#A80036;stroke-width:1.35;" x1="30.15" x2="196.65" y1="558.1547" y2="558.1547"/><ellipse cx="39.15" cy="568.0547" fill="#84BE84" rx="2.7" ry="2.7" style="stroke:#038048;stroke-width:0.9;"/><text fill="#000000" font-family="sans-serif" font-size="9.9" lengthAdjust="spacing" textLength="144.9" x="47.25" y="572.0317">TestDto(internalCode,description)</text><!--MD5=[fa2f44d2bdbb0499bd765719ad83ddd6]
class TestParameterDto--><rect codeLine="75" fill="#FEFECE" filter="url(#f1azkh4bzxc6k9)" height="155.2711" id="TestParameterDto" style="stroke:#A80036;stroke-width:1.35;" width="265.5" x="229.05" y="459.9"/><ellipse cx="312.525" cy="474.3" fill="#ADD1B2" rx="9.9" ry="9.9" style="stroke:#A80036;stroke-width:0.9;"/><path d="M314.325,471.15 Q314.5078,470.7 314.7188,470.475 Q314.9297,470.25 315.1688,470.25 Q315.5906,470.25 315.8578,470.5031 Q316.125,470.7563 316.125,471.3469 L316.125,472.7531 Q316.125,473.3438 315.8719,473.5969 Q315.6188,473.85 315.225,473.85 Q314.8734,473.85 314.6484,473.6953 Q314.4234,473.5406 314.325,473.1328 Q314.2828,472.8516 314.1281,472.6969 Q313.8469,472.4016 313.3406,472.2328 Q312.8344,472.05 312.3281,472.05 Q311.6953,472.05 311.1609,472.3031 Q310.6406,472.5563 310.2328,473.1188 Q309.825,473.6813 309.825,474.4547 L309.825,475.2844 Q309.825,476.2125 310.5844,476.8313 Q311.3438,477.45 312.6938,477.45 Q313.4953,477.45 314.0578,477.2672 Q314.3813,477.1688 314.7469,476.8453 Q314.9859,476.6625 315.1125,476.6063 Q315.2391,476.55 315.3938,476.55 Q315.6891,476.55 315.9,476.7891 Q316.125,477.0141 316.125,477.3375 Q316.125,477.6469 315.8156,478.0125 Q315.3656,478.5469 314.6484,478.8422 Q313.7063,479.25 312.5531,479.25 Q311.2031,479.25 310.1203,478.7156 Q309.2484,478.2938 308.6297,477.3797 Q308.025,476.4656 308.025,475.3828 L308.025,474.3984 Q308.025,473.2734 308.5594,472.2891 Q309.1078,471.3047 310.05,470.7844 Q311.0063,470.25 312.075,470.25 Q312.7219,470.25 313.2844,470.475 Q313.8469,470.7 314.325,471.15 Z " fill="#000000"/><text fill="#000000" font-family="sans-serif" font-size="10.8" lengthAdjust="spacing" textLength="90.9" x="330.975" y="478.7191">TestParameterDto</text><line style="stroke:#A80036;stroke-width:1.35;" x1="229.95" x2="493.65" y1="488.7" y2="488.7"/><rect fill="none" height="5.4" style="stroke:#C82930;stroke-width:0.9;" width="5.4" x="236.25" y="495.9"/><text fill="#000000" font-family="sans-serif" font-size="9.9" lengthAdjust="spacing" textLength="96.3" x="247.05" y="502.5771">String parameterName</text><rect fill="none" height="5.4" style="stroke:#C82930;stroke-width:0.9;" width="5.4" x="236.25" y="508.3523"/><text fill="#000000" font-family="sans-serif" font-size="9.9" lengthAdjust="spacing" textLength="115.2" x="247.05" y="515.0294">String testParameterResult</text><rect fill="none" height="5.4" style="stroke:#C82930;stroke-width:0.9;" width="5.4" x="236.25" y="520.8047"/><text fill="#000000" font-family="sans-serif" font-size="9.9" lengthAdjust="spacing" textLength="114.3" x="247.05" y="527.4817">String testParameterMetric</text><rect fill="none" height="5.4" style="stroke:#C82930;stroke-width:0.9;" width="5.4" x="236.25" y="533.257"/><text fill="#000000" font-family="sans-serif" font-size="9.9" lengthAdjust="spacing" textLength="146.7" x="247.05" y="539.9341">double testParameterMinRefValue</text><rect fill="none" height="5.4" style="stroke:#C82930;stroke-width:0.9;" width="5.4" x="236.25" y="545.7094"/><text fill="#000000" font-family="sans-serif" font-size="9.9" lengthAdjust="spacing" textLength="150.3" x="247.05" y="552.3864">double testParameterMaxRefValue</text><rect fill="none" height="5.4" style="stroke:#C82930;stroke-width:0.9;" width="5.4" x="236.25" y="558.1617"/><text fill="#000000" font-family="sans-serif" font-size="9.9" lengthAdjust="spacing" textLength="91.8" x="247.05" y="564.8388">String refValueMetric</text><line style="stroke:#A80036;stroke-width:1.35;" x1="229.95" x2="493.65" y1="570.6141" y2="570.6141"/><ellipse cx="238.95" cy="580.5141" fill="#84BE84" rx="2.7" ry="2.7" style="stroke:#038048;stroke-width:0.9;"/><text fill="#000000" font-family="sans-serif" font-size="9.9" lengthAdjust="spacing" textLength="242.1" x="247.05" y="584.4911">TestParameterDto(parameterName,testParameterResult,</text><text fill="#000000" font-family="sans-serif" font-size="9.9" lengthAdjust="spacing" textLength="207" x="247.05" y="596.9435">testParameterMetric,testParameterMinRefValue,</text><text fill="#000000" font-family="sans-serif" font-size="9.9" lengthAdjust="spacing" textLength="189" x="247.05" y="609.3958">testParameterMaxRefValue,refValueMetric)</text><!--MD5=[bbc66458f6440b7390e5e54a12cdf2f1]
link WriteMedicalReportUI to WriteMedicalReportController--><path codeLine="87" d="M274.32,81.081 C312.345,100.665 370.44,130.599 418.104,155.16 " fill="none" id="WriteMedicalReportUI-to-WriteMedicalReportController" style="stroke:#A80036;stroke-width:0.9;stroke-dasharray:7.0,7.0;"/><polygon fill="#A80036" points="422.388,157.365,416.8498,150.4442,418.3917,155.2962,413.5397,156.8382,422.388,157.365" style="stroke:#A80036;stroke-width:0.9;"/><!--MD5=[adbc032425c7e51ba2ad24017d53629a]
link WriteMedicalReportUI to TestDto--><path codeLine="88" d="M222.939,81.072 C218.637,89.775 213.957,100.098 210.6,109.8 C163.611,245.799 132.975,414.072 120.195,492.606 " fill="none" id="WriteMedicalReportUI-to-TestDto" style="stroke:#A80036;stroke-width:0.9;stroke-dasharray:7.0,7.0;"/><polygon fill="#A80036" points="119.457,497.187,124.3083,489.7684,120.178,492.7451,117.2013,488.6148,119.457,497.187" style="stroke:#A80036;stroke-width:0.9;"/><!--MD5=[01734996bc336a4e5d2ed8719592e27f]
link WriteMedicalReportUI to TestParameterDto--><path codeLine="89" d="M239.571,81.081 C256.761,145.179 309.618,342.261 339.894,455.166 " fill="none" id="WriteMedicalReportUI-to-TestParameterDto" style="stroke:#A80036;stroke-width:0.9;stroke-dasharray:7.0,7.0;"/><polygon fill="#A80036" points="341.136,459.81,342.5306,451.0564,339.9781,455.4615,335.573,452.909,341.136,459.81" style="stroke:#A80036;stroke-width:0.9;"/><!--MD5=[b787b54ee1aef98cad412d2a644aa045]
link WriteMedicalReportController to Company--><path codeLine="90" d="M588.762,210.582 C633.159,220.77 684.414,239.814 718.2,275.4 C778.707,339.129 804.438,442.899 814.365,498.609 " fill="none" id="WriteMedicalReportController-to-Company" style="stroke:#A80036;stroke-width:0.9;stroke-dasharray:7.0,7.0;"/><polygon fill="#A80036" points="815.166,503.19,817.3249,494.593,814.395,498.7565,810.2314,495.8266,815.166,503.19" style="stroke:#A80036;stroke-width:0.9;"/><!--MD5=[d59dafcd53f8ba979ac3ce89e293f269]
link WriteMedicalReportController to TestMapper--><path codeLine="91" d="M487.323,238.545 C480.474,260.829 471.969,288.504 465.219,310.482 " fill="none" id="WriteMedicalReportController-to-TestMapper" style="stroke:#A80036;stroke-width:0.9;stroke-dasharray:7.0,7.0;"/><polygon fill="#A80036" points="463.896,314.802,469.6992,308.1018,465.2067,310.4971,462.8114,306.0046,463.896,314.802" style="stroke:#A80036;stroke-width:0.9;"/><!--MD5=[0cd9019ce07d4cbb96eb84fb6d9e22ee]
link WriteMedicalReportController to TestParameterDto--><path codeLine="92" d="M428.49,238.626 C415.494,248.976 403.425,261.27 395.1,275.4 C363.24,329.463 355.959,400.635 356.067,455.067 " fill="none" id="WriteMedicalReportController-to-TestParameterDto" style="stroke:#A80036;stroke-width:0.9;stroke-dasharray:7.0,7.0;"/><polygon fill="#A80036" points="356.094,459.621,359.6477,451.5006,356.0683,455.1211,352.4478,451.5417,356.094,459.621" style="stroke:#A80036;stroke-width:0.9;"/><!--MD5=[ba75a4db94b946b551daa943cd9720f8]
link WriteMedicalReportController to TestDto--><path codeLine="93" d="M410.598,238.536 C390.222,249.273 369.216,261.747 351,275.4 C265.527,339.48 186.372,437.391 144.504,493.434 " fill="none" id="WriteMedicalReportController-to-TestDto" style="stroke:#A80036;stroke-width:0.9;stroke-dasharray:7.0,7.0;"/><polygon fill="#A80036" points="141.804,497.061,149.5267,492.7101,144.4896,493.4502,143.7494,488.4132,141.804,497.061" style="stroke:#A80036;stroke-width:0.9;"/><!--MD5=[d3614dad8e7ab28fcc7b8ffd0e053a84]
link WriteMedicalReportController to TestParameter--><path codeLine="94" d="M588.78,213.957 C624.33,224.802 661.788,243.432 683.1,275.4 C722.223,334.08 707.049,417.519 688.986,474.237 " fill="none" id="WriteMedicalReportController-to-TestParameter" style="stroke:#A80036;stroke-width:0.9;stroke-dasharray:7.0,7.0;"/><polygon fill="#A80036" points="687.573,478.62,693.4963,472.0257,688.9613,474.3395,686.6475,469.8045,687.573,478.62" style="stroke:#A80036;stroke-width:0.9;"/><!--MD5=[eaabf2cc0e7c429fc49065438c9fd520]
link WriteMedicalReportController to Test--><path codeLine="95" d="M588.735,208.368 C646.596,217.971 721.395,237.168 777.6,275.4 C844.209,320.715 860.985,343.89 886.5,420.3 C917.028,511.74 928.98,550.665 886.5,637.2 C869.904,671.004 838.827,698.049 808.704,717.921 " fill="none" id="WriteMedicalReportController-to-Test" style="stroke:#A80036;stroke-width:0.9;stroke-dasharray:7.0,7.0;"/><polygon fill="#A80036" points="804.645,720.558,813.3965,719.1505,808.4148,718.1006,809.4646,713.1188,804.645,720.558" style="stroke:#A80036;stroke-width:0.9;"/><!--MD5=[29a1b506a2116fd5358dcc26b4aac099]
link WriteMedicalReportController to TestParameterMapper--><path codeLine="96" d="M525.771,238.545 C540.666,261.018 559.179,288.963 573.804,311.031 " fill="none" id="WriteMedicalReportController-to-TestParameterMapper" style="stroke:#A80036;stroke-width:0.9;stroke-dasharray:7.0,7.0;"/><polygon fill="#A80036" points="576.306,314.802,574.8083,306.0655,573.8098,311.0578,568.8175,310.0593,576.306,314.802" style="stroke:#A80036;stroke-width:0.9;"/><!--MD5=[0d2deb453e4521a8ecd45cf39c488e89]
link TestParameterMapper to TestParameterDto--><path codeLine="97" d="M556.182,383.49 C530.199,403.983 495.747,431.172 463.059,456.957 " fill="none" id="TestParameterMapper-to-TestParameterDto" style="stroke:#A80036;stroke-width:0.9;stroke-dasharray:7.0,7.0;"/><polygon fill="#A80036" points="459.495,459.774,468.0838,457.5825,463.0276,456.9864,463.6237,451.9303,459.495,459.774" style="stroke:#A80036;stroke-width:0.9;"/><!--MD5=[886f81fd36c1ffd754dcf922ff388f49]
link TestParameterMapper to TestParameter--><path codeLine="98" d="M610.245,383.49 C619.074,408.582 631.431,443.709 642.096,474.021 " fill="none" id="TestParameterMapper-to-TestParameter" style="stroke:#A80036;stroke-width:0.9;stroke-dasharray:7.0,7.0;"/><polygon fill="#A80036" points="643.653,478.449,644.3631,469.6135,642.1607,474.2036,637.5706,472.0012,643.653,478.449" style="stroke:#A80036;stroke-width:0.9;"/><!--MD5=[34b2fed5845bf5a187f4983fcf3f57bc]
link TestMapper to TestDto--><path codeLine="99" d="M409.878,371.52 C384.561,383.094 351.765,396.666 321.3,405 C309.609,408.195 223.929,414.477 213.3,420.3 C182.34,437.274 156.672,467.892 139.104,493.488 " fill="none" id="TestMapper-to-TestDto" style="stroke:#A80036;stroke-width:0.9;stroke-dasharray:7.0,7.0;"/><polygon fill="#A80036" points="136.575,497.223,144.1044,492.5457,139.1036,493.5006,138.1487,488.4998,136.575,497.223" style="stroke:#A80036;stroke-width:0.9;"/><!--MD5=[8d9a2c3ea1bf73d8d45b939465e53fff]
link TestMapper to Test--><path codeLine="100" d="M484.479,383.643 C493.479,394.704 502.677,407.475 509.4,420.3 C556.164,509.508 518.175,554.103 575.1,637.2 C594.936,666.153 623.835,691.389 651.294,711.216 " fill="none" id="TestMapper-to-Test" style="stroke:#A80036;stroke-width:0.9;stroke-dasharray:7.0,7.0;"/><polygon fill="#A80036" points="654.993,713.853,650.4968,706.214,651.3321,711.2362,646.3099,712.0715,654.993,713.853" style="stroke:#A80036;stroke-width:0.9;"/><!--MD5=[7e4bc624457760b649895ff2ead938fa]
link Company to Test--><path codeLine="101" d="M809.109,572.139 C800.892,596.844 788.931,631.143 776.7,660.6 C773.055,669.366 769.032,678.474 764.919,687.447 " fill="none" id="Company-Test" style="stroke:#A80036;stroke-width:0.9;"/><polygon fill="#000000" points="784.0897,656.8602,789.4727,650.2053,784.5329,648.3122,784.0897,656.8602" style="stroke:#000000;stroke-width:0.9;"/><text fill="#000000" font-family="sans-serif" font-size="11.7" lengthAdjust="spacing" textLength="45" x="793.8" y="657.4456">performs</text><text fill="#000000" font-family="sans-serif" font-size="11.7" lengthAdjust="spacing" textLength="6.3" x="800.5872" y="590.9616">1</text><text fill="#000000" font-family="sans-serif" font-size="11.7" lengthAdjust="spacing" textLength="18" x="749.3176" y="677.9463">1..*</text><!--MD5=[7d615427424eb1e9d8965c4eb17ecbf5]
link TestParameter to Test--><path codeLine="102" d="M650.664,596.916 C648.279,617.481 648.387,640.494 655.2,660.6 C658.314,669.798 662.679,678.816 667.755,687.42 " fill="none" id="TestParameter-Test" style="stroke:#A80036;stroke-width:0.9;"/><polygon fill="#000000" points="658.865,648.2364,657.7765,656.7264,662.9747,655.7447,658.865,648.2364" style="stroke:#000000;stroke-width:0.9;"/><text fill="#000000" font-family="sans-serif" font-size="11.7" lengthAdjust="spacing" textLength="104.4" x="667.8" y="657.4456">requests analysis of</text><text fill="#000000" font-family="sans-serif" font-size="11.7" lengthAdjust="spacing" textLength="18" x="630.34" y="615.9212">1..*</text><text fill="#000000" font-family="sans-serif" font-size="11.7" lengthAdjust="spacing" textLength="6.3" x="655.4356" y="677.9168">1</text><!--MD5=[c3238c64a9072feb51e313e35a850213]
link Test to MedicalReport--><path codeLine="103" d="M729.9,830.745 C729.9,854.217 729.9,879.705 729.9,900.765 " fill="none" id="Test-MedicalReport" style="stroke:#A80036;stroke-width:0.9;"/><polygon fill="#000000" points="734.4,870.4582,737.045,862.3176,731.755,862.3176,734.4,870.4582" style="stroke:#000000;stroke-width:0.9;"/><text fill="#000000" font-family="sans-serif" font-size="11.7" lengthAdjust="spacing" textLength="38.7" x="742.5" y="870.7456">request</text><text fill="#000000" font-family="sans-serif" font-size="11.7" lengthAdjust="spacing" textLength="4.5" x="725.2066" y="849.6877">*</text><text fill="#000000" font-family="sans-serif" font-size="11.7" lengthAdjust="spacing" textLength="6.3" x="723.157" y="890.9616">1</text><!--MD5=[7f6cf7f175eae0af66201860de5de971]
link Company to TestStore--><path codeLine="104" d="M848.466,572.004 C882.954,612.27 940.761,679.752 976.509,721.485 " fill="none" id="Company-to-TestStore" style="stroke:#A80036;stroke-width:0.9;"/><polygon fill="#A80036" points="979.47,724.941,976.9504,716.4427,976.5489,721.518,971.4736,721.1165,979.47,724.941" style="stroke:#A80036;stroke-width:0.9;"/><text fill="#000000" font-family="sans-serif" font-size="11.7" lengthAdjust="spacing" textLength="25.2" x="919.8" y="657.4456">uses</text><text fill="#000000" font-family="sans-serif" font-size="11.7" lengthAdjust="spacing" textLength="6.3" x="846.3755" y="591.0661">1</text><text fill="#000000" font-family="sans-serif" font-size="11.7" lengthAdjust="spacing" textLength="6.3" x="967.329" y="715.1082">1</text><!--MD5=[4fadcba0b467b18b36289b9d1bb5b69b]
@startuml

package UI{
class WriteMedicalReportUI{
}
}

package Controller{
class WriteMedicalReportController{
+getTestHasSamplesAnalyzedList()
+getTestParameterList(selectedTest)
+addMedicalReport(diagnosis)
}
}

package Model{
class Company{
-String designation
+getTestStore()
}

class Test{
-String internalCode
-String nhsCode
-String description
+getParametersResulList()
+getDescription()
+getInternalCode()
+addMedicalReport(diagnosis)
+validateMedicalReport()
}

class MedicalReport{
-String diagnosis
-Date createdAt
+ MedicalReport(diagnosis)
+ addCreationDate()
}

class TestParameter{
+ getParameterName()
+ getParameterResult()
+ getParameterMetric()
+ getParameterMinRefValue()
+ getParameterMaxRefValue()
+ getRefValueMetric()
}
}

package Store{
class TestStore{
+getTestHasSamplesAnalyzedList()
+getTestByInternalCode(code)
}
}

package Mappers{
class TestMapper{
+toDto(test)
+toDto(testList)
}

class TestParameterMapper{
+toDto(testParametersList)
+toDto(testParameter)
}
}

package DTO{
class TestDto{
-String internalCode
-String description
+TestDto(internalCode,description)
}

class TestParameterDto{
-String parameterName
-String testParameterResult
-String testParameterMetric
-double testParameterMinRefValue
-double testParameterMaxRefValue
-String refValueMetric
+TestParameterDto(parameterName,testParameterResult,\ntestParameterMetric,testParameterMinRefValue,\ntestParameterMaxRefValue,refValueMetric)
}
}


WriteMedicalReportUI ..> WriteMedicalReportController
WriteMedicalReportUI ..> TestDto
WriteMedicalReportUI ..> TestParameterDto
WriteMedicalReportController ..> Company
WriteMedicalReportController ..> TestMapper
WriteMedicalReportController ...> TestParameterDto
WriteMedicalReportController ...> TestDto
WriteMedicalReportController ...> TestParameter
WriteMedicalReportController ...> Test
WriteMedicalReportController ..> TestParameterMapper
TestParameterMapper ..> TestParameterDto
TestParameterMapper ..> TestParameter
TestMapper ..> TestDto
TestMapper ..> Test
Company "1"- -"1..*" Test : performs >
TestParameter "1..*" - -"1" Test : requests analysis of <
Test "*"- -"1" MedicalReport : request >
Company"1"- -> "1" TestStore : uses

@enduml

PlantUML version 1.2021.5(Sun Apr 25 12:20:28 BST 2021)
(GPL source distribution)
Java Runtime: OpenJDK Runtime Environment
JVM: Dynamic Code Evolution 64-Bit Server VM
Default Encoding: Cp1252
Language: pt
Country: PT
--></g></svg>