<?xml version="1.0" encoding="UTF-8" standalone="no"?><svg xmlns="http://www.w3.org/2000/svg" xmlns:xlink="http://www.w3.org/1999/xlink" contentScriptType="application/ecmascript" contentStyleType="text/css" height="1711.5px" preserveAspectRatio="none" style="width:1875px;height:1711px;" version="1.1" viewBox="0 0 1875 1711" width="1875px" zoomAndPan="magnify"><defs><filter height="300%" id="ftg84n1596rrp" width="300%" x="-1" y="-1"><feGaussianBlur result="blurOut" stdDeviation="3.0"/><feColorMatrix in="blurOut" result="blurOut2" type="matrix" values="0 0 0 0 0 0 0 0 0 0 0 0 0 0 0 0 0 0 .4 0"/><feOffset dx="6.0" dy="6.0" in="blurOut2" result="blurOut3"/><feBlend in="SourceGraphic" in2="blurOut3" mode="normal"/></filter></defs><g><!--MD5=[9681dc6e01e10c6b4fe06895ae94f592]
cluster UI--><polygon fill="#FFFFFF" filter="url(#ftg84n1596rrp)" points="252,9,282,9,292.5,44.4141,528,44.4141,528,159,252,159,252,9" style="stroke:#000000;stroke-width:2.25;"/><line style="stroke:#000000;stroke-width:2.25;" x1="252" x2="292.5" y1="44.4141" y2="44.4141"/><text fill="#000000" font-family="sans-serif" font-size="21" font-weight="bold" lengthAdjust="spacing" textLength="21" x="258" y="33.7998">UI</text><!--MD5=[1f2cfc53d9d308f53762fd0fcbaa4873]
cluster Controller--><polygon fill="#FFFFFF" filter="url(#ftg84n1596rrp)" points="660,208.5,775.5,208.5,786,243.9141,1005,243.9141,1005,421.5,660,421.5,660,208.5" style="stroke:#000000;stroke-width:2.25;"/><line style="stroke:#000000;stroke-width:2.25;" x1="660" x2="786" y1="243.9141" y2="243.9141"/><text fill="#000000" font-family="sans-serif" font-size="21" font-weight="bold" lengthAdjust="spacing" textLength="106.5" x="666" y="233.2998">Controller</text><!--MD5=[15636c1ca4a123c16a2a1a8e90aca7a9]
cluster Model--><polygon fill="#FFFFFF" filter="url(#ftg84n1596rrp)" points="960,744,1035,744,1045.5,779.4141,1474.5,779.4141,1474.5,1701,960,1701,960,744" style="stroke:#000000;stroke-width:2.25;"/><line style="stroke:#000000;stroke-width:2.25;" x1="960" x2="1045.5" y1="779.4141" y2="779.4141"/><text fill="#000000" font-family="sans-serif" font-size="21" font-weight="bold" lengthAdjust="spacing" textLength="66" x="966" y="768.7998">Model</text><!--MD5=[7ce1723ddb6e6233854253973eae5a71]
cluster Store--><polygon fill="#FFFFFF" filter="url(#ftg84n1596rrp)" points="1510.5,1164.75,1576.5,1164.75,1587,1200.1641,1849.5,1200.1641,1849.5,1356.75,1510.5,1356.75,1510.5,1164.75" style="stroke:#000000;stroke-width:2.25;"/><line style="stroke:#000000;stroke-width:2.25;" x1="1510.5" x2="1587" y1="1200.1641" y2="1200.1641"/><text fill="#000000" font-family="sans-serif" font-size="21" font-weight="bold" lengthAdjust="spacing" textLength="57" x="1516.5" y="1189.5498">Store</text><!--MD5=[701152d03fbf85133a1de050cfdbc7fd]
cluster Mappers--><polygon fill="#FFFFFF" filter="url(#ftg84n1596rrp)" points="658.5,471,760.5,471,771,506.4141,1138.5,506.4141,1138.5,663,658.5,663,658.5,471" style="stroke:#000000;stroke-width:2.25;"/><line style="stroke:#000000;stroke-width:2.25;" x1="658.5" x2="771" y1="506.4141" y2="506.4141"/><text fill="#000000" font-family="sans-serif" font-size="21" font-weight="bold" lengthAdjust="spacing" textLength="93" x="664.5" y="495.7998">Mappers</text><!--MD5=[7b8bc9ee8bb84b99fb3a3f9477c19238]
cluster DTO--><polygon fill="#FFFFFF" filter="url(#ftg84n1596rrp)" points="24,712.5,76.5,712.5,87,747.9141,849,747.9141,849,1050,24,1050,24,712.5" style="stroke:#000000;stroke-width:2.25;"/><line style="stroke:#000000;stroke-width:2.25;" x1="24" x2="87" y1="747.9141" y2="747.9141"/><text fill="#000000" font-family="sans-serif" font-size="21" font-weight="bold" lengthAdjust="spacing" textLength="43.5" x="30" y="737.2998">DTO</text><!--MD5=[e4ec2e7ae8016ed7f2a23175278300b9]
class WriteMedicalReportUI--><rect codeLine="3" fill="#FEFECE" filter="url(#ftg84n1596rrp)" height="72" id="WriteMedicalReportUI" style="stroke:#A80036;stroke-width:2.25;" width="226.5" x="276.75" y="63"/><ellipse cx="299.25" cy="87" fill="#ADD1B2" rx="16.5" ry="16.5" style="stroke:#A80036;stroke-width:1.5;"/><path d="M302.25,81.75 Q302.5547,81 302.9063,80.625 Q303.2578,80.25 303.6563,80.25 Q304.3594,80.25 304.8047,80.6719 Q305.25,81.0938 305.25,82.0781 L305.25,84.4219 Q305.25,85.4063 304.8281,85.8281 Q304.4063,86.25 303.75,86.25 Q303.1641,86.25 302.7891,85.9922 Q302.4141,85.7344 302.25,85.0547 Q302.1797,84.5859 301.9219,84.3281 Q301.4531,83.8359 300.6094,83.5547 Q299.7656,83.25 298.9219,83.25 Q297.8672,83.25 296.9766,83.6719 Q296.1094,84.0938 295.4297,85.0313 Q294.75,85.9688 294.75,87.2578 L294.75,88.6406 Q294.75,90.1875 296.0156,91.2188 Q297.2813,92.25 299.5313,92.25 Q300.8672,92.25 301.8047,91.9453 Q302.3438,91.7813 302.9531,91.2422 Q303.3516,90.9375 303.5625,90.8438 Q303.7734,90.75 304.0313,90.75 Q304.5234,90.75 304.875,91.1484 Q305.25,91.5234 305.25,92.0625 Q305.25,92.5781 304.7344,93.1875 Q303.9844,94.0781 302.7891,94.5703 Q301.2188,95.25 299.2969,95.25 Q297.0469,95.25 295.2422,94.3594 Q293.7891,93.6563 292.7578,92.1328 Q291.75,90.6094 291.75,88.8047 L291.75,87.1641 Q291.75,85.2891 292.6406,83.6484 Q293.5547,82.0078 295.125,81.1406 Q296.7188,80.25 298.5,80.25 Q299.5781,80.25 300.5156,80.625 Q301.4531,81 302.25,81.75 Z " fill="#000000"/><text fill="#000000" font-family="sans-serif" font-size="18" lengthAdjust="spacing" textLength="178.5" x="320.25" y="94.3652">WriteMedicalReportUI</text><line style="stroke:#A80036;stroke-width:2.25;" x1="278.25" x2="501.75" y1="111" y2="111"/><line style="stroke:#A80036;stroke-width:2.25;" x1="278.25" x2="501.75" y1="123" y2="123"/><!--MD5=[4304a37fa14ad02974e6bd4bd1961bd7]
class WriteMedicalReportController--><rect codeLine="8" fill="#FEFECE" filter="url(#ftg84n1596rrp)" height="134.2617" id="WriteMedicalReportController" style="stroke:#A80036;stroke-width:2.25;" width="297" x="684" y="262.5"/><ellipse cx="709.875" cy="286.5" fill="#ADD1B2" rx="16.5" ry="16.5" style="stroke:#A80036;stroke-width:1.5;"/><path d="M712.875,281.25 Q713.1797,280.5 713.5313,280.125 Q713.8828,279.75 714.2813,279.75 Q714.9844,279.75 715.4297,280.1719 Q715.875,280.5938 715.875,281.5781 L715.875,283.9219 Q715.875,284.9063 715.4531,285.3281 Q715.0313,285.75 714.375,285.75 Q713.7891,285.75 713.4141,285.4922 Q713.0391,285.2344 712.875,284.5547 Q712.8047,284.0859 712.5469,283.8281 Q712.0781,283.3359 711.2344,283.0547 Q710.3906,282.75 709.5469,282.75 Q708.4922,282.75 707.6016,283.1719 Q706.7344,283.5938 706.0547,284.5313 Q705.375,285.4688 705.375,286.7578 L705.375,288.1406 Q705.375,289.6875 706.6406,290.7188 Q707.9063,291.75 710.1563,291.75 Q711.4922,291.75 712.4297,291.4453 Q712.9688,291.2813 713.5781,290.7422 Q713.9766,290.4375 714.1875,290.3438 Q714.3984,290.25 714.6563,290.25 Q715.1484,290.25 715.5,290.6484 Q715.875,291.0234 715.875,291.5625 Q715.875,292.0781 715.3594,292.6875 Q714.6094,293.5781 713.4141,294.0703 Q711.8438,294.75 709.9219,294.75 Q707.6719,294.75 705.8672,293.8594 Q704.4141,293.1563 703.3828,291.6328 Q702.375,290.1094 702.375,288.3047 L702.375,286.6641 Q702.375,284.7891 703.2656,283.1484 Q704.1797,281.5078 705.75,280.6406 Q707.3438,279.75 709.125,279.75 Q710.2031,279.75 711.1406,280.125 Q712.0781,280.5 712.875,281.25 Z " fill="#000000"/><text fill="#000000" font-family="sans-serif" font-size="18" lengthAdjust="spacing" textLength="241.5" x="731.625" y="293.8652">WriteMedicalReportController</text><line style="stroke:#A80036;stroke-width:2.25;" x1="685.5" x2="979.5" y1="310.5" y2="310.5"/><line style="stroke:#A80036;stroke-width:2.25;" x1="685.5" x2="979.5" y1="322.5" y2="322.5"/><ellipse cx="700.5" cy="339" fill="#84BE84" rx="4.5" ry="4.5" style="stroke:#038048;stroke-width:1.5;"/><text fill="#000000" font-family="sans-serif" font-size="16.5" lengthAdjust="spacing" textLength="250.5" x="714" y="345.6284">getTestHasSamplesAnalyzedList()</text><ellipse cx="700.5" cy="359.7539" fill="#84BE84" rx="4.5" ry="4.5" style="stroke:#038048;stroke-width:1.5;"/><text fill="#000000" font-family="sans-serif" font-size="16.5" lengthAdjust="spacing" textLength="258" x="714" y="366.3823">getTestParameterList(selectedTest)</text><ellipse cx="700.5" cy="380.5078" fill="#84BE84" rx="4.5" ry="4.5" style="stroke:#038048;stroke-width:1.5;"/><text fill="#000000" font-family="sans-serif" font-size="16.5" lengthAdjust="spacing" textLength="210" x="714" y="387.1362">addMedicalReport(diagnosis)</text><!--MD5=[02e4b9b7573f1156f41e60aa5b4e25a4]
class Company--><rect codeLine="16" fill="#FEFECE" filter="url(#ftg84n1596rrp)" height="113.5078" id="Company" style="stroke:#A80036;stroke-width:2.25;" width="168" x="1282.5" y="839.25"/><ellipse cx="1323.225" cy="863.25" fill="#ADD1B2" rx="16.5" ry="16.5" style="stroke:#A80036;stroke-width:1.5;"/><path d="M1326.225,858 Q1326.5297,857.25 1326.8813,856.875 Q1327.2328,856.5 1327.6313,856.5 Q1328.3344,856.5 1328.7797,856.9219 Q1329.225,857.3438 1329.225,858.3281 L1329.225,860.6719 Q1329.225,861.6563 1328.8031,862.0781 Q1328.3813,862.5 1327.725,862.5 Q1327.1391,862.5 1326.7641,862.2422 Q1326.3891,861.9844 1326.225,861.3047 Q1326.1547,860.8359 1325.8969,860.5781 Q1325.4281,860.0859 1324.5844,859.8047 Q1323.7406,859.5 1322.8969,859.5 Q1321.8422,859.5 1320.9516,859.9219 Q1320.0844,860.3438 1319.4047,861.2813 Q1318.725,862.2188 1318.725,863.5078 L1318.725,864.8906 Q1318.725,866.4375 1319.9906,867.4688 Q1321.2563,868.5 1323.5063,868.5 Q1324.8422,868.5 1325.7797,868.1953 Q1326.3188,868.0313 1326.9281,867.4922 Q1327.3266,867.1875 1327.5375,867.0938 Q1327.7484,867 1328.0063,867 Q1328.4984,867 1328.85,867.3984 Q1329.225,867.7734 1329.225,868.3125 Q1329.225,868.8281 1328.7094,869.4375 Q1327.9594,870.3281 1326.7641,870.8203 Q1325.1938,871.5 1323.2719,871.5 Q1321.0219,871.5 1319.2172,870.6094 Q1317.7641,869.9063 1316.7328,868.3828 Q1315.725,866.8594 1315.725,865.0547 L1315.725,863.4141 Q1315.725,861.5391 1316.6156,859.8984 Q1317.5297,858.2578 1319.1,857.3906 Q1320.6938,856.5 1322.475,856.5 Q1323.5531,856.5 1324.4906,856.875 Q1325.4281,857.25 1326.225,858 Z " fill="#000000"/><text fill="#000000" font-family="sans-serif" font-size="18" lengthAdjust="spacing" textLength="79.5" x="1348.275" y="870.6152">Company</text><line style="stroke:#A80036;stroke-width:2.25;" x1="1284" x2="1449" y1="887.25" y2="887.25"/><rect fill="none" height="9" style="stroke:#C82930;stroke-width:1.5;" width="9" x="1294.5" y="899.25"/><text fill="#000000" font-family="sans-serif" font-size="16.5" lengthAdjust="spacing" textLength="129" x="1312.5" y="910.3784">String designation</text><line style="stroke:#A80036;stroke-width:2.25;" x1="1284" x2="1449" y1="920.0039" y2="920.0039"/><ellipse cx="1299" cy="936.5039" fill="#84BE84" rx="4.5" ry="4.5" style="stroke:#038048;stroke-width:1.5;"/><text fill="#000000" font-family="sans-serif" font-size="16.5" lengthAdjust="spacing" textLength="105" x="1312.5" y="943.1323">getTestStore()</text><!--MD5=[df38be88ccee13e832d6fafd6288a4ca]
class Test--><rect codeLine="21" fill="#FEFECE" filter="url(#ftg84n1596rrp)" height="258.7852" id="Test" style="stroke:#A80036;stroke-width:2.25;" width="265.5" x="1083.75" y="1146"/><ellipse cx="1192.125" cy="1170" fill="#ADD1B2" rx="16.5" ry="16.5" style="stroke:#A80036;stroke-width:1.5;"/><path d="M1195.125,1164.75 Q1195.4297,1164 1195.7813,1163.625 Q1196.1328,1163.25 1196.5313,1163.25 Q1197.2344,1163.25 1197.6797,1163.6719 Q1198.125,1164.0938 1198.125,1165.0781 L1198.125,1167.4219 Q1198.125,1168.4063 1197.7031,1168.8281 Q1197.2813,1169.25 1196.625,1169.25 Q1196.0391,1169.25 1195.6641,1168.9922 Q1195.2891,1168.7344 1195.125,1168.0547 Q1195.0547,1167.5859 1194.7969,1167.3281 Q1194.3281,1166.8359 1193.4844,1166.5547 Q1192.6406,1166.25 1191.7969,1166.25 Q1190.7422,1166.25 1189.8516,1166.6719 Q1188.9844,1167.0938 1188.3047,1168.0313 Q1187.625,1168.9688 1187.625,1170.2578 L1187.625,1171.6406 Q1187.625,1173.1875 1188.8906,1174.2188 Q1190.1563,1175.25 1192.4063,1175.25 Q1193.7422,1175.25 1194.6797,1174.9453 Q1195.2188,1174.7813 1195.8281,1174.2422 Q1196.2266,1173.9375 1196.4375,1173.8438 Q1196.6484,1173.75 1196.9063,1173.75 Q1197.3984,1173.75 1197.75,1174.1484 Q1198.125,1174.5234 1198.125,1175.0625 Q1198.125,1175.5781 1197.6094,1176.1875 Q1196.8594,1177.0781 1195.6641,1177.5703 Q1194.0938,1178.25 1192.1719,1178.25 Q1189.9219,1178.25 1188.1172,1177.3594 Q1186.6641,1176.6563 1185.6328,1175.1328 Q1184.625,1173.6094 1184.625,1171.8047 L1184.625,1170.1641 Q1184.625,1168.2891 1185.5156,1166.6484 Q1186.4297,1165.0078 1188,1164.1406 Q1189.5938,1163.25 1191.375,1163.25 Q1192.4531,1163.25 1193.3906,1163.625 Q1194.3281,1164 1195.125,1164.75 Z " fill="#000000"/><text fill="#000000" font-family="sans-serif" font-size="18" lengthAdjust="spacing" textLength="36" x="1222.875" y="1177.3652">Test</text><line style="stroke:#A80036;stroke-width:2.25;" x1="1085.25" x2="1347.75" y1="1194" y2="1194"/><rect fill="none" height="9" style="stroke:#C82930;stroke-width:1.5;" width="9" x="1095.75" y="1206"/><text fill="#000000" font-family="sans-serif" font-size="16.5" lengthAdjust="spacing" textLength="136.5" x="1113.75" y="1217.1284">String internalCode</text><rect fill="none" height="9" style="stroke:#C82930;stroke-width:1.5;" width="9" x="1095.75" y="1226.7539"/><text fill="#000000" font-family="sans-serif" font-size="16.5" lengthAdjust="spacing" textLength="111" x="1113.75" y="1237.8823">String nhsCode</text><rect fill="none" height="9" style="stroke:#C82930;stroke-width:1.5;" width="9" x="1095.75" y="1247.5078"/><text fill="#000000" font-family="sans-serif" font-size="16.5" lengthAdjust="spacing" textLength="126" x="1113.75" y="1258.6362">String description</text><line style="stroke:#A80036;stroke-width:2.25;" x1="1085.25" x2="1347.75" y1="1268.2617" y2="1268.2617"/><ellipse cx="1100.25" cy="1284.7617" fill="#84BE84" rx="4.5" ry="4.5" style="stroke:#038048;stroke-width:1.5;"/><text fill="#000000" font-family="sans-serif" font-size="16.5" lengthAdjust="spacing" textLength="183" x="1113.75" y="1291.3901">getParametersResulList()</text><ellipse cx="1100.25" cy="1305.5156" fill="#84BE84" rx="4.5" ry="4.5" style="stroke:#038048;stroke-width:1.5;"/><text fill="#000000" font-family="sans-serif" font-size="16.5" lengthAdjust="spacing" textLength="115.5" x="1113.75" y="1312.144">getDescription()</text><ellipse cx="1100.25" cy="1326.2695" fill="#84BE84" rx="4.5" ry="4.5" style="stroke:#038048;stroke-width:1.5;"/><text fill="#000000" font-family="sans-serif" font-size="16.5" lengthAdjust="spacing" textLength="124.5" x="1113.75" y="1332.8979">getInternalCode()</text><ellipse cx="1100.25" cy="1347.0234" fill="#84BE84" rx="4.5" ry="4.5" style="stroke:#038048;stroke-width:1.5;"/><text fill="#000000" font-family="sans-serif" font-size="16.5" lengthAdjust="spacing" textLength="210" x="1113.75" y="1353.6519">addMedicalReport(diagnosis)</text><ellipse cx="1100.25" cy="1367.7773" fill="#84BE84" rx="4.5" ry="4.5" style="stroke:#038048;stroke-width:1.5;"/><text fill="#000000" font-family="sans-serif" font-size="16.5" lengthAdjust="spacing" textLength="169.5" x="1113.75" y="1374.4058">validateMedicalReport()</text><rect fill="#F24D5C" height="9" style="stroke:#C82930;stroke-width:1.5;" width="9" x="1095.75" y="1384.0313"/><text fill="#000000" font-family="sans-serif" font-size="16.5" lengthAdjust="spacing" textLength="226.5" x="1113.75" y="1395.1597">updateStateToDiagnosisMade()</text><!--MD5=[b2d1f399f1909a0bb241ed0598ba126f]
class MedicalReport--><rect codeLine="33" fill="#FEFECE" filter="url(#ftg84n1596rrp)" height="155.0156" id="MedicalReport" style="stroke:#A80036;stroke-width:2.25;" width="222" x="1105.5" y="1522.5"/><ellipse cx="1152.975" cy="1546.5" fill="#ADD1B2" rx="16.5" ry="16.5" style="stroke:#A80036;stroke-width:1.5;"/><path d="M1155.975,1541.25 Q1156.2797,1540.5 1156.6313,1540.125 Q1156.9828,1539.75 1157.3813,1539.75 Q1158.0844,1539.75 1158.5297,1540.1719 Q1158.975,1540.5938 1158.975,1541.5781 L1158.975,1543.9219 Q1158.975,1544.9063 1158.5531,1545.3281 Q1158.1313,1545.75 1157.475,1545.75 Q1156.8891,1545.75 1156.5141,1545.4922 Q1156.1391,1545.2344 1155.975,1544.5547 Q1155.9047,1544.0859 1155.6469,1543.8281 Q1155.1781,1543.3359 1154.3344,1543.0547 Q1153.4906,1542.75 1152.6469,1542.75 Q1151.5922,1542.75 1150.7016,1543.1719 Q1149.8344,1543.5938 1149.1547,1544.5313 Q1148.475,1545.4688 1148.475,1546.7578 L1148.475,1548.1406 Q1148.475,1549.6875 1149.7406,1550.7188 Q1151.0063,1551.75 1153.2563,1551.75 Q1154.5922,1551.75 1155.5297,1551.4453 Q1156.0688,1551.2813 1156.6781,1550.7422 Q1157.0766,1550.4375 1157.2875,1550.3438 Q1157.4984,1550.25 1157.7563,1550.25 Q1158.2484,1550.25 1158.6,1550.6484 Q1158.975,1551.0234 1158.975,1551.5625 Q1158.975,1552.0781 1158.4594,1552.6875 Q1157.7094,1553.5781 1156.5141,1554.0703 Q1154.9438,1554.75 1153.0219,1554.75 Q1150.7719,1554.75 1148.9672,1553.8594 Q1147.5141,1553.1563 1146.4828,1551.6328 Q1145.475,1550.1094 1145.475,1548.3047 L1145.475,1546.6641 Q1145.475,1544.7891 1146.3656,1543.1484 Q1147.2797,1541.5078 1148.85,1540.6406 Q1150.4438,1539.75 1152.225,1539.75 Q1153.3031,1539.75 1154.2406,1540.125 Q1155.1781,1540.5 1155.975,1541.25 Z " fill="#000000"/><text fill="#000000" font-family="sans-serif" font-size="18" lengthAdjust="spacing" textLength="118.5" x="1179.525" y="1553.8652">MedicalReport</text><line style="stroke:#A80036;stroke-width:2.25;" x1="1107" x2="1326" y1="1570.5" y2="1570.5"/><rect fill="none" height="9" style="stroke:#C82930;stroke-width:1.5;" width="9" x="1117.5" y="1582.5"/><text fill="#000000" font-family="sans-serif" font-size="16.5" lengthAdjust="spacing" textLength="115.5" x="1135.5" y="1593.6284">String diagnosis</text><rect fill="none" height="9" style="stroke:#C82930;stroke-width:1.5;" width="9" x="1117.5" y="1603.2539"/><text fill="#000000" font-family="sans-serif" font-size="16.5" lengthAdjust="spacing" textLength="109.5" x="1135.5" y="1614.3823">Date createdAt</text><line style="stroke:#A80036;stroke-width:2.25;" x1="1107" x2="1326" y1="1624.0078" y2="1624.0078"/><ellipse cx="1122" cy="1640.5078" fill="#84BE84" rx="4.5" ry="4.5" style="stroke:#038048;stroke-width:1.5;"/><text fill="#000000" font-family="sans-serif" font-size="16.5" lengthAdjust="spacing" textLength="183" x="1135.5" y="1647.1362">MedicalReport(diagnosis)</text><ellipse cx="1122" cy="1661.2617" fill="#84BE84" rx="4.5" ry="4.5" style="stroke:#038048;stroke-width:1.5;"/><text fill="#000000" font-family="sans-serif" font-size="16.5" lengthAdjust="spacing" textLength="132" x="1135.5" y="1667.8901">addCreationDate()</text><!--MD5=[0f07739f46effee96e095e9c408da841]
class TestParameter--><rect codeLine="40" fill="#FEFECE" filter="url(#ftg84n1596rrp)" height="196.5234" id="TestParameter" style="stroke:#A80036;stroke-width:2.25;" width="244.5" x="984.75" y="798"/><ellipse cx="1040.325" cy="822" fill="#ADD1B2" rx="16.5" ry="16.5" style="stroke:#A80036;stroke-width:1.5;"/><path d="M1043.325,816.75 Q1043.6297,816 1043.9812,815.625 Q1044.3328,815.25 1044.7312,815.25 Q1045.4344,815.25 1045.8797,815.6719 Q1046.325,816.0938 1046.325,817.0781 L1046.325,819.4219 Q1046.325,820.4063 1045.9031,820.8281 Q1045.4812,821.25 1044.825,821.25 Q1044.2391,821.25 1043.8641,820.9922 Q1043.4891,820.7344 1043.325,820.0547 Q1043.2547,819.5859 1042.9969,819.3281 Q1042.5281,818.8359 1041.6844,818.5547 Q1040.8406,818.25 1039.9969,818.25 Q1038.9422,818.25 1038.0516,818.6719 Q1037.1844,819.0938 1036.5047,820.0313 Q1035.825,820.9688 1035.825,822.2578 L1035.825,823.6406 Q1035.825,825.1875 1037.0906,826.2188 Q1038.3562,827.25 1040.6062,827.25 Q1041.9422,827.25 1042.8797,826.9453 Q1043.4187,826.7813 1044.0281,826.2422 Q1044.4266,825.9375 1044.6375,825.8438 Q1044.8484,825.75 1045.1062,825.75 Q1045.5984,825.75 1045.95,826.1484 Q1046.325,826.5234 1046.325,827.0625 Q1046.325,827.5781 1045.8094,828.1875 Q1045.0594,829.0781 1043.8641,829.5703 Q1042.2937,830.25 1040.3719,830.25 Q1038.1219,830.25 1036.3172,829.3594 Q1034.8641,828.6563 1033.8328,827.1328 Q1032.825,825.6094 1032.825,823.8047 L1032.825,822.1641 Q1032.825,820.2891 1033.7156,818.6484 Q1034.6297,817.0078 1036.2,816.1406 Q1037.7937,815.25 1039.575,815.25 Q1040.6531,815.25 1041.5906,815.625 Q1042.5281,816 1043.325,816.75 Z " fill="#000000"/><text fill="#000000" font-family="sans-serif" font-size="18" lengthAdjust="spacing" textLength="123" x="1068.675" y="829.3652">TestParameter</text><line style="stroke:#A80036;stroke-width:2.25;" x1="986.25" x2="1227.75" y1="846" y2="846"/><line style="stroke:#A80036;stroke-width:2.25;" x1="986.25" x2="1227.75" y1="858" y2="858"/><ellipse cx="1001.25" cy="874.5" fill="#84BE84" rx="4.5" ry="4.5" style="stroke:#038048;stroke-width:1.5;"/><text fill="#000000" font-family="sans-serif" font-size="16.5" lengthAdjust="spacing" textLength="148.5" x="1014.75" y="881.1284">getParameterName()</text><ellipse cx="1001.25" cy="895.2539" fill="#84BE84" rx="4.5" ry="4.5" style="stroke:#038048;stroke-width:1.5;"/><text fill="#000000" font-family="sans-serif" font-size="16.5" lengthAdjust="spacing" textLength="153" x="1014.75" y="901.8823">getParameterResult()</text><ellipse cx="1001.25" cy="916.0078" fill="#84BE84" rx="4.5" ry="4.5" style="stroke:#038048;stroke-width:1.5;"/><text fill="#000000" font-family="sans-serif" font-size="16.5" lengthAdjust="spacing" textLength="151.5" x="1014.75" y="922.6362">getParameterMetric()</text><ellipse cx="1001.25" cy="936.7617" fill="#84BE84" rx="4.5" ry="4.5" style="stroke:#038048;stroke-width:1.5;"/><text fill="#000000" font-family="sans-serif" font-size="16.5" lengthAdjust="spacing" textLength="199.5" x="1014.75" y="943.3901">getParameterMinRefValue()</text><ellipse cx="1001.25" cy="957.5156" fill="#84BE84" rx="4.5" ry="4.5" style="stroke:#038048;stroke-width:1.5;"/><text fill="#000000" font-family="sans-serif" font-size="16.5" lengthAdjust="spacing" textLength="205.5" x="1014.75" y="964.144">getParameterMaxRefValue()</text><ellipse cx="1001.25" cy="978.2695" fill="#84BE84" rx="4.5" ry="4.5" style="stroke:#038048;stroke-width:1.5;"/><text fill="#000000" font-family="sans-serif" font-size="16.5" lengthAdjust="spacing" textLength="145.5" x="1014.75" y="984.8979">getRefValueMetric()</text><!--MD5=[0f6f7964b844a64b0496af0dda7914bd]
class TestStore--><rect codeLine="51" fill="#FEFECE" filter="url(#ftg84n1596rrp)" height="113.5078" id="TestStore" style="stroke:#A80036;stroke-width:2.25;" width="289.5" x="1535.25" y="1218.75"/><ellipse cx="1633.875" cy="1242.75" fill="#ADD1B2" rx="16.5" ry="16.5" style="stroke:#A80036;stroke-width:1.5;"/><path d="M1636.875,1237.5 Q1637.1797,1236.75 1637.5313,1236.375 Q1637.8828,1236 1638.2813,1236 Q1638.9844,1236 1639.4297,1236.4219 Q1639.875,1236.8438 1639.875,1237.8281 L1639.875,1240.1719 Q1639.875,1241.1563 1639.4531,1241.5781 Q1639.0313,1242 1638.375,1242 Q1637.7891,1242 1637.4141,1241.7422 Q1637.0391,1241.4844 1636.875,1240.8047 Q1636.8047,1240.3359 1636.5469,1240.0781 Q1636.0781,1239.5859 1635.2344,1239.3047 Q1634.3906,1239 1633.5469,1239 Q1632.4922,1239 1631.6016,1239.4219 Q1630.7344,1239.8438 1630.0547,1240.7813 Q1629.375,1241.7188 1629.375,1243.0078 L1629.375,1244.3906 Q1629.375,1245.9375 1630.6406,1246.9688 Q1631.9063,1248 1634.1563,1248 Q1635.4922,1248 1636.4297,1247.6953 Q1636.9688,1247.5313 1637.5781,1246.9922 Q1637.9766,1246.6875 1638.1875,1246.5938 Q1638.3984,1246.5 1638.6563,1246.5 Q1639.1484,1246.5 1639.5,1246.8984 Q1639.875,1247.2734 1639.875,1247.8125 Q1639.875,1248.3281 1639.3594,1248.9375 Q1638.6094,1249.8281 1637.4141,1250.3203 Q1635.8438,1251 1633.9219,1251 Q1631.6719,1251 1629.8672,1250.1094 Q1628.4141,1249.4063 1627.3828,1247.8828 Q1626.375,1246.3594 1626.375,1244.5547 L1626.375,1242.9141 Q1626.375,1241.0391 1627.2656,1239.3984 Q1628.1797,1237.7578 1629.75,1236.8906 Q1631.3438,1236 1633.125,1236 Q1634.2031,1236 1635.1406,1236.375 Q1636.0781,1236.75 1636.875,1237.5 Z " fill="#000000"/><text fill="#000000" font-family="sans-serif" font-size="18" lengthAdjust="spacing" textLength="79.5" x="1664.625" y="1250.1152">TestStore</text><line style="stroke:#A80036;stroke-width:2.25;" x1="1536.75" x2="1823.25" y1="1266.75" y2="1266.75"/><line style="stroke:#A80036;stroke-width:2.25;" x1="1536.75" x2="1823.25" y1="1278.75" y2="1278.75"/><ellipse cx="1551.75" cy="1295.25" fill="#84BE84" rx="4.5" ry="4.5" style="stroke:#038048;stroke-width:1.5;"/><text fill="#000000" font-family="sans-serif" font-size="16.5" lengthAdjust="spacing" textLength="250.5" x="1565.25" y="1301.8784">getTestHasSamplesAnalyzedList()</text><ellipse cx="1551.75" cy="1316.0039" fill="#84BE84" rx="4.5" ry="4.5" style="stroke:#038048;stroke-width:1.5;"/><text fill="#000000" font-family="sans-serif" font-size="16.5" lengthAdjust="spacing" textLength="211.5" x="1565.25" y="1322.6323">getTestByInternalCode(code)</text><!--MD5=[144698ec4d0188f6929a3b58a3eeb1f6]
class TestMapper--><rect codeLine="58" fill="#FEFECE" filter="url(#ftg84n1596rrp)" height="113.5078" id="TestMapper" style="stroke:#A80036;stroke-width:2.25;" width="145.5" x="683.25" y="525"/><ellipse cx="705.75" cy="549" fill="#ADD1B2" rx="16.5" ry="16.5" style="stroke:#A80036;stroke-width:1.5;"/><path d="M708.75,543.75 Q709.0547,543 709.4063,542.625 Q709.7578,542.25 710.1563,542.25 Q710.8594,542.25 711.3047,542.6719 Q711.75,543.0938 711.75,544.0781 L711.75,546.4219 Q711.75,547.4063 711.3281,547.8281 Q710.9063,548.25 710.25,548.25 Q709.6641,548.25 709.2891,547.9922 Q708.9141,547.7344 708.75,547.0547 Q708.6797,546.5859 708.4219,546.3281 Q707.9531,545.8359 707.1094,545.5547 Q706.2656,545.25 705.4219,545.25 Q704.3672,545.25 703.4766,545.6719 Q702.6094,546.0938 701.9297,547.0313 Q701.25,547.9688 701.25,549.2578 L701.25,550.6406 Q701.25,552.1875 702.5156,553.2188 Q703.7813,554.25 706.0313,554.25 Q707.3672,554.25 708.3047,553.9453 Q708.8438,553.7813 709.4531,553.2422 Q709.8516,552.9375 710.0625,552.8438 Q710.2734,552.75 710.5313,552.75 Q711.0234,552.75 711.375,553.1484 Q711.75,553.5234 711.75,554.0625 Q711.75,554.5781 711.2344,555.1875 Q710.4844,556.0781 709.2891,556.5703 Q707.7188,557.25 705.7969,557.25 Q703.5469,557.25 701.7422,556.3594 Q700.2891,555.6563 699.2578,554.1328 Q698.25,552.6094 698.25,550.8047 L698.25,549.1641 Q698.25,547.2891 699.1406,545.6484 Q700.0547,544.0078 701.625,543.1406 Q703.2188,542.25 705,542.25 Q706.0781,542.25 707.0156,542.625 Q707.9531,543 708.75,543.75 Z " fill="#000000"/><text fill="#000000" font-family="sans-serif" font-size="18" lengthAdjust="spacing" textLength="97.5" x="726.75" y="556.3652">TestMapper</text><line style="stroke:#A80036;stroke-width:2.25;" x1="684.75" x2="827.25" y1="573" y2="573"/><line style="stroke:#A80036;stroke-width:2.25;" x1="684.75" x2="827.25" y1="585" y2="585"/><ellipse cx="699.75" cy="601.5" fill="#84BE84" rx="4.5" ry="4.5" style="stroke:#038048;stroke-width:1.5;"/><text fill="#000000" font-family="sans-serif" font-size="16.5" lengthAdjust="spacing" textLength="76.5" x="713.25" y="608.1284">toDto(test)</text><ellipse cx="699.75" cy="622.2539" fill="#84BE84" rx="4.5" ry="4.5" style="stroke:#038048;stroke-width:1.5;"/><text fill="#000000" font-family="sans-serif" font-size="16.5" lengthAdjust="spacing" textLength="102" x="713.25" y="628.8823">toDto(testList)</text><!--MD5=[a82d32c079496d6dca2681dc0633feb0]
class TestParameterMapper--><rect codeLine="63" fill="#FEFECE" filter="url(#ftg84n1596rrp)" height="113.5078" id="TestParameterMapper" style="stroke:#A80036;stroke-width:2.25;" width="232.5" x="881.25" y="525"/><ellipse cx="903.75" cy="549" fill="#ADD1B2" rx="16.5" ry="16.5" style="stroke:#A80036;stroke-width:1.5;"/><path d="M906.75,543.75 Q907.0547,543 907.4063,542.625 Q907.7578,542.25 908.1563,542.25 Q908.8594,542.25 909.3047,542.6719 Q909.75,543.0938 909.75,544.0781 L909.75,546.4219 Q909.75,547.4063 909.3281,547.8281 Q908.9063,548.25 908.25,548.25 Q907.6641,548.25 907.2891,547.9922 Q906.9141,547.7344 906.75,547.0547 Q906.6797,546.5859 906.4219,546.3281 Q905.9531,545.8359 905.1094,545.5547 Q904.2656,545.25 903.4219,545.25 Q902.3672,545.25 901.4766,545.6719 Q900.6094,546.0938 899.9297,547.0313 Q899.25,547.9688 899.25,549.2578 L899.25,550.6406 Q899.25,552.1875 900.5156,553.2188 Q901.7813,554.25 904.0313,554.25 Q905.3672,554.25 906.3047,553.9453 Q906.8438,553.7813 907.4531,553.2422 Q907.8516,552.9375 908.0625,552.8438 Q908.2734,552.75 908.5313,552.75 Q909.0234,552.75 909.375,553.1484 Q909.75,553.5234 909.75,554.0625 Q909.75,554.5781 909.2344,555.1875 Q908.4844,556.0781 907.2891,556.5703 Q905.7188,557.25 903.7969,557.25 Q901.5469,557.25 899.7422,556.3594 Q898.2891,555.6563 897.2578,554.1328 Q896.25,552.6094 896.25,550.8047 L896.25,549.1641 Q896.25,547.2891 897.1406,545.6484 Q898.0547,544.0078 899.625,543.1406 Q901.2188,542.25 903,542.25 Q904.0781,542.25 905.0156,542.625 Q905.9531,543 906.75,543.75 Z " fill="#000000"/><text fill="#000000" font-family="sans-serif" font-size="18" lengthAdjust="spacing" textLength="184.5" x="924.75" y="556.3652">TestParameterMapper</text><line style="stroke:#A80036;stroke-width:2.25;" x1="882.75" x2="1112.25" y1="573" y2="573"/><line style="stroke:#A80036;stroke-width:2.25;" x1="882.75" x2="1112.25" y1="585" y2="585"/><ellipse cx="897.75" cy="601.5" fill="#84BE84" rx="4.5" ry="4.5" style="stroke:#038048;stroke-width:1.5;"/><text fill="#000000" font-family="sans-serif" font-size="16.5" lengthAdjust="spacing" textLength="184.5" x="911.25" y="608.1284">toDto(testParametersList)</text><ellipse cx="897.75" cy="622.2539" fill="#84BE84" rx="4.5" ry="4.5" style="stroke:#038048;stroke-width:1.5;"/><text fill="#000000" font-family="sans-serif" font-size="16.5" lengthAdjust="spacing" textLength="150" x="911.25" y="628.8823">toDto(testParameter)</text><!--MD5=[1c38f6084f2098752e2974895ca67f4c]
class TestDto--><rect codeLine="70" fill="#FEFECE" filter="url(#ftg84n1596rrp)" height="134.2617" id="TestDto" style="stroke:#A80036;stroke-width:2.25;" width="280.5" x="48.75" y="828.75"/><ellipse cx="150.375" cy="852.75" fill="#ADD1B2" rx="16.5" ry="16.5" style="stroke:#A80036;stroke-width:1.5;"/><path d="M153.375,847.5 Q153.6797,846.75 154.0313,846.375 Q154.3828,846 154.7813,846 Q155.4844,846 155.9297,846.4219 Q156.375,846.8438 156.375,847.8281 L156.375,850.1719 Q156.375,851.1563 155.9531,851.5781 Q155.5313,852 154.875,852 Q154.2891,852 153.9141,851.7422 Q153.5391,851.4844 153.375,850.8047 Q153.3047,850.3359 153.0469,850.0781 Q152.5781,849.5859 151.7344,849.3047 Q150.8906,849 150.0469,849 Q148.9922,849 148.1016,849.4219 Q147.2344,849.8438 146.5547,850.7813 Q145.875,851.7188 145.875,853.0078 L145.875,854.3906 Q145.875,855.9375 147.1406,856.9688 Q148.4063,858 150.6563,858 Q151.9922,858 152.9297,857.6953 Q153.4688,857.5313 154.0781,856.9922 Q154.4766,856.6875 154.6875,856.5938 Q154.8984,856.5 155.1563,856.5 Q155.6484,856.5 156,856.8984 Q156.375,857.2734 156.375,857.8125 Q156.375,858.3281 155.8594,858.9375 Q155.1094,859.8281 153.9141,860.3203 Q152.3438,861 150.4219,861 Q148.1719,861 146.3672,860.1094 Q144.9141,859.4063 143.8828,857.8828 Q142.875,856.3594 142.875,854.5547 L142.875,852.9141 Q142.875,851.0391 143.7656,849.3984 Q144.6797,847.7578 146.25,846.8906 Q147.8438,846 149.625,846 Q150.7031,846 151.6406,846.375 Q152.5781,846.75 153.375,847.5 Z " fill="#000000"/><text fill="#000000" font-family="sans-serif" font-size="18" lengthAdjust="spacing" textLength="64.5" x="181.125" y="860.1152">TestDto</text><line style="stroke:#A80036;stroke-width:2.25;" x1="50.25" x2="327.75" y1="876.75" y2="876.75"/><rect fill="none" height="9" style="stroke:#C82930;stroke-width:1.5;" width="9" x="60.75" y="888.75"/><text fill="#000000" font-family="sans-serif" font-size="16.5" lengthAdjust="spacing" textLength="136.5" x="78.75" y="899.8784">String internalCode</text><rect fill="none" height="9" style="stroke:#C82930;stroke-width:1.5;" width="9" x="60.75" y="909.5039"/><text fill="#000000" font-family="sans-serif" font-size="16.5" lengthAdjust="spacing" textLength="126" x="78.75" y="920.6323">String description</text><line style="stroke:#A80036;stroke-width:2.25;" x1="50.25" x2="327.75" y1="930.2578" y2="930.2578"/><ellipse cx="65.25" cy="946.7578" fill="#84BE84" rx="4.5" ry="4.5" style="stroke:#038048;stroke-width:1.5;"/><text fill="#000000" font-family="sans-serif" font-size="16.5" lengthAdjust="spacing" textLength="241.5" x="78.75" y="953.3862">TestDto(internalCode,description)</text><!--MD5=[fa2f44d2bdbb0499bd765719ad83ddd6]
class TestParameterDto--><rect codeLine="76" fill="#FEFECE" filter="url(#ftg84n1596rrp)" height="258.7852" id="TestParameterDto" style="stroke:#A80036;stroke-width:2.25;" width="442.5" x="381.75" y="766.5"/><ellipse cx="520.875" cy="790.5" fill="#ADD1B2" rx="16.5" ry="16.5" style="stroke:#A80036;stroke-width:1.5;"/><path d="M523.875,785.25 Q524.1797,784.5 524.5313,784.125 Q524.8828,783.75 525.2813,783.75 Q525.9844,783.75 526.4297,784.1719 Q526.875,784.5938 526.875,785.5781 L526.875,787.9219 Q526.875,788.9063 526.4531,789.3281 Q526.0313,789.75 525.375,789.75 Q524.7891,789.75 524.4141,789.4922 Q524.0391,789.2344 523.875,788.5547 Q523.8047,788.0859 523.5469,787.8281 Q523.0781,787.3359 522.2344,787.0547 Q521.3906,786.75 520.5469,786.75 Q519.4922,786.75 518.6016,787.1719 Q517.7344,787.5938 517.0547,788.5313 Q516.375,789.4688 516.375,790.7578 L516.375,792.1406 Q516.375,793.6875 517.6406,794.7188 Q518.9063,795.75 521.1563,795.75 Q522.4922,795.75 523.4297,795.4453 Q523.9688,795.2813 524.5781,794.7422 Q524.9766,794.4375 525.1875,794.3438 Q525.3984,794.25 525.6563,794.25 Q526.1484,794.25 526.5,794.6484 Q526.875,795.0234 526.875,795.5625 Q526.875,796.0781 526.3594,796.6875 Q525.6094,797.5781 524.4141,798.0703 Q522.8438,798.75 520.9219,798.75 Q518.6719,798.75 516.8672,797.8594 Q515.4141,797.1563 514.3828,795.6328 Q513.375,794.1094 513.375,792.3047 L513.375,790.6641 Q513.375,788.7891 514.2656,787.1484 Q515.1797,785.5078 516.75,784.6406 Q518.3438,783.75 520.125,783.75 Q521.2031,783.75 522.1406,784.125 Q523.0781,784.5 523.875,785.25 Z " fill="#000000"/><text fill="#000000" font-family="sans-serif" font-size="18" lengthAdjust="spacing" textLength="151.5" x="551.625" y="797.8652">TestParameterDto</text><line style="stroke:#A80036;stroke-width:2.25;" x1="383.25" x2="822.75" y1="814.5" y2="814.5"/><rect fill="none" height="9" style="stroke:#C82930;stroke-width:1.5;" width="9" x="393.75" y="826.5"/><text fill="#000000" font-family="sans-serif" font-size="16.5" lengthAdjust="spacing" textLength="160.5" x="411.75" y="837.6284">String parameterName</text><rect fill="none" height="9" style="stroke:#C82930;stroke-width:1.5;" width="9" x="393.75" y="847.2539"/><text fill="#000000" font-family="sans-serif" font-size="16.5" lengthAdjust="spacing" textLength="192" x="411.75" y="858.3823">String testParameterResult</text><rect fill="none" height="9" style="stroke:#C82930;stroke-width:1.5;" width="9" x="393.75" y="868.0078"/><text fill="#000000" font-family="sans-serif" font-size="16.5" lengthAdjust="spacing" textLength="190.5" x="411.75" y="879.1362">String testParameterMetric</text><rect fill="none" height="9" style="stroke:#C82930;stroke-width:1.5;" width="9" x="393.75" y="888.7617"/><text fill="#000000" font-family="sans-serif" font-size="16.5" lengthAdjust="spacing" textLength="244.5" x="411.75" y="899.8901">double testParameterMinRefValue</text><rect fill="none" height="9" style="stroke:#C82930;stroke-width:1.5;" width="9" x="393.75" y="909.5156"/><text fill="#000000" font-family="sans-serif" font-size="16.5" lengthAdjust="spacing" textLength="250.5" x="411.75" y="920.644">double testParameterMaxRefValue</text><rect fill="none" height="9" style="stroke:#C82930;stroke-width:1.5;" width="9" x="393.75" y="930.2695"/><text fill="#000000" font-family="sans-serif" font-size="16.5" lengthAdjust="spacing" textLength="153" x="411.75" y="941.3979">String refValueMetric</text><line style="stroke:#A80036;stroke-width:2.25;" x1="383.25" x2="822.75" y1="951.0234" y2="951.0234"/><ellipse cx="398.25" cy="967.5234" fill="#84BE84" rx="4.5" ry="4.5" style="stroke:#038048;stroke-width:1.5;"/><text fill="#000000" font-family="sans-serif" font-size="16.5" lengthAdjust="spacing" textLength="403.5" x="411.75" y="974.1519">TestParameterDto(parameterName,testParameterResult,</text><text fill="#000000" font-family="sans-serif" font-size="16.5" lengthAdjust="spacing" textLength="345" x="411.75" y="994.9058">testParameterMetric,testParameterMinRefValue,</text><text fill="#000000" font-family="sans-serif" font-size="16.5" lengthAdjust="spacing" textLength="315" x="411.75" y="1015.6597">testParameterMaxRefValue,refValueMetric)</text><!--MD5=[bbc66458f6440b7390e5e54a12cdf2f1]
link WriteMedicalReportUI to WriteMedicalReportController--><path codeLine="88" d="M457.2,135.135 C520.575,167.775 617.4,217.665 696.84,258.6 " fill="none" id="WriteMedicalReportUI-to-WriteMedicalReportController" style="stroke:#A80036;stroke-width:1.5;stroke-dasharray:7.0,7.0;"/><polygon fill="#A80036" points="703.98,262.275,694.7496,250.7403,697.3196,258.827,689.2328,261.3969,703.98,262.275" style="stroke:#A80036;stroke-width:1.5;"/><!--MD5=[adbc032425c7e51ba2ad24017d53629a]
link WriteMedicalReportUI to TestDto--><path codeLine="89" d="M371.565,135.12 C364.395,149.625 356.595,166.83 351,183 C272.685,409.665 221.625,690.12 200.325,821.01 " fill="none" id="WriteMedicalReportUI-to-TestDto" style="stroke:#A80036;stroke-width:1.5;stroke-dasharray:7.0,7.0;"/><polygon fill="#A80036" points="199.095,828.645,207.1805,816.2807,200.2967,821.2419,195.3355,814.3581,199.095,828.645" style="stroke:#A80036;stroke-width:1.5;"/><!--MD5=[01734996bc336a4e5d2ed8719592e27f]
link WriteMedicalReportUI to TestParameterDto--><path codeLine="90" d="M399.285,135.135 C427.935,241.965 516.03,570.435 566.49,758.61 " fill="none" id="WriteMedicalReportUI-to-TestParameterDto" style="stroke:#A80036;stroke-width:1.5;stroke-dasharray:7.0,7.0;"/><polygon fill="#A80036" points="568.56,766.35,570.8843,751.7607,566.6302,759.1025,559.2884,754.8484,568.56,766.35" style="stroke:#A80036;stroke-width:1.5;"/><!--MD5=[b787b54ee1aef98cad412d2a644aa045]
link WriteMedicalReportController to Company--><path codeLine="91" d="M981.27,350.97 C1055.265,367.95 1140.69,399.69 1197,459 C1297.845,565.215 1340.73,738.165 1357.275,831.015 " fill="none" id="WriteMedicalReportController-to-Company" style="stroke:#A80036;stroke-width:1.5;stroke-dasharray:7.0,7.0;"/><polygon fill="#A80036" points="1358.61,838.65,1362.2082,824.3216,1357.3249,831.2609,1350.3856,826.3777,1358.61,838.65" style="stroke:#A80036;stroke-width:1.5;"/><!--MD5=[d59dafcd53f8ba979ac3ce89e293f269]
link WriteMedicalReportController to TestMapper--><path codeLine="92" d="M812.205,397.575 C800.79,434.715 786.615,480.84 775.365,517.47 " fill="none" id="WriteMedicalReportController-to-TestMapper" style="stroke:#A80036;stroke-width:1.5;stroke-dasharray:7.0,7.0;"/><polygon fill="#A80036" points="773.16,524.67,782.8321,513.503,775.3446,517.4952,771.3524,510.0077,773.16,524.67" style="stroke:#A80036;stroke-width:1.5;"/><!--MD5=[0cd9019ce07d4cbb96eb84fb6d9e22ee]
link WriteMedicalReportController to TestParameterDto--><path codeLine="93" d="M714.15,397.71 C692.49,414.96 672.375,435.45 658.5,459 C605.4,549.105 593.265,667.725 593.445,758.445 " fill="none" id="WriteMedicalReportController-to-TestParameterDto" style="stroke:#A80036;stroke-width:1.5;stroke-dasharray:7.0,7.0;"/><polygon fill="#A80036" points="593.49,766.035,599.4128,752.5009,593.4471,758.5351,587.413,752.5695,593.49,766.035" style="stroke:#A80036;stroke-width:1.5;"/><!--MD5=[ba75a4db94b946b551daa943cd9720f8]
link WriteMedicalReportController to TestDto--><path codeLine="94" d="M684.33,397.56 C650.37,415.455 615.36,436.245 585,459 C442.545,565.8 310.62,728.985 240.84,822.39 " fill="none" id="WriteMedicalReportController-to-TestDto" style="stroke:#A80036;stroke-width:1.5;stroke-dasharray:7.0,7.0;"/><polygon fill="#A80036" points="236.34,828.435,249.2111,821.1835,240.816,822.4171,239.5824,814.0219,236.34,828.435" style="stroke:#A80036;stroke-width:1.5;"/><!--MD5=[d3614dad8e7ab28fcc7b8ffd0e053a84]
link WriteMedicalReportController to TestParameter--><path codeLine="95" d="M981.3,356.595 C1040.55,374.67 1102.98,405.72 1138.5,459 C1203.705,556.8 1178.415,695.865 1148.31,790.395 " fill="none" id="WriteMedicalReportController-to-TestParameter" style="stroke:#A80036;stroke-width:1.5;stroke-dasharray:7.0,7.0;"/><polygon fill="#A80036" points="1145.955,797.7,1155.8272,786.7095,1148.2688,790.5658,1144.4125,783.0075,1145.955,797.7" style="stroke:#A80036;stroke-width:1.5;"/><!--MD5=[eaabf2cc0e7c429fc49065438c9fd520]
link WriteMedicalReportController to Test--><path codeLine="96" d="M981.225,347.28 C1077.66,363.285 1202.325,395.28 1296,459 C1407.015,534.525 1434.975,573.15 1477.5,700.5 C1528.38,852.9 1546.515,916.92 1477.5,1062 C1451.445,1116.765 1403.595,1162.02 1355.895,1196.475 " fill="none" id="WriteMedicalReportController-to-Test" style="stroke:#A80036;stroke-width:1.5;stroke-dasharray:7.0,7.0;"/><polygon fill="#A80036" points="1349.475,1201.05,1363.9518,1198.1049,1355.5838,1196.6988,1356.9899,1188.3309,1349.475,1201.05" style="stroke:#A80036;stroke-width:1.5;"/><!--MD5=[29a1b506a2116fd5358dcc26b4aac099]
link WriteMedicalReportController to TestParameterMapper--><path codeLine="97" d="M876.285,397.575 C901.11,435.03 931.965,481.605 956.34,518.385 " fill="none" id="WriteMedicalReportController-to-TestParameterMapper" style="stroke:#A80036;stroke-width:1.5;stroke-dasharray:7.0,7.0;"/><polygon fill="#A80036" points="960.51,524.67,958.0138,510.1091,956.3497,518.4296,948.0292,516.7655,960.51,524.67" style="stroke:#A80036;stroke-width:1.5;"/><!--MD5=[0d2deb453e4521a8ecd45cf39c488e89]
link TestParameterMapper to TestParameterDto--><path codeLine="98" d="M926.97,639.15 C883.665,673.305 826.245,718.62 771.765,761.595 " fill="none" id="TestParameterMapper-to-TestParameterDto" style="stroke:#A80036;stroke-width:1.5;stroke-dasharray:7.0,7.0;"/><polygon fill="#A80036" points="765.825,766.29,780.1396,762.6375,771.7127,761.6441,772.7061,753.2171,765.825,766.29" style="stroke:#A80036;stroke-width:1.5;"/><!--MD5=[886f81fd36c1ffd754dcf922ff388f49]
link TestParameterMapper to TestParameter--><path codeLine="99" d="M1017.075,639.15 C1031.79,680.97 1052.385,739.515 1070.16,790.035 " fill="none" id="TestParameterMapper-to-TestParameter" style="stroke:#A80036;stroke-width:1.5;stroke-dasharray:7.0,7.0;"/><polygon fill="#A80036" points="1072.755,797.415,1073.9386,782.6892,1070.2678,790.3394,1062.6176,786.6687,1072.755,797.415" style="stroke:#A80036;stroke-width:1.5;"/><!--MD5=[34b2fed5845bf5a187f4983fcf3f57bc]
link TestMapper to TestDto--><path codeLine="100" d="M683.13,619.2 C640.935,638.49 586.275,661.11 535.5,675 C516.015,680.325 373.215,690.795 355.5,700.5 C303.9,728.79 261.12,779.82 231.84,822.48 " fill="none" id="TestMapper-to-TestDto" style="stroke:#A80036;stroke-width:1.5;stroke-dasharray:7.0,7.0;"/><polygon fill="#A80036" points="227.625,828.705,240.1741,820.9094,231.8394,822.5011,230.2478,814.1664,227.625,828.705" style="stroke:#A80036;stroke-width:1.5;"/><!--MD5=[8d9a2c3ea1bf73d8d45b939465e53fff]
link TestMapper to Test--><path codeLine="101" d="M807.465,639.405 C822.465,657.84 837.795,679.125 849,700.5 C926.94,849.18 865.35,922.335 958.5,1062 C989.64,1108.68 1034.085,1150.395 1077.33,1184.22 " fill="none" id="TestMapper-to-Test" style="stroke:#A80036;stroke-width:1.5;stroke-dasharray:7.0,7.0;"/><polygon fill="#A80036" points="1083.705,1189.155,1076.69,1176.1535,1077.7699,1184.5698,1069.3536,1185.6496,1083.705,1189.155" style="stroke:#A80036;stroke-width:1.5;"/><!--MD5=[7e4bc624457760b649895ff2ead938fa]
link Company to Test--><path codeLine="102" d="M1348.17,953.415 C1334.295,994.53 1314.3,1051.665 1294.5,1101 C1288.665,1115.535 1282.305,1130.655 1275.825,1145.61 " fill="none" id="Company-Test" style="stroke:#A80036;stroke-width:1.5;"/><polygon fill="#000000" points="1306.8579,1094.7829,1315.7633,1083.638,1307.5117,1080.532,1306.8579,1094.7829" style="stroke:#000000;stroke-width:1.5;"/><text fill="#000000" font-family="sans-serif" font-size="19.5" lengthAdjust="spacing" textLength="75" x="1323" y="1095.7427">performs</text><text fill="#000000" font-family="sans-serif" font-size="19.5" lengthAdjust="spacing" textLength="10.5" x="1333.7646" y="985.1976">1</text><text fill="#000000" font-family="sans-serif" font-size="19.5" lengthAdjust="spacing" textLength="30" x="1249.6342" y="1129.6909">1..*</text><!--MD5=[7d615427424eb1e9d8965c4eb17ecbf5]
link TestParameter to Test--><path codeLine="103" d="M1084.995,994.665 C1081.065,1028.94 1081.155,1067.325 1092,1101 C1096.875,1116.165 1103.64,1131.12 1111.5,1145.505 " fill="none" id="TestParameter-Test" style="stroke:#A80036;stroke-width:1.5;"/><polygon fill="#000000" points="1098.202,1080.3768,1096.2082,1094.5027,1104.892,1092.9768,1098.202,1080.3768" style="stroke:#000000;stroke-width:1.5;"/><text fill="#000000" font-family="sans-serif" font-size="19.5" lengthAdjust="spacing" textLength="174" x="1113" y="1095.7427">requests analysis of</text><text fill="#000000" font-family="sans-serif" font-size="19.5" lengthAdjust="spacing" textLength="30" x="1050.9476" y="1027.0119">1..*</text><text fill="#000000" font-family="sans-serif" font-size="19.5" lengthAdjust="spacing" textLength="10.5" x="1091.5254" y="1129.5769">1</text><!--MD5=[c3238c64a9072feb51e313e35a850213]
link Test to MedicalReport--><path codeLine="104" d="M1216.5,1405.5 C1216.5,1445.145 1216.5,1487.52 1216.5,1522.425 " fill="none" id="Test-MedicalReport" style="stroke:#A80036;stroke-width:1.5;"/><polygon fill="#000000" points="1224,1471.7637,1228.4084,1458.196,1219.5916,1458.196,1224,1471.7637" style="stroke:#000000;stroke-width:1.5;"/><text fill="#000000" font-family="sans-serif" font-size="19.5" lengthAdjust="spacing" textLength="64.5" x="1237.5" y="1472.2427">request</text><text fill="#000000" font-family="sans-serif" font-size="19.5" lengthAdjust="spacing" textLength="7.5" x="1208.7012" y="1437.0879">*</text><text fill="#000000" font-family="sans-serif" font-size="19.5" lengthAdjust="spacing" textLength="10.5" x="1205.2617" y="1506.1072">1</text><!--MD5=[7f6cf7f175eae0af66201860de5de971]
link Company to TestStore--><path codeLine="105" d="M1412.76,953.31 C1470.405,1022.535 1568.64,1140.51 1628.595,1212.51 " fill="none" id="Company-to-TestStore" style="stroke:#A80036;stroke-width:1.5;"/><polygon fill="#A80036" points="1633.545,1218.465,1629.517,1204.2514,1628.7457,1212.7016,1620.2956,1211.9303,1633.545,1218.465" style="stroke:#A80036;stroke-width:1.5;"/><text fill="#000000" font-family="sans-serif" font-size="19.5" lengthAdjust="spacing" textLength="42" x="1533" y="1095.7427">uses</text><text fill="#000000" font-family="sans-serif" font-size="19.5" lengthAdjust="spacing" textLength="10.5" x="1409.0523" y="985.0752">1</text><text fill="#000000" font-family="sans-serif" font-size="19.5" lengthAdjust="spacing" textLength="10.5" x="1613.835" y="1202.4571">1</text><!--MD5=[40a8798dc96359bb87cc892a32f27902]
@startuml

package UI{
class WriteMedicalReportUI{
}
}

package Controller{
class WriteMedicalReportController{
+getTestHasSamplesAnalyzedList()
+getTestParameterList(selectedTest)
+addMedicalReport(diagnosis)
}
}

package Model{
class Company{
-String designation
+getTestStore()
}

class Test{
-String internalCode
-String nhsCode
-String description
+getParametersResulList()
+getDescription()
+getInternalCode()
+addMedicalReport(diagnosis)
+validateMedicalReport()
-updateStateToDiagnosisMade()
}

class MedicalReport{
-String diagnosis
-Date createdAt
+ MedicalReport(diagnosis)
+ addCreationDate()
}

class TestParameter{
+ getParameterName()
+ getParameterResult()
+ getParameterMetric()
+ getParameterMinRefValue()
+ getParameterMaxRefValue()
+ getRefValueMetric()
}
}

package Store{
class TestStore{
+getTestHasSamplesAnalyzedList()
+getTestByInternalCode(code)
}
}

package Mappers{
class TestMapper{
+toDto(test)
+toDto(testList)
}

class TestParameterMapper{
+toDto(testParametersList)
+toDto(testParameter)
}
}

package DTO{
class TestDto{
-String internalCode
-String description
+TestDto(internalCode,description)
}

class TestParameterDto{
-String parameterName
-String testParameterResult
-String testParameterMetric
-double testParameterMinRefValue
-double testParameterMaxRefValue
-String refValueMetric
+TestParameterDto(parameterName,testParameterResult,\ntestParameterMetric,testParameterMinRefValue,\ntestParameterMaxRefValue,refValueMetric)
}
}


WriteMedicalReportUI ..> WriteMedicalReportController
WriteMedicalReportUI ..> TestDto
WriteMedicalReportUI ..> TestParameterDto
WriteMedicalReportController ..> Company
WriteMedicalReportController ..> TestMapper
WriteMedicalReportController ...> TestParameterDto
WriteMedicalReportController ...> TestDto
WriteMedicalReportController ...> TestParameter
WriteMedicalReportController ...> Test
WriteMedicalReportController ..> TestParameterMapper
TestParameterMapper ..> TestParameterDto
TestParameterMapper ..> TestParameter
TestMapper ..> TestDto
TestMapper ..> Test
Company "1"- -"1..*" Test : performs >
TestParameter "1..*" - -"1" Test : requests analysis of <
Test "*"- -"1" MedicalReport : request >
Company"1"- -> "1" TestStore : uses

@enduml

PlantUML version 1.2021.5(Sun Apr 25 12:20:28 BST 2021)
(GPL source distribution)
Java Runtime: OpenJDK Runtime Environment
JVM: Dynamic Code Evolution 64-Bit Server VM
Default Encoding: Cp1252
Language: pt
Country: PT
--></g></svg>