<?xml version="1.0" encoding="UTF-8" standalone="no"?><svg xmlns="http://www.w3.org/2000/svg" xmlns:xlink="http://www.w3.org/1999/xlink" contentScriptType="application/ecmascript" contentStyleType="text/css" height="439.5px" preserveAspectRatio="none" style="width:2487px;height:439px;" version="1.1" viewBox="0 0 2487 439" width="2487px" zoomAndPan="magnify"><defs><filter height="300%" id="fmp2kc42ceh4e" width="300%" x="-1" y="-1"><feGaussianBlur result="blurOut" stdDeviation="3.0"/><feColorMatrix in="blurOut" result="blurOut2" type="matrix" values="0 0 0 0 0 0 0 0 0 0 0 0 0 0 0 0 0 0 .4 0"/><feOffset dx="6.0" dy="6.0" in="blurOut2" result="blurOut3"/><feBlend in="SourceGraphic" in2="blurOut3" mode="normal"/></filter></defs><g><!--MD5=[02e4b9b7573f1156f41e60aa5b4e25a4]
class Company--><rect codeLine="5" fill="#FEFECE" filter="url(#fmp2kc42ceh4e)" height="80.7539" id="Company" style="stroke:#A80036;stroke-width:2.25;" width="127.5" x="10.5" y="104.25"/><ellipse cx="33" cy="128.25" fill="#ADD1B2" rx="16.5" ry="16.5" style="stroke:#A80036;stroke-width:1.5;"/><path d="M36,123 Q36.3047,122.25 36.6563,121.875 Q37.0078,121.5 37.4063,121.5 Q38.1094,121.5 38.5547,121.9219 Q39,122.3438 39,123.3281 L39,125.6719 Q39,126.6563 38.5781,127.0781 Q38.1563,127.5 37.5,127.5 Q36.9141,127.5 36.5391,127.2422 Q36.1641,126.9844 36,126.3047 Q35.9297,125.8359 35.6719,125.5781 Q35.2031,125.0859 34.3594,124.8047 Q33.5156,124.5 32.6719,124.5 Q31.6172,124.5 30.7266,124.9219 Q29.8594,125.3438 29.1797,126.2813 Q28.5,127.2188 28.5,128.5078 L28.5,129.8906 Q28.5,131.4375 29.7656,132.4688 Q31.0313,133.5 33.2813,133.5 Q34.6172,133.5 35.5547,133.1953 Q36.0938,133.0313 36.7031,132.4922 Q37.1016,132.1875 37.3125,132.0938 Q37.5234,132 37.7813,132 Q38.2734,132 38.625,132.3984 Q39,132.7734 39,133.3125 Q39,133.8281 38.4844,134.4375 Q37.7344,135.3281 36.5391,135.8203 Q34.9688,136.5 33.0469,136.5 Q30.7969,136.5 28.9922,135.6094 Q27.5391,134.9063 26.5078,133.3828 Q25.5,131.8594 25.5,130.0547 L25.5,128.4141 Q25.5,126.5391 26.3906,124.8984 Q27.3047,123.2578 28.875,122.3906 Q30.4688,121.5 32.25,121.5 Q33.3281,121.5 34.2656,121.875 Q35.2031,122.25 36,123 Z " fill="#000000"/><text fill="#000000" font-family="sans-serif" font-size="18" lengthAdjust="spacing" textLength="79.5" x="54" y="135.6152">Company</text><line style="stroke:#A80036;stroke-width:2.25;" x1="12" x2="136.5" y1="152.25" y2="152.25"/><text fill="#000000" font-family="sans-serif" font-size="16.5" lengthAdjust="spacing" textLength="88.5" x="19.5" y="175.3784">-designation</text><!--MD5=[7421f545a0d8420c5bec41e74b387d9c]
class Employee--><rect codeLine="10" fill="#FEFECE" filter="url(#fmp2kc42ceh4e)" height="205.2773" id="Employee" style="stroke:#A80036;stroke-width:2.25;" width="144" x="2322" y="10.5"/><ellipse cx="2350.575" cy="34.5" fill="#ADD1B2" rx="16.5" ry="16.5" style="stroke:#A80036;stroke-width:1.5;"/><path d="M2353.575,29.25 Q2353.8797,28.5 2354.2313,28.125 Q2354.5828,27.75 2354.9813,27.75 Q2355.6844,27.75 2356.1297,28.1719 Q2356.575,28.5938 2356.575,29.5781 L2356.575,31.9219 Q2356.575,32.9063 2356.1531,33.3281 Q2355.7313,33.75 2355.075,33.75 Q2354.4891,33.75 2354.1141,33.4922 Q2353.7391,33.2344 2353.575,32.5547 Q2353.5047,32.0859 2353.2469,31.8281 Q2352.7781,31.3359 2351.9344,31.0547 Q2351.0906,30.75 2350.2469,30.75 Q2349.1922,30.75 2348.3016,31.1719 Q2347.4344,31.5938 2346.7547,32.5313 Q2346.075,33.4688 2346.075,34.7578 L2346.075,36.1406 Q2346.075,37.6875 2347.3406,38.7188 Q2348.6063,39.75 2350.8563,39.75 Q2352.1922,39.75 2353.1297,39.4453 Q2353.6688,39.2813 2354.2781,38.7422 Q2354.6766,38.4375 2354.8875,38.3438 Q2355.0984,38.25 2355.3563,38.25 Q2355.8484,38.25 2356.2,38.6484 Q2356.575,39.0234 2356.575,39.5625 Q2356.575,40.0781 2356.0594,40.6875 Q2355.3094,41.5781 2354.1141,42.0703 Q2352.5438,42.75 2350.6219,42.75 Q2348.3719,42.75 2346.5672,41.8594 Q2345.1141,41.1563 2344.0828,39.6328 Q2343.075,38.1094 2343.075,36.3047 L2343.075,34.6641 Q2343.075,32.7891 2343.9656,31.1484 Q2344.8797,29.5078 2346.45,28.6406 Q2348.0438,27.75 2349.825,27.75 Q2350.9031,27.75 2351.8406,28.125 Q2352.7781,28.5 2353.575,29.25 Z " fill="#000000"/><text fill="#000000" font-family="sans-serif" font-size="18" lengthAdjust="spacing" textLength="82.5" x="2372.925" y="41.8652">Employee</text><line style="stroke:#A80036;stroke-width:2.25;" x1="2323.5" x2="2464.5" y1="58.5" y2="58.5"/><text fill="#000000" font-family="sans-serif" font-size="16.5" lengthAdjust="spacing" textLength="45" x="2331" y="81.6284">-name</text><text fill="#000000" font-family="sans-serif" font-size="16.5" lengthAdjust="spacing" textLength="66" x="2331" y="102.3823">-address</text><text fill="#000000" font-family="sans-serif" font-size="16.5" lengthAdjust="spacing" textLength="106.5" x="2331" y="123.1362">-phoneNumber</text><text fill="#000000" font-family="sans-serif" font-size="16.5" lengthAdjust="spacing" textLength="42" x="2331" y="143.8901">-email</text><text fill="#000000" font-family="sans-serif" font-size="16.5" lengthAdjust="spacing" textLength="87" x="2331" y="164.644">-employeeId</text><text fill="#000000" font-family="sans-serif" font-size="16.5" lengthAdjust="spacing" textLength="126" x="2331" y="185.3979">-organizationRole</text><text fill="#000000" font-family="sans-serif" font-size="16.5" lengthAdjust="spacing" textLength="70.5" x="2331" y="206.1519">-socCode</text><!--MD5=[7d96fd15f3014691d2fcaf89c5791e2a]
class SpecialistDoctor--><rect codeLine="20" fill="#FEFECE" filter="url(#fmp2kc42ceh4e)" height="80.7539" id="SpecialistDoctor" style="stroke:#A80036;stroke-width:2.25;" width="183" x="1954.5" y="138.75"/><ellipse cx="1977" cy="162.75" fill="#ADD1B2" rx="16.5" ry="16.5" style="stroke:#A80036;stroke-width:1.5;"/><path d="M1980,157.5 Q1980.3047,156.75 1980.6563,156.375 Q1981.0078,156 1981.4063,156 Q1982.1094,156 1982.5547,156.4219 Q1983,156.8438 1983,157.8281 L1983,160.1719 Q1983,161.1563 1982.5781,161.5781 Q1982.1563,162 1981.5,162 Q1980.9141,162 1980.5391,161.7422 Q1980.1641,161.4844 1980,160.8047 Q1979.9297,160.3359 1979.6719,160.0781 Q1979.2031,159.5859 1978.3594,159.3047 Q1977.5156,159 1976.6719,159 Q1975.6172,159 1974.7266,159.4219 Q1973.8594,159.8438 1973.1797,160.7813 Q1972.5,161.7188 1972.5,163.0078 L1972.5,164.3906 Q1972.5,165.9375 1973.7656,166.9688 Q1975.0313,168 1977.2813,168 Q1978.6172,168 1979.5547,167.6953 Q1980.0938,167.5313 1980.7031,166.9922 Q1981.1016,166.6875 1981.3125,166.5938 Q1981.5234,166.5 1981.7813,166.5 Q1982.2734,166.5 1982.625,166.8984 Q1983,167.2734 1983,167.8125 Q1983,168.3281 1982.4844,168.9375 Q1981.7344,169.8281 1980.5391,170.3203 Q1978.9688,171 1977.0469,171 Q1974.7969,171 1972.9922,170.1094 Q1971.5391,169.4063 1970.5078,167.8828 Q1969.5,166.3594 1969.5,164.5547 L1969.5,162.9141 Q1969.5,161.0391 1970.3906,159.3984 Q1971.3047,157.7578 1972.875,156.8906 Q1974.4688,156 1976.25,156 Q1977.3281,156 1978.2656,156.375 Q1979.2031,156.75 1980,157.5 Z " fill="#000000"/><text fill="#000000" font-family="sans-serif" font-size="18" lengthAdjust="spacing" textLength="135" x="1998" y="170.1152">SpecialistDoctor</text><line style="stroke:#A80036;stroke-width:2.25;" x1="1956" x2="2136" y1="186.75" y2="186.75"/><text fill="#000000" font-family="sans-serif" font-size="16.5" lengthAdjust="spacing" textLength="147" x="1963.5" y="209.8784">-doctorIndexNumber</text><!--MD5=[df38be88ccee13e832d6fafd6288a4ca]
class Test--><rect codeLine="24" fill="#FEFECE" filter="url(#fmp2kc42ceh4e)" height="122.2617" id="Test" style="stroke:#A80036;stroke-width:2.25;" width="114" x="418.5" y="180.75"/><ellipse cx="454.5" cy="204.75" fill="#ADD1B2" rx="16.5" ry="16.5" style="stroke:#A80036;stroke-width:1.5;"/><path d="M457.5,199.5 Q457.8047,198.75 458.1563,198.375 Q458.5078,198 458.9063,198 Q459.6094,198 460.0547,198.4219 Q460.5,198.8438 460.5,199.8281 L460.5,202.1719 Q460.5,203.1563 460.0781,203.5781 Q459.6563,204 459,204 Q458.4141,204 458.0391,203.7422 Q457.6641,203.4844 457.5,202.8047 Q457.4297,202.3359 457.1719,202.0781 Q456.7031,201.5859 455.8594,201.3047 Q455.0156,201 454.1719,201 Q453.1172,201 452.2266,201.4219 Q451.3594,201.8438 450.6797,202.7813 Q450,203.7188 450,205.0078 L450,206.3906 Q450,207.9375 451.2656,208.9688 Q452.5313,210 454.7813,210 Q456.1172,210 457.0547,209.6953 Q457.5938,209.5313 458.2031,208.9922 Q458.6016,208.6875 458.8125,208.5938 Q459.0234,208.5 459.2813,208.5 Q459.7734,208.5 460.125,208.8984 Q460.5,209.2734 460.5,209.8125 Q460.5,210.3281 459.9844,210.9375 Q459.2344,211.8281 458.0391,212.3203 Q456.4688,213 454.5469,213 Q452.2969,213 450.4922,212.1094 Q449.0391,211.4063 448.0078,209.8828 Q447,208.3594 447,206.5547 L447,204.9141 Q447,203.0391 447.8906,201.3984 Q448.8047,199.7578 450.375,198.8906 Q451.9688,198 453.75,198 Q454.8281,198 455.7656,198.375 Q456.7031,198.75 457.5,199.5 Z " fill="#000000"/><text fill="#000000" font-family="sans-serif" font-size="18" lengthAdjust="spacing" textLength="36" x="478.5" y="212.1152">Test</text><line style="stroke:#A80036;stroke-width:2.25;" x1="420" x2="531" y1="228.75" y2="228.75"/><text fill="#000000" font-family="sans-serif" font-size="16.5" lengthAdjust="spacing" textLength="96" x="427.5" y="251.8784">-internalCode</text><text fill="#000000" font-family="sans-serif" font-size="16.5" lengthAdjust="spacing" textLength="70.5" x="427.5" y="272.6323">-nhsCode</text><text fill="#000000" font-family="sans-serif" font-size="16.5" lengthAdjust="spacing" textLength="85.5" x="427.5" y="293.3862">-description</text><!--MD5=[b2d1f399f1909a0bb241ed0598ba126f]
class MedicalReport--><rect codeLine="30" fill="#FEFECE" filter="url(#fmp2kc42ceh4e)" height="122.2617" id="MedicalReport" style="stroke:#A80036;stroke-width:2.25;" width="166.5" x="1044" y="110.25"/><ellipse cx="1066.5" cy="134.25" fill="#ADD1B2" rx="16.5" ry="16.5" style="stroke:#A80036;stroke-width:1.5;"/><path d="M1069.5,129 Q1069.8047,128.25 1070.1563,127.875 Q1070.5078,127.5 1070.9063,127.5 Q1071.6094,127.5 1072.0547,127.9219 Q1072.5,128.3438 1072.5,129.3281 L1072.5,131.6719 Q1072.5,132.6563 1072.0781,133.0781 Q1071.6563,133.5 1071,133.5 Q1070.4141,133.5 1070.0391,133.2422 Q1069.6641,132.9844 1069.5,132.3047 Q1069.4297,131.8359 1069.1719,131.5781 Q1068.7031,131.0859 1067.8594,130.8047 Q1067.0156,130.5 1066.1719,130.5 Q1065.1172,130.5 1064.2266,130.9219 Q1063.3594,131.3438 1062.6797,132.2813 Q1062,133.2188 1062,134.5078 L1062,135.8906 Q1062,137.4375 1063.2656,138.4688 Q1064.5313,139.5 1066.7813,139.5 Q1068.1172,139.5 1069.0547,139.1953 Q1069.5938,139.0313 1070.2031,138.4922 Q1070.6016,138.1875 1070.8125,138.0938 Q1071.0234,138 1071.2813,138 Q1071.7734,138 1072.125,138.3984 Q1072.5,138.7734 1072.5,139.3125 Q1072.5,139.8281 1071.9844,140.4375 Q1071.2344,141.3281 1070.0391,141.8203 Q1068.4688,142.5 1066.5469,142.5 Q1064.2969,142.5 1062.4922,141.6094 Q1061.0391,140.9063 1060.0078,139.3828 Q1059,137.8594 1059,136.0547 L1059,134.4141 Q1059,132.5391 1059.8906,130.8984 Q1060.8047,129.2578 1062.375,128.3906 Q1063.9688,127.5 1065.75,127.5 Q1066.8281,127.5 1067.7656,127.875 Q1068.7031,128.25 1069.5,129 Z " fill="#000000"/><text fill="#000000" font-family="sans-serif" font-size="18" lengthAdjust="spacing" textLength="118.5" x="1087.5" y="141.6152">MedicalReport</text><line style="stroke:#A80036;stroke-width:2.25;" x1="1045.5" x2="1209" y1="158.25" y2="158.25"/><text fill="#000000" font-family="sans-serif" font-size="16.5" lengthAdjust="spacing" textLength="75" x="1053" y="181.3784">-diagnosis</text><text fill="#000000" font-family="sans-serif" font-size="16.5" lengthAdjust="spacing" textLength="100.5" x="1053" y="202.1323">-dateAndTime</text><text fill="#000000" font-family="sans-serif" font-size="16.5" lengthAdjust="spacing" textLength="42" x="1053" y="222.8862">-state</text><!--MD5=[80e560c845ce9ec3c8b9ef25ef04dbf1]
class ParameterResult--><rect codeLine="36" fill="#FEFECE" filter="url(#fmp2kc42ceh4e)" height="80.7539" id="ParameterResult" style="stroke:#A80036;stroke-width:2.25;" width="189" x="1455" y="284.25"/><ellipse cx="1477.5" cy="308.25" fill="#ADD1B2" rx="16.5" ry="16.5" style="stroke:#A80036;stroke-width:1.5;"/><path d="M1480.5,303 Q1480.8047,302.25 1481.1563,301.875 Q1481.5078,301.5 1481.9063,301.5 Q1482.6094,301.5 1483.0547,301.9219 Q1483.5,302.3438 1483.5,303.3281 L1483.5,305.6719 Q1483.5,306.6563 1483.0781,307.0781 Q1482.6563,307.5 1482,307.5 Q1481.4141,307.5 1481.0391,307.2422 Q1480.6641,306.9844 1480.5,306.3047 Q1480.4297,305.8359 1480.1719,305.5781 Q1479.7031,305.0859 1478.8594,304.8047 Q1478.0156,304.5 1477.1719,304.5 Q1476.1172,304.5 1475.2266,304.9219 Q1474.3594,305.3438 1473.6797,306.2813 Q1473,307.2188 1473,308.5078 L1473,309.8906 Q1473,311.4375 1474.2656,312.4688 Q1475.5313,313.5 1477.7813,313.5 Q1479.1172,313.5 1480.0547,313.1953 Q1480.5938,313.0313 1481.2031,312.4922 Q1481.6016,312.1875 1481.8125,312.0938 Q1482.0234,312 1482.2813,312 Q1482.7734,312 1483.125,312.3984 Q1483.5,312.7734 1483.5,313.3125 Q1483.5,313.8281 1482.9844,314.4375 Q1482.2344,315.3281 1481.0391,315.8203 Q1479.4688,316.5 1477.5469,316.5 Q1475.2969,316.5 1473.4922,315.6094 Q1472.0391,314.9063 1471.0078,313.3828 Q1470,311.8594 1470,310.0547 L1470,308.4141 Q1470,306.5391 1470.8906,304.8984 Q1471.8047,303.2578 1473.375,302.3906 Q1474.9688,301.5 1476.75,301.5 Q1477.8281,301.5 1478.7656,301.875 Q1479.7031,302.25 1480.5,303 Z " fill="#000000"/><text fill="#000000" font-family="sans-serif" font-size="18" lengthAdjust="spacing" textLength="141" x="1498.5" y="315.6152">ParameterResult</text><line style="stroke:#A80036;stroke-width:2.25;" x1="1456.5" x2="1642.5" y1="332.25" y2="332.25"/><text fill="#000000" font-family="sans-serif" font-size="16.5" lengthAdjust="spacing" textLength="121.5" x="1464" y="355.3784">-parameterValue</text><!--MD5=[a05769ccb6ff68467d0f03d44782bb8a]
class ChemicalAnalysis--><rect codeLine="40" fill="#FEFECE" filter="url(#fmp2kc42ceh4e)" height="80.7539" id="ChemicalAnalysis" style="stroke:#A80036;stroke-width:2.25;" width="196.5" x="802.5" y="257.25"/><ellipse cx="825" cy="281.25" fill="#ADD1B2" rx="16.5" ry="16.5" style="stroke:#A80036;stroke-width:1.5;"/><path d="M828,276 Q828.3047,275.25 828.6563,274.875 Q829.0078,274.5 829.4063,274.5 Q830.1094,274.5 830.5547,274.9219 Q831,275.3438 831,276.3281 L831,278.6719 Q831,279.6563 830.5781,280.0781 Q830.1563,280.5 829.5,280.5 Q828.9141,280.5 828.5391,280.2422 Q828.1641,279.9844 828,279.3047 Q827.9297,278.8359 827.6719,278.5781 Q827.2031,278.0859 826.3594,277.8047 Q825.5156,277.5 824.6719,277.5 Q823.6172,277.5 822.7266,277.9219 Q821.8594,278.3438 821.1797,279.2813 Q820.5,280.2188 820.5,281.5078 L820.5,282.8906 Q820.5,284.4375 821.7656,285.4688 Q823.0313,286.5 825.2813,286.5 Q826.6172,286.5 827.5547,286.1953 Q828.0938,286.0313 828.7031,285.4922 Q829.1016,285.1875 829.3125,285.0938 Q829.5234,285 829.7813,285 Q830.2734,285 830.625,285.3984 Q831,285.7734 831,286.3125 Q831,286.8281 830.4844,287.4375 Q829.7344,288.3281 828.5391,288.8203 Q826.9688,289.5 825.0469,289.5 Q822.7969,289.5 820.9922,288.6094 Q819.5391,287.9063 818.5078,286.3828 Q817.5,284.8594 817.5,283.0547 L817.5,281.4141 Q817.5,279.5391 818.3906,277.8984 Q819.3047,276.2578 820.875,275.3906 Q822.4688,274.5 824.25,274.5 Q825.3281,274.5 826.2656,274.875 Q827.2031,275.25 828,276 Z " fill="#000000"/><text fill="#000000" font-family="sans-serif" font-size="18" lengthAdjust="spacing" textLength="148.5" x="846" y="288.6152">ChemicalAnalysis</text><line style="stroke:#A80036;stroke-width:2.25;" x1="804" x2="997.5" y1="305.25" y2="305.25"/><text fill="#000000" font-family="sans-serif" font-size="16.5" lengthAdjust="spacing" textLength="100.5" x="811.5" y="328.3784">-dateAndTime</text><!--MD5=[09366576ee87d48d594df10cacc83f45]
link Company to Employee--><path codeLine="47" d="M126.66,104.25 C165.465,77.46 221.475,47.25 276.75,47.25 C276.75,47.25 276.75,47.25 2230.5,47.25 C2261.925,47.25 2294.43,58.035 2321.985,70.89 " fill="none" id="Company-Employee" style="stroke:#A80036;stroke-width:1.5;"/><polygon fill="#000000" points="1281.7491,33.8997,1268.1161,29.698,1268.2501,38.5137,1281.7491,33.8997" style="stroke:#000000;stroke-width:1.5;"/><text fill="#000000" font-family="sans-serif" font-size="19.5" lengthAdjust="spacing" textLength="63" x="1287.75" y="41.9927">employ</text><text fill="#000000" font-family="sans-serif" font-size="19.5" lengthAdjust="spacing" textLength="10.5" x="127.6553" y="87.7901">1</text><text fill="#000000" font-family="sans-serif" font-size="19.5" lengthAdjust="spacing" textLength="30" x="2279.7485" y="86.916">1..*</text><!--MD5=[7e4bc624457760b649895ff2ead938fa]
link Company to Test--><path codeLine="48" d="M138.42,160.095 C215.295,178.92 344.49,210.54 418.125,228.57 " fill="none" id="Company-Test" style="stroke:#A80036;stroke-width:1.5;"/><polygon fill="#000000" points="244.2849,172.2971,232.1547,164.7889,230.0581,173.3528,244.2849,172.2971" style="stroke:#000000;stroke-width:1.5;"/><text fill="#000000" font-family="sans-serif" font-size="19.5" lengthAdjust="spacing" textLength="75" x="250.5" y="178.4927">performs</text><text fill="#000000" font-family="sans-serif" font-size="19.5" lengthAdjust="spacing" textLength="10.5" x="149.9177" y="184.9307">1</text><text fill="#000000" font-family="sans-serif" font-size="19.5" lengthAdjust="spacing" textLength="30" x="376.5902" y="248.6458">1..*</text><!--MD5=[1d9fce1f293ee3914182f145f5c48d77]
link ChemicalAnalysis to ParameterResult--><path codeLine="49" d="M999.63,301.815 C1122.765,306.975 1333.32,315.78 1454.565,320.85 " fill="none" id="ChemicalAnalysis-ParameterResult" style="stroke:#A80036;stroke-width:1.5;"/><polygon fill="#000000" points="1270.4934,298.3272,1257.122,293.3555,1256.7534,302.1646,1270.4934,298.3272" style="stroke:#000000;stroke-width:1.5;"/><text fill="#000000" font-family="sans-serif" font-size="19.5" lengthAdjust="spacing" textLength="85.5" x="1276.5" y="305.9927">generates</text><text fill="#000000" font-family="sans-serif" font-size="19.5" lengthAdjust="spacing" textLength="10.5" x="1011.0192" y="323.8571">1</text><text fill="#000000" font-family="sans-serif" font-size="19.5" lengthAdjust="spacing" textLength="30" x="1413.228" y="341.9679">1..*</text><!--MD5=[0a2399e6bed099984ffec5248367e4df]
link Test to ChemicalAnalysis--><path codeLine="50" d="M532.635,249.57 C601.17,258.57 718.725,274.02 802.245,285 " fill="none" id="Test-ChemicalAnalysis" style="stroke:#A80036;stroke-width:1.5;"/><polygon fill="#000000" points="638.9361,249.4909,626.0585,243.3523,624.9097,252.0939,638.9361,249.4909" style="stroke:#000000;stroke-width:1.5;"/><text fill="#000000" font-family="sans-serif" font-size="19.5" lengthAdjust="spacing" textLength="64.5" x="645" y="256.4927">request</text><text fill="#000000" font-family="sans-serif" font-size="19.5" lengthAdjust="spacing" textLength="30" x="544.5824" y="273.1174">1..*</text><text fill="#000000" font-family="sans-serif" font-size="19.5" lengthAdjust="spacing" textLength="10.5" x="779.7483" y="305.2007">1</text><!--MD5=[c3238c64a9072feb51e313e35a850213]
link Test to MedicalReport--><path codeLine="51" d="M532.935,225.27 C547.35,221.445 562.905,217.77 577.5,215.25 C741.45,186.975 936.225,177.03 1043.895,173.565 " fill="none" id="Test-MedicalReport" style="stroke:#A80036;stroke-width:1.5;"/><polygon fill="#000000" points="638.9619,183.2586,625.0194,180.2386,625.907,189.0105,638.9619,183.2586" style="stroke:#000000;stroke-width:1.5;"/><text fill="#000000" font-family="sans-serif" font-size="19.5" lengthAdjust="spacing" textLength="64.5" x="645" y="191.9927">request</text><text fill="#000000" font-family="sans-serif" font-size="19.5" lengthAdjust="spacing" textLength="30" x="544.4793" y="244.8198">1..*</text><text fill="#000000" font-family="sans-serif" font-size="19.5" lengthAdjust="spacing" textLength="10.5" x="1021.4887" y="195.7491">1</text><!--MD5=[2583600c66c07148b976f1ae06a56d76]
link ParameterResult to Test--><path codeLine="52" d="M1492.14,365.34 C1445.94,394.89 1377.375,429.75 1311,429.75 C666,429.75 666,429.75 666,429.75 C593.205,429.75 538.44,358.785 507.075,304.17 " fill="none" id="ParameterResult-Test" style="stroke:#A80036;stroke-width:1.5;"/><polygon fill="#000000" points="822.0144,416.0488,835.2827,421.2896,835.8292,412.4898,822.0144,416.0488" style="stroke:#000000;stroke-width:1.5;"/><text fill="#000000" font-family="sans-serif" font-size="19.5" lengthAdjust="spacing" textLength="135" x="843" y="424.4927">associated with</text><text fill="#000000" font-family="sans-serif" font-size="19.5" lengthAdjust="spacing" textLength="30" x="1446.3113" y="397.1713">1..*</text><text fill="#000000" font-family="sans-serif" font-size="19.5" lengthAdjust="spacing" textLength="10.5" x="500.4415" y="335.3626">1</text><!--MD5=[91b2c2dc70e917e4c40b66372232a103]
link ParameterResult to SpecialistDoctor--><path codeLine="53" d="M1644.51,303.495 C1706.835,288.69 1790.355,267.66 1863,245.25 C1892.955,236.01 1925.25,224.715 1954.155,214.095 " fill="none" id="ParameterResult-SpecialistDoctor" style="stroke:#A80036;stroke-width:1.5;"/><polygon fill="#000000" points="1750.2057,229.9333,1735.9476,229.4614,1738.3933,237.9322,1750.2057,229.9333" style="stroke:#000000;stroke-width:1.5;"/><text fill="#000000" font-family="sans-serif" font-size="19.5" lengthAdjust="spacing" textLength="105" x="1756.5" y="239.9927">analyzed by</text><text fill="#000000" font-family="sans-serif" font-size="19.5" lengthAdjust="spacing" textLength="30" x="1655.8548" y="322.8231">1..*</text><text fill="#000000" font-family="sans-serif" font-size="19.5" lengthAdjust="spacing" textLength="10.5" x="1931.8215" y="240.094">1</text><!--MD5=[e66f8c4fa516e197a55cf1b13c3927b3]
link SpecialistDoctor to Employee--><path codeLine="54" d="M2137.695,162 C2185.08,152.925 2243.31,141.795 2292.12,132.45 " fill="none" id="SpecialistDoctor-to-Employee" style="stroke:#A80036;stroke-width:1.5;"/><polygon fill="none" points="2290.44,122.085,2321.88,126.765,2294.385,142.71,2290.44,122.085" style="stroke:#A80036;stroke-width:1.5;"/><!--MD5=[998e2ee25e4f5c17bcb5810d33ccda6e]
link MedicalReport to SpecialistDoctor--><path codeLine="55" d="M1210.755,175.11 C1266.495,177.105 1341.945,179.25 1408.5,179.25 C1408.5,179.25 1408.5,179.25 1800.75,179.25 C1851.525,179.25 1908.27,179.25 1954.215,179.25 " fill="none" id="MedicalReport-SpecialistDoctor" style="stroke:#A80036;stroke-width:1.5;"/><polygon fill="#000000" points="1511.2499,166.0554,1497.707,161.5716,1497.6579,170.3882,1511.2499,166.0554" style="stroke:#000000;stroke-width:1.5;"/><text fill="#000000" font-family="sans-serif" font-size="19.5" lengthAdjust="spacing" textLength="84" x="1517.25" y="173.9927">written by</text><text fill="#000000" font-family="sans-serif" font-size="19.5" lengthAdjust="spacing" textLength="7.5" x="1222.4799" y="197.5017">*</text><text fill="#000000" font-family="sans-serif" font-size="19.5" lengthAdjust="spacing" textLength="10.5" x="1931.8889" y="201.0023">1</text><!--MD5=[b488b110915c2b7971ed80f602331b32]
@startuml
hide methods
left to right direction
skinparam classAttributeIconSize 0

class Company{
-designation
}


class Employee{
-name
-address
-phoneNumber
-email
-employeeId
-organizationRole
-socCode
}

class SpecialistDoctor{
-doctorIndexNumber
}

class Test{
-internalCode
-nhsCode
-description
}

class MedicalReport{
-diagnosis
-dateAndTime
-state
}

class ParameterResult{
-parameterValue
}

class ChemicalAnalysis{
-dateAndTime
}




Company "1"- - -"1..*" Employee : employ >
Company "1"- - -"1..*" Test : performs >
ChemicalAnalysis "1"- - -"1..*" ParameterResult: generates >
Test "1..*" - - -"1" ChemicalAnalysis : request >
Test "1..*" - - -"1" MedicalReport : request >
ParameterResult "1..*" - - - "1" Test : associated with >
ParameterResult "1..*"- - -"1" SpecialistDoctor : analyzed by >
SpecialistDoctor - - -|> Employee
MedicalReport "*"- - -"1" SpecialistDoctor : written by >

@enduml

PlantUML version 1.2021.5(Sun Apr 25 12:20:28 BST 2021)
(GPL source distribution)
Java Runtime: OpenJDK Runtime Environment
JVM: OpenJDK 64-Bit Server VM
Default Encoding: Cp1252
Language: pt
Country: PT
--></g></svg>