<?xml version="1.0" encoding="UTF-8" standalone="no"?><svg xmlns="http://www.w3.org/2000/svg" xmlns:xlink="http://www.w3.org/1999/xlink" contentScriptType="application/ecmascript" contentStyleType="text/css" height="817.2px" preserveAspectRatio="none" style="width:1012px;height:817px;" version="1.1" viewBox="0 0 1012 817" width="1012.8px" zoomAndPan="magnify"><defs><filter height="300%" id="fajh8t26lwmzl" width="300%" x="-1" y="-1"><feGaussianBlur result="blurOut" stdDeviation="2.4"/><feColorMatrix in="blurOut" result="blurOut2" type="matrix" values="0 0 0 0 0 0 0 0 0 0 0 0 0 0 0 0 0 0 .4 0"/><feOffset dx="4.8" dy="4.8" in="blurOut2" result="blurOut3"/><feBlend in="SourceGraphic" in2="blurOut3" mode="normal"/></filter></defs><g><!--MD5=[9681dc6e01e10c6b4fe06895ae94f592]
cluster UI--><polygon fill="#FFFFFF" filter="url(#fajh8t26lwmzl)" points="449.4,7.2,473.4,7.2,481.8,35.5313,679.8,35.5313,679.8,127.2,449.4,127.2,449.4,7.2" style="stroke:#000000;stroke-width:1.7999999999999998;"/><line style="stroke:#000000;stroke-width:1.7999999999999998;" x1="449.4" x2="481.8" y1="35.5313" y2="35.5313"/><text fill="#000000" font-family="sans-serif" font-size="16.8" font-weight="bold" lengthAdjust="spacing" textLength="16.8" x="454.2" y="27.0398">UI</text><!--MD5=[1f2cfc53d9d308f53762fd0fcbaa4873]
cluster Controller--><polygon fill="#FFFFFF" filter="url(#fajh8t26lwmzl)" points="241.8,166.8,334.2,166.8,342.6,195.1313,520.2,195.1313,520.2,337.2,241.8,337.2,241.8,166.8" style="stroke:#000000;stroke-width:1.7999999999999998;"/><line style="stroke:#000000;stroke-width:1.7999999999999998;" x1="241.8" x2="342.6" y1="195.1313" y2="195.1313"/><text fill="#000000" font-family="sans-serif" font-size="16.8" font-weight="bold" lengthAdjust="spacing" textLength="85.2" x="246.6" y="186.6398">Controller</text><!--MD5=[74f96c6b5cb9a58eaf37c19a32263daa]
class CreateMedicalReportUI--><rect codeLine="3" fill="#FEFECE" filter="url(#fajh8t26lwmzl)" height="57.6" id="CreateMedicalReportUI" style="stroke:#A80036;stroke-width:1.7999999999999998;" width="192" x="468.6" y="50.4"/><ellipse cx="486.6" cy="69.6" fill="#ADD1B2" rx="13.2" ry="13.2" style="stroke:#A80036;stroke-width:1.2;"/><path d="M489,65.4 Q489.2438,64.8 489.525,64.5 Q489.8063,64.2 490.125,64.2 Q490.6875,64.2 491.0438,64.5375 Q491.4,64.875 491.4,65.6625 L491.4,67.5375 Q491.4,68.325 491.0625,68.6625 Q490.725,69 490.2,69 Q489.7313,69 489.4313,68.7938 Q489.1312,68.5875 489,68.0438 Q488.9437,67.6688 488.7375,67.4625 Q488.3625,67.0688 487.6875,66.8438 Q487.0125,66.6 486.3375,66.6 Q485.4938,66.6 484.7813,66.9375 Q484.0875,67.275 483.5438,68.025 Q483,68.775 483,69.8062 L483,70.9125 Q483,72.15 484.0125,72.975 Q485.025,73.8 486.825,73.8 Q487.8937,73.8 488.6437,73.5562 Q489.075,73.425 489.5625,72.9937 Q489.8812,72.75 490.05,72.675 Q490.2188,72.6 490.425,72.6 Q490.8187,72.6 491.1,72.9188 Q491.4,73.2188 491.4,73.65 Q491.4,74.0625 490.9875,74.55 Q490.3875,75.2625 489.4313,75.6563 Q488.175,76.2 486.6375,76.2 Q484.8375,76.2 483.3937,75.4875 Q482.2313,74.925 481.4063,73.7063 Q480.6,72.4875 480.6,71.0438 L480.6,69.7313 Q480.6,68.2313 481.3125,66.9188 Q482.0438,65.6063 483.3,64.9125 Q484.575,64.2 486,64.2 Q486.8625,64.2 487.6125,64.5 Q488.3625,64.8 489,65.4 Z " fill="#000000"/><text fill="#000000" font-family="sans-serif" font-size="14.4" lengthAdjust="spacing" textLength="153.6" x="503.4" y="75.4922">CreateMedicalReportUI</text><line style="stroke:#A80036;stroke-width:1.7999999999999998;" x1="469.8" x2="659.4" y1="88.8" y2="88.8"/><line style="stroke:#A80036;stroke-width:1.7999999999999998;" x1="469.8" x2="659.4" y1="98.4" y2="98.4"/><!--MD5=[06e126f56af4ab43b21736070eeb8909]
class CreateMedicalReporController--><rect codeLine="8" fill="#FEFECE" filter="url(#fajh8t26lwmzl)" height="107.4094" id="CreateMedicalReporController" style="stroke:#A80036;stroke-width:1.7999999999999998;" width="238.8" x="261.6" y="210"/><ellipse cx="279.6" cy="229.2" fill="#ADD1B2" rx="13.2" ry="13.2" style="stroke:#A80036;stroke-width:1.2;"/><path d="M282,225 Q282.2438,224.4 282.525,224.1 Q282.8063,223.8 283.125,223.8 Q283.6875,223.8 284.0438,224.1375 Q284.4,224.475 284.4,225.2625 L284.4,227.1375 Q284.4,227.925 284.0625,228.2625 Q283.725,228.6 283.2,228.6 Q282.7313,228.6 282.4313,228.3937 Q282.1312,228.1875 282,227.6437 Q281.9437,227.2687 281.7375,227.0625 Q281.3625,226.6688 280.6875,226.4438 Q280.0125,226.2 279.3375,226.2 Q278.4938,226.2 277.7813,226.5375 Q277.0875,226.875 276.5438,227.625 Q276,228.375 276,229.4063 L276,230.5125 Q276,231.75 277.0125,232.575 Q278.025,233.4 279.825,233.4 Q280.8938,233.4 281.6438,233.1563 Q282.075,233.025 282.5625,232.5938 Q282.8812,232.35 283.05,232.275 Q283.2188,232.2 283.425,232.2 Q283.8187,232.2 284.1,232.5187 Q284.4,232.8188 284.4,233.25 Q284.4,233.6625 283.9875,234.15 Q283.3875,234.8625 282.4313,235.2563 Q281.175,235.8 279.6375,235.8 Q277.8375,235.8 276.3938,235.0875 Q275.2313,234.525 274.4063,233.3062 Q273.6,232.0875 273.6,230.6437 L273.6,229.3312 Q273.6,227.8312 274.3125,226.5187 Q275.0438,225.2062 276.3,224.5125 Q277.575,223.8 279,223.8 Q279.8625,223.8 280.6125,224.1 Q281.3625,224.4 282,225 Z " fill="#000000"/><text fill="#000000" font-family="sans-serif" font-size="14.4" lengthAdjust="spacing" textLength="200.4" x="296.4" y="235.0922">CreateMedicalReporController</text><line style="stroke:#A80036;stroke-width:1.7999999999999998;" x1="262.8" x2="499.2" y1="248.4" y2="248.4"/><line style="stroke:#A80036;stroke-width:1.7999999999999998;" x1="262.8" x2="499.2" y1="258" y2="258"/><ellipse cx="274.8" cy="271.2" fill="#84BE84" rx="3.6" ry="3.6" style="stroke:#038048;stroke-width:1.2;"/><text fill="#000000" font-family="sans-serif" font-size="13.2" lengthAdjust="spacing" textLength="200.4" x="285.6" y="276.5027">getTestHasSamplesAnalyzedList()</text><ellipse cx="274.8" cy="287.8031" fill="#84BE84" rx="3.6" ry="3.6" style="stroke:#038048;stroke-width:1.2;"/><text fill="#000000" font-family="sans-serif" font-size="13.2" lengthAdjust="spacing" textLength="132" x="285.6" y="293.1059">getTestParameterList()</text><ellipse cx="274.8" cy="304.4063" fill="#84BE84" rx="3.6" ry="3.6" style="stroke:#038048;stroke-width:1.2;"/><text fill="#000000" font-family="sans-serif" font-size="13.2" lengthAdjust="spacing" textLength="128.4" x="285.6" y="309.709">createMedicalReport()</text><!--MD5=[02e4b9b7573f1156f41e60aa5b4e25a4]
class Company--><rect codeLine="15" fill="#FEFECE" filter="url(#fajh8t26lwmzl)" height="90.8062" id="Company" style="stroke:#A80036;stroke-width:1.7999999999999998;" width="134.4" x="185.4" y="393.6"/><ellipse cx="217.98" cy="412.8" fill="#ADD1B2" rx="13.2" ry="13.2" style="stroke:#A80036;stroke-width:1.2;"/><path d="M220.38,408.6 Q220.6238,408 220.905,407.7 Q221.1863,407.4 221.505,407.4 Q222.0675,407.4 222.4238,407.7375 Q222.78,408.075 222.78,408.8625 L222.78,410.7375 Q222.78,411.525 222.4425,411.8625 Q222.105,412.2 221.58,412.2 Q221.1113,412.2 220.8113,411.9938 Q220.5113,411.7875 220.38,411.2438 Q220.3238,410.8688 220.1175,410.6625 Q219.7425,410.2688 219.0675,410.0438 Q218.3925,409.8 217.7175,409.8 Q216.8738,409.8 216.1613,410.1375 Q215.4675,410.475 214.9238,411.225 Q214.38,411.975 214.38,413.0062 L214.38,414.1125 Q214.38,415.35 215.3925,416.175 Q216.405,417 218.205,417 Q219.2738,417 220.0238,416.7562 Q220.455,416.625 220.9425,416.1937 Q221.2613,415.95 221.43,415.875 Q221.5988,415.8 221.805,415.8 Q222.1988,415.8 222.48,416.1188 Q222.78,416.4188 222.78,416.85 Q222.78,417.2625 222.3675,417.75 Q221.7675,418.4625 220.8113,418.8563 Q219.555,419.4 218.0175,419.4 Q216.2175,419.4 214.7738,418.6875 Q213.6113,418.125 212.7863,416.9063 Q211.98,415.6875 211.98,414.2438 L211.98,412.9313 Q211.98,411.4313 212.6925,410.1188 Q213.4238,408.8063 214.68,408.1125 Q215.955,407.4 217.38,407.4 Q218.2425,407.4 218.9925,407.7 Q219.7425,408 220.38,408.6 Z " fill="#000000"/><text fill="#000000" font-family="sans-serif" font-size="14.4" lengthAdjust="spacing" textLength="63.6" x="238.02" y="418.6922">Company</text><line style="stroke:#A80036;stroke-width:1.7999999999999998;" x1="186.6" x2="318.6" y1="432" y2="432"/><rect fill="none" height="7.2" style="stroke:#C82930;stroke-width:1.2;" width="7.2" x="195" y="441.6"/><text fill="#000000" font-family="sans-serif" font-size="13.2" lengthAdjust="spacing" textLength="103.2" x="209.4" y="450.5027">String designation</text><line style="stroke:#A80036;stroke-width:1.7999999999999998;" x1="186.6" x2="318.6" y1="458.2031" y2="458.2031"/><ellipse cx="198.6" cy="471.4031" fill="#84BE84" rx="3.6" ry="3.6" style="stroke:#038048;stroke-width:1.2;"/><text fill="#000000" font-family="sans-serif" font-size="13.2" lengthAdjust="spacing" textLength="84" x="209.4" y="476.7059">getTestStore()</text><!--MD5=[0f6f7964b844a64b0496af0dda7914bd]
class TestStore--><rect codeLine="20" fill="#FEFECE" filter="url(#fajh8t26lwmzl)" height="90.8062" id="TestStore" style="stroke:#A80036;stroke-width:1.7999999999999998;" width="231.6" x="8.4" y="578.4"/><ellipse cx="87.3" cy="597.6" fill="#ADD1B2" rx="13.2" ry="13.2" style="stroke:#A80036;stroke-width:1.2;"/><path d="M89.7,593.4 Q89.9438,592.8 90.225,592.5 Q90.5063,592.2 90.825,592.2 Q91.3875,592.2 91.7437,592.5375 Q92.1,592.875 92.1,593.6625 L92.1,595.5375 Q92.1,596.325 91.7625,596.6625 Q91.425,597 90.9,597 Q90.4312,597 90.1313,596.7937 Q89.8313,596.5875 89.7,596.0437 Q89.6438,595.6687 89.4375,595.4625 Q89.0625,595.0688 88.3875,594.8438 Q87.7125,594.6 87.0375,594.6 Q86.1938,594.6 85.4813,594.9375 Q84.7875,595.275 84.2437,596.025 Q83.7,596.775 83.7,597.8063 L83.7,598.9125 Q83.7,600.15 84.7125,600.975 Q85.725,601.8 87.525,601.8 Q88.5938,601.8 89.3438,601.5563 Q89.775,601.425 90.2625,600.9938 Q90.5813,600.75 90.75,600.675 Q90.9188,600.6 91.125,600.6 Q91.5188,600.6 91.8,600.9187 Q92.1,601.2188 92.1,601.65 Q92.1,602.0625 91.6875,602.55 Q91.0875,603.2625 90.1313,603.6563 Q88.875,604.2 87.3375,604.2 Q85.5375,604.2 84.0938,603.4875 Q82.9312,602.925 82.1063,601.7063 Q81.3,600.4875 81.3,599.0437 L81.3,597.7312 Q81.3,596.2312 82.0125,594.9187 Q82.7437,593.6062 84,592.9125 Q85.275,592.2 86.7,592.2 Q87.5625,592.2 88.3125,592.5 Q89.0625,592.8 89.7,593.4 Z " fill="#000000"/><text fill="#000000" font-family="sans-serif" font-size="14.4" lengthAdjust="spacing" textLength="63.6" x="111.9" y="603.4922">TestStore</text><line style="stroke:#A80036;stroke-width:1.7999999999999998;" x1="9.6" x2="238.8" y1="616.8" y2="616.8"/><line style="stroke:#A80036;stroke-width:1.7999999999999998;" x1="9.6" x2="238.8" y1="626.4" y2="626.4"/><ellipse cx="21.6" cy="639.6" fill="#84BE84" rx="3.6" ry="3.6" style="stroke:#038048;stroke-width:1.2;"/><text fill="#000000" font-family="sans-serif" font-size="13.2" lengthAdjust="spacing" textLength="200.4" x="32.4" y="644.9027">getTestHasSamplesAnalyzedList()</text><ellipse cx="21.6" cy="656.2031" fill="#84BE84" rx="3.6" ry="3.6" style="stroke:#038048;stroke-width:1.2;"/><text fill="#000000" font-family="sans-serif" font-size="13.2" lengthAdjust="spacing" textLength="169.2" x="32.4" y="661.5059">getTestByInternalCode(code)</text><!--MD5=[df38be88ccee13e832d6fafd6288a4ca]
class Test--><rect codeLine="25" fill="#FEFECE" filter="url(#fajh8t26lwmzl)" height="90.8062" id="Test" style="stroke:#A80036;stroke-width:1.7999999999999998;" width="194.4" x="282.6" y="578.4"/><ellipse cx="360.3" cy="597.6" fill="#ADD1B2" rx="13.2" ry="13.2" style="stroke:#A80036;stroke-width:1.2;"/><path d="M362.7,593.4 Q362.9437,592.8 363.225,592.5 Q363.5062,592.2 363.825,592.2 Q364.3875,592.2 364.7438,592.5375 Q365.1,592.875 365.1,593.6625 L365.1,595.5375 Q365.1,596.325 364.7625,596.6625 Q364.425,597 363.9,597 Q363.4313,597 363.1312,596.7937 Q362.8313,596.5875 362.7,596.0437 Q362.6438,595.6687 362.4375,595.4625 Q362.0625,595.0688 361.3875,594.8438 Q360.7125,594.6 360.0375,594.6 Q359.1937,594.6 358.4813,594.9375 Q357.7875,595.275 357.2438,596.025 Q356.7,596.775 356.7,597.8063 L356.7,598.9125 Q356.7,600.15 357.7125,600.975 Q358.725,601.8 360.525,601.8 Q361.5938,601.8 362.3438,601.5563 Q362.775,601.425 363.2625,600.9938 Q363.5813,600.75 363.75,600.675 Q363.9188,600.6 364.125,600.6 Q364.5188,600.6 364.8,600.9187 Q365.1,601.2188 365.1,601.65 Q365.1,602.0625 364.6875,602.55 Q364.0875,603.2625 363.1312,603.6563 Q361.875,604.2 360.3375,604.2 Q358.5375,604.2 357.0938,603.4875 Q355.9313,602.925 355.1063,601.7063 Q354.3,600.4875 354.3,599.0437 L354.3,597.7312 Q354.3,596.2312 355.0125,594.9187 Q355.7438,593.6062 357,592.9125 Q358.275,592.2 359.7,592.2 Q360.5625,592.2 361.3125,592.5 Q362.0625,592.8 362.7,593.4 Z " fill="#000000"/><text fill="#000000" font-family="sans-serif" font-size="14.4" lengthAdjust="spacing" textLength="28.8" x="384.9" y="603.4922">Test</text><line style="stroke:#A80036;stroke-width:1.7999999999999998;" x1="283.8" x2="475.8" y1="616.8" y2="616.8"/><line style="stroke:#A80036;stroke-width:1.7999999999999998;" x1="283.8" x2="475.8" y1="626.4" y2="626.4"/><ellipse cx="295.8" cy="639.6" fill="#84BE84" rx="3.6" ry="3.6" style="stroke:#038048;stroke-width:1.2;"/><text fill="#000000" font-family="sans-serif" font-size="13.2" lengthAdjust="spacing" textLength="146.4" x="306.6" y="644.9027">getParametersResulList()</text><ellipse cx="295.8" cy="656.2031" fill="#84BE84" rx="3.6" ry="3.6" style="stroke:#038048;stroke-width:1.2;"/><text fill="#000000" font-family="sans-serif" font-size="13.2" lengthAdjust="spacing" textLength="163.2" x="306.6" y="661.5059">createMedicalReport(report)</text><!--MD5=[b2d1f399f1909a0bb241ed0598ba126f]
class MedicalReport--><rect codeLine="30" fill="#FEFECE" filter="url(#fajh8t26lwmzl)" height="57.6" id="MedicalReport" style="stroke:#A80036;stroke-width:1.7999999999999998;" width="133.2" x="313.2" y="742.8"/><ellipse cx="331.2" cy="762" fill="#ADD1B2" rx="13.2" ry="13.2" style="stroke:#A80036;stroke-width:1.2;"/><path d="M333.6,757.8 Q333.8438,757.2 334.125,756.9 Q334.4063,756.6 334.725,756.6 Q335.2875,756.6 335.6438,756.9375 Q336,757.275 336,758.0625 L336,759.9375 Q336,760.725 335.6625,761.0625 Q335.325,761.4 334.8,761.4 Q334.3313,761.4 334.0313,761.1938 Q333.7313,760.9875 333.6,760.4438 Q333.5438,760.0688 333.3375,759.8625 Q332.9625,759.4688 332.2875,759.2438 Q331.6125,759 330.9375,759 Q330.0938,759 329.3812,759.3375 Q328.6875,759.675 328.1438,760.425 Q327.6,761.175 327.6,762.2063 L327.6,763.3125 Q327.6,764.55 328.6125,765.375 Q329.625,766.2 331.425,766.2 Q332.4938,766.2 333.2438,765.9563 Q333.675,765.825 334.1625,765.3938 Q334.4813,765.15 334.65,765.075 Q334.8187,765 335.025,765 Q335.4188,765 335.7,765.3188 Q336,765.6188 336,766.05 Q336,766.4625 335.5875,766.95 Q334.9875,767.6625 334.0313,768.0563 Q332.775,768.6 331.2375,768.6 Q329.4375,768.6 327.9938,767.8875 Q326.8313,767.325 326.0062,766.1062 Q325.2,764.8875 325.2,763.4438 L325.2,762.1313 Q325.2,760.6313 325.9125,759.3188 Q326.6438,758.0063 327.9,757.3125 Q329.175,756.6 330.6,756.6 Q331.4625,756.6 332.2125,756.9 Q332.9625,757.2 333.6,757.8 Z " fill="#000000"/><text fill="#000000" font-family="sans-serif" font-size="14.4" lengthAdjust="spacing" textLength="94.8" x="348" y="767.8922">MedicalReport</text><line style="stroke:#A80036;stroke-width:1.7999999999999998;" x1="314.4" x2="445.2" y1="781.2" y2="781.2"/><line style="stroke:#A80036;stroke-width:1.7999999999999998;" x1="314.4" x2="445.2" y1="790.8" y2="790.8"/><!--MD5=[144698ec4d0188f6929a3b58a3eeb1f6]
class TestMapper--><rect codeLine="33" fill="#FEFECE" filter="url(#fajh8t26lwmzl)" height="57.6" id="TestMapper" style="stroke:#A80036;stroke-width:1.7999999999999998;" width="116.4" x="362.4" y="410.4"/><ellipse cx="380.4" cy="429.6" fill="#ADD1B2" rx="13.2" ry="13.2" style="stroke:#A80036;stroke-width:1.2;"/><path d="M382.8,425.4 Q383.0438,424.8 383.325,424.5 Q383.6063,424.2 383.925,424.2 Q384.4875,424.2 384.8438,424.5375 Q385.2,424.875 385.2,425.6625 L385.2,427.5375 Q385.2,428.325 384.8625,428.6625 Q384.525,429 384,429 Q383.5313,429 383.2313,428.7938 Q382.9313,428.5875 382.8,428.0438 Q382.7438,427.6688 382.5375,427.4625 Q382.1625,427.0687 381.4875,426.8438 Q380.8125,426.6 380.1375,426.6 Q379.2938,426.6 378.5813,426.9375 Q377.8875,427.275 377.3438,428.025 Q376.8,428.775 376.8,429.8063 L376.8,430.9125 Q376.8,432.15 377.8125,432.975 Q378.825,433.8 380.625,433.8 Q381.6937,433.8 382.4437,433.5563 Q382.875,433.425 383.3625,432.9938 Q383.6813,432.75 383.85,432.675 Q384.0188,432.6 384.225,432.6 Q384.6188,432.6 384.9,432.9188 Q385.2,433.2188 385.2,433.65 Q385.2,434.0625 384.7875,434.55 Q384.1875,435.2625 383.2313,435.6563 Q381.975,436.2 380.4375,436.2 Q378.6375,436.2 377.1937,435.4875 Q376.0313,434.925 375.2063,433.7063 Q374.4,432.4875 374.4,431.0438 L374.4,429.7313 Q374.4,428.2313 375.1125,426.9188 Q375.8438,425.6063 377.1,424.9125 Q378.375,424.2 379.8,424.2 Q380.6625,424.2 381.4125,424.5 Q382.1625,424.8 382.8,425.4 Z " fill="#000000"/><text fill="#000000" font-family="sans-serif" font-size="14.4" lengthAdjust="spacing" textLength="78" x="397.2" y="435.4922">TestMapper</text><line style="stroke:#A80036;stroke-width:1.7999999999999998;" x1="363.6" x2="477.6" y1="448.8" y2="448.8"/><line style="stroke:#A80036;stroke-width:1.7999999999999998;" x1="363.6" x2="477.6" y1="458.4" y2="458.4"/><!--MD5=[1c38f6084f2098752e2974895ca67f4c]
class TestDto--><rect codeLine="36" fill="#FEFECE" filter="url(#fajh8t26lwmzl)" height="57.6" id="TestDto" style="stroke:#A80036;stroke-width:1.7999999999999998;" width="90" x="519.6" y="595.2"/><ellipse cx="537.6" cy="614.4" fill="#ADD1B2" rx="13.2" ry="13.2" style="stroke:#A80036;stroke-width:1.2;"/><path d="M540,610.2 Q540.2438,609.6 540.525,609.3 Q540.8063,609 541.125,609 Q541.6875,609 542.0437,609.3375 Q542.4,609.675 542.4,610.4625 L542.4,612.3375 Q542.4,613.125 542.0625,613.4625 Q541.725,613.8 541.2,613.8 Q540.7312,613.8 540.4313,613.5938 Q540.1313,613.3875 540,612.8438 Q539.9438,612.4688 539.7375,612.2625 Q539.3625,611.8688 538.6875,611.6438 Q538.0125,611.4 537.3375,611.4 Q536.4938,611.4 535.7813,611.7375 Q535.0875,612.075 534.5437,612.825 Q534,613.575 534,614.6062 L534,615.7125 Q534,616.95 535.0125,617.775 Q536.025,618.6 537.825,618.6 Q538.8938,618.6 539.6438,618.3562 Q540.075,618.225 540.5625,617.7937 Q540.8813,617.55 541.05,617.475 Q541.2188,617.4 541.425,617.4 Q541.8188,617.4 542.1,617.7188 Q542.4,618.0188 542.4,618.45 Q542.4,618.8625 541.9875,619.35 Q541.3875,620.0625 540.4313,620.4563 Q539.175,621 537.6375,621 Q535.8375,621 534.3938,620.2875 Q533.2312,619.725 532.4063,618.5063 Q531.6,617.2875 531.6,615.8438 L531.6,614.5313 Q531.6,613.0313 532.3125,611.7188 Q533.0437,610.4063 534.3,609.7125 Q535.575,609 537,609 Q537.8625,609 538.6125,609.3 Q539.3625,609.6 540,610.2 Z " fill="#000000"/><text fill="#000000" font-family="sans-serif" font-size="14.4" lengthAdjust="spacing" textLength="51.6" x="554.4" y="620.2922">TestDto</text><line style="stroke:#A80036;stroke-width:1.7999999999999998;" x1="520.8" x2="608.4" y1="633.6" y2="633.6"/><line style="stroke:#A80036;stroke-width:1.7999999999999998;" x1="520.8" x2="608.4" y1="643.2" y2="643.2"/><!--MD5=[0f07739f46effee96e095e9c408da841]
class TestParameter--><rect codeLine="39" fill="#FEFECE" filter="url(#fajh8t26lwmzl)" height="57.6" id="TestParameter" style="stroke:#A80036;stroke-width:1.7999999999999998;" width="136.8" x="859.8" y="595.2"/><ellipse cx="877.8" cy="614.4" fill="#ADD1B2" rx="13.2" ry="13.2" style="stroke:#A80036;stroke-width:1.2;"/><path d="M880.2,610.2 Q880.4438,609.6 880.725,609.3 Q881.0063,609 881.325,609 Q881.8875,609 882.2438,609.3375 Q882.6,609.675 882.6,610.4625 L882.6,612.3375 Q882.6,613.125 882.2625,613.4625 Q881.925,613.8 881.4,613.8 Q880.9313,613.8 880.6313,613.5938 Q880.3313,613.3875 880.2,612.8438 Q880.1438,612.4688 879.9375,612.2625 Q879.5625,611.8688 878.8875,611.6438 Q878.2125,611.4 877.5375,611.4 Q876.6938,611.4 875.9812,611.7375 Q875.2875,612.075 874.7438,612.825 Q874.2,613.575 874.2,614.6062 L874.2,615.7125 Q874.2,616.95 875.2125,617.775 Q876.225,618.6 878.025,618.6 Q879.0938,618.6 879.8438,618.3562 Q880.275,618.225 880.7625,617.7937 Q881.0813,617.55 881.25,617.475 Q881.4187,617.4 881.625,617.4 Q882.0188,617.4 882.3,617.7188 Q882.6,618.0188 882.6,618.45 Q882.6,618.8625 882.1875,619.35 Q881.5875,620.0625 880.6313,620.4563 Q879.375,621 877.8375,621 Q876.0375,621 874.5938,620.2875 Q873.4313,619.725 872.6062,618.5063 Q871.8,617.2875 871.8,615.8438 L871.8,614.5313 Q871.8,613.0313 872.5125,611.7188 Q873.2438,610.4063 874.5,609.7125 Q875.775,609 877.2,609 Q878.0625,609 878.8125,609.3 Q879.5625,609.6 880.2,610.2 Z " fill="#000000"/><text fill="#000000" font-family="sans-serif" font-size="14.4" lengthAdjust="spacing" textLength="98.4" x="894.6" y="620.2922">TestParameter</text><line style="stroke:#A80036;stroke-width:1.7999999999999998;" x1="861" x2="995.4" y1="633.6" y2="633.6"/><line style="stroke:#A80036;stroke-width:1.7999999999999998;" x1="861" x2="995.4" y1="643.2" y2="643.2"/><!--MD5=[fa2f44d2bdbb0499bd765719ad83ddd6]
class TestParameterDto--><rect codeLine="42" fill="#FEFECE" filter="url(#fajh8t26lwmzl)" height="57.6" id="TestParameterDto" style="stroke:#A80036;stroke-width:1.7999999999999998;" width="159.6" x="655.2" y="595.2"/><ellipse cx="673.2" cy="614.4" fill="#ADD1B2" rx="13.2" ry="13.2" style="stroke:#A80036;stroke-width:1.2;"/><path d="M675.6,610.2 Q675.8438,609.6 676.125,609.3 Q676.4063,609 676.725,609 Q677.2875,609 677.6438,609.3375 Q678,609.675 678,610.4625 L678,612.3375 Q678,613.125 677.6625,613.4625 Q677.325,613.8 676.8,613.8 Q676.3313,613.8 676.0313,613.5938 Q675.7312,613.3875 675.6,612.8438 Q675.5437,612.4688 675.3375,612.2625 Q674.9625,611.8688 674.2875,611.6438 Q673.6125,611.4 672.9375,611.4 Q672.0938,611.4 671.3813,611.7375 Q670.6875,612.075 670.1438,612.825 Q669.6,613.575 669.6,614.6062 L669.6,615.7125 Q669.6,616.95 670.6125,617.775 Q671.625,618.6 673.425,618.6 Q674.4938,618.6 675.2438,618.3562 Q675.675,618.225 676.1625,617.7937 Q676.4812,617.55 676.65,617.475 Q676.8188,617.4 677.025,617.4 Q677.4187,617.4 677.7,617.7188 Q678,618.0188 678,618.45 Q678,618.8625 677.5875,619.35 Q676.9875,620.0625 676.0313,620.4563 Q674.775,621 673.2375,621 Q671.4375,621 669.9938,620.2875 Q668.8313,619.725 668.0063,618.5063 Q667.2,617.2875 667.2,615.8438 L667.2,614.5313 Q667.2,613.0313 667.9125,611.7188 Q668.6438,610.4063 669.9,609.7125 Q671.175,609 672.6,609 Q673.4625,609 674.2125,609.3 Q674.9625,609.6 675.6,610.2 Z " fill="#000000"/><text fill="#000000" font-family="sans-serif" font-size="14.4" lengthAdjust="spacing" textLength="121.2" x="690" y="620.2922">TestParameterDto</text><line style="stroke:#A80036;stroke-width:1.7999999999999998;" x1="656.4" x2="813.6" y1="633.6" y2="633.6"/><line style="stroke:#A80036;stroke-width:1.7999999999999998;" x1="656.4" x2="813.6" y1="643.2" y2="643.2"/><!--MD5=[a82d32c079496d6dca2681dc0633feb0]
class TestParameterMapper--><rect codeLine="45" fill="#FEFECE" filter="url(#fajh8t26lwmzl)" height="57.6" id="TestParameterMapper" style="stroke:#A80036;stroke-width:1.7999999999999998;" width="186" x="628.8" y="410.4"/><ellipse cx="646.8" cy="429.6" fill="#ADD1B2" rx="13.2" ry="13.2" style="stroke:#A80036;stroke-width:1.2;"/><path d="M649.2,425.4 Q649.4438,424.8 649.725,424.5 Q650.0063,424.2 650.325,424.2 Q650.8875,424.2 651.2438,424.5375 Q651.6,424.875 651.6,425.6625 L651.6,427.5375 Q651.6,428.325 651.2625,428.6625 Q650.925,429 650.4,429 Q649.9313,429 649.6313,428.7938 Q649.3313,428.5875 649.2,428.0438 Q649.1438,427.6688 648.9375,427.4625 Q648.5625,427.0687 647.8875,426.8438 Q647.2125,426.6 646.5375,426.6 Q645.6938,426.6 644.9812,426.9375 Q644.2875,427.275 643.7438,428.025 Q643.2,428.775 643.2,429.8063 L643.2,430.9125 Q643.2,432.15 644.2125,432.975 Q645.225,433.8 647.025,433.8 Q648.0938,433.8 648.8438,433.5563 Q649.275,433.425 649.7625,432.9938 Q650.0813,432.75 650.25,432.675 Q650.4187,432.6 650.625,432.6 Q651.0188,432.6 651.3,432.9188 Q651.6,433.2188 651.6,433.65 Q651.6,434.0625 651.1875,434.55 Q650.5875,435.2625 649.6313,435.6563 Q648.375,436.2 646.8375,436.2 Q645.0375,436.2 643.5938,435.4875 Q642.4313,434.925 641.6062,433.7063 Q640.8,432.4875 640.8,431.0438 L640.8,429.7313 Q640.8,428.2313 641.5125,426.9188 Q642.2438,425.6063 643.5,424.9125 Q644.775,424.2 646.2,424.2 Q647.0625,424.2 647.8125,424.5 Q648.5625,424.8 649.2,425.4 Z " fill="#000000"/><text fill="#000000" font-family="sans-serif" font-size="14.4" lengthAdjust="spacing" textLength="147.6" x="663.6" y="435.4922">TestParameterMapper</text><line style="stroke:#A80036;stroke-width:1.7999999999999998;" x1="630" x2="813.6" y1="448.8" y2="448.8"/><line style="stroke:#A80036;stroke-width:1.7999999999999998;" x1="630" x2="813.6" y1="458.4" y2="458.4"/><!--MD5=[50dba4782d39aa695de8235b3d83d588]
link CreateMedicalReportUI to CreateMedicalReporController--><path codeLine="48" d="M536.712,108.108 C510.792,133.86 471.372,173.016 438.684,205.488 " fill="none" id="CreateMedicalReportUI-to-CreateMedicalReporController" style="stroke:#A80036;stroke-width:1.2;stroke-dasharray:7.0,7.0;"/><polygon fill="#A80036" points="434.328,209.82,445.3674,205.5997,438.5792,205.5859,438.5929,198.7977,434.328,209.82" style="stroke:#A80036;stroke-width:1.2;"/><!--MD5=[aeb8291d4b487a7b64af0530e5d72900]
link CreateMedicalReportUI to TestDto--><path codeLine="49" d="M564.6,108.048 C564.6,198.984 564.6,488.736 564.6,588.588 " fill="none" id="CreateMedicalReportUI-to-TestDto" style="stroke:#A80036;stroke-width:1.2;stroke-dasharray:7.0,7.0;"/><polygon fill="#A80036" points="564.6,594.888,569.4,584.088,564.6,588.888,559.8,584.088,564.6,594.888" style="stroke:#A80036;stroke-width:1.2;"/><!--MD5=[7e617a26c2fbb010251012b175538e97]
link CreateMedicalReportUI to TestParameterDto--><path codeLine="50" d="M601.836,108.132 C664.452,157.38 788.568,266.892 835.8,393.6 C849.96,431.58 848.376,446.268 835.8,484.8 C822.54,525.42 792.3,564.024 768.372,590.016 " fill="none" id="CreateMedicalReportUI-to-TestParameterDto" style="stroke:#A80036;stroke-width:1.2;stroke-dasharray:7.0,7.0;"/><polygon fill="#A80036" points="763.98,594.72,774.8491,590.0785,768.0653,590.3257,767.8182,583.542,763.98,594.72" style="stroke:#A80036;stroke-width:1.2;"/><!--MD5=[e74454384d5462cef8d0114ca4a2f30e]
link CreateMedicalReporController to Company--><path codeLine="51" d="M341.424,318.456 C324.852,340.764 305.688,366.552 289.416,388.452 " fill="none" id="CreateMedicalReporController-to-Company" style="stroke:#A80036;stroke-width:1.2;stroke-dasharray:7.0,7.0;"/><polygon fill="#A80036" points="285.78,393.348,296.0868,387.5644,289.369,388.5398,288.3936,381.822,285.78,393.348" style="stroke:#A80036;stroke-width:1.2;"/><!--MD5=[a7aa02dd9a8a1970780ea26ccff8cafd]
link CreateMedicalReporController to TestMapper--><path codeLine="52" d="M393.204,318.456 C399.612,346.428 407.28,379.872 412.872,404.256 " fill="none" id="CreateMedicalReporController-to-TestMapper" style="stroke:#A80036;stroke-width:1.2;stroke-dasharray:7.0,7.0;"/><polygon fill="#A80036" points="414.24,410.256,416.511,398.6576,412.9021,404.4071,407.1527,400.7982,414.24,410.256" style="stroke:#A80036;stroke-width:1.2;"/><!--MD5=[ce292635aa48657a1505b1fc3e3b5d2e]
link CreateMedicalReporController to TestParameterMapper--><path codeLine="53" d="M485.568,318.216 C543.096,347.388 612.468,382.56 661.104,407.22 " fill="none" id="CreateMedicalReporController-to-TestParameterMapper" style="stroke:#A80036;stroke-width:1.2;stroke-dasharray:7.0,7.0;"/><polygon fill="#A80036" points="666.924,410.172,659.4576,401.0105,661.5712,407.4613,655.1205,409.575,666.924,410.172" style="stroke:#A80036;stroke-width:1.2;"/><!--MD5=[0d2deb453e4521a8ecd45cf39c488e89]
link TestParameterMapper to TestParameterDto--><path codeLine="54" d="M723.804,468.108 C726.144,500.376 729.996,553.716 732.516,588.552 " fill="none" id="TestParameterMapper-to-TestParameterDto" style="stroke:#A80036;stroke-width:1.2;stroke-dasharray:7.0,7.0;"/><polygon fill="#A80036" points="732.972,594.84,736.9564,583.7132,732.5262,588.8566,727.3829,584.4265,732.972,594.84" style="stroke:#A80036;stroke-width:1.2;"/><!--MD5=[886f81fd36c1ffd754dcf922ff388f49]
link TestParameterMapper to TestParameter--><path codeLine="55" d="M753.144,468.108 C790.536,501.144 852.9,556.26 892.224,591 " fill="none" id="TestParameterMapper-to-TestParameter" style="stroke:#A80036;stroke-width:1.2;stroke-dasharray:7.0,7.0;"/><polygon fill="#A80036" points="896.892,595.14,891.9682,584.3959,892.3925,591.1708,885.6175,591.5951,896.892,595.14" style="stroke:#A80036;stroke-width:1.2;"/><!--MD5=[34b2fed5845bf5a187f4983fcf3f57bc]
link TestMapper to TestDto--><path codeLine="56" d="M442.476,468.108 C468.264,500.784 511.104,555.048 538.584,589.848 " fill="none" id="TestMapper-to-TestDto" style="stroke:#A80036;stroke-width:1.2;stroke-dasharray:7.0,7.0;"/><polygon fill="#A80036" points="542.52,594.84,539.598,583.3883,538.8032,590.1298,532.0617,589.3351,542.52,594.84" style="stroke:#A80036;stroke-width:1.2;"/><!--MD5=[8d9a2c3ea1bf73d8d45b939465e53fff]
link TestMapper to Test--><path codeLine="57" d="M414.408,468.108 C408.252,495.588 398.688,538.356 391.176,571.968 " fill="none" id="TestMapper-to-Test" style="stroke:#A80036;stroke-width:1.2;stroke-dasharray:7.0,7.0;"/><polygon fill="#A80036" points="389.796,578.136,396.851,568.6541,391.1139,572.2825,387.4854,566.5454,389.796,578.136" style="stroke:#A80036;stroke-width:1.2;"/><!--MD5=[7e4bc624457760b649895ff2ead938fa]
link Company to Test--><path codeLine="58" d="M283.716,485.016 C302.34,511.728 326.052,545.724 345.252,573.264 " fill="none" id="Company-to-Test" style="stroke:#A80036;stroke-width:1.2;"/><polygon fill="#A80036" points="348.78,578.328,346.5434,566.7229,345.3496,573.4054,338.6672,572.2116,348.78,578.328" style="stroke:#A80036;stroke-width:1.2;"/><!--MD5=[c3238c64a9072feb51e313e35a850213]
link Test to MedicalReport--><path codeLine="59" d="M379.8,669.948 C379.8,691.212 379.8,716.232 379.8,735.972 " fill="none" id="Test-to-MedicalReport" style="stroke:#A80036;stroke-width:1.2;"/><polygon fill="#A80036" points="379.8,742.464,384.6,731.664,379.8,736.464,375,731.664,379.8,742.464" style="stroke:#A80036;stroke-width:1.2;"/><!--MD5=[7f6cf7f175eae0af66201860de5de971]
link Company to TestStore--><path codeLine="60" d="M221.184,485.016 C202.392,511.728 178.464,545.724 159.072,573.264 " fill="none" id="Company-to-TestStore" style="stroke:#A80036;stroke-width:1.2;"/><polygon fill="#A80036" points="155.508,578.328,165.6593,572.2756,158.9694,573.4271,157.8179,566.7373,155.508,578.328" style="stroke:#A80036;stroke-width:1.2;"/><text fill="#000000" font-family="sans-serif" font-size="15.6" lengthAdjust="spacing" textLength="33.6" x="193.8" y="538.1941">uses</text><text fill="#000000" font-family="sans-serif" font-size="15.6" lengthAdjust="spacing" textLength="8.4" x="207.1077" y="510.1071">1</text><text fill="#000000" font-family="sans-serif" font-size="15.6" lengthAdjust="spacing" textLength="8.4" x="152.106" y="565.2066">1</text><!--MD5=[5c6af9e2c331185203f37b9adc38f7a1]
@startuml

package UI{
class CreateMedicalReportUI{
}
}

package Controller{
class CreateMedicalReporController{
+getTestHasSamplesAnalyzedList()
+getTestParameterList()
+createMedicalReport()
}
}

class Company{
-String designation
+getTestStore()
}

class TestStore{
+getTestHasSamplesAnalyzedList()
+getTestByInternalCode(code)
}

class Test{
+getParametersResulList()
+createMedicalReport(report)
}

class MedicalReport{
}

class TestMapper{
}

class TestDto{
}

class TestParameter{
}

class TestParameterDto{
}

class TestParameterMapper{
}

CreateMedicalReportUI ..> CreateMedicalReporController
CreateMedicalReportUI ..> TestDto
CreateMedicalReportUI ..> TestParameterDto
CreateMedicalReporController ..> Company
CreateMedicalReporController ..> TestMapper
CreateMedicalReporController ..> TestParameterMapper
TestParameterMapper ..> TestParameterDto
TestParameterMapper ..> TestParameter
TestMapper ..> TestDto
TestMapper ..> Test
Company - -> Test
Test - -> MedicalReport
Company"1"- -> "1" TestStore : uses

@enduml

PlantUML version 1.2021.5(Sun Apr 25 12:20:28 BST 2021)
(GPL source distribution)
Java Runtime: OpenJDK Runtime Environment
JVM: OpenJDK 64-Bit Server VM
Default Encoding: Cp1252
Language: pt
Country: PT
--></g></svg>