<?xml version="1.0" encoding="UTF-8" standalone="no"?><svg xmlns="http://www.w3.org/2000/svg" xmlns:xlink="http://www.w3.org/1999/xlink" contentScriptType="application/ecmascript" contentStyleType="text/css" height="838.5px" preserveAspectRatio="none" style="width:921px;height:838px;" version="1.1" viewBox="0 0 921 838" width="921px" zoomAndPan="magnify"><defs><filter height="300%" id="fnh3janyyviq8" width="300%" x="-1" y="-1"><feGaussianBlur result="blurOut" stdDeviation="3.0"/><feColorMatrix in="blurOut" result="blurOut2" type="matrix" values="0 0 0 0 0 0 0 0 0 0 0 0 0 0 0 0 0 0 .4 0"/><feOffset dx="6.0" dy="6.0" in="blurOut2" result="blurOut3"/><feBlend in="SourceGraphic" in2="blurOut3" mode="normal"/></filter></defs><g><rect fill="#FFFFFF" filter="url(#fnh3janyyviq8)" height="534.3281" style="stroke:#A80036;stroke-width:1.5;" width="15" x="66.75" y="149.4141"/><rect fill="#FFFFFF" filter="url(#fnh3janyyviq8)" height="45.5273" style="stroke:#A80036;stroke-width:1.5;" width="15" x="277.5" y="182.9414"/><rect fill="#FFFFFF" filter="url(#fnh3janyyviq8)" height="45.5273" style="stroke:#A80036;stroke-width:1.5;" width="15" x="277.5" y="273.9961"/><rect fill="#FFFFFF" filter="url(#fnh3janyyviq8)" height="136.582" style="stroke:#A80036;stroke-width:1.5;" width="15" x="277.5" y="365.0508"/><rect fill="#FFFFFF" filter="url(#fnh3janyyviq8)" height="136.582" style="stroke:#A80036;stroke-width:1.5;" width="15" x="277.5" y="547.1602"/><rect fill="#FFFFFF" filter="url(#fnh3janyyviq8)" height="45.5273" style="stroke:#A80036;stroke-width:1.5;" width="15" x="588" y="410.5781"/><rect fill="#FFFFFF" filter="url(#fnh3janyyviq8)" height="45.5273" style="stroke:#A80036;stroke-width:1.5;" width="15" x="588" y="592.6875"/><line style="stroke:#A80036;stroke-width:1.5;stroke-dasharray:5.0,5.0;" x1="73.5" x2="73.5" y1="134.4141" y2="710.7422"/><line style="stroke:#A80036;stroke-width:1.5;stroke-dasharray:5.0,5.0;" x1="285" x2="285" y1="134.4141" y2="710.7422"/><line style="stroke:#A80036;stroke-width:1.5;stroke-dasharray:5.0,5.0;" x1="595.5" x2="595.5" y1="134.4141" y2="710.7422"/><line style="stroke:#A80036;stroke-width:1.5;stroke-dasharray:5.0,5.0;" x1="841.5" x2="841.5" y1="134.4141" y2="710.7422"/><text fill="#000000" font-family="sans-serif" font-size="21" lengthAdjust="spacing" textLength="124.5" x="7.5" y="129.7998">Administrator</text><ellipse cx="74.25" cy="22.5" fill="#FEFECE" filter="url(#fnh3janyyviq8)" rx="12" ry="12" style="stroke:#A80036;stroke-width:3.0;"/><path d="M74.25,34.5 L74.25,75 M54.75,46.5 L93.75,46.5 M74.25,75 L54.75,97.5 M74.25,75 L93.75,97.5 " fill="none" filter="url(#fnh3janyyviq8)" style="stroke:#A80036;stroke-width:3.0;"/><text fill="#000000" font-family="sans-serif" font-size="21" lengthAdjust="spacing" textLength="124.5" x="7.5" y="731.042">Administrator</text><ellipse cx="74.25" cy="750.6563" fill="#FEFECE" filter="url(#fnh3janyyviq8)" rx="12" ry="12" style="stroke:#A80036;stroke-width:3.0;"/><path d="M74.25,762.6563 L74.25,803.1563 M54.75,774.6563 L93.75,774.6563 M74.25,803.1563 L54.75,825.6563 M74.25,803.1563 L93.75,825.6563 " fill="none" filter="url(#fnh3janyyviq8)" style="stroke:#A80036;stroke-width:3.0;"/><rect fill="#FEFECE" filter="url(#fnh3janyyviq8)" height="47.4141" style="stroke:#A80036;stroke-width:2.25;" width="252" x="156" y="79.5"/><text fill="#000000" font-family="sans-serif" font-size="21" lengthAdjust="spacing" textLength="231" x="166.5" y="111.7998">: CreateMedicalReportUI</text><rect fill="#FEFECE" filter="url(#fnh3janyyviq8)" height="47.4141" style="stroke:#A80036;stroke-width:2.25;" width="252" x="156" y="709.2422"/><text fill="#000000" font-family="sans-serif" font-size="21" lengthAdjust="spacing" textLength="231" x="166.5" y="741.542">: CreateMedicalReportUI</text><rect fill="#FEFECE" filter="url(#fnh3janyyviq8)" height="47.4141" style="stroke:#A80036;stroke-width:2.25;" width="327" x="429" y="79.5"/><text fill="#000000" font-family="sans-serif" font-size="21" lengthAdjust="spacing" textLength="306" x="439.5" y="111.7998">: CreateMedicalReportController</text><rect fill="#FEFECE" filter="url(#fnh3janyyviq8)" height="47.4141" style="stroke:#A80036;stroke-width:2.25;" width="327" x="429" y="709.2422"/><text fill="#000000" font-family="sans-serif" font-size="21" lengthAdjust="spacing" textLength="306" x="439.5" y="741.542">: CreateMedicalReportController</text><rect fill="#FEFECE" filter="url(#fnh3janyyviq8)" height="47.4141" style="stroke:#A80036;stroke-width:2.25;" width="123" x="777" y="79.5"/><text fill="#000000" font-family="sans-serif" font-size="21" lengthAdjust="spacing" textLength="102" x="787.5" y="111.7998">: Company</text><rect fill="#FEFECE" filter="url(#fnh3janyyviq8)" height="47.4141" style="stroke:#A80036;stroke-width:2.25;" width="123" x="777" y="709.2422"/><text fill="#000000" font-family="sans-serif" font-size="21" lengthAdjust="spacing" textLength="102" x="787.5" y="741.542">: Company</text><rect fill="#FFFFFF" filter="url(#fnh3janyyviq8)" height="534.3281" style="stroke:#A80036;stroke-width:1.5;" width="15" x="66.75" y="149.4141"/><rect fill="#FFFFFF" filter="url(#fnh3janyyviq8)" height="45.5273" style="stroke:#A80036;stroke-width:1.5;" width="15" x="277.5" y="182.9414"/><rect fill="#FFFFFF" filter="url(#fnh3janyyviq8)" height="45.5273" style="stroke:#A80036;stroke-width:1.5;" width="15" x="277.5" y="273.9961"/><rect fill="#FFFFFF" filter="url(#fnh3janyyviq8)" height="136.582" style="stroke:#A80036;stroke-width:1.5;" width="15" x="277.5" y="365.0508"/><rect fill="#FFFFFF" filter="url(#fnh3janyyviq8)" height="136.582" style="stroke:#A80036;stroke-width:1.5;" width="15" x="277.5" y="547.1602"/><rect fill="#FFFFFF" filter="url(#fnh3janyyviq8)" height="45.5273" style="stroke:#A80036;stroke-width:1.5;" width="15" x="588" y="410.5781"/><rect fill="#FFFFFF" filter="url(#fnh3janyyviq8)" height="45.5273" style="stroke:#A80036;stroke-width:1.5;" width="15" x="588" y="592.6875"/><polygon fill="#A80036" points="259.5,176.9414,274.5,182.9414,259.5,188.9414,265.5,182.9414" style="stroke:#A80036;stroke-width:1.5;"/><line style="stroke:#A80036;stroke-width:1.5;" x1="81.75" x2="268.5" y1="182.9414" y2="182.9414"/><text fill="#000000" font-family="sans-serif" font-size="19.5" font-weight="bold" lengthAdjust="spacing" textLength="10.5" x="92.25" y="175.6567">1</text><text fill="#000000" font-family="sans-serif" font-size="19.5" lengthAdjust="spacing" textLength="0" x="114.75" y="175.6567"/><polygon fill="#A80036" points="98.25,222.4688,83.25,228.4688,98.25,234.4688,92.25,228.4688" style="stroke:#A80036;stroke-width:1.5;"/><line style="stroke:#A80036;stroke-width:1.5;stroke-dasharray:2.0,2.0;" x1="89.25" x2="283.5" y1="228.4688" y2="228.4688"/><text fill="#000000" font-family="sans-serif" font-size="19.5" font-weight="bold" lengthAdjust="spacing" textLength="10.5" x="107.25" y="221.1841">2</text><text fill="#000000" font-family="sans-serif" font-size="19.5" lengthAdjust="spacing" textLength="0" x="129.75" y="221.1841"/><polygon fill="#A80036" points="259.5,267.9961,274.5,273.9961,259.5,279.9961,265.5,273.9961" style="stroke:#A80036;stroke-width:1.5;"/><line style="stroke:#A80036;stroke-width:1.5;" x1="81.75" x2="268.5" y1="273.9961" y2="273.9961"/><text fill="#000000" font-family="sans-serif" font-size="19.5" font-weight="bold" lengthAdjust="spacing" textLength="10.5" x="92.25" y="266.7114">3</text><text fill="#000000" font-family="sans-serif" font-size="19.5" lengthAdjust="spacing" textLength="0" x="114.75" y="266.7114"/><polygon fill="#A80036" points="98.25,313.5234,83.25,319.5234,98.25,325.5234,92.25,319.5234" style="stroke:#A80036;stroke-width:1.5;"/><line style="stroke:#A80036;stroke-width:1.5;stroke-dasharray:2.0,2.0;" x1="89.25" x2="283.5" y1="319.5234" y2="319.5234"/><text fill="#000000" font-family="sans-serif" font-size="19.5" font-weight="bold" lengthAdjust="spacing" textLength="10.5" x="107.25" y="312.2388">4</text><text fill="#000000" font-family="sans-serif" font-size="19.5" lengthAdjust="spacing" textLength="0" x="129.75" y="312.2388"/><polygon fill="#A80036" points="259.5,359.0508,274.5,365.0508,259.5,371.0508,265.5,365.0508" style="stroke:#A80036;stroke-width:1.5;"/><line style="stroke:#A80036;stroke-width:1.5;" x1="81.75" x2="268.5" y1="365.0508" y2="365.0508"/><text fill="#000000" font-family="sans-serif" font-size="19.5" font-weight="bold" lengthAdjust="spacing" textLength="10.5" x="92.25" y="357.7661">5</text><text fill="#000000" font-family="sans-serif" font-size="19.5" lengthAdjust="spacing" textLength="0" x="114.75" y="357.7661"/><polygon fill="#A80036" points="570,404.5781,585,410.5781,570,416.5781,576,410.5781" style="stroke:#A80036;stroke-width:1.5;"/><line style="stroke:#A80036;stroke-width:1.5;" x1="292.5" x2="579" y1="410.5781" y2="410.5781"/><text fill="#000000" font-family="sans-serif" font-size="19.5" font-weight="bold" lengthAdjust="spacing" textLength="10.5" x="303" y="403.2935">6</text><text fill="#000000" font-family="sans-serif" font-size="19.5" lengthAdjust="spacing" textLength="0" x="325.5" y="403.2935"/><polygon fill="#A80036" points="309,450.1055,294,456.1055,309,462.1055,303,456.1055" style="stroke:#A80036;stroke-width:1.5;"/><line style="stroke:#A80036;stroke-width:1.5;stroke-dasharray:2.0,2.0;" x1="300" x2="594" y1="456.1055" y2="456.1055"/><text fill="#000000" font-family="sans-serif" font-size="19.5" font-weight="bold" lengthAdjust="spacing" textLength="10.5" x="318" y="448.8208">7</text><text fill="#000000" font-family="sans-serif" font-size="19.5" lengthAdjust="spacing" textLength="0" x="340.5" y="448.8208"/><polygon fill="#A80036" points="98.25,495.6328,83.25,501.6328,98.25,507.6328,92.25,501.6328" style="stroke:#A80036;stroke-width:1.5;"/><line style="stroke:#A80036;stroke-width:1.5;stroke-dasharray:2.0,2.0;" x1="89.25" x2="283.5" y1="501.6328" y2="501.6328"/><text fill="#000000" font-family="sans-serif" font-size="19.5" font-weight="bold" lengthAdjust="spacing" textLength="10.5" x="107.25" y="494.3481">8</text><text fill="#000000" font-family="sans-serif" font-size="19.5" lengthAdjust="spacing" textLength="0" x="129.75" y="494.3481"/><polygon fill="#A80036" points="259.5,541.1602,274.5,547.1602,259.5,553.1602,265.5,547.1602" style="stroke:#A80036;stroke-width:1.5;"/><line style="stroke:#A80036;stroke-width:1.5;" x1="81.75" x2="268.5" y1="547.1602" y2="547.1602"/><text fill="#000000" font-family="sans-serif" font-size="19.5" font-weight="bold" lengthAdjust="spacing" textLength="10.5" x="92.25" y="539.8755">9</text><text fill="#000000" font-family="sans-serif" font-size="19.5" lengthAdjust="spacing" textLength="0" x="114.75" y="539.8755"/><polygon fill="#A80036" points="570,586.6875,585,592.6875,570,598.6875,576,592.6875" style="stroke:#A80036;stroke-width:1.5;"/><line style="stroke:#A80036;stroke-width:1.5;" x1="292.5" x2="579" y1="592.6875" y2="592.6875"/><text fill="#000000" font-family="sans-serif" font-size="19.5" font-weight="bold" lengthAdjust="spacing" textLength="21" x="303" y="585.4028">10</text><text fill="#000000" font-family="sans-serif" font-size="19.5" lengthAdjust="spacing" textLength="0" x="336" y="585.4028"/><polygon fill="#A80036" points="309,632.2148,294,638.2148,309,644.2148,303,638.2148" style="stroke:#A80036;stroke-width:1.5;"/><line style="stroke:#A80036;stroke-width:1.5;stroke-dasharray:2.0,2.0;" x1="300" x2="594" y1="638.2148" y2="638.2148"/><text fill="#000000" font-family="sans-serif" font-size="19.5" font-weight="bold" lengthAdjust="spacing" textLength="21" x="318" y="630.9302">11</text><text fill="#000000" font-family="sans-serif" font-size="19.5" lengthAdjust="spacing" textLength="0" x="351" y="630.9302"/><polygon fill="#A80036" points="90.75,677.7422,75.75,683.7422,90.75,689.7422,84.75,683.7422" style="stroke:#A80036;stroke-width:1.5;"/><line style="stroke:#A80036;stroke-width:1.5;stroke-dasharray:2.0,2.0;" x1="81.75" x2="283.5" y1="683.7422" y2="683.7422"/><text fill="#000000" font-family="sans-serif" font-size="19.5" font-weight="bold" lengthAdjust="spacing" textLength="21" x="99.75" y="676.4575">12</text><text fill="#000000" font-family="sans-serif" font-size="19.5" lengthAdjust="spacing" textLength="0" x="132.75" y="676.4575"/><!--MD5=[6e765f6a13b128c872bd41d5643e5380]
@startuml
autonumber
'hide footbox
actor "Administrator" as Adm

participant ": CreateMedicalReportUI" as UI
participant ": CreateMedicalReportController" as CTRL
participant ": Company" as Comp


activate Adm
Adm -> UI : 
activate UI
UI - -> Adm : 
deactivate UI

Adm -> UI : 
activate UI

UI - -> Adm : 
deactivate UI

Adm -> UI : 
activate UI

UI -> CTRL : 
activate CTRL

CTRL - -> UI: 
deactivate CTRL
UI - -> Adm :
deactivate UI
Adm -> UI: 
activate UI
UI -> CTRL: 
activate CTRL

CTRL - -> UI: 
deactivate CTRL
UI - -> Adm : 
deactivate UI

deactivate Adm




@enduml

@startuml
autonumber
actor "Administrator" as Adm

participant ": CreateMedicalReportUI" as UI
participant ": CreateMedicalReportController" as CTRL
participant ": Company" as Comp


activate Adm
Adm -> UI : 
activate UI
UI - -> Adm : 
deactivate UI

Adm -> UI : 
activate UI

UI - -> Adm : 
deactivate UI

Adm -> UI : 
activate UI

UI -> CTRL : 
activate CTRL

CTRL - -> UI: 
deactivate CTRL
UI - -> Adm :
deactivate UI
Adm -> UI: 
activate UI
UI -> CTRL: 
activate CTRL

CTRL - -> UI: 
deactivate CTRL
UI - -> Adm : 
deactivate UI

deactivate Adm




@enduml

PlantUML version 1.2021.5(Sun Apr 25 12:20:28 BST 2021)
(GPL source distribution)
Java Runtime: OpenJDK Runtime Environment
JVM: OpenJDK 64-Bit Server VM
Default Encoding: Cp1252
Language: pt
Country: PT
--></g></svg>