<?xml version="1.0" encoding="UTF-8" standalone="no"?><svg xmlns="http://www.w3.org/2000/svg" xmlns:xlink="http://www.w3.org/1999/xlink" contentScriptType="application/ecmascript" contentStyleType="text/css" height="1047px" preserveAspectRatio="none" style="width:421px;height:1047px;" version="1.1" viewBox="0 0 421 1047" width="421.5px" zoomAndPan="magnify"><defs><filter height="300%" id="fgo865lzmrv1e" width="300%" x="-1" y="-1"><feGaussianBlur result="blurOut" stdDeviation="3.0"/><feColorMatrix in="blurOut" result="blurOut2" type="matrix" values="0 0 0 0 0 0 0 0 0 0 0 0 0 0 0 0 0 0 .4 0"/><feOffset dx="6.0" dy="6.0" in="blurOut2" result="blurOut3"/><feBlend in="SourceGraphic" in2="blurOut3" mode="normal"/></filter></defs><g><!--MD5=[02e4b9b7573f1156f41e60aa5b4e25a4]
class Company--><rect codeLine="5" fill="#FEFECE" filter="url(#fgo865lzmrv1e)" height="80.7539" id="Company" style="stroke:#A80036;stroke-width:2.25;" width="127.5" x="141" y="10.5"/><ellipse cx="163.5" cy="34.5" fill="#ADD1B2" rx="16.5" ry="16.5" style="stroke:#A80036;stroke-width:1.5;"/><path d="M166.5,29.25 Q166.8047,28.5 167.1563,28.125 Q167.5078,27.75 167.9063,27.75 Q168.6094,27.75 169.0547,28.1719 Q169.5,28.5938 169.5,29.5781 L169.5,31.9219 Q169.5,32.9063 169.0781,33.3281 Q168.6563,33.75 168,33.75 Q167.4141,33.75 167.0391,33.4922 Q166.6641,33.2344 166.5,32.5547 Q166.4297,32.0859 166.1719,31.8281 Q165.7031,31.3359 164.8594,31.0547 Q164.0156,30.75 163.1719,30.75 Q162.1172,30.75 161.2266,31.1719 Q160.3594,31.5938 159.6797,32.5313 Q159,33.4688 159,34.7578 L159,36.1406 Q159,37.6875 160.2656,38.7188 Q161.5313,39.75 163.7813,39.75 Q165.1172,39.75 166.0547,39.4453 Q166.5938,39.2813 167.2031,38.7422 Q167.6016,38.4375 167.8125,38.3438 Q168.0234,38.25 168.2813,38.25 Q168.7734,38.25 169.125,38.6484 Q169.5,39.0234 169.5,39.5625 Q169.5,40.0781 168.9844,40.6875 Q168.2344,41.5781 167.0391,42.0703 Q165.4688,42.75 163.5469,42.75 Q161.2969,42.75 159.4922,41.8594 Q158.0391,41.1563 157.0078,39.6328 Q156,38.1094 156,36.3047 L156,34.6641 Q156,32.7891 156.8906,31.1484 Q157.8047,29.5078 159.375,28.6406 Q160.9688,27.75 162.75,27.75 Q163.8281,27.75 164.7656,28.125 Q165.7031,28.5 166.5,29.25 Z " fill="#000000"/><text fill="#000000" font-family="sans-serif" font-size="18" lengthAdjust="spacing" textLength="79.5" x="184.5" y="41.8652">Company</text><line style="stroke:#A80036;stroke-width:2.25;" x1="142.5" x2="267" y1="58.5" y2="58.5"/><text fill="#000000" font-family="sans-serif" font-size="16.5" lengthAdjust="spacing" textLength="88.5" x="150" y="81.6284">-designation</text><!--MD5=[7d96fd15f3014691d2fcaf89c5791e2a]
class SpecialistDoctor--><rect codeLine="9" fill="#FEFECE" filter="url(#fgo865lzmrv1e)" height="80.7539" id="SpecialistDoctor" style="stroke:#A80036;stroke-width:2.25;" width="183" x="111.75" y="946.5"/><ellipse cx="134.25" cy="970.5" fill="#ADD1B2" rx="16.5" ry="16.5" style="stroke:#A80036;stroke-width:1.5;"/><path d="M137.25,965.25 Q137.5547,964.5 137.9063,964.125 Q138.2578,963.75 138.6563,963.75 Q139.3594,963.75 139.8047,964.1719 Q140.25,964.5938 140.25,965.5781 L140.25,967.9219 Q140.25,968.9063 139.8281,969.3281 Q139.4063,969.75 138.75,969.75 Q138.1641,969.75 137.7891,969.4922 Q137.4141,969.2344 137.25,968.5547 Q137.1797,968.0859 136.9219,967.8281 Q136.4531,967.3359 135.6094,967.0547 Q134.7656,966.75 133.9219,966.75 Q132.8672,966.75 131.9766,967.1719 Q131.1094,967.5938 130.4297,968.5313 Q129.75,969.4688 129.75,970.7578 L129.75,972.1406 Q129.75,973.6875 131.0156,974.7188 Q132.2813,975.75 134.5313,975.75 Q135.8672,975.75 136.8047,975.4453 Q137.3438,975.2813 137.9531,974.7422 Q138.3516,974.4375 138.5625,974.3438 Q138.7734,974.25 139.0313,974.25 Q139.5234,974.25 139.875,974.6484 Q140.25,975.0234 140.25,975.5625 Q140.25,976.0781 139.7344,976.6875 Q138.9844,977.5781 137.7891,978.0703 Q136.2188,978.75 134.2969,978.75 Q132.0469,978.75 130.2422,977.8594 Q128.7891,977.1563 127.7578,975.6328 Q126.75,974.1094 126.75,972.3047 L126.75,970.6641 Q126.75,968.7891 127.6406,967.1484 Q128.5547,965.5078 130.125,964.6406 Q131.7188,963.75 133.5,963.75 Q134.5781,963.75 135.5156,964.125 Q136.4531,964.5 137.25,965.25 Z " fill="#000000"/><text fill="#000000" font-family="sans-serif" font-size="18" lengthAdjust="spacing" textLength="135" x="155.25" y="977.8652">SpecialistDoctor</text><line style="stroke:#A80036;stroke-width:2.25;" x1="113.25" x2="293.25" y1="994.5" y2="994.5"/><text fill="#000000" font-family="sans-serif" font-size="16.5" lengthAdjust="spacing" textLength="147" x="120.75" y="1017.6284">-doctorIndexNumber</text><!--MD5=[df38be88ccee13e832d6fafd6288a4ca]
class Test--><rect codeLine="13" fill="#FEFECE" filter="url(#fgo865lzmrv1e)" height="122.2617" id="Test" style="stroke:#A80036;stroke-width:2.25;" width="114" x="147.75" y="301.5"/><ellipse cx="183.75" cy="325.5" fill="#ADD1B2" rx="16.5" ry="16.5" style="stroke:#A80036;stroke-width:1.5;"/><path d="M186.75,320.25 Q187.0547,319.5 187.4063,319.125 Q187.7578,318.75 188.1563,318.75 Q188.8594,318.75 189.3047,319.1719 Q189.75,319.5938 189.75,320.5781 L189.75,322.9219 Q189.75,323.9063 189.3281,324.3281 Q188.9063,324.75 188.25,324.75 Q187.6641,324.75 187.2891,324.4922 Q186.9141,324.2344 186.75,323.5547 Q186.6797,323.0859 186.4219,322.8281 Q185.9531,322.3359 185.1094,322.0547 Q184.2656,321.75 183.4219,321.75 Q182.3672,321.75 181.4766,322.1719 Q180.6094,322.5938 179.9297,323.5313 Q179.25,324.4688 179.25,325.7578 L179.25,327.1406 Q179.25,328.6875 180.5156,329.7188 Q181.7813,330.75 184.0313,330.75 Q185.3672,330.75 186.3047,330.4453 Q186.8438,330.2813 187.4531,329.7422 Q187.8516,329.4375 188.0625,329.3438 Q188.2734,329.25 188.5313,329.25 Q189.0234,329.25 189.375,329.6484 Q189.75,330.0234 189.75,330.5625 Q189.75,331.0781 189.2344,331.6875 Q188.4844,332.5781 187.2891,333.0703 Q185.7188,333.75 183.7969,333.75 Q181.5469,333.75 179.7422,332.8594 Q178.2891,332.1563 177.2578,330.6328 Q176.25,329.1094 176.25,327.3047 L176.25,325.6641 Q176.25,323.7891 177.1406,322.1484 Q178.0547,320.5078 179.625,319.6406 Q181.2188,318.75 183,318.75 Q184.0781,318.75 185.0156,319.125 Q185.9531,319.5 186.75,320.25 Z " fill="#000000"/><text fill="#000000" font-family="sans-serif" font-size="18" lengthAdjust="spacing" textLength="36" x="207.75" y="332.8652">Test</text><line style="stroke:#A80036;stroke-width:2.25;" x1="149.25" x2="260.25" y1="349.5" y2="349.5"/><text fill="#000000" font-family="sans-serif" font-size="16.5" lengthAdjust="spacing" textLength="96" x="156.75" y="372.6284">-internalCode</text><text fill="#000000" font-family="sans-serif" font-size="16.5" lengthAdjust="spacing" textLength="70.5" x="156.75" y="393.3823">-nhsCode</text><text fill="#000000" font-family="sans-serif" font-size="16.5" lengthAdjust="spacing" textLength="85.5" x="156.75" y="414.1362">-description</text><!--MD5=[b2d1f399f1909a0bb241ed0598ba126f]
class MedicalReport--><rect codeLine="19" fill="#FEFECE" filter="url(#fgo865lzmrv1e)" height="101.5078" id="MedicalReport" style="stroke:#A80036;stroke-width:2.25;" width="166.5" x="10.5" y="634.5"/><ellipse cx="33" cy="658.5" fill="#ADD1B2" rx="16.5" ry="16.5" style="stroke:#A80036;stroke-width:1.5;"/><path d="M36,653.25 Q36.3047,652.5 36.6563,652.125 Q37.0078,651.75 37.4063,651.75 Q38.1094,651.75 38.5547,652.1719 Q39,652.5938 39,653.5781 L39,655.9219 Q39,656.9063 38.5781,657.3281 Q38.1563,657.75 37.5,657.75 Q36.9141,657.75 36.5391,657.4922 Q36.1641,657.2344 36,656.5547 Q35.9297,656.0859 35.6719,655.8281 Q35.2031,655.3359 34.3594,655.0547 Q33.5156,654.75 32.6719,654.75 Q31.6172,654.75 30.7266,655.1719 Q29.8594,655.5938 29.1797,656.5313 Q28.5,657.4688 28.5,658.7578 L28.5,660.1406 Q28.5,661.6875 29.7656,662.7188 Q31.0313,663.75 33.2813,663.75 Q34.6172,663.75 35.5547,663.4453 Q36.0938,663.2813 36.7031,662.7422 Q37.1016,662.4375 37.3125,662.3438 Q37.5234,662.25 37.7813,662.25 Q38.2734,662.25 38.625,662.6484 Q39,663.0234 39,663.5625 Q39,664.0781 38.4844,664.6875 Q37.7344,665.5781 36.5391,666.0703 Q34.9688,666.75 33.0469,666.75 Q30.7969,666.75 28.9922,665.8594 Q27.5391,665.1563 26.5078,663.6328 Q25.5,662.1094 25.5,660.3047 L25.5,658.6641 Q25.5,656.7891 26.3906,655.1484 Q27.3047,653.5078 28.875,652.6406 Q30.4688,651.75 32.25,651.75 Q33.3281,651.75 34.2656,652.125 Q35.2031,652.5 36,653.25 Z " fill="#000000"/><text fill="#000000" font-family="sans-serif" font-size="18" lengthAdjust="spacing" textLength="118.5" x="54" y="665.8652">MedicalReport</text><line style="stroke:#A80036;stroke-width:2.25;" x1="12" x2="175.5" y1="682.5" y2="682.5"/><text fill="#000000" font-family="sans-serif" font-size="16.5" lengthAdjust="spacing" textLength="75" x="19.5" y="705.6284">-diagnosis</text><text fill="#000000" font-family="sans-serif" font-size="16.5" lengthAdjust="spacing" textLength="100.5" x="19.5" y="726.3823">-dateAndTime</text><!--MD5=[0f07739f46effee96e095e9c408da841]
class TestParameter--><rect codeLine="24" fill="#FEFECE" filter="url(#fgo865lzmrv1e)" height="60" id="TestParameter" style="stroke:#A80036;stroke-width:2.25;" width="171" x="230.25" y="655.5"/><ellipse cx="252.75" cy="679.5" fill="#ADD1B2" rx="16.5" ry="16.5" style="stroke:#A80036;stroke-width:1.5;"/><path d="M255.75,674.25 Q256.0547,673.5 256.4063,673.125 Q256.7578,672.75 257.1563,672.75 Q257.8594,672.75 258.3047,673.1719 Q258.75,673.5938 258.75,674.5781 L258.75,676.9219 Q258.75,677.9063 258.3281,678.3281 Q257.9063,678.75 257.25,678.75 Q256.6641,678.75 256.2891,678.4922 Q255.9141,678.2344 255.75,677.5547 Q255.6797,677.0859 255.4219,676.8281 Q254.9531,676.3359 254.1094,676.0547 Q253.2656,675.75 252.4219,675.75 Q251.3672,675.75 250.4766,676.1719 Q249.6094,676.5938 248.9297,677.5313 Q248.25,678.4688 248.25,679.7578 L248.25,681.1406 Q248.25,682.6875 249.5156,683.7188 Q250.7813,684.75 253.0313,684.75 Q254.3672,684.75 255.3047,684.4453 Q255.8438,684.2813 256.4531,683.7422 Q256.8516,683.4375 257.0625,683.3438 Q257.2734,683.25 257.5313,683.25 Q258.0234,683.25 258.375,683.6484 Q258.75,684.0234 258.75,684.5625 Q258.75,685.0781 258.2344,685.6875 Q257.4844,686.5781 256.2891,687.0703 Q254.7188,687.75 252.7969,687.75 Q250.5469,687.75 248.7422,686.8594 Q247.2891,686.1563 246.2578,684.6328 Q245.25,683.1094 245.25,681.3047 L245.25,679.6641 Q245.25,677.7891 246.1406,676.1484 Q247.0547,674.5078 248.625,673.6406 Q250.2188,672.75 252,672.75 Q253.0781,672.75 254.0156,673.125 Q254.9531,673.5 255.75,674.25 Z " fill="#000000"/><text fill="#000000" font-family="sans-serif" font-size="18" lengthAdjust="spacing" textLength="123" x="273.75" y="686.8652">TestParameter</text><line style="stroke:#A80036;stroke-width:2.25;" x1="231.75" x2="399.75" y1="703.5" y2="703.5"/><!--MD5=[7e4bc624457760b649895ff2ead938fa]
link Company to Test--><path codeLine="28" d="M204.75,91.635 C204.75,144.57 204.75,239.505 204.75,301.485 " fill="none" id="Company-Test" style="stroke:#A80036;stroke-width:1.5;"/><polygon fill="#000000" points="212.25,204.2637,216.6584,190.696,207.8416,190.696,212.25,204.2637" style="stroke:#000000;stroke-width:1.5;"/><text fill="#000000" font-family="sans-serif" font-size="19.5" lengthAdjust="spacing" textLength="75" x="225.75" y="204.7427">performs</text><text fill="#000000" font-family="sans-serif" font-size="19.5" lengthAdjust="spacing" textLength="10.5" x="193.1016" y="123.4762">1</text><text fill="#000000" font-family="sans-serif" font-size="19.5" lengthAdjust="spacing" textLength="30" x="172.1719" y="285.201">1..*</text><!--MD5=[f24c888dadeb846430474fe80a58922b]
link Test to TestParameter--><path codeLine="29" d="M225.63,424.59 C249.555,493.47 287.775,603.48 305.775,655.275 " fill="none" id="Test-TestParameter" style="stroke:#A80036;stroke-width:1.5;"/><polygon fill="#000000" points="277.7113,536.8483,277.423,522.5854,269.0945,525.4788,277.7113,536.8483" style="stroke:#000000;stroke-width:1.5;"/><text fill="#000000" font-family="sans-serif" font-size="19.5" lengthAdjust="spacing" textLength="85.5" x="288.75" y="537.7427">generates</text><text fill="#000000" font-family="sans-serif" font-size="19.5" lengthAdjust="spacing" textLength="10.5" x="217.5233" y="456.198">1</text><text fill="#000000" font-family="sans-serif" font-size="19.5" lengthAdjust="spacing" textLength="30" x="268.4386" y="639.1915">1..*</text><!--MD5=[c3238c64a9072feb51e313e35a850213]
link Test to MedicalReport--><path codeLine="30" d="M183.87,424.59 C162.84,485.145 130.74,577.515 111.075,634.14 " fill="none" id="Test-MedicalReport" style="stroke:#A80036;stroke-width:1.5;"/><polygon fill="#000000" points="157.2889,536.8484,165.9054,525.4787,157.5768,522.5854,157.2889,536.8484" style="stroke:#000000;stroke-width:1.5;"/><text fill="#000000" font-family="sans-serif" font-size="19.5" lengthAdjust="spacing" textLength="64.5" x="173.25" y="537.7427">request</text><text fill="#000000" font-family="sans-serif" font-size="19.5" lengthAdjust="spacing" textLength="10.5" x="169.3688" y="456.198">1</text><text fill="#000000" font-family="sans-serif" font-size="19.5" lengthAdjust="spacing" textLength="10.5" x="102.8768" y="618.4018">1</text><!--MD5=[1948f74684d5ee0b9177a8ca8b0b51f7]
link TestParameter to SpecialistDoctor--><path codeLine="31" d="M305.49,715.605 C293.43,749.1 272.715,806.19 254.25,855 C242.625,885.72 229.08,920.325 218.865,946.185 " fill="none" id="TestParameter-SpecialistDoctor" style="stroke:#A80036;stroke-width:1.5;"/><polygon fill="#000000" points="269.6124,848.7846,278.5107,837.634,270.2571,834.5333,269.6124,848.7846" style="stroke:#000000;stroke-width:1.5;"/><text fill="#000000" font-family="sans-serif" font-size="19.5" lengthAdjust="spacing" textLength="105" x="285.75" y="849.7427">analyzed by</text><text fill="#000000" font-family="sans-serif" font-size="19.5" lengthAdjust="spacing" textLength="30" x="268.3856" y="747.7639">1..*</text><text fill="#000000" font-family="sans-serif" font-size="19.5" lengthAdjust="spacing" textLength="10.5" x="210.7619" y="930.3036">1</text><!--MD5=[998e2ee25e4f5c17bcb5810d33ccda6e]
link MedicalReport to SpecialistDoctor--><path codeLine="33" d="M105.75,736.935 C114.42,770.715 127.14,816.09 141.75,855 C153.555,886.425 169.845,920.7 182.7,946.245 " fill="none" id="MedicalReport-SpecialistDoctor" style="stroke:#A80036;stroke-width:1.5;"/><polygon fill="#000000" points="151.8379,848.803,151.294,834.5476,143.0187,837.5899,151.8379,848.803" style="stroke:#000000;stroke-width:1.5;"/><text fill="#000000" font-family="sans-serif" font-size="19.5" lengthAdjust="spacing" textLength="84" x="162.75" y="849.7427">written by</text><text fill="#000000" font-family="sans-serif" font-size="19.5" lengthAdjust="spacing" textLength="7.5" x="99.668" y="768.1682">*</text><text fill="#000000" font-family="sans-serif" font-size="19.5" lengthAdjust="spacing" textLength="10.5" x="166.2338" y="930.3775">1</text><!--MD5=[4a3fb80831453ce0de7a1540809a66bc]
@startuml
hide methods
'left to right direction
skinparam classAttributeIconSize 0

class Company{
-designation
}

class SpecialistDoctor{
-doctorIndexNumber
}

class Test{
-internalCode
-nhsCode
-description
}

class MedicalReport{
-diagnosis
-dateAndTime
}

class TestParameter{

}

Company "1"- - -"1..*" Test : performs >
Test "1" - - -"1..*" TestParameter : generates >
Test "1" - - -"1" MedicalReport : request >
TestParameter "1..*"- - -"1" SpecialistDoctor : analyzed by >

MedicalReport "*"- - -"1" SpecialistDoctor : written by >

@enduml

@startuml
hide methods
skinparam classAttributeIconSize 0

class Company{
-designation
}

class SpecialistDoctor{
-doctorIndexNumber
}

class Test{
-internalCode
-nhsCode
-description
}

class MedicalReport{
-diagnosis
-dateAndTime
}

class TestParameter{

}

Company "1"- - -"1..*" Test : performs >
Test "1" - - -"1..*" TestParameter : generates >
Test "1" - - -"1" MedicalReport : request >
TestParameter "1..*"- - -"1" SpecialistDoctor : analyzed by >

MedicalReport "*"- - -"1" SpecialistDoctor : written by >

@enduml

PlantUML version 1.2021.5(Sun Apr 25 12:20:28 BST 2021)
(GPL source distribution)
Java Runtime: OpenJDK Runtime Environment
JVM: OpenJDK 64-Bit Server VM
Default Encoding: Cp1252
Language: pt
Country: PT
--></g></svg>