<?xml version="1.0" encoding="UTF-8" standalone="no"?><svg xmlns="http://www.w3.org/2000/svg" xmlns:xlink="http://www.w3.org/1999/xlink" contentScriptType="application/ecmascript" contentStyleType="text/css" height="887.4px" preserveAspectRatio="none" style="width:914px;height:887px;" version="1.1" viewBox="0 0 914 887" width="914.4px" zoomAndPan="magnify"><defs><filter height="300%" id="fth8yuix0pgg4" width="300%" x="-1" y="-1"><feGaussianBlur result="blurOut" stdDeviation="1.8"/><feColorMatrix in="blurOut" result="blurOut2" type="matrix" values="0 0 0 0 0 0 0 0 0 0 0 0 0 0 0 0 0 0 .4 0"/><feOffset dx="3.6" dy="3.6" in="blurOut2" result="blurOut3"/><feBlend in="SourceGraphic" in2="blurOut3" mode="normal"/></filter></defs><g><!--MD5=[9681dc6e01e10c6b4fe06895ae94f592]
cluster UI--><polygon fill="#FFFFFF" filter="url(#fth8yuix0pgg4)" points="14.4,5.4,32.4,5.4,38.7,26.6484,180,26.6484,180,95.4,14.4,95.4,14.4,5.4" style="stroke:#000000;stroke-width:1.35;"/><line style="stroke:#000000;stroke-width:1.35;" x1="14.4" x2="38.7" y1="26.6484" y2="26.6484"/><text fill="#000000" font-family="sans-serif" font-size="12.6" font-weight="bold" lengthAdjust="spacing" textLength="12.6" x="18" y="20.2799">UI</text><!--MD5=[1f2cfc53d9d308f53762fd0fcbaa4873]
cluster Controller--><polygon fill="#FFFFFF" filter="url(#fth8yuix0pgg4)" points="261,125.1,330.3,125.1,336.6,146.3484,464.4,146.3484,464.4,252.9,261,252.9,261,125.1" style="stroke:#000000;stroke-width:1.35;"/><line style="stroke:#000000;stroke-width:1.35;" x1="261" x2="336.6" y1="146.3484" y2="146.3484"/><text fill="#000000" font-family="sans-serif" font-size="12.6" font-weight="bold" lengthAdjust="spacing" textLength="63.9" x="264.6" y="139.9799">Controller</text><!--MD5=[15636c1ca4a123c16a2a1a8e90aca7a9]
cluster Model--><polygon fill="#FFFFFF" filter="url(#fth8yuix0pgg4)" points="399.6,402.3,444.6,402.3,450.9,423.5484,674.1,423.5484,674.1,881.1,399.6,881.1,399.6,402.3" style="stroke:#000000;stroke-width:1.35;"/><line style="stroke:#000000;stroke-width:1.35;" x1="399.6" x2="450.9" y1="423.5484" y2="423.5484"/><text fill="#000000" font-family="sans-serif" font-size="12.6" font-weight="bold" lengthAdjust="spacing" textLength="39.6" x="403.2" y="417.1799">Model</text><!--MD5=[7ce1723ddb6e6233854253973eae5a71]
cluster Store--><polygon fill="#FFFFFF" filter="url(#fth8yuix0pgg4)" points="695.7,571.95,735.3,571.95,741.6,593.1984,899.1,593.1984,899.1,687.15,695.7,687.15,695.7,571.95" style="stroke:#000000;stroke-width:1.35;"/><line style="stroke:#000000;stroke-width:1.35;" x1="695.7" x2="741.6" y1="593.1984" y2="593.1984"/><text fill="#000000" font-family="sans-serif" font-size="12.6" font-weight="bold" lengthAdjust="spacing" textLength="34.2" x="699.3" y="586.8299">Store</text><!--MD5=[701152d03fbf85133a1de050cfdbc7fd]
cluster Mappers--><polygon fill="#FFFFFF" filter="url(#fth8yuix0pgg4)" points="258.3,282.6,319.5,282.6,325.8,303.8484,546.3,303.8484,546.3,372.6,258.3,372.6,258.3,282.6" style="stroke:#000000;stroke-width:1.35;"/><line style="stroke:#000000;stroke-width:1.35;" x1="258.3" x2="325.8" y1="303.8484" y2="303.8484"/><text fill="#000000" font-family="sans-serif" font-size="12.6" font-weight="bold" lengthAdjust="spacing" textLength="55.8" x="261.9" y="297.4799">Mappers</text><!--MD5=[7b8bc9ee8bb84b99fb3a3f9477c19238]
cluster DTO--><polygon fill="#FFFFFF" filter="url(#fth8yuix0pgg4)" points="53.1,414.9,84.6,414.9,90.9,436.1484,301.5,436.1484,301.5,504.9,53.1,504.9,53.1,414.9" style="stroke:#000000;stroke-width:1.35;"/><line style="stroke:#000000;stroke-width:1.35;" x1="53.1" x2="90.9" y1="436.1484" y2="436.1484"/><text fill="#000000" font-family="sans-serif" font-size="12.6" font-weight="bold" lengthAdjust="spacing" textLength="26.1" x="56.7" y="429.7799">DTO</text><!--MD5=[e4ec2e7ae8016ed7f2a23175278300b9]
class WriteMedicalReportUI--><rect codeLine="3" fill="#FEFECE" filter="url(#fth8yuix0pgg4)" height="43.2" id="WriteMedicalReportUI" style="stroke:#A80036;stroke-width:1.35;" width="135.9" x="29.25" y="37.8"/><ellipse cx="42.75" cy="52.2" fill="#ADD1B2" rx="9.9" ry="9.9" style="stroke:#A80036;stroke-width:0.9;"/><path d="M44.55,49.05 Q44.7328,48.6 44.9438,48.375 Q45.1547,48.15 45.3938,48.15 Q45.8156,48.15 46.0828,48.4031 Q46.35,48.6563 46.35,49.2469 L46.35,50.6531 Q46.35,51.2438 46.0969,51.4969 Q45.8438,51.75 45.45,51.75 Q45.0984,51.75 44.8734,51.5953 Q44.6484,51.4406 44.55,51.0328 Q44.5078,50.7516 44.3531,50.5969 Q44.0719,50.3016 43.5656,50.1328 Q43.0594,49.95 42.5531,49.95 Q41.9203,49.95 41.3859,50.2031 Q40.8656,50.4563 40.4578,51.0188 Q40.05,51.5813 40.05,52.3547 L40.05,53.1844 Q40.05,54.1125 40.8094,54.7313 Q41.5688,55.35 42.9188,55.35 Q43.7203,55.35 44.2828,55.1672 Q44.6063,55.0688 44.9719,54.7453 Q45.2109,54.5625 45.3375,54.5063 Q45.4641,54.45 45.6188,54.45 Q45.9141,54.45 46.125,54.6891 Q46.35,54.9141 46.35,55.2375 Q46.35,55.5469 46.0406,55.9125 Q45.5906,56.4469 44.8734,56.7422 Q43.9313,57.15 42.7781,57.15 Q41.4281,57.15 40.3453,56.6156 Q39.4734,56.1938 38.8547,55.2797 Q38.25,54.3656 38.25,53.2828 L38.25,52.2984 Q38.25,51.1734 38.7844,50.1891 Q39.3328,49.2047 40.275,48.6844 Q41.2313,48.15 42.3,48.15 Q42.9469,48.15 43.5094,48.375 Q44.0719,48.6 44.55,49.05 Z " fill="#000000"/><text fill="#000000" font-family="sans-serif" font-size="10.8" lengthAdjust="spacing" textLength="107.1" x="55.35" y="56.6191">WriteMedicalReportUI</text><line style="stroke:#A80036;stroke-width:1.35;" x1="30.15" x2="164.25" y1="66.6" y2="66.6"/><line style="stroke:#A80036;stroke-width:1.35;" x1="30.15" x2="164.25" y1="73.8" y2="73.8"/><!--MD5=[4304a37fa14ad02974e6bd4bd1961bd7]
class WriteMedicalReportController--><rect codeLine="8" fill="#FEFECE" filter="url(#fth8yuix0pgg4)" height="80.557" id="WriteMedicalReportController" style="stroke:#A80036;stroke-width:1.35;" width="173.7" x="275.85" y="157.5"/><ellipse cx="289.35" cy="171.9" fill="#ADD1B2" rx="9.9" ry="9.9" style="stroke:#A80036;stroke-width:0.9;"/><path d="M291.15,168.75 Q291.3328,168.3 291.5438,168.075 Q291.7547,167.85 291.9938,167.85 Q292.4156,167.85 292.6828,168.1031 Q292.95,168.3563 292.95,168.9469 L292.95,170.3531 Q292.95,170.9438 292.6969,171.1969 Q292.4438,171.45 292.05,171.45 Q291.6984,171.45 291.4734,171.2953 Q291.2484,171.1406 291.15,170.7328 Q291.1078,170.4516 290.9531,170.2969 Q290.6719,170.0016 290.1656,169.8328 Q289.6594,169.65 289.1531,169.65 Q288.5203,169.65 287.9859,169.9031 Q287.4656,170.1563 287.0578,170.7188 Q286.65,171.2813 286.65,172.0547 L286.65,172.8844 Q286.65,173.8125 287.4094,174.4313 Q288.1688,175.05 289.5188,175.05 Q290.3203,175.05 290.8828,174.8672 Q291.2063,174.7688 291.5719,174.4453 Q291.8109,174.2625 291.9375,174.2063 Q292.0641,174.15 292.2188,174.15 Q292.5141,174.15 292.725,174.3891 Q292.95,174.6141 292.95,174.9375 Q292.95,175.2469 292.6406,175.6125 Q292.1906,176.1469 291.4734,176.4422 Q290.5313,176.85 289.3781,176.85 Q288.0281,176.85 286.9453,176.3156 Q286.0734,175.8938 285.4547,174.9797 Q284.85,174.0656 284.85,172.9828 L284.85,171.9984 Q284.85,170.8734 285.3844,169.8891 Q285.9328,168.9047 286.875,168.3844 Q287.8313,167.85 288.9,167.85 Q289.5469,167.85 290.1094,168.075 Q290.6719,168.3 291.15,168.75 Z " fill="#000000"/><text fill="#000000" font-family="sans-serif" font-size="10.8" lengthAdjust="spacing" textLength="144.9" x="301.95" y="176.3191">WriteMedicalReportController</text><line style="stroke:#A80036;stroke-width:1.35;" x1="276.75" x2="448.65" y1="186.3" y2="186.3"/><line style="stroke:#A80036;stroke-width:1.35;" x1="276.75" x2="448.65" y1="193.5" y2="193.5"/><ellipse cx="285.75" cy="203.4" fill="#84BE84" rx="2.7" ry="2.7" style="stroke:#038048;stroke-width:0.9;"/><text fill="#000000" font-family="sans-serif" font-size="9.9" lengthAdjust="spacing" textLength="150.3" x="293.85" y="207.3771">getTestHasSamplesAnalyzedList()</text><ellipse cx="285.75" cy="215.8523" fill="#84BE84" rx="2.7" ry="2.7" style="stroke:#038048;stroke-width:0.9;"/><text fill="#000000" font-family="sans-serif" font-size="9.9" lengthAdjust="spacing" textLength="99" x="293.85" y="219.8294">getTestParameterList()</text><ellipse cx="285.75" cy="228.3047" fill="#84BE84" rx="2.7" ry="2.7" style="stroke:#038048;stroke-width:0.9;"/><text fill="#000000" font-family="sans-serif" font-size="9.9" lengthAdjust="spacing" textLength="96.3" x="293.85" y="232.2817">createMedicalReport()</text><!--MD5=[02e4b9b7573f1156f41e60aa5b4e25a4]
class Company--><rect codeLine="16" fill="#FEFECE" filter="url(#fth8yuix0pgg4)" height="68.1047" id="Company" style="stroke:#A80036;stroke-width:1.35;" width="100.8" x="558.9" y="434.7"/><ellipse cx="583.335" cy="449.1" fill="#ADD1B2" rx="9.9" ry="9.9" style="stroke:#A80036;stroke-width:0.9;"/><path d="M585.135,445.95 Q585.3178,445.5 585.5288,445.275 Q585.7397,445.05 585.9788,445.05 Q586.4006,445.05 586.6678,445.3031 Q586.935,445.5563 586.935,446.1469 L586.935,447.5531 Q586.935,448.1438 586.6819,448.3969 Q586.4288,448.65 586.035,448.65 Q585.6834,448.65 585.4584,448.4953 Q585.2334,448.3406 585.135,447.9328 Q585.0928,447.6516 584.9381,447.4969 Q584.6569,447.2016 584.1506,447.0328 Q583.6444,446.85 583.1381,446.85 Q582.5053,446.85 581.9709,447.1031 Q581.4506,447.3563 581.0428,447.9188 Q580.635,448.4813 580.635,449.2547 L580.635,450.0844 Q580.635,451.0125 581.3944,451.6313 Q582.1538,452.25 583.5038,452.25 Q584.3053,452.25 584.8678,452.0672 Q585.1913,451.9688 585.5569,451.6453 Q585.7959,451.4625 585.9225,451.4063 Q586.0491,451.35 586.2038,451.35 Q586.4991,451.35 586.71,451.5891 Q586.935,451.8141 586.935,452.1375 Q586.935,452.4469 586.6256,452.8125 Q586.1756,453.3469 585.4584,453.6422 Q584.5163,454.05 583.3631,454.05 Q582.0131,454.05 580.9303,453.5156 Q580.0584,453.0938 579.4397,452.1797 Q578.835,451.2656 578.835,450.1828 L578.835,449.1984 Q578.835,448.0734 579.3694,447.0891 Q579.9178,446.1047 580.86,445.5844 Q581.8163,445.05 582.885,445.05 Q583.5319,445.05 584.0944,445.275 Q584.6569,445.5 585.135,445.95 Z " fill="#000000"/><text fill="#000000" font-family="sans-serif" font-size="10.8" lengthAdjust="spacing" textLength="47.7" x="598.365" y="453.5191">Company</text><line style="stroke:#A80036;stroke-width:1.35;" x1="559.8" x2="658.8" y1="463.5" y2="463.5"/><rect fill="none" height="5.4" style="stroke:#C82930;stroke-width:0.9;" width="5.4" x="566.1" y="470.7"/><text fill="#000000" font-family="sans-serif" font-size="9.9" lengthAdjust="spacing" textLength="77.4" x="576.9" y="477.3771">String designation</text><line style="stroke:#A80036;stroke-width:1.35;" x1="559.8" x2="658.8" y1="483.1523" y2="483.1523"/><ellipse cx="568.8" cy="493.0523" fill="#84BE84" rx="2.7" ry="2.7" style="stroke:#038048;stroke-width:0.9;"/><text fill="#000000" font-family="sans-serif" font-size="9.9" lengthAdjust="spacing" textLength="63" x="576.9" y="497.0294">getTestStore()</text><!--MD5=[df38be88ccee13e832d6fafd6288a4ca]
class Test--><rect codeLine="21" fill="#FEFECE" filter="url(#fth8yuix0pgg4)" height="130.3664" id="Test" style="stroke:#A80036;stroke-width:1.35;" width="149.4" x="461.7" y="573.3"/><ellipse cx="521.775" cy="587.7" fill="#ADD1B2" rx="9.9" ry="9.9" style="stroke:#A80036;stroke-width:0.9;"/><path d="M523.575,584.55 Q523.7578,584.1 523.9688,583.875 Q524.1797,583.65 524.4188,583.65 Q524.8406,583.65 525.1078,583.9031 Q525.375,584.1563 525.375,584.7469 L525.375,586.1531 Q525.375,586.7438 525.1219,586.9969 Q524.8688,587.25 524.475,587.25 Q524.1234,587.25 523.8984,587.0953 Q523.6734,586.9406 523.575,586.5328 Q523.5328,586.2516 523.3781,586.0969 Q523.0969,585.8016 522.5906,585.6328 Q522.0844,585.45 521.5781,585.45 Q520.9453,585.45 520.4109,585.7031 Q519.8906,585.9563 519.4828,586.5188 Q519.075,587.0813 519.075,587.8547 L519.075,588.6844 Q519.075,589.6125 519.8344,590.2313 Q520.5938,590.85 521.9438,590.85 Q522.7453,590.85 523.3078,590.6672 Q523.6313,590.5688 523.9969,590.2453 Q524.2359,590.0625 524.3625,590.0063 Q524.4891,589.95 524.6438,589.95 Q524.9391,589.95 525.15,590.1891 Q525.375,590.4141 525.375,590.7375 Q525.375,591.0469 525.0656,591.4125 Q524.6156,591.9469 523.8984,592.2422 Q522.9563,592.65 521.8031,592.65 Q520.4531,592.65 519.3703,592.1156 Q518.4984,591.6938 517.8797,590.7797 Q517.275,589.8656 517.275,588.7828 L517.275,587.7984 Q517.275,586.6734 517.8094,585.6891 Q518.3578,584.7047 519.3,584.1844 Q520.2563,583.65 521.325,583.65 Q521.9719,583.65 522.5344,583.875 Q523.0969,584.1 523.575,584.55 Z " fill="#000000"/><text fill="#000000" font-family="sans-serif" font-size="10.8" lengthAdjust="spacing" textLength="21.6" x="540.225" y="592.1191">Test</text><line style="stroke:#A80036;stroke-width:1.35;" x1="462.6" x2="610.2" y1="602.1" y2="602.1"/><rect fill="none" height="5.4" style="stroke:#C82930;stroke-width:0.9;" width="5.4" x="468.9" y="609.3"/><text fill="#000000" font-family="sans-serif" font-size="9.9" lengthAdjust="spacing" textLength="81.9" x="479.7" y="615.9771">String internalCode</text><rect fill="none" height="5.4" style="stroke:#C82930;stroke-width:0.9;" width="5.4" x="468.9" y="621.7523"/><text fill="#000000" font-family="sans-serif" font-size="9.9" lengthAdjust="spacing" textLength="66.6" x="479.7" y="628.4294">String nhsCode</text><rect fill="none" height="5.4" style="stroke:#C82930;stroke-width:0.9;" width="5.4" x="468.9" y="634.2047"/><text fill="#000000" font-family="sans-serif" font-size="9.9" lengthAdjust="spacing" textLength="75.6" x="479.7" y="640.8817">String description</text><line style="stroke:#A80036;stroke-width:1.35;" x1="462.6" x2="610.2" y1="646.657" y2="646.657"/><ellipse cx="471.6" cy="656.557" fill="#84BE84" rx="2.7" ry="2.7" style="stroke:#038048;stroke-width:0.9;"/><text fill="#000000" font-family="sans-serif" font-size="9.9" lengthAdjust="spacing" textLength="109.8" x="479.7" y="660.5341">getParametersResulList()</text><ellipse cx="471.6" cy="669.0094" fill="#84BE84" rx="2.7" ry="2.7" style="stroke:#038048;stroke-width:0.9;"/><text fill="#000000" font-family="sans-serif" font-size="9.9" lengthAdjust="spacing" textLength="69.3" x="479.7" y="672.9864">getDescription()</text><ellipse cx="471.6" cy="681.4617" fill="#84BE84" rx="2.7" ry="2.7" style="stroke:#038048;stroke-width:0.9;"/><text fill="#000000" font-family="sans-serif" font-size="9.9" lengthAdjust="spacing" textLength="74.7" x="479.7" y="685.4388">getInternalCode()</text><ellipse cx="471.6" cy="693.9141" fill="#84BE84" rx="2.7" ry="2.7" style="stroke:#038048;stroke-width:0.9;"/><text fill="#000000" font-family="sans-serif" font-size="9.9" lengthAdjust="spacing" textLength="126" x="479.7" y="697.8911">addMedicalReport(diagnosis)</text><!--MD5=[b2d1f399f1909a0bb241ed0598ba126f]
class MedicalReport--><rect codeLine="31" fill="#FEFECE" filter="url(#fth8yuix0pgg4)" height="93.0094" id="MedicalReport" style="stroke:#A80036;stroke-width:1.35;" width="133.2" x="469.8" y="774"/><ellipse cx="498.285" cy="788.4" fill="#ADD1B2" rx="9.9" ry="9.9" style="stroke:#A80036;stroke-width:0.9;"/><path d="M500.085,785.25 Q500.2678,784.8 500.4788,784.575 Q500.6897,784.35 500.9288,784.35 Q501.3506,784.35 501.6178,784.6031 Q501.885,784.8563 501.885,785.4469 L501.885,786.8531 Q501.885,787.4438 501.6319,787.6969 Q501.3787,787.95 500.985,787.95 Q500.6334,787.95 500.4084,787.7953 Q500.1834,787.6406 500.085,787.2328 Q500.0428,786.9516 499.8881,786.7969 Q499.6069,786.5016 499.1006,786.3328 Q498.5944,786.15 498.0881,786.15 Q497.4553,786.15 496.9209,786.4031 Q496.4006,786.6563 495.9928,787.2188 Q495.585,787.7813 495.585,788.5547 L495.585,789.3844 Q495.585,790.3125 496.3444,790.9313 Q497.1038,791.55 498.4538,791.55 Q499.2553,791.55 499.8178,791.3672 Q500.1413,791.2688 500.5069,790.9453 Q500.7459,790.7625 500.8725,790.7063 Q500.9991,790.65 501.1538,790.65 Q501.4491,790.65 501.66,790.8891 Q501.885,791.1141 501.885,791.4375 Q501.885,791.7469 501.5756,792.1125 Q501.1256,792.6469 500.4084,792.9422 Q499.4663,793.35 498.3131,793.35 Q496.9631,793.35 495.8803,792.8156 Q495.0084,792.3938 494.3897,791.4797 Q493.785,790.5656 493.785,789.4828 L493.785,788.4984 Q493.785,787.3734 494.3194,786.3891 Q494.8678,785.4047 495.81,784.8844 Q496.7663,784.35 497.835,784.35 Q498.4819,784.35 499.0444,784.575 Q499.6069,784.8 500.085,785.25 Z " fill="#000000"/><text fill="#000000" font-family="sans-serif" font-size="10.8" lengthAdjust="spacing" textLength="71.1" x="514.215" y="792.8191">MedicalReport</text><line style="stroke:#A80036;stroke-width:1.35;" x1="470.7" x2="602.1" y1="802.8" y2="802.8"/><rect fill="none" height="5.4" style="stroke:#C82930;stroke-width:0.9;" width="5.4" x="477" y="810"/><text fill="#000000" font-family="sans-serif" font-size="9.9" lengthAdjust="spacing" textLength="69.3" x="487.8" y="816.6771">String diagnosis</text><rect fill="none" height="5.4" style="stroke:#C82930;stroke-width:0.9;" width="5.4" x="477" y="822.4523"/><text fill="#000000" font-family="sans-serif" font-size="9.9" lengthAdjust="spacing" textLength="65.7" x="487.8" y="829.1294">Date createdAt</text><line style="stroke:#A80036;stroke-width:1.35;" x1="470.7" x2="602.1" y1="834.9047" y2="834.9047"/><ellipse cx="479.7" cy="844.8047" fill="#84BE84" rx="2.7" ry="2.7" style="stroke:#038048;stroke-width:0.9;"/><text fill="#000000" font-family="sans-serif" font-size="9.9" lengthAdjust="spacing" textLength="109.8" x="487.8" y="848.7817">MedicalReport(diagnosis)</text><ellipse cx="479.7" cy="857.257" fill="#84BE84" rx="2.7" ry="2.7" style="stroke:#038048;stroke-width:0.9;"/><text fill="#000000" font-family="sans-serif" font-size="9.9" lengthAdjust="spacing" textLength="79.2" x="487.8" y="861.2341">addCreationDate()</text><!--MD5=[0f07739f46effee96e095e9c408da841]
class TestParameter--><rect codeLine="38" fill="#FEFECE" filter="url(#fth8yuix0pgg4)" height="55.6523" id="TestParameter" style="stroke:#A80036;stroke-width:1.35;" width="112.5" x="414.45" y="441"/><ellipse cx="432.405" cy="455.4" fill="#ADD1B2" rx="9.9" ry="9.9" style="stroke:#A80036;stroke-width:0.9;"/><path d="M434.205,452.25 Q434.3878,451.8 434.5988,451.575 Q434.8097,451.35 435.0488,451.35 Q435.4706,451.35 435.7378,451.6031 Q436.005,451.8563 436.005,452.4469 L436.005,453.8531 Q436.005,454.4438 435.7519,454.6969 Q435.4988,454.95 435.105,454.95 Q434.7534,454.95 434.5284,454.7953 Q434.3034,454.6406 434.205,454.2328 Q434.1628,453.9516 434.0081,453.7969 Q433.7269,453.5016 433.2206,453.3328 Q432.7144,453.15 432.2081,453.15 Q431.5753,453.15 431.0409,453.4031 Q430.5206,453.6563 430.1128,454.2188 Q429.705,454.7813 429.705,455.5547 L429.705,456.3844 Q429.705,457.3125 430.4644,457.9313 Q431.2238,458.55 432.5738,458.55 Q433.3753,458.55 433.9378,458.3672 Q434.2613,458.2688 434.6269,457.9453 Q434.8659,457.7625 434.9925,457.7063 Q435.1191,457.65 435.2738,457.65 Q435.5691,457.65 435.78,457.8891 Q436.005,458.1141 436.005,458.4375 Q436.005,458.7469 435.6956,459.1125 Q435.2456,459.6469 434.5284,459.9422 Q433.5863,460.35 432.4331,460.35 Q431.0831,460.35 430.0003,459.8156 Q429.1284,459.3938 428.5097,458.4797 Q427.905,457.5656 427.905,456.4828 L427.905,455.4984 Q427.905,454.3734 428.4394,453.3891 Q428.9878,452.4047 429.93,451.8844 Q430.8863,451.35 431.955,451.35 Q432.6019,451.35 433.1644,451.575 Q433.7269,451.8 434.205,452.25 Z " fill="#000000"/><text fill="#000000" font-family="sans-serif" font-size="10.8" lengthAdjust="spacing" textLength="73.8" x="445.995" y="459.8191">TestParameter</text><line style="stroke:#A80036;stroke-width:1.35;" x1="415.35" x2="526.05" y1="469.8" y2="469.8"/><line style="stroke:#A80036;stroke-width:1.35;" x1="415.35" x2="526.05" y1="477" y2="477"/><ellipse cx="424.35" cy="486.9" fill="#84BE84" rx="2.7" ry="2.7" style="stroke:#038048;stroke-width:0.9;"/><text fill="#000000" font-family="sans-serif" font-size="9.9" lengthAdjust="spacing" textLength="89.1" x="432.45" y="490.8771">getParameterName()</text><!--MD5=[0f6f7964b844a64b0496af0dda7914bd]
class TestStore--><rect codeLine="44" fill="#FEFECE" filter="url(#fth8yuix0pgg4)" height="68.1047" id="TestStore" style="stroke:#A80036;stroke-width:1.35;" width="173.7" x="710.55" y="604.35"/><ellipse cx="769.725" cy="618.75" fill="#ADD1B2" rx="9.9" ry="9.9" style="stroke:#A80036;stroke-width:0.9;"/><path d="M771.525,615.6 Q771.7078,615.15 771.9188,614.925 Q772.1297,614.7 772.3688,614.7 Q772.7906,614.7 773.0578,614.9531 Q773.325,615.2063 773.325,615.7969 L773.325,617.2031 Q773.325,617.7938 773.0719,618.0469 Q772.8188,618.3 772.425,618.3 Q772.0734,618.3 771.8484,618.1453 Q771.6234,617.9906 771.525,617.5828 Q771.4828,617.3016 771.3281,617.1469 Q771.0469,616.8516 770.5406,616.6828 Q770.0344,616.5 769.5281,616.5 Q768.8953,616.5 768.3609,616.7531 Q767.8406,617.0063 767.4328,617.5688 Q767.025,618.1313 767.025,618.9047 L767.025,619.7344 Q767.025,620.6625 767.7844,621.2813 Q768.5438,621.9 769.8938,621.9 Q770.6953,621.9 771.2578,621.7172 Q771.5813,621.6188 771.9469,621.2953 Q772.1859,621.1125 772.3125,621.0563 Q772.4391,621 772.5938,621 Q772.8891,621 773.1,621.2391 Q773.325,621.4641 773.325,621.7875 Q773.325,622.0969 773.0156,622.4625 Q772.5656,622.9969 771.8484,623.2922 Q770.9063,623.7 769.7531,623.7 Q768.4031,623.7 767.3203,623.1656 Q766.4484,622.7438 765.8297,621.8297 Q765.225,620.9156 765.225,619.8328 L765.225,618.8484 Q765.225,617.7234 765.7594,616.7391 Q766.3078,615.7547 767.25,615.2344 Q768.2063,614.7 769.275,614.7 Q769.9219,614.7 770.4844,614.925 Q771.0469,615.15 771.525,615.6 Z " fill="#000000"/><text fill="#000000" font-family="sans-serif" font-size="10.8" lengthAdjust="spacing" textLength="47.7" x="788.175" y="623.1691">TestStore</text><line style="stroke:#A80036;stroke-width:1.35;" x1="711.45" x2="883.35" y1="633.15" y2="633.15"/><line style="stroke:#A80036;stroke-width:1.35;" x1="711.45" x2="883.35" y1="640.35" y2="640.35"/><ellipse cx="720.45" cy="650.25" fill="#84BE84" rx="2.7" ry="2.7" style="stroke:#038048;stroke-width:0.9;"/><text fill="#000000" font-family="sans-serif" font-size="9.9" lengthAdjust="spacing" textLength="150.3" x="728.55" y="654.2271">getTestHasSamplesAnalyzedList()</text><ellipse cx="720.45" cy="662.7023" fill="#84BE84" rx="2.7" ry="2.7" style="stroke:#038048;stroke-width:0.9;"/><text fill="#000000" font-family="sans-serif" font-size="9.9" lengthAdjust="spacing" textLength="126.9" x="728.55" y="666.6794">getTestByInternalCode(code)</text><!--MD5=[144698ec4d0188f6929a3b58a3eeb1f6]
class TestMapper--><rect codeLine="51" fill="#FEFECE" filter="url(#fth8yuix0pgg4)" height="43.2" id="TestMapper" style="stroke:#A80036;stroke-width:1.35;" width="87.3" x="273.15" y="315"/><ellipse cx="286.65" cy="329.4" fill="#ADD1B2" rx="9.9" ry="9.9" style="stroke:#A80036;stroke-width:0.9;"/><path d="M288.45,326.25 Q288.6328,325.8 288.8438,325.575 Q289.0547,325.35 289.2938,325.35 Q289.7156,325.35 289.9828,325.6031 Q290.25,325.8563 290.25,326.4469 L290.25,327.8531 Q290.25,328.4438 289.9969,328.6969 Q289.7438,328.95 289.35,328.95 Q288.9984,328.95 288.7734,328.7953 Q288.5484,328.6406 288.45,328.2328 Q288.4078,327.9516 288.2531,327.7969 Q287.9719,327.5016 287.4656,327.3328 Q286.9594,327.15 286.4531,327.15 Q285.8203,327.15 285.2859,327.4031 Q284.7656,327.6563 284.3578,328.2188 Q283.95,328.7813 283.95,329.5547 L283.95,330.3844 Q283.95,331.3125 284.7094,331.9313 Q285.4688,332.55 286.8188,332.55 Q287.6203,332.55 288.1828,332.3672 Q288.5063,332.2688 288.8719,331.9453 Q289.1109,331.7625 289.2375,331.7063 Q289.3641,331.65 289.5188,331.65 Q289.8141,331.65 290.025,331.8891 Q290.25,332.1141 290.25,332.4375 Q290.25,332.7469 289.9406,333.1125 Q289.4906,333.6469 288.7734,333.9422 Q287.8313,334.35 286.6781,334.35 Q285.3281,334.35 284.2453,333.8156 Q283.3734,333.3938 282.7547,332.4797 Q282.15,331.5656 282.15,330.4828 L282.15,329.4984 Q282.15,328.3734 282.6844,327.3891 Q283.2328,326.4047 284.175,325.8844 Q285.1313,325.35 286.2,325.35 Q286.8469,325.35 287.4094,325.575 Q287.9719,325.8 288.45,326.25 Z " fill="#000000"/><text fill="#000000" font-family="sans-serif" font-size="10.8" lengthAdjust="spacing" textLength="58.5" x="299.25" y="333.8191">TestMapper</text><line style="stroke:#A80036;stroke-width:1.35;" x1="274.05" x2="359.55" y1="343.8" y2="343.8"/><line style="stroke:#A80036;stroke-width:1.35;" x1="274.05" x2="359.55" y1="351" y2="351"/><!--MD5=[a82d32c079496d6dca2681dc0633feb0]
class TestParameterMapper--><rect codeLine="54" fill="#FEFECE" filter="url(#fth8yuix0pgg4)" height="43.2" id="TestParameterMapper" style="stroke:#A80036;stroke-width:1.35;" width="139.5" x="391.95" y="315"/><ellipse cx="405.45" cy="329.4" fill="#ADD1B2" rx="9.9" ry="9.9" style="stroke:#A80036;stroke-width:0.9;"/><path d="M407.25,326.25 Q407.4328,325.8 407.6438,325.575 Q407.8547,325.35 408.0938,325.35 Q408.5156,325.35 408.7828,325.6031 Q409.05,325.8563 409.05,326.4469 L409.05,327.8531 Q409.05,328.4438 408.7969,328.6969 Q408.5438,328.95 408.15,328.95 Q407.7984,328.95 407.5734,328.7953 Q407.3484,328.6406 407.25,328.2328 Q407.2078,327.9516 407.0531,327.7969 Q406.7719,327.5016 406.2656,327.3328 Q405.7594,327.15 405.2531,327.15 Q404.6203,327.15 404.0859,327.4031 Q403.5656,327.6563 403.1578,328.2188 Q402.75,328.7813 402.75,329.5547 L402.75,330.3844 Q402.75,331.3125 403.5094,331.9313 Q404.2688,332.55 405.6188,332.55 Q406.4203,332.55 406.9828,332.3672 Q407.3063,332.2688 407.6719,331.9453 Q407.9109,331.7625 408.0375,331.7063 Q408.1641,331.65 408.3188,331.65 Q408.6141,331.65 408.825,331.8891 Q409.05,332.1141 409.05,332.4375 Q409.05,332.7469 408.7406,333.1125 Q408.2906,333.6469 407.5734,333.9422 Q406.6313,334.35 405.4781,334.35 Q404.1281,334.35 403.0453,333.8156 Q402.1734,333.3938 401.5547,332.4797 Q400.95,331.5656 400.95,330.4828 L400.95,329.4984 Q400.95,328.3734 401.4844,327.3891 Q402.0328,326.4047 402.975,325.8844 Q403.9313,325.35 405,325.35 Q405.6469,325.35 406.2094,325.575 Q406.7719,325.8 407.25,326.25 Z " fill="#000000"/><text fill="#000000" font-family="sans-serif" font-size="10.8" lengthAdjust="spacing" textLength="110.7" x="418.05" y="333.8191">TestParameterMapper</text><line style="stroke:#A80036;stroke-width:1.35;" x1="392.85" x2="530.55" y1="343.8" y2="343.8"/><line style="stroke:#A80036;stroke-width:1.35;" x1="392.85" x2="530.55" y1="351" y2="351"/><!--MD5=[1c38f6084f2098752e2974895ca67f4c]
class TestDto--><rect codeLine="59" fill="#FEFECE" filter="url(#fth8yuix0pgg4)" height="43.2" id="TestDto" style="stroke:#A80036;stroke-width:1.35;" width="67.5" x="67.95" y="447.3"/><ellipse cx="81.45" cy="461.7" fill="#ADD1B2" rx="9.9" ry="9.9" style="stroke:#A80036;stroke-width:0.9;"/><path d="M83.25,458.55 Q83.4328,458.1 83.6438,457.875 Q83.8547,457.65 84.0938,457.65 Q84.5156,457.65 84.7828,457.9031 Q85.05,458.1563 85.05,458.7469 L85.05,460.1531 Q85.05,460.7438 84.7969,460.9969 Q84.5438,461.25 84.15,461.25 Q83.7984,461.25 83.5734,461.0953 Q83.3484,460.9406 83.25,460.5328 Q83.2078,460.2516 83.0531,460.0969 Q82.7719,459.8016 82.2656,459.6328 Q81.7594,459.45 81.2531,459.45 Q80.6203,459.45 80.0859,459.7031 Q79.5656,459.9563 79.1578,460.5188 Q78.75,461.0813 78.75,461.8547 L78.75,462.6844 Q78.75,463.6125 79.5094,464.2313 Q80.2688,464.85 81.6188,464.85 Q82.4203,464.85 82.9828,464.6672 Q83.3063,464.5688 83.6719,464.2453 Q83.9109,464.0625 84.0375,464.0063 Q84.1641,463.95 84.3188,463.95 Q84.6141,463.95 84.825,464.1891 Q85.05,464.4141 85.05,464.7375 Q85.05,465.0469 84.7406,465.4125 Q84.2906,465.9469 83.5734,466.2422 Q82.6313,466.65 81.4781,466.65 Q80.1281,466.65 79.0453,466.1156 Q78.1734,465.6938 77.5547,464.7797 Q76.95,463.8656 76.95,462.7828 L76.95,461.7984 Q76.95,460.6734 77.4844,459.6891 Q78.0328,458.7047 78.975,458.1844 Q79.9313,457.65 81,457.65 Q81.6469,457.65 82.2094,457.875 Q82.7719,458.1 83.25,458.55 Z " fill="#000000"/><text fill="#000000" font-family="sans-serif" font-size="10.8" lengthAdjust="spacing" textLength="38.7" x="94.05" y="466.1191">TestDto</text><line style="stroke:#A80036;stroke-width:1.35;" x1="68.85" x2="134.55" y1="476.1" y2="476.1"/><line style="stroke:#A80036;stroke-width:1.35;" x1="68.85" x2="134.55" y1="483.3" y2="483.3"/><!--MD5=[fa2f44d2bdbb0499bd765719ad83ddd6]
class TestParameterDto--><rect codeLine="62" fill="#FEFECE" filter="url(#fth8yuix0pgg4)" height="43.2" id="TestParameterDto" style="stroke:#A80036;stroke-width:1.35;" width="119.7" x="166.95" y="447.3"/><ellipse cx="180.45" cy="461.7" fill="#ADD1B2" rx="9.9" ry="9.9" style="stroke:#A80036;stroke-width:0.9;"/><path d="M182.25,458.55 Q182.4328,458.1 182.6438,457.875 Q182.8547,457.65 183.0938,457.65 Q183.5156,457.65 183.7828,457.9031 Q184.05,458.1563 184.05,458.7469 L184.05,460.1531 Q184.05,460.7438 183.7969,460.9969 Q183.5438,461.25 183.15,461.25 Q182.7984,461.25 182.5734,461.0953 Q182.3484,460.9406 182.25,460.5328 Q182.2078,460.2516 182.0531,460.0969 Q181.7719,459.8016 181.2656,459.6328 Q180.7594,459.45 180.2531,459.45 Q179.6203,459.45 179.0859,459.7031 Q178.5656,459.9563 178.1578,460.5188 Q177.75,461.0813 177.75,461.8547 L177.75,462.6844 Q177.75,463.6125 178.5094,464.2313 Q179.2688,464.85 180.6188,464.85 Q181.4203,464.85 181.9828,464.6672 Q182.3063,464.5688 182.6719,464.2453 Q182.9109,464.0625 183.0375,464.0063 Q183.1641,463.95 183.3188,463.95 Q183.6141,463.95 183.825,464.1891 Q184.05,464.4141 184.05,464.7375 Q184.05,465.0469 183.7406,465.4125 Q183.2906,465.9469 182.5734,466.2422 Q181.6313,466.65 180.4781,466.65 Q179.1281,466.65 178.0453,466.1156 Q177.1734,465.6938 176.5547,464.7797 Q175.95,463.8656 175.95,462.7828 L175.95,461.7984 Q175.95,460.6734 176.4844,459.6891 Q177.0328,458.7047 177.975,458.1844 Q178.9313,457.65 180,457.65 Q180.6469,457.65 181.2094,457.875 Q181.7719,458.1 182.25,458.55 Z " fill="#000000"/><text fill="#000000" font-family="sans-serif" font-size="10.8" lengthAdjust="spacing" textLength="90.9" x="193.05" y="466.1191">TestParameterDto</text><line style="stroke:#A80036;stroke-width:1.35;" x1="167.85" x2="285.75" y1="476.1" y2="476.1"/><line style="stroke:#A80036;stroke-width:1.35;" x1="167.85" x2="285.75" y1="483.3" y2="483.3"/><!--MD5=[bbc66458f6440b7390e5e54a12cdf2f1]
link WriteMedicalReportUI to WriteMedicalReportController--><path codeLine="67" d="M137.52,81.081 C175.545,100.665 233.64,130.599 281.304,155.16 " fill="none" id="WriteMedicalReportUI-to-WriteMedicalReportController" style="stroke:#A80036;stroke-width:0.9;stroke-dasharray:7.0,7.0;"/><polygon fill="#A80036" points="285.588,157.365,280.0498,150.4442,281.5917,155.2962,276.7397,156.8382,285.588,157.365" style="stroke:#A80036;stroke-width:0.9;"/><!--MD5=[adbc032425c7e51ba2ad24017d53629a]
link WriteMedicalReportUI to TestDto--><path codeLine="68" d="M84.906,81 C80.478,89.604 76.032,99.873 73.8,109.8 C47.52,226.89 55.494,261.207 73.8,379.8 C77.166,401.598 84.951,425.403 91.449,442.773 " fill="none" id="WriteMedicalReportUI-to-TestDto" style="stroke:#A80036;stroke-width:0.9;stroke-dasharray:7.0,7.0;"/><polygon fill="#A80036" points="93.069,447.048,93.5631,438.1978,91.4734,442.8404,86.8309,440.7507,93.069,447.048" style="stroke:#A80036;stroke-width:0.9;"/><!--MD5=[01734996bc336a4e5d2ed8719592e27f]
link WriteMedicalReportUI to TestParameterDto--><path codeLine="69" d="M103.806,81.081 C125.559,149.517 194.931,367.731 218.709,442.548 " fill="none" id="WriteMedicalReportUI-to-TestParameterDto" style="stroke:#A80036;stroke-width:0.9;stroke-dasharray:7.0,7.0;"/><polygon fill="#A80036" points="220.212,447.264,221.1931,438.4545,218.8508,442.9748,214.3304,440.6325,220.212,447.264" style="stroke:#A80036;stroke-width:0.9;"/><!--MD5=[b787b54ee1aef98cad412d2a644aa045]
link WriteMedicalReportController to Company--><path codeLine="70" d="M449.802,206.091 C495.918,214.893 548.703,234.045 576.9,275.4 C608.445,321.66 612.774,388.377 611.874,429.912 " fill="none" id="WriteMedicalReportController-to-Company" style="stroke:#A80036;stroke-width:0.9;stroke-dasharray:7.0,7.0;"/><polygon fill="#A80036" points="611.748,434.601,615.555,426.5962,611.8637,430.1025,608.3574,426.4111,611.748,434.601" style="stroke:#A80036;stroke-width:0.9;"/><!--MD5=[d59dafcd53f8ba979ac3ce89e293f269]
link WriteMedicalReportController to TestMapper--><path codeLine="71" d="M349.299,238.833 C341.523,262.008 331.974,290.475 325.242,310.536 " fill="none" id="WriteMedicalReportController-to-TestMapper" style="stroke:#A80036;stroke-width:0.9;stroke-dasharray:7.0,7.0;"/><polygon fill="#A80036" points="323.766,314.937,329.7486,308.3965,325.1929,310.6692,322.9202,306.1135,323.766,314.937" style="stroke:#A80036;stroke-width:0.9;"/><!--MD5=[0cd9019ce07d4cbb96eb84fb6d9e22ee]
link WriteMedicalReportController to TestParameterDto--><path codeLine="72" d="M292.347,238.644 C279.216,249.021 266.94,261.324 258.3,275.4 C225.954,328.131 223.722,403.614 225.108,442.575 " fill="none" id="WriteMedicalReportController-to-TestParameterDto" style="stroke:#A80036;stroke-width:0.9;stroke-dasharray:7.0,7.0;"/><polygon fill="#A80036" points="225.288,447.138,228.5614,438.9006,225.1081,442.6416,221.3671,439.1884,225.288,447.138" style="stroke:#A80036;stroke-width:0.9;"/><!--MD5=[ba75a4db94b946b551daa943cd9720f8]
link WriteMedicalReportController to TestDto--><path codeLine="73" d="M275.661,235.935 C255.861,246.834 235.89,260.037 219.6,275.4 C166.905,325.107 128.862,403.389 111.762,443.106 " fill="none" id="WriteMedicalReportController-to-TestDto" style="stroke:#A80036;stroke-width:0.9;stroke-dasharray:7.0,7.0;"/><polygon fill="#A80036" points="109.98,447.291,116.4638,441.247,111.7418,443.1502,109.8385,438.4282,109.98,447.291" style="stroke:#A80036;stroke-width:0.9;"/><!--MD5=[d3614dad8e7ab28fcc7b8ffd0e053a84]
link WriteMedicalReportController to TestParameter--><path codeLine="74" d="M449.586,213.237 C485.838,223.974 524.511,242.721 546.3,275.4 C572.04,314.01 562.401,336.285 546.3,379.8 C538.173,401.778 521.838,421.983 506.43,437.49 " fill="none" id="WriteMedicalReportController-to-TestParameter" style="stroke:#A80036;stroke-width:0.9;stroke-dasharray:7.0,7.0;"/><polygon fill="#A80036" points="502.956,440.928,511.242,437.7795,506.1508,437.7589,506.1714,432.6678,502.956,440.928" style="stroke:#A80036;stroke-width:0.9;"/><!--MD5=[eaabf2cc0e7c429fc49065438c9fd520]
link WriteMedicalReportController to Test--><path codeLine="75" d="M449.613,206.559 C503.334,215.406 570.546,234.45 616.5,275.4 C660.843,314.91 662.346,337.275 675.9,395.1 C687.771,445.725 693.729,463.248 675.9,512.1 C664.56,543.168 640.278,569.34 615.105,589.608 " fill="none" id="WriteMedicalReportController-to-Test" style="stroke:#A80036;stroke-width:0.9;stroke-dasharray:7.0,7.0;"/><polygon fill="#A80036" points="611.388,592.56,619.9729,590.3533,614.9157,589.7662,615.5028,584.709,611.388,592.56" style="stroke:#A80036;stroke-width:0.9;"/><!--MD5=[29a1b506a2116fd5358dcc26b4aac099]
link WriteMedicalReportController to TestParameterMapper--><path codeLine="76" d="M391.599,238.833 C408.582,262.296 429.489,291.195 444.033,311.292 " fill="none" id="WriteMedicalReportController-to-TestParameterMapper" style="stroke:#A80036;stroke-width:0.9;stroke-dasharray:7.0,7.0;"/><polygon fill="#A80036" points="446.679,314.937,444.8427,306.2653,444.0391,311.2927,439.0118,310.4891,446.679,314.937" style="stroke:#A80036;stroke-width:0.9;"/><!--MD5=[0d2deb453e4521a8ecd45cf39c488e89]
link TestParameterMapper to TestParameterDto--><path codeLine="77" d="M424.224,358.326 C381.681,381.951 312.489,420.39 268.344,444.924 " fill="none" id="TestParameterMapper-to-TestParameterDto" style="stroke:#A80036;stroke-width:0.9;stroke-dasharray:7.0,7.0;"/><polygon fill="#A80036" points="264.15,447.255,272.979,446.4683,268.0837,445.0696,269.4824,440.1743,264.15,447.255" style="stroke:#A80036;stroke-width:0.9;"/><!--MD5=[886f81fd36c1ffd754dcf922ff388f49]
link TestParameterMapper to TestParameter--><path codeLine="78" d="M463.149,358.47 C464.598,379.476 466.839,412.074 468.513,436.257 " fill="none" id="TestParameterMapper-to-TestParameter" style="stroke:#A80036;stroke-width:0.9;stroke-dasharray:7.0,7.0;"/><polygon fill="#A80036" points="468.837,440.973,471.8728,432.6451,468.5283,436.4836,464.6898,433.1391,468.837,440.973" style="stroke:#A80036;stroke-width:0.9;"/><!--MD5=[34b2fed5845bf5a187f4983fcf3f57bc]
link TestMapper to TestDto--><path codeLine="79" d="M273.096,351.135 C227.475,365.607 161.19,387.432 151.2,395.1 C134.892,407.61 122.067,427.077 113.562,442.746 " fill="none" id="TestMapper-to-TestDto" style="stroke:#A80036;stroke-width:0.9;stroke-dasharray:7.0,7.0;"/><polygon fill="#A80036" points="111.276,447.048,118.2532,441.581,113.3856,443.0731,111.8935,438.2056,111.276,447.048" style="stroke:#A80036;stroke-width:0.9;"/><!--MD5=[8d9a2c3ea1bf73d8d45b939465e53fff]
link TestMapper to Test--><path codeLine="80" d="M323.82,358.416 C335.862,392.553 362.691,461.493 398.7,512.1 C411.327,529.848 417.861,531.45 433.8,546.3 C442.116,554.049 450.9,562.077 459.675,570.015 " fill="none" id="TestMapper-to-Test" style="stroke:#A80036;stroke-width:0.9;stroke-dasharray:7.0,7.0;"/><polygon fill="#A80036" points="463.176,573.174,459.5808,565.0719,459.8376,570.1566,454.7529,570.4134,463.176,573.174" style="stroke:#A80036;stroke-width:0.9;"/><!--MD5=[7e4bc624457760b649895ff2ead938fa]
link Company to Test--><path codeLine="81" d="M594.72,503.361 C586.035,523.359 574.722,549.405 564.381,573.228 " fill="none" id="Company-Test" style="stroke:#A80036;stroke-width:0.9;"/><polygon fill="#000000" points="584.1076,542.4858,589.7762,536.0724,584.9239,533.9653,584.1076,542.4858" style="stroke:#000000;stroke-width:0.9;"/><text fill="#000000" font-family="sans-serif" font-size="11.7" lengthAdjust="spacing" textLength="45" x="594" y="543.1456">performs</text><text fill="#000000" font-family="sans-serif" font-size="11.7" lengthAdjust="spacing" textLength="6.3" x="585.5943" y="522.1951">1</text><text fill="#000000" font-family="sans-serif" font-size="11.7" lengthAdjust="spacing" textLength="18" x="548.3384" y="563.518">1..*</text><!--MD5=[7d615427424eb1e9d8965c4eb17ecbf5]
link TestParameter to Test--><path codeLine="82" d="M451.71,497.025 C443.835,511.785 437.922,530.235 444.6,546.3 C448.83,556.47 454.806,566.1 461.7,575.01 " fill="none" id="TestParameter-Test" style="stroke:#A80036;stroke-width:0.9;"/><polygon fill="#000000" points="448.5282,533.8947,446.939,542.3054,452.1862,541.6332,448.5282,533.8947" style="stroke:#000000;stroke-width:0.9;"/><text fill="#000000" font-family="sans-serif" font-size="11.7" lengthAdjust="spacing" textLength="104.4" x="457.2" y="543.1456">requests analysis of</text><text fill="#000000" font-family="sans-serif" font-size="11.7" lengthAdjust="spacing" textLength="18" x="428.3744" y="515.9487">1..*</text><text fill="#000000" font-family="sans-serif" font-size="11.7" lengthAdjust="spacing" textLength="6.3" x="448.2232" y="566.255">1</text><!--MD5=[c3238c64a9072feb51e313e35a850213]
link Test to MedicalReport--><path codeLine="83" d="M536.4,703.926 C536.4,727.029 536.4,752.571 536.4,773.757 " fill="none" id="Test-MedicalReport" style="stroke:#A80036;stroke-width:0.9;"/><polygon fill="#000000" points="540.9,743.5582,543.545,735.4176,538.255,735.4176,540.9,743.5582" style="stroke:#000000;stroke-width:0.9;"/><text fill="#000000" font-family="sans-serif" font-size="11.7" lengthAdjust="spacing" textLength="38.7" x="549" y="743.8456">request</text><text fill="#000000" font-family="sans-serif" font-size="11.7" lengthAdjust="spacing" textLength="4.5" x="531.6855" y="723.0105">*</text><text fill="#000000" font-family="sans-serif" font-size="11.7" lengthAdjust="spacing" textLength="6.3" x="529.6767" y="764.2746">1</text><!--MD5=[7f6cf7f175eae0af66201860de5de971]
link Company to TestStore--><path codeLine="84" d="M646.686,503.163 C678.321,531.387 723.582,571.779 756.243,600.921 " fill="none" id="Company-to-TestStore" style="stroke:#A80036;stroke-width:0.9;"/><polygon fill="#A80036" points="759.762,604.062,756.1169,595.9822,756.4051,601.0652,751.322,601.3533,759.762,604.062" style="stroke:#A80036;stroke-width:0.9;"/><text fill="#000000" font-family="sans-serif" font-size="11.7" lengthAdjust="spacing" textLength="25.2" x="692.1" y="543.1456">uses</text><text fill="#000000" font-family="sans-serif" font-size="11.7" lengthAdjust="spacing" textLength="6.3" x="646.0563" y="522.2266">1</text><text fill="#000000" font-family="sans-serif" font-size="11.7" lengthAdjust="spacing" textLength="6.3" x="746.4516" y="594.6951">1</text><!--MD5=[db2bf0901585da0591e96a042c272299]
@startuml

package UI{
class WriteMedicalReportUI{
}
}

package Controller{
class WriteMedicalReportController{
+getTestHasSamplesAnalyzedList()
+getTestParameterList()
+createMedicalReport()
}
}

package Model{
class Company{
-String designation
+getTestStore()
}

class Test{
-String internalCode
-String nhsCode
-String description
+getParametersResulList()
+getDescription()
+getInternalCode()
+addMedicalReport(diagnosis)
}

class MedicalReport{
-String diagnosis
-Date createdAt
+ MedicalReport(diagnosis)
+ addCreationDate()
}

class TestParameter{
+ getParameterName()
}
}

package Store{
class TestStore{
+getTestHasSamplesAnalyzedList()
+getTestByInternalCode(code)
}
}

package Mappers{
class TestMapper{
}

class TestParameterMapper{
}
}

package DTO{
class TestDto{
}

class TestParameterDto{
}
}


WriteMedicalReportUI ..> WriteMedicalReportController
WriteMedicalReportUI ..> TestDto
WriteMedicalReportUI ..> TestParameterDto
WriteMedicalReportController ..> Company
WriteMedicalReportController ..> TestMapper
WriteMedicalReportController ...> TestParameterDto
WriteMedicalReportController ...> TestDto
WriteMedicalReportController ...> TestParameter
WriteMedicalReportController ...> Test
WriteMedicalReportController ..> TestParameterMapper
TestParameterMapper ..> TestParameterDto
TestParameterMapper ..> TestParameter
TestMapper ..> TestDto
TestMapper ..> Test
Company "1"- -"1..*" Test : performs >
TestParameter "1..*" - -"1" Test : requests analysis of <
Test "*"- -"1" MedicalReport : request >
Company"1"- -> "1" TestStore : uses

@enduml

PlantUML version 1.2021.5(Sun Apr 25 12:20:28 BST 2021)
(GPL source distribution)
Java Runtime: OpenJDK Runtime Environment
JVM: OpenJDK 64-Bit Server VM
Default Encoding: Cp1252
Language: pt
Country: PT
--></g></svg>