<?xml version="1.0" encoding="UTF-8" standalone="no"?><svg xmlns="http://www.w3.org/2000/svg" xmlns:xlink="http://www.w3.org/1999/xlink" contentScriptType="application/ecmascript" contentStyleType="text/css" height="447px" preserveAspectRatio="none" style="width:330px;height:447px;" version="1.1" viewBox="0 0 330 447" width="330px" zoomAndPan="magnify"><defs><filter height="300%" id="fehjxr4ubesqh" width="300%" x="-1" y="-1"><feGaussianBlur result="blurOut" stdDeviation="3.0"/><feColorMatrix in="blurOut" result="blurOut2" type="matrix" values="0 0 0 0 0 0 0 0 0 0 0 0 0 0 0 0 0 0 .4 0"/><feOffset dx="6.0" dy="6.0" in="blurOut2" result="blurOut3"/><feBlend in="SourceGraphic" in2="blurOut3" mode="normal"/></filter></defs><g><!--MD5=[02e4b9b7573f1156f41e60aa5b4e25a4]
class Company--><rect codeLine="2" fill="#FEFECE" filter="url(#fehjxr4ubesqh)" height="92.7539" id="Company" style="stroke:#A80036;stroke-width:2.25;" width="168" x="75.75" y="334.5"/><ellipse cx="116.475" cy="358.5" fill="#ADD1B2" rx="16.5" ry="16.5" style="stroke:#A80036;stroke-width:1.5;"/><path d="M119.475,353.25 Q119.7797,352.5 120.1313,352.125 Q120.4828,351.75 120.8813,351.75 Q121.5844,351.75 122.0297,352.1719 Q122.475,352.5938 122.475,353.5781 L122.475,355.9219 Q122.475,356.9063 122.0531,357.3281 Q121.6313,357.75 120.975,357.75 Q120.3891,357.75 120.0141,357.4922 Q119.6391,357.2344 119.475,356.5547 Q119.4047,356.0859 119.1469,355.8281 Q118.6781,355.3359 117.8344,355.0547 Q116.9906,354.75 116.1469,354.75 Q115.0922,354.75 114.2016,355.1719 Q113.3344,355.5938 112.6547,356.5313 Q111.975,357.4688 111.975,358.7578 L111.975,360.1406 Q111.975,361.6875 113.2406,362.7188 Q114.5063,363.75 116.7563,363.75 Q118.0922,363.75 119.0297,363.4453 Q119.5688,363.2813 120.1781,362.7422 Q120.5766,362.4375 120.7875,362.3438 Q120.9984,362.25 121.2563,362.25 Q121.7484,362.25 122.1,362.6484 Q122.475,363.0234 122.475,363.5625 Q122.475,364.0781 121.9594,364.6875 Q121.2094,365.5781 120.0141,366.0703 Q118.4438,366.75 116.5219,366.75 Q114.2719,366.75 112.4672,365.8594 Q111.0141,365.1563 109.9828,363.6328 Q108.975,362.1094 108.975,360.3047 L108.975,358.6641 Q108.975,356.7891 109.8656,355.1484 Q110.7797,353.5078 112.35,352.6406 Q113.9438,351.75 115.725,351.75 Q116.8031,351.75 117.7406,352.125 Q118.6781,352.5 119.475,353.25 Z " fill="#000000"/><text fill="#000000" font-family="sans-serif" font-size="18" lengthAdjust="spacing" textLength="79.5" x="141.525" y="365.8652">Company</text><line style="stroke:#A80036;stroke-width:2.25;" x1="77.25" x2="242.25" y1="382.5" y2="382.5"/><rect fill="none" height="9" style="stroke:#C82930;stroke-width:1.5;" width="9" x="87.75" y="394.5"/><text fill="#000000" font-family="sans-serif" font-size="16.5" lengthAdjust="spacing" textLength="129" x="105.75" y="405.6284">String designation</text><line style="stroke:#A80036;stroke-width:2.25;" x1="77.25" x2="242.25" y1="415.2539" y2="415.2539"/><!--MD5=[74f96c6b5cb9a58eaf37c19a32263daa]
class CreateMedicalReportUI--><rect codeLine="7" fill="#FEFECE" filter="url(#fehjxr4ubesqh)" height="72" id="CreateMedicalReportUI" style="stroke:#A80036;stroke-width:2.25;" width="240" x="39.75" y="10.5"/><ellipse cx="62.25" cy="34.5" fill="#ADD1B2" rx="16.5" ry="16.5" style="stroke:#A80036;stroke-width:1.5;"/><path d="M65.25,29.25 Q65.5547,28.5 65.9063,28.125 Q66.2578,27.75 66.6563,27.75 Q67.3594,27.75 67.8047,28.1719 Q68.25,28.5938 68.25,29.5781 L68.25,31.9219 Q68.25,32.9063 67.8281,33.3281 Q67.4063,33.75 66.75,33.75 Q66.1641,33.75 65.7891,33.4922 Q65.4141,33.2344 65.25,32.5547 Q65.1797,32.0859 64.9219,31.8281 Q64.4531,31.3359 63.6094,31.0547 Q62.7656,30.75 61.9219,30.75 Q60.8672,30.75 59.9766,31.1719 Q59.1094,31.5938 58.4297,32.5313 Q57.75,33.4688 57.75,34.7578 L57.75,36.1406 Q57.75,37.6875 59.0156,38.7188 Q60.2813,39.75 62.5313,39.75 Q63.8672,39.75 64.8047,39.4453 Q65.3438,39.2813 65.9531,38.7422 Q66.3516,38.4375 66.5625,38.3438 Q66.7734,38.25 67.0313,38.25 Q67.5234,38.25 67.875,38.6484 Q68.25,39.0234 68.25,39.5625 Q68.25,40.0781 67.7344,40.6875 Q66.9844,41.5781 65.7891,42.0703 Q64.2188,42.75 62.2969,42.75 Q60.0469,42.75 58.2422,41.8594 Q56.7891,41.1563 55.7578,39.6328 Q54.75,38.1094 54.75,36.3047 L54.75,34.6641 Q54.75,32.7891 55.6406,31.1484 Q56.5547,29.5078 58.125,28.6406 Q59.7188,27.75 61.5,27.75 Q62.5781,27.75 63.5156,28.125 Q64.4531,28.5 65.25,29.25 Z " fill="#000000"/><text fill="#000000" font-family="sans-serif" font-size="18" lengthAdjust="spacing" textLength="192" x="83.25" y="41.8652">CreateMedicalReportUI</text><line style="stroke:#A80036;stroke-width:2.25;" x1="41.25" x2="278.25" y1="58.5" y2="58.5"/><line style="stroke:#A80036;stroke-width:2.25;" x1="41.25" x2="278.25" y1="70.5" y2="70.5"/><!--MD5=[06e126f56af4ab43b21736070eeb8909]
class CreateMedicalReporController--><rect codeLine="10" fill="#FEFECE" filter="url(#fehjxr4ubesqh)" height="72" id="CreateMedicalReporController" style="stroke:#A80036;stroke-width:2.25;" width="298.5" x="10.5" y="172.5"/><ellipse cx="33" cy="196.5" fill="#ADD1B2" rx="16.5" ry="16.5" style="stroke:#A80036;stroke-width:1.5;"/><path d="M36,191.25 Q36.3047,190.5 36.6563,190.125 Q37.0078,189.75 37.4063,189.75 Q38.1094,189.75 38.5547,190.1719 Q39,190.5938 39,191.5781 L39,193.9219 Q39,194.9063 38.5781,195.3281 Q38.1563,195.75 37.5,195.75 Q36.9141,195.75 36.5391,195.4922 Q36.1641,195.2344 36,194.5547 Q35.9297,194.0859 35.6719,193.8281 Q35.2031,193.3359 34.3594,193.0547 Q33.5156,192.75 32.6719,192.75 Q31.6172,192.75 30.7266,193.1719 Q29.8594,193.5938 29.1797,194.5313 Q28.5,195.4688 28.5,196.7578 L28.5,198.1406 Q28.5,199.6875 29.7656,200.7188 Q31.0313,201.75 33.2813,201.75 Q34.6172,201.75 35.5547,201.4453 Q36.0938,201.2813 36.7031,200.7422 Q37.1016,200.4375 37.3125,200.3438 Q37.5234,200.25 37.7813,200.25 Q38.2734,200.25 38.625,200.6484 Q39,201.0234 39,201.5625 Q39,202.0781 38.4844,202.6875 Q37.7344,203.5781 36.5391,204.0703 Q34.9688,204.75 33.0469,204.75 Q30.7969,204.75 28.9922,203.8594 Q27.5391,203.1563 26.5078,201.6328 Q25.5,200.1094 25.5,198.3047 L25.5,196.6641 Q25.5,194.7891 26.3906,193.1484 Q27.3047,191.5078 28.875,190.6406 Q30.4688,189.75 32.25,189.75 Q33.3281,189.75 34.2656,190.125 Q35.2031,190.5 36,191.25 Z " fill="#000000"/><text fill="#000000" font-family="sans-serif" font-size="18" lengthAdjust="spacing" textLength="250.5" x="54" y="203.8652">CreateMedicalReporController</text><line style="stroke:#A80036;stroke-width:2.25;" x1="12" x2="307.5" y1="220.5" y2="220.5"/><line style="stroke:#A80036;stroke-width:2.25;" x1="12" x2="307.5" y1="232.5" y2="232.5"/><!--MD5=[50dba4782d39aa695de8235b3d83d588]
link CreateMedicalReportUI to CreateMedicalReporController--><path codeLine="17" d="M159.75,82.5 C159.75,106.5 159.75,138.675 159.75,164.295 " fill="none" id="CreateMedicalReportUI-to-CreateMedicalReporController" style="stroke:#A80036;stroke-width:1.5;stroke-dasharray:7.0,7.0;"/><polygon fill="#A80036" points="159.75,172.02,165.75,158.52,159.75,164.52,153.75,158.52,159.75,172.02" style="stroke:#A80036;stroke-width:1.5;"/><!--MD5=[e74454384d5462cef8d0114ca4a2f30e]
link CreateMedicalReporController to Company--><path codeLine="18" d="M159.75,244.71 C159.75,268.065 159.75,299.295 159.75,325.83 " fill="none" id="CreateMedicalReporController-to-Company" style="stroke:#A80036;stroke-width:1.5;stroke-dasharray:7.0,7.0;"/><polygon fill="#A80036" points="159.75,333.9,165.75,320.4,159.75,326.4,153.75,320.4,159.75,333.9" style="stroke:#A80036;stroke-width:1.5;"/><!--MD5=[4132d67865176103297f5ac8e76c20d9]
@startuml

class Company{
-String designation

}

class CreateMedicalReportUI{
}

class CreateMedicalReporController{

}




CreateMedicalReportUI ..> CreateMedicalReporController
CreateMedicalReporController ..> Company

@enduml

PlantUML version 1.2021.5(Sun Apr 25 12:20:28 BST 2021)
(GPL source distribution)
Java Runtime: OpenJDK Runtime Environment
JVM: OpenJDK 64-Bit Server VM
Default Encoding: Cp1252
Language: pt
Country: PT
--></g></svg>