<?xml version="1.0" encoding="UTF-8" standalone="no"?><svg xmlns="http://www.w3.org/2000/svg" xmlns:xlink="http://www.w3.org/1999/xlink" contentScriptType="application/ecmascript" contentStyleType="text/css" height="657px" preserveAspectRatio="none" style="width:273px;height:657px;" version="1.1" viewBox="0 0 273 657" width="273px" zoomAndPan="magnify"><defs><filter height="300%" id="f1e0w0x2dq15mz" width="300%" x="-1" y="-1"><feGaussianBlur result="blurOut" stdDeviation="3.0"/><feColorMatrix in="blurOut" result="blurOut2" type="matrix" values="0 0 0 0 0 0 0 0 0 0 0 0 0 0 0 0 0 0 .4 0"/><feOffset dx="6.0" dy="6.0" in="blurOut2" result="blurOut3"/><feBlend in="SourceGraphic" in2="blurOut3" mode="normal"/></filter></defs><g><rect fill="#FFFFFF" filter="url(#f1e0w0x2dq15mz)" height="352.2188" style="stroke:#A80036;stroke-width:1.5;" width="15" x="66.75" y="149.4141"/><rect fill="#FFFFFF" filter="url(#f1e0w0x2dq15mz)" height="45.5273" style="stroke:#A80036;stroke-width:1.5;" width="15" x="199.5" y="182.9414"/><rect fill="#FFFFFF" filter="url(#f1e0w0x2dq15mz)" height="45.5273" style="stroke:#A80036;stroke-width:1.5;" width="15" x="199.5" y="273.9961"/><rect fill="#FFFFFF" filter="url(#f1e0w0x2dq15mz)" height="45.5273" style="stroke:#A80036;stroke-width:1.5;" width="15" x="199.5" y="365.0508"/><rect fill="#FFFFFF" filter="url(#f1e0w0x2dq15mz)" height="45.5273" style="stroke:#A80036;stroke-width:1.5;" width="15" x="199.5" y="456.1055"/><line style="stroke:#A80036;stroke-width:1.5;stroke-dasharray:5.0,5.0;" x1="73.5" x2="73.5" y1="134.4141" y2="528.6328"/><line style="stroke:#A80036;stroke-width:1.5;stroke-dasharray:5.0,5.0;" x1="207" x2="207" y1="134.4141" y2="528.6328"/><text fill="#000000" font-family="sans-serif" font-size="21" lengthAdjust="spacing" textLength="124.5" x="7.5" y="129.7998">Administrator</text><ellipse cx="74.25" cy="22.5" fill="#FEFECE" filter="url(#f1e0w0x2dq15mz)" rx="12" ry="12" style="stroke:#A80036;stroke-width:3.0;"/><path d="M74.25,34.5 L74.25,75 M54.75,46.5 L93.75,46.5 M74.25,75 L54.75,97.5 M74.25,75 L93.75,97.5 " fill="none" filter="url(#f1e0w0x2dq15mz)" style="stroke:#A80036;stroke-width:3.0;"/><text fill="#000000" font-family="sans-serif" font-size="21" lengthAdjust="spacing" textLength="124.5" x="7.5" y="548.9326">Administrator</text><ellipse cx="74.25" cy="568.5469" fill="#FEFECE" filter="url(#f1e0w0x2dq15mz)" rx="12" ry="12" style="stroke:#A80036;stroke-width:3.0;"/><path d="M74.25,580.5469 L74.25,621.0469 M54.75,592.5469 L93.75,592.5469 M74.25,621.0469 L54.75,643.5469 M74.25,621.0469 L93.75,643.5469 " fill="none" filter="url(#f1e0w0x2dq15mz)" style="stroke:#A80036;stroke-width:3.0;"/><rect fill="#FEFECE" filter="url(#f1e0w0x2dq15mz)" height="47.4141" style="stroke:#A80036;stroke-width:2.25;" width="96" x="156" y="79.5"/><text fill="#000000" font-family="sans-serif" font-size="21" lengthAdjust="spacing" textLength="75" x="166.5" y="111.7998">:System</text><rect fill="#FEFECE" filter="url(#f1e0w0x2dq15mz)" height="47.4141" style="stroke:#A80036;stroke-width:2.25;" width="96" x="156" y="527.1328"/><text fill="#000000" font-family="sans-serif" font-size="21" lengthAdjust="spacing" textLength="75" x="166.5" y="559.4326">:System</text><rect fill="#FFFFFF" filter="url(#f1e0w0x2dq15mz)" height="352.2188" style="stroke:#A80036;stroke-width:1.5;" width="15" x="66.75" y="149.4141"/><rect fill="#FFFFFF" filter="url(#f1e0w0x2dq15mz)" height="45.5273" style="stroke:#A80036;stroke-width:1.5;" width="15" x="199.5" y="182.9414"/><rect fill="#FFFFFF" filter="url(#f1e0w0x2dq15mz)" height="45.5273" style="stroke:#A80036;stroke-width:1.5;" width="15" x="199.5" y="273.9961"/><rect fill="#FFFFFF" filter="url(#f1e0w0x2dq15mz)" height="45.5273" style="stroke:#A80036;stroke-width:1.5;" width="15" x="199.5" y="365.0508"/><rect fill="#FFFFFF" filter="url(#f1e0w0x2dq15mz)" height="45.5273" style="stroke:#A80036;stroke-width:1.5;" width="15" x="199.5" y="456.1055"/><polygon fill="#A80036" points="181.5,176.9414,196.5,182.9414,181.5,188.9414,187.5,182.9414" style="stroke:#A80036;stroke-width:1.5;"/><line style="stroke:#A80036;stroke-width:1.5;" x1="81.75" x2="190.5" y1="182.9414" y2="182.9414"/><text fill="#000000" font-family="sans-serif" font-size="19.5" font-weight="bold" lengthAdjust="spacing" textLength="10.5" x="92.25" y="175.6567">1</text><text fill="#000000" font-family="sans-serif" font-size="19.5" lengthAdjust="spacing" textLength="0" x="114.75" y="175.6567"/><polygon fill="#A80036" points="98.25,222.4688,83.25,228.4688,98.25,234.4688,92.25,228.4688" style="stroke:#A80036;stroke-width:1.5;"/><line style="stroke:#A80036;stroke-width:1.5;stroke-dasharray:2.0,2.0;" x1="89.25" x2="205.5" y1="228.4688" y2="228.4688"/><text fill="#000000" font-family="sans-serif" font-size="19.5" font-weight="bold" lengthAdjust="spacing" textLength="10.5" x="107.25" y="221.1841">2</text><text fill="#000000" font-family="sans-serif" font-size="19.5" lengthAdjust="spacing" textLength="0" x="129.75" y="221.1841"/><polygon fill="#A80036" points="181.5,267.9961,196.5,273.9961,181.5,279.9961,187.5,273.9961" style="stroke:#A80036;stroke-width:1.5;"/><line style="stroke:#A80036;stroke-width:1.5;" x1="81.75" x2="190.5" y1="273.9961" y2="273.9961"/><text fill="#000000" font-family="sans-serif" font-size="19.5" font-weight="bold" lengthAdjust="spacing" textLength="10.5" x="92.25" y="266.7114">3</text><text fill="#000000" font-family="sans-serif" font-size="19.5" lengthAdjust="spacing" textLength="0" x="114.75" y="266.7114"/><polygon fill="#A80036" points="98.25,313.5234,83.25,319.5234,98.25,325.5234,92.25,319.5234" style="stroke:#A80036;stroke-width:1.5;"/><line style="stroke:#A80036;stroke-width:1.5;stroke-dasharray:2.0,2.0;" x1="89.25" x2="205.5" y1="319.5234" y2="319.5234"/><text fill="#000000" font-family="sans-serif" font-size="19.5" font-weight="bold" lengthAdjust="spacing" textLength="10.5" x="107.25" y="312.2388">4</text><text fill="#000000" font-family="sans-serif" font-size="19.5" lengthAdjust="spacing" textLength="0" x="129.75" y="312.2388"/><polygon fill="#A80036" points="181.5,359.0508,196.5,365.0508,181.5,371.0508,187.5,365.0508" style="stroke:#A80036;stroke-width:1.5;"/><line style="stroke:#A80036;stroke-width:1.5;" x1="81.75" x2="190.5" y1="365.0508" y2="365.0508"/><text fill="#000000" font-family="sans-serif" font-size="19.5" font-weight="bold" lengthAdjust="spacing" textLength="10.5" x="92.25" y="357.7661">5</text><text fill="#000000" font-family="sans-serif" font-size="19.5" lengthAdjust="spacing" textLength="0" x="114.75" y="357.7661"/><polygon fill="#A80036" points="98.25,404.5781,83.25,410.5781,98.25,416.5781,92.25,410.5781" style="stroke:#A80036;stroke-width:1.5;"/><line style="stroke:#A80036;stroke-width:1.5;stroke-dasharray:2.0,2.0;" x1="89.25" x2="205.5" y1="410.5781" y2="410.5781"/><text fill="#000000" font-family="sans-serif" font-size="19.5" font-weight="bold" lengthAdjust="spacing" textLength="10.5" x="107.25" y="403.2935">6</text><text fill="#000000" font-family="sans-serif" font-size="19.5" lengthAdjust="spacing" textLength="0" x="129.75" y="403.2935"/><polygon fill="#A80036" points="181.5,450.1055,196.5,456.1055,181.5,462.1055,187.5,456.1055" style="stroke:#A80036;stroke-width:1.5;"/><line style="stroke:#A80036;stroke-width:1.5;" x1="81.75" x2="190.5" y1="456.1055" y2="456.1055"/><text fill="#000000" font-family="sans-serif" font-size="19.5" font-weight="bold" lengthAdjust="spacing" textLength="10.5" x="92.25" y="448.8208">7</text><text fill="#000000" font-family="sans-serif" font-size="19.5" lengthAdjust="spacing" textLength="0" x="114.75" y="448.8208"/><polygon fill="#A80036" points="90.75,495.6328,75.75,501.6328,90.75,507.6328,84.75,501.6328" style="stroke:#A80036;stroke-width:1.5;"/><line style="stroke:#A80036;stroke-width:1.5;stroke-dasharray:2.0,2.0;" x1="81.75" x2="205.5" y1="501.6328" y2="501.6328"/><text fill="#000000" font-family="sans-serif" font-size="19.5" font-weight="bold" lengthAdjust="spacing" textLength="10.5" x="99.75" y="494.3481">8</text><text fill="#000000" font-family="sans-serif" font-size="19.5" lengthAdjust="spacing" textLength="0" x="122.25" y="494.3481"/><!--MD5=[13397a3760a76e148d749a5147903496]
@startuml
autonumber
actor "Administrator" as Adm

activate Adm
Adm -> ":System" : 
activate ":System"
":System" - -> Adm : 
deactivate ":System"

Adm -> ":System" : 
activate ":System"
":System" - -> Adm : 
deactivate ":System"

Adm -> ":System" : 
activate ":System"


":System" - -> Adm : 
deactivate ":System"

Adm -> ":System" : 
activate ":System"
":System" - -> Adm : 
deactivate ":System"

deactivate Adm

@enduml

PlantUML version 1.2021.5(Sun Apr 25 12:20:28 BST 2021)
(GPL source distribution)
Java Runtime: OpenJDK Runtime Environment
JVM: OpenJDK 64-Bit Server VM
Default Encoding: Cp1252
Language: pt
Country: PT
--></g></svg>