<?xml version="1.0" encoding="UTF-8" standalone="no"?><svg xmlns="http://www.w3.org/2000/svg" xmlns:xlink="http://www.w3.org/1999/xlink" contentScriptType="application/ecmascript" contentStyleType="text/css" height="782.1px" preserveAspectRatio="none" style="width:833px;height:782px;" version="1.1" viewBox="0 0 833 782" width="833.4px" zoomAndPan="magnify"><defs><filter height="300%" id="f1fdg2p6ytaj73" width="300%" x="-1" y="-1"><feGaussianBlur result="blurOut" stdDeviation="1.8"/><feColorMatrix in="blurOut" result="blurOut2" type="matrix" values="0 0 0 0 0 0 0 0 0 0 0 0 0 0 0 0 0 0 .4 0"/><feOffset dx="3.6" dy="3.6" in="blurOut2" result="blurOut3"/><feBlend in="SourceGraphic" in2="blurOut3" mode="normal"/></filter></defs><g><!--MD5=[9681dc6e01e10c6b4fe06895ae94f592]
cluster UI--><polygon fill="#FFFFFF" filter="url(#f1fdg2p6ytaj73)" points="587.7,5.4,605.7,5.4,612,26.6484,760.5,26.6484,760.5,95.4,587.7,95.4,587.7,5.4" style="stroke:#000000;stroke-width:1.35;"/><line style="stroke:#000000;stroke-width:1.35;" x1="587.7" x2="612" y1="26.6484" y2="26.6484"/><text fill="#000000" font-family="sans-serif" font-size="12.6" font-weight="bold" lengthAdjust="spacing" textLength="12.6" x="591.3" y="20.2799">UI</text><!--MD5=[1f2cfc53d9d308f53762fd0fcbaa4873]
cluster Controller--><polygon fill="#FFFFFF" filter="url(#f1fdg2p6ytaj73)" points="400.5,125.1,469.8,125.1,476.1,146.3484,609.3,146.3484,609.3,252.9,400.5,252.9,400.5,125.1" style="stroke:#000000;stroke-width:1.35;"/><line style="stroke:#000000;stroke-width:1.35;" x1="400.5" x2="476.1" y1="146.3484" y2="146.3484"/><text fill="#000000" font-family="sans-serif" font-size="12.6" font-weight="bold" lengthAdjust="spacing" textLength="63.9" x="404.1" y="139.9799">Controller</text><!--MD5=[15636c1ca4a123c16a2a1a8e90aca7a9]
cluster Model--><polygon fill="#FFFFFF" filter="url(#f1fdg2p6ytaj73)" points="239.4,402.3,284.4,402.3,290.7,423.5484,503.1,423.5484,503.1,775.8,239.4,775.8,239.4,402.3" style="stroke:#000000;stroke-width:1.35;"/><line style="stroke:#000000;stroke-width:1.35;" x1="239.4" x2="290.7" y1="423.5484" y2="423.5484"/><text fill="#000000" font-family="sans-serif" font-size="12.6" font-weight="bold" lengthAdjust="spacing" textLength="39.6" x="243" y="417.1799">Model</text><!--MD5=[7ce1723ddb6e6233854253973eae5a71]
cluster Store--><polygon fill="#FFFFFF" filter="url(#f1fdg2p6ytaj73)" points="14.4,560.7,54,560.7,60.3,581.9484,217.8,581.9484,217.8,675.9,14.4,675.9,14.4,560.7" style="stroke:#000000;stroke-width:1.35;"/><line style="stroke:#000000;stroke-width:1.35;" x1="14.4" x2="60.3" y1="581.9484" y2="581.9484"/><text fill="#000000" font-family="sans-serif" font-size="12.6" font-weight="bold" lengthAdjust="spacing" textLength="34.2" x="18" y="575.5799">Store</text><!--MD5=[701152d03fbf85133a1de050cfdbc7fd]
cluster Mappers--><polygon fill="#FFFFFF" filter="url(#f1fdg2p6ytaj73)" points="352.8,282.6,414,282.6,420.3,303.8484,640.8,303.8484,640.8,372.6,352.8,372.6,352.8,282.6" style="stroke:#000000;stroke-width:1.35;"/><line style="stroke:#000000;stroke-width:1.35;" x1="352.8" x2="420.3" y1="303.8484" y2="303.8484"/><text fill="#000000" font-family="sans-serif" font-size="12.6" font-weight="bold" lengthAdjust="spacing" textLength="55.8" x="356.4" y="297.4799">Mappers</text><!--MD5=[7b8bc9ee8bb84b99fb3a3f9477c19238]
cluster DTO--><polygon fill="#FFFFFF" filter="url(#f1fdg2p6ytaj73)" points="569.7,414.9,601.2,414.9,607.5,436.1484,818.1,436.1484,818.1,504.9,569.7,504.9,569.7,414.9" style="stroke:#000000;stroke-width:1.35;"/><line style="stroke:#000000;stroke-width:1.35;" x1="569.7" x2="607.5" y1="436.1484" y2="436.1484"/><text fill="#000000" font-family="sans-serif" font-size="12.6" font-weight="bold" lengthAdjust="spacing" textLength="26.1" x="573.3" y="429.7799">DTO</text><!--MD5=[74f96c6b5cb9a58eaf37c19a32263daa]
class CreateMedicalReportUI--><rect codeLine="3" fill="#FEFECE" filter="url(#f1fdg2p6ytaj73)" height="43.2" id="CreateMedicalReportUI" style="stroke:#A80036;stroke-width:1.35;" width="144" x="602.1" y="37.8"/><ellipse cx="615.6" cy="52.2" fill="#ADD1B2" rx="9.9" ry="9.9" style="stroke:#A80036;stroke-width:0.9;"/><path d="M617.4,49.05 Q617.5828,48.6 617.7938,48.375 Q618.0047,48.15 618.2438,48.15 Q618.6656,48.15 618.9328,48.4031 Q619.2,48.6563 619.2,49.2469 L619.2,50.6531 Q619.2,51.2438 618.9469,51.4969 Q618.6938,51.75 618.3,51.75 Q617.9484,51.75 617.7234,51.5953 Q617.4984,51.4406 617.4,51.0328 Q617.3578,50.7516 617.2031,50.5969 Q616.9219,50.3016 616.4156,50.1328 Q615.9094,49.95 615.4031,49.95 Q614.7703,49.95 614.2359,50.2031 Q613.7156,50.4563 613.3078,51.0188 Q612.9,51.5813 612.9,52.3547 L612.9,53.1844 Q612.9,54.1125 613.6594,54.7313 Q614.4188,55.35 615.7688,55.35 Q616.5703,55.35 617.1328,55.1672 Q617.4563,55.0688 617.8219,54.7453 Q618.0609,54.5625 618.1875,54.5063 Q618.3141,54.45 618.4688,54.45 Q618.7641,54.45 618.975,54.6891 Q619.2,54.9141 619.2,55.2375 Q619.2,55.5469 618.8906,55.9125 Q618.4406,56.4469 617.7234,56.7422 Q616.7813,57.15 615.6281,57.15 Q614.2781,57.15 613.1953,56.6156 Q612.3234,56.1938 611.7047,55.2797 Q611.1,54.3656 611.1,53.2828 L611.1,52.2984 Q611.1,51.1734 611.6344,50.1891 Q612.1828,49.2047 613.125,48.6844 Q614.0813,48.15 615.15,48.15 Q615.7969,48.15 616.3594,48.375 Q616.9219,48.6 617.4,49.05 Z " fill="#000000"/><text fill="#000000" font-family="sans-serif" font-size="10.8" lengthAdjust="spacing" textLength="115.2" x="628.2" y="56.6191">CreateMedicalReportUI</text><line style="stroke:#A80036;stroke-width:1.35;" x1="603" x2="745.2" y1="66.6" y2="66.6"/><line style="stroke:#A80036;stroke-width:1.35;" x1="603" x2="745.2" y1="73.8" y2="73.8"/><!--MD5=[06e126f56af4ab43b21736070eeb8909]
class CreateMedicalReporController--><rect codeLine="8" fill="#FEFECE" filter="url(#f1fdg2p6ytaj73)" height="80.557" id="CreateMedicalReporController" style="stroke:#A80036;stroke-width:1.35;" width="179.1" x="415.35" y="157.5"/><ellipse cx="428.85" cy="171.9" fill="#ADD1B2" rx="9.9" ry="9.9" style="stroke:#A80036;stroke-width:0.9;"/><path d="M430.65,168.75 Q430.8328,168.3 431.0438,168.075 Q431.2547,167.85 431.4938,167.85 Q431.9156,167.85 432.1828,168.1031 Q432.45,168.3563 432.45,168.9469 L432.45,170.3531 Q432.45,170.9438 432.1969,171.1969 Q431.9438,171.45 431.55,171.45 Q431.1984,171.45 430.9734,171.2953 Q430.7484,171.1406 430.65,170.7328 Q430.6078,170.4516 430.4531,170.2969 Q430.1719,170.0016 429.6656,169.8328 Q429.1594,169.65 428.6531,169.65 Q428.0203,169.65 427.4859,169.9031 Q426.9656,170.1563 426.5578,170.7188 Q426.15,171.2813 426.15,172.0547 L426.15,172.8844 Q426.15,173.8125 426.9094,174.4313 Q427.6688,175.05 429.0188,175.05 Q429.8203,175.05 430.3828,174.8672 Q430.7063,174.7688 431.0719,174.4453 Q431.3109,174.2625 431.4375,174.2063 Q431.5641,174.15 431.7188,174.15 Q432.0141,174.15 432.225,174.3891 Q432.45,174.6141 432.45,174.9375 Q432.45,175.2469 432.1406,175.6125 Q431.6906,176.1469 430.9734,176.4422 Q430.0313,176.85 428.8781,176.85 Q427.5281,176.85 426.4453,176.3156 Q425.5734,175.8938 424.9547,174.9797 Q424.35,174.0656 424.35,172.9828 L424.35,171.9984 Q424.35,170.8734 424.8844,169.8891 Q425.4328,168.9047 426.375,168.3844 Q427.3313,167.85 428.4,167.85 Q429.0469,167.85 429.6094,168.075 Q430.1719,168.3 430.65,168.75 Z " fill="#000000"/><text fill="#000000" font-family="sans-serif" font-size="10.8" lengthAdjust="spacing" textLength="150.3" x="441.45" y="176.3191">CreateMedicalReporController</text><line style="stroke:#A80036;stroke-width:1.35;" x1="416.25" x2="593.55" y1="186.3" y2="186.3"/><line style="stroke:#A80036;stroke-width:1.35;" x1="416.25" x2="593.55" y1="193.5" y2="193.5"/><ellipse cx="425.25" cy="203.4" fill="#84BE84" rx="2.7" ry="2.7" style="stroke:#038048;stroke-width:0.9;"/><text fill="#000000" font-family="sans-serif" font-size="9.9" lengthAdjust="spacing" textLength="150.3" x="433.35" y="207.3771">getTestHasSamplesAnalyzedList()</text><ellipse cx="425.25" cy="215.8523" fill="#84BE84" rx="2.7" ry="2.7" style="stroke:#038048;stroke-width:0.9;"/><text fill="#000000" font-family="sans-serif" font-size="9.9" lengthAdjust="spacing" textLength="99" x="433.35" y="219.8294">getTestParameterList()</text><ellipse cx="425.25" cy="228.3047" fill="#84BE84" rx="2.7" ry="2.7" style="stroke:#038048;stroke-width:0.9;"/><text fill="#000000" font-family="sans-serif" font-size="9.9" lengthAdjust="spacing" textLength="96.3" x="433.35" y="232.2817">createMedicalReport()</text><!--MD5=[02e4b9b7573f1156f41e60aa5b4e25a4]
class Company--><rect codeLine="16" fill="#FEFECE" filter="url(#f1fdg2p6ytaj73)" height="68.1047" id="Company" style="stroke:#A80036;stroke-width:1.35;" width="100.8" x="253.8" y="434.7"/><ellipse cx="278.235" cy="449.1" fill="#ADD1B2" rx="9.9" ry="9.9" style="stroke:#A80036;stroke-width:0.9;"/><path d="M280.035,445.95 Q280.2178,445.5 280.4288,445.275 Q280.6397,445.05 280.8787,445.05 Q281.3006,445.05 281.5678,445.3031 Q281.835,445.5563 281.835,446.1469 L281.835,447.5531 Q281.835,448.1438 281.5819,448.3969 Q281.3288,448.65 280.935,448.65 Q280.5834,448.65 280.3584,448.4953 Q280.1334,448.3406 280.035,447.9328 Q279.9928,447.6516 279.8381,447.4969 Q279.5569,447.2016 279.0506,447.0328 Q278.5444,446.85 278.0381,446.85 Q277.4053,446.85 276.8709,447.1031 Q276.3506,447.3563 275.9428,447.9188 Q275.535,448.4813 275.535,449.2547 L275.535,450.0844 Q275.535,451.0125 276.2944,451.6313 Q277.0538,452.25 278.4038,452.25 Q279.2053,452.25 279.7678,452.0672 Q280.0913,451.9688 280.4569,451.6453 Q280.6959,451.4625 280.8225,451.4063 Q280.9491,451.35 281.1038,451.35 Q281.3991,451.35 281.61,451.5891 Q281.835,451.8141 281.835,452.1375 Q281.835,452.4469 281.5256,452.8125 Q281.0756,453.3469 280.3584,453.6422 Q279.4163,454.05 278.2631,454.05 Q276.9131,454.05 275.8303,453.5156 Q274.9584,453.0938 274.3397,452.1797 Q273.735,451.2656 273.735,450.1828 L273.735,449.1984 Q273.735,448.0734 274.2694,447.0891 Q274.8178,446.1047 275.76,445.5844 Q276.7163,445.05 277.785,445.05 Q278.4319,445.05 278.9944,445.275 Q279.5569,445.5 280.035,445.95 Z " fill="#000000"/><text fill="#000000" font-family="sans-serif" font-size="10.8" lengthAdjust="spacing" textLength="47.7" x="293.265" y="453.5191">Company</text><line style="stroke:#A80036;stroke-width:1.35;" x1="254.7" x2="353.7" y1="463.5" y2="463.5"/><rect fill="none" height="5.4" style="stroke:#C82930;stroke-width:0.9;" width="5.4" x="261" y="470.7"/><text fill="#000000" font-family="sans-serif" font-size="9.9" lengthAdjust="spacing" textLength="77.4" x="271.8" y="477.3771">String designation</text><line style="stroke:#A80036;stroke-width:1.35;" x1="254.7" x2="353.7" y1="483.1523" y2="483.1523"/><ellipse cx="263.7" cy="493.0523" fill="#84BE84" rx="2.7" ry="2.7" style="stroke:#038048;stroke-width:0.9;"/><text fill="#000000" font-family="sans-serif" font-size="9.9" lengthAdjust="spacing" textLength="63" x="271.8" y="497.0294">getTestStore()</text><!--MD5=[df38be88ccee13e832d6fafd6288a4ca]
class Test--><rect codeLine="21" fill="#FEFECE" filter="url(#f1fdg2p6ytaj73)" height="68.1047" id="Test" style="stroke:#A80036;stroke-width:1.35;" width="145.8" x="297.9" y="593.1"/><ellipse cx="356.175" cy="607.5" fill="#ADD1B2" rx="9.9" ry="9.9" style="stroke:#A80036;stroke-width:0.9;"/><path d="M357.975,604.35 Q358.1578,603.9 358.3688,603.675 Q358.5797,603.45 358.8188,603.45 Q359.2406,603.45 359.5078,603.7031 Q359.775,603.9563 359.775,604.5469 L359.775,605.9531 Q359.775,606.5438 359.5219,606.7969 Q359.2688,607.05 358.875,607.05 Q358.5234,607.05 358.2984,606.8953 Q358.0734,606.7406 357.975,606.3328 Q357.9328,606.0516 357.7781,605.8969 Q357.4969,605.6016 356.9906,605.4328 Q356.4844,605.25 355.9781,605.25 Q355.3453,605.25 354.8109,605.5031 Q354.2906,605.7563 353.8828,606.3188 Q353.475,606.8813 353.475,607.6547 L353.475,608.4844 Q353.475,609.4125 354.2344,610.0313 Q354.9938,610.65 356.3438,610.65 Q357.1453,610.65 357.7078,610.4672 Q358.0313,610.3688 358.3969,610.0453 Q358.6359,609.8625 358.7625,609.8063 Q358.8891,609.75 359.0438,609.75 Q359.3391,609.75 359.55,609.9891 Q359.775,610.2141 359.775,610.5375 Q359.775,610.8469 359.4656,611.2125 Q359.0156,611.7469 358.2984,612.0422 Q357.3563,612.45 356.2031,612.45 Q354.8531,612.45 353.7703,611.9156 Q352.8984,611.4938 352.2797,610.5797 Q351.675,609.6656 351.675,608.5828 L351.675,607.5984 Q351.675,606.4734 352.2094,605.4891 Q352.7578,604.5047 353.7,603.9844 Q354.6563,603.45 355.725,603.45 Q356.3719,603.45 356.9344,603.675 Q357.4969,603.9 357.975,604.35 Z " fill="#000000"/><text fill="#000000" font-family="sans-serif" font-size="10.8" lengthAdjust="spacing" textLength="21.6" x="374.625" y="611.9191">Test</text><line style="stroke:#A80036;stroke-width:1.35;" x1="298.8" x2="442.8" y1="621.9" y2="621.9"/><line style="stroke:#A80036;stroke-width:1.35;" x1="298.8" x2="442.8" y1="629.1" y2="629.1"/><ellipse cx="307.8" cy="639" fill="#84BE84" rx="2.7" ry="2.7" style="stroke:#038048;stroke-width:0.9;"/><text fill="#000000" font-family="sans-serif" font-size="9.9" lengthAdjust="spacing" textLength="109.8" x="315.9" y="642.9771">getParametersResulList()</text><ellipse cx="307.8" cy="651.4523" fill="#84BE84" rx="2.7" ry="2.7" style="stroke:#038048;stroke-width:0.9;"/><text fill="#000000" font-family="sans-serif" font-size="9.9" lengthAdjust="spacing" textLength="122.4" x="315.9" y="655.4294">createMedicalReport(report)</text><!--MD5=[b2d1f399f1909a0bb241ed0598ba126f]
class MedicalReport--><rect codeLine="26" fill="#FEFECE" filter="url(#f1fdg2p6ytaj73)" height="43.2" id="MedicalReport" style="stroke:#A80036;stroke-width:1.35;" width="99.9" x="320.85" y="718.2"/><ellipse cx="334.35" cy="732.6" fill="#ADD1B2" rx="9.9" ry="9.9" style="stroke:#A80036;stroke-width:0.9;"/><path d="M336.15,729.45 Q336.3328,729 336.5438,728.775 Q336.7547,728.55 336.9938,728.55 Q337.4156,728.55 337.6828,728.8031 Q337.95,729.0563 337.95,729.6469 L337.95,731.0531 Q337.95,731.6438 337.6969,731.8969 Q337.4438,732.15 337.05,732.15 Q336.6984,732.15 336.4734,731.9953 Q336.2484,731.8406 336.15,731.4328 Q336.1078,731.1516 335.9531,730.9969 Q335.6719,730.7016 335.1656,730.5328 Q334.6594,730.35 334.1531,730.35 Q333.5203,730.35 332.9859,730.6031 Q332.4656,730.8563 332.0578,731.4188 Q331.65,731.9813 331.65,732.7547 L331.65,733.5844 Q331.65,734.5125 332.4094,735.1313 Q333.1688,735.75 334.5188,735.75 Q335.3203,735.75 335.8828,735.5672 Q336.2063,735.4688 336.5719,735.1453 Q336.8109,734.9625 336.9375,734.9063 Q337.0641,734.85 337.2188,734.85 Q337.5141,734.85 337.725,735.0891 Q337.95,735.3141 337.95,735.6375 Q337.95,735.9469 337.6406,736.3125 Q337.1906,736.8469 336.4734,737.1422 Q335.5313,737.55 334.3781,737.55 Q333.0281,737.55 331.9453,737.0156 Q331.0734,736.5938 330.4547,735.6797 Q329.85,734.7656 329.85,733.6828 L329.85,732.6984 Q329.85,731.5734 330.3844,730.5891 Q330.9328,729.6047 331.875,729.0844 Q332.8313,728.55 333.9,728.55 Q334.5469,728.55 335.1094,728.775 Q335.6719,729 336.15,729.45 Z " fill="#000000"/><text fill="#000000" font-family="sans-serif" font-size="10.8" lengthAdjust="spacing" textLength="71.1" x="346.95" y="737.0191">MedicalReport</text><line style="stroke:#A80036;stroke-width:1.35;" x1="321.75" x2="419.85" y1="747" y2="747"/><line style="stroke:#A80036;stroke-width:1.35;" x1="321.75" x2="419.85" y1="754.2" y2="754.2"/><!--MD5=[0f07739f46effee96e095e9c408da841]
class TestParameter--><rect codeLine="29" fill="#FEFECE" filter="url(#f1fdg2p6ytaj73)" height="43.2" id="TestParameter" style="stroke:#A80036;stroke-width:1.35;" width="102.6" x="386.1" y="447.3"/><ellipse cx="399.6" cy="461.7" fill="#ADD1B2" rx="9.9" ry="9.9" style="stroke:#A80036;stroke-width:0.9;"/><path d="M401.4,458.55 Q401.5828,458.1 401.7938,457.875 Q402.0047,457.65 402.2438,457.65 Q402.6656,457.65 402.9328,457.9031 Q403.2,458.1563 403.2,458.7469 L403.2,460.1531 Q403.2,460.7438 402.9469,460.9969 Q402.6938,461.25 402.3,461.25 Q401.9484,461.25 401.7234,461.0953 Q401.4984,460.9406 401.4,460.5328 Q401.3578,460.2516 401.2031,460.0969 Q400.9219,459.8016 400.4156,459.6328 Q399.9094,459.45 399.4031,459.45 Q398.7703,459.45 398.2359,459.7031 Q397.7156,459.9563 397.3078,460.5188 Q396.9,461.0813 396.9,461.8547 L396.9,462.6844 Q396.9,463.6125 397.6594,464.2313 Q398.4188,464.85 399.7688,464.85 Q400.5703,464.85 401.1328,464.6672 Q401.4563,464.5688 401.8219,464.2453 Q402.0609,464.0625 402.1875,464.0063 Q402.3141,463.95 402.4688,463.95 Q402.7641,463.95 402.975,464.1891 Q403.2,464.4141 403.2,464.7375 Q403.2,465.0469 402.8906,465.4125 Q402.4406,465.9469 401.7234,466.2422 Q400.7813,466.65 399.6281,466.65 Q398.2781,466.65 397.1953,466.1156 Q396.3234,465.6938 395.7047,464.7797 Q395.1,463.8656 395.1,462.7828 L395.1,461.7984 Q395.1,460.6734 395.6344,459.6891 Q396.1828,458.7047 397.125,458.1844 Q398.0813,457.65 399.15,457.65 Q399.7969,457.65 400.3594,457.875 Q400.9219,458.1 401.4,458.55 Z " fill="#000000"/><text fill="#000000" font-family="sans-serif" font-size="10.8" lengthAdjust="spacing" textLength="73.8" x="412.2" y="466.1191">TestParameter</text><line style="stroke:#A80036;stroke-width:1.35;" x1="387" x2="487.8" y1="476.1" y2="476.1"/><line style="stroke:#A80036;stroke-width:1.35;" x1="387" x2="487.8" y1="483.3" y2="483.3"/><!--MD5=[0f6f7964b844a64b0496af0dda7914bd]
class TestStore--><rect codeLine="34" fill="#FEFECE" filter="url(#f1fdg2p6ytaj73)" height="68.1047" id="TestStore" style="stroke:#A80036;stroke-width:1.35;" width="173.7" x="29.25" y="593.1"/><ellipse cx="88.425" cy="607.5" fill="#ADD1B2" rx="9.9" ry="9.9" style="stroke:#A80036;stroke-width:0.9;"/><path d="M90.225,604.35 Q90.4078,603.9 90.6188,603.675 Q90.8297,603.45 91.0688,603.45 Q91.4906,603.45 91.7578,603.7031 Q92.025,603.9563 92.025,604.5469 L92.025,605.9531 Q92.025,606.5438 91.7719,606.7969 Q91.5188,607.05 91.125,607.05 Q90.7734,607.05 90.5484,606.8953 Q90.3234,606.7406 90.225,606.3328 Q90.1828,606.0516 90.0281,605.8969 Q89.7469,605.6016 89.2406,605.4328 Q88.7344,605.25 88.2281,605.25 Q87.5953,605.25 87.0609,605.5031 Q86.5406,605.7563 86.1328,606.3188 Q85.725,606.8813 85.725,607.6547 L85.725,608.4844 Q85.725,609.4125 86.4844,610.0313 Q87.2438,610.65 88.5938,610.65 Q89.3953,610.65 89.9578,610.4672 Q90.2813,610.3688 90.6469,610.0453 Q90.8859,609.8625 91.0125,609.8063 Q91.1391,609.75 91.2938,609.75 Q91.5891,609.75 91.8,609.9891 Q92.025,610.2141 92.025,610.5375 Q92.025,610.8469 91.7156,611.2125 Q91.2656,611.7469 90.5484,612.0422 Q89.6063,612.45 88.4531,612.45 Q87.1031,612.45 86.0203,611.9156 Q85.1484,611.4938 84.5297,610.5797 Q83.925,609.6656 83.925,608.5828 L83.925,607.5984 Q83.925,606.4734 84.4594,605.4891 Q85.0078,604.5047 85.95,603.9844 Q86.9063,603.45 87.975,603.45 Q88.6219,603.45 89.1844,603.675 Q89.7469,603.9 90.225,604.35 Z " fill="#000000"/><text fill="#000000" font-family="sans-serif" font-size="10.8" lengthAdjust="spacing" textLength="47.7" x="106.875" y="611.9191">TestStore</text><line style="stroke:#A80036;stroke-width:1.35;" x1="30.15" x2="202.05" y1="621.9" y2="621.9"/><line style="stroke:#A80036;stroke-width:1.35;" x1="30.15" x2="202.05" y1="629.1" y2="629.1"/><ellipse cx="39.15" cy="639" fill="#84BE84" rx="2.7" ry="2.7" style="stroke:#038048;stroke-width:0.9;"/><text fill="#000000" font-family="sans-serif" font-size="9.9" lengthAdjust="spacing" textLength="150.3" x="47.25" y="642.9771">getTestHasSamplesAnalyzedList()</text><ellipse cx="39.15" cy="651.4523" fill="#84BE84" rx="2.7" ry="2.7" style="stroke:#038048;stroke-width:0.9;"/><text fill="#000000" font-family="sans-serif" font-size="9.9" lengthAdjust="spacing" textLength="126.9" x="47.25" y="655.4294">getTestByInternalCode(code)</text><!--MD5=[144698ec4d0188f6929a3b58a3eeb1f6]
class TestMapper--><rect codeLine="41" fill="#FEFECE" filter="url(#f1fdg2p6ytaj73)" height="43.2" id="TestMapper" style="stroke:#A80036;stroke-width:1.35;" width="87.3" x="538.65" y="315"/><ellipse cx="552.15" cy="329.4" fill="#ADD1B2" rx="9.9" ry="9.9" style="stroke:#A80036;stroke-width:0.9;"/><path d="M553.95,326.25 Q554.1328,325.8 554.3438,325.575 Q554.5547,325.35 554.7938,325.35 Q555.2156,325.35 555.4828,325.6031 Q555.75,325.8563 555.75,326.4469 L555.75,327.8531 Q555.75,328.4438 555.4969,328.6969 Q555.2438,328.95 554.85,328.95 Q554.4984,328.95 554.2734,328.7953 Q554.0484,328.6406 553.95,328.2328 Q553.9078,327.9516 553.7531,327.7969 Q553.4719,327.5016 552.9656,327.3328 Q552.4594,327.15 551.9531,327.15 Q551.3203,327.15 550.7859,327.4031 Q550.2656,327.6563 549.8578,328.2188 Q549.45,328.7813 549.45,329.5547 L549.45,330.3844 Q549.45,331.3125 550.2094,331.9313 Q550.9688,332.55 552.3188,332.55 Q553.1203,332.55 553.6828,332.3672 Q554.0063,332.2688 554.3719,331.9453 Q554.6109,331.7625 554.7375,331.7063 Q554.8641,331.65 555.0188,331.65 Q555.3141,331.65 555.525,331.8891 Q555.75,332.1141 555.75,332.4375 Q555.75,332.7469 555.4406,333.1125 Q554.9906,333.6469 554.2734,333.9422 Q553.3313,334.35 552.1781,334.35 Q550.8281,334.35 549.7453,333.8156 Q548.8734,333.3938 548.2547,332.4797 Q547.65,331.5656 547.65,330.4828 L547.65,329.4984 Q547.65,328.3734 548.1844,327.3891 Q548.7328,326.4047 549.675,325.8844 Q550.6313,325.35 551.7,325.35 Q552.3469,325.35 552.9094,325.575 Q553.4719,325.8 553.95,326.25 Z " fill="#000000"/><text fill="#000000" font-family="sans-serif" font-size="10.8" lengthAdjust="spacing" textLength="58.5" x="564.75" y="333.8191">TestMapper</text><line style="stroke:#A80036;stroke-width:1.35;" x1="539.55" x2="625.05" y1="343.8" y2="343.8"/><line style="stroke:#A80036;stroke-width:1.35;" x1="539.55" x2="625.05" y1="351" y2="351"/><!--MD5=[a82d32c079496d6dca2681dc0633feb0]
class TestParameterMapper--><rect codeLine="44" fill="#FEFECE" filter="url(#f1fdg2p6ytaj73)" height="43.2" id="TestParameterMapper" style="stroke:#A80036;stroke-width:1.35;" width="139.5" x="367.65" y="315"/><ellipse cx="381.15" cy="329.4" fill="#ADD1B2" rx="9.9" ry="9.9" style="stroke:#A80036;stroke-width:0.9;"/><path d="M382.95,326.25 Q383.1328,325.8 383.3438,325.575 Q383.5547,325.35 383.7938,325.35 Q384.2156,325.35 384.4828,325.6031 Q384.75,325.8563 384.75,326.4469 L384.75,327.8531 Q384.75,328.4438 384.4969,328.6969 Q384.2438,328.95 383.85,328.95 Q383.4984,328.95 383.2734,328.7953 Q383.0484,328.6406 382.95,328.2328 Q382.9078,327.9516 382.7531,327.7969 Q382.4719,327.5016 381.9656,327.3328 Q381.4594,327.15 380.9531,327.15 Q380.3203,327.15 379.7859,327.4031 Q379.2656,327.6563 378.8578,328.2188 Q378.45,328.7813 378.45,329.5547 L378.45,330.3844 Q378.45,331.3125 379.2094,331.9313 Q379.9688,332.55 381.3188,332.55 Q382.1203,332.55 382.6828,332.3672 Q383.0063,332.2688 383.3719,331.9453 Q383.6109,331.7625 383.7375,331.7063 Q383.8641,331.65 384.0188,331.65 Q384.3141,331.65 384.525,331.8891 Q384.75,332.1141 384.75,332.4375 Q384.75,332.7469 384.4406,333.1125 Q383.9906,333.6469 383.2734,333.9422 Q382.3313,334.35 381.1781,334.35 Q379.8281,334.35 378.7453,333.8156 Q377.8734,333.3938 377.2547,332.4797 Q376.65,331.5656 376.65,330.4828 L376.65,329.4984 Q376.65,328.3734 377.1844,327.3891 Q377.7328,326.4047 378.675,325.8844 Q379.6313,325.35 380.7,325.35 Q381.3469,325.35 381.9094,325.575 Q382.4719,325.8 382.95,326.25 Z " fill="#000000"/><text fill="#000000" font-family="sans-serif" font-size="10.8" lengthAdjust="spacing" textLength="110.7" x="393.75" y="333.8191">TestParameterMapper</text><line style="stroke:#A80036;stroke-width:1.35;" x1="368.55" x2="506.25" y1="343.8" y2="343.8"/><line style="stroke:#A80036;stroke-width:1.35;" x1="368.55" x2="506.25" y1="351" y2="351"/><!--MD5=[1c38f6084f2098752e2974895ca67f4c]
class TestDto--><rect codeLine="49" fill="#FEFECE" filter="url(#f1fdg2p6ytaj73)" height="43.2" id="TestDto" style="stroke:#A80036;stroke-width:1.35;" width="67.5" x="735.75" y="447.3"/><ellipse cx="749.25" cy="461.7" fill="#ADD1B2" rx="9.9" ry="9.9" style="stroke:#A80036;stroke-width:0.9;"/><path d="M751.05,458.55 Q751.2328,458.1 751.4438,457.875 Q751.6547,457.65 751.8938,457.65 Q752.3156,457.65 752.5828,457.9031 Q752.85,458.1563 752.85,458.7469 L752.85,460.1531 Q752.85,460.7438 752.5969,460.9969 Q752.3438,461.25 751.95,461.25 Q751.5984,461.25 751.3734,461.0953 Q751.1484,460.9406 751.05,460.5328 Q751.0078,460.2516 750.8531,460.0969 Q750.5719,459.8016 750.0656,459.6328 Q749.5594,459.45 749.0531,459.45 Q748.4203,459.45 747.8859,459.7031 Q747.3656,459.9563 746.9578,460.5188 Q746.55,461.0813 746.55,461.8547 L746.55,462.6844 Q746.55,463.6125 747.3094,464.2313 Q748.0688,464.85 749.4188,464.85 Q750.2203,464.85 750.7828,464.6672 Q751.1063,464.5688 751.4719,464.2453 Q751.7109,464.0625 751.8375,464.0063 Q751.9641,463.95 752.1188,463.95 Q752.4141,463.95 752.625,464.1891 Q752.85,464.4141 752.85,464.7375 Q752.85,465.0469 752.5406,465.4125 Q752.0906,465.9469 751.3734,466.2422 Q750.4313,466.65 749.2781,466.65 Q747.9281,466.65 746.8453,466.1156 Q745.9734,465.6938 745.3547,464.7797 Q744.75,463.8656 744.75,462.7828 L744.75,461.7984 Q744.75,460.6734 745.2844,459.6891 Q745.8328,458.7047 746.775,458.1844 Q747.7313,457.65 748.8,457.65 Q749.4469,457.65 750.0094,457.875 Q750.5719,458.1 751.05,458.55 Z " fill="#000000"/><text fill="#000000" font-family="sans-serif" font-size="10.8" lengthAdjust="spacing" textLength="38.7" x="761.85" y="466.1191">TestDto</text><line style="stroke:#A80036;stroke-width:1.35;" x1="736.65" x2="802.35" y1="476.1" y2="476.1"/><line style="stroke:#A80036;stroke-width:1.35;" x1="736.65" x2="802.35" y1="483.3" y2="483.3"/><!--MD5=[fa2f44d2bdbb0499bd765719ad83ddd6]
class TestParameterDto--><rect codeLine="52" fill="#FEFECE" filter="url(#f1fdg2p6ytaj73)" height="43.2" id="TestParameterDto" style="stroke:#A80036;stroke-width:1.35;" width="119.7" x="584.55" y="447.3"/><ellipse cx="598.05" cy="461.7" fill="#ADD1B2" rx="9.9" ry="9.9" style="stroke:#A80036;stroke-width:0.9;"/><path d="M599.85,458.55 Q600.0328,458.1 600.2438,457.875 Q600.4547,457.65 600.6938,457.65 Q601.1156,457.65 601.3828,457.9031 Q601.65,458.1563 601.65,458.7469 L601.65,460.1531 Q601.65,460.7438 601.3969,460.9969 Q601.1438,461.25 600.75,461.25 Q600.3984,461.25 600.1734,461.0953 Q599.9484,460.9406 599.85,460.5328 Q599.8078,460.2516 599.6531,460.0969 Q599.3719,459.8016 598.8656,459.6328 Q598.3594,459.45 597.8531,459.45 Q597.2203,459.45 596.6859,459.7031 Q596.1656,459.9563 595.7578,460.5188 Q595.35,461.0813 595.35,461.8547 L595.35,462.6844 Q595.35,463.6125 596.1094,464.2313 Q596.8688,464.85 598.2188,464.85 Q599.0203,464.85 599.5828,464.6672 Q599.9063,464.5688 600.2719,464.2453 Q600.5109,464.0625 600.6375,464.0063 Q600.7641,463.95 600.9188,463.95 Q601.2141,463.95 601.425,464.1891 Q601.65,464.4141 601.65,464.7375 Q601.65,465.0469 601.3406,465.4125 Q600.8906,465.9469 600.1734,466.2422 Q599.2313,466.65 598.0781,466.65 Q596.7281,466.65 595.6453,466.1156 Q594.7734,465.6938 594.1547,464.7797 Q593.55,463.8656 593.55,462.7828 L593.55,461.7984 Q593.55,460.6734 594.0844,459.6891 Q594.6328,458.7047 595.575,458.1844 Q596.5313,457.65 597.6,457.65 Q598.2469,457.65 598.8094,457.875 Q599.3719,458.1 599.85,458.55 Z " fill="#000000"/><text fill="#000000" font-family="sans-serif" font-size="10.8" lengthAdjust="spacing" textLength="90.9" x="610.65" y="466.1191">TestParameterDto</text><line style="stroke:#A80036;stroke-width:1.35;" x1="585.45" x2="703.35" y1="476.1" y2="476.1"/><line style="stroke:#A80036;stroke-width:1.35;" x1="585.45" x2="703.35" y1="483.3" y2="483.3"/><!--MD5=[50dba4782d39aa695de8235b3d83d588]
link CreateMedicalReportUI to CreateMedicalReporController--><path codeLine="57" d="M648.405,81.081 C624.42,100.467 587.889,130.005 557.694,154.413 " fill="none" id="CreateMedicalReportUI-to-CreateMedicalReporController" style="stroke:#A80036;stroke-width:0.9;stroke-dasharray:7.0,7.0;"/><polygon fill="#A80036" points="554.04,157.365,562.6018,155.0702,557.5388,154.5351,558.0739,149.4721,554.04,157.365" style="stroke:#A80036;stroke-width:0.9;"/><!--MD5=[aeb8291d4b487a7b64af0530e5d72900]
link CreateMedicalReportUI to TestDto--><path codeLine="58" d="M682.83,81.009 C686.304,89.784 690.156,100.188 693,109.8 C729.225,232.281 755.694,383.067 765.423,442.35 " fill="none" id="CreateMedicalReportUI-to-TestDto" style="stroke:#A80036;stroke-width:0.9;stroke-dasharray:7.0,7.0;"/><polygon fill="#A80036" points="766.206,447.129,768.4656,438.5579,765.487,442.6868,761.3581,439.7082,766.206,447.129" style="stroke:#A80036;stroke-width:0.9;"/><!--MD5=[7e617a26c2fbb010251012b175538e97]
link CreateMedicalReportUI to TestParameterDto--><path codeLine="59" d="M672.588,81.081 C667.602,149.517 651.708,367.731 646.254,442.548 " fill="none" id="CreateMedicalReportUI-to-TestParameterDto" style="stroke:#A80036;stroke-width:0.9;stroke-dasharray:7.0,7.0;"/><polygon fill="#A80036" points="645.912,447.264,650.0815,439.4419,646.2335,442.7755,642.8999,438.9275,645.912,447.264" style="stroke:#A80036;stroke-width:0.9;"/><!--MD5=[e74454384d5462cef8d0114ca4a2f30e]
link CreateMedicalReporController to Company--><path codeLine="60" d="M414.99,228.474 C391.869,239.904 368.982,255.222 352.8,275.4 C316.989,320.049 307.188,387.747 304.722,429.849 " fill="none" id="CreateMedicalReporController-to-Company" style="stroke:#A80036;stroke-width:0.9;stroke-dasharray:7.0,7.0;"/><polygon fill="#A80036" points="304.479,434.34,308.514,426.4477,304.7236,429.8467,301.3246,426.0563,304.479,434.34" style="stroke:#A80036;stroke-width:0.9;"/><!--MD5=[a7aa02dd9a8a1970780ea26ccff8cafd]
link CreateMedicalReporController to TestMapper--><path codeLine="61" d="M527.499,238.833 C540.657,262.098 556.848,290.718 568.206,310.788 " fill="none" id="CreateMedicalReporController-to-TestMapper" style="stroke:#A80036;stroke-width:0.9;stroke-dasharray:7.0,7.0;"/><polygon fill="#A80036" points="570.555,314.937,569.7119,306.1132,568.3446,311.0173,563.4405,309.6499,570.555,314.937" style="stroke:#A80036;stroke-width:0.9;"/><!--MD5=[ce292635aa48657a1505b1fc3e3b5d2e]
link CreateMedicalReporController to TestParameterMapper--><path codeLine="62" d="M485.199,238.833 C473.715,262.098 459.594,290.718 449.694,310.788 " fill="none" id="CreateMedicalReporController-to-TestParameterMapper" style="stroke:#A80036;stroke-width:0.9;stroke-dasharray:7.0,7.0;"/><polygon fill="#A80036" points="447.642,314.937,454.4627,309.2759,449.639,310.9044,448.0105,306.0807,447.642,314.937" style="stroke:#A80036;stroke-width:0.9;"/><!--MD5=[0d2deb453e4521a8ecd45cf39c488e89]
link TestParameterMapper to TestParameterDto--><path codeLine="63" d="M470.43,358.326 C507.843,381.906 568.638,420.237 607.563,444.771 " fill="none" id="TestParameterMapper-to-TestParameterDto" style="stroke:#A80036;stroke-width:0.9;stroke-dasharray:7.0,7.0;"/><polygon fill="#A80036" points="611.487,447.255,606.5619,439.8853,607.6826,444.8515,602.7163,445.9723,611.487,447.255" style="stroke:#A80036;stroke-width:0.9;"/><!--MD5=[886f81fd36c1ffd754dcf922ff388f49]
link TestParameterMapper to TestParameter--><path codeLine="64" d="M437.4,358.47 C437.4,381.294 437.4,417.825 437.4,442.35 " fill="none" id="TestParameterMapper-to-TestParameter" style="stroke:#A80036;stroke-width:0.9;stroke-dasharray:7.0,7.0;"/><polygon fill="#A80036" points="437.4,447.084,441,438.984,437.4,442.584,433.8,438.984,437.4,447.084" style="stroke:#A80036;stroke-width:0.9;"/><!--MD5=[34b2fed5845bf5a187f4983fcf3f57bc]
link TestMapper to TestDto--><path codeLine="65" d="M626.085,348.705 C655.011,357.714 692.514,372.636 720,395.1 C735.804,408.024 748.584,427.284 757.197,442.764 " fill="none" id="TestMapper-to-TestDto" style="stroke:#A80036;stroke-width:0.9;stroke-dasharray:7.0,7.0;"/><polygon fill="#A80036" points="759.519,447.021,758.8108,438.1854,757.3687,443.068,752.486,441.6259,759.519,447.021" style="stroke:#A80036;stroke-width:0.9;"/><!--MD5=[8d9a2c3ea1bf73d8d45b939465e53fff]
link TestMapper to Test--><path codeLine="66" d="M576.378,358.434 C565.929,392.904 541.782,462.672 504.9,512.1 C482.4,542.25 450.567,569.808 423.567,590.31 " fill="none" id="TestMapper-to-Test" style="stroke:#A80036;stroke-width:0.9;stroke-dasharray:7.0,7.0;"/><polygon fill="#A80036" points="419.958,593.028,428.5935,591.0283,423.5518,590.3198,424.2603,585.2782,419.958,593.028" style="stroke:#A80036;stroke-width:0.9;"/><!--MD5=[7e4bc624457760b649895ff2ead938fa]
link Company to Test--><path codeLine="67" d="M318.483,503.397 C329.112,528.372 343.611,562.473 354.654,588.438 " fill="none" id="Company-to-Test" style="stroke:#A80036;stroke-width:0.9;"/><polygon fill="#A80036" points="356.535,592.857,356.6765,583.9942,354.7732,588.7162,350.0512,586.813,356.535,592.857" style="stroke:#A80036;stroke-width:0.9;"/><!--MD5=[c3238c64a9072feb51e313e35a850213]
link Test to MedicalReport--><path codeLine="68" d="M370.8,661.716 C370.8,678.321 370.8,698.058 370.8,713.412 " fill="none" id="Test-to-MedicalReport" style="stroke:#A80036;stroke-width:0.9;"/><polygon fill="#A80036" points="370.8,718.029,374.4,709.929,370.8,713.529,367.2,709.929,370.8,718.029" style="stroke:#A80036;stroke-width:0.9;"/><!--MD5=[7f6cf7f175eae0af66201860de5de971]
link Company to TestStore--><path codeLine="69" d="M264.078,503.199 C233.496,528.669 191.412,563.697 159.939,589.896 " fill="none" id="Company-to-TestStore" style="stroke:#A80036;stroke-width:0.9;"/><polygon fill="#A80036" points="156.159,593.046,164.6871,590.6292,159.617,590.1664,160.0798,585.0963,156.159,593.046" style="stroke:#A80036;stroke-width:0.9;"/><text fill="#000000" font-family="sans-serif" font-size="11.7" lengthAdjust="spacing" textLength="25.2" x="227.7" y="543.1456">uses</text><text fill="#000000" font-family="sans-serif" font-size="11.7" lengthAdjust="spacing" textLength="6.3" x="250.6111" y="522.2685">1</text><text fill="#000000" font-family="sans-serif" font-size="11.7" lengthAdjust="spacing" textLength="6.3" x="156.6641" y="583.2049">1</text><!--MD5=[57d591f23f784834a07f1beb3943fb2c]
@startuml

package UI{
class CreateMedicalReportUI{
}
}

package Controller{
class CreateMedicalReporController{
+getTestHasSamplesAnalyzedList()
+getTestParameterList()
+createMedicalReport()
}
}

package Model{
class Company{
-String designation
+getTestStore()
}

class Test{
+getParametersResulList()
+createMedicalReport(report)
}

class MedicalReport{
}

class TestParameter{
}
}

package Store{
class TestStore{
+getTestHasSamplesAnalyzedList()
+getTestByInternalCode(code)
}
}

package Mappers{
class TestMapper{
}

class TestParameterMapper{
}
}

package DTO{
class TestDto{
}

class TestParameterDto{
}
}


CreateMedicalReportUI ..> CreateMedicalReporController
CreateMedicalReportUI ..> TestDto
CreateMedicalReportUI ..> TestParameterDto
CreateMedicalReporController ..> Company
CreateMedicalReporController ..> TestMapper
CreateMedicalReporController ..> TestParameterMapper
TestParameterMapper ..> TestParameterDto
TestParameterMapper ..> TestParameter
TestMapper ..> TestDto
TestMapper ..> Test
Company - -> Test
Test - -> MedicalReport
Company"1"- -> "1" TestStore : uses

@enduml

PlantUML version 1.2021.5(Sun Apr 25 12:20:28 BST 2021)
(GPL source distribution)
Java Runtime: OpenJDK Runtime Environment
JVM: OpenJDK 64-Bit Server VM
Default Encoding: Cp1252
Language: pt
Country: PT
--></g></svg>