<?xml version="1.0" encoding="UTF-8" standalone="no"?><svg xmlns="http://www.w3.org/2000/svg" xmlns:xlink="http://www.w3.org/1999/xlink" contentScriptType="application/ecmascript" contentStyleType="text/css" height="684.6px" preserveAspectRatio="none" style="width:750px;height:684px;" version="1.1" viewBox="0 0 750 684" width="750px" zoomAndPan="magnify"><defs><filter height="300%" id="f8saibsz9idbs" width="300%" x="-1" y="-1"><feGaussianBlur result="blurOut" stdDeviation="1.2"/><feColorMatrix in="blurOut" result="blurOut2" type="matrix" values="0 0 0 0 0 0 0 0 0 0 0 0 0 0 0 0 0 0 .4 0"/><feOffset dx="2.4" dy="2.4" in="blurOut2" result="blurOut3"/><feBlend in="SourceGraphic" in2="blurOut3" mode="normal"/></filter></defs><g><!--MD5=[9681dc6e01e10c6b4fe06895ae94f592]
cluster UI--><polygon fill="#FFFFFF" filter="url(#f8saibsz9idbs)" points="100.8,3.6,112.8,3.6,117,17.7656,211.2,17.7656,211.2,63.6,100.8,63.6,100.8,3.6" style="stroke:#000000;stroke-width:0.8999999999999999;"/><line style="stroke:#000000;stroke-width:0.8999999999999999;" x1="100.8" x2="117" y1="17.7656" y2="17.7656"/><text fill="#000000" font-family="sans-serif" font-size="8.4" font-weight="bold" lengthAdjust="spacing" textLength="8.4" x="103.2" y="13.5199">UI</text><!--MD5=[1f2cfc53d9d308f53762fd0fcbaa4873]
cluster Controller--><polygon fill="#FFFFFF" filter="url(#f8saibsz9idbs)" points="264,83.4,310.2,83.4,314.4,97.5656,402,97.5656,402,168.6,264,168.6,264,83.4" style="stroke:#000000;stroke-width:0.8999999999999999;"/><line style="stroke:#000000;stroke-width:0.8999999999999999;" x1="264" x2="314.4" y1="97.5656" y2="97.5656"/><text fill="#000000" font-family="sans-serif" font-size="8.4" font-weight="bold" lengthAdjust="spacing" textLength="42.6" x="266.4" y="93.3199">Controller</text><!--MD5=[15636c1ca4a123c16a2a1a8e90aca7a9]
cluster Model--><polygon fill="#FFFFFF" filter="url(#f8saibsz9idbs)" points="384,297.6,414,297.6,418.2,311.7656,589.8,311.7656,589.8,680.4,384,680.4,384,297.6" style="stroke:#000000;stroke-width:0.8999999999999999;"/><line style="stroke:#000000;stroke-width:0.8999999999999999;" x1="384" x2="418.2" y1="311.7656" y2="311.7656"/><text fill="#000000" font-family="sans-serif" font-size="8.4" font-weight="bold" lengthAdjust="spacing" textLength="26.4" x="386.4" y="307.5199">Model</text><!--MD5=[7ce1723ddb6e6233854253973eae5a71]
cluster Store--><polygon fill="#FFFFFF" filter="url(#f8saibsz9idbs)" points="604.2,465.9,630.6,465.9,634.8,480.0656,739.8,480.0656,739.8,542.7,604.2,542.7,604.2,465.9" style="stroke:#000000;stroke-width:0.8999999999999999;"/><line style="stroke:#000000;stroke-width:0.8999999999999999;" x1="604.2" x2="634.8" y1="480.0656" y2="480.0656"/><text fill="#000000" font-family="sans-serif" font-size="8.4" font-weight="bold" lengthAdjust="spacing" textLength="22.8" x="606.6" y="475.8199">Store</text><!--MD5=[701152d03fbf85133a1de050cfdbc7fd]
cluster Mappers--><polygon fill="#FFFFFF" filter="url(#f8saibsz9idbs)" points="263.4,188.4,304.2,188.4,308.4,202.5656,455.4,202.5656,455.4,265.2,263.4,265.2,263.4,188.4" style="stroke:#000000;stroke-width:0.8999999999999999;"/><line style="stroke:#000000;stroke-width:0.8999999999999999;" x1="263.4" x2="308.4" y1="202.5656" y2="202.5656"/><text fill="#000000" font-family="sans-serif" font-size="8.4" font-weight="bold" lengthAdjust="spacing" textLength="37.2" x="265.8" y="198.3199">Mappers</text><!--MD5=[7b8bc9ee8bb84b99fb3a3f9477c19238]
cluster DTO--><polygon fill="#FFFFFF" filter="url(#f8saibsz9idbs)" points="9.6,285,30.6,285,34.8,299.1656,339.6,299.1656,339.6,420,9.6,420,9.6,285" style="stroke:#000000;stroke-width:0.8999999999999999;"/><line style="stroke:#000000;stroke-width:0.8999999999999999;" x1="9.6" x2="34.8" y1="299.1656" y2="299.1656"/><text fill="#000000" font-family="sans-serif" font-size="8.4" font-weight="bold" lengthAdjust="spacing" textLength="17.4" x="12" y="294.9199">DTO</text><!--MD5=[e4ec2e7ae8016ed7f2a23175278300b9]
class WriteMedicalReportUI--><rect codeLine="3" fill="#FEFECE" filter="url(#f8saibsz9idbs)" height="28.8" id="WriteMedicalReportUI" style="stroke:#A80036;stroke-width:0.8999999999999999;" width="90.6" x="110.7" y="25.2"/><ellipse cx="119.7" cy="34.8" fill="#ADD1B2" rx="6.6" ry="6.6" style="stroke:#A80036;stroke-width:0.6;"/><path d="M120.9,32.7 Q121.0219,32.4 121.1625,32.25 Q121.3031,32.1 121.4625,32.1 Q121.7437,32.1 121.9219,32.2688 Q122.1,32.4375 122.1,32.8313 L122.1,33.7688 Q122.1,34.1625 121.9312,34.3313 Q121.7625,34.5 121.5,34.5 Q121.2656,34.5 121.1156,34.3969 Q120.9656,34.2937 120.9,34.0219 Q120.8719,33.8344 120.7688,33.7312 Q120.5813,33.5344 120.2437,33.4219 Q119.9063,33.3 119.5688,33.3 Q119.1469,33.3 118.7906,33.4688 Q118.4438,33.6375 118.1719,34.0125 Q117.9,34.3875 117.9,34.9031 L117.9,35.4563 Q117.9,36.075 118.4063,36.4875 Q118.9125,36.9 119.8125,36.9 Q120.3469,36.9 120.7219,36.7781 Q120.9375,36.7125 121.1812,36.4969 Q121.3406,36.375 121.425,36.3375 Q121.5094,36.3 121.6125,36.3 Q121.8094,36.3 121.95,36.4594 Q122.1,36.6094 122.1,36.825 Q122.1,37.0313 121.8938,37.275 Q121.5938,37.6313 121.1156,37.8281 Q120.4875,38.1 119.7188,38.1 Q118.8188,38.1 118.0969,37.7438 Q117.5156,37.4625 117.1031,36.8531 Q116.7,36.2438 116.7,35.5219 L116.7,34.8656 Q116.7,34.1156 117.0562,33.4594 Q117.4219,32.8031 118.05,32.4563 Q118.6875,32.1 119.4,32.1 Q119.8313,32.1 120.2063,32.25 Q120.5813,32.4 120.9,32.7 Z " fill="#000000"/><text fill="#000000" font-family="sans-serif" font-size="7.2" lengthAdjust="spacing" textLength="71.4" x="128.1" y="37.7461">WriteMedicalReportUI</text><line style="stroke:#A80036;stroke-width:0.8999999999999999;" x1="111.3" x2="200.7" y1="44.4" y2="44.4"/><line style="stroke:#A80036;stroke-width:0.8999999999999999;" x1="111.3" x2="200.7" y1="49.2" y2="49.2"/><!--MD5=[4304a37fa14ad02974e6bd4bd1961bd7]
class WriteMedicalReportController--><rect codeLine="8" fill="#FEFECE" filter="url(#f8saibsz9idbs)" height="53.7047" id="WriteMedicalReportController" style="stroke:#A80036;stroke-width:0.8999999999999999;" width="118.8" x="273.6" y="105"/><ellipse cx="283.95" cy="114.6" fill="#ADD1B2" rx="6.6" ry="6.6" style="stroke:#A80036;stroke-width:0.6;"/><path d="M285.15,112.5 Q285.2719,112.2 285.4125,112.05 Q285.5531,111.9 285.7125,111.9 Q285.9938,111.9 286.1719,112.0688 Q286.35,112.2375 286.35,112.6313 L286.35,113.5688 Q286.35,113.9625 286.1813,114.1313 Q286.0125,114.3 285.75,114.3 Q285.5156,114.3 285.3656,114.1969 Q285.2156,114.0938 285.15,113.8219 Q285.1219,113.6344 285.0188,113.5313 Q284.8313,113.3344 284.4938,113.2219 Q284.1563,113.1 283.8187,113.1 Q283.3969,113.1 283.0406,113.2688 Q282.6937,113.4375 282.4219,113.8125 Q282.15,114.1875 282.15,114.7031 L282.15,115.2563 Q282.15,115.875 282.6563,116.2875 Q283.1625,116.7 284.0625,116.7 Q284.5969,116.7 284.9719,116.5781 Q285.1875,116.5125 285.4313,116.2969 Q285.5906,116.175 285.675,116.1375 Q285.7594,116.1 285.8625,116.1 Q286.0594,116.1 286.2,116.2594 Q286.35,116.4094 286.35,116.625 Q286.35,116.8313 286.1438,117.075 Q285.8438,117.4312 285.3656,117.6281 Q284.7375,117.9 283.9688,117.9 Q283.0687,117.9 282.3469,117.5437 Q281.7656,117.2625 281.3531,116.6531 Q280.95,116.0437 280.95,115.3219 L280.95,114.6656 Q280.95,113.9156 281.3063,113.2594 Q281.6719,112.6031 282.3,112.2563 Q282.9375,111.9 283.65,111.9 Q284.0813,111.9 284.4563,112.05 Q284.8313,112.2 285.15,112.5 Z " fill="#000000"/><text fill="#000000" font-family="sans-serif" font-size="7.2" lengthAdjust="spacing" textLength="96.6" x="292.65" y="117.5461">WriteMedicalReportController</text><line style="stroke:#A80036;stroke-width:0.8999999999999999;" x1="274.2" x2="391.8" y1="124.2" y2="124.2"/><line style="stroke:#A80036;stroke-width:0.8999999999999999;" x1="274.2" x2="391.8" y1="129" y2="129"/><ellipse cx="280.2" cy="135.6" fill="#84BE84" rx="1.8" ry="1.8" style="stroke:#038048;stroke-width:0.6;"/><text fill="#000000" font-family="sans-serif" font-size="6.6" lengthAdjust="spacing" textLength="100.2" x="285.6" y="138.2514">getTestHasSamplesAnalyzedList()</text><ellipse cx="280.2" cy="143.9016" fill="#84BE84" rx="1.8" ry="1.8" style="stroke:#038048;stroke-width:0.6;"/><text fill="#000000" font-family="sans-serif" font-size="6.6" lengthAdjust="spacing" textLength="103.2" x="285.6" y="146.5529">getTestParameterList(selectedTest)</text><ellipse cx="280.2" cy="152.2031" fill="#84BE84" rx="1.8" ry="1.8" style="stroke:#038048;stroke-width:0.6;"/><text fill="#000000" font-family="sans-serif" font-size="6.6" lengthAdjust="spacing" textLength="84" x="285.6" y="154.8545">addMedicalReport(diagnosis)</text><!--MD5=[02e4b9b7573f1156f41e60aa5b4e25a4]
class Company--><rect codeLine="16" fill="#FEFECE" filter="url(#f8saibsz9idbs)" height="45.4031" id="Company" style="stroke:#A80036;stroke-width:0.8999999999999999;" width="67.2" x="513" y="335.7"/><ellipse cx="529.29" cy="345.3" fill="#ADD1B2" rx="6.6" ry="6.6" style="stroke:#A80036;stroke-width:0.6;"/><path d="M530.49,343.2 Q530.6119,342.9 530.7525,342.75 Q530.8931,342.6 531.0525,342.6 Q531.3338,342.6 531.5119,342.7688 Q531.69,342.9375 531.69,343.3313 L531.69,344.2688 Q531.69,344.6625 531.5213,344.8313 Q531.3525,345 531.09,345 Q530.8556,345 530.7056,344.8969 Q530.5556,344.7938 530.49,344.5219 Q530.4619,344.3344 530.3588,344.2313 Q530.1713,344.0344 529.8338,343.9219 Q529.4962,343.8 529.1587,343.8 Q528.7369,343.8 528.3806,343.9688 Q528.0337,344.1375 527.7619,344.5125 Q527.49,344.8875 527.49,345.4031 L527.49,345.9563 Q527.49,346.575 527.9962,346.9875 Q528.5025,347.4 529.4025,347.4 Q529.9369,347.4 530.3119,347.2781 Q530.5275,347.2125 530.7713,346.9969 Q530.9306,346.875 531.015,346.8375 Q531.0994,346.8 531.2025,346.8 Q531.3994,346.8 531.54,346.9594 Q531.69,347.1094 531.69,347.325 Q531.69,347.5313 531.4838,347.775 Q531.1837,348.1312 530.7056,348.3281 Q530.0775,348.6 529.3087,348.6 Q528.4087,348.6 527.6869,348.2438 Q527.1056,347.9625 526.6931,347.3531 Q526.29,346.7438 526.29,346.0219 L526.29,345.3656 Q526.29,344.6156 526.6463,343.9594 Q527.0119,343.3031 527.64,342.9563 Q528.2775,342.6 528.99,342.6 Q529.4213,342.6 529.7963,342.75 Q530.1713,342.9 530.49,343.2 Z " fill="#000000"/><text fill="#000000" font-family="sans-serif" font-size="7.2" lengthAdjust="spacing" textLength="31.8" x="539.31" y="348.2461">Company</text><line style="stroke:#A80036;stroke-width:0.8999999999999999;" x1="513.6" x2="579.6" y1="354.9" y2="354.9"/><rect fill="none" height="3.6" style="stroke:#C82930;stroke-width:0.6;" width="3.6" x="517.8" y="359.7"/><text fill="#000000" font-family="sans-serif" font-size="6.6" lengthAdjust="spacing" textLength="51.6" x="525" y="364.1514">String designation</text><line style="stroke:#A80036;stroke-width:0.8999999999999999;" x1="513.6" x2="579.6" y1="368.0016" y2="368.0016"/><ellipse cx="519.6" cy="374.6016" fill="#84BE84" rx="1.8" ry="1.8" style="stroke:#038048;stroke-width:0.6;"/><text fill="#000000" font-family="sans-serif" font-size="6.6" lengthAdjust="spacing" textLength="42" x="525" y="377.2529">getTestStore()</text><!--MD5=[df38be88ccee13e832d6fafd6288a4ca]
class Test--><rect codeLine="21" fill="#FEFECE" filter="url(#f8saibsz9idbs)" height="103.5141" id="Test" style="stroke:#A80036;stroke-width:0.8999999999999999;" width="106.2" x="433.5" y="458.4"/><ellipse cx="476.85" cy="468" fill="#ADD1B2" rx="6.6" ry="6.6" style="stroke:#A80036;stroke-width:0.6;"/><path d="M478.05,465.9 Q478.1719,465.6 478.3125,465.45 Q478.4531,465.3 478.6125,465.3 Q478.8937,465.3 479.0719,465.4688 Q479.25,465.6375 479.25,466.0313 L479.25,466.9688 Q479.25,467.3625 479.0812,467.5313 Q478.9125,467.7 478.65,467.7 Q478.4156,467.7 478.2656,467.5969 Q478.1156,467.4938 478.05,467.2219 Q478.0219,467.0344 477.9188,466.9313 Q477.7313,466.7344 477.3937,466.6219 Q477.0563,466.5 476.7188,466.5 Q476.2969,466.5 475.9406,466.6688 Q475.5938,466.8375 475.3219,467.2125 Q475.05,467.5875 475.05,468.1031 L475.05,468.6563 Q475.05,469.275 475.5563,469.6875 Q476.0625,470.1 476.9625,470.1 Q477.4969,470.1 477.8719,469.9781 Q478.0875,469.9125 478.3312,469.6969 Q478.4906,469.575 478.575,469.5375 Q478.6594,469.5 478.7625,469.5 Q478.9594,469.5 479.1,469.6594 Q479.25,469.8094 479.25,470.025 Q479.25,470.2313 479.0438,470.475 Q478.7438,470.8312 478.2656,471.0281 Q477.6375,471.3 476.8688,471.3 Q475.9688,471.3 475.2469,470.9437 Q474.6656,470.6625 474.2531,470.0531 Q473.85,469.4437 473.85,468.7219 L473.85,468.0656 Q473.85,467.3156 474.2062,466.6594 Q474.5719,466.0031 475.2,465.6563 Q475.8375,465.3 476.55,465.3 Q476.9813,465.3 477.3563,465.45 Q477.7313,465.6 478.05,465.9 Z " fill="#000000"/><text fill="#000000" font-family="sans-serif" font-size="7.2" lengthAdjust="spacing" textLength="14.4" x="489.15" y="470.9461">Test</text><line style="stroke:#A80036;stroke-width:0.8999999999999999;" x1="434.1" x2="539.1" y1="477.6" y2="477.6"/><rect fill="none" height="3.6" style="stroke:#C82930;stroke-width:0.6;" width="3.6" x="438.3" y="482.4"/><text fill="#000000" font-family="sans-serif" font-size="6.6" lengthAdjust="spacing" textLength="54.6" x="445.5" y="486.8514">String internalCode</text><rect fill="none" height="3.6" style="stroke:#C82930;stroke-width:0.6;" width="3.6" x="438.3" y="490.7016"/><text fill="#000000" font-family="sans-serif" font-size="6.6" lengthAdjust="spacing" textLength="44.4" x="445.5" y="495.1529">String nhsCode</text><rect fill="none" height="3.6" style="stroke:#C82930;stroke-width:0.6;" width="3.6" x="438.3" y="499.0031"/><text fill="#000000" font-family="sans-serif" font-size="6.6" lengthAdjust="spacing" textLength="50.4" x="445.5" y="503.4545">String description</text><line style="stroke:#A80036;stroke-width:0.8999999999999999;" x1="434.1" x2="539.1" y1="507.3047" y2="507.3047"/><ellipse cx="440.1" cy="513.9047" fill="#84BE84" rx="1.8" ry="1.8" style="stroke:#038048;stroke-width:0.6;"/><text fill="#000000" font-family="sans-serif" font-size="6.6" lengthAdjust="spacing" textLength="66" x="445.5" y="516.5561">getTestParameterList()</text><ellipse cx="440.1" cy="522.2063" fill="#84BE84" rx="1.8" ry="1.8" style="stroke:#038048;stroke-width:0.6;"/><text fill="#000000" font-family="sans-serif" font-size="6.6" lengthAdjust="spacing" textLength="46.2" x="445.5" y="524.8576">getDescription()</text><ellipse cx="440.1" cy="530.5078" fill="#84BE84" rx="1.8" ry="1.8" style="stroke:#038048;stroke-width:0.6;"/><text fill="#000000" font-family="sans-serif" font-size="6.6" lengthAdjust="spacing" textLength="49.8" x="445.5" y="533.1592">getInternalCode()</text><ellipse cx="440.1" cy="538.8094" fill="#84BE84" rx="1.8" ry="1.8" style="stroke:#038048;stroke-width:0.6;"/><text fill="#000000" font-family="sans-serif" font-size="6.6" lengthAdjust="spacing" textLength="84" x="445.5" y="541.4607">addMedicalReport(diagnosis)</text><ellipse cx="440.1" cy="547.1109" fill="#84BE84" rx="1.8" ry="1.8" style="stroke:#038048;stroke-width:0.6;"/><text fill="#000000" font-family="sans-serif" font-size="6.6" lengthAdjust="spacing" textLength="67.8" x="445.5" y="549.7623">validateMedicalReport()</text><rect fill="#F24D5C" height="3.6" style="stroke:#C82930;stroke-width:0.6;" width="3.6" x="438.3" y="553.6125"/><text fill="#000000" font-family="sans-serif" font-size="6.6" lengthAdjust="spacing" textLength="90.6" x="445.5" y="558.0639">updateStateToDiagnosisMade()</text><!--MD5=[b2d1f399f1909a0bb241ed0598ba126f]
class MedicalReport--><rect codeLine="33" fill="#FEFECE" filter="url(#f8saibsz9idbs)" height="62.0062" id="MedicalReport" style="stroke:#A80036;stroke-width:0.8999999999999999;" width="88.8" x="442.2" y="609"/><ellipse cx="461.19" cy="618.6" fill="#ADD1B2" rx="6.6" ry="6.6" style="stroke:#A80036;stroke-width:0.6;"/><path d="M462.39,616.5 Q462.5119,616.2 462.6525,616.05 Q462.7931,615.9 462.9525,615.9 Q463.2338,615.9 463.4119,616.0688 Q463.59,616.2375 463.59,616.6313 L463.59,617.5688 Q463.59,617.9625 463.4213,618.1313 Q463.2525,618.3 462.99,618.3 Q462.7556,618.3 462.6056,618.1969 Q462.4556,618.0938 462.39,617.8219 Q462.3619,617.6344 462.2587,617.5313 Q462.0712,617.3344 461.7338,617.2219 Q461.3962,617.1 461.0588,617.1 Q460.6369,617.1 460.2806,617.2688 Q459.9338,617.4375 459.6619,617.8125 Q459.39,618.1875 459.39,618.7031 L459.39,619.2563 Q459.39,619.875 459.8962,620.2875 Q460.4025,620.7 461.3025,620.7 Q461.8369,620.7 462.2119,620.5781 Q462.4275,620.5125 462.6713,620.2969 Q462.8306,620.175 462.915,620.1375 Q462.9994,620.1 463.1025,620.1 Q463.2994,620.1 463.44,620.2594 Q463.59,620.4094 463.59,620.625 Q463.59,620.8313 463.3837,621.075 Q463.0837,621.4313 462.6056,621.6281 Q461.9775,621.9 461.2087,621.9 Q460.3088,621.9 459.5869,621.5437 Q459.0056,621.2625 458.5931,620.6531 Q458.19,620.0437 458.19,619.3219 L458.19,618.6656 Q458.19,617.9156 458.5463,617.2594 Q458.9119,616.6031 459.54,616.2563 Q460.1775,615.9 460.89,615.9 Q461.3212,615.9 461.6962,616.05 Q462.0712,616.2 462.39,616.5 Z " fill="#000000"/><text fill="#000000" font-family="sans-serif" font-size="7.2" lengthAdjust="spacing" textLength="47.4" x="471.81" y="621.5461">MedicalReport</text><line style="stroke:#A80036;stroke-width:0.8999999999999999;" x1="442.8" x2="530.4" y1="628.2" y2="628.2"/><rect fill="none" height="3.6" style="stroke:#C82930;stroke-width:0.6;" width="3.6" x="447" y="633"/><text fill="#000000" font-family="sans-serif" font-size="6.6" lengthAdjust="spacing" textLength="46.2" x="454.2" y="637.4514">String diagnosis</text><rect fill="none" height="3.6" style="stroke:#C82930;stroke-width:0.6;" width="3.6" x="447" y="641.3016"/><text fill="#000000" font-family="sans-serif" font-size="6.6" lengthAdjust="spacing" textLength="43.8" x="454.2" y="645.7529">Date createdAt</text><line style="stroke:#A80036;stroke-width:0.8999999999999999;" x1="442.8" x2="530.4" y1="649.6031" y2="649.6031"/><ellipse cx="448.8" cy="656.2031" fill="#84BE84" rx="1.8" ry="1.8" style="stroke:#038048;stroke-width:0.6;"/><text fill="#000000" font-family="sans-serif" font-size="6.6" lengthAdjust="spacing" textLength="73.2" x="454.2" y="658.8545">MedicalReport(diagnosis)</text><ellipse cx="448.8" cy="664.5047" fill="#84BE84" rx="1.8" ry="1.8" style="stroke:#038048;stroke-width:0.6;"/><text fill="#000000" font-family="sans-serif" font-size="6.6" lengthAdjust="spacing" textLength="52.8" x="454.2" y="667.1561">addCreationDate()</text><!--MD5=[0f07739f46effee96e095e9c408da841]
class TestParameter--><rect codeLine="40" fill="#FEFECE" filter="url(#f8saibsz9idbs)" height="78.6094" id="TestParameter" style="stroke:#A80036;stroke-width:0.8999999999999999;" width="97.8" x="393.9" y="319.2"/><ellipse cx="416.13" cy="328.8" fill="#ADD1B2" rx="6.6" ry="6.6" style="stroke:#A80036;stroke-width:0.6;"/><path d="M417.33,326.7 Q417.4519,326.4 417.5925,326.25 Q417.7331,326.1 417.8925,326.1 Q418.1738,326.1 418.3519,326.2688 Q418.53,326.4375 418.53,326.8313 L418.53,327.7688 Q418.53,328.1625 418.3613,328.3313 Q418.1925,328.5 417.93,328.5 Q417.6956,328.5 417.5456,328.3969 Q417.3956,328.2938 417.33,328.0219 Q417.3019,327.8344 417.1987,327.7313 Q417.0112,327.5344 416.6738,327.4219 Q416.3362,327.3 415.9988,327.3 Q415.5769,327.3 415.2206,327.4688 Q414.8738,327.6375 414.6019,328.0125 Q414.33,328.3875 414.33,328.9031 L414.33,329.4563 Q414.33,330.075 414.8362,330.4875 Q415.3425,330.9 416.2425,330.9 Q416.7769,330.9 417.1519,330.7781 Q417.3675,330.7125 417.6113,330.4969 Q417.7706,330.375 417.855,330.3375 Q417.9394,330.3 418.0425,330.3 Q418.2394,330.3 418.38,330.4594 Q418.53,330.6094 418.53,330.825 Q418.53,331.0313 418.3237,331.275 Q418.0237,331.6312 417.5456,331.8281 Q416.9175,332.1 416.1487,332.1 Q415.2488,332.1 414.5269,331.7438 Q413.9456,331.4625 413.5331,330.8531 Q413.13,330.2438 413.13,329.5219 L413.13,328.8656 Q413.13,328.1156 413.4863,327.4594 Q413.8519,326.8031 414.48,326.4563 Q415.1175,326.1 415.83,326.1 Q416.2612,326.1 416.6362,326.25 Q417.0112,326.4 417.33,326.7 Z " fill="#000000"/><text fill="#000000" font-family="sans-serif" font-size="7.2" lengthAdjust="spacing" textLength="49.2" x="427.47" y="331.7461">TestParameter</text><line style="stroke:#A80036;stroke-width:0.8999999999999999;" x1="394.5" x2="491.1" y1="338.4" y2="338.4"/><line style="stroke:#A80036;stroke-width:0.8999999999999999;" x1="394.5" x2="491.1" y1="343.2" y2="343.2"/><ellipse cx="400.5" cy="349.8" fill="#84BE84" rx="1.8" ry="1.8" style="stroke:#038048;stroke-width:0.6;"/><text fill="#000000" font-family="sans-serif" font-size="6.6" lengthAdjust="spacing" textLength="59.4" x="405.9" y="352.4514">getParameterName()</text><ellipse cx="400.5" cy="358.1016" fill="#84BE84" rx="1.8" ry="1.8" style="stroke:#038048;stroke-width:0.6;"/><text fill="#000000" font-family="sans-serif" font-size="6.6" lengthAdjust="spacing" textLength="61.2" x="405.9" y="360.7529">getParameterResult()</text><ellipse cx="400.5" cy="366.4031" fill="#84BE84" rx="1.8" ry="1.8" style="stroke:#038048;stroke-width:0.6;"/><text fill="#000000" font-family="sans-serif" font-size="6.6" lengthAdjust="spacing" textLength="60.6" x="405.9" y="369.0545">getParameterMetric()</text><ellipse cx="400.5" cy="374.7047" fill="#84BE84" rx="1.8" ry="1.8" style="stroke:#038048;stroke-width:0.6;"/><text fill="#000000" font-family="sans-serif" font-size="6.6" lengthAdjust="spacing" textLength="79.8" x="405.9" y="377.3561">getParameterMinRefValue()</text><ellipse cx="400.5" cy="383.0062" fill="#84BE84" rx="1.8" ry="1.8" style="stroke:#038048;stroke-width:0.6;"/><text fill="#000000" font-family="sans-serif" font-size="6.6" lengthAdjust="spacing" textLength="82.2" x="405.9" y="385.6576">getParameterMaxRefValue()</text><ellipse cx="400.5" cy="391.3078" fill="#84BE84" rx="1.8" ry="1.8" style="stroke:#038048;stroke-width:0.6;"/><text fill="#000000" font-family="sans-serif" font-size="6.6" lengthAdjust="spacing" textLength="58.2" x="405.9" y="393.9592">getRefValueMetric()</text><!--MD5=[0f6f7964b844a64b0496af0dda7914bd]
class TestStore--><rect codeLine="51" fill="#FEFECE" filter="url(#f8saibsz9idbs)" height="45.4031" id="TestStore" style="stroke:#A80036;stroke-width:0.8999999999999999;" width="115.8" x="614.1" y="487.5"/><ellipse cx="653.55" cy="497.1" fill="#ADD1B2" rx="6.6" ry="6.6" style="stroke:#A80036;stroke-width:0.6;"/><path d="M654.75,495 Q654.8719,494.7 655.0125,494.55 Q655.1531,494.4 655.3125,494.4 Q655.5938,494.4 655.7719,494.5687 Q655.95,494.7375 655.95,495.1312 L655.95,496.0687 Q655.95,496.4625 655.7813,496.6312 Q655.6125,496.8 655.35,496.8 Q655.1156,496.8 654.9656,496.6969 Q654.8156,496.5938 654.75,496.3219 Q654.7219,496.1344 654.6188,496.0313 Q654.4313,495.8344 654.0938,495.7219 Q653.7563,495.6 653.4187,495.6 Q652.9969,495.6 652.6406,495.7687 Q652.2937,495.9375 652.0219,496.3125 Q651.75,496.6875 651.75,497.2031 L651.75,497.7562 Q651.75,498.375 652.2563,498.7875 Q652.7625,499.2 653.6625,499.2 Q654.1969,499.2 654.5719,499.0781 Q654.7875,499.0125 655.0313,498.7969 Q655.1906,498.675 655.275,498.6375 Q655.3594,498.6 655.4625,498.6 Q655.6594,498.6 655.8,498.7594 Q655.95,498.9094 655.95,499.125 Q655.95,499.3312 655.7438,499.575 Q655.4438,499.9313 654.9656,500.1281 Q654.3375,500.4 653.5688,500.4 Q652.6687,500.4 651.9469,500.0438 Q651.3656,499.7625 650.9531,499.1531 Q650.55,498.5438 650.55,497.8219 L650.55,497.1656 Q650.55,496.4156 650.9063,495.7594 Q651.2719,495.1031 651.9,494.7562 Q652.5375,494.4 653.25,494.4 Q653.6813,494.4 654.0563,494.55 Q654.4313,494.7 654.75,495 Z " fill="#000000"/><text fill="#000000" font-family="sans-serif" font-size="7.2" lengthAdjust="spacing" textLength="31.8" x="665.85" y="500.0461">TestStore</text><line style="stroke:#A80036;stroke-width:0.8999999999999999;" x1="614.7" x2="729.3" y1="506.7" y2="506.7"/><line style="stroke:#A80036;stroke-width:0.8999999999999999;" x1="614.7" x2="729.3" y1="511.5" y2="511.5"/><ellipse cx="620.7" cy="518.1" fill="#84BE84" rx="1.8" ry="1.8" style="stroke:#038048;stroke-width:0.6;"/><text fill="#000000" font-family="sans-serif" font-size="6.6" lengthAdjust="spacing" textLength="100.2" x="626.1" y="520.7514">getTestHasSamplesAnalyzedList()</text><ellipse cx="620.7" cy="526.4016" fill="#84BE84" rx="1.8" ry="1.8" style="stroke:#038048;stroke-width:0.6;"/><text fill="#000000" font-family="sans-serif" font-size="6.6" lengthAdjust="spacing" textLength="84.6" x="626.1" y="529.0529">getTestByInternalCode(code)</text><!--MD5=[144698ec4d0188f6929a3b58a3eeb1f6]
class TestMapper--><rect codeLine="58" fill="#FEFECE" filter="url(#f8saibsz9idbs)" height="45.4031" id="TestMapper" style="stroke:#A80036;stroke-width:0.8999999999999999;" width="58.2" x="273.3" y="210"/><ellipse cx="282.3" cy="219.6" fill="#ADD1B2" rx="6.6" ry="6.6" style="stroke:#A80036;stroke-width:0.6;"/><path d="M283.5,217.5 Q283.6219,217.2 283.7625,217.05 Q283.9031,216.9 284.0625,216.9 Q284.3438,216.9 284.5219,217.0688 Q284.7,217.2375 284.7,217.6313 L284.7,218.5688 Q284.7,218.9625 284.5313,219.1313 Q284.3625,219.3 284.1,219.3 Q283.8656,219.3 283.7156,219.1969 Q283.5656,219.0938 283.5,218.8219 Q283.4719,218.6344 283.3688,218.5313 Q283.1813,218.3344 282.8438,218.2219 Q282.5062,218.1 282.1688,218.1 Q281.7469,218.1 281.3906,218.2687 Q281.0438,218.4375 280.7719,218.8125 Q280.5,219.1875 280.5,219.7031 L280.5,220.2563 Q280.5,220.875 281.0062,221.2875 Q281.5125,221.7 282.4125,221.7 Q282.9469,221.7 283.3219,221.5781 Q283.5375,221.5125 283.7813,221.2969 Q283.9406,221.175 284.025,221.1375 Q284.1094,221.1 284.2125,221.1 Q284.4094,221.1 284.55,221.2594 Q284.7,221.4094 284.7,221.625 Q284.7,221.8312 284.4938,222.075 Q284.1937,222.4313 283.7156,222.6281 Q283.0875,222.9 282.3187,222.9 Q281.4188,222.9 280.6969,222.5438 Q280.1156,222.2625 279.7031,221.6531 Q279.3,221.0438 279.3,220.3219 L279.3,219.6656 Q279.3,218.9156 279.6563,218.2594 Q280.0219,217.6031 280.65,217.2563 Q281.2875,216.9 282,216.9 Q282.4313,216.9 282.8063,217.05 Q283.1813,217.2 283.5,217.5 Z " fill="#000000"/><text fill="#000000" font-family="sans-serif" font-size="7.2" lengthAdjust="spacing" textLength="39" x="290.7" y="222.5461">TestMapper</text><line style="stroke:#A80036;stroke-width:0.8999999999999999;" x1="273.9" x2="330.9" y1="229.2" y2="229.2"/><line style="stroke:#A80036;stroke-width:0.8999999999999999;" x1="273.9" x2="330.9" y1="234" y2="234"/><ellipse cx="279.9" cy="240.6" fill="#84BE84" rx="1.8" ry="1.8" style="stroke:#038048;stroke-width:0.6;"/><text fill="#000000" font-family="sans-serif" font-size="6.6" lengthAdjust="spacing" textLength="30.6" x="285.3" y="243.2514">toDto(test)</text><ellipse cx="279.9" cy="248.9016" fill="#84BE84" rx="1.8" ry="1.8" style="stroke:#038048;stroke-width:0.6;"/><text fill="#000000" font-family="sans-serif" font-size="6.6" lengthAdjust="spacing" textLength="40.8" x="285.3" y="251.5529">toDto(testList)</text><!--MD5=[a82d32c079496d6dca2681dc0633feb0]
class TestParameterMapper--><rect codeLine="63" fill="#FEFECE" filter="url(#f8saibsz9idbs)" height="45.4031" id="TestParameterMapper" style="stroke:#A80036;stroke-width:0.8999999999999999;" width="93" x="352.5" y="210"/><ellipse cx="361.5" cy="219.6" fill="#ADD1B2" rx="6.6" ry="6.6" style="stroke:#A80036;stroke-width:0.6;"/><path d="M362.7,217.5 Q362.8219,217.2 362.9625,217.05 Q363.1031,216.9 363.2625,216.9 Q363.5438,216.9 363.7219,217.0688 Q363.9,217.2375 363.9,217.6313 L363.9,218.5688 Q363.9,218.9625 363.7313,219.1313 Q363.5625,219.3 363.3,219.3 Q363.0656,219.3 362.9156,219.1969 Q362.7656,219.0938 362.7,218.8219 Q362.6719,218.6344 362.5687,218.5313 Q362.3812,218.3344 362.0438,218.2219 Q361.7063,218.1 361.3688,218.1 Q360.9469,218.1 360.5906,218.2687 Q360.2438,218.4375 359.9719,218.8125 Q359.7,219.1875 359.7,219.7031 L359.7,220.2563 Q359.7,220.875 360.2063,221.2875 Q360.7125,221.7 361.6125,221.7 Q362.1469,221.7 362.5219,221.5781 Q362.7375,221.5125 362.9813,221.2969 Q363.1406,221.175 363.225,221.1375 Q363.3094,221.1 363.4125,221.1 Q363.6094,221.1 363.75,221.2594 Q363.9,221.4094 363.9,221.625 Q363.9,221.8312 363.6937,222.075 Q363.3938,222.4313 362.9156,222.6281 Q362.2875,222.9 361.5188,222.9 Q360.6188,222.9 359.8969,222.5438 Q359.3156,222.2625 358.9031,221.6531 Q358.5,221.0438 358.5,220.3219 L358.5,219.6656 Q358.5,218.9156 358.8563,218.2594 Q359.2219,217.6031 359.85,217.2563 Q360.4875,216.9 361.2,216.9 Q361.6312,216.9 362.0062,217.05 Q362.3812,217.2 362.7,217.5 Z " fill="#000000"/><text fill="#000000" font-family="sans-serif" font-size="7.2" lengthAdjust="spacing" textLength="73.8" x="369.9" y="222.5461">TestParameterMapper</text><line style="stroke:#A80036;stroke-width:0.8999999999999999;" x1="353.1" x2="444.9" y1="229.2" y2="229.2"/><line style="stroke:#A80036;stroke-width:0.8999999999999999;" x1="353.1" x2="444.9" y1="234" y2="234"/><ellipse cx="359.1" cy="240.6" fill="#84BE84" rx="1.8" ry="1.8" style="stroke:#038048;stroke-width:0.6;"/><text fill="#000000" font-family="sans-serif" font-size="6.6" lengthAdjust="spacing" textLength="76.8" x="364.5" y="243.2514">toDTO(testParametersList)</text><ellipse cx="359.1" cy="248.9016" fill="#84BE84" rx="1.8" ry="1.8" style="stroke:#038048;stroke-width:0.6;"/><text fill="#000000" font-family="sans-serif" font-size="6.6" lengthAdjust="spacing" textLength="63" x="364.5" y="251.5529">toDTO(testParameter)</text><!--MD5=[1c38f6084f2098752e2974895ca67f4c]
class TestDto--><rect codeLine="70" fill="#FEFECE" filter="url(#f8saibsz9idbs)" height="53.7047" id="TestDto" style="stroke:#A80036;stroke-width:0.8999999999999999;" width="112.2" x="19.5" y="331.5"/><ellipse cx="60.15" cy="341.1" fill="#ADD1B2" rx="6.6" ry="6.6" style="stroke:#A80036;stroke-width:0.6;"/><path d="M61.35,339 Q61.4719,338.7 61.6125,338.55 Q61.7531,338.4 61.9125,338.4 Q62.1937,338.4 62.3719,338.5687 Q62.55,338.7375 62.55,339.1312 L62.55,340.0687 Q62.55,340.4625 62.3812,340.6312 Q62.2125,340.8 61.95,340.8 Q61.7156,340.8 61.5656,340.6969 Q61.4156,340.5938 61.35,340.3219 Q61.3219,340.1344 61.2188,340.0313 Q61.0313,339.8344 60.6937,339.7219 Q60.3562,339.6 60.0188,339.6 Q59.5969,339.6 59.2406,339.7688 Q58.8938,339.9375 58.6219,340.3125 Q58.35,340.6875 58.35,341.2031 L58.35,341.7562 Q58.35,342.375 58.8562,342.7875 Q59.3625,343.2 60.2625,343.2 Q60.7969,343.2 61.1719,343.0781 Q61.3875,343.0125 61.6312,342.7969 Q61.7906,342.675 61.875,342.6375 Q61.9594,342.6 62.0625,342.6 Q62.2594,342.6 62.4,342.7594 Q62.55,342.9094 62.55,343.125 Q62.55,343.3313 62.3438,343.575 Q62.0437,343.9313 61.5656,344.1281 Q60.9375,344.4 60.1687,344.4 Q59.2688,344.4 58.5469,344.0438 Q57.9656,343.7625 57.5531,343.1531 Q57.15,342.5438 57.15,341.8219 L57.15,341.1656 Q57.15,340.4156 57.5063,339.7594 Q57.8719,339.1031 58.5,338.7562 Q59.1375,338.4 59.85,338.4 Q60.2813,338.4 60.6563,338.55 Q61.0313,338.7 61.35,339 Z " fill="#000000"/><text fill="#000000" font-family="sans-serif" font-size="7.2" lengthAdjust="spacing" textLength="25.8" x="72.45" y="344.0461">TestDto</text><line style="stroke:#A80036;stroke-width:0.8999999999999999;" x1="20.1" x2="131.1" y1="350.7" y2="350.7"/><rect fill="none" height="3.6" style="stroke:#C82930;stroke-width:0.6;" width="3.6" x="24.3" y="355.5"/><text fill="#000000" font-family="sans-serif" font-size="6.6" lengthAdjust="spacing" textLength="54.6" x="31.5" y="359.9514">String internalCode</text><rect fill="none" height="3.6" style="stroke:#C82930;stroke-width:0.6;" width="3.6" x="24.3" y="363.8016"/><text fill="#000000" font-family="sans-serif" font-size="6.6" lengthAdjust="spacing" textLength="50.4" x="31.5" y="368.2529">String description</text><line style="stroke:#A80036;stroke-width:0.8999999999999999;" x1="20.1" x2="131.1" y1="372.1031" y2="372.1031"/><ellipse cx="26.1" cy="378.7031" fill="#84BE84" rx="1.8" ry="1.8" style="stroke:#038048;stroke-width:0.6;"/><text fill="#000000" font-family="sans-serif" font-size="6.6" lengthAdjust="spacing" textLength="96.6" x="31.5" y="381.3545">TestDto(internalCode,description)</text><!--MD5=[fa2f44d2bdbb0499bd765719ad83ddd6]
class TestParameterDto--><rect codeLine="76" fill="#FEFECE" filter="url(#f8saibsz9idbs)" height="103.5141" id="TestParameterDto" style="stroke:#A80036;stroke-width:0.8999999999999999;" width="177" x="152.7" y="306.6"/><ellipse cx="208.35" cy="316.2" fill="#ADD1B2" rx="6.6" ry="6.6" style="stroke:#A80036;stroke-width:0.6;"/><path d="M209.55,314.1 Q209.6719,313.8 209.8125,313.65 Q209.9531,313.5 210.1125,313.5 Q210.3937,313.5 210.5719,313.6688 Q210.75,313.8375 210.75,314.2313 L210.75,315.1688 Q210.75,315.5625 210.5812,315.7313 Q210.4125,315.9 210.15,315.9 Q209.9156,315.9 209.7656,315.7969 Q209.6156,315.6937 209.55,315.4219 Q209.5219,315.2344 209.4188,315.1312 Q209.2313,314.9344 208.8937,314.8219 Q208.5563,314.7 208.2188,314.7 Q207.7969,314.7 207.4406,314.8688 Q207.0938,315.0375 206.8219,315.4125 Q206.55,315.7875 206.55,316.3031 L206.55,316.8563 Q206.55,317.475 207.0563,317.8875 Q207.5625,318.3 208.4625,318.3 Q208.9969,318.3 209.3719,318.1781 Q209.5875,318.1125 209.8312,317.8969 Q209.9906,317.775 210.075,317.7375 Q210.1594,317.7 210.2625,317.7 Q210.4594,317.7 210.6,317.8594 Q210.75,318.0094 210.75,318.225 Q210.75,318.4313 210.5438,318.675 Q210.2438,319.0313 209.7656,319.2281 Q209.1375,319.5 208.3688,319.5 Q207.4688,319.5 206.7469,319.1438 Q206.1656,318.8625 205.7531,318.2531 Q205.35,317.6438 205.35,316.9219 L205.35,316.2656 Q205.35,315.5156 205.7062,314.8594 Q206.0719,314.2031 206.7,313.8563 Q207.3375,313.5 208.05,313.5 Q208.4813,313.5 208.8563,313.65 Q209.2313,313.8 209.55,314.1 Z " fill="#000000"/><text fill="#000000" font-family="sans-serif" font-size="7.2" lengthAdjust="spacing" textLength="60.6" x="220.65" y="319.1461">TestParameterDto</text><line style="stroke:#A80036;stroke-width:0.8999999999999999;" x1="153.3" x2="329.1" y1="325.8" y2="325.8"/><rect fill="none" height="3.6" style="stroke:#C82930;stroke-width:0.6;" width="3.6" x="157.5" y="330.6"/><text fill="#000000" font-family="sans-serif" font-size="6.6" lengthAdjust="spacing" textLength="64.2" x="164.7" y="335.0514">String parameterName</text><rect fill="none" height="3.6" style="stroke:#C82930;stroke-width:0.6;" width="3.6" x="157.5" y="338.9016"/><text fill="#000000" font-family="sans-serif" font-size="6.6" lengthAdjust="spacing" textLength="76.8" x="164.7" y="343.3529">String testParameterResult</text><rect fill="none" height="3.6" style="stroke:#C82930;stroke-width:0.6;" width="3.6" x="157.5" y="347.2031"/><text fill="#000000" font-family="sans-serif" font-size="6.6" lengthAdjust="spacing" textLength="76.2" x="164.7" y="351.6545">String testParameterMetric</text><rect fill="none" height="3.6" style="stroke:#C82930;stroke-width:0.6;" width="3.6" x="157.5" y="355.5047"/><text fill="#000000" font-family="sans-serif" font-size="6.6" lengthAdjust="spacing" textLength="97.8" x="164.7" y="359.9561">double testParameterMinRefValue</text><rect fill="none" height="3.6" style="stroke:#C82930;stroke-width:0.6;" width="3.6" x="157.5" y="363.8063"/><text fill="#000000" font-family="sans-serif" font-size="6.6" lengthAdjust="spacing" textLength="100.2" x="164.7" y="368.2576">double testParameterMaxRefValue</text><rect fill="none" height="3.6" style="stroke:#C82930;stroke-width:0.6;" width="3.6" x="157.5" y="372.1078"/><text fill="#000000" font-family="sans-serif" font-size="6.6" lengthAdjust="spacing" textLength="61.2" x="164.7" y="376.5592">String refValueMetric</text><line style="stroke:#A80036;stroke-width:0.8999999999999999;" x1="153.3" x2="329.1" y1="380.4094" y2="380.4094"/><ellipse cx="159.3" cy="387.0094" fill="#84BE84" rx="1.8" ry="1.8" style="stroke:#038048;stroke-width:0.6;"/><text fill="#000000" font-family="sans-serif" font-size="6.6" lengthAdjust="spacing" textLength="161.4" x="164.7" y="389.6607">TestParameterDto(parameterName,testParameterResult,</text><text fill="#000000" font-family="sans-serif" font-size="6.6" lengthAdjust="spacing" textLength="138" x="164.7" y="397.9623">testParameterMetric,testParameterMinRefValue,</text><text fill="#000000" font-family="sans-serif" font-size="6.6" lengthAdjust="spacing" textLength="126" x="164.7" y="406.2639">testParameterMaxRefValue,refValueMetric)</text><!--MD5=[bbc66458f6440b7390e5e54a12cdf2f1]
link WriteMedicalReportUI to WriteMedicalReportController--><path codeLine="88" d="M182.88,54.054 C208.23,67.11 246.96,87.066 278.736,103.44 " fill="none" id="WriteMedicalReportUI-to-WriteMedicalReportController" style="stroke:#A80036;stroke-width:0.6;stroke-dasharray:7.0,7.0;"/><polygon fill="#A80036" points="281.592,104.91,277.8999,100.2961,278.9278,103.5308,275.6931,104.5588,281.592,104.91" style="stroke:#A80036;stroke-width:0.6;"/><!--MD5=[adbc032425c7e51ba2ad24017d53629a]
link WriteMedicalReportUI to TestDto--><path codeLine="89" d="M148.626,54.048 C145.758,59.85 142.638,66.732 140.4,73.2 C109.074,163.866 88.65,276.048 80.13,328.404 " fill="none" id="WriteMedicalReportUI-to-TestDto" style="stroke:#A80036;stroke-width:0.6;stroke-dasharray:7.0,7.0;"/><polygon fill="#A80036" points="79.638,331.458,82.8722,326.5123,80.1187,328.4968,78.1342,325.7432,79.638,331.458" style="stroke:#A80036;stroke-width:0.6;"/><!--MD5=[01734996bc336a4e5d2ed8719592e27f]
link WriteMedicalReportUI to TestParameterDto--><path codeLine="90" d="M159.714,54.054 C171.174,96.786 206.412,228.174 226.596,303.444 " fill="none" id="WriteMedicalReportUI-to-TestParameterDto" style="stroke:#A80036;stroke-width:0.6;stroke-dasharray:7.0,7.0;"/><polygon fill="#A80036" points="227.424,306.54,228.3537,300.7043,226.6521,303.641,223.7154,301.9394,227.424,306.54" style="stroke:#A80036;stroke-width:0.6;"/><!--MD5=[b787b54ee1aef98cad412d2a644aa045]
link WriteMedicalReportController to Company--><path codeLine="91" d="M392.508,140.388 C422.106,147.18 456.276,159.876 478.8,183.6 C519.138,226.086 536.292,295.266 542.91,332.406 " fill="none" id="WriteMedicalReportController-to-Company" style="stroke:#A80036;stroke-width:0.6;stroke-dasharray:7.0,7.0;"/><polygon fill="#A80036" points="543.444,335.46,544.8833,329.7286,542.93,332.5044,540.1542,330.5511,543.444,335.46" style="stroke:#A80036;stroke-width:0.6;"/><!--MD5=[d59dafcd53f8ba979ac3ce89e293f269]
link WriteMedicalReportController to TestMapper--><path codeLine="92" d="M324.882,159.03 C320.316,173.886 314.646,192.336 310.146,206.988 " fill="none" id="WriteMedicalReportController-to-TestMapper" style="stroke:#A80036;stroke-width:0.6;stroke-dasharray:7.0,7.0;"/><polygon fill="#A80036" points="309.264,209.868,313.1328,205.4012,310.1378,206.9981,308.541,204.0031,309.264,209.868" style="stroke:#A80036;stroke-width:0.6;"/><!--MD5=[0cd9019ce07d4cbb96eb84fb6d9e22ee]
link WriteMedicalReportController to TestParameterDto--><path codeLine="93" d="M285.66,159.084 C276.996,165.984 268.95,174.18 263.4,183.6 C242.16,219.642 237.306,267.09 237.378,303.378 " fill="none" id="WriteMedicalReportController-to-TestParameterDto" style="stroke:#A80036;stroke-width:0.6;stroke-dasharray:7.0,7.0;"/><polygon fill="#A80036" points="237.396,306.414,239.7651,301.0004,237.3789,303.414,234.9652,301.0278,237.396,306.414" style="stroke:#A80036;stroke-width:0.6;"/><!--MD5=[ba75a4db94b946b551daa943cd9720f8]
link WriteMedicalReportController to TestDto--><path codeLine="94" d="M273.732,159.024 C260.148,166.182 246.144,174.498 234,183.6 C177.018,226.32 124.248,291.594 96.336,328.956 " fill="none" id="WriteMedicalReportController-to-TestDto" style="stroke:#A80036;stroke-width:0.6;stroke-dasharray:7.0,7.0;"/><polygon fill="#A80036" points="94.536,331.374,99.6844,328.4734,96.3264,328.9668,95.833,325.6088,94.536,331.374" style="stroke:#A80036;stroke-width:0.6;"/><!--MD5=[d3614dad8e7ab28fcc7b8ffd0e053a84]
link WriteMedicalReportController to TestParameter--><path codeLine="95" d="M392.52,142.638 C416.22,149.868 441.192,162.288 455.4,183.6 C481.482,222.72 471.366,278.346 459.324,316.158 " fill="none" id="WriteMedicalReportController-to-TestParameter" style="stroke:#A80036;stroke-width:0.6;stroke-dasharray:7.0,7.0;"/><polygon fill="#A80036" points="458.382,319.08,462.3309,314.6838,459.3075,316.2263,457.765,313.203,458.382,319.08" style="stroke:#A80036;stroke-width:0.6;"/><!--MD5=[eaabf2cc0e7c429fc49065438c9fd520]
link WriteMedicalReportController to Test--><path codeLine="96" d="M392.49,138.912 C431.064,145.314 480.93,158.112 518.4,183.6 C562.806,213.81 573.99,229.26 591,280.2 C611.352,341.16 618.606,366.768 591,424.8 C580.578,446.706 561.438,464.808 542.358,478.59 " fill="none" id="WriteMedicalReportController-to-Test" style="stroke:#A80036;stroke-width:0.6;stroke-dasharray:7.0,7.0;"/><polygon fill="#A80036" points="539.79,480.42,545.5807,479.242,542.2335,478.6795,542.796,475.3323,539.79,480.42" style="stroke:#A80036;stroke-width:0.6;"/><!--MD5=[29a1b506a2116fd5358dcc26b4aac099]
link WriteMedicalReportController to TestParameterMapper--><path codeLine="97" d="M350.514,159.03 C360.444,174.012 372.786,192.642 382.536,207.354 " fill="none" id="WriteMedicalReportController-to-TestParameterMapper" style="stroke:#A80036;stroke-width:0.6;stroke-dasharray:7.0,7.0;"/><polygon fill="#A80036" points="384.204,209.868,383.2055,204.0436,382.5399,207.3718,379.2117,206.7062,384.204,209.868" style="stroke:#A80036;stroke-width:0.6;"/><!--MD5=[0d2deb453e4521a8ecd45cf39c488e89]
link TestParameterMapper to TestParameterDto--><path codeLine="98" d="M370.788,255.66 C353.466,269.322 330.498,287.448 308.706,304.638 " fill="none" id="TestParameterMapper-to-TestParameterDto" style="stroke:#A80036;stroke-width:0.6;stroke-dasharray:7.0,7.0;"/><polygon fill="#A80036" points="306.33,306.516,312.0559,305.055,308.6851,304.6576,309.0825,301.2869,306.33,306.516" style="stroke:#A80036;stroke-width:0.6;"/><!--MD5=[886f81fd36c1ffd754dcf922ff388f49]
link TestParameterMapper to TestParameter--><path codeLine="99" d="M406.83,255.66 C412.716,272.388 420.954,295.806 428.064,316.014 " fill="none" id="TestParameterMapper-to-TestParameter" style="stroke:#A80036;stroke-width:0.6;stroke-dasharray:7.0,7.0;"/><polygon fill="#A80036" points="429.102,318.966,429.5754,313.0757,428.1071,316.1358,425.047,314.6675,429.102,318.966" style="stroke:#A80036;stroke-width:0.6;"/><!--MD5=[34b2fed5845bf5a187f4983fcf3f57bc]
link TestMapper to TestDto--><path codeLine="100" d="M273.252,247.68 C256.374,255.396 234.51,264.444 214.2,270 C206.406,272.13 149.286,276.318 142.2,280.2 C121.56,291.516 104.448,311.928 92.736,328.992 " fill="none" id="TestMapper-to-TestDto" style="stroke:#A80036;stroke-width:0.6;stroke-dasharray:7.0,7.0;"/><polygon fill="#A80036" points="91.05,331.482,96.0696,328.3638,92.7358,329.0004,92.0991,325.6666,91.05,331.482" style="stroke:#A80036;stroke-width:0.6;"/><!--MD5=[8d9a2c3ea1bf73d8d45b939465e53fff]
link TestMapper to Test--><path codeLine="101" d="M322.986,255.762 C328.986,263.136 335.118,271.65 339.6,280.2 C370.776,339.672 346.14,368.934 383.4,424.8 C395.856,443.472 413.634,460.158 430.932,473.688 " fill="none" id="TestMapper-to-Test" style="stroke:#A80036;stroke-width:0.6;stroke-dasharray:7.0,7.0;"/><polygon fill="#A80036" points="433.482,475.662,430.676,470.4614,431.108,473.8279,427.7414,474.2599,433.482,475.662" style="stroke:#A80036;stroke-width:0.6;"/><!--MD5=[7e4bc624457760b649895ff2ead938fa]
link Company to Test--><path codeLine="102" d="M539.268,381.366 C533.718,397.812 525.72,420.666 517.8,440.4 C515.466,446.214 512.922,452.262 510.33,458.244 " fill="none" id="Company-Test" style="stroke:#A80036;stroke-width:0.6;"/><polygon fill="#000000" points="522.7431,437.9131,526.3053,433.4552,523.0047,432.2128,522.7431,437.9131" style="stroke:#000000;stroke-width:0.6;"/><text fill="#000000" font-family="sans-serif" font-size="7.8" lengthAdjust="spacing" textLength="30" x="529.2" y="438.2971">performs</text><text fill="#000000" font-family="sans-serif" font-size="7.8" lengthAdjust="spacing" textLength="4.2" x="533.5058" y="394.079">1</text><text fill="#000000" font-family="sans-serif" font-size="7.8" lengthAdjust="spacing" textLength="12" x="499.8537" y="451.8764">1..*</text><!--MD5=[7d615427424eb1e9d8965c4eb17ecbf5]
link TestParameter to Test--><path codeLine="103" d="M433.998,397.866 C432.426,411.576 432.462,426.93 436.8,440.4 C438.75,446.466 441.456,452.448 444.6,458.202 " fill="none" id="TestParameter-Test" style="stroke:#A80036;stroke-width:0.6;"/><polygon fill="#000000" points="439.2808,432.1507,438.4833,437.8011,441.9568,437.1907,439.2808,432.1507" style="stroke:#000000;stroke-width:0.6;"/><text fill="#000000" font-family="sans-serif" font-size="7.8" lengthAdjust="spacing" textLength="69.6" x="445.2" y="438.2971">requests analysis of</text><text fill="#000000" font-family="sans-serif" font-size="7.8" lengthAdjust="spacing" textLength="12" x="420.379" y="410.8047">1..*</text><text fill="#000000" font-family="sans-serif" font-size="7.8" lengthAdjust="spacing" textLength="4.2" x="436.6102" y="451.8307">1</text><!--MD5=[c3238c64a9072feb51e313e35a850213]
link Test to MedicalReport--><path codeLine="104" d="M486.6,562.2 C486.6,578.058 486.6,595.008 486.6,608.97 " fill="none" id="Test-MedicalReport" style="stroke:#A80036;stroke-width:0.6;"/><polygon fill="#000000" points="489.6,588.7055,491.3634,583.2784,487.8366,583.2784,489.6,588.7055" style="stroke:#000000;stroke-width:0.6;"/><text fill="#000000" font-family="sans-serif" font-size="7.8" lengthAdjust="spacing" textLength="25.8" x="495" y="588.8971">request</text><text fill="#000000" font-family="sans-serif" font-size="7.8" lengthAdjust="spacing" textLength="4.2" x="482.2327" y="574.8351">1</text><text fill="#000000" font-family="sans-serif" font-size="7.8" lengthAdjust="spacing" textLength="4.2" x="482.1047" y="602.4429">1</text><!--MD5=[7f6cf7f175eae0af66201860de5de971]
link Company to TestStore--><path codeLine="105" d="M565.104,381.324 C588.162,409.014 627.456,456.204 651.438,485.004 " fill="none" id="Company-to-TestStore" style="stroke:#A80036;stroke-width:0.6;"/><polygon fill="#A80036" points="653.418,487.386,651.8068,481.7006,651.4983,485.0806,648.1182,484.7721,653.418,487.386" style="stroke:#A80036;stroke-width:0.6;"/><text fill="#000000" font-family="sans-serif" font-size="7.8" lengthAdjust="spacing" textLength="16.8" x="613.2" y="438.2971">uses</text><text fill="#000000" font-family="sans-serif" font-size="7.8" lengthAdjust="spacing" textLength="4.2" x="563.6209" y="394.0301">1</text><text fill="#000000" font-family="sans-serif" font-size="7.8" lengthAdjust="spacing" textLength="4.2" x="645.534" y="480.9828">1</text><!--MD5=[46751ecce0a717aa86b7875265347bcb]
@startuml

package UI{
class WriteMedicalReportUI{
}
}

package Controller{
class WriteMedicalReportController{
+getTestHasSamplesAnalyzedList()
+getTestParameterList(selectedTest)
+addMedicalReport(diagnosis)
}
}

package Model{
class Company{
-String designation
+getTestStore()
}

class Test{
-String internalCode
-String nhsCode
-String description
+getTestParameterList()
+getDescription()
+getInternalCode()
+addMedicalReport(diagnosis)
+validateMedicalReport()
-updateStateToDiagnosisMade()
}

class MedicalReport{
-String diagnosis
-Date createdAt
+ MedicalReport(diagnosis)
+ addCreationDate()
}

class TestParameter{
+ getParameterName()
+ getParameterResult()
+ getParameterMetric()
+ getParameterMinRefValue()
+ getParameterMaxRefValue()
+ getRefValueMetric()
}
}

package Store{
class TestStore{
+getTestHasSamplesAnalyzedList()
+getTestByInternalCode(code)
}
}

package Mappers{
class TestMapper{
+toDto(test)
+toDto(testList)
}

class TestParameterMapper{
+toDTO(testParametersList)
+toDTO(testParameter)
}
}

package DTO{
class TestDto{
-String internalCode
-String description
+TestDto(internalCode,description)
}

class TestParameterDto{
-String parameterName
-String testParameterResult
-String testParameterMetric
-double testParameterMinRefValue
-double testParameterMaxRefValue
-String refValueMetric
+TestParameterDto(parameterName,testParameterResult,\ntestParameterMetric,testParameterMinRefValue,\ntestParameterMaxRefValue,refValueMetric)
}
}


WriteMedicalReportUI ..> WriteMedicalReportController
WriteMedicalReportUI ..> TestDto
WriteMedicalReportUI ..> TestParameterDto
WriteMedicalReportController ..> Company
WriteMedicalReportController ..> TestMapper
WriteMedicalReportController ...> TestParameterDto
WriteMedicalReportController ...> TestDto
WriteMedicalReportController ...> TestParameter
WriteMedicalReportController ...> Test
WriteMedicalReportController ..> TestParameterMapper
TestParameterMapper ..> TestParameterDto
TestParameterMapper ..> TestParameter
TestMapper ..> TestDto
TestMapper ..> Test
Company "1"- -"1..*" Test : performs >
TestParameter "1..*" - -"1" Test : requests analysis of <
Test "1"- -"1" MedicalReport : request >
Company"1"- -> "1" TestStore : uses

@enduml

PlantUML version 1.2021.5(Sun Apr 25 12:20:28 BST 2021)
(GPL source distribution)
Java Runtime: OpenJDK Runtime Environment
JVM: Dynamic Code Evolution 64-Bit Server VM
Default Encoding: Cp1252
Language: pt
Country: PT
--></g></svg>