<?xml version="1.0" encoding="UTF-8" standalone="no"?><svg xmlns="http://www.w3.org/2000/svg" xmlns:xlink="http://www.w3.org/1999/xlink" contentScriptType="application/ecmascript" contentStyleType="text/css" height="1437px" preserveAspectRatio="none" style="width:598px;height:1437px;" version="1.1" viewBox="0 0 598 1437" width="598.5px" zoomAndPan="magnify"><defs><filter height="300%" id="fpd9x1g2u2u6y" width="300%" x="-1" y="-1"><feGaussianBlur result="blurOut" stdDeviation="3.0"/><feColorMatrix in="blurOut" result="blurOut2" type="matrix" values="0 0 0 0 0 0 0 0 0 0 0 0 0 0 0 0 0 0 .4 0"/><feOffset dx="6.0" dy="6.0" in="blurOut2" result="blurOut3"/><feBlend in="SourceGraphic" in2="blurOut3" mode="normal"/></filter></defs><g><!--MD5=[02e4b9b7573f1156f41e60aa5b4e25a4]
class Company--><rect codeLine="5" fill="#FEFECE" filter="url(#fpd9x1g2u2u6y)" height="80.7539" id="Company" style="stroke:#A80036;stroke-width:2.25;" width="127.5" x="32.69" y="10.5"/><ellipse cx="55.19" cy="34.5" fill="#ADD1B2" rx="16.5" ry="16.5" style="stroke:#A80036;stroke-width:1.5;"/><path d="M58.19,29.25 Q58.4947,28.5 58.8462,28.125 Q59.1978,27.75 59.5962,27.75 Q60.2993,27.75 60.7447,28.1719 Q61.19,28.5938 61.19,29.5781 L61.19,31.9219 Q61.19,32.9063 60.7681,33.3281 Q60.3462,33.75 59.69,33.75 Q59.104,33.75 58.729,33.4922 Q58.354,33.2344 58.19,32.5547 Q58.1197,32.0859 57.8618,31.8281 Q57.3931,31.3359 56.5493,31.0547 Q55.7056,30.75 54.8618,30.75 Q53.8072,30.75 52.9165,31.1719 Q52.0493,31.5938 51.3697,32.5313 Q50.69,33.4688 50.69,34.7578 L50.69,36.1406 Q50.69,37.6875 51.9556,38.7188 Q53.2212,39.75 55.4712,39.75 Q56.8072,39.75 57.7447,39.4453 Q58.2837,39.2813 58.8931,38.7422 Q59.2915,38.4375 59.5025,38.3438 Q59.7134,38.25 59.9712,38.25 Q60.4634,38.25 60.815,38.6484 Q61.19,39.0234 61.19,39.5625 Q61.19,40.0781 60.6743,40.6875 Q59.9243,41.5781 58.729,42.0703 Q57.1587,42.75 55.2368,42.75 Q52.9868,42.75 51.1822,41.8594 Q49.729,41.1563 48.6978,39.6328 Q47.69,38.1094 47.69,36.3047 L47.69,34.6641 Q47.69,32.7891 48.5806,31.1484 Q49.4947,29.5078 51.065,28.6406 Q52.6587,27.75 54.44,27.75 Q55.5181,27.75 56.4556,28.125 Q57.3931,28.5 58.19,29.25 Z " fill="#000000"/><text fill="#000000" font-family="sans-serif" font-size="18" lengthAdjust="spacing" textLength="79.5" x="76.19" y="41.8652">Company</text><line style="stroke:#A80036;stroke-width:2.25;" x1="34.19" x2="158.69" y1="58.5" y2="58.5"/><text fill="#000000" font-family="sans-serif" font-size="16.5" lengthAdjust="spacing" textLength="88.5" x="41.69" y="81.6284">-designation</text><!--MD5=[7421f545a0d8420c5bec41e74b387d9c]
class Employee--><rect codeLine="10" fill="#FEFECE" filter="url(#fpd9x1g2u2u6y)" height="205.2773" id="Employee" style="stroke:#A80036;stroke-width:2.25;" width="144" x="10.94" y="1212"/><ellipse cx="39.515" cy="1236" fill="#ADD1B2" rx="16.5" ry="16.5" style="stroke:#A80036;stroke-width:1.5;"/><path d="M42.515,1230.75 Q42.8197,1230 43.1712,1229.625 Q43.5228,1229.25 43.9212,1229.25 Q44.6243,1229.25 45.0697,1229.6719 Q45.515,1230.0938 45.515,1231.0781 L45.515,1233.4219 Q45.515,1234.4063 45.0931,1234.8281 Q44.6712,1235.25 44.015,1235.25 Q43.429,1235.25 43.054,1234.9922 Q42.679,1234.7344 42.515,1234.0547 Q42.4447,1233.5859 42.1868,1233.3281 Q41.7181,1232.8359 40.8743,1232.5547 Q40.0306,1232.25 39.1868,1232.25 Q38.1322,1232.25 37.2415,1232.6719 Q36.3743,1233.0938 35.6947,1234.0313 Q35.015,1234.9688 35.015,1236.2578 L35.015,1237.6406 Q35.015,1239.1875 36.2806,1240.2188 Q37.5462,1241.25 39.7962,1241.25 Q41.1322,1241.25 42.0697,1240.9453 Q42.6087,1240.7813 43.2181,1240.2422 Q43.6165,1239.9375 43.8275,1239.8438 Q44.0384,1239.75 44.2962,1239.75 Q44.7884,1239.75 45.14,1240.1484 Q45.515,1240.5234 45.515,1241.0625 Q45.515,1241.5781 44.9993,1242.1875 Q44.2493,1243.0781 43.054,1243.5703 Q41.4837,1244.25 39.5618,1244.25 Q37.3118,1244.25 35.5072,1243.3594 Q34.054,1242.6563 33.0228,1241.1328 Q32.015,1239.6094 32.015,1237.8047 L32.015,1236.1641 Q32.015,1234.2891 32.9056,1232.6484 Q33.8197,1231.0078 35.39,1230.1406 Q36.9837,1229.25 38.765,1229.25 Q39.8431,1229.25 40.7806,1229.625 Q41.7181,1230 42.515,1230.75 Z " fill="#000000"/><text fill="#000000" font-family="sans-serif" font-size="18" lengthAdjust="spacing" textLength="82.5" x="61.865" y="1243.3652">Employee</text><line style="stroke:#A80036;stroke-width:2.25;" x1="12.44" x2="153.44" y1="1260" y2="1260"/><text fill="#000000" font-family="sans-serif" font-size="16.5" lengthAdjust="spacing" textLength="45" x="19.94" y="1283.1284">-name</text><text fill="#000000" font-family="sans-serif" font-size="16.5" lengthAdjust="spacing" textLength="66" x="19.94" y="1303.8823">-address</text><text fill="#000000" font-family="sans-serif" font-size="16.5" lengthAdjust="spacing" textLength="106.5" x="19.94" y="1324.6362">-phoneNumber</text><text fill="#000000" font-family="sans-serif" font-size="16.5" lengthAdjust="spacing" textLength="42" x="19.94" y="1345.3901">-email</text><text fill="#000000" font-family="sans-serif" font-size="16.5" lengthAdjust="spacing" textLength="87" x="19.94" y="1366.144">-employeeId</text><text fill="#000000" font-family="sans-serif" font-size="16.5" lengthAdjust="spacing" textLength="126" x="19.94" y="1386.8979">-organizationRole</text><text fill="#000000" font-family="sans-serif" font-size="16.5" lengthAdjust="spacing" textLength="70.5" x="19.94" y="1407.6519">-socCode</text><!--MD5=[7d96fd15f3014691d2fcaf89c5791e2a]
class SpecialistDoctor--><rect codeLine="20" fill="#FEFECE" filter="url(#fpd9x1g2u2u6y)" height="80.7539" id="SpecialistDoctor" style="stroke:#A80036;stroke-width:2.25;" width="183" x="160.94" y="946.5"/><ellipse cx="183.44" cy="970.5" fill="#ADD1B2" rx="16.5" ry="16.5" style="stroke:#A80036;stroke-width:1.5;"/><path d="M186.44,965.25 Q186.7447,964.5 187.0962,964.125 Q187.4478,963.75 187.8462,963.75 Q188.5493,963.75 188.9947,964.1719 Q189.44,964.5938 189.44,965.5781 L189.44,967.9219 Q189.44,968.9063 189.0181,969.3281 Q188.5962,969.75 187.94,969.75 Q187.354,969.75 186.979,969.4922 Q186.604,969.2344 186.44,968.5547 Q186.3697,968.0859 186.1118,967.8281 Q185.6431,967.3359 184.7993,967.0547 Q183.9556,966.75 183.1118,966.75 Q182.0572,966.75 181.1665,967.1719 Q180.2993,967.5938 179.6197,968.5313 Q178.94,969.4688 178.94,970.7578 L178.94,972.1406 Q178.94,973.6875 180.2056,974.7188 Q181.4712,975.75 183.7212,975.75 Q185.0572,975.75 185.9947,975.4453 Q186.5337,975.2813 187.1431,974.7422 Q187.5415,974.4375 187.7525,974.3438 Q187.9634,974.25 188.2212,974.25 Q188.7134,974.25 189.065,974.6484 Q189.44,975.0234 189.44,975.5625 Q189.44,976.0781 188.9243,976.6875 Q188.1743,977.5781 186.979,978.0703 Q185.4087,978.75 183.4868,978.75 Q181.2368,978.75 179.4322,977.8594 Q177.979,977.1563 176.9478,975.6328 Q175.94,974.1094 175.94,972.3047 L175.94,970.6641 Q175.94,968.7891 176.8306,967.1484 Q177.7447,965.5078 179.315,964.6406 Q180.9087,963.75 182.69,963.75 Q183.7681,963.75 184.7056,964.125 Q185.6431,964.5 186.44,965.25 Z " fill="#000000"/><text fill="#000000" font-family="sans-serif" font-size="18" lengthAdjust="spacing" textLength="135" x="204.44" y="977.8652">SpecialistDoctor</text><line style="stroke:#A80036;stroke-width:2.25;" x1="162.44" x2="342.44" y1="994.5" y2="994.5"/><text fill="#000000" font-family="sans-serif" font-size="16.5" lengthAdjust="spacing" textLength="147" x="169.94" y="1017.6284">-doctorIndexNumber</text><!--MD5=[df38be88ccee13e832d6fafd6288a4ca]
class Test--><rect codeLine="24" fill="#FEFECE" filter="url(#fpd9x1g2u2u6y)" height="122.2617" id="Test" style="stroke:#A80036;stroke-width:2.25;" width="114" x="195.44" y="301.5"/><ellipse cx="231.44" cy="325.5" fill="#ADD1B2" rx="16.5" ry="16.5" style="stroke:#A80036;stroke-width:1.5;"/><path d="M234.44,320.25 Q234.7447,319.5 235.0962,319.125 Q235.4478,318.75 235.8462,318.75 Q236.5493,318.75 236.9947,319.1719 Q237.44,319.5938 237.44,320.5781 L237.44,322.9219 Q237.44,323.9063 237.0181,324.3281 Q236.5962,324.75 235.94,324.75 Q235.354,324.75 234.979,324.4922 Q234.604,324.2344 234.44,323.5547 Q234.3697,323.0859 234.1118,322.8281 Q233.6431,322.3359 232.7993,322.0547 Q231.9556,321.75 231.1118,321.75 Q230.0572,321.75 229.1665,322.1719 Q228.2993,322.5938 227.6197,323.5313 Q226.94,324.4688 226.94,325.7578 L226.94,327.1406 Q226.94,328.6875 228.2056,329.7188 Q229.4712,330.75 231.7212,330.75 Q233.0572,330.75 233.9947,330.4453 Q234.5337,330.2813 235.1431,329.7422 Q235.5415,329.4375 235.7525,329.3438 Q235.9634,329.25 236.2212,329.25 Q236.7134,329.25 237.065,329.6484 Q237.44,330.0234 237.44,330.5625 Q237.44,331.0781 236.9243,331.6875 Q236.1743,332.5781 234.979,333.0703 Q233.4087,333.75 231.4868,333.75 Q229.2368,333.75 227.4322,332.8594 Q225.979,332.1563 224.9478,330.6328 Q223.94,329.1094 223.94,327.3047 L223.94,325.6641 Q223.94,323.7891 224.8306,322.1484 Q225.7447,320.5078 227.315,319.6406 Q228.9087,318.75 230.69,318.75 Q231.7681,318.75 232.7056,319.125 Q233.6431,319.5 234.44,320.25 Z " fill="#000000"/><text fill="#000000" font-family="sans-serif" font-size="18" lengthAdjust="spacing" textLength="36" x="255.44" y="332.8652">Test</text><line style="stroke:#A80036;stroke-width:2.25;" x1="196.94" x2="307.94" y1="349.5" y2="349.5"/><text fill="#000000" font-family="sans-serif" font-size="16.5" lengthAdjust="spacing" textLength="96" x="204.44" y="372.6284">-internalCode</text><text fill="#000000" font-family="sans-serif" font-size="16.5" lengthAdjust="spacing" textLength="70.5" x="204.44" y="393.3823">-nhsCode</text><text fill="#000000" font-family="sans-serif" font-size="16.5" lengthAdjust="spacing" textLength="85.5" x="204.44" y="414.1362">-description</text><!--MD5=[b2d1f399f1909a0bb241ed0598ba126f]
class MedicalReport--><rect codeLine="30" fill="#FEFECE" filter="url(#fpd9x1g2u2u6y)" height="101.5078" id="MedicalReport" style="stroke:#A80036;stroke-width:2.25;" width="166.5" x="169.19" y="634.5"/><ellipse cx="191.69" cy="658.5" fill="#ADD1B2" rx="16.5" ry="16.5" style="stroke:#A80036;stroke-width:1.5;"/><path d="M194.69,653.25 Q194.9947,652.5 195.3462,652.125 Q195.6978,651.75 196.0962,651.75 Q196.7993,651.75 197.2447,652.1719 Q197.69,652.5938 197.69,653.5781 L197.69,655.9219 Q197.69,656.9063 197.2681,657.3281 Q196.8462,657.75 196.19,657.75 Q195.604,657.75 195.229,657.4922 Q194.854,657.2344 194.69,656.5547 Q194.6197,656.0859 194.3618,655.8281 Q193.8931,655.3359 193.0493,655.0547 Q192.2056,654.75 191.3618,654.75 Q190.3072,654.75 189.4165,655.1719 Q188.5493,655.5938 187.8697,656.5313 Q187.19,657.4688 187.19,658.7578 L187.19,660.1406 Q187.19,661.6875 188.4556,662.7188 Q189.7212,663.75 191.9712,663.75 Q193.3072,663.75 194.2447,663.4453 Q194.7837,663.2813 195.3931,662.7422 Q195.7915,662.4375 196.0025,662.3438 Q196.2134,662.25 196.4712,662.25 Q196.9634,662.25 197.315,662.6484 Q197.69,663.0234 197.69,663.5625 Q197.69,664.0781 197.1743,664.6875 Q196.4243,665.5781 195.229,666.0703 Q193.6587,666.75 191.7368,666.75 Q189.4868,666.75 187.6822,665.8594 Q186.229,665.1563 185.1978,663.6328 Q184.19,662.1094 184.19,660.3047 L184.19,658.6641 Q184.19,656.7891 185.0806,655.1484 Q185.9947,653.5078 187.565,652.6406 Q189.1587,651.75 190.94,651.75 Q192.0181,651.75 192.9556,652.125 Q193.8931,652.5 194.69,653.25 Z " fill="#000000"/><text fill="#000000" font-family="sans-serif" font-size="18" lengthAdjust="spacing" textLength="118.5" x="212.69" y="665.8652">MedicalReport</text><line style="stroke:#A80036;stroke-width:2.25;" x1="170.69" x2="334.19" y1="682.5" y2="682.5"/><text fill="#000000" font-family="sans-serif" font-size="16.5" lengthAdjust="spacing" textLength="75" x="178.19" y="705.6284">-diagnosis</text><text fill="#000000" font-family="sans-serif" font-size="16.5" lengthAdjust="spacing" textLength="100.5" x="178.19" y="726.3823">-dateAndTime</text><!--MD5=[80e560c845ce9ec3c8b9ef25ef04dbf1]
class ParameterResult--><rect codeLine="35" fill="#FEFECE" filter="url(#fpd9x1g2u2u6y)" height="80.7539" id="ParameterResult" style="stroke:#A80036;stroke-width:2.25;" width="189" x="388.94" y="645"/><ellipse cx="411.44" cy="669" fill="#ADD1B2" rx="16.5" ry="16.5" style="stroke:#A80036;stroke-width:1.5;"/><path d="M414.44,663.75 Q414.7447,663 415.0962,662.625 Q415.4478,662.25 415.8462,662.25 Q416.5493,662.25 416.9947,662.6719 Q417.44,663.0938 417.44,664.0781 L417.44,666.4219 Q417.44,667.4063 417.0181,667.8281 Q416.5962,668.25 415.94,668.25 Q415.354,668.25 414.979,667.9922 Q414.604,667.7344 414.44,667.0547 Q414.3697,666.5859 414.1118,666.3281 Q413.6431,665.8359 412.7993,665.5547 Q411.9556,665.25 411.1118,665.25 Q410.0572,665.25 409.1665,665.6719 Q408.2993,666.0938 407.6197,667.0313 Q406.94,667.9688 406.94,669.2578 L406.94,670.6406 Q406.94,672.1875 408.2056,673.2188 Q409.4712,674.25 411.7212,674.25 Q413.0572,674.25 413.9947,673.9453 Q414.5337,673.7813 415.1431,673.2422 Q415.5415,672.9375 415.7525,672.8438 Q415.9634,672.75 416.2212,672.75 Q416.7134,672.75 417.065,673.1484 Q417.44,673.5234 417.44,674.0625 Q417.44,674.5781 416.9243,675.1875 Q416.1743,676.0781 414.979,676.5703 Q413.4087,677.25 411.4868,677.25 Q409.2368,677.25 407.4322,676.3594 Q405.979,675.6563 404.9478,674.1328 Q403.94,672.6094 403.94,670.8047 L403.94,669.1641 Q403.94,667.2891 404.8306,665.6484 Q405.7447,664.0078 407.315,663.1406 Q408.9087,662.25 410.69,662.25 Q411.7681,662.25 412.7056,662.625 Q413.6431,663 414.44,663.75 Z " fill="#000000"/><text fill="#000000" font-family="sans-serif" font-size="18" lengthAdjust="spacing" textLength="141" x="432.44" y="676.3652">ParameterResult</text><line style="stroke:#A80036;stroke-width:2.25;" x1="390.44" x2="576.44" y1="693" y2="693"/><text fill="#000000" font-family="sans-serif" font-size="16.5" lengthAdjust="spacing" textLength="121.5" x="397.94" y="716.1284">-parameterValue</text><!--MD5=[09366576ee87d48d594df10cacc83f45]
link Company to Employee--><path codeLine="39" d="M66.92,92.04 C49.34,119.46 30.44,157.65 30.44,195 C30.44,195 30.44,195 30.44,1120.5 C30.44,1150.68 36.5,1182.6 44.51,1211.61 " fill="none" id="Company-Employee" style="stroke:#A80036;stroke-width:1.5;"/><polygon fill="#000000" points="37.7899,693.2622,42.4689,679.7855,33.6539,679.609,37.7899,693.2622" style="stroke:#000000;stroke-width:1.5;"/><text fill="#000000" font-family="sans-serif" font-size="19.5" lengthAdjust="spacing" textLength="63" x="51.44" y="693.7427">employ</text><text fill="#000000" font-family="sans-serif" font-size="19.5" lengthAdjust="spacing" textLength="10.5" x="49.2487" y="123.3019">1</text><text fill="#000000" font-family="sans-serif" font-size="19.5" lengthAdjust="spacing" textLength="30" x="9" y="1196.0175">1..*</text><!--MD5=[7e4bc624457760b649895ff2ead938fa]
link Company to Test--><path codeLine="40" d="M116.195,91.635 C142.925,144.57 190.85,239.505 222.14,301.485 " fill="none" id="Company-Test" style="stroke:#A80036;stroke-width:1.5;"/><polygon fill="#000000" points="186.8201,203.4588,184.6407,189.3604,176.7701,193.334,186.8201,203.4588" style="stroke:#000000;stroke-width:1.5;"/><text fill="#000000" font-family="sans-serif" font-size="19.5" lengthAdjust="spacing" textLength="75" x="196.94" y="204.7427">performs</text><text fill="#000000" font-family="sans-serif" font-size="19.5" lengthAdjust="spacing" textLength="10.5" x="108.8679" y="123.4762">1</text><text fill="#000000" font-family="sans-serif" font-size="19.5" lengthAdjust="spacing" textLength="30" x="184.354" y="285.201">1..*</text><!--MD5=[3176281dfb34e7fae32060ece8ad45db]
link Test to ParameterResult--><path codeLine="41" d="M295.895,424.59 C342.545,489.135 415.325,589.785 455.105,644.82 " fill="none" id="Test-ParameterResult" style="stroke:#A80036;stroke-width:1.5;"/><polygon fill="#000000" points="391.834,535.8417,387.4578,522.2637,380.3126,527.4291,391.834,535.8417" style="stroke:#000000;stroke-width:1.5;"/><text fill="#000000" font-family="sans-serif" font-size="19.5" lengthAdjust="spacing" textLength="85.5" x="400.94" y="537.7427">generates</text><text fill="#000000" font-family="sans-serif" font-size="19.5" lengthAdjust="spacing" textLength="10.5" x="291.2451" y="456.198">1</text><text fill="#000000" font-family="sans-serif" font-size="19.5" lengthAdjust="spacing" textLength="30" x="415.0838" y="628.9699">1..*</text><!--MD5=[c3238c64a9072feb51e313e35a850213]
link Test to MedicalReport--><path codeLine="42" d="M252.44,424.59 C252.44,485.145 252.44,577.515 252.44,634.14 " fill="none" id="Test-MedicalReport" style="stroke:#A80036;stroke-width:1.5;"/><polygon fill="#000000" points="259.94,537.2637,264.3484,523.696,255.5316,523.696,259.94,537.2637" style="stroke:#000000;stroke-width:1.5;"/><text fill="#000000" font-family="sans-serif" font-size="19.5" lengthAdjust="spacing" textLength="64.5" x="273.44" y="537.7427">request</text><text fill="#000000" font-family="sans-serif" font-size="19.5" lengthAdjust="spacing" textLength="30" x="220.1431" y="456.198">1..*</text><text fill="#000000" font-family="sans-serif" font-size="19.5" lengthAdjust="spacing" textLength="10.5" x="240.9392" y="618.4018">1</text><!--MD5=[91b2c2dc70e917e4c40b66372232a103]
link ParameterResult to SpecialistDoctor--><path codeLine="43" d="M459.53,726.15 C437.75,760.95 404.03,812.7 370.94,855 C345.875,887.07 314.855,921.03 290.855,946.275 " fill="none" id="ParameterResult-SpecialistDoctor" style="stroke:#A80036;stroke-width:1.5;"/><polygon fill="#000000" points="393.3782,847.7169,405.1297,839.6288,398.1313,834.2661,393.3782,847.7169" style="stroke:#000000;stroke-width:1.5;"/><text fill="#000000" font-family="sans-serif" font-size="19.5" lengthAdjust="spacing" textLength="105" x="411.44" y="849.7427">analyzed by</text><text fill="#000000" font-family="sans-serif" font-size="19.5" lengthAdjust="spacing" textLength="30" x="421.0184" y="757.9945">1..*</text><text fill="#000000" font-family="sans-serif" font-size="19.5" lengthAdjust="spacing" textLength="10.5" x="288.0244" y="930.4144">1</text><!--MD5=[e66f8c4fa516e197a55cf1b13c3927b3]
link SpecialistDoctor to Employee--><path codeLine="44" d="M231.995,1027.665 C211.595,1066.755 179.135,1128.96 149.705,1185.33 " fill="none" id="SpecialistDoctor-to-Employee" style="stroke:#A80036;stroke-width:1.5;"/><polygon fill="none" points="158.975,1190.25,135.785,1212,140.36,1180.545,158.975,1190.25" style="stroke:#A80036;stroke-width:1.5;"/><!--MD5=[998e2ee25e4f5c17bcb5810d33ccda6e]
link MedicalReport to SpecialistDoctor--><path codeLine="45" d="M252.44,736.965 C252.44,795.885 252.44,892.575 252.44,946.35 " fill="none" id="MedicalReport-SpecialistDoctor" style="stroke:#A80036;stroke-width:1.5;"/><polygon fill="#000000" points="259.94,849.2637,264.3484,835.696,255.5316,835.696,259.94,849.2637" style="stroke:#000000;stroke-width:1.5;"/><text fill="#000000" font-family="sans-serif" font-size="19.5" lengthAdjust="spacing" textLength="84" x="273.44" y="849.7427">written by</text><text fill="#000000" font-family="sans-serif" font-size="19.5" lengthAdjust="spacing" textLength="7.5" x="244.2954" y="768.2033">*</text><text fill="#000000" font-family="sans-serif" font-size="19.5" lengthAdjust="spacing" textLength="10.5" x="240.7259" y="930.5068">1</text><!--MD5=[10fbb1662de2a004418794b85b1d8a48]
@startuml
hide methods
'left to right direction
skinparam classAttributeIconSize 0

class Company{
-designation
}


class Employee{
-name
-address
-phoneNumber
-email
-employeeId
-organizationRole
-socCode
}

class SpecialistDoctor{
-doctorIndexNumber
}

class Test{
-internalCode
-nhsCode
-description
}

class MedicalReport{
-diagnosis
-dateAndTime
}

class ParameterResult{
-parameterValue
}

Company "1"- - -"1..*" Employee : employ >
Company "1"- - -"1..*" Test : performs >
Test "1" - - -"1..*" ParameterResult : generates >
Test "1..*" - - -"1" MedicalReport : request >
ParameterResult "1..*"- - -"1" SpecialistDoctor : analyzed by >
SpecialistDoctor - - -|> Employee
MedicalReport "*"- - -"1" SpecialistDoctor : written by >

@enduml

@startuml
hide methods
skinparam classAttributeIconSize 0

class Company{
-designation
}


class Employee{
-name
-address
-phoneNumber
-email
-employeeId
-organizationRole
-socCode
}

class SpecialistDoctor{
-doctorIndexNumber
}

class Test{
-internalCode
-nhsCode
-description
}

class MedicalReport{
-diagnosis
-dateAndTime
}

class ParameterResult{
-parameterValue
}

Company "1"- - -"1..*" Employee : employ >
Company "1"- - -"1..*" Test : performs >
Test "1" - - -"1..*" ParameterResult : generates >
Test "1..*" - - -"1" MedicalReport : request >
ParameterResult "1..*"- - -"1" SpecialistDoctor : analyzed by >
SpecialistDoctor - - -|> Employee
MedicalReport "*"- - -"1" SpecialistDoctor : written by >

@enduml

PlantUML version 1.2021.5(Sun Apr 25 12:20:28 BST 2021)
(GPL source distribution)
Java Runtime: OpenJDK Runtime Environment
JVM: OpenJDK 64-Bit Server VM
Default Encoding: Cp1252
Language: pt
Country: PT
--></g></svg>