<?xml version="1.0" encoding="UTF-8" standalone="no"?><svg xmlns="http://www.w3.org/2000/svg" xmlns:xlink="http://www.w3.org/1999/xlink" contentScriptType="application/ecmascript" contentStyleType="text/css" height="1711.5px" preserveAspectRatio="none" style="width:2046px;height:1711px;" version="1.1" viewBox="0 0 2046 1711" width="2046px" zoomAndPan="magnify"><defs><filter height="300%" id="f134jis4xe2t38" width="300%" x="-1" y="-1"><feGaussianBlur result="blurOut" stdDeviation="3.0"/><feColorMatrix in="blurOut" result="blurOut2" type="matrix" values="0 0 0 0 0 0 0 0 0 0 0 0 0 0 0 0 0 0 .4 0"/><feOffset dx="6.0" dy="6.0" in="blurOut2" result="blurOut3"/><feBlend in="SourceGraphic" in2="blurOut3" mode="normal"/></filter></defs><g><!--MD5=[9681dc6e01e10c6b4fe06895ae94f592]
cluster UI--><polygon fill="#FFFFFF" filter="url(#f134jis4xe2t38)" points="1593,9,1623,9,1633.5,44.4141,1869,44.4141,1869,159,1593,159,1593,9" style="stroke:#000000;stroke-width:2.25;"/><line style="stroke:#000000;stroke-width:2.25;" x1="1593" x2="1633.5" y1="44.4141" y2="44.4141"/><text fill="#000000" font-family="sans-serif" font-size="21" font-weight="bold" lengthAdjust="spacing" textLength="21" x="1599" y="33.7998">UI</text><!--MD5=[1f2cfc53d9d308f53762fd0fcbaa4873]
cluster Controller--><polygon fill="#FFFFFF" filter="url(#f134jis4xe2t38)" points="903,208.5,1018.5,208.5,1029,243.9141,1248,243.9141,1248,421.5,903,421.5,903,208.5" style="stroke:#000000;stroke-width:2.25;"/><line style="stroke:#000000;stroke-width:2.25;" x1="903" x2="1029" y1="243.9141" y2="243.9141"/><text fill="#000000" font-family="sans-serif" font-size="21" font-weight="bold" lengthAdjust="spacing" textLength="106.5" x="909" y="233.2998">Controller</text><!--MD5=[15636c1ca4a123c16a2a1a8e90aca7a9]
cluster Model--><polygon fill="#FFFFFF" filter="url(#f134jis4xe2t38)" points="399,744,474,744,484.5,779.4141,913.5,779.4141,913.5,1701,399,1701,399,744" style="stroke:#000000;stroke-width:2.25;"/><line style="stroke:#000000;stroke-width:2.25;" x1="399" x2="484.5" y1="779.4141" y2="779.4141"/><text fill="#000000" font-family="sans-serif" font-size="21" font-weight="bold" lengthAdjust="spacing" textLength="66" x="405" y="768.7998">Model</text><!--MD5=[7ce1723ddb6e6233854253973eae5a71]
cluster Store--><polygon fill="#FFFFFF" filter="url(#f134jis4xe2t38)" points="24,1164.75,90,1164.75,100.5,1200.1641,363,1200.1641,363,1356.75,24,1356.75,24,1164.75" style="stroke:#000000;stroke-width:2.25;"/><line style="stroke:#000000;stroke-width:2.25;" x1="24" x2="100.5" y1="1200.1641" y2="1200.1641"/><text fill="#000000" font-family="sans-serif" font-size="21" font-weight="bold" lengthAdjust="spacing" textLength="57" x="30" y="1189.5498">Store</text><!--MD5=[701152d03fbf85133a1de050cfdbc7fd]
cluster Mappers--><polygon fill="#FFFFFF" filter="url(#f134jis4xe2t38)" points="978,471,1080,471,1090.5,506.4141,1458,506.4141,1458,663,978,663,978,471" style="stroke:#000000;stroke-width:2.25;"/><line style="stroke:#000000;stroke-width:2.25;" x1="978" x2="1090.5" y1="506.4141" y2="506.4141"/><text fill="#000000" font-family="sans-serif" font-size="21" font-weight="bold" lengthAdjust="spacing" textLength="93" x="984" y="495.7998">Mappers</text><!--MD5=[7b8bc9ee8bb84b99fb3a3f9477c19238]
cluster DTO--><polygon fill="#FFFFFF" filter="url(#f134jis4xe2t38)" points="1195.5,712.5,1248,712.5,1258.5,747.9141,2020.5,747.9141,2020.5,1050,1195.5,1050,1195.5,712.5" style="stroke:#000000;stroke-width:2.25;"/><line style="stroke:#000000;stroke-width:2.25;" x1="1195.5" x2="1258.5" y1="747.9141" y2="747.9141"/><text fill="#000000" font-family="sans-serif" font-size="21" font-weight="bold" lengthAdjust="spacing" textLength="43.5" x="1201.5" y="737.2998">DTO</text><!--MD5=[e4ec2e7ae8016ed7f2a23175278300b9]
class WriteMedicalReportUI--><rect codeLine="3" fill="#FEFECE" filter="url(#f134jis4xe2t38)" height="72" id="WriteMedicalReportUI" style="stroke:#A80036;stroke-width:2.25;" width="226.5" x="1617.75" y="63"/><ellipse cx="1640.25" cy="87" fill="#ADD1B2" rx="16.5" ry="16.5" style="stroke:#A80036;stroke-width:1.5;"/><path d="M1643.25,81.75 Q1643.5547,81 1643.9063,80.625 Q1644.2578,80.25 1644.6563,80.25 Q1645.3594,80.25 1645.8047,80.6719 Q1646.25,81.0938 1646.25,82.0781 L1646.25,84.4219 Q1646.25,85.4063 1645.8281,85.8281 Q1645.4063,86.25 1644.75,86.25 Q1644.1641,86.25 1643.7891,85.9922 Q1643.4141,85.7344 1643.25,85.0547 Q1643.1797,84.5859 1642.9219,84.3281 Q1642.4531,83.8359 1641.6094,83.5547 Q1640.7656,83.25 1639.9219,83.25 Q1638.8672,83.25 1637.9766,83.6719 Q1637.1094,84.0938 1636.4297,85.0313 Q1635.75,85.9688 1635.75,87.2578 L1635.75,88.6406 Q1635.75,90.1875 1637.0156,91.2188 Q1638.2813,92.25 1640.5313,92.25 Q1641.8672,92.25 1642.8047,91.9453 Q1643.3438,91.7813 1643.9531,91.2422 Q1644.3516,90.9375 1644.5625,90.8438 Q1644.7734,90.75 1645.0313,90.75 Q1645.5234,90.75 1645.875,91.1484 Q1646.25,91.5234 1646.25,92.0625 Q1646.25,92.5781 1645.7344,93.1875 Q1644.9844,94.0781 1643.7891,94.5703 Q1642.2188,95.25 1640.2969,95.25 Q1638.0469,95.25 1636.2422,94.3594 Q1634.7891,93.6563 1633.7578,92.1328 Q1632.75,90.6094 1632.75,88.8047 L1632.75,87.1641 Q1632.75,85.2891 1633.6406,83.6484 Q1634.5547,82.0078 1636.125,81.1406 Q1637.7188,80.25 1639.5,80.25 Q1640.5781,80.25 1641.5156,80.625 Q1642.4531,81 1643.25,81.75 Z " fill="#000000"/><text fill="#000000" font-family="sans-serif" font-size="18" lengthAdjust="spacing" textLength="178.5" x="1661.25" y="94.3652">WriteMedicalReportUI</text><line style="stroke:#A80036;stroke-width:2.25;" x1="1619.25" x2="1842.75" y1="111" y2="111"/><line style="stroke:#A80036;stroke-width:2.25;" x1="1619.25" x2="1842.75" y1="123" y2="123"/><!--MD5=[4304a37fa14ad02974e6bd4bd1961bd7]
class WriteMedicalReportController--><rect codeLine="8" fill="#FEFECE" filter="url(#f134jis4xe2t38)" height="134.2617" id="WriteMedicalReportController" style="stroke:#A80036;stroke-width:2.25;" width="297" x="927" y="262.5"/><ellipse cx="952.875" cy="286.5" fill="#ADD1B2" rx="16.5" ry="16.5" style="stroke:#A80036;stroke-width:1.5;"/><path d="M955.875,281.25 Q956.1797,280.5 956.5313,280.125 Q956.8828,279.75 957.2813,279.75 Q957.9844,279.75 958.4297,280.1719 Q958.875,280.5938 958.875,281.5781 L958.875,283.9219 Q958.875,284.9063 958.4531,285.3281 Q958.0313,285.75 957.375,285.75 Q956.7891,285.75 956.4141,285.4922 Q956.0391,285.2344 955.875,284.5547 Q955.8047,284.0859 955.5469,283.8281 Q955.0781,283.3359 954.2344,283.0547 Q953.3906,282.75 952.5469,282.75 Q951.4922,282.75 950.6016,283.1719 Q949.7344,283.5938 949.0547,284.5313 Q948.375,285.4688 948.375,286.7578 L948.375,288.1406 Q948.375,289.6875 949.6406,290.7188 Q950.9063,291.75 953.1563,291.75 Q954.4922,291.75 955.4297,291.4453 Q955.9688,291.2813 956.5781,290.7422 Q956.9766,290.4375 957.1875,290.3438 Q957.3984,290.25 957.6563,290.25 Q958.1484,290.25 958.5,290.6484 Q958.875,291.0234 958.875,291.5625 Q958.875,292.0781 958.3594,292.6875 Q957.6094,293.5781 956.4141,294.0703 Q954.8438,294.75 952.9219,294.75 Q950.6719,294.75 948.8672,293.8594 Q947.4141,293.1563 946.3828,291.6328 Q945.375,290.1094 945.375,288.3047 L945.375,286.6641 Q945.375,284.7891 946.2656,283.1484 Q947.1797,281.5078 948.75,280.6406 Q950.3438,279.75 952.125,279.75 Q953.2031,279.75 954.1406,280.125 Q955.0781,280.5 955.875,281.25 Z " fill="#000000"/><text fill="#000000" font-family="sans-serif" font-size="18" lengthAdjust="spacing" textLength="241.5" x="974.625" y="293.8652">WriteMedicalReportController</text><line style="stroke:#A80036;stroke-width:2.25;" x1="928.5" x2="1222.5" y1="310.5" y2="310.5"/><line style="stroke:#A80036;stroke-width:2.25;" x1="928.5" x2="1222.5" y1="322.5" y2="322.5"/><ellipse cx="943.5" cy="339" fill="#84BE84" rx="4.5" ry="4.5" style="stroke:#038048;stroke-width:1.5;"/><text fill="#000000" font-family="sans-serif" font-size="16.5" lengthAdjust="spacing" textLength="250.5" x="957" y="345.6284">getTestHasSamplesAnalyzedList()</text><ellipse cx="943.5" cy="359.7539" fill="#84BE84" rx="4.5" ry="4.5" style="stroke:#038048;stroke-width:1.5;"/><text fill="#000000" font-family="sans-serif" font-size="16.5" lengthAdjust="spacing" textLength="258" x="957" y="366.3823">getTestParameterList(selectedTest)</text><ellipse cx="943.5" cy="380.5078" fill="#84BE84" rx="4.5" ry="4.5" style="stroke:#038048;stroke-width:1.5;"/><text fill="#000000" font-family="sans-serif" font-size="16.5" lengthAdjust="spacing" textLength="210" x="957" y="387.1362">addMedicalReport(diagnosis)</text><!--MD5=[02e4b9b7573f1156f41e60aa5b4e25a4]
class Company--><rect codeLine="16" fill="#FEFECE" filter="url(#f134jis4xe2t38)" height="113.5078" id="Company" style="stroke:#A80036;stroke-width:2.25;" width="168" x="423" y="839.25"/><ellipse cx="463.725" cy="863.25" fill="#ADD1B2" rx="16.5" ry="16.5" style="stroke:#A80036;stroke-width:1.5;"/><path d="M466.725,858 Q467.0297,857.25 467.3812,856.875 Q467.7328,856.5 468.1312,856.5 Q468.8344,856.5 469.2797,856.9219 Q469.725,857.3438 469.725,858.3281 L469.725,860.6719 Q469.725,861.6563 469.3031,862.0781 Q468.8812,862.5 468.225,862.5 Q467.6391,862.5 467.2641,862.2422 Q466.8891,861.9844 466.725,861.3047 Q466.6547,860.8359 466.3969,860.5781 Q465.9281,860.0859 465.0844,859.8047 Q464.2406,859.5 463.3969,859.5 Q462.3422,859.5 461.4516,859.9219 Q460.5844,860.3438 459.9047,861.2813 Q459.225,862.2188 459.225,863.5078 L459.225,864.8906 Q459.225,866.4375 460.4906,867.4688 Q461.7562,868.5 464.0062,868.5 Q465.3422,868.5 466.2797,868.1953 Q466.8187,868.0313 467.4281,867.4922 Q467.8266,867.1875 468.0375,867.0938 Q468.2484,867 468.5062,867 Q468.9984,867 469.35,867.3984 Q469.725,867.7734 469.725,868.3125 Q469.725,868.8281 469.2094,869.4375 Q468.4594,870.3281 467.2641,870.8203 Q465.6937,871.5 463.7719,871.5 Q461.5219,871.5 459.7172,870.6094 Q458.2641,869.9063 457.2328,868.3828 Q456.225,866.8594 456.225,865.0547 L456.225,863.4141 Q456.225,861.5391 457.1156,859.8984 Q458.0297,858.2578 459.6,857.3906 Q461.1937,856.5 462.975,856.5 Q464.0531,856.5 464.9906,856.875 Q465.9281,857.25 466.725,858 Z " fill="#000000"/><text fill="#000000" font-family="sans-serif" font-size="18" lengthAdjust="spacing" textLength="79.5" x="488.775" y="870.6152">Company</text><line style="stroke:#A80036;stroke-width:2.25;" x1="424.5" x2="589.5" y1="887.25" y2="887.25"/><rect fill="none" height="9" style="stroke:#C82930;stroke-width:1.5;" width="9" x="435" y="899.25"/><text fill="#000000" font-family="sans-serif" font-size="16.5" lengthAdjust="spacing" textLength="129" x="453" y="910.3784">String designation</text><line style="stroke:#A80036;stroke-width:2.25;" x1="424.5" x2="589.5" y1="920.0039" y2="920.0039"/><ellipse cx="439.5" cy="936.5039" fill="#84BE84" rx="4.5" ry="4.5" style="stroke:#038048;stroke-width:1.5;"/><text fill="#000000" font-family="sans-serif" font-size="16.5" lengthAdjust="spacing" textLength="105" x="453" y="943.1323">getTestStore()</text><!--MD5=[df38be88ccee13e832d6fafd6288a4ca]
class Test--><rect codeLine="21" fill="#FEFECE" filter="url(#f134jis4xe2t38)" height="258.7852" id="Test" style="stroke:#A80036;stroke-width:2.25;" width="265.5" x="591.75" y="1146"/><ellipse cx="700.125" cy="1170" fill="#ADD1B2" rx="16.5" ry="16.5" style="stroke:#A80036;stroke-width:1.5;"/><path d="M703.125,1164.75 Q703.4297,1164 703.7813,1163.625 Q704.1328,1163.25 704.5313,1163.25 Q705.2344,1163.25 705.6797,1163.6719 Q706.125,1164.0938 706.125,1165.0781 L706.125,1167.4219 Q706.125,1168.4063 705.7031,1168.8281 Q705.2813,1169.25 704.625,1169.25 Q704.0391,1169.25 703.6641,1168.9922 Q703.2891,1168.7344 703.125,1168.0547 Q703.0547,1167.5859 702.7969,1167.3281 Q702.3281,1166.8359 701.4844,1166.5547 Q700.6406,1166.25 699.7969,1166.25 Q698.7422,1166.25 697.8516,1166.6719 Q696.9844,1167.0938 696.3047,1168.0313 Q695.625,1168.9688 695.625,1170.2578 L695.625,1171.6406 Q695.625,1173.1875 696.8906,1174.2188 Q698.1563,1175.25 700.4063,1175.25 Q701.7422,1175.25 702.6797,1174.9453 Q703.2188,1174.7813 703.8281,1174.2422 Q704.2266,1173.9375 704.4375,1173.8438 Q704.6484,1173.75 704.9063,1173.75 Q705.3984,1173.75 705.75,1174.1484 Q706.125,1174.5234 706.125,1175.0625 Q706.125,1175.5781 705.6094,1176.1875 Q704.8594,1177.0781 703.6641,1177.5703 Q702.0938,1178.25 700.1719,1178.25 Q697.9219,1178.25 696.1172,1177.3594 Q694.6641,1176.6563 693.6328,1175.1328 Q692.625,1173.6094 692.625,1171.8047 L692.625,1170.1641 Q692.625,1168.2891 693.5156,1166.6484 Q694.4297,1165.0078 696,1164.1406 Q697.5938,1163.25 699.375,1163.25 Q700.4531,1163.25 701.3906,1163.625 Q702.3281,1164 703.125,1164.75 Z " fill="#000000"/><text fill="#000000" font-family="sans-serif" font-size="18" lengthAdjust="spacing" textLength="36" x="730.875" y="1177.3652">Test</text><line style="stroke:#A80036;stroke-width:2.25;" x1="593.25" x2="855.75" y1="1194" y2="1194"/><rect fill="none" height="9" style="stroke:#C82930;stroke-width:1.5;" width="9" x="603.75" y="1206"/><text fill="#000000" font-family="sans-serif" font-size="16.5" lengthAdjust="spacing" textLength="136.5" x="621.75" y="1217.1284">String internalCode</text><rect fill="none" height="9" style="stroke:#C82930;stroke-width:1.5;" width="9" x="603.75" y="1226.7539"/><text fill="#000000" font-family="sans-serif" font-size="16.5" lengthAdjust="spacing" textLength="111" x="621.75" y="1237.8823">String nhsCode</text><rect fill="none" height="9" style="stroke:#C82930;stroke-width:1.5;" width="9" x="603.75" y="1247.5078"/><text fill="#000000" font-family="sans-serif" font-size="16.5" lengthAdjust="spacing" textLength="126" x="621.75" y="1258.6362">String description</text><line style="stroke:#A80036;stroke-width:2.25;" x1="593.25" x2="855.75" y1="1268.2617" y2="1268.2617"/><ellipse cx="608.25" cy="1284.7617" fill="#84BE84" rx="4.5" ry="4.5" style="stroke:#038048;stroke-width:1.5;"/><text fill="#000000" font-family="sans-serif" font-size="16.5" lengthAdjust="spacing" textLength="165" x="621.75" y="1291.3901">getTestParameterList()</text><ellipse cx="608.25" cy="1305.5156" fill="#84BE84" rx="4.5" ry="4.5" style="stroke:#038048;stroke-width:1.5;"/><text fill="#000000" font-family="sans-serif" font-size="16.5" lengthAdjust="spacing" textLength="115.5" x="621.75" y="1312.144">getDescription()</text><ellipse cx="608.25" cy="1326.2695" fill="#84BE84" rx="4.5" ry="4.5" style="stroke:#038048;stroke-width:1.5;"/><text fill="#000000" font-family="sans-serif" font-size="16.5" lengthAdjust="spacing" textLength="124.5" x="621.75" y="1332.8979">getInternalCode()</text><ellipse cx="608.25" cy="1347.0234" fill="#84BE84" rx="4.5" ry="4.5" style="stroke:#038048;stroke-width:1.5;"/><text fill="#000000" font-family="sans-serif" font-size="16.5" lengthAdjust="spacing" textLength="210" x="621.75" y="1353.6519">addMedicalReport(diagnosis)</text><ellipse cx="608.25" cy="1367.7773" fill="#84BE84" rx="4.5" ry="4.5" style="stroke:#038048;stroke-width:1.5;"/><text fill="#000000" font-family="sans-serif" font-size="16.5" lengthAdjust="spacing" textLength="169.5" x="621.75" y="1374.4058">validateMedicalReport()</text><rect fill="#F24D5C" height="9" style="stroke:#C82930;stroke-width:1.5;" width="9" x="603.75" y="1384.0313"/><text fill="#000000" font-family="sans-serif" font-size="16.5" lengthAdjust="spacing" textLength="226.5" x="621.75" y="1395.1597">updateStateToDiagnosisMade()</text><!--MD5=[b2d1f399f1909a0bb241ed0598ba126f]
class MedicalReport--><rect codeLine="33" fill="#FEFECE" filter="url(#f134jis4xe2t38)" height="155.0156" id="MedicalReport" style="stroke:#A80036;stroke-width:2.25;" width="222" x="613.5" y="1522.5"/><ellipse cx="660.975" cy="1546.5" fill="#ADD1B2" rx="16.5" ry="16.5" style="stroke:#A80036;stroke-width:1.5;"/><path d="M663.975,1541.25 Q664.2797,1540.5 664.6312,1540.125 Q664.9828,1539.75 665.3812,1539.75 Q666.0844,1539.75 666.5297,1540.1719 Q666.975,1540.5938 666.975,1541.5781 L666.975,1543.9219 Q666.975,1544.9063 666.5531,1545.3281 Q666.1312,1545.75 665.475,1545.75 Q664.8891,1545.75 664.5141,1545.4922 Q664.1391,1545.2344 663.975,1544.5547 Q663.9047,1544.0859 663.6469,1543.8281 Q663.1781,1543.3359 662.3344,1543.0547 Q661.4906,1542.75 660.6469,1542.75 Q659.5922,1542.75 658.7016,1543.1719 Q657.8344,1543.5938 657.1547,1544.5313 Q656.475,1545.4688 656.475,1546.7578 L656.475,1548.1406 Q656.475,1549.6875 657.7406,1550.7188 Q659.0062,1551.75 661.2562,1551.75 Q662.5922,1551.75 663.5297,1551.4453 Q664.0687,1551.2813 664.6781,1550.7422 Q665.0766,1550.4375 665.2875,1550.3438 Q665.4984,1550.25 665.7562,1550.25 Q666.2484,1550.25 666.6,1550.6484 Q666.975,1551.0234 666.975,1551.5625 Q666.975,1552.0781 666.4594,1552.6875 Q665.7094,1553.5781 664.5141,1554.0703 Q662.9437,1554.75 661.0219,1554.75 Q658.7719,1554.75 656.9672,1553.8594 Q655.5141,1553.1563 654.4828,1551.6328 Q653.475,1550.1094 653.475,1548.3047 L653.475,1546.6641 Q653.475,1544.7891 654.3656,1543.1484 Q655.2797,1541.5078 656.85,1540.6406 Q658.4437,1539.75 660.225,1539.75 Q661.3031,1539.75 662.2406,1540.125 Q663.1781,1540.5 663.975,1541.25 Z " fill="#000000"/><text fill="#000000" font-family="sans-serif" font-size="18" lengthAdjust="spacing" textLength="118.5" x="687.525" y="1553.8652">MedicalReport</text><line style="stroke:#A80036;stroke-width:2.25;" x1="615" x2="834" y1="1570.5" y2="1570.5"/><rect fill="none" height="9" style="stroke:#C82930;stroke-width:1.5;" width="9" x="625.5" y="1582.5"/><text fill="#000000" font-family="sans-serif" font-size="16.5" lengthAdjust="spacing" textLength="115.5" x="643.5" y="1593.6284">String diagnosis</text><rect fill="none" height="9" style="stroke:#C82930;stroke-width:1.5;" width="9" x="625.5" y="1603.2539"/><text fill="#000000" font-family="sans-serif" font-size="16.5" lengthAdjust="spacing" textLength="109.5" x="643.5" y="1614.3823">Date createdAt</text><line style="stroke:#A80036;stroke-width:2.25;" x1="615" x2="834" y1="1624.0078" y2="1624.0078"/><ellipse cx="630" cy="1640.5078" fill="#84BE84" rx="4.5" ry="4.5" style="stroke:#038048;stroke-width:1.5;"/><text fill="#000000" font-family="sans-serif" font-size="16.5" lengthAdjust="spacing" textLength="183" x="643.5" y="1647.1362">MedicalReport(diagnosis)</text><ellipse cx="630" cy="1661.2617" fill="#84BE84" rx="4.5" ry="4.5" style="stroke:#038048;stroke-width:1.5;"/><text fill="#000000" font-family="sans-serif" font-size="16.5" lengthAdjust="spacing" textLength="132" x="643.5" y="1667.8901">addCreationDate()</text><!--MD5=[0f07739f46effee96e095e9c408da841]
class TestParameter--><rect codeLine="40" fill="#FEFECE" filter="url(#f134jis4xe2t38)" height="196.5234" id="TestParameter" style="stroke:#A80036;stroke-width:2.25;" width="244.5" x="644.25" y="798"/><ellipse cx="699.825" cy="822" fill="#ADD1B2" rx="16.5" ry="16.5" style="stroke:#A80036;stroke-width:1.5;"/><path d="M702.825,816.75 Q703.1297,816 703.4813,815.625 Q703.8328,815.25 704.2313,815.25 Q704.9344,815.25 705.3797,815.6719 Q705.825,816.0938 705.825,817.0781 L705.825,819.4219 Q705.825,820.4063 705.4031,820.8281 Q704.9813,821.25 704.325,821.25 Q703.7391,821.25 703.3641,820.9922 Q702.9891,820.7344 702.825,820.0547 Q702.7547,819.5859 702.4969,819.3281 Q702.0281,818.8359 701.1844,818.5547 Q700.3406,818.25 699.4969,818.25 Q698.4422,818.25 697.5516,818.6719 Q696.6844,819.0938 696.0047,820.0313 Q695.325,820.9688 695.325,822.2578 L695.325,823.6406 Q695.325,825.1875 696.5906,826.2188 Q697.8563,827.25 700.1063,827.25 Q701.4422,827.25 702.3797,826.9453 Q702.9188,826.7813 703.5281,826.2422 Q703.9266,825.9375 704.1375,825.8438 Q704.3484,825.75 704.6063,825.75 Q705.0984,825.75 705.45,826.1484 Q705.825,826.5234 705.825,827.0625 Q705.825,827.5781 705.3094,828.1875 Q704.5594,829.0781 703.3641,829.5703 Q701.7938,830.25 699.8719,830.25 Q697.6219,830.25 695.8172,829.3594 Q694.3641,828.6563 693.3328,827.1328 Q692.325,825.6094 692.325,823.8047 L692.325,822.1641 Q692.325,820.2891 693.2156,818.6484 Q694.1297,817.0078 695.7,816.1406 Q697.2938,815.25 699.075,815.25 Q700.1531,815.25 701.0906,815.625 Q702.0281,816 702.825,816.75 Z " fill="#000000"/><text fill="#000000" font-family="sans-serif" font-size="18" lengthAdjust="spacing" textLength="123" x="728.175" y="829.3652">TestParameter</text><line style="stroke:#A80036;stroke-width:2.25;" x1="645.75" x2="887.25" y1="846" y2="846"/><line style="stroke:#A80036;stroke-width:2.25;" x1="645.75" x2="887.25" y1="858" y2="858"/><ellipse cx="660.75" cy="874.5" fill="#84BE84" rx="4.5" ry="4.5" style="stroke:#038048;stroke-width:1.5;"/><text fill="#000000" font-family="sans-serif" font-size="16.5" lengthAdjust="spacing" textLength="148.5" x="674.25" y="881.1284">getParameterName()</text><ellipse cx="660.75" cy="895.2539" fill="#84BE84" rx="4.5" ry="4.5" style="stroke:#038048;stroke-width:1.5;"/><text fill="#000000" font-family="sans-serif" font-size="16.5" lengthAdjust="spacing" textLength="153" x="674.25" y="901.8823">getParameterResult()</text><ellipse cx="660.75" cy="916.0078" fill="#84BE84" rx="4.5" ry="4.5" style="stroke:#038048;stroke-width:1.5;"/><text fill="#000000" font-family="sans-serif" font-size="16.5" lengthAdjust="spacing" textLength="151.5" x="674.25" y="922.6362">getParameterMetric()</text><ellipse cx="660.75" cy="936.7617" fill="#84BE84" rx="4.5" ry="4.5" style="stroke:#038048;stroke-width:1.5;"/><text fill="#000000" font-family="sans-serif" font-size="16.5" lengthAdjust="spacing" textLength="199.5" x="674.25" y="943.3901">getParameterMinRefValue()</text><ellipse cx="660.75" cy="957.5156" fill="#84BE84" rx="4.5" ry="4.5" style="stroke:#038048;stroke-width:1.5;"/><text fill="#000000" font-family="sans-serif" font-size="16.5" lengthAdjust="spacing" textLength="205.5" x="674.25" y="964.144">getParameterMaxRefValue()</text><ellipse cx="660.75" cy="978.2695" fill="#84BE84" rx="4.5" ry="4.5" style="stroke:#038048;stroke-width:1.5;"/><text fill="#000000" font-family="sans-serif" font-size="16.5" lengthAdjust="spacing" textLength="145.5" x="674.25" y="984.8979">getRefValueMetric()</text><!--MD5=[0f6f7964b844a64b0496af0dda7914bd]
class TestStore--><rect codeLine="51" fill="#FEFECE" filter="url(#f134jis4xe2t38)" height="113.5078" id="TestStore" style="stroke:#A80036;stroke-width:2.25;" width="289.5" x="48.75" y="1218.75"/><ellipse cx="147.375" cy="1242.75" fill="#ADD1B2" rx="16.5" ry="16.5" style="stroke:#A80036;stroke-width:1.5;"/><path d="M150.375,1237.5 Q150.6797,1236.75 151.0313,1236.375 Q151.3828,1236 151.7813,1236 Q152.4844,1236 152.9297,1236.4219 Q153.375,1236.8438 153.375,1237.8281 L153.375,1240.1719 Q153.375,1241.1563 152.9531,1241.5781 Q152.5313,1242 151.875,1242 Q151.2891,1242 150.9141,1241.7422 Q150.5391,1241.4844 150.375,1240.8047 Q150.3047,1240.3359 150.0469,1240.0781 Q149.5781,1239.5859 148.7344,1239.3047 Q147.8906,1239 147.0469,1239 Q145.9922,1239 145.1016,1239.4219 Q144.2344,1239.8438 143.5547,1240.7813 Q142.875,1241.7188 142.875,1243.0078 L142.875,1244.3906 Q142.875,1245.9375 144.1406,1246.9688 Q145.4063,1248 147.6563,1248 Q148.9922,1248 149.9297,1247.6953 Q150.4688,1247.5313 151.0781,1246.9922 Q151.4766,1246.6875 151.6875,1246.5938 Q151.8984,1246.5 152.1563,1246.5 Q152.6484,1246.5 153,1246.8984 Q153.375,1247.2734 153.375,1247.8125 Q153.375,1248.3281 152.8594,1248.9375 Q152.1094,1249.8281 150.9141,1250.3203 Q149.3438,1251 147.4219,1251 Q145.1719,1251 143.3672,1250.1094 Q141.9141,1249.4063 140.8828,1247.8828 Q139.875,1246.3594 139.875,1244.5547 L139.875,1242.9141 Q139.875,1241.0391 140.7656,1239.3984 Q141.6797,1237.7578 143.25,1236.8906 Q144.8438,1236 146.625,1236 Q147.7031,1236 148.6406,1236.375 Q149.5781,1236.75 150.375,1237.5 Z " fill="#000000"/><text fill="#000000" font-family="sans-serif" font-size="18" lengthAdjust="spacing" textLength="79.5" x="178.125" y="1250.1152">TestStore</text><line style="stroke:#A80036;stroke-width:2.25;" x1="50.25" x2="336.75" y1="1266.75" y2="1266.75"/><line style="stroke:#A80036;stroke-width:2.25;" x1="50.25" x2="336.75" y1="1278.75" y2="1278.75"/><ellipse cx="65.25" cy="1295.25" fill="#84BE84" rx="4.5" ry="4.5" style="stroke:#038048;stroke-width:1.5;"/><text fill="#000000" font-family="sans-serif" font-size="16.5" lengthAdjust="spacing" textLength="250.5" x="78.75" y="1301.8784">getTestHasSamplesAnalyzedList()</text><ellipse cx="65.25" cy="1316.0039" fill="#84BE84" rx="4.5" ry="4.5" style="stroke:#038048;stroke-width:1.5;"/><text fill="#000000" font-family="sans-serif" font-size="16.5" lengthAdjust="spacing" textLength="211.5" x="78.75" y="1322.6323">getTestByInternalCode(code)</text><!--MD5=[144698ec4d0188f6929a3b58a3eeb1f6]
class TestMapper--><rect codeLine="58" fill="#FEFECE" filter="url(#f134jis4xe2t38)" height="113.5078" id="TestMapper" style="stroke:#A80036;stroke-width:2.25;" width="145.5" x="1002.75" y="525"/><ellipse cx="1025.25" cy="549" fill="#ADD1B2" rx="16.5" ry="16.5" style="stroke:#A80036;stroke-width:1.5;"/><path d="M1028.25,543.75 Q1028.5547,543 1028.9063,542.625 Q1029.2578,542.25 1029.6563,542.25 Q1030.3594,542.25 1030.8047,542.6719 Q1031.25,543.0938 1031.25,544.0781 L1031.25,546.4219 Q1031.25,547.4063 1030.8281,547.8281 Q1030.4063,548.25 1029.75,548.25 Q1029.1641,548.25 1028.7891,547.9922 Q1028.4141,547.7344 1028.25,547.0547 Q1028.1797,546.5859 1027.9219,546.3281 Q1027.4531,545.8359 1026.6094,545.5547 Q1025.7656,545.25 1024.9219,545.25 Q1023.8672,545.25 1022.9766,545.6719 Q1022.1094,546.0938 1021.4297,547.0313 Q1020.75,547.9688 1020.75,549.2578 L1020.75,550.6406 Q1020.75,552.1875 1022.0156,553.2188 Q1023.2813,554.25 1025.5313,554.25 Q1026.8672,554.25 1027.8047,553.9453 Q1028.3438,553.7813 1028.9531,553.2422 Q1029.3516,552.9375 1029.5625,552.8438 Q1029.7734,552.75 1030.0313,552.75 Q1030.5234,552.75 1030.875,553.1484 Q1031.25,553.5234 1031.25,554.0625 Q1031.25,554.5781 1030.7344,555.1875 Q1029.9844,556.0781 1028.7891,556.5703 Q1027.2188,557.25 1025.2969,557.25 Q1023.0469,557.25 1021.2422,556.3594 Q1019.7891,555.6563 1018.7578,554.1328 Q1017.75,552.6094 1017.75,550.8047 L1017.75,549.1641 Q1017.75,547.2891 1018.6406,545.6484 Q1019.5547,544.0078 1021.125,543.1406 Q1022.7188,542.25 1024.5,542.25 Q1025.5781,542.25 1026.5156,542.625 Q1027.4531,543 1028.25,543.75 Z " fill="#000000"/><text fill="#000000" font-family="sans-serif" font-size="18" lengthAdjust="spacing" textLength="97.5" x="1046.25" y="556.3652">TestMapper</text><line style="stroke:#A80036;stroke-width:2.25;" x1="1004.25" x2="1146.75" y1="573" y2="573"/><line style="stroke:#A80036;stroke-width:2.25;" x1="1004.25" x2="1146.75" y1="585" y2="585"/><ellipse cx="1019.25" cy="601.5" fill="#84BE84" rx="4.5" ry="4.5" style="stroke:#038048;stroke-width:1.5;"/><text fill="#000000" font-family="sans-serif" font-size="16.5" lengthAdjust="spacing" textLength="76.5" x="1032.75" y="608.1284">toDto(test)</text><ellipse cx="1019.25" cy="622.2539" fill="#84BE84" rx="4.5" ry="4.5" style="stroke:#038048;stroke-width:1.5;"/><text fill="#000000" font-family="sans-serif" font-size="16.5" lengthAdjust="spacing" textLength="102" x="1032.75" y="628.8823">toDto(testList)</text><!--MD5=[a82d32c079496d6dca2681dc0633feb0]
class TestParameterMapper--><rect codeLine="63" fill="#FEFECE" filter="url(#f134jis4xe2t38)" height="113.5078" id="TestParameterMapper" style="stroke:#A80036;stroke-width:2.25;" width="232.5" x="1200.75" y="525"/><ellipse cx="1223.25" cy="549" fill="#ADD1B2" rx="16.5" ry="16.5" style="stroke:#A80036;stroke-width:1.5;"/><path d="M1226.25,543.75 Q1226.5547,543 1226.9063,542.625 Q1227.2578,542.25 1227.6563,542.25 Q1228.3594,542.25 1228.8047,542.6719 Q1229.25,543.0938 1229.25,544.0781 L1229.25,546.4219 Q1229.25,547.4063 1228.8281,547.8281 Q1228.4063,548.25 1227.75,548.25 Q1227.1641,548.25 1226.7891,547.9922 Q1226.4141,547.7344 1226.25,547.0547 Q1226.1797,546.5859 1225.9219,546.3281 Q1225.4531,545.8359 1224.6094,545.5547 Q1223.7656,545.25 1222.9219,545.25 Q1221.8672,545.25 1220.9766,545.6719 Q1220.1094,546.0938 1219.4297,547.0313 Q1218.75,547.9688 1218.75,549.2578 L1218.75,550.6406 Q1218.75,552.1875 1220.0156,553.2188 Q1221.2813,554.25 1223.5313,554.25 Q1224.8672,554.25 1225.8047,553.9453 Q1226.3438,553.7813 1226.9531,553.2422 Q1227.3516,552.9375 1227.5625,552.8438 Q1227.7734,552.75 1228.0313,552.75 Q1228.5234,552.75 1228.875,553.1484 Q1229.25,553.5234 1229.25,554.0625 Q1229.25,554.5781 1228.7344,555.1875 Q1227.9844,556.0781 1226.7891,556.5703 Q1225.2188,557.25 1223.2969,557.25 Q1221.0469,557.25 1219.2422,556.3594 Q1217.7891,555.6563 1216.7578,554.1328 Q1215.75,552.6094 1215.75,550.8047 L1215.75,549.1641 Q1215.75,547.2891 1216.6406,545.6484 Q1217.5547,544.0078 1219.125,543.1406 Q1220.7188,542.25 1222.5,542.25 Q1223.5781,542.25 1224.5156,542.625 Q1225.4531,543 1226.25,543.75 Z " fill="#000000"/><text fill="#000000" font-family="sans-serif" font-size="18" lengthAdjust="spacing" textLength="184.5" x="1244.25" y="556.3652">TestParameterMapper</text><line style="stroke:#A80036;stroke-width:2.25;" x1="1202.25" x2="1431.75" y1="573" y2="573"/><line style="stroke:#A80036;stroke-width:2.25;" x1="1202.25" x2="1431.75" y1="585" y2="585"/><ellipse cx="1217.25" cy="601.5" fill="#84BE84" rx="4.5" ry="4.5" style="stroke:#038048;stroke-width:1.5;"/><text fill="#000000" font-family="sans-serif" font-size="16.5" lengthAdjust="spacing" textLength="192" x="1230.75" y="608.1284">toDTO(testParametersList)</text><ellipse cx="1217.25" cy="622.2539" fill="#84BE84" rx="4.5" ry="4.5" style="stroke:#038048;stroke-width:1.5;"/><text fill="#000000" font-family="sans-serif" font-size="16.5" lengthAdjust="spacing" textLength="157.5" x="1230.75" y="628.8823">toDTO(testParameter)</text><!--MD5=[1c38f6084f2098752e2974895ca67f4c]
class TestDto--><rect codeLine="70" fill="#FEFECE" filter="url(#f134jis4xe2t38)" height="134.2617" id="TestDto" style="stroke:#A80036;stroke-width:2.25;" width="280.5" x="1220.25" y="828.75"/><ellipse cx="1321.875" cy="852.75" fill="#ADD1B2" rx="16.5" ry="16.5" style="stroke:#A80036;stroke-width:1.5;"/><path d="M1324.875,847.5 Q1325.1797,846.75 1325.5313,846.375 Q1325.8828,846 1326.2813,846 Q1326.9844,846 1327.4297,846.4219 Q1327.875,846.8438 1327.875,847.8281 L1327.875,850.1719 Q1327.875,851.1563 1327.4531,851.5781 Q1327.0313,852 1326.375,852 Q1325.7891,852 1325.4141,851.7422 Q1325.0391,851.4844 1324.875,850.8047 Q1324.8047,850.3359 1324.5469,850.0781 Q1324.0781,849.5859 1323.2344,849.3047 Q1322.3906,849 1321.5469,849 Q1320.4922,849 1319.6016,849.4219 Q1318.7344,849.8438 1318.0547,850.7813 Q1317.375,851.7188 1317.375,853.0078 L1317.375,854.3906 Q1317.375,855.9375 1318.6406,856.9688 Q1319.9063,858 1322.1563,858 Q1323.4922,858 1324.4297,857.6953 Q1324.9688,857.5313 1325.5781,856.9922 Q1325.9766,856.6875 1326.1875,856.5938 Q1326.3984,856.5 1326.6563,856.5 Q1327.1484,856.5 1327.5,856.8984 Q1327.875,857.2734 1327.875,857.8125 Q1327.875,858.3281 1327.3594,858.9375 Q1326.6094,859.8281 1325.4141,860.3203 Q1323.8438,861 1321.9219,861 Q1319.6719,861 1317.8672,860.1094 Q1316.4141,859.4063 1315.3828,857.8828 Q1314.375,856.3594 1314.375,854.5547 L1314.375,852.9141 Q1314.375,851.0391 1315.2656,849.3984 Q1316.1797,847.7578 1317.75,846.8906 Q1319.3438,846 1321.125,846 Q1322.2031,846 1323.1406,846.375 Q1324.0781,846.75 1324.875,847.5 Z " fill="#000000"/><text fill="#000000" font-family="sans-serif" font-size="18" lengthAdjust="spacing" textLength="64.5" x="1352.625" y="860.1152">TestDto</text><line style="stroke:#A80036;stroke-width:2.25;" x1="1221.75" x2="1499.25" y1="876.75" y2="876.75"/><rect fill="none" height="9" style="stroke:#C82930;stroke-width:1.5;" width="9" x="1232.25" y="888.75"/><text fill="#000000" font-family="sans-serif" font-size="16.5" lengthAdjust="spacing" textLength="136.5" x="1250.25" y="899.8784">String internalCode</text><rect fill="none" height="9" style="stroke:#C82930;stroke-width:1.5;" width="9" x="1232.25" y="909.5039"/><text fill="#000000" font-family="sans-serif" font-size="16.5" lengthAdjust="spacing" textLength="126" x="1250.25" y="920.6323">String description</text><line style="stroke:#A80036;stroke-width:2.25;" x1="1221.75" x2="1499.25" y1="930.2578" y2="930.2578"/><ellipse cx="1236.75" cy="946.7578" fill="#84BE84" rx="4.5" ry="4.5" style="stroke:#038048;stroke-width:1.5;"/><text fill="#000000" font-family="sans-serif" font-size="16.5" lengthAdjust="spacing" textLength="241.5" x="1250.25" y="953.3862">TestDto(internalCode,description)</text><!--MD5=[fa2f44d2bdbb0499bd765719ad83ddd6]
class TestParameterDto--><rect codeLine="76" fill="#FEFECE" filter="url(#f134jis4xe2t38)" height="258.7852" id="TestParameterDto" style="stroke:#A80036;stroke-width:2.25;" width="442.5" x="1553.25" y="766.5"/><ellipse cx="1692.375" cy="790.5" fill="#ADD1B2" rx="16.5" ry="16.5" style="stroke:#A80036;stroke-width:1.5;"/><path d="M1695.375,785.25 Q1695.6797,784.5 1696.0313,784.125 Q1696.3828,783.75 1696.7813,783.75 Q1697.4844,783.75 1697.9297,784.1719 Q1698.375,784.5938 1698.375,785.5781 L1698.375,787.9219 Q1698.375,788.9063 1697.9531,789.3281 Q1697.5313,789.75 1696.875,789.75 Q1696.2891,789.75 1695.9141,789.4922 Q1695.5391,789.2344 1695.375,788.5547 Q1695.3047,788.0859 1695.0469,787.8281 Q1694.5781,787.3359 1693.7344,787.0547 Q1692.8906,786.75 1692.0469,786.75 Q1690.9922,786.75 1690.1016,787.1719 Q1689.2344,787.5938 1688.5547,788.5313 Q1687.875,789.4688 1687.875,790.7578 L1687.875,792.1406 Q1687.875,793.6875 1689.1406,794.7188 Q1690.4063,795.75 1692.6563,795.75 Q1693.9922,795.75 1694.9297,795.4453 Q1695.4688,795.2813 1696.0781,794.7422 Q1696.4766,794.4375 1696.6875,794.3438 Q1696.8984,794.25 1697.1563,794.25 Q1697.6484,794.25 1698,794.6484 Q1698.375,795.0234 1698.375,795.5625 Q1698.375,796.0781 1697.8594,796.6875 Q1697.1094,797.5781 1695.9141,798.0703 Q1694.3438,798.75 1692.4219,798.75 Q1690.1719,798.75 1688.3672,797.8594 Q1686.9141,797.1563 1685.8828,795.6328 Q1684.875,794.1094 1684.875,792.3047 L1684.875,790.6641 Q1684.875,788.7891 1685.7656,787.1484 Q1686.6797,785.5078 1688.25,784.6406 Q1689.8438,783.75 1691.625,783.75 Q1692.7031,783.75 1693.6406,784.125 Q1694.5781,784.5 1695.375,785.25 Z " fill="#000000"/><text fill="#000000" font-family="sans-serif" font-size="18" lengthAdjust="spacing" textLength="151.5" x="1723.125" y="797.8652">TestParameterDto</text><line style="stroke:#A80036;stroke-width:2.25;" x1="1554.75" x2="1994.25" y1="814.5" y2="814.5"/><rect fill="none" height="9" style="stroke:#C82930;stroke-width:1.5;" width="9" x="1565.25" y="826.5"/><text fill="#000000" font-family="sans-serif" font-size="16.5" lengthAdjust="spacing" textLength="160.5" x="1583.25" y="837.6284">String parameterName</text><rect fill="none" height="9" style="stroke:#C82930;stroke-width:1.5;" width="9" x="1565.25" y="847.2539"/><text fill="#000000" font-family="sans-serif" font-size="16.5" lengthAdjust="spacing" textLength="192" x="1583.25" y="858.3823">String testParameterResult</text><rect fill="none" height="9" style="stroke:#C82930;stroke-width:1.5;" width="9" x="1565.25" y="868.0078"/><text fill="#000000" font-family="sans-serif" font-size="16.5" lengthAdjust="spacing" textLength="190.5" x="1583.25" y="879.1362">String testParameterMetric</text><rect fill="none" height="9" style="stroke:#C82930;stroke-width:1.5;" width="9" x="1565.25" y="888.7617"/><text fill="#000000" font-family="sans-serif" font-size="16.5" lengthAdjust="spacing" textLength="244.5" x="1583.25" y="899.8901">double testParameterMinRefValue</text><rect fill="none" height="9" style="stroke:#C82930;stroke-width:1.5;" width="9" x="1565.25" y="909.5156"/><text fill="#000000" font-family="sans-serif" font-size="16.5" lengthAdjust="spacing" textLength="250.5" x="1583.25" y="920.644">double testParameterMaxRefValue</text><rect fill="none" height="9" style="stroke:#C82930;stroke-width:1.5;" width="9" x="1565.25" y="930.2695"/><text fill="#000000" font-family="sans-serif" font-size="16.5" lengthAdjust="spacing" textLength="153" x="1583.25" y="941.3979">String refValueMetric</text><line style="stroke:#A80036;stroke-width:2.25;" x1="1554.75" x2="1994.25" y1="951.0234" y2="951.0234"/><ellipse cx="1569.75" cy="967.5234" fill="#84BE84" rx="4.5" ry="4.5" style="stroke:#038048;stroke-width:1.5;"/><text fill="#000000" font-family="sans-serif" font-size="16.5" lengthAdjust="spacing" textLength="403.5" x="1583.25" y="974.1519">TestParameterDto(parameterName,testParameterResult,</text><text fill="#000000" font-family="sans-serif" font-size="16.5" lengthAdjust="spacing" textLength="345" x="1583.25" y="994.9058">testParameterMetric,testParameterMinRefValue,</text><text fill="#000000" font-family="sans-serif" font-size="16.5" lengthAdjust="spacing" textLength="315" x="1583.25" y="1015.6597">testParameterMaxRefValue,refValueMetric)</text><!--MD5=[bbc66458f6440b7390e5e54a12cdf2f1]
link WriteMedicalReportUI to WriteMedicalReportController--><path codeLine="88" d="M1631.445,135.135 C1525.215,172.08 1355.505,231.105 1231.5,274.23 " fill="none" id="WriteMedicalReportUI-to-WriteMedicalReportController" style="stroke:#A80036;stroke-width:1.5;stroke-dasharray:7.0,7.0;"/><polygon fill="#A80036" points="1224.15,276.795,1238.8714,278.0321,1231.2346,274.3336,1234.9331,266.6968,1224.15,276.795" style="stroke:#A80036;stroke-width:1.5;"/><!--MD5=[adbc032425c7e51ba2ad24017d53629a]
link WriteMedicalReportUI to TestDto--><path codeLine="89" d="M1721.61,135.045 C1695.615,227.985 1617.465,489.78 1510.5,688.5 C1485.105,735.69 1450.2,784.35 1420.44,822.555 " fill="none" id="WriteMedicalReportUI-to-TestDto" style="stroke:#A80036;stroke-width:1.5;stroke-dasharray:7.0,7.0;"/><polygon fill="#A80036" points="1415.715,828.6,1428.7602,821.6665,1420.3373,822.6937,1419.3101,814.2708,1415.715,828.6" style="stroke:#A80036;stroke-width:1.5;"/><!--MD5=[01734996bc336a4e5d2ed8719592e27f]
link WriteMedicalReportUI to TestParameterDto--><path codeLine="90" d="M1751.43,135.015 C1758.81,149.34 1766.235,166.47 1770,183 C1814.685,379.185 1804.35,613.77 1790.895,758.52 " fill="none" id="WriteMedicalReportUI-to-TestParameterDto" style="stroke:#A80036;stroke-width:1.5;stroke-dasharray:7.0,7.0;"/><polygon fill="#A80036" points="1790.175,766.2,1797.4227,753.3267,1790.883,758.7335,1785.4763,752.1939,1790.175,766.2" style="stroke:#A80036;stroke-width:1.5;"/><!--MD5=[b787b54ee1aef98cad412d2a644aa045]
link WriteMedicalReportController to Company--><path codeLine="91" d="M926.925,374.745 C875.25,394.71 819.315,422.295 775.5,459 C652.02,562.455 568.785,737.88 530.715,831.495 " fill="none" id="WriteMedicalReportController-to-Company" style="stroke:#A80036;stroke-width:1.5;stroke-dasharray:7.0,7.0;"/><polygon fill="#A80036" points="527.835,838.635,538.4469,828.357,530.6389,831.6788,527.317,823.8708,527.835,838.635" style="stroke:#A80036;stroke-width:1.5;"/><!--MD5=[0a4b7f6f2e1052e6554456fc8aa21a03]
link WriteMedicalReportController to TestStore--><path codeLine="92" d="M926.715,347.025 C827.04,362.955 696.375,394.995 597,459 C325.11,634.125 230.01,1050.78 202.845,1210.47 " fill="none" id="WriteMedicalReportController-to-TestStore" style="stroke:#A80036;stroke-width:1.5;stroke-dasharray:7.0,7.0;"/><polygon fill="#A80036" points="201.525,1218.33,209.6801,1206.0116,202.7684,1210.9338,197.8462,1204.0221,201.525,1218.33" style="stroke:#A80036;stroke-width:1.5;"/><!--MD5=[d59dafcd53f8ba979ac3ce89e293f269]
link WriteMedicalReportController to TestMapper--><path codeLine="93" d="M1075.5,397.575 C1075.5,434.565 1075.5,480.45 1075.5,517.02 " fill="none" id="WriteMedicalReportController-to-TestMapper" style="stroke:#A80036;stroke-width:1.5;stroke-dasharray:7.0,7.0;"/><polygon fill="#A80036" points="1075.5,524.67,1081.5,511.17,1075.5,517.17,1069.5,511.17,1075.5,524.67" style="stroke:#A80036;stroke-width:1.5;"/><!--MD5=[0cd9019ce07d4cbb96eb84fb6d9e22ee]
link WriteMedicalReportController to TestParameterDto--><path codeLine="94" d="M1224.51,341.4 C1318.005,354.96 1435.23,386.46 1513.5,459 C1603.965,542.835 1673.475,665.115 1717.935,758.82 " fill="none" id="WriteMedicalReportController-to-TestParameterDto" style="stroke:#A80036;stroke-width:1.5;stroke-dasharray:7.0,7.0;"/><polygon fill="#A80036" points="1721.355,766.095,1721.0424,751.325,1718.1646,759.3074,1710.1822,756.4296,1721.355,766.095" style="stroke:#A80036;stroke-width:1.5;"/><!--MD5=[ba75a4db94b946b551daa943cd9720f8]
link WriteMedicalReportController to TestDto--><path codeLine="95" d="M1224.075,340.185 C1307.37,353.58 1404.9,385.32 1458,459 C1536.57,568.005 1464.045,729.18 1409.01,821.895 " fill="none" id="WriteMedicalReportController-to-TestDto" style="stroke:#A80036;stroke-width:1.5;stroke-dasharray:7.0,7.0;"/><polygon fill="#A80036" points="1405.08,828.45,1417.1707,819.9608,1408.9387,822.0188,1406.8807,813.7869,1405.08,828.45" style="stroke:#A80036;stroke-width:1.5;"/><!--MD5=[d3614dad8e7ab28fcc7b8ffd0e053a84]
link WriteMedicalReportController to TestParameter--><path codeLine="96" d="M933.825,397.65 C914.865,411.315 897.255,427.215 883.5,445.5 C807.48,546.57 780.69,692.52 771.345,790.365 " fill="none" id="WriteMedicalReportController-to-TestParameter" style="stroke:#A80036;stroke-width:1.5;stroke-dasharray:7.0,7.0;"/><polygon fill="#A80036" points="770.655,797.91,777.866,785.0161,771.3418,790.4415,765.9164,783.9173,770.655,797.91" style="stroke:#A80036;stroke-width:1.5;"/><!--MD5=[eaabf2cc0e7c429fc49065438c9fd520]
link WriteMedicalReportController to Test--><path codeLine="97" d="M1013.235,397.815 C999.24,416.325 986.13,437.34 978,459 C877.515,726.705 1066.755,846.705 936,1101 C918.81,1134.435 892.005,1163.775 863.175,1188.345 " fill="none" id="WriteMedicalReportController-to-Test" style="stroke:#A80036;stroke-width:1.5;stroke-dasharray:7.0,7.0;"/><polygon fill="#A80036" points="857.385,1193.19,871.5822,1189.1049,863.1291,1188.3676,863.8663,1179.9144,857.385,1193.19" style="stroke:#A80036;stroke-width:1.5;"/><!--MD5=[29a1b506a2116fd5358dcc26b4aac099]
link WriteMedicalReportController to TestParameterMapper--><path codeLine="98" d="M1139.58,397.575 C1176.06,435.18 1221.465,481.995 1257.195,518.85 " fill="none" id="WriteMedicalReportController-to-TestParameterMapper" style="stroke:#A80036;stroke-width:1.5;stroke-dasharray:7.0,7.0;"/><polygon fill="#A80036" points="1262.85,524.67,1257.7698,510.7977,1257.6329,519.2819,1249.1487,519.145,1262.85,524.67" style="stroke:#A80036;stroke-width:1.5;"/><!--MD5=[0d2deb453e4521a8ecd45cf39c488e89]
link TestParameterMapper to TestParameterDto--><path codeLine="99" d="M1424.685,639.255 C1458.135,657.69 1494.675,679.005 1527,700.5 C1555.125,719.205 1584.09,740.205 1611.87,761.295 " fill="none" id="TestParameterMapper-to-TestParameterDto" style="stroke:#A80036;stroke-width:1.5;stroke-dasharray:7.0,7.0;"/><polygon fill="#A80036" points="1618.14,766.08,1611.0435,753.1227,1612.1762,761.5321,1603.7669,762.6648,1618.14,766.08" style="stroke:#A80036;stroke-width:1.5;"/><!--MD5=[886f81fd36c1ffd754dcf922ff388f49]
link TestParameterMapper to TestParameter--><path codeLine="100" d="M1232.895,639.015 C1213.86,651.15 1193.625,663.735 1174.5,675 C1082.64,729.12 976.545,786.105 895.575,828.465 " fill="none" id="TestParameterMapper-to-TestParameter" style="stroke:#A80036;stroke-width:1.5;stroke-dasharray:7.0,7.0;"/><polygon fill="#A80036" points="888.81,832.005,903.5537,831.0701,895.4571,828.5314,897.9959,820.4348,888.81,832.005" style="stroke:#A80036;stroke-width:1.5;"/><!--MD5=[34b2fed5845bf5a187f4983fcf3f57bc]
link TestMapper to TestDto--><path codeLine="101" d="M1126.455,639.15 C1173.255,690.27 1242.915,766.335 1294.08,822.21 " fill="none" id="TestMapper-to-TestDto" style="stroke:#A80036;stroke-width:1.5;stroke-dasharray:7.0,7.0;"/><polygon fill="#A80036" points="1299.6,828.24,1294.9154,814.2291,1294.5379,822.706,1286.061,822.3285,1299.6,828.24" style="stroke:#A80036;stroke-width:1.5;"/><!--MD5=[8d9a2c3ea1bf73d8d45b939465e53fff]
link TestMapper to Test--><path codeLine="102" d="M1082.97,639.375 C1093.485,740.37 1102.005,956.25 1008,1101 C974.025,1153.32 918.165,1192.35 864.975,1219.98 " fill="none" id="TestMapper-to-Test" style="stroke:#A80036;stroke-width:1.5;stroke-dasharray:7.0,7.0;"/><polygon fill="#A80036" points="857.82,1223.64,872.5725,1222.8561,864.5023,1220.2346,867.1238,1212.1644,857.82,1223.64" style="stroke:#A80036;stroke-width:1.5;"/><!--MD5=[7e4bc624457760b649895ff2ead938fa]
link Company to Test--><path codeLine="103" d="M537.795,953.625 C560.505,994.59 592.32,1051.455 621,1101 C629.43,1115.55 638.325,1130.745 647.235,1145.805 " fill="none" id="Company-Test" style="stroke:#A80036;stroke-width:1.5;"/><polygon fill="#000000" points="632.2114,1094.281,629.3282,1080.3095,621.6666,1084.6725,632.2114,1094.281" style="stroke:#000000;stroke-width:1.5;"/><text fill="#000000" font-family="sans-serif" font-size="19.5" lengthAdjust="spacing" textLength="75" x="642" y="1095.7427">performs</text><text fill="#000000" font-family="sans-serif" font-size="19.5" lengthAdjust="spacing" textLength="10.5" x="531.3662" y="985.0056">1</text><text fill="#000000" font-family="sans-serif" font-size="19.5" lengthAdjust="spacing" textLength="30" x="609.306" y="1129.9027">1..*</text><!--MD5=[7d615427424eb1e9d8965c4eb17ecbf5]
link TestParameter to Test--><path codeLine="104" d="M745.8,994.8 C741.03,1020.45 736.485,1048.185 733.5,1074 C730.83,1097.16 728.94,1121.91 727.605,1145.85 " fill="none" id="TestParameter-Test" style="stroke:#A80036;stroke-width:1.5;"/><polygon fill="#000000" points="741.8969,1080.3175,735.8976,1093.2605,744.6511,1094.315,741.8969,1080.3175" style="stroke:#000000;stroke-width:1.5;"/><text fill="#000000" font-family="sans-serif" font-size="19.5" lengthAdjust="spacing" textLength="174" x="754.5" y="1095.7427">requests analysis of</text><text fill="#000000" font-family="sans-serif" font-size="19.5" lengthAdjust="spacing" textLength="30" x="712.1184" y="1026.4691">1..*</text><text fill="#000000" font-family="sans-serif" font-size="19.5" lengthAdjust="spacing" textLength="10.5" x="716.914" y="1129.51">1</text><!--MD5=[c3238c64a9072feb51e313e35a850213]
link Test to MedicalReport--><path codeLine="105" d="M724.5,1405.5 C724.5,1445.145 724.5,1487.52 724.5,1522.425 " fill="none" id="Test-MedicalReport" style="stroke:#A80036;stroke-width:1.5;"/><polygon fill="#000000" points="732,1471.7637,736.4084,1458.196,727.5916,1458.196,732,1471.7637" style="stroke:#000000;stroke-width:1.5;"/><text fill="#000000" font-family="sans-serif" font-size="19.5" lengthAdjust="spacing" textLength="64.5" x="745.5" y="1472.2427">request</text><text fill="#000000" font-family="sans-serif" font-size="19.5" lengthAdjust="spacing" textLength="10.5" x="713.5816" y="1437.0879">1</text><text fill="#000000" font-family="sans-serif" font-size="19.5" lengthAdjust="spacing" textLength="10.5" x="713.2617" y="1506.1072">1</text><!--MD5=[7f6cf7f175eae0af66201860de5de971]
link Company to TestStore--><path codeLine="106" d="M460.74,953.31 C403.095,1022.535 304.86,1140.51 244.905,1212.51 " fill="none" id="Company-to-TestStore" style="stroke:#A80036;stroke-width:1.5;"/><polygon fill="#A80036" points="239.955,1218.465,253.2044,1211.9303,244.7543,1212.7016,243.983,1204.2514,239.955,1218.465" style="stroke:#A80036;stroke-width:1.5;"/><text fill="#000000" font-family="sans-serif" font-size="19.5" lengthAdjust="spacing" textLength="42" x="360" y="1095.7427">uses</text><text fill="#000000" font-family="sans-serif" font-size="19.5" lengthAdjust="spacing" textLength="10.5" x="441.7087" y="985.0752">1</text><text fill="#000000" font-family="sans-serif" font-size="19.5" lengthAdjust="spacing" textLength="10.5" x="236.7946" y="1202.4571">1</text><!--MD5=[5904f61db38d466b70e7011ea39a3701]
@startuml

package UI{
class WriteMedicalReportUI{
}
}

package Controller{
class WriteMedicalReportController{
+getTestHasSamplesAnalyzedList()
+getTestParameterList(selectedTest)
+addMedicalReport(diagnosis)
}
}

package Model{
class Company{
-String designation
+getTestStore()
}

class Test{
-String internalCode
-String nhsCode
-String description
+getTestParameterList()
+getDescription()
+getInternalCode()
+addMedicalReport(diagnosis)
+validateMedicalReport()
-updateStateToDiagnosisMade()
}

class MedicalReport{
-String diagnosis
-Date createdAt
+ MedicalReport(diagnosis)
+ addCreationDate()
}

class TestParameter{
+ getParameterName()
+ getParameterResult()
+ getParameterMetric()
+ getParameterMinRefValue()
+ getParameterMaxRefValue()
+ getRefValueMetric()
}
}

package Store{
class TestStore{
+getTestHasSamplesAnalyzedList()
+getTestByInternalCode(code)
}
}

package Mappers{
class TestMapper{
+toDto(test)
+toDto(testList)
}

class TestParameterMapper{
+toDTO(testParametersList)
+toDTO(testParameter)
}
}

package DTO{
class TestDto{
-String internalCode
-String description
+TestDto(internalCode,description)
}

class TestParameterDto{
-String parameterName
-String testParameterResult
-String testParameterMetric
-double testParameterMinRefValue
-double testParameterMaxRefValue
-String refValueMetric
+TestParameterDto(parameterName,testParameterResult,\ntestParameterMetric,testParameterMinRefValue,\ntestParameterMaxRefValue,refValueMetric)
}
}


WriteMedicalReportUI ..> WriteMedicalReportController
WriteMedicalReportUI ..> TestDto
WriteMedicalReportUI ..> TestParameterDto
WriteMedicalReportController ..> Company
WriteMedicalReportController ..> TestStore
WriteMedicalReportController ..> TestMapper
WriteMedicalReportController ...> TestParameterDto
WriteMedicalReportController ...> TestDto
WriteMedicalReportController ...> TestParameter
WriteMedicalReportController ...> Test
WriteMedicalReportController ..> TestParameterMapper
TestParameterMapper ..> TestParameterDto
TestParameterMapper ..> TestParameter
TestMapper ..> TestDto
TestMapper ..> Test
Company "1"- -"1..*" Test : performs >
TestParameter "1..*" - -"1" Test : requests analysis of <
Test "1"- -"1" MedicalReport : request >
Company"1"- -> "1" TestStore : uses

@enduml

PlantUML version 1.2021.5(Sun Apr 25 12:20:28 BST 2021)
(GPL source distribution)
Java Runtime: OpenJDK Runtime Environment
JVM: Dynamic Code Evolution 64-Bit Server VM
Default Encoding: Cp1252
Language: pt
Country: PT
--></g></svg>