<?xml version="1.0" encoding="UTF-8" standalone="no"?><svg xmlns="http://www.w3.org/2000/svg" xmlns:xlink="http://www.w3.org/1999/xlink" contentScriptType="application/ecmascript" contentStyleType="text/css" height="216px" preserveAspectRatio="none" style="width:615px;height:216px;" version="1.1" viewBox="0 0 615 216" width="615px" zoomAndPan="magnify"><defs><filter height="300%" id="f192nbwo8qdn2m" width="300%" x="-1" y="-1"><feGaussianBlur result="blurOut" stdDeviation="3.0"/><feColorMatrix in="blurOut" result="blurOut2" type="matrix" values="0 0 0 0 0 0 0 0 0 0 0 0 0 0 0 0 0 0 .4 0"/><feOffset dx="6.0" dy="6.0" in="blurOut2" result="blurOut3"/><feBlend in="SourceGraphic" in2="blurOut3" mode="normal"/></filter></defs><g><!--MD5=[7421f545a0d8420c5bec41e74b387d9c]
class Employee--><rect codeLine="6" fill="#FEFECE" filter="url(#f192nbwo8qdn2m)" height="184.5234" id="Employee" style="stroke:#A80036;stroke-width:2.25;" width="130.5" x="10.5" y="10.5"/><ellipse cx="33" cy="34.5" fill="#ADD1B2" rx="16.5" ry="16.5" style="stroke:#A80036;stroke-width:1.5;"/><path d="M36,29.25 Q36.3047,28.5 36.6563,28.125 Q37.0078,27.75 37.4063,27.75 Q38.1094,27.75 38.5547,28.1719 Q39,28.5938 39,29.5781 L39,31.9219 Q39,32.9063 38.5781,33.3281 Q38.1563,33.75 37.5,33.75 Q36.9141,33.75 36.5391,33.4922 Q36.1641,33.2344 36,32.5547 Q35.9297,32.0859 35.6719,31.8281 Q35.2031,31.3359 34.3594,31.0547 Q33.5156,30.75 32.6719,30.75 Q31.6172,30.75 30.7266,31.1719 Q29.8594,31.5938 29.1797,32.5313 Q28.5,33.4688 28.5,34.7578 L28.5,36.1406 Q28.5,37.6875 29.7656,38.7188 Q31.0313,39.75 33.2813,39.75 Q34.6172,39.75 35.5547,39.4453 Q36.0938,39.2813 36.7031,38.7422 Q37.1016,38.4375 37.3125,38.3438 Q37.5234,38.25 37.7813,38.25 Q38.2734,38.25 38.625,38.6484 Q39,39.0234 39,39.5625 Q39,40.0781 38.4844,40.6875 Q37.7344,41.5781 36.5391,42.0703 Q34.9688,42.75 33.0469,42.75 Q30.7969,42.75 28.9922,41.8594 Q27.5391,41.1563 26.5078,39.6328 Q25.5,38.1094 25.5,36.3047 L25.5,34.6641 Q25.5,32.7891 26.3906,31.1484 Q27.3047,29.5078 28.875,28.6406 Q30.4688,27.75 32.25,27.75 Q33.3281,27.75 34.2656,28.125 Q35.2031,28.5 36,29.25 Z " fill="#000000"/><text fill="#000000" font-family="sans-serif" font-size="18" lengthAdjust="spacing" textLength="82.5" x="54" y="41.8652">Employee</text><line style="stroke:#A80036;stroke-width:2.25;" x1="12" x2="139.5" y1="58.5" y2="58.5"/><text fill="#000000" font-family="sans-serif" font-size="16.5" lengthAdjust="spacing" textLength="45" x="19.5" y="81.6284">-name</text><text fill="#000000" font-family="sans-serif" font-size="16.5" lengthAdjust="spacing" textLength="66" x="19.5" y="102.3823">-address</text><text fill="#000000" font-family="sans-serif" font-size="16.5" lengthAdjust="spacing" textLength="106.5" x="19.5" y="123.1362">-phoneNumber</text><text fill="#000000" font-family="sans-serif" font-size="16.5" lengthAdjust="spacing" textLength="42" x="19.5" y="143.8901">-email</text><text fill="#000000" font-family="sans-serif" font-size="16.5" lengthAdjust="spacing" textLength="87" x="19.5" y="164.644">-employeeId</text><text fill="#000000" font-family="sans-serif" font-size="16.5" lengthAdjust="spacing" textLength="70.5" x="19.5" y="185.3979">-socCode</text><!--MD5=[a3638c1e5b65d287ecad7f06f5c0f212]
class Role--><rect codeLine="15" fill="#FEFECE" filter="url(#f192nbwo8qdn2m)" height="101.5078" id="Role" style="stroke:#A80036;stroke-width:2.25;" width="103.5" x="490.5" y="51.75"/><ellipse cx="520.425" cy="75.75" fill="#ADD1B2" rx="16.5" ry="16.5" style="stroke:#A80036;stroke-width:1.5;"/><path d="M523.425,70.5 Q523.7297,69.75 524.0813,69.375 Q524.4328,69 524.8313,69 Q525.5344,69 525.9797,69.4219 Q526.425,69.8438 526.425,70.8281 L526.425,73.1719 Q526.425,74.1563 526.0031,74.5781 Q525.5813,75 524.925,75 Q524.3391,75 523.9641,74.7422 Q523.5891,74.4844 523.425,73.8047 Q523.3547,73.3359 523.0969,73.0781 Q522.6281,72.5859 521.7844,72.3047 Q520.9406,72 520.0969,72 Q519.0422,72 518.1516,72.4219 Q517.2844,72.8438 516.6047,73.7813 Q515.925,74.7188 515.925,76.0078 L515.925,77.3906 Q515.925,78.9375 517.1906,79.9688 Q518.4563,81 520.7063,81 Q522.0422,81 522.9797,80.6953 Q523.5188,80.5313 524.1281,79.9922 Q524.5266,79.6875 524.7375,79.5938 Q524.9484,79.5 525.2063,79.5 Q525.6984,79.5 526.05,79.8984 Q526.425,80.2734 526.425,80.8125 Q526.425,81.3281 525.9094,81.9375 Q525.1594,82.8281 523.9641,83.3203 Q522.3938,84 520.4719,84 Q518.2219,84 516.4172,83.1094 Q514.9641,82.4063 513.9328,80.8828 Q512.925,79.3594 512.925,77.5547 L512.925,75.9141 Q512.925,74.0391 513.8156,72.3984 Q514.7297,70.7578 516.3,69.8906 Q517.8938,69 519.675,69 Q520.7531,69 521.6906,69.375 Q522.6281,69.75 523.425,70.5 Z " fill="#000000"/><text fill="#000000" font-family="sans-serif" font-size="18" lengthAdjust="spacing" textLength="39" x="543.075" y="83.1152">Role</text><line style="stroke:#A80036;stroke-width:2.25;" x1="492" x2="592.5" y1="99.75" y2="99.75"/><text fill="#000000" font-family="sans-serif" font-size="16.5" lengthAdjust="spacing" textLength="18" x="499.5" y="122.8784">-id</text><text fill="#000000" font-family="sans-serif" font-size="16.5" lengthAdjust="spacing" textLength="85.5" x="499.5" y="143.6323">-description</text><!--MD5=[3fd616f346a44cd59a91eb10b19e157c]
class User--><rect codeLine="21" fill="#FEFECE" filter="url(#f192nbwo8qdn2m)" height="122.2617" id="User" style="stroke:#A80036;stroke-width:2.25;" width="99" x="232.5" y="41.25"/><ellipse cx="259.725" cy="65.25" fill="#ADD1B2" rx="16.5" ry="16.5" style="stroke:#A80036;stroke-width:1.5;"/><path d="M262.725,60 Q263.0297,59.25 263.3813,58.875 Q263.7328,58.5 264.1313,58.5 Q264.8344,58.5 265.2797,58.9219 Q265.725,59.3438 265.725,60.3281 L265.725,62.6719 Q265.725,63.6563 265.3031,64.0781 Q264.8813,64.5 264.225,64.5 Q263.6391,64.5 263.2641,64.2422 Q262.8891,63.9844 262.725,63.3047 Q262.6547,62.8359 262.3969,62.5781 Q261.9281,62.0859 261.0844,61.8047 Q260.2406,61.5 259.3969,61.5 Q258.3422,61.5 257.4516,61.9219 Q256.5844,62.3438 255.9047,63.2813 Q255.225,64.2188 255.225,65.5078 L255.225,66.8906 Q255.225,68.4375 256.4906,69.4688 Q257.7563,70.5 260.0063,70.5 Q261.3422,70.5 262.2797,70.1953 Q262.8188,70.0313 263.4281,69.4922 Q263.8266,69.1875 264.0375,69.0938 Q264.2484,69 264.5063,69 Q264.9984,69 265.35,69.3984 Q265.725,69.7734 265.725,70.3125 Q265.725,70.8281 265.2094,71.4375 Q264.4594,72.3281 263.2641,72.8203 Q261.6938,73.5 259.7719,73.5 Q257.5219,73.5 255.7172,72.6094 Q254.2641,71.9063 253.2328,70.3828 Q252.225,68.8594 252.225,67.0547 L252.225,65.4141 Q252.225,63.5391 253.1156,61.8984 Q254.0297,60.2578 255.6,59.3906 Q257.1938,58.5 258.975,58.5 Q260.0531,58.5 260.9906,58.875 Q261.9281,59.25 262.725,60 Z " fill="#000000"/><text fill="#000000" font-family="sans-serif" font-size="18" lengthAdjust="spacing" textLength="40.5" x="281.775" y="72.6152">User</text><line style="stroke:#A80036;stroke-width:2.25;" x1="234" x2="330" y1="89.25" y2="89.25"/><text fill="#000000" font-family="sans-serif" font-size="16.5" lengthAdjust="spacing" textLength="45" x="241.5" y="112.3784">-name</text><text fill="#000000" font-family="sans-serif" font-size="16.5" lengthAdjust="spacing" textLength="42" x="241.5" y="133.1323">-email</text><text fill="#000000" font-family="sans-serif" font-size="16.5" lengthAdjust="spacing" textLength="81" x="241.5" y="153.8862">-password</text><!--MD5=[22fb9506fac029fc1d2ae00f0eb8d606]
link Employee to User--><path codeLine="27" d="M141,102.75 C160.41,102.75 181.965,102.75 202.215,102.75 " fill="none" id="Employee-to-User" style="stroke:#A80036;stroke-width:1.5;"/><polygon fill="none" points="202.455,92.25,232.455,102.75,202.455,113.25,202.455,92.25" style="stroke:#A80036;stroke-width:1.5;"/><!--MD5=[70c37dc9bfbc8656942103c36f1181e4]
link User to Role--><path codeLine="28" d="M331.89,102.75 C377.145,102.75 444.495,102.75 490.38,102.75 " fill="none" id="User-Role" style="stroke:#A80036;stroke-width:1.5;"/><polygon fill="#000000" points="391.5,89.5137,377.9324,85.1053,377.9324,93.9221,391.5,89.5137" style="stroke:#000000;stroke-width:1.5;"/><text fill="#000000" font-family="sans-serif" font-size="19.5" lengthAdjust="spacing" textLength="46.5" x="397.5" y="97.4927">plays</text><text fill="#000000" font-family="sans-serif" font-size="19.5" lengthAdjust="spacing" textLength="7.5" x="343.6238" y="125.7561">*</text><text fill="#000000" font-family="sans-serif" font-size="19.5" lengthAdjust="spacing" textLength="10.5" x="468.099" y="125.5728">1</text><!--MD5=[3dd0358f85661eac50d05feb9fba439b]
@startuml
'https://plantuml.com/class-diagram
hide methods
left to right direction
skinparam classAttributeIconSize 0

class Employee{
-name
-address
-phoneNumber
-email
-employeeId
-socCode
}

class Role{
-id
-description
}


class User{
-name
-email
-password
}

Employee - -|> User
User "*"- -"1" Role : plays >
@enduml

@startuml
hide methods
left to right direction
skinparam classAttributeIconSize 0

class Employee{
-name
-address
-phoneNumber
-email
-employeeId
-socCode
}

class Role{
-id
-description
}


class User{
-name
-email
-password
}

Employee - -|> User
User "*"- -"1" Role : plays >
@enduml

PlantUML version 1.2021.5(Sun Apr 25 12:20:28 BST 2021)
(GPL source distribution)
Java Runtime: OpenJDK Runtime Environment
JVM: Dynamic Code Evolution 64-Bit Server VM
Default Encoding: Cp1252
Language: pt
Country: PT
--></g></svg>