<?xml version="1.0" encoding="UTF-8" standalone="no"?><svg xmlns="http://www.w3.org/2000/svg" xmlns:xlink="http://www.w3.org/1999/xlink" contentScriptType="application/ecmascript" contentStyleType="text/css" height="1431px" preserveAspectRatio="none" style="width:1266px;height:1431px;" version="1.1" viewBox="0 0 1266 1431" width="1266px" zoomAndPan="magnify"><defs><filter height="300%" id="f1a7jr5rhlipsb" width="300%" x="-1" y="-1"><feGaussianBlur result="blurOut" stdDeviation="3.0"/><feColorMatrix in="blurOut" result="blurOut2" type="matrix" values="0 0 0 0 0 0 0 0 0 0 0 0 0 0 0 0 0 0 .4 0"/><feOffset dx="6.0" dy="6.0" in="blurOut2" result="blurOut3"/><feBlend in="SourceGraphic" in2="blurOut3" mode="normal"/></filter></defs><g><!--MD5=[64e2e010ba86d7988e5cd73bd64f61f9]
cluster ui--><polygon fill="#FFFFFF" filter="url(#f1a7jr5rhlipsb)" points="969,9,997.5,9,1008,44.4141,1209,44.4141,1209,159,969,159,969,9" style="stroke:#000000;stroke-width:2.25;"/><line style="stroke:#000000;stroke-width:2.25;" x1="969" x2="1008" y1="44.4141" y2="44.4141"/><text fill="#000000" font-family="sans-serif" font-size="21" font-weight="bold" lengthAdjust="spacing" textLength="19.5" x="975" y="33.7998">ui</text><!--MD5=[10ea673caf457862023e152271927b45]
cluster controller--><polygon fill="#FFFFFF" filter="url(#f1a7jr5rhlipsb)" points="937.5,360.75,1050,360.75,1060.5,396.1641,1240.5,396.1641,1240.5,552.75,937.5,552.75,937.5,360.75" style="stroke:#000000;stroke-width:2.25;"/><line style="stroke:#000000;stroke-width:2.25;" x1="937.5" x2="1060.5" y1="396.1641" y2="396.1641"/><text fill="#000000" font-family="sans-serif" font-size="21" font-weight="bold" lengthAdjust="spacing" textLength="103.5" x="943.5" y="385.5498">controller</text><!--MD5=[27f772719433d509ddbc20ff768eba08]
cluster domain--><polygon fill="#FFFFFF" filter="url(#f1a7jr5rhlipsb)" points="24,208.5,109.5,208.5,120,243.9141,901.5,243.9141,901.5,1420.5,24,1420.5,24,208.5" style="stroke:#000000;stroke-width:2.25;"/><line style="stroke:#000000;stroke-width:2.25;" x1="24" x2="120" y1="243.9141" y2="243.9141"/><text fill="#000000" font-family="sans-serif" font-size="21" font-weight="bold" lengthAdjust="spacing" textLength="76.5" x="30" y="233.2998">domain</text><!--MD5=[5d4cd377749310b66bf14896f5cd8d9b]
cluster model--><polygon fill="#FFFFFF" filter="url(#f1a7jr5rhlipsb)" points="60,658.5,133.5,658.5,144,693.9141,688.5,693.9141,688.5,1138.5,60,1138.5,60,658.5" style="stroke:#000000;stroke-width:2.25;"/><line style="stroke:#000000;stroke-width:2.25;" x1="60" x2="144" y1="693.9141" y2="693.9141"/><text fill="#000000" font-family="sans-serif" font-size="21" font-weight="bold" lengthAdjust="spacing" textLength="64.5" x="66" y="683.2998">model</text><!--MD5=[c23849cc5f4a85746a20de4317c530fc]
cluster store--><polygon fill="#FFFFFF" filter="url(#f1a7jr5rhlipsb)" points="321,1213.5,385.5,1213.5,396,1248.9141,847.5,1248.9141,847.5,1384.5,321,1384.5,321,1213.5" style="stroke:#000000;stroke-width:2.25;"/><line style="stroke:#000000;stroke-width:2.25;" x1="321" x2="396" y1="1248.9141" y2="1248.9141"/><text fill="#000000" font-family="sans-serif" font-size="21" font-weight="bold" lengthAdjust="spacing" textLength="55.5" x="327" y="1238.2998">store</text><!--MD5=[e484dff12bc7e3f9ae9e3c87a060152b]
cluster mappers--><polygon fill="#FFFFFF" filter="url(#f1a7jr5rhlipsb)" points="123,274.5,223.5,274.5,234,309.9141,664.5,309.9141,664.5,609,123,609,123,274.5" style="stroke:#000000;stroke-width:2.25;"/><line style="stroke:#000000;stroke-width:2.25;" x1="123" x2="234" y1="309.9141" y2="309.9141"/><text fill="#000000" font-family="sans-serif" font-size="21" font-weight="bold" lengthAdjust="spacing" textLength="91.5" x="129" y="299.2998">mappers</text><!--MD5=[e6eced616a98d47334dd1aaaa829ffd5]
cluster dto--><polygon fill="#FFFFFF" filter="url(#f1a7jr5rhlipsb)" points="412.5,340.5,456,340.5,466.5,375.9141,628.5,375.9141,628.5,573,412.5,573,412.5,340.5" style="stroke:#000000;stroke-width:2.25;"/><line style="stroke:#000000;stroke-width:2.25;" x1="412.5" x2="466.5" y1="375.9141" y2="375.9141"/><text fill="#000000" font-family="sans-serif" font-size="21" font-weight="bold" lengthAdjust="spacing" textLength="34.5" x="418.5" y="365.2998">dto</text><!--MD5=[05ffea613565d111e9c4a041147710d4]
class RecordSampleUI--><rect codeLine="6" fill="#FEFECE" filter="url(#f1a7jr5rhlipsb)" height="72" id="RecordSampleUI" style="stroke:#A80036;stroke-width:2.25;" width="190.5" x="993.75" y="63"/><ellipse cx="1016.25" cy="87" fill="#ADD1B2" rx="16.5" ry="16.5" style="stroke:#A80036;stroke-width:1.5;"/><path d="M1019.25,81.75 Q1019.5547,81 1019.9063,80.625 Q1020.2578,80.25 1020.6563,80.25 Q1021.3594,80.25 1021.8047,80.6719 Q1022.25,81.0938 1022.25,82.0781 L1022.25,84.4219 Q1022.25,85.4063 1021.8281,85.8281 Q1021.4063,86.25 1020.75,86.25 Q1020.1641,86.25 1019.7891,85.9922 Q1019.4141,85.7344 1019.25,85.0547 Q1019.1797,84.5859 1018.9219,84.3281 Q1018.4531,83.8359 1017.6094,83.5547 Q1016.7656,83.25 1015.9219,83.25 Q1014.8672,83.25 1013.9766,83.6719 Q1013.1094,84.0938 1012.4297,85.0313 Q1011.75,85.9688 1011.75,87.2578 L1011.75,88.6406 Q1011.75,90.1875 1013.0156,91.2188 Q1014.2813,92.25 1016.5313,92.25 Q1017.8672,92.25 1018.8047,91.9453 Q1019.3438,91.7813 1019.9531,91.2422 Q1020.3516,90.9375 1020.5625,90.8438 Q1020.7734,90.75 1021.0313,90.75 Q1021.5234,90.75 1021.875,91.1484 Q1022.25,91.5234 1022.25,92.0625 Q1022.25,92.5781 1021.7344,93.1875 Q1020.9844,94.0781 1019.7891,94.5703 Q1018.2188,95.25 1016.2969,95.25 Q1014.0469,95.25 1012.2422,94.3594 Q1010.7891,93.6563 1009.7578,92.1328 Q1008.75,90.6094 1008.75,88.8047 L1008.75,87.1641 Q1008.75,85.2891 1009.6406,83.6484 Q1010.5547,82.0078 1012.125,81.1406 Q1013.7188,80.25 1015.5,80.25 Q1016.5781,80.25 1017.5156,80.625 Q1018.4531,81 1019.25,81.75 Z " fill="#000000"/><text fill="#000000" font-family="sans-serif" font-size="18" lengthAdjust="spacing" textLength="142.5" x="1037.25" y="94.3652">RecordSampleUI</text><line style="stroke:#A80036;stroke-width:2.25;" x1="995.25" x2="1182.75" y1="111" y2="111"/><line style="stroke:#A80036;stroke-width:2.25;" x1="995.25" x2="1182.75" y1="123" y2="123"/><!--MD5=[ecb4b8913618184ce1e3f8e48e5e993f]
class RecordSampleController--><rect codeLine="48" fill="#FEFECE" filter="url(#f1a7jr5rhlipsb)" height="113.5078" id="RecordSampleController" style="stroke:#A80036;stroke-width:2.25;" width="253.5" x="962.25" y="414.75"/><ellipse cx="984.75" cy="438.75" fill="#ADD1B2" rx="16.5" ry="16.5" style="stroke:#A80036;stroke-width:1.5;"/><path d="M987.75,433.5 Q988.0547,432.75 988.4063,432.375 Q988.7578,432 989.1563,432 Q989.8594,432 990.3047,432.4219 Q990.75,432.8438 990.75,433.8281 L990.75,436.1719 Q990.75,437.1563 990.3281,437.5781 Q989.9063,438 989.25,438 Q988.6641,438 988.2891,437.7422 Q987.9141,437.4844 987.75,436.8047 Q987.6797,436.3359 987.4219,436.0781 Q986.9531,435.5859 986.1094,435.3047 Q985.2656,435 984.4219,435 Q983.3672,435 982.4766,435.4219 Q981.6094,435.8438 980.9297,436.7813 Q980.25,437.7188 980.25,439.0078 L980.25,440.3906 Q980.25,441.9375 981.5156,442.9688 Q982.7813,444 985.0313,444 Q986.3672,444 987.3047,443.6953 Q987.8438,443.5313 988.4531,442.9922 Q988.8516,442.6875 989.0625,442.5938 Q989.2734,442.5 989.5313,442.5 Q990.0234,442.5 990.375,442.8984 Q990.75,443.2734 990.75,443.8125 Q990.75,444.3281 990.2344,444.9375 Q989.4844,445.8281 988.2891,446.3203 Q986.7188,447 984.7969,447 Q982.5469,447 980.7422,446.1094 Q979.2891,445.4063 978.2578,443.8828 Q977.25,442.3594 977.25,440.5547 L977.25,438.9141 Q977.25,437.0391 978.1406,435.3984 Q979.0547,433.7578 980.625,432.8906 Q982.2188,432 984,432 Q985.0781,432 986.0156,432.375 Q986.9531,432.75 987.75,433.5 Z " fill="#000000"/><text fill="#000000" font-family="sans-serif" font-size="18" lengthAdjust="spacing" textLength="205.5" x="1005.75" y="446.1152">RecordSampleController</text><line style="stroke:#A80036;stroke-width:2.25;" x1="963.75" x2="1214.25" y1="462.75" y2="462.75"/><line style="stroke:#A80036;stroke-width:2.25;" x1="963.75" x2="1214.25" y1="474.75" y2="474.75"/><ellipse cx="978.75" cy="491.25" fill="#84BE84" rx="4.5" ry="4.5" style="stroke:#038048;stroke-width:1.5;"/><text fill="#000000" font-family="sans-serif" font-size="16.5" lengthAdjust="spacing" textLength="115.5" x="992.25" y="497.8784">getListTestDto()</text><ellipse cx="978.75" cy="512.0039" fill="#84BE84" rx="4.5" ry="4.5" style="stroke:#038048;stroke-width:1.5;"/><text fill="#000000" font-family="sans-serif" font-size="16.5" lengthAdjust="spacing" textLength="111" x="992.25" y="518.6323">createSample()</text><!--MD5=[02e4b9b7573f1156f41e60aa5b4e25a4]
class Company--><rect codeLine="40" fill="#FEFECE" filter="url(#f1a7jr5rhlipsb)" height="175.7695" id="Company" style="stroke:#A80036;stroke-width:2.25;" width="165" x="499.5" y="712.5"/><ellipse cx="538.875" cy="736.5" fill="#ADD1B2" rx="16.5" ry="16.5" style="stroke:#A80036;stroke-width:1.5;"/><path d="M541.875,731.25 Q542.1797,730.5 542.5313,730.125 Q542.8828,729.75 543.2813,729.75 Q543.9844,729.75 544.4297,730.1719 Q544.875,730.5938 544.875,731.5781 L544.875,733.9219 Q544.875,734.9063 544.4531,735.3281 Q544.0313,735.75 543.375,735.75 Q542.7891,735.75 542.4141,735.4922 Q542.0391,735.2344 541.875,734.5547 Q541.8047,734.0859 541.5469,733.8281 Q541.0781,733.3359 540.2344,733.0547 Q539.3906,732.75 538.5469,732.75 Q537.4922,732.75 536.6016,733.1719 Q535.7344,733.5938 535.0547,734.5313 Q534.375,735.4688 534.375,736.7578 L534.375,738.1406 Q534.375,739.6875 535.6406,740.7188 Q536.9063,741.75 539.1563,741.75 Q540.4922,741.75 541.4297,741.4453 Q541.9688,741.2813 542.5781,740.7422 Q542.9766,740.4375 543.1875,740.3438 Q543.3984,740.25 543.6563,740.25 Q544.1484,740.25 544.5,740.6484 Q544.875,741.0234 544.875,741.5625 Q544.875,742.0781 544.3594,742.6875 Q543.6094,743.5781 542.4141,744.0703 Q540.8438,744.75 538.9219,744.75 Q536.6719,744.75 534.8672,743.8594 Q533.4141,743.1563 532.3828,741.6328 Q531.375,740.1094 531.375,738.3047 L531.375,736.6641 Q531.375,734.7891 532.2656,733.1484 Q533.1797,731.5078 534.75,730.6406 Q536.3438,729.75 538.125,729.75 Q539.2031,729.75 540.1406,730.125 Q541.0781,730.5 541.875,731.25 Z " fill="#000000"/><text fill="#000000" font-family="sans-serif" font-size="18" lengthAdjust="spacing" textLength="79.5" x="563.625" y="743.8652">Company</text><line style="stroke:#A80036;stroke-width:2.25;" x1="501" x2="663" y1="760.5" y2="760.5"/><rect fill="none" height="9" style="stroke:#C82930;stroke-width:1.5;" width="9" x="511.5" y="772.5"/><text fill="#000000" font-family="sans-serif" font-size="16.5" lengthAdjust="spacing" textLength="82.5" x="529.5" y="783.6284">designation</text><rect fill="none" height="9" style="stroke:#C82930;stroke-width:1.5;" width="9" x="511.5" y="793.2539"/><text fill="#000000" font-family="sans-serif" font-size="16.5" lengthAdjust="spacing" textLength="66" x="529.5" y="804.3823">testStore</text><rect fill="none" height="9" style="stroke:#C82930;stroke-width:1.5;" width="9" x="511.5" y="814.0078"/><text fill="#000000" font-family="sans-serif" font-size="16.5" lengthAdjust="spacing" textLength="90" x="529.5" y="825.1362">sampleStore</text><line style="stroke:#A80036;stroke-width:2.25;" x1="501" x2="663" y1="834.7617" y2="834.7617"/><ellipse cx="516" cy="851.2617" fill="#84BE84" rx="4.5" ry="4.5" style="stroke:#038048;stroke-width:1.5;"/><text fill="#000000" font-family="sans-serif" font-size="16.5" lengthAdjust="spacing" textLength="126" x="529.5" y="857.8901">getSampleStore()</text><ellipse cx="516" cy="872.0156" fill="#84BE84" rx="4.5" ry="4.5" style="stroke:#038048;stroke-width:1.5;"/><text fill="#000000" font-family="sans-serif" font-size="16.5" lengthAdjust="spacing" textLength="105" x="529.5" y="878.644">getTestStore()</text><!--MD5=[df38be88ccee13e832d6fafd6288a4ca]
class Test--><rect codeLine="61" fill="#FEFECE" filter="url(#f1a7jr5rhlipsb)" height="175.7695" id="Test" style="stroke:#A80036;stroke-width:2.25;" width="363" x="84" y="712.5"/><ellipse cx="241.125" cy="736.5" fill="#ADD1B2" rx="16.5" ry="16.5" style="stroke:#A80036;stroke-width:1.5;"/><path d="M244.125,731.25 Q244.4297,730.5 244.7813,730.125 Q245.1328,729.75 245.5313,729.75 Q246.2344,729.75 246.6797,730.1719 Q247.125,730.5938 247.125,731.5781 L247.125,733.9219 Q247.125,734.9063 246.7031,735.3281 Q246.2813,735.75 245.625,735.75 Q245.0391,735.75 244.6641,735.4922 Q244.2891,735.2344 244.125,734.5547 Q244.0547,734.0859 243.7969,733.8281 Q243.3281,733.3359 242.4844,733.0547 Q241.6406,732.75 240.7969,732.75 Q239.7422,732.75 238.8516,733.1719 Q237.9844,733.5938 237.3047,734.5313 Q236.625,735.4688 236.625,736.7578 L236.625,738.1406 Q236.625,739.6875 237.8906,740.7188 Q239.1563,741.75 241.4063,741.75 Q242.7422,741.75 243.6797,741.4453 Q244.2188,741.2813 244.8281,740.7422 Q245.2266,740.4375 245.4375,740.3438 Q245.6484,740.25 245.9063,740.25 Q246.3984,740.25 246.75,740.6484 Q247.125,741.0234 247.125,741.5625 Q247.125,742.0781 246.6094,742.6875 Q245.8594,743.5781 244.6641,744.0703 Q243.0938,744.75 241.1719,744.75 Q238.9219,744.75 237.1172,743.8594 Q235.6641,743.1563 234.6328,741.6328 Q233.625,740.1094 233.625,738.3047 L233.625,736.6641 Q233.625,734.7891 234.5156,733.1484 Q235.4297,731.5078 237,730.6406 Q238.5938,729.75 240.375,729.75 Q241.4531,729.75 242.3906,730.125 Q243.3281,730.5 244.125,731.25 Z " fill="#000000"/><text fill="#000000" font-family="sans-serif" font-size="18" lengthAdjust="spacing" textLength="36" x="271.875" y="743.8652">Test</text><line style="stroke:#A80036;stroke-width:2.25;" x1="85.5" x2="445.5" y1="760.5" y2="760.5"/><rect fill="none" height="9" style="stroke:#C82930;stroke-width:1.5;" width="9" x="96" y="772.5"/><text fill="#000000" font-family="sans-serif" font-size="16.5" lengthAdjust="spacing" textLength="64.5" x="114" y="783.6284">nhsCode</text><rect fill="none" height="9" style="stroke:#C82930;stroke-width:1.5;" width="9" x="96" y="793.2539"/><text fill="#000000" font-family="sans-serif" font-size="16.5" lengthAdjust="spacing" textLength="64.5" x="114" y="804.3823">testCode</text><line style="stroke:#A80036;stroke-width:2.25;" x1="85.5" x2="445.5" y1="814.0078" y2="814.0078"/><ellipse cx="100.5" cy="830.5078" fill="#84BE84" rx="4.5" ry="4.5" style="stroke:#038048;stroke-width:1.5;"/><text fill="#000000" font-family="sans-serif" font-size="16.5" lengthAdjust="spacing" textLength="324" x="114" y="837.1362">generateDateAndTimeForSamplesCollected()</text><ellipse cx="100.5" cy="851.2617" fill="#84BE84" rx="4.5" ry="4.5" style="stroke:#038048;stroke-width:1.5;"/><text fill="#000000" font-family="sans-serif" font-size="16.5" lengthAdjust="spacing" textLength="100.5" x="114" y="857.8901">getNhsCode()</text><ellipse cx="100.5" cy="872.0156" fill="#84BE84" rx="4.5" ry="4.5" style="stroke:#038048;stroke-width:1.5;"/><text fill="#000000" font-family="sans-serif" font-size="16.5" lengthAdjust="spacing" textLength="103.5" x="114" y="878.644">getTestCode()</text><!--MD5=[9681492165142af2a4a3a169d90ee8d4]
class Sample--><rect codeLine="78" fill="#FEFECE" filter="url(#f1a7jr5rhlipsb)" height="134.2617" id="Sample" style="stroke:#A80036;stroke-width:2.25;" width="330" x="84" y="979.5"/><ellipse cx="210.375" cy="1003.5" fill="#ADD1B2" rx="16.5" ry="16.5" style="stroke:#A80036;stroke-width:1.5;"/><path d="M213.375,998.25 Q213.6797,997.5 214.0313,997.125 Q214.3828,996.75 214.7813,996.75 Q215.4844,996.75 215.9297,997.1719 Q216.375,997.5938 216.375,998.5781 L216.375,1000.9219 Q216.375,1001.9063 215.9531,1002.3281 Q215.5313,1002.75 214.875,1002.75 Q214.2891,1002.75 213.9141,1002.4922 Q213.5391,1002.2344 213.375,1001.5547 Q213.3047,1001.0859 213.0469,1000.8281 Q212.5781,1000.3359 211.7344,1000.0547 Q210.8906,999.75 210.0469,999.75 Q208.9922,999.75 208.1016,1000.1719 Q207.2344,1000.5938 206.5547,1001.5313 Q205.875,1002.4688 205.875,1003.7578 L205.875,1005.1406 Q205.875,1006.6875 207.1406,1007.7188 Q208.4063,1008.75 210.6563,1008.75 Q211.9922,1008.75 212.9297,1008.4453 Q213.4688,1008.2813 214.0781,1007.7422 Q214.4766,1007.4375 214.6875,1007.3438 Q214.8984,1007.25 215.1563,1007.25 Q215.6484,1007.25 216,1007.6484 Q216.375,1008.0234 216.375,1008.5625 Q216.375,1009.0781 215.8594,1009.6875 Q215.1094,1010.5781 213.9141,1011.0703 Q212.3438,1011.75 210.4219,1011.75 Q208.1719,1011.75 206.3672,1010.8594 Q204.9141,1010.1563 203.8828,1008.6328 Q202.875,1007.1094 202.875,1005.3047 L202.875,1003.6641 Q202.875,1001.7891 203.7656,1000.1484 Q204.6797,998.5078 206.25,997.6406 Q207.8438,996.75 209.625,996.75 Q210.7031,996.75 211.6406,997.125 Q212.5781,997.5 213.375,998.25 Z " fill="#000000"/><text fill="#000000" font-family="sans-serif" font-size="18" lengthAdjust="spacing" textLength="64.5" x="241.125" y="1010.8652">Sample</text><line style="stroke:#A80036;stroke-width:2.25;" x1="85.5" x2="412.5" y1="1027.5" y2="1027.5"/><rect fill="none" height="9" style="stroke:#C82930;stroke-width:1.5;" width="9" x="96" y="1039.5"/><text fill="#000000" font-family="sans-serif" font-size="16.5" lengthAdjust="spacing" textLength="60" x="114" y="1050.6284">barcode</text><line style="stroke:#A80036;stroke-width:2.25;" x1="85.5" x2="412.5" y1="1060.2539" y2="1060.2539"/><ellipse cx="100.5" cy="1076.7539" fill="#84BE84" rx="4.5" ry="4.5" style="stroke:#038048;stroke-width:1.5;"/><text fill="#000000" font-family="sans-serif" font-size="16.5" lengthAdjust="spacing" textLength="138" x="114" y="1083.3823">generateBarcode()</text><ellipse cx="100.5" cy="1097.5078" fill="#84BE84" rx="4.5" ry="4.5" style="stroke:#038048;stroke-width:1.5;"/><text fill="#000000" font-family="sans-serif" font-size="16.5" lengthAdjust="spacing" textLength="291" x="114" y="1104.1362">AssociateBarcodeWithSample(barcode)</text><!--MD5=[0f6f7964b844a64b0496af0dda7914bd]
class TestStore--><rect codeLine="53" fill="#FEFECE" filter="url(#f1a7jr5rhlipsb)" height="92.7539" id="TestStore" style="stroke:#A80036;stroke-width:2.25;" width="268.5" x="554.25" y="1267.5"/><ellipse cx="642.375" cy="1291.5" fill="#ADD1B2" rx="16.5" ry="16.5" style="stroke:#A80036;stroke-width:1.5;"/><path d="M645.375,1286.25 Q645.6797,1285.5 646.0313,1285.125 Q646.3828,1284.75 646.7813,1284.75 Q647.4844,1284.75 647.9297,1285.1719 Q648.375,1285.5938 648.375,1286.5781 L648.375,1288.9219 Q648.375,1289.9063 647.9531,1290.3281 Q647.5313,1290.75 646.875,1290.75 Q646.2891,1290.75 645.9141,1290.4922 Q645.5391,1290.2344 645.375,1289.5547 Q645.3047,1289.0859 645.0469,1288.8281 Q644.5781,1288.3359 643.7344,1288.0547 Q642.8906,1287.75 642.0469,1287.75 Q640.9922,1287.75 640.1016,1288.1719 Q639.2344,1288.5938 638.5547,1289.5313 Q637.875,1290.4688 637.875,1291.7578 L637.875,1293.1406 Q637.875,1294.6875 639.1406,1295.7188 Q640.4063,1296.75 642.6563,1296.75 Q643.9922,1296.75 644.9297,1296.4453 Q645.4688,1296.2813 646.0781,1295.7422 Q646.4766,1295.4375 646.6875,1295.3438 Q646.8984,1295.25 647.1563,1295.25 Q647.6484,1295.25 648,1295.6484 Q648.375,1296.0234 648.375,1296.5625 Q648.375,1297.0781 647.8594,1297.6875 Q647.1094,1298.5781 645.9141,1299.0703 Q644.3438,1299.75 642.4219,1299.75 Q640.1719,1299.75 638.3672,1298.8594 Q636.9141,1298.1563 635.8828,1296.6328 Q634.875,1295.1094 634.875,1293.3047 L634.875,1291.6641 Q634.875,1289.7891 635.7656,1288.1484 Q636.6797,1286.5078 638.25,1285.6406 Q639.8438,1284.75 641.625,1284.75 Q642.7031,1284.75 643.6406,1285.125 Q644.5781,1285.5 645.375,1286.25 Z " fill="#000000"/><text fill="#000000" font-family="sans-serif" font-size="18" lengthAdjust="spacing" textLength="79.5" x="673.125" y="1298.8652">TestStore</text><line style="stroke:#A80036;stroke-width:2.25;" x1="555.75" x2="821.25" y1="1315.5" y2="1315.5"/><line style="stroke:#A80036;stroke-width:2.25;" x1="555.75" x2="821.25" y1="1327.5" y2="1327.5"/><ellipse cx="570.75" cy="1344" fill="#84BE84" rx="4.5" ry="4.5" style="stroke:#038048;stroke-width:1.5;"/><text fill="#000000" font-family="sans-serif" font-size="16.5" lengthAdjust="spacing" textLength="229.5" x="584.25" y="1350.6284">getListTestWaitingForSamples()</text><!--MD5=[fcd6df96e169c9fc6403c4dc9bdb4d83]
class SampleStore--><rect codeLine="57" fill="#FEFECE" filter="url(#f1a7jr5rhlipsb)" height="92.7539" id="SampleStore" style="stroke:#A80036;stroke-width:2.25;" width="156" x="345" y="1267.5"/><ellipse cx="367.5" cy="1291.5" fill="#ADD1B2" rx="16.5" ry="16.5" style="stroke:#A80036;stroke-width:1.5;"/><path d="M370.5,1286.25 Q370.8047,1285.5 371.1563,1285.125 Q371.5078,1284.75 371.9063,1284.75 Q372.6094,1284.75 373.0547,1285.1719 Q373.5,1285.5938 373.5,1286.5781 L373.5,1288.9219 Q373.5,1289.9063 373.0781,1290.3281 Q372.6563,1290.75 372,1290.75 Q371.4141,1290.75 371.0391,1290.4922 Q370.6641,1290.2344 370.5,1289.5547 Q370.4297,1289.0859 370.1719,1288.8281 Q369.7031,1288.3359 368.8594,1288.0547 Q368.0156,1287.75 367.1719,1287.75 Q366.1172,1287.75 365.2266,1288.1719 Q364.3594,1288.5938 363.6797,1289.5313 Q363,1290.4688 363,1291.7578 L363,1293.1406 Q363,1294.6875 364.2656,1295.7188 Q365.5313,1296.75 367.7813,1296.75 Q369.1172,1296.75 370.0547,1296.4453 Q370.5938,1296.2813 371.2031,1295.7422 Q371.6016,1295.4375 371.8125,1295.3438 Q372.0234,1295.25 372.2813,1295.25 Q372.7734,1295.25 373.125,1295.6484 Q373.5,1296.0234 373.5,1296.5625 Q373.5,1297.0781 372.9844,1297.6875 Q372.2344,1298.5781 371.0391,1299.0703 Q369.4688,1299.75 367.5469,1299.75 Q365.2969,1299.75 363.4922,1298.8594 Q362.0391,1298.1563 361.0078,1296.6328 Q360,1295.1094 360,1293.3047 L360,1291.6641 Q360,1289.7891 360.8906,1288.1484 Q361.8047,1286.5078 363.375,1285.6406 Q364.9688,1284.75 366.75,1284.75 Q367.8281,1284.75 368.7656,1285.125 Q369.7031,1285.5 370.5,1286.25 Z " fill="#000000"/><text fill="#000000" font-family="sans-serif" font-size="18" lengthAdjust="spacing" textLength="108" x="388.5" y="1298.8652">SampleStore</text><line style="stroke:#A80036;stroke-width:2.25;" x1="346.5" x2="499.5" y1="1315.5" y2="1315.5"/><line style="stroke:#A80036;stroke-width:2.25;" x1="346.5" x2="499.5" y1="1327.5" y2="1327.5"/><ellipse cx="361.5" cy="1344" fill="#84BE84" rx="4.5" ry="4.5" style="stroke:#038048;stroke-width:1.5;"/><text fill="#000000" font-family="sans-serif" font-size="16.5" lengthAdjust="spacing" textLength="111" x="375" y="1350.6284">createSample()</text><!--MD5=[144698ec4d0188f6929a3b58a3eeb1f6]
class TestMapper--><rect codeLine="67" fill="#FEFECE" filter="url(#f1a7jr5rhlipsb)" height="92.7539" id="TestMapper" style="stroke:#A80036;stroke-width:2.25;" width="237" x="147" y="425.25"/><ellipse cx="210.675" cy="449.25" fill="#ADD1B2" rx="16.5" ry="16.5" style="stroke:#A80036;stroke-width:1.5;"/><path d="M213.675,444 Q213.9797,443.25 214.3312,442.875 Q214.6828,442.5 215.0812,442.5 Q215.7844,442.5 216.2297,442.9219 Q216.675,443.3438 216.675,444.3281 L216.675,446.6719 Q216.675,447.6563 216.2531,448.0781 Q215.8312,448.5 215.175,448.5 Q214.5891,448.5 214.2141,448.2422 Q213.8391,447.9844 213.675,447.3047 Q213.6047,446.8359 213.3469,446.5781 Q212.8781,446.0859 212.0344,445.8047 Q211.1906,445.5 210.3469,445.5 Q209.2922,445.5 208.4016,445.9219 Q207.5344,446.3438 206.8547,447.2813 Q206.175,448.2188 206.175,449.5078 L206.175,450.8906 Q206.175,452.4375 207.4406,453.4688 Q208.7062,454.5 210.9562,454.5 Q212.2922,454.5 213.2297,454.1953 Q213.7687,454.0313 214.3781,453.4922 Q214.7766,453.1875 214.9875,453.0938 Q215.1984,453 215.4562,453 Q215.9484,453 216.3,453.3984 Q216.675,453.7734 216.675,454.3125 Q216.675,454.8281 216.1594,455.4375 Q215.4094,456.3281 214.2141,456.8203 Q212.6437,457.5 210.7219,457.5 Q208.4719,457.5 206.6672,456.6094 Q205.2141,455.9063 204.1828,454.3828 Q203.175,452.8594 203.175,451.0547 L203.175,449.4141 Q203.175,447.5391 204.0656,445.8984 Q204.9797,444.2578 206.55,443.3906 Q208.1437,442.5 209.925,442.5 Q211.0031,442.5 211.9406,442.875 Q212.8781,443.25 213.675,444 Z " fill="#000000"/><text fill="#000000" font-family="sans-serif" font-size="18" lengthAdjust="spacing" textLength="97.5" x="240.825" y="456.6152">TestMapper</text><line style="stroke:#A80036;stroke-width:2.25;" x1="148.5" x2="382.5" y1="473.25" y2="473.25"/><line style="stroke:#A80036;stroke-width:2.25;" x1="148.5" x2="382.5" y1="485.25" y2="485.25"/><ellipse cx="163.5" cy="501.75" fill="#84BE84" rx="4.5" ry="4.5" style="stroke:#038048;stroke-width:1.5;"/><text fill="#000000" font-family="sans-serif" font-size="16.5" lengthAdjust="spacing" textLength="198" x="177" y="508.3784">toDto(listWaitingForSample)</text><!--MD5=[9fb704ffefcaf68bf1a361787afa998b]
class TestDTO--><rect codeLine="71" fill="#FEFECE" filter="url(#f1a7jr5rhlipsb)" height="155.0156" id="TestDTO" style="stroke:#A80036;stroke-width:2.25;" width="166.5" x="437.25" y="394.5"/><ellipse cx="480" cy="418.5" fill="#ADD1B2" rx="16.5" ry="16.5" style="stroke:#A80036;stroke-width:1.5;"/><path d="M483,413.25 Q483.3047,412.5 483.6563,412.125 Q484.0078,411.75 484.4063,411.75 Q485.1094,411.75 485.5547,412.1719 Q486,412.5938 486,413.5781 L486,415.9219 Q486,416.9063 485.5781,417.3281 Q485.1563,417.75 484.5,417.75 Q483.9141,417.75 483.5391,417.4922 Q483.1641,417.2344 483,416.5547 Q482.9297,416.0859 482.6719,415.8281 Q482.2031,415.3359 481.3594,415.0547 Q480.5156,414.75 479.6719,414.75 Q478.6172,414.75 477.7266,415.1719 Q476.8594,415.5938 476.1797,416.5313 Q475.5,417.4688 475.5,418.7578 L475.5,420.1406 Q475.5,421.6875 476.7656,422.7188 Q478.0313,423.75 480.2813,423.75 Q481.6172,423.75 482.5547,423.4453 Q483.0938,423.2813 483.7031,422.7422 Q484.1016,422.4375 484.3125,422.3438 Q484.5234,422.25 484.7813,422.25 Q485.2734,422.25 485.625,422.6484 Q486,423.0234 486,423.5625 Q486,424.0781 485.4844,424.6875 Q484.7344,425.5781 483.5391,426.0703 Q481.9688,426.75 480.0469,426.75 Q477.7969,426.75 475.9922,425.8594 Q474.5391,425.1563 473.5078,423.6328 Q472.5,422.1094 472.5,420.3047 L472.5,418.6641 Q472.5,416.7891 473.3906,415.1484 Q474.3047,413.5078 475.875,412.6406 Q477.4688,411.75 479.25,411.75 Q480.3281,411.75 481.2656,412.125 Q482.2031,412.5 483,413.25 Z " fill="#000000"/><text fill="#000000" font-family="sans-serif" font-size="18" lengthAdjust="spacing" textLength="73.5" x="505.5" y="425.8652">TestDTO</text><line style="stroke:#A80036;stroke-width:2.25;" x1="438.75" x2="602.25" y1="442.5" y2="442.5"/><rect fill="none" height="9" style="stroke:#C82930;stroke-width:1.5;" width="9" x="449.25" y="454.5"/><text fill="#000000" font-family="sans-serif" font-size="16.5" lengthAdjust="spacing" textLength="88.5" x="467.25" y="465.6284">nhsCodeDto</text><rect fill="none" height="9" style="stroke:#C82930;stroke-width:1.5;" width="9" x="449.25" y="475.2539"/><text fill="#000000" font-family="sans-serif" font-size="16.5" lengthAdjust="spacing" textLength="88.5" x="467.25" y="486.3823">testCodeDto</text><line style="stroke:#A80036;stroke-width:2.25;" x1="438.75" x2="602.25" y1="496.0078" y2="496.0078"/><ellipse cx="453.75" cy="512.5078" fill="#84BE84" rx="4.5" ry="4.5" style="stroke:#038048;stroke-width:1.5;"/><text fill="#000000" font-family="sans-serif" font-size="16.5" lengthAdjust="spacing" textLength="124.5" x="467.25" y="519.1362">getNhsCodeDto()</text><ellipse cx="453.75" cy="533.2617" fill="#84BE84" rx="4.5" ry="4.5" style="stroke:#038048;stroke-width:1.5;"/><text fill="#000000" font-family="sans-serif" font-size="16.5" lengthAdjust="spacing" textLength="127.5" x="467.25" y="539.8901">getTestCodeDto()</text><!--MD5=[8f188b89eff49accb0f38c057b38a9f2]
class ExternalModule--><rect codeLine="3" fill="#FEFECE" filter="url(#f1a7jr5rhlipsb)" height="72" id="ExternalModule" style="stroke:#A80036;stroke-width:2.25;" width="174" x="925.5" y="764.25"/><ellipse cx="948" cy="788.25" fill="#ADD1B2" rx="16.5" ry="16.5" style="stroke:#A80036;stroke-width:1.5;"/><path d="M951,783 Q951.3047,782.25 951.6563,781.875 Q952.0078,781.5 952.4063,781.5 Q953.1094,781.5 953.5547,781.9219 Q954,782.3438 954,783.3281 L954,785.6719 Q954,786.6563 953.5781,787.0781 Q953.1563,787.5 952.5,787.5 Q951.9141,787.5 951.5391,787.2422 Q951.1641,786.9844 951,786.3047 Q950.9297,785.8359 950.6719,785.5781 Q950.2031,785.0859 949.3594,784.8047 Q948.5156,784.5 947.6719,784.5 Q946.6172,784.5 945.7266,784.9219 Q944.8594,785.3438 944.1797,786.2813 Q943.5,787.2188 943.5,788.5078 L943.5,789.8906 Q943.5,791.4375 944.7656,792.4688 Q946.0313,793.5 948.2813,793.5 Q949.6172,793.5 950.5547,793.1953 Q951.0938,793.0313 951.7031,792.4922 Q952.1016,792.1875 952.3125,792.0938 Q952.5234,792 952.7813,792 Q953.2734,792 953.625,792.3984 Q954,792.7734 954,793.3125 Q954,793.8281 953.4844,794.4375 Q952.7344,795.3281 951.5391,795.8203 Q949.9688,796.5 948.0469,796.5 Q945.7969,796.5 943.9922,795.6094 Q942.5391,794.9063 941.5078,793.3828 Q940.5,791.8594 940.5,790.0547 L940.5,788.4141 Q940.5,786.5391 941.3906,784.8984 Q942.3047,783.2578 943.875,782.3906 Q945.4688,781.5 947.25,781.5 Q948.3281,781.5 949.2656,781.875 Q950.2031,782.25 951,783 Z " fill="#000000"/><text fill="#000000" font-family="sans-serif" font-size="18" lengthAdjust="spacing" textLength="126" x="969" y="795.6152">ExternalModule</text><line style="stroke:#A80036;stroke-width:2.25;" x1="927" x2="1098" y1="812.25" y2="812.25"/><line style="stroke:#A80036;stroke-width:2.25;" x1="927" x2="1098" y1="824.25" y2="824.25"/><!--MD5=[b07fc2b2aa91da2436cc249a96980d64]
link RecordSampleUI to RecordSampleController--><path codeLine="85" d="M1089,135.285 C1089,197.34 1089,327.945 1089,406.485 " fill="none" id="RecordSampleUI-to-RecordSampleController" style="stroke:#A80036;stroke-width:1.5;stroke-dasharray:7.0,7.0;"/><polygon fill="#A80036" points="1089,414.39,1095,400.89,1089,406.89,1083,400.89,1089,414.39" style="stroke:#A80036;stroke-width:1.5;"/><!--MD5=[ccf558741c2fb5a5f538be9d3a954f59]
link RecordSampleController to Company--><path codeLine="86" d="M1002.42,528.84 C910.17,588.06 764.835,681.375 671.49,741.3 " fill="none" id="RecordSampleController-to-Company" style="stroke:#A80036;stroke-width:1.5;stroke-dasharray:7.0,7.0;"/><polygon fill="#A80036" points="664.86,745.56,679.4639,743.3294,671.1751,741.5141,672.9904,733.2252,664.86,745.56" style="stroke:#A80036;stroke-width:1.5;"/><!--MD5=[6fff8c743b4aac4516b5292cd3b50f72]
link Company to SampleStore--><path codeLine="87" d="M555.03,888.39 C521.85,994.965 466.575,1172.52 439.275,1260.21 " fill="none" id="Company-to-SampleStore" style="stroke:#A80036;stroke-width:1.5;"/><polygon fill="#A80036" points="437.04,1267.395,446.7822,1256.2892,439.2697,1260.2341,435.3248,1252.7216,437.04,1267.395" style="stroke:#A80036;stroke-width:1.5;"/><text fill="#000000" font-family="sans-serif" font-size="19.5" lengthAdjust="spacing" textLength="42" x="526.5" y="1055.2427">uses</text><text fill="#000000" font-family="sans-serif" font-size="19.5" lengthAdjust="spacing" textLength="10.5" x="540.8046" y="920.2263">1</text><text fill="#000000" font-family="sans-serif" font-size="19.5" lengthAdjust="spacing" textLength="10.5" x="428.4628" y="1250.9024">1</text><!--MD5=[7f6cf7f175eae0af66201860de5de971]
link Company to TestStore--><path codeLine="88" d="M664.89,871.23 C694.335,901.14 724.005,938.64 739.5,979.5 C775.425,1074.21 739.395,1193.175 712.335,1260.24 " fill="none" id="Company-to-TestStore" style="stroke:#A80036;stroke-width:1.5;"/><polygon fill="#A80036" points="709.41,1267.365,720.0601,1257.1265,712.2397,1260.4193,708.947,1252.599,709.41,1267.365" style="stroke:#A80036;stroke-width:1.5;"/><text fill="#000000" font-family="sans-serif" font-size="19.5" lengthAdjust="spacing" textLength="42" x="756" y="1055.2427">uses</text><text fill="#000000" font-family="sans-serif" font-size="19.5" lengthAdjust="spacing" textLength="10.5" x="676.7338" y="875.4154">1</text><text fill="#000000" font-family="sans-serif" font-size="19.5" lengthAdjust="spacing" textLength="10.5" x="702.3356" y="1250.8659">1</text><!--MD5=[24da80e03bf7ae3160485df7795f9e59]
link SampleStore to Sample--><path codeLine="89" d="M393.33,1267.485 C367.05,1227.615 328.17,1168.62 297.39,1121.91 " fill="none" id="SampleStore-to-Sample" style="stroke:#A80036;stroke-width:1.5;"/><polygon fill="#A80036" points="292.905,1115.115,295.3434,1129.6857,297.0405,1121.3718,305.3543,1123.0689,292.905,1115.115" style="stroke:#A80036;stroke-width:1.5;"/><text fill="#000000" font-family="sans-serif" font-size="19.5" lengthAdjust="spacing" textLength="55.5" x="342" y="1184.2427">knows</text><text fill="#000000" font-family="sans-serif" font-size="19.5" lengthAdjust="spacing" textLength="10.5" x="375.1912" y="1251.0121">1</text><text fill="#000000" font-family="sans-serif" font-size="19.5" lengthAdjust="spacing" textLength="7.5" x="290.8008" y="1146.2082">*</text><!--MD5=[b0f4f6db8206580012ef9cd998ed01c5]
link TestStore to Test--><path codeLine="90" d="M684.525,1267.14 C676.335,1198.02 652.02,1065.33 582,979.5 C547.92,937.725 501.285,904.02 454.275,877.665 " fill="none" id="TestStore-to-Test" style="stroke:#A80036;stroke-width:1.5;"/><polygon fill="#A80036" points="447.33,873.825,456.2173,885.6261,453.8862,877.4673,462.045,875.1362,447.33,873.825" style="stroke:#A80036;stroke-width:1.5;"/><text fill="#000000" font-family="sans-serif" font-size="19.5" lengthAdjust="spacing" textLength="55.5" x="663" y="1055.2427">knows</text><text fill="#000000" font-family="sans-serif" font-size="19.5" lengthAdjust="spacing" textLength="10.5" x="672.1223" y="1251.3226">1</text><text fill="#000000" font-family="sans-serif" font-size="19.5" lengthAdjust="spacing" textLength="7.5" x="459.2187" y="874.0206">*</text><!--MD5=[b72ac8ab7fb5921fceb5036a3902baea]
link Test to Sample--><path codeLine="91" d="M259.635,888.375 C258.06,911.55 256.365,936.585 254.805,959.715 " fill="none" id="Test-to-Sample" style="stroke:#A80036;stroke-width:1.5;"/><polygon fill="#A80036" points="253.47,979.47,260.0598,970.8924,254.6765,961.5105,248.0868,970.0881,253.47,979.47" style="stroke:#A80036;stroke-width:1.5;"/><!--MD5=[d83dab74cb397e7ce1d1802f1661c7a8]
link Company to ExternalModule--><path codeLine="92" d="M664.815,800.25 C748.98,800.25 833.13,800.25 917.28,800.25 " fill="none" id="Company-to-ExternalModule" style="stroke:#A80036;stroke-width:1.5;stroke-dasharray:7.0,7.0;"/><polygon fill="#A80036" points="924.9,800.25,911.4,794.25,917.4,800.25,911.4,806.25,924.9,800.25" style="stroke:#A80036;stroke-width:1.5;"/><!--MD5=[0a1d644254b941a18fabd8d36a1e6fd6]
link TestDTO to TestMapper--><path codeLine="93" d="M436.815,471.75 C421.83,471.75 406.845,471.75 391.875,471.75 " fill="none" id="TestDTO-to-TestMapper" style="stroke:#A80036;stroke-width:1.5;stroke-dasharray:7.0,7.0;"/><polygon fill="#A80036" points="384.03,471.75,397.53,477.75,391.53,471.75,397.53,465.75,384.03,471.75" style="stroke:#A80036;stroke-width:1.5;"/><!--MD5=[8d9a2c3ea1bf73d8d45b939465e53fff]
link TestMapper to Test--><path codeLine="94" d="M265.5,518.505 C265.5,566.325 265.5,643.11 265.5,704.22 " fill="none" id="TestMapper-to-Test" style="stroke:#A80036;stroke-width:1.5;stroke-dasharray:7.0,7.0;"/><polygon fill="#A80036" points="265.5,712.35,271.5,698.85,265.5,704.85,259.5,698.85,265.5,712.35" style="stroke:#A80036;stroke-width:1.5;"/><!--MD5=[4e7555043d1f363911e0e2753b178467]
@startuml
'https://plantuml.com/class-diagram

class ExternalModule

package ui{
class RecordSampleUI
}
package controller{
class RecordSampleController
}
package domain{

package model{
class Company
class Test
class Sample
}
package store{
class TestStore
class SampleStore
}
package mappers{

class TestMapper

package dto{
class TestDTO

}
}
}

class Test{
-nhsCode
-testCode


}

class Company{
-designation
-testStore
-sampleStore
+getSampleStore()
+getTestStore()
}

class RecordSampleController{
+getListTestDto()
+createSample()
}

class TestStore{
+getListTestWaitingForSamples()
}

class SampleStore{
+createSample()
}

class Test{
+generateDateAndTimeForSamplesCollected()
+getNhsCode()
+getTestCode()
}

class TestMapper {
+toDto(listWaitingForSample)
}

class TestDTO {
-nhsCodeDto
-testCodeDto
+getNhsCodeDto()
+getTestCodeDto()
}

class Sample {
-barcode
+generateBarcode()
+AssociateBarcodeWithSample(barcode)

}

RecordSampleUI..>RecordSampleController
RecordSampleController..>Company
Company"1"- - - ->"1"SampleStore : uses
Company"1"- - ->"1"TestStore : uses
SampleStore "1" - -> "*"Sample : knows
TestStore "1"- - - ->"*"Test : knows
Test - -* Sample
Company .>ExternalModule
TestDTO.>TestMapper
TestMapper..>Test 



@enduml

@startuml

class ExternalModule

package ui{
class RecordSampleUI
}
package controller{
class RecordSampleController
}
package domain{

package model{
class Company
class Test
class Sample
}
package store{
class TestStore
class SampleStore
}
package mappers{

class TestMapper

package dto{
class TestDTO

}
}
}

class Test{
-nhsCode
-testCode


}

class Company{
-designation
-testStore
-sampleStore
+getSampleStore()
+getTestStore()
}

class RecordSampleController{
+getListTestDto()
+createSample()
}

class TestStore{
+getListTestWaitingForSamples()
}

class SampleStore{
+createSample()
}

class Test{
+generateDateAndTimeForSamplesCollected()
+getNhsCode()
+getTestCode()
}

class TestMapper {
+toDto(listWaitingForSample)
}

class TestDTO {
-nhsCodeDto
-testCodeDto
+getNhsCodeDto()
+getTestCodeDto()
}

class Sample {
-barcode
+generateBarcode()
+AssociateBarcodeWithSample(barcode)

}

RecordSampleUI..>RecordSampleController
RecordSampleController..>Company
Company"1"- - - ->"1"SampleStore : uses
Company"1"- - ->"1"TestStore : uses
SampleStore "1" - -> "*"Sample : knows
TestStore "1"- - - ->"*"Test : knows
Test - -* Sample
Company .>ExternalModule
TestDTO.>TestMapper
TestMapper..>Test 



@enduml

PlantUML version 1.2021.5(Sun Apr 25 12:20:28 BST 2021)
(GPL source distribution)
Java Runtime: OpenJDK Runtime Environment
JVM: Dynamic Code Evolution 64-Bit Server VM
Default Encoding: Cp1252
Language: pt
Country: PT
--></g></svg>