<?xml version="1.0" encoding="UTF-8" standalone="no"?><svg xmlns="http://www.w3.org/2000/svg" xmlns:xlink="http://www.w3.org/1999/xlink" contentScriptType="application/ecmascript" contentStyleType="text/css" height="582px" preserveAspectRatio="none" style="width:1221px;height:582px;" version="1.1" viewBox="0 0 1221 582" width="1221px" zoomAndPan="magnify"><defs><filter height="300%" id="f1ns4i6garzd6e" width="300%" x="-1" y="-1"><feGaussianBlur result="blurOut" stdDeviation="3.0"/><feColorMatrix in="blurOut" result="blurOut2" type="matrix" values="0 0 0 0 0 0 0 0 0 0 0 0 0 0 0 0 0 0 .4 0"/><feOffset dx="6.0" dy="6.0" in="blurOut2" result="blurOut3"/><feBlend in="SourceGraphic" in2="blurOut3" mode="normal"/></filter></defs><g><!--MD5=[ed6624c6556d5e7b1bd23032162d20b7]
class Client--><rect codeLine="4" fill="#FEFECE" filter="url(#f1ns4i6garzd6e)" height="238.0313" id="Client" style="stroke:#A80036;stroke-width:2.25;" width="160.5" x="10.5" y="125.25"/><ellipse cx="62.025" cy="149.25" fill="#ADD1B2" rx="16.5" ry="16.5" style="stroke:#A80036;stroke-width:1.5;"/><path d="M65.025,144 Q65.3297,143.25 65.6813,142.875 Q66.0328,142.5 66.4313,142.5 Q67.1344,142.5 67.5797,142.9219 Q68.025,143.3438 68.025,144.3281 L68.025,146.6719 Q68.025,147.6563 67.6031,148.0781 Q67.1813,148.5 66.525,148.5 Q65.9391,148.5 65.5641,148.2422 Q65.1891,147.9844 65.025,147.3047 Q64.9547,146.8359 64.6969,146.5781 Q64.2281,146.0859 63.3844,145.8047 Q62.5406,145.5 61.6969,145.5 Q60.6422,145.5 59.7516,145.9219 Q58.8844,146.3438 58.2047,147.2813 Q57.525,148.2188 57.525,149.5078 L57.525,150.8906 Q57.525,152.4375 58.7906,153.4688 Q60.0563,154.5 62.3063,154.5 Q63.6422,154.5 64.5797,154.1953 Q65.1188,154.0313 65.7281,153.4922 Q66.1266,153.1875 66.3375,153.0938 Q66.5484,153 66.8063,153 Q67.2984,153 67.65,153.3984 Q68.025,153.7734 68.025,154.3125 Q68.025,154.8281 67.5094,155.4375 Q66.7594,156.3281 65.5641,156.8203 Q63.9938,157.5 62.0719,157.5 Q59.8219,157.5 58.0172,156.6094 Q56.5641,155.9063 55.5328,154.3828 Q54.525,152.8594 54.525,151.0547 L54.525,149.4141 Q54.525,147.5391 55.4156,145.8984 Q56.3297,144.2578 57.9,143.3906 Q59.4938,142.5 61.275,142.5 Q62.3531,142.5 63.2906,142.875 Q64.2281,143.25 65.025,144 Z " fill="#000000"/><text fill="#000000" font-family="sans-serif" font-size="18" lengthAdjust="spacing" textLength="48" x="89.475" y="156.6152">Client</text><line style="stroke:#A80036;stroke-width:2.25;" x1="12" x2="169.5" y1="173.25" y2="173.25"/><text fill="#000000" font-family="sans-serif" font-size="16.5" lengthAdjust="spacing" textLength="45" x="19.5" y="196.3784">-name</text><text fill="#000000" font-family="sans-serif" font-size="16.5" lengthAdjust="spacing" textLength="42" x="19.5" y="217.1323">-email</text><text fill="#000000" font-family="sans-serif" font-size="16.5" lengthAdjust="spacing" textLength="106.5" x="19.5" y="237.8862">-phoneNumber</text><text fill="#000000" font-family="sans-serif" font-size="16.5" lengthAdjust="spacing" textLength="33" x="19.5" y="258.6401">-sex</text><text fill="#000000" font-family="sans-serif" font-size="16.5" lengthAdjust="spacing" textLength="22.5" x="19.5" y="279.394">-tin</text><text fill="#000000" font-family="sans-serif" font-size="16.5" lengthAdjust="spacing" textLength="70.5" x="19.5" y="300.1479">-birthDate</text><text fill="#000000" font-family="sans-serif" font-size="16.5" lengthAdjust="spacing" textLength="88.5" x="19.5" y="320.9019">-nhsNumber</text><text fill="#000000" font-family="sans-serif" font-size="16.5" lengthAdjust="spacing" textLength="142.5" x="19.5" y="341.6558">-citizenCardNumber</text><line style="stroke:#A80036;stroke-width:2.25;" x1="12" x2="169.5" y1="351.2813" y2="351.2813"/><!--MD5=[9681492165142af2a4a3a169d90ee8d4]
class Sample--><rect codeLine="15" fill="#FEFECE" filter="url(#f1ns4i6garzd6e)" height="72" id="Sample" style="stroke:#A80036;stroke-width:2.25;" width="112.5" x="354" y="208.5"/><ellipse cx="376.5" cy="232.5" fill="#ADD1B2" rx="16.5" ry="16.5" style="stroke:#A80036;stroke-width:1.5;"/><path d="M379.5,227.25 Q379.8047,226.5 380.1563,226.125 Q380.5078,225.75 380.9063,225.75 Q381.6094,225.75 382.0547,226.1719 Q382.5,226.5938 382.5,227.5781 L382.5,229.9219 Q382.5,230.9063 382.0781,231.3281 Q381.6563,231.75 381,231.75 Q380.4141,231.75 380.0391,231.4922 Q379.6641,231.2344 379.5,230.5547 Q379.4297,230.0859 379.1719,229.8281 Q378.7031,229.3359 377.8594,229.0547 Q377.0156,228.75 376.1719,228.75 Q375.1172,228.75 374.2266,229.1719 Q373.3594,229.5938 372.6797,230.5313 Q372,231.4688 372,232.7578 L372,234.1406 Q372,235.6875 373.2656,236.7188 Q374.5313,237.75 376.7813,237.75 Q378.1172,237.75 379.0547,237.4453 Q379.5938,237.2813 380.2031,236.7422 Q380.6016,236.4375 380.8125,236.3438 Q381.0234,236.25 381.2813,236.25 Q381.7734,236.25 382.125,236.6484 Q382.5,237.0234 382.5,237.5625 Q382.5,238.0781 381.9844,238.6875 Q381.2344,239.5781 380.0391,240.0703 Q378.4688,240.75 376.5469,240.75 Q374.2969,240.75 372.4922,239.8594 Q371.0391,239.1563 370.0078,237.6328 Q369,236.1094 369,234.3047 L369,232.6641 Q369,230.7891 369.8906,229.1484 Q370.8047,227.5078 372.375,226.6406 Q373.9688,225.75 375.75,225.75 Q376.8281,225.75 377.7656,226.125 Q378.7031,226.5 379.5,227.25 Z " fill="#000000"/><text fill="#000000" font-family="sans-serif" font-size="18" lengthAdjust="spacing" textLength="64.5" x="397.5" y="239.8652">Sample</text><line style="stroke:#A80036;stroke-width:2.25;" x1="355.5" x2="465" y1="256.5" y2="256.5"/><line style="stroke:#A80036;stroke-width:2.25;" x1="355.5" x2="465" y1="268.5" y2="268.5"/><!--MD5=[df38be88ccee13e832d6fafd6288a4ca]
class Test--><rect codeLine="18" fill="#FEFECE" filter="url(#f1ns4i6garzd6e)" height="134.2617" id="Test" style="stroke:#A80036;stroke-width:2.25;" width="114" x="706.5" y="10.5"/><ellipse cx="742.5" cy="34.5" fill="#ADD1B2" rx="16.5" ry="16.5" style="stroke:#A80036;stroke-width:1.5;"/><path d="M745.5,29.25 Q745.8047,28.5 746.1563,28.125 Q746.5078,27.75 746.9063,27.75 Q747.6094,27.75 748.0547,28.1719 Q748.5,28.5938 748.5,29.5781 L748.5,31.9219 Q748.5,32.9063 748.0781,33.3281 Q747.6563,33.75 747,33.75 Q746.4141,33.75 746.0391,33.4922 Q745.6641,33.2344 745.5,32.5547 Q745.4297,32.0859 745.1719,31.8281 Q744.7031,31.3359 743.8594,31.0547 Q743.0156,30.75 742.1719,30.75 Q741.1172,30.75 740.2266,31.1719 Q739.3594,31.5938 738.6797,32.5313 Q738,33.4688 738,34.7578 L738,36.1406 Q738,37.6875 739.2656,38.7188 Q740.5313,39.75 742.7813,39.75 Q744.1172,39.75 745.0547,39.4453 Q745.5938,39.2813 746.2031,38.7422 Q746.6016,38.4375 746.8125,38.3438 Q747.0234,38.25 747.2813,38.25 Q747.7734,38.25 748.125,38.6484 Q748.5,39.0234 748.5,39.5625 Q748.5,40.0781 747.9844,40.6875 Q747.2344,41.5781 746.0391,42.0703 Q744.4688,42.75 742.5469,42.75 Q740.2969,42.75 738.4922,41.8594 Q737.0391,41.1563 736.0078,39.6328 Q735,38.1094 735,36.3047 L735,34.6641 Q735,32.7891 735.8906,31.1484 Q736.8047,29.5078 738.375,28.6406 Q739.9688,27.75 741.75,27.75 Q742.8281,27.75 743.7656,28.125 Q744.7031,28.5 745.5,29.25 Z " fill="#000000"/><text fill="#000000" font-family="sans-serif" font-size="18" lengthAdjust="spacing" textLength="36" x="766.5" y="41.8652">Test</text><line style="stroke:#A80036;stroke-width:2.25;" x1="708" x2="819" y1="58.5" y2="58.5"/><text fill="#000000" font-family="sans-serif" font-size="16.5" lengthAdjust="spacing" textLength="96" x="715.5" y="81.6284">-internalCode</text><text fill="#000000" font-family="sans-serif" font-size="16.5" lengthAdjust="spacing" textLength="70.5" x="715.5" y="102.3823">-nhsCode</text><text fill="#000000" font-family="sans-serif" font-size="16.5" lengthAdjust="spacing" textLength="85.5" x="715.5" y="123.1362">-description</text><line style="stroke:#A80036;stroke-width:2.25;" x1="708" x2="819" y1="132.7617" y2="132.7617"/><!--MD5=[e59bda2572a266093cda22ac34510ea0]
class Barcode--><rect codeLine="24" fill="#FEFECE" filter="url(#f1ns4i6garzd6e)" height="92.7539" id="Barcode" style="stroke:#A80036;stroke-width:2.25;" width="117" x="705" y="198"/><ellipse cx="727.5" cy="222" fill="#ADD1B2" rx="16.5" ry="16.5" style="stroke:#A80036;stroke-width:1.5;"/><path d="M730.5,216.75 Q730.8047,216 731.1563,215.625 Q731.5078,215.25 731.9063,215.25 Q732.6094,215.25 733.0547,215.6719 Q733.5,216.0938 733.5,217.0781 L733.5,219.4219 Q733.5,220.4063 733.0781,220.8281 Q732.6563,221.25 732,221.25 Q731.4141,221.25 731.0391,220.9922 Q730.6641,220.7344 730.5,220.0547 Q730.4297,219.5859 730.1719,219.3281 Q729.7031,218.8359 728.8594,218.5547 Q728.0156,218.25 727.1719,218.25 Q726.1172,218.25 725.2266,218.6719 Q724.3594,219.0938 723.6797,220.0313 Q723,220.9688 723,222.2578 L723,223.6406 Q723,225.1875 724.2656,226.2188 Q725.5313,227.25 727.7813,227.25 Q729.1172,227.25 730.0547,226.9453 Q730.5938,226.7813 731.2031,226.2422 Q731.6016,225.9375 731.8125,225.8438 Q732.0234,225.75 732.2813,225.75 Q732.7734,225.75 733.125,226.1484 Q733.5,226.5234 733.5,227.0625 Q733.5,227.5781 732.9844,228.1875 Q732.2344,229.0781 731.0391,229.5703 Q729.4688,230.25 727.5469,230.25 Q725.2969,230.25 723.4922,229.3594 Q722.0391,228.6563 721.0078,227.1328 Q720,225.6094 720,223.8047 L720,222.1641 Q720,220.2891 720.8906,218.6484 Q721.8047,217.0078 723.375,216.1406 Q724.9688,215.25 726.75,215.25 Q727.8281,215.25 728.7656,215.625 Q729.7031,216 730.5,216.75 Z " fill="#000000"/><text fill="#000000" font-family="sans-serif" font-size="18" lengthAdjust="spacing" textLength="69" x="748.5" y="229.3652">Barcode</text><line style="stroke:#A80036;stroke-width:2.25;" x1="706.5" x2="820.5" y1="246" y2="246"/><text fill="#000000" font-family="sans-serif" font-size="16.5" lengthAdjust="spacing" textLength="42" x="714" y="269.1284">-code</text><line style="stroke:#A80036;stroke-width:2.25;" x1="706.5" x2="820.5" y1="278.7539" y2="278.7539"/><!--MD5=[7421f545a0d8420c5bec41e74b387d9c]
class Employee--><rect codeLine="28" fill="#FEFECE" filter="url(#f1ns4i6garzd6e)" height="217.2773" id="Employee" style="stroke:#A80036;stroke-width:2.25;" width="144" x="691.5" y="344.25"/><ellipse cx="720.075" cy="368.25" fill="#ADD1B2" rx="16.5" ry="16.5" style="stroke:#A80036;stroke-width:1.5;"/><path d="M723.075,363 Q723.3797,362.25 723.7313,361.875 Q724.0828,361.5 724.4813,361.5 Q725.1844,361.5 725.6297,361.9219 Q726.075,362.3438 726.075,363.3281 L726.075,365.6719 Q726.075,366.6563 725.6531,367.0781 Q725.2313,367.5 724.575,367.5 Q723.9891,367.5 723.6141,367.2422 Q723.2391,366.9844 723.075,366.3047 Q723.0047,365.8359 722.7469,365.5781 Q722.2781,365.0859 721.4344,364.8047 Q720.5906,364.5 719.7469,364.5 Q718.6922,364.5 717.8016,364.9219 Q716.9344,365.3438 716.2547,366.2813 Q715.575,367.2188 715.575,368.5078 L715.575,369.8906 Q715.575,371.4375 716.8406,372.4688 Q718.1063,373.5 720.3563,373.5 Q721.6922,373.5 722.6297,373.1953 Q723.1688,373.0313 723.7781,372.4922 Q724.1766,372.1875 724.3875,372.0938 Q724.5984,372 724.8563,372 Q725.3484,372 725.7,372.3984 Q726.075,372.7734 726.075,373.3125 Q726.075,373.8281 725.5594,374.4375 Q724.8094,375.3281 723.6141,375.8203 Q722.0438,376.5 720.1219,376.5 Q717.8719,376.5 716.0672,375.6094 Q714.6141,374.9063 713.5828,373.3828 Q712.575,371.8594 712.575,370.0547 L712.575,368.4141 Q712.575,366.5391 713.4656,364.8984 Q714.3797,363.2578 715.95,362.3906 Q717.5438,361.5 719.325,361.5 Q720.4031,361.5 721.3406,361.875 Q722.2781,362.25 723.075,363 Z " fill="#000000"/><text fill="#000000" font-family="sans-serif" font-size="18" lengthAdjust="spacing" textLength="82.5" x="742.425" y="375.6152">Employee</text><line style="stroke:#A80036;stroke-width:2.25;" x1="693" x2="834" y1="392.25" y2="392.25"/><text fill="#000000" font-family="sans-serif" font-size="16.5" lengthAdjust="spacing" textLength="45" x="700.5" y="415.3784">-name</text><text fill="#000000" font-family="sans-serif" font-size="16.5" lengthAdjust="spacing" textLength="66" x="700.5" y="436.1323">-address</text><text fill="#000000" font-family="sans-serif" font-size="16.5" lengthAdjust="spacing" textLength="106.5" x="700.5" y="456.8862">-phoneNumber</text><text fill="#000000" font-family="sans-serif" font-size="16.5" lengthAdjust="spacing" textLength="42" x="700.5" y="477.6401">-email</text><text fill="#000000" font-family="sans-serif" font-size="16.5" lengthAdjust="spacing" textLength="87" x="700.5" y="498.394">-employeeId</text><text fill="#000000" font-family="sans-serif" font-size="16.5" lengthAdjust="spacing" textLength="126" x="700.5" y="519.1479">-organizationRole</text><text fill="#000000" font-family="sans-serif" font-size="16.5" lengthAdjust="spacing" textLength="70.5" x="700.5" y="539.9019">-socCode</text><line style="stroke:#A80036;stroke-width:2.25;" x1="693" x2="834" y1="549.5273" y2="549.5273"/><!--MD5=[e77fb403852d7bfa027acc725a23446c]
class ExternalApi--><rect fill="#FEFECE" filter="url(#f1ns4i6garzd6e)" height="72" id="ExternalApi" style="stroke:#A80036;stroke-width:2.25;" width="139.5" x="1060.5" y="208.5"/><ellipse cx="1083" cy="232.5" fill="#ADD1B2" rx="16.5" ry="16.5" style="stroke:#A80036;stroke-width:1.5;"/><path d="M1086,227.25 Q1086.3047,226.5 1086.6563,226.125 Q1087.0078,225.75 1087.4063,225.75 Q1088.1094,225.75 1088.5547,226.1719 Q1089,226.5938 1089,227.5781 L1089,229.9219 Q1089,230.9063 1088.5781,231.3281 Q1088.1563,231.75 1087.5,231.75 Q1086.9141,231.75 1086.5391,231.4922 Q1086.1641,231.2344 1086,230.5547 Q1085.9297,230.0859 1085.6719,229.8281 Q1085.2031,229.3359 1084.3594,229.0547 Q1083.5156,228.75 1082.6719,228.75 Q1081.6172,228.75 1080.7266,229.1719 Q1079.8594,229.5938 1079.1797,230.5313 Q1078.5,231.4688 1078.5,232.7578 L1078.5,234.1406 Q1078.5,235.6875 1079.7656,236.7188 Q1081.0313,237.75 1083.2813,237.75 Q1084.6172,237.75 1085.5547,237.4453 Q1086.0938,237.2813 1086.7031,236.7422 Q1087.1016,236.4375 1087.3125,236.3438 Q1087.5234,236.25 1087.7813,236.25 Q1088.2734,236.25 1088.625,236.6484 Q1089,237.0234 1089,237.5625 Q1089,238.0781 1088.4844,238.6875 Q1087.7344,239.5781 1086.5391,240.0703 Q1084.9688,240.75 1083.0469,240.75 Q1080.7969,240.75 1078.9922,239.8594 Q1077.5391,239.1563 1076.5078,237.6328 Q1075.5,236.1094 1075.5,234.3047 L1075.5,232.6641 Q1075.5,230.7891 1076.3906,229.1484 Q1077.3047,227.5078 1078.875,226.6406 Q1080.4688,225.75 1082.25,225.75 Q1083.3281,225.75 1084.2656,226.125 Q1085.2031,226.5 1086,227.25 Z " fill="#000000"/><text fill="#000000" font-family="sans-serif" font-size="18" lengthAdjust="spacing" textLength="91.5" x="1104" y="239.8652">ExternalApi</text><line style="stroke:#A80036;stroke-width:2.25;" x1="1062" x2="1198.5" y1="256.5" y2="256.5"/><line style="stroke:#A80036;stroke-width:2.25;" x1="1062" x2="1198.5" y1="268.5" y2="268.5"/><!--MD5=[1ae83efc6d1967ce5bc17dfe294d00c2]
link Sample to Test--><path codeLine="42" d="M466.86,218.295 C532.17,187.26 640.38,135.81 706.05,104.595 " fill="none" id="Sample-Test" style="stroke:#A80036;stroke-width:1.5;"/><polygon fill="#000000" points="534.7737,121.5438,520.6274,123.3872,524.4126,131.3501,534.7737,121.5438" style="stroke:#000000;stroke-width:1.5;"/><text fill="#000000" font-family="sans-serif" font-size="19.5" lengthAdjust="spacing" textLength="94.5" x="541.5" y="132.7427">associated</text><text fill="#000000" font-family="sans-serif" font-size="19.5" lengthAdjust="spacing" textLength="30" x="478.7204" y="236.2286">1..*</text><text fill="#000000" font-family="sans-serif" font-size="19.5" lengthAdjust="spacing" textLength="10.5" x="683.9897" y="132.0703">1</text><!--MD5=[327391d6abe62f0446af3ffbf41cf7ec]
link Sample to Barcode--><path codeLine="43" d="M466.86,244.5 C531.78,244.5 639.105,244.5 704.88,244.5 " fill="none" id="Sample-Barcode" style="stroke:#A80036;stroke-width:1.5;"/><polygon fill="#000000" points="531,231.2637,517.4324,226.8553,517.4324,235.6721,531,231.2637" style="stroke:#000000;stroke-width:1.5;"/><text fill="#000000" font-family="sans-serif" font-size="19.5" lengthAdjust="spacing" textLength="103.5" x="537" y="239.2427">identified by</text><text fill="#000000" font-family="sans-serif" font-size="19.5" lengthAdjust="spacing" textLength="10.5" x="478.6521" y="267.0804">1</text><text fill="#000000" font-family="sans-serif" font-size="19.5" lengthAdjust="spacing" textLength="10.5" x="682.604" y="267.0265">1</text><!--MD5=[c550c0fb93424651c0337773082e9cc5]
link Sample to Employee--><path codeLine="44" d="M466.86,277.305 C527.55,313.425 625.275,371.61 691.5,411.03 " fill="none" id="Sample-Employee" style="stroke:#A80036;stroke-width:1.5;"/><polygon fill="#000000" points="525.4446,296.6,516.0412,285.872,511.5313,293.448,525.4446,296.6" style="stroke:#000000;stroke-width:1.5;"/><text fill="#000000" font-family="sans-serif" font-size="19.5" lengthAdjust="spacing" textLength="112.5" x="532.5" y="300.7427">registered by</text><text fill="#000000" font-family="sans-serif" font-size="19.5" lengthAdjust="spacing" textLength="7.5" x="478.3661" y="306.1389">*</text><text fill="#000000" font-family="sans-serif" font-size="19.5" lengthAdjust="spacing" textLength="10.5" x="669.1711" y="426.7409">1</text><!--MD5=[a1757db4d0ea5a43511b1008de7427d7]
link Client to Sample--><path codeLine="45" d="M171.3,244.5 C228.06,244.5 303.135,244.5 353.535,244.5 " fill="none" id="Client-Sample" style="stroke:#A80036;stroke-width:1.5;"/><polygon fill="#000000" points="231,231.2637,217.4324,226.8553,217.4324,235.6721,231,231.2637" style="stroke:#000000;stroke-width:1.5;"/><text fill="#000000" font-family="sans-serif" font-size="19.5" lengthAdjust="spacing" textLength="70.5" x="237" y="239.2427">provides</text><text fill="#000000" font-family="sans-serif" font-size="19.5" lengthAdjust="spacing" textLength="10.5" x="182.8294" y="266.4221">1</text><text fill="#000000" font-family="sans-serif" font-size="19.5" lengthAdjust="spacing" textLength="30" x="312.1054" y="266.6972">1..*</text><!--MD5=[067a849d4635bb787732bfc6f8c631d4]
link Barcode to ExternalApi--><path codeLine="46" d="M822.24,244.5 C886.665,244.5 991.29,244.5 1060.065,244.5 " fill="none" id="Barcode-ExternalApi" style="stroke:#A80036;stroke-width:1.5;"/><polygon fill="#000000" points="895.5,231.2637,881.9324,226.8553,881.9324,235.6721,895.5,231.2637" style="stroke:#000000;stroke-width:1.5;"/><text fill="#000000" font-family="sans-serif" font-size="19.5" lengthAdjust="spacing" textLength="112.5" x="901.5" y="239.2427">generated by</text><text fill="#000000" font-family="sans-serif" font-size="19.5" lengthAdjust="spacing" textLength="7.5" x="834.1522" y="267.1039">*</text><text fill="#000000" font-family="sans-serif" font-size="19.5" lengthAdjust="spacing" textLength="10.5" x="1038.014" y="266.6206">1</text><!--MD5=[d479b17d3187332e7fd811b1ff7423ef]
@startuml
'https://plantuml.com/class-diagram
skinparam classAttributeIconSize 0
left to right direction
class Client{
 - name
 - email
 - phoneNumber
 - sex
 - tin
 - birthDate
 - nhsNumber
 - citizenCardNumber
}

class Sample{
}

class Test{
-internalCode
-nhsCode
-description
}

class Barcode{
-code
}

class Employee{
-name
-address
-phoneNumber
-email
-employeeId
-organizationRole
-socCode
}





Sample "1..*"- -"1" Test : associated >
Sample "1"- -"1" Barcode : identified by >
Sample "*"- -"1" Employee : registered by >
Client "1"- -"1..*" Sample : provides >
Barcode "*"- -"1" ExternalApi : generated by >

@enduml

@startuml
skinparam classAttributeIconSize 0
left to right direction
class Client{
 - name
 - email
 - phoneNumber
 - sex
 - tin
 - birthDate
 - nhsNumber
 - citizenCardNumber
}

class Sample{
}

class Test{
-internalCode
-nhsCode
-description
}

class Barcode{
-code
}

class Employee{
-name
-address
-phoneNumber
-email
-employeeId
-organizationRole
-socCode
}





Sample "1..*"- -"1" Test : associated >
Sample "1"- -"1" Barcode : identified by >
Sample "*"- -"1" Employee : registered by >
Client "1"- -"1..*" Sample : provides >
Barcode "*"- -"1" ExternalApi : generated by >

@enduml

PlantUML version 1.2021.5(Sun Apr 25 12:20:28 BST 2021)
(GPL source distribution)
Java Runtime: OpenJDK Runtime Environment
JVM: Dynamic Code Evolution 64-Bit Server VM
Default Encoding: Cp1252
Language: pt
Country: PT
--></g></svg>