<?xml version="1.0" encoding="UTF-8" standalone="no"?><svg xmlns="http://www.w3.org/2000/svg" xmlns:xlink="http://www.w3.org/1999/xlink" contentScriptType="application/ecmascript" contentStyleType="text/css" height="582px" preserveAspectRatio="none" style="width:1227px;height:582px;" version="1.1" viewBox="0 0 1227 582" width="1227px" zoomAndPan="magnify"><defs><filter height="300%" id="fygerdb8jmdao" width="300%" x="-1" y="-1"><feGaussianBlur result="blurOut" stdDeviation="3.0"/><feColorMatrix in="blurOut" result="blurOut2" type="matrix" values="0 0 0 0 0 0 0 0 0 0 0 0 0 0 0 0 0 0 .4 0"/><feOffset dx="6.0" dy="6.0" in="blurOut2" result="blurOut3"/><feBlend in="SourceGraphic" in2="blurOut3" mode="normal"/></filter></defs><g><!--MD5=[ed6624c6556d5e7b1bd23032162d20b7]
class Client--><rect codeLine="4" fill="#FEFECE" filter="url(#fygerdb8jmdao)" height="238.0313" id="Client" style="stroke:#A80036;stroke-width:2.25;" width="160.5" x="10.5" y="125.25"/><ellipse cx="62.025" cy="149.25" fill="#ADD1B2" rx="16.5" ry="16.5" style="stroke:#A80036;stroke-width:1.5;"/><path d="M65.025,144 Q65.3297,143.25 65.6813,142.875 Q66.0328,142.5 66.4313,142.5 Q67.1344,142.5 67.5797,142.9219 Q68.025,143.3438 68.025,144.3281 L68.025,146.6719 Q68.025,147.6563 67.6031,148.0781 Q67.1813,148.5 66.525,148.5 Q65.9391,148.5 65.5641,148.2422 Q65.1891,147.9844 65.025,147.3047 Q64.9547,146.8359 64.6969,146.5781 Q64.2281,146.0859 63.3844,145.8047 Q62.5406,145.5 61.6969,145.5 Q60.6422,145.5 59.7516,145.9219 Q58.8844,146.3438 58.2047,147.2813 Q57.525,148.2188 57.525,149.5078 L57.525,150.8906 Q57.525,152.4375 58.7906,153.4688 Q60.0563,154.5 62.3063,154.5 Q63.6422,154.5 64.5797,154.1953 Q65.1188,154.0313 65.7281,153.4922 Q66.1266,153.1875 66.3375,153.0938 Q66.5484,153 66.8063,153 Q67.2984,153 67.65,153.3984 Q68.025,153.7734 68.025,154.3125 Q68.025,154.8281 67.5094,155.4375 Q66.7594,156.3281 65.5641,156.8203 Q63.9938,157.5 62.0719,157.5 Q59.8219,157.5 58.0172,156.6094 Q56.5641,155.9063 55.5328,154.3828 Q54.525,152.8594 54.525,151.0547 L54.525,149.4141 Q54.525,147.5391 55.4156,145.8984 Q56.3297,144.2578 57.9,143.3906 Q59.4938,142.5 61.275,142.5 Q62.3531,142.5 63.2906,142.875 Q64.2281,143.25 65.025,144 Z " fill="#000000"/><text fill="#000000" font-family="sans-serif" font-size="18" lengthAdjust="spacing" textLength="48" x="89.475" y="156.6152">Client</text><line style="stroke:#A80036;stroke-width:2.25;" x1="12" x2="169.5" y1="173.25" y2="173.25"/><text fill="#000000" font-family="sans-serif" font-size="16.5" lengthAdjust="spacing" textLength="45" x="19.5" y="196.3784">-name</text><text fill="#000000" font-family="sans-serif" font-size="16.5" lengthAdjust="spacing" textLength="42" x="19.5" y="217.1323">-email</text><text fill="#000000" font-family="sans-serif" font-size="16.5" lengthAdjust="spacing" textLength="106.5" x="19.5" y="237.8862">-phoneNumber</text><text fill="#000000" font-family="sans-serif" font-size="16.5" lengthAdjust="spacing" textLength="33" x="19.5" y="258.6401">-sex</text><text fill="#000000" font-family="sans-serif" font-size="16.5" lengthAdjust="spacing" textLength="22.5" x="19.5" y="279.394">-tin</text><text fill="#000000" font-family="sans-serif" font-size="16.5" lengthAdjust="spacing" textLength="70.5" x="19.5" y="300.1479">-birthDate</text><text fill="#000000" font-family="sans-serif" font-size="16.5" lengthAdjust="spacing" textLength="88.5" x="19.5" y="320.9019">-nhsNumber</text><text fill="#000000" font-family="sans-serif" font-size="16.5" lengthAdjust="spacing" textLength="142.5" x="19.5" y="341.6558">-citizenCardNumber</text><line style="stroke:#A80036;stroke-width:2.25;" x1="12" x2="169.5" y1="351.2813" y2="351.2813"/><!--MD5=[9681492165142af2a4a3a169d90ee8d4]
class Sample--><rect codeLine="15" fill="#FEFECE" filter="url(#fygerdb8jmdao)" height="92.7539" id="Sample" style="stroke:#A80036;stroke-width:2.25;" width="118.5" x="354" y="198"/><ellipse cx="379.2" cy="222" fill="#ADD1B2" rx="16.5" ry="16.5" style="stroke:#A80036;stroke-width:1.5;"/><path d="M382.2,216.75 Q382.5047,216 382.8563,215.625 Q383.2078,215.25 383.6063,215.25 Q384.3094,215.25 384.7547,215.6719 Q385.2,216.0938 385.2,217.0781 L385.2,219.4219 Q385.2,220.4063 384.7781,220.8281 Q384.3563,221.25 383.7,221.25 Q383.1141,221.25 382.7391,220.9922 Q382.3641,220.7344 382.2,220.0547 Q382.1297,219.5859 381.8719,219.3281 Q381.4031,218.8359 380.5594,218.5547 Q379.7156,218.25 378.8719,218.25 Q377.8172,218.25 376.9266,218.6719 Q376.0594,219.0938 375.3797,220.0313 Q374.7,220.9688 374.7,222.2578 L374.7,223.6406 Q374.7,225.1875 375.9656,226.2188 Q377.2313,227.25 379.4813,227.25 Q380.8172,227.25 381.7547,226.9453 Q382.2938,226.7813 382.9031,226.2422 Q383.3016,225.9375 383.5125,225.8438 Q383.7234,225.75 383.9813,225.75 Q384.4734,225.75 384.825,226.1484 Q385.2,226.5234 385.2,227.0625 Q385.2,227.5781 384.6844,228.1875 Q383.9344,229.0781 382.7391,229.5703 Q381.1688,230.25 379.2469,230.25 Q376.9969,230.25 375.1922,229.3594 Q373.7391,228.6563 372.7078,227.1328 Q371.7,225.6094 371.7,223.8047 L371.7,222.1641 Q371.7,220.2891 372.5906,218.6484 Q373.5047,217.0078 375.075,216.1406 Q376.6688,215.25 378.45,215.25 Q379.5281,215.25 380.4656,215.625 Q381.4031,216 382.2,216.75 Z " fill="#000000"/><text fill="#000000" font-family="sans-serif" font-size="18" lengthAdjust="spacing" textLength="64.5" x="400.8" y="229.3652">Sample</text><line style="stroke:#A80036;stroke-width:2.25;" x1="355.5" x2="471" y1="246" y2="246"/><text fill="#000000" font-family="sans-serif" font-size="16.5" lengthAdjust="spacing" textLength="100.5" x="363" y="269.1284">-dateAndTime</text><line style="stroke:#A80036;stroke-width:2.25;" x1="355.5" x2="471" y1="278.7539" y2="278.7539"/><!--MD5=[df38be88ccee13e832d6fafd6288a4ca]
class Test--><rect codeLine="19" fill="#FEFECE" filter="url(#fygerdb8jmdao)" height="134.2617" id="Test" style="stroke:#A80036;stroke-width:2.25;" width="114" x="712.5" y="10.5"/><ellipse cx="748.5" cy="34.5" fill="#ADD1B2" rx="16.5" ry="16.5" style="stroke:#A80036;stroke-width:1.5;"/><path d="M751.5,29.25 Q751.8047,28.5 752.1563,28.125 Q752.5078,27.75 752.9063,27.75 Q753.6094,27.75 754.0547,28.1719 Q754.5,28.5938 754.5,29.5781 L754.5,31.9219 Q754.5,32.9063 754.0781,33.3281 Q753.6563,33.75 753,33.75 Q752.4141,33.75 752.0391,33.4922 Q751.6641,33.2344 751.5,32.5547 Q751.4297,32.0859 751.1719,31.8281 Q750.7031,31.3359 749.8594,31.0547 Q749.0156,30.75 748.1719,30.75 Q747.1172,30.75 746.2266,31.1719 Q745.3594,31.5938 744.6797,32.5313 Q744,33.4688 744,34.7578 L744,36.1406 Q744,37.6875 745.2656,38.7188 Q746.5313,39.75 748.7813,39.75 Q750.1172,39.75 751.0547,39.4453 Q751.5938,39.2813 752.2031,38.7422 Q752.6016,38.4375 752.8125,38.3438 Q753.0234,38.25 753.2813,38.25 Q753.7734,38.25 754.125,38.6484 Q754.5,39.0234 754.5,39.5625 Q754.5,40.0781 753.9844,40.6875 Q753.2344,41.5781 752.0391,42.0703 Q750.4688,42.75 748.5469,42.75 Q746.2969,42.75 744.4922,41.8594 Q743.0391,41.1563 742.0078,39.6328 Q741,38.1094 741,36.3047 L741,34.6641 Q741,32.7891 741.8906,31.1484 Q742.8047,29.5078 744.375,28.6406 Q745.9688,27.75 747.75,27.75 Q748.8281,27.75 749.7656,28.125 Q750.7031,28.5 751.5,29.25 Z " fill="#000000"/><text fill="#000000" font-family="sans-serif" font-size="18" lengthAdjust="spacing" textLength="36" x="772.5" y="41.8652">Test</text><line style="stroke:#A80036;stroke-width:2.25;" x1="714" x2="825" y1="58.5" y2="58.5"/><text fill="#000000" font-family="sans-serif" font-size="16.5" lengthAdjust="spacing" textLength="96" x="721.5" y="81.6284">-internalCode</text><text fill="#000000" font-family="sans-serif" font-size="16.5" lengthAdjust="spacing" textLength="70.5" x="721.5" y="102.3823">-nhsCode</text><text fill="#000000" font-family="sans-serif" font-size="16.5" lengthAdjust="spacing" textLength="85.5" x="721.5" y="123.1362">-description</text><line style="stroke:#A80036;stroke-width:2.25;" x1="714" x2="825" y1="132.7617" y2="132.7617"/><!--MD5=[e59bda2572a266093cda22ac34510ea0]
class Barcode--><rect codeLine="25" fill="#FEFECE" filter="url(#fygerdb8jmdao)" height="92.7539" id="Barcode" style="stroke:#A80036;stroke-width:2.25;" width="117" x="711" y="198"/><ellipse cx="733.5" cy="222" fill="#ADD1B2" rx="16.5" ry="16.5" style="stroke:#A80036;stroke-width:1.5;"/><path d="M736.5,216.75 Q736.8047,216 737.1563,215.625 Q737.5078,215.25 737.9063,215.25 Q738.6094,215.25 739.0547,215.6719 Q739.5,216.0938 739.5,217.0781 L739.5,219.4219 Q739.5,220.4063 739.0781,220.8281 Q738.6563,221.25 738,221.25 Q737.4141,221.25 737.0391,220.9922 Q736.6641,220.7344 736.5,220.0547 Q736.4297,219.5859 736.1719,219.3281 Q735.7031,218.8359 734.8594,218.5547 Q734.0156,218.25 733.1719,218.25 Q732.1172,218.25 731.2266,218.6719 Q730.3594,219.0938 729.6797,220.0313 Q729,220.9688 729,222.2578 L729,223.6406 Q729,225.1875 730.2656,226.2188 Q731.5313,227.25 733.7813,227.25 Q735.1172,227.25 736.0547,226.9453 Q736.5938,226.7813 737.2031,226.2422 Q737.6016,225.9375 737.8125,225.8438 Q738.0234,225.75 738.2813,225.75 Q738.7734,225.75 739.125,226.1484 Q739.5,226.5234 739.5,227.0625 Q739.5,227.5781 738.9844,228.1875 Q738.2344,229.0781 737.0391,229.5703 Q735.4688,230.25 733.5469,230.25 Q731.2969,230.25 729.4922,229.3594 Q728.0391,228.6563 727.0078,227.1328 Q726,225.6094 726,223.8047 L726,222.1641 Q726,220.2891 726.8906,218.6484 Q727.8047,217.0078 729.375,216.1406 Q730.9688,215.25 732.75,215.25 Q733.8281,215.25 734.7656,215.625 Q735.7031,216 736.5,216.75 Z " fill="#000000"/><text fill="#000000" font-family="sans-serif" font-size="18" lengthAdjust="spacing" textLength="69" x="754.5" y="229.3652">Barcode</text><line style="stroke:#A80036;stroke-width:2.25;" x1="712.5" x2="826.5" y1="246" y2="246"/><text fill="#000000" font-family="sans-serif" font-size="16.5" lengthAdjust="spacing" textLength="42" x="720" y="269.1284">-code</text><line style="stroke:#A80036;stroke-width:2.25;" x1="712.5" x2="826.5" y1="278.7539" y2="278.7539"/><!--MD5=[7421f545a0d8420c5bec41e74b387d9c]
class Employee--><rect codeLine="29" fill="#FEFECE" filter="url(#fygerdb8jmdao)" height="217.2773" id="Employee" style="stroke:#A80036;stroke-width:2.25;" width="144" x="697.5" y="344.25"/><ellipse cx="726.075" cy="368.25" fill="#ADD1B2" rx="16.5" ry="16.5" style="stroke:#A80036;stroke-width:1.5;"/><path d="M729.075,363 Q729.3797,362.25 729.7313,361.875 Q730.0828,361.5 730.4813,361.5 Q731.1844,361.5 731.6297,361.9219 Q732.075,362.3438 732.075,363.3281 L732.075,365.6719 Q732.075,366.6563 731.6531,367.0781 Q731.2313,367.5 730.575,367.5 Q729.9891,367.5 729.6141,367.2422 Q729.2391,366.9844 729.075,366.3047 Q729.0047,365.8359 728.7469,365.5781 Q728.2781,365.0859 727.4344,364.8047 Q726.5906,364.5 725.7469,364.5 Q724.6922,364.5 723.8016,364.9219 Q722.9344,365.3438 722.2547,366.2813 Q721.575,367.2188 721.575,368.5078 L721.575,369.8906 Q721.575,371.4375 722.8406,372.4688 Q724.1063,373.5 726.3563,373.5 Q727.6922,373.5 728.6297,373.1953 Q729.1688,373.0313 729.7781,372.4922 Q730.1766,372.1875 730.3875,372.0938 Q730.5984,372 730.8563,372 Q731.3484,372 731.7,372.3984 Q732.075,372.7734 732.075,373.3125 Q732.075,373.8281 731.5594,374.4375 Q730.8094,375.3281 729.6141,375.8203 Q728.0438,376.5 726.1219,376.5 Q723.8719,376.5 722.0672,375.6094 Q720.6141,374.9063 719.5828,373.3828 Q718.575,371.8594 718.575,370.0547 L718.575,368.4141 Q718.575,366.5391 719.4656,364.8984 Q720.3797,363.2578 721.95,362.3906 Q723.5438,361.5 725.325,361.5 Q726.4031,361.5 727.3406,361.875 Q728.2781,362.25 729.075,363 Z " fill="#000000"/><text fill="#000000" font-family="sans-serif" font-size="18" lengthAdjust="spacing" textLength="82.5" x="748.425" y="375.6152">Employee</text><line style="stroke:#A80036;stroke-width:2.25;" x1="699" x2="840" y1="392.25" y2="392.25"/><text fill="#000000" font-family="sans-serif" font-size="16.5" lengthAdjust="spacing" textLength="45" x="706.5" y="415.3784">-name</text><text fill="#000000" font-family="sans-serif" font-size="16.5" lengthAdjust="spacing" textLength="66" x="706.5" y="436.1323">-address</text><text fill="#000000" font-family="sans-serif" font-size="16.5" lengthAdjust="spacing" textLength="106.5" x="706.5" y="456.8862">-phoneNumber</text><text fill="#000000" font-family="sans-serif" font-size="16.5" lengthAdjust="spacing" textLength="42" x="706.5" y="477.6401">-email</text><text fill="#000000" font-family="sans-serif" font-size="16.5" lengthAdjust="spacing" textLength="87" x="706.5" y="498.394">-employeeId</text><text fill="#000000" font-family="sans-serif" font-size="16.5" lengthAdjust="spacing" textLength="126" x="706.5" y="519.1479">-organizationRole</text><text fill="#000000" font-family="sans-serif" font-size="16.5" lengthAdjust="spacing" textLength="70.5" x="706.5" y="539.9019">-socCode</text><line style="stroke:#A80036;stroke-width:2.25;" x1="699" x2="840" y1="549.5273" y2="549.5273"/><!--MD5=[e77fb403852d7bfa027acc725a23446c]
class ExternalApi--><rect fill="#FEFECE" filter="url(#fygerdb8jmdao)" height="72" id="ExternalApi" style="stroke:#A80036;stroke-width:2.25;" width="139.5" x="1066.5" y="208.5"/><ellipse cx="1089" cy="232.5" fill="#ADD1B2" rx="16.5" ry="16.5" style="stroke:#A80036;stroke-width:1.5;"/><path d="M1092,227.25 Q1092.3047,226.5 1092.6563,226.125 Q1093.0078,225.75 1093.4063,225.75 Q1094.1094,225.75 1094.5547,226.1719 Q1095,226.5938 1095,227.5781 L1095,229.9219 Q1095,230.9063 1094.5781,231.3281 Q1094.1563,231.75 1093.5,231.75 Q1092.9141,231.75 1092.5391,231.4922 Q1092.1641,231.2344 1092,230.5547 Q1091.9297,230.0859 1091.6719,229.8281 Q1091.2031,229.3359 1090.3594,229.0547 Q1089.5156,228.75 1088.6719,228.75 Q1087.6172,228.75 1086.7266,229.1719 Q1085.8594,229.5938 1085.1797,230.5313 Q1084.5,231.4688 1084.5,232.7578 L1084.5,234.1406 Q1084.5,235.6875 1085.7656,236.7188 Q1087.0313,237.75 1089.2813,237.75 Q1090.6172,237.75 1091.5547,237.4453 Q1092.0938,237.2813 1092.7031,236.7422 Q1093.1016,236.4375 1093.3125,236.3438 Q1093.5234,236.25 1093.7813,236.25 Q1094.2734,236.25 1094.625,236.6484 Q1095,237.0234 1095,237.5625 Q1095,238.0781 1094.4844,238.6875 Q1093.7344,239.5781 1092.5391,240.0703 Q1090.9688,240.75 1089.0469,240.75 Q1086.7969,240.75 1084.9922,239.8594 Q1083.5391,239.1563 1082.5078,237.6328 Q1081.5,236.1094 1081.5,234.3047 L1081.5,232.6641 Q1081.5,230.7891 1082.3906,229.1484 Q1083.3047,227.5078 1084.875,226.6406 Q1086.4688,225.75 1088.25,225.75 Q1089.3281,225.75 1090.2656,226.125 Q1091.2031,226.5 1092,227.25 Z " fill="#000000"/><text fill="#000000" font-family="sans-serif" font-size="18" lengthAdjust="spacing" textLength="91.5" x="1110" y="239.8652">ExternalApi</text><line style="stroke:#A80036;stroke-width:2.25;" x1="1068" x2="1204.5" y1="256.5" y2="256.5"/><line style="stroke:#A80036;stroke-width:2.25;" x1="1068" x2="1204.5" y1="268.5" y2="268.5"/><!--MD5=[1ae83efc6d1967ce5bc17dfe294d00c2]
link Sample to Test--><path codeLine="43" d="M472.68,217.185 C539.04,185.91 646.995,135.03 712.365,104.22 " fill="none" id="Sample-Test" style="stroke:#A80036;stroke-width:1.5;"/><polygon fill="#000000" points="540.7843,121.5662,526.632,123.3628,530.3908,131.3382,540.7843,121.5662" style="stroke:#000000;stroke-width:1.5;"/><text fill="#000000" font-family="sans-serif" font-size="19.5" lengthAdjust="spacing" textLength="94.5" x="547.5" y="132.7427">associated</text><text fill="#000000" font-family="sans-serif" font-size="19.5" lengthAdjust="spacing" textLength="30" x="484.5423" y="235.0485">1..*</text><text fill="#000000" font-family="sans-serif" font-size="19.5" lengthAdjust="spacing" textLength="10.5" x="689.9729" y="131.869">1</text><!--MD5=[327391d6abe62f0446af3ffbf41cf7ec]
link Sample to Barcode--><path codeLine="44" d="M472.68,244.5 C538.455,244.5 645.075,244.5 710.625,244.5 " fill="none" id="Sample-Barcode" style="stroke:#A80036;stroke-width:1.5;"/><polygon fill="#000000" points="537,231.2637,523.4324,226.8553,523.4324,235.6721,537,231.2637" style="stroke:#000000;stroke-width:1.5;"/><text fill="#000000" font-family="sans-serif" font-size="19.5" lengthAdjust="spacing" textLength="103.5" x="543" y="239.2427">identified by</text><text fill="#000000" font-family="sans-serif" font-size="19.5" lengthAdjust="spacing" textLength="10.5" x="484.6054" y="267.0265">1</text><text fill="#000000" font-family="sans-serif" font-size="19.5" lengthAdjust="spacing" textLength="10.5" x="688.302" y="267.0265">1</text><!--MD5=[c550c0fb93424651c0337773082e9cc5]
link Sample to Employee--><path codeLine="45" d="M472.68,278.7 C534.15,314.97 631.29,372.315 697.245,411.24 " fill="none" id="Sample-Employee" style="stroke:#A80036;stroke-width:1.5;"/><polygon fill="#000000" points="531.4589,296.5758,522.0153,285.8831,517.5339,293.4761,531.4589,296.5758" style="stroke:#000000;stroke-width:1.5;"/><text fill="#000000" font-family="sans-serif" font-size="19.5" lengthAdjust="spacing" textLength="112.5" x="538.5" y="300.7427">registered by</text><text fill="#000000" font-family="sans-serif" font-size="19.5" lengthAdjust="spacing" textLength="7.5" x="484.3288" y="307.5321">*</text><text fill="#000000" font-family="sans-serif" font-size="19.5" lengthAdjust="spacing" textLength="10.5" x="674.877" y="426.9831">1</text><!--MD5=[a1757db4d0ea5a43511b1008de7427d7]
link Client to Sample--><path codeLine="46" d="M171.225,244.5 C227.775,244.5 302.64,244.5 353.73,244.5 " fill="none" id="Client-Sample" style="stroke:#A80036;stroke-width:1.5;"/><polygon fill="#000000" points="231,231.2637,217.4324,226.8553,217.4324,235.6721,231,231.2637" style="stroke:#000000;stroke-width:1.5;"/><text fill="#000000" font-family="sans-serif" font-size="19.5" lengthAdjust="spacing" textLength="70.5" x="237" y="239.2427">provides</text><text fill="#000000" font-family="sans-serif" font-size="19.5" lengthAdjust="spacing" textLength="10.5" x="182.7443" y="266.4221">1</text><text fill="#000000" font-family="sans-serif" font-size="19.5" lengthAdjust="spacing" textLength="30" x="311.8534" y="266.7168">1..*</text><!--MD5=[067a849d4635bb787732bfc6f8c631d4]
link Barcode to ExternalApi--><path codeLine="47" d="M828.24,244.5 C892.665,244.5 997.29,244.5 1066.065,244.5 " fill="none" id="Barcode-ExternalApi" style="stroke:#A80036;stroke-width:1.5;"/><polygon fill="#000000" points="901.5,231.2637,887.9324,226.8553,887.9324,235.6721,901.5,231.2637" style="stroke:#000000;stroke-width:1.5;"/><text fill="#000000" font-family="sans-serif" font-size="19.5" lengthAdjust="spacing" textLength="112.5" x="907.5" y="239.2427">generated by</text><text fill="#000000" font-family="sans-serif" font-size="19.5" lengthAdjust="spacing" textLength="7.5" x="840.1522" y="267.1039">*</text><text fill="#000000" font-family="sans-serif" font-size="19.5" lengthAdjust="spacing" textLength="10.5" x="1044.014" y="266.6206">1</text><!--MD5=[9783f4b6015a5cd2fcaee1015c4aa086]
@startuml
'https://plantuml.com/class-diagram
skinparam classAttributeIconSize 0
left to right direction
class Client{
 - name
 - email
 - phoneNumber
 - sex
 - tin
 - birthDate
 - nhsNumber
 - citizenCardNumber
}

class Sample{
-dateAndTime
}

class Test{
-internalCode
-nhsCode
-description
}

class Barcode{
-code
}

class Employee{
-name
-address
-phoneNumber
-email
-employeeId
-organizationRole
-socCode
}





Sample "1..*"- -"1" Test : associated >
Sample "1"- -"1" Barcode : identified by >
Sample "*"- -"1" Employee : registered by >
Client "1"- -"1..*" Sample : provides >
Barcode "*"- -"1" ExternalApi : generated by >

@enduml

@startuml
skinparam classAttributeIconSize 0
left to right direction
class Client{
 - name
 - email
 - phoneNumber
 - sex
 - tin
 - birthDate
 - nhsNumber
 - citizenCardNumber
}

class Sample{
-dateAndTime
}

class Test{
-internalCode
-nhsCode
-description
}

class Barcode{
-code
}

class Employee{
-name
-address
-phoneNumber
-email
-employeeId
-organizationRole
-socCode
}





Sample "1..*"- -"1" Test : associated >
Sample "1"- -"1" Barcode : identified by >
Sample "*"- -"1" Employee : registered by >
Client "1"- -"1..*" Sample : provides >
Barcode "*"- -"1" ExternalApi : generated by >

@enduml

PlantUML version 1.2021.5(Sun Apr 25 12:20:28 BST 2021)
(GPL source distribution)
Java Runtime: OpenJDK Runtime Environment
JVM: Dynamic Code Evolution 64-Bit Server VM
Default Encoding: Cp1252
Language: pt
Country: PT
--></g></svg>