<?xml version="1.0" encoding="UTF-8" standalone="no"?><svg xmlns="http://www.w3.org/2000/svg" xmlns:xlink="http://www.w3.org/1999/xlink" contentScriptType="application/ecmascript" contentStyleType="text/css" height="388.5px" preserveAspectRatio="none" style="width:2158px;height:388px;" version="1.1" viewBox="0 0 2158 388" width="2158.5px" zoomAndPan="magnify"><defs><filter height="300%" id="f1lx7yxymrce5v" width="300%" x="-1" y="-1"><feGaussianBlur result="blurOut" stdDeviation="3.0"/><feColorMatrix in="blurOut" result="blurOut2" type="matrix" values="0 0 0 0 0 0 0 0 0 0 0 0 0 0 0 0 0 0 .4 0"/><feOffset dx="6.0" dy="6.0" in="blurOut2" result="blurOut3"/><feBlend in="SourceGraphic" in2="blurOut3" mode="normal"/></filter></defs><g><!--MD5=[64e2e010ba86d7988e5cd73bd64f61f9]
cluster ui--><polygon fill="#FFFFFF" filter="url(#f1lx7yxymrce5v)" points="213,141,241.5,141,252,176.4141,453,176.4141,453,291,213,291,213,141" style="stroke:#000000;stroke-width:2.25;"/><line style="stroke:#000000;stroke-width:2.25;" x1="213" x2="252" y1="176.4141" y2="176.4141"/><text fill="#000000" font-family="sans-serif" font-size="21" font-weight="bold" lengthAdjust="spacing" textLength="19.5" x="219" y="165.7998">ui</text><!--MD5=[10ea673caf457862023e152271927b45]
cluster controller--><polygon fill="#FFFFFF" filter="url(#f1lx7yxymrce5v)" points="489,141,601.5,141,612,176.4141,792,176.4141,792,291,489,291,489,141" style="stroke:#000000;stroke-width:2.25;"/><line style="stroke:#000000;stroke-width:2.25;" x1="489" x2="612" y1="176.4141" y2="176.4141"/><text fill="#000000" font-family="sans-serif" font-size="21" font-weight="bold" lengthAdjust="spacing" textLength="103.5" x="495" y="165.7998">controller</text><!--MD5=[27f772719433d509ddbc20ff768eba08]
cluster domain--><polygon fill="#FFFFFF" filter="url(#f1lx7yxymrce5v)" points="828,9,913.5,9,924,44.4141,2133,44.4141,2133,378.75,828,378.75,828,9" style="stroke:#000000;stroke-width:2.25;"/><line style="stroke:#000000;stroke-width:2.25;" x1="828" x2="924" y1="44.4141" y2="44.4141"/><text fill="#000000" font-family="sans-serif" font-size="21" font-weight="bold" lengthAdjust="spacing" textLength="76.5" x="834" y="33.7998">domain</text><!--MD5=[5d4cd377749310b66bf14896f5cd8d9b]
cluster model--><polygon fill="#FFFFFF" filter="url(#f1lx7yxymrce5v)" points="1726.5,89.25,1800,89.25,1810.5,124.6641,2097,124.6641,2097,342.75,1726.5,342.75,1726.5,89.25" style="stroke:#000000;stroke-width:2.25;"/><line style="stroke:#000000;stroke-width:2.25;" x1="1726.5" x2="1810.5" y1="124.6641" y2="124.6641"/><text fill="#000000" font-family="sans-serif" font-size="21" font-weight="bold" lengthAdjust="spacing" textLength="64.5" x="1732.5" y="114.0498">model</text><!--MD5=[c23849cc5f4a85746a20de4317c530fc]
cluster store--><polygon fill="#FFFFFF" filter="url(#f1lx7yxymrce5v)" points="1305,141,1369.5,141,1380,176.4141,1690.5,176.4141,1690.5,291,1305,291,1305,141" style="stroke:#000000;stroke-width:2.25;"/><line style="stroke:#000000;stroke-width:2.25;" x1="1305" x2="1380" y1="176.4141" y2="176.4141"/><text fill="#000000" font-family="sans-serif" font-size="21" font-weight="bold" lengthAdjust="spacing" textLength="55.5" x="1311" y="165.7998">store</text><!--MD5=[e484dff12bc7e3f9ae9e3c87a060152b]
cluster mappers--><polygon fill="#FFFFFF" filter="url(#f1lx7yxymrce5v)" points="864,75,964.5,75,975,110.4141,1269,110.4141,1269,327,864,327,864,75" style="stroke:#000000;stroke-width:2.25;"/><line style="stroke:#000000;stroke-width:2.25;" x1="864" x2="975" y1="110.4141" y2="110.4141"/><text fill="#000000" font-family="sans-serif" font-size="21" font-weight="bold" lengthAdjust="spacing" textLength="91.5" x="870" y="99.7998">mappers</text><!--MD5=[e6eced616a98d47334dd1aaaa829ffd5]
cluster dto--><polygon fill="#FFFFFF" filter="url(#f1lx7yxymrce5v)" points="1062,141,1105.5,141,1116,176.4141,1233,176.4141,1233,291,1062,291,1062,141" style="stroke:#000000;stroke-width:2.25;"/><line style="stroke:#000000;stroke-width:2.25;" x1="1062" x2="1116" y1="176.4141" y2="176.4141"/><text fill="#000000" font-family="sans-serif" font-size="21" font-weight="bold" lengthAdjust="spacing" textLength="34.5" x="1068" y="165.7998">dto</text><!--MD5=[05ffea613565d111e9c4a041147710d4]
class RecordSampleUI--><rect codeLine="5" fill="#FEFECE" filter="url(#f1lx7yxymrce5v)" height="72" id="RecordSampleUI" style="stroke:#A80036;stroke-width:2.25;" width="190.5" x="237.75" y="195"/><ellipse cx="260.25" cy="219" fill="#ADD1B2" rx="16.5" ry="16.5" style="stroke:#A80036;stroke-width:1.5;"/><path d="M263.25,213.75 Q263.5547,213 263.9063,212.625 Q264.2578,212.25 264.6563,212.25 Q265.3594,212.25 265.8047,212.6719 Q266.25,213.0938 266.25,214.0781 L266.25,216.4219 Q266.25,217.4063 265.8281,217.8281 Q265.4063,218.25 264.75,218.25 Q264.1641,218.25 263.7891,217.9922 Q263.4141,217.7344 263.25,217.0547 Q263.1797,216.5859 262.9219,216.3281 Q262.4531,215.8359 261.6094,215.5547 Q260.7656,215.25 259.9219,215.25 Q258.8672,215.25 257.9766,215.6719 Q257.1094,216.0938 256.4297,217.0313 Q255.75,217.9688 255.75,219.2578 L255.75,220.6406 Q255.75,222.1875 257.0156,223.2188 Q258.2813,224.25 260.5313,224.25 Q261.8672,224.25 262.8047,223.9453 Q263.3438,223.7813 263.9531,223.2422 Q264.3516,222.9375 264.5625,222.8438 Q264.7734,222.75 265.0313,222.75 Q265.5234,222.75 265.875,223.1484 Q266.25,223.5234 266.25,224.0625 Q266.25,224.5781 265.7344,225.1875 Q264.9844,226.0781 263.7891,226.5703 Q262.2188,227.25 260.2969,227.25 Q258.0469,227.25 256.2422,226.3594 Q254.7891,225.6563 253.7578,224.1328 Q252.75,222.6094 252.75,220.8047 L252.75,219.1641 Q252.75,217.2891 253.6406,215.6484 Q254.5547,214.0078 256.125,213.1406 Q257.7188,212.25 259.5,212.25 Q260.5781,212.25 261.5156,212.625 Q262.4531,213 263.25,213.75 Z " fill="#000000"/><text fill="#000000" font-family="sans-serif" font-size="18" lengthAdjust="spacing" textLength="142.5" x="281.25" y="226.3652">RecordSampleUI</text><line style="stroke:#A80036;stroke-width:2.25;" x1="239.25" x2="426.75" y1="243" y2="243"/><line style="stroke:#A80036;stroke-width:2.25;" x1="239.25" x2="426.75" y1="255" y2="255"/><!--MD5=[ecb4b8913618184ce1e3f8e48e5e993f]
class RecordSampleController--><rect codeLine="8" fill="#FEFECE" filter="url(#f1lx7yxymrce5v)" height="72" id="RecordSampleController" style="stroke:#A80036;stroke-width:2.25;" width="253.5" x="513.75" y="195"/><ellipse cx="536.25" cy="219" fill="#ADD1B2" rx="16.5" ry="16.5" style="stroke:#A80036;stroke-width:1.5;"/><path d="M539.25,213.75 Q539.5547,213 539.9063,212.625 Q540.2578,212.25 540.6563,212.25 Q541.3594,212.25 541.8047,212.6719 Q542.25,213.0938 542.25,214.0781 L542.25,216.4219 Q542.25,217.4063 541.8281,217.8281 Q541.4063,218.25 540.75,218.25 Q540.1641,218.25 539.7891,217.9922 Q539.4141,217.7344 539.25,217.0547 Q539.1797,216.5859 538.9219,216.3281 Q538.4531,215.8359 537.6094,215.5547 Q536.7656,215.25 535.9219,215.25 Q534.8672,215.25 533.9766,215.6719 Q533.1094,216.0938 532.4297,217.0313 Q531.75,217.9688 531.75,219.2578 L531.75,220.6406 Q531.75,222.1875 533.0156,223.2188 Q534.2813,224.25 536.5313,224.25 Q537.8672,224.25 538.8047,223.9453 Q539.3438,223.7813 539.9531,223.2422 Q540.3516,222.9375 540.5625,222.8438 Q540.7734,222.75 541.0313,222.75 Q541.5234,222.75 541.875,223.1484 Q542.25,223.5234 542.25,224.0625 Q542.25,224.5781 541.7344,225.1875 Q540.9844,226.0781 539.7891,226.5703 Q538.2188,227.25 536.2969,227.25 Q534.0469,227.25 532.2422,226.3594 Q530.7891,225.6563 529.7578,224.1328 Q528.75,222.6094 528.75,220.8047 L528.75,219.1641 Q528.75,217.2891 529.6406,215.6484 Q530.5547,214.0078 532.125,213.1406 Q533.7188,212.25 535.5,212.25 Q536.5781,212.25 537.5156,212.625 Q538.4531,213 539.25,213.75 Z " fill="#000000"/><text fill="#000000" font-family="sans-serif" font-size="18" lengthAdjust="spacing" textLength="205.5" x="557.25" y="226.3652">RecordSampleController</text><line style="stroke:#A80036;stroke-width:2.25;" x1="515.25" x2="765.75" y1="243" y2="243"/><line style="stroke:#A80036;stroke-width:2.25;" x1="515.25" x2="765.75" y1="255" y2="255"/><!--MD5=[02e4b9b7573f1156f41e60aa5b4e25a4]
class Company--><rect codeLine="38" fill="#FEFECE" filter="url(#f1lx7yxymrce5v)" height="175.7695" id="Company" style="stroke:#A80036;stroke-width:2.25;" width="165" x="1908" y="143.25"/><ellipse cx="1947.375" cy="167.25" fill="#ADD1B2" rx="16.5" ry="16.5" style="stroke:#A80036;stroke-width:1.5;"/><path d="M1950.375,162 Q1950.6797,161.25 1951.0313,160.875 Q1951.3828,160.5 1951.7813,160.5 Q1952.4844,160.5 1952.9297,160.9219 Q1953.375,161.3438 1953.375,162.3281 L1953.375,164.6719 Q1953.375,165.6563 1952.9531,166.0781 Q1952.5313,166.5 1951.875,166.5 Q1951.2891,166.5 1950.9141,166.2422 Q1950.5391,165.9844 1950.375,165.3047 Q1950.3047,164.8359 1950.0469,164.5781 Q1949.5781,164.0859 1948.7344,163.8047 Q1947.8906,163.5 1947.0469,163.5 Q1945.9922,163.5 1945.1016,163.9219 Q1944.2344,164.3438 1943.5547,165.2813 Q1942.875,166.2188 1942.875,167.5078 L1942.875,168.8906 Q1942.875,170.4375 1944.1406,171.4688 Q1945.4063,172.5 1947.6563,172.5 Q1948.9922,172.5 1949.9297,172.1953 Q1950.4688,172.0313 1951.0781,171.4922 Q1951.4766,171.1875 1951.6875,171.0938 Q1951.8984,171 1952.1563,171 Q1952.6484,171 1953,171.3984 Q1953.375,171.7734 1953.375,172.3125 Q1953.375,172.8281 1952.8594,173.4375 Q1952.1094,174.3281 1950.9141,174.8203 Q1949.3438,175.5 1947.4219,175.5 Q1945.1719,175.5 1943.3672,174.6094 Q1941.9141,173.9063 1940.8828,172.3828 Q1939.875,170.8594 1939.875,169.0547 L1939.875,167.4141 Q1939.875,165.5391 1940.7656,163.8984 Q1941.6797,162.2578 1943.25,161.3906 Q1944.8438,160.5 1946.625,160.5 Q1947.7031,160.5 1948.6406,160.875 Q1949.5781,161.25 1950.375,162 Z " fill="#000000"/><text fill="#000000" font-family="sans-serif" font-size="18" lengthAdjust="spacing" textLength="79.5" x="1972.125" y="174.6152">Company</text><line style="stroke:#A80036;stroke-width:2.25;" x1="1909.5" x2="2071.5" y1="191.25" y2="191.25"/><rect fill="none" height="9" style="stroke:#C82930;stroke-width:1.5;" width="9" x="1920" y="203.25"/><text fill="#000000" font-family="sans-serif" font-size="16.5" lengthAdjust="spacing" textLength="82.5" x="1938" y="214.3784">designation</text><rect fill="none" height="9" style="stroke:#C82930;stroke-width:1.5;" width="9" x="1920" y="224.0039"/><text fill="#000000" font-family="sans-serif" font-size="16.5" lengthAdjust="spacing" textLength="66" x="1938" y="235.1323">testStore</text><rect fill="none" height="9" style="stroke:#C82930;stroke-width:1.5;" width="9" x="1920" y="244.7578"/><text fill="#000000" font-family="sans-serif" font-size="16.5" lengthAdjust="spacing" textLength="90" x="1938" y="255.8862">sampleStore</text><line style="stroke:#A80036;stroke-width:2.25;" x1="1909.5" x2="2071.5" y1="265.5117" y2="265.5117"/><ellipse cx="1924.5" cy="282.0117" fill="#84BE84" rx="4.5" ry="4.5" style="stroke:#038048;stroke-width:1.5;"/><text fill="#000000" font-family="sans-serif" font-size="16.5" lengthAdjust="spacing" textLength="126" x="1938" y="288.6401">getSampleStore()</text><ellipse cx="1924.5" cy="302.7656" fill="#84BE84" rx="4.5" ry="4.5" style="stroke:#038048;stroke-width:1.5;"/><text fill="#000000" font-family="sans-serif" font-size="16.5" lengthAdjust="spacing" textLength="105" x="1938" y="309.394">getTestStore()</text><!--MD5=[df38be88ccee13e832d6fafd6288a4ca]
class Test--><rect codeLine="31" fill="#FEFECE" filter="url(#f1lx7yxymrce5v)" height="113.5078" id="Test" style="stroke:#A80036;stroke-width:2.25;" width="103.5" x="1751.25" y="174"/><ellipse cx="1782.525" cy="198" fill="#ADD1B2" rx="16.5" ry="16.5" style="stroke:#A80036;stroke-width:1.5;"/><path d="M1785.525,192.75 Q1785.8297,192 1786.1812,191.625 Q1786.5328,191.25 1786.9312,191.25 Q1787.6344,191.25 1788.0797,191.6719 Q1788.525,192.0938 1788.525,193.0781 L1788.525,195.4219 Q1788.525,196.4063 1788.1031,196.8281 Q1787.6812,197.25 1787.025,197.25 Q1786.4391,197.25 1786.0641,196.9922 Q1785.6891,196.7344 1785.525,196.0547 Q1785.4547,195.5859 1785.1969,195.3281 Q1784.7281,194.8359 1783.8844,194.5547 Q1783.0406,194.25 1782.1969,194.25 Q1781.1422,194.25 1780.2516,194.6719 Q1779.3844,195.0938 1778.7047,196.0313 Q1778.025,196.9688 1778.025,198.2578 L1778.025,199.6406 Q1778.025,201.1875 1779.2906,202.2188 Q1780.5562,203.25 1782.8062,203.25 Q1784.1422,203.25 1785.0797,202.9453 Q1785.6187,202.7813 1786.2281,202.2422 Q1786.6266,201.9375 1786.8375,201.8438 Q1787.0484,201.75 1787.3062,201.75 Q1787.7984,201.75 1788.15,202.1484 Q1788.525,202.5234 1788.525,203.0625 Q1788.525,203.5781 1788.0094,204.1875 Q1787.2594,205.0781 1786.0641,205.5703 Q1784.4937,206.25 1782.5719,206.25 Q1780.3219,206.25 1778.5172,205.3594 Q1777.0641,204.6563 1776.0328,203.1328 Q1775.025,201.6094 1775.025,199.8047 L1775.025,198.1641 Q1775.025,196.2891 1775.9156,194.6484 Q1776.8297,193.0078 1778.4,192.1406 Q1779.9937,191.25 1781.775,191.25 Q1782.8531,191.25 1783.7906,191.625 Q1784.7281,192 1785.525,192.75 Z " fill="#000000"/><text fill="#000000" font-family="sans-serif" font-size="18" lengthAdjust="spacing" textLength="36" x="1805.475" y="205.3652">Test</text><line style="stroke:#A80036;stroke-width:2.25;" x1="1752.75" x2="1853.25" y1="222" y2="222"/><rect fill="none" height="9" style="stroke:#C82930;stroke-width:1.5;" width="9" x="1763.25" y="234"/><text fill="#000000" font-family="sans-serif" font-size="16.5" lengthAdjust="spacing" textLength="64.5" x="1781.25" y="245.1284">nhsCode</text><rect fill="none" height="9" style="stroke:#C82930;stroke-width:1.5;" width="9" x="1763.25" y="254.7539"/><text fill="#000000" font-family="sans-serif" font-size="16.5" lengthAdjust="spacing" textLength="64.5" x="1781.25" y="265.8823">testCode</text><line style="stroke:#A80036;stroke-width:2.25;" x1="1752.75" x2="1853.25" y1="275.5078" y2="275.5078"/><!--MD5=[0f6f7964b844a64b0496af0dda7914bd]
class TestStore--><rect codeLine="17" fill="#FEFECE" filter="url(#f1lx7yxymrce5v)" height="72" id="TestStore" style="stroke:#A80036;stroke-width:2.25;" width="127.5" x="1538.25" y="195"/><ellipse cx="1560.75" cy="219" fill="#ADD1B2" rx="16.5" ry="16.5" style="stroke:#A80036;stroke-width:1.5;"/><path d="M1563.75,213.75 Q1564.0547,213 1564.4063,212.625 Q1564.7578,212.25 1565.1563,212.25 Q1565.8594,212.25 1566.3047,212.6719 Q1566.75,213.0938 1566.75,214.0781 L1566.75,216.4219 Q1566.75,217.4063 1566.3281,217.8281 Q1565.9063,218.25 1565.25,218.25 Q1564.6641,218.25 1564.2891,217.9922 Q1563.9141,217.7344 1563.75,217.0547 Q1563.6797,216.5859 1563.4219,216.3281 Q1562.9531,215.8359 1562.1094,215.5547 Q1561.2656,215.25 1560.4219,215.25 Q1559.3672,215.25 1558.4766,215.6719 Q1557.6094,216.0938 1556.9297,217.0313 Q1556.25,217.9688 1556.25,219.2578 L1556.25,220.6406 Q1556.25,222.1875 1557.5156,223.2188 Q1558.7813,224.25 1561.0313,224.25 Q1562.3672,224.25 1563.3047,223.9453 Q1563.8438,223.7813 1564.4531,223.2422 Q1564.8516,222.9375 1565.0625,222.8438 Q1565.2734,222.75 1565.5313,222.75 Q1566.0234,222.75 1566.375,223.1484 Q1566.75,223.5234 1566.75,224.0625 Q1566.75,224.5781 1566.2344,225.1875 Q1565.4844,226.0781 1564.2891,226.5703 Q1562.7188,227.25 1560.7969,227.25 Q1558.5469,227.25 1556.7422,226.3594 Q1555.2891,225.6563 1554.2578,224.1328 Q1553.25,222.6094 1553.25,220.8047 L1553.25,219.1641 Q1553.25,217.2891 1554.1406,215.6484 Q1555.0547,214.0078 1556.625,213.1406 Q1558.2188,212.25 1560,212.25 Q1561.0781,212.25 1562.0156,212.625 Q1562.9531,213 1563.75,213.75 Z " fill="#000000"/><text fill="#000000" font-family="sans-serif" font-size="18" lengthAdjust="spacing" textLength="79.5" x="1581.75" y="226.3652">TestStore</text><line style="stroke:#A80036;stroke-width:2.25;" x1="1539.75" x2="1664.25" y1="243" y2="243"/><line style="stroke:#A80036;stroke-width:2.25;" x1="1539.75" x2="1664.25" y1="255" y2="255"/><!--MD5=[fcd6df96e169c9fc6403c4dc9bdb4d83]
class SampleStore--><rect codeLine="18" fill="#FEFECE" filter="url(#f1lx7yxymrce5v)" height="72" id="SampleStore" style="stroke:#A80036;stroke-width:2.25;" width="156" x="1329" y="195"/><ellipse cx="1351.5" cy="219" fill="#ADD1B2" rx="16.5" ry="16.5" style="stroke:#A80036;stroke-width:1.5;"/><path d="M1354.5,213.75 Q1354.8047,213 1355.1563,212.625 Q1355.5078,212.25 1355.9063,212.25 Q1356.6094,212.25 1357.0547,212.6719 Q1357.5,213.0938 1357.5,214.0781 L1357.5,216.4219 Q1357.5,217.4063 1357.0781,217.8281 Q1356.6563,218.25 1356,218.25 Q1355.4141,218.25 1355.0391,217.9922 Q1354.6641,217.7344 1354.5,217.0547 Q1354.4297,216.5859 1354.1719,216.3281 Q1353.7031,215.8359 1352.8594,215.5547 Q1352.0156,215.25 1351.1719,215.25 Q1350.1172,215.25 1349.2266,215.6719 Q1348.3594,216.0938 1347.6797,217.0313 Q1347,217.9688 1347,219.2578 L1347,220.6406 Q1347,222.1875 1348.2656,223.2188 Q1349.5313,224.25 1351.7813,224.25 Q1353.1172,224.25 1354.0547,223.9453 Q1354.5938,223.7813 1355.2031,223.2422 Q1355.6016,222.9375 1355.8125,222.8438 Q1356.0234,222.75 1356.2813,222.75 Q1356.7734,222.75 1357.125,223.1484 Q1357.5,223.5234 1357.5,224.0625 Q1357.5,224.5781 1356.9844,225.1875 Q1356.2344,226.0781 1355.0391,226.5703 Q1353.4688,227.25 1351.5469,227.25 Q1349.2969,227.25 1347.4922,226.3594 Q1346.0391,225.6563 1345.0078,224.1328 Q1344,222.6094 1344,220.8047 L1344,219.1641 Q1344,217.2891 1344.8906,215.6484 Q1345.8047,214.0078 1347.375,213.1406 Q1348.9688,212.25 1350.75,212.25 Q1351.8281,212.25 1352.7656,212.625 Q1353.7031,213 1354.5,213.75 Z " fill="#000000"/><text fill="#000000" font-family="sans-serif" font-size="18" lengthAdjust="spacing" textLength="108" x="1372.5" y="226.3652">SampleStore</text><line style="stroke:#A80036;stroke-width:2.25;" x1="1330.5" x2="1483.5" y1="243" y2="243"/><line style="stroke:#A80036;stroke-width:2.25;" x1="1330.5" x2="1483.5" y1="255" y2="255"/><!--MD5=[144698ec4d0188f6929a3b58a3eeb1f6]
class TestMapper--><rect codeLine="22" fill="#FEFECE" filter="url(#f1lx7yxymrce5v)" height="72" id="TestMapper" style="stroke:#A80036;stroke-width:2.25;" width="145.5" x="888.75" y="195"/><ellipse cx="911.25" cy="219" fill="#ADD1B2" rx="16.5" ry="16.5" style="stroke:#A80036;stroke-width:1.5;"/><path d="M914.25,213.75 Q914.5547,213 914.9063,212.625 Q915.2578,212.25 915.6563,212.25 Q916.3594,212.25 916.8047,212.6719 Q917.25,213.0938 917.25,214.0781 L917.25,216.4219 Q917.25,217.4063 916.8281,217.8281 Q916.4063,218.25 915.75,218.25 Q915.1641,218.25 914.7891,217.9922 Q914.4141,217.7344 914.25,217.0547 Q914.1797,216.5859 913.9219,216.3281 Q913.4531,215.8359 912.6094,215.5547 Q911.7656,215.25 910.9219,215.25 Q909.8672,215.25 908.9766,215.6719 Q908.1094,216.0938 907.4297,217.0313 Q906.75,217.9688 906.75,219.2578 L906.75,220.6406 Q906.75,222.1875 908.0156,223.2188 Q909.2813,224.25 911.5313,224.25 Q912.8672,224.25 913.8047,223.9453 Q914.3438,223.7813 914.9531,223.2422 Q915.3516,222.9375 915.5625,222.8438 Q915.7734,222.75 916.0313,222.75 Q916.5234,222.75 916.875,223.1484 Q917.25,223.5234 917.25,224.0625 Q917.25,224.5781 916.7344,225.1875 Q915.9844,226.0781 914.7891,226.5703 Q913.2188,227.25 911.2969,227.25 Q909.0469,227.25 907.2422,226.3594 Q905.7891,225.6563 904.7578,224.1328 Q903.75,222.6094 903.75,220.8047 L903.75,219.1641 Q903.75,217.2891 904.6406,215.6484 Q905.5547,214.0078 907.125,213.1406 Q908.7188,212.25 910.5,212.25 Q911.5781,212.25 912.5156,212.625 Q913.4531,213 914.25,213.75 Z " fill="#000000"/><text fill="#000000" font-family="sans-serif" font-size="18" lengthAdjust="spacing" textLength="97.5" x="932.25" y="226.3652">TestMapper</text><line style="stroke:#A80036;stroke-width:2.25;" x1="890.25" x2="1032.75" y1="243" y2="243"/><line style="stroke:#A80036;stroke-width:2.25;" x1="890.25" x2="1032.75" y1="255" y2="255"/><!--MD5=[9fb704ffefcaf68bf1a361787afa998b]
class TestDTO--><rect codeLine="25" fill="#FEFECE" filter="url(#f1lx7yxymrce5v)" height="72" id="TestDTO" style="stroke:#A80036;stroke-width:2.25;" width="121.5" x="1086.75" y="195"/><ellipse cx="1109.25" cy="219" fill="#ADD1B2" rx="16.5" ry="16.5" style="stroke:#A80036;stroke-width:1.5;"/><path d="M1112.25,213.75 Q1112.5547,213 1112.9063,212.625 Q1113.2578,212.25 1113.6563,212.25 Q1114.3594,212.25 1114.8047,212.6719 Q1115.25,213.0938 1115.25,214.0781 L1115.25,216.4219 Q1115.25,217.4063 1114.8281,217.8281 Q1114.4063,218.25 1113.75,218.25 Q1113.1641,218.25 1112.7891,217.9922 Q1112.4141,217.7344 1112.25,217.0547 Q1112.1797,216.5859 1111.9219,216.3281 Q1111.4531,215.8359 1110.6094,215.5547 Q1109.7656,215.25 1108.9219,215.25 Q1107.8672,215.25 1106.9766,215.6719 Q1106.1094,216.0938 1105.4297,217.0313 Q1104.75,217.9688 1104.75,219.2578 L1104.75,220.6406 Q1104.75,222.1875 1106.0156,223.2188 Q1107.2813,224.25 1109.5313,224.25 Q1110.8672,224.25 1111.8047,223.9453 Q1112.3438,223.7813 1112.9531,223.2422 Q1113.3516,222.9375 1113.5625,222.8438 Q1113.7734,222.75 1114.0313,222.75 Q1114.5234,222.75 1114.875,223.1484 Q1115.25,223.5234 1115.25,224.0625 Q1115.25,224.5781 1114.7344,225.1875 Q1113.9844,226.0781 1112.7891,226.5703 Q1111.2188,227.25 1109.2969,227.25 Q1107.0469,227.25 1105.2422,226.3594 Q1103.7891,225.6563 1102.7578,224.1328 Q1101.75,222.6094 1101.75,220.8047 L1101.75,219.1641 Q1101.75,217.2891 1102.6406,215.6484 Q1103.5547,214.0078 1105.125,213.1406 Q1106.7188,212.25 1108.5,212.25 Q1109.5781,212.25 1110.5156,212.625 Q1111.4531,213 1112.25,213.75 Z " fill="#000000"/><text fill="#000000" font-family="sans-serif" font-size="18" lengthAdjust="spacing" textLength="73.5" x="1130.25" y="226.3652">TestDTO</text><line style="stroke:#A80036;stroke-width:2.25;" x1="1088.25" x2="1206.75" y1="243" y2="243"/><line style="stroke:#A80036;stroke-width:2.25;" x1="1088.25" x2="1206.75" y1="255" y2="255"/><!--MD5=[8f188b89eff49accb0f38c057b38a9f2]
class ExternalModule--><rect codeLine="2" fill="#FEFECE" filter="url(#f1lx7yxymrce5v)" height="72" id="ExternalModule" style="stroke:#A80036;stroke-width:2.25;" width="174" x="10.5" y="195"/><ellipse cx="33" cy="219" fill="#ADD1B2" rx="16.5" ry="16.5" style="stroke:#A80036;stroke-width:1.5;"/><path d="M36,213.75 Q36.3047,213 36.6563,212.625 Q37.0078,212.25 37.4063,212.25 Q38.1094,212.25 38.5547,212.6719 Q39,213.0938 39,214.0781 L39,216.4219 Q39,217.4063 38.5781,217.8281 Q38.1563,218.25 37.5,218.25 Q36.9141,218.25 36.5391,217.9922 Q36.1641,217.7344 36,217.0547 Q35.9297,216.5859 35.6719,216.3281 Q35.2031,215.8359 34.3594,215.5547 Q33.5156,215.25 32.6719,215.25 Q31.6172,215.25 30.7266,215.6719 Q29.8594,216.0938 29.1797,217.0313 Q28.5,217.9688 28.5,219.2578 L28.5,220.6406 Q28.5,222.1875 29.7656,223.2188 Q31.0313,224.25 33.2813,224.25 Q34.6172,224.25 35.5547,223.9453 Q36.0938,223.7813 36.7031,223.2422 Q37.1016,222.9375 37.3125,222.8438 Q37.5234,222.75 37.7813,222.75 Q38.2734,222.75 38.625,223.1484 Q39,223.5234 39,224.0625 Q39,224.5781 38.4844,225.1875 Q37.7344,226.0781 36.5391,226.5703 Q34.9688,227.25 33.0469,227.25 Q30.7969,227.25 28.9922,226.3594 Q27.5391,225.6563 26.5078,224.1328 Q25.5,222.6094 25.5,220.8047 L25.5,219.1641 Q25.5,217.2891 26.3906,215.6484 Q27.3047,214.0078 28.875,213.1406 Q30.4688,212.25 32.25,212.25 Q33.3281,212.25 34.2656,212.625 Q35.2031,213 36,213.75 Z " fill="#000000"/><text fill="#000000" font-family="sans-serif" font-size="18" lengthAdjust="spacing" textLength="126" x="54" y="226.3652">ExternalModule</text><line style="stroke:#A80036;stroke-width:2.25;" x1="12" x2="183" y1="243" y2="243"/><line style="stroke:#A80036;stroke-width:2.25;" x1="12" x2="183" y1="255" y2="255"/><!--MD5=[eec685ed128af81f22795e02f52e2110]
@startuml
'https://plantuml.com/class-diagram
class ExternalModule

package ui{
class RecordSampleUI
}
package controller{
class RecordSampleController
}
package domain{

package model{
class Company
class Test
}
package store{
class TestStore
class SampleStore
}
package mappers{

class TestMapper

package dto{
class TestDTO

}
}
}

class Test{
-nhsCode
-testCode


}

class Company{
-designation
-testStore
-sampleStore
+getSampleStore()
+getTestStore()
}



@enduml

@startuml
class ExternalModule

package ui{
class RecordSampleUI
}
package controller{
class RecordSampleController
}
package domain{

package model{
class Company
class Test
}
package store{
class TestStore
class SampleStore
}
package mappers{

class TestMapper

package dto{
class TestDTO

}
}
}

class Test{
-nhsCode
-testCode


}

class Company{
-designation
-testStore
-sampleStore
+getSampleStore()
+getTestStore()
}



@enduml

PlantUML version 1.2021.5(Sun Apr 25 12:20:28 BST 2021)
(GPL source distribution)
Java Runtime: OpenJDK Runtime Environment
JVM: Dynamic Code Evolution 64-Bit Server VM
Default Encoding: Cp1252
Language: pt
Country: PT
--></g></svg>