<?xml version="1.0" encoding="UTF-8" standalone="no"?><svg xmlns="http://www.w3.org/2000/svg" xmlns:xlink="http://www.w3.org/1999/xlink" contentScriptType="application/ecmascript" contentStyleType="text/css" height="543.75px" preserveAspectRatio="none" style="width:170px;height:543px;" version="1.1" viewBox="0 0 170 543" width="170px" zoomAndPan="magnify"><defs><filter height="300%" id="ffzy34qopjyjj" width="300%" x="-1" y="-1"><feGaussianBlur result="blurOut" stdDeviation="2.5"/><feColorMatrix in="blurOut" result="blurOut2" type="matrix" values="0 0 0 0 0 0 0 0 0 0 0 0 0 0 0 0 0 0 .4 0"/><feOffset dx="5.0" dy="5.0" in="blurOut2" result="blurOut3"/><feBlend in="SourceGraphic" in2="blurOut3" mode="normal"/></filter></defs><g><!--MD5=[02e4b9b7573f1156f41e60aa5b4e25a4]
class Company--><rect codeLine="5" fill="#FEFECE" filter="url(#ffzy34qopjyjj)" height="67.2949" id="Company" style="stroke:#A80036;stroke-width:1.875;" width="106.25" x="26.875" y="8.75"/><ellipse cx="45.625" cy="28.75" fill="#ADD1B2" rx="13.75" ry="13.75" style="stroke:#A80036;stroke-width:1.25;"/><path d="M48.125,24.375 Q48.3789,23.75 48.6719,23.4375 Q48.9648,23.125 49.2969,23.125 Q49.8828,23.125 50.2539,23.4766 Q50.625,23.8281 50.625,24.6484 L50.625,26.6016 Q50.625,27.4219 50.2734,27.7734 Q49.9219,28.125 49.375,28.125 Q48.8867,28.125 48.5742,27.9102 Q48.2617,27.6953 48.125,27.1289 Q48.0664,26.7383 47.8516,26.5234 Q47.4609,26.1133 46.7578,25.8789 Q46.0547,25.625 45.3516,25.625 Q44.4727,25.625 43.7305,25.9766 Q43.0078,26.3281 42.4414,27.1094 Q41.875,27.8906 41.875,28.9648 L41.875,30.1172 Q41.875,31.4063 42.9297,32.2656 Q43.9844,33.125 45.8594,33.125 Q46.9727,33.125 47.7539,32.8711 Q48.2031,32.7344 48.7109,32.2852 Q49.043,32.0313 49.2188,31.9531 Q49.3945,31.875 49.6094,31.875 Q50.0195,31.875 50.3125,32.207 Q50.625,32.5195 50.625,32.9688 Q50.625,33.3984 50.1953,33.9063 Q49.5703,34.6484 48.5742,35.0586 Q47.2656,35.625 45.6641,35.625 Q43.7891,35.625 42.2852,34.8828 Q41.0742,34.2969 40.2148,33.0273 Q39.375,31.7578 39.375,30.2539 L39.375,28.8867 Q39.375,27.3242 40.1172,25.957 Q40.8789,24.5898 42.1875,23.8672 Q43.5156,23.125 45,23.125 Q45.8984,23.125 46.6797,23.4375 Q47.4609,23.75 48.125,24.375 Z " fill="#000000"/><text fill="#000000" font-family="sans-serif" font-size="15" lengthAdjust="spacing" textLength="66.25" x="63.125" y="34.8877">Company</text><line style="stroke:#A80036;stroke-width:1.875;" x1="28.125" x2="131.875" y1="48.75" y2="48.75"/><text fill="#000000" font-family="sans-serif" font-size="13.75" lengthAdjust="spacing" textLength="73.75" x="34.375" y="68.0237">-designation</text><!--MD5=[6b613c47955d26261bf1ca67a1458210]
class NhsApi--><rect codeLine="9" fill="#FEFECE" filter="url(#ffzy34qopjyjj)" height="50" id="NhsApi" style="stroke:#A80036;stroke-width:1.875;" width="90" x="35" y="251.25"/><ellipse cx="53.75" cy="271.25" fill="#ADD1B2" rx="13.75" ry="13.75" style="stroke:#A80036;stroke-width:1.25;"/><path d="M56.25,266.875 Q56.5039,266.25 56.7969,265.9375 Q57.0898,265.625 57.4219,265.625 Q58.0078,265.625 58.3789,265.9766 Q58.75,266.3281 58.75,267.1484 L58.75,269.1016 Q58.75,269.9219 58.3984,270.2734 Q58.0469,270.625 57.5,270.625 Q57.0117,270.625 56.6992,270.4102 Q56.3867,270.1953 56.25,269.6289 Q56.1914,269.2383 55.9766,269.0234 Q55.5859,268.6133 54.8828,268.3789 Q54.1797,268.125 53.4766,268.125 Q52.5977,268.125 51.8555,268.4766 Q51.1328,268.8281 50.5664,269.6094 Q50,270.3906 50,271.4648 L50,272.6172 Q50,273.9063 51.0547,274.7656 Q52.1094,275.625 53.9844,275.625 Q55.0977,275.625 55.8789,275.3711 Q56.3281,275.2344 56.8359,274.7852 Q57.168,274.5313 57.3438,274.4531 Q57.5195,274.375 57.7344,274.375 Q58.1445,274.375 58.4375,274.707 Q58.75,275.0195 58.75,275.4688 Q58.75,275.8984 58.3203,276.4063 Q57.6953,277.1484 56.6992,277.5586 Q55.3906,278.125 53.7891,278.125 Q51.9141,278.125 50.4102,277.3828 Q49.1992,276.7969 48.3398,275.5273 Q47.5,274.2578 47.5,272.7539 L47.5,271.3867 Q47.5,269.8242 48.2422,268.457 Q49.0039,267.0898 50.3125,266.3672 Q51.6406,265.625 53.125,265.625 Q54.0234,265.625 54.8047,265.9375 Q55.5859,266.25 56.25,266.875 Z " fill="#000000"/><text fill="#000000" font-family="sans-serif" font-size="15" lengthAdjust="spacing" textLength="50" x="71.25" y="277.3877">NhsApi</text><line style="stroke:#A80036;stroke-width:1.875;" x1="36.25" x2="123.75" y1="291.25" y2="291.25"/><!--MD5=[8ccb22436dd277bde4e48928c0f3fb40]
class Covid19Report--><rect codeLine="12" fill="#FEFECE" filter="url(#ffzy34qopjyjj)" height="50" id="Covid19Report" style="stroke:#A80036;stroke-width:1.875;" width="142.5" x="8.75" y="476.25"/><ellipse cx="27.5" cy="496.25" fill="#ADD1B2" rx="13.75" ry="13.75" style="stroke:#A80036;stroke-width:1.25;"/><path d="M30,491.875 Q30.2539,491.25 30.5469,490.9375 Q30.8398,490.625 31.1719,490.625 Q31.7578,490.625 32.1289,490.9766 Q32.5,491.3281 32.5,492.1484 L32.5,494.1016 Q32.5,494.9219 32.1484,495.2734 Q31.7969,495.625 31.25,495.625 Q30.7617,495.625 30.4492,495.4102 Q30.1367,495.1953 30,494.6289 Q29.9414,494.2383 29.7266,494.0234 Q29.3359,493.6133 28.6328,493.3789 Q27.9297,493.125 27.2266,493.125 Q26.3477,493.125 25.6055,493.4766 Q24.8828,493.8281 24.3164,494.6094 Q23.75,495.3906 23.75,496.4648 L23.75,497.6172 Q23.75,498.9063 24.8047,499.7656 Q25.8594,500.625 27.7344,500.625 Q28.8477,500.625 29.6289,500.3711 Q30.0781,500.2344 30.5859,499.7852 Q30.918,499.5313 31.0938,499.4531 Q31.2695,499.375 31.4844,499.375 Q31.8945,499.375 32.1875,499.707 Q32.5,500.0195 32.5,500.4688 Q32.5,500.8984 32.0703,501.4063 Q31.4453,502.1484 30.4492,502.5586 Q29.1406,503.125 27.5391,503.125 Q25.6641,503.125 24.1602,502.3828 Q22.9492,501.7969 22.0898,500.5273 Q21.25,499.2578 21.25,497.7539 L21.25,496.3867 Q21.25,494.8242 21.9922,493.457 Q22.7539,492.0898 24.0625,491.3672 Q25.3906,490.625 26.875,490.625 Q27.7734,490.625 28.5547,490.9375 Q29.3359,491.25 30,491.875 Z " fill="#000000"/><text fill="#000000" font-family="sans-serif" font-size="15" lengthAdjust="spacing" textLength="102.5" x="45" y="502.3877">Covid19Report</text><line style="stroke:#A80036;stroke-width:1.875;" x1="10" x2="150" y1="516.25" y2="516.25"/><!--MD5=[b845843cb17016f6a8b81b5b15531d2b]
link Company to NhsApi--><path codeLine="15" d="M80,76.3875 C80,123.45 80,209.275 80,250.975 " fill="none" id="Company-NhsApi" style="stroke:#A80036;stroke-width:1.25;"/><polygon fill="#000000" points="86.25,170.2197,89.9237,158.9134,82.5763,158.9134,86.25,170.2197" style="stroke:#000000;stroke-width:1.25;"/><text fill="#000000" font-family="sans-serif" font-size="16.25" lengthAdjust="spacing" textLength="60" x="97.5" y="170.6189">resort to</text><text fill="#000000" font-family="sans-serif" font-size="16.25" lengthAdjust="spacing" textLength="8.75" x="70.293" y="102.9273">1</text><text fill="#000000" font-family="sans-serif" font-size="16.25" lengthAdjust="spacing" textLength="8.75" x="69.9648" y="237.5464">1</text><!--MD5=[6df85c8f6f06e28e4cf84af3a1c2ffa6]
link NhsApi to Covid19Report--><path codeLine="16" d="M80,301.3125 C80,344.025 80,433.1875 80,476.025 " fill="none" id="NhsApi-Covid19Report" style="stroke:#A80036;stroke-width:1.25;"/><polygon fill="#000000" points="86.25,395.2197,89.9237,383.9134,82.5763,383.9134,86.25,395.2197" style="stroke:#000000;stroke-width:1.25;"/><text fill="#000000" font-family="sans-serif" font-size="16.25" lengthAdjust="spacing" textLength="62.5" x="97.5" y="395.6189">send the</text><text fill="#000000" font-family="sans-serif" font-size="16.25" lengthAdjust="spacing" textLength="8.75" x="70.0195" y="328.1045">1</text><text fill="#000000" font-family="sans-serif" font-size="16.25" lengthAdjust="spacing" textLength="6.25" x="72.832" y="462.6111">*</text><!--MD5=[f0121479d1133acdd8eafb7d1cca1d96]
@startuml
hide methods
'left to right direction
skinparam classAttributeIconSize 0

class Company{
-designation
}

class NhsApi{
}

class Covid19Report{
}

Company "1"- - -"1" NhsApi : resort to >
NhsApi "1"- - -"*" Covid19Report : send the >

@enduml

@startuml
hide methods
skinparam classAttributeIconSize 0

class Company{
-designation
}

class NhsApi{
}

class Covid19Report{
}

Company "1"- - -"1" NhsApi : resort to >
NhsApi "1"- - -"*" Covid19Report : send the >

@enduml

PlantUML version 1.2021.4(Sun Apr 04 09:49:39 BST 2021)
(GPL source distribution)
Java Runtime: OpenJDK Runtime Environment
JVM: OpenJDK 64-Bit Server VM
Default Encoding: Cp1252
Language: pt
Country: PT
--></g></svg>