<?xml version="1.0" encoding="UTF-8" standalone="no"?><svg xmlns="http://www.w3.org/2000/svg" xmlns:xlink="http://www.w3.org/1999/xlink" contentScriptType="application/ecmascript" contentStyleType="text/css" height="435px" preserveAspectRatio="none" style="width:136px;height:435px;" version="1.1" viewBox="0 0 136 435" width="136px" zoomAndPan="magnify"><defs><filter height="300%" id="ffzy34qopjyjj" width="300%" x="-1" y="-1"><feGaussianBlur result="blurOut" stdDeviation="2.0"/><feColorMatrix in="blurOut" result="blurOut2" type="matrix" values="0 0 0 0 0 0 0 0 0 0 0 0 0 0 0 0 0 0 .4 0"/><feOffset dx="4.0" dy="4.0" in="blurOut2" result="blurOut3"/><feBlend in="SourceGraphic" in2="blurOut3" mode="normal"/></filter></defs><g><!--MD5=[02e4b9b7573f1156f41e60aa5b4e25a4]
class Company--><rect codeLine="5" fill="#FEFECE" filter="url(#ffzy34qopjyjj)" height="53.8359" id="Company" style="stroke:#A80036;stroke-width:1.5;" width="85" x="21.5" y="7"/><ellipse cx="36.5" cy="23" fill="#ADD1B2" rx="11" ry="11" style="stroke:#A80036;stroke-width:1.0;"/><path d="M38.5,19.5 Q38.7031,19 38.9375,18.75 Q39.1719,18.5 39.4375,18.5 Q39.9063,18.5 40.2031,18.7813 Q40.5,19.0625 40.5,19.7188 L40.5,21.2813 Q40.5,21.9375 40.2188,22.2188 Q39.9375,22.5 39.5,22.5 Q39.1094,22.5 38.8594,22.3281 Q38.6094,22.1563 38.5,21.7031 Q38.4531,21.3906 38.2813,21.2188 Q37.9688,20.8906 37.4063,20.7031 Q36.8438,20.5 36.2813,20.5 Q35.5781,20.5 34.9844,20.7813 Q34.4063,21.0625 33.9531,21.6875 Q33.5,22.3125 33.5,23.1719 L33.5,24.0938 Q33.5,25.125 34.3438,25.8125 Q35.1875,26.5 36.6875,26.5 Q37.5781,26.5 38.2031,26.2969 Q38.5625,26.1875 38.9688,25.8281 Q39.2344,25.625 39.375,25.5625 Q39.5156,25.5 39.6875,25.5 Q40.0156,25.5 40.25,25.7656 Q40.5,26.0156 40.5,26.375 Q40.5,26.7188 40.1563,27.125 Q39.6563,27.7188 38.8594,28.0469 Q37.8125,28.5 36.5313,28.5 Q35.0313,28.5 33.8281,27.9063 Q32.8594,27.4375 32.1719,26.4219 Q31.5,25.4063 31.5,24.2031 L31.5,23.1094 Q31.5,21.8594 32.0938,20.7656 Q32.7031,19.6719 33.75,19.0938 Q34.8125,18.5 36,18.5 Q36.7188,18.5 37.3438,18.75 Q37.9688,19 38.5,19.5 Z " fill="#000000"/><text fill="#000000" font-family="sans-serif" font-size="12" lengthAdjust="spacing" textLength="53" x="50.5" y="27.9102">Company</text><line style="stroke:#A80036;stroke-width:1.5;" x1="22.5" x2="105.5" y1="39" y2="39"/><text fill="#000000" font-family="sans-serif" font-size="11" lengthAdjust="spacing" textLength="59" x="27.5" y="54.4189">-designation</text><!--MD5=[6b613c47955d26261bf1ca67a1458210]
class NhsApi--><rect codeLine="9" fill="#FEFECE" filter="url(#ffzy34qopjyjj)" height="40" id="NhsApi" style="stroke:#A80036;stroke-width:1.5;" width="72" x="28" y="201"/><ellipse cx="43" cy="217" fill="#ADD1B2" rx="11" ry="11" style="stroke:#A80036;stroke-width:1.0;"/><path d="M45,213.5 Q45.2031,213 45.4375,212.75 Q45.6719,212.5 45.9375,212.5 Q46.4063,212.5 46.7031,212.7813 Q47,213.0625 47,213.7188 L47,215.2813 Q47,215.9375 46.7188,216.2188 Q46.4375,216.5 46,216.5 Q45.6094,216.5 45.3594,216.3281 Q45.1094,216.1563 45,215.7031 Q44.9531,215.3906 44.7813,215.2188 Q44.4688,214.8906 43.9063,214.7031 Q43.3438,214.5 42.7813,214.5 Q42.0781,214.5 41.4844,214.7813 Q40.9063,215.0625 40.4531,215.6875 Q40,216.3125 40,217.1719 L40,218.0938 Q40,219.125 40.8438,219.8125 Q41.6875,220.5 43.1875,220.5 Q44.0781,220.5 44.7031,220.2969 Q45.0625,220.1875 45.4688,219.8281 Q45.7344,219.625 45.875,219.5625 Q46.0156,219.5 46.1875,219.5 Q46.5156,219.5 46.75,219.7656 Q47,220.0156 47,220.375 Q47,220.7188 46.6563,221.125 Q46.1563,221.7188 45.3594,222.0469 Q44.3125,222.5 43.0313,222.5 Q41.5313,222.5 40.3281,221.9063 Q39.3594,221.4375 38.6719,220.4219 Q38,219.4063 38,218.2031 L38,217.1094 Q38,215.8594 38.5938,214.7656 Q39.2031,213.6719 40.25,213.0938 Q41.3125,212.5 42.5,212.5 Q43.2188,212.5 43.8438,212.75 Q44.4688,213 45,213.5 Z " fill="#000000"/><text fill="#000000" font-family="sans-serif" font-size="12" lengthAdjust="spacing" textLength="40" x="57" y="221.9102">NhsApi</text><line style="stroke:#A80036;stroke-width:1.5;" x1="29" x2="99" y1="233" y2="233"/><!--MD5=[8ccb22436dd277bde4e48928c0f3fb40]
class Covid19Report--><rect codeLine="12" fill="#FEFECE" filter="url(#ffzy34qopjyjj)" height="40" id="Covid19Report" style="stroke:#A80036;stroke-width:1.5;" width="114" x="7" y="381"/><ellipse cx="22" cy="397" fill="#ADD1B2" rx="11" ry="11" style="stroke:#A80036;stroke-width:1.0;"/><path d="M24,393.5 Q24.2031,393 24.4375,392.75 Q24.6719,392.5 24.9375,392.5 Q25.4063,392.5 25.7031,392.7813 Q26,393.0625 26,393.7188 L26,395.2813 Q26,395.9375 25.7188,396.2188 Q25.4375,396.5 25,396.5 Q24.6094,396.5 24.3594,396.3281 Q24.1094,396.1563 24,395.7031 Q23.9531,395.3906 23.7813,395.2188 Q23.4688,394.8906 22.9063,394.7031 Q22.3438,394.5 21.7813,394.5 Q21.0781,394.5 20.4844,394.7813 Q19.9063,395.0625 19.4531,395.6875 Q19,396.3125 19,397.1719 L19,398.0938 Q19,399.125 19.8438,399.8125 Q20.6875,400.5 22.1875,400.5 Q23.0781,400.5 23.7031,400.2969 Q24.0625,400.1875 24.4688,399.8281 Q24.7344,399.625 24.875,399.5625 Q25.0156,399.5 25.1875,399.5 Q25.5156,399.5 25.75,399.7656 Q26,400.0156 26,400.375 Q26,400.7188 25.6563,401.125 Q25.1563,401.7188 24.3594,402.0469 Q23.3125,402.5 22.0313,402.5 Q20.5313,402.5 19.3281,401.9063 Q18.3594,401.4375 17.6719,400.4219 Q17,399.4063 17,398.2031 L17,397.1094 Q17,395.8594 17.5938,394.7656 Q18.2031,393.6719 19.25,393.0938 Q20.3125,392.5 21.5,392.5 Q22.2188,392.5 22.8438,392.75 Q23.4688,393 24,393.5 Z " fill="#000000"/><text fill="#000000" font-family="sans-serif" font-size="12" lengthAdjust="spacing" textLength="82" x="36" y="401.9102">Covid19Report</text><line style="stroke:#A80036;stroke-width:1.5;" x1="8" x2="120" y1="413" y2="413"/><!--MD5=[b845843cb17016f6a8b81b5b15531d2b]
link Company to NhsApi--><path codeLine="15" d="M64,61.11 C64,98.76 64,167.42 64,200.78 " fill="none" id="Company-NhsApi" style="stroke:#A80036;stroke-width:1.0;"/><polygon fill="#000000" points="69,136.1758,71.9389,127.1307,66.0611,127.1307,69,136.1758" style="stroke:#000000;stroke-width:1.0;"/><text fill="#000000" font-family="sans-serif" font-size="13" lengthAdjust="spacing" textLength="48" x="78" y="136.4951">resort to</text><text fill="#000000" font-family="sans-serif" font-size="13" lengthAdjust="spacing" textLength="7" x="56.2344" y="82.3418">1</text><text fill="#000000" font-family="sans-serif" font-size="13" lengthAdjust="spacing" textLength="7" x="55.9719" y="190.0371">1</text><!--MD5=[6df85c8f6f06e28e4cf84af3a1c2ffa6]
link NhsApi to Covid19Report--><path codeLine="16" d="M64,241.05 C64,275.22 64,346.55 64,380.82 " fill="none" id="NhsApi-Covid19Report" style="stroke:#A80036;stroke-width:1.0;"/><polygon fill="#000000" points="69,316.1758,71.9389,307.1307,66.0611,307.1307,69,316.1758" style="stroke:#000000;stroke-width:1.0;"/><text fill="#000000" font-family="sans-serif" font-size="13" lengthAdjust="spacing" textLength="50" x="78" y="316.4951">send the</text><text fill="#000000" font-family="sans-serif" font-size="13" lengthAdjust="spacing" textLength="7" x="56.0156" y="262.4836">1</text><text fill="#000000" font-family="sans-serif" font-size="13" lengthAdjust="spacing" textLength="5" x="58.2656" y="370.0889">*</text><!--MD5=[000c22e514d3f6fb096616c190442ba8]
@startuml
hide methods
'left to right direction
skinparam classAttributeIconSize 0

class Company{
-designation
}

class NhsApi{
}

class Covid19Report{
}

Company "1"- - -"1" NhsApi : resort to >
NhsApi "1"- - -"*" Covid19Report : send the >

@enduml

@startuml
hide methods
skinparam classAttributeIconSize 0

class Company{
-designation
}

class NhsApi{
}

class Covid19Report{
}

Company "1"- - -"1" NhsApi : resort to >
NhsApi "1"- - -"*" Covid19Report : send the >

@enduml

PlantUML version 1.2021.00(Sun Jan 10 10:25:05 GMT 2021)
(GPL source distribution)
Java Runtime: OpenJDK Runtime Environment
JVM: OpenJDK 64-Bit Server VM
Default Encoding: Cp1252
Language: pt
Country: PT
--></g></svg>