<?xml version="1.0" encoding="UTF-8" standalone="no"?><svg xmlns="http://www.w3.org/2000/svg" xmlns:xlink="http://www.w3.org/1999/xlink" contentScriptType="application/ecmascript" contentStyleType="text/css" height="1251px" preserveAspectRatio="none" style="width:807px;height:1251px;" version="1.1" viewBox="0 0 807 1251" width="807px" zoomAndPan="magnify"><defs><filter height="300%" id="fdxpa6la9vvdd" width="300%" x="-1" y="-1"><feGaussianBlur result="blurOut" stdDeviation="3.0"/><feColorMatrix in="blurOut" result="blurOut2" type="matrix" values="0 0 0 0 0 0 0 0 0 0 0 0 0 0 0 0 0 0 .4 0"/><feOffset dx="6.0" dy="6.0" in="blurOut2" result="blurOut3"/><feBlend in="SourceGraphic" in2="blurOut3" mode="normal"/></filter></defs><g><rect fill="#FFFFFF" filter="url(#fdxpa6la9vvdd)" height="947.0742" style="stroke:#A80036;stroke-width:1.5;" width="15" x="89.25" y="149.4141"/><rect fill="#FFFFFF" filter="url(#fdxpa6la9vvdd)" height="45.5273" style="stroke:#A80036;stroke-width:1.5;" width="15" x="713.25" y="182.9414"/><rect fill="#FFFFFF" filter="url(#fdxpa6la9vvdd)" height="45.5273" style="stroke:#A80036;stroke-width:1.5;" width="15" x="713.25" y="273.9961"/><rect fill="#FFFFFF" filter="url(#fdxpa6la9vvdd)" height="45.5273" style="stroke:#A80036;stroke-width:1.5;" width="15" x="713.25" y="365.0508"/><rect fill="#FFFFFF" filter="url(#fdxpa6la9vvdd)" height="45.5273" style="stroke:#A80036;stroke-width:1.5;" width="15" x="713.25" y="456.1055"/><rect fill="#FFFFFF" filter="url(#fdxpa6la9vvdd)" height="45.5273" style="stroke:#A80036;stroke-width:1.5;" width="15" x="713.25" y="547.1602"/><rect fill="#FFFFFF" filter="url(#fdxpa6la9vvdd)" height="83.5547" style="stroke:#A80036;stroke-width:1.5;" width="15" x="713.25" y="638.2148"/><rect fill="#FFFFFF" filter="url(#fdxpa6la9vvdd)" height="56.0273" style="stroke:#A80036;stroke-width:1.5;" width="15" x="713.25" y="767.2969"/><rect fill="#FFFFFF" filter="url(#fdxpa6la9vvdd)" height="45.5273" style="stroke:#A80036;stroke-width:1.5;" width="15" x="713.25" y="868.8516"/><rect fill="#FFFFFF" filter="url(#fdxpa6la9vvdd)" height="45.5273" style="stroke:#A80036;stroke-width:1.5;" width="15" x="713.25" y="959.9063"/><rect fill="#FFFFFF" filter="url(#fdxpa6la9vvdd)" height="45.5273" style="stroke:#A80036;stroke-width:1.5;" width="15" x="713.25" y="1050.9609"/><rect fill="#FFFFFF" filter="url(#fdxpa6la9vvdd)" height="118.582" style="stroke:#000000;stroke-width:3.0;" width="771.75" x="15" y="660.7148"/><line style="stroke:#A80036;stroke-width:1.5;stroke-dasharray:5.0,5.0;" x1="96" x2="96" y1="134.4141" y2="1123.4883"/><line style="stroke:#A80036;stroke-width:1.5;stroke-dasharray:5.0,5.0;" x1="720.75" x2="720.75" y1="134.4141" y2="1123.4883"/><text fill="#000000" font-family="sans-serif" font-size="21" lengthAdjust="spacing" textLength="124.5" x="30" y="129.7998">Administrator</text><ellipse cx="96.75" cy="22.5" fill="#FEFECE" filter="url(#fdxpa6la9vvdd)" rx="12" ry="12" style="stroke:#A80036;stroke-width:3.0;"/><path d="M96.75,34.5 L96.75,75 M77.25,46.5 L116.25,46.5 M96.75,75 L77.25,97.5 M96.75,75 L116.25,97.5 " fill="none" filter="url(#fdxpa6la9vvdd)" style="stroke:#A80036;stroke-width:3.0;"/><text fill="#000000" font-family="sans-serif" font-size="21" lengthAdjust="spacing" textLength="124.5" x="30" y="1143.7881">Administrator</text><ellipse cx="96.75" cy="1163.4023" fill="#FEFECE" filter="url(#fdxpa6la9vvdd)" rx="12" ry="12" style="stroke:#A80036;stroke-width:3.0;"/><path d="M96.75,1175.4023 L96.75,1215.9023 M77.25,1187.4023 L116.25,1187.4023 M96.75,1215.9023 L77.25,1238.4023 M96.75,1215.9023 L116.25,1238.4023 " fill="none" filter="url(#fdxpa6la9vvdd)" style="stroke:#A80036;stroke-width:3.0;"/><rect fill="#FEFECE" filter="url(#fdxpa6la9vvdd)" height="47.4141" style="stroke:#A80036;stroke-width:2.25;" width="96" x="669.75" y="79.5"/><text fill="#000000" font-family="sans-serif" font-size="21" lengthAdjust="spacing" textLength="75" x="680.25" y="111.7998">:System</text><rect fill="#FEFECE" filter="url(#fdxpa6la9vvdd)" height="47.4141" style="stroke:#A80036;stroke-width:2.25;" width="96" x="669.75" y="1121.9883"/><text fill="#000000" font-family="sans-serif" font-size="21" lengthAdjust="spacing" textLength="75" x="680.25" y="1154.2881">:System</text><rect fill="#FFFFFF" filter="url(#fdxpa6la9vvdd)" height="947.0742" style="stroke:#A80036;stroke-width:1.5;" width="15" x="89.25" y="149.4141"/><rect fill="#FFFFFF" filter="url(#fdxpa6la9vvdd)" height="45.5273" style="stroke:#A80036;stroke-width:1.5;" width="15" x="713.25" y="182.9414"/><rect fill="#FFFFFF" filter="url(#fdxpa6la9vvdd)" height="45.5273" style="stroke:#A80036;stroke-width:1.5;" width="15" x="713.25" y="273.9961"/><rect fill="#FFFFFF" filter="url(#fdxpa6la9vvdd)" height="45.5273" style="stroke:#A80036;stroke-width:1.5;" width="15" x="713.25" y="365.0508"/><rect fill="#FFFFFF" filter="url(#fdxpa6la9vvdd)" height="45.5273" style="stroke:#A80036;stroke-width:1.5;" width="15" x="713.25" y="456.1055"/><rect fill="#FFFFFF" filter="url(#fdxpa6la9vvdd)" height="45.5273" style="stroke:#A80036;stroke-width:1.5;" width="15" x="713.25" y="547.1602"/><rect fill="#FFFFFF" filter="url(#fdxpa6la9vvdd)" height="83.5547" style="stroke:#A80036;stroke-width:1.5;" width="15" x="713.25" y="638.2148"/><rect fill="#FFFFFF" filter="url(#fdxpa6la9vvdd)" height="56.0273" style="stroke:#A80036;stroke-width:1.5;" width="15" x="713.25" y="767.2969"/><rect fill="#FFFFFF" filter="url(#fdxpa6la9vvdd)" height="45.5273" style="stroke:#A80036;stroke-width:1.5;" width="15" x="713.25" y="868.8516"/><rect fill="#FFFFFF" filter="url(#fdxpa6la9vvdd)" height="45.5273" style="stroke:#A80036;stroke-width:1.5;" width="15" x="713.25" y="959.9063"/><rect fill="#FFFFFF" filter="url(#fdxpa6la9vvdd)" height="45.5273" style="stroke:#A80036;stroke-width:1.5;" width="15" x="713.25" y="1050.9609"/><polygon fill="#A80036" points="695.25,176.9414,710.25,182.9414,695.25,188.9414,701.25,182.9414" style="stroke:#A80036;stroke-width:1.5;"/><line style="stroke:#A80036;stroke-width:1.5;" x1="104.25" x2="704.25" y1="182.9414" y2="182.9414"/><text fill="#000000" font-family="sans-serif" font-size="19.5" font-weight="bold" lengthAdjust="spacing" textLength="10.5" x="114.75" y="175.6567">1</text><text fill="#000000" font-family="sans-serif" font-size="19.5" lengthAdjust="spacing" textLength="496.5" x="131.25" y="175.6567">Initiates the process of sending a Covid-19 report to NHS.</text><polygon fill="#A80036" points="120.75,222.4688,105.75,228.4688,120.75,234.4688,114.75,228.4688" style="stroke:#A80036;stroke-width:1.5;"/><line style="stroke:#A80036;stroke-width:1.5;stroke-dasharray:2.0,2.0;" x1="111.75" x2="719.25" y1="228.4688" y2="228.4688"/><text fill="#000000" font-family="sans-serif" font-size="19.5" font-weight="bold" lengthAdjust="spacing" textLength="10.5" x="129.75" y="221.1841">2</text><text fill="#000000" font-family="sans-serif" font-size="19.5" lengthAdjust="spacing" textLength="208.5" x="146.25" y="221.1841">Request the current day</text><polygon fill="#A80036" points="695.25,267.9961,710.25,273.9961,695.25,279.9961,701.25,273.9961" style="stroke:#A80036;stroke-width:1.5;"/><line style="stroke:#A80036;stroke-width:1.5;" x1="104.25" x2="704.25" y1="273.9961" y2="273.9961"/><text fill="#000000" font-family="sans-serif" font-size="19.5" font-weight="bold" lengthAdjust="spacing" textLength="10.5" x="114.75" y="266.7114">3</text><text fill="#000000" font-family="sans-serif" font-size="19.5" lengthAdjust="spacing" textLength="216" x="131.25" y="266.7114">Introduce the current day</text><polygon fill="#A80036" points="120.75,313.5234,105.75,319.5234,120.75,325.5234,114.75,319.5234" style="stroke:#A80036;stroke-width:1.5;"/><line style="stroke:#A80036;stroke-width:1.5;stroke-dasharray:2.0,2.0;" x1="111.75" x2="719.25" y1="319.5234" y2="319.5234"/><text fill="#000000" font-family="sans-serif" font-size="19.5" font-weight="bold" lengthAdjust="spacing" textLength="10.5" x="129.75" y="312.2388">4</text><text fill="#000000" font-family="sans-serif" font-size="19.5" lengthAdjust="spacing" textLength="511.5" x="146.25" y="312.2388">Show the type of data (day or week)  and ask to select one</text><polygon fill="#A80036" points="695.25,359.0508,710.25,365.0508,695.25,371.0508,701.25,365.0508" style="stroke:#A80036;stroke-width:1.5;"/><line style="stroke:#A80036;stroke-width:1.5;" x1="104.25" x2="704.25" y1="365.0508" y2="365.0508"/><text fill="#000000" font-family="sans-serif" font-size="19.5" font-weight="bold" lengthAdjust="spacing" textLength="10.5" x="114.75" y="357.7661">5</text><text fill="#000000" font-family="sans-serif" font-size="19.5" lengthAdjust="spacing" textLength="265.5" x="131.25" y="357.7661">Select the desired type of data</text><polygon fill="#A80036" points="120.75,404.5781,105.75,410.5781,120.75,416.5781,114.75,410.5781" style="stroke:#A80036;stroke-width:1.5;"/><line style="stroke:#A80036;stroke-width:1.5;stroke-dasharray:2.0,2.0;" x1="111.75" x2="719.25" y1="410.5781" y2="410.5781"/><text fill="#000000" font-family="sans-serif" font-size="19.5" font-weight="bold" lengthAdjust="spacing" textLength="10.5" x="129.75" y="403.2935">6</text><text fill="#000000" font-family="sans-serif" font-size="19.5" lengthAdjust="spacing" textLength="339" x="146.25" y="403.2935">Request the number of historical points</text><polygon fill="#A80036" points="695.25,450.1055,710.25,456.1055,695.25,462.1055,701.25,456.1055" style="stroke:#A80036;stroke-width:1.5;"/><line style="stroke:#A80036;stroke-width:1.5;" x1="104.25" x2="704.25" y1="456.1055" y2="456.1055"/><text fill="#000000" font-family="sans-serif" font-size="19.5" font-weight="bold" lengthAdjust="spacing" textLength="10.5" x="114.75" y="448.8208">7</text><text fill="#000000" font-family="sans-serif" font-size="19.5" lengthAdjust="spacing" textLength="346.5" x="131.25" y="448.8208">Introduce the number of historical points</text><polygon fill="#A80036" points="120.75,495.6328,105.75,501.6328,120.75,507.6328,114.75,501.6328" style="stroke:#A80036;stroke-width:1.5;"/><line style="stroke:#A80036;stroke-width:1.5;stroke-dasharray:2.0,2.0;" x1="111.75" x2="719.25" y1="501.6328" y2="501.6328"/><text fill="#000000" font-family="sans-serif" font-size="19.5" font-weight="bold" lengthAdjust="spacing" textLength="10.5" x="129.75" y="494.3481">8</text><text fill="#000000" font-family="sans-serif" font-size="19.5" lengthAdjust="spacing" textLength="225" x="146.25" y="494.3481">Request the dates interval</text><polygon fill="#A80036" points="695.25,541.1602,710.25,547.1602,695.25,553.1602,701.25,547.1602" style="stroke:#A80036;stroke-width:1.5;"/><line style="stroke:#A80036;stroke-width:1.5;" x1="104.25" x2="704.25" y1="547.1602" y2="547.1602"/><text fill="#000000" font-family="sans-serif" font-size="19.5" font-weight="bold" lengthAdjust="spacing" textLength="10.5" x="114.75" y="539.8755">9</text><text fill="#000000" font-family="sans-serif" font-size="19.5" lengthAdjust="spacing" textLength="352.5" x="131.25" y="539.8755">Defines the dates interval to fit the model</text><polygon fill="#A80036" points="120.75,586.6875,105.75,592.6875,120.75,598.6875,114.75,592.6875" style="stroke:#A80036;stroke-width:1.5;"/><line style="stroke:#A80036;stroke-width:1.5;stroke-dasharray:2.0,2.0;" x1="111.75" x2="719.25" y1="592.6875" y2="592.6875"/><text fill="#000000" font-family="sans-serif" font-size="19.5" font-weight="bold" lengthAdjust="spacing" textLength="21" x="129.75" y="585.4028">10</text><text fill="#000000" font-family="sans-serif" font-size="19.5" lengthAdjust="spacing" textLength="486" x="156.75" y="585.4028">Show available regression models and ask to select one</text><polygon fill="#A80036" points="695.25,632.2148,710.25,638.2148,695.25,644.2148,701.25,638.2148" style="stroke:#A80036;stroke-width:1.5;"/><line style="stroke:#A80036;stroke-width:1.5;" x1="104.25" x2="704.25" y1="638.2148" y2="638.2148"/><text fill="#000000" font-family="sans-serif" font-size="19.5" font-weight="bold" lengthAdjust="spacing" textLength="21" x="114.75" y="630.9302">11</text><text fill="#000000" font-family="sans-serif" font-size="19.5" lengthAdjust="spacing" textLength="312" x="141.75" y="630.9302">Select the desired regression model</text><path d="M15,660.7148 L106.5,660.7148 L106.5,672.7148 L91.5,687.7148 L15,687.7148 L15,660.7148 " fill="#EEEEEE" style="stroke:#000000;stroke-width:1.5;"/><rect fill="none" height="118.582" style="stroke:#000000;stroke-width:3.0;" width="771.75" x="15" y="660.7148"/><text fill="#000000" font-family="sans-serif" font-size="19.5" font-weight="bold" lengthAdjust="spacing" textLength="24" x="37.5" y="682.4575">alt</text><text fill="#000000" font-family="sans-serif" font-size="16.5" font-weight="bold" lengthAdjust="spacing" textLength="385.5" x="129" y="680.8433">[regression model = Simple linear regression]</text><polygon fill="#A80036" points="120.75,715.7695,105.75,721.7695,120.75,727.7695,114.75,721.7695" style="stroke:#A80036;stroke-width:1.5;"/><line style="stroke:#A80036;stroke-width:1.5;stroke-dasharray:2.0,2.0;" x1="111.75" x2="719.25" y1="721.7695" y2="721.7695"/><text fill="#000000" font-family="sans-serif" font-size="19.5" font-weight="bold" lengthAdjust="spacing" textLength="21" x="129.75" y="714.4849">12</text><text fill="#000000" font-family="sans-serif" font-size="19.5" lengthAdjust="spacing" textLength="546" x="156.75" y="714.4849">Show the available independent variables and ask to select one</text><polygon fill="#A80036" points="695.25,761.2969,710.25,767.2969,695.25,773.2969,701.25,767.2969" style="stroke:#A80036;stroke-width:1.5;"/><line style="stroke:#A80036;stroke-width:1.5;" x1="104.25" x2="704.25" y1="767.2969" y2="767.2969"/><text fill="#000000" font-family="sans-serif" font-size="19.5" font-weight="bold" lengthAdjust="spacing" textLength="21" x="114.75" y="760.0122">13</text><text fill="#000000" font-family="sans-serif" font-size="19.5" lengthAdjust="spacing" textLength="339" x="141.75" y="760.0122">Select the desired independent variable</text><polygon fill="#A80036" points="120.75,817.3242,105.75,823.3242,120.75,829.3242,114.75,823.3242" style="stroke:#A80036;stroke-width:1.5;"/><line style="stroke:#A80036;stroke-width:1.5;stroke-dasharray:2.0,2.0;" x1="111.75" x2="719.25" y1="823.3242" y2="823.3242"/><text fill="#000000" font-family="sans-serif" font-size="19.5" font-weight="bold" lengthAdjust="spacing" textLength="21" x="129.75" y="816.0396">14</text><text fill="#000000" font-family="sans-serif" font-size="19.5" lengthAdjust="spacing" textLength="256.5" x="156.75" y="816.0396">Request the significance level</text><polygon fill="#A80036" points="695.25,862.8516,710.25,868.8516,695.25,874.8516,701.25,868.8516" style="stroke:#A80036;stroke-width:1.5;"/><line style="stroke:#A80036;stroke-width:1.5;" x1="104.25" x2="704.25" y1="868.8516" y2="868.8516"/><text fill="#000000" font-family="sans-serif" font-size="19.5" font-weight="bold" lengthAdjust="spacing" textLength="21" x="114.75" y="861.5669">15</text><text fill="#000000" font-family="sans-serif" font-size="19.5" lengthAdjust="spacing" textLength="264" x="141.75" y="861.5669">Introduce the significance level</text><polygon fill="#A80036" points="120.75,908.3789,105.75,914.3789,120.75,920.3789,114.75,914.3789" style="stroke:#A80036;stroke-width:1.5;"/><line style="stroke:#A80036;stroke-width:1.5;stroke-dasharray:2.0,2.0;" x1="111.75" x2="719.25" y1="914.3789" y2="914.3789"/><text fill="#000000" font-family="sans-serif" font-size="19.5" font-weight="bold" lengthAdjust="spacing" textLength="21" x="129.75" y="907.0942">16</text><text fill="#000000" font-family="sans-serif" font-size="19.5" lengthAdjust="spacing" textLength="247.5" x="156.75" y="907.0942">Request the confidence level</text><polygon fill="#A80036" points="695.25,953.9063,710.25,959.9063,695.25,965.9063,701.25,959.9063" style="stroke:#A80036;stroke-width:1.5;"/><line style="stroke:#A80036;stroke-width:1.5;" x1="104.25" x2="704.25" y1="959.9063" y2="959.9063"/><text fill="#000000" font-family="sans-serif" font-size="19.5" font-weight="bold" lengthAdjust="spacing" textLength="21" x="114.75" y="952.6216">17</text><text fill="#000000" font-family="sans-serif" font-size="19.5" lengthAdjust="spacing" textLength="255" x="141.75" y="952.6216">Introduce the confidence level</text><polygon fill="#A80036" points="120.75,999.4336,105.75,1005.4336,120.75,1011.4336,114.75,1005.4336" style="stroke:#A80036;stroke-width:1.5;"/><line style="stroke:#A80036;stroke-width:1.5;stroke-dasharray:2.0,2.0;" x1="111.75" x2="719.25" y1="1005.4336" y2="1005.4336"/><text fill="#000000" font-family="sans-serif" font-size="19.5" font-weight="bold" lengthAdjust="spacing" textLength="21" x="129.75" y="998.1489">18</text><text fill="#000000" font-family="sans-serif" font-size="19.5" lengthAdjust="spacing" textLength="376.5" x="156.75" y="998.1489">Presents all data and requests confirmation</text><polygon fill="#A80036" points="695.25,1044.9609,710.25,1050.9609,695.25,1056.9609,701.25,1050.9609" style="stroke:#A80036;stroke-width:1.5;"/><line style="stroke:#A80036;stroke-width:1.5;" x1="104.25" x2="704.25" y1="1050.9609" y2="1050.9609"/><text fill="#000000" font-family="sans-serif" font-size="19.5" font-weight="bold" lengthAdjust="spacing" textLength="21" x="114.75" y="1043.6763">19</text><text fill="#000000" font-family="sans-serif" font-size="19.5" lengthAdjust="spacing" textLength="159" x="141.75" y="1043.6763">Confirms the data.</text><polygon fill="#A80036" points="113.25,1090.4883,98.25,1096.4883,113.25,1102.4883,107.25,1096.4883" style="stroke:#A80036;stroke-width:1.5;"/><line style="stroke:#A80036;stroke-width:1.5;stroke-dasharray:2.0,2.0;" x1="104.25" x2="719.25" y1="1096.4883" y2="1096.4883"/><text fill="#000000" font-family="sans-serif" font-size="19.5" font-weight="bold" lengthAdjust="spacing" textLength="21" x="122.25" y="1089.2036">20</text><text fill="#000000" font-family="sans-serif" font-size="19.5" lengthAdjust="spacing" textLength="234" x="149.25" y="1089.2036">Informs operation success.</text><!--MD5=[7661bbfb31b41d2c8e320bd5a345f459]
@startuml
autonumber
actor "Administrator" as Admin

activate Admin
Admin -> ":System" : Initiates the process of sending a Covid-19 report to NHS.
activate ":System"
":System" - -> Admin : Request the current day
deactivate ":System"

Admin -> ":System" : Introduce the current day
activate ":System"
":System" - -> Admin : Show the type of data (day or week)  and ask to select one
deactivate ":System"

Admin-> ":System" : Select the desired type of data
activate ":System"


":System" - -> Admin :  Request the number of historical points
deactivate ":System"

Admin-> ":System" : Introduce the number of historical points
activate ":System"
":System" - -> Admin : Request the dates interval
deactivate ":System"

Admin-> ":System" : Defines the dates interval to fit the model
activate ":System"
":System" - -> Admin : Show available regression models and ask to select one
deactivate ":System"

Admin-> ":System" : Select the desired regression model
activate ":System"
alt regression model = Simple linear regression
":System" - -> Admin : Show the available independent variables and ask to select one
deactivate ":System"
Admin-> ":System" : Select the desired independent variable
activate ":System"
end

":System" - -> Admin : Request the significance level
deactivate ":System"

Admin-> ":System" : Introduce the significance level
activate ":System"
":System" - -> Admin : Request the confidence level
deactivate ":System"

Admin-> ":System" : Introduce the confidence level
activate ":System"
":System" - -> Admin : Presents all data and requests confirmation
deactivate ":System"


Admin-> ":System" : Confirms the data.
activate ":System"
":System" - -> Admin : Informs operation success.
deactivate ":System"

deactivate Admin

@enduml

PlantUML version 1.2021.5(Sun Apr 25 12:20:28 BST 2021)
(GPL source distribution)
Java Runtime: OpenJDK Runtime Environment
JVM: Dynamic Code Evolution 64-Bit Server VM
Default Encoding: Cp1252
Language: pt
Country: PT
--></g></svg>