<?xml version="1.0" encoding="UTF-8" standalone="no"?><svg xmlns="http://www.w3.org/2000/svg" xmlns:xlink="http://www.w3.org/1999/xlink" contentScriptType="application/ecmascript" contentStyleType="text/css" height="834px" preserveAspectRatio="none" style="width:538px;height:834px;" version="1.1" viewBox="0 0 538 834" width="538px" zoomAndPan="magnify"><defs><filter height="300%" id="fdxpa6la9vvdd" width="300%" x="-1" y="-1"><feGaussianBlur result="blurOut" stdDeviation="2.0"/><feColorMatrix in="blurOut" result="blurOut2" type="matrix" values="0 0 0 0 0 0 0 0 0 0 0 0 0 0 0 0 0 0 .4 0"/><feOffset dx="4.0" dy="4.0" in="blurOut2" result="blurOut3"/><feBlend in="SourceGraphic" in2="blurOut3" mode="normal"/></filter></defs><g><rect fill="#FFFFFF" filter="url(#fdxpa6la9vvdd)" height="631.3828" style="stroke:#A80036;stroke-width:1.0;" width="10" x="59.5" y="99.6094"/><rect fill="#FFFFFF" filter="url(#fdxpa6la9vvdd)" height="30.3516" style="stroke:#A80036;stroke-width:1.0;" width="10" x="475.5" y="121.9609"/><rect fill="#FFFFFF" filter="url(#fdxpa6la9vvdd)" height="30.3516" style="stroke:#A80036;stroke-width:1.0;" width="10" x="475.5" y="182.6641"/><rect fill="#FFFFFF" filter="url(#fdxpa6la9vvdd)" height="30.3516" style="stroke:#A80036;stroke-width:1.0;" width="10" x="475.5" y="243.3672"/><rect fill="#FFFFFF" filter="url(#fdxpa6la9vvdd)" height="30.3516" style="stroke:#A80036;stroke-width:1.0;" width="10" x="475.5" y="304.0703"/><rect fill="#FFFFFF" filter="url(#fdxpa6la9vvdd)" height="30.3516" style="stroke:#A80036;stroke-width:1.0;" width="10" x="475.5" y="364.7734"/><rect fill="#FFFFFF" filter="url(#fdxpa6la9vvdd)" height="55.7031" style="stroke:#A80036;stroke-width:1.0;" width="10" x="475.5" y="425.4766"/><rect fill="#FFFFFF" filter="url(#fdxpa6la9vvdd)" height="37.3516" style="stroke:#A80036;stroke-width:1.0;" width="10" x="475.5" y="511.5313"/><rect fill="#FFFFFF" filter="url(#fdxpa6la9vvdd)" height="30.3516" style="stroke:#A80036;stroke-width:1.0;" width="10" x="475.5" y="579.2344"/><rect fill="#FFFFFF" filter="url(#fdxpa6la9vvdd)" height="30.3516" style="stroke:#A80036;stroke-width:1.0;" width="10" x="475.5" y="639.9375"/><rect fill="#FFFFFF" filter="url(#fdxpa6la9vvdd)" height="30.3516" style="stroke:#A80036;stroke-width:1.0;" width="10" x="475.5" y="700.6406"/><rect fill="#FFFFFF" filter="url(#fdxpa6la9vvdd)" height="79.0547" style="stroke:#000000;stroke-width:2.0;" width="514.5" x="10" y="440.4766"/><line style="stroke:#A80036;stroke-width:1.0;stroke-dasharray:5.0,5.0;" x1="64" x2="64" y1="89.6094" y2="748.9922"/><line style="stroke:#A80036;stroke-width:1.0;stroke-dasharray:5.0,5.0;" x1="480.5" x2="480.5" y1="89.6094" y2="748.9922"/><text fill="#000000" font-family="sans-serif" font-size="14" lengthAdjust="spacing" textLength="83" x="20" y="86.5332">Administrator</text><ellipse cx="64.5" cy="15" fill="#FEFECE" filter="url(#fdxpa6la9vvdd)" rx="8" ry="8" style="stroke:#A80036;stroke-width:2.0;"/><path d="M64.5,23 L64.5,50 M51.5,31 L77.5,31 M64.5,50 L51.5,65 M64.5,50 L77.5,65 " fill="none" filter="url(#fdxpa6la9vvdd)" style="stroke:#A80036;stroke-width:2.0;"/><text fill="#000000" font-family="sans-serif" font-size="14" lengthAdjust="spacing" textLength="83" x="20" y="762.5254">Administrator</text><ellipse cx="64.5" cy="775.6016" fill="#FEFECE" filter="url(#fdxpa6la9vvdd)" rx="8" ry="8" style="stroke:#A80036;stroke-width:2.0;"/><path d="M64.5,783.6016 L64.5,810.6016 M51.5,791.6016 L77.5,791.6016 M64.5,810.6016 L51.5,825.6016 M64.5,810.6016 L77.5,825.6016 " fill="none" filter="url(#fdxpa6la9vvdd)" style="stroke:#A80036;stroke-width:2.0;"/><rect fill="#FEFECE" filter="url(#fdxpa6la9vvdd)" height="31.6094" style="stroke:#A80036;stroke-width:1.5;" width="64" x="446.5" y="53"/><text fill="#000000" font-family="sans-serif" font-size="14" lengthAdjust="spacing" textLength="50" x="453.5" y="74.5332">:System</text><rect fill="#FEFECE" filter="url(#fdxpa6la9vvdd)" height="31.6094" style="stroke:#A80036;stroke-width:1.5;" width="64" x="446.5" y="747.9922"/><text fill="#000000" font-family="sans-serif" font-size="14" lengthAdjust="spacing" textLength="50" x="453.5" y="769.5254">:System</text><rect fill="#FFFFFF" filter="url(#fdxpa6la9vvdd)" height="631.3828" style="stroke:#A80036;stroke-width:1.0;" width="10" x="59.5" y="99.6094"/><rect fill="#FFFFFF" filter="url(#fdxpa6la9vvdd)" height="30.3516" style="stroke:#A80036;stroke-width:1.0;" width="10" x="475.5" y="121.9609"/><rect fill="#FFFFFF" filter="url(#fdxpa6la9vvdd)" height="30.3516" style="stroke:#A80036;stroke-width:1.0;" width="10" x="475.5" y="182.6641"/><rect fill="#FFFFFF" filter="url(#fdxpa6la9vvdd)" height="30.3516" style="stroke:#A80036;stroke-width:1.0;" width="10" x="475.5" y="243.3672"/><rect fill="#FFFFFF" filter="url(#fdxpa6la9vvdd)" height="30.3516" style="stroke:#A80036;stroke-width:1.0;" width="10" x="475.5" y="304.0703"/><rect fill="#FFFFFF" filter="url(#fdxpa6la9vvdd)" height="30.3516" style="stroke:#A80036;stroke-width:1.0;" width="10" x="475.5" y="364.7734"/><rect fill="#FFFFFF" filter="url(#fdxpa6la9vvdd)" height="55.7031" style="stroke:#A80036;stroke-width:1.0;" width="10" x="475.5" y="425.4766"/><rect fill="#FFFFFF" filter="url(#fdxpa6la9vvdd)" height="37.3516" style="stroke:#A80036;stroke-width:1.0;" width="10" x="475.5" y="511.5313"/><rect fill="#FFFFFF" filter="url(#fdxpa6la9vvdd)" height="30.3516" style="stroke:#A80036;stroke-width:1.0;" width="10" x="475.5" y="579.2344"/><rect fill="#FFFFFF" filter="url(#fdxpa6la9vvdd)" height="30.3516" style="stroke:#A80036;stroke-width:1.0;" width="10" x="475.5" y="639.9375"/><rect fill="#FFFFFF" filter="url(#fdxpa6la9vvdd)" height="30.3516" style="stroke:#A80036;stroke-width:1.0;" width="10" x="475.5" y="700.6406"/><polygon fill="#A80036" points="463.5,117.9609,473.5,121.9609,463.5,125.9609,467.5,121.9609" style="stroke:#A80036;stroke-width:1.0;"/><line style="stroke:#A80036;stroke-width:1.0;" x1="69.5" x2="469.5" y1="121.9609" y2="121.9609"/><text fill="#000000" font-family="sans-serif" font-size="13" font-weight="bold" lengthAdjust="spacing" textLength="7" x="76.5" y="117.1045">1</text><text fill="#000000" font-family="sans-serif" font-size="13" lengthAdjust="spacing" textLength="331" x="87.5" y="117.1045">Initiates the process of sending a Covid-19 report to NHS.</text><polygon fill="#A80036" points="80.5,148.3125,70.5,152.3125,80.5,156.3125,76.5,152.3125" style="stroke:#A80036;stroke-width:1.0;"/><line style="stroke:#A80036;stroke-width:1.0;stroke-dasharray:2.0,2.0;" x1="74.5" x2="479.5" y1="152.3125" y2="152.3125"/><text fill="#000000" font-family="sans-serif" font-size="13" font-weight="bold" lengthAdjust="spacing" textLength="7" x="86.5" y="147.4561">2</text><text fill="#000000" font-family="sans-serif" font-size="13" lengthAdjust="spacing" textLength="139" x="97.5" y="147.4561">Request the current day</text><polygon fill="#A80036" points="463.5,178.6641,473.5,182.6641,463.5,186.6641,467.5,182.6641" style="stroke:#A80036;stroke-width:1.0;"/><line style="stroke:#A80036;stroke-width:1.0;" x1="69.5" x2="469.5" y1="182.6641" y2="182.6641"/><text fill="#000000" font-family="sans-serif" font-size="13" font-weight="bold" lengthAdjust="spacing" textLength="7" x="76.5" y="177.8076">3</text><text fill="#000000" font-family="sans-serif" font-size="13" lengthAdjust="spacing" textLength="144" x="87.5" y="177.8076">Introduce the current day</text><polygon fill="#A80036" points="80.5,209.0156,70.5,213.0156,80.5,217.0156,76.5,213.0156" style="stroke:#A80036;stroke-width:1.0;"/><line style="stroke:#A80036;stroke-width:1.0;stroke-dasharray:2.0,2.0;" x1="74.5" x2="479.5" y1="213.0156" y2="213.0156"/><text fill="#000000" font-family="sans-serif" font-size="13" font-weight="bold" lengthAdjust="spacing" textLength="7" x="86.5" y="208.1592">4</text><text fill="#000000" font-family="sans-serif" font-size="13" lengthAdjust="spacing" textLength="341" x="97.5" y="208.1592">Show the type of data (day or week)  and ask to select one</text><polygon fill="#A80036" points="463.5,239.3672,473.5,243.3672,463.5,247.3672,467.5,243.3672" style="stroke:#A80036;stroke-width:1.0;"/><line style="stroke:#A80036;stroke-width:1.0;" x1="69.5" x2="469.5" y1="243.3672" y2="243.3672"/><text fill="#000000" font-family="sans-serif" font-size="13" font-weight="bold" lengthAdjust="spacing" textLength="7" x="76.5" y="238.5107">5</text><text fill="#000000" font-family="sans-serif" font-size="13" lengthAdjust="spacing" textLength="177" x="87.5" y="238.5107">Select the desired type of data</text><polygon fill="#A80036" points="80.5,269.7188,70.5,273.7188,80.5,277.7188,76.5,273.7188" style="stroke:#A80036;stroke-width:1.0;"/><line style="stroke:#A80036;stroke-width:1.0;stroke-dasharray:2.0,2.0;" x1="74.5" x2="479.5" y1="273.7188" y2="273.7188"/><text fill="#000000" font-family="sans-serif" font-size="13" font-weight="bold" lengthAdjust="spacing" textLength="7" x="86.5" y="268.8623">6</text><text fill="#000000" font-family="sans-serif" font-size="13" lengthAdjust="spacing" textLength="226" x="97.5" y="268.8623">Request the number of historical points</text><polygon fill="#A80036" points="463.5,300.0703,473.5,304.0703,463.5,308.0703,467.5,304.0703" style="stroke:#A80036;stroke-width:1.0;"/><line style="stroke:#A80036;stroke-width:1.0;" x1="69.5" x2="469.5" y1="304.0703" y2="304.0703"/><text fill="#000000" font-family="sans-serif" font-size="13" font-weight="bold" lengthAdjust="spacing" textLength="7" x="76.5" y="299.2139">7</text><text fill="#000000" font-family="sans-serif" font-size="13" lengthAdjust="spacing" textLength="231" x="87.5" y="299.2139">Introduce the number of historical points</text><polygon fill="#A80036" points="80.5,330.4219,70.5,334.4219,80.5,338.4219,76.5,334.4219" style="stroke:#A80036;stroke-width:1.0;"/><line style="stroke:#A80036;stroke-width:1.0;stroke-dasharray:2.0,2.0;" x1="74.5" x2="479.5" y1="334.4219" y2="334.4219"/><text fill="#000000" font-family="sans-serif" font-size="13" font-weight="bold" lengthAdjust="spacing" textLength="7" x="86.5" y="329.5654">8</text><text fill="#000000" font-family="sans-serif" font-size="13" lengthAdjust="spacing" textLength="150" x="97.5" y="329.5654">Request the dates interval</text><polygon fill="#A80036" points="463.5,360.7734,473.5,364.7734,463.5,368.7734,467.5,364.7734" style="stroke:#A80036;stroke-width:1.0;"/><line style="stroke:#A80036;stroke-width:1.0;" x1="69.5" x2="469.5" y1="364.7734" y2="364.7734"/><text fill="#000000" font-family="sans-serif" font-size="13" font-weight="bold" lengthAdjust="spacing" textLength="7" x="76.5" y="359.917">9</text><text fill="#000000" font-family="sans-serif" font-size="13" lengthAdjust="spacing" textLength="235" x="87.5" y="359.917">Defines the dates interval to fit the model</text><polygon fill="#A80036" points="80.5,391.125,70.5,395.125,80.5,399.125,76.5,395.125" style="stroke:#A80036;stroke-width:1.0;"/><line style="stroke:#A80036;stroke-width:1.0;stroke-dasharray:2.0,2.0;" x1="74.5" x2="479.5" y1="395.125" y2="395.125"/><text fill="#000000" font-family="sans-serif" font-size="13" font-weight="bold" lengthAdjust="spacing" textLength="14" x="86.5" y="390.2686">10</text><text fill="#000000" font-family="sans-serif" font-size="13" lengthAdjust="spacing" textLength="324" x="104.5" y="390.2686">Show available regression models and ask to select one</text><polygon fill="#A80036" points="463.5,421.4766,473.5,425.4766,463.5,429.4766,467.5,425.4766" style="stroke:#A80036;stroke-width:1.0;"/><line style="stroke:#A80036;stroke-width:1.0;" x1="69.5" x2="469.5" y1="425.4766" y2="425.4766"/><text fill="#000000" font-family="sans-serif" font-size="13" font-weight="bold" lengthAdjust="spacing" textLength="14" x="76.5" y="420.6201">11</text><text fill="#000000" font-family="sans-serif" font-size="13" lengthAdjust="spacing" textLength="208" x="94.5" y="420.6201">Select the desired regression model</text><path d="M10,440.4766 L71,440.4766 L71,448.4766 L61,458.4766 L10,458.4766 L10,440.4766 " fill="#EEEEEE" style="stroke:#000000;stroke-width:1.0;"/><rect fill="none" height="79.0547" style="stroke:#000000;stroke-width:2.0;" width="514.5" x="10" y="440.4766"/><text fill="#000000" font-family="sans-serif" font-size="13" font-weight="bold" lengthAdjust="spacing" textLength="16" x="25" y="454.9717">alt</text><text fill="#000000" font-family="sans-serif" font-size="11" font-weight="bold" lengthAdjust="spacing" textLength="257" x="86" y="453.8955">[regression model = Simple linear regression]</text><polygon fill="#A80036" points="80.5,477.1797,70.5,481.1797,80.5,485.1797,76.5,481.1797" style="stroke:#A80036;stroke-width:1.0;"/><line style="stroke:#A80036;stroke-width:1.0;stroke-dasharray:2.0,2.0;" x1="74.5" x2="479.5" y1="481.1797" y2="481.1797"/><text fill="#000000" font-family="sans-serif" font-size="13" font-weight="bold" lengthAdjust="spacing" textLength="14" x="86.5" y="476.3232">12</text><text fill="#000000" font-family="sans-serif" font-size="13" lengthAdjust="spacing" textLength="364" x="104.5" y="476.3232">Show the available independent variables and ask to select one</text><polygon fill="#A80036" points="463.5,507.5313,473.5,511.5313,463.5,515.5313,467.5,511.5313" style="stroke:#A80036;stroke-width:1.0;"/><line style="stroke:#A80036;stroke-width:1.0;" x1="69.5" x2="469.5" y1="511.5313" y2="511.5313"/><text fill="#000000" font-family="sans-serif" font-size="13" font-weight="bold" lengthAdjust="spacing" textLength="14" x="76.5" y="506.6748">13</text><text fill="#000000" font-family="sans-serif" font-size="13" lengthAdjust="spacing" textLength="226" x="94.5" y="506.6748">Select the desired independent variable</text><polygon fill="#A80036" points="80.5,544.8828,70.5,548.8828,80.5,552.8828,76.5,548.8828" style="stroke:#A80036;stroke-width:1.0;"/><line style="stroke:#A80036;stroke-width:1.0;stroke-dasharray:2.0,2.0;" x1="74.5" x2="479.5" y1="548.8828" y2="548.8828"/><text fill="#000000" font-family="sans-serif" font-size="13" font-weight="bold" lengthAdjust="spacing" textLength="14" x="86.5" y="544.0264">14</text><text fill="#000000" font-family="sans-serif" font-size="13" lengthAdjust="spacing" textLength="171" x="104.5" y="544.0264">Request the significance level</text><polygon fill="#A80036" points="463.5,575.2344,473.5,579.2344,463.5,583.2344,467.5,579.2344" style="stroke:#A80036;stroke-width:1.0;"/><line style="stroke:#A80036;stroke-width:1.0;" x1="69.5" x2="469.5" y1="579.2344" y2="579.2344"/><text fill="#000000" font-family="sans-serif" font-size="13" font-weight="bold" lengthAdjust="spacing" textLength="14" x="76.5" y="574.3779">15</text><text fill="#000000" font-family="sans-serif" font-size="13" lengthAdjust="spacing" textLength="176" x="94.5" y="574.3779">Introduce the significance level</text><polygon fill="#A80036" points="80.5,605.5859,70.5,609.5859,80.5,613.5859,76.5,609.5859" style="stroke:#A80036;stroke-width:1.0;"/><line style="stroke:#A80036;stroke-width:1.0;stroke-dasharray:2.0,2.0;" x1="74.5" x2="479.5" y1="609.5859" y2="609.5859"/><text fill="#000000" font-family="sans-serif" font-size="13" font-weight="bold" lengthAdjust="spacing" textLength="14" x="86.5" y="604.7295">16</text><text fill="#000000" font-family="sans-serif" font-size="13" lengthAdjust="spacing" textLength="165" x="104.5" y="604.7295">Request the confidence level</text><polygon fill="#A80036" points="463.5,635.9375,473.5,639.9375,463.5,643.9375,467.5,639.9375" style="stroke:#A80036;stroke-width:1.0;"/><line style="stroke:#A80036;stroke-width:1.0;" x1="69.5" x2="469.5" y1="639.9375" y2="639.9375"/><text fill="#000000" font-family="sans-serif" font-size="13" font-weight="bold" lengthAdjust="spacing" textLength="14" x="76.5" y="635.0811">17</text><text fill="#000000" font-family="sans-serif" font-size="13" lengthAdjust="spacing" textLength="170" x="94.5" y="635.0811">Introduce the confidence level</text><polygon fill="#A80036" points="80.5,666.2891,70.5,670.2891,80.5,674.2891,76.5,670.2891" style="stroke:#A80036;stroke-width:1.0;"/><line style="stroke:#A80036;stroke-width:1.0;stroke-dasharray:2.0,2.0;" x1="74.5" x2="479.5" y1="670.2891" y2="670.2891"/><text fill="#000000" font-family="sans-serif" font-size="13" font-weight="bold" lengthAdjust="spacing" textLength="14" x="86.5" y="665.4326">18</text><text fill="#000000" font-family="sans-serif" font-size="13" lengthAdjust="spacing" textLength="251" x="104.5" y="665.4326">Presents all data and requests confirmation</text><polygon fill="#A80036" points="463.5,696.6406,473.5,700.6406,463.5,704.6406,467.5,700.6406" style="stroke:#A80036;stroke-width:1.0;"/><line style="stroke:#A80036;stroke-width:1.0;" x1="69.5" x2="469.5" y1="700.6406" y2="700.6406"/><text fill="#000000" font-family="sans-serif" font-size="13" font-weight="bold" lengthAdjust="spacing" textLength="14" x="76.5" y="695.7842">19</text><text fill="#000000" font-family="sans-serif" font-size="13" lengthAdjust="spacing" textLength="106" x="94.5" y="695.7842">Confirms the data.</text><polygon fill="#A80036" points="75.5,726.9922,65.5,730.9922,75.5,734.9922,71.5,730.9922" style="stroke:#A80036;stroke-width:1.0;"/><line style="stroke:#A80036;stroke-width:1.0;stroke-dasharray:2.0,2.0;" x1="69.5" x2="479.5" y1="730.9922" y2="730.9922"/><text fill="#000000" font-family="sans-serif" font-size="13" font-weight="bold" lengthAdjust="spacing" textLength="14" x="81.5" y="726.1357">20</text><text fill="#000000" font-family="sans-serif" font-size="13" lengthAdjust="spacing" textLength="156" x="99.5" y="726.1357">Informs operation success.</text><!--MD5=[ac4df38e6b73dbc64e9afda20dcb774d]
@startuml
autonumber
actor "Administrator" as Admin

activate Admin
Admin -> ":System" : Initiates the process of sending a Covid-19 report to NHS.
activate ":System"
":System" - -> Admin : Request the current day
deactivate ":System"

Admin -> ":System" : Introduce the current day
activate ":System"
":System" - -> Admin : Show the type of data (day or week)  and ask to select one
deactivate ":System"

Admin-> ":System" : Select the desired type of data
activate ":System"


":System" - -> Admin :  Request the number of historical points
deactivate ":System"

Admin-> ":System" : Introduce the number of historical points
activate ":System"
":System" - -> Admin : Request the dates interval
deactivate ":System"

Admin-> ":System" : Defines the dates interval to fit the model
activate ":System"
":System" - -> Admin : Show available regression models and ask to select one
deactivate ":System"

Admin-> ":System" : Select the desired regression model
activate ":System"
alt regression model = Simple linear regression
":System" - -> Admin : Show the available independent variables and ask to select one
deactivate ":System"
Admin-> ":System" : Select the desired independent variable
activate ":System"
end

":System" - -> Admin : Request the significance level
deactivate ":System"

Admin-> ":System" : Introduce the significance level
activate ":System"
":System" - -> Admin : Request the confidence level
deactivate ":System"

Admin-> ":System" : Introduce the confidence level
activate ":System"
":System" - -> Admin : Presents all data and requests confirmation
deactivate ":System"


Admin-> ":System" : Confirms the data.
activate ":System"
":System" - -> Admin : Informs operation success.
deactivate ":System"

deactivate Admin

@enduml

PlantUML version 1.2021.00(Sun Jan 10 10:25:05 GMT 2021)
(GPL source distribution)
Java Runtime: OpenJDK Runtime Environment
JVM: OpenJDK 64-Bit Server VM
Default Encoding: Cp1252
Language: pt
Country: PT
--></g></svg>