<?xml version="1.0" encoding="UTF-8" standalone="no"?><svg xmlns="http://www.w3.org/2000/svg" xmlns:xlink="http://www.w3.org/1999/xlink" contentScriptType="application/ecmascript" contentStyleType="text/css" height="474px" preserveAspectRatio="none" style="width:546px;height:474px;" version="1.1" viewBox="0 0 546 474" width="546px" zoomAndPan="magnify"><defs><filter height="300%" id="f1pbbu6ccn3qkw" width="300%" x="-1" y="-1"><feGaussianBlur result="blurOut" stdDeviation="3.0"/><feColorMatrix in="blurOut" result="blurOut2" type="matrix" values="0 0 0 0 0 0 0 0 0 0 0 0 0 0 0 0 0 0 .4 0"/><feOffset dx="6.0" dy="6.0" in="blurOut2" result="blurOut3"/><feBlend in="SourceGraphic" in2="blurOut3" mode="normal"/></filter></defs><g><rect fill="#FFFFFF" filter="url(#f1pbbu6ccn3qkw)" height="170.1094" style="stroke:#A80036;stroke-width:1.5;" width="15" x="31.5" y="149.4141"/><rect fill="#FFFFFF" filter="url(#f1pbbu6ccn3qkw)" height="45.5273" style="stroke:#A80036;stroke-width:1.5;" width="15" x="472.5" y="182.9414"/><rect fill="#FFFFFF" filter="url(#f1pbbu6ccn3qkw)" height="45.5273" style="stroke:#A80036;stroke-width:1.5;" width="15" x="472.5" y="273.9961"/><line style="stroke:#A80036;stroke-width:1.5;stroke-dasharray:5.0,5.0;" x1="39" x2="39" y1="134.4141" y2="346.5234"/><line style="stroke:#A80036;stroke-width:1.5;stroke-dasharray:5.0,5.0;" x1="480" x2="480" y1="134.4141" y2="346.5234"/><text fill="#000000" font-family="sans-serif" font-size="21" lengthAdjust="spacing" textLength="54" x="7.5" y="129.7998">Client</text><ellipse cx="39" cy="22.5" fill="#FEFECE" filter="url(#f1pbbu6ccn3qkw)" rx="12" ry="12" style="stroke:#A80036;stroke-width:3.0;"/><path d="M39,34.5 L39,75 M19.5,46.5 L58.5,46.5 M39,75 L19.5,97.5 M39,75 L58.5,97.5 " fill="none" filter="url(#f1pbbu6ccn3qkw)" style="stroke:#A80036;stroke-width:3.0;"/><text fill="#000000" font-family="sans-serif" font-size="21" lengthAdjust="spacing" textLength="54" x="7.5" y="366.8232">Client</text><ellipse cx="39" cy="386.4375" fill="#FEFECE" filter="url(#f1pbbu6ccn3qkw)" rx="12" ry="12" style="stroke:#A80036;stroke-width:3.0;"/><path d="M39,398.4375 L39,438.9375 M19.5,410.4375 L58.5,410.4375 M39,438.9375 L19.5,461.4375 M39,438.9375 L58.5,461.4375 " fill="none" filter="url(#f1pbbu6ccn3qkw)" style="stroke:#A80036;stroke-width:3.0;"/><rect fill="#FEFECE" filter="url(#f1pbbu6ccn3qkw)" height="47.4141" style="stroke:#A80036;stroke-width:2.25;" width="96" x="429" y="79.5"/><text fill="#000000" font-family="sans-serif" font-size="21" lengthAdjust="spacing" textLength="75" x="439.5" y="111.7998">:System</text><rect fill="#FEFECE" filter="url(#f1pbbu6ccn3qkw)" height="47.4141" style="stroke:#A80036;stroke-width:2.25;" width="96" x="429" y="345.0234"/><text fill="#000000" font-family="sans-serif" font-size="21" lengthAdjust="spacing" textLength="75" x="439.5" y="377.3232">:System</text><rect fill="#FFFFFF" filter="url(#f1pbbu6ccn3qkw)" height="170.1094" style="stroke:#A80036;stroke-width:1.5;" width="15" x="31.5" y="149.4141"/><rect fill="#FFFFFF" filter="url(#f1pbbu6ccn3qkw)" height="45.5273" style="stroke:#A80036;stroke-width:1.5;" width="15" x="472.5" y="182.9414"/><rect fill="#FFFFFF" filter="url(#f1pbbu6ccn3qkw)" height="45.5273" style="stroke:#A80036;stroke-width:1.5;" width="15" x="472.5" y="273.9961"/><polygon fill="#A80036" points="454.5,176.9414,469.5,182.9414,454.5,188.9414,460.5,182.9414" style="stroke:#A80036;stroke-width:1.5;"/><line style="stroke:#A80036;stroke-width:1.5;" x1="46.5" x2="463.5" y1="182.9414" y2="182.9414"/><text fill="#000000" font-family="sans-serif" font-size="19.5" font-weight="bold" lengthAdjust="spacing" textLength="10.5" x="57" y="175.6567">1</text><text fill="#000000" font-family="sans-serif" font-size="19.5" lengthAdjust="spacing" textLength="306" x="73.5" y="175.6567">asks to view the results of his tests</text><polygon fill="#A80036" points="63,222.4688,48,228.4688,63,234.4688,57,228.4688" style="stroke:#A80036;stroke-width:1.5;"/><line style="stroke:#A80036;stroke-width:1.5;stroke-dasharray:2.0,2.0;" x1="54" x2="478.5" y1="228.4688" y2="228.4688"/><text fill="#000000" font-family="sans-serif" font-size="19.5" font-weight="bold" lengthAdjust="spacing" textLength="10.5" x="72" y="221.1841">2</text><text fill="#000000" font-family="sans-serif" font-size="19.5" lengthAdjust="spacing" textLength="373.5" x="88.5" y="221.1841">shows the test list and asks to choose one</text><polygon fill="#A80036" points="454.5,267.9961,469.5,273.9961,454.5,279.9961,460.5,273.9961" style="stroke:#A80036;stroke-width:1.5;"/><line style="stroke:#A80036;stroke-width:1.5;" x1="46.5" x2="463.5" y1="273.9961" y2="273.9961"/><text fill="#000000" font-family="sans-serif" font-size="19.5" font-weight="bold" lengthAdjust="spacing" textLength="10.5" x="57" y="266.7114">3</text><text fill="#000000" font-family="sans-serif" font-size="19.5" lengthAdjust="spacing" textLength="118.5" x="73.5" y="266.7114">selects a test</text><polygon fill="#A80036" points="55.5,313.5234,40.5,319.5234,55.5,325.5234,49.5,319.5234" style="stroke:#A80036;stroke-width:1.5;"/><line style="stroke:#A80036;stroke-width:1.5;stroke-dasharray:2.0,2.0;" x1="46.5" x2="478.5" y1="319.5234" y2="319.5234"/><text fill="#000000" font-family="sans-serif" font-size="19.5" font-weight="bold" lengthAdjust="spacing" textLength="10.5" x="64.5" y="312.2388">4</text><text fill="#000000" font-family="sans-serif" font-size="19.5" lengthAdjust="spacing" textLength="190.5" x="81" y="312.2388">shows requested data</text><!--MD5=[d1fe341f71736f5c763659d1030790d9]
@startuml
autonumber
actor "Client" as OE

activate OE
OE -> ":System" : asks to view the results of his tests
activate ":System"
":System" - -> OE : shows the test list and asks to choose one
deactivate ":System"

OE -> ":System" : selects a test
activate ":System"
":System" - -> OE : shows requested data
deactivate ":System"

deactivate OE

@enduml

PlantUML version 1.2021.5(Sun Apr 25 12:20:28 BST 2021)
(GPL source distribution)
Java Runtime: OpenJDK Runtime Environment
JVM: Dynamic Code Evolution 64-Bit Server VM
Default Encoding: Cp1252
Language: pt
Country: PT
--></g></svg>