<?xml version="1.0" encoding="UTF-8" standalone="no"?><svg xmlns="http://www.w3.org/2000/svg" xmlns:xlink="http://www.w3.org/1999/xlink" contentScriptType="application/ecmascript" contentStyleType="text/css" height="256.5px" preserveAspectRatio="none" style="width:607px;height:256px;" version="1.1" viewBox="0 0 607 256" width="607.5px" zoomAndPan="magnify"><defs><filter height="300%" id="f1f2donyg7ik0x" width="300%" x="-1" y="-1"><feGaussianBlur result="blurOut" stdDeviation="3.0"/><feColorMatrix in="blurOut" result="blurOut2" type="matrix" values="0 0 0 0 0 0 0 0 0 0 0 0 0 0 0 0 0 0 .4 0"/><feOffset dx="6.0" dy="6.0" in="blurOut2" result="blurOut3"/><feBlend in="SourceGraphic" in2="blurOut3" mode="normal"/></filter></defs><g><!--MD5=[df38be88ccee13e832d6fafd6288a4ca]
class Test--><rect codeLine="6" fill="#FEFECE" filter="url(#f1f2donyg7ik0x)" height="226.0313" id="Test" style="stroke:#A80036;stroke-width:2.25;" width="192" x="10.5" y="10.5"/><ellipse cx="82.125" cy="34.5" fill="#ADD1B2" rx="16.5" ry="16.5" style="stroke:#A80036;stroke-width:1.5;"/><path d="M85.125,29.25 Q85.4297,28.5 85.7813,28.125 Q86.1328,27.75 86.5313,27.75 Q87.2344,27.75 87.6797,28.1719 Q88.125,28.5938 88.125,29.5781 L88.125,31.9219 Q88.125,32.9063 87.7031,33.3281 Q87.2813,33.75 86.625,33.75 Q86.0391,33.75 85.6641,33.4922 Q85.2891,33.2344 85.125,32.5547 Q85.0547,32.0859 84.7969,31.8281 Q84.3281,31.3359 83.4844,31.0547 Q82.6406,30.75 81.7969,30.75 Q80.7422,30.75 79.8516,31.1719 Q78.9844,31.5938 78.3047,32.5313 Q77.625,33.4688 77.625,34.7578 L77.625,36.1406 Q77.625,37.6875 78.8906,38.7188 Q80.1563,39.75 82.4063,39.75 Q83.7422,39.75 84.6797,39.4453 Q85.2188,39.2813 85.8281,38.7422 Q86.2266,38.4375 86.4375,38.3438 Q86.6484,38.25 86.9063,38.25 Q87.3984,38.25 87.75,38.6484 Q88.125,39.0234 88.125,39.5625 Q88.125,40.0781 87.6094,40.6875 Q86.8594,41.5781 85.6641,42.0703 Q84.0938,42.75 82.1719,42.75 Q79.9219,42.75 78.1172,41.8594 Q76.6641,41.1563 75.6328,39.6328 Q74.625,38.1094 74.625,36.3047 L74.625,34.6641 Q74.625,32.7891 75.5156,31.1484 Q76.4297,29.5078 78,28.6406 Q79.5938,27.75 81.375,27.75 Q82.4531,27.75 83.3906,28.125 Q84.3281,28.5 85.125,29.25 Z " fill="#000000"/><text fill="#000000" font-family="sans-serif" font-size="18" lengthAdjust="spacing" textLength="36" x="112.875" y="41.8652">Test</text><line style="stroke:#A80036;stroke-width:2.25;" x1="12" x2="201" y1="58.5" y2="58.5"/><text fill="#000000" font-family="sans-serif" font-size="16.5" lengthAdjust="spacing" textLength="96" x="19.5" y="81.6284">-internalCode</text><text fill="#000000" font-family="sans-serif" font-size="16.5" lengthAdjust="spacing" textLength="70.5" x="19.5" y="102.3823">-nhsCode</text><text fill="#000000" font-family="sans-serif" font-size="16.5" lengthAdjust="spacing" textLength="85.5" x="19.5" y="123.1362">-description</text><text fill="#000000" font-family="sans-serif" font-size="16.5" lengthAdjust="spacing" textLength="174" x="19.5" y="143.8901">-dateOfSampleCollected</text><text fill="#000000" font-family="sans-serif" font-size="16.5" lengthAdjust="spacing" textLength="171" x="19.5" y="164.644">-timeOfSampleCollected</text><text fill="#000000" font-family="sans-serif" font-size="16.5" lengthAdjust="spacing" textLength="171" x="19.5" y="185.3979">-dateOfSampleAnalysis</text><text fill="#000000" font-family="sans-serif" font-size="16.5" lengthAdjust="spacing" textLength="168" x="19.5" y="206.1519">-timeOfSampleAnalysis</text><text fill="#000000" font-family="sans-serif" font-size="16.5" lengthAdjust="spacing" textLength="42" x="19.5" y="226.9058">-state</text><!--MD5=[ed6624c6556d5e7b1bd23032162d20b7]
class Client--><rect codeLine="17" fill="#FEFECE" filter="url(#f1f2donyg7ik0x)" height="226.0313" id="Client" style="stroke:#A80036;stroke-width:2.25;" width="160.5" x="426" y="10.5"/><ellipse cx="477.525" cy="34.5" fill="#ADD1B2" rx="16.5" ry="16.5" style="stroke:#A80036;stroke-width:1.5;"/><path d="M480.525,29.25 Q480.8297,28.5 481.1813,28.125 Q481.5328,27.75 481.9313,27.75 Q482.6344,27.75 483.0797,28.1719 Q483.525,28.5938 483.525,29.5781 L483.525,31.9219 Q483.525,32.9063 483.1031,33.3281 Q482.6813,33.75 482.025,33.75 Q481.4391,33.75 481.0641,33.4922 Q480.6891,33.2344 480.525,32.5547 Q480.4547,32.0859 480.1969,31.8281 Q479.7281,31.3359 478.8844,31.0547 Q478.0406,30.75 477.1969,30.75 Q476.1422,30.75 475.2516,31.1719 Q474.3844,31.5938 473.7047,32.5313 Q473.025,33.4688 473.025,34.7578 L473.025,36.1406 Q473.025,37.6875 474.2906,38.7188 Q475.5563,39.75 477.8063,39.75 Q479.1422,39.75 480.0797,39.4453 Q480.6188,39.2813 481.2281,38.7422 Q481.6266,38.4375 481.8375,38.3438 Q482.0484,38.25 482.3063,38.25 Q482.7984,38.25 483.15,38.6484 Q483.525,39.0234 483.525,39.5625 Q483.525,40.0781 483.0094,40.6875 Q482.2594,41.5781 481.0641,42.0703 Q479.4938,42.75 477.5719,42.75 Q475.3219,42.75 473.5172,41.8594 Q472.0641,41.1563 471.0328,39.6328 Q470.025,38.1094 470.025,36.3047 L470.025,34.6641 Q470.025,32.7891 470.9156,31.1484 Q471.8297,29.5078 473.4,28.6406 Q474.9938,27.75 476.775,27.75 Q477.8531,27.75 478.7906,28.125 Q479.7281,28.5 480.525,29.25 Z " fill="#000000"/><text fill="#000000" font-family="sans-serif" font-size="18" lengthAdjust="spacing" textLength="48" x="504.975" y="41.8652">Client</text><line style="stroke:#A80036;stroke-width:2.25;" x1="427.5" x2="585" y1="58.5" y2="58.5"/><text fill="#000000" font-family="sans-serif" font-size="16.5" lengthAdjust="spacing" textLength="45" x="435" y="81.6284">-name</text><text fill="#000000" font-family="sans-serif" font-size="16.5" lengthAdjust="spacing" textLength="42" x="435" y="102.3823">-email</text><text fill="#000000" font-family="sans-serif" font-size="16.5" lengthAdjust="spacing" textLength="106.5" x="435" y="123.1362">-phoneNumber</text><text fill="#000000" font-family="sans-serif" font-size="16.5" lengthAdjust="spacing" textLength="33" x="435" y="143.8901">-sex</text><text fill="#000000" font-family="sans-serif" font-size="16.5" lengthAdjust="spacing" textLength="22.5" x="435" y="164.644">-tin</text><text fill="#000000" font-family="sans-serif" font-size="16.5" lengthAdjust="spacing" textLength="70.5" x="435" y="185.3979">-birthDate</text><text fill="#000000" font-family="sans-serif" font-size="16.5" lengthAdjust="spacing" textLength="88.5" x="435" y="206.1519">-nhsNumber</text><text fill="#000000" font-family="sans-serif" font-size="16.5" lengthAdjust="spacing" textLength="142.5" x="435" y="226.9058">-citizenCardNumber</text><!--MD5=[3994f36c72829dbcddd1cf7021dddf61]
link Test to Client--><path codeLine="28" d="M202.53,123.75 C270.6,123.75 361.395,123.75 425.64,123.75 " fill="none" id="Test-Client" style="stroke:#A80036;stroke-width:1.5;"/><polygon fill="#000000" points="262.5,110.5137,248.9324,106.1053,248.9324,114.9221,262.5,110.5137" style="stroke:#000000;stroke-width:1.5;"/><text fill="#000000" font-family="sans-serif" font-size="19.5" lengthAdjust="spacing" textLength="111" x="268.5" y="118.4927">associated a</text><text fill="#000000" font-family="sans-serif" font-size="19.5" lengthAdjust="spacing" textLength="30" x="214.6739" y="145.3596">1..*</text><text fill="#000000" font-family="sans-serif" font-size="19.5" lengthAdjust="spacing" textLength="10.5" x="403.6026" y="145.6721">1</text><!--MD5=[948bdfb4f0dadcd898e3503a3ad004f3]
@startuml
hide methods
left to right direction
skinparam classAttributeIconSize 0


class Test {
-internalCode
-nhsCode
-description
-dateOfSampleCollected
-timeOfSampleCollected
-dateOfSampleAnalysis
-timeOfSampleAnalysis
-state
}

class Client {
   - name
   - email
   - phoneNumber
   - sex
   - tin
   - birthDate
   - nhsNumber
   - citizenCardNumber
}

Test "1..*" - - "1" Client : associated a >



@enduml

PlantUML version 1.2021.5(Sun Apr 25 12:20:28 BST 2021)
(GPL source distribution)
Java Runtime: OpenJDK Runtime Environment
JVM: Dynamic Code Evolution 64-Bit Server VM
Default Encoding: Cp1252
Language: pt
Country: PT
--></g></svg>