<?xml version="1.0" encoding="UTF-8" standalone="no"?><svg xmlns="http://www.w3.org/2000/svg" xmlns:xlink="http://www.w3.org/1999/xlink" contentScriptType="application/ecmascript" contentStyleType="text/css" height="1070px" preserveAspectRatio="none" style="width:1178px;height:1070px;" version="1.1" viewBox="0 0 1178 1070" width="1178.75px" zoomAndPan="magnify"><defs><filter height="300%" id="fazm2w26m2lhf" width="300%" x="-1" y="-1"><feGaussianBlur result="blurOut" stdDeviation="2.5"/><feColorMatrix in="blurOut" result="blurOut2" type="matrix" values="0 0 0 0 0 0 0 0 0 0 0 0 0 0 0 0 0 0 .4 0"/><feOffset dx="5.0" dy="5.0" in="blurOut2" result="blurOut3"/><feBlend in="SourceGraphic" in2="blurOut3" mode="normal"/></filter></defs><g><!--MD5=[5518e6815e09c51d4db6e17774f331d2]
class CreateParameterUI--><rect codeLine="2" fill="#FEFECE" filter="url(#fazm2w26m2lhf)" height="60" id="CreateParameterUI" style="stroke:#A80036;stroke-width:1.875;" width="173.75" x="463.75" y="8.75"/><ellipse cx="482.5" cy="28.75" fill="#ADD1B2" rx="13.75" ry="13.75" style="stroke:#A80036;stroke-width:1.25;"/><path d="M485,24.375 Q485.2539,23.75 485.5469,23.4375 Q485.8398,23.125 486.1719,23.125 Q486.7578,23.125 487.1289,23.4766 Q487.5,23.8281 487.5,24.6484 L487.5,26.6016 Q487.5,27.4219 487.1484,27.7734 Q486.7969,28.125 486.25,28.125 Q485.7617,28.125 485.4492,27.9102 Q485.1367,27.6953 485,27.1289 Q484.9414,26.7383 484.7266,26.5234 Q484.3359,26.1133 483.6328,25.8789 Q482.9297,25.625 482.2266,25.625 Q481.3477,25.625 480.6055,25.9766 Q479.8828,26.3281 479.3164,27.1094 Q478.75,27.8906 478.75,28.9648 L478.75,30.1172 Q478.75,31.4063 479.8047,32.2656 Q480.8594,33.125 482.7344,33.125 Q483.8477,33.125 484.6289,32.8711 Q485.0781,32.7344 485.5859,32.2852 Q485.918,32.0313 486.0938,31.9531 Q486.2695,31.875 486.4844,31.875 Q486.8945,31.875 487.1875,32.207 Q487.5,32.5195 487.5,32.9688 Q487.5,33.3984 487.0703,33.9063 Q486.4453,34.6484 485.4492,35.0586 Q484.1406,35.625 482.5391,35.625 Q480.6641,35.625 479.1602,34.8828 Q477.9492,34.2969 477.0898,33.0273 Q476.25,31.7578 476.25,30.2539 L476.25,28.8867 Q476.25,27.3242 476.9922,25.957 Q477.7539,24.5898 479.0625,23.8672 Q480.3906,23.125 481.875,23.125 Q482.7734,23.125 483.5547,23.4375 Q484.3359,23.75 485,24.375 Z " fill="#000000"/><text fill="#000000" font-family="sans-serif" font-size="15" lengthAdjust="spacing" textLength="133.75" x="500" y="34.8877">CreateParameterUI</text><line style="stroke:#A80036;stroke-width:1.875;" x1="465" x2="636.25" y1="48.75" y2="48.75"/><line style="stroke:#A80036;stroke-width:1.875;" x1="465" x2="636.25" y1="58.75" y2="58.75"/><!--MD5=[b9009a04d919d78a73c2eeec1e385786]
class CreateParameterController--><rect codeLine="5" fill="#FEFECE" filter="url(#fazm2w26m2lhf)" height="111.8848" id="CreateParameterController" style="stroke:#A80036;stroke-width:1.875;" width="421.25" x="340" y="145"/><ellipse cx="452.1875" cy="165" fill="#ADD1B2" rx="13.75" ry="13.75" style="stroke:#A80036;stroke-width:1.25;"/><path d="M454.6875,160.625 Q454.9414,160 455.2344,159.6875 Q455.5273,159.375 455.8594,159.375 Q456.4453,159.375 456.8164,159.7266 Q457.1875,160.0781 457.1875,160.8984 L457.1875,162.8516 Q457.1875,163.6719 456.8359,164.0234 Q456.4844,164.375 455.9375,164.375 Q455.4492,164.375 455.1367,164.1602 Q454.8242,163.9453 454.6875,163.3789 Q454.6289,162.9883 454.4141,162.7734 Q454.0234,162.3633 453.3203,162.1289 Q452.6172,161.875 451.9141,161.875 Q451.0352,161.875 450.293,162.2266 Q449.5703,162.5781 449.0039,163.3594 Q448.4375,164.1406 448.4375,165.2148 L448.4375,166.3672 Q448.4375,167.6563 449.4922,168.5156 Q450.5469,169.375 452.4219,169.375 Q453.5352,169.375 454.3164,169.1211 Q454.7656,168.9844 455.2734,168.5352 Q455.6055,168.2813 455.7813,168.2031 Q455.957,168.125 456.1719,168.125 Q456.582,168.125 456.875,168.457 Q457.1875,168.7695 457.1875,169.2188 Q457.1875,169.6484 456.7578,170.1563 Q456.1328,170.8984 455.1367,171.3086 Q453.8281,171.875 452.2266,171.875 Q450.3516,171.875 448.8477,171.1328 Q447.6367,170.5469 446.7773,169.2773 Q445.9375,168.0078 445.9375,166.5039 L445.9375,165.1367 Q445.9375,163.5742 446.6797,162.207 Q447.4414,160.8398 448.75,160.1172 Q450.0781,159.375 451.5625,159.375 Q452.4609,159.375 453.2422,159.6875 Q454.0234,160 454.6875,160.625 Z " fill="#000000"/><text fill="#000000" font-family="sans-serif" font-size="15" lengthAdjust="spacing" textLength="186.25" x="477.8125" y="171.1377">CreateParameterController</text><line style="stroke:#A80036;stroke-width:1.875;" x1="341.25" x2="760" y1="185" y2="185"/><line style="stroke:#A80036;stroke-width:1.875;" x1="341.25" x2="760" y1="195" y2="195"/><ellipse cx="353.75" cy="208.75" fill="#84BE84" rx="3.75" ry="3.75" style="stroke:#038048;stroke-width:1.25;"/><text fill="#000000" font-family="sans-serif" font-size="13.75" lengthAdjust="spacing" textLength="186.25" x="365" y="214.2737">getListParameterCategoryDto()</text><ellipse cx="353.75" cy="226.0449" fill="#84BE84" rx="3.75" ry="3.75" style="stroke:#038048;stroke-width:1.25;"/><text fill="#000000" font-family="sans-serif" font-size="13.75" lengthAdjust="spacing" textLength="388.75" x="365" y="231.5686">createParameter(code,shortName,description,selectedCategory)</text><ellipse cx="353.75" cy="243.3398" fill="#84BE84" rx="3.75" ry="3.75" style="stroke:#038048;stroke-width:1.25;"/><text fill="#000000" font-family="sans-serif" font-size="13.75" lengthAdjust="spacing" textLength="101.25" x="365" y="248.8635">saveParameter()</text><!--MD5=[02e4b9b7573f1156f41e60aa5b4e25a4]
class Company--><rect codeLine="11" fill="#FEFECE" filter="url(#fazm2w26m2lhf)" height="181.0645" id="Company" style="stroke:#A80036;stroke-width:1.875;" width="210" x="301.875" y="355"/><ellipse cx="368.4375" cy="375" fill="#ADD1B2" rx="13.75" ry="13.75" style="stroke:#A80036;stroke-width:1.25;"/><path d="M370.9375,370.625 Q371.1914,370 371.4844,369.6875 Q371.7773,369.375 372.1094,369.375 Q372.6953,369.375 373.0664,369.7266 Q373.4375,370.0781 373.4375,370.8984 L373.4375,372.8516 Q373.4375,373.6719 373.0859,374.0234 Q372.7344,374.375 372.1875,374.375 Q371.6992,374.375 371.3867,374.1602 Q371.0742,373.9453 370.9375,373.3789 Q370.8789,372.9883 370.6641,372.7734 Q370.2734,372.3633 369.5703,372.1289 Q368.8672,371.875 368.1641,371.875 Q367.2852,371.875 366.543,372.2266 Q365.8203,372.5781 365.2539,373.3594 Q364.6875,374.1406 364.6875,375.2148 L364.6875,376.3672 Q364.6875,377.6563 365.7422,378.5156 Q366.7969,379.375 368.6719,379.375 Q369.7852,379.375 370.5664,379.1211 Q371.0156,378.9844 371.5234,378.5352 Q371.8555,378.2813 372.0313,378.2031 Q372.207,378.125 372.4219,378.125 Q372.832,378.125 373.125,378.457 Q373.4375,378.7695 373.4375,379.2188 Q373.4375,379.6484 373.0078,380.1563 Q372.3828,380.8984 371.3867,381.3086 Q370.0781,381.875 368.4766,381.875 Q366.6016,381.875 365.0977,381.1328 Q363.8867,380.5469 363.0273,379.2773 Q362.1875,378.0078 362.1875,376.5039 L362.1875,375.1367 Q362.1875,373.5742 362.9297,372.207 Q363.6914,370.8398 365,370.1172 Q366.3281,369.375 367.8125,369.375 Q368.7109,369.375 369.4922,369.6875 Q370.2734,370 370.9375,370.625 Z " fill="#000000"/><text fill="#000000" font-family="sans-serif" font-size="15" lengthAdjust="spacing" textLength="66.25" x="394.0625" y="381.1377">Company</text><line style="stroke:#A80036;stroke-width:1.875;" x1="303.125" x2="510.625" y1="395" y2="395"/><rect fill="none" height="7.5" style="stroke:#C82930;stroke-width:1.25;" width="7.5" x="311.875" y="405"/><text fill="#000000" font-family="sans-serif" font-size="13.75" lengthAdjust="spacing" textLength="71.25" x="326.875" y="414.2737">String name</text><rect fill="none" height="7.5" style="stroke:#C82930;stroke-width:1.25;" width="7.5" x="311.875" y="422.2949"/><text fill="#000000" font-family="sans-serif" font-size="13.75" lengthAdjust="spacing" textLength="103.75" x="326.875" y="431.5686">String shortName</text><rect fill="none" height="7.5" style="stroke:#C82930;stroke-width:1.25;" width="7.5" x="311.875" y="439.5898"/><text fill="#000000" font-family="sans-serif" font-size="13.75" lengthAdjust="spacing" textLength="53.75" x="326.875" y="448.8635">category</text><rect fill="none" height="7.5" style="stroke:#C82930;stroke-width:1.25;" width="7.5" x="311.875" y="456.8848"/><text fill="#000000" font-family="sans-serif" font-size="13.75" lengthAdjust="spacing" textLength="50" x="326.875" y="466.1584">address</text><rect fill="none" height="7.5" style="stroke:#C82930;stroke-width:1.25;" width="7.5" x="311.875" y="474.1797"/><text fill="#000000" font-family="sans-serif" font-size="13.75" lengthAdjust="spacing" textLength="81.25" x="326.875" y="483.4534">headquarters</text><line style="stroke:#A80036;stroke-width:1.25;" x1="303.125" x2="510.625" y1="491.4746" y2="491.4746"/><ellipse cx="315.625" cy="505.2246" fill="#84BE84" rx="3.75" ry="3.75" style="stroke:#038048;stroke-width:1.25;"/><text fill="#000000" font-family="sans-serif" font-size="13.75" lengthAdjust="spacing" textLength="177.5" x="326.875" y="510.7483">getParameterCategoryStore()</text><ellipse cx="315.625" cy="522.5195" fill="#84BE84" rx="3.75" ry="3.75" style="stroke:#038048;stroke-width:1.25;"/><text fill="#000000" font-family="sans-serif" font-size="13.75" lengthAdjust="spacing" textLength="122.5" x="326.875" y="528.0432">getParameterStore()</text><!--MD5=[be7802b157a16874d39c59ca0e2b25be]
class ParameterStore--><rect codeLine="22" fill="#FEFECE" filter="url(#fazm2w26m2lhf)" height="146.4746" id="ParameterStore" style="stroke:#A80036;stroke-width:1.875;" width="421.25" x="715" y="372.5"/><ellipse cx="865.9375" cy="392.5" fill="#ADD1B2" rx="13.75" ry="13.75" style="stroke:#A80036;stroke-width:1.25;"/><path d="M868.4375,388.125 Q868.6914,387.5 868.9844,387.1875 Q869.2773,386.875 869.6094,386.875 Q870.1953,386.875 870.5664,387.2266 Q870.9375,387.5781 870.9375,388.3984 L870.9375,390.3516 Q870.9375,391.1719 870.5859,391.5234 Q870.2344,391.875 869.6875,391.875 Q869.1992,391.875 868.8867,391.6602 Q868.5742,391.4453 868.4375,390.8789 Q868.3789,390.4883 868.1641,390.2734 Q867.7734,389.8633 867.0703,389.6289 Q866.3672,389.375 865.6641,389.375 Q864.7852,389.375 864.043,389.7266 Q863.3203,390.0781 862.7539,390.8594 Q862.1875,391.6406 862.1875,392.7148 L862.1875,393.8672 Q862.1875,395.1563 863.2422,396.0156 Q864.2969,396.875 866.1719,396.875 Q867.2852,396.875 868.0664,396.6211 Q868.5156,396.4844 869.0234,396.0352 Q869.3555,395.7813 869.5313,395.7031 Q869.707,395.625 869.9219,395.625 Q870.332,395.625 870.625,395.957 Q870.9375,396.2695 870.9375,396.7188 Q870.9375,397.1484 870.5078,397.6563 Q869.8828,398.3984 868.8867,398.8086 Q867.5781,399.375 865.9766,399.375 Q864.1016,399.375 862.5977,398.6328 Q861.3867,398.0469 860.5273,396.7773 Q859.6875,395.5078 859.6875,394.0039 L859.6875,392.6367 Q859.6875,391.0742 860.4297,389.707 Q861.1914,388.3398 862.5,387.6172 Q863.8281,386.875 865.3125,386.875 Q866.2109,386.875 866.9922,387.1875 Q867.7734,387.5 868.4375,388.125 Z " fill="#000000"/><text fill="#000000" font-family="sans-serif" font-size="15" lengthAdjust="spacing" textLength="108.75" x="891.5625" y="398.6377">ParameterStore</text><line style="stroke:#A80036;stroke-width:1.875;" x1="716.25" x2="1135" y1="412.5" y2="412.5"/><text fill="#000000" font-family="sans-serif" font-size="13.75" lengthAdjust="spacing" textLength="178.75" x="722.5" y="431.7737">List&lt;Parameter&gt; listParameter</text><line style="stroke:#A80036;stroke-width:1.875;" x1="716.25" x2="1135" y1="439.7949" y2="439.7949"/><ellipse cx="728.75" cy="453.5449" fill="#84BE84" rx="3.75" ry="3.75" style="stroke:#038048;stroke-width:1.25;"/><text fill="#000000" font-family="sans-serif" font-size="13.75" lengthAdjust="spacing" textLength="108.75" x="740" y="459.0686">saveParameter(p)</text><ellipse cx="728.75" cy="470.8398" fill="#84BE84" rx="3.75" ry="3.75" style="stroke:#038048;stroke-width:1.25;"/><text fill="#000000" font-family="sans-serif" font-size="13.75" lengthAdjust="spacing" textLength="388.75" x="740" y="476.3635">createParameter(code,shortName,description,selectedCategory)</text><ellipse cx="728.75" cy="488.1348" fill="#84BE84" rx="3.75" ry="3.75" style="stroke:#038048;stroke-width:1.25;"/><text fill="#000000" font-family="sans-serif" font-size="13.75" lengthAdjust="spacing" textLength="125" x="740" y="493.6584">validateParameter(p)</text><ellipse cx="728.75" cy="505.4297" fill="#84BE84" rx="3.75" ry="3.75" style="stroke:#038048;stroke-width:1.25;"/><text fill="#000000" font-family="sans-serif" font-size="13.75" lengthAdjust="spacing" textLength="101.25" x="740" y="510.9534">addParameter(p)</text><!--MD5=[fab6cba0d8a30102bb3e071a5ce00b91]
class ParameterCategoryMapper--><rect codeLine="32" fill="#FEFECE" filter="url(#fazm2w26m2lhf)" height="111.8848" id="ParameterCategoryMapper" style="stroke:#A80036;stroke-width:1.875;" width="343.75" x="8.75" y="641.875"/><ellipse cx="82.8125" cy="661.875" fill="#ADD1B2" rx="13.75" ry="13.75" style="stroke:#A80036;stroke-width:1.25;"/><path d="M85.3125,657.5 Q85.5664,656.875 85.8594,656.5625 Q86.1523,656.25 86.4844,656.25 Q87.0703,656.25 87.4414,656.6016 Q87.8125,656.9531 87.8125,657.7734 L87.8125,659.7266 Q87.8125,660.5469 87.4609,660.8984 Q87.1094,661.25 86.5625,661.25 Q86.0742,661.25 85.7617,661.0352 Q85.4492,660.8203 85.3125,660.2539 Q85.2539,659.8633 85.0391,659.6484 Q84.6484,659.2383 83.9453,659.0039 Q83.2422,658.75 82.5391,658.75 Q81.6602,658.75 80.918,659.1016 Q80.1953,659.4531 79.6289,660.2344 Q79.0625,661.0156 79.0625,662.0898 L79.0625,663.2422 Q79.0625,664.5313 80.1172,665.3906 Q81.1719,666.25 83.0469,666.25 Q84.1602,666.25 84.9414,665.9961 Q85.3906,665.8594 85.8984,665.4102 Q86.2305,665.1563 86.4063,665.0781 Q86.582,665 86.7969,665 Q87.207,665 87.5,665.332 Q87.8125,665.6445 87.8125,666.0938 Q87.8125,666.5234 87.3828,667.0313 Q86.7578,667.7734 85.7617,668.1836 Q84.4531,668.75 82.8516,668.75 Q80.9766,668.75 79.4727,668.0078 Q78.2617,667.4219 77.4023,666.1523 Q76.5625,664.8828 76.5625,663.3789 L76.5625,662.0117 Q76.5625,660.4492 77.3047,659.082 Q78.0664,657.7148 79.375,656.9922 Q80.7031,656.25 82.1875,656.25 Q83.0859,656.25 83.8672,656.5625 Q84.6484,656.875 85.3125,657.5 Z " fill="#000000"/><text fill="#000000" font-family="sans-serif" font-size="15" lengthAdjust="spacing" textLength="185" x="108.4375" y="668.0127">ParameterCategoryMapper</text><line style="stroke:#A80036;stroke-width:1.875;" x1="10" x2="351.25" y1="681.875" y2="681.875"/><text fill="#000000" font-family="sans-serif" font-size="13.75" lengthAdjust="spacing" textLength="283.75" x="16.25" y="701.1487">parameterCategoryDto : ParameterCategoryDto</text><text fill="#000000" font-family="sans-serif" font-size="13.75" lengthAdjust="spacing" textLength="328.75" x="16.25" y="718.4436">List&lt;ParameterCategoryDto&gt; listParameterCategoryDto</text><line style="stroke:#A80036;stroke-width:1.875;" x1="10" x2="351.25" y1="726.4648" y2="726.4648"/><ellipse cx="22.5" cy="740.2148" fill="#84BE84" rx="3.75" ry="3.75" style="stroke:#038048;stroke-width:1.25;"/><text fill="#000000" font-family="sans-serif" font-size="13.75" lengthAdjust="spacing" textLength="180" x="33.75" y="745.7385">toDTO(listParameterCategory)</text><!--MD5=[d802db621b5b215a6f0466f93cefcb42]
class ParameterCategoryStore--><rect codeLine="38" fill="#FEFECE" filter="url(#fazm2w26m2lhf)" height="77.2949" id="ParameterCategoryStore" style="stroke:#A80036;stroke-width:1.875;" width="210" x="485.625" y="659.375"/><ellipse cx="504.375" cy="679.375" fill="#ADD1B2" rx="13.75" ry="13.75" style="stroke:#A80036;stroke-width:1.25;"/><path d="M506.875,675 Q507.1289,674.375 507.4219,674.0625 Q507.7148,673.75 508.0469,673.75 Q508.6328,673.75 509.0039,674.1016 Q509.375,674.4531 509.375,675.2734 L509.375,677.2266 Q509.375,678.0469 509.0234,678.3984 Q508.6719,678.75 508.125,678.75 Q507.6367,678.75 507.3242,678.5352 Q507.0117,678.3203 506.875,677.7539 Q506.8164,677.3633 506.6016,677.1484 Q506.2109,676.7383 505.5078,676.5039 Q504.8047,676.25 504.1016,676.25 Q503.2227,676.25 502.4805,676.6016 Q501.7578,676.9531 501.1914,677.7344 Q500.625,678.5156 500.625,679.5898 L500.625,680.7422 Q500.625,682.0313 501.6797,682.8906 Q502.7344,683.75 504.6094,683.75 Q505.7227,683.75 506.5039,683.4961 Q506.9531,683.3594 507.4609,682.9102 Q507.793,682.6563 507.9688,682.5781 Q508.1445,682.5 508.3594,682.5 Q508.7695,682.5 509.0625,682.832 Q509.375,683.1445 509.375,683.5938 Q509.375,684.0234 508.9453,684.5313 Q508.3203,685.2734 507.3242,685.6836 Q506.0156,686.25 504.4141,686.25 Q502.5391,686.25 501.0352,685.5078 Q499.8242,684.9219 498.9648,683.6523 Q498.125,682.3828 498.125,680.8789 L498.125,679.5117 Q498.125,677.9492 498.8672,676.582 Q499.6289,675.2148 500.9375,674.4922 Q502.2656,673.75 503.75,673.75 Q504.6484,673.75 505.4297,674.0625 Q506.2109,674.375 506.875,675 Z " fill="#000000"/><text fill="#000000" font-family="sans-serif" font-size="15" lengthAdjust="spacing" textLength="170" x="521.875" y="685.5127">ParameterCategoryStore</text><line style="stroke:#A80036;stroke-width:1.875;" x1="486.875" x2="694.375" y1="699.375" y2="699.375"/><line style="stroke:#A80036;stroke-width:1.875;" x1="486.875" x2="694.375" y1="709.375" y2="709.375"/><ellipse cx="499.375" cy="723.125" fill="#84BE84" rx="3.75" ry="3.75" style="stroke:#038048;stroke-width:1.25;"/><text fill="#000000" font-family="sans-serif" font-size="13.75" lengthAdjust="spacing" textLength="166.25" x="510.625" y="728.6487">getParameterCategoryList()</text><!--MD5=[1f6362a5c8f21d8d6a0fce68f3a92a4e]
class Parameter--><rect codeLine="42" fill="#FEFECE" filter="url(#fazm2w26m2lhf)" height="129.1797" id="Parameter" style="stroke:#A80036;stroke-width:1.875;" width="421.25" x="740" y="633.75"/><ellipse cx="909.0625" cy="653.75" fill="#ADD1B2" rx="13.75" ry="13.75" style="stroke:#A80036;stroke-width:1.25;"/><path d="M911.5625,649.375 Q911.8164,648.75 912.1094,648.4375 Q912.4023,648.125 912.7344,648.125 Q913.3203,648.125 913.6914,648.4766 Q914.0625,648.8281 914.0625,649.6484 L914.0625,651.6016 Q914.0625,652.4219 913.7109,652.7734 Q913.3594,653.125 912.8125,653.125 Q912.3242,653.125 912.0117,652.9102 Q911.6992,652.6953 911.5625,652.1289 Q911.5039,651.7383 911.2891,651.5234 Q910.8984,651.1133 910.1953,650.8789 Q909.4922,650.625 908.7891,650.625 Q907.9102,650.625 907.168,650.9766 Q906.4453,651.3281 905.8789,652.1094 Q905.3125,652.8906 905.3125,653.9648 L905.3125,655.1172 Q905.3125,656.4063 906.3672,657.2656 Q907.4219,658.125 909.2969,658.125 Q910.4102,658.125 911.1914,657.8711 Q911.6406,657.7344 912.1484,657.2852 Q912.4805,657.0313 912.6563,656.9531 Q912.832,656.875 913.0469,656.875 Q913.457,656.875 913.75,657.207 Q914.0625,657.5195 914.0625,657.9688 Q914.0625,658.3984 913.6328,658.9063 Q913.0078,659.6484 912.0117,660.0586 Q910.7031,660.625 909.1016,660.625 Q907.2266,660.625 905.7227,659.8828 Q904.5117,659.2969 903.6523,658.0273 Q902.8125,656.7578 902.8125,655.2539 L902.8125,653.8867 Q902.8125,652.3242 903.5547,650.957 Q904.3164,649.5898 905.625,648.8672 Q906.9531,648.125 908.4375,648.125 Q909.3359,648.125 910.1172,648.4375 Q910.8984,648.75 911.5625,649.375 Z " fill="#000000"/><text fill="#000000" font-family="sans-serif" font-size="15" lengthAdjust="spacing" textLength="72.5" x="934.6875" y="659.8877">Parameter</text><line style="stroke:#A80036;stroke-width:1.875;" x1="741.25" x2="1160" y1="673.75" y2="673.75"/><rect fill="none" height="7.5" style="stroke:#C82930;stroke-width:1.25;" width="7.5" x="750" y="683.75"/><text fill="#000000" font-family="sans-serif" font-size="13.75" lengthAdjust="spacing" textLength="68.75" x="765" y="693.0237">String code</text><rect fill="none" height="7.5" style="stroke:#C82930;stroke-width:1.25;" width="7.5" x="750" y="701.0449"/><text fill="#000000" font-family="sans-serif" font-size="13.75" lengthAdjust="spacing" textLength="103.75" x="765" y="710.3186">String shortName</text><rect fill="none" height="7.5" style="stroke:#C82930;stroke-width:1.25;" width="7.5" x="750" y="718.3398"/><text fill="#000000" font-family="sans-serif" font-size="13.75" lengthAdjust="spacing" textLength="105" x="765" y="727.6135">String description</text><line style="stroke:#A80036;stroke-width:1.875;" x1="741.25" x2="1160" y1="735.6348" y2="735.6348"/><ellipse cx="753.75" cy="749.3848" fill="#84BE84" rx="3.75" ry="3.75" style="stroke:#038048;stroke-width:1.25;"/><text fill="#000000" font-family="sans-serif" font-size="13.75" lengthAdjust="spacing" textLength="388.75" x="765" y="754.9084">createParameter(code,shortName,description,selectedCategory)</text><!--MD5=[36afb6bbd95a8ac778c4537c55a683d5]
class ParameterCategory--><rect codeLine="49" fill="#FEFECE" filter="url(#fazm2w26m2lhf)" height="94.5898" id="ParameterCategory" style="stroke:#A80036;stroke-width:1.875;" width="173.75" x="503.75" y="958.75"/><ellipse cx="522.5" cy="978.75" fill="#ADD1B2" rx="13.75" ry="13.75" style="stroke:#A80036;stroke-width:1.25;"/><path d="M525,974.375 Q525.2539,973.75 525.5469,973.4375 Q525.8398,973.125 526.1719,973.125 Q526.7578,973.125 527.1289,973.4766 Q527.5,973.8281 527.5,974.6484 L527.5,976.6016 Q527.5,977.4219 527.1484,977.7734 Q526.7969,978.125 526.25,978.125 Q525.7617,978.125 525.4492,977.9102 Q525.1367,977.6953 525,977.1289 Q524.9414,976.7383 524.7266,976.5234 Q524.3359,976.1133 523.6328,975.8789 Q522.9297,975.625 522.2266,975.625 Q521.3477,975.625 520.6055,975.9766 Q519.8828,976.3281 519.3164,977.1094 Q518.75,977.8906 518.75,978.9648 L518.75,980.1172 Q518.75,981.4063 519.8047,982.2656 Q520.8594,983.125 522.7344,983.125 Q523.8477,983.125 524.6289,982.8711 Q525.0781,982.7344 525.5859,982.2852 Q525.918,982.0313 526.0938,981.9531 Q526.2695,981.875 526.4844,981.875 Q526.8945,981.875 527.1875,982.207 Q527.5,982.5195 527.5,982.9688 Q527.5,983.3984 527.0703,983.9063 Q526.4453,984.6484 525.4492,985.0586 Q524.1406,985.625 522.5391,985.625 Q520.6641,985.625 519.1602,984.8828 Q517.9492,984.2969 517.0898,983.0273 Q516.25,981.7578 516.25,980.2539 L516.25,978.8867 Q516.25,977.3242 516.9922,975.957 Q517.7539,974.5898 519.0625,973.8672 Q520.3906,973.125 521.875,973.125 Q522.7734,973.125 523.5547,973.4375 Q524.3359,973.75 525,974.375 Z " fill="#000000"/><text fill="#000000" font-family="sans-serif" font-size="15" lengthAdjust="spacing" textLength="133.75" x="540" y="984.8877">ParameterCategory</text><line style="stroke:#A80036;stroke-width:1.875;" x1="505" x2="676.25" y1="998.75" y2="998.75"/><rect fill="none" height="7.5" style="stroke:#C82930;stroke-width:1.25;" width="7.5" x="513.75" y="1008.75"/><text fill="#000000" font-family="sans-serif" font-size="13.75" lengthAdjust="spacing" textLength="30" x="528.75" y="1018.0237">code</text><rect fill="none" height="7.5" style="stroke:#C82930;stroke-width:1.25;" width="7.5" x="513.75" y="1026.0449"/><text fill="#000000" font-family="sans-serif" font-size="13.75" lengthAdjust="spacing" textLength="32.5" x="528.75" y="1035.3186">name</text><line style="stroke:#A80036;stroke-width:1.875;" x1="505" x2="676.25" y1="1043.3398" y2="1043.3398"/><!--MD5=[9d3dd688f78c4545f26622cd23f9dd25]
link CreateParameterUI to CreateParameterController--><path codeLine="56" d="M550.625,68.975 C550.625,88.2375 550.625,114.275 550.625,138.0625 " fill="none" id="CreateParameterUI-to-CreateParameterController" style="stroke:#A80036;stroke-width:1.25;stroke-dasharray:7.0,7.0;"/><polygon fill="#A80036" points="550.625,144.7,555.625,133.45,550.625,138.45,545.625,133.45,550.625,144.7" style="stroke:#A80036;stroke-width:1.25;"/><!--MD5=[6d585fb02c26694275539b4f1508918e]
link CreateParameterController to Company--><path codeLine="57" d="M517.65,257.9875 C501.65,284.9125 481.975,318.0125 463.6625,348.825 " fill="none" id="CreateParameterController-to-Company" style="stroke:#A80036;stroke-width:1.25;stroke-dasharray:7.0,7.0;"/><polygon fill="#A80036" points="460.2625,354.5375,470.3102,347.4238,463.4571,349.1656,461.7152,342.3124,460.2625,354.5375" style="stroke:#A80036;stroke-width:1.25;"/><!--MD5=[28500599d7d52b0914bd4c3c68a17d33]
link CreateParameterController to ParameterCategoryMapper--><path codeLine="58" d="M369.9125,257.65 C321.7,280.55 274.1125,312.1125 241.875,355 C180.15,437.1125 173.45,561.3375 175.875,635.2625 " fill="none" id="CreateParameterController-to-ParameterCategoryMapper" style="stroke:#A80036;stroke-width:1.25;stroke-dasharray:7.0,7.0;"/><polygon fill="#A80036" points="176.125,641.8125,180.704,630.3847,175.893,635.5668,170.7109,630.7558,176.125,641.8125" style="stroke:#A80036;stroke-width:1.25;"/><text fill="#000000" font-family="sans-serif" font-size="16.25" lengthAdjust="spacing" textLength="35" x="243.125" y="452.4939">uses</text><!--MD5=[d4acd0f9b6f472dc8c1d58fc6da00ca5]
link CreateParameterController to ParameterCategoryStore--><path codeLine="59" d="M555.1,257.775 C563.1125,356.8125 579.7625,562.575 587.0625,652.8375 " fill="none" id="CreateParameterController-to-ParameterCategoryStore" style="stroke:#A80036;stroke-width:1.25;stroke-dasharray:7.0,7.0;"/><polygon fill="#A80036" points="587.575,659.125,591.6593,647.5112,587.0752,652.895,581.6913,648.3109,587.575,659.125" style="stroke:#A80036;stroke-width:1.25;"/><text fill="#000000" font-family="sans-serif" font-size="16.25" lengthAdjust="spacing" textLength="35" x="579.375" y="452.4939">uses</text><!--MD5=[46706d5726812879537e05899d80bc9e]
link CreateParameterController to ParameterStore--><path codeLine="60" d="M636.1875,257.6875 C687.2875,290.65 752.8875,332.9625 808.725,368.975 " fill="none" id="CreateParameterController-to-ParameterStore" style="stroke:#A80036;stroke-width:1.25;stroke-dasharray:7.0,7.0;"/><polygon fill="#A80036" points="814.0875,372.4375,807.3528,362.1319,808.8383,369.0451,801.925,370.5306,814.0875,372.4375" style="stroke:#A80036;stroke-width:1.25;"/><text fill="#000000" font-family="sans-serif" font-size="16.25" lengthAdjust="spacing" textLength="35" x="729.375" y="313.1189">uses</text><!--MD5=[93b4f25fb503a8e0e9a46b1d30ff3f44]
link Company to ParameterCategory--><path codeLine="61" d="M415.4125,536.475 C423.3,600.675 437.775,688.525 463.125,762.5 C487.8,834.4875 531.4375,911.225 560.6875,958.6375 " fill="none" id="Company-ParameterCategory" style="stroke:#A80036;stroke-width:1.25;"/><polygon fill="#000000" points="495.1587,817.3796,494.9534,805.4932,488.006,807.8839,495.1587,817.3796" style="stroke:#000000;stroke-width:1.25;"/><text fill="#000000" font-family="sans-serif" font-size="16.25" lengthAdjust="spacing" textLength="48.75" x="504.375" y="818.1189">adopts</text><text fill="#000000" font-family="sans-serif" font-size="16.25" lengthAdjust="spacing" textLength="8.75" x="407.0592" y="562.9859">1</text><text fill="#000000" font-family="sans-serif" font-size="16.25" lengthAdjust="spacing" textLength="25" x="528.1283" y="945.3198">1..*</text><!--MD5=[82c70acc399e3350407be80f0be54ad1]
link Company to ParameterCategoryMapper--><path codeLine="62" d="M325.8375,536.425 C295.625,569.8 262.0875,606.8625 234.8625,636.95 " fill="none" id="Company-to-ParameterCategoryMapper" style="stroke:#A80036;stroke-width:1.25;stroke-dasharray:7.0,7.0;"/><polygon fill="#A80036" points="230.55,641.7125,241.8029,636.7191,234.7409,637.0758,234.3842,630.0137,230.55,641.7125" style="stroke:#A80036;stroke-width:1.25;"/><!--MD5=[d53d7490e5836ca5709858d7326f212b]
link Company to ParameterCategoryStore--><path codeLine="63" d="M472.7,536.425 C502.1125,576.45 535.425,621.775 559.125,654.0125 " fill="none" id="Company-to-ParameterCategoryStore" style="stroke:#A80036;stroke-width:1.25;stroke-dasharray:7.0,7.0;"/><polygon fill="#A80036" points="562.8375,659.075,560.1835,647.0534,559.1276,654.0452,552.1358,652.9893,562.8375,659.075" style="stroke:#A80036;stroke-width:1.25;"/><text fill="#000000" font-family="sans-serif" font-size="16.25" lengthAdjust="spacing" textLength="35" x="516.875" y="591.8689">uses</text><!--MD5=[a0992dda039fed1bb57aff5aacace800]
link ParameterStore to Parameter--><path codeLine="64" d="M932.825,518.85 C936.225,552.9375 940.2875,593.475 943.6625,627.25 " fill="none" id="ParameterStore-to-Parameter" style="stroke:#A80036;stroke-width:1.25;stroke-dasharray:7.0,7.0;"/><polygon fill="#A80036" points="944.2875,633.475,948.1699,621.7921,943.6798,627.2546,938.2173,622.7645,944.2875,633.475" style="stroke:#A80036;stroke-width:1.25;"/><text fill="#000000" font-family="sans-serif" font-size="16.25" lengthAdjust="spacing" textLength="150" x="940.625" y="591.8689">Capable of analyzing</text><!--MD5=[d6274e3b73b5bc8f467c6cfbf5bf003e]
link ParameterCategoryStore to ParameterCategory--><path codeLine="65" d="M590.625,737.4625 C590.625,791.5 590.625,890.6375 590.625,951.875 " fill="none" id="ParameterCategoryStore-to-ParameterCategory" style="stroke:#A80036;stroke-width:1.25;stroke-dasharray:7.0,7.0;"/><polygon fill="#A80036" points="590.625,958.4125,595.625,947.1625,590.625,952.1625,585.625,947.1625,590.625,958.4125" style="stroke:#A80036;stroke-width:1.25;"/><text fill="#000000" font-family="sans-serif" font-size="16.25" lengthAdjust="spacing" textLength="48.75" x="591.875" y="878.1189">adopts</text><!--MD5=[6df8849671cb880f6936e94aa30db6f9]
link Parameter to ParameterCategory--><path codeLine="66" d="M876.0375,762.7 C807.25,821.1 706.75,906.4125 645.1875,958.675 " fill="none" id="Parameter-ParameterCategory" style="stroke:#A80036;stroke-width:1.25;"/><polygon fill="#000000" points="759.6104,875.5146,770.6072,870.998,765.8522,865.3968,759.6104,875.5146" style="stroke:#000000;stroke-width:1.25;"/><text fill="#000000" font-family="sans-serif" font-size="16.25" lengthAdjust="spacing" textLength="116.25" x="775.625" y="878.1189">presented under</text><text fill="#000000" font-family="sans-serif" font-size="16.25" lengthAdjust="spacing" textLength="6.25" x="859.3449" y="789.5906">*</text><text fill="#000000" font-family="sans-serif" font-size="16.25" lengthAdjust="spacing" textLength="8.75" x="645.6908" y="945.0068">1</text><!--MD5=[265d534428194b297725a81499ff4469]
@startuml

class CreateParameterUI{
}

class CreateParameterController{
+getListParameterCategoryDto()
+createParameter(code,shortName,description,selectedCategory)
+saveParameter()
}

class Company{
-String name
-String shortName
-category
-address
-headquarters
- -
+getParameterCategoryStore()
+getParameterStore()
}

class ParameterStore {
+saveParameter(p)
+createParameter(code,shortName,description,selectedCategory)
+validateParameter(p)
+addParameter(p)

List<Parameter> listParameter

}

class ParameterCategoryMapper{
+toDTO(listParameterCategory)
parameterCategoryDto : ParameterCategoryDto
List<ParameterCategoryDto> listParameterCategoryDto
}

class ParameterCategoryStore {
+getParameterCategoryList()
}

class Parameter{
- String code
- String shortName
- String description
+createParameter(code,shortName,description,selectedCategory)
}

class ParameterCategory{
- code
- name
}



CreateParameterUI ..> CreateParameterController
CreateParameterController ..> Company
CreateParameterController ..> ParameterCategoryMapper : uses
CreateParameterController ..> ParameterCategoryStore : uses
CreateParameterController ..> ParameterStore : uses
Company "1"- - -"1..*" ParameterCategory : adopts >
Company ..> ParameterCategoryMapper
Company ..>  ParameterCategoryStore : uses
ParameterStore ..> Parameter : Capable of analyzing
ParameterCategoryStore ..>  ParameterCategory : adopts
Parameter "*"- - -"1" ParameterCategory : presented under >

@enduml

PlantUML version 1.2021.4(Sun Apr 04 09:49:39 BST 2021)
(GPL source distribution)
Java Runtime: OpenJDK Runtime Environment
JVM: OpenJDK 64-Bit Server VM
Default Encoding: Cp1252
Language: pt
Country: PT
--></g></svg>