<?xml version="1.0" encoding="UTF-8" standalone="no"?><svg xmlns="http://www.w3.org/2000/svg" xmlns:xlink="http://www.w3.org/1999/xlink" contentScriptType="application/ecmascript" contentStyleType="text/css" height="376.5px" preserveAspectRatio="none" style="width:1188px;height:376px;" version="1.1" viewBox="0 0 1188 376" width="1188px" zoomAndPan="magnify"><defs><filter height="300%" id="f1hr40v5ujl7l8" width="300%" x="-1" y="-1"><feGaussianBlur result="blurOut" stdDeviation="3.0"/><feColorMatrix in="blurOut" result="blurOut2" type="matrix" values="0 0 0 0 0 0 0 0 0 0 0 0 0 0 0 0 0 0 .4 0"/><feOffset dx="6.0" dy="6.0" in="blurOut2" result="blurOut3"/><feBlend in="SourceGraphic" in2="blurOut3" mode="normal"/></filter></defs><g><!--MD5=[da547346deef918ea16944ba046651ef]
class Administrator--><rect codeLine="6" fill="#FEFECE" filter="url(#f1hr40v5ujl7l8)" height="60" id="Administrator" style="stroke:#A80036;stroke-width:2.25;" width="157.5" x="10.5" y="97.5"/><ellipse cx="33" cy="121.5" fill="#ADD1B2" rx="16.5" ry="16.5" style="stroke:#A80036;stroke-width:1.5;"/><path d="M36,116.25 Q36.3047,115.5 36.6563,115.125 Q37.0078,114.75 37.4063,114.75 Q38.1094,114.75 38.5547,115.1719 Q39,115.5938 39,116.5781 L39,118.9219 Q39,119.9063 38.5781,120.3281 Q38.1563,120.75 37.5,120.75 Q36.9141,120.75 36.5391,120.4922 Q36.1641,120.2344 36,119.5547 Q35.9297,119.0859 35.6719,118.8281 Q35.2031,118.3359 34.3594,118.0547 Q33.5156,117.75 32.6719,117.75 Q31.6172,117.75 30.7266,118.1719 Q29.8594,118.5938 29.1797,119.5313 Q28.5,120.4688 28.5,121.7578 L28.5,123.1406 Q28.5,124.6875 29.7656,125.7188 Q31.0313,126.75 33.2813,126.75 Q34.6172,126.75 35.5547,126.4453 Q36.0938,126.2813 36.7031,125.7422 Q37.1016,125.4375 37.3125,125.3438 Q37.5234,125.25 37.7813,125.25 Q38.2734,125.25 38.625,125.6484 Q39,126.0234 39,126.5625 Q39,127.0781 38.4844,127.6875 Q37.7344,128.5781 36.5391,129.0703 Q34.9688,129.75 33.0469,129.75 Q30.7969,129.75 28.9922,128.8594 Q27.5391,128.1563 26.5078,126.6328 Q25.5,125.1094 25.5,123.3047 L25.5,121.6641 Q25.5,119.7891 26.3906,118.1484 Q27.3047,116.5078 28.875,115.6406 Q30.4688,114.75 32.25,114.75 Q33.3281,114.75 34.2656,115.125 Q35.2031,115.5 36,116.25 Z " fill="#000000"/><text fill="#000000" font-family="sans-serif" font-size="18" lengthAdjust="spacing" textLength="109.5" x="54" y="128.8652">Administrator</text><line style="stroke:#A80036;stroke-width:2.25;" x1="12" x2="166.5" y1="145.5" y2="145.5"/><!--MD5=[02e4b9b7573f1156f41e60aa5b4e25a4]
class Company--><rect codeLine="24" fill="#FEFECE" filter="url(#f1hr40v5ujl7l8)" height="80.7539" id="Company" style="stroke:#A80036;stroke-width:2.25;" width="127.5" x="363.75" y="10.5"/><ellipse cx="386.25" cy="34.5" fill="#ADD1B2" rx="16.5" ry="16.5" style="stroke:#A80036;stroke-width:1.5;"/><path d="M389.25,29.25 Q389.5547,28.5 389.9063,28.125 Q390.2578,27.75 390.6563,27.75 Q391.3594,27.75 391.8047,28.1719 Q392.25,28.5938 392.25,29.5781 L392.25,31.9219 Q392.25,32.9063 391.8281,33.3281 Q391.4063,33.75 390.75,33.75 Q390.1641,33.75 389.7891,33.4922 Q389.4141,33.2344 389.25,32.5547 Q389.1797,32.0859 388.9219,31.8281 Q388.4531,31.3359 387.6094,31.0547 Q386.7656,30.75 385.9219,30.75 Q384.8672,30.75 383.9766,31.1719 Q383.1094,31.5938 382.4297,32.5313 Q381.75,33.4688 381.75,34.7578 L381.75,36.1406 Q381.75,37.6875 383.0156,38.7188 Q384.2813,39.75 386.5313,39.75 Q387.8672,39.75 388.8047,39.4453 Q389.3438,39.2813 389.9531,38.7422 Q390.3516,38.4375 390.5625,38.3438 Q390.7734,38.25 391.0313,38.25 Q391.5234,38.25 391.875,38.6484 Q392.25,39.0234 392.25,39.5625 Q392.25,40.0781 391.7344,40.6875 Q390.9844,41.5781 389.7891,42.0703 Q388.2188,42.75 386.2969,42.75 Q384.0469,42.75 382.2422,41.8594 Q380.7891,41.1563 379.7578,39.6328 Q378.75,38.1094 378.75,36.3047 L378.75,34.6641 Q378.75,32.7891 379.6406,31.1484 Q380.5547,29.5078 382.125,28.6406 Q383.7188,27.75 385.5,27.75 Q386.5781,27.75 387.5156,28.125 Q388.4531,28.5 389.25,29.25 Z " fill="#000000"/><text fill="#000000" font-family="sans-serif" font-size="18" lengthAdjust="spacing" textLength="79.5" x="407.25" y="41.8652">Company</text><line style="stroke:#A80036;stroke-width:2.25;" x1="365.25" x2="489.75" y1="58.5" y2="58.5"/><text fill="#000000" font-family="sans-serif" font-size="16.5" lengthAdjust="spacing" textLength="88.5" x="372.75" y="81.6284">-designation</text><!--MD5=[7421f545a0d8420c5bec41e74b387d9c]
class Employee--><rect codeLine="15" fill="#FEFECE" filter="url(#f1hr40v5ujl7l8)" height="184.5234" id="Employee" style="stroke:#A80036;stroke-width:2.25;" width="130.5" x="687" y="95.25"/><ellipse cx="709.5" cy="119.25" fill="#ADD1B2" rx="16.5" ry="16.5" style="stroke:#A80036;stroke-width:1.5;"/><path d="M712.5,114 Q712.8047,113.25 713.1563,112.875 Q713.5078,112.5 713.9063,112.5 Q714.6094,112.5 715.0547,112.9219 Q715.5,113.3438 715.5,114.3281 L715.5,116.6719 Q715.5,117.6563 715.0781,118.0781 Q714.6563,118.5 714,118.5 Q713.4141,118.5 713.0391,118.2422 Q712.6641,117.9844 712.5,117.3047 Q712.4297,116.8359 712.1719,116.5781 Q711.7031,116.0859 710.8594,115.8047 Q710.0156,115.5 709.1719,115.5 Q708.1172,115.5 707.2266,115.9219 Q706.3594,116.3438 705.6797,117.2813 Q705,118.2188 705,119.5078 L705,120.8906 Q705,122.4375 706.2656,123.4688 Q707.5313,124.5 709.7813,124.5 Q711.1172,124.5 712.0547,124.1953 Q712.5938,124.0313 713.2031,123.4922 Q713.6016,123.1875 713.8125,123.0938 Q714.0234,123 714.2813,123 Q714.7734,123 715.125,123.3984 Q715.5,123.7734 715.5,124.3125 Q715.5,124.8281 714.9844,125.4375 Q714.2344,126.3281 713.0391,126.8203 Q711.4688,127.5 709.5469,127.5 Q707.2969,127.5 705.4922,126.6094 Q704.0391,125.9063 703.0078,124.3828 Q702,122.8594 702,121.0547 L702,119.4141 Q702,117.5391 702.8906,115.8984 Q703.8047,114.2578 705.375,113.3906 Q706.9688,112.5 708.75,112.5 Q709.8281,112.5 710.7656,112.875 Q711.7031,113.25 712.5,114 Z " fill="#000000"/><text fill="#000000" font-family="sans-serif" font-size="18" lengthAdjust="spacing" textLength="82.5" x="730.5" y="126.6152">Employee</text><line style="stroke:#A80036;stroke-width:2.25;" x1="688.5" x2="816" y1="143.25" y2="143.25"/><text fill="#000000" font-family="sans-serif" font-size="16.5" lengthAdjust="spacing" textLength="45" x="696" y="166.3784">-name</text><text fill="#000000" font-family="sans-serif" font-size="16.5" lengthAdjust="spacing" textLength="66" x="696" y="187.1323">-address</text><text fill="#000000" font-family="sans-serif" font-size="16.5" lengthAdjust="spacing" textLength="106.5" x="696" y="207.8862">-phoneNumber</text><text fill="#000000" font-family="sans-serif" font-size="16.5" lengthAdjust="spacing" textLength="42" x="696" y="228.6401">-email</text><text fill="#000000" font-family="sans-serif" font-size="16.5" lengthAdjust="spacing" textLength="87" x="696" y="249.394">-employeeId</text><text fill="#000000" font-family="sans-serif" font-size="16.5" lengthAdjust="spacing" textLength="70.5" x="696" y="270.1479">-socCode</text><!--MD5=[12e90e92236ca84f203192a07d84ec5e]
class OrganizationRole--><rect codeLine="11" fill="#FEFECE" filter="url(#f1hr40v5ujl7l8)" height="80.7539" id="OrganizationRole" style="stroke:#A80036;stroke-width:2.25;" width="190.5" x="976.5" y="48"/><ellipse cx="999" cy="72" fill="#ADD1B2" rx="16.5" ry="16.5" style="stroke:#A80036;stroke-width:1.5;"/><path d="M1002,66.75 Q1002.3047,66 1002.6563,65.625 Q1003.0078,65.25 1003.4063,65.25 Q1004.1094,65.25 1004.5547,65.6719 Q1005,66.0938 1005,67.0781 L1005,69.4219 Q1005,70.4063 1004.5781,70.8281 Q1004.1563,71.25 1003.5,71.25 Q1002.9141,71.25 1002.5391,70.9922 Q1002.1641,70.7344 1002,70.0547 Q1001.9297,69.5859 1001.6719,69.3281 Q1001.2031,68.8359 1000.3594,68.5547 Q999.5156,68.25 998.6719,68.25 Q997.6172,68.25 996.7266,68.6719 Q995.8594,69.0938 995.1797,70.0313 Q994.5,70.9688 994.5,72.2578 L994.5,73.6406 Q994.5,75.1875 995.7656,76.2188 Q997.0313,77.25 999.2813,77.25 Q1000.6172,77.25 1001.5547,76.9453 Q1002.0938,76.7813 1002.7031,76.2422 Q1003.1016,75.9375 1003.3125,75.8438 Q1003.5234,75.75 1003.7813,75.75 Q1004.2734,75.75 1004.625,76.1484 Q1005,76.5234 1005,77.0625 Q1005,77.5781 1004.4844,78.1875 Q1003.7344,79.0781 1002.5391,79.5703 Q1000.9688,80.25 999.0469,80.25 Q996.7969,80.25 994.9922,79.3594 Q993.5391,78.6563 992.5078,77.1328 Q991.5,75.6094 991.5,73.8047 L991.5,72.1641 Q991.5,70.2891 992.3906,68.6484 Q993.3047,67.0078 994.875,66.1406 Q996.4688,65.25 998.25,65.25 Q999.3281,65.25 1000.2656,65.625 Q1001.2031,66 1002,66.75 Z " fill="#000000"/><text fill="#000000" font-family="sans-serif" font-size="18" lengthAdjust="spacing" textLength="142.5" x="1020" y="79.3652">OrganizationRole</text><line style="stroke:#A80036;stroke-width:2.25;" x1="978" x2="1165.5" y1="96" y2="96"/><text fill="#000000" font-family="sans-serif" font-size="16.5" lengthAdjust="spacing" textLength="85.5" x="985.5" y="119.1284">-description</text><!--MD5=[7d96fd15f3014691d2fcaf89c5791e2a]
class SpecialistDoctor--><rect codeLine="30" fill="#FEFECE" filter="url(#f1hr40v5ujl7l8)" height="80.7539" id="SpecialistDoctor" style="stroke:#A80036;stroke-width:2.25;" width="183" x="336" y="276"/><ellipse cx="358.5" cy="300" fill="#ADD1B2" rx="16.5" ry="16.5" style="stroke:#A80036;stroke-width:1.5;"/><path d="M361.5,294.75 Q361.8047,294 362.1563,293.625 Q362.5078,293.25 362.9063,293.25 Q363.6094,293.25 364.0547,293.6719 Q364.5,294.0938 364.5,295.0781 L364.5,297.4219 Q364.5,298.4063 364.0781,298.8281 Q363.6563,299.25 363,299.25 Q362.4141,299.25 362.0391,298.9922 Q361.6641,298.7344 361.5,298.0547 Q361.4297,297.5859 361.1719,297.3281 Q360.7031,296.8359 359.8594,296.5547 Q359.0156,296.25 358.1719,296.25 Q357.1172,296.25 356.2266,296.6719 Q355.3594,297.0938 354.6797,298.0313 Q354,298.9688 354,300.2578 L354,301.6406 Q354,303.1875 355.2656,304.2188 Q356.5313,305.25 358.7813,305.25 Q360.1172,305.25 361.0547,304.9453 Q361.5938,304.7813 362.2031,304.2422 Q362.6016,303.9375 362.8125,303.8438 Q363.0234,303.75 363.2813,303.75 Q363.7734,303.75 364.125,304.1484 Q364.5,304.5234 364.5,305.0625 Q364.5,305.5781 363.9844,306.1875 Q363.2344,307.0781 362.0391,307.5703 Q360.4688,308.25 358.5469,308.25 Q356.2969,308.25 354.4922,307.3594 Q353.0391,306.6563 352.0078,305.1328 Q351,303.6094 351,301.8047 L351,300.1641 Q351,298.2891 351.8906,296.6484 Q352.8047,295.0078 354.375,294.1406 Q355.9688,293.25 357.75,293.25 Q358.8281,293.25 359.7656,293.625 Q360.7031,294 361.5,294.75 Z " fill="#000000"/><text fill="#000000" font-family="sans-serif" font-size="18" lengthAdjust="spacing" textLength="135" x="379.5" y="307.3652">SpecialistDoctor</text><line style="stroke:#A80036;stroke-width:2.25;" x1="337.5" x2="517.5" y1="324" y2="324"/><text fill="#000000" font-family="sans-serif" font-size="16.5" lengthAdjust="spacing" textLength="147" x="345" y="347.1284">-doctorIndexNumber</text><!--MD5=[304db59a05c0da2cdffc3c882f2d9e9b]
link Administrator to Company--><path codeLine="34" d="M168.09,109.86 C227.445,96.3 308.355,77.85 363.615,65.235 " fill="none" id="Administrator-Company" style="stroke:#A80036;stroke-width:1.5;"/><polygon fill="#000000" points="213.188,70.9325,227.3964,72.2114,225.4346,63.6157,213.188,70.9325" style="stroke:#000000;stroke-width:1.5;"/><text fill="#000000" font-family="sans-serif" font-size="19.5" lengthAdjust="spacing" textLength="55.5" x="234" y="77.2427">knows</text><text fill="#000000" font-family="sans-serif" font-size="19.5" lengthAdjust="spacing" textLength="7.5" x="180.2204" y="129.313">*</text><text fill="#000000" font-family="sans-serif" font-size="19.5" lengthAdjust="spacing" textLength="10.5" x="341.2324" y="90.0533">1</text><!--MD5=[09366576ee87d48d594df10cacc83f45]
link Company to Employee--><path codeLine="35" d="M491.7,72.81 C534.525,88.2 592.275,109.935 642,132 C656.73,138.54 672.285,146.085 686.895,153.465 " fill="none" id="Company-Employee" style="stroke:#A80036;stroke-width:1.5;"/><polygon fill="#000000" points="578.4316,91.6278,567.5757,82.3723,564.2087,90.5208,578.4316,91.6278" style="stroke:#000000;stroke-width:1.5;"/><text fill="#000000" font-family="sans-serif" font-size="19.5" lengthAdjust="spacing" textLength="55.5" x="585" y="96.7427">knows</text><text fill="#000000" font-family="sans-serif" font-size="19.5" lengthAdjust="spacing" textLength="10.5" x="503.2027" y="98.7165">1</text><text fill="#000000" font-family="sans-serif" font-size="19.5" lengthAdjust="spacing" textLength="7.5" x="667.5176" y="169.9637">*</text><!--MD5=[8f7dd94d56b58fc07b233ccd3dd98f8c]
link Administrator to Employee--><path codeLine="36" d="M168.405,134.565 C300.105,146.535 564.81,170.595 686.67,181.68 " fill="none" id="Administrator-Employee" style="stroke:#A80036;stroke-width:1.5;"/><polygon fill="#000000" points="398.9692,138.9427,385.8564,133.324,385.0582,142.1046,398.9692,138.9427" style="stroke:#000000;stroke-width:1.5;"/><text fill="#000000" font-family="sans-serif" font-size="19.5" lengthAdjust="spacing" textLength="64.5" x="405" y="146.2427">register</text><text fill="#000000" font-family="sans-serif" font-size="19.5" lengthAdjust="spacing" textLength="10.5" x="179.7469" y="157.405">1</text><text fill="#000000" font-family="sans-serif" font-size="19.5" lengthAdjust="spacing" textLength="7.5" x="667.6872" y="202.988">*</text><!--MD5=[241b49406f7a05442b1e788ffaf3787c]
link Employee to OrganizationRole--><path codeLine="38" d="M817.8,167.46 C863.31,153.225 925.185,133.875 976.275,117.9 " fill="none" id="Employee-OrganizationRole" style="stroke:#A80036;stroke-width:1.5;"/><polygon fill="#000000" points="877.1581,118.0251,862.8932,117.8673,865.5247,126.2822,877.1581,118.0251" style="stroke:#000000;stroke-width:1.5;"/><text fill="#000000" font-family="sans-serif" font-size="19.5" lengthAdjust="spacing" textLength="46.5" x="883.5" y="128.2427">plays</text><text fill="#000000" font-family="sans-serif" font-size="19.5" lengthAdjust="spacing" textLength="7.5" x="829.7109" y="186.3641">*</text><text fill="#000000" font-family="sans-serif" font-size="19.5" lengthAdjust="spacing" textLength="10.5" x="954.1287" y="142.9743">1</text><!--MD5=[e66f8c4fa516e197a55cf1b13c3927b3]
link SpecialistDoctor to Employee--><path codeLine="39" d="M519.06,280.395 C562.62,262.935 614.835,241.995 658.65,224.43 " fill="none" id="SpecialistDoctor-to-Employee" style="stroke:#A80036;stroke-width:1.5;"/><polygon fill="none" points="655.005,214.575,686.76,213.165,662.82,234.075,655.005,214.575" style="stroke:#A80036;stroke-width:1.5;"/><!--MD5=[9abf40ff36e4aa94ac761b2803c1dce8]
link Company to OrganizationRole--><path codeLine="40" d="M491.61,53.31 C568.425,56.28 702.6,61.905 817.5,69 C870,72.24 928.56,76.71 976.08,80.55 " fill="none" id="Company-OrganizationRole" style="stroke:#A80036;stroke-width:1.5;"/><polygon fill="#000000" points="702.7382,50.1847,689.4394,45.0216,688.9445,53.8245,702.7382,50.1847" style="stroke:#000000;stroke-width:1.5;"/><text fill="#000000" font-family="sans-serif" font-size="19.5" lengthAdjust="spacing" textLength="106.5" x="708.75" y="57.7427">comprehend</text><!--MD5=[9157b019bbdc17ea87ca4d57eafb015d]
@startuml
'https://plantuml.com/class-diagram
hide methods
left to right direction
skinparam classAttributeIconSize 0

class Administrator
class Company
class Employee
class OrganizationRole

class OrganizationRole{
-description
}

class Employee{
-name
-address
-phoneNumber
-email
-employeeId
-socCode
}

class Company{
-designation
}



class SpecialistDoctor{
-doctorIndexNumber
}

Administrator "*"- -"1" Company : < knows
Company "1"- -"*" Employee : knows >
Administrator "1"- -"*" Employee : register >

Employee "*"- -"1" OrganizationRole: plays >
SpecialistDoctor - -|> Employee
Company - - OrganizationRole : comprehend >
@enduml

@startuml
hide methods
left to right direction
skinparam classAttributeIconSize 0

class Administrator
class Company
class Employee
class OrganizationRole

class OrganizationRole{
-description
}

class Employee{
-name
-address
-phoneNumber
-email
-employeeId
-socCode
}

class Company{
-designation
}



class SpecialistDoctor{
-doctorIndexNumber
}

Administrator "*"- -"1" Company : < knows
Company "1"- -"*" Employee : knows >
Administrator "1"- -"*" Employee : register >

Employee "*"- -"1" OrganizationRole: plays >
SpecialistDoctor - -|> Employee
Company - - OrganizationRole : comprehend >
@enduml

PlantUML version 1.2021.5(Sun Apr 25 12:20:28 BST 2021)
(GPL source distribution)
Java Runtime: OpenJDK Runtime Environment
JVM: Dynamic Code Evolution 64-Bit Server VM
Default Encoding: Cp1252
Language: pt
Country: PT
--></g></svg>