<?xml version="1.0" encoding="UTF-8" standalone="no"?><svg xmlns="http://www.w3.org/2000/svg" xmlns:xlink="http://www.w3.org/1999/xlink" contentScriptType="application/ecmascript" contentStyleType="text/css" height="235.5px" preserveAspectRatio="none" style="width:1272px;height:235px;" version="1.1" viewBox="0 0 1272 235" width="1272px" zoomAndPan="magnify"><defs><filter height="300%" id="f1pb7i3fl83v7l" width="300%" x="-1" y="-1"><feGaussianBlur result="blurOut" stdDeviation="3.0"/><feColorMatrix in="blurOut" result="blurOut2" type="matrix" values="0 0 0 0 0 0 0 0 0 0 0 0 0 0 0 0 0 0 .4 0"/><feOffset dx="6.0" dy="6.0" in="blurOut2" result="blurOut3"/><feBlend in="SourceGraphic" in2="blurOut3" mode="normal"/></filter></defs><g><!--MD5=[da547346deef918ea16944ba046651ef]
class Administrator--><rect codeLine="6" fill="#FEFECE" filter="url(#f1pb7i3fl83v7l)" height="60" id="Administrator" style="stroke:#A80036;stroke-width:2.25;" width="157.5" x="10.5" y="83.25"/><ellipse cx="33" cy="107.25" fill="#ADD1B2" rx="16.5" ry="16.5" style="stroke:#A80036;stroke-width:1.5;"/><path d="M36,102 Q36.3047,101.25 36.6563,100.875 Q37.0078,100.5 37.4063,100.5 Q38.1094,100.5 38.5547,100.9219 Q39,101.3438 39,102.3281 L39,104.6719 Q39,105.6563 38.5781,106.0781 Q38.1563,106.5 37.5,106.5 Q36.9141,106.5 36.5391,106.2422 Q36.1641,105.9844 36,105.3047 Q35.9297,104.8359 35.6719,104.5781 Q35.2031,104.0859 34.3594,103.8047 Q33.5156,103.5 32.6719,103.5 Q31.6172,103.5 30.7266,103.9219 Q29.8594,104.3438 29.1797,105.2813 Q28.5,106.2188 28.5,107.5078 L28.5,108.8906 Q28.5,110.4375 29.7656,111.4688 Q31.0313,112.5 33.2813,112.5 Q34.6172,112.5 35.5547,112.1953 Q36.0938,112.0313 36.7031,111.4922 Q37.1016,111.1875 37.3125,111.0938 Q37.5234,111 37.7813,111 Q38.2734,111 38.625,111.3984 Q39,111.7734 39,112.3125 Q39,112.8281 38.4844,113.4375 Q37.7344,114.3281 36.5391,114.8203 Q34.9688,115.5 33.0469,115.5 Q30.7969,115.5 28.9922,114.6094 Q27.5391,113.9063 26.5078,112.3828 Q25.5,110.8594 25.5,109.0547 L25.5,107.4141 Q25.5,105.5391 26.3906,103.8984 Q27.3047,102.2578 28.875,101.3906 Q30.4688,100.5 32.25,100.5 Q33.3281,100.5 34.2656,100.875 Q35.2031,101.25 36,102 Z " fill="#000000"/><text fill="#000000" font-family="sans-serif" font-size="18" lengthAdjust="spacing" textLength="109.5" x="54" y="114.6152">Administrator</text><line style="stroke:#A80036;stroke-width:2.25;" x1="12" x2="166.5" y1="131.25" y2="131.25"/><!--MD5=[02e4b9b7573f1156f41e60aa5b4e25a4]
class Company--><rect codeLine="7" fill="#FEFECE" filter="url(#f1pb7i3fl83v7l)" height="60" id="Company" style="stroke:#A80036;stroke-width:2.25;" width="127.5" x="358.5" y="17.25"/><ellipse cx="381" cy="41.25" fill="#ADD1B2" rx="16.5" ry="16.5" style="stroke:#A80036;stroke-width:1.5;"/><path d="M384,36 Q384.3047,35.25 384.6563,34.875 Q385.0078,34.5 385.4063,34.5 Q386.1094,34.5 386.5547,34.9219 Q387,35.3438 387,36.3281 L387,38.6719 Q387,39.6563 386.5781,40.0781 Q386.1563,40.5 385.5,40.5 Q384.9141,40.5 384.5391,40.2422 Q384.1641,39.9844 384,39.3047 Q383.9297,38.8359 383.6719,38.5781 Q383.2031,38.0859 382.3594,37.8047 Q381.5156,37.5 380.6719,37.5 Q379.6172,37.5 378.7266,37.9219 Q377.8594,38.3438 377.1797,39.2813 Q376.5,40.2188 376.5,41.5078 L376.5,42.8906 Q376.5,44.4375 377.7656,45.4688 Q379.0313,46.5 381.2813,46.5 Q382.6172,46.5 383.5547,46.1953 Q384.0938,46.0313 384.7031,45.4922 Q385.1016,45.1875 385.3125,45.0938 Q385.5234,45 385.7813,45 Q386.2734,45 386.625,45.3984 Q387,45.7734 387,46.3125 Q387,46.8281 386.4844,47.4375 Q385.7344,48.3281 384.5391,48.8203 Q382.9688,49.5 381.0469,49.5 Q378.7969,49.5 376.9922,48.6094 Q375.5391,47.9063 374.5078,46.3828 Q373.5,44.8594 373.5,43.0547 L373.5,41.4141 Q373.5,39.5391 374.3906,37.8984 Q375.3047,36.2578 376.875,35.3906 Q378.4688,34.5 380.25,34.5 Q381.3281,34.5 382.2656,34.875 Q383.2031,35.25 384,36 Z " fill="#000000"/><text fill="#000000" font-family="sans-serif" font-size="18" lengthAdjust="spacing" textLength="79.5" x="402" y="48.6152">Company</text><line style="stroke:#A80036;stroke-width:2.25;" x1="360" x2="484.5" y1="65.25" y2="65.25"/><!--MD5=[7421f545a0d8420c5bec41e74b387d9c]
class Employee--><rect codeLine="18" fill="#FEFECE" filter="url(#f1pb7i3fl83v7l)" height="205.2773" id="Employee" style="stroke:#A80036;stroke-width:2.25;" width="144" x="654" y="10.5"/><ellipse cx="682.575" cy="34.5" fill="#ADD1B2" rx="16.5" ry="16.5" style="stroke:#A80036;stroke-width:1.5;"/><path d="M685.575,29.25 Q685.8797,28.5 686.2313,28.125 Q686.5828,27.75 686.9813,27.75 Q687.6844,27.75 688.1297,28.1719 Q688.575,28.5938 688.575,29.5781 L688.575,31.9219 Q688.575,32.9063 688.1531,33.3281 Q687.7313,33.75 687.075,33.75 Q686.4891,33.75 686.1141,33.4922 Q685.7391,33.2344 685.575,32.5547 Q685.5047,32.0859 685.2469,31.8281 Q684.7781,31.3359 683.9344,31.0547 Q683.0906,30.75 682.2469,30.75 Q681.1922,30.75 680.3016,31.1719 Q679.4344,31.5938 678.7547,32.5313 Q678.075,33.4688 678.075,34.7578 L678.075,36.1406 Q678.075,37.6875 679.3406,38.7188 Q680.6063,39.75 682.8563,39.75 Q684.1922,39.75 685.1297,39.4453 Q685.6688,39.2813 686.2781,38.7422 Q686.6766,38.4375 686.8875,38.3438 Q687.0984,38.25 687.3563,38.25 Q687.8484,38.25 688.2,38.6484 Q688.575,39.0234 688.575,39.5625 Q688.575,40.0781 688.0594,40.6875 Q687.3094,41.5781 686.1141,42.0703 Q684.5438,42.75 682.6219,42.75 Q680.3719,42.75 678.5672,41.8594 Q677.1141,41.1563 676.0828,39.6328 Q675.075,38.1094 675.075,36.3047 L675.075,34.6641 Q675.075,32.7891 675.9656,31.1484 Q676.8797,29.5078 678.45,28.6406 Q680.0438,27.75 681.825,27.75 Q682.9031,27.75 683.8406,28.125 Q684.7781,28.5 685.575,29.25 Z " fill="#000000"/><text fill="#000000" font-family="sans-serif" font-size="18" lengthAdjust="spacing" textLength="82.5" x="704.925" y="41.8652">Employee</text><line style="stroke:#A80036;stroke-width:2.25;" x1="655.5" x2="796.5" y1="58.5" y2="58.5"/><text fill="#000000" font-family="sans-serif" font-size="16.5" lengthAdjust="spacing" textLength="45" x="663" y="81.6284">-name</text><text fill="#000000" font-family="sans-serif" font-size="16.5" lengthAdjust="spacing" textLength="66" x="663" y="102.3823">-address</text><text fill="#000000" font-family="sans-serif" font-size="16.5" lengthAdjust="spacing" textLength="106.5" x="663" y="123.1362">-phoneNumber</text><text fill="#000000" font-family="sans-serif" font-size="16.5" lengthAdjust="spacing" textLength="42" x="663" y="143.8901">-email</text><text fill="#000000" font-family="sans-serif" font-size="16.5" lengthAdjust="spacing" textLength="87" x="663" y="164.644">-employeeId</text><text fill="#000000" font-family="sans-serif" font-size="16.5" lengthAdjust="spacing" textLength="126" x="663" y="185.3979">-organizationRole</text><text fill="#000000" font-family="sans-serif" font-size="16.5" lengthAdjust="spacing" textLength="70.5" x="663" y="206.1519">-socCode</text><!--MD5=[3fd616f346a44cd59a91eb10b19e157c]
class User--><rect codeLine="13" fill="#FEFECE" filter="url(#f1pb7i3fl83v7l)" height="122.2617" id="User" style="stroke:#A80036;stroke-width:2.25;" width="99" x="889.5" y="51.75"/><ellipse cx="916.725" cy="75.75" fill="#ADD1B2" rx="16.5" ry="16.5" style="stroke:#A80036;stroke-width:1.5;"/><path d="M919.725,70.5 Q920.0297,69.75 920.3812,69.375 Q920.7328,69 921.1312,69 Q921.8344,69 922.2797,69.4219 Q922.725,69.8438 922.725,70.8281 L922.725,73.1719 Q922.725,74.1563 922.3031,74.5781 Q921.8812,75 921.225,75 Q920.6391,75 920.2641,74.7422 Q919.8891,74.4844 919.725,73.8047 Q919.6547,73.3359 919.3969,73.0781 Q918.9281,72.5859 918.0844,72.3047 Q917.2406,72 916.3969,72 Q915.3422,72 914.4516,72.4219 Q913.5844,72.8438 912.9047,73.7813 Q912.225,74.7188 912.225,76.0078 L912.225,77.3906 Q912.225,78.9375 913.4906,79.9688 Q914.7562,81 917.0062,81 Q918.3422,81 919.2797,80.6953 Q919.8187,80.5313 920.4281,79.9922 Q920.8266,79.6875 921.0375,79.5938 Q921.2484,79.5 921.5062,79.5 Q921.9984,79.5 922.35,79.8984 Q922.725,80.2734 922.725,80.8125 Q922.725,81.3281 922.2094,81.9375 Q921.4594,82.8281 920.2641,83.3203 Q918.6937,84 916.7719,84 Q914.5219,84 912.7172,83.1094 Q911.2641,82.4063 910.2328,80.8828 Q909.225,79.3594 909.225,77.5547 L909.225,75.9141 Q909.225,74.0391 910.1156,72.3984 Q911.0297,70.7578 912.6,69.8906 Q914.1937,69 915.975,69 Q917.0531,69 917.9906,69.375 Q918.9281,69.75 919.725,70.5 Z " fill="#000000"/><text fill="#000000" font-family="sans-serif" font-size="18" lengthAdjust="spacing" textLength="40.5" x="938.775" y="83.1152">User</text><line style="stroke:#A80036;stroke-width:2.25;" x1="891" x2="987" y1="99.75" y2="99.75"/><text fill="#000000" font-family="sans-serif" font-size="16.5" lengthAdjust="spacing" textLength="45" x="898.5" y="122.8784">-name</text><text fill="#000000" font-family="sans-serif" font-size="16.5" lengthAdjust="spacing" textLength="42" x="898.5" y="143.6323">-email</text><text fill="#000000" font-family="sans-serif" font-size="16.5" lengthAdjust="spacing" textLength="81" x="898.5" y="164.3862">-password</text><!--MD5=[a3638c1e5b65d287ecad7f06f5c0f212]
class Role--><rect codeLine="28" fill="#FEFECE" filter="url(#f1pb7i3fl83v7l)" height="101.5078" id="Role" style="stroke:#A80036;stroke-width:2.25;" width="103.5" x="1147.5" y="62.25"/><ellipse cx="1177.425" cy="86.25" fill="#ADD1B2" rx="16.5" ry="16.5" style="stroke:#A80036;stroke-width:1.5;"/><path d="M1180.425,81 Q1180.7297,80.25 1181.0813,79.875 Q1181.4328,79.5 1181.8313,79.5 Q1182.5344,79.5 1182.9797,79.9219 Q1183.425,80.3438 1183.425,81.3281 L1183.425,83.6719 Q1183.425,84.6563 1183.0031,85.0781 Q1182.5813,85.5 1181.925,85.5 Q1181.3391,85.5 1180.9641,85.2422 Q1180.5891,84.9844 1180.425,84.3047 Q1180.3547,83.8359 1180.0969,83.5781 Q1179.6281,83.0859 1178.7844,82.8047 Q1177.9406,82.5 1177.0969,82.5 Q1176.0422,82.5 1175.1516,82.9219 Q1174.2844,83.3438 1173.6047,84.2813 Q1172.925,85.2188 1172.925,86.5078 L1172.925,87.8906 Q1172.925,89.4375 1174.1906,90.4688 Q1175.4563,91.5 1177.7063,91.5 Q1179.0422,91.5 1179.9797,91.1953 Q1180.5188,91.0313 1181.1281,90.4922 Q1181.5266,90.1875 1181.7375,90.0938 Q1181.9484,90 1182.2063,90 Q1182.6984,90 1183.05,90.3984 Q1183.425,90.7734 1183.425,91.3125 Q1183.425,91.8281 1182.9094,92.4375 Q1182.1594,93.3281 1180.9641,93.8203 Q1179.3938,94.5 1177.4719,94.5 Q1175.2219,94.5 1173.4172,93.6094 Q1171.9641,92.9063 1170.9328,91.3828 Q1169.925,89.8594 1169.925,88.0547 L1169.925,86.4141 Q1169.925,84.5391 1170.8156,82.8984 Q1171.7297,81.2578 1173.3,80.3906 Q1174.8938,79.5 1176.675,79.5 Q1177.7531,79.5 1178.6906,79.875 Q1179.6281,80.25 1180.425,81 Z " fill="#000000"/><text fill="#000000" font-family="sans-serif" font-size="18" lengthAdjust="spacing" textLength="39" x="1200.075" y="93.6152">Role</text><line style="stroke:#A80036;stroke-width:2.25;" x1="1149" x2="1249.5" y1="110.25" y2="110.25"/><text fill="#000000" font-family="sans-serif" font-size="16.5" lengthAdjust="spacing" textLength="18" x="1156.5" y="133.3784">-id</text><text fill="#000000" font-family="sans-serif" font-size="16.5" lengthAdjust="spacing" textLength="85.5" x="1156.5" y="154.1323">-description</text><!--MD5=[304db59a05c0da2cdffc3c882f2d9e9b]
link Administrator to Company--><path codeLine="33" d="M168.12,97.77 C226.035,86.19 304.23,70.56 358.215,59.76 " fill="none" id="Administrator-Company" style="stroke:#A80036;stroke-width:1.5;"/><polygon fill="#000000" points="227.8544,56.5431,213.6858,54.8805,215.4145,63.5262,227.8544,56.5431" style="stroke:#000000;stroke-width:1.5;"/><text fill="#000000" font-family="sans-serif" font-size="19.5" lengthAdjust="spacing" textLength="78" x="234" y="65.9927">works for</text><text fill="#000000" font-family="sans-serif" font-size="19.5" lengthAdjust="spacing" textLength="7.5" x="180.2548" y="90.0153">*</text><text fill="#000000" font-family="sans-serif" font-size="19.5" lengthAdjust="spacing" textLength="10.5" x="335.8066" y="84.2607">1</text><!--MD5=[22fb9506fac029fc1d2ae00f0eb8d606]
link Employee to User--><path codeLine="34" d="M798.015,113.25 C817.485,113.25 838.725,113.25 858.645,113.25 " fill="none" id="Employee-to-User" style="stroke:#A80036;stroke-width:1.5;"/><polygon fill="none" points="859.35,102.75,889.35,113.25,859.35,123.75,859.35,102.75" style="stroke:#A80036;stroke-width:1.5;"/><!--MD5=[09366576ee87d48d594df10cacc83f45]
link Company to Employee--><path codeLine="35" d="M486.06,60.93 C534.93,71.655 602.94,86.58 653.835,97.74 " fill="none" id="Company-Employee" style="stroke:#A80036;stroke-width:1.5;"/><polygon fill="#000000" points="545.8258,61.1209,533.5181,53.9074,531.6286,62.5193,545.8258,61.1209" style="stroke:#000000;stroke-width:1.5;"/><text fill="#000000" font-family="sans-serif" font-size="19.5" lengthAdjust="spacing" textLength="55.5" x="552" y="67.4927">knows</text><text fill="#000000" font-family="sans-serif" font-size="19.5" lengthAdjust="spacing" textLength="10.5" x="497.9297" y="85.6317">1</text><text fill="#000000" font-family="sans-serif" font-size="19.5" lengthAdjust="spacing" textLength="7.5" x="634.7105" y="89.8276">*</text><!--MD5=[8f7dd94d56b58fc07b233ccd3dd98f8c]
link Administrator to Employee--><path codeLine="36" d="M168.735,120.015 C248.445,126.105 375.84,133.56 486,129.75 C542.415,127.8 606.195,123.27 653.595,119.445 " fill="none" id="Administrator-Employee" style="stroke:#A80036;stroke-width:1.5;"/><polygon fill="#000000" points="393.75,116.5049,380.1772,112.1124,380.1876,120.9292,393.75,116.5049" style="stroke:#000000;stroke-width:1.5;"/><text fill="#000000" font-family="sans-serif" font-size="19.5" lengthAdjust="spacing" textLength="64.5" x="399.75" y="124.4927">register</text><text fill="#000000" font-family="sans-serif" font-size="19.5" lengthAdjust="spacing" textLength="10.5" x="180.1213" y="142.8147">1</text><text fill="#000000" font-family="sans-serif" font-size="19.5" lengthAdjust="spacing" textLength="7.5" x="634.4338" y="142.5312">*</text><!--MD5=[70c37dc9bfbc8656942103c36f1181e4]
link User to Role--><path codeLine="37" d="M988.89,113.25 C1034.145,113.25 1101.495,113.25 1147.38,113.25 " fill="none" id="User-Role" style="stroke:#A80036;stroke-width:1.5;"/><polygon fill="#000000" points="1048.5,100.0137,1034.9324,95.6053,1034.9324,104.4221,1048.5,100.0137" style="stroke:#000000;stroke-width:1.5;"/><text fill="#000000" font-family="sans-serif" font-size="19.5" lengthAdjust="spacing" textLength="46.5" x="1054.5" y="107.9927">plays</text><text fill="#000000" font-family="sans-serif" font-size="19.5" lengthAdjust="spacing" textLength="7.5" x="1000.6238" y="136.2561">*</text><text fill="#000000" font-family="sans-serif" font-size="19.5" lengthAdjust="spacing" textLength="10.5" x="1125.099" y="136.0728">1</text><!--MD5=[233c2a1c713d3ddb92e678e07a6883bf]
@startuml
'https://plantuml.com/class-diagram
hide methods
left to right direction
skinparam classAttributeIconSize 0

class Administrator
class Company
class Employee
class User
class Role


class User{
-name
-email
-password
}
class Employee{
-name
-address
-phoneNumber
-email
-employeeId
-organizationRole
-socCode
}

class Role{
-id
-description
}

Administrator "*"- -"1" Company : works for >
Employee - -|> User
Company "1"- -"*" Employee : knows >
Administrator "1"- -"*" Employee : register >
User "*"- -"1" Role : plays >
@enduml

@startuml
hide methods
left to right direction
skinparam classAttributeIconSize 0

class Administrator
class Company
class Employee
class User
class Role


class User{
-name
-email
-password
}
class Employee{
-name
-address
-phoneNumber
-email
-employeeId
-organizationRole
-socCode
}

class Role{
-id
-description
}

Administrator "*"- -"1" Company : works for >
Employee - -|> User
Company "1"- -"*" Employee : knows >
Administrator "1"- -"*" Employee : register >
User "*"- -"1" Role : plays >
@enduml

PlantUML version 1.2021.4(Sun Apr 04 09:49:39 BST 2021)
(GPL source distribution)
Java Runtime: OpenJDK Runtime Environment
JVM: Dynamic Code Evolution 64-Bit Server VM
Default Encoding: Cp1252
Language: pt
Country: PT
--></g></svg>