<?xml version="1.0" encoding="UTF-8" standalone="no"?><svg xmlns="http://www.w3.org/2000/svg" xmlns:xlink="http://www.w3.org/1999/xlink" contentScriptType="application/ecmascript" contentStyleType="text/css" height="2052px" preserveAspectRatio="none" style="width:1465px;height:2052px;" version="1.1" viewBox="0 0 1465 2052" width="1465.5px" zoomAndPan="magnify"><defs><filter height="300%" id="f1r494xcj5fcoc" width="300%" x="-1" y="-1"><feGaussianBlur result="blurOut" stdDeviation="3.0"/><feColorMatrix in="blurOut" result="blurOut2" type="matrix" values="0 0 0 0 0 0 0 0 0 0 0 0 0 0 0 0 0 0 .4 0"/><feOffset dx="6.0" dy="6.0" in="blurOut2" result="blurOut3"/><feBlend in="SourceGraphic" in2="blurOut3" mode="normal"/></filter></defs><g><!--MD5=[02e4b9b7573f1156f41e60aa5b4e25a4]
class Company--><rect codeLine="18" fill="#FEFECE" filter="url(#f1r494xcj5fcoc)" height="134.2617" id="Company" style="stroke:#A80036;stroke-width:2.25;" width="181.5" x="975.75" y="678.75"/><ellipse cx="1022.55" cy="702.75" fill="#ADD1B2" rx="16.5" ry="16.5" style="stroke:#A80036;stroke-width:1.5;"/><path d="M1025.55,697.5 Q1025.8547,696.75 1026.2063,696.375 Q1026.5578,696 1026.9563,696 Q1027.6594,696 1028.1047,696.4219 Q1028.55,696.8438 1028.55,697.8281 L1028.55,700.1719 Q1028.55,701.1563 1028.1281,701.5781 Q1027.7063,702 1027.05,702 Q1026.4641,702 1026.0891,701.7422 Q1025.7141,701.4844 1025.55,700.8047 Q1025.4797,700.3359 1025.2219,700.0781 Q1024.7531,699.5859 1023.9094,699.3047 Q1023.0656,699 1022.2219,699 Q1021.1672,699 1020.2766,699.4219 Q1019.4094,699.8438 1018.7297,700.7813 Q1018.05,701.7188 1018.05,703.0078 L1018.05,704.3906 Q1018.05,705.9375 1019.3156,706.9688 Q1020.5813,708 1022.8313,708 Q1024.1672,708 1025.1047,707.6953 Q1025.6438,707.5313 1026.2531,706.9922 Q1026.6516,706.6875 1026.8625,706.5938 Q1027.0734,706.5 1027.3313,706.5 Q1027.8234,706.5 1028.175,706.8984 Q1028.55,707.2734 1028.55,707.8125 Q1028.55,708.3281 1028.0344,708.9375 Q1027.2844,709.8281 1026.0891,710.3203 Q1024.5188,711 1022.5969,711 Q1020.3469,711 1018.5422,710.1094 Q1017.0891,709.4063 1016.0578,707.8828 Q1015.05,706.3594 1015.05,704.5547 L1015.05,702.9141 Q1015.05,701.0391 1015.9406,699.3984 Q1016.8547,697.7578 1018.425,696.8906 Q1020.0188,696 1021.8,696 Q1022.8781,696 1023.8156,696.375 Q1024.7531,696.75 1025.55,697.5 Z " fill="#000000"/><text fill="#000000" font-family="sans-serif" font-size="18" lengthAdjust="spacing" textLength="79.5" x="1048.95" y="710.1152">Company</text><line style="stroke:#A80036;stroke-width:2.25;" x1="977.25" x2="1155.75" y1="726.75" y2="726.75"/><rect fill="none" height="9" style="stroke:#C82930;stroke-width:1.5;" width="9" x="987.75" y="738.75"/><text fill="#000000" font-family="sans-serif" font-size="16.5" lengthAdjust="spacing" textLength="82.5" x="1005.75" y="749.8784">designation</text><line style="stroke:#A80036;stroke-width:2.25;" x1="977.25" x2="1155.75" y1="759.5039" y2="759.5039"/><ellipse cx="992.25" cy="776.0039" fill="#84BE84" rx="4.5" ry="4.5" style="stroke:#038048;stroke-width:1.5;"/><text fill="#000000" font-family="sans-serif" font-size="16.5" lengthAdjust="spacing" textLength="142.5" x="1005.75" y="782.6323">getEmployeeStore()</text><ellipse cx="992.25" cy="796.7578" fill="#84BE84" rx="4.5" ry="4.5" style="stroke:#038048;stroke-width:1.5;"/><text fill="#000000" font-family="sans-serif" font-size="16.5" lengthAdjust="spacing" textLength="141" x="1005.75" y="803.3862">getOrgRolesStore()</text><!--MD5=[7421f545a0d8420c5bec41e74b387d9c]
class Employee--><rect codeLine="25" fill="#FEFECE" filter="url(#f1r494xcj5fcoc)" height="217.2773" id="Employee" style="stroke:#A80036;stroke-width:2.25;" width="451.5" x="429.75" y="1357.5"/><ellipse cx="607.875" cy="1381.5" fill="#ADD1B2" rx="16.5" ry="16.5" style="stroke:#A80036;stroke-width:1.5;"/><path d="M610.875,1376.25 Q611.1797,1375.5 611.5313,1375.125 Q611.8828,1374.75 612.2813,1374.75 Q612.9844,1374.75 613.4297,1375.1719 Q613.875,1375.5938 613.875,1376.5781 L613.875,1378.9219 Q613.875,1379.9063 613.4531,1380.3281 Q613.0313,1380.75 612.375,1380.75 Q611.7891,1380.75 611.4141,1380.4922 Q611.0391,1380.2344 610.875,1379.5547 Q610.8047,1379.0859 610.5469,1378.8281 Q610.0781,1378.3359 609.2344,1378.0547 Q608.3906,1377.75 607.5469,1377.75 Q606.4922,1377.75 605.6016,1378.1719 Q604.7344,1378.5938 604.0547,1379.5313 Q603.375,1380.4688 603.375,1381.7578 L603.375,1383.1406 Q603.375,1384.6875 604.6406,1385.7188 Q605.9063,1386.75 608.1563,1386.75 Q609.4922,1386.75 610.4297,1386.4453 Q610.9688,1386.2813 611.5781,1385.7422 Q611.9766,1385.4375 612.1875,1385.3438 Q612.3984,1385.25 612.6563,1385.25 Q613.1484,1385.25 613.5,1385.6484 Q613.875,1386.0234 613.875,1386.5625 Q613.875,1387.0781 613.3594,1387.6875 Q612.6094,1388.5781 611.4141,1389.0703 Q609.8438,1389.75 607.9219,1389.75 Q605.6719,1389.75 603.8672,1388.8594 Q602.4141,1388.1563 601.3828,1386.6328 Q600.375,1385.1094 600.375,1383.3047 L600.375,1381.6641 Q600.375,1379.7891 601.2656,1378.1484 Q602.1797,1376.5078 603.75,1375.6406 Q605.3438,1374.75 607.125,1374.75 Q608.2031,1374.75 609.1406,1375.125 Q610.0781,1375.5 610.875,1376.25 Z " fill="#000000"/><text fill="#000000" font-family="sans-serif" font-size="18" lengthAdjust="spacing" textLength="82.5" x="638.625" y="1388.8652">Employee</text><line style="stroke:#A80036;stroke-width:2.25;" x1="431.25" x2="879.75" y1="1405.5" y2="1405.5"/><rect fill="none" height="9" style="stroke:#C82930;stroke-width:1.5;" width="9" x="441.75" y="1417.5"/><text fill="#000000" font-family="sans-serif" font-size="16.5" lengthAdjust="spacing" textLength="39" x="459.75" y="1428.6284">name</text><rect fill="none" height="9" style="stroke:#C82930;stroke-width:1.5;" width="9" x="441.75" y="1438.2539"/><text fill="#000000" font-family="sans-serif" font-size="16.5" lengthAdjust="spacing" textLength="60" x="459.75" y="1449.3823">address</text><rect fill="none" height="9" style="stroke:#C82930;stroke-width:1.5;" width="9" x="441.75" y="1459.0078"/><text fill="#000000" font-family="sans-serif" font-size="16.5" lengthAdjust="spacing" textLength="100.5" x="459.75" y="1470.1362">phoneNumber</text><rect fill="none" height="9" style="stroke:#C82930;stroke-width:1.5;" width="9" x="441.75" y="1479.7617"/><text fill="#000000" font-family="sans-serif" font-size="16.5" lengthAdjust="spacing" textLength="36" x="459.75" y="1490.8901">email</text><rect fill="none" height="9" style="stroke:#C82930;stroke-width:1.5;" width="9" x="441.75" y="1500.5156"/><text fill="#000000" font-family="sans-serif" font-size="16.5" lengthAdjust="spacing" textLength="81" x="459.75" y="1511.644">employeeId</text><rect fill="none" height="9" style="stroke:#C82930;stroke-width:1.5;" width="9" x="441.75" y="1521.2695"/><text fill="#000000" font-family="sans-serif" font-size="16.5" lengthAdjust="spacing" textLength="64.5" x="459.75" y="1532.3979">socCode</text><line style="stroke:#A80036;stroke-width:2.25;" x1="431.25" x2="879.75" y1="1542.0234" y2="1542.0234"/><ellipse cx="446.25" cy="1558.5234" fill="#84BE84" rx="4.5" ry="4.5" style="stroke:#038048;stroke-width:1.5;"/><text fill="#000000" font-family="sans-serif" font-size="16.5" lengthAdjust="spacing" textLength="412.5" x="459.75" y="1565.1519">Employee(name address, phoneNumber, email, socCode)</text><!--MD5=[829fb52c07ade3ad64ef85b99d1fca10]
class EmployeeStore--><rect codeLine="48" fill="#FEFECE" filter="url(#f1r494xcj5fcoc)" height="175.7695" id="EmployeeStore" style="stroke:#A80036;stroke-width:2.25;" width="268.5" x="695.25" y="1065"/><ellipse cx="760.275" cy="1089" fill="#ADD1B2" rx="16.5" ry="16.5" style="stroke:#A80036;stroke-width:1.5;"/><path d="M763.275,1083.75 Q763.5797,1083 763.9313,1082.625 Q764.2828,1082.25 764.6813,1082.25 Q765.3844,1082.25 765.8297,1082.6719 Q766.275,1083.0938 766.275,1084.0781 L766.275,1086.4219 Q766.275,1087.4063 765.8531,1087.8281 Q765.4313,1088.25 764.775,1088.25 Q764.1891,1088.25 763.8141,1087.9922 Q763.4391,1087.7344 763.275,1087.0547 Q763.2047,1086.5859 762.9469,1086.3281 Q762.4781,1085.8359 761.6344,1085.5547 Q760.7906,1085.25 759.9469,1085.25 Q758.8922,1085.25 758.0016,1085.6719 Q757.1344,1086.0938 756.4547,1087.0313 Q755.775,1087.9688 755.775,1089.2578 L755.775,1090.6406 Q755.775,1092.1875 757.0406,1093.2188 Q758.3063,1094.25 760.5563,1094.25 Q761.8922,1094.25 762.8297,1093.9453 Q763.3688,1093.7813 763.9781,1093.2422 Q764.3766,1092.9375 764.5875,1092.8438 Q764.7984,1092.75 765.0563,1092.75 Q765.5484,1092.75 765.9,1093.1484 Q766.275,1093.5234 766.275,1094.0625 Q766.275,1094.5781 765.7594,1095.1875 Q765.0094,1096.0781 763.8141,1096.5703 Q762.2438,1097.25 760.3219,1097.25 Q758.0719,1097.25 756.2672,1096.3594 Q754.8141,1095.6563 753.7828,1094.1328 Q752.775,1092.6094 752.775,1090.8047 L752.775,1089.1641 Q752.775,1087.2891 753.6656,1085.6484 Q754.5797,1084.0078 756.15,1083.1406 Q757.7438,1082.25 759.525,1082.25 Q760.6031,1082.25 761.5406,1082.625 Q762.4781,1083 763.275,1083.75 Z " fill="#000000"/><text fill="#000000" font-family="sans-serif" font-size="18" lengthAdjust="spacing" textLength="126" x="790.725" y="1096.3652">EmployeeStore</text><line style="stroke:#A80036;stroke-width:2.25;" x1="696.75" x2="962.25" y1="1113" y2="1113"/><line style="stroke:#A80036;stroke-width:2.25;" x1="696.75" x2="962.25" y1="1125" y2="1125"/><ellipse cx="711.75" cy="1141.5" fill="#84BE84" rx="4.5" ry="4.5" style="stroke:#038048;stroke-width:1.5;"/><text fill="#000000" font-family="sans-serif" font-size="16.5" lengthAdjust="spacing" textLength="181.5" x="725.25" y="1148.1284">createEmployee(empDto)</text><ellipse cx="711.75" cy="1162.2539" fill="#84BE84" rx="4.5" ry="4.5" style="stroke:#038048;stroke-width:1.5;"/><text fill="#000000" font-family="sans-serif" font-size="16.5" lengthAdjust="spacing" textLength="229.5" x="725.25" y="1168.8823">createSpecialistDoctor(empDto)</text><ellipse cx="711.75" cy="1183.0078" fill="#84BE84" rx="4.5" ry="4.5" style="stroke:#038048;stroke-width:1.5;"/><text fill="#000000" font-family="sans-serif" font-size="16.5" lengthAdjust="spacing" textLength="166.5" x="725.25" y="1189.6362">validateEmployee(emp)</text><ellipse cx="711.75" cy="1203.7617" fill="#84BE84" rx="4.5" ry="4.5" style="stroke:#038048;stroke-width:1.5;"/><text fill="#000000" font-family="sans-serif" font-size="16.5" lengthAdjust="spacing" textLength="138" x="725.25" y="1210.3901">addEmployee(emp)</text><ellipse cx="711.75" cy="1224.5156" fill="#84BE84" rx="4.5" ry="4.5" style="stroke:#038048;stroke-width:1.5;"/><text fill="#000000" font-family="sans-serif" font-size="16.5" lengthAdjust="spacing" textLength="147" x="725.25" y="1231.144">saveEmployee(emp)</text><!--MD5=[a126dd63c8621c017159ae62771fbe54]
class RegisterEmployeeUI--><rect codeLine="6" fill="#FEFECE" filter="url(#f1r494xcj5fcoc)" height="72" id="RegisterEmployeeUI" style="stroke:#A80036;stroke-width:2.25;" width="219" x="957" y="62.25"/><ellipse cx="979.5" cy="86.25" fill="#ADD1B2" rx="16.5" ry="16.5" style="stroke:#A80036;stroke-width:1.5;"/><path d="M982.5,81 Q982.8047,80.25 983.1563,79.875 Q983.5078,79.5 983.9063,79.5 Q984.6094,79.5 985.0547,79.9219 Q985.5,80.3438 985.5,81.3281 L985.5,83.6719 Q985.5,84.6563 985.0781,85.0781 Q984.6563,85.5 984,85.5 Q983.4141,85.5 983.0391,85.2422 Q982.6641,84.9844 982.5,84.3047 Q982.4297,83.8359 982.1719,83.5781 Q981.7031,83.0859 980.8594,82.8047 Q980.0156,82.5 979.1719,82.5 Q978.1172,82.5 977.2266,82.9219 Q976.3594,83.3438 975.6797,84.2813 Q975,85.2188 975,86.5078 L975,87.8906 Q975,89.4375 976.2656,90.4688 Q977.5313,91.5 979.7813,91.5 Q981.1172,91.5 982.0547,91.1953 Q982.5938,91.0313 983.2031,90.4922 Q983.6016,90.1875 983.8125,90.0938 Q984.0234,90 984.2813,90 Q984.7734,90 985.125,90.3984 Q985.5,90.7734 985.5,91.3125 Q985.5,91.8281 984.9844,92.4375 Q984.2344,93.3281 983.0391,93.8203 Q981.4688,94.5 979.5469,94.5 Q977.2969,94.5 975.4922,93.6094 Q974.0391,92.9063 973.0078,91.3828 Q972,89.8594 972,88.0547 L972,86.4141 Q972,84.5391 972.8906,82.8984 Q973.8047,81.2578 975.375,80.3906 Q976.9688,79.5 978.75,79.5 Q979.8281,79.5 980.7656,79.875 Q981.7031,80.25 982.5,81 Z " fill="#000000"/><text fill="#000000" font-family="sans-serif" font-size="18" lengthAdjust="spacing" textLength="171" x="1000.5" y="93.6152">RegisterEmployeeUI</text><line style="stroke:#A80036;stroke-width:2.25;" x1="958.5" x2="1174.5" y1="110.25" y2="110.25"/><line style="stroke:#A80036;stroke-width:2.25;" x1="958.5" x2="1174.5" y1="122.25" y2="122.25"/><!--MD5=[6a4e699b59c2ecf8286aba2faa72e4bd]
class RegisterEmployeeController--><rect codeLine="56" fill="#FEFECE" filter="url(#f1r494xcj5fcoc)" height="175.7695" id="RegisterEmployeeController" style="stroke:#A80036;stroke-width:2.25;" width="300" x="916.5" y="277.5"/><ellipse cx="947.1" cy="301.5" fill="#ADD1B2" rx="16.5" ry="16.5" style="stroke:#A80036;stroke-width:1.5;"/><path d="M950.1,296.25 Q950.4047,295.5 950.7562,295.125 Q951.1078,294.75 951.5062,294.75 Q952.2094,294.75 952.6547,295.1719 Q953.1,295.5938 953.1,296.5781 L953.1,298.9219 Q953.1,299.9063 952.6781,300.3281 Q952.2562,300.75 951.6,300.75 Q951.0141,300.75 950.6391,300.4922 Q950.2641,300.2344 950.1,299.5547 Q950.0297,299.0859 949.7719,298.8281 Q949.3031,298.3359 948.4594,298.0547 Q947.6156,297.75 946.7719,297.75 Q945.7172,297.75 944.8266,298.1719 Q943.9594,298.5938 943.2797,299.5313 Q942.6,300.4688 942.6,301.7578 L942.6,303.1406 Q942.6,304.6875 943.8656,305.7188 Q945.1312,306.75 947.3812,306.75 Q948.7172,306.75 949.6547,306.4453 Q950.1937,306.2813 950.8031,305.7422 Q951.2016,305.4375 951.4125,305.3438 Q951.6234,305.25 951.8812,305.25 Q952.3734,305.25 952.725,305.6484 Q953.1,306.0234 953.1,306.5625 Q953.1,307.0781 952.5844,307.6875 Q951.8344,308.5781 950.6391,309.0703 Q949.0687,309.75 947.1469,309.75 Q944.8969,309.75 943.0922,308.8594 Q941.6391,308.1563 940.6078,306.6328 Q939.6,305.1094 939.6,303.3047 L939.6,301.6641 Q939.6,299.7891 940.4906,298.1484 Q941.4047,296.5078 942.975,295.6406 Q944.5687,294.75 946.35,294.75 Q947.4281,294.75 948.3656,295.125 Q949.3031,295.5 950.1,296.25 Z " fill="#000000"/><text fill="#000000" font-family="sans-serif" font-size="18" lengthAdjust="spacing" textLength="234" x="969.9" y="308.8652">RegisterEmployeeController</text><line style="stroke:#A80036;stroke-width:2.25;" x1="918" x2="1215" y1="325.5" y2="325.5"/><line style="stroke:#A80036;stroke-width:2.25;" x1="918" x2="1215" y1="337.5" y2="337.5"/><ellipse cx="933" cy="354" fill="#84BE84" rx="4.5" ry="4.5" style="stroke:#038048;stroke-width:1.5;"/><text fill="#000000" font-family="sans-serif" font-size="16.5" lengthAdjust="spacing" textLength="145.5" x="946.5" y="360.6284">getListOfOrgRoles()</text><ellipse cx="933" cy="374.7539" fill="#84BE84" rx="4.5" ry="4.5" style="stroke:#038048;stroke-width:1.5;"/><text fill="#000000" font-family="sans-serif" font-size="16.5" lengthAdjust="spacing" textLength="261" x="946.5" y="381.3823">createOrganizationRole(orgRoleDto)</text><ellipse cx="933" cy="395.5078" fill="#84BE84" rx="4.5" ry="4.5" style="stroke:#038048;stroke-width:1.5;"/><text fill="#000000" font-family="sans-serif" font-size="16.5" lengthAdjust="spacing" textLength="229.5" x="946.5" y="402.1362">createSpecialistDoctor(empDto)</text><ellipse cx="933" cy="416.2617" fill="#84BE84" rx="4.5" ry="4.5" style="stroke:#038048;stroke-width:1.5;"/><text fill="#000000" font-family="sans-serif" font-size="16.5" lengthAdjust="spacing" textLength="181.5" x="946.5" y="422.8901">createEmployee(empDto)</text><ellipse cx="933" cy="437.0156" fill="#84BE84" rx="4.5" ry="4.5" style="stroke:#038048;stroke-width:1.5;"/><text fill="#000000" font-family="sans-serif" font-size="16.5" lengthAdjust="spacing" textLength="117" x="946.5" y="443.644">saveEmployee()</text><!--MD5=[12e90e92236ca84f203192a07d84ec5e]
class OrganizationRole--><rect codeLine="41" fill="#FEFECE" filter="url(#f1r494xcj5fcoc)" height="113.5078" id="OrganizationRole" style="stroke:#A80036;stroke-width:2.25;" width="253.5" x="230.25" y="1918.5"/><ellipse cx="281.1" cy="1942.5" fill="#ADD1B2" rx="16.5" ry="16.5" style="stroke:#A80036;stroke-width:1.5;"/><path d="M284.1,1937.25 Q284.4047,1936.5 284.7563,1936.125 Q285.1078,1935.75 285.5063,1935.75 Q286.2094,1935.75 286.6547,1936.1719 Q287.1,1936.5938 287.1,1937.5781 L287.1,1939.9219 Q287.1,1940.9063 286.6781,1941.3281 Q286.2563,1941.75 285.6,1941.75 Q285.0141,1941.75 284.6391,1941.4922 Q284.2641,1941.2344 284.1,1940.5547 Q284.0297,1940.0859 283.7719,1939.8281 Q283.3031,1939.3359 282.4594,1939.0547 Q281.6156,1938.75 280.7719,1938.75 Q279.7172,1938.75 278.8266,1939.1719 Q277.9594,1939.5938 277.2797,1940.5313 Q276.6,1941.4688 276.6,1942.7578 L276.6,1944.1406 Q276.6,1945.6875 277.8656,1946.7188 Q279.1313,1947.75 281.3813,1947.75 Q282.7172,1947.75 283.6547,1947.4453 Q284.1938,1947.2813 284.8031,1946.7422 Q285.2016,1946.4375 285.4125,1946.3438 Q285.6234,1946.25 285.8813,1946.25 Q286.3734,1946.25 286.725,1946.6484 Q287.1,1947.0234 287.1,1947.5625 Q287.1,1948.0781 286.5844,1948.6875 Q285.8344,1949.5781 284.6391,1950.0703 Q283.0688,1950.75 281.1469,1950.75 Q278.8969,1950.75 277.0922,1949.8594 Q275.6391,1949.1563 274.6078,1947.6328 Q273.6,1946.1094 273.6,1944.3047 L273.6,1942.6641 Q273.6,1940.7891 274.4906,1939.1484 Q275.4047,1937.5078 276.975,1936.6406 Q278.5688,1935.75 280.35,1935.75 Q281.4281,1935.75 282.3656,1936.125 Q283.3031,1936.5 284.1,1937.25 Z " fill="#000000"/><text fill="#000000" font-family="sans-serif" font-size="18" lengthAdjust="spacing" textLength="142.5" x="308.4" y="1949.8652">OrganizationRole</text><line style="stroke:#A80036;stroke-width:2.25;" x1="231.75" x2="482.25" y1="1966.5" y2="1966.5"/><rect fill="none" height="9" style="stroke:#C82930;stroke-width:1.5;" width="9" x="242.25" y="1978.5"/><text fill="#000000" font-family="sans-serif" font-size="16.5" lengthAdjust="spacing" textLength="79.5" x="260.25" y="1989.6284">description</text><line style="stroke:#A80036;stroke-width:2.25;" x1="231.75" x2="482.25" y1="1999.2539" y2="1999.2539"/><ellipse cx="246.75" cy="2015.7539" fill="#84BE84" rx="4.5" ry="4.5" style="stroke:#038048;stroke-width:1.5;"/><text fill="#000000" font-family="sans-serif" font-size="16.5" lengthAdjust="spacing" textLength="214.5" x="260.25" y="2022.3823">OrganizationRole(description)</text><!--MD5=[7d96fd15f3014691d2fcaf89c5791e2a]
class SpecialistDoctor--><rect codeLine="35" fill="#FEFECE" filter="url(#f1r494xcj5fcoc)" height="113.5078" id="SpecialistDoctor" style="stroke:#A80036;stroke-width:2.25;" width="649.5" x="437.25" y="1702.5"/><ellipse cx="688.125" cy="1726.5" fill="#ADD1B2" rx="16.5" ry="16.5" style="stroke:#A80036;stroke-width:1.5;"/><path d="M691.125,1721.25 Q691.4297,1720.5 691.7813,1720.125 Q692.1328,1719.75 692.5313,1719.75 Q693.2344,1719.75 693.6797,1720.1719 Q694.125,1720.5938 694.125,1721.5781 L694.125,1723.9219 Q694.125,1724.9063 693.7031,1725.3281 Q693.2813,1725.75 692.625,1725.75 Q692.0391,1725.75 691.6641,1725.4922 Q691.2891,1725.2344 691.125,1724.5547 Q691.0547,1724.0859 690.7969,1723.8281 Q690.3281,1723.3359 689.4844,1723.0547 Q688.6406,1722.75 687.7969,1722.75 Q686.7422,1722.75 685.8516,1723.1719 Q684.9844,1723.5938 684.3047,1724.5313 Q683.625,1725.4688 683.625,1726.7578 L683.625,1728.1406 Q683.625,1729.6875 684.8906,1730.7188 Q686.1563,1731.75 688.4063,1731.75 Q689.7422,1731.75 690.6797,1731.4453 Q691.2188,1731.2813 691.8281,1730.7422 Q692.2266,1730.4375 692.4375,1730.3438 Q692.6484,1730.25 692.9063,1730.25 Q693.3984,1730.25 693.75,1730.6484 Q694.125,1731.0234 694.125,1731.5625 Q694.125,1732.0781 693.6094,1732.6875 Q692.8594,1733.5781 691.6641,1734.0703 Q690.0938,1734.75 688.1719,1734.75 Q685.9219,1734.75 684.1172,1733.8594 Q682.6641,1733.1563 681.6328,1731.6328 Q680.625,1730.1094 680.625,1728.3047 L680.625,1726.6641 Q680.625,1724.7891 681.5156,1723.1484 Q682.4297,1721.5078 684,1720.6406 Q685.5938,1719.75 687.375,1719.75 Q688.4531,1719.75 689.3906,1720.125 Q690.3281,1720.5 691.125,1721.25 Z " fill="#000000"/><text fill="#000000" font-family="sans-serif" font-size="18" lengthAdjust="spacing" textLength="135" x="718.875" y="1733.8652">SpecialistDoctor</text><line style="stroke:#A80036;stroke-width:2.25;" x1="438.75" x2="1085.25" y1="1750.5" y2="1750.5"/><rect fill="none" height="9" style="stroke:#C82930;stroke-width:1.5;" width="9" x="449.25" y="1762.5"/><text fill="#000000" font-family="sans-serif" font-size="16.5" lengthAdjust="spacing" textLength="141" x="467.25" y="1773.6284">doctorIndexNumber</text><line style="stroke:#A80036;stroke-width:2.25;" x1="438.75" x2="1085.25" y1="1783.2539" y2="1783.2539"/><ellipse cx="453.75" cy="1799.7539" fill="#84BE84" rx="4.5" ry="4.5" style="stroke:#038048;stroke-width:1.5;"/><text fill="#000000" font-family="sans-serif" font-size="16.5" lengthAdjust="spacing" textLength="610.5" x="467.25" y="1806.3823">SpecialistDoctor(name address, phoneNumber, email, socCode, doctorIndexNumber)</text><!--MD5=[892631efaf0abed3c7818dfb737e9f4c]
class OrganizationRoleMapper--><rect codeLine="111" fill="#FEFECE" filter="url(#f1r494xcj5fcoc)" height="134.2617" id="OrganizationRoleMapper" style="stroke:#A80036;stroke-width:2.25;" width="267" x="10.5" y="1692"/><ellipse cx="39.75" cy="1716" fill="#ADD1B2" rx="16.5" ry="16.5" style="stroke:#A80036;stroke-width:1.5;"/><path d="M42.75,1710.75 Q43.0547,1710 43.4063,1709.625 Q43.7578,1709.25 44.1563,1709.25 Q44.8594,1709.25 45.3047,1709.6719 Q45.75,1710.0938 45.75,1711.0781 L45.75,1713.4219 Q45.75,1714.4063 45.3281,1714.8281 Q44.9063,1715.25 44.25,1715.25 Q43.6641,1715.25 43.2891,1714.9922 Q42.9141,1714.7344 42.75,1714.0547 Q42.6797,1713.5859 42.4219,1713.3281 Q41.9531,1712.8359 41.1094,1712.5547 Q40.2656,1712.25 39.4219,1712.25 Q38.3672,1712.25 37.4766,1712.6719 Q36.6094,1713.0938 35.9297,1714.0313 Q35.25,1714.9688 35.25,1716.2578 L35.25,1717.6406 Q35.25,1719.1875 36.5156,1720.2188 Q37.7813,1721.25 40.0313,1721.25 Q41.3672,1721.25 42.3047,1720.9453 Q42.8438,1720.7813 43.4531,1720.2422 Q43.8516,1719.9375 44.0625,1719.8438 Q44.2734,1719.75 44.5313,1719.75 Q45.0234,1719.75 45.375,1720.1484 Q45.75,1720.5234 45.75,1721.0625 Q45.75,1721.5781 45.2344,1722.1875 Q44.4844,1723.0781 43.2891,1723.5703 Q41.7188,1724.25 39.7969,1724.25 Q37.5469,1724.25 35.7422,1723.3594 Q34.2891,1722.6563 33.2578,1721.1328 Q32.25,1719.6094 32.25,1717.8047 L32.25,1716.1641 Q32.25,1714.2891 33.1406,1712.6484 Q34.0547,1711.0078 35.625,1710.1406 Q37.2188,1709.25 39,1709.25 Q40.0781,1709.25 41.0156,1709.625 Q41.9531,1710 42.75,1710.75 Z " fill="#000000"/><text fill="#000000" font-family="sans-serif" font-size="18" lengthAdjust="spacing" textLength="204" x="62.25" y="1723.3652">OrganizationRoleMapper</text><line style="stroke:#A80036;stroke-width:2.25;" x1="12" x2="276" y1="1740" y2="1740"/><rect fill="none" height="9" style="stroke:#C82930;stroke-width:1.5;" width="9" x="22.5" y="1752"/><text fill="#000000" font-family="sans-serif" font-size="16.5" lengthAdjust="spacing" textLength="111" x="40.5" y="1763.1284">listOrgRolesDto</text><line style="stroke:#A80036;stroke-width:2.25;" x1="12" x2="276" y1="1772.7539" y2="1772.7539"/><ellipse cx="27" cy="1789.2539" fill="#84BE84" rx="4.5" ry="4.5" style="stroke:#038048;stroke-width:1.5;"/><text fill="#000000" font-family="sans-serif" font-size="16.5" lengthAdjust="spacing" textLength="163.5" x="40.5" y="1795.8823">toOrgRole(orgRoleDto)</text><ellipse cx="27" cy="1810.0078" fill="#84BE84" rx="4.5" ry="4.5" style="stroke:#038048;stroke-width:1.5;"/><text fill="#000000" font-family="sans-serif" font-size="16.5" lengthAdjust="spacing" textLength="228" x="40.5" y="1816.6362">toOrganizationRole(orgRoleDto)</text><!--MD5=[00f5a8d890e3e1ee187254d4d2c6b7cb]
class EmployeeDTO--><rect codeLine="64" fill="#FEFECE" filter="url(#f1r494xcj5fcoc)" height="404.0625" id="EmployeeDTO" style="stroke:#A80036;stroke-width:2.25;" width="628.5" x="194.25" y="544.5"/><ellipse cx="442.125" cy="568.5" fill="#ADD1B2" rx="16.5" ry="16.5" style="stroke:#A80036;stroke-width:1.5;"/><path d="M445.125,563.25 Q445.4297,562.5 445.7813,562.125 Q446.1328,561.75 446.5313,561.75 Q447.2344,561.75 447.6797,562.1719 Q448.125,562.5938 448.125,563.5781 L448.125,565.9219 Q448.125,566.9063 447.7031,567.3281 Q447.2813,567.75 446.625,567.75 Q446.0391,567.75 445.6641,567.4922 Q445.2891,567.2344 445.125,566.5547 Q445.0547,566.0859 444.7969,565.8281 Q444.3281,565.3359 443.4844,565.0547 Q442.6406,564.75 441.7969,564.75 Q440.7422,564.75 439.8516,565.1719 Q438.9844,565.5938 438.3047,566.5313 Q437.625,567.4688 437.625,568.7578 L437.625,570.1406 Q437.625,571.6875 438.8906,572.7188 Q440.1563,573.75 442.4063,573.75 Q443.7422,573.75 444.6797,573.4453 Q445.2188,573.2813 445.8281,572.7422 Q446.2266,572.4375 446.4375,572.3438 Q446.6484,572.25 446.9063,572.25 Q447.3984,572.25 447.75,572.6484 Q448.125,573.0234 448.125,573.5625 Q448.125,574.0781 447.6094,574.6875 Q446.8594,575.5781 445.6641,576.0703 Q444.0938,576.75 442.1719,576.75 Q439.9219,576.75 438.1172,575.8594 Q436.6641,575.1563 435.6328,573.6328 Q434.625,572.1094 434.625,570.3047 L434.625,568.6641 Q434.625,566.7891 435.5156,565.1484 Q436.4297,563.5078 438,562.6406 Q439.5938,561.75 441.375,561.75 Q442.4531,561.75 443.3906,562.125 Q444.3281,562.5 445.125,563.25 Z " fill="#000000"/><text fill="#000000" font-family="sans-serif" font-size="18" lengthAdjust="spacing" textLength="120" x="472.875" y="575.8652">EmployeeDTO</text><line style="stroke:#A80036;stroke-width:2.25;" x1="195.75" x2="821.25" y1="592.5" y2="592.5"/><rect fill="none" height="9" style="stroke:#C82930;stroke-width:1.5;" width="9" x="206.25" y="604.5"/><text fill="#000000" font-family="sans-serif" font-size="16.5" lengthAdjust="spacing" textLength="39" x="224.25" y="615.6284">name</text><rect fill="none" height="9" style="stroke:#C82930;stroke-width:1.5;" width="9" x="206.25" y="625.2539"/><text fill="#000000" font-family="sans-serif" font-size="16.5" lengthAdjust="spacing" textLength="60" x="224.25" y="636.3823">address</text><rect fill="none" height="9" style="stroke:#C82930;stroke-width:1.5;" width="9" x="206.25" y="646.0078"/><text fill="#000000" font-family="sans-serif" font-size="16.5" lengthAdjust="spacing" textLength="100.5" x="224.25" y="657.1362">phoneNumber</text><rect fill="none" height="9" style="stroke:#C82930;stroke-width:1.5;" width="9" x="206.25" y="666.7617"/><text fill="#000000" font-family="sans-serif" font-size="16.5" lengthAdjust="spacing" textLength="36" x="224.25" y="677.8901">email</text><rect fill="none" height="9" style="stroke:#C82930;stroke-width:1.5;" width="9" x="206.25" y="687.5156"/><text fill="#000000" font-family="sans-serif" font-size="16.5" lengthAdjust="spacing" textLength="81" x="224.25" y="698.644">employeeId</text><rect fill="none" height="9" style="stroke:#C82930;stroke-width:1.5;" width="9" x="206.25" y="708.2695"/><text fill="#000000" font-family="sans-serif" font-size="16.5" lengthAdjust="spacing" textLength="64.5" x="224.25" y="719.3979">socCode</text><rect fill="none" height="9" style="stroke:#C82930;stroke-width:1.5;" width="9" x="206.25" y="729.0234"/><text fill="#000000" font-family="sans-serif" font-size="16.5" lengthAdjust="spacing" textLength="141" x="224.25" y="740.1519">doctorIndexNumber</text><line style="stroke:#A80036;stroke-width:2.25;" x1="195.75" x2="821.25" y1="749.7773" y2="749.7773"/><ellipse cx="210.75" cy="766.2773" fill="#84BE84" rx="4.5" ry="4.5" style="stroke:#038048;stroke-width:1.5;"/><text fill="#000000" font-family="sans-serif" font-size="16.5" lengthAdjust="spacing" textLength="589.5" x="224.25" y="772.9058">EmployeeDTO(name, adress, phoneNumber, email, socCode, doctorIndexNumber)</text><ellipse cx="210.75" cy="787.0313" fill="#84BE84" rx="4.5" ry="4.5" style="stroke:#038048;stroke-width:1.5;"/><text fill="#000000" font-family="sans-serif" font-size="16.5" lengthAdjust="spacing" textLength="439.5" x="224.25" y="793.6597">EmployeeDTO(name, adress, phoneNumber, email, socCode)</text><ellipse cx="210.75" cy="807.7852" fill="#84BE84" rx="4.5" ry="4.5" style="stroke:#038048;stroke-width:1.5;"/><text fill="#000000" font-family="sans-serif" font-size="16.5" lengthAdjust="spacing" textLength="75" x="224.25" y="814.4136">getName()</text><ellipse cx="210.75" cy="828.5391" fill="#84BE84" rx="4.5" ry="4.5" style="stroke:#038048;stroke-width:1.5;"/><text fill="#000000" font-family="sans-serif" font-size="16.5" lengthAdjust="spacing" textLength="88.5" x="224.25" y="835.1675">getAdress()</text><ellipse cx="210.75" cy="849.293" fill="#84BE84" rx="4.5" ry="4.5" style="stroke:#038048;stroke-width:1.5;"/><text fill="#000000" font-family="sans-serif" font-size="16.5" lengthAdjust="spacing" textLength="135" x="224.25" y="855.9214">getphoneNumber()</text><ellipse cx="210.75" cy="870.0469" fill="#84BE84" rx="4.5" ry="4.5" style="stroke:#038048;stroke-width:1.5;"/><text fill="#000000" font-family="sans-serif" font-size="16.5" lengthAdjust="spacing" textLength="70.5" x="224.25" y="876.6753">getEmail()</text><ellipse cx="210.75" cy="890.8008" fill="#84BE84" rx="4.5" ry="4.5" style="stroke:#038048;stroke-width:1.5;"/><text fill="#000000" font-family="sans-serif" font-size="16.5" lengthAdjust="spacing" textLength="115.5" x="224.25" y="897.4292">getEmployeeId()</text><ellipse cx="210.75" cy="911.5547" fill="#84BE84" rx="4.5" ry="4.5" style="stroke:#038048;stroke-width:1.5;"/><text fill="#000000" font-family="sans-serif" font-size="16.5" lengthAdjust="spacing" textLength="100.5" x="224.25" y="918.1831">getSocCode()</text><ellipse cx="210.75" cy="932.3086" fill="#84BE84" rx="4.5" ry="4.5" style="stroke:#038048;stroke-width:1.5;"/><text fill="#000000" font-family="sans-serif" font-size="16.5" lengthAdjust="spacing" textLength="177" x="224.25" y="938.937">getDoctorIndexNumber()</text><!--MD5=[4543091c387f147fceabade6c180ba98]
class EmployeeMapper--><rect codeLine="83" fill="#FEFECE" filter="url(#f1r494xcj5fcoc)" height="113.5078" id="EmployeeMapper" style="stroke:#A80036;stroke-width:2.25;" width="268.5" x="374.25" y="1095.75"/><ellipse cx="431.175" cy="1119.75" fill="#ADD1B2" rx="16.5" ry="16.5" style="stroke:#A80036;stroke-width:1.5;"/><path d="M434.175,1114.5 Q434.4797,1113.75 434.8312,1113.375 Q435.1828,1113 435.5812,1113 Q436.2844,1113 436.7297,1113.4219 Q437.175,1113.8438 437.175,1114.8281 L437.175,1117.1719 Q437.175,1118.1563 436.7531,1118.5781 Q436.3312,1119 435.675,1119 Q435.0891,1119 434.7141,1118.7422 Q434.3391,1118.4844 434.175,1117.8047 Q434.1047,1117.3359 433.8469,1117.0781 Q433.3781,1116.5859 432.5344,1116.3047 Q431.6906,1116 430.8469,1116 Q429.7922,1116 428.9016,1116.4219 Q428.0344,1116.8438 427.3547,1117.7813 Q426.675,1118.7188 426.675,1120.0078 L426.675,1121.3906 Q426.675,1122.9375 427.9406,1123.9688 Q429.2062,1125 431.4562,1125 Q432.7922,1125 433.7297,1124.6953 Q434.2687,1124.5313 434.8781,1123.9922 Q435.2766,1123.6875 435.4875,1123.5938 Q435.6984,1123.5 435.9562,1123.5 Q436.4484,1123.5 436.8,1123.8984 Q437.175,1124.2734 437.175,1124.8125 Q437.175,1125.3281 436.6594,1125.9375 Q435.9094,1126.8281 434.7141,1127.3203 Q433.1437,1128 431.2219,1128 Q428.9719,1128 427.1672,1127.1094 Q425.7141,1126.4063 424.6828,1124.8828 Q423.675,1123.3594 423.675,1121.5547 L423.675,1119.9141 Q423.675,1118.0391 424.5656,1116.3984 Q425.4797,1114.7578 427.05,1113.8906 Q428.6437,1113 430.425,1113 Q431.5031,1113 432.4406,1113.375 Q433.3781,1113.75 434.175,1114.5 Z " fill="#000000"/><text fill="#000000" font-family="sans-serif" font-size="18" lengthAdjust="spacing" textLength="144" x="459.825" y="1127.1152">EmployeeMapper</text><line style="stroke:#A80036;stroke-width:2.25;" x1="375.75" x2="641.25" y1="1143.75" y2="1143.75"/><line style="stroke:#A80036;stroke-width:2.25;" x1="375.75" x2="641.25" y1="1155.75" y2="1155.75"/><ellipse cx="390.75" cy="1172.25" fill="#84BE84" rx="4.5" ry="4.5" style="stroke:#038048;stroke-width:1.5;"/><text fill="#000000" font-family="sans-serif" font-size="16.5" lengthAdjust="spacing" textLength="229.5" x="404.25" y="1178.8784">createSpecialistDoctor(empDto)</text><ellipse cx="390.75" cy="1193.0039" fill="#84BE84" rx="4.5" ry="4.5" style="stroke:#038048;stroke-width:1.5;"/><text fill="#000000" font-family="sans-serif" font-size="16.5" lengthAdjust="spacing" textLength="181.5" x="404.25" y="1199.6323">createEmployee(empDto)</text><!--MD5=[aca3c536c007fb05376992ab6634e449]
class OrganizationRoleStore--><rect codeLine="116" fill="#FEFECE" filter="url(#f1r494xcj5fcoc)" height="134.2617" id="OrganizationRoleStore" style="stroke:#A80036;stroke-width:2.25;" width="300" x="1017" y="1085.25"/><ellipse cx="1069.2" cy="1109.25" fill="#ADD1B2" rx="16.5" ry="16.5" style="stroke:#A80036;stroke-width:1.5;"/><path d="M1072.2,1104 Q1072.5047,1103.25 1072.8562,1102.875 Q1073.2078,1102.5 1073.6062,1102.5 Q1074.3094,1102.5 1074.7547,1102.9219 Q1075.2,1103.3438 1075.2,1104.3281 L1075.2,1106.6719 Q1075.2,1107.6563 1074.7781,1108.0781 Q1074.3562,1108.5 1073.7,1108.5 Q1073.1141,1108.5 1072.7391,1108.2422 Q1072.3641,1107.9844 1072.2,1107.3047 Q1072.1297,1106.8359 1071.8719,1106.5781 Q1071.4031,1106.0859 1070.5594,1105.8047 Q1069.7156,1105.5 1068.8719,1105.5 Q1067.8172,1105.5 1066.9266,1105.9219 Q1066.0594,1106.3438 1065.3797,1107.2813 Q1064.7,1108.2188 1064.7,1109.5078 L1064.7,1110.8906 Q1064.7,1112.4375 1065.9656,1113.4688 Q1067.2312,1114.5 1069.4812,1114.5 Q1070.8172,1114.5 1071.7547,1114.1953 Q1072.2937,1114.0313 1072.9031,1113.4922 Q1073.3016,1113.1875 1073.5125,1113.0938 Q1073.7234,1113 1073.9812,1113 Q1074.4734,1113 1074.825,1113.3984 Q1075.2,1113.7734 1075.2,1114.3125 Q1075.2,1114.8281 1074.6844,1115.4375 Q1073.9344,1116.3281 1072.7391,1116.8203 Q1071.1687,1117.5 1069.2469,1117.5 Q1066.9969,1117.5 1065.1922,1116.6094 Q1063.7391,1115.9063 1062.7078,1114.3828 Q1061.7,1112.8594 1061.7,1111.0547 L1061.7,1109.4141 Q1061.7,1107.5391 1062.5906,1105.8984 Q1063.5047,1104.2578 1065.075,1103.3906 Q1066.6687,1102.5 1068.45,1102.5 Q1069.5281,1102.5 1070.4656,1102.875 Q1071.4031,1103.25 1072.2,1104 Z " fill="#000000"/><text fill="#000000" font-family="sans-serif" font-size="18" lengthAdjust="spacing" textLength="186" x="1096.8" y="1116.6152">OrganizationRoleStore</text><line style="stroke:#A80036;stroke-width:2.25;" x1="1018.5" x2="1315.5" y1="1133.25" y2="1133.25"/><rect fill="none" height="9" style="stroke:#C82930;stroke-width:1.5;" width="9" x="1029" y="1145.25"/><text fill="#000000" font-family="sans-serif" font-size="16.5" lengthAdjust="spacing" textLength="78" x="1047" y="1156.3784">listOrgRole</text><line style="stroke:#A80036;stroke-width:2.25;" x1="1018.5" x2="1315.5" y1="1166.0039" y2="1166.0039"/><ellipse cx="1033.5" cy="1182.5039" fill="#84BE84" rx="4.5" ry="4.5" style="stroke:#038048;stroke-width:1.5;"/><text fill="#000000" font-family="sans-serif" font-size="16.5" lengthAdjust="spacing" textLength="145.5" x="1047" y="1189.1323">getListOfOrgRoles()</text><ellipse cx="1033.5" cy="1203.2578" fill="#84BE84" rx="4.5" ry="4.5" style="stroke:#038048;stroke-width:1.5;"/><text fill="#000000" font-family="sans-serif" font-size="16.5" lengthAdjust="spacing" textLength="261" x="1047" y="1209.8862">createOrganizationRole(orgRoleDto)</text><!--MD5=[38bc9548dd9b3552396f9d08e2f99d94]
class EmployeeDto--><rect codeLine="89" fill="#FEFECE" filter="url(#f1r494xcj5fcoc)" height="175.7695" id="EmployeeDto" style="stroke:#A80036;stroke-width:2.25;" width="216" x="1228.5" y="10.5"/><ellipse cx="1276.65" cy="34.5" fill="#ADD1B2" rx="16.5" ry="16.5" style="stroke:#A80036;stroke-width:1.5;"/><path d="M1279.65,29.25 Q1279.9547,28.5 1280.3063,28.125 Q1280.6578,27.75 1281.0563,27.75 Q1281.7594,27.75 1282.2047,28.1719 Q1282.65,28.5938 1282.65,29.5781 L1282.65,31.9219 Q1282.65,32.9063 1282.2281,33.3281 Q1281.8063,33.75 1281.15,33.75 Q1280.5641,33.75 1280.1891,33.4922 Q1279.8141,33.2344 1279.65,32.5547 Q1279.5797,32.0859 1279.3219,31.8281 Q1278.8531,31.3359 1278.0094,31.0547 Q1277.1656,30.75 1276.3219,30.75 Q1275.2672,30.75 1274.3766,31.1719 Q1273.5094,31.5938 1272.8297,32.5313 Q1272.15,33.4688 1272.15,34.7578 L1272.15,36.1406 Q1272.15,37.6875 1273.4156,38.7188 Q1274.6813,39.75 1276.9313,39.75 Q1278.2672,39.75 1279.2047,39.4453 Q1279.7438,39.2813 1280.3531,38.7422 Q1280.7516,38.4375 1280.9625,38.3438 Q1281.1734,38.25 1281.4313,38.25 Q1281.9234,38.25 1282.275,38.6484 Q1282.65,39.0234 1282.65,39.5625 Q1282.65,40.0781 1282.1344,40.6875 Q1281.3844,41.5781 1280.1891,42.0703 Q1278.6188,42.75 1276.6969,42.75 Q1274.4469,42.75 1272.6422,41.8594 Q1271.1891,41.1563 1270.1578,39.6328 Q1269.15,38.1094 1269.15,36.3047 L1269.15,34.6641 Q1269.15,32.7891 1270.0406,31.1484 Q1270.9547,29.5078 1272.525,28.6406 Q1274.1188,27.75 1275.9,27.75 Q1276.9781,27.75 1277.9156,28.125 Q1278.8531,28.5 1279.65,29.25 Z " fill="#000000"/><text fill="#000000" font-family="sans-serif" font-size="18" lengthAdjust="spacing" textLength="111" x="1303.35" y="41.8652">EmployeeDto</text><line style="stroke:#A80036;stroke-width:2.25;" x1="1230" x2="1443" y1="58.5" y2="58.5"/><line style="stroke:#A80036;stroke-width:2.25;" x1="1230" x2="1443" y1="70.5" y2="70.5"/><ellipse cx="1245" cy="87" fill="#84BE84" rx="4.5" ry="4.5" style="stroke:#038048;stroke-width:1.5;"/><text fill="#000000" font-family="sans-serif" font-size="16.5" lengthAdjust="spacing" textLength="75" x="1258.5" y="93.6284">getName()</text><ellipse cx="1245" cy="107.7539" fill="#84BE84" rx="4.5" ry="4.5" style="stroke:#038048;stroke-width:1.5;"/><text fill="#000000" font-family="sans-serif" font-size="16.5" lengthAdjust="spacing" textLength="97.5" x="1258.5" y="114.3823">getAddress()</text><ellipse cx="1245" cy="128.5078" fill="#84BE84" rx="4.5" ry="4.5" style="stroke:#038048;stroke-width:1.5;"/><text fill="#000000" font-family="sans-serif" font-size="16.5" lengthAdjust="spacing" textLength="135" x="1258.5" y="135.1362">getPhoneNumber()</text><ellipse cx="1245" cy="149.2617" fill="#84BE84" rx="4.5" ry="4.5" style="stroke:#038048;stroke-width:1.5;"/><text fill="#000000" font-family="sans-serif" font-size="16.5" lengthAdjust="spacing" textLength="100.5" x="1258.5" y="155.8901">getSocCode()</text><ellipse cx="1245" cy="170.0156" fill="#84BE84" rx="4.5" ry="4.5" style="stroke:#038048;stroke-width:1.5;"/><text fill="#000000" font-family="sans-serif" font-size="16.5" lengthAdjust="spacing" textLength="177" x="1258.5" y="176.644">getDoctorIndexNumber()</text><!--MD5=[9648088c85fe5e84aaaca2b12eb7f67f]
class OrganizationRoleDto--><rect codeLine="106" fill="#FEFECE" filter="url(#f1r494xcj5fcoc)" height="134.2617" id="OrganizationRoleDto" style="stroke:#A80036;stroke-width:2.25;" width="219" x="34.5" y="1398.75"/><ellipse cx="57" cy="1422.75" fill="#ADD1B2" rx="16.5" ry="16.5" style="stroke:#A80036;stroke-width:1.5;"/><path d="M60,1417.5 Q60.3047,1416.75 60.6563,1416.375 Q61.0078,1416 61.4063,1416 Q62.1094,1416 62.5547,1416.4219 Q63,1416.8438 63,1417.8281 L63,1420.1719 Q63,1421.1563 62.5781,1421.5781 Q62.1563,1422 61.5,1422 Q60.9141,1422 60.5391,1421.7422 Q60.1641,1421.4844 60,1420.8047 Q59.9297,1420.3359 59.6719,1420.0781 Q59.2031,1419.5859 58.3594,1419.3047 Q57.5156,1419 56.6719,1419 Q55.6172,1419 54.7266,1419.4219 Q53.8594,1419.8438 53.1797,1420.7813 Q52.5,1421.7188 52.5,1423.0078 L52.5,1424.3906 Q52.5,1425.9375 53.7656,1426.9688 Q55.0313,1428 57.2813,1428 Q58.6172,1428 59.5547,1427.6953 Q60.0938,1427.5313 60.7031,1426.9922 Q61.1016,1426.6875 61.3125,1426.5938 Q61.5234,1426.5 61.7813,1426.5 Q62.2734,1426.5 62.625,1426.8984 Q63,1427.2734 63,1427.8125 Q63,1428.3281 62.4844,1428.9375 Q61.7344,1429.8281 60.5391,1430.3203 Q58.9688,1431 57.0469,1431 Q54.7969,1431 52.9922,1430.1094 Q51.5391,1429.4063 50.5078,1427.8828 Q49.5,1426.3594 49.5,1424.5547 L49.5,1422.9141 Q49.5,1421.0391 50.3906,1419.3984 Q51.3047,1417.7578 52.875,1416.8906 Q54.4688,1416 56.25,1416 Q57.3281,1416 58.2656,1416.375 Q59.2031,1416.75 60,1417.5 Z " fill="#000000"/><text fill="#000000" font-family="sans-serif" font-size="18" lengthAdjust="spacing" textLength="171" x="78" y="1430.1152">OrganizationRoleDto</text><line style="stroke:#A80036;stroke-width:2.25;" x1="36" x2="252" y1="1446.75" y2="1446.75"/><rect fill="none" height="9" style="stroke:#C82930;stroke-width:1.5;" width="9" x="46.5" y="1458.75"/><text fill="#000000" font-family="sans-serif" font-size="16.5" lengthAdjust="spacing" textLength="82.5" x="64.5" y="1469.8784">designation</text><line style="stroke:#A80036;stroke-width:2.25;" x1="36" x2="252" y1="1479.5039" y2="1479.5039"/><ellipse cx="51" cy="1496.0039" fill="#84BE84" rx="4.5" ry="4.5" style="stroke:#038048;stroke-width:1.5;"/><text fill="#000000" font-family="sans-serif" font-size="16.5" lengthAdjust="spacing" textLength="142.5" x="64.5" y="1502.6323">getDesignationDto()</text><ellipse cx="51" cy="1516.7578" fill="#84BE84" rx="4.5" ry="4.5" style="stroke:#038048;stroke-width:1.5;"/><text fill="#000000" font-family="sans-serif" font-size="16.5" lengthAdjust="spacing" textLength="142.5" x="64.5" y="1523.3862">getDesignationSto()</text><!--MD5=[232dddeb8ed1c921ef01022c786a20ff]
link EmployeeMapper to Employee--><path codeLine="121" d="M534.78,1209.765 C553.2,1248.66 578.475,1302.06 601.14,1349.94 " fill="none" id="EmployeeMapper-to-Employee" style="stroke:#A80036;stroke-width:1.5;stroke-dasharray:7.0,7.0;"/><polygon fill="#A80036" points="604.47,1356.96,604.1012,1342.1913,601.2538,1350.1846,593.2606,1347.3372,604.47,1356.96" style="stroke:#A80036;stroke-width:1.5;"/><!--MD5=[b3b4f33f45301bf7dc26d02dbbdf24d8]
link EmployeeDTO to EmployeeMapper--><path codeLine="122" d="M508.5,948.315 C508.5,998.91 508.5,1049.61 508.5,1087.665 " fill="none" id="EmployeeDTO-to-EmployeeMapper" style="stroke:#A80036;stroke-width:1.5;stroke-dasharray:7.0,7.0;"/><polygon fill="#A80036" points="508.5,1095.6,514.5,1082.1,508.5,1088.1,502.5,1082.1,508.5,1095.6" style="stroke:#A80036;stroke-width:1.5;"/><!--MD5=[ce859576cba61219b3cb4d2d23fdcd81]
link Company to EmployeeStore--><path codeLine="123" d="M1027.635,813.93 C988.62,880.335 928.185,983.22 884.325,1057.92 " fill="none" id="Company-to-EmployeeStore" style="stroke:#A80036;stroke-width:1.5;"/><polygon fill="#A80036" points="880.395,1064.595,892.4188,1056.0114,884.2033,1058.1338,882.0809,1049.9182,880.395,1064.595" style="stroke:#A80036;stroke-width:1.5;"/><text fill="#000000" font-family="sans-serif" font-size="19.5" lengthAdjust="spacing" textLength="42" x="921" y="1014.7427">uses</text><text fill="#000000" font-family="sans-serif" font-size="19.5" lengthAdjust="spacing" textLength="10.5" x="1010.9313" y="845.4667">1</text><text fill="#000000" font-family="sans-serif" font-size="19.5" lengthAdjust="spacing" textLength="10.5" x="875.458" y="1048.647">1</text><!--MD5=[372bd27a178b4208a6d241b4516ac7e6]
reverse link Employee to SpecialistDoctor--><path codeLine="124" d="M705.27,1603.395 C718.11,1638.39 731.22,1674.135 741.6,1702.425 " fill="none" id="Employee-backto-SpecialistDoctor" style="stroke:#A80036;stroke-width:1.5;"/><polygon fill="none" points="695.325,1606.785,694.86,1575,715.05,1599.555,695.325,1606.785" style="stroke:#A80036;stroke-width:1.5;"/><!--MD5=[969ee03aa52aee79b0e607297418cbd4]
link RegisterEmployeeController to Company--><path codeLine="125" d="M1066.5,453.465 C1066.5,519.105 1066.5,608.295 1066.5,670.62 " fill="none" id="RegisterEmployeeController-to-Company" style="stroke:#A80036;stroke-width:1.5;stroke-dasharray:7.0,7.0;"/><polygon fill="#A80036" points="1066.5,678.465,1072.5,664.965,1066.5,670.965,1060.5,664.965,1066.5,678.465" style="stroke:#A80036;stroke-width:1.5;"/><!--MD5=[241b49406f7a05442b1e788ffaf3787c]
link Employee to OrganizationRole--><path codeLine="126" d="M507.81,1575.27 C471.06,1608.78 435.27,1648.485 411,1692 C375.405,1755.81 362.865,1839 358.65,1898.445 " fill="none" id="Employee-to-OrganizationRole" style="stroke:#A80036;stroke-width:1.5;"/><polygon fill="#A80036" points="357.51,1918.035,364.0337,1909.4071,358.5786,1900.0667,352.0549,1908.6947,357.51,1918.035" style="stroke:#A80036;stroke-width:1.5;"/><!--MD5=[3fd241ca11f270f6bde54c00b8a8581a]
link RegisterEmployeeUI to RegisterEmployeeController--><path codeLine="127" d="M1066.5,134.265 C1066.5,168.345 1066.5,222.03 1066.5,268.92 " fill="none" id="RegisterEmployeeUI-to-RegisterEmployeeController" style="stroke:#A80036;stroke-width:1.5;stroke-dasharray:7.0,7.0;"/><polygon fill="#A80036" points="1066.5,276.975,1072.5,263.475,1066.5,269.475,1060.5,263.475,1066.5,276.975" style="stroke:#A80036;stroke-width:1.5;"/><!--MD5=[2f3bac1bdf76f0b867b8cadb6fadb6bc]
link EmployeeStore to Employee--><path codeLine="128" d="M781.035,1240.74 C762,1274.7 739.89,1314.15 719.58,1350.405 " fill="none" id="EmployeeStore-to-Employee" style="stroke:#A80036;stroke-width:1.5;"/><polygon fill="#A80036" points="715.815,1357.125,727.6382,1348.2672,719.4737,1350.5779,717.1629,1342.4133,715.815,1357.125" style="stroke:#A80036;stroke-width:1.5;"/><text fill="#000000" font-family="sans-serif" font-size="19.5" lengthAdjust="spacing" textLength="55.5" x="753" y="1307.2427">knows</text><text fill="#000000" font-family="sans-serif" font-size="19.5" lengthAdjust="spacing" textLength="10.5" x="763.9885" y="1273.1847">1</text><text fill="#000000" font-family="sans-serif" font-size="19.5" lengthAdjust="spacing" textLength="7.5" x="714.1483" y="1340.9153">*</text><!--MD5=[791833a825fb80e97ccae54226c6f9b1]
link Company to OrganizationRoleStore--><path codeLine="129" d="M1082.985,813.93 C1101.015,886.335 1129.86,1002.12 1148.61,1077.42 " fill="none" id="Company-to-OrganizationRoleStore" style="stroke:#A80036;stroke-width:1.5;"/><polygon fill="#A80036" points="1150.515,1085.04,1153.0515,1070.4861,1148.6909,1077.7652,1141.4118,1073.4046,1150.515,1085.04" style="stroke:#A80036;stroke-width:1.5;"/><text fill="#000000" font-family="sans-serif" font-size="19.5" lengthAdjust="spacing" textLength="42" x="1132.5" y="1014.7427">uses</text><text fill="#000000" font-family="sans-serif" font-size="19.5" lengthAdjust="spacing" textLength="10.5" x="1074.0649" y="845.4667">1</text><text fill="#000000" font-family="sans-serif" font-size="19.5" lengthAdjust="spacing" textLength="10.5" x="1136.6868" y="1069.174">1</text><!--MD5=[1c6634e41ea173d211257c54b2312dae]
link OrganizationRoleStore to OrganizationRole--><path codeLine="130" d="M1184.955,1220.595 C1216.65,1353.93 1265.67,1656.21 1113,1827 C1032.255,1917.33 686.925,1953.435 492.105,1966.83 " fill="none" id="OrganizationRoleStore-to-OrganizationRole" style="stroke:#A80036;stroke-width:1.5;"/><polygon fill="#A80036" points="484.095,1967.37,497.9738,1972.4324,491.5774,1966.8569,497.1529,1960.4605,484.095,1967.37" style="stroke:#A80036;stroke-width:1.5;"/><text fill="#000000" font-family="sans-serif" font-size="19.5" lengthAdjust="spacing" textLength="58.5" x="1207.5" y="1641.7427">adopts</text><text fill="#000000" font-family="sans-serif" font-size="19.5" lengthAdjust="spacing" textLength="10.5" x="1176.1622" y="1251.6519">1</text><text fill="#000000" font-family="sans-serif" font-size="19.5" lengthAdjust="spacing" textLength="30" x="495.8622" y="1961.9879">1..*</text><!--MD5=[fbcb59efe238b8cbac26feb5594228e1]
link OrganizationRoleMapper to OrganizationRole--><path codeLine="131" d="M210.225,1827.225 C237.255,1854.255 268.32,1885.32 294.915,1911.915 " fill="none" id="OrganizationRoleMapper-to-OrganizationRole" style="stroke:#A80036;stroke-width:1.5;stroke-dasharray:7.0,7.0;"/><polygon fill="#A80036" points="300.855,1917.855,295.5517,1904.0664,295.5517,1912.5517,287.0664,1912.5517,300.855,1917.855" style="stroke:#A80036;stroke-width:1.5;"/><!--MD5=[7e79e002aa8f1fb01b5f5ce09b972382]
link OrganizationRoleDto to OrganizationRoleMapper--><path codeLine="132" d="M144,1534.335 C144,1578.96 144,1637.745 144,1683.855 " fill="none" id="OrganizationRoleDto-to-OrganizationRoleMapper" style="stroke:#A80036;stroke-width:1.5;stroke-dasharray:7.0,7.0;"/><polygon fill="#A80036" points="144,1691.715,150,1678.215,144,1684.215,138,1678.215,144,1691.715" style="stroke:#A80036;stroke-width:1.5;"/><!--MD5=[94bee967ef6c33999521e0cb104b677f]
@startuml
'https://plantuml.com/class-diagram

class Company
class Employee
class EmployeeStore
class RegisterEmployeeUI
class RegisterEmployeeController
class OrganizationRole
class SpecialistDoctor
class OrganizationRoleMapper
class EmployeeDTO
class EmployeeMapper
class OrganizationRoleStore
class EmployeeDTO
class EmployeeMapper


class Company{
-designation
+getEmployeeStore()
+getOrgRolesStore()

}

class Employee{
-name
-address
-phoneNumber
-email
-employeeId
-socCode
+Employee(name address, phoneNumber, email, socCode)

}
class SpecialistDoctor{
-doctorIndexNumber
+SpecialistDoctor(name address, phoneNumber, email, socCode, doctorIndexNumber)

}

class OrganizationRole{
-description
+OrganizationRole(description)
}



class EmployeeStore{
+createEmployee(empDto)
+createSpecialistDoctor(empDto)
+validateEmployee(emp)
+addEmployee(emp)
+saveEmployee(emp)
}

class RegisterEmployeeController{
+getListOfOrgRoles()
+createOrganizationRole(orgRoleDto)
+createSpecialistDoctor(empDto)
+createEmployee(empDto)
+saveEmployee()

}
class EmployeeDTO{
-name
-address
-phoneNumber
-email
-employeeId
-socCode
-doctorIndexNumber
+EmployeeDTO(name, adress, phoneNumber, email, socCode, doctorIndexNumber)
+EmployeeDTO(name, adress, phoneNumber, email, socCode)
+getName()
+getAdress()
+getphoneNumber()
+getEmail()
+getEmployeeId()
+getSocCode()
+getDoctorIndexNumber()
}

class EmployeeMapper{
+createSpecialistDoctor(empDto)
+createEmployee(empDto)
}


class EmployeeDto{
+getName()
+getAddress()
+getPhoneNumber()
+getSocCode()
+getDoctorIndexNumber()
}

class OrganizationRoleMapper{
+toOrgRole(orgRoleDto)

}

class OrganizationRoleDto{
-designation
+getDesignationDto()
}
class OrganizationRoleDto{
+getDesignationSto()

}

class OrganizationRoleMapper{
-listOrgRolesDto
+toOrganizationRole(orgRoleDto)
}

class OrganizationRoleStore{
-listOrgRole
+getListOfOrgRoles()
+createOrganizationRole(orgRoleDto)
}
EmployeeMapper..>Employee
EmployeeDTO..>EmployeeMapper
Company "1"- ->"1" EmployeeStore : uses
Employee<|- -SpecialistDoctor
RegisterEmployeeController ..>Company
Employee - -* OrganizationRole
RegisterEmployeeUI ..> RegisterEmployeeController
EmployeeStore "1"- ->"*" Employee  : knows
Company "1"- ->"1" OrganizationRoleStore : uses
OrganizationRoleStore "1"- - - ->"1..*" OrganizationRole : adopts
OrganizationRoleMapper..>OrganizationRole
OrganizationRoleDto..>OrganizationRoleMapper
@enduml

@startuml

class Company
class Employee
class EmployeeStore
class RegisterEmployeeUI
class RegisterEmployeeController
class OrganizationRole
class SpecialistDoctor
class OrganizationRoleMapper
class EmployeeDTO
class EmployeeMapper
class OrganizationRoleStore
class EmployeeDTO
class EmployeeMapper


class Company{
-designation
+getEmployeeStore()
+getOrgRolesStore()

}

class Employee{
-name
-address
-phoneNumber
-email
-employeeId
-socCode
+Employee(name address, phoneNumber, email, socCode)

}
class SpecialistDoctor{
-doctorIndexNumber
+SpecialistDoctor(name address, phoneNumber, email, socCode, doctorIndexNumber)

}

class OrganizationRole{
-description
+OrganizationRole(description)
}



class EmployeeStore{
+createEmployee(empDto)
+createSpecialistDoctor(empDto)
+validateEmployee(emp)
+addEmployee(emp)
+saveEmployee(emp)
}

class RegisterEmployeeController{
+getListOfOrgRoles()
+createOrganizationRole(orgRoleDto)
+createSpecialistDoctor(empDto)
+createEmployee(empDto)
+saveEmployee()

}
class EmployeeDTO{
-name
-address
-phoneNumber
-email
-employeeId
-socCode
-doctorIndexNumber
+EmployeeDTO(name, adress, phoneNumber, email, socCode, doctorIndexNumber)
+EmployeeDTO(name, adress, phoneNumber, email, socCode)
+getName()
+getAdress()
+getphoneNumber()
+getEmail()
+getEmployeeId()
+getSocCode()
+getDoctorIndexNumber()
}

class EmployeeMapper{
+createSpecialistDoctor(empDto)
+createEmployee(empDto)
}


class EmployeeDto{
+getName()
+getAddress()
+getPhoneNumber()
+getSocCode()
+getDoctorIndexNumber()
}

class OrganizationRoleMapper{
+toOrgRole(orgRoleDto)

}

class OrganizationRoleDto{
-designation
+getDesignationDto()
}
class OrganizationRoleDto{
+getDesignationSto()

}

class OrganizationRoleMapper{
-listOrgRolesDto
+toOrganizationRole(orgRoleDto)
}

class OrganizationRoleStore{
-listOrgRole
+getListOfOrgRoles()
+createOrganizationRole(orgRoleDto)
}
EmployeeMapper..>Employee
EmployeeDTO..>EmployeeMapper
Company "1"- ->"1" EmployeeStore : uses
Employee<|- -SpecialistDoctor
RegisterEmployeeController ..>Company
Employee - -* OrganizationRole
RegisterEmployeeUI ..> RegisterEmployeeController
EmployeeStore "1"- ->"*" Employee  : knows
Company "1"- ->"1" OrganizationRoleStore : uses
OrganizationRoleStore "1"- - - ->"1..*" OrganizationRole : adopts
OrganizationRoleMapper..>OrganizationRole
OrganizationRoleDto..>OrganizationRoleMapper
@enduml

PlantUML version 1.2021.5(Sun Apr 25 12:20:28 BST 2021)
(GPL source distribution)
Java Runtime: OpenJDK Runtime Environment
JVM: Dynamic Code Evolution 64-Bit Server VM
Default Encoding: Cp1252
Language: pt
Country: PT
--></g></svg>