<?xml version="1.0" encoding="UTF-8" standalone="no"?><svg xmlns="http://www.w3.org/2000/svg" xmlns:xlink="http://www.w3.org/1999/xlink" contentScriptType="application/ecmascript" contentStyleType="text/css" height="451.8px" preserveAspectRatio="none" style="width:846px;height:451px;" version="1.1" viewBox="0 0 846 451" width="846px" zoomAndPan="magnify"><defs><filter height="300%" id="f13kc1viicctd0" width="300%" x="-1" y="-1"><feGaussianBlur result="blurOut" stdDeviation="3.6"/><feColorMatrix in="blurOut" result="blurOut2" type="matrix" values="0 0 0 0 0 0 0 0 0 0 0 0 0 0 0 0 0 0 .4 0"/><feOffset dx="7.2" dy="7.2" in="blurOut2" result="blurOut3"/><feBlend in="SourceGraphic" in2="blurOut3" mode="normal"/></filter></defs><g><!--MD5=[da547346deef918ea16944ba046651ef]
class Administrator--><rect codeLine="6" fill="#FEFECE" filter="url(#f13kc1viicctd0)" height="72" id="Administrator" style="stroke:#A80036;stroke-width:2.7;" width="189" x="12.6" y="36.9"/><ellipse cx="39.6" cy="65.7" fill="#ADD1B2" rx="19.8" ry="19.8" style="stroke:#A80036;stroke-width:1.8;"/><path d="M43.2,59.4 Q43.5656,58.5 43.9875,58.05 Q44.4094,57.6 44.8875,57.6 Q45.7313,57.6 46.2656,58.1063 Q46.8,58.6125 46.8,59.7938 L46.8,62.6063 Q46.8,63.7875 46.2938,64.2938 Q45.7875,64.8 45,64.8 Q44.2969,64.8 43.8469,64.4906 Q43.3969,64.1813 43.2,63.3656 Q43.1156,62.8031 42.8063,62.4938 Q42.2438,61.9031 41.2313,61.5656 Q40.2188,61.2 39.2063,61.2 Q37.9406,61.2 36.8719,61.7063 Q35.8313,62.2125 35.0156,63.3375 Q34.2,64.4625 34.2,66.0094 L34.2,67.6688 Q34.2,69.525 35.7188,70.7625 Q37.2375,72 39.9375,72 Q41.5406,72 42.6656,71.6344 Q43.3125,71.4375 44.0438,70.7906 Q44.5219,70.425 44.775,70.3125 Q45.0281,70.2 45.3375,70.2 Q45.9281,70.2 46.35,70.6781 Q46.8,71.1281 46.8,71.775 Q46.8,72.3938 46.1813,73.125 Q45.2813,74.1938 43.8469,74.7844 Q41.9625,75.6 39.6563,75.6 Q36.9563,75.6 34.7906,74.5313 Q33.0469,73.6875 31.8094,71.8594 Q30.6,70.0313 30.6,67.8656 L30.6,65.8969 Q30.6,63.6469 31.6688,61.6781 Q32.7656,59.7094 34.65,58.6688 Q36.5625,57.6 38.7,57.6 Q39.9938,57.6 41.1188,58.05 Q42.2438,58.5 43.2,59.4 Z " fill="#000000"/><text fill="#000000" font-family="sans-serif" font-size="21.6" lengthAdjust="spacing" textLength="131.4" x="64.8" y="74.5383">Administrator</text><line style="stroke:#A80036;stroke-width:2.7;" x1="14.4" x2="199.8" y1="94.5" y2="94.5"/><!--MD5=[02e4b9b7573f1156f41e60aa5b4e25a4]
class Company--><rect codeLine="7" fill="#FEFECE" filter="url(#f13kc1viicctd0)" height="72" id="Company" style="stroke:#A80036;stroke-width:2.7;" width="153" x="30.6" y="204.3"/><ellipse cx="57.6" cy="233.1" fill="#ADD1B2" rx="19.8" ry="19.8" style="stroke:#A80036;stroke-width:1.8;"/><path d="M61.2,226.8 Q61.5656,225.9 61.9875,225.45 Q62.4094,225 62.8875,225 Q63.7313,225 64.2656,225.5063 Q64.8,226.0125 64.8,227.1938 L64.8,230.0063 Q64.8,231.1875 64.2938,231.6938 Q63.7875,232.2 63,232.2 Q62.2969,232.2 61.8469,231.8906 Q61.3969,231.5813 61.2,230.7656 Q61.1156,230.2031 60.8063,229.8938 Q60.2438,229.3031 59.2313,228.9656 Q58.2188,228.6 57.2063,228.6 Q55.9406,228.6 54.8719,229.1063 Q53.8313,229.6125 53.0156,230.7375 Q52.2,231.8625 52.2,233.4094 L52.2,235.0688 Q52.2,236.925 53.7188,238.1625 Q55.2375,239.4 57.9375,239.4 Q59.5406,239.4 60.6656,239.0344 Q61.3125,238.8375 62.0438,238.1906 Q62.5219,237.825 62.775,237.7125 Q63.0281,237.6 63.3375,237.6 Q63.9281,237.6 64.35,238.0781 Q64.8,238.5281 64.8,239.175 Q64.8,239.7938 64.1813,240.525 Q63.2813,241.5938 61.8469,242.1844 Q59.9625,243 57.6563,243 Q54.9563,243 52.7906,241.9313 Q51.0469,241.0875 49.8094,239.2594 Q48.6,237.4313 48.6,235.2656 L48.6,233.2969 Q48.6,231.0469 49.6688,229.0781 Q50.7656,227.1094 52.65,226.0688 Q54.5625,225 56.7,225 Q57.9938,225 59.1188,225.45 Q60.2438,225.9 61.2,226.8 Z " fill="#000000"/><text fill="#000000" font-family="sans-serif" font-size="21.6" lengthAdjust="spacing" textLength="95.4" x="82.8" y="241.9383">Company</text><line style="stroke:#A80036;stroke-width:2.7;" x1="32.4" x2="181.8" y1="261.9" y2="261.9"/><!--MD5=[7421f545a0d8420c5bec41e74b387d9c]
class Employee--><rect codeLine="18" fill="#FEFECE" filter="url(#f13kc1viicctd0)" height="246.3328" id="Employee" style="stroke:#A80036;stroke-width:2.7;" width="172.8" x="414" y="12.6"/><ellipse cx="448.29" cy="41.4" fill="#ADD1B2" rx="19.8" ry="19.8" style="stroke:#A80036;stroke-width:1.8;"/><path d="M451.89,35.1 Q452.2556,34.2 452.6775,33.75 Q453.0994,33.3 453.5775,33.3 Q454.4213,33.3 454.9556,33.8063 Q455.49,34.3125 455.49,35.4938 L455.49,38.3063 Q455.49,39.4875 454.9838,39.9938 Q454.4775,40.5 453.69,40.5 Q452.9869,40.5 452.5369,40.1906 Q452.0869,39.8813 451.89,39.0656 Q451.8056,38.5031 451.4963,38.1938 Q450.9338,37.6031 449.9213,37.2656 Q448.9088,36.9 447.8963,36.9 Q446.6306,36.9 445.5619,37.4063 Q444.5213,37.9125 443.7056,39.0375 Q442.89,40.1625 442.89,41.7094 L442.89,43.3688 Q442.89,45.225 444.4088,46.4625 Q445.9275,47.7 448.6275,47.7 Q450.2306,47.7 451.3556,47.3344 Q452.0025,47.1375 452.7338,46.4906 Q453.2119,46.125 453.465,46.0125 Q453.7181,45.9 454.0275,45.9 Q454.6181,45.9 455.04,46.3781 Q455.49,46.8281 455.49,47.475 Q455.49,48.0938 454.8713,48.825 Q453.9713,49.8938 452.5369,50.4844 Q450.6525,51.3 448.3463,51.3 Q445.6463,51.3 443.4806,50.2313 Q441.7369,49.3875 440.4994,47.5594 Q439.29,45.7313 439.29,43.5656 L439.29,41.5969 Q439.29,39.3469 440.3588,37.3781 Q441.4556,35.4094 443.34,34.3688 Q445.2525,33.3 447.39,33.3 Q448.6838,33.3 449.8088,33.75 Q450.9338,34.2 451.89,35.1 Z " fill="#000000"/><text fill="#000000" font-family="sans-serif" font-size="21.6" lengthAdjust="spacing" textLength="99" x="475.11" y="50.2383">Employee</text><line style="stroke:#A80036;stroke-width:2.7;" x1="415.8" x2="585" y1="70.2" y2="70.2"/><text fill="#000000" font-family="sans-serif" font-size="19.8" lengthAdjust="spacing" textLength="54" x="424.8" y="97.9541">-name</text><text fill="#000000" font-family="sans-serif" font-size="19.8" lengthAdjust="spacing" textLength="79.2" x="424.8" y="122.8588">-address</text><text fill="#000000" font-family="sans-serif" font-size="19.8" lengthAdjust="spacing" textLength="127.8" x="424.8" y="147.7635">-phoneNumber</text><text fill="#000000" font-family="sans-serif" font-size="19.8" lengthAdjust="spacing" textLength="50.4" x="424.8" y="172.6682">-email</text><text fill="#000000" font-family="sans-serif" font-size="19.8" lengthAdjust="spacing" textLength="104.4" x="424.8" y="197.5729">-employeeId</text><text fill="#000000" font-family="sans-serif" font-size="19.8" lengthAdjust="spacing" textLength="151.2" x="424.8" y="222.4775">-organizationRole</text><text fill="#000000" font-family="sans-serif" font-size="19.8" lengthAdjust="spacing" textLength="84.6" x="424.8" y="247.3822">-socCode</text><!--MD5=[3fd616f346a44cd59a91eb10b19e157c]
class User--><rect codeLine="13" fill="#FEFECE" filter="url(#f13kc1viicctd0)" height="146.7141" id="User" style="stroke:#A80036;stroke-width:2.7;" width="118.8" x="699.3" y="62.1"/><ellipse cx="731.97" cy="90.9" fill="#ADD1B2" rx="19.8" ry="19.8" style="stroke:#A80036;stroke-width:1.8;"/><path d="M735.57,84.6 Q735.9356,83.7 736.3575,83.25 Q736.7794,82.8 737.2575,82.8 Q738.1012,82.8 738.6356,83.3063 Q739.17,83.8125 739.17,84.9938 L739.17,87.8063 Q739.17,88.9875 738.6637,89.4938 Q738.1575,90 737.37,90 Q736.6669,90 736.2169,89.6906 Q735.7669,89.3813 735.57,88.5656 Q735.4856,88.0031 735.1763,87.6938 Q734.6138,87.1031 733.6012,86.7656 Q732.5888,86.4 731.5763,86.4 Q730.3106,86.4 729.2419,86.9063 Q728.2013,87.4125 727.3856,88.5375 Q726.57,89.6625 726.57,91.2094 L726.57,92.8688 Q726.57,94.725 728.0888,95.9625 Q729.6075,97.2 732.3075,97.2 Q733.9106,97.2 735.0356,96.8344 Q735.6825,96.6375 736.4137,95.9906 Q736.8919,95.625 737.145,95.5125 Q737.3981,95.4 737.7075,95.4 Q738.2981,95.4 738.72,95.8781 Q739.17,96.3281 739.17,96.975 Q739.17,97.5938 738.5513,98.325 Q737.6513,99.3938 736.2169,99.9844 Q734.3325,100.8 732.0263,100.8 Q729.3263,100.8 727.1606,99.7313 Q725.4169,98.8875 724.1794,97.0594 Q722.97,95.2313 722.97,93.0656 L722.97,91.0969 Q722.97,88.8469 724.0387,86.8781 Q725.1356,84.9094 727.02,83.8688 Q728.9325,82.8 731.07,82.8 Q732.3638,82.8 733.4888,83.25 Q734.6138,83.7 735.57,84.6 Z " fill="#000000"/><text fill="#000000" font-family="sans-serif" font-size="21.6" lengthAdjust="spacing" textLength="48.6" x="758.43" y="99.7383">User</text><line style="stroke:#A80036;stroke-width:2.7;" x1="701.1" x2="816.3" y1="119.7" y2="119.7"/><text fill="#000000" font-family="sans-serif" font-size="19.8" lengthAdjust="spacing" textLength="54" x="710.1" y="147.4541">-name</text><text fill="#000000" font-family="sans-serif" font-size="19.8" lengthAdjust="spacing" textLength="50.4" x="710.1" y="172.3588">-email</text><text fill="#000000" font-family="sans-serif" font-size="19.8" lengthAdjust="spacing" textLength="97.2" x="710.1" y="197.2635">-password</text><!--MD5=[a3638c1e5b65d287ecad7f06f5c0f212]
class Role--><rect codeLine="28" fill="#FEFECE" filter="url(#f13kc1viicctd0)" height="121.8094" id="Role" style="stroke:#A80036;stroke-width:2.7;" width="124.2" x="696.6" y="305.1"/><ellipse cx="732.51" cy="333.9" fill="#ADD1B2" rx="19.8" ry="19.8" style="stroke:#A80036;stroke-width:1.8;"/><path d="M736.11,327.6 Q736.4756,326.7 736.8975,326.25 Q737.3194,325.8 737.7975,325.8 Q738.6413,325.8 739.1756,326.3063 Q739.71,326.8125 739.71,327.9938 L739.71,330.8063 Q739.71,331.9875 739.2038,332.4938 Q738.6975,333 737.91,333 Q737.2069,333 736.7569,332.6906 Q736.3069,332.3813 736.11,331.5656 Q736.0256,331.0031 735.7163,330.6938 Q735.1538,330.1031 734.1413,329.7656 Q733.1288,329.4 732.1163,329.4 Q730.8506,329.4 729.7819,329.9063 Q728.7413,330.4125 727.9256,331.5375 Q727.11,332.6625 727.11,334.2094 L727.11,335.8688 Q727.11,337.725 728.6288,338.9625 Q730.1475,340.2 732.8475,340.2 Q734.4506,340.2 735.5756,339.8344 Q736.2225,339.6375 736.9538,338.9906 Q737.4319,338.625 737.685,338.5125 Q737.9381,338.4 738.2475,338.4 Q738.8381,338.4 739.26,338.8781 Q739.71,339.3281 739.71,339.975 Q739.71,340.5938 739.0913,341.325 Q738.1913,342.3938 736.7569,342.9844 Q734.8725,343.8 732.5663,343.8 Q729.8663,343.8 727.7006,342.7313 Q725.9569,341.8875 724.7194,340.0594 Q723.51,338.2313 723.51,336.0656 L723.51,334.0969 Q723.51,331.8469 724.5788,329.8781 Q725.6756,327.9094 727.56,326.8688 Q729.4725,325.8 731.61,325.8 Q732.9038,325.8 734.0288,326.25 Q735.1538,326.7 736.11,327.6 Z " fill="#000000"/><text fill="#000000" font-family="sans-serif" font-size="21.6" lengthAdjust="spacing" textLength="46.8" x="759.69" y="342.7383">Role</text><line style="stroke:#A80036;stroke-width:2.7;" x1="698.4" x2="819" y1="362.7" y2="362.7"/><text fill="#000000" font-family="sans-serif" font-size="19.8" lengthAdjust="spacing" textLength="21.6" x="707.4" y="390.4541">-id</text><text fill="#000000" font-family="sans-serif" font-size="19.8" lengthAdjust="spacing" textLength="102.6" x="707.4" y="415.3588">-description</text><!--MD5=[8f7dd94d56b58fc07b233ccd3dd98f8c]
link Administrator to Employee--><path codeLine="32" d="M201.744,80.694 C249.282,85.41 307.962,92.34 360,101.7 C366.03,102.78 372.204,103.986 378.414,105.264 " fill="none" id="Administrator-to-Employee" style="stroke:#A80036;stroke-width:1.8;"/><polygon fill="none" points="381.546,93.042,413.946,113.184,376.056,117.648,381.546,93.042" style="stroke:#A80036;stroke-width:1.8;"/><!--MD5=[8f7dd94d56b58fc07b233ccd3dd98f8c]
link Administrator to Employee--><path codeLine="36" d="M163.548,108.972 C190.152,124.416 223.308,140.67 255.6,148.5 C307.116,160.992 366.534,158.202 413.712,152.118 " fill="none" id="Administrator-Employee" style="stroke:#A80036;stroke-width:1.8;"/><polygon fill="#000000" points="273.4691,134.1461,258.3239,126.1658,256.5257,136.592,273.4691,134.1461" style="stroke:#000000;stroke-width:1.8;"/><text fill="#000000" font-family="sans-serif" font-size="23.4" lengthAdjust="spacing" textLength="77.4" x="280.8" y="142.1912">register</text><text fill="#000000" font-family="sans-serif" font-size="23.4" lengthAdjust="spacing" textLength="12.6" x="165.0521" y="147.5475">1</text><text fill="#000000" font-family="sans-serif" font-size="23.4" lengthAdjust="spacing" textLength="9" x="390.7488" y="181.1665">*</text><!--MD5=[304db59a05c0da2cdffc3c882f2d9e9b]
link Administrator to Company--><path codeLine="33" d="M107.1,109.152 C107.1,137.214 107.1,175.896 107.1,203.976 " fill="none" id="Administrator-Company" style="stroke:#A80036;stroke-width:1.8;"/><polygon fill="#000000" points="34.2,165.9164,39.4901,149.6353,28.9099,149.6353,34.2,165.9164" style="stroke:#000000;stroke-width:1.8;"/><text fill="#000000" font-family="sans-serif" font-size="23.4" lengthAdjust="spacing" textLength="93.6" x="50.4" y="166.4912">works for</text><text fill="#000000" font-family="sans-serif" font-size="23.4" lengthAdjust="spacing" textLength="9" x="96.8344" y="147.7781">*</text><text fill="#000000" font-family="sans-serif" font-size="23.4" lengthAdjust="spacing" textLength="12.6" x="92.6494" y="184.66">1</text><!--MD5=[22fb9506fac029fc1d2ae00f0eb8d606]
link Employee to User--><path codeLine="34" d="M587.016,135.9 C611.136,135.9 637.56,135.9 662.22,135.9 " fill="none" id="Employee-to-User" style="stroke:#A80036;stroke-width:1.8;"/><polygon fill="none" points="662.958,123.3,698.958,135.9,662.958,148.5,662.958,123.3" style="stroke:#A80036;stroke-width:1.8;"/><!--MD5=[09366576ee87d48d594df10cacc83f45]
link Company to Employee--><path codeLine="35" d="M183.816,234.918 C234.432,229.842 302.274,220.266 360,202.5 C377.856,197.01 396.324,189.522 413.712,181.584 " fill="none" id="Company-Employee" style="stroke:#A80036;stroke-width:1.8;"/><polygon fill="#000000" points="278.7672,184.5825,261.7117,183.1087,264.1027,193.4151,278.7672,184.5825" style="stroke:#000000;stroke-width:1.8;"/><text fill="#000000" font-family="sans-serif" font-size="23.4" lengthAdjust="spacing" textLength="66.6" x="286.2" y="196.1912">knows</text><text fill="#000000" font-family="sans-serif" font-size="23.4" lengthAdjust="spacing" textLength="12.6" x="198.0844" y="260.8136">1</text><text fill="#000000" font-family="sans-serif" font-size="23.4" lengthAdjust="spacing" textLength="9" x="390.7488" y="215.1445">*</text><!--MD5=[70c37dc9bfbc8656942103c36f1181e4]
link User to Role--><path codeLine="37" d="M758.7,210.114 C758.7,240.606 758.7,275.49 758.7,304.56 " fill="none" id="User-Role" style="stroke:#A80036;stroke-width:1.8;"/><polygon fill="#000000" points="704.7,266.7164,709.9901,250.4353,699.4099,250.4353,704.7,266.7164" style="stroke:#000000;stroke-width:1.8;"/><text fill="#000000" font-family="sans-serif" font-size="23.4" lengthAdjust="spacing" textLength="55.8" x="720.9" y="267.2912">plays</text><text fill="#000000" font-family="sans-serif" font-size="23.4" lengthAdjust="spacing" textLength="9" x="749.0391" y="247.5319">*</text><text fill="#000000" font-family="sans-serif" font-size="23.4" lengthAdjust="spacing" textLength="12.6" x="744.8991" y="285.6536">1</text><!--MD5=[f5d1af481d7a5741c535ff7e2b2c601c]
@startuml
'https://plantuml.com/class-diagram
hide methods
left to right direction
skinparam classAttributeIconSize 0

class Administrator
class Company
class Employee
class User
class Role


class User{
-name
-email
-password
}
class Employee{
-name
-address
-phoneNumber
-email
-employeeId
-organizationRole
-socCode
}

class Role{
-id
-description
}
Administrator - -|> Employee
Administrator "*"-"1" Company : works for >
Employee - -|> User
Company "1"- -"*" Employee : knows >
Administrator "1"- -"*" Employee : register >
User "*"-"1" Role : plays >
@enduml

@startuml
hide methods
left to right direction
skinparam classAttributeIconSize 0

class Administrator
class Company
class Employee
class User
class Role


class User{
-name
-email
-password
}
class Employee{
-name
-address
-phoneNumber
-email
-employeeId
-organizationRole
-socCode
}

class Role{
-id
-description
}
Administrator - -|> Employee
Administrator "*"-"1" Company : works for >
Employee - -|> User
Company "1"- -"*" Employee : knows >
Administrator "1"- -"*" Employee : register >
User "*"-"1" Role : plays >
@enduml

PlantUML version 1.2021.4(Sun Apr 04 09:49:39 BST 2021)
(GPL source distribution)
Java Runtime: OpenJDK Runtime Environment
JVM: Dynamic Code Evolution 64-Bit Server VM
Default Encoding: Cp1252
Language: pt
Country: PT
--></g></svg>