<?xml version="1.0" encoding="UTF-8" standalone="no"?><svg xmlns="http://www.w3.org/2000/svg" xmlns:xlink="http://www.w3.org/1999/xlink" contentScriptType="application/ecmascript" contentStyleType="text/css" height="2098.8px" preserveAspectRatio="none" style="width:1471px;height:2098px;" version="1.1" viewBox="0 0 1471 2098" width="1471.8px" zoomAndPan="magnify"><defs><filter height="300%" id="f3v3sbue1ipbu" width="300%" x="-1" y="-1"><feGaussianBlur result="blurOut" stdDeviation="3.2999999999999994"/><feColorMatrix in="blurOut" result="blurOut2" type="matrix" values="0 0 0 0 0 0 0 0 0 0 0 0 0 0 0 0 0 0 .4 0"/><feOffset dx="6.599999999999999" dy="6.599999999999999" in="blurOut2" result="blurOut3"/><feBlend in="SourceGraphic" in2="blurOut3" mode="normal"/></filter></defs><g><!--MD5=[02e4b9b7573f1156f41e60aa5b4e25a4]
class Company--><rect codeLine="18" fill="#FEFECE" filter="url(#f3v3sbue1ipbu)" height="147.6879" id="Company" style="stroke:#A80036;stroke-width:2.4749999999999996;" width="199.65" x="1073.325" y="610.5"/><ellipse cx="1124.805" cy="636.9" fill="#ADD1B2" rx="18.15" ry="18.15" style="stroke:#A80036;stroke-width:1.6499999999999997;"/><path d="M1128.105,631.125 Q1128.4402,630.3 1128.8269,629.8875 Q1129.2136,629.475 1129.6519,629.475 Q1130.4253,629.475 1130.9152,629.9391 Q1131.405,630.4031 1131.405,631.4859 L1131.405,634.0641 Q1131.405,635.1469 1130.9409,635.6109 Q1130.4769,636.075 1129.755,636.075 Q1129.1105,636.075 1128.698,635.7914 Q1128.2855,635.5078 1128.105,634.7602 Q1128.0277,634.2445 1127.7441,633.9609 Q1127.2284,633.4195 1126.3003,633.1102 Q1125.3722,632.775 1124.4441,632.775 Q1123.2839,632.775 1122.3042,633.2391 Q1121.3503,633.7031 1120.6027,634.7344 Q1119.855,635.7656 1119.855,637.1836 L1119.855,638.7047 Q1119.855,640.4062 1121.2472,641.5406 Q1122.6394,642.675 1125.1144,642.675 Q1126.5839,642.675 1127.6152,642.3398 Q1128.2081,642.1594 1128.8784,641.5664 Q1129.3167,641.2312 1129.5488,641.1281 Q1129.7808,641.025 1130.0644,641.025 Q1130.6058,641.025 1130.9925,641.4633 Q1131.405,641.8758 1131.405,642.4687 Q1131.405,643.0359 1130.8378,643.7062 Q1130.0128,644.6859 1128.698,645.2273 Q1126.9706,645.975 1124.8566,645.975 Q1122.3816,645.975 1120.3964,644.9953 Q1118.798,644.2219 1117.6636,642.5461 Q1116.555,640.8703 1116.555,638.8852 L1116.555,637.0805 Q1116.555,635.018 1117.5347,633.2133 Q1118.5402,631.4086 1120.2675,630.4547 Q1122.0206,629.475 1123.98,629.475 Q1125.1659,629.475 1126.1972,629.8875 Q1127.2284,630.3 1128.105,631.125 Z " fill="#000000"/><text fill="#000000" font-family="sans-serif" font-size="19.8" lengthAdjust="spacing" textLength="87.45" x="1153.845" y="645.0018">Company</text><line style="stroke:#A80036;stroke-width:2.4749999999999996;" x1="1074.975" x2="1271.325" y1="663.3" y2="663.3"/><rect fill="none" height="9.9" style="stroke:#C82930;stroke-width:1.6499999999999997;" width="9.9" x="1086.525" y="676.5"/><text fill="#000000" font-family="sans-serif" font-size="18.15" lengthAdjust="spacing" textLength="90.75" x="1106.325" y="688.7413">designation</text><line style="stroke:#A80036;stroke-width:2.4749999999999996;" x1="1074.975" x2="1271.325" y1="699.3293" y2="699.3293"/><ellipse cx="1091.475" cy="717.4793" fill="#84BE84" rx="4.95" ry="4.95" style="stroke:#038048;stroke-width:1.6499999999999997;"/><text fill="#000000" font-family="sans-serif" font-size="18.15" lengthAdjust="spacing" textLength="156.75" x="1106.325" y="724.7706">getEmployeeStore()</text><ellipse cx="1091.475" cy="740.3086" fill="#84BE84" rx="4.95" ry="4.95" style="stroke:#038048;stroke-width:1.6499999999999997;"/><text fill="#000000" font-family="sans-serif" font-size="18.15" lengthAdjust="spacing" textLength="155.1" x="1106.325" y="747.5999">getOrgRolesStore()</text><!--MD5=[7421f545a0d8420c5bec41e74b387d9c]
class Employee--><rect codeLine="25" fill="#FEFECE" filter="url(#f3v3sbue1ipbu)" height="239.0051" id="Employee" style="stroke:#A80036;stroke-width:2.4749999999999996;" width="496.65" x="472.725" y="1334.85"/><ellipse cx="668.6625" cy="1361.25" fill="#ADD1B2" rx="18.15" ry="18.15" style="stroke:#A80036;stroke-width:1.6499999999999997;"/><path d="M671.9625,1355.475 Q672.2977,1354.65 672.6844,1354.2375 Q673.0711,1353.825 673.5094,1353.825 Q674.2828,1353.825 674.7727,1354.2891 Q675.2625,1354.7531 675.2625,1355.8359 L675.2625,1358.4141 Q675.2625,1359.4969 674.7984,1359.9609 Q674.3344,1360.425 673.6125,1360.425 Q672.968,1360.425 672.5555,1360.1414 Q672.143,1359.8578 671.9625,1359.1102 Q671.8852,1358.5945 671.6016,1358.3109 Q671.0859,1357.7695 670.1578,1357.4602 Q669.2297,1357.125 668.3016,1357.125 Q667.1414,1357.125 666.1617,1357.5891 Q665.2078,1358.0531 664.4602,1359.0844 Q663.7125,1360.1156 663.7125,1361.5336 L663.7125,1363.0547 Q663.7125,1364.7562 665.1047,1365.8906 Q666.4969,1367.025 668.9719,1367.025 Q670.4414,1367.025 671.4727,1366.6898 Q672.0656,1366.5094 672.7359,1365.9164 Q673.1742,1365.5812 673.4062,1365.4781 Q673.6383,1365.375 673.9219,1365.375 Q674.4633,1365.375 674.85,1365.8133 Q675.2625,1366.2258 675.2625,1366.8187 Q675.2625,1367.3859 674.6953,1368.0562 Q673.8703,1369.0359 672.5555,1369.5773 Q670.8281,1370.325 668.7141,1370.325 Q666.2391,1370.325 664.2539,1369.3453 Q662.6555,1368.5719 661.5211,1366.8961 Q660.4125,1365.2203 660.4125,1363.2352 L660.4125,1361.4305 Q660.4125,1359.368 661.3922,1357.5633 Q662.3977,1355.7586 664.125,1354.8047 Q665.8781,1353.825 667.8375,1353.825 Q669.0234,1353.825 670.0547,1354.2375 Q671.0859,1354.65 671.9625,1355.475 Z " fill="#000000"/><text fill="#000000" font-family="sans-serif" font-size="19.8" lengthAdjust="spacing" textLength="90.75" x="702.4875" y="1369.3518">Employee</text><line style="stroke:#A80036;stroke-width:2.4749999999999996;" x1="474.375" x2="967.725" y1="1387.65" y2="1387.65"/><rect fill="none" height="9.9" style="stroke:#C82930;stroke-width:1.6499999999999997;" width="9.9" x="485.925" y="1400.85"/><text fill="#000000" font-family="sans-serif" font-size="18.15" lengthAdjust="spacing" textLength="42.9" x="505.725" y="1413.0913">name</text><rect fill="none" height="9.9" style="stroke:#C82930;stroke-width:1.6499999999999997;" width="9.9" x="485.925" y="1423.6793"/><text fill="#000000" font-family="sans-serif" font-size="18.15" lengthAdjust="spacing" textLength="66" x="505.725" y="1435.9206">address</text><rect fill="none" height="9.9" style="stroke:#C82930;stroke-width:1.6499999999999997;" width="9.9" x="485.925" y="1446.5086"/><text fill="#000000" font-family="sans-serif" font-size="18.15" lengthAdjust="spacing" textLength="110.55" x="505.725" y="1458.7499">phoneNumber</text><rect fill="none" height="9.9" style="stroke:#C82930;stroke-width:1.6499999999999997;" width="9.9" x="485.925" y="1469.3379"/><text fill="#000000" font-family="sans-serif" font-size="18.15" lengthAdjust="spacing" textLength="39.6" x="505.725" y="1481.5792">email</text><rect fill="none" height="9.9" style="stroke:#C82930;stroke-width:1.6499999999999997;" width="9.9" x="485.925" y="1492.1672"/><text fill="#000000" font-family="sans-serif" font-size="18.15" lengthAdjust="spacing" textLength="89.1" x="505.725" y="1504.4084">employeeId</text><rect fill="none" height="9.9" style="stroke:#C82930;stroke-width:1.6499999999999997;" width="9.9" x="485.925" y="1514.9965"/><text fill="#000000" font-family="sans-serif" font-size="18.15" lengthAdjust="spacing" textLength="70.95" x="505.725" y="1527.2377">socCode</text><line style="stroke:#A80036;stroke-width:2.4749999999999996;" x1="474.375" x2="967.725" y1="1537.8258" y2="1537.8258"/><ellipse cx="490.875" cy="1555.9758" fill="#84BE84" rx="4.95" ry="4.95" style="stroke:#038048;stroke-width:1.6499999999999997;"/><text fill="#000000" font-family="sans-serif" font-size="18.15" lengthAdjust="spacing" textLength="453.75" x="505.725" y="1563.267">Employee(name address, phoneNumber, email, socCode)</text><!--MD5=[829fb52c07ade3ad64ef85b99d1fca10]
class EmployeeStore--><rect codeLine="48" fill="#FEFECE" filter="url(#f3v3sbue1ipbu)" height="193.3465" id="EmployeeStore" style="stroke:#A80036;stroke-width:2.4749999999999996;" width="295.35" x="764.775" y="1013.1"/><ellipse cx="836.3025" cy="1039.5" fill="#ADD1B2" rx="18.15" ry="18.15" style="stroke:#A80036;stroke-width:1.6499999999999997;"/><path d="M839.6025,1033.725 Q839.9377,1032.9 840.3244,1032.4875 Q840.7111,1032.075 841.1494,1032.075 Q841.9228,1032.075 842.4127,1032.5391 Q842.9025,1033.0031 842.9025,1034.0859 L842.9025,1036.6641 Q842.9025,1037.7469 842.4384,1038.2109 Q841.9744,1038.675 841.2525,1038.675 Q840.608,1038.675 840.1955,1038.3914 Q839.783,1038.1078 839.6025,1037.3602 Q839.5252,1036.8445 839.2416,1036.5609 Q838.7259,1036.0195 837.7978,1035.7102 Q836.8697,1035.375 835.9416,1035.375 Q834.7814,1035.375 833.8017,1035.8391 Q832.8478,1036.3031 832.1002,1037.3344 Q831.3525,1038.3656 831.3525,1039.7836 L831.3525,1041.3047 Q831.3525,1043.0063 832.7447,1044.1406 Q834.1369,1045.275 836.6119,1045.275 Q838.0814,1045.275 839.1127,1044.9398 Q839.7056,1044.7594 840.3759,1044.1664 Q840.8142,1043.8312 841.0462,1043.7281 Q841.2783,1043.625 841.5619,1043.625 Q842.1033,1043.625 842.49,1044.0633 Q842.9025,1044.4758 842.9025,1045.0688 Q842.9025,1045.6359 842.3353,1046.3062 Q841.5103,1047.2859 840.1955,1047.8273 Q838.4681,1048.575 836.3541,1048.575 Q833.8791,1048.575 831.8939,1047.5953 Q830.2955,1046.8219 829.1611,1045.1461 Q828.0525,1043.4703 828.0525,1041.4852 L828.0525,1039.6805 Q828.0525,1037.618 829.0322,1035.8133 Q830.0377,1034.0086 831.765,1033.0547 Q833.5181,1032.075 835.4775,1032.075 Q836.6634,1032.075 837.6947,1032.4875 Q838.7259,1032.9 839.6025,1033.725 Z " fill="#000000"/><text fill="#000000" font-family="sans-serif" font-size="19.8" lengthAdjust="spacing" textLength="138.6" x="869.7975" y="1047.6018">EmployeeStore</text><line style="stroke:#A80036;stroke-width:2.4749999999999996;" x1="766.425" x2="1058.475" y1="1065.9" y2="1065.9"/><line style="stroke:#A80036;stroke-width:2.4749999999999996;" x1="766.425" x2="1058.475" y1="1079.1" y2="1079.1"/><ellipse cx="782.925" cy="1097.25" fill="#84BE84" rx="4.95" ry="4.95" style="stroke:#038048;stroke-width:1.6499999999999997;"/><text fill="#000000" font-family="sans-serif" font-size="18.15" lengthAdjust="spacing" textLength="199.65" x="797.775" y="1104.5413">createEmployee(empDto)</text><ellipse cx="782.925" cy="1120.0793" fill="#84BE84" rx="4.95" ry="4.95" style="stroke:#038048;stroke-width:1.6499999999999997;"/><text fill="#000000" font-family="sans-serif" font-size="18.15" lengthAdjust="spacing" textLength="252.45" x="797.775" y="1127.3706">createSpecialistDoctor(empDto)</text><ellipse cx="782.925" cy="1142.9086" fill="#84BE84" rx="4.95" ry="4.95" style="stroke:#038048;stroke-width:1.6499999999999997;"/><text fill="#000000" font-family="sans-serif" font-size="18.15" lengthAdjust="spacing" textLength="183.15" x="797.775" y="1150.1999">validateEmployee(emp)</text><ellipse cx="782.925" cy="1165.7379" fill="#84BE84" rx="4.95" ry="4.95" style="stroke:#038048;stroke-width:1.6499999999999997;"/><text fill="#000000" font-family="sans-serif" font-size="18.15" lengthAdjust="spacing" textLength="151.8" x="797.775" y="1173.0292">addEmployee(emp)</text><ellipse cx="782.925" cy="1188.5672" fill="#84BE84" rx="4.95" ry="4.95" style="stroke:#038048;stroke-width:1.6499999999999997;"/><text fill="#000000" font-family="sans-serif" font-size="18.15" lengthAdjust="spacing" textLength="161.7" x="797.775" y="1195.8584">saveEmployee(emp)</text><!--MD5=[a126dd63c8621c017159ae62771fbe54]
class RegisterEmployeeUI--><rect codeLine="6" fill="#FEFECE" filter="url(#f3v3sbue1ipbu)" height="79.2" id="RegisterEmployeeUI" style="stroke:#A80036;stroke-width:2.4749999999999996;" width="240.9" x="1052.7" y="11.55"/><ellipse cx="1077.45" cy="37.95" fill="#ADD1B2" rx="18.15" ry="18.15" style="stroke:#A80036;stroke-width:1.6499999999999997;"/><path d="M1080.75,32.175 Q1081.0852,31.35 1081.4719,30.9375 Q1081.8586,30.525 1082.2969,30.525 Q1083.0703,30.525 1083.5602,30.9891 Q1084.05,31.4531 1084.05,32.5359 L1084.05,35.1141 Q1084.05,36.1969 1083.5859,36.6609 Q1083.1219,37.125 1082.4,37.125 Q1081.7555,37.125 1081.343,36.8414 Q1080.9305,36.5578 1080.75,35.8102 Q1080.6727,35.2945 1080.3891,35.0109 Q1079.8734,34.4695 1078.9453,34.1602 Q1078.0172,33.825 1077.0891,33.825 Q1075.9289,33.825 1074.9492,34.2891 Q1073.9953,34.7531 1073.2477,35.7844 Q1072.5,36.8156 1072.5,38.2336 L1072.5,39.7547 Q1072.5,41.4562 1073.8922,42.5906 Q1075.2844,43.725 1077.7594,43.725 Q1079.2289,43.725 1080.2602,43.3898 Q1080.8531,43.2094 1081.5234,42.6164 Q1081.9617,42.2812 1082.1938,42.1781 Q1082.4258,42.075 1082.7094,42.075 Q1083.2508,42.075 1083.6375,42.5133 Q1084.05,42.9258 1084.05,43.5187 Q1084.05,44.0859 1083.4828,44.7562 Q1082.6578,45.7359 1081.343,46.2773 Q1079.6156,47.025 1077.5016,47.025 Q1075.0266,47.025 1073.0414,46.0453 Q1071.443,45.2719 1070.3086,43.5961 Q1069.2,41.9203 1069.2,39.9352 L1069.2,38.1305 Q1069.2,36.068 1070.1797,34.2633 Q1071.1852,32.4586 1072.9125,31.5047 Q1074.6656,30.525 1076.625,30.525 Q1077.8109,30.525 1078.8422,30.9375 Q1079.8734,31.35 1080.75,32.175 Z " fill="#000000"/><text fill="#000000" font-family="sans-serif" font-size="19.8" lengthAdjust="spacing" textLength="188.1" x="1100.55" y="46.0518">RegisterEmployeeUI</text><line style="stroke:#A80036;stroke-width:2.4749999999999996;" x1="1054.35" x2="1291.95" y1="64.35" y2="64.35"/><line style="stroke:#A80036;stroke-width:2.4749999999999996;" x1="1054.35" x2="1291.95" y1="77.55" y2="77.55"/><!--MD5=[6a4e699b59c2ecf8286aba2faa72e4bd]
class RegisterEmployeeController--><rect codeLine="56" fill="#FEFECE" filter="url(#f3v3sbue1ipbu)" height="193.3465" id="RegisterEmployeeController" style="stroke:#A80036;stroke-width:2.4749999999999996;" width="330" x="1008.15" y="191.4"/><ellipse cx="1041.81" cy="217.8" fill="#ADD1B2" rx="18.15" ry="18.15" style="stroke:#A80036;stroke-width:1.6499999999999997;"/><path d="M1045.11,212.025 Q1045.4452,211.2 1045.8319,210.7875 Q1046.2186,210.375 1046.6569,210.375 Q1047.4303,210.375 1047.9202,210.8391 Q1048.41,211.3031 1048.41,212.3859 L1048.41,214.9641 Q1048.41,216.0469 1047.9459,216.5109 Q1047.4819,216.975 1046.76,216.975 Q1046.1155,216.975 1045.703,216.6914 Q1045.2905,216.4078 1045.11,215.6602 Q1045.0327,215.1445 1044.7491,214.8609 Q1044.2334,214.3195 1043.3053,214.0102 Q1042.3772,213.675 1041.4491,213.675 Q1040.2889,213.675 1039.3092,214.1391 Q1038.3553,214.6031 1037.6077,215.6344 Q1036.86,216.6656 1036.86,218.0836 L1036.86,219.6047 Q1036.86,221.3062 1038.2522,222.4406 Q1039.6444,223.575 1042.1194,223.575 Q1043.5889,223.575 1044.6202,223.2398 Q1045.2131,223.0594 1045.8834,222.4664 Q1046.3217,222.1312 1046.5537,222.0281 Q1046.7858,221.925 1047.0694,221.925 Q1047.6108,221.925 1047.9975,222.3633 Q1048.41,222.7758 1048.41,223.3687 Q1048.41,223.9359 1047.8428,224.6062 Q1047.0178,225.5859 1045.703,226.1273 Q1043.9756,226.875 1041.8616,226.875 Q1039.3866,226.875 1037.4014,225.8953 Q1035.803,225.1219 1034.6686,223.4461 Q1033.56,221.7703 1033.56,219.7852 L1033.56,217.9805 Q1033.56,215.918 1034.5397,214.1133 Q1035.5452,212.3086 1037.2725,211.3547 Q1039.0256,210.375 1040.985,210.375 Q1042.1709,210.375 1043.2022,210.7875 Q1044.2334,211.2 1045.11,212.025 Z " fill="#000000"/><text fill="#000000" font-family="sans-serif" font-size="19.8" lengthAdjust="spacing" textLength="257.4" x="1066.89" y="225.9018">RegisterEmployeeController</text><line style="stroke:#A80036;stroke-width:2.4749999999999996;" x1="1009.8" x2="1336.5" y1="244.2" y2="244.2"/><line style="stroke:#A80036;stroke-width:2.4749999999999996;" x1="1009.8" x2="1336.5" y1="257.4" y2="257.4"/><ellipse cx="1026.3" cy="275.55" fill="#84BE84" rx="4.95" ry="4.95" style="stroke:#038048;stroke-width:1.6499999999999997;"/><text fill="#000000" font-family="sans-serif" font-size="18.15" lengthAdjust="spacing" textLength="160.05" x="1041.15" y="282.8413">getListOfOrgRoles()</text><ellipse cx="1026.3" cy="298.3793" fill="#84BE84" rx="4.95" ry="4.95" style="stroke:#038048;stroke-width:1.6499999999999997;"/><text fill="#000000" font-family="sans-serif" font-size="18.15" lengthAdjust="spacing" textLength="287.1" x="1041.15" y="305.6706">createOrganizationRole(orgRoleDto)</text><ellipse cx="1026.3" cy="321.2086" fill="#84BE84" rx="4.95" ry="4.95" style="stroke:#038048;stroke-width:1.6499999999999997;"/><text fill="#000000" font-family="sans-serif" font-size="18.15" lengthAdjust="spacing" textLength="252.45" x="1041.15" y="328.4999">createSpecialistDoctor(empDto)</text><ellipse cx="1026.3" cy="344.0379" fill="#84BE84" rx="4.95" ry="4.95" style="stroke:#038048;stroke-width:1.6499999999999997;"/><text fill="#000000" font-family="sans-serif" font-size="18.15" lengthAdjust="spacing" textLength="199.65" x="1041.15" y="351.3292">createEmployee(empDto)</text><ellipse cx="1026.3" cy="366.8672" fill="#84BE84" rx="4.95" ry="4.95" style="stroke:#038048;stroke-width:1.6499999999999997;"/><text fill="#000000" font-family="sans-serif" font-size="18.15" lengthAdjust="spacing" textLength="128.7" x="1041.15" y="374.1584">saveEmployee()</text><!--MD5=[12e90e92236ca84f203192a07d84ec5e]
class OrganizationRole--><rect codeLine="41" fill="#FEFECE" filter="url(#f3v3sbue1ipbu)" height="124.8586" id="OrganizationRole" style="stroke:#A80036;stroke-width:2.4749999999999996;" width="278.85" x="253.275" y="1951.95"/><ellipse cx="309.21" cy="1978.35" fill="#ADD1B2" rx="18.15" ry="18.15" style="stroke:#A80036;stroke-width:1.6499999999999997;"/><path d="M312.51,1972.575 Q312.8452,1971.75 313.2319,1971.3375 Q313.6186,1970.925 314.0569,1970.925 Q314.8303,1970.925 315.3202,1971.3891 Q315.81,1971.8531 315.81,1972.9359 L315.81,1975.5141 Q315.81,1976.5969 315.3459,1977.0609 Q314.8819,1977.525 314.16,1977.525 Q313.5155,1977.525 313.103,1977.2414 Q312.6905,1976.9578 312.51,1976.2102 Q312.4327,1975.6945 312.1491,1975.4109 Q311.6334,1974.8695 310.7053,1974.5602 Q309.7772,1974.225 308.8491,1974.225 Q307.6889,1974.225 306.7092,1974.6891 Q305.7553,1975.1531 305.0077,1976.1844 Q304.26,1977.2156 304.26,1978.6336 L304.26,1980.1547 Q304.26,1981.8562 305.6522,1982.9906 Q307.0444,1984.125 309.5194,1984.125 Q310.9889,1984.125 312.0202,1983.7898 Q312.6131,1983.6094 313.2834,1983.0164 Q313.7217,1982.6812 313.9537,1982.5781 Q314.1858,1982.475 314.4694,1982.475 Q315.0108,1982.475 315.3975,1982.9133 Q315.81,1983.3258 315.81,1983.9187 Q315.81,1984.4859 315.2428,1985.1562 Q314.4178,1986.1359 313.103,1986.6773 Q311.3756,1987.425 309.2616,1987.425 Q306.7866,1987.425 304.8014,1986.4453 Q303.203,1985.6719 302.0686,1983.9961 Q300.96,1982.3203 300.96,1980.3352 L300.96,1978.5305 Q300.96,1976.468 301.9397,1974.6633 Q302.9452,1972.8586 304.6725,1971.9047 Q306.4256,1970.925 308.385,1970.925 Q309.5709,1970.925 310.6022,1971.3375 Q311.6334,1971.75 312.51,1972.575 Z " fill="#000000"/><text fill="#000000" font-family="sans-serif" font-size="19.8" lengthAdjust="spacing" textLength="156.75" x="339.24" y="1986.4518">OrganizationRole</text><line style="stroke:#A80036;stroke-width:2.4749999999999996;" x1="254.925" x2="530.475" y1="2004.75" y2="2004.75"/><rect fill="none" height="9.9" style="stroke:#C82930;stroke-width:1.6499999999999997;" width="9.9" x="266.475" y="2017.95"/><text fill="#000000" font-family="sans-serif" font-size="18.15" lengthAdjust="spacing" textLength="87.45" x="286.275" y="2030.1913">description</text><line style="stroke:#A80036;stroke-width:2.4749999999999996;" x1="254.925" x2="530.475" y1="2040.7793" y2="2040.7793"/><ellipse cx="271.425" cy="2058.9293" fill="#84BE84" rx="4.95" ry="4.95" style="stroke:#038048;stroke-width:1.6499999999999997;"/><text fill="#000000" font-family="sans-serif" font-size="18.15" lengthAdjust="spacing" textLength="235.95" x="286.275" y="2066.2206">OrganizationRole(description)</text><!--MD5=[7d96fd15f3014691d2fcaf89c5791e2a]
class SpecialistDoctor--><rect codeLine="35" fill="#FEFECE" filter="url(#f3v3sbue1ipbu)" height="124.8586" id="SpecialistDoctor" style="stroke:#A80036;stroke-width:2.4749999999999996;" width="714.45" x="480.975" y="1714.35"/><ellipse cx="756.9375" cy="1740.75" fill="#ADD1B2" rx="18.15" ry="18.15" style="stroke:#A80036;stroke-width:1.6499999999999997;"/><path d="M760.2375,1734.975 Q760.5727,1734.15 760.9594,1733.7375 Q761.3461,1733.325 761.7844,1733.325 Q762.5578,1733.325 763.0477,1733.7891 Q763.5375,1734.2531 763.5375,1735.3359 L763.5375,1737.9141 Q763.5375,1738.9969 763.0734,1739.4609 Q762.6094,1739.925 761.8875,1739.925 Q761.243,1739.925 760.8305,1739.6414 Q760.418,1739.3578 760.2375,1738.6102 Q760.1602,1738.0945 759.8766,1737.8109 Q759.3609,1737.2695 758.4328,1736.9602 Q757.5047,1736.625 756.5766,1736.625 Q755.4164,1736.625 754.4367,1737.0891 Q753.4828,1737.5531 752.7352,1738.5844 Q751.9875,1739.6156 751.9875,1741.0336 L751.9875,1742.5547 Q751.9875,1744.2562 753.3797,1745.3906 Q754.7719,1746.525 757.2469,1746.525 Q758.7164,1746.525 759.7477,1746.1898 Q760.3406,1746.0094 761.0109,1745.4164 Q761.4492,1745.0812 761.6812,1744.9781 Q761.9133,1744.875 762.1969,1744.875 Q762.7383,1744.875 763.125,1745.3133 Q763.5375,1745.7258 763.5375,1746.3187 Q763.5375,1746.8859 762.9703,1747.5562 Q762.1453,1748.5359 760.8305,1749.0773 Q759.1031,1749.825 756.9891,1749.825 Q754.5141,1749.825 752.5289,1748.8453 Q750.9305,1748.0719 749.7961,1746.3961 Q748.6875,1744.7203 748.6875,1742.7352 L748.6875,1740.9305 Q748.6875,1738.868 749.6672,1737.0633 Q750.6727,1735.2586 752.4,1734.3047 Q754.1531,1733.325 756.1125,1733.325 Q757.2984,1733.325 758.3297,1733.7375 Q759.3609,1734.15 760.2375,1734.975 Z " fill="#000000"/><text fill="#000000" font-family="sans-serif" font-size="19.8" lengthAdjust="spacing" textLength="148.5" x="790.7625" y="1748.8518">SpecialistDoctor</text><line style="stroke:#A80036;stroke-width:2.4749999999999996;" x1="482.625" x2="1193.775" y1="1767.15" y2="1767.15"/><rect fill="none" height="9.9" style="stroke:#C82930;stroke-width:1.6499999999999997;" width="9.9" x="494.175" y="1780.35"/><text fill="#000000" font-family="sans-serif" font-size="18.15" lengthAdjust="spacing" textLength="155.1" x="513.975" y="1792.5913">doctorIndexNumber</text><line style="stroke:#A80036;stroke-width:2.4749999999999996;" x1="482.625" x2="1193.775" y1="1803.1793" y2="1803.1793"/><ellipse cx="499.125" cy="1821.3293" fill="#84BE84" rx="4.95" ry="4.95" style="stroke:#038048;stroke-width:1.6499999999999997;"/><text fill="#000000" font-family="sans-serif" font-size="18.15" lengthAdjust="spacing" textLength="671.55" x="513.975" y="1828.6206">SpecialistDoctor(name address, phoneNumber, email, socCode, doctorIndexNumber)</text><!--MD5=[892631efaf0abed3c7818dfb737e9f4c]
class OrganizationRoleMapper--><rect codeLine="103" fill="#FEFECE" filter="url(#f3v3sbue1ipbu)" height="147.6879" id="OrganizationRoleMapper" style="stroke:#A80036;stroke-width:2.4749999999999996;" width="293.7" x="11.55" y="1702.8"/><ellipse cx="43.725" cy="1729.2" fill="#ADD1B2" rx="18.15" ry="18.15" style="stroke:#A80036;stroke-width:1.6499999999999997;"/><path d="M47.025,1723.425 Q47.3602,1722.6 47.7469,1722.1875 Q48.1336,1721.775 48.5719,1721.775 Q49.3453,1721.775 49.8352,1722.2391 Q50.325,1722.7031 50.325,1723.7859 L50.325,1726.3641 Q50.325,1727.4469 49.8609,1727.9109 Q49.3969,1728.375 48.675,1728.375 Q48.0305,1728.375 47.618,1728.0914 Q47.2055,1727.8078 47.025,1727.0602 Q46.9477,1726.5445 46.6641,1726.2609 Q46.1484,1725.7195 45.2203,1725.4102 Q44.2922,1725.075 43.3641,1725.075 Q42.2039,1725.075 41.2242,1725.5391 Q40.2703,1726.0031 39.5227,1727.0344 Q38.775,1728.0656 38.775,1729.4836 L38.775,1731.0047 Q38.775,1732.7062 40.1672,1733.8406 Q41.5594,1734.975 44.0344,1734.975 Q45.5039,1734.975 46.5352,1734.6398 Q47.1281,1734.4594 47.7984,1733.8664 Q48.2367,1733.5312 48.4687,1733.4281 Q48.7008,1733.325 48.9844,1733.325 Q49.5258,1733.325 49.9125,1733.7633 Q50.325,1734.1758 50.325,1734.7687 Q50.325,1735.3359 49.7578,1736.0062 Q48.9328,1736.9859 47.618,1737.5273 Q45.8906,1738.275 43.7766,1738.275 Q41.3016,1738.275 39.3164,1737.2953 Q37.718,1736.5219 36.5836,1734.8461 Q35.475,1733.1703 35.475,1731.1852 L35.475,1729.3805 Q35.475,1727.318 36.4547,1725.5133 Q37.4602,1723.7086 39.1875,1722.7547 Q40.9406,1721.775 42.9,1721.775 Q44.0859,1721.775 45.1172,1722.1875 Q46.1484,1722.6 47.025,1723.425 Z " fill="#000000"/><text fill="#000000" font-family="sans-serif" font-size="19.8" lengthAdjust="spacing" textLength="224.4" x="68.475" y="1737.3018">OrganizationRoleMapper</text><line style="stroke:#A80036;stroke-width:2.4749999999999996;" x1="13.2" x2="303.6" y1="1755.6" y2="1755.6"/><rect fill="none" height="9.9" style="stroke:#C82930;stroke-width:1.6499999999999997;" width="9.9" x="24.75" y="1768.8"/><text fill="#000000" font-family="sans-serif" font-size="18.15" lengthAdjust="spacing" textLength="122.1" x="44.55" y="1781.0413">listOrgRolesDto</text><line style="stroke:#A80036;stroke-width:2.4749999999999996;" x1="13.2" x2="303.6" y1="1791.6293" y2="1791.6293"/><ellipse cx="29.7" cy="1809.7793" fill="#84BE84" rx="4.95" ry="4.95" style="stroke:#038048;stroke-width:1.6499999999999997;"/><text fill="#000000" font-family="sans-serif" font-size="18.15" lengthAdjust="spacing" textLength="179.85" x="44.55" y="1817.0706">toOrgRole(orgRoleDto)</text><ellipse cx="29.7" cy="1832.6086" fill="#84BE84" rx="4.95" ry="4.95" style="stroke:#038048;stroke-width:1.6499999999999997;"/><text fill="#000000" font-family="sans-serif" font-size="18.15" lengthAdjust="spacing" textLength="250.8" x="44.55" y="1839.8999">toOrganizationRole(orgRoleDto)</text><!--MD5=[00f5a8d890e3e1ee187254d4d2c6b7cb]
class EmployeeDTO--><rect codeLine="64" fill="#FEFECE" filter="url(#f3v3sbue1ipbu)" height="398.8102" id="EmployeeDTO" style="stroke:#A80036;stroke-width:2.4749999999999996;" width="691.35" x="213.675" y="485.1"/><ellipse cx="486.3375" cy="511.5" fill="#ADD1B2" rx="18.15" ry="18.15" style="stroke:#A80036;stroke-width:1.6499999999999997;"/><path d="M489.6375,505.725 Q489.9727,504.9 490.3594,504.4875 Q490.7461,504.075 491.1844,504.075 Q491.9578,504.075 492.4477,504.5391 Q492.9375,505.0031 492.9375,506.0859 L492.9375,508.6641 Q492.9375,509.7469 492.4734,510.2109 Q492.0094,510.675 491.2875,510.675 Q490.643,510.675 490.2305,510.3914 Q489.818,510.1078 489.6375,509.3602 Q489.5602,508.8445 489.2766,508.5609 Q488.7609,508.0195 487.8328,507.7102 Q486.9047,507.375 485.9766,507.375 Q484.8164,507.375 483.8367,507.8391 Q482.8828,508.3031 482.1352,509.3344 Q481.3875,510.3656 481.3875,511.7836 L481.3875,513.3047 Q481.3875,515.0062 482.7797,516.1406 Q484.1719,517.275 486.6469,517.275 Q488.1164,517.275 489.1477,516.9398 Q489.7406,516.7594 490.4109,516.1664 Q490.8492,515.8313 491.0812,515.7281 Q491.3133,515.625 491.5969,515.625 Q492.1383,515.625 492.525,516.0633 Q492.9375,516.4758 492.9375,517.0687 Q492.9375,517.6359 492.3703,518.3062 Q491.5453,519.2859 490.2305,519.8273 Q488.5031,520.575 486.3891,520.575 Q483.9141,520.575 481.9289,519.5953 Q480.3305,518.8219 479.1961,517.1461 Q478.0875,515.4703 478.0875,513.4852 L478.0875,511.6805 Q478.0875,509.618 479.0672,507.8133 Q480.0727,506.0086 481.8,505.0547 Q483.5531,504.075 485.5125,504.075 Q486.6984,504.075 487.7297,504.4875 Q488.7609,504.9 489.6375,505.725 Z " fill="#000000"/><text fill="#000000" font-family="sans-serif" font-size="19.8" lengthAdjust="spacing" textLength="132" x="520.1625" y="519.6018">EmployeeDTO</text><line style="stroke:#A80036;stroke-width:2.4749999999999996;" x1="215.325" x2="903.375" y1="537.9" y2="537.9"/><rect fill="none" height="9.9" style="stroke:#C82930;stroke-width:1.6499999999999997;" width="9.9" x="226.875" y="551.1"/><text fill="#000000" font-family="sans-serif" font-size="18.15" lengthAdjust="spacing" textLength="42.9" x="246.675" y="563.3413">name</text><rect fill="none" height="9.9" style="stroke:#C82930;stroke-width:1.6499999999999997;" width="9.9" x="226.875" y="573.9293"/><text fill="#000000" font-family="sans-serif" font-size="18.15" lengthAdjust="spacing" textLength="66" x="246.675" y="586.1706">address</text><rect fill="none" height="9.9" style="stroke:#C82930;stroke-width:1.6499999999999997;" width="9.9" x="226.875" y="596.7586"/><text fill="#000000" font-family="sans-serif" font-size="18.15" lengthAdjust="spacing" textLength="110.55" x="246.675" y="608.9999">phoneNumber</text><rect fill="none" height="9.9" style="stroke:#C82930;stroke-width:1.6499999999999997;" width="9.9" x="226.875" y="619.5879"/><text fill="#000000" font-family="sans-serif" font-size="18.15" lengthAdjust="spacing" textLength="39.6" x="246.675" y="631.8292">email</text><rect fill="none" height="9.9" style="stroke:#C82930;stroke-width:1.6499999999999997;" width="9.9" x="226.875" y="642.4172"/><text fill="#000000" font-family="sans-serif" font-size="18.15" lengthAdjust="spacing" textLength="89.1" x="246.675" y="654.6584">employeeId</text><rect fill="none" height="9.9" style="stroke:#C82930;stroke-width:1.6499999999999997;" width="9.9" x="226.875" y="665.2465"/><text fill="#000000" font-family="sans-serif" font-size="18.15" lengthAdjust="spacing" textLength="70.95" x="246.675" y="677.4877">socCode</text><rect fill="none" height="9.9" style="stroke:#C82930;stroke-width:1.6499999999999997;" width="9.9" x="226.875" y="688.0758"/><text fill="#000000" font-family="sans-serif" font-size="18.15" lengthAdjust="spacing" textLength="155.1" x="246.675" y="700.317">doctorIndexNumber</text><line style="stroke:#A80036;stroke-width:2.4749999999999996;" x1="215.325" x2="903.375" y1="710.9051" y2="710.9051"/><ellipse cx="231.825" cy="729.0551" fill="#84BE84" rx="4.95" ry="4.95" style="stroke:#038048;stroke-width:1.6499999999999997;"/><text fill="#000000" font-family="sans-serif" font-size="18.15" lengthAdjust="spacing" textLength="648.45" x="246.675" y="736.3463">EmployeeDTO(name, adress, phoneNumber, email, socCode, doctorIndexNumber)</text><ellipse cx="231.825" cy="751.8844" fill="#84BE84" rx="4.95" ry="4.95" style="stroke:#038048;stroke-width:1.6499999999999997;"/><text fill="#000000" font-family="sans-serif" font-size="18.15" lengthAdjust="spacing" textLength="483.45" x="246.675" y="759.1756">EmployeeDTO(name, adress, phoneNumber, email, socCode)</text><ellipse cx="231.825" cy="774.7137" fill="#84BE84" rx="4.95" ry="4.95" style="stroke:#038048;stroke-width:1.6499999999999997;"/><text fill="#000000" font-family="sans-serif" font-size="18.15" lengthAdjust="spacing" textLength="82.5" x="246.675" y="782.0049">getName()</text><ellipse cx="231.825" cy="797.543" fill="#84BE84" rx="4.95" ry="4.95" style="stroke:#038048;stroke-width:1.6499999999999997;"/><text fill="#000000" font-family="sans-serif" font-size="18.15" lengthAdjust="spacing" textLength="107.25" x="246.675" y="804.8342">getAddress()</text><ellipse cx="231.825" cy="820.3723" fill="#84BE84" rx="4.95" ry="4.95" style="stroke:#038048;stroke-width:1.6499999999999997;"/><text fill="#000000" font-family="sans-serif" font-size="18.15" lengthAdjust="spacing" textLength="148.5" x="246.675" y="827.6635">getPhoneNumber()</text><ellipse cx="231.825" cy="843.2016" fill="#84BE84" rx="4.95" ry="4.95" style="stroke:#038048;stroke-width:1.6499999999999997;"/><text fill="#000000" font-family="sans-serif" font-size="18.15" lengthAdjust="spacing" textLength="110.55" x="246.675" y="850.4928">getSocCode()</text><ellipse cx="231.825" cy="866.0309" fill="#84BE84" rx="4.95" ry="4.95" style="stroke:#038048;stroke-width:1.6499999999999997;"/><text fill="#000000" font-family="sans-serif" font-size="18.15" lengthAdjust="spacing" textLength="194.7" x="246.675" y="873.3221">getDoctorIndexNumber()</text><!--MD5=[4543091c387f147fceabade6c180ba98]
class EmployeeMapper--><rect codeLine="81" fill="#FEFECE" filter="url(#f3v3sbue1ipbu)" height="124.8586" id="EmployeeMapper" style="stroke:#A80036;stroke-width:2.4749999999999996;" width="295.35" x="411.675" y="1046.925"/><ellipse cx="474.2925" cy="1073.325" fill="#ADD1B2" rx="18.15" ry="18.15" style="stroke:#A80036;stroke-width:1.6499999999999997;"/><path d="M477.5925,1067.55 Q477.9277,1066.725 478.3144,1066.3125 Q478.7011,1065.9 479.1394,1065.9 Q479.9128,1065.9 480.4027,1066.3641 Q480.8925,1066.8281 480.8925,1067.9109 L480.8925,1070.4891 Q480.8925,1071.5719 480.4284,1072.0359 Q479.9644,1072.5 479.2425,1072.5 Q478.598,1072.5 478.1855,1072.2164 Q477.773,1071.9328 477.5925,1071.1852 Q477.5152,1070.6695 477.2316,1070.3859 Q476.7159,1069.8445 475.7878,1069.5352 Q474.8597,1069.2 473.9316,1069.2 Q472.7714,1069.2 471.7917,1069.6641 Q470.8378,1070.1281 470.0902,1071.1594 Q469.3425,1072.1906 469.3425,1073.6086 L469.3425,1075.1297 Q469.3425,1076.8312 470.7347,1077.9656 Q472.1269,1079.1 474.6019,1079.1 Q476.0714,1079.1 477.1027,1078.7648 Q477.6956,1078.5844 478.3659,1077.9914 Q478.8042,1077.6562 479.0362,1077.5531 Q479.2683,1077.45 479.5519,1077.45 Q480.0933,1077.45 480.48,1077.8883 Q480.8925,1078.3008 480.8925,1078.8937 Q480.8925,1079.4609 480.3253,1080.1313 Q479.5003,1081.1109 478.1855,1081.6523 Q476.4581,1082.4 474.3441,1082.4 Q471.8691,1082.4 469.8839,1081.4203 Q468.2855,1080.6469 467.1511,1078.9711 Q466.0425,1077.2953 466.0425,1075.3102 L466.0425,1073.5055 Q466.0425,1071.443 467.0222,1069.6383 Q468.0277,1067.8336 469.755,1066.8797 Q471.5081,1065.9 473.4675,1065.9 Q474.6534,1065.9 475.6847,1066.3125 Q476.7159,1066.725 477.5925,1067.55 Z " fill="#000000"/><text fill="#000000" font-family="sans-serif" font-size="19.8" lengthAdjust="spacing" textLength="158.4" x="505.8075" y="1081.4268">EmployeeMapper</text><line style="stroke:#A80036;stroke-width:2.4749999999999996;" x1="413.325" x2="705.375" y1="1099.725" y2="1099.725"/><line style="stroke:#A80036;stroke-width:2.4749999999999996;" x1="413.325" x2="705.375" y1="1112.925" y2="1112.925"/><ellipse cx="429.825" cy="1131.075" fill="#84BE84" rx="4.95" ry="4.95" style="stroke:#038048;stroke-width:1.6499999999999997;"/><text fill="#000000" font-family="sans-serif" font-size="18.15" lengthAdjust="spacing" textLength="252.45" x="444.675" y="1138.3663">createSpecialistDoctor(empDto)</text><ellipse cx="429.825" cy="1153.9043" fill="#84BE84" rx="4.95" ry="4.95" style="stroke:#038048;stroke-width:1.6499999999999997;"/><text fill="#000000" font-family="sans-serif" font-size="18.15" lengthAdjust="spacing" textLength="199.65" x="444.675" y="1161.1956">createEmployee(empDto)</text><!--MD5=[aca3c536c007fb05376992ab6634e449]
class OrganizationRoleStore--><rect codeLine="108" fill="#FEFECE" filter="url(#f3v3sbue1ipbu)" height="147.6879" id="OrganizationRoleStore" style="stroke:#A80036;stroke-width:2.4749999999999996;" width="330" x="1118.7" y="1035.375"/><ellipse cx="1176.12" cy="1061.775" fill="#ADD1B2" rx="18.15" ry="18.15" style="stroke:#A80036;stroke-width:1.6499999999999997;"/><path d="M1179.42,1056 Q1179.7552,1055.175 1180.1419,1054.7625 Q1180.5286,1054.35 1180.9669,1054.35 Q1181.7403,1054.35 1182.2302,1054.8141 Q1182.72,1055.2781 1182.72,1056.3609 L1182.72,1058.9391 Q1182.72,1060.0219 1182.2559,1060.4859 Q1181.7919,1060.95 1181.07,1060.95 Q1180.4255,1060.95 1180.013,1060.6664 Q1179.6005,1060.3828 1179.42,1059.6352 Q1179.3427,1059.1195 1179.0591,1058.8359 Q1178.5434,1058.2945 1177.6153,1057.9852 Q1176.6872,1057.65 1175.7591,1057.65 Q1174.5989,1057.65 1173.6192,1058.1141 Q1172.6653,1058.5781 1171.9177,1059.6094 Q1171.17,1060.6406 1171.17,1062.0586 L1171.17,1063.5797 Q1171.17,1065.2812 1172.5622,1066.4156 Q1173.9544,1067.55 1176.4294,1067.55 Q1177.8989,1067.55 1178.9302,1067.2148 Q1179.5231,1067.0344 1180.1934,1066.4414 Q1180.6317,1066.1062 1180.8637,1066.0031 Q1181.0958,1065.9 1181.3794,1065.9 Q1181.9208,1065.9 1182.3075,1066.3383 Q1182.72,1066.7508 1182.72,1067.3437 Q1182.72,1067.9109 1182.1528,1068.5812 Q1181.3278,1069.5609 1180.013,1070.1023 Q1178.2856,1070.85 1176.1716,1070.85 Q1173.6966,1070.85 1171.7114,1069.8703 Q1170.113,1069.0969 1168.9786,1067.4211 Q1167.87,1065.7453 1167.87,1063.7602 L1167.87,1061.9555 Q1167.87,1059.893 1168.8497,1058.0883 Q1169.8552,1056.2836 1171.5825,1055.3297 Q1173.3356,1054.35 1175.295,1054.35 Q1176.4809,1054.35 1177.5122,1054.7625 Q1178.5434,1055.175 1179.42,1056 Z " fill="#000000"/><text fill="#000000" font-family="sans-serif" font-size="19.8" lengthAdjust="spacing" textLength="204.6" x="1206.48" y="1069.8768">OrganizationRoleStore</text><line style="stroke:#A80036;stroke-width:2.4749999999999996;" x1="1120.35" x2="1447.05" y1="1088.175" y2="1088.175"/><rect fill="none" height="9.9" style="stroke:#C82930;stroke-width:1.6499999999999997;" width="9.9" x="1131.9" y="1101.375"/><text fill="#000000" font-family="sans-serif" font-size="18.15" lengthAdjust="spacing" textLength="85.8" x="1151.7" y="1113.6163">listOrgRole</text><line style="stroke:#A80036;stroke-width:2.4749999999999996;" x1="1120.35" x2="1447.05" y1="1124.2043" y2="1124.2043"/><ellipse cx="1136.85" cy="1142.3543" fill="#84BE84" rx="4.95" ry="4.95" style="stroke:#038048;stroke-width:1.6499999999999997;"/><text fill="#000000" font-family="sans-serif" font-size="18.15" lengthAdjust="spacing" textLength="160.05" x="1151.7" y="1149.6456">getListOfOrgRoles()</text><ellipse cx="1136.85" cy="1165.1836" fill="#84BE84" rx="4.95" ry="4.95" style="stroke:#038048;stroke-width:1.6499999999999997;"/><text fill="#000000" font-family="sans-serif" font-size="18.15" lengthAdjust="spacing" textLength="287.1" x="1151.7" y="1172.4749">createOrganizationRole(orgRoleDto)</text><!--MD5=[9648088c85fe5e84aaaca2b12eb7f67f]
class OrganizationRoleDto--><rect codeLine="98" fill="#FEFECE" filter="url(#f3v3sbue1ipbu)" height="147.6879" id="OrganizationRoleDto" style="stroke:#A80036;stroke-width:2.4749999999999996;" width="240.9" x="37.95" y="1380.225"/><ellipse cx="62.7" cy="1406.625" fill="#ADD1B2" rx="18.15" ry="18.15" style="stroke:#A80036;stroke-width:1.6499999999999997;"/><path d="M66,1400.85 Q66.3352,1400.025 66.7219,1399.6125 Q67.1086,1399.2 67.5469,1399.2 Q68.3203,1399.2 68.8102,1399.6641 Q69.3,1400.1281 69.3,1401.2109 L69.3,1403.7891 Q69.3,1404.8719 68.8359,1405.3359 Q68.3719,1405.8 67.65,1405.8 Q67.0055,1405.8 66.593,1405.5164 Q66.1805,1405.2328 66,1404.4852 Q65.9227,1403.9695 65.6391,1403.6859 Q65.1234,1403.1445 64.1953,1402.8352 Q63.2672,1402.5 62.3391,1402.5 Q61.1789,1402.5 60.1992,1402.9641 Q59.2453,1403.4281 58.4977,1404.4594 Q57.75,1405.4906 57.75,1406.9086 L57.75,1408.4297 Q57.75,1410.1312 59.1422,1411.2656 Q60.5344,1412.4 63.0094,1412.4 Q64.4789,1412.4 65.5102,1412.0648 Q66.1031,1411.8844 66.7734,1411.2914 Q67.2117,1410.9562 67.4438,1410.8531 Q67.6758,1410.75 67.9594,1410.75 Q68.5008,1410.75 68.8875,1411.1883 Q69.3,1411.6008 69.3,1412.1937 Q69.3,1412.7609 68.7328,1413.4312 Q67.9078,1414.4109 66.593,1414.9523 Q64.8656,1415.7 62.7516,1415.7 Q60.2766,1415.7 58.2914,1414.7203 Q56.693,1413.9469 55.5586,1412.2711 Q54.45,1410.5953 54.45,1408.6102 L54.45,1406.8055 Q54.45,1404.743 55.4297,1402.9383 Q56.4352,1401.1336 58.1625,1400.1797 Q59.9156,1399.2 61.875,1399.2 Q63.0609,1399.2 64.0922,1399.6125 Q65.1234,1400.025 66,1400.85 Z " fill="#000000"/><text fill="#000000" font-family="sans-serif" font-size="19.8" lengthAdjust="spacing" textLength="188.1" x="85.8" y="1414.7268">OrganizationRoleDto</text><line style="stroke:#A80036;stroke-width:2.4749999999999996;" x1="39.6" x2="277.2" y1="1433.025" y2="1433.025"/><rect fill="none" height="9.9" style="stroke:#C82930;stroke-width:1.6499999999999997;" width="9.9" x="51.15" y="1446.225"/><text fill="#000000" font-family="sans-serif" font-size="18.15" lengthAdjust="spacing" textLength="90.75" x="70.95" y="1458.4663">designation</text><line style="stroke:#A80036;stroke-width:2.4749999999999996;" x1="39.6" x2="277.2" y1="1469.0543" y2="1469.0543"/><ellipse cx="56.1" cy="1487.2043" fill="#84BE84" rx="4.95" ry="4.95" style="stroke:#038048;stroke-width:1.6499999999999997;"/><text fill="#000000" font-family="sans-serif" font-size="18.15" lengthAdjust="spacing" textLength="156.75" x="70.95" y="1494.4956">getDesignationDto()</text><ellipse cx="56.1" cy="1510.0336" fill="#84BE84" rx="4.95" ry="4.95" style="stroke:#038048;stroke-width:1.6499999999999997;"/><text fill="#000000" font-family="sans-serif" font-size="18.15" lengthAdjust="spacing" textLength="156.75" x="70.95" y="1517.3249">getDesignationSto()</text><!--MD5=[232dddeb8ed1c921ef01022c786a20ff]
link EmployeeMapper to Employee--><path codeLine="113" d="M588.258,1172.3415 C608.52,1215.126 636.3225,1273.866 661.254,1326.534 " fill="none" id="EmployeeMapper-to-Employee" style="stroke:#A80036;stroke-width:1.6499999999999997;stroke-dasharray:7.0,7.0;"/><polygon fill="#A80036" points="664.917,1334.256,664.5113,1318.0104,661.3792,1326.803,652.5866,1323.6709,664.917,1334.256" style="stroke:#A80036;stroke-width:1.6499999999999997;"/><!--MD5=[b3b4f33f45301bf7dc26d02dbbdf24d8]
link EmployeeDTO to EmployeeMapper--><path codeLine="114" d="M559.35,884.8455 C559.35,939.906 559.35,996.0885 559.35,1038.312 " fill="none" id="EmployeeDTO-to-EmployeeMapper" style="stroke:#A80036;stroke-width:1.6499999999999997;stroke-dasharray:7.0,7.0;"/><polygon fill="#A80036" points="559.35,1046.562,565.95,1031.712,559.35,1038.312,552.75,1031.712,559.35,1046.562" style="stroke:#A80036;stroke-width:1.6499999999999997;"/><!--MD5=[ce859576cba61219b3cb4d2d23fdcd81]
link Company to EmployeeStore--><path codeLine="115" d="M1128.039,759.3465 C1085.964,827.3925 1022.802,929.5275 975.6945,1005.6915 " fill="none" id="Company-to-EmployeeStore" style="stroke:#A80036;stroke-width:1.6499999999999997;"/><polygon fill="#A80036" points="971.19,1012.9845,984.6075,1003.8165,975.5243,1005.9648,973.376,996.8816,971.19,1012.9845" style="stroke:#A80036;stroke-width:1.6499999999999997;"/><text fill="#000000" font-family="sans-serif" font-size="21.45" lengthAdjust="spacing" textLength="46.2" x="1019.7" y="957.8169">uses</text><text fill="#000000" font-family="sans-serif" font-size="21.45" lengthAdjust="spacing" textLength="11.55" x="1109.6512" y="793.5046">1</text><text fill="#000000" font-family="sans-serif" font-size="21.45" lengthAdjust="spacing" textLength="11.55" x="966.0951" y="995.4819">1</text><!--MD5=[372bd27a178b4208a6d241b4516ac7e6]
reverse link Employee to SpecialistDoctor--><path codeLine="116" d="M775.797,1605.3345 C789.921,1643.829 804.342,1683.1485 815.76,1714.2675 " fill="none" id="Employee-backto-SpecialistDoctor" style="stroke:#A80036;stroke-width:1.6499999999999997;"/><polygon fill="none" points="764.8575,1609.0635,764.346,1574.1,786.555,1601.1105,764.8575,1609.0635" style="stroke:#A80036;stroke-width:1.6499999999999997;"/><!--MD5=[969ee03aa52aee79b0e607297418cbd4]
link RegisterEmployeeController to Company--><path codeLine="117" d="M1173.15,384.8295 C1173.15,451.242 1173.15,538.8735 1173.15,601.9365 " fill="none" id="RegisterEmployeeController-to-Company" style="stroke:#A80036;stroke-width:1.6499999999999997;stroke-dasharray:7.0,7.0;"/><polygon fill="#A80036" points="1173.15,610.2855,1179.75,595.4355,1173.15,602.0355,1166.55,595.4355,1173.15,610.2855" style="stroke:#A80036;stroke-width:1.6499999999999997;"/><!--MD5=[241b49406f7a05442b1e788ffaf3787c]
link Employee to OrganizationRole--><path codeLine="118" d="M558.591,1574.397 C518.166,1611.258 478.797,1654.9335 452.1,1702.8 C412.9455,1772.991 399.1515,1864.5 394.515,1929.8895 " fill="none" id="Employee-to-OrganizationRole" style="stroke:#A80036;stroke-width:1.6499999999999997;"/><polygon fill="#A80036" points="393.261,1951.4385,400.4371,1941.9478,394.4365,1931.6734,387.2604,1941.1641,393.261,1951.4385" style="stroke:#A80036;stroke-width:1.6499999999999997;"/><!--MD5=[3fd241ca11f270f6bde54c00b8a8581a]
link RegisterEmployeeUI to RegisterEmployeeController--><path codeLine="119" d="M1173.15,90.8325 C1173.15,115.962 1173.15,150.216 1173.15,183.018 " fill="none" id="RegisterEmployeeUI-to-RegisterEmployeeController" style="stroke:#A80036;stroke-width:1.6499999999999997;stroke-dasharray:7.0,7.0;"/><polygon fill="#A80036" points="1173.15,191.3175,1179.75,176.4675,1173.15,183.0675,1166.55,176.4675,1173.15,191.3175" style="stroke:#A80036;stroke-width:1.6499999999999997;"/><!--MD5=[2f3bac1bdf76f0b867b8cadb6fadb6bc]
link EmployeeStore to Employee--><path codeLine="120" d="M859.1385,1206.414 C838.2,1243.77 813.879,1287.165 791.538,1327.0455 " fill="none" id="EmployeeStore-to-Employee" style="stroke:#A80036;stroke-width:1.6499999999999997;"/><polygon fill="#A80036" points="787.3965,1334.4375,800.4021,1324.6939,791.421,1327.2357,788.8792,1318.2547,787.3965,1334.4375" style="stroke:#A80036;stroke-width:1.6499999999999997;"/><text fill="#000000" font-family="sans-serif" font-size="21.45" lengthAdjust="spacing" textLength="61.05" x="828.3" y="1279.5669">knows</text><text fill="#000000" font-family="sans-serif" font-size="21.45" lengthAdjust="spacing" textLength="11.55" x="840.3873" y="1242.1031">1</text><text fill="#000000" font-family="sans-serif" font-size="21.45" lengthAdjust="spacing" textLength="8.25" x="785.5631" y="1316.6069">*</text><!--MD5=[791833a825fb80e97ccae54226c6f9b1]
link Company to OrganizationRoleStore--><path codeLine="121" d="M1192.2735,759.3465 C1211.8425,833.9265 1242.153,949.509 1262.448,1026.9105 " fill="none" id="Company-to-OrganizationRoleStore" style="stroke:#A80036;stroke-width:1.6499999999999997;"/><polygon fill="#A80036" points="1264.626,1035.21,1267.2388,1019.1708,1262.5311,1027.2304,1254.4715,1022.5227,1264.626,1035.21" style="stroke:#A80036;stroke-width:1.6499999999999997;"/><text fill="#000000" font-family="sans-serif" font-size="21.45" lengthAdjust="spacing" textLength="46.2" x="1245.75" y="957.8169">uses</text><text fill="#000000" font-family="sans-serif" font-size="21.45" lengthAdjust="spacing" textLength="11.55" x="1182.5172" y="793.5046">1</text><text fill="#000000" font-family="sans-serif" font-size="21.45" lengthAdjust="spacing" textLength="11.55" x="1249.1157" y="1017.2242">1</text><!--MD5=[1c6634e41ea173d211257c54b2312dae]
link OrganizationRoleStore to OrganizationRole--><path codeLine="122" d="M1303.4505,1184.2545 C1338.315,1330.923 1392.237,1663.431 1224.3,1851.3 C1135.4805,1950.663 755.6175,1990.3785 541.3155,2005.113 " fill="none" id="OrganizationRoleStore-to-OrganizationRole" style="stroke:#A80036;stroke-width:1.6499999999999997;"/><polygon fill="#A80036" points="532.5045,2005.707,547.7712,2011.2756,540.7352,2005.1426,546.8682,1998.1066,532.5045,2005.707" style="stroke:#A80036;stroke-width:1.6499999999999997;"/><text fill="#000000" font-family="sans-serif" font-size="21.45" lengthAdjust="spacing" textLength="64.35" x="1328.25" y="1647.5169">adopts</text><text fill="#000000" font-family="sans-serif" font-size="21.45" lengthAdjust="spacing" textLength="11.55" x="1293.7785" y="1218.4171">1</text><text fill="#000000" font-family="sans-serif" font-size="21.45" lengthAdjust="spacing" textLength="33" x="545.4485" y="1999.7867">1..*</text><!--MD5=[fbcb59efe238b8cbac26feb5594228e1]
link OrganizationRoleMapper to OrganizationRole--><path codeLine="123" d="M231.2475,1851.5475 C260.9805,1881.2805 295.152,1915.452 324.4065,1944.7065 " fill="none" id="OrganizationRoleMapper-to-OrganizationRole" style="stroke:#A80036;stroke-width:1.6499999999999997;stroke-dasharray:7.0,7.0;"/><polygon fill="#A80036" points="330.9405,1951.2405,325.1069,1936.0731,325.1069,1945.4069,315.7731,1945.4069,330.9405,1951.2405" style="stroke:#A80036;stroke-width:1.6499999999999997;"/><!--MD5=[7e79e002aa8f1fb01b5f5ce09b972382]
link OrganizationRoleDto to OrganizationRoleMapper--><path codeLine="124" d="M158.4,1529.3685 C158.4,1578.456 158.4,1643.1195 158.4,1693.8405 " fill="none" id="OrganizationRoleDto-to-OrganizationRoleMapper" style="stroke:#A80036;stroke-width:1.6499999999999997;stroke-dasharray:7.0,7.0;"/><polygon fill="#A80036" points="158.4,1702.4865,165,1687.6365,158.4,1694.2365,151.8,1687.6365,158.4,1702.4865" style="stroke:#A80036;stroke-width:1.6499999999999997;"/><!--MD5=[bfce644d09ae8cc923420052f0db5d0f]
@startuml
'https://plantuml.com/class-diagram

class Company
class Employee
class EmployeeStore
class RegisterEmployeeUI
class RegisterEmployeeController
class OrganizationRole
class SpecialistDoctor
class OrganizationRoleMapper
class EmployeeDTO
class EmployeeMapper
class OrganizationRoleStore
class EmployeeDTO
class EmployeeMapper


class Company{
-designation
+getEmployeeStore()
+getOrgRolesStore()

}

class Employee{
-name
-address
-phoneNumber
-email
-employeeId
-socCode
+Employee(name address, phoneNumber, email, socCode)

}
class SpecialistDoctor{
-doctorIndexNumber
+SpecialistDoctor(name address, phoneNumber, email, socCode, doctorIndexNumber)

}

class OrganizationRole{
-description
+OrganizationRole(description)
}



class EmployeeStore{
+createEmployee(empDto)
+createSpecialistDoctor(empDto)
+validateEmployee(emp)
+addEmployee(emp)
+saveEmployee(emp)
}

class RegisterEmployeeController{
+getListOfOrgRoles()
+createOrganizationRole(orgRoleDto)
+createSpecialistDoctor(empDto)
+createEmployee(empDto)
+saveEmployee()

}
class EmployeeDTO{
-name
-address
-phoneNumber
-email
-employeeId
-socCode
-doctorIndexNumber
+EmployeeDTO(name, adress, phoneNumber, email, socCode, doctorIndexNumber)
+EmployeeDTO(name, adress, phoneNumber, email, socCode)
+getName()
+getAddress()
+getPhoneNumber()
+getSocCode()
+getDoctorIndexNumber()
}

class EmployeeMapper{
+createSpecialistDoctor(empDto)
+createEmployee(empDto)
}




class OrganizationRoleMapper{
+toOrgRole(orgRoleDto)

}

class OrganizationRoleDto{
-designation
+getDesignationDto()
}
class OrganizationRoleDto{
+getDesignationSto()

}

class OrganizationRoleMapper{
-listOrgRolesDto
+toOrganizationRole(orgRoleDto)
}

class OrganizationRoleStore{
-listOrgRole
+getListOfOrgRoles()
+createOrganizationRole(orgRoleDto)
}
EmployeeMapper..>Employee
EmployeeDTO..>EmployeeMapper
Company "1"- ->"1" EmployeeStore : uses
Employee<|- -SpecialistDoctor
RegisterEmployeeController ..>Company
Employee - -* OrganizationRole
RegisterEmployeeUI ..> RegisterEmployeeController
EmployeeStore "1"- ->"*" Employee  : knows
Company "1"- ->"1" OrganizationRoleStore : uses
OrganizationRoleStore "1"- - - ->"1..*" OrganizationRole : adopts
OrganizationRoleMapper..>OrganizationRole
OrganizationRoleDto..>OrganizationRoleMapper
@enduml

@startuml

class Company
class Employee
class EmployeeStore
class RegisterEmployeeUI
class RegisterEmployeeController
class OrganizationRole
class SpecialistDoctor
class OrganizationRoleMapper
class EmployeeDTO
class EmployeeMapper
class OrganizationRoleStore
class EmployeeDTO
class EmployeeMapper


class Company{
-designation
+getEmployeeStore()
+getOrgRolesStore()

}

class Employee{
-name
-address
-phoneNumber
-email
-employeeId
-socCode
+Employee(name address, phoneNumber, email, socCode)

}
class SpecialistDoctor{
-doctorIndexNumber
+SpecialistDoctor(name address, phoneNumber, email, socCode, doctorIndexNumber)

}

class OrganizationRole{
-description
+OrganizationRole(description)
}



class EmployeeStore{
+createEmployee(empDto)
+createSpecialistDoctor(empDto)
+validateEmployee(emp)
+addEmployee(emp)
+saveEmployee(emp)
}

class RegisterEmployeeController{
+getListOfOrgRoles()
+createOrganizationRole(orgRoleDto)
+createSpecialistDoctor(empDto)
+createEmployee(empDto)
+saveEmployee()

}
class EmployeeDTO{
-name
-address
-phoneNumber
-email
-employeeId
-socCode
-doctorIndexNumber
+EmployeeDTO(name, adress, phoneNumber, email, socCode, doctorIndexNumber)
+EmployeeDTO(name, adress, phoneNumber, email, socCode)
+getName()
+getAddress()
+getPhoneNumber()
+getSocCode()
+getDoctorIndexNumber()
}

class EmployeeMapper{
+createSpecialistDoctor(empDto)
+createEmployee(empDto)
}




class OrganizationRoleMapper{
+toOrgRole(orgRoleDto)

}

class OrganizationRoleDto{
-designation
+getDesignationDto()
}
class OrganizationRoleDto{
+getDesignationSto()

}

class OrganizationRoleMapper{
-listOrgRolesDto
+toOrganizationRole(orgRoleDto)
}

class OrganizationRoleStore{
-listOrgRole
+getListOfOrgRoles()
+createOrganizationRole(orgRoleDto)
}
EmployeeMapper..>Employee
EmployeeDTO..>EmployeeMapper
Company "1"- ->"1" EmployeeStore : uses
Employee<|- -SpecialistDoctor
RegisterEmployeeController ..>Company
Employee - -* OrganizationRole
RegisterEmployeeUI ..> RegisterEmployeeController
EmployeeStore "1"- ->"*" Employee  : knows
Company "1"- ->"1" OrganizationRoleStore : uses
OrganizationRoleStore "1"- - - ->"1..*" OrganizationRole : adopts
OrganizationRoleMapper..>OrganizationRole
OrganizationRoleDto..>OrganizationRoleMapper
@enduml

PlantUML version 1.2021.5(Sun Apr 25 12:20:28 BST 2021)
(GPL source distribution)
Java Runtime: OpenJDK Runtime Environment
JVM: Dynamic Code Evolution 64-Bit Server VM
Default Encoding: Cp1252
Language: pt
Country: PT
--></g></svg>