<?xml version="1.0" encoding="UTF-8" standalone="no"?><svg xmlns="http://www.w3.org/2000/svg" xmlns:xlink="http://www.w3.org/1999/xlink" contentScriptType="application/ecmascript" contentStyleType="text/css" height="250.5px" preserveAspectRatio="none" style="width:1249px;height:250px;" version="1.1" viewBox="0 0 1249 250" width="1249.5px" zoomAndPan="magnify"><defs><filter height="300%" id="f1ijriaqd913jt" width="300%" x="-1" y="-1"><feGaussianBlur result="blurOut" stdDeviation="3.0"/><feColorMatrix in="blurOut" result="blurOut2" type="matrix" values="0 0 0 0 0 0 0 0 0 0 0 0 0 0 0 0 0 0 .4 0"/><feOffset dx="6.0" dy="6.0" in="blurOut2" result="blurOut3"/><feBlend in="SourceGraphic" in2="blurOut3" mode="normal"/></filter></defs><g><!--MD5=[da547346deef918ea16944ba046651ef]
class Administrator--><rect codeLine="6" fill="#FEFECE" filter="url(#f1ijriaqd913jt)" height="60" id="Administrator" style="stroke:#A80036;stroke-width:2.25;" width="157.5" x="10.5" y="97.5"/><ellipse cx="33" cy="121.5" fill="#ADD1B2" rx="16.5" ry="16.5" style="stroke:#A80036;stroke-width:1.5;"/><path d="M36,116.25 Q36.3047,115.5 36.6563,115.125 Q37.0078,114.75 37.4063,114.75 Q38.1094,114.75 38.5547,115.1719 Q39,115.5938 39,116.5781 L39,118.9219 Q39,119.9063 38.5781,120.3281 Q38.1563,120.75 37.5,120.75 Q36.9141,120.75 36.5391,120.4922 Q36.1641,120.2344 36,119.5547 Q35.9297,119.0859 35.6719,118.8281 Q35.2031,118.3359 34.3594,118.0547 Q33.5156,117.75 32.6719,117.75 Q31.6172,117.75 30.7266,118.1719 Q29.8594,118.5938 29.1797,119.5313 Q28.5,120.4688 28.5,121.7578 L28.5,123.1406 Q28.5,124.6875 29.7656,125.7188 Q31.0313,126.75 33.2813,126.75 Q34.6172,126.75 35.5547,126.4453 Q36.0938,126.2813 36.7031,125.7422 Q37.1016,125.4375 37.3125,125.3438 Q37.5234,125.25 37.7813,125.25 Q38.2734,125.25 38.625,125.6484 Q39,126.0234 39,126.5625 Q39,127.0781 38.4844,127.6875 Q37.7344,128.5781 36.5391,129.0703 Q34.9688,129.75 33.0469,129.75 Q30.7969,129.75 28.9922,128.8594 Q27.5391,128.1563 26.5078,126.6328 Q25.5,125.1094 25.5,123.3047 L25.5,121.6641 Q25.5,119.7891 26.3906,118.1484 Q27.3047,116.5078 28.875,115.6406 Q30.4688,114.75 32.25,114.75 Q33.3281,114.75 34.2656,115.125 Q35.2031,115.5 36,116.25 Z " fill="#000000"/><text fill="#000000" font-family="sans-serif" font-size="18" lengthAdjust="spacing" textLength="109.5" x="54" y="128.8652">Administrator</text><line style="stroke:#A80036;stroke-width:2.25;" x1="12" x2="166.5" y1="145.5" y2="145.5"/><!--MD5=[02e4b9b7573f1156f41e60aa5b4e25a4]
class Company--><rect codeLine="28" fill="#FEFECE" filter="url(#f1ijriaqd913jt)" height="80.7539" id="Company" style="stroke:#A80036;stroke-width:2.25;" width="127.5" x="336" y="10.5"/><ellipse cx="358.5" cy="34.5" fill="#ADD1B2" rx="16.5" ry="16.5" style="stroke:#A80036;stroke-width:1.5;"/><path d="M361.5,29.25 Q361.8047,28.5 362.1563,28.125 Q362.5078,27.75 362.9063,27.75 Q363.6094,27.75 364.0547,28.1719 Q364.5,28.5938 364.5,29.5781 L364.5,31.9219 Q364.5,32.9063 364.0781,33.3281 Q363.6563,33.75 363,33.75 Q362.4141,33.75 362.0391,33.4922 Q361.6641,33.2344 361.5,32.5547 Q361.4297,32.0859 361.1719,31.8281 Q360.7031,31.3359 359.8594,31.0547 Q359.0156,30.75 358.1719,30.75 Q357.1172,30.75 356.2266,31.1719 Q355.3594,31.5938 354.6797,32.5313 Q354,33.4688 354,34.7578 L354,36.1406 Q354,37.6875 355.2656,38.7188 Q356.5313,39.75 358.7813,39.75 Q360.1172,39.75 361.0547,39.4453 Q361.5938,39.2813 362.2031,38.7422 Q362.6016,38.4375 362.8125,38.3438 Q363.0234,38.25 363.2813,38.25 Q363.7734,38.25 364.125,38.6484 Q364.5,39.0234 364.5,39.5625 Q364.5,40.0781 363.9844,40.6875 Q363.2344,41.5781 362.0391,42.0703 Q360.4688,42.75 358.5469,42.75 Q356.2969,42.75 354.4922,41.8594 Q353.0391,41.1563 352.0078,39.6328 Q351,38.1094 351,36.3047 L351,34.6641 Q351,32.7891 351.8906,31.1484 Q352.8047,29.5078 354.375,28.6406 Q355.9688,27.75 357.75,27.75 Q358.8281,27.75 359.7656,28.125 Q360.7031,28.5 361.5,29.25 Z " fill="#000000"/><text fill="#000000" font-family="sans-serif" font-size="18" lengthAdjust="spacing" textLength="79.5" x="379.5" y="41.8652">Company</text><line style="stroke:#A80036;stroke-width:2.25;" x1="337.5" x2="462" y1="58.5" y2="58.5"/><text fill="#000000" font-family="sans-serif" font-size="16.5" lengthAdjust="spacing" textLength="88.5" x="345" y="81.6284">-designation</text><!--MD5=[7421f545a0d8420c5bec41e74b387d9c]
class Employee--><rect codeLine="18" fill="#FEFECE" filter="url(#f1ijriaqd913jt)" height="205.2773" id="Employee" style="stroke:#A80036;stroke-width:2.25;" width="144" x="631.5" y="24.75"/><ellipse cx="660.075" cy="48.75" fill="#ADD1B2" rx="16.5" ry="16.5" style="stroke:#A80036;stroke-width:1.5;"/><path d="M663.075,43.5 Q663.3797,42.75 663.7313,42.375 Q664.0828,42 664.4813,42 Q665.1844,42 665.6297,42.4219 Q666.075,42.8438 666.075,43.8281 L666.075,46.1719 Q666.075,47.1563 665.6531,47.5781 Q665.2313,48 664.575,48 Q663.9891,48 663.6141,47.7422 Q663.2391,47.4844 663.075,46.8047 Q663.0047,46.3359 662.7469,46.0781 Q662.2781,45.5859 661.4344,45.3047 Q660.5906,45 659.7469,45 Q658.6922,45 657.8016,45.4219 Q656.9344,45.8438 656.2547,46.7813 Q655.575,47.7188 655.575,49.0078 L655.575,50.3906 Q655.575,51.9375 656.8406,52.9688 Q658.1063,54 660.3563,54 Q661.6922,54 662.6297,53.6953 Q663.1688,53.5313 663.7781,52.9922 Q664.1766,52.6875 664.3875,52.5938 Q664.5984,52.5 664.8563,52.5 Q665.3484,52.5 665.7,52.8984 Q666.075,53.2734 666.075,53.8125 Q666.075,54.3281 665.5594,54.9375 Q664.8094,55.8281 663.6141,56.3203 Q662.0438,57 660.1219,57 Q657.8719,57 656.0672,56.1094 Q654.6141,55.4063 653.5828,53.8828 Q652.575,52.3594 652.575,50.5547 L652.575,48.9141 Q652.575,47.0391 653.4656,45.3984 Q654.3797,43.7578 655.95,42.8906 Q657.5438,42 659.325,42 Q660.4031,42 661.3406,42.375 Q662.2781,42.75 663.075,43.5 Z " fill="#000000"/><text fill="#000000" font-family="sans-serif" font-size="18" lengthAdjust="spacing" textLength="82.5" x="682.425" y="56.1152">Employee</text><line style="stroke:#A80036;stroke-width:2.25;" x1="633" x2="774" y1="72.75" y2="72.75"/><text fill="#000000" font-family="sans-serif" font-size="16.5" lengthAdjust="spacing" textLength="45" x="640.5" y="95.8784">-name</text><text fill="#000000" font-family="sans-serif" font-size="16.5" lengthAdjust="spacing" textLength="66" x="640.5" y="116.6323">-address</text><text fill="#000000" font-family="sans-serif" font-size="16.5" lengthAdjust="spacing" textLength="106.5" x="640.5" y="137.3862">-phoneNumber</text><text fill="#000000" font-family="sans-serif" font-size="16.5" lengthAdjust="spacing" textLength="42" x="640.5" y="158.1401">-email</text><text fill="#000000" font-family="sans-serif" font-size="16.5" lengthAdjust="spacing" textLength="87" x="640.5" y="178.894">-employeeId</text><text fill="#000000" font-family="sans-serif" font-size="16.5" lengthAdjust="spacing" textLength="126" x="640.5" y="199.6479">-organizationRole</text><text fill="#000000" font-family="sans-serif" font-size="16.5" lengthAdjust="spacing" textLength="70.5" x="640.5" y="220.4019">-socCode</text><!--MD5=[3fd616f346a44cd59a91eb10b19e157c]
class User--><rect codeLine="13" fill="#FEFECE" filter="url(#f1ijriaqd913jt)" height="122.2617" id="User" style="stroke:#A80036;stroke-width:2.25;" width="99" x="867" y="66"/><ellipse cx="894.225" cy="90" fill="#ADD1B2" rx="16.5" ry="16.5" style="stroke:#A80036;stroke-width:1.5;"/><path d="M897.225,84.75 Q897.5297,84 897.8812,83.625 Q898.2328,83.25 898.6312,83.25 Q899.3344,83.25 899.7797,83.6719 Q900.225,84.0938 900.225,85.0781 L900.225,87.4219 Q900.225,88.4063 899.8031,88.8281 Q899.3812,89.25 898.725,89.25 Q898.1391,89.25 897.7641,88.9922 Q897.3891,88.7344 897.225,88.0547 Q897.1547,87.5859 896.8969,87.3281 Q896.4281,86.8359 895.5844,86.5547 Q894.7406,86.25 893.8969,86.25 Q892.8422,86.25 891.9516,86.6719 Q891.0844,87.0938 890.4047,88.0313 Q889.725,88.9688 889.725,90.2578 L889.725,91.6406 Q889.725,93.1875 890.9906,94.2188 Q892.2562,95.25 894.5062,95.25 Q895.8422,95.25 896.7797,94.9453 Q897.3187,94.7813 897.9281,94.2422 Q898.3266,93.9375 898.5375,93.8438 Q898.7484,93.75 899.0062,93.75 Q899.4984,93.75 899.85,94.1484 Q900.225,94.5234 900.225,95.0625 Q900.225,95.5781 899.7094,96.1875 Q898.9594,97.0781 897.7641,97.5703 Q896.1937,98.25 894.2719,98.25 Q892.0219,98.25 890.2172,97.3594 Q888.7641,96.6563 887.7328,95.1328 Q886.725,93.6094 886.725,91.8047 L886.725,90.1641 Q886.725,88.2891 887.6156,86.6484 Q888.5297,85.0078 890.1,84.1406 Q891.6937,83.25 893.475,83.25 Q894.5531,83.25 895.4906,83.625 Q896.4281,84 897.225,84.75 Z " fill="#000000"/><text fill="#000000" font-family="sans-serif" font-size="18" lengthAdjust="spacing" textLength="40.5" x="916.275" y="97.3652">User</text><line style="stroke:#A80036;stroke-width:2.25;" x1="868.5" x2="964.5" y1="114" y2="114"/><text fill="#000000" font-family="sans-serif" font-size="16.5" lengthAdjust="spacing" textLength="45" x="876" y="137.1284">-name</text><text fill="#000000" font-family="sans-serif" font-size="16.5" lengthAdjust="spacing" textLength="42" x="876" y="157.8823">-email</text><text fill="#000000" font-family="sans-serif" font-size="16.5" lengthAdjust="spacing" textLength="81" x="876" y="178.6362">-password</text><!--MD5=[a3638c1e5b65d287ecad7f06f5c0f212]
class Role--><rect codeLine="32" fill="#FEFECE" filter="url(#f1ijriaqd913jt)" height="101.5078" id="Role" style="stroke:#A80036;stroke-width:2.25;" width="103.5" x="1125" y="76.5"/><ellipse cx="1154.925" cy="100.5" fill="#ADD1B2" rx="16.5" ry="16.5" style="stroke:#A80036;stroke-width:1.5;"/><path d="M1157.925,95.25 Q1158.2297,94.5 1158.5813,94.125 Q1158.9328,93.75 1159.3313,93.75 Q1160.0344,93.75 1160.4797,94.1719 Q1160.925,94.5938 1160.925,95.5781 L1160.925,97.9219 Q1160.925,98.9063 1160.5031,99.3281 Q1160.0813,99.75 1159.425,99.75 Q1158.8391,99.75 1158.4641,99.4922 Q1158.0891,99.2344 1157.925,98.5547 Q1157.8547,98.0859 1157.5969,97.8281 Q1157.1281,97.3359 1156.2844,97.0547 Q1155.4406,96.75 1154.5969,96.75 Q1153.5422,96.75 1152.6516,97.1719 Q1151.7844,97.5938 1151.1047,98.5313 Q1150.425,99.4688 1150.425,100.7578 L1150.425,102.1406 Q1150.425,103.6875 1151.6906,104.7188 Q1152.9563,105.75 1155.2063,105.75 Q1156.5422,105.75 1157.4797,105.4453 Q1158.0188,105.2813 1158.6281,104.7422 Q1159.0266,104.4375 1159.2375,104.3438 Q1159.4484,104.25 1159.7063,104.25 Q1160.1984,104.25 1160.55,104.6484 Q1160.925,105.0234 1160.925,105.5625 Q1160.925,106.0781 1160.4094,106.6875 Q1159.6594,107.5781 1158.4641,108.0703 Q1156.8938,108.75 1154.9719,108.75 Q1152.7219,108.75 1150.9172,107.8594 Q1149.4641,107.1563 1148.4328,105.6328 Q1147.425,104.1094 1147.425,102.3047 L1147.425,100.6641 Q1147.425,98.7891 1148.3156,97.1484 Q1149.2297,95.5078 1150.8,94.6406 Q1152.3938,93.75 1154.175,93.75 Q1155.2531,93.75 1156.1906,94.125 Q1157.1281,94.5 1157.925,95.25 Z " fill="#000000"/><text fill="#000000" font-family="sans-serif" font-size="18" lengthAdjust="spacing" textLength="39" x="1177.575" y="107.8652">Role</text><line style="stroke:#A80036;stroke-width:2.25;" x1="1126.5" x2="1227" y1="124.5" y2="124.5"/><text fill="#000000" font-family="sans-serif" font-size="16.5" lengthAdjust="spacing" textLength="18" x="1134" y="147.6284">-id</text><text fill="#000000" font-family="sans-serif" font-size="16.5" lengthAdjust="spacing" textLength="85.5" x="1134" y="168.3823">-description</text><!--MD5=[304db59a05c0da2cdffc3c882f2d9e9b]
link Administrator to Company--><path codeLine="37" d="M168.345,108.195 C220.125,95.31 287.31,78.6 335.67,66.57 " fill="none" id="Administrator-Company" style="stroke:#A80036;stroke-width:1.5;"/><polygon fill="#000000" points="213.2218,66.5742,227.4524,67.5769,225.3239,59.0209,213.2218,66.5742" style="stroke:#000000;stroke-width:1.5;"/><text fill="#000000" font-family="sans-serif" font-size="19.5" lengthAdjust="spacing" textLength="55.5" x="234" y="72.7427">knows</text><text fill="#000000" font-family="sans-serif" font-size="19.5" lengthAdjust="spacing" textLength="7.5" x="179.9951" y="127.4475">*</text><text fill="#000000" font-family="sans-serif" font-size="19.5" lengthAdjust="spacing" textLength="10.5" x="313.6872" y="91.443">1</text><!--MD5=[22fb9506fac029fc1d2ae00f0eb8d606]
link Employee to User--><path codeLine="38" d="M775.515,127.5 C794.985,127.5 816.225,127.5 836.145,127.5 " fill="none" id="Employee-to-User" style="stroke:#A80036;stroke-width:1.5;"/><polygon fill="none" points="836.85,117,866.85,127.5,836.85,138,836.85,117" style="stroke:#A80036;stroke-width:1.5;"/><!--MD5=[09366576ee87d48d594df10cacc83f45]
link Company to Employee--><path codeLine="39" d="M463.56,66.855 C512.43,79.275 580.44,96.585 631.335,109.53 " fill="none" id="Company-Employee" style="stroke:#A80036;stroke-width:1.5;"/><polygon fill="#000000" points="523.2686,69.6125,511.2063,61.9956,509.0329,70.5403,523.2686,69.6125" style="stroke:#000000;stroke-width:1.5;"/><text fill="#000000" font-family="sans-serif" font-size="19.5" lengthAdjust="spacing" textLength="55.5" x="529.5" y="75.7427">knows</text><text fill="#000000" font-family="sans-serif" font-size="19.5" lengthAdjust="spacing" textLength="10.5" x="475.4297" y="91.9517">1</text><text fill="#000000" font-family="sans-serif" font-size="19.5" lengthAdjust="spacing" textLength="7.5" x="612.2105" y="128.9159">*</text><!--MD5=[8f7dd94d56b58fc07b233ccd3dd98f8c]
link Administrator to Employee--><path codeLine="40" d="M168,134.025 C216.255,137.775 279.705,142.11 336,144 C392.64,145.905 406.86,145.95 463.5,144 C519.915,142.05 583.695,137.52 631.095,133.695 " fill="none" id="Administrator-Employee" style="stroke:#A80036;stroke-width:1.5;"/><polygon fill="#000000" points="371.25,130.7583,357.6792,126.3596,357.6855,135.1764,371.25,130.7583" style="stroke:#000000;stroke-width:1.5;"/><text fill="#000000" font-family="sans-serif" font-size="19.5" lengthAdjust="spacing" textLength="64.5" x="377.25" y="138.7427">register</text><text fill="#000000" font-family="sans-serif" font-size="19.5" lengthAdjust="spacing" textLength="10.5" x="179.8125" y="156.9098">1</text><text fill="#000000" font-family="sans-serif" font-size="19.5" lengthAdjust="spacing" textLength="7.5" x="611.9338" y="156.7812">*</text><!--MD5=[70c37dc9bfbc8656942103c36f1181e4]
link User to Role--><path codeLine="41" d="M966.39,127.5 C1011.645,127.5 1078.995,127.5 1124.88,127.5 " fill="none" id="User-Role" style="stroke:#A80036;stroke-width:1.5;"/><polygon fill="#000000" points="1026,114.2637,1012.4324,109.8553,1012.4324,118.6721,1026,114.2637" style="stroke:#000000;stroke-width:1.5;"/><text fill="#000000" font-family="sans-serif" font-size="19.5" lengthAdjust="spacing" textLength="46.5" x="1032" y="122.2427">plays</text><text fill="#000000" font-family="sans-serif" font-size="19.5" lengthAdjust="spacing" textLength="7.5" x="978.1238" y="150.5061">*</text><text fill="#000000" font-family="sans-serif" font-size="19.5" lengthAdjust="spacing" textLength="10.5" x="1102.599" y="150.3228">1</text><!--MD5=[64d5e8e1724e0b3b60b157c357575826]
@startuml
'https://plantuml.com/class-diagram
hide methods
left to right direction
skinparam classAttributeIconSize 0

class Administrator
class Company
class Employee
class User
class Role


class User{
-name
-email
-password
}
class Employee{
-name
-address
-phoneNumber
-email
-employeeId
-organizationRole
-socCode
}

class Company{
-designation
}

class Role{
-id
-description
}

Administrator "*"- -"1" Company : < knows 
Employee - -|> User
Company "1"- -"*" Employee : knows >
Administrator "1"- -"*" Employee : register >
User "*"- -"1" Role : plays >
@enduml

@startuml
hide methods
left to right direction
skinparam classAttributeIconSize 0

class Administrator
class Company
class Employee
class User
class Role


class User{
-name
-email
-password
}
class Employee{
-name
-address
-phoneNumber
-email
-employeeId
-organizationRole
-socCode
}

class Company{
-designation
}

class Role{
-id
-description
}

Administrator "*"- -"1" Company : < knows 
Employee - -|> User
Company "1"- -"*" Employee : knows >
Administrator "1"- -"*" Employee : register >
User "*"- -"1" Role : plays >
@enduml

PlantUML version 1.2021.4(Sun Apr 04 09:49:39 BST 2021)
(GPL source distribution)
Java Runtime: OpenJDK Runtime Environment
JVM: Dynamic Code Evolution 64-Bit Server VM
Default Encoding: Cp1252
Language: pt
Country: PT
--></g></svg>