<?xml version="1.0" encoding="UTF-8" standalone="no"?><svg xmlns="http://www.w3.org/2000/svg" xmlns:xlink="http://www.w3.org/1999/xlink" contentScriptType="application/ecmascript" contentStyleType="text/css" height="111px" preserveAspectRatio="none" style="width:733px;height:111px;background:#FFFFFF;" version="1.1" viewBox="0 0 733 111" width="733.5px" zoomAndPan="magnify"><defs><filter height="300%" id="f1abj4jk6c1uf3" width="300%" x="-1" y="-1"><feGaussianBlur result="blurOut" stdDeviation="3.0"/><feColorMatrix in="blurOut" result="blurOut2" type="matrix" values="0 0 0 0 0 0 0 0 0 0 0 0 0 0 0 0 0 0 .4 0"/><feOffset dx="6.0" dy="6.0" in="blurOut2" result="blurOut3"/><feBlend in="SourceGraphic" in2="blurOut3" mode="normal"/></filter></defs><g><!--MD5=[02e4b9b7573f1156f41e60aa5b4e25a4]
class Company--><rect codeLine="4" fill="#FEFECE" filter="url(#f1abj4jk6c1uf3)" height="80.7539" id="Company" style="stroke:#A80036;stroke-width:2.25;" width="127.5" x="10.5" y="10.5"/><ellipse cx="33" cy="34.5" fill="#ADD1B2" rx="16.5" ry="16.5" style="stroke:#A80036;stroke-width:1.5;"/><path d="M36,29.25 Q36.3047,28.5 36.6563,28.125 Q37.0078,27.75 37.4063,27.75 Q38.1094,27.75 38.5547,28.1719 Q39,28.5938 39,29.5781 L39,31.9219 Q39,32.9063 38.5781,33.3281 Q38.1563,33.75 37.5,33.75 Q36.9141,33.75 36.5391,33.4922 Q36.1641,33.2344 36,32.5547 Q35.9297,32.0859 35.6719,31.8281 Q35.2031,31.3359 34.3594,31.0547 Q33.5156,30.75 32.6719,30.75 Q31.6172,30.75 30.7266,31.1719 Q29.8594,31.5938 29.1797,32.5313 Q28.5,33.4688 28.5,34.7578 L28.5,36.1406 Q28.5,37.6875 29.7656,38.7188 Q31.0313,39.75 33.2813,39.75 Q34.6172,39.75 35.5547,39.4453 Q36.0938,39.2813 36.7031,38.7422 Q37.1016,38.4375 37.3125,38.3438 Q37.5234,38.25 37.7813,38.25 Q38.2734,38.25 38.625,38.6484 Q39,39.0234 39,39.5625 Q39,40.0781 38.4844,40.6875 Q37.7344,41.5781 36.5391,42.0703 Q34.9688,42.75 33.0469,42.75 Q30.7969,42.75 28.9922,41.8594 Q27.5391,41.1563 26.5078,39.6328 Q25.5,38.1094 25.5,36.3047 L25.5,34.6641 Q25.5,32.7891 26.3906,31.1484 Q27.3047,29.5078 28.875,28.6406 Q30.4688,27.75 32.25,27.75 Q33.3281,27.75 34.2656,28.125 Q35.2031,28.5 36,29.25 Z " fill="#000000"/><text fill="#000000" font-family="sans-serif" font-size="18" lengthAdjust="spacing" textLength="79.5" x="54" y="41.8652">Company</text><line style="stroke:#A80036;stroke-width:2.25;" x1="12" x2="136.5" y1="58.5" y2="58.5"/><text fill="#000000" font-family="sans-serif" font-size="16.5" lengthAdjust="spacing" textLength="88.5" x="19.5" y="81.6284">-designation</text><!--MD5=[6b613c47955d26261bf1ca67a1458210]
class NhsApi--><rect codeLine="8" fill="#FEFECE" filter="url(#f1abj4jk6c1uf3)" height="60" id="NhsApi" style="stroke:#A80036;stroke-width:2.25;" width="108" x="284.25" y="21"/><ellipse cx="306.75" cy="45" fill="#ADD1B2" rx="16.5" ry="16.5" style="stroke:#A80036;stroke-width:1.5;"/><path d="M309.75,39.75 Q310.0547,39 310.4063,38.625 Q310.7578,38.25 311.1563,38.25 Q311.8594,38.25 312.3047,38.6719 Q312.75,39.0938 312.75,40.0781 L312.75,42.4219 Q312.75,43.4063 312.3281,43.8281 Q311.9063,44.25 311.25,44.25 Q310.6641,44.25 310.2891,43.9922 Q309.9141,43.7344 309.75,43.0547 Q309.6797,42.5859 309.4219,42.3281 Q308.9531,41.8359 308.1094,41.5547 Q307.2656,41.25 306.4219,41.25 Q305.3672,41.25 304.4766,41.6719 Q303.6094,42.0938 302.9297,43.0313 Q302.25,43.9688 302.25,45.2578 L302.25,46.6406 Q302.25,48.1875 303.5156,49.2188 Q304.7813,50.25 307.0313,50.25 Q308.3672,50.25 309.3047,49.9453 Q309.8438,49.7813 310.4531,49.2422 Q310.8516,48.9375 311.0625,48.8438 Q311.2734,48.75 311.5313,48.75 Q312.0234,48.75 312.375,49.1484 Q312.75,49.5234 312.75,50.0625 Q312.75,50.5781 312.2344,51.1875 Q311.4844,52.0781 310.2891,52.5703 Q308.7188,53.25 306.7969,53.25 Q304.5469,53.25 302.7422,52.3594 Q301.2891,51.6563 300.2578,50.1328 Q299.25,48.6094 299.25,46.8047 L299.25,45.1641 Q299.25,43.2891 300.1406,41.6484 Q301.0547,40.0078 302.625,39.1406 Q304.2188,38.25 306,38.25 Q307.0781,38.25 308.0156,38.625 Q308.9531,39 309.75,39.75 Z " fill="#000000"/><text fill="#000000" font-family="sans-serif" font-size="18" lengthAdjust="spacing" textLength="60" x="327.75" y="52.3652">NhsApi</text><line style="stroke:#A80036;stroke-width:2.25;" x1="285.75" x2="390.75" y1="69" y2="69"/><!--MD5=[8ccb22436dd277bde4e48928c0f3fb40]
class Covid19Report--><rect codeLine="11" fill="#FEFECE" filter="url(#f1abj4jk6c1uf3)" height="60" id="Covid19Report" style="stroke:#A80036;stroke-width:2.25;" width="171" x="542.25" y="21"/><ellipse cx="564.75" cy="45" fill="#ADD1B2" rx="16.5" ry="16.5" style="stroke:#A80036;stroke-width:1.5;"/><path d="M567.75,39.75 Q568.0547,39 568.4063,38.625 Q568.7578,38.25 569.1563,38.25 Q569.8594,38.25 570.3047,38.6719 Q570.75,39.0938 570.75,40.0781 L570.75,42.4219 Q570.75,43.4063 570.3281,43.8281 Q569.9063,44.25 569.25,44.25 Q568.6641,44.25 568.2891,43.9922 Q567.9141,43.7344 567.75,43.0547 Q567.6797,42.5859 567.4219,42.3281 Q566.9531,41.8359 566.1094,41.5547 Q565.2656,41.25 564.4219,41.25 Q563.3672,41.25 562.4766,41.6719 Q561.6094,42.0938 560.9297,43.0313 Q560.25,43.9688 560.25,45.2578 L560.25,46.6406 Q560.25,48.1875 561.5156,49.2188 Q562.7813,50.25 565.0313,50.25 Q566.3672,50.25 567.3047,49.9453 Q567.8438,49.7813 568.4531,49.2422 Q568.8516,48.9375 569.0625,48.8438 Q569.2734,48.75 569.5313,48.75 Q570.0234,48.75 570.375,49.1484 Q570.75,49.5234 570.75,50.0625 Q570.75,50.5781 570.2344,51.1875 Q569.4844,52.0781 568.2891,52.5703 Q566.7188,53.25 564.7969,53.25 Q562.5469,53.25 560.7422,52.3594 Q559.2891,51.6563 558.2578,50.1328 Q557.25,48.6094 557.25,46.8047 L557.25,45.1641 Q557.25,43.2891 558.1406,41.6484 Q559.0547,40.0078 560.625,39.1406 Q562.2188,38.25 564,38.25 Q565.0781,38.25 566.0156,38.625 Q566.9531,39 567.75,39.75 Z " fill="#000000"/><text fill="#000000" font-family="sans-serif" font-size="18" lengthAdjust="spacing" textLength="123" x="585.75" y="52.3652">Covid19Report</text><line style="stroke:#A80036;stroke-width:2.25;" x1="543.75" x2="711.75" y1="69" y2="69"/><!--MD5=[b845843cb17016f6a8b81b5b15531d2b]
link Company to NhsApi--><path codeLine="14" d="M138.15,51 C180.105,51 234.69,51 276.24,51 " fill="none" id="Company-to-NhsApi" style="stroke:#A80036;stroke-width:1.5;"/><polygon fill="#A80036" points="283.845,51,270.345,45,276.345,51,270.345,57,283.845,51" style="stroke:#A80036;stroke-width:1.5;"/><polygon fill="#000000" points="178.875,33.2637,165.3074,28.8553,165.3074,37.6721,178.875,33.2637" style="stroke:#000000;stroke-width:1.5;"/><text fill="#000000" font-family="sans-serif" font-size="19.5" lengthAdjust="spacing" textLength="72" x="184.875" y="41.2427">resort to</text><text fill="#000000" font-family="sans-serif" font-size="19.5" lengthAdjust="spacing" textLength="10.5" x="150.0352" y="45.2466">1</text><text fill="#000000" font-family="sans-serif" font-size="19.5" lengthAdjust="spacing" textLength="10.5" x="261.6004" y="44.9321">1</text><!--MD5=[6df85c8f6f06e28e4cf84af3a1c2ffa6]
link NhsApi to Covid19Report--><path codeLine="15" d="M392.7,51 C432.495,51 487.44,51 534.21,51 " fill="none" id="NhsApi-to-Covid19Report" style="stroke:#A80036;stroke-width:1.5;"/><polygon fill="#A80036" points="542.235,51,528.735,45,534.735,51,528.735,57,542.235,51" style="stroke:#A80036;stroke-width:1.5;"/><polygon fill="#000000" points="433.5,33.2637,419.9324,28.8553,419.9324,37.6721,433.5,33.2637" style="stroke:#000000;stroke-width:1.5;"/><text fill="#000000" font-family="sans-serif" font-size="19.5" lengthAdjust="spacing" textLength="75" x="439.5" y="41.2427">send the</text><text fill="#000000" font-family="sans-serif" font-size="19.5" lengthAdjust="spacing" textLength="10.5" x="404.0803" y="45.0054">1</text><text fill="#000000" font-family="sans-serif" font-size="19.5" lengthAdjust="spacing" textLength="7.5" x="522.74" y="45.6656">*</text><!--MD5=[0ca9f2b5c5b6a3298ee96c18453362d6]
@startuml
hide methods
skinparam classAttributeIconSize 0

class Company{
-designation
}

class NhsApi{
}

class Covid19Report{
}

Company "1" -> "1" NhsApi : resort to >
NhsApi "1" -> "*" Covid19Report : send the >

@enduml

PlantUML version 1.2021.7(Sun May 23 13:40:07 BST 2021)
(GPL source distribution)
Java Runtime: OpenJDK Runtime Environment
JVM: Dynamic Code Evolution 64-Bit Server VM
Default Encoding: Cp1252
Language: pt
Country: PT
--></g></svg>