<?xml version="1.0" encoding="UTF-8" standalone="no"?><svg xmlns="http://www.w3.org/2000/svg" xmlns:xlink="http://www.w3.org/1999/xlink" contentScriptType="application/ecmascript" contentStyleType="text/css" height="520.5px" preserveAspectRatio="none" style="width:3168px;height:520px;background:#FFFFFF;" version="1.1" viewBox="0 0 3168 520" width="3168px" zoomAndPan="magnify"><defs><filter height="300%" id="f1q1xmsvssrf9d" width="300%" x="-1" y="-1"><feGaussianBlur result="blurOut" stdDeviation="3.0"/><feColorMatrix in="blurOut" result="blurOut2" type="matrix" values="0 0 0 0 0 0 0 0 0 0 0 0 0 0 0 0 0 0 .4 0"/><feOffset dx="6.0" dy="6.0" in="blurOut2" result="blurOut3"/><feBlend in="SourceGraphic" in2="blurOut3" mode="normal"/></filter></defs><g><!--MD5=[02e4b9b7573f1156f41e60aa5b4e25a4]
class Company--><rect codeLine="3" fill="#FEFECE" filter="url(#f1q1xmsvssrf9d)" height="134.2617" id="Company" style="stroke:#A80036;stroke-width:2.25;" width="1311" x="10.5" y="93"/><ellipse cx="619.875" cy="117" fill="#ADD1B2" rx="16.5" ry="16.5" style="stroke:#A80036;stroke-width:1.5;"/><path d="M622.875,111.75 Q623.1797,111 623.5313,110.625 Q623.8828,110.25 624.2813,110.25 Q624.9844,110.25 625.4297,110.6719 Q625.875,111.0938 625.875,112.0781 L625.875,114.4219 Q625.875,115.4063 625.4531,115.8281 Q625.0313,116.25 624.375,116.25 Q623.7891,116.25 623.4141,115.9922 Q623.0391,115.7344 622.875,115.0547 Q622.8047,114.5859 622.5469,114.3281 Q622.0781,113.8359 621.2344,113.5547 Q620.3906,113.25 619.5469,113.25 Q618.4922,113.25 617.6016,113.6719 Q616.7344,114.0938 616.0547,115.0313 Q615.375,115.9688 615.375,117.2578 L615.375,118.6406 Q615.375,120.1875 616.6406,121.2188 Q617.9063,122.25 620.1563,122.25 Q621.4922,122.25 622.4297,121.9453 Q622.9688,121.7813 623.5781,121.2422 Q623.9766,120.9375 624.1875,120.8438 Q624.3984,120.75 624.6563,120.75 Q625.1484,120.75 625.5,121.1484 Q625.875,121.5234 625.875,122.0625 Q625.875,122.5781 625.3594,123.1875 Q624.6094,124.0781 623.4141,124.5703 Q621.8438,125.25 619.9219,125.25 Q617.6719,125.25 615.8672,124.3594 Q614.4141,123.6563 613.3828,122.1328 Q612.375,120.6094 612.375,118.8047 L612.375,117.1641 Q612.375,115.2891 613.2656,113.6484 Q614.1797,112.0078 615.75,111.1406 Q617.3438,110.25 619.125,110.25 Q620.2031,110.25 621.1406,110.625 Q622.0781,111 622.875,111.75 Z " fill="#000000"/><text fill="#000000" font-family="sans-serif" font-size="18" lengthAdjust="spacing" textLength="79.5" x="650.625" y="124.3652">Company</text><line style="stroke:#A80036;stroke-width:2.25;" x1="12" x2="1320" y1="141" y2="141"/><line style="stroke:#A80036;stroke-width:2.25;" x1="12" x2="1320" y1="153" y2="153"/><text fill="#000000" font-family="sans-serif" font-size="16.5" lengthAdjust="spacing" textLength="1035" x="19.5" y="176.1284">+createCovid19ReportSimple(xInterval, yInterval, xHistoricalPoints,yHistoricalPoints, confidenceLevel,significanceLevel,currentDay,typeOfData)</text><text fill="#000000" font-family="sans-serif" font-size="16.5" lengthAdjust="spacing" textLength="1293" x="19.5" y="196.8823">+createCovid19ReportMultiple(x1Interval, x2Interval, yInterval, x1HistoricalPoints, x2HistoricalPoints, yHistoricalPoints, confidenceLevel, significanceLevel, currentDay, typeOfData)</text><text fill="#000000" font-family="sans-serif" font-size="16.5" lengthAdjust="spacing" textLength="207" x="19.5" y="217.6362">+sendCovid19Report(report)</text><!--MD5=[3f1015b48806b11781d2c0e301086fcc]
class SendAutomaticallyCovid19Report()--><rect codeLine="9" fill="#FEFECE" filter="url(#f1q1xmsvssrf9d)" height="155.0156" id="SendAutomaticallyCovid19Report()" style="stroke:#A80036;stroke-width:2.25;" width="1077" x="1374" y="83.25"/><ellipse cx="1762.875" cy="107.25" fill="#ADD1B2" rx="16.5" ry="16.5" style="stroke:#A80036;stroke-width:1.5;"/><path d="M1765.875,102 Q1766.1797,101.25 1766.5313,100.875 Q1766.8828,100.5 1767.2813,100.5 Q1767.9844,100.5 1768.4297,100.9219 Q1768.875,101.3438 1768.875,102.3281 L1768.875,104.6719 Q1768.875,105.6563 1768.4531,106.0781 Q1768.0313,106.5 1767.375,106.5 Q1766.7891,106.5 1766.4141,106.2422 Q1766.0391,105.9844 1765.875,105.3047 Q1765.8047,104.8359 1765.5469,104.5781 Q1765.0781,104.0859 1764.2344,103.8047 Q1763.3906,103.5 1762.5469,103.5 Q1761.4922,103.5 1760.6016,103.9219 Q1759.7344,104.3438 1759.0547,105.2813 Q1758.375,106.2188 1758.375,107.5078 L1758.375,108.8906 Q1758.375,110.4375 1759.6406,111.4688 Q1760.9063,112.5 1763.1563,112.5 Q1764.4922,112.5 1765.4297,112.1953 Q1765.9688,112.0313 1766.5781,111.4922 Q1766.9766,111.1875 1767.1875,111.0938 Q1767.3984,111 1767.6563,111 Q1768.1484,111 1768.5,111.3984 Q1768.875,111.7734 1768.875,112.3125 Q1768.875,112.8281 1768.3594,113.4375 Q1767.6094,114.3281 1766.4141,114.8203 Q1764.8438,115.5 1762.9219,115.5 Q1760.6719,115.5 1758.8672,114.6094 Q1757.4141,113.9063 1756.3828,112.3828 Q1755.375,110.8594 1755.375,109.0547 L1755.375,107.4141 Q1755.375,105.5391 1756.2656,103.8984 Q1757.1797,102.2578 1758.75,101.3906 Q1760.3438,100.5 1762.125,100.5 Q1763.2031,100.5 1764.1406,100.875 Q1765.0781,101.25 1765.875,102 Z " fill="#000000"/><text fill="#000000" font-family="sans-serif" font-size="18" lengthAdjust="spacing" textLength="286.5" x="1793.625" y="114.6152">SendAutomaticallyCovid19Report()</text><line style="stroke:#A80036;stroke-width:2.25;" x1="1375.5" x2="2449.5" y1="131.25" y2="131.25"/><line style="stroke:#A80036;stroke-width:2.25;" x1="1375.5" x2="2449.5" y1="143.25" y2="143.25"/><text fill="#000000" font-family="sans-serif" font-size="16.5" lengthAdjust="spacing" textLength="261" x="1383" y="166.3784">+SendAutomaticallyCovid19Report()</text><text fill="#000000" font-family="sans-serif" font-size="16.5" lengthAdjust="spacing" textLength="1059" x="1383" y="187.1323">+createCovid19ReportSimple(initialDate, endDate,currentDay, historicalPoints, typeOfData,independentVariable,significanceLevel,confidenceLevel)</text><text fill="#000000" font-family="sans-serif" font-size="16.5" lengthAdjust="spacing" textLength="907.5" x="1383" y="207.8862">+createCovid19ReportMultiple(initialDate, endDate, currentDay,historicalPoints,typeOfData,significanceLevel,confidenceLevel)</text><text fill="#000000" font-family="sans-serif" font-size="16.5" lengthAdjust="spacing" textLength="210" x="1383" y="228.6401">+readFromConfigurationFile()</text><!--MD5=[327b627a2c9fd9c7b87841882faf4055]
class TestStore()--><rect codeLine="16" fill="#FEFECE" filter="url(#f1q1xmsvssrf9d)" height="300.293" id="TestStore()" style="stroke:#A80036;stroke-width:2.25;" width="643.5" x="2504.25" y="10.5"/><ellipse cx="2773.875" cy="34.5" fill="#ADD1B2" rx="16.5" ry="16.5" style="stroke:#A80036;stroke-width:1.5;"/><path d="M2776.875,29.25 Q2777.1797,28.5 2777.5313,28.125 Q2777.8828,27.75 2778.2813,27.75 Q2778.9844,27.75 2779.4297,28.1719 Q2779.875,28.5938 2779.875,29.5781 L2779.875,31.9219 Q2779.875,32.9063 2779.4531,33.3281 Q2779.0313,33.75 2778.375,33.75 Q2777.7891,33.75 2777.4141,33.4922 Q2777.0391,33.2344 2776.875,32.5547 Q2776.8047,32.0859 2776.5469,31.8281 Q2776.0781,31.3359 2775.2344,31.0547 Q2774.3906,30.75 2773.5469,30.75 Q2772.4922,30.75 2771.6016,31.1719 Q2770.7344,31.5938 2770.0547,32.5313 Q2769.375,33.4688 2769.375,34.7578 L2769.375,36.1406 Q2769.375,37.6875 2770.6406,38.7188 Q2771.9063,39.75 2774.1563,39.75 Q2775.4922,39.75 2776.4297,39.4453 Q2776.9688,39.2813 2777.5781,38.7422 Q2777.9766,38.4375 2778.1875,38.3438 Q2778.3984,38.25 2778.6563,38.25 Q2779.1484,38.25 2779.5,38.6484 Q2779.875,39.0234 2779.875,39.5625 Q2779.875,40.0781 2779.3594,40.6875 Q2778.6094,41.5781 2777.4141,42.0703 Q2775.8438,42.75 2773.9219,42.75 Q2771.6719,42.75 2769.8672,41.8594 Q2768.4141,41.1563 2767.3828,39.6328 Q2766.375,38.1094 2766.375,36.3047 L2766.375,34.6641 Q2766.375,32.7891 2767.2656,31.1484 Q2768.1797,29.5078 2769.75,28.6406 Q2771.3438,27.75 2773.125,27.75 Q2774.2031,27.75 2775.1406,28.125 Q2776.0781,28.5 2776.875,29.25 Z " fill="#000000"/><text fill="#000000" font-family="sans-serif" font-size="18" lengthAdjust="spacing" textLength="91.5" x="2804.625" y="41.8652">TestStore()</text><line style="stroke:#A80036;stroke-width:2.25;" x1="2505.75" x2="3146.25" y1="58.5" y2="58.5"/><line style="stroke:#A80036;stroke-width:2.25;" x1="2505.75" x2="3146.25" y1="70.5" y2="70.5"/><text fill="#000000" font-family="sans-serif" font-size="16.5" lengthAdjust="spacing" textLength="289.5" x="2513.25" y="93.6284">+getIntervalTestList(initialDate, endDate)</text><text fill="#000000" font-family="sans-serif" font-size="16.5" lengthAdjust="spacing" textLength="355.5" x="2513.25" y="114.3823">+getCovidTestsLstByInterval(initialDate, endDate)</text><text fill="#000000" font-family="sans-serif" font-size="16.5" lengthAdjust="spacing" textLength="507" x="2513.25" y="135.1362">+getNumberOfPositiveCovidTestsForDayInInterval(initialDate, endDate)</text><text fill="#000000" font-family="sans-serif" font-size="16.5" lengthAdjust="spacing" textLength="613.5" x="2513.25" y="155.8901">+getNumberOfPositiveCovidTestsForDayHistoricalPoints(currentDay, historicalPoints)</text><text fill="#000000" font-family="sans-serif" font-size="16.5" lengthAdjust="spacing" textLength="486" x="2513.25" y="176.644">+getNumberOfTestsPerformedForDayInInterval(initialDate, endDate)</text><text fill="#000000" font-family="sans-serif" font-size="16.5" lengthAdjust="spacing" textLength="592.5" x="2513.25" y="197.3979">+getNumberOfTestsPerformedForDayHistoricalPoints(currentDay, historicalPoints)</text><text fill="#000000" font-family="sans-serif" font-size="16.5" lengthAdjust="spacing" textLength="366" x="2513.25" y="218.1519">+getMeanAgeForDayInInterval(initialDate, endDate)</text><text fill="#000000" font-family="sans-serif" font-size="16.5" lengthAdjust="spacing" textLength="472.5" x="2513.25" y="238.9058">+getMeanAgeForDayHistoricalPoints(currentDay, historicalPoints)</text><text fill="#000000" font-family="sans-serif" font-size="16.5" lengthAdjust="spacing" textLength="600" x="2513.25" y="259.6597">+getNumberOfTestsPerformedForWeekHistoricalPoints(currentDay,historicalPoints)</text><text fill="#000000" font-family="sans-serif" font-size="16.5" lengthAdjust="spacing" textLength="625.5" x="2513.25" y="280.4136">+getNumberOfPositiveCovidTestsForWeekHistoricalPoints(currentDay, historicalPoints)</text><text fill="#000000" font-family="sans-serif" font-size="16.5" lengthAdjust="spacing" textLength="480" x="2513.25" y="301.1675">+getMeanAgeForWeekHistoricalPoints(currentDay,historicalPoints)</text><!--MD5=[96e8e8b5cc86e7518d31d20cc25544ab]
class SendAutomaticallyCovid19Report--><rect fill="#FEFECE" filter="url(#f1q1xmsvssrf9d)" height="72" id="SendAutomaticallyCovid19Report" style="stroke:#A80036;stroke-width:2.25;" width="322.5" x="366.75" y="427.5"/><ellipse cx="389.25" cy="451.5" fill="#ADD1B2" rx="16.5" ry="16.5" style="stroke:#A80036;stroke-width:1.5;"/><path d="M392.25,446.25 Q392.5547,445.5 392.9063,445.125 Q393.2578,444.75 393.6563,444.75 Q394.3594,444.75 394.8047,445.1719 Q395.25,445.5938 395.25,446.5781 L395.25,448.9219 Q395.25,449.9063 394.8281,450.3281 Q394.4063,450.75 393.75,450.75 Q393.1641,450.75 392.7891,450.4922 Q392.4141,450.2344 392.25,449.5547 Q392.1797,449.0859 391.9219,448.8281 Q391.4531,448.3359 390.6094,448.0547 Q389.7656,447.75 388.9219,447.75 Q387.8672,447.75 386.9766,448.1719 Q386.1094,448.5938 385.4297,449.5313 Q384.75,450.4688 384.75,451.7578 L384.75,453.1406 Q384.75,454.6875 386.0156,455.7188 Q387.2813,456.75 389.5313,456.75 Q390.8672,456.75 391.8047,456.4453 Q392.3438,456.2813 392.9531,455.7422 Q393.3516,455.4375 393.5625,455.3438 Q393.7734,455.25 394.0313,455.25 Q394.5234,455.25 394.875,455.6484 Q395.25,456.0234 395.25,456.5625 Q395.25,457.0781 394.7344,457.6875 Q393.9844,458.5781 392.7891,459.0703 Q391.2188,459.75 389.2969,459.75 Q387.0469,459.75 385.2422,458.8594 Q383.7891,458.1563 382.7578,456.6328 Q381.75,455.1094 381.75,453.3047 L381.75,451.6641 Q381.75,449.7891 382.6406,448.1484 Q383.5547,446.5078 385.125,445.6406 Q386.7188,444.75 388.5,444.75 Q389.5781,444.75 390.5156,445.125 Q391.4531,445.5 392.25,446.25 Z " fill="#000000"/><text fill="#000000" font-family="sans-serif" font-size="18" lengthAdjust="spacing" textLength="274.5" x="410.25" y="458.8652">SendAutomaticallyCovid19Report</text><line style="stroke:#A80036;stroke-width:2.25;" x1="368.25" x2="687.75" y1="475.5" y2="475.5"/><line style="stroke:#A80036;stroke-width:2.25;" x1="368.25" x2="687.75" y1="487.5" y2="487.5"/><!--MD5=[0f6f7964b844a64b0496af0dda7914bd]
class TestStore--><rect fill="#FEFECE" filter="url(#f1q1xmsvssrf9d)" height="72" id="TestStore" style="stroke:#A80036;stroke-width:2.25;" width="127.5" x="741.75" y="427.5"/><ellipse cx="764.25" cy="451.5" fill="#ADD1B2" rx="16.5" ry="16.5" style="stroke:#A80036;stroke-width:1.5;"/><path d="M767.25,446.25 Q767.5547,445.5 767.9063,445.125 Q768.2578,444.75 768.6563,444.75 Q769.3594,444.75 769.8047,445.1719 Q770.25,445.5938 770.25,446.5781 L770.25,448.9219 Q770.25,449.9063 769.8281,450.3281 Q769.4063,450.75 768.75,450.75 Q768.1641,450.75 767.7891,450.4922 Q767.4141,450.2344 767.25,449.5547 Q767.1797,449.0859 766.9219,448.8281 Q766.4531,448.3359 765.6094,448.0547 Q764.7656,447.75 763.9219,447.75 Q762.8672,447.75 761.9766,448.1719 Q761.1094,448.5938 760.4297,449.5313 Q759.75,450.4688 759.75,451.7578 L759.75,453.1406 Q759.75,454.6875 761.0156,455.7188 Q762.2813,456.75 764.5313,456.75 Q765.8672,456.75 766.8047,456.4453 Q767.3438,456.2813 767.9531,455.7422 Q768.3516,455.4375 768.5625,455.3438 Q768.7734,455.25 769.0313,455.25 Q769.5234,455.25 769.875,455.6484 Q770.25,456.0234 770.25,456.5625 Q770.25,457.0781 769.7344,457.6875 Q768.9844,458.5781 767.7891,459.0703 Q766.2188,459.75 764.2969,459.75 Q762.0469,459.75 760.2422,458.8594 Q758.7891,458.1563 757.7578,456.6328 Q756.75,455.1094 756.75,453.3047 L756.75,451.6641 Q756.75,449.7891 757.6406,448.1484 Q758.5547,446.5078 760.125,445.6406 Q761.7188,444.75 763.5,444.75 Q764.5781,444.75 765.5156,445.125 Q766.4531,445.5 767.25,446.25 Z " fill="#000000"/><text fill="#000000" font-family="sans-serif" font-size="18" lengthAdjust="spacing" textLength="79.5" x="785.25" y="458.8652">TestStore</text><line style="stroke:#A80036;stroke-width:2.25;" x1="743.25" x2="867.75" y1="475.5" y2="475.5"/><line style="stroke:#A80036;stroke-width:2.25;" x1="743.25" x2="867.75" y1="487.5" y2="487.5"/><!--MD5=[e33a7418716726e6bf7aa1d12c8ddbb4]
link Company to SendAutomaticallyCovid19Report--><path codeLine="32" d="M635.37,228.585 C608.43,287.16 570.045,370.605 547.215,420.24 " fill="none" id="Company-to-SendAutomaticallyCovid19Report" style="stroke:#A80036;stroke-width:1.5;stroke-dasharray:7.0,7.0;"/><polygon fill="#A80036" points="543.96,427.305,555.0456,417.5398,547.0893,420.489,544.14,412.5328,543.96,427.305" style="stroke:#A80036;stroke-width:1.5;"/><!--MD5=[7f6cf7f175eae0af66201860de5de971]
link Company to TestStore--><path codeLine="33" d="M696.96,228.585 C724.2,287.16 763.005,370.605 786.075,420.24 " fill="none" id="Company-to-TestStore" style="stroke:#A80036;stroke-width:1.5;"/><polygon fill="#A80036" points="789.375,427.305,789.1184,412.5339,786.2104,420.5054,778.239,417.5973,789.375,427.305" style="stroke:#A80036;stroke-width:1.5;"/><text fill="#000000" font-family="sans-serif" font-size="19.5" lengthAdjust="spacing" textLength="42" x="769.5" y="377.2427">uses</text><text fill="#000000" font-family="sans-serif" font-size="19.5" lengthAdjust="spacing" textLength="10.5" x="689.9148" y="259.6741">1</text><text fill="#000000" font-family="sans-serif" font-size="19.5" lengthAdjust="spacing" textLength="10.5" x="773.3977" y="411.2653">1</text><!--MD5=[46eaa4eda1596205efe86d0b1c4eb5f2]
@startuml
skinparam classAttributeIconSize 0

class Company {
+createCovid19ReportSimple(xInterval, yInterval, xHistoricalPoints,yHistoricalPoints, confidenceLevel,significanceLevel,currentDay,typeOfData)
+createCovid19ReportMultiple(x1Interval, x2Interval, yInterval, x1HistoricalPoints, x2HistoricalPoints, yHistoricalPoints, confidenceLevel, significanceLevel, currentDay, typeOfData)
+sendCovid19Report(report)
}

class SendAutomaticallyCovid19Report() {
+SendAutomaticallyCovid19Report()
+createCovid19ReportSimple(initialDate, endDate,currentDay, historicalPoints, typeOfData,independentVariable,significanceLevel,confidenceLevel)
+createCovid19ReportMultiple(initialDate, endDate, currentDay,historicalPoints,typeOfData,significanceLevel,confidenceLevel)
+readFromConfigurationFile()
}

class TestStore(){
+getIntervalTestList(initialDate, endDate)
+getCovidTestsLstByInterval(initialDate, endDate)
+getNumberOfPositiveCovidTestsForDayInInterval(initialDate, endDate)
+getNumberOfPositiveCovidTestsForDayHistoricalPoints(currentDay, historicalPoints)
+getNumberOfTestsPerformedForDayInInterval(initialDate, endDate)
+getNumberOfTestsPerformedForDayHistoricalPoints(currentDay, historicalPoints)
+getMeanAgeForDayInInterval(initialDate, endDate)
+getMeanAgeForDayHistoricalPoints(currentDay, historicalPoints)
+getNumberOfTestsPerformedForWeekHistoricalPoints(currentDay,historicalPoints)
+getNumberOfPositiveCovidTestsForWeekHistoricalPoints(currentDay, historicalPoints)
+getMeanAgeForWeekHistoricalPoints(currentDay,historicalPoints)

}


Company..>SendAutomaticallyCovid19Report
Company "1"- ->"1" TestStore : uses
@enduml

PlantUML version 1.2021.7(Sun May 23 13:40:07 BST 2021)
(GPL source distribution)
Java Runtime: OpenJDK Runtime Environment
JVM: Dynamic Code Evolution 64-Bit Server VM
Default Encoding: Cp1252
Language: pt
Country: PT
--></g></svg>