<?xml version="1.0" encoding="UTF-8" standalone="no"?><svg xmlns="http://www.w3.org/2000/svg" xmlns:xlink="http://www.w3.org/1999/xlink" contentScriptType="application/ecmascript" contentStyleType="text/css" height="347px" preserveAspectRatio="none" style="width:2112px;height:347px;" version="1.1" viewBox="0 0 2112 347" width="2112px" zoomAndPan="magnify"><defs><filter height="300%" id="f1q1xmsvssrf9d" width="300%" x="-1" y="-1"><feGaussianBlur result="blurOut" stdDeviation="2.0"/><feColorMatrix in="blurOut" result="blurOut2" type="matrix" values="0 0 0 0 0 0 0 0 0 0 0 0 0 0 0 0 0 0 .4 0"/><feOffset dx="4.0" dy="4.0" in="blurOut2" result="blurOut3"/><feBlend in="SourceGraphic" in2="blurOut3" mode="normal"/></filter></defs><g><!--MD5=[02e4b9b7573f1156f41e60aa5b4e25a4]
class Company--><rect codeLine="3" fill="#FEFECE" filter="url(#f1q1xmsvssrf9d)" height="89.5078" id="Company" style="stroke:#A80036;stroke-width:1.5;" width="874" x="7" y="62"/><ellipse cx="413.25" cy="78" fill="#ADD1B2" rx="11" ry="11" style="stroke:#A80036;stroke-width:1.0;"/><path d="M415.25,74.5 Q415.4531,74 415.6875,73.75 Q415.9219,73.5 416.1875,73.5 Q416.6563,73.5 416.9531,73.7813 Q417.25,74.0625 417.25,74.7188 L417.25,76.2813 Q417.25,76.9375 416.9688,77.2188 Q416.6875,77.5 416.25,77.5 Q415.8594,77.5 415.6094,77.3281 Q415.3594,77.1563 415.25,76.7031 Q415.2031,76.3906 415.0313,76.2188 Q414.7188,75.8906 414.1563,75.7031 Q413.5938,75.5 413.0313,75.5 Q412.3281,75.5 411.7344,75.7813 Q411.1563,76.0625 410.7031,76.6875 Q410.25,77.3125 410.25,78.1719 L410.25,79.0938 Q410.25,80.125 411.0938,80.8125 Q411.9375,81.5 413.4375,81.5 Q414.3281,81.5 414.9531,81.2969 Q415.3125,81.1875 415.7188,80.8281 Q415.9844,80.625 416.125,80.5625 Q416.2656,80.5 416.4375,80.5 Q416.7656,80.5 417,80.7656 Q417.25,81.0156 417.25,81.375 Q417.25,81.7188 416.9063,82.125 Q416.4063,82.7188 415.6094,83.0469 Q414.5625,83.5 413.2813,83.5 Q411.7813,83.5 410.5781,82.9063 Q409.6094,82.4375 408.9219,81.4219 Q408.25,80.4063 408.25,79.2031 L408.25,78.1094 Q408.25,76.8594 408.8438,75.7656 Q409.4531,74.6719 410.5,74.0938 Q411.5625,73.5 412.75,73.5 Q413.4688,73.5 414.0938,73.75 Q414.7188,74 415.25,74.5 Z " fill="#000000"/><text fill="#000000" font-family="sans-serif" font-size="12" lengthAdjust="spacing" textLength="53" x="433.75" y="82.9102">Company</text><line style="stroke:#A80036;stroke-width:1.5;" x1="8" x2="880" y1="94" y2="94"/><line style="stroke:#A80036;stroke-width:1.5;" x1="8" x2="880" y1="102" y2="102"/><text fill="#000000" font-family="sans-serif" font-size="11" lengthAdjust="spacing" textLength="690" x="13" y="117.4189">+createCovid19ReportSimple(xInterval, yInterval, xHistoricalPoints,yHistoricalPoints, confidenceLevel,significanceLevel,currentDay,typeOfData)</text><text fill="#000000" font-family="sans-serif" font-size="11" lengthAdjust="spacing" textLength="862" x="13" y="131.2549">+createCovid19ReportMultiple(x1Interval, x2Interval, yInterval, x1HistoricalPoints, x2HistoricalPoints, yHistoricalPoints, confidenceLevel, significanceLevel, currentDay, typeOfData)</text><text fill="#000000" font-family="sans-serif" font-size="11" lengthAdjust="spacing" textLength="138" x="13" y="145.0908">+sendCovid19Report(report)</text><!--MD5=[3f1015b48806b11781d2c0e301086fcc]
class SendAutomaticallyCovid19Report()--><rect codeLine="9" fill="#FEFECE" filter="url(#f1q1xmsvssrf9d)" height="103.3438" id="SendAutomaticallyCovid19Report()" style="stroke:#A80036;stroke-width:1.5;" width="718" x="916" y="55.5"/><ellipse cx="1175.25" cy="71.5" fill="#ADD1B2" rx="11" ry="11" style="stroke:#A80036;stroke-width:1.0;"/><path d="M1177.25,68 Q1177.4531,67.5 1177.6875,67.25 Q1177.9219,67 1178.1875,67 Q1178.6563,67 1178.9531,67.2813 Q1179.25,67.5625 1179.25,68.2188 L1179.25,69.7813 Q1179.25,70.4375 1178.9688,70.7188 Q1178.6875,71 1178.25,71 Q1177.8594,71 1177.6094,70.8281 Q1177.3594,70.6563 1177.25,70.2031 Q1177.2031,69.8906 1177.0313,69.7188 Q1176.7188,69.3906 1176.1563,69.2031 Q1175.5938,69 1175.0313,69 Q1174.3281,69 1173.7344,69.2813 Q1173.1563,69.5625 1172.7031,70.1875 Q1172.25,70.8125 1172.25,71.6719 L1172.25,72.5938 Q1172.25,73.625 1173.0938,74.3125 Q1173.9375,75 1175.4375,75 Q1176.3281,75 1176.9531,74.7969 Q1177.3125,74.6875 1177.7188,74.3281 Q1177.9844,74.125 1178.125,74.0625 Q1178.2656,74 1178.4375,74 Q1178.7656,74 1179,74.2656 Q1179.25,74.5156 1179.25,74.875 Q1179.25,75.2188 1178.9063,75.625 Q1178.4063,76.2188 1177.6094,76.5469 Q1176.5625,77 1175.2813,77 Q1173.7813,77 1172.5781,76.4063 Q1171.6094,75.9375 1170.9219,74.9219 Q1170.25,73.9063 1170.25,72.7031 L1170.25,71.6094 Q1170.25,70.3594 1170.8438,69.2656 Q1171.4531,68.1719 1172.5,67.5938 Q1173.5625,67 1174.75,67 Q1175.4688,67 1176.0938,67.25 Q1176.7188,67.5 1177.25,68 Z " fill="#000000"/><text fill="#000000" font-family="sans-serif" font-size="12" lengthAdjust="spacing" textLength="191" x="1195.75" y="76.4102">SendAutomaticallyCovid19Report()</text><line style="stroke:#A80036;stroke-width:1.5;" x1="917" x2="1633" y1="87.5" y2="87.5"/><line style="stroke:#A80036;stroke-width:1.5;" x1="917" x2="1633" y1="95.5" y2="95.5"/><text fill="#000000" font-family="sans-serif" font-size="11" lengthAdjust="spacing" textLength="174" x="922" y="110.9189">+SendAutomaticallyCovid19Report()</text><text fill="#000000" font-family="sans-serif" font-size="11" lengthAdjust="spacing" textLength="706" x="922" y="124.7549">+createCovid19ReportSimple(initialDate, endDate,currentDay, historicalPoints, typeOfData,independentVariable,significanceLevel,confidenceLevel)</text><text fill="#000000" font-family="sans-serif" font-size="11" lengthAdjust="spacing" textLength="605" x="922" y="138.5908">+createCovid19ReportMultiple(initialDate, endDate, currentDay,historicalPoints,typeOfData,significanceLevel,confidenceLevel)</text><text fill="#000000" font-family="sans-serif" font-size="11" lengthAdjust="spacing" textLength="140" x="922" y="152.4268">+readFromConfigurationFile()</text><!--MD5=[327b627a2c9fd9c7b87841882faf4055]
class TestStore()--><rect codeLine="16" fill="#FEFECE" filter="url(#f1q1xmsvssrf9d)" height="200.1953" id="TestStore()" style="stroke:#A80036;stroke-width:1.5;" width="429" x="1669.5" y="7"/><ellipse cx="1849.25" cy="23" fill="#ADD1B2" rx="11" ry="11" style="stroke:#A80036;stroke-width:1.0;"/><path d="M1851.25,19.5 Q1851.4531,19 1851.6875,18.75 Q1851.9219,18.5 1852.1875,18.5 Q1852.6563,18.5 1852.9531,18.7813 Q1853.25,19.0625 1853.25,19.7188 L1853.25,21.2813 Q1853.25,21.9375 1852.9688,22.2188 Q1852.6875,22.5 1852.25,22.5 Q1851.8594,22.5 1851.6094,22.3281 Q1851.3594,22.1563 1851.25,21.7031 Q1851.2031,21.3906 1851.0313,21.2188 Q1850.7188,20.8906 1850.1563,20.7031 Q1849.5938,20.5 1849.0313,20.5 Q1848.3281,20.5 1847.7344,20.7813 Q1847.1563,21.0625 1846.7031,21.6875 Q1846.25,22.3125 1846.25,23.1719 L1846.25,24.0938 Q1846.25,25.125 1847.0938,25.8125 Q1847.9375,26.5 1849.4375,26.5 Q1850.3281,26.5 1850.9531,26.2969 Q1851.3125,26.1875 1851.7188,25.8281 Q1851.9844,25.625 1852.125,25.5625 Q1852.2656,25.5 1852.4375,25.5 Q1852.7656,25.5 1853,25.7656 Q1853.25,26.0156 1853.25,26.375 Q1853.25,26.7188 1852.9063,27.125 Q1852.4063,27.7188 1851.6094,28.0469 Q1850.5625,28.5 1849.2813,28.5 Q1847.7813,28.5 1846.5781,27.9063 Q1845.6094,27.4375 1844.9219,26.4219 Q1844.25,25.4063 1844.25,24.2031 L1844.25,23.1094 Q1844.25,21.8594 1844.8438,20.7656 Q1845.4531,19.6719 1846.5,19.0938 Q1847.5625,18.5 1848.75,18.5 Q1849.4688,18.5 1850.0938,18.75 Q1850.7188,19 1851.25,19.5 Z " fill="#000000"/><text fill="#000000" font-family="sans-serif" font-size="12" lengthAdjust="spacing" textLength="61" x="1869.75" y="27.9102">TestStore()</text><line style="stroke:#A80036;stroke-width:1.5;" x1="1670.5" x2="2097.5" y1="39" y2="39"/><line style="stroke:#A80036;stroke-width:1.5;" x1="1670.5" x2="2097.5" y1="47" y2="47"/><text fill="#000000" font-family="sans-serif" font-size="11" lengthAdjust="spacing" textLength="193" x="1675.5" y="62.4189">+getIntervalTestList(initialDate, endDate)</text><text fill="#000000" font-family="sans-serif" font-size="11" lengthAdjust="spacing" textLength="237" x="1675.5" y="76.2549">+getCovidTestsLstByInterval(initialDate, endDate)</text><text fill="#000000" font-family="sans-serif" font-size="11" lengthAdjust="spacing" textLength="338" x="1675.5" y="90.0908">+getNumberOfPositiveCovidTestsForDayInInterval(initialDate, endDate)</text><text fill="#000000" font-family="sans-serif" font-size="11" lengthAdjust="spacing" textLength="409" x="1675.5" y="103.9268">+getNumberOfPositiveCovidTestsForDayHistoricalPoints(currentDay, historicalPoints)</text><text fill="#000000" font-family="sans-serif" font-size="11" lengthAdjust="spacing" textLength="324" x="1675.5" y="117.7627">+getNumberOfTestsPerformedForDayInInterval(initialDate, endDate)</text><text fill="#000000" font-family="sans-serif" font-size="11" lengthAdjust="spacing" textLength="395" x="1675.5" y="131.5986">+getNumberOfTestsPerformedForDayHistoricalPoints(currentDay, historicalPoints)</text><text fill="#000000" font-family="sans-serif" font-size="11" lengthAdjust="spacing" textLength="244" x="1675.5" y="145.4346">+getMeanAgeForDayInInterval(initialDate, endDate)</text><text fill="#000000" font-family="sans-serif" font-size="11" lengthAdjust="spacing" textLength="315" x="1675.5" y="159.2705">+getMeanAgeForDayHistoricalPoints(currentDay, historicalPoints)</text><text fill="#000000" font-family="sans-serif" font-size="11" lengthAdjust="spacing" textLength="400" x="1675.5" y="173.1064">+getNumberOfTestsPerformedForWeekHistoricalPoints(currentDay,historicalPoints)</text><text fill="#000000" font-family="sans-serif" font-size="11" lengthAdjust="spacing" textLength="417" x="1675.5" y="186.9424">+getNumberOfPositiveCovidTestsForWeekHistoricalPoints(currentDay, historicalPoints)</text><text fill="#000000" font-family="sans-serif" font-size="11" lengthAdjust="spacing" textLength="320" x="1675.5" y="200.7783">+getMeanAgeForWeekHistoricalPoints(currentDay,historicalPoints)</text><!--MD5=[96e8e8b5cc86e7518d31d20cc25544ab]
class SendAutomaticallyCovid19Report--><rect fill="#FEFECE" filter="url(#f1q1xmsvssrf9d)" height="48" id="SendAutomaticallyCovid19Report" style="stroke:#A80036;stroke-width:1.5;" width="215" x="244.5" y="285"/><ellipse cx="259.5" cy="301" fill="#ADD1B2" rx="11" ry="11" style="stroke:#A80036;stroke-width:1.0;"/><path d="M261.5,297.5 Q261.7031,297 261.9375,296.75 Q262.1719,296.5 262.4375,296.5 Q262.9063,296.5 263.2031,296.7813 Q263.5,297.0625 263.5,297.7188 L263.5,299.2813 Q263.5,299.9375 263.2188,300.2188 Q262.9375,300.5 262.5,300.5 Q262.1094,300.5 261.8594,300.3281 Q261.6094,300.1563 261.5,299.7031 Q261.4531,299.3906 261.2813,299.2188 Q260.9688,298.8906 260.4063,298.7031 Q259.8438,298.5 259.2813,298.5 Q258.5781,298.5 257.9844,298.7813 Q257.4063,299.0625 256.9531,299.6875 Q256.5,300.3125 256.5,301.1719 L256.5,302.0938 Q256.5,303.125 257.3438,303.8125 Q258.1875,304.5 259.6875,304.5 Q260.5781,304.5 261.2031,304.2969 Q261.5625,304.1875 261.9688,303.8281 Q262.2344,303.625 262.375,303.5625 Q262.5156,303.5 262.6875,303.5 Q263.0156,303.5 263.25,303.7656 Q263.5,304.0156 263.5,304.375 Q263.5,304.7188 263.1563,305.125 Q262.6563,305.7188 261.8594,306.0469 Q260.8125,306.5 259.5313,306.5 Q258.0313,306.5 256.8281,305.9063 Q255.8594,305.4375 255.1719,304.4219 Q254.5,303.4063 254.5,302.2031 L254.5,301.1094 Q254.5,299.8594 255.0938,298.7656 Q255.7031,297.6719 256.75,297.0938 Q257.8125,296.5 259,296.5 Q259.7188,296.5 260.3438,296.75 Q260.9688,297 261.5,297.5 Z " fill="#000000"/><text fill="#000000" font-family="sans-serif" font-size="12" lengthAdjust="spacing" textLength="183" x="273.5" y="305.9102">SendAutomaticallyCovid19Report</text><line style="stroke:#A80036;stroke-width:1.5;" x1="245.5" x2="458.5" y1="317" y2="317"/><line style="stroke:#A80036;stroke-width:1.5;" x1="245.5" x2="458.5" y1="325" y2="325"/><!--MD5=[0f6f7964b844a64b0496af0dda7914bd]
class TestStore--><rect fill="#FEFECE" filter="url(#f1q1xmsvssrf9d)" height="48" id="TestStore" style="stroke:#A80036;stroke-width:1.5;" width="85" x="494.5" y="285"/><ellipse cx="509.5" cy="301" fill="#ADD1B2" rx="11" ry="11" style="stroke:#A80036;stroke-width:1.0;"/><path d="M511.5,297.5 Q511.7031,297 511.9375,296.75 Q512.1719,296.5 512.4375,296.5 Q512.9063,296.5 513.2031,296.7813 Q513.5,297.0625 513.5,297.7188 L513.5,299.2813 Q513.5,299.9375 513.2188,300.2188 Q512.9375,300.5 512.5,300.5 Q512.1094,300.5 511.8594,300.3281 Q511.6094,300.1563 511.5,299.7031 Q511.4531,299.3906 511.2813,299.2188 Q510.9688,298.8906 510.4063,298.7031 Q509.8438,298.5 509.2813,298.5 Q508.5781,298.5 507.9844,298.7813 Q507.4063,299.0625 506.9531,299.6875 Q506.5,300.3125 506.5,301.1719 L506.5,302.0938 Q506.5,303.125 507.3438,303.8125 Q508.1875,304.5 509.6875,304.5 Q510.5781,304.5 511.2031,304.2969 Q511.5625,304.1875 511.9688,303.8281 Q512.2344,303.625 512.375,303.5625 Q512.5156,303.5 512.6875,303.5 Q513.0156,303.5 513.25,303.7656 Q513.5,304.0156 513.5,304.375 Q513.5,304.7188 513.1563,305.125 Q512.6563,305.7188 511.8594,306.0469 Q510.8125,306.5 509.5313,306.5 Q508.0313,306.5 506.8281,305.9063 Q505.8594,305.4375 505.1719,304.4219 Q504.5,303.4063 504.5,302.2031 L504.5,301.1094 Q504.5,299.8594 505.0938,298.7656 Q505.7031,297.6719 506.75,297.0938 Q507.8125,296.5 509,296.5 Q509.7188,296.5 510.3438,296.75 Q510.9688,297 511.5,297.5 Z " fill="#000000"/><text fill="#000000" font-family="sans-serif" font-size="12" lengthAdjust="spacing" textLength="53" x="523.5" y="305.9102">TestStore</text><line style="stroke:#A80036;stroke-width:1.5;" x1="495.5" x2="578.5" y1="317" y2="317"/><line style="stroke:#A80036;stroke-width:1.5;" x1="495.5" x2="578.5" y1="325" y2="325"/><!--MD5=[e33a7418716726e6bf7aa1d12c8ddbb4]
link Company to SendAutomaticallyCovid19Report--><path codeLine="32" d="M423.58,152.39 C405.62,191.44 380.03,247.07 364.81,280.16 " fill="none" id="Company-to-SendAutomaticallyCovid19Report" style="stroke:#A80036;stroke-width:1.0;stroke-dasharray:7.0,7.0;"/><polygon fill="#A80036" points="362.64,284.87,370.0304,278.3598,364.7262,280.326,362.76,275.0219,362.64,284.87" style="stroke:#A80036;stroke-width:1.0;"/><!--MD5=[7f6cf7f175eae0af66201860de5de971]
link Company to TestStore--><path codeLine="33" d="M464.64,152.39 C482.8,191.44 508.67,247.07 524.05,280.16 " fill="none" id="Company-to-TestStore" style="stroke:#A80036;stroke-width:1.0;"/><polygon fill="#A80036" points="526.25,284.87,526.0789,275.0226,524.1403,280.3369,518.826,278.3982,526.25,284.87" style="stroke:#A80036;stroke-width:1.0;"/><text fill="#000000" font-family="sans-serif" font-size="13" lengthAdjust="spacing" textLength="28" x="513" y="251.4951">uses</text><text fill="#000000" font-family="sans-serif" font-size="13" lengthAdjust="spacing" textLength="7" x="459.9432" y="173.1161">1</text><text fill="#000000" font-family="sans-serif" font-size="13" lengthAdjust="spacing" textLength="7" x="515.5984" y="274.1768">1</text><!--MD5=[bb7d722395d796a3219021991c3ea33e]
@startuml
skinparam classAttributeIconSize 0

class Company {
+createCovid19ReportSimple(xInterval, yInterval, xHistoricalPoints,yHistoricalPoints, confidenceLevel,significanceLevel,currentDay,typeOfData)
+createCovid19ReportMultiple(x1Interval, x2Interval, yInterval, x1HistoricalPoints, x2HistoricalPoints, yHistoricalPoints, confidenceLevel, significanceLevel, currentDay, typeOfData)
+sendCovid19Report(report)
}

class SendAutomaticallyCovid19Report() {
+SendAutomaticallyCovid19Report()
+createCovid19ReportSimple(initialDate, endDate,currentDay, historicalPoints, typeOfData,independentVariable,significanceLevel,confidenceLevel)
+createCovid19ReportMultiple(initialDate, endDate, currentDay,historicalPoints,typeOfData,significanceLevel,confidenceLevel)
+readFromConfigurationFile()
}

class TestStore(){
+getIntervalTestList(initialDate, endDate)
+getCovidTestsLstByInterval(initialDate, endDate)
+getNumberOfPositiveCovidTestsForDayInInterval(initialDate, endDate)
+getNumberOfPositiveCovidTestsForDayHistoricalPoints(currentDay, historicalPoints)
+getNumberOfTestsPerformedForDayInInterval(initialDate, endDate)
+getNumberOfTestsPerformedForDayHistoricalPoints(currentDay, historicalPoints)
+getMeanAgeForDayInInterval(initialDate, endDate)
+getMeanAgeForDayHistoricalPoints(currentDay, historicalPoints)
+getNumberOfTestsPerformedForWeekHistoricalPoints(currentDay,historicalPoints)
+getNumberOfPositiveCovidTestsForWeekHistoricalPoints(currentDay, historicalPoints)
+getMeanAgeForWeekHistoricalPoints(currentDay,historicalPoints)

}


Company..>SendAutomaticallyCovid19Report
Company "1"- ->"1" TestStore : uses
@enduml

PlantUML version 1.2021.00(Sun Jan 10 10:25:05 GMT 2021)
(GPL source distribution)
Java Runtime: OpenJDK Runtime Environment
JVM: OpenJDK 64-Bit Server VM
Default Encoding: Cp1252
Language: pt
Country: PT
--></g></svg>