<?xml version="1.0" encoding="UTF-8" standalone="no"?><svg xmlns="http://www.w3.org/2000/svg" xmlns:xlink="http://www.w3.org/1999/xlink" contentScriptType="application/ecmascript" contentStyleType="text/css" height="74px" preserveAspectRatio="none" style="width:489px;height:74px;" version="1.1" viewBox="0 0 489 74" width="489px" zoomAndPan="magnify"><defs><filter height="300%" id="f1abj4jk6c1uf3" width="300%" x="-1" y="-1"><feGaussianBlur result="blurOut" stdDeviation="2.0"/><feColorMatrix in="blurOut" result="blurOut2" type="matrix" values="0 0 0 0 0 0 0 0 0 0 0 0 0 0 0 0 0 0 .4 0"/><feOffset dx="4.0" dy="4.0" in="blurOut2" result="blurOut3"/><feBlend in="SourceGraphic" in2="blurOut3" mode="normal"/></filter></defs><g><!--MD5=[02e4b9b7573f1156f41e60aa5b4e25a4]
class Company--><rect codeLine="4" fill="#FEFECE" filter="url(#f1abj4jk6c1uf3)" height="53.8359" id="Company" style="stroke:#A80036;stroke-width:1.5;" width="85" x="7" y="7"/><ellipse cx="22" cy="23" fill="#ADD1B2" rx="11" ry="11" style="stroke:#A80036;stroke-width:1.0;"/><path d="M24,19.5 Q24.2031,19 24.4375,18.75 Q24.6719,18.5 24.9375,18.5 Q25.4063,18.5 25.7031,18.7813 Q26,19.0625 26,19.7188 L26,21.2813 Q26,21.9375 25.7188,22.2188 Q25.4375,22.5 25,22.5 Q24.6094,22.5 24.3594,22.3281 Q24.1094,22.1563 24,21.7031 Q23.9531,21.3906 23.7813,21.2188 Q23.4688,20.8906 22.9063,20.7031 Q22.3438,20.5 21.7813,20.5 Q21.0781,20.5 20.4844,20.7813 Q19.9063,21.0625 19.4531,21.6875 Q19,22.3125 19,23.1719 L19,24.0938 Q19,25.125 19.8438,25.8125 Q20.6875,26.5 22.1875,26.5 Q23.0781,26.5 23.7031,26.2969 Q24.0625,26.1875 24.4688,25.8281 Q24.7344,25.625 24.875,25.5625 Q25.0156,25.5 25.1875,25.5 Q25.5156,25.5 25.75,25.7656 Q26,26.0156 26,26.375 Q26,26.7188 25.6563,27.125 Q25.1563,27.7188 24.3594,28.0469 Q23.3125,28.5 22.0313,28.5 Q20.5313,28.5 19.3281,27.9063 Q18.3594,27.4375 17.6719,26.4219 Q17,25.4063 17,24.2031 L17,23.1094 Q17,21.8594 17.5938,20.7656 Q18.2031,19.6719 19.25,19.0938 Q20.3125,18.5 21.5,18.5 Q22.2188,18.5 22.8438,18.75 Q23.4688,19 24,19.5 Z " fill="#000000"/><text fill="#000000" font-family="sans-serif" font-size="12" lengthAdjust="spacing" textLength="53" x="36" y="27.9102">Company</text><line style="stroke:#A80036;stroke-width:1.5;" x1="8" x2="91" y1="39" y2="39"/><text fill="#000000" font-family="sans-serif" font-size="11" lengthAdjust="spacing" textLength="59" x="13" y="54.4189">-designation</text><!--MD5=[6b613c47955d26261bf1ca67a1458210]
class NhsApi--><rect codeLine="8" fill="#FEFECE" filter="url(#f1abj4jk6c1uf3)" height="40" id="NhsApi" style="stroke:#A80036;stroke-width:1.5;" width="72" x="189.5" y="14"/><ellipse cx="204.5" cy="30" fill="#ADD1B2" rx="11" ry="11" style="stroke:#A80036;stroke-width:1.0;"/><path d="M206.5,26.5 Q206.7031,26 206.9375,25.75 Q207.1719,25.5 207.4375,25.5 Q207.9063,25.5 208.2031,25.7813 Q208.5,26.0625 208.5,26.7188 L208.5,28.2813 Q208.5,28.9375 208.2188,29.2188 Q207.9375,29.5 207.5,29.5 Q207.1094,29.5 206.8594,29.3281 Q206.6094,29.1563 206.5,28.7031 Q206.4531,28.3906 206.2813,28.2188 Q205.9688,27.8906 205.4063,27.7031 Q204.8438,27.5 204.2813,27.5 Q203.5781,27.5 202.9844,27.7813 Q202.4063,28.0625 201.9531,28.6875 Q201.5,29.3125 201.5,30.1719 L201.5,31.0938 Q201.5,32.125 202.3438,32.8125 Q203.1875,33.5 204.6875,33.5 Q205.5781,33.5 206.2031,33.2969 Q206.5625,33.1875 206.9688,32.8281 Q207.2344,32.625 207.375,32.5625 Q207.5156,32.5 207.6875,32.5 Q208.0156,32.5 208.25,32.7656 Q208.5,33.0156 208.5,33.375 Q208.5,33.7188 208.1563,34.125 Q207.6563,34.7188 206.8594,35.0469 Q205.8125,35.5 204.5313,35.5 Q203.0313,35.5 201.8281,34.9063 Q200.8594,34.4375 200.1719,33.4219 Q199.5,32.4063 199.5,31.2031 L199.5,30.1094 Q199.5,28.8594 200.0938,27.7656 Q200.7031,26.6719 201.75,26.0938 Q202.8125,25.5 204,25.5 Q204.7188,25.5 205.3438,25.75 Q205.9688,26 206.5,26.5 Z " fill="#000000"/><text fill="#000000" font-family="sans-serif" font-size="12" lengthAdjust="spacing" textLength="40" x="218.5" y="34.9102">NhsApi</text><line style="stroke:#A80036;stroke-width:1.5;" x1="190.5" x2="260.5" y1="46" y2="46"/><!--MD5=[8ccb22436dd277bde4e48928c0f3fb40]
class Covid19Report--><rect codeLine="11" fill="#FEFECE" filter="url(#f1abj4jk6c1uf3)" height="40" id="Covid19Report" style="stroke:#A80036;stroke-width:1.5;" width="114" x="361.5" y="14"/><ellipse cx="376.5" cy="30" fill="#ADD1B2" rx="11" ry="11" style="stroke:#A80036;stroke-width:1.0;"/><path d="M378.5,26.5 Q378.7031,26 378.9375,25.75 Q379.1719,25.5 379.4375,25.5 Q379.9063,25.5 380.2031,25.7813 Q380.5,26.0625 380.5,26.7188 L380.5,28.2813 Q380.5,28.9375 380.2188,29.2188 Q379.9375,29.5 379.5,29.5 Q379.1094,29.5 378.8594,29.3281 Q378.6094,29.1563 378.5,28.7031 Q378.4531,28.3906 378.2813,28.2188 Q377.9688,27.8906 377.4063,27.7031 Q376.8438,27.5 376.2813,27.5 Q375.5781,27.5 374.9844,27.7813 Q374.4063,28.0625 373.9531,28.6875 Q373.5,29.3125 373.5,30.1719 L373.5,31.0938 Q373.5,32.125 374.3438,32.8125 Q375.1875,33.5 376.6875,33.5 Q377.5781,33.5 378.2031,33.2969 Q378.5625,33.1875 378.9688,32.8281 Q379.2344,32.625 379.375,32.5625 Q379.5156,32.5 379.6875,32.5 Q380.0156,32.5 380.25,32.7656 Q380.5,33.0156 380.5,33.375 Q380.5,33.7188 380.1563,34.125 Q379.6563,34.7188 378.8594,35.0469 Q377.8125,35.5 376.5313,35.5 Q375.0313,35.5 373.8281,34.9063 Q372.8594,34.4375 372.1719,33.4219 Q371.5,32.4063 371.5,31.2031 L371.5,30.1094 Q371.5,28.8594 372.0938,27.7656 Q372.7031,26.6719 373.75,26.0938 Q374.8125,25.5 376,25.5 Q376.7188,25.5 377.3438,25.75 Q377.9688,26 378.5,26.5 Z " fill="#000000"/><text fill="#000000" font-family="sans-serif" font-size="12" lengthAdjust="spacing" textLength="82" x="390.5" y="34.9102">Covid19Report</text><line style="stroke:#A80036;stroke-width:1.5;" x1="362.5" x2="474.5" y1="46" y2="46"/><!--MD5=[b845843cb17016f6a8b81b5b15531d2b]
link Company to NhsApi--><path codeLine="14" d="M92.1,34 C120.07,34 156.46,34 184.16,34 " fill="none" id="Company-to-NhsApi" style="stroke:#A80036;stroke-width:1.0;"/><polygon fill="#A80036" points="189.23,34,180.23,30,184.23,34,180.23,38,189.23,34" style="stroke:#A80036;stroke-width:1.0;"/><polygon fill="#000000" points="119.25,22.1758,110.2049,19.2369,110.2049,25.1147,119.25,22.1758" style="stroke:#000000;stroke-width:1.0;"/><text fill="#000000" font-family="sans-serif" font-size="13" lengthAdjust="spacing" textLength="48" x="123.25" y="27.4951">resort to</text><text fill="#000000" font-family="sans-serif" font-size="13" lengthAdjust="spacing" textLength="7" x="100.0234" y="30.1644">1</text><text fill="#000000" font-family="sans-serif" font-size="13" lengthAdjust="spacing" textLength="7" x="174.4003" y="29.9547">1</text><!--MD5=[6df85c8f6f06e28e4cf84af3a1c2ffa6]
link NhsApi to Covid19Report--><path codeLine="15" d="M261.8,34 C288.33,34 324.96,34 356.14,34 " fill="none" id="NhsApi-to-Covid19Report" style="stroke:#A80036;stroke-width:1.0;"/><polygon fill="#A80036" points="361.49,34,352.49,30,356.49,34,352.49,38,361.49,34" style="stroke:#A80036;stroke-width:1.0;"/><polygon fill="#000000" points="289,22.1758,279.9549,19.2369,279.9549,25.1147,289,22.1758" style="stroke:#000000;stroke-width:1.0;"/><text fill="#000000" font-family="sans-serif" font-size="13" lengthAdjust="spacing" textLength="50" x="293" y="27.4951">send the</text><text fill="#000000" font-family="sans-serif" font-size="13" lengthAdjust="spacing" textLength="7" x="269.3869" y="30.0036">1</text><text fill="#000000" font-family="sans-serif" font-size="13" lengthAdjust="spacing" textLength="5" x="348.4933" y="30.4437">*</text><!--MD5=[c65bdfb6e3c9aaf14a65b33a6ce29fb1]
@startuml
hide methods
skinparam classAttributeIconSize 0

class Company{
-designation
}

class NhsApi{
}

class Covid19Report{
}

Company "1" -> "1" NhsApi : resort to >
NhsApi "1" -> "*" Covid19Report : send the >

@enduml

PlantUML version 1.2021.00(Sun Jan 10 10:25:05 GMT 2021)
(GPL source distribution)
Java Runtime: OpenJDK Runtime Environment
JVM: OpenJDK 64-Bit Server VM
Default Encoding: Cp1252
Language: pt
Country: PT
--></g></svg>