<?xml version="1.0" encoding="UTF-8" standalone="no"?><svg xmlns="http://www.w3.org/2000/svg" xmlns:xlink="http://www.w3.org/1999/xlink" contentScriptType="application/ecmascript" contentStyleType="text/css" height="302px" preserveAspectRatio="none" style="width:578px;height:302px;" version="1.1" viewBox="0 0 578 302" width="578px" zoomAndPan="magnify"><defs><filter height="300%" id="f11xu087gq3oyf" width="300%" x="-1" y="-1"><feGaussianBlur result="blurOut" stdDeviation="2.0"/><feColorMatrix in="blurOut" result="blurOut2" type="matrix" values="0 0 0 0 0 0 0 0 0 0 0 0 0 0 0 0 0 0 .4 0"/><feOffset dx="4.0" dy="4.0" in="blurOut2" result="blurOut3"/><feBlend in="SourceGraphic" in2="blurOut3" mode="normal"/></filter></defs><g><!--MD5=[03960189e81aa2c066c762ffabbee709]
class Receptionist--><rect codeLine="6" fill="#FEFECE" filter="url(#f11xu087gq3oyf)" height="40" id="Receptionist" style="stroke:#A80036;stroke-width:1.5;" width="101" x="7" y="191.5"/><ellipse cx="22" cy="207.5" fill="#ADD1B2" rx="11" ry="11" style="stroke:#A80036;stroke-width:1.0;"/><path d="M24,204 Q24.2031,203.5 24.4375,203.25 Q24.6719,203 24.9375,203 Q25.4063,203 25.7031,203.2813 Q26,203.5625 26,204.2188 L26,205.7813 Q26,206.4375 25.7188,206.7188 Q25.4375,207 25,207 Q24.6094,207 24.3594,206.8281 Q24.1094,206.6563 24,206.2031 Q23.9531,205.8906 23.7813,205.7188 Q23.4688,205.3906 22.9063,205.2031 Q22.3438,205 21.7813,205 Q21.0781,205 20.4844,205.2813 Q19.9063,205.5625 19.4531,206.1875 Q19,206.8125 19,207.6719 L19,208.5938 Q19,209.625 19.8438,210.3125 Q20.6875,211 22.1875,211 Q23.0781,211 23.7031,210.7969 Q24.0625,210.6875 24.4688,210.3281 Q24.7344,210.125 24.875,210.0625 Q25.0156,210 25.1875,210 Q25.5156,210 25.75,210.2656 Q26,210.5156 26,210.875 Q26,211.2188 25.6563,211.625 Q25.1563,212.2188 24.3594,212.5469 Q23.3125,213 22.0313,213 Q20.5313,213 19.3281,212.4063 Q18.3594,211.9375 17.6719,210.9219 Q17,209.9063 17,208.7031 L17,207.6094 Q17,206.3594 17.5938,205.2656 Q18.2031,204.1719 19.25,203.5938 Q20.3125,203 21.5,203 Q22.2188,203 22.8438,203.25 Q23.4688,203.5 24,204 Z " fill="#000000"/><text fill="#000000" font-family="sans-serif" font-size="12" lengthAdjust="spacing" textLength="69" x="36" y="212.4102">Receptionist</text><line style="stroke:#A80036;stroke-width:1.5;" x1="8" x2="107" y1="223.5" y2="223.5"/><!--MD5=[ed6624c6556d5e7b1bd23032162d20b7]
class Client--><rect codeLine="10" fill="#FEFECE" filter="url(#f11xu087gq3oyf)" height="150.6875" id="Client" style="stroke:#A80036;stroke-width:1.5;" width="111" x="265" y="7"/><ellipse cx="301.15" cy="23" fill="#ADD1B2" rx="11" ry="11" style="stroke:#A80036;stroke-width:1.0;"/><path d="M303.15,19.5 Q303.3531,19 303.5875,18.75 Q303.8219,18.5 304.0875,18.5 Q304.5563,18.5 304.8531,18.7813 Q305.15,19.0625 305.15,19.7188 L305.15,21.2813 Q305.15,21.9375 304.8688,22.2188 Q304.5875,22.5 304.15,22.5 Q303.7594,22.5 303.5094,22.3281 Q303.2594,22.1563 303.15,21.7031 Q303.1031,21.3906 302.9313,21.2188 Q302.6188,20.8906 302.0563,20.7031 Q301.4938,20.5 300.9313,20.5 Q300.2281,20.5 299.6344,20.7813 Q299.0563,21.0625 298.6031,21.6875 Q298.15,22.3125 298.15,23.1719 L298.15,24.0938 Q298.15,25.125 298.9938,25.8125 Q299.8375,26.5 301.3375,26.5 Q302.2281,26.5 302.8531,26.2969 Q303.2125,26.1875 303.6188,25.8281 Q303.8844,25.625 304.025,25.5625 Q304.1656,25.5 304.3375,25.5 Q304.6656,25.5 304.9,25.7656 Q305.15,26.0156 305.15,26.375 Q305.15,26.7188 304.8063,27.125 Q304.3063,27.7188 303.5094,28.0469 Q302.4625,28.5 301.1813,28.5 Q299.6813,28.5 298.4781,27.9063 Q297.5094,27.4375 296.8219,26.4219 Q296.15,25.4063 296.15,24.2031 L296.15,23.1094 Q296.15,21.8594 296.7438,20.7656 Q297.3531,19.6719 298.4,19.0938 Q299.4625,18.5 300.65,18.5 Q301.3688,18.5 301.9938,18.75 Q302.6188,19 303.15,19.5 Z " fill="#000000"/><text fill="#000000" font-family="sans-serif" font-size="12" lengthAdjust="spacing" textLength="32" x="319.85" y="27.9102">Client</text><line style="stroke:#A80036;stroke-width:1.5;" x1="266" x2="375" y1="39" y2="39"/><text fill="#000000" font-family="sans-serif" font-size="11" lengthAdjust="spacing" textLength="99" x="271" y="54.4189">-citizen card number</text><text fill="#000000" font-family="sans-serif" font-size="11" lengthAdjust="spacing" textLength="64" x="271" y="68.2549">-NHS number</text><text fill="#000000" font-family="sans-serif" font-size="11" lengthAdjust="spacing" textLength="49" x="271" y="82.0908">-birth date</text><text fill="#000000" font-family="sans-serif" font-size="11" lengthAdjust="spacing" textLength="22" x="271" y="95.9268">-sex</text><text fill="#000000" font-family="sans-serif" font-size="11" lengthAdjust="spacing" textLength="18" x="271" y="109.7627">-TIF</text><text fill="#000000" font-family="sans-serif" font-size="11" lengthAdjust="spacing" textLength="73" x="271" y="123.5986">-phone number</text><text fill="#000000" font-family="sans-serif" font-size="11" lengthAdjust="spacing" textLength="32" x="271" y="137.4346">-e-mail</text><text fill="#000000" font-family="sans-serif" font-size="11" lengthAdjust="spacing" textLength="30" x="271" y="151.2705">-name</text><!--MD5=[78bec0fde86ad92ec1dc3fb343b83709]
class Email--><rect codeLine="21" fill="#FEFECE" filter="url(#f11xu087gq3oyf)" height="53.8359" id="Email" style="stroke:#A80036;stroke-width:1.5;" width="66" x="498" y="55.5"/><ellipse cx="513.9" cy="71.5" fill="#ADD1B2" rx="11" ry="11" style="stroke:#A80036;stroke-width:1.0;"/><path d="M515.9,68 Q516.1031,67.5 516.3375,67.25 Q516.5719,67 516.8375,67 Q517.3063,67 517.6031,67.2813 Q517.9,67.5625 517.9,68.2188 L517.9,69.7813 Q517.9,70.4375 517.6188,70.7188 Q517.3375,71 516.9,71 Q516.5094,71 516.2594,70.8281 Q516.0094,70.6563 515.9,70.2031 Q515.8531,69.8906 515.6813,69.7188 Q515.3688,69.3906 514.8063,69.2031 Q514.2438,69 513.6813,69 Q512.9781,69 512.3844,69.2813 Q511.8063,69.5625 511.3531,70.1875 Q510.9,70.8125 510.9,71.6719 L510.9,72.5938 Q510.9,73.625 511.7438,74.3125 Q512.5875,75 514.0875,75 Q514.9781,75 515.6031,74.7969 Q515.9625,74.6875 516.3688,74.3281 Q516.6344,74.125 516.775,74.0625 Q516.9156,74 517.0875,74 Q517.4156,74 517.65,74.2656 Q517.9,74.5156 517.9,74.875 Q517.9,75.2188 517.5563,75.625 Q517.0563,76.2188 516.2594,76.5469 Q515.2125,77 513.9313,77 Q512.4313,77 511.2281,76.4063 Q510.2594,75.9375 509.5719,74.9219 Q508.9,73.9063 508.9,72.7031 L508.9,71.6094 Q508.9,70.3594 509.4938,69.2656 Q510.1031,68.1719 511.15,67.5938 Q512.2125,67 513.4,67 Q514.1188,67 514.7438,67.25 Q515.3688,67.5 515.9,68 Z " fill="#000000"/><text fill="#000000" font-family="sans-serif" font-size="12" lengthAdjust="spacing" textLength="32" x="528.1" y="76.4102">Email</text><line style="stroke:#A80036;stroke-width:1.5;" x1="499" x2="563" y1="87.5" y2="87.5"/><text fill="#000000" font-family="sans-serif" font-size="11" lengthAdjust="spacing" textLength="54" x="504" y="102.9189">-password</text><!--MD5=[7421f545a0d8420c5bec41e74b387d9c]
class Employee--><rect codeLine="25" fill="#FEFECE" filter="url(#f11xu087gq3oyf)" height="95.3438" id="Employee" style="stroke:#A80036;stroke-width:1.5;" width="87" x="277" y="193"/><ellipse cx="292" cy="209" fill="#ADD1B2" rx="11" ry="11" style="stroke:#A80036;stroke-width:1.0;"/><path d="M294,205.5 Q294.2031,205 294.4375,204.75 Q294.6719,204.5 294.9375,204.5 Q295.4063,204.5 295.7031,204.7813 Q296,205.0625 296,205.7188 L296,207.2813 Q296,207.9375 295.7188,208.2188 Q295.4375,208.5 295,208.5 Q294.6094,208.5 294.3594,208.3281 Q294.1094,208.1563 294,207.7031 Q293.9531,207.3906 293.7813,207.2188 Q293.4688,206.8906 292.9063,206.7031 Q292.3438,206.5 291.7813,206.5 Q291.0781,206.5 290.4844,206.7813 Q289.9063,207.0625 289.4531,207.6875 Q289,208.3125 289,209.1719 L289,210.0938 Q289,211.125 289.8438,211.8125 Q290.6875,212.5 292.1875,212.5 Q293.0781,212.5 293.7031,212.2969 Q294.0625,212.1875 294.4688,211.8281 Q294.7344,211.625 294.875,211.5625 Q295.0156,211.5 295.1875,211.5 Q295.5156,211.5 295.75,211.7656 Q296,212.0156 296,212.375 Q296,212.7188 295.6563,213.125 Q295.1563,213.7188 294.3594,214.0469 Q293.3125,214.5 292.0313,214.5 Q290.5313,214.5 289.3281,213.9063 Q288.3594,213.4375 287.6719,212.4219 Q287,211.4063 287,210.2031 L287,209.1094 Q287,207.8594 287.5938,206.7656 Q288.2031,205.6719 289.25,205.0938 Q290.3125,204.5 291.5,204.5 Q292.2188,204.5 292.8438,204.75 Q293.4688,205 294,205.5 Z " fill="#000000"/><text fill="#000000" font-family="sans-serif" font-size="12" lengthAdjust="spacing" textLength="55" x="306" y="213.9102">Employee</text><line style="stroke:#A80036;stroke-width:1.5;" x1="278" x2="363" y1="225" y2="225"/><text fill="#000000" font-family="sans-serif" font-size="11" lengthAdjust="spacing" textLength="30" x="283" y="240.4189">-name</text><text fill="#000000" font-family="sans-serif" font-size="11" lengthAdjust="spacing" textLength="43" x="283" y="254.2549">-function</text><text fill="#000000" font-family="sans-serif" font-size="11" lengthAdjust="spacing" textLength="34" x="283" y="268.0908">-phone</text><text fill="#000000" font-family="sans-serif" font-size="11" lengthAdjust="spacing" textLength="28" x="283" y="281.9268">-email</text><!--MD5=[6a35157f4c730bda767e7c9f1b8b7f73]
link Receptionist to Client--><path codeLine="33" d="M98.99,191.49 C143.53,169.48 215.32,133.99 264.82,109.53 " fill="none" id="Receptionist-Client" style="stroke:#A80036;stroke-width:1.0;"/><polygon fill="#000000" points="147.4824,116.4604,138.0715,117.8334,140.6758,123.1028,147.4824,116.4604" style="stroke:#000000;stroke-width:1.0;"/><text fill="#000000" font-family="sans-serif" font-size="13" lengthAdjust="spacing" textLength="82" x="152" y="123.9951">has registered</text><text fill="#000000" font-family="sans-serif" font-size="13" lengthAdjust="spacing" textLength="7" x="103.1496" y="180.8088">1</text><text fill="#000000" font-family="sans-serif" font-size="13" lengthAdjust="spacing" textLength="5" x="252.0021" y="127.7769">*</text><!--MD5=[3d4318aa56b2322dc15876394339f951]
link Client to Email--><path codeLine="34" d="M376.01,82.5 C414.74,82.5 465.44,82.5 497.87,82.5 " fill="none" id="Client-Email" style="stroke:#A80036;stroke-width:1.0;"/><polygon fill="#000000" points="416,73.6758,406.9549,70.7369,406.9549,76.6147,416,73.6758" style="stroke:#000000;stroke-width:1.0;"/><text fill="#000000" font-family="sans-serif" font-size="13" lengthAdjust="spacing" textLength="47" x="420" y="78.9951">receives</text><text fill="#000000" font-family="sans-serif" font-size="13" lengthAdjust="spacing" textLength="5" x="384.1677" y="97.1668">*</text><text fill="#000000" font-family="sans-serif" font-size="13" lengthAdjust="spacing" textLength="12" x="477.7994" y="97.6983">1*</text><!--MD5=[06bb7d2a85a007b79d10922b2d5e4cdd]
link Receptionist to Employee--><path codeLine="35" d="M108.21,217.02 C150.44,221.72 211.28,228.48 256.84,233.54 " fill="none" id="Receptionist-to-Employee" style="stroke:#A80036;stroke-width:1.0;"/><polygon fill="none" points="257.78,226.6,276.89,235.77,256.24,240.51,257.78,226.6" style="stroke:#A80036;stroke-width:1.0;"/><!--MD5=[47fbae42c07a530c648d7d3dd9f4db76]
@startuml
hide methods
left to right direction
skinparam classAttributeIconSize 0


class Receptionist {

}

class Client {
  -citizen card number
  -NHS number
  -birth date
  -sex
  -TIF
  -phone number
  -e-mail
  -name
}

class Email {
  -password
}

class Employee {
  -name
  -function
  -phone
  -email
}


Receptionist "1" - - "*" Client : has registered >
Client "*" - - "1*" Email: receives >
Receptionist - -|> Employee


@enduml

PlantUML version 1.2021.4(Sun Apr 04 09:49:39 BST 2021)
(GPL source distribution)
Java Runtime: OpenJDK Runtime Environment
JVM: OpenJDK 64-Bit Server VM
Default Encoding: Cp1252
Language: pt
Country: PT
--></g></svg>