<?xml version="1.0" encoding="UTF-8" standalone="no"?><svg xmlns="http://www.w3.org/2000/svg" xmlns:xlink="http://www.w3.org/1999/xlink" contentScriptType="application/ecmascript" contentStyleType="text/css" height="302px" preserveAspectRatio="none" style="width:561px;height:302px;" version="1.1" viewBox="0 0 561 302" width="561px" zoomAndPan="magnify"><defs><filter height="300%" id="f2mhqpfdt6u5w" width="300%" x="-1" y="-1"><feGaussianBlur result="blurOut" stdDeviation="2.0"/><feColorMatrix in="blurOut" result="blurOut2" type="matrix" values="0 0 0 0 0 0 0 0 0 0 0 0 0 0 0 0 0 0 .4 0"/><feOffset dx="4.0" dy="4.0" in="blurOut2" result="blurOut3"/><feBlend in="SourceGraphic" in2="blurOut3" mode="normal"/></filter></defs><g><!--MD5=[03960189e81aa2c066c762ffabbee709]
class Receptionist--><rect codeLine="6" fill="#FEFECE" filter="url(#f2mhqpfdt6u5w)" height="40" id="Receptionist" style="stroke:#A80036;stroke-width:1.5;" width="101" x="7" y="191.5"/><ellipse cx="22" cy="207.5" fill="#ADD1B2" rx="11" ry="11" style="stroke:#A80036;stroke-width:1.0;"/><path d="M24,204 Q24.2031,203.5 24.4375,203.25 Q24.6719,203 24.9375,203 Q25.4063,203 25.7031,203.2813 Q26,203.5625 26,204.2188 L26,205.7813 Q26,206.4375 25.7188,206.7188 Q25.4375,207 25,207 Q24.6094,207 24.3594,206.8281 Q24.1094,206.6563 24,206.2031 Q23.9531,205.8906 23.7813,205.7188 Q23.4688,205.3906 22.9063,205.2031 Q22.3438,205 21.7813,205 Q21.0781,205 20.4844,205.2813 Q19.9063,205.5625 19.4531,206.1875 Q19,206.8125 19,207.6719 L19,208.5938 Q19,209.625 19.8438,210.3125 Q20.6875,211 22.1875,211 Q23.0781,211 23.7031,210.7969 Q24.0625,210.6875 24.4688,210.3281 Q24.7344,210.125 24.875,210.0625 Q25.0156,210 25.1875,210 Q25.5156,210 25.75,210.2656 Q26,210.5156 26,210.875 Q26,211.2188 25.6563,211.625 Q25.1563,212.2188 24.3594,212.5469 Q23.3125,213 22.0313,213 Q20.5313,213 19.3281,212.4063 Q18.3594,211.9375 17.6719,210.9219 Q17,209.9063 17,208.7031 L17,207.6094 Q17,206.3594 17.5938,205.2656 Q18.2031,204.1719 19.25,203.5938 Q20.3125,203 21.5,203 Q22.2188,203 22.8438,203.25 Q23.4688,203.5 24,204 Z " fill="#000000"/><text fill="#000000" font-family="sans-serif" font-size="12" lengthAdjust="spacing" textLength="69" x="36" y="212.4102">Receptionist</text><line style="stroke:#A80036;stroke-width:1.5;" x1="8" x2="107" y1="223.5" y2="223.5"/><!--MD5=[ed6624c6556d5e7b1bd23032162d20b7]
class Client--><rect codeLine="10" fill="#FEFECE" filter="url(#f2mhqpfdt6u5w)" height="150.6875" id="Client" style="stroke:#A80036;stroke-width:1.5;" width="111" x="248" y="7"/><ellipse cx="284.15" cy="23" fill="#ADD1B2" rx="11" ry="11" style="stroke:#A80036;stroke-width:1.0;"/><path d="M286.15,19.5 Q286.3531,19 286.5875,18.75 Q286.8219,18.5 287.0875,18.5 Q287.5563,18.5 287.8531,18.7813 Q288.15,19.0625 288.15,19.7188 L288.15,21.2813 Q288.15,21.9375 287.8688,22.2188 Q287.5875,22.5 287.15,22.5 Q286.7594,22.5 286.5094,22.3281 Q286.2594,22.1563 286.15,21.7031 Q286.1031,21.3906 285.9313,21.2188 Q285.6188,20.8906 285.0563,20.7031 Q284.4938,20.5 283.9313,20.5 Q283.2281,20.5 282.6344,20.7813 Q282.0563,21.0625 281.6031,21.6875 Q281.15,22.3125 281.15,23.1719 L281.15,24.0938 Q281.15,25.125 281.9938,25.8125 Q282.8375,26.5 284.3375,26.5 Q285.2281,26.5 285.8531,26.2969 Q286.2125,26.1875 286.6188,25.8281 Q286.8844,25.625 287.025,25.5625 Q287.1656,25.5 287.3375,25.5 Q287.6656,25.5 287.9,25.7656 Q288.15,26.0156 288.15,26.375 Q288.15,26.7188 287.8063,27.125 Q287.3063,27.7188 286.5094,28.0469 Q285.4625,28.5 284.1813,28.5 Q282.6813,28.5 281.4781,27.9063 Q280.5094,27.4375 279.8219,26.4219 Q279.15,25.4063 279.15,24.2031 L279.15,23.1094 Q279.15,21.8594 279.7438,20.7656 Q280.3531,19.6719 281.4,19.0938 Q282.4625,18.5 283.65,18.5 Q284.3688,18.5 284.9938,18.75 Q285.6188,19 286.15,19.5 Z " fill="#000000"/><text fill="#000000" font-family="sans-serif" font-size="12" lengthAdjust="spacing" textLength="32" x="302.85" y="27.9102">Client</text><line style="stroke:#A80036;stroke-width:1.5;" x1="249" x2="358" y1="39" y2="39"/><text fill="#000000" font-family="sans-serif" font-size="11" lengthAdjust="spacing" textLength="99" x="254" y="54.4189">-citizen card number</text><text fill="#000000" font-family="sans-serif" font-size="11" lengthAdjust="spacing" textLength="64" x="254" y="68.2549">-NHS number</text><text fill="#000000" font-family="sans-serif" font-size="11" lengthAdjust="spacing" textLength="49" x="254" y="82.0908">-birth date</text><text fill="#000000" font-family="sans-serif" font-size="11" lengthAdjust="spacing" textLength="22" x="254" y="95.9268">-sex</text><text fill="#000000" font-family="sans-serif" font-size="11" lengthAdjust="spacing" textLength="18" x="254" y="109.7627">-TIF</text><text fill="#000000" font-family="sans-serif" font-size="11" lengthAdjust="spacing" textLength="73" x="254" y="123.5986">-phone number</text><text fill="#000000" font-family="sans-serif" font-size="11" lengthAdjust="spacing" textLength="32" x="254" y="137.4346">-e-mail</text><text fill="#000000" font-family="sans-serif" font-size="11" lengthAdjust="spacing" textLength="30" x="254" y="151.2705">-name</text><!--MD5=[78bec0fde86ad92ec1dc3fb343b83709]
class Email--><rect codeLine="21" fill="#FEFECE" filter="url(#f2mhqpfdt6u5w)" height="67.6719" id="Email" style="stroke:#A80036;stroke-width:1.5;" width="66" x="481" y="48.5"/><ellipse cx="496.9" cy="64.5" fill="#ADD1B2" rx="11" ry="11" style="stroke:#A80036;stroke-width:1.0;"/><path d="M498.9,61 Q499.1031,60.5 499.3375,60.25 Q499.5719,60 499.8375,60 Q500.3063,60 500.6031,60.2813 Q500.9,60.5625 500.9,61.2188 L500.9,62.7813 Q500.9,63.4375 500.6188,63.7188 Q500.3375,64 499.9,64 Q499.5094,64 499.2594,63.8281 Q499.0094,63.6563 498.9,63.2031 Q498.8531,62.8906 498.6813,62.7188 Q498.3688,62.3906 497.8063,62.2031 Q497.2438,62 496.6813,62 Q495.9781,62 495.3844,62.2813 Q494.8063,62.5625 494.3531,63.1875 Q493.9,63.8125 493.9,64.6719 L493.9,65.5938 Q493.9,66.625 494.7438,67.3125 Q495.5875,68 497.0875,68 Q497.9781,68 498.6031,67.7969 Q498.9625,67.6875 499.3688,67.3281 Q499.6344,67.125 499.775,67.0625 Q499.9156,67 500.0875,67 Q500.4156,67 500.65,67.2656 Q500.9,67.5156 500.9,67.875 Q500.9,68.2188 500.5563,68.625 Q500.0563,69.2188 499.2594,69.5469 Q498.2125,70 496.9313,70 Q495.4313,70 494.2281,69.4063 Q493.2594,68.9375 492.5719,67.9219 Q491.9,66.9063 491.9,65.7031 L491.9,64.6094 Q491.9,63.3594 492.4938,62.2656 Q493.1031,61.1719 494.15,60.5938 Q495.2125,60 496.4,60 Q497.1188,60 497.7438,60.25 Q498.3688,60.5 498.9,61 Z " fill="#000000"/><text fill="#000000" font-family="sans-serif" font-size="12" lengthAdjust="spacing" textLength="32" x="511.1" y="69.4102">Email</text><line style="stroke:#A80036;stroke-width:1.5;" x1="482" x2="546" y1="80.5" y2="80.5"/><text fill="#000000" font-family="sans-serif" font-size="11" lengthAdjust="spacing" textLength="48" x="487" y="95.9189">-message</text><text fill="#000000" font-family="sans-serif" font-size="11" lengthAdjust="spacing" textLength="54" x="487" y="109.7549">-password</text><!--MD5=[7421f545a0d8420c5bec41e74b387d9c]
class Employee--><rect codeLine="26" fill="#FEFECE" filter="url(#f2mhqpfdt6u5w)" height="95.3438" id="Employee" style="stroke:#A80036;stroke-width:1.5;" width="87" x="260" y="193"/><ellipse cx="275" cy="209" fill="#ADD1B2" rx="11" ry="11" style="stroke:#A80036;stroke-width:1.0;"/><path d="M277,205.5 Q277.2031,205 277.4375,204.75 Q277.6719,204.5 277.9375,204.5 Q278.4063,204.5 278.7031,204.7813 Q279,205.0625 279,205.7188 L279,207.2813 Q279,207.9375 278.7188,208.2188 Q278.4375,208.5 278,208.5 Q277.6094,208.5 277.3594,208.3281 Q277.1094,208.1563 277,207.7031 Q276.9531,207.3906 276.7813,207.2188 Q276.4688,206.8906 275.9063,206.7031 Q275.3438,206.5 274.7813,206.5 Q274.0781,206.5 273.4844,206.7813 Q272.9063,207.0625 272.4531,207.6875 Q272,208.3125 272,209.1719 L272,210.0938 Q272,211.125 272.8438,211.8125 Q273.6875,212.5 275.1875,212.5 Q276.0781,212.5 276.7031,212.2969 Q277.0625,212.1875 277.4688,211.8281 Q277.7344,211.625 277.875,211.5625 Q278.0156,211.5 278.1875,211.5 Q278.5156,211.5 278.75,211.7656 Q279,212.0156 279,212.375 Q279,212.7188 278.6563,213.125 Q278.1563,213.7188 277.3594,214.0469 Q276.3125,214.5 275.0313,214.5 Q273.5313,214.5 272.3281,213.9063 Q271.3594,213.4375 270.6719,212.4219 Q270,211.4063 270,210.2031 L270,209.1094 Q270,207.8594 270.5938,206.7656 Q271.2031,205.6719 272.25,205.0938 Q273.3125,204.5 274.5,204.5 Q275.2188,204.5 275.8438,204.75 Q276.4688,205 277,205.5 Z " fill="#000000"/><text fill="#000000" font-family="sans-serif" font-size="12" lengthAdjust="spacing" textLength="55" x="289" y="213.9102">Employee</text><line style="stroke:#A80036;stroke-width:1.5;" x1="261" x2="346" y1="225" y2="225"/><text fill="#000000" font-family="sans-serif" font-size="11" lengthAdjust="spacing" textLength="30" x="266" y="240.4189">-name</text><text fill="#000000" font-family="sans-serif" font-size="11" lengthAdjust="spacing" textLength="43" x="266" y="254.2549">-function</text><text fill="#000000" font-family="sans-serif" font-size="11" lengthAdjust="spacing" textLength="34" x="266" y="268.0908">-phone</text><text fill="#000000" font-family="sans-serif" font-size="11" lengthAdjust="spacing" textLength="28" x="266" y="281.9268">-email</text><!--MD5=[6a35157f4c730bda767e7c9f1b8b7f73]
link Receptionist to Client--><path codeLine="34" d="M96.36,191.49 C136.92,170.04 201.67,135.81 247.77,111.44 " fill="none" id="Receptionist-Client" style="stroke:#A80036;stroke-width:1.0;"/><polygon fill="#000000" points="147.4202,116.3388,138.0503,117.9683,140.7976,123.1646,147.4202,116.3388" style="stroke:#000000;stroke-width:1.0;"/><text fill="#000000" font-family="sans-serif" font-size="13" lengthAdjust="spacing" textLength="65" x="152" y="123.9951">register the</text><text fill="#000000" font-family="sans-serif" font-size="13" lengthAdjust="spacing" textLength="7" x="99.747" y="180.8088">1</text><text fill="#000000" font-family="sans-serif" font-size="13" lengthAdjust="spacing" textLength="5" x="234.9453" y="129.9435">*</text><!--MD5=[3d4318aa56b2322dc15876394339f951]
link Client to Email--><path codeLine="35" d="M359.01,82.5 C397.74,82.5 448.44,82.5 480.87,82.5 " fill="none" id="Client-Email" style="stroke:#A80036;stroke-width:1.0;"/><polygon fill="#000000" points="399,73.6758,389.9549,70.7369,389.9549,76.6147,399,73.6758" style="stroke:#000000;stroke-width:1.0;"/><text fill="#000000" font-family="sans-serif" font-size="13" lengthAdjust="spacing" textLength="47" x="403" y="78.9951">receives</text><text fill="#000000" font-family="sans-serif" font-size="13" lengthAdjust="spacing" textLength="5" x="367.1677" y="97.1668">*</text><text fill="#000000" font-family="sans-serif" font-size="13" lengthAdjust="spacing" textLength="12" x="460.7994" y="97.7152">1*</text><!--MD5=[06bb7d2a85a007b79d10922b2d5e4cdd]
link Receptionist to Employee--><path codeLine="36" d="M108.17,217.4 C146.23,221.93 198.98,228.2 239.92,233.06 " fill="none" id="Receptionist-to-Employee" style="stroke:#A80036;stroke-width:1.0;"/><polygon fill="none" points="240.79,226.12,259.82,235.43,239.14,240.02,240.79,226.12" style="stroke:#A80036;stroke-width:1.0;"/><!--MD5=[c1570723c3fde8e140f2fd3669986168]
@startuml
hide methods
left to right direction
skinparam classAttributeIconSize 0


class Receptionist {

}

class Client {
  -citizen card number
  -NHS number
  -birth date
  -sex
  -TIF
  -phone number
  -e-mail
  -name
}

class Email {
  -message
  -password
}

class Employee {
  -name
  -function
  -phone
  -email
}


Receptionist "1" - - "*" Client : register the >
Client "*" - - "1*" Email: receives >
Receptionist - -|> Employee


@enduml

PlantUML version 1.2021.4(Sun Apr 04 09:49:39 BST 2021)
(GPL source distribution)
Java Runtime: OpenJDK Runtime Environment
JVM: OpenJDK 64-Bit Server VM
Default Encoding: Cp1252
Language: pt
Country: PT
--></g></svg>